<?xml version="1.0" encoding="UTF-8"?>
<svg version="1.1" xmlns="http://www.w3.org/2000/svg" width="1024" height="655">
<path d="M0 0 C24.75 0 49.5 0 75 0 C75 24.75 75 49.5 75 75 C100.74 75 126.48 75 153 75 C153 50.25 153 25.5 153 0 C179.07 0 205.14 0 232 0 C232 24.75 232 49.5 232 75 C257.74 75 283.48 75 310 75 C310 50.25 310 25.5 310 0 C533.41 0 756.82 0 987 0 C987 99.99 987 199.98 987 303 C535.065 302.505 535.065 302.505 74 302 C74 279.23 74 256.46 74 233 C49.58 233 25.16 233 0 233 C0 206.93 0 180.86 0 154 C24.42 154 48.84 154 74 154 C74 128.26 74 102.52 74 76 C49.58 76 25.16 76 0 76 C0 50.92 0 25.84 0 0 Z M782.625 64 C777.10740281 71.81529346 773.92175652 80.4006379 775 90 C777.56466491 99.26903351 782.3210813 105.36781841 790.375 110.5 C791.01002441 110.91451416 791.64504883 111.32902832 792.29931641 111.75610352 C798.25047631 115.60244833 804.31632236 119.26397136 810.375 122.9375 C814.25166498 125.28894059 818.12727708 127.64207157 822 130 C822.85110352 130.51804199 823.70220703 131.03608398 824.57910156 131.56982422 C844.19882296 143.59646888 844.19882296 143.59646888 847 152 C847.78101577 158.47127352 846.50437088 161.84220768 842.640625 167.078125 C839.52314117 170.73003463 837.32085506 171.85590672 832.5625 172.375 C825.54201198 171.63600126 820.38967317 167.26713037 814.875 163.1875 C813.26782357 162.01309509 811.6597167 160.83996264 810.05078125 159.66796875 C809.2201416 159.06259277 808.38950195 158.4572168 807.53369141 157.83349609 C803.40622833 154.84667323 799.23794695 151.91921898 795.0625 149 C794.22976563 148.41766602 793.39703125 147.83533203 792.5390625 147.23535156 C786.84416302 143.26344524 781.11520116 139.34352613 775.375 135.4375 C768.37615787 130.67268424 761.47992239 125.78362004 754.63061523 120.80664062 C747.50541924 115.62922199 740.31332064 110.55020902 733.10888672 105.48388672 C728.85957924 102.49392482 724.61669567 99.49485255 720.37255859 96.49755859 C716.84548681 94.00714626 713.316985 91.5188188 709.78515625 89.03515625 C703.23378386 84.42470659 696.69904335 79.79515773 690.21533203 75.08984375 C686.48409372 72.38319628 682.74248798 69.69105881 679 67 C678.29423828 66.48985352 677.58847656 65.97970703 676.86132812 65.45410156 C663.92139993 56.13807684 649.73395255 46.27656967 633 48 C621.31062943 50.02812423 613.91680939 57.32998167 607.0625 66.5625 C606.46187744 67.35261475 605.86125488 68.14272949 605.24243164 68.95678711 C601.31743773 74.14800952 597.49791836 79.41302771 593.76025391 84.74047852 C590.98552979 88.68085824 588.08909042 92.50844125 585.13330078 96.31469727 C567.15834524 119.47821973 557.58475394 141.1484218 558 171 C498.44110946 173.94349932 498.44110946 173.94349932 481.875 159.375 C480.13360658 157.79269262 478.41160413 156.19277146 476.69970703 154.57861328 C473.98641324 152.05862511 471.15134965 149.68889733 468.3125 147.3125 C467.24865971 146.41540989 466.18485706 145.51827514 465.12109375 144.62109375 C464.08085737 143.7472432 463.0404932 142.87354474 462 142 C461.47680176 141.55930176 460.95360352 141.11860352 460.41455078 140.66455078 C458.90557973 139.39633797 457.39040672 138.13551571 455.875 136.875 C455.00617188 136.15054688 454.13734375 135.42609375 453.2421875 134.6796875 C451.02115267 132.83166277 451.02115267 132.83166277 448 132 C448 131.34 448 130.68 448 130 C449.47005997 130.01332367 449.47005997 130.01332367 450.96981812 130.0269165 C460.23780833 130.1082532 469.50572545 130.16808528 478.77399254 130.20724869 C483.53811985 130.22806042 488.30195738 130.25625989 493.06591797 130.30175781 C497.66952968 130.34544564 502.27286389 130.36918527 506.87666702 130.37950897 C508.62683094 130.38685939 510.37698088 130.40121246 512.1270256 130.42292023 C524.49969566 130.57018983 534.82054856 129.95829954 544.24609375 121.046875 C553.6623482 110.05774953 553.97039926 95.725551 553 82 C551.4603503 71.06608141 547.14881203 62.48021059 538.29296875 55.69140625 C528.76891616 49.15453105 518.27143839 48.54549834 507.03125 48.48828125 C505.65960232 48.47115778 504.28796896 48.45285263 502.91635132 48.43347168 C499.21528762 48.3851574 495.51429416 48.35531685 491.81301117 48.3298378 C488.70299706 48.30652585 485.59311591 48.27340848 482.48319054 48.24053478 C472.51914299 48.13609371 462.55501483 48.07057853 452.59059143 48.01489258 C449.98612715 47.99992025 447.38167496 47.98356775 444.77722168 47.96679688 C433.63162511 47.89564902 422.48615085 47.84709746 411.34036255 47.81966782 C408.88875824 47.81254 406.43718511 47.80223865 403.9855957 47.79116821 C400.10726728 47.77444922 396.22905906 47.76852594 392.35069656 47.77061462 C390.93469283 47.76990801 389.51868579 47.76591344 388.10270309 47.75816345 C371.47582568 47.67339996 355.45768949 48.89029066 343 61 C327.79040723 78.93324218 325.64632892 101.42321447 327 124 C327.69269756 129.54906334 329.16671654 134.71583004 331 140 C331.37382812 141.09570312 331.74765625 142.19140625 332.1328125 143.3203125 C338.00251901 158.83033168 349.84884802 169.43999462 364.6796875 176.28125 C369.73427654 178.424637 374.94619881 179.69262748 380.32836914 180.72192383 C384.49560892 181.52646259 387.71940012 182.25800092 391 185 C391.54992608 187.82322721 391.76485003 190.09413576 391.78515625 192.9296875 C391.81298691 193.71586456 391.84081757 194.50204163 391.86949158 195.31204224 C391.95687023 197.83295285 392.01261127 200.35308839 392.0625 202.875 C392.46885933 225.00620695 392.46885933 225.00620695 403 244 C412.04482064 251.56396718 420.08265463 254.1625474 431.81067085 254.12863445 C432.96797775 254.13126401 432.96797775 254.13126401 434.14866459 254.13394669 C436.73724009 254.13860325 439.32575933 254.13614205 441.91433716 254.13371277 C443.78774781 254.13558092 445.66115807 254.13788164 447.53456771 254.14057809 C452.68556477 254.14670213 457.83654562 254.14656178 462.98754549 254.14538372 C468.54191622 254.14517986 474.09628172 254.15069709 479.65065002 254.15544128 C490.5345534 254.16375204 501.41845135 254.16649633 512.30235763 254.16705366 C521.14984397 254.16752868 529.99732852 254.16958275 538.8448143 254.17275429 C559.84485675 254.18012895 580.84489823 254.18627897 601.84494209 254.18575573 C602.85234614 254.18573236 602.85234614 254.18573236 603.88010179 254.18570852 C607.2840112 254.18562541 610.68792062 254.18552637 614.09183003 254.18542381 C614.76784917 254.18540387 615.44386831 254.18538392 616.14037288 254.18536337 C617.50744939 254.18532294 618.8745259 254.18528114 620.24160241 254.18523798 C641.50352303 254.18462544 662.7654277 254.19212775 684.02734375 254.20581055 C707.91988569 254.22117994 731.81241724 254.22976356 755.70496547 254.22884732 C768.35347968 254.22851534 781.0019759 254.23126311 793.65048599 254.24202538 C804.42110454 254.25113099 815.19169693 254.25330516 825.96231766 254.24651595 C831.4563872 254.24325088 836.95040659 254.24319361 842.44447136 254.2518692 C847.47804092 254.25973577 852.51152055 254.2583011 857.54508792 254.24958507 C859.36206873 254.24805042 861.17905626 254.24986492 862.99602915 254.25544515 C881.20346991 254.30764118 896.4063565 252.92575655 910.4375 240.125 C925.1951131 224.89534204 926.63149115 203.98311652 926.56640625 183.98046875 C926.57165934 181.98618789 926.57794187 179.9919095 926.58518982 177.99763489 C926.59552526 173.84164644 926.59113333 169.68600183 926.57641602 165.5300293 C926.55925766 160.25875884 926.58272419 154.98858164 926.61790562 149.71743298 C926.64008842 145.6050167 926.63838789 141.49285352 926.6301403 137.38039589 C926.6293318 135.43953568 926.63597924 133.49865473 926.65091133 131.55785179 C926.7551905 115.5540586 925.83875513 97.74323923 915 85 C914.57332031 84.38253906 914.14664063 83.76507813 913.70703125 83.12890625 C907.24393336 74.31559094 894.98560477 71.02252187 885.0859375 67.46875 C883.99141266 67.06974487 882.89688782 66.67073975 881.76919556 66.25964355 C879.46958417 65.42282591 877.1687331 64.58940765 874.86669922 63.75927734 C871.401882 62.50969496 867.94089312 61.24997116 864.48046875 59.98828125 C858.98879712 57.9904907 853.48913483 56.01640757 847.98233032 54.06072998 C846.07504576 53.38236317 844.16911997 52.70015597 842.26498413 52.01300049 C829.75079284 47.45126771 829.75079284 47.45126771 816.5625 46.375 C815.72541504 46.39828369 814.88833008 46.42156738 814.02587891 46.44555664 C800.04255659 47.07424942 791.27966177 53.15455919 782.625 64 Z M154 76 C154 101.74 154 127.48 154 154 C179.41 154 204.82 154 231 154 C231 128.26 231 102.52 231 76 C205.59 76 180.18 76 154 76 Z M75 155 C75 180.41 75 205.82 75 232 C100.74 232 126.48 232 153 232 C153 206.59 153 181.18 153 155 C127.26 155 101.52 155 75 155 Z " fill="#F6F6FA" transform="translate(18,18)"/>
<path d="M0 0 C1.2117691 0.47458145 2.42353821 0.9491629 3.67202759 1.43812561 C6.21344089 2.43435422 8.75271917 3.43578663 11.29052734 4.44116211 C14.5276384 5.72310226 17.76974832 6.99181174 21.01354027 8.2567358 C24.13678308 9.47668315 27.25568239 10.70755037 30.375 11.9375 C32.10947891 12.61425026 32.10947891 12.61425026 33.8789978 13.30467224 C41.51360425 16.34214941 48.07893233 18.969961 52.7890625 26.03515625 C54.86963795 31.02945004 55.08031287 35.39823047 55.0637207 40.71166992 C55.06883163 41.56294464 55.07394257 42.41421936 55.07920837 43.29129028 C55.0930655 46.09530749 55.09214987 48.89907768 55.08984375 51.703125 C55.0937341 53.66360057 55.09806947 55.6240753 55.10282898 57.58454895 C55.11028382 61.69254284 55.11000618 65.80045079 55.10473633 69.90844727 C55.0989566 75.14913841 55.11584009 80.38947442 55.139081 85.63010693 C55.15388382 89.68040493 55.15468092 93.73061883 55.15157127 97.7809391 C55.15208166 99.71165988 55.15726576 101.64238572 55.16738319 103.57308006 C55.29077549 130.42313073 55.29077549 130.42313073 45.7890625 141.03515625 C39.24519436 146.37735599 32.38200695 148.3410403 23.9900732 148.29242516 C23.21981484 148.29593123 22.44955648 148.2994373 21.65595695 148.30304962 C19.07174902 148.31236265 16.48776649 148.30744059 13.90354919 148.30258179 C12.03339789 148.30631807 10.16324815 148.3109195 8.29310089 148.31631243 C3.15137924 148.32856005 -1.99027743 148.3282799 -7.13201034 148.32592368 C-12.67602982 148.32551597 -18.22002834 148.33655009 -23.76403809 148.34603882 C-34.62554208 148.36265823 -45.48702437 148.36814874 -56.34854002 148.36926357 C-65.17368231 148.37021337 -73.99881742 148.37432023 -82.82395744 148.38066483 C-103.76139168 148.39541153 -124.69882202 148.40771434 -145.63626194 148.40666771 C-146.30577545 148.40663655 -146.97528896 148.40660539 -147.66509076 148.40657329 C-151.05850281 148.40640708 -154.45191486 148.40620899 -157.84532691 148.40600388 C-158.51927855 148.40596399 -159.19323019 148.4059241 -159.88760461 148.405883 C-161.25049749 148.40580212 -162.61339036 148.40571853 -163.97628323 148.40563221 C-185.19116608 148.4044061 -206.40598504 148.41943146 -227.62084961 148.44677734 C-251.45143467 148.47748218 -275.28197809 148.49468555 -299.11258835 148.4928509 C-311.73239699 148.49218596 -324.35213356 148.49772393 -336.97192574 148.519207 C-347.71312426 148.5373747 -358.45421803 148.54180235 -369.19542522 148.52818815 C-374.67855618 148.52163686 -380.16148592 148.52161912 -385.64459801 148.53889465 C-390.66000698 148.55453462 -395.67505364 148.55185527 -400.69045328 148.53432639 C-402.50865662 148.53123643 -404.3268864 148.53496325 -406.14505858 148.54604654 C-408.60974593 148.56008062 -411.07314698 148.54965111 -413.53778934 148.53293419 C-414.24970768 148.54287055 -414.96162601 148.55280691 -415.69511762 148.56304437 C-420.45716369 148.49438789 -422.88286918 147.42512143 -426.2109375 144.03515625 C-428.38179774 139.43445451 -428.49128254 134.96300561 -428.484375 129.9609375 C-428.50467683 128.389967 -428.52552784 126.81900352 -428.546875 125.24804688 C-428.56935296 122.80405732 -428.58590692 120.36034756 -428.59179688 117.91625977 C-428.64299518 105.27923712 -429.35233865 94.74439206 -438.0390625 84.7890625 C-445.35708499 78.87936449 -454.2159853 77.39347589 -463.19140625 75.41210938 C-473.73557112 72.95359063 -483.19083758 69.52962235 -489.2109375 60.03515625 C-493.44422615 50.83291599 -494.41193337 42.41925057 -494.4609375 32.41015625 C-494.4815625 31.38019531 -494.5021875 30.35023438 -494.5234375 29.2890625 C-494.57541101 18.95932834 -492.80310672 8.54575932 -486.0234375 0.41015625 C-477.10744519 -7.11890392 -468.42871087 -6.50785768 -457.359375 -6.390625 C-455.56526519 -6.3861868 -453.77115046 -6.3834538 -451.97703552 -6.38230896 C-447.17298509 -6.37387986 -442.36943562 -6.34011508 -437.56555557 -6.30021667 C-433.59046226 -6.26970202 -429.61535629 -6.25223247 -425.64018726 -6.23484612 C-415.65900243 -6.19099495 -405.67822442 -6.1199752 -395.6973238 -6.03370476 C-389.48948376 -5.98085618 -383.2817314 -5.94130064 -377.07373047 -5.91357422 C-369.71965122 -5.88047962 -362.36604237 -5.82691498 -355.01226807 -5.75228882 C-352.36318726 -5.72742062 -349.71404535 -5.70835302 -347.06488037 -5.69522095 C-343.43204527 -5.67424013 -339.8004445 -5.62806064 -336.16796875 -5.57421875 C-334.59141762 -5.57233803 -334.59141762 -5.57233803 -332.98301697 -5.57041931 C-328.54290241 -5.47934852 -325.93456205 -5.406431 -322.08398438 -3.05664062 C-318.3309036 1.13475615 -318.15304787 6.70725089 -317.8984375 12.16015625 C-318.26033716 16.64771207 -319.0211577 19.12483518 -321.2109375 23.03515625 C-324.69673314 25.49428117 -328.06914212 25.29229837 -332.23583984 25.30639648 C-332.93570007 25.31162323 -333.6355603 25.31684998 -334.35662842 25.32223511 C-335.87454365 25.33246169 -337.39249382 25.33825318 -338.91044235 25.3401165 C-341.32592627 25.34379423 -343.74100466 25.36056499 -346.15640259 25.38087463 C-353.02362447 25.43611047 -359.89090857 25.46675223 -366.75830078 25.49145508 C-370.96465724 25.50749423 -375.17073253 25.53789325 -379.37694168 25.57621956 C-380.96742346 25.5877413 -382.55795595 25.59379877 -384.14847946 25.59390068 C-405.01807435 25.49139003 -405.01807435 25.49139003 -422.98828125 34.70703125 C-427.34579966 39.50542799 -428.59860216 43.22948008 -428.48828125 49.82421875 C-427.08660639 60.99813384 -418.50926544 68.01098262 -410.2578125 74.58984375 C-407.08347244 77.13745513 -403.98957928 79.76321398 -400.8984375 82.41015625 C-395.16744261 87.29112806 -389.30646711 91.9880338 -383.35546875 96.59765625 C-381.54861963 97.99824488 -379.74931595 99.40896498 -377.97265625 100.84765625 C-355.33180018 118.84783996 -320.93711863 119.19276005 -293.3359375 116.41015625 C-283.35601392 114.87149566 -275.20331126 111.10252693 -268.61328125 103.35546875 C-264.36303196 96.32302285 -263.57380831 89.3058001 -262.7734375 81.28515625 C-260.36743497 60.24215654 -251.15904448 47.15204272 -238.94140625 30.41113281 C-236.68973321 27.31952982 -234.45376622 24.21676136 -232.21850586 21.11328125 C-230.079684 18.14509419 -227.93495734 15.18120318 -225.78955078 12.21777344 C-224.72659132 10.74810787 -223.66509513 9.27738299 -222.60498047 7.80566406 C-221.08173034 5.69178508 -219.55323537 3.58179943 -218.0234375 1.47265625 C-217.56565918 0.83497314 -217.10788086 0.19729004 -216.63623047 -0.4597168 C-213.43907802 -4.85077349 -213.43907802 -4.85077349 -211.2109375 -5.96484375 C-203.13158482 -7.14002232 -198.5580334 -3.56207306 -192.2109375 1.03515625 C-191.56866211 1.49647949 -190.92638672 1.95780273 -190.26464844 2.43310547 C-187.29990782 4.56431542 -184.33991306 6.70175146 -181.38916016 8.85229492 C-175.89703532 12.84981365 -170.33283847 16.72274872 -164.7109375 20.53515625 C-157.73660887 25.26979325 -150.86989275 30.12954998 -144.05297852 35.08764648 C-138.45893843 39.1504423 -132.81741997 43.14017744 -127.1484375 47.09765625 C-126.30949951 47.68337402 -125.47056152 48.2690918 -124.60620117 48.87255859 C-122.94083167 50.03494029 -121.27538683 51.19721405 -119.60986328 52.359375 C-110.12672045 58.98387046 -100.69460509 65.67345937 -91.3359375 72.47265625 C-84.41776725 77.49608397 -77.40051565 82.35373107 -70.32568359 87.15332031 C-64.79900829 90.91486055 -59.36404575 94.78611424 -53.9609375 98.72265625 C-31.53467739 115.73374356 -31.53467739 115.73374356 -4.2109375 119.03515625 C5.69686971 116.59074834 12.68978581 109.0148232 18.18359375 100.79296875 C24.44232989 90.0419524 27.5310869 79.17801041 25.17578125 66.81640625 C19.70561587 46.57438457 3.73746573 36.69860222 -13.29003906 26.75634766 C-18.63881383 23.6044869 -23.92867526 20.35940723 -29.2109375 17.09765625 C-30.2436377 16.47101074 -31.27633789 15.84436523 -32.34033203 15.19873047 C-33.30825684 14.59947754 -34.27618164 14.00022461 -35.2734375 13.3828125 C-36.55927734 12.5940271 -36.55927734 12.5940271 -37.87109375 11.78930664 C-40.53035302 9.79569459 -42.3392215 7.77762003 -44.2109375 5.03515625 C-44.2109375 1.3497647 -43.44694678 -0.58023603 -41.5234375 -3.71484375 C-30.77921732 -14.1686796 -11.48210801 -4.54790034 0 0 Z " fill="#F6F6FA" transform="translate(864.2109375,97.96484375)"/>
<path d="M0 0 C6.6 0 13.2 0 20 0 C20 35.97 20 71.94 20 109 C13.73 109 7.46 109 1 109 C0.67 107.02 0.34 105.04 0 103 C-0.58007812 103.40992188 -1.16015625 103.81984375 -1.7578125 104.2421875 C-2.53898438 104.78101563 -3.32015625 105.31984375 -4.125 105.875 C-4.89070312 106.40867187 -5.65640625 106.94234375 -6.4453125 107.4921875 C-14.29887517 112.12747067 -23.33679701 112.1881343 -32.109375 110.34765625 C-39.61847698 107.93105299 -44.52389918 104.30511397 -48.46484375 97.453125 C-55.11888301 83.79787921 -55.88420063 68.67332211 -52.04296875 54.01171875 C-48.91648659 44.98356241 -44.1975982 39.03193228 -36 34.25 C-27.92490768 31.13455418 -18.56634707 31.24738344 -10.37890625 33.72265625 C-8 35 -8 35 -1 41 C-0.67 27.47 -0.34 13.94 0 0 Z M-27.6875 53.5 C-32.88290993 60.32633149 -33.57266158 68.81046497 -32.57421875 77.06640625 C-31.39709357 83.08015463 -29.81520165 88.22801743 -25.375 92.5625 C-21.1932061 95.09358578 -17.85361639 95.58911648 -13 95 C-7.91399208 93.10352247 -5.75416703 91.17602741 -3.125 86.4375 C0.67172432 77.90426811 0.98903658 68.84989263 -2 60 C-4.08917663 55.67452163 -6.55901192 51.15705135 -11 49 C-18.30871472 47.34964506 -22.05943811 48.26459359 -27.6875 53.5 Z " fill="#F4F5F9" transform="translate(869,364)"/>
<path d="M0 0 C7.59 0 15.18 0 23 0 C28.61 16.83 34.22 33.66 40 51 C41.876875 45.534375 43.75375 40.06875 45.6875 34.4375 C46.26846436 32.74681396 46.84942871 31.05612793 47.44799805 29.31420898 C47.92769654 27.91654678 48.40727404 26.51884303 48.88671875 25.12109375 C49.1453923 24.36775253 49.40406586 23.61441132 49.670578 22.83824158 C50.9588666 19.07713257 52.23242879 15.31209257 53.47509766 11.53564453 C53.70469681 10.83875015 53.93429596 10.14185577 54.17085266 9.42384338 C54.79363943 7.52708246 55.41221739 5.62894108 56.03051758 3.73071289 C57 1 57 1 58 0 C59.4887186 -0.08669432 60.981445 -0.10703494 62.47265625 -0.09765625 C63.37177734 -0.09443359 64.27089844 -0.09121094 65.19726562 -0.08789062 C66.61555664 -0.07532227 66.61555664 -0.07532227 68.0625 -0.0625 C69.4865918 -0.05573242 69.4865918 -0.05573242 70.93945312 -0.04882812 C73.29303065 -0.0370011 75.64648477 -0.02052025 78 0 C77.38449361 4.53495825 76.21284848 8.50052466 74.5949707 12.77709961 C74.22881905 13.75176682 74.22881905 13.75176682 73.85527039 14.74612427 C73.05074508 16.88357514 72.23838037 19.01795066 71.42578125 21.15234375 C70.8582173 22.65466458 70.29110162 24.15715482 69.72441101 25.6598053 C68.53486136 28.81069233 67.3417532 31.96019886 66.14575195 35.10864258 C64.62939671 39.10046364 63.1189668 43.09448991 61.61091328 47.0894537 C60.15540305 50.94452025 58.69699354 54.79848791 57.23828125 58.65234375 C56.96788843 59.36731459 56.69749561 60.08228542 56.41890907 60.81892204 C53.58742438 68.29978282 50.72639472 75.7689252 47.78979492 83.20922852 C47.08895027 84.98922997 47.08895027 84.98922997 46.37394714 86.80519104 C42.88853639 94.90973971 37.36694513 103.17585008 29.02734375 106.875 C20.941604 109.18980422 12.99110211 108.11584737 5 106 C4.97269592 104.43759968 4.95346774 102.8750573 4.9375 101.3125 C4.92589844 100.44238281 4.91429687 99.57226562 4.90234375 98.67578125 C4.99956517 96.01191443 5.40635667 93.59426811 6 91 C6.79664063 91.02320313 7.59328125 91.04640625 8.4140625 91.0703125 C16.46831968 91.40049871 16.46831968 91.40049871 24 89 C26.88208878 85.73363271 27.3963833 82.82527153 27.32382202 78.52328491 C26.60147312 72.89460015 24.33205743 67.62403109 22.36328125 62.33203125 C21.88092956 61.00736763 21.39968255 59.68230129 20.91947937 58.3568573 C19.65537912 54.87738228 18.37584522 51.40378123 17.09307861 47.93115234 C15.80543294 44.43621476 14.53354466 40.93555619 13.25976562 37.43554688 C9.2463518 26.4276987 5.21119894 15.43385899 0.90739441 4.53520203 C0 2 0 2 0 0 Z " fill="#F4F5F9" transform="translate(845,529)"/>
<path d="M0 0 C1 1 1 1 1.02172852 2.76586914 C0.97459717 3.51473389 0.92746582 4.26359863 0.87890625 5.03515625 C0.80639648 6.24848633 0.80639648 6.24848633 0.73242188 7.48632812 C0.67634766 8.33646484 0.62027344 9.18660156 0.5625 10.0625 C0.51029297 10.91650391 0.45808594 11.77050781 0.40429688 12.65039062 C0.27421239 14.76721995 0.13770029 16.88365244 0 19 C-0.99580078 18.69255859 -0.99580078 18.69255859 -2.01171875 18.37890625 C-2.89472656 18.10949219 -3.77773438 17.84007812 -4.6875 17.5625 C-5.55761719 17.29566406 -6.42773438 17.02882813 -7.32421875 16.75390625 C-18.21502923 13.68540052 -29.8892258 13.46240674 -40 19 C-48.75212553 25.08609345 -52.45987409 31.83949637 -55 42 C-56.01371467 52.69115353 -55.32668735 62.85423388 -49.01171875 71.82421875 C-43.65092294 78.16643831 -38.25251741 82.2835481 -30 84 C-27.08577604 84.21385832 -24.17135996 84.18511327 -21.25 84.1875 C-20.4765625 84.19974609 -19.703125 84.21199219 -18.90625 84.22460938 C-13.58953523 84.23799037 -9.1271917 83.37997819 -4 82 C-2.68 82 -1.36 82 0 82 C1.13480527 85.60993172 1.10015767 88.9842327 1.0625 92.75 C1.05347656 93.92046875 1.04445313 95.0909375 1.03515625 96.296875 C1.02355469 97.18890625 1.01195312 98.0809375 1 99 C-15.6456103 105.24210386 -36.99626032 103.57774621 -53.078125 96.6796875 C-62.92705979 91.75522011 -69.31522217 84.88612812 -74 75 C-74.30808594 74.35675781 -74.61617188 73.71351563 -74.93359375 73.05078125 C-80.83830959 60.02650372 -79.93141166 40.26828874 -75 27 C-69.1804997 13.34864883 -59.47994319 5.58391363 -46 0 C-31.35214757 -4.96003157 -14.72202843 -4.39157881 0 0 Z " fill="#F4F5F9" transform="translate(405,504)"/>
<path d="M0 0 C1.51424561 0.00302124 1.51424561 0.00302124 3.05908203 0.00610352 C20.61730647 0.24230647 20.61730647 0.24230647 24.6875 4.3125 C24.70922852 6.07836914 24.70922852 6.07836914 24.56640625 8.34765625 C24.49389648 9.56098633 24.49389648 9.56098633 24.41992188 10.79882812 C24.36384766 11.64896484 24.30777344 12.49910156 24.25 13.375 C24.19779297 14.22900391 24.14558594 15.08300781 24.09179688 15.96289062 C23.96171239 18.07971995 23.82520029 20.19615244 23.6875 22.3125 C19.6875 20.97916667 15.6875 19.64583333 11.6875 18.3125 C2.32904088 17.4594848 -8.35728583 16.66632045 -16.3125 22.3125 C-17.0034375 22.77527344 -17.694375 23.23804688 -18.40625 23.71484375 C-25.08611283 28.81197789 -29.87056556 36.99003056 -31.3125 45.3125 C-32.21005993 57.55462891 -31.2454113 68.13150822 -23.0625 77.8125 C-15.40280349 85.64828149 -8.06207763 87.42373537 2.75 87.5625 C10.06394171 87.53353389 16.67070436 86.30039488 23.6875 84.3125 C24.64369733 88.31045892 24.7914592 92.02053922 24.75 96.125 C24.74097656 97.28644531 24.73195313 98.44789063 24.72265625 99.64453125 C24.71105469 100.52496094 24.69945312 101.40539062 24.6875 102.3125 C6.63637454 107.83835473 -15.38765436 107.23390169 -32.3125 98.3125 C-42.43670866 91.91386647 -50.60401445 82.06371131 -53.39453125 70.26171875 C-56.76813558 54.32058307 -55.42831917 36.66329915 -47.1875 22.5 C-39.02435379 10.73953513 -27.79074461 3.59644912 -13.7956543 0.68969727 C-9.2054542 -0.00756546 -4.63481742 -0.02493487 0 0 Z " fill="#F4F5F9" transform="translate(381.3125,369.6875)"/>
<path d="M0 0 C6.93 0 13.86 0 21 0 C21.01401855 2.25457031 21.01401855 2.25457031 21.02832031 4.5546875 C21.06831798 10.15345439 21.13410507 15.75167746 21.20751953 21.35009766 C21.23567231 23.76897168 21.25691502 26.18793673 21.27099609 28.60693359 C21.29250367 32.09259449 21.33919693 35.57716752 21.390625 39.0625 C21.39185364 40.13677246 21.39308228 41.21104492 21.39434814 42.31787109 C21.52227752 48.93831424 22.36874564 53.39721045 26 59 C30.70170693 60.56723564 35.06854279 60.71868175 39.6875 59 C46.36587192 53.22411077 48.1553899 46.15800168 48.80810547 37.68164062 C49.1802935 30.54093391 49.10239614 23.39818394 49.0625 16.25 C49.05747097 14.66666809 49.05291057 13.08333463 49.04882812 11.5 C49.03880353 7.6665953 49.01920975 3.83341298 49 0 C55.93 0 62.86 0 70 0 C70 25.08 70 50.16 70 76 C63.4 76 56.8 76 50 76 C49.505 72.04 49.505 72.04 49 68 C48.5875 68.39832031 48.175 68.79664063 47.75 69.20703125 C39.86652129 76.43941908 33.10528439 77.5453744 22.5625 77.2734375 C15.74632115 76.75026588 11.92051922 75.30029872 7.1875 70.3125 C-0.2556542 61.05518293 -0.15208733 50.54389915 -0.09765625 39.16015625 C-0.0962413 38.03806259 -0.09482635 36.91596893 -0.09336853 35.75987244 C-0.087794 32.19405392 -0.07524616 28.62829938 -0.0625 25.0625 C-0.05748171 22.6373707 -0.05291938 20.21224041 -0.04882812 17.78710938 C-0.03783291 11.85804846 -0.02058583 5.92903506 0 0 Z " fill="#F4F5F9" transform="translate(676,529)"/>
<path d="M0 0 C0.93328125 -0.01611328 1.8665625 -0.03222656 2.828125 -0.04882812 C10.72276291 -0.05434114 18.60181268 1.11524059 24.65234375 6.66015625 C29.97073678 13.18096857 32.06973009 20.5660356 32.20532227 28.8371582 C32.2352401 30.45827263 32.2352401 30.45827263 32.26576233 32.11213684 C32.28247482 33.2675145 32.29918732 34.42289215 32.31640625 35.61328125 C32.33718735 36.80479294 32.35796844 37.99630463 32.37937927 39.22392273 C32.44468179 43.02422403 32.50367018 46.82459352 32.5625 50.625 C32.60570356 53.20378305 32.64931844 55.78255924 32.69335938 58.36132812 C32.80034348 64.67831581 32.90166541 70.99537199 33 77.3125 C27.06 77.3125 21.12 77.3125 15 77.3125 C14.34 74.6725 13.68 72.0325 13 69.3125 C12.50371094 69.71082031 12.00742187 70.10914063 11.49609375 70.51953125 C2.02667365 77.90460081 -4.88752567 79.42421056 -17 78.3125 C-24.69470437 76.63731037 -29.49355428 71.554847 -34 65.3125 C-36.1825979 58.76470629 -36.301734 50.08923298 -33.375 43.75 C-29.01689381 36.65294513 -22.67962455 33.79529462 -15 31.3125 C-11.42908106 30.47168413 -8.14559689 30.19436817 -4.48046875 30.21484375 C-3.45888672 30.21806641 -2.43730469 30.22128906 -1.38476562 30.22460938 C-0.32966797 30.23298828 0.72542969 30.24136719 1.8125 30.25 C2.88693359 30.25451172 3.96136719 30.25902344 5.06835938 30.26367188 C7.71229683 30.27542271 10.35611952 30.29185213 13 30.3125 C12.71531708 28.86293144 12.42037094 27.41537591 12.12109375 25.96875 C11.95794678 25.16244141 11.7947998 24.35613281 11.62670898 23.52539062 C10.78513412 20.55381503 9.47737304 19.11422585 7 17.3125 C-3.24397771 13.89784076 -12.71494484 16.74607943 -22 21.3125 C-23.65 21.9725 -25.3 22.6325 -27 23.3125 C-27 17.3725 -27 11.4325 -27 5.3125 C-17.64463194 1.30305655 -10.11745991 -0.03493598 0 0 Z M-13 47.5625 C-15.50317555 51.00436639 -16.15207528 53.05439212 -16 57.3125 C-13.37963871 60.57024647 -11.12903311 63.07507583 -6.86328125 63.55078125 C-0.60486878 63.73287901 2.9734024 63.13271417 8 59.3125 C12.69164267 54.25046449 12.76516875 48.91125814 13 42.3125 C-0.84692343 41.75804642 -0.84692343 41.75804642 -13 47.5625 Z " fill="#F4F5F9" transform="translate(449,527.6875)"/>
<path d="M0 0 C0.92876953 -0.01611328 1.85753906 -0.03222656 2.81445312 -0.04882812 C10.68548327 -0.05435165 18.56542122 1.12629249 24.58984375 6.6640625 C30.18996728 13.51406867 31.9975493 21.18401531 32.14282227 29.85888672 C32.1727401 31.44985672 32.1727401 31.44985672 32.20326233 33.07296753 C32.21997482 34.20131012 32.23668732 35.32965271 32.25390625 36.4921875 C32.27468735 37.6600882 32.29546844 38.82798889 32.31687927 40.03128052 C32.38209175 43.74996238 32.44112801 47.46871289 32.5 51.1875 C32.54321213 53.71354867 32.58682728 56.23959049 32.63085938 58.765625 C32.73774412 64.94784689 32.83909102 71.13013762 32.9375 77.3125 C26.9975 77.3125 21.0575 77.3125 14.9375 77.3125 C14.2775 74.6725 13.6175 72.0325 12.9375 69.3125 C12.15375 70.055 11.37 70.7975 10.5625 71.5625 C3.24865693 77.53263702 -4.41258669 79.00456596 -13.7265625 78.69140625 C-21.38876037 77.82110977 -26.32558328 74.61890923 -31.65234375 69.19140625 C-36.11748337 63.24200969 -35.73686197 56.4270188 -35.0625 49.3125 C-33.69723978 44.00660232 -31.4116234 39.6926573 -26.90625 36.37109375 C-20.17004151 32.50348252 -13.17677294 30.17359429 -5.421875 30.21484375 C-3.81699219 30.21967773 -3.81699219 30.21967773 -2.1796875 30.22460938 C-1.06851563 30.23298828 0.04265625 30.24136719 1.1875 30.25 C2.87746094 30.25676758 2.87746094 30.25676758 4.6015625 30.26367188 C7.38026217 30.27544603 10.15885409 30.2918916 12.9375 30.3125 C12.65281708 28.86293144 12.35787094 27.41537591 12.05859375 25.96875 C11.89544678 25.16244141 11.7322998 24.35613281 11.56420898 23.52539062 C10.72263412 20.55381503 9.41487304 19.11422585 6.9375 17.3125 C-1.22982018 14.59005994 -10.29559135 15.66594609 -18.00390625 19.22265625 C-20.41350972 20.49832868 -22.75064557 21.86759098 -25.0625 23.3125 C-25.7225 23.3125 -26.3825 23.3125 -27.0625 23.3125 C-27.0625 17.3725 -27.0625 11.4325 -27.0625 5.3125 C-18.06202445 0.81226222 -9.96524336 -0.0347221 0 0 Z M-13.625 47.5625 C-15.41673716 50.99017109 -16.0625 53.43394864 -16.0625 57.3125 C-13.97624661 60.73991629 -12.8880689 62.03731037 -9.0625 63.3125 C-4.14983521 63.82828753 -0.2334773 63.88694169 4.25 61.6875 C10.26652867 56.50246916 10.26652867 56.50246916 12.9375 49.3125 C12.94503494 46.97917883 12.94561119 44.64581924 12.9375 42.3125 C-1.283892 41.52227581 -1.283892 41.52227581 -13.625 47.5625 Z " fill="#F4F5F9" transform="translate(586.0625,527.6875)"/>
<path d="M0 0 C0.99064453 -0.02900391 1.98128906 -0.05800781 3.00195312 -0.08789062 C10.96253391 -0.15575131 17.81001435 1.21464119 24.21484375 6.171875 C24.72144531 6.79578125 25.22804688 7.4196875 25.75 8.0625 C26.27464844 8.67609375 26.79929687 9.2896875 27.33984375 9.921875 C32.0470807 17.56333127 32.33720097 24.78600758 32.54296875 33.5625 C32.60318962 35.44328247 32.60318962 35.44328247 32.66462708 37.36206055 C32.76809344 40.66947807 32.85978241 43.97693813 32.94561768 47.28485107 C33.03642677 50.6706746 33.14292761 54.05600215 33.24804688 57.44140625 C33.45055193 64.06476236 33.63606429 70.68840025 33.8125 77.3125 C27.8725 77.3125 21.9325 77.3125 15.8125 77.3125 C15.1525 74.3425 14.4925 71.3725 13.8125 68.3125 C13.3278125 68.78300781 12.843125 69.25351562 12.34375 69.73828125 C4.32035163 77.19078396 -1.780986 78.92280033 -12.77734375 78.6640625 C-20.22629577 77.8961293 -25.95340427 74.54659573 -31.1875 69.3125 C-35.09689027 63.65062443 -35.88150763 56.564139 -34.78515625 49.84765625 C-32.99054452 43.63553873 -29.72884689 38.70328271 -24.3359375 35.0625 C-15.7005084 30.3835424 -6.75407834 30.02954666 2.875 30.1875 C3.93138672 30.19652344 4.98777344 30.20554687 6.07617188 30.21484375 C8.65519253 30.2381833 11.2337199 30.27092225 13.8125 30.3125 C12.31230909 23.30097997 12.31230909 23.30097997 8.0703125 17.72265625 C1.18164775 14.74087211 -6.58686426 15.22468251 -13.69140625 17.37109375 C-16.59995706 18.57377059 -19.3938285 19.86522905 -22.1875 21.3125 C-24.1675 22.3025 -24.1675 22.3025 -26.1875 23.3125 C-26.5175 17.3725 -26.8475 11.4325 -27.1875 5.3125 C-17.67178949 1.75843945 -10.1300656 0.09696936 0 0 Z M-12.75 46.9375 C-14.9645249 50.59628027 -15.72583958 54.05127687 -15.1875 58.3125 C-12.53809206 61.82117538 -11.06501951 63.00008561 -6.76953125 63.71484375 C0.09702632 63.97454714 4.38072589 62.46793615 9.5625 57.875 C13.0456784 53.4734273 13.22643733 47.71827209 13.8125 42.3125 C4.33541087 41.9437948 -4.50893288 41.71145744 -12.75 46.9375 Z " fill="#F4F5F9" transform="translate(964.1875,527.6875)"/>
<path d="M0 0 C8.1815839 7.33774341 12.06157372 18.84283293 12.7421875 29.5625 C12.7421875 32.8625 12.7421875 36.1625 12.7421875 39.5625 C-12.5028125 40.0575 -12.5028125 40.0575 -38.2578125 40.5625 C-34.76442932 50.29525369 -34.76442932 50.29525369 -27.2578125 55.5625 C-17.60364554 58.6028716 -8.45149637 55.79622193 0.7421875 52.5625 C2.7221875 51.9025 4.7021875 51.2425 6.7421875 50.5625 C6.7421875 56.1725 6.7421875 61.7825 6.7421875 67.5625 C-6.85244456 73.18161458 -22.65296916 75.40766663 -37.00390625 70.6015625 C-46.25213063 66.33808297 -52.54671684 59.00531433 -56.49609375 49.7734375 C-60.23410833 38.92361056 -59.33710746 25.16515027 -55.2578125 14.5625 C-54.979375 13.83675781 -54.7009375 13.11101562 -54.4140625 12.36328125 C-51.13816401 4.95014889 -45.66314048 -0.36059708 -38.28515625 -3.66015625 C-25.92729965 -8.39852516 -11.11325824 -7.7470016 0 0 Z M-32.2578125 11.5625 C-36.68219313 16.1033117 -38.2578125 19.22752383 -38.2578125 25.5625 C-28.0278125 25.5625 -17.7978125 25.5625 -7.2578125 25.5625 C-8.23341229 17.75770167 -8.62081948 15.28397211 -14.2578125 10.5625 C-20.72469329 7.58773484 -26.11727124 8.37851564 -32.2578125 11.5625 Z " fill="#F4F5F9" transform="translate(964.2578125,402.4375)"/>
<path d="M0 0 C6.93 0 13.86 0 21 0 C21.01458252 1.47799072 21.02916504 2.95598145 21.04418945 4.47875977 C21.10229843 9.97867648 21.1795313 15.4781892 21.26245117 20.9777832 C21.29564115 23.35499499 21.32369141 25.73228446 21.34643555 28.10961914 C21.38008986 31.53305058 21.43241301 34.95577396 21.48828125 38.37890625 C21.49467117 39.43646622 21.5010611 40.49402618 21.50764465 41.58363342 C21.62409341 47.46961281 22.12130993 51.81975593 25 57 C27.91971527 59.51419926 29.65848838 59.96340947 33.5 60.375 C38.48917363 59.84044568 40.82427048 58.27650633 44.1875 54.625 C51.32188544 44.29244178 49.2594222 28.86568953 49.5625 16.75 C49.60581035 15.11848134 49.64942804 13.48697081 49.69335938 11.85546875 C49.7996751 7.90373322 49.89970852 3.9519111 50 0 C56.6 0 63.2 0 70 0 C70 24.75 70 49.5 70 75 C63.73 75 57.46 75 51 75 C50.505 71.04 50.505 71.04 50 67 C49.53851562 67.47050781 49.07703125 67.94101562 48.6015625 68.42578125 C41.71733625 74.99708813 35.32448191 77.07747223 25.875 77.375 C18.531457 77.16760854 12.26793435 75.41031095 7 70 C-0.10332431 60.29487667 -0.31406178 48.72687784 -0.1953125 37.109375 C-0.1924826 36.03874817 -0.18965271 34.96812134 -0.18673706 33.86505127 C-0.17566933 30.49324684 -0.1505909 27.1217222 -0.125 23.75 C-0.11495284 21.44401429 -0.10583005 19.13802436 -0.09765625 16.83203125 C-0.07748778 11.22116339 -0.03831412 5.61088958 0 0 Z " fill="#F4F5F9" transform="translate(585,398)"/>
<path d="M0 0 C6.20851582 6.0705488 8.12817192 12.72859763 8.34057617 21.25415039 C8.34010639 23.61870555 8.32346758 25.98329775 8.29296875 28.34765625 C8.28872391 29.60009628 8.28447906 30.85253632 8.28010559 32.14292908 C8.26623684 35.4424933 8.2393727 38.74160233 8.20599365 42.04101562 C8.17508207 45.41986576 8.16155563 48.79878303 8.14648438 52.17773438 C8.11352886 58.78535449 8.06180482 65.3925893 8 72 C1.4 72 -5.2 72 -12 72 C-12.01458252 70.52724609 -12.02916504 69.05449219 -12.04418945 67.53710938 C-12.10235272 62.05021416 -12.179585 56.56372159 -12.26245117 51.07714844 C-12.29561573 48.70677242 -12.32367378 46.33631905 -12.34643555 43.96582031 C-12.38013688 40.54979624 -12.43246209 37.1344757 -12.48828125 33.71875 C-12.49467117 32.66635132 -12.5010611 31.61395264 -12.50764465 30.52966309 C-12.62989708 24.35079977 -13.31245039 19.59943022 -16 14 C-18.81063059 11.72472762 -20.58299878 10.93502287 -24.21484375 11.1015625 C-29.53056614 12.00373169 -32.67235337 13.59576182 -36 18 C-39.77122121 25.40775595 -40.15941791 32.42128197 -40.31640625 40.5546875 C-40.33718735 41.45623566 -40.35796844 42.35778381 -40.37937927 43.28665161 C-40.4444458 46.1493614 -40.50355914 49.01215819 -40.5625 51.875 C-40.60572607 53.82292544 -40.64934164 55.77084229 -40.69335938 57.71875 C-40.80081144 62.47907904 -40.90020319 67.23947976 -41 72 C-47.6 72 -54.2 72 -61 72 C-61 46.92 -61 21.84 -61 -4 C-54.73 -4 -48.46 -4 -42 -4 C-41.67 -1.36 -41.34 1.28 -41 4 C-40.57589844 3.60167969 -40.15179687 3.20335937 -39.71484375 2.79296875 C-28.72054825 -7.13814213 -12.00317676 -9.88654514 0 0 Z " fill="#F4F5F9" transform="translate(826,533)"/>
<path d="M0 0 C0 6.93 0 13.86 0 21 C5.61 21 11.22 21 17 21 C17 25.95 17 30.9 17 36 C11.39 36 5.78 36 0 36 C0.0740717 41.46342649 0.15696384 46.9252371 0.26245117 52.38793945 C0.29565549 54.2452755 0.32370141 56.10271137 0.34643555 57.96020508 C0.38006442 60.63405798 0.43238374 63.30699993 0.48828125 65.98046875 C0.49467117 66.80773972 0.5010611 67.63501068 0.50764465 68.48735046 C0.63628977 73.5594894 1.23723318 77.23723318 5 81 C7.18639453 81.07258946 9.37500389 81.08373783 11.5625 81.0625 C13.686875 81.041875 15.81125 81.02125 18 81 C18 86.28 18 91.56 18 97 C9.48048148 99.12987963 -1.64571869 99.68184694 -9.8125 96 C-16.33279676 92.01599768 -18.80494982 86.54109309 -20.57440186 79.30195618 C-21.31596038 75.29104765 -21.24437852 71.31659148 -21.1953125 67.25 C-21.1924826 66.35128174 -21.18965271 65.45256348 -21.18673706 64.52661133 C-21.17563125 61.68426635 -21.15054505 58.84224814 -21.125 56 C-21.11495777 54.0612025 -21.10583411 52.12240001 -21.09765625 50.18359375 C-21.07572345 45.45560518 -21.04126084 40.7278578 -21 36 C-25.62 36 -30.24 36 -35 36 C-35 31.05 -35 26.1 -35 21 C-30.38 21 -25.76 21 -21 21 C-21 16.05 -21 11.1 -21 6 C-18.06428063 4.99449367 -15.1266423 3.99540746 -12.1875 3 C-11.35412109 2.71382813 -10.52074219 2.42765625 -9.66210938 2.1328125 C-8.85966797 1.86210937 -8.05722656 1.59140625 -7.23046875 1.3125 C-6.49207764 1.06113281 -5.75368652 0.80976563 -4.99291992 0.55078125 C-3 0 -3 0 0 0 Z " fill="#F4F5F9" transform="translate(526,508)"/>
<path d="M0 0 C0 6.93 0 13.86 0 21 C5.61 21 11.22 21 17 21 C17 25.95 17 30.9 17 36 C11.39 36 5.78 36 0 36 C0.09360093 41.62366547 0.19971008 47.2469038 0.31738281 52.87011719 C0.35564968 54.78281195 0.39050658 56.69557811 0.421875 58.60839844 C0.46757527 61.35898342 0.52556145 64.10907783 0.5859375 66.859375 C0.59748871 67.71368103 0.60903992 68.56798706 0.62094116 69.44818115 C0.64081085 70.24870911 0.66068054 71.04923706 0.68115234 71.87402344 C0.69447601 72.57573669 0.70779968 73.27744995 0.7215271 74.00042725 C1.0499492 76.35865989 1.75956919 77.97432726 3 80 C7.26159382 82.13079691 13.40763702 81.04502317 18 81 C18 86.28 18 91.56 18 97 C8.72175909 98.85564818 -2.17659826 99.62386244 -10.9453125 95.4609375 C-16.7722715 91.31781456 -19.62383874 84.85141188 -21 78 C-21.25554898 74.70581256 -21.23393772 71.43132511 -21.1953125 68.12890625 C-21.1924826 67.206577 -21.18965271 66.28424774 -21.18673706 65.33396912 C-21.17560974 62.41000987 -21.15051912 59.48636549 -21.125 56.5625 C-21.11496057 54.57096799 -21.1058364 52.57943114 -21.09765625 50.58789062 C-21.07569483 45.7251405 -21.04121673 40.8626235 -21 36 C-25.62 36 -30.24 36 -35 36 C-35 31.05 -35 26.1 -35 21 C-30.38 21 -25.76 21 -21 21 C-21 16.05 -21 11.1 -21 6 C-18.06428063 4.99449367 -15.1266423 3.99540746 -12.1875 3 C-11.35412109 2.71382813 -10.52074219 2.42765625 -9.66210938 2.1328125 C-8.85966797 1.86210937 -8.05722656 1.59140625 -7.23046875 1.3125 C-6.49207764 1.06113281 -5.75368652 0.80976563 -4.99291992 0.55078125 C-3 0 -3 0 0 0 Z " fill="#F4F5F9" transform="translate(746,377)"/>
<path d="M0 0 C-0.11339204 2.64680904 -0.24012873 5.29177518 -0.375 7.9375 C-0.42140625 9.06961914 -0.42140625 9.06961914 -0.46875 10.22460938 C-0.5726315 12.15507395 -0.77895614 14.07942081 -1 16 C-3.89533814 17.44766907 -5.85985375 16.28061616 -8.8515625 15.4921875 C-14.98342286 14.08743404 -19.51319603 15.05338305 -25 18 C-30.27057703 22.43207614 -32.88695211 26.95201033 -33.8125 33.75 C-34.29490318 40.42324401 -33.32456613 46.29992289 -30.375 52.3125 C-26.73279337 56.43394434 -23.07744291 59.53284513 -17.50390625 60.37890625 C-12.29549245 60.49781981 -7.92847476 59.57711192 -3 58 C-1.68 58 -0.36 58 1 58 C1.495 66.415 1.495 66.415 2 75 C-12.8316271 78.76676244 -27.69916586 78.43134891 -41.4375 71.1875 C-50.31696495 63.60746895 -54.62464118 54.56320191 -56 43 C-56.95442341 30.6594727 -54.92612773 19.72072269 -47 10 C-46.4740625 9.3503125 -45.948125 8.700625 -45.40625 8.03125 C-34.06595497 -4.59285201 -15.19362681 -3.41019279 0 0 Z " fill="#F4F5F9" transform="translate(570,398)"/>
<path d="M0 0 C6.93 0 13.86 0 21 0 C21 36.3 21 72.6 21 110 C14.4 110 7.8 110 1 110 C-0.125 99.875 -0.125 99.875 -0.12025452 96.08335876 C-0.12162918 95.22115723 -0.12300385 94.35895569 -0.12442017 93.47062683 C-0.12082489 92.55855972 -0.11722961 91.64649261 -0.11352539 90.70678711 C-0.11367142 89.72036224 -0.11381744 88.73393738 -0.1139679 87.71762085 C-0.11327643 84.48750538 -0.10552021 81.25744903 -0.09765625 78.02734375 C-0.09578934 75.77576224 -0.09436673 73.52418033 -0.09336853 71.27259827 C-0.08956482 65.36913923 -0.079753 59.46570511 -0.06866455 53.56225586 C-0.05840415 47.52913754 -0.05386102 41.49601517 -0.04882812 35.46289062 C-0.03812868 23.64191442 -0.0205494 11.82096319 0 0 Z " fill="#F4F5F9" transform="translate(636,495)"/>
<path d="M0 0 C0 6.6 0 13.2 0 20 C-2.18625 19.9175 -4.3725 19.835 -6.625 19.75 C-12.39939596 19.61839278 -12.39939596 19.61839278 -17.6875 21.5625 C-24.00019328 28.21641994 -24.14643159 36.60204232 -24.31640625 45.23828125 C-24.33718735 46.11904831 -24.35796844 46.99981537 -24.37937927 47.90727234 C-24.44453937 50.70893879 -24.50360321 53.51069557 -24.5625 56.3125 C-24.60571715 58.21680606 -24.64933244 60.12110312 -24.69335938 62.02539062 C-24.80093233 66.68350268 -24.90025481 71.34168747 -25 76 C-31.93 76 -38.86 76 -46 76 C-46 51.25 -46 26.5 -46 1 C-39.73 1 -33.46 1 -27 1 C-26.67 4.3 -26.34 7.6 -26 11 C-25.030625 9.7625 -24.06125 8.525 -23.0625 7.25 C-17.5732101 1.00814616 -8.31931771 -4.15965885 0 0 Z " fill="#F4F5F9" transform="translate(509,397)"/>
<path d="M0 0 C6.6 0 13.2 0 20 0 C20 24.75 20 49.5 20 75 C13.4 75 6.8 75 0 75 C0 50.25 0 25.5 0 0 Z " fill="#F4F5F9" transform="translate(677,398)"/>
<path d="M0 0 C6.6 0 13.2 0 20 0 C20 24.75 20 49.5 20 75 C13.4 75 6.8 75 0 75 C0 50.25 0 25.5 0 0 Z " fill="#F4F5F9" transform="translate(421,398)"/>
<path d="M0 0 C4.0045479 4.35789036 6.34291584 7.94622768 6.5625 13.875 C6.21311093 20.52466292 3.20580645 24.56826235 -1.375 29.11328125 C-5.62201195 32.50867883 -11.76262078 31.82016283 -16.875 31.3125 C-22.23658916 29.59718354 -25.19054913 26.1651612 -27.875 21.3125 C-29.64474865 16.00325405 -29.57335764 11.2383605 -27.375 6.125 C-24.63434796 1.15267416 -20.21250684 -1.53246745 -14.93359375 -3.359375 C-9.79917684 -4.17776403 -4.40255952 -2.58411103 0 0 Z M-20.875 5.3125 C-21.473125 5.725 -22.07125 6.1375 -22.6875 6.5625 C-24.70955819 9.54237523 -24.98821926 12.80270305 -24.875 16.3125 C-23.33457435 20.52840179 -21.30215897 23.42083462 -17.875 26.3125 C-14.18197824 27.54350725 -10.71480283 27.90739903 -6.875 27.3125 C-4.36979421 25.47908535 -4.36979421 25.47908535 -2.875 23.3125 C-3.473125 23.27125 -4.07125 23.23 -4.6875 23.1875 C-7.94112623 21.88604951 -8.35074711 19.36100578 -9.875 16.3125 C-11.95190578 15.35205898 -11.95190578 15.35205898 -13.875 15.3125 C-13.875 17.9525 -13.875 20.5925 -13.875 23.3125 C-15.195 23.3125 -16.515 23.3125 -17.875 23.3125 C-17.875 17.0425 -17.875 10.7725 -17.875 4.3125 C-16.10125 4.43625 -14.3275 4.56 -12.5 4.6875 C-11.00339844 4.79191406 -11.00339844 4.79191406 -9.4765625 4.8984375 C-6.875 5.3125 -6.875 5.3125 -4.875 7.3125 C-4.625 9.8125 -4.625 9.8125 -4.875 12.3125 C-5.535 12.9725 -6.195 13.6325 -6.875 14.3125 C-5.555 16.9525 -4.235 19.5925 -2.875 22.3125 C0.23315785 21.63611989 0.23315785 21.63611989 1.375 19.25 C2.36907769 15.35652904 2.34661483 12.15630718 1.125 8.3125 C-2.32130858 4.14065277 -5.20049054 1.47720585 -10.6875 0.9375 C-15.03065997 1.04128875 -17.49395773 2.56048885 -20.875 5.3125 Z M-13.875 7.3125 C-13.875 8.9625 -13.875 10.6125 -13.875 12.3125 C-12.225 11.9825 -10.575 11.6525 -8.875 11.3125 C-8.875 10.3225 -8.875 9.3325 -8.875 8.3125 C-10.525 7.9825 -12.175 7.6525 -13.875 7.3125 Z " fill="#F4F5F9" transform="translate(999.875,372.6875)"/>
<path d="M0 0 C6.6 0 13.2 0 20 0 C20 6.27 20 12.54 20 19 C13.4 19 6.8 19 0 19 C0 12.73 0 6.46 0 0 Z " fill="#F4F5F9" transform="translate(677,366)"/>
<path d="M0 0 C6.6 0 13.2 0 20 0 C20 6.27 20 12.54 20 19 C13.4 19 6.8 19 0 19 C0 12.73 0 6.46 0 0 Z " fill="#F4F5F9" transform="translate(421,366)"/>
</svg>
