<svg width="177" height="60" viewBox="0 0 177 60" fill="none" xmlns="http://www.w3.org/2000/svg">
<g clip-path="url(#clip0_419_8841)">
<path fill-rule="evenodd" clip-rule="evenodd" d="M116.394 41.6815C116.394 43.2108 118.128 44.36 120.76 44.36C123.391 44.36 125.125 43.2108 125.125 41.6815C125.125 40.1521 123.399 38.9945 120.76 38.9945C118.12 38.9945 116.394 40.1436 116.394 41.6815ZM123.307 41.6815C123.307 42.425 122.452 43.0334 120.76 43.0334C119.067 43.0334 118.212 42.425 118.212 41.6815C118.212 40.9379 119.067 40.3042 120.76 40.3042C122.452 40.3042 123.307 40.921 123.307 41.6815Z" fill="white"/>
<path fill-rule="evenodd" clip-rule="evenodd" d="M133.412 40.3126V39.2142H125.988V44.1994H127.622V42.3828H131.141V41.3604H127.622V40.3126H133.412Z" fill="white"/>
<path fill-rule="evenodd" clip-rule="evenodd" d="M141.799 44.1994V40.5408H145.076V39.2142H136.898V40.5408H140.157V44.1994H141.799Z" fill="white"/>
<path fill-rule="evenodd" clip-rule="evenodd" d="M147.413 42.2307H152.131V44.1994H153.765V39.2142H152.131V40.9041H147.413V39.2142H145.771V44.1994H147.413V42.2307Z" fill="white"/>
<path fill-rule="evenodd" clip-rule="evenodd" d="M162.278 43.0925H156.346V42.1208H159.856V41.1745H156.346V40.3211H162.278V39.2142H154.703V44.1994H162.278V43.0925Z" fill="white"/>
<path d="M24.4083 33.3502H20.6293V44.8838H24.4083V33.3502Z" fill="white"/>
<path fill-rule="evenodd" clip-rule="evenodd" d="M31.5054 41.259H35.5944L41.1414 44.8923H46.8475L40.3789 41.0646C44.4343 41.0646 46.0347 39.2733 46.0347 37.3638C46.0347 34.8036 43.1021 33.3587 40.0521 33.3587H27.7348V44.8923H31.5138V41.259H31.5054ZM31.5054 36.0034H39.2812C40.9654 36.0034 41.7782 36.5948 41.7782 37.3384C41.7782 38.082 40.9486 38.665 39.2561 38.665H31.5138V36.0034H31.5054Z" fill="white"/>
<path fill-rule="evenodd" clip-rule="evenodd" d="M69.0689 33.3502V39.6113C69.0689 43.3714 73.2417 45.264 78.4367 45.264C83.6317 45.264 87.8045 43.3714 87.8045 39.6113V33.3502H84.0423V38.9185C84.0423 41.0224 81.8135 42.0701 78.4702 42.0701C75.127 42.0701 72.9149 41.0224 72.9149 38.9185V33.3502H69.0689Z" fill="white"/>
<path d="M94.843 33.3502H91.064V44.8838H94.843V33.3502Z" fill="white"/>
<path fill-rule="evenodd" clip-rule="evenodd" d="M115.833 33.3502H96.8959V36.4259H104.454V44.8923H108.258V36.4259H115.833V33.3502Z" fill="white"/>
<path fill-rule="evenodd" clip-rule="evenodd" d="M64.4604 40.5999C61.3182 42.9235 52.5788 42.8221 52.5788 39.0706C52.5788 35.319 61.159 35.226 64.3012 37.5412L66.4211 34.8796C60.5557 31.3561 48.3809 32.3363 48.3809 39.0706C48.3809 45.8048 60.7233 46.785 66.5887 43.2615L64.4688 40.5999H64.4604Z" fill="white"/>
<path fill-rule="evenodd" clip-rule="evenodd" d="M16.0879 40.5999C12.9457 42.9235 4.20631 42.8221 4.20631 39.0706C4.20631 35.319 12.7865 35.226 15.9203 37.5412L18.0402 34.8796C12.1748 31.3561 0 32.3363 0 39.0706C0 45.8048 12.3424 46.785 18.2078 43.2615L16.0879 40.5999Z" fill="white"/>
<path fill-rule="evenodd" clip-rule="evenodd" d="M20.3863 48.0524L12.1078 59.6198H16.6241L18.501 56.992H27.6929L29.5698 59.6198H34.2956L26.0171 48.0524H20.3863ZM20.0009 54.6768L22.6571 50.8323H23.5872L26.1931 54.6768H20.0009Z" fill="white"/>
<path fill-rule="evenodd" clip-rule="evenodd" d="M46.7051 55.6147L40.7978 48.0862H35.1838V59.6282H38.9125V51.3139L45.4315 59.6282H47.6016L54.2295 51.3139V59.6282H58.0085V48.0862H52.5537L46.7051 55.6147Z" fill="white"/>
<path fill-rule="evenodd" clip-rule="evenodd" d="M61.3266 59.6282H78.8557V57.0765H65.1139V54.8289H73.2417V52.6236H65.1139V50.6717H78.8557V48.0862H61.3266V59.6282Z" fill="white"/>
<path fill-rule="evenodd" clip-rule="evenodd" d="M99.7531 52.0997C99.7531 49.5311 96.8204 48.0862 93.7705 48.0862H81.4532V59.6198H85.2322V55.9865H89.3211L94.8597 59.6198H100.566L94.0972 55.7837C98.1527 55.7837 99.7531 53.9924 99.7531 52.0913V52.0997ZM85.2322 53.384V50.7224H93.0079C94.6838 50.7224 95.5049 51.3139 95.5049 52.0575C95.5049 52.801 94.6754 53.384 92.9828 53.384H85.2322Z" fill="white"/>
<path d="M106.549 48.0862H102.77V59.6198H106.549V48.0862Z" fill="white"/>
<path fill-rule="evenodd" clip-rule="evenodd" d="M135.783 48.0524L127.505 59.6198H132.021L133.898 56.992H143.09L144.967 59.6198H149.693L141.414 48.0524H135.783ZM135.389 54.6768L138.046 50.8323H138.976L141.582 54.6768H135.389Z" fill="white"/>
<path fill-rule="evenodd" clip-rule="evenodd" d="M159.488 52.2011C156.002 52.1842 154.795 51.9392 154.795 51.2632C154.795 50.5872 155.952 50.1479 158.901 50.1479C162.144 50.1479 165.043 50.6295 167.389 52.0068L168.68 49.624C166.25 48.2805 163.25 47.5877 159.421 47.5877C153.522 47.5877 150.489 49.1677 150.489 51.5843C150.489 54.2797 153.916 55.1162 159.245 55.1838C163.451 55.2345 164.8 55.4288 164.8 56.0541C164.8 56.7554 163.593 57.3638 159.747 57.3638C156.421 57.3638 153.656 56.8906 151.469 55.3105L150.103 57.5665C152.625 59.2564 155.549 60.0169 159.328 60.0169C165.035 60.0169 169.107 58.4368 169.107 55.6992C169.107 52.9616 165.42 52.2518 159.488 52.218" fill="white"/>
<path fill-rule="evenodd" clip-rule="evenodd" d="M113.403 53.8065C113.403 50.0634 121.983 49.962 125.117 52.2771L127.237 49.6155C121.371 46.0921 109.196 47.0722 109.196 53.8065C109.196 60.5408 121.539 61.5209 127.404 57.9975L125.284 55.3359C122.142 57.6595 113.403 57.5581 113.403 53.8065Z" fill="white"/>
<path fill-rule="evenodd" clip-rule="evenodd" d="M169.744 50.4014H171.017V51.8293H171.654V50.4014H172.928V49.8859H169.744V50.4014Z" fill="white"/>
<path fill-rule="evenodd" clip-rule="evenodd" d="M176.078 49.8859L175.098 51.1534L174.109 49.8859H173.162V51.8209H173.791V50.4267L174.88 51.8209H175.249L176.363 50.4267V51.8209H177V49.8859H176.078Z" fill="white"/>
<path fill-rule="evenodd" clip-rule="evenodd" d="M62.8683 11.297L60.5054 10.3253C59.391 9.86903 58.7291 9.5564 57.9582 9.22687C48.0792 6.15969 43.3702 17.5919 34.1951 11.711C49.2942 22.2983 57.1454 10.7478 62.8767 11.3054" fill="white"/>
<path fill-rule="evenodd" clip-rule="evenodd" d="M85.693 14.3473C80.2466 10.4351 75.5124 7.07224 70.552 7.08914C91.4075 5.81327 110.202 44.5458 139.068 18.7241C126.298 24.2501 112.975 13.384 98.4041 7.22433C80.1209 -4.3853 49.3026 -0.591466 44.5433 8.6523C57.799 -1.25053 68.0885 14.9725 85.6846 14.3473" fill="white"/>
<path fill-rule="evenodd" clip-rule="evenodd" d="M107.353 27.7313C101.496 25.7372 95.5971 22.2476 90.5277 18.5129C81.3443 20.5239 73.2836 20.507 64.3012 13.7136C72.3535 25.2302 89.9244 30.376 107.353 27.7313Z" fill="white"/>
</g>
<defs>
<clipPath id="clip0_419_8841">
<rect width="177" height="60" fill="white"/>
</clipPath>
</defs>
</svg>
