<?xml version="1.0" encoding="UTF-8"?>
<svg version="1.1" xmlns="http://www.w3.org/2000/svg" width="640" height="366">
<path d="M0 0 C4.52276507 3.19543184 8.47014217 6.13407749 11.359375 10.91015625 C13.29463009 14.05275786 13.29463009 14.05275786 15.890625 14.4921875 C18.3318486 14.75519111 18.3318486 14.75519111 20.68359375 14.7421875 C22.671875 14.91015625 22.671875 14.91015625 24.671875 16.91015625 C25.046875 19.72265625 25.046875 19.72265625 24.671875 22.91015625 C23.970625 23.67328125 23.269375 24.43640625 22.546875 25.22265625 C21.928125 26.10953125 21.309375 26.99640625 20.671875 27.91015625 C21.07590693 29.99765456 21.50496821 32.08419228 22.07421875 34.1328125 C25.06088648 48.01203315 21.72117402 61.64432212 14.80859375 73.73046875 C6.75852628 85.70991102 -3.52760471 92.49613846 -17.453125 95.78515625 C-32.55150641 98.56035108 -47.22917041 96.26389726 -60.328125 87.91015625 C-70.22345739 80.34862867 -70.22345739 80.34862867 -72.328125 73.91015625 C-73.38 74.07515625 -74.431875 74.24015625 -75.515625 74.41015625 C-79.328125 73.91015625 -79.328125 73.91015625 -80.9765625 72.3046875 C-83.23510676 68.97926184 -84.51776703 67.02430317 -83.828125 62.97265625 C-82.328125 60.91015625 -82.328125 60.91015625 -79.328125 59.91015625 C-79.81152344 58.70552734 -79.81152344 58.70552734 -80.3046875 57.4765625 C-81.54145573 53.16675564 -81.71161031 49.30780197 -81.703125 44.84765625 C-81.70223877 44.01145752 -81.70135254 43.17525879 -81.70043945 42.3137207 C-81.43362921 28.19986523 -75.91973439 16.2016509 -66.328125 5.91015625 C-48.28466942 -10.22512673 -20.68772041 -12.99052866 0 0 Z M-60.140625 17.78515625 C-67.53616349 26.80702844 -69.5291615 36.14439384 -69.59375 47.625 C-69.54481727 50.10728644 -69.54481727 50.10728644 -67.328125 51.91015625 C-66.96203125 51.46285156 -66.5959375 51.01554687 -66.21875 50.5546875 C-60.37454522 44.02865883 -53.34834016 40.31318487 -44.54199219 39.60620117 C-40.54023696 39.64109157 -36.56888376 39.82708819 -32.578125 40.09765625 C-31.18763265 40.17117318 -29.79700369 40.24215183 -28.40625 40.31054688 C-25.044683 40.48562849 -21.6867104 40.68593069 -18.328125 40.91015625 C-17.03720564 38.32831753 -17.57374467 37.46199982 -18.328125 34.72265625 C-19.64474324 29.13374615 -19.01671819 24.97593582 -17.203125 19.53515625 C-15.328125 16.91015625 -15.328125 16.91015625 -12.140625 15.97265625 C-8.04751595 15.9055561 -4.36661844 16.27249939 -0.328125 16.91015625 C-7.26283321 9.32531915 -14.70462933 5.30059389 -25.0390625 4.69140625 C-39.18802202 4.24498712 -50.28477759 7.11148321 -60.140625 17.78515625 Z M-11.328125 21.91015625 C-12.53792564 24.32975754 -12.46138898 25.89946636 -12.453125 28.59765625 C-12.44925781 29.94150391 -12.44925781 29.94150391 -12.4453125 31.3125 C-12.38439375 34.12191906 -12.38439375 34.12191906 -11.578125 37.66015625 C-11.328125 40.91015625 -11.328125 40.91015625 -12.87695312 44.10351562 C-15.328125 46.91015625 -15.328125 46.91015625 -18.52929688 47.40429688 C-20.39424805 47.23704102 -20.39424805 47.23704102 -22.296875 47.06640625 C-22.97302856 47.02149048 -23.64918213 46.97657471 -24.3458252 46.93029785 C-27.2252806 46.73873153 -30.09697678 46.47697267 -32.97070312 46.21435547 C-44.27565047 45.23934276 -52.54561766 46.458535 -61.70703125 53.82226562 C-64.31146399 56.12180575 -64.31146399 56.12180575 -66.328125 58.91015625 C-66.07916016 61.08676223 -66.07916016 61.08676223 -65.328125 62.91015625 C-64.36132812 62.75417969 -63.39453125 62.59820312 -62.3984375 62.4375 C-53.19529156 61.06158412 -45.20732286 60.63449113 -36.140625 62.97265625 C-27.42611988 65.03132264 -15.73175219 65.50910094 -7.328125 61.91015625 C-4.45171884 59.53514834 -4.45171884 59.53514834 -2.328125 56.91015625 C-1.338125 56.25015625 -0.348125 55.59015625 0.671875 54.91015625 C2.20807294 52.17193206 3.2370239 49.21404743 4.359375 46.28515625 C4.67970703 45.50269531 5.00003906 44.72023438 5.33007812 43.9140625 C7.87699377 37.36485085 8.66547681 32.37401709 6.68359375 25.46484375 C4.80221888 22.51491622 4.80221888 22.51491622 0.87890625 22.10546875 C-0.58516606 22.05247066 -2.0506027 22.03003827 -3.515625 22.03515625 C-4.26521484 22.01453125 -5.01480469 21.99390625 -5.78710938 21.97265625 C-7.63363287 21.92561107 -9.48100719 21.91440738 -11.328125 21.91015625 Z M8.671875 50.91015625 C8.45273437 51.5134375 8.23359375 52.11671875 8.0078125 52.73828125 C5.80531842 58.28928259 4.02033103 60.90164973 -1.328125 63.91015625 C-1.885 64.61140625 -2.441875 65.31265625 -3.015625 66.03515625 C-10.0796625 71.76275422 -22.79525128 70.50865441 -31.328125 69.91015625 C-33.87916352 69.43735685 -36.42178341 68.9165557 -38.953125 68.34765625 C-45.87233204 66.80195352 -52.34737489 66.46623749 -59.328125 67.91015625 C-59.988125 68.57015625 -60.648125 69.23015625 -61.328125 69.91015625 C-53.64665301 78.48080185 -45.28031953 83.3549547 -33.69140625 84.1640625 C-22.47251793 84.60989101 -12.05728411 83.07850582 -3.13671875 75.66015625 C3.24671518 69.48352904 7.71640825 62.68099974 9.671875 53.91015625 C9.176875 52.42515625 9.176875 52.42515625 8.671875 50.91015625 Z " fill="#FFFDFD" transform="translate(350.328125,118.08984375)"/>
<path d="M0 0 C0.33 13.86 0.66 27.72 1 42 C4.63 38.04 8.26 34.08 12 30 C26.9919716 16.77178977 43.16900235 7.56069534 62.375 2.0625 C63.06811279 1.85077148 63.76122559 1.63904297 64.4753418 1.42089844 C73.18815625 -0.87745999 80.43394222 0 90 0 C90 21.45 90 42.9 90 65 C86.04 65 82.08 65 78 65 C78 47.51 78 30.02 78 12 C54.15787268 17.67669698 38.36299109 23.42623578 21 40 C20.38640625 40.53882813 19.7728125 41.07765625 19.140625 41.6328125 C12.20002134 47.96850117 7.16916051 56.66167899 3 65 C-2.28 65 -7.56 65 -13 65 C-13 47.51 -13 30.02 -13 12 C-41.99905702 18.82330753 -65.10472913 29.75869755 -82 55 C-82.93702611 56.927736 -83.85674807 58.86409424 -84.75 60.8125 C-86.0546875 63.19921875 -86.0546875 63.19921875 -88 65 C-93.07402497 66.14246017 -97.82267501 66.22395553 -103 66 C-99.59318455 48.12473377 -79.92323852 30.08785575 -66 20 C-44.97288046 5.83013218 -25.3571513 0 0 0 Z " fill="#FFFFFF" transform="translate(156,130)"/>
<path d="M0 0 C0 21.45 0 42.9 0 65 C-3.96 65 -7.92 65 -12 65 C-12 47.51 -12 30.02 -12 12 C-33.70298755 17.10658531 -50.41292714 23.33797693 -67 38 C-67.63550781 38.55171875 -68.27101563 39.1034375 -68.92578125 39.671875 C-72.73680641 43.21130986 -75.72335439 47.24354455 -78.6875 51.5 C-79.08388672 52.06589844 -79.48027344 52.63179687 -79.88867188 53.21484375 C-81.89907349 56.15338649 -83.40669815 58.91859832 -84.625 62.25 C-87.35170801 65.40724085 -88.61149122 65.46088535 -92.62646484 65.82128906 C-95.75711064 65.99261436 -98.86461541 66.02729812 -102 66 C-101.45263715 61.17578504 -99.22404005 57.52930622 -96.6875 53.5 C-96.02850708 52.44921265 -96.02850708 52.44921265 -95.35620117 51.37719727 C-90.6749125 44.14843566 -85.04417829 38.09583793 -79 32 C-78.36320313 31.31421875 -77.72640625 30.6284375 -77.0703125 29.921875 C-63.65823829 15.67555694 -44.67139712 6.87542753 -26 2 C-24.81470703 1.63455078 -24.81470703 1.63455078 -23.60546875 1.26171875 C-15.73310694 -0.95097185 -8.45951263 0 0 0 Z " fill="#FFFFFF" transform="translate(623,130)"/>
<path d="M0 0 C4.29 0 8.58 0 13 0 C13.33 17.16 13.66 34.32 14 52 C43.37 52 72.74 52 103 52 C103 56.29 103 60.58 103 65 C69.01 65 35.02 65 0 65 C0 43.55 0 22.1 0 0 Z " fill="#FFFFFF" transform="translate(395,130)"/>
<path d="M0 0 C0.99 0.495 0.99 0.495 2 1 C6.45206559 15.34554469 4.54113643 30.24493446 -2 43.5625 C-9.04945667 55.88796513 -18.89295295 64.06099187 -32.51953125 68.0234375 C-47.776785 71.62699256 -62.18396868 70.33021364 -76.16796875 62.8046875 C-83.15478801 58.35239716 -88.57449407 53.61709945 -92 46 C-90.5903653 45.29819469 -89.17192359 44.61406042 -87.75 43.9375 C-86.96109375 43.55464844 -86.1721875 43.17179687 -85.359375 42.77734375 C-82.62562247 41.87665376 -81.61898802 41.85223633 -79 43 C-76.9921875 44.70703125 -76.9921875 44.70703125 -74.875 46.8125 C-70.32654872 51.00760052 -65.88041933 53.20235886 -60 55 C-59.39800781 55.19078125 -58.79601562 55.3815625 -58.17578125 55.578125 C-47.10674318 57.72436578 -35.48486111 56.28793738 -25.6953125 50.6796875 C-13.46198854 42.23176945 -9.96335265 28.87716363 -7 15 C-6.70417208 13.00061127 -6.4123243 11.00062845 -6.125 9 C-5.47672291 5.12710327 -5.23096737 4.2364666 -2.375 1.3125 C-1.59125 0.879375 -0.8075 0.44625 0 0 Z " fill="#FFFDFD" transform="translate(369,145)"/>
<path d="M0 0 C6.0546875 -0.1953125 6.0546875 -0.1953125 8 0 C10 2 10 2 10.375 4.875 C9.91003939 8.74967178 8.98626842 9.57870128 6 12 C5.13375 12.7425 4.2675 13.485 3.375 14.25 C1 16 1 16 -1 16 C-0.93425781 17.12019531 -0.86851562 18.24039063 -0.80078125 19.39453125 C-0.80648496 24.57464062 -2.35909512 28.89124952 -4.1875 33.6875 C-4.47947266 34.51572266 -4.77144531 35.34394531 -5.07226562 36.19726562 C-6.94008172 41.21425981 -8.86315269 44.43533984 -13 48 C-13.53882813 48.57105469 -14.07765625 49.14210937 -14.6328125 49.73046875 C-22.05973988 56.98241616 -32.30036854 56.36653298 -42.12109375 56.27734375 C-46.01371667 55.99901925 -49.52275872 55.28696983 -53.3125 54.375 C-64.34140312 51.92799836 -76.12700402 52.96831065 -86.25 58.1484375 C-89.14775363 59.55850511 -90.88566596 59.84936383 -94 59 C-96.30348295 56.5859964 -97.83623149 54.12654226 -99 51 C-98.5625 48.0625 -98.5625 48.0625 -97 46 C-94.875 45.1875 -94.875 45.1875 -93 45 C-92.34 46.98 -91.68 48.96 -91 51 C-87.13769008 50.59344106 -84.10445424 49.62217799 -80.625 48 C-70.30247757 43.7623329 -59.82825165 44.42684831 -49.29296875 47.29296875 C-43.23190703 48.5943355 -37.16162922 48.27723866 -31 48 C-30.04996094 47.9690625 -29.09992188 47.938125 -28.12109375 47.90625 C-25.45990201 47.79082127 -25.45990201 47.79082127 -22 47 C-21.69707031 46.38640625 -21.39414062 45.7728125 -21.08203125 45.140625 C-20 43 -20 43 -17.61328125 41.796875 C-13.70231566 39.10772078 -12.77370941 35.60594815 -11.1875 31.25 C-10.87619141 30.46367187 -10.56488281 29.67734375 -10.24414062 28.8671875 C-8.79151012 25.0233037 -7.9923978 22.33864359 -8.0859375 18.171875 C-8 15 -8 15 -5.99609375 12.8125 C-5.15175781 12.214375 -4.30742187 11.61625 -3.4375 11 C-0.10093087 8.55524152 -0.10093087 8.55524152 1.375 4.9375 C1.08723601 2.78465925 1.08723601 2.78465925 0 0 Z " fill="#F90115" transform="translate(365,133)"/>
<path d="M0 0 C4.29 0 8.58 0 13 0 C13 21.45 13 42.9 13 65 C8.71 65 4.42 65 0 65 C0 43.55 0 22.1 0 0 Z " fill="#FFFFFF" transform="translate(18,130)"/>
<path d="M0 0 C3.25167492 1.39357497 4.51055239 2.18425398 6.3125 5.1875 C6.539375 5.785625 6.76625 6.38375 7 7 C1.15659442 8.24327778 -3.26696495 7.57300962 -9 6 C-9.19578697 13.95542685 -9.19578697 13.95542685 -8.1875 21.8125 C-7.95688197 25.7330065 -8.57397903 27.47548327 -10.91088867 30.58032227 C-15.74551452 33.86574348 -22.9561269 32.1011503 -28.5625 31.5625 C-39.39462021 30.53069255 -47.61175544 30.50220837 -57 37 C-59.18465189 38.89611802 -61.05460361 40.84982505 -63 43 C-63.66 43 -64.32 43 -65 43 C-66 40 -66 40 -66 36 C-61.5283976 28.8400324 -53.88971536 25.18598111 -46 23 C-40.71554295 22.57585234 -35.52864924 22.8296147 -30.25 23.1875 C-28.85950765 23.26101693 -27.46887869 23.33199558 -26.078125 23.40039062 C-22.716558 23.57547224 -19.3585854 23.77577444 -16 24 C-16.1458252 23.32090576 -16.29165039 22.64181152 -16.44189453 21.94213867 C-16.62864746 21.0472876 -16.81540039 20.15243652 -17.0078125 19.23046875 C-17.1948877 18.34512451 -17.38196289 17.45978027 -17.57470703 16.54760742 C-18.68123348 9.91924723 -16.54671349 5.37380832 -13 0 C-9.0873932 -1.9563034 -4.19988104 -0.68581872 0 0 Z " fill="#F90015" transform="translate(348,134)"/>
<path d="M0 0 C4.38635744 2.19317872 5.51256905 3.91350629 8 8 C8.40992188 7.4225 8.81984375 6.845 9.2421875 6.25 C9.78101563 5.5075 10.31984375 4.765 10.875 4 C11.40867188 3.2575 11.94234375 2.515 12.4921875 1.75 C13.23855469 0.88375 13.23855469 0.88375 14 0 C14.66 0 15.32 0 16 0 C16 4.95 16 9.9 16 15 C15.01 15 14.02 15 13 15 C12.67 12.69 12.34 10.38 12 8 C10.02 10.97 10.02 10.97 8 14 C6.29159719 12.36587557 5.06546953 11.13093906 4 9 C3.67 10.98 3.34 12.96 3 15 C2.01 15 1.02 15 0 15 C0 10.05 0 5.1 0 0 Z " fill="#FFFFFF" transform="translate(131,233)"/>
<path d="M0 0 C3.5453095 0.17726547 5.69235544 0.44027453 8.75 2.1875 C10.7296225 4.70701955 10.75657316 6.02645746 10.625 9.25 C9.59001857 12.72458051 8.82594226 13.39055779 5.75 15.1875 C3.171875 15.48046875 3.171875 15.48046875 0.5 15.375 C-0.39203125 15.34792969 -1.2840625 15.32085937 -2.203125 15.29296875 C-2.87859375 15.25816406 -3.5540625 15.22335938 -4.25 15.1875 C-4.27685412 12.87506208 -4.29632841 10.5625373 -4.3125 8.25 C-4.32410156 6.96222656 -4.33570313 5.67445313 -4.34765625 4.34765625 C-4.22082847 0.24350933 -4.22082847 0.24350933 0 0 Z M-1.25 3.1875 C-1.25 6.1575 -1.25 9.1275 -1.25 12.1875 C2.16642759 12.43765873 2.16642759 12.43765873 5.75 12.1875 C8.014384 9.49594799 8.014384 9.49594799 7.5 7.125 C6.82467282 4.99273025 6.82467282 4.99273025 4.75 3.1875 C1.66652174 3.02068891 1.66652174 3.02068891 -1.25 3.1875 Z " fill="#FFFFFF" transform="translate(470.25,232.8125)"/>
<path d="M0 0 C4.0084034 2.0042017 5.41409657 3.49055963 8 7 C8.33 4.69 8.66 2.38 9 0 C10.32 0.33 11.64 0.66 13 1 C13 5.62 13 10.24 13 15 C7.85139294 13.71284823 7.13538553 12.09341999 4 8 C3.67 10.31 3.34 12.62 3 15 C2.01 15 1.02 15 0 15 C0 10.05 0 5.1 0 0 Z " fill="#FFFFFF" transform="translate(241,233)"/>
<path d="M0 0 C4.0084034 2.0042017 5.41409657 3.49055963 8 7 C8.33 4.69 8.66 2.38 9 0 C10.32 0.33 11.64 0.66 13 1 C13 5.62 13 10.24 13 15 C7.85139294 13.71284823 7.13538553 12.09341999 4 8 C3.67 10.31 3.34 12.62 3 15 C2.01 15 1.02 15 0 15 C0 10.05 0 5.1 0 0 Z " fill="#FFFFFF" transform="translate(312,233)"/>
<path d="M0 0 C9.2519084 -0.30839695 9.2519084 -0.30839695 12 2 C13.06800294 4.89886511 13.28844507 6.32696151 12.0625 9.1875 C11.711875 9.785625 11.36125 10.38375 11 11 C11 11.66 11 12.32 11 13 C11.66 13 12.32 13 13 13 C13 13.66 13 14.32 13 15 C11.68 15 10.36 15 9 15 C8.34 14.01 7.68 13.02 7 12 C6.01 12 5.02 12 4 12 C4 12.99 4 13.98 4 15 C2.68 15 1.36 15 0 15 C0 10.05 0 5.1 0 0 Z M3 3 C3 4.65 3 6.3 3 8 C4.98 8 6.96 8 9 8 C9 6.68 9 5.36 9 4 C7.93354885 2.70366379 7.93354885 2.70366379 5.4375 2.9375 C4.633125 2.958125 3.82875 2.97875 3 3 Z " fill="#FFFFFF" transform="translate(225,233)"/>
<path d="M0 0 C5.31368432 0.27018734 5.31368432 0.27018734 7.6875 2.1875 C8.75550294 5.08636511 8.97594507 6.51446151 7.75 9.375 C7.399375 9.973125 7.04875 10.57125 6.6875 11.1875 C6.6875 11.8475 6.6875 12.5075 6.6875 13.1875 C7.3475 13.1875 8.0075 13.1875 8.6875 13.1875 C8.6875 13.8475 8.6875 14.5075 8.6875 15.1875 C6.75 14.875 6.75 14.875 4.6875 14.1875 C4.3575 13.1975 4.0275 12.2075 3.6875 11.1875 C2.3675 11.5175 1.0475 11.8475 -0.3125 12.1875 C-0.3125 13.1775 -0.3125 14.1675 -0.3125 15.1875 C-1.6325 15.1875 -2.9525 15.1875 -4.3125 15.1875 C-4.33935412 12.87506208 -4.35882841 10.5625373 -4.375 8.25 C-4.38660156 6.96222656 -4.39820313 5.67445313 -4.41015625 4.34765625 C-4.28329576 0.2424507 -4.28329576 0.2424507 0 0 Z M-1.3125 3.1875 C-1.3125 4.8375 -1.3125 6.4875 -1.3125 8.1875 C0.6675 8.1875 2.6475 8.1875 4.6875 8.1875 C5.0175 6.8675 5.3475 5.5475 5.6875 4.1875 C3.3775 3.8575 1.0675 3.5275 -1.3125 3.1875 Z " fill="#FFFFFF" transform="translate(578.3125,232.8125)"/>
<path d="M0 0 C5.38422078 -0.27377394 8.54453408 -0.37535297 13 3 C14 4 14 4 14.3125 7.3125 C14 11 14 11 12.625 13.4375 C8.47360478 15.90856858 4.77353037 15.25123844 0 15 C0 10.05 0 5.1 0 0 Z M3 3 C3 5.97 3 8.94 3 12 C7.14093698 12.20970559 7.14093698 12.20970559 11 11 C11.2502157 8.08365871 11.2502157 8.08365871 11 5 C7.77208445 2.8480563 6.71599191 2.79913557 3 3 Z " fill="#FFFFFF" transform="translate(81,233)"/>
<path d="M0 0 C4.53786224 2.26893112 5.94678157 4.09866534 9 8 C9.33 5.36 9.66 2.72 10 0 C10.99 0 11.98 0 13 0 C13 4.95 13 9.9 13 15 C7.85139294 13.71284823 7.13538553 12.09341999 4 8 C3.67 10.31 3.34 12.62 3 15 C2.01 15 1.02 15 0 15 C0 10.05 0 5.1 0 0 Z " fill="#FFFFFF" transform="translate(491,233)"/>
<path d="M0 0 C4.53786224 2.26893112 5.94678157 4.09866534 9 8 C9.33 5.36 9.66 2.72 10 0 C10.99 0 11.98 0 13 0 C13 4.95 13 9.9 13 15 C8.77000325 13.94250081 8.45069644 13.79967512 6.25 10.4375 C5.82203125 9.79683594 5.3940625 9.15617188 4.953125 8.49609375 C4.63859375 8.00238281 4.3240625 7.50867188 4 7 C3.67 9.64 3.34 12.28 3 15 C2.01 15 1.02 15 0 15 C0 10.05 0 5.1 0 0 Z " fill="#FFFFFF" transform="translate(391,233)"/>
<path d="M0 0 C1.37478516 0.01740234 1.37478516 0.01740234 2.77734375 0.03515625 C3.69644531 0.04417969 4.61554688 0.05320313 5.5625 0.0625 C6.27277344 0.07410156 6.98304688 0.08570313 7.71484375 0.09765625 C7.71484375 1.08765625 7.71484375 2.07765625 7.71484375 3.09765625 C5.40484375 3.09765625 3.09484375 3.09765625 0.71484375 3.09765625 C0.71484375 4.08765625 0.71484375 5.07765625 0.71484375 6.09765625 C2.69484375 6.09765625 4.67484375 6.09765625 6.71484375 6.09765625 C6.71484375 7.08765625 6.71484375 8.07765625 6.71484375 9.09765625 C4.73484375 9.09765625 2.75484375 9.09765625 0.71484375 9.09765625 C0.71484375 10.08765625 0.71484375 11.07765625 0.71484375 12.09765625 C3.02484375 12.09765625 5.33484375 12.09765625 7.71484375 12.09765625 C8.04484375 13.08765625 8.37484375 14.07765625 8.71484375 15.09765625 C4.75484375 15.09765625 0.79484375 15.09765625 -3.28515625 15.09765625 C-3.31201037 12.78521833 -3.33148466 10.47269355 -3.34765625 8.16015625 C-3.35925781 6.87238281 -3.37085938 5.58460938 -3.3828125 4.2578125 C-3.2555354 0.13912544 -3.2555354 0.13912544 0 0 Z " fill="#FFFFFF" transform="translate(359.28515625,232.90234375)"/>
<path d="M0 0 C4.53786224 2.26893112 5.94678157 4.09866534 9 8 C9.33 5.36 9.66 2.72 10 0 C10.99 0 11.98 0 13 0 C13 4.95 13 9.9 13 15 C7.85139294 13.71284823 7.13538553 12.09341999 4 8 C3.67 10.31 3.34 12.62 3 15 C2.01 15 1.02 15 0 15 C0 10.05 0 5.1 0 0 Z " fill="#FFFFFF" transform="translate(182,233)"/>
<path d="M0 0 C7.875 0 7.875 0 12 2 C12.125 8.75 12.125 8.75 11 11 C11.89163577 13.11683841 11.89163577 13.11683841 13 15 C11.68 15 10.36 15 9 15 C8.34 14.01 7.68 13.02 7 12 C4.94074861 11.27617533 4.94074861 11.27617533 3 11 C3 12.32 3 13.64 3 15 C2.01 15 1.02 15 0 15 C0 10.05 0 5.1 0 0 Z M3 3 C3 4.65 3 6.3 3 8 C4.98 8 6.96 8 9 8 C8.67 6.35 8.34 4.7 8 3 C6.35 3 4.7 3 3 3 Z " fill="#FFFFFF" transform="translate(559,233)"/>
<path d="M0 0 C2.32039251 1.60027069 2.89969741 2.72775011 3.875 5.375 C4.03673305 8.77139406 2.96039694 10.28560423 1 13 C0 14 0 14 -3.8125 14.3125 C-6.87493788 14.26301716 -7.84726301 14.09927904 -10.5 12.375 C-12.45562482 9.27859404 -12.60024477 7.60146865 -12 4 C-8.18516492 -0.70496326 -5.84684214 -1.43187971 0 0 Z M-7.8125 3.1875 C-9.27508617 5.00808993 -9.27508617 5.00808993 -8.75 7.625 C-8.22254355 9.9312407 -8.22254355 9.9312407 -7 11 C-5.00041636 11.04080783 -2.99954746 11.04254356 -1 11 C0.29042763 8.73398135 0.29042763 8.73398135 1 6 C0.00965774 3.59616005 0.00965774 3.59616005 -2 2 C-5.80350374 1.63464916 -5.80350374 1.63464916 -7.8125 3.1875 Z " fill="#FFFFFF" transform="translate(305,234)"/>
<path d="M0 0 C8.7 0 8.7 0 12 3 C12.4375 6.0625 12.4375 6.0625 12 9 C11.34 9.66 10.68 10.32 10 11 C10.66 12.32 11.32 13.64 12 15 C10.0625 14.625 10.0625 14.625 8 14 C7.67 13.34 7.34 12.68 7 12 C4.97536745 11.34786708 4.97536745 11.34786708 3 11 C3 12.32 3 13.64 3 15 C2.01 15 1.02 15 0 15 C0 10.05 0 5.1 0 0 Z M3 3 C3 4.65 3 6.3 3 8 C4.65 8 6.3 8 8 8 C8.59070014 6.05396726 8.59070014 6.05396726 9 4 C7.93354885 2.70366379 7.93354885 2.70366379 5.4375 2.9375 C4.633125 2.958125 3.82875 2.97875 3 3 Z " fill="#FFFFFF" transform="translate(605,233)"/>
<path d="M0 0 C2.5881216 2.25417042 2.94242643 3.60520979 3.4375 7 C3 10 3 10 1.4375 12.375 C-1.91283535 14.6085569 -4.0481433 14.49398209 -8 14 C-10.375 12.875 -10.375 12.875 -12 11 C-13 8.125 -13 8.125 -13 5 C-9.20078453 -0.89533435 -6.77816973 -1.54589836 0 0 Z M-7 2 C-9.33278733 3.89107141 -9.33278733 3.89107141 -9.1875 7.0625 C-9.33187793 9.88833136 -9.33187793 9.88833136 -8 11 C-5.04182893 11.25005386 -5.04182893 11.25005386 -2 11 C0.23845015 9.17084359 0.23845015 9.17084359 0.3125 6.5 C0.209375 5.675 0.10625 4.85 0 4 C-2.95377498 1.63019987 -2.95377498 1.63019987 -7 2 Z " fill="#FFFFFF" transform="translate(125,234)"/>
<path d="M0 0 C8.7 0 8.7 0 12 3 C12.38692581 6.15989415 12.43060128 8.13879744 11 11 C11.89163577 13.11683841 11.89163577 13.11683841 13 15 C11.68 15 10.36 15 9 15 C8.34 14.01 7.68 13.02 7 12 C4.94074861 11.27617533 4.94074861 11.27617533 3 11 C3 12.32 3 13.64 3 15 C2.01 15 1.02 15 0 15 C0 10.05 0 5.1 0 0 Z M3 3 C3 4.65 3 6.3 3 8 C4.98 8 6.96 8 9 8 C9.33 7.01 9.66 6.02 10 5 C8.16116119 2.71271266 8.16116119 2.71271266 5.375 2.875 C4.199375 2.936875 4.199375 2.936875 3 3 Z " fill="#FFFFFF" transform="translate(98,233)"/>
<path d="M0 0 C2.32039251 1.60027069 2.89969741 2.72775011 3.875 5.375 C4.0376843 8.79137035 3.02489572 10.30013904 1 13 C-2.09173752 14.54586876 -4.59429552 14.29359521 -8 14 C-10.4375 12.375 -10.4375 12.375 -12 10 C-12.50347322 6.54761218 -12.41556154 4.73217986 -10.6875 1.6875 C-7.33429713 -1.66570287 -4.30747761 -1.0768694 0 0 Z M-9 4 C-9.41666667 6.5 -9.41666667 6.5 -9 9 C-7.10892859 11.33278733 -7.10892859 11.33278733 -3.9375 11.1875 C-1.11166864 11.33187793 -1.11166864 11.33187793 0 10 C0.25005386 7.04182893 0.25005386 7.04182893 0 4 C-0.66 3.34 -1.32 2.68 -2 2 C-6.04622502 1.63019987 -6.04622502 1.63019987 -9 4 Z " fill="#FFFFFF" transform="translate(433,234)"/>
<path d="M0 0 C2.5881216 2.25417042 2.94242643 3.60520979 3.4375 7 C3 10 3 10 1.4375 12.375 C-1.91283535 14.6085569 -4.0481433 14.49398209 -8 14 C-10.4375 13 -10.4375 13 -12 11 C-12.45364856 7.8244601 -12.68938436 6.01152114 -12 3 C-8.38525112 -1.49105164 -5.37641793 -1.59301272 0 0 Z M-9 4 C-9.25005386 7.04182893 -9.25005386 7.04182893 -9 10 C-7.88833136 11.33187793 -7.88833136 11.33187793 -5.0625 11.1875 C-1.89107141 11.33278733 -1.89107141 11.33278733 0 9 C0.33333333 6.5 0.33333333 6.5 0 4 C-1.82703227 1.7508092 -1.82703227 1.7508092 -4.5 1.75 C-7.17296773 1.7508092 -7.17296773 1.7508092 -9 4 Z " fill="#FFFFFF" transform="translate(519,234)"/>
<path d="M0 0 C1.875 1.125 1.875 1.125 3 3 C3.49573337 6.89504791 3.58016848 9.09493717 1.4375 12.4375 C-1.94217804 14.60396028 -4.05983987 14.56288002 -8 14 C-10.4375 12.4375 -10.4375 12.4375 -12 10 C-12.73134328 4.04477612 -12.73134328 4.04477612 -10.6875 1.125 C-6.9389032 -1.37406453 -4.21974105 -1.05493526 0 0 Z M-9 4 C-9.25005386 7.04182893 -9.25005386 7.04182893 -9 10 C-7.88833136 11.33187793 -7.88833136 11.33187793 -5.0625 11.1875 C-1.89107141 11.33278733 -1.89107141 11.33278733 0 9 C0.33333333 6.5 0.33333333 6.5 0 4 C-1.82703227 1.7508092 -1.82703227 1.7508092 -4.5 1.75 C-7.17296773 1.7508092 -7.17296773 1.7508092 -9 4 Z " fill="#FFFFFF" transform="translate(162,234)"/>
<path d="M0 0 C3.5 0.875 3.5 0.875 5.4375 2.5625 C6.83817538 5.61102877 6.9842732 7.55426952 6.5 10.875 C4.9375 13.25 4.9375 13.25 2.5 14.875 C-1.19013497 15.33626687 -3.52959229 15.36020386 -6.875 13.6875 C-8.97115817 11.34947742 -9.42522941 10.01536487 -9.5 6.875 C-7.32753426 2.20419865 -5.41292542 -0.19331876 0 0 Z M-5.5 4.875 C-5.75005386 7.91682893 -5.75005386 7.91682893 -5.5 10.875 C-4.38833136 12.20687793 -4.38833136 12.20687793 -1.5625 12.0625 C1.60892859 12.20778733 1.60892859 12.20778733 3.5 9.875 C3.83333333 7.375 3.83333333 7.375 3.5 4.875 C1.67296773 2.6258092 1.67296773 2.6258092 -1 2.625 C-3.67296773 2.6258092 -3.67296773 2.6258092 -5.5 4.875 Z " fill="#FFFFFF" transform="translate(71.5,233.125)"/>
<path d="M0 0 C3.63 0 7.26 0 11 0 C11 0.99 11 1.98 11 3 C8.36 3 5.72 3 3 3 C3 3.99 3 4.98 3 6 C5.31 6 7.62 6 10 6 C10 6.99 10 7.98 10 9 C7.69 9 5.38 9 3 9 C3 9.99 3 10.98 3 12 C5.64 12 8.28 12 11 12 C11 12.99 11 13.98 11 15 C7.37 15 3.74 15 0 15 C0 10.05 0 5.1 0 0 Z " fill="#FFFFFF" transform="translate(545,233)"/>
<path d="M0 0 C3.63 0 7.26 0 11 0 C11 0.99 11 1.98 11 3 C8.36 3 5.72 3 3 3 C3 3.99 3 4.98 3 6 C5.31 6 7.62 6 10 6 C10 6.99 10 7.98 10 9 C7.69 9 5.38 9 3 9 C3 9.99 3 10.98 3 12 C5.64 12 8.28 12 11 12 C11 12.99 11 13.98 11 15 C7.37 15 3.74 15 0 15 C0 10.05 0 5.1 0 0 Z " fill="#FFFFFF" transform="translate(377,233)"/>
<path d="M0 0 C3.63 0 7.26 0 11 0 C11 0.99 11 1.98 11 3 C8.36 3 5.72 3 3 3 C3 3.99 3 4.98 3 6 C5.31 6 7.62 6 10 6 C10 6.99 10 7.98 10 9 C7.69 9 5.38 9 3 9 C3 9.99 3 10.98 3 12 C5.64 12 8.28 12 11 12 C11 12.99 11 13.98 11 15 C7.37 15 3.74 15 0 15 C0 10.05 0 5.1 0 0 Z " fill="#FFFFFF" transform="translate(211,233)"/>
<path d="M0 0 C3.3 0 6.6 0 10 0 C10.33 0.99 10.66 1.98 11 3 C8.36 3 5.72 3 3 3 C3 3.99 3 4.98 3 6 C5.31 6 7.62 6 10 6 C10 6.99 10 7.98 10 9 C7.69 9 5.38 9 3 9 C3 9.99 3 10.98 3 12 C5.64 12 8.28 12 11 12 C11 12.99 11 13.98 11 15 C7.37 15 3.74 15 0 15 C0 10.05 0 5.1 0 0 Z " fill="#FFFFFF" transform="translate(446,233)"/>
<path d="M0 0 C3.96 0 7.92 0 12 0 C10.86382265 5.68088674 9.71674706 6.90204811 6 11 C8.31 11.66 10.62 12.32 13 13 C13 13.66 13 14.32 13 15 C8.71 15 4.42 15 0 15 C0.96697501 11.13209997 1.52700207 10.05523175 4.0625 7.25 C4.88427734 6.32960937 4.88427734 6.32960937 5.72265625 5.390625 C6.14417969 4.93171875 6.56570313 4.4728125 7 4 C4.69 3.67 2.38 3.34 0 3 C0 2.01 0 1.02 0 0 Z " fill="#FFFFFF" transform="translate(407,233)"/>
<path d="M0 0 C2.91704415 1.04714406 3.88969775 1.81190563 5.484375 4.53125 C5.90203125 5.5109375 6.3196875 6.490625 6.75 7.5 C7.39195312 8.96953125 7.39195312 8.96953125 8.046875 10.46875 C9 13 9 13 9 15 C7.68 14.67 6.36 14.34 5 14 C5 13.34 5 12.68 5 12 C2.36 12 -0.28 12 -3 12 C-3 12.99 -3 13.98 -3 15 C-3.99 15 -4.98 15 -6 15 C-5.39644592 11.14974121 -4.23227397 8.13898841 -2.4375 4.6875 C-1.98246094 3.80449219 -1.52742188 2.92148438 -1.05859375 2.01171875 C-0.53458984 1.01591797 -0.53458984 1.01591797 0 0 Z M1 4 C0.34 5.65 -0.32 7.3 -1 9 C0.32 9 1.64 9 3 9 C2.67 7.35 2.34 5.7 2 4 C1.67 4 1.34 4 1 4 Z " fill="#FFFFFF" transform="translate(333,233)"/>
<path d="M0 0 C3.96 0 7.92 0 12 0 C11.03302499 3.86790003 10.47299793 4.94476825 7.9375 7.75 C7.38964844 8.36359375 6.84179688 8.9771875 6.27734375 9.609375 C5.85582031 10.06828125 5.43429687 10.5271875 5 11 C7.31 11.33 9.62 11.66 12 12 C12 12.99 12 13.98 12 15 C8.04 15 4.08 15 0 15 C0.96697501 11.13209997 1.52700207 10.05523175 4.0625 7.25 C4.88427734 6.32960937 4.88427734 6.32960937 5.72265625 5.390625 C6.14417969 4.93171875 6.56570313 4.4728125 7 4 C4.69 3.67 2.38 3.34 0 3 C0 2.01 0 1.02 0 0 Z " fill="#FFFFFF" transform="translate(272,233)"/>
<path d="M0 0 C0.99 0 1.98 0 3 0 C3.33 3.63 3.66 7.26 4 11 C5.65 11.33 7.3 11.66 9 12 C9 8.04 9 4.08 9 0 C9.99 0 10.98 0 12 0 C12.05386629 2.12472576 12.09273071 4.24983652 12.125 6.375 C12.14820313 7.55835938 12.17140625 8.74171875 12.1953125 9.9609375 C12 13 12 13 10 15 C3.84509372 15.55953693 3.84509372 15.55953693 1.2890625 13.8671875 C-0.57849901 11.16205295 -0.29219531 9.05805457 -0.1875 5.8125 C-0.16042969 4.72582031 -0.13335937 3.63914063 -0.10546875 2.51953125 C-0.07066406 1.68808594 -0.03585938 0.85664063 0 0 Z " fill="#FFFFFF" transform="translate(35,233)"/>
<path d="M0 0 C3.45524469 2.30349646 4.04969447 3.76206547 5.6875 7.5 C6.34298828 8.96953125 6.34298828 8.96953125 7.01171875 10.46875 C8 13 8 13 8 15 C6.68 14.67 5.36 14.34 4 14 C4 13.34 4 12.68 4 12 C1.6568787 12.25561323 -0.67843403 12.59270772 -3 13 C-3.33 13.66 -3.66 14.32 -4 15 C-4.99 15 -5.98 15 -7 15 C-5.34292168 9.35086937 -3.52237988 4.73699363 0 0 Z M0 5 C-0.66 6.32 -1.32 7.64 -2 9 C-0.68 9 0.64 9 2 9 C1.34 7.68 0.68 6.36 0 5 Z " fill="#FFFFFF" transform="translate(263,233)"/>
<path d="M0 0 C4.25983217 3.49914785 6.15672955 7.92120163 8 13 C8 13.66 8 14.32 8 15 C7.01 15 6.02 15 5 15 C4.67 14.34 4.34 13.68 4 13 C1.69 13 -0.62 13 -3 13 C-3.33 13.66 -3.66 14.32 -4 15 C-4.99 15 -5.98 15 -7 15 C-5.34292168 9.35086937 -3.52237988 4.73699363 0 0 Z M0 4 C-0.66 5.65 -1.32 7.3 -2 9 C-0.35 9 1.3 9 3 9 C2.34 7.35 1.68 5.7 1 4 C0.67 4 0.34 4 0 4 Z " fill="#FFFFFF" transform="translate(25,233)"/>
<path d="M0 0 C4.25983217 3.49914785 6.15672955 7.92120163 8 13 C8 13.66 8 14.32 8 15 C6.68 14.67 5.36 14.34 4 14 C4 13.34 4 12.68 4 12 C1.6568787 12.25561323 -0.67843403 12.59270772 -3 13 C-3.33 13.66 -3.66 14.32 -4 15 C-4.99 15 -5.98 15 -7 15 C-5.34292168 9.35086937 -3.52237988 4.73699363 0 0 Z M0 4 C-0.66 5.65 -1.32 7.3 -2 9 C-0.68 9 0.64 9 2 9 C1.67 7.35 1.34 5.7 1 4 C0.67 4 0.34 4 0 4 Z " fill="#FFFFFF" transform="translate(595,233)"/>
<path d="M0 0 C3.3 0 6.6 0 10 0 C10 0.99 10 1.98 10 3 C7.69 3.33 5.38 3.66 3 4 C3 4.66 3 5.32 3 6 C5.31 6.33 7.62 6.66 10 7 C10 7.99 10 8.98 10 10 C7.69 10.33 5.38 10.66 3 11 C3 12.32 3 13.64 3 15 C2.01 15 1.02 15 0 15 C0 10.05 0 5.1 0 0 Z " fill="#FFFFFF" transform="translate(532,233)"/>
<path d="M0 0 C4.29 0 8.58 0 13 0 C13 0.99 13 1.98 13 3 C11.35 3 9.7 3 8 3 C8 6.96 8 10.92 8 15 C7.01 15 6.02 15 5 15 C5 11.04 5 7.08 5 3 C3.35 3 1.7 3 0 3 C0 2.01 0 1.02 0 0 Z " fill="#FFFFFF" transform="translate(49,233)"/>
<path d="M0 0 C3.96 0 7.92 0 12 0 C12 0.99 12 1.98 12 3 C10.35 3 8.7 3 7 3 C7 6.96 7 10.92 7 15 C6.01 15 5.02 15 4 15 C4 11.37 4 7.74 4 4 C2.68 3.67 1.36 3.34 0 3 C0 2.01 0 1.02 0 0 Z " fill="#FFFFFF" transform="translate(197,233)"/>
<path d="M0 0 C0.99 0 1.98 0 3 0 C3 3.96 3 7.92 3 12 C5.31 12 7.62 12 10 12 C10 12.99 10 13.98 10 15 C6.7 15 3.4 15 0 15 C0 10.05 0 5.1 0 0 Z " fill="#FFFFFF" transform="translate(344,233)"/>
<path d="M0 0 C0.99 0 1.98 0 3 0 C3 4.95 3 9.9 3 15 C2.01 15 1.02 15 0 15 C0 10.05 0 5.1 0 0 Z " fill="#FFFFFF" transform="translate(484,233)"/>
<path d="M0 0 C0.99 0 1.98 0 3 0 C3 4.95 3 9.9 3 15 C2.01 15 1.02 15 0 15 C0 10.05 0 5.1 0 0 Z " fill="#FFFFFF" transform="translate(287,233)"/>
<path d="M0 0 C0.99 0 1.98 0 3 0 C3 4.95 3 9.9 3 15 C2.01 15 1.02 15 0 15 C0 10.05 0 5.1 0 0 Z " fill="#FFFFFF" transform="translate(175,233)"/>
<path d="M0 0 C0.66 0 1.32 0 2 0 C2 4.95 2 9.9 2 15 C1.34 15 0.68 15 0 15 C0 10.05 0 5.1 0 0 Z " fill="#FFFFFF" transform="translate(621,233)"/>
</svg>
