<?xml version="1.0" encoding="UTF-8"?>
<svg version="1.1" xmlns="http://www.w3.org/2000/svg" width="2500" height="1621">
<path d="M0 0 C10.54501523 -0.09975493 21.08677032 -0.06847776 31.6317749 0.01867676 C34.81618651 0.04325869 38.00060368 0.06151957 41.18505859 0.07958984 C108.17776337 0.50281009 108.17776337 0.50281009 137.35205078 9.37939453 C139.69700579 10.0735135 142.05308376 10.69577656 144.42089844 11.30712891 C162.2788627 16.00486861 180.20310143 22.47949236 196.58886719 31.04150391 C197.88559293 31.68765393 199.18379675 32.33084544 200.48339844 32.97119141 C221.3132474 43.29826496 221.3132474 43.29826496 230.81152344 49.84228516 C232.57817972 51.09013858 232.57817972 51.09013858 234.58886719 52.04150391 C234.58886719 52.70150391 234.58886719 53.36150391 234.58886719 54.04150391 C235.17796875 54.32251953 235.76707031 54.60353516 236.37402344 54.89306641 C252.02716439 63.00950986 267.62317151 80.11641407 276.58886719 95.04150391 C277.05421875 95.79560547 277.51957031 96.54970703 277.99902344 97.32666016 C279.55730905 99.88224857 281.07253333 102.46082033 282.58886719 105.04150391 C283.51699219 106.56517578 283.51699219 106.56517578 284.46386719 108.11962891 C293.19918638 122.79223536 299.46984604 138.48150658 303.58886719 155.04150391 C303.78496582 155.78964355 303.98106445 156.5377832 304.18310547 157.30859375 C310.09826892 180.47107763 309.68782934 205.60862492 303.27246094 228.58691406 C302.63400371 230.87943155 302.05692886 233.17845146 301.49511719 235.49072266 C295.83426012 257.74818339 283.40898492 277.9394573 269.58886719 296.04150391 C269.00032959 296.82509277 269.00032959 296.82509277 268.39990234 297.62451172 C257.9546587 311.50563753 245.95532467 323.7455021 233.71386719 336.04150391 C232.83424316 336.92588135 231.95461914 337.81025879 231.04833984 338.72143555 C226.05499181 343.70200924 220.95535681 348.46725037 215.58886719 353.04150391 C214.38606332 354.0872517 213.18422489 355.13411106 211.98339844 356.18212891 C205.3678189 361.92870123 198.72518284 367.63944718 192.02514648 373.28735352 C189.06542269 375.78449063 186.12504282 378.3004391 183.21386719 380.85400391 C182.60542969 381.38767578 181.99699219 381.92134766 181.37011719 382.47119141 C180.11643881 383.57640787 178.86679593 384.68621039 177.62011719 385.79931641 C176.99105469 386.35361328 176.36199219 386.90791016 175.71386719 387.47900391 C175.15957031 387.97271484 174.60527344 388.46642578 174.03417969 388.97509766 C172.58886719 390.04150391 172.58886719 390.04150391 170.58886719 390.04150391 C170.58886719 390.70150391 170.58886719 391.36150391 170.58886719 392.04150391 C169.11230469 393.31103516 169.11230469 393.31103516 166.96386719 394.85400391 C162.56061939 398.17209111 158.53920248 401.77187075 154.52636719 405.54150391 C153.6085144 406.40255737 153.6085144 406.40255737 152.67211914 407.28100586 C151.4916112 408.38857806 150.3111873 409.49623986 149.13085938 410.60400391 C146.02273974 413.50150366 142.80946717 416.27067737 139.58886719 419.04150391 C138.3748789 420.09698001 137.16138881 421.15302925 135.94824219 422.20947266 C134.59935481 423.38273133 133.25039568 424.5559075 131.90136719 425.72900391 C131.2588501 426.28845703 130.61633301 426.84791016 129.9543457 427.42431641 C126.55491596 430.3741142 123.10385869 433.22951071 119.58886719 436.04150391 C118.82574219 436.80462891 118.06261719 437.56775391 117.27636719 438.35400391 C114.5594131 441.07095799 111.72953569 443.5740698 108.82714844 446.08837891 C106.39092796 448.21422574 103.98831644 450.37425942 101.58886719 452.54150391 C98.65208254 455.19264385 95.70284177 457.82440562 92.71386719 460.41650391 C88.74400516 463.87205182 84.87544476 467.43534361 81.00463867 471.00073242 C78.2948644 473.49232704 75.56652581 475.95288701 72.77636719 478.35400391 C68.7824518 481.81204805 64.94214361 485.42873431 61.08886719 489.04150391 C49.17967351 500.2022617 49.17967351 500.2022617 42.90136719 505.16650391 C40.26512306 507.30399914 37.96299706 509.61341654 35.58886719 512.04150391 C34.15474167 513.50315583 32.71688971 514.96115611 31.27636719 516.41650391 C30.57898438 517.12548828 29.88160156 517.83447266 29.16308594 518.56494141 C27.16650953 520.48577516 25.152428 522.28645911 23.04980469 524.08447266 C17.83776891 528.61159543 12.98487021 533.49557294 8.1159668 538.3840332 C6.52926772 539.97609357 4.93728977 541.56273381 3.34472656 543.14892578 C-1.60297278 548.09373055 -6.4425031 553.08312702 -10.9909668 558.40307617 C-12.86057068 560.56001475 -14.86309552 562.55460205 -16.91113281 564.54150391 C-20.9598205 568.54943299 -24.70836413 572.71577414 -28.41113281 577.04150391 C-29.40113236 578.18029547 -30.39210699 579.31823972 -31.38378906 580.45556641 C-38.16202876 588.23522855 -44.85061269 596.07672529 -51.41113281 604.04150391 C-52.18199219 604.97736328 -52.95285156 605.91322266 -53.74707031 606.87744141 C-55.97574166 609.59292151 -58.19543786 612.31542949 -60.41113281 615.04150391 C-61.0440625 615.81623047 -61.67699219 616.59095703 -62.32910156 617.38916016 C-70.76161447 627.80374826 -78.70704228 638.61648896 -86.55566406 649.47509766 C-87.81821479 651.22140466 -89.08668212 652.96344594 -90.36035156 654.70166016 C-95.50707214 661.72910771 -100.50100425 668.84759462 -105.41113281 676.04150391 C-106.10078125 677.00443359 -106.79042969 677.96736328 -107.50097656 678.95947266 C-113.48065981 687.62940194 -113.91744082 693.80518462 -112.41113281 704.04150391 C-99.53084354 707.0928364 -87.21072849 707.46834107 -74.02503967 707.42677307 C-71.78770211 707.43078644 -69.5503666 707.43611641 -67.31303495 707.44263881 C-61.20230961 707.45672003 -55.09171806 707.4523812 -48.98098624 707.44492567 C-43.0557706 707.44065903 -37.1305829 707.45052666 -31.20537715 707.46007633 C-19.09120287 707.47915737 -6.97705875 707.48472538 5.13712883 707.48275948 C17.13396516 707.48091577 29.13076756 707.48616399 41.1275959 707.5004406 C41.8754289 707.50133048 42.6232619 707.50222035 43.39375651 707.5031372 C47.19243441 707.50770759 50.99111211 707.51242466 54.78978974 707.51721203 C62.51283883 707.52690874 70.23588899 707.53564129 77.95893955 707.54407406 C78.73192634 707.54491831 79.50491312 707.54576257 80.30132375 707.5466324 C98.67735972 707.56645772 117.05339928 707.57646771 135.42944336 707.58520508 C136.23289901 707.58558974 137.03635467 707.58597441 137.86415747 707.58637073 C144.37360378 707.58948658 150.88305011 707.59257771 157.39249646 707.59562844 C176.13430562 707.60442763 194.8761129 707.61564996 213.61791992 707.62817383 C214.42078173 707.62870718 215.22364354 707.62924053 216.05083449 707.62979004 C234.39456019 707.64201504 252.73828208 707.6563215 271.08200169 707.67572689 C271.85377396 707.67654175 272.62554623 707.67735661 273.42070554 707.67819616 C281.12738771 707.68636471 288.83406953 707.69480215 296.54075091 707.70368605 C313.0694989 707.72264284 329.59822275 707.73566095 346.12698218 707.7366808 C358.17652492 707.73747564 370.22604732 707.74489732 382.27558177 707.75921053 C388.79714122 707.76673049 395.318669 707.770736 401.84023285 707.7660923 C407.81799703 707.76187663 413.79568209 707.76688442 419.77343483 707.77900016 C421.92802107 707.78175229 424.08261488 707.78118037 426.23719846 707.77681906 C438.51044963 707.75399509 450.43685205 708.2630025 462.58886719 710.04150391 C462.04084594 717.84665498 460.03655515 724.84058731 457.71386719 732.29150391 C455.26427561 740.21454187 453.06283381 748.09655411 451.25927734 756.19238281 C450.45494668 759.6106417 449.40914191 762.80295997 448.21386719 766.10400391 C446.15434366 771.98913934 444.55190486 777.91957517 443.08886719 783.97900391 C441.42816632 790.85635123 439.56261883 797.60095041 437.38696289 804.33227539 C436.03417844 808.53935591 434.86034051 812.75790759 433.77636719 817.04150391 C423.91504886 854.26897068 423.91504886 854.26897068 410.58886719 864.04150391 C408.61949451 865.15975142 406.61758003 866.22241042 404.58886719 867.22900391 C403.57824219 867.73818359 402.56761719 868.24736328 401.52636719 868.77197266 C396.89794881 870.77228645 392.73031772 871.16662471 387.71691471 871.16915441 C386.53181349 871.17217037 385.34671227 871.17518634 384.12569889 871.1782937 C382.82498579 871.17652423 381.52427268 871.17475476 380.18414402 871.17293167 C378.78168077 871.17458157 377.37921797 871.17666796 375.97675595 871.17915177 C372.10602902 871.18472478 368.2353242 871.18404485 364.36459454 871.18237418 C360.15988405 871.18164405 355.95517983 871.18666373 351.75047201 871.1909492 C343.40354814 871.19853599 335.05663066 871.20072261 326.7097037 871.20127826 C316.71511702 871.20219121 306.72053627 871.20885662 296.72595213 871.21562508 C272.57006165 871.23169317 248.41417179 871.23758889 224.25827691 871.24237383 C212.83621787 871.24470856 201.41415933 871.24831104 189.99210067 871.25206921 C150.90970509 871.26490427 111.82730979 871.27562441 72.74491215 871.27907181 C70.29111795 871.27929344 67.83732376 871.27951523 65.38352957 871.27973716 C62.92374766 871.2799578 60.46396574 871.28017828 58.00418383 871.28039861 C53.06927685 871.28084117 48.13436987 871.28128828 43.19946289 871.28173828 C41.97589087 871.28184767 40.75231885 871.28195706 39.49166888 871.28206977 C-0.20446934 871.28570237 -39.90058933 871.30163033 -79.59672056 871.32492865 C-121.54545814 871.34950415 -163.49418529 871.36324355 -205.44293028 871.36443973 C-210.04439231 871.36461119 -214.64585433 871.36482662 -219.24731636 871.36507416 C-220.38036271 871.36512993 -221.51340907 871.3651857 -222.68079016 871.36524315 C-240.94219126 871.36639547 -259.20357368 871.37743255 -277.46496847 871.39196121 C-295.80562541 871.4063011 -314.14625833 871.40957739 -332.48691934 871.40152124 C-343.39245489 871.39705341 -354.29791307 871.40097152 -365.20343852 871.41675974 C-372.48024207 871.42647237 -379.75699111 871.42536726 -387.0337941 871.41532351 C-391.18500685 871.40990456 -395.33607048 871.40930727 -399.48727118 871.42183223 C-403.26100506 871.4331238 -407.0344677 871.43069943 -410.80819193 871.41716516 C-412.81047802 871.41356667 -414.81277387 871.42474369 -416.81502894 871.43645644 C-418.00263367 871.42945834 -419.19023841 871.42246023 -420.41383117 871.41525006 C-421.43500949 871.41549427 -422.4561878 871.41573847 -423.50831091 871.41599007 C-427.99668649 870.83695539 -431.33515707 869.22422327 -434.37988281 865.87744141 C-434.88519531 865.06533203 -435.39050781 864.25322266 -435.91113281 863.41650391 C-436.70003906 862.22154297 -436.70003906 862.22154297 -437.50488281 861.00244141 C-438.84649462 856.61907178 -437.64473389 853.36249203 -436.41113281 849.04150391 C-435.95479221 847.27343244 -435.49908347 845.50519779 -435.04394531 843.73681641 C-434.54490948 841.87908335 -434.04220917 840.02233137 -433.53613281 838.16650391 C-433.27002197 837.18979736 -433.00391113 836.21309082 -432.72973633 835.20678711 C-431.18878016 829.63183617 -429.50461539 824.19538896 -427.40332031 818.80322266 C-426.0727856 815.09972642 -425.04098775 811.32774027 -423.97363281 807.54150391 C-422.28885153 801.62208966 -420.28653263 796.13189231 -417.59472656 790.58056641 C-416.36449168 787.94144867 -415.37451787 785.28850548 -414.41113281 782.54150391 C-412.40728647 776.87601062 -409.95156532 771.4830476 -407.41113281 766.04150391 C-406.68089336 764.41698571 -405.95175963 762.79197011 -405.22363281 761.16650391 C-398.41180813 746.21892624 -391.32308271 731.43979987 -383.41113281 717.04150391 C-382.93836914 716.17831543 -382.46560547 715.31512695 -381.97851562 714.42578125 C-374.49836987 700.82529898 -366.52341987 687.62294391 -358.06835938 674.60766602 C-356.31696511 671.89568824 -354.59434105 669.16658534 -352.87207031 666.43603516 C-349.85144866 661.6826408 -346.68842969 657.05809934 -343.41113281 652.47900391 C-342.36276182 651.00518349 -341.31458352 649.53122598 -340.26660156 648.05712891 C-339.77208496 647.36296875 -339.27756836 646.66880859 -338.76806641 645.95361328 C-337.06810125 643.55812442 -335.39500363 641.14450486 -333.72363281 638.72900391 C-326.62992835 628.58534922 -318.997677 618.81940306 -311.41113281 609.04150391 C-310.96479492 608.46609863 -310.51845703 607.89069336 -310.05859375 607.29785156 C-304.43319345 600.0591968 -298.70994119 592.92585172 -292.80957031 585.90869141 C-290.4790436 583.12268716 -288.19280032 580.30506928 -285.91113281 577.47900391 C-282.01422558 572.7008173 -277.92306935 568.13470837 -273.75097656 563.59619141 C-271.75278433 561.41452576 -269.78964392 559.21139082 -267.84863281 556.97900391 C-262.09657179 550.36682161 -256.18961736 543.89331624 -250.28613281 537.41650391 C-245.33455082 531.97360215 -240.40285572 526.52310108 -235.78613281 520.79150391 C-233.41113281 518.04150391 -233.41113281 518.04150391 -231.03613281 516.16650391 C-228.78047471 514.34049496 -227.13928966 512.64453361 -225.27758789 510.44970703 C-221.34232585 505.90482687 -217.16938902 501.63813406 -212.92285156 497.38525391 C-211.74623711 496.20364685 -211.74623711 496.20364685 -210.54585266 494.99816895 C-208.90256221 493.34985163 -207.25794721 491.70285384 -205.61206055 490.05712891 C-203.08321739 487.52607501 -200.56250688 484.98709848 -198.04199219 482.44775391 C-196.4402674 480.84309923 -194.8380709 479.23891523 -193.23535156 477.63525391 C-192.48017746 476.87289429 -191.72500336 476.11053467 -190.94694519 475.32507324 C-190.24894302 474.63014771 -189.55094086 473.93522217 -188.83178711 473.21923828 C-188.21780563 472.60383179 -187.60382416 471.98842529 -186.97123718 471.35437012 C-185.41113281 470.04150391 -185.41113281 470.04150391 -183.41113281 470.04150391 C-183.15976562 469.45240234 -182.90839844 468.86330078 -182.64941406 468.25634766 C-181.25657881 465.76506188 -179.79027562 464.41849976 -177.59863281 462.60400391 C-174.35672325 459.9013675 -171.37352253 457.0491901 -168.41113281 454.04150391 C-165.07779948 450.70817057 -161.74446615 447.37483724 -158.41113281 444.04150391 C-157.33025391 442.89875 -157.33025391 442.89875 -156.22753906 441.73291016 C-154.41113281 440.04150391 -154.41113281 440.04150391 -152.41113281 440.04150391 C-152.08113281 439.05150391 -151.75113281 438.06150391 -151.41113281 437.04150391 C-149.98535156 435.60400391 -149.98535156 435.60400391 -148.09863281 434.04150391 C-144.45768099 430.95617309 -140.91643501 427.77924259 -137.41113281 424.54150391 C-132.80393089 420.30310597 -128.15667439 416.12449169 -123.41113281 412.04150391 C-122.91919434 411.61788574 -122.42725586 411.19426758 -121.92041016 410.7578125 C-118.35677123 407.69078933 -114.78592937 404.63230994 -111.21044922 401.57910156 C-110.05031021 400.58771005 -108.89106187 399.59527486 -107.73291016 398.6015625 C-101.01978512 392.84197193 -94.20437623 387.25525586 -87.22631836 381.8190918 C-83.79198018 379.14041445 -80.43342992 376.40938645 -77.15332031 373.54541016 C-70.27758821 367.61008088 -63.12225141 362.01001869 -55.96679688 356.41870117 C-51.30014637 352.7628203 -46.69237891 349.03843937 -42.09863281 345.29150391 C-35.59963764 339.99344333 -29.03187665 334.80702712 -22.36816406 329.71728516 C-17.15450002 325.72872775 -11.97544701 321.71993224 -6.91113281 317.54150391 C-2.92648215 314.25387669 1.11424597 311.05824198 5.21386719 307.91650391 C5.76816406 307.49167725 6.32246094 307.06685059 6.89355469 306.62915039 C9.24504868 304.82948765 11.59933739 303.03353895 13.95605469 301.24072266 C18.30263239 297.90516211 22.49591299 294.42360924 26.65136719 290.85400391 C32.27663318 286.02284358 38.12394705 281.54977896 44.12036133 277.18920898 C47.93787286 274.38873833 51.29970449 271.47087958 54.58886719 268.04150391 C59.23751584 264.04150391 59.23751584 264.04150391 61.58886719 264.04150391 C61.85699219 263.44337891 62.12511719 262.84525391 62.40136719 262.22900391 C63.58804125 260.04302537 64.68485831 258.62817797 66.58886719 257.04150391 C67.24886719 257.04150391 67.90886719 257.04150391 68.58886719 257.04150391 C68.84539062 256.46916016 69.10191406 255.89681641 69.36621094 255.30712891 C70.71186334 252.81358771 72.29771369 250.9335035 74.15136719 248.79150391 C84.58746763 235.82716784 92.76623157 220.05021205 91.96777344 202.94775391 C90.61777474 192.59312469 88.29133619 183.87641666 82.17480469 175.27587891 C80.58886719 173.04150391 80.58886719 173.04150391 79.62792969 170.86962891 C78.30208891 168.53694664 77.00478167 168.11676887 74.58886719 167.04150391 C73.56142824 166.17727791 72.56198281 165.27897058 71.58886719 164.35400391 C58.19405698 152.76017658 39.8169016 146.84238067 22.58886719 144.04150391 C21.80737305 143.90760254 21.02587891 143.77370117 20.22070312 143.63574219 C-8.94851431 138.72262466 -39.07659297 140.18696021 -67.41113281 149.04150391 C-69.28489692 149.57838823 -71.16003109 150.11050238 -73.03613281 150.63916016 C-91.0357438 155.73470633 -108.20873203 161.80955746 -125.390625 169.18554688 C-127.89994723 170.24858261 -130.43234228 171.24515005 -132.97363281 172.22900391 C-136.06846082 173.45036084 -139.03180188 174.81459415 -141.99707031 176.32275391 C-147.45468756 179.07389074 -152.95699586 181.7235918 -158.47363281 184.35400391 C-159.476604 184.83256836 -160.4795752 185.31113281 -161.51293945 185.80419922 C-164.47835909 187.21799253 -167.44466983 188.62990139 -170.41113281 190.04150391 C-171.22163086 190.42806152 -172.03212891 190.81461914 -172.8671875 191.21289062 C-210.88210625 209.33130469 -210.88210625 209.33130469 -217.41113281 207.04150391 C-219.18457031 204.92431641 -219.18457031 204.92431641 -220.78613281 202.16650391 C-221.388125 201.15845703 -221.99011719 200.15041016 -222.61035156 199.11181641 C-223.20460938 198.09861328 -223.79886719 197.08541016 -224.41113281 196.04150391 C-225.4657059 194.36981027 -226.52822833 192.70310502 -227.59863281 191.04150391 C-230.88211424 185.88280622 -234.14704864 180.71248454 -237.41113281 175.54150391 C-242.77406421 167.04662717 -248.14272888 158.55629442 -253.58862305 150.11425781 C-257.71403276 143.71627889 -261.77649723 137.28197188 -265.80297852 130.82128906 C-272.00647724 120.86683055 -272.00647724 120.86683055 -278.41113281 111.04150391 C-278.47363281 108.72900391 -278.47363281 108.72900391 -277.41113281 106.04150391 C-275.77711254 104.38119913 -274.04749547 102.95123553 -272.22363281 101.50244141 C-270.25345112 99.98098991 -270.25345112 99.98098991 -268.16113281 97.66650391 C-256.19144423 86.24089207 -240.62339944 77.57364507 -226.3984375 69.2109375 C-224.28733272 67.96865348 -222.18108491 66.71838734 -220.07519531 65.46728516 C-218.60403309 64.59586727 -217.13268276 63.72476687 -215.66113281 62.85400391 C-215.00064941 62.46212891 -214.34016602 62.07025391 -213.65966797 61.66650391 C-203.84090341 55.88307991 -193.83994961 50.71317923 -183.47363281 45.97900391 C-182.38373047 45.475625 -181.29382813 44.97224609 -180.17089844 44.45361328 C-173.87676267 41.56272383 -167.54398082 38.79941975 -161.13842773 36.16455078 C-158.30406224 34.99741433 -155.48227353 33.80270343 -152.66113281 32.60400391 C-141.37853193 27.91761109 -129.97996563 23.8008752 -118.29394531 20.24462891 C-114.7392139 19.15812132 -111.23435638 17.95083345 -107.72363281 16.72900391 C-74.28666389 5.64164078 -41.75844894 0.21515491 -6.62561035 0.05328369 C-4.41697991 0.04153501 -2.20855128 0.02191338 0 0 Z " fill="#E9E8EB" transform="translate(853.4111328125,228.95849609375)"/>
<path d="M0 0 C0.96679688 0.36544922 0.96679688 0.36544922 1.953125 0.73828125 C5.39755558 2.55783914 5.39755558 2.55783914 6.75 4.6875 C6.47378616 10.5193785 5.03040189 16.00943129 3.5 21.625 C3.27892578 22.45056396 3.05785156 23.27612793 2.83007812 24.12670898 C1.18308923 30.22535022 -0.56976486 36.29002482 -2.37402344 42.34375 C-4.78151507 50.42631161 -7.01036932 58.55716487 -9.25 66.6875 C-10.06089394 69.62544613 -10.87348098 72.56291823 -11.6875 75.5 C-11.99192017 76.59876465 -11.99192017 76.59876465 -12.30249023 77.71972656 C-14.19232103 84.51988067 -16.14173034 91.30261418 -18.09179688 98.08569336 C-19.51760339 103.06364572 -20.8857756 108.05030477 -22.1875 113.0625 C-24.1522528 120.55827958 -26.45992745 127.93928785 -28.74926758 135.34130859 C-30.61106378 141.41844495 -32.18742544 147.4788187 -33.51953125 153.6953125 C-34.34275182 157.06743525 -35.42511142 160.28308941 -36.5625 163.5625 C-39.14439627 171.05933133 -41.12536163 178.65927789 -43.0847168 186.33935547 C-44.66492253 192.51201813 -46.39489596 198.60198727 -48.32421875 204.67578125 C-49.74770134 209.30660437 -50.95495985 213.99116575 -52.1875 218.67578125 C-55.06744155 229.60277752 -58.1637961 240.46812565 -61.37695312 251.30126953 C-63.08578422 257.08121769 -64.70802175 262.88275569 -66.30908203 268.69335938 C-67.63754316 273.50659461 -68.99836085 278.30933437 -70.38134766 283.10717773 C-73.26730739 293.12087059 -76.01539298 303.16693837 -78.7121582 313.2331543 C-81.83298441 324.88072416 -85.04115449 336.50011658 -88.37719727 348.08789062 C-93.68127395 366.52661362 -98.7157437 385.04353931 -103.25 403.6875 C-99.78670252 404.84193249 -99.19440073 404.54200239 -95.92578125 403.24609375 C-95.07064941 402.91279053 -94.21551758 402.5794873 -93.33447266 402.23608398 C-92.41972168 401.86942627 -91.5049707 401.50276855 -90.5625 401.125 C-88.63937486 400.37486682 -86.71619737 399.62486784 -84.79296875 398.875 C-82.94504665 398.14650734 -81.09736988 397.41739189 -79.25 396.6875 C-53.25444572 386.44523998 -27.13413413 379.99056568 0.75 377.6875 C2.31838623 377.55722412 2.31838623 377.55722412 3.91845703 377.42431641 C14.48921017 376.63026253 25.02791032 376.44461975 35.625 376.4375 C36.99362183 376.43648788 36.99362183 376.43648788 38.38989258 376.43545532 C70.22655102 376.47248596 102.80526319 378.70174763 132.85693359 389.97753906 C134.62192205 390.63946664 136.39851712 391.27021415 138.17578125 391.8984375 C174.73708027 405.20157194 205.16945492 431.02457489 222.0546875 466.37109375 C227.053125 477.40772666 230.45519974 488.80217558 232.75 500.6875 C232.87494843 501.30408478 232.99989685 501.92066956 233.12863159 502.55593872 C235.78021524 515.92049912 236.24712265 529.06512862 236.19604492 542.66625977 C236.18751901 546.11730407 236.21644583 549.56669514 236.24804688 553.01757812 C236.29176029 566.74966992 235.02168412 579.36312662 231.75 592.6875 C231.2519082 594.91520909 230.75441875 597.14305303 230.2578125 599.37109375 C229.80219924 601.29033424 229.3413182 603.20833236 228.875 605.125 C228.49492798 606.69483643 228.49492798 606.69483643 228.10717773 608.29638672 C224.89542359 621.387334 221.1126611 634.29064726 217.1418457 647.16870117 C213.57931926 658.72813887 210.43026324 670.35086237 207.42773438 682.06689453 C204.15923766 694.70523882 200.42469301 707.20830654 196.69848633 719.7175293 C194.14315012 728.31220073 191.69013462 736.92898715 189.32666016 745.578125 C188.30807871 749.30401141 187.28045628 753.02738216 186.25 756.75 C186.04205811 757.501604 185.83411621 758.25320801 185.61987305 759.02758789 C184.06667074 764.61392074 182.42600533 770.17109554 180.765625 775.72631836 C178.7967537 782.3872105 177.02937769 789.09895866 175.25 795.8125 C173.03541179 804.16112708 170.62312887 812.3341569 167.78515625 820.4921875 C166.80168456 823.52796051 166.08560094 826.5027024 165.4375 829.625 C163.98704856 836.19710199 162.04053272 842.58834745 160 849 C159.68893311 850.02665771 159.37786621 851.05331543 159.05737305 852.11108398 C156.53461075 859.84541656 153.24556945 866.06852848 146.04168606 870.265275 C142.43957052 871.82162596 140.02053378 872.06687892 136.11524963 872.07518005 C134.79609558 872.08508469 133.47694153 872.09498932 132.11781311 872.10519409 C130.66781522 872.10095652 129.21781825 872.09639871 127.76782227 872.09155273 C126.23151148 872.09725878 124.69520492 872.10422394 123.15890503 872.11235046 C118.99563865 872.13027124 114.83258317 872.12911556 110.66928983 872.12340808 C107.19017363 872.12031466 103.71109786 872.12641039 100.23198742 872.13244683 C92.02270667 872.14648689 83.81353 872.14493509 75.60424805 872.13354492 C67.14265995 872.12206393 58.68138882 872.13614015 50.21984249 872.1629414 C42.9474628 872.18511135 35.6751825 872.19173287 28.40277141 872.18586498 C24.06259662 872.18249732 19.722625 872.18489771 15.38247871 872.20211601 C11.30049675 872.21760382 7.21898367 872.21360956 3.13702011 872.19481087 C1.64189047 872.19113004 0.14672595 872.19421875 -1.34837151 872.20469666 C-15.41754997 872.29574261 -15.41754997 872.29574261 -21.25 867.6875 C-23.77734375 864.8828125 -23.77734375 864.8828125 -25.25 861.6875 C-24.94140625 858.3046875 -24.94140625 858.3046875 -23.8125 854.5625 C-23.40356831 853.13841627 -22.99608282 851.71391667 -22.58984375 850.2890625 C-22.36796387 849.54043945 -22.14608398 848.79181641 -21.91748047 848.02050781 C-21.0097023 844.84760065 -20.2457242 841.64627571 -19.47631836 838.4375 C-17.41968661 829.88698878 -15.05212846 821.46173109 -12.4831543 813.05224609 C-10.13750201 805.37296456 -7.9802973 797.64902036 -5.85888672 789.90527344 C-4.83159245 786.16351676 -3.7901031 782.42571238 -2.75 778.6875 C-1.47300233 774.0947274 -0.19802952 769.50142139 1.0703125 764.90625 C1.28880859 764.11605469 1.50730469 763.32585938 1.73242188 762.51171875 C2.14346051 761.02498326 2.55369468 759.53802497 2.96289062 758.05078125 C4.212356 753.53576398 5.53520941 749.04686286 6.88867188 744.56201172 C8.48912811 739.22080658 10.04485485 733.86646551 11.60180664 728.51245117 C11.98972729 727.17955002 12.37838938 725.84686441 12.76782227 724.5144043 C15.24644153 716.03348439 17.61131184 707.53217567 19.86791992 698.98950195 C20.90825977 695.09506619 22.02885662 691.23580822 23.1875 687.375 C25.601646 679.2619325 27.87721966 671.11410956 30.125 662.95361328 C31.16116282 659.19671354 32.20591544 655.44220441 33.25 651.6875 C34.52692036 647.09470581 35.80197043 642.50142155 37.0703125 637.90625 C38.96253611 631.05820266 40.86427294 624.22047157 42.94140625 617.42578125 C44.307542 612.79939882 45.56760195 608.14308391 46.83935547 603.48999023 C48.06715667 599.03008782 49.41008948 594.63911888 50.875 590.25 C56.28483905 572.76698354 59.85691801 549.86152135 51.35546875 532.90625 C49.91201946 530.42132464 48.38663143 528.04861361 46.75 525.6875 C46.13125 524.78 45.5125 523.8725 44.875 522.9375 C38.63613404 516.33164193 30.95260062 512.39970259 22.75 508.6875 C21.90953125 508.30464844 21.0690625 507.92179687 20.203125 507.52734375 C-9.27230325 495.49001824 -52.9832698 498.85037374 -82.25 509.6875 C-83.35085938 510.05617188 -84.45171875 510.42484375 -85.5859375 510.8046875 C-114.57191865 520.98136369 -135.89992925 543.61508749 -150.1171875 570.17578125 C-158.81476587 588.51284163 -163.22260329 609.34489225 -168.21630859 628.93505859 C-169.80624481 635.13480283 -171.60095111 641.23584277 -173.56738281 647.32568359 C-174.78214392 651.10724479 -175.8326873 654.88601242 -176.75 658.75 C-177.79128642 663.10129742 -179.09608947 667.27301344 -180.5625 671.5 C-183.1617302 679.00546356 -185.12202614 686.64658016 -187.0847168 694.33911133 C-188.66451542 700.5106945 -190.39293564 706.59985731 -192.32421875 712.671875 C-193.36841941 716.07323748 -194.28396485 719.49614698 -195.1875 722.9375 C-196.58515989 728.2562213 -198.06034132 733.54064253 -199.625 738.8125 C-203.82850525 752.98089023 -207.84079283 767.20259178 -211.8125 781.4375 C-213.95726904 789.12258288 -216.13498208 796.79493972 -218.40869141 804.44287109 C-219.78459816 809.07744535 -221.11478144 813.72346209 -222.42700195 818.37646484 C-223.43534208 821.9378639 -224.4628096 825.49360208 -225.49267578 829.04882812 C-225.99390993 830.79523001 -226.48720291 832.54393242 -226.97216797 834.29492188 C-230.8147377 848.14610666 -235.14940229 858.80029745 -247.46484375 867.25 C-255.36275845 871.32634307 -262.59172956 872.14808941 -271.40625 872.19921875 C-272.59321472 872.21726059 -273.78017944 872.23530243 -275.00311279 872.25389099 C-278.24227593 872.29947528 -281.48122328 872.33189723 -284.72059631 872.35746002 C-287.45497587 872.38109305 -290.18919371 872.41494447 -292.92346573 872.44857025 C-302.36543151 872.56372058 -311.80751523 872.63240787 -321.25 872.6875 C-321.9742215 872.691838 -322.69844299 872.69617599 -323.4446106 872.70064545 C-344.3804954 872.8244334 -365.31412186 872.82871882 -386.25 872.6875 C-387.27782593 872.6812561 -388.30565186 872.67501221 -389.36462402 872.6685791 C-394.49169677 872.63487802 -399.61735141 872.58088088 -404.74353027 872.47796631 C-406.78098904 872.43928481 -408.81873537 872.4167611 -410.85644531 872.39501953 C-419.10216945 872.16754347 -423.48855397 870.89849051 -429.8125 865.5 C-431.99906034 861.22194716 -430.60469963 858.0414691 -429.25 853.6875 C-428.70565619 851.80961505 -428.16134253 849.93172133 -427.61743164 848.05371094 C-426.97474367 845.85093541 -426.3205232 843.65183322 -425.6640625 841.453125 C-424.20092067 836.54071278 -422.78195399 831.61626628 -421.375 826.6875 C-421.00338745 825.38619141 -421.00338745 825.38619141 -420.62426758 824.05859375 C-418.6209444 817.02501451 -416.65292744 809.98174522 -414.6875 802.9375 C-412.73029099 795.92447755 -410.75545129 788.91872856 -408.6875 781.9375 C-403.50845161 764.519991 -403.50845161 764.519991 -398.78125 746.9765625 C-398.5349585 746.00992676 -398.28866699 745.04329102 -398.03491211 744.04736328 C-397.58041366 742.24810851 -397.1323637 740.44720022 -396.69360352 738.64404297 C-394.13265863 728.481925 -390.62425313 718.60179024 -387.25 708.6875 C-386.43362061 708.69638245 -385.61724121 708.70526489 -384.77612305 708.7144165 C-377.01101598 708.79519627 -369.24611805 708.85578186 -361.48069763 708.89474869 C-357.49020182 708.91545668 -353.5000586 708.94345877 -349.50976562 708.98925781 C-345.64528028 709.03332571 -341.78112994 709.05676258 -337.91641235 709.06700897 C-336.45588927 709.07429289 -334.99538055 709.08850929 -333.53500366 709.11042023 C-319.91266927 709.30632165 -305.6258196 708.33630452 -295.08984375 698.71484375 C-288.39230483 691.35717779 -285.03645795 683.78981068 -282.390625 674.2578125 C-279.9163874 665.46366183 -277.26333397 656.72644122 -274.60546875 647.98632812 C-272.30149338 640.35787358 -270.1577796 632.70759015 -268.12988281 625.00268555 C-267.11157737 621.16595701 -266.01339133 617.36521148 -264.875 613.5625 C-261.92154989 603.62646712 -259.07605452 593.66041844 -256.25 583.6875 C-255.92773438 582.55699219 -255.60546875 581.42648437 -255.2734375 580.26171875 C-254.07778921 575.99240896 -253.02556576 571.73837122 -252.171875 567.38671875 C-251.9975293 566.50201904 -251.82318359 565.61731934 -251.64355469 564.70581055 C-251.51368164 564.03976807 -251.38380859 563.37372559 -251.25 562.6875 C-252.1673996 562.68163376 -253.08479919 562.67576752 -254.02999878 562.66972351 C-262.70957734 562.61162695 -271.3889032 562.53945388 -280.0682354 562.45178509 C-284.52952108 562.40721023 -288.99071815 562.36792633 -293.45214844 562.34106445 C-297.76414378 562.31490212 -302.07579573 562.27441008 -306.38757706 562.22431374 C-308.02600939 562.20773192 -309.664501 562.1961639 -311.30300522 562.18988609 C-321.27662044 562.14783528 -330.31111395 561.83874566 -339.3125 557.0625 C-342.16736737 553.56298516 -342.36096084 550.06319948 -342.25 545.6875 C-341.36657636 541.26711657 -340.01441774 537.03461735 -338.625 532.75 C-337.87519103 530.33498009 -337.12649383 527.91961473 -336.37890625 525.50390625 C-336.01168457 524.3348877 -335.64446289 523.16586914 -335.26611328 521.96142578 C-333.95109925 517.72443919 -332.73446592 513.46592843 -331.5625 509.1875 C-331.36615967 508.47585693 -331.16981934 507.76421387 -330.9675293 507.03100586 C-329.78884276 502.73212196 -328.65533441 498.42234639 -327.53417969 494.1081543 C-324.93560141 484.11043271 -322.12575578 474.18121877 -319.27124023 464.25366211 C-315.44232326 450.91896781 -311.792094 437.5385035 -308.25 424.125 C-306.70306253 418.28882683 -305.05051694 412.48794191 -303.375 406.6875 C-301.1937338 399.13282021 -299.14690792 391.55264408 -297.1875 383.9375 C-295.26105684 376.45160674 -293.22241471 369.01828317 -291.00366211 361.61401367 C-289.30715117 355.94004344 -287.77243132 350.23028314 -286.26171875 344.50390625 C-283.66034523 334.69100303 -280.90776577 324.92285158 -278.0703125 315.17578125 C-277.87561874 314.50682831 -277.68092499 313.83787537 -277.48033142 313.14865112 C-276.50598514 309.80327348 -275.52896518 306.45870513 -274.5480957 303.11523438 C-271.98333384 294.33717536 -269.58020804 285.52991893 -267.25 276.6875 C-262.96663427 260.6851423 -258.19602306 244.81919845 -253.50390625 228.93334961 C-250.04368756 217.21740488 -246.60041921 205.49796051 -243.25 193.75 C-242.90461182 192.5419873 -242.55922363 191.33397461 -242.20336914 190.08935547 C-240.52653383 184.21317202 -238.87069546 178.33275502 -237.26586914 172.43652344 C-235.30181055 165.22364469 -233.12346852 158.10956794 -230.8125 151 C-227.98734742 142.30150389 -225.56634816 133.54652497 -223.31542969 124.68334961 C-221.76195198 118.57927532 -220.03817189 112.58907402 -218.10546875 106.59375 C-217.1772111 103.44021716 -216.52606939 100.28397631 -215.875 97.0625 C-213.36993847 85.91093575 -207.78598785 77.32564435 -198.4921875 70.73046875 C-195.05308976 68.56342282 -191.52379577 66.71493319 -187.875 64.9375 C-186.45046714 64.23448378 -185.02598952 63.53135564 -183.6015625 62.828125 C-182.8787207 62.47298828 -182.15587891 62.11785156 -181.41113281 61.75195312 C-178.67846207 60.40599239 -175.95395461 59.04411631 -173.23046875 57.6796875 C-171.2250044 56.67497755 -169.2179691 55.67344976 -167.2109375 54.671875 C-164.66883215 53.40144145 -162.13267191 52.12031578 -159.6015625 50.828125 C-151.15359605 46.53146869 -142.60177565 42.47979873 -134 38.5 C-132.38472412 37.75121582 -132.38472412 37.75121582 -130.73681641 36.98730469 C-124.53721718 34.13471089 -118.29973392 31.41088641 -111.98828125 28.81494141 C-109.15021902 27.64641685 -106.3248639 26.45002757 -103.5 25.25 C-91.92259372 20.4572833 -80.39808056 16.27385246 -68.31079102 12.95532227 C-63.73111589 11.69676137 -59.197492 10.35666911 -54.67857361 8.89251709 C-46.31779004 6.19869119 -37.92790819 4.09950993 -29.32836914 2.31958008 C-27.15453213 1.86815378 -24.98456834 1.40059901 -22.81445312 0.93164062 C-21.40645003 0.63446736 -19.99825356 0.33820847 -18.58984375 0.04296875 C-16.72380493 -0.34918823 -16.72380493 -0.34918823 -14.82006836 -0.74926758 C-9.70244871 -1.55664968 -4.87962037 -1.93399588 0 0 Z " fill="#E9E8EB" transform="translate(1914.25,228.3125)"/>
<path d="M0 0 C3.13321753 0.46076728 4.96316504 1.46521142 7.25 3.625 C7.77078125 4.09164062 8.2915625 4.55828125 8.828125 5.0390625 C11.18791151 8.98777193 10.13612874 13.29502045 9.30078125 17.62109375 C8.97464844 18.88050781 8.64851563 20.13992188 8.3125 21.4375 C8.13315918 22.13286865 7.95381836 22.8282373 7.76904297 23.54467773 C6.35410582 28.92374256 4.70351345 34.21621382 2.99731445 39.51000977 C0.81188555 46.39018613 -0.96894592 53.36665827 -2.7668457 60.35620117 C-5.93105935 72.65651032 -9.34832947 84.87150223 -12.98461914 97.04003906 C-14.95370775 103.7004376 -16.72061077 110.41189317 -18.5 117.125 C-20.71621859 125.47439124 -23.11447154 133.67551075 -25.953125 141.83203125 C-26.96371623 144.89020098 -27.76259155 147.92851411 -28.5 151.0625 C-29.51827214 155.36441377 -30.83116136 159.42002614 -32.375 163.5625 C-34.67353366 169.81313929 -36.41259105 176.10339474 -38.05639648 182.5534668 C-39.54787647 188.37225816 -41.1889382 194.12843332 -42.9375 199.875 C-45.05377759 206.8394027 -47.12415104 213.81396652 -49.125 220.8125 C-49.37540039 221.68704834 -49.62580078 222.56159668 -49.88378906 223.46264648 C-51.01710752 227.44689884 -52.12525673 231.4342846 -53.16015625 235.4453125 C-53.4238501 236.46467896 -53.4238501 236.46467896 -53.69287109 237.50463867 C-54.15016704 239.291614 -54.5970348 241.08124925 -55.04296875 242.87109375 C-58.50401474 254.18659513 -66.04952755 263.71549108 -76 270 C-85.86430177 274.73486485 -96.34622942 276.3112825 -107.19084167 276.24291992 C-108.16633242 276.24477861 -109.14182317 276.24663731 -110.14687425 276.24855232 C-113.38860362 276.2521612 -116.63011568 276.24139111 -119.87182617 276.23046875 C-122.20674126 276.22986416 -124.54165668 276.23006318 -126.87657166 276.23100281 C-133.19860512 276.23047107 -139.52053705 276.21651144 -145.84254241 276.19844818 C-149.79353323 276.18749844 -153.74452214 276.17897555 -157.6955204 276.17120361 C-168.64792741 276.14914363 -179.60030964 276.12367866 -190.55266857 276.08398438 C-191.25184791 276.0814559 -191.95102724 276.07892742 -192.67139383 276.07632232 C-193.37216224 276.07378392 -194.07293064 276.07124553 -194.79493445 276.06863022 C-196.21477073 276.06348844 -197.63460704 276.05835259 -199.05444336 276.05322266 C-199.75871849 276.0506749 -200.46299361 276.04812715 -201.18861041 276.04550219 C-212.61608927 276.00488254 -224.04342809 275.99132976 -235.47097262 275.98938239 C-247.22016681 275.98699685 -258.96913955 275.96220513 -270.71824056 275.91490459 C-277.30855166 275.88915262 -283.89854834 275.8730722 -290.48891258 275.88070679 C-296.68212164 275.88722838 -302.87458468 275.8653687 -309.06763649 275.82163429 C-311.33999571 275.81046807 -313.61243153 275.80951548 -315.88479614 275.81952477 C-318.9874321 275.83161862 -322.08768446 275.80689155 -325.19010925 275.77294922 C-326.08894386 275.78517108 -326.98777847 275.79739294 -327.91385049 275.80998516 C-333.55614412 275.69763342 -336.52664256 274.49602496 -340.61831647 270.57829475 C-344 266.71540339 -344 266.71540339 -344 263.625 C-342.83090303 260.55612045 -341.17667903 259.21096752 -338.60546875 257.23828125 C-334.1965656 253.83774038 -330.6761513 249.51939627 -327.13671875 245.2578125 C-325.37368541 243.3948632 -323.62541914 241.80163005 -321.67578125 240.1484375 C-314.92336235 234.31839513 -308.77074464 227.8368353 -302.5 221.5 C-286.99087004 205.82741121 -286.99087004 205.82741121 -280 200 C-278.86992806 199.02739445 -277.74100432 198.05345306 -276.61328125 197.078125 C-275.51352951 196.1348233 -274.41325911 195.19212599 -273.3125 194.25 C-272.71727539 193.74049805 -272.12205078 193.23099609 -271.50878906 192.70605469 C-269.67340814 191.13633376 -267.83694262 189.56789298 -266 188 C-265.42491699 187.50886719 -264.84983398 187.01773438 -264.25732422 186.51171875 C-258.05908808 181.22388752 -251.82129692 176.00046716 -245.43359375 170.94140625 C-242.90952048 168.92781971 -240.42375906 166.87254322 -237.9375 164.8125 C-231.05431221 159.16299878 -223.94766428 153.80780232 -216.86035156 148.41845703 C-214.64611094 146.73017121 -212.44506901 145.02562581 -210.25 143.3125 C-209.57324219 142.78527344 -208.89648438 142.25804687 -208.19921875 141.71484375 C-206.53422274 140.41656089 -204.87035882 139.11682599 -203.20703125 137.81640625 C-194.73694787 131.24025456 -186.07897795 124.94890098 -177.36572266 118.69970703 C-174.18212355 116.41237814 -171.00753693 114.11269486 -167.83251953 111.81347656 C-161.80512567 107.45033485 -155.77137551 103.1008269 -149.66015625 98.85546875 C-146.78632935 96.85096394 -143.92672129 94.82709181 -141.06738281 92.80200195 C-129.17524488 84.3834807 -117.2065 76.08325 -105.0625 68.03125 C-102.80883489 66.53647212 -100.55903854 65.03666242 -98.3125 63.53125 C-91.94772451 59.26897954 -85.55900704 55.06497674 -79.078125 50.98046875 C-74.99484834 48.3532844 -70.96922567 45.64289173 -66.9375 42.9375 C-61.41632567 39.23551968 -55.87433836 35.63808868 -50.13671875 32.27734375 C-47.20096592 30.52233246 -44.38049106 28.61341683 -41.546875 26.69921875 C-37.78143611 24.18700109 -33.96394703 21.75648005 -30.15112305 19.31713867 C-26.92678996 17.2505928 -23.72854704 15.15458778 -20.5625 13 C-15.81354642 9.80098952 -10.8896491 6.8971138 -5.96313477 3.98242188 C-2.80251271 2.23413347 -2.80251271 2.23413347 0 0 Z " fill="#E9E8EB" transform="translate(1424,514)"/>
<path d="M0 0 C1.09706772 0.0028299 2.19413544 0.00565979 3.32444763 0.00857544 C6.79844473 0.01969253 10.27217572 0.04478138 13.74609375 0.0703125 C16.11392855 0.08035325 18.48176742 0.08947718 20.84960938 0.09765625 C26.62769363 0.11960406 32.40562467 0.15299641 38.18359375 0.1953125 C39.5671933 4.62981645 38.35370774 8.06041541 37.05859375 12.3828125 C36.82849609 13.18017822 36.59839844 13.97754395 36.36132812 14.79907227 C35.64616777 17.26778829 34.91703784 19.73197254 34.18359375 22.1953125 C33.5541791 24.31852533 32.92507223 26.441829 32.29614258 28.56518555 C31.88287099 29.96016245 31.46862317 31.35485045 31.0534668 32.74926758 C29.55195963 37.83071143 28.1902621 42.93887866 26.87109375 48.0703125 C24.51589008 57.20628517 21.83417862 66.23605797 19.13232422 75.2746582 C16.56943272 83.85749167 14.11672405 92.46323769 11.75585938 101.10351562 C10.76084969 104.74056469 9.75386478 108.37428216 8.74609375 112.0078125 C8.43913574 113.11648682 8.43913574 113.11648682 8.12597656 114.24755859 C7.019043 118.2333775 5.89428151 122.21335814 4.74609375 126.1875 C2.07062325 135.45164556 -0.49243716 144.72708259 -2.87890625 154.0703125 C-4.84046771 161.73852358 -7.07058891 169.18625558 -9.66796875 176.6640625 C-11.11058317 181.0998565 -12.20495618 185.58001634 -13.29077148 190.11328125 C-14.52021988 195.1778375 -15.95135186 200.15803897 -17.50390625 205.1328125 C-17.71853516 205.82560303 -17.93316406 206.51839355 -18.15429688 207.23217773 C-19.68698139 212.06588764 -19.68698139 212.06588764 -20.81640625 213.1953125 C-22.20061254 213.29856417 -23.58999198 213.33380845 -24.97802734 213.34057617 C-25.86340179 213.34695602 -26.74877625 213.35333588 -27.66098022 213.35990906 C-28.62750519 213.36102188 -29.59403015 213.3621347 -30.58984375 213.36328125 C-32.08011581 213.36827385 -32.08011581 213.36827385 -33.60049438 213.37336731 C-35.71396419 213.37844523 -37.82744207 213.38077537 -39.94091797 213.38061523 C-43.14304328 213.38277981 -46.34481174 213.40086492 -49.546875 213.41992188 C-51.60286341 213.42286018 -53.65885345 213.42484205 -55.71484375 213.42578125 C-56.6611264 213.43296677 -57.60740906 213.44015228 -58.58236694 213.44755554 C-65.1797925 213.42541799 -71.36700555 212.56902831 -77.81640625 211.1953125 C-77.12053364 204.77882479 -75.40734863 198.76310292 -73.62890625 192.5703125 C-73.31501953 191.46292725 -73.00113281 190.35554199 -72.67773438 189.21459961 C-71.21839944 184.07339213 -69.74286492 178.93686752 -68.265625 173.80078125 C-67.78239956 172.1198355 -67.29932446 170.43884653 -66.81640625 168.7578125 C-66.57647949 167.9232251 -66.33655273 167.0886377 -66.08935547 166.22875977 C-63.75350409 158.05946354 -61.55252695 149.85501025 -59.35375977 141.64794922 C-55.8887778 128.7154729 -52.29127727 115.82318445 -48.62890625 102.9453125 C-48.37874756 102.06319092 -48.12858887 101.18106934 -47.87084961 100.2722168 C-46.61570893 95.87646727 -45.30698721 91.51870371 -43.81640625 87.1953125 C-45.55077549 88.24929871 -47.27867063 89.31394129 -49.00390625 90.3828125 C-49.96683594 90.97449219 -50.92976563 91.56617188 -51.921875 92.17578125 C-54.93266621 94.27642775 -57.29131949 96.53668749 -59.81640625 99.1953125 C-64.94245349 104.39661982 -70.0580288 109.52483179 -75.609375 114.2734375 C-78.97771974 117.20658017 -82.24526634 120.24873583 -85.51708984 123.28881836 C-88.51969773 126.06310814 -91.61343151 128.6571061 -94.81640625 131.1953125 C-96.50637948 132.83834203 -98.16857019 134.51002562 -99.81640625 136.1953125 C-101.25053177 137.65696442 -102.68838373 139.1149647 -104.12890625 140.5703125 C-104.82628906 141.27929688 -105.52367187 141.98828125 -106.2421875 142.71875 C-108.32211208 144.71977001 -110.43074004 146.6218474 -112.609375 148.51171875 C-117.49078268 152.7483907 -122.15440389 157.20239422 -126.81640625 161.67773438 C-134.55626448 169.01699448 -141.17947775 175.10611671 -152.31640625 175.4453125 C-156.51517989 175.29561089 -159.95714478 175.01571886 -163.81640625 173.1953125 C-166.24477996 170.44741593 -167.97811222 167.35699757 -169.81640625 164.1953125 C-170.43386719 163.23109375 -171.05132813 162.266875 -171.6875 161.2734375 C-176.63896108 153.51325288 -180.7967515 145.51260032 -184.81640625 137.24365234 C-186.45778179 133.88155742 -188.13848329 130.5392757 -189.81640625 127.1953125 C-191.84175497 123.1550218 -193.86019265 119.1118531 -195.8515625 115.0546875 C-203.21587604 99.93535861 -203.21587604 99.93535861 -212.81640625 86.1953125 C-217.815129 103.07153134 -222.64871131 119.99192496 -227.37890625 136.9453125 C-229.52425977 144.63248966 -231.70763374 152.30528108 -233.97509766 159.95727539 C-235.59423971 165.42501387 -237.18312192 170.90098234 -238.75390625 176.3828125 C-239.00245361 177.24922363 -239.25100098 178.11563477 -239.50708008 179.00830078 C-240.86444495 183.76759686 -242.18343387 188.53502217 -243.4609375 193.31640625 C-243.7297876 194.31969971 -243.9986377 195.32299316 -244.27563477 196.35668945 C-244.79290299 198.29528747 -245.30531145 200.23519039 -245.81225586 202.17651367 C-246.04565674 203.05154541 -246.27905762 203.92657715 -246.51953125 204.828125 C-246.72223633 205.60043457 -246.92494141 206.37274414 -247.13378906 207.16845703 C-247.81640625 209.1953125 -247.81640625 209.1953125 -249.81640625 212.1953125 C-255.37583015 213.44988074 -260.98242586 213.34114851 -266.66015625 213.328125 C-267.58807983 213.32908173 -268.51600342 213.33003845 -269.4720459 213.33102417 C-271.42521228 213.33170175 -273.37838097 213.32987701 -275.33154297 213.32568359 C-278.30701801 213.32032939 -281.28234211 213.32564296 -284.2578125 213.33203125 C-286.16276075 213.33137039 -288.0677089 213.33008908 -289.97265625 213.328125 C-290.85514038 213.33014923 -291.73762451 213.33217346 -292.64685059 213.33425903 C-297.47623115 213.31608819 -302.05402856 213.00704478 -306.81640625 212.1953125 C-306.24241668 205.13306103 -304.74411777 198.73371534 -302.75390625 191.9453125 C-302.12028443 189.73721124 -301.48750762 187.52886737 -300.85546875 185.3203125 C-300.52321289 184.1653125 -300.19095703 183.0103125 -299.84863281 181.8203125 C-297.72371457 174.35796954 -295.69768374 166.86783607 -293.65795898 159.38183594 C-291.78804583 152.56549874 -289.7935293 145.80214654 -287.69360352 139.05322266 C-286.6708145 135.72097432 -285.75364345 132.38179883 -284.87890625 129.0078125 C-283.4192356 123.45422181 -281.9206678 117.91417304 -280.37890625 112.3828125 C-280.16886963 111.62911377 -279.95883301 110.87541504 -279.74243164 110.09887695 C-279.3143301 108.5637456 -278.88602525 107.02867093 -278.45751953 105.49365234 C-277.61580122 102.4761595 -276.77740743 99.45774894 -275.93945312 96.43920898 C-275.52315617 94.93992008 -275.10648783 93.44073425 -274.68945312 91.94165039 C-273.65379125 88.21802653 -272.62274972 84.49324635 -271.6015625 80.765625 C-269.46273616 72.97926842 -267.23558471 65.23116939 -264.87890625 57.5078125 C-262.68462154 50.29882392 -260.6921489 43.05597824 -258.81640625 35.7578125 C-256.80528606 27.94525665 -254.74599069 20.1502663 -252.56640625 12.3828125 C-252.32019531 11.48699463 -252.07398438 10.59117676 -251.8203125 9.66821289 C-251.58699219 8.84571045 -251.35367188 8.02320801 -251.11328125 7.17578125 C-250.91057617 6.45285889 -250.70787109 5.72993652 -250.49902344 4.98510742 C-249.81640625 3.1953125 -249.81640625 3.1953125 -247.81640625 1.1953125 C-245.76277161 0.94134521 -245.76277161 0.94134521 -243.20239258 0.93652344 C-241.76498466 0.92706696 -241.76498466 0.92706696 -240.29853821 0.91741943 C-239.25900497 0.9214679 -238.21947174 0.92551636 -237.1484375 0.9296875 C-236.08026291 0.92777405 -235.01208832 0.9258606 -233.9115448 0.92388916 C-231.64602422 0.92252585 -229.38049588 0.92623241 -227.11499023 0.93457031 C-223.66046349 0.94521526 -220.20646304 0.93470695 -216.75195312 0.921875 C-214.55078011 0.9231976 -212.34960742 0.92576206 -210.1484375 0.9296875 C-209.11902542 0.92563904 -208.08961334 0.92159058 -207.02900696 0.91741943 C-193.28020972 1.00640703 -193.28020972 1.00640703 -188.19140625 6.1328125 C-184.86884452 9.7279569 -183.05923519 13.50535896 -181.18359375 17.9921875 C-179.59996274 21.70240872 -177.8240235 25.28434976 -176.00390625 28.8828125 C-175.30987115 30.26040423 -174.61586102 31.63800854 -173.921875 33.015625 C-173.57302246 33.70688477 -173.22416992 34.39814453 -172.86474609 35.11035156 C-171.83748653 37.15338758 -170.81940805 39.20071107 -169.8046875 41.25 C-166.25477012 48.41168609 -162.61016681 55.50650855 -158.82080078 62.54443359 C-156.36669766 67.11957439 -154.00678488 71.73602613 -151.69140625 76.3828125 C-151.19193481 77.38429321 -151.19193481 77.38429321 -150.68237305 78.40600586 C-149.15767265 81.47162286 -147.64803045 84.54315709 -146.15625 87.625 C-145.40021484 89.17574219 -145.40021484 89.17574219 -144.62890625 90.7578125 C-144.20222656 91.64597656 -143.77554687 92.53414062 -143.3359375 93.44921875 C-141.41641747 96.91817139 -139.16527257 100.00164383 -136.81640625 103.1953125 C-136.40390625 102.80786865 -135.99140625 102.4204248 -135.56640625 102.02124023 C-121.7425648 89.04788903 -121.7425648 89.04788903 -115.8359375 83.96484375 C-113.12154345 81.58646753 -110.470715 79.14018896 -107.81640625 76.6953125 C-103.86402675 73.05672092 -99.87642496 69.46794879 -95.8203125 65.9453125 C-88.11405745 59.25621636 -88.11405745 59.25621636 -80.81640625 52.1328125 C-78.81640625 50.1953125 -78.81640625 50.1953125 -76.81640625 50.1953125 C-76.42001953 49.29425781 -76.42001953 49.29425781 -76.015625 48.375 C-74.75305194 46.08016036 -73.64383222 44.96605777 -71.62890625 43.3203125 C-67.41039651 39.74961779 -63.35421538 36.02975356 -59.31640625 32.2578125 C-58.6630127 31.64873047 -58.00961914 31.03964844 -57.33642578 30.41210938 C-53.19030194 26.53027612 -49.14232286 22.57674327 -45.234375 18.453125 C-43.81640625 17.1953125 -43.81640625 17.1953125 -41.81640625 17.1953125 C-41.81640625 16.5353125 -41.81640625 15.8753125 -41.81640625 15.1953125 C-29.88917975 3.47506607 -16.22411315 -0.15992034 0 0 Z " fill="#E9E8EB" transform="translate(1209.81640625,1177.8046875)"/>
<path d="M0 0 C2.57312645 -0.07654462 5.14551402 -0.18542133 7.71582031 -0.328125 C28.45590893 -1.45609003 28.45590893 -1.45609003 34.56396484 2.63122559 C38.59176207 6.52336306 41.42015475 10.97288006 44.01254272 15.90846252 C45.65082692 18.96074175 47.6287371 21.69116536 49.64013672 24.50927734 C52.2670773 28.53761928 54.65747133 32.64021194 56.93701172 36.87255859 C58.64469976 39.90536819 60.58864007 42.7559856 62.54248047 45.63427734 C65.50117805 50.03253683 68.30530594 54.5306169 71.14013672 59.00927734 C72.30629917 60.84293144 73.47296323 62.67626663 74.64013672 64.50927734 C75.5121875 65.88019531 75.5121875 65.88019531 76.40185547 67.27880859 C77.5281026 69.04790241 78.65562658 70.81618427 79.78466797 72.58349609 C83.26725596 78.03982247 86.71341033 83.51777807 90.14013672 89.00927734 C97.27904832 100.44537204 104.55023307 111.79323787 111.89794922 123.09619141 C112.97170894 124.74988267 114.04074025 126.40664235 115.10888672 128.06396484 C115.89779297 129.27439453 115.89779297 129.27439453 116.70263672 130.50927734 C117.13705078 131.17958984 117.57146484 131.84990234 118.01904297 132.54052734 C119.09081454 134.16779709 119.09081454 134.16779709 121.14013672 135.00927734 C121.34638672 133.87490234 121.55263672 132.74052734 121.76513672 131.57177734 C122.81336871 126.79063286 124.40857499 122.28682396 126.07763672 117.69677734 C128.203053 111.8428281 129.96484027 106.0628074 131.37451172 99.98974609 C132.23159186 96.65325556 133.32152601 93.45051036 134.45263672 90.19677734 C138.25402697 79.18215859 140.91141194 67.82826106 143.76416016 56.54003906 C147.39667497 42.20641365 151.73120889 28.1213525 156.14013672 14.00927734 C157.46013672 9.71927734 158.78013672 5.42927734 160.14013672 1.00927734 C179.28013672 1.00927734 198.42013672 1.00927734 218.14013672 1.00927734 C216.90162218 7.82110728 215.6662466 14.28351092 213.76513672 20.88427734 C213.54672119 21.65747314 213.32830566 22.43066895 213.10327148 23.22729492 C211.52250049 28.78504389 209.82649938 34.30341229 208.10107422 39.81787109 C206.67918713 44.54015462 205.45201019 49.3102997 204.19873047 54.07958984 C203.12381174 58.11886193 201.95434824 62.12737603 200.76513672 66.13427734 C196.71375031 79.79152304 192.77308118 93.47655041 189.14013672 107.25146484 C187.97876933 111.61566574 186.78397908 115.96982845 185.57763672 120.32177734 C185.37968506 121.03873779 185.1817334 121.75569824 184.9777832 122.49438477 C183.67601621 127.17762987 182.3004582 131.83538833 180.89672852 136.48901367 C179.67764838 140.54986048 178.49728211 144.621449 177.32763672 148.69677734 C177.07119385 149.58961426 176.81475098 150.48245117 176.55053711 151.40234375 C174.61479308 158.20252226 172.8273837 165.03421611 171.07763672 171.88427734 C169.13638287 179.47815424 166.98943439 186.89884185 164.31591797 194.26708984 C163.22289753 197.7458725 162.37566798 201.18946811 161.56665039 204.74316406 C161.29882248 205.91595917 161.03099457 207.08875427 160.75505066 208.29708862 C160.55212906 209.1921109 160.34920746 210.08713318 160.14013672 211.00927734 C152.56934995 211.26484178 144.99901285 211.45993556 137.42488766 211.57921124 C133.90694669 211.63648332 130.39196785 211.71404364 126.87573242 211.83911133 C122.82687118 211.98221202 118.78108743 212.03498106 114.72998047 212.08349609 C113.47555649 212.14027023 112.22113251 212.19704437 110.92869568 212.25553894 C107.34565084 212.25806029 104.5425928 212.14311976 101.14013672 211.00927734 C97.94615323 207.70806766 96.08467967 204.1364541 94.14013672 200.00927734 C93.36151171 198.74453201 92.56249572 197.49185383 91.73388672 196.25927734 C87.74639342 190.06973551 83.77015622 183.87356325 79.82373047 177.65771484 C78.67347465 175.8482637 77.51966471 174.04106827 76.36279297 172.23583984 C73.60256845 167.92336652 70.87729224 163.60074203 68.26513672 159.19677734 C64.73548843 153.26696822 60.97420074 147.48846593 57.22753906 141.69482422 C54.50898612 137.48088406 51.82878157 133.24232981 49.14013672 129.00927734 C47.97363929 127.17583632 46.80697116 125.3425039 45.64013672 123.50927734 C45.05876953 122.59533203 44.47740234 121.68138672 43.87841797 120.73974609 C42.75217083 118.97065228 41.62464686 117.20237042 40.49560547 115.43505859 C37.05336237 110.04194235 33.64910981 104.62654247 30.26513672 99.19677734 C25.62668175 91.75545818 20.90268013 84.37166329 16.14013672 77.00927734 C6.20101856 99.8240713 0.2521692 124.24366419 -5.96337891 148.27441406 C-8.85924216 159.42963526 -11.9573872 170.51566366 -15.19921875 181.57519531 C-15.99615525 184.29785531 -16.78554326 187.02263681 -17.57470703 189.74755859 C-18.08857842 191.50680513 -18.60288488 193.26592466 -19.11767578 195.02490234 C-19.348992 195.82599426 -19.58030823 196.62708618 -19.81863403 197.45245361 C-20.04251801 198.21144958 -20.26640198 198.97044556 -20.49707031 199.75244141 C-20.68850616 200.40794983 -20.87994202 201.06345825 -21.07717896 201.73883057 C-22.16488776 204.8941064 -23.54515941 207.94163497 -24.85986328 211.00927734 C-43.66986328 211.00927734 -62.47986328 211.00927734 -81.85986328 211.00927734 C-80.40698101 203.74486601 -78.84977453 196.61865419 -77.04736328 189.44677734 C-76.78455566 188.39756104 -76.52174805 187.34834473 -76.25097656 186.26733398 C-74.34659562 178.74577632 -72.24702626 171.30402042 -70.00830078 163.87646484 C-68.51485091 158.90409682 -67.20577009 153.88483961 -65.88330078 148.86474609 C-62.75358465 137.07455595 -59.39043921 125.34891782 -56.02270508 113.625 C-54.56021561 108.51596128 -53.14899368 103.39874294 -51.79736328 98.25927734 C-50.29455559 92.56087593 -48.67403576 86.90473134 -46.99633789 81.25610352 C-44.90693153 74.20719272 -42.87974482 67.14089299 -40.85986328 60.07177734 C-40.33634277 58.24054321 -40.33634277 58.24054321 -39.80224609 56.37231445 C-38.14845219 50.57429383 -36.51158407 44.77289239 -34.92529297 38.95605469 C-32.63745793 30.57325323 -30.1513729 22.25616431 -27.60986328 13.94677734 C-27.25601562 12.78452637 -26.90216797 11.62227539 -26.53759766 10.42480469 C-26.20566406 9.3479541 -25.87373047 8.27110352 -25.53173828 7.16162109 C-25.23364258 6.19216553 -24.93554688 5.22270996 -24.62841797 4.22387695 C-22.31228 -2.45010257 -6.03145082 0.14282402 0 0 Z " fill="#E9E8EB" transform="translate(1585.85986328125,1178.99072265625)"/>
<path d="M0 0 C3.3759412 0.00534668 6.75174843 0.00002805 10.12768555 -0.00634766 C29.39014936 -0.01488033 48.3474373 0.41626718 67.39135742 3.44287109 C68.84615425 3.66589506 70.30107205 3.88813115 71.75610352 4.10961914 C84.04976455 5.99397622 96.32379548 8.00992524 108.57885742 10.13037109 C107.99839308 15.58665993 107.03332536 20.7370113 105.54760742 26.02490234 C105.35162964 26.73893723 105.15565186 27.45297211 104.95373535 28.18864441 C104.33396215 30.44152245 103.7064566 32.69216227 103.07885742 34.94287109 C102.65779256 36.47073039 102.23721541 37.99872419 101.81713867 39.52685547 C98.80390206 50.45523719 98.80390206 50.45523719 97.57885742 54.13037109 C94.70330073 54.01387733 91.82871991 53.88724552 88.95385742 53.75537109 C87.77049805 53.70896484 87.77049805 53.70896484 86.56323242 53.66162109 C81.60680628 53.4256008 76.77158409 52.90174753 71.86401367 52.16162109 C64.46983827 51.06289222 57.10101287 50.45332794 49.64135742 50.00537109 C48.94853668 49.96334564 48.25571594 49.92132019 47.54190063 49.87802124 C-5.72925902 44.07404197 -5.72925902 44.07404197 -54.42114258 54.13037109 C-57.77347843 57.58252837 -58.13452103 61.2783473 -58.60864258 65.88037109 C-58.69049805 66.57775391 -58.77235352 67.27513672 -58.85668945 67.99365234 C-59.05591391 69.70463885 -59.24004187 71.41737146 -59.42114258 73.13037109 C-53.05948216 76.2871041 -47.12163088 78.39691557 -40.03833008 79.18896484 C-39.34657684 79.26838821 -38.65482361 79.34781158 -37.94210815 79.42964172 C-35.76953896 79.67500485 -33.59592206 79.90549544 -31.42114258 80.13037109 C-30.74700317 80.20018188 -30.07286377 80.26999268 -29.3782959 80.34191895 C-25.93359013 80.69453982 -22.48774848 81.03486591 -19.04150391 81.37207031 C-2.82665899 82.96833763 13.34547821 84.88722247 29.49224854 87.06607056 C31.64231794 87.35455413 33.79314875 87.63742937 35.94476318 87.91415405 C49.71505992 89.69509155 62.4952339 92.47225055 75.57885742 97.13037109 C76.79855225 97.54697998 78.01824707 97.96358887 79.27490234 98.39282227 C88.1269568 101.5000357 93.48631234 106.96161166 97.95385742 115.13037109 C105.68969276 132.69003273 101.71889622 154.16489187 95.04858398 171.46679688 C89.35661594 185.37244728 80.2824368 196.18565609 67.57885742 204.13037109 C66.85956055 204.59314453 66.14026367 205.05591797 65.39916992 205.53271484 C59.18812667 209.27526655 52.54673674 211.24649345 45.57885742 213.13037109 C44.36069336 213.46423828 43.1425293 213.79810547 41.88745117 214.14208984 C3.16067514 223.58708719 -42.43336242 220.4141539 -81.53344727 214.69042969 C-85.42108569 214.13037929 -89.31211647 213.63139629 -93.21020508 213.14990234 C-106.24222026 211.52173157 -119.21560205 209.58821436 -132.17114258 207.44287109 C-133.46971191 207.22832275 -134.76828125 207.01377441 -136.10620117 206.79272461 C-145.163798 205.25904338 -145.163798 205.25904338 -147.42114258 204.13037109 C-144.89557857 188.14620941 -139.89771769 172.65260374 -135.42114258 157.13037109 C-128.19389942 157.75869796 -121.07646638 158.75841936 -113.92114258 159.94287109 C-111.70378529 160.30280483 -109.4863343 160.66216174 -107.26879883 161.02099609 C-105.57134521 161.2965332 -105.57134521 161.2965332 -103.83959961 161.57763672 C-89.89189591 163.83285749 -75.93407169 166.00525903 -61.92114258 167.81787109 C-61.0277417 167.93718994 -60.13434082 168.05650879 -59.21386719 168.17944336 C-44.96351382 169.9621877 -30.5912921 170.31718249 -16.24389648 170.31567383 C-13.92128418 170.31787096 -11.59914129 170.33617555 -9.27661133 170.35498047 C16.66673458 170.93766203 16.66673458 170.93766203 39.57885742 161.13037109 C42.55060753 157.33882785 43.32702303 153.91522449 43.57885742 149.13037109 C42.91482301 145.29372784 42.39957674 143.71351377 39.20385742 141.44287109 C30.43341031 138.26736438 21.29212388 136.55933855 12.07885742 135.25537109 C10.36666016 135.00992554 10.36666016 135.00992554 8.61987305 134.75952148 C-6.72758208 132.67384667 -22.16726998 131.350287 -37.59106445 129.96875 C-47.56625892 129.06529518 -57.51237616 128.09576204 -67.42504883 126.64599609 C-68.59015991 126.47933693 -68.59015991 126.47933693 -69.77880859 126.30931091 C-85.40225147 123.89887515 -103.02118764 118.07017049 -113.05786133 105.16943359 C-120.70647372 93.72938869 -120.29802705 80.15800675 -118.21020508 66.97802734 C-116.98739787 61.01532884 -114.89640117 55.67220004 -112.42114258 50.13037109 C-111.97770508 49.05013672 -111.53426758 47.96990234 -111.07739258 46.85693359 C-103.7601 29.74259928 -91.45495697 16.52126926 -74.48754883 8.79443359 C-67.20008967 5.90744497 -59.86612364 4.26691173 -52.17114258 2.88037109 C-51.28015869 2.71714355 -50.3891748 2.55391602 -49.47119141 2.38574219 C-33.15409666 -0.3316032 -16.48781044 -0.03096302 0 0 Z " fill="#E9E8EB" transform="translate(1932.421142578125,1175.86962890625)"/>
<path d="M0 0 C1.24856824 -0.00512655 1.24856824 -0.00512655 2.52236009 -0.01035666 C5.31565012 -0.01695308 8.10798236 0.00506933 10.90118408 0.0269165 C12.90174843 0.0280446 14.90231443 0.02741186 16.90287781 0.02514648 C22.33856254 0.02399694 27.77389555 0.04754529 33.20949841 0.07544231 C38.88830478 0.10041587 44.56711886 0.10279478 50.24597168 0.10754395 C61.00174566 0.11998561 71.75735738 0.15282341 82.51305985 0.1929419 C94.75715312 0.23762251 107.00125406 0.25963733 119.24540854 0.27972364 C144.43446801 0.32155493 169.62338337 0.3919302 194.81231689 0.48101807 C195.96070704 4.37516165 195.4327239 6.46723469 194.13653564 10.34429932 C193.76190186 11.49623779 193.38726807 12.64817627 193.00128174 13.83502197 C192.60892334 15.03820068 192.21656494 16.24137939 191.81231689 17.48101807 C191.10186044 19.84693225 190.39999275 22.21544298 189.70684814 24.58648682 C189.19154541 26.33735596 189.19154541 26.33735596 188.66583252 28.12359619 C187.95927511 30.52960312 187.25357477 32.93586187 186.54864502 35.34234619 C186.20897705 36.4954126 185.86930908 37.648479 185.51934814 38.83648682 C185.2148877 39.87442383 184.91042725 40.91236084 184.59674072 41.98175049 C183.81231689 44.48101807 183.81231689 44.48101807 182.81231689 46.48101807 C133.97231689 46.48101807 85.13231689 46.48101807 34.81231689 46.48101807 C33.82231689 51.43101807 32.83231689 56.38101807 31.81231689 61.48101807 C31.00543707 64.27244912 30.14761258 67.05107854 29.18731689 69.79351807 C28.76192627 71.02715088 28.33653564 72.26078369 27.89825439 73.53179932 C26.81231689 76.48101807 26.81231689 76.48101807 25.81231689 78.48101807 C26.42376745 78.48525001 27.03521801 78.48948195 27.66519737 78.49384212 C42.52874625 78.59705253 57.39224812 78.70567576 72.25571251 78.82035732 C79.4435093 78.87568482 86.63131104 78.92916603 93.81915283 78.97833252 C100.08253891 79.02118017 106.34588851 79.06745962 112.60921824 79.11789662 C115.92698246 79.1444929 119.24473861 79.16883409 122.56254196 79.19009209 C126.26222553 79.21408785 129.96181222 79.24414899 133.66143799 79.2756958 C134.76698532 79.28145126 135.87253265 79.28720673 137.01158142 79.2931366 C138.01561508 79.30292542 139.01964874 79.31271423 140.05410767 79.32279968 C140.929811 79.32925223 141.80551434 79.33570478 142.70775414 79.34235287 C144.81231689 79.48101807 144.81231689 79.48101807 146.81231689 80.48101807 C143.51048329 93.846419 140.19837356 107.20050583 136.12481689 120.35601807 C135.91026855 121.05275635 135.69572021 121.74949463 135.47467041 122.46734619 C133.9357057 127.35762926 133.9357057 127.35762926 132.81231689 128.48101807 C131.24344055 128.57693006 129.67023897 128.60289803 128.09843445 128.60127258 C127.07894714 128.60264725 126.05945984 128.60402191 125.00907898 128.60543823 C123.88123489 128.60184296 122.75339081 128.59824768 121.59136963 128.59454346 C120.41104156 128.59468948 119.2307135 128.59483551 118.01461792 128.59498596 C114.76889581 128.59440701 111.52321634 128.58937793 108.27750278 128.582412 C104.88888657 128.57617769 101.50026961 128.57557461 98.11164856 128.5743866 C91.69075885 128.57127351 85.26988609 128.56306043 78.84900385 128.55303711 C71.54077865 128.54187526 64.23255265 128.53636534 56.92432106 128.53134167 C41.88697688 128.5208778 26.84964858 128.5032788 11.81231689 128.48101807 C11.67803095 129.16416265 11.543745 129.84730724 11.40538979 130.55115318 C11.13872285 131.8981552 11.13872285 131.8981552 10.8666687 133.27236938 C10.60336478 134.60646127 10.60336478 134.60646127 10.33474159 135.9675045 C9.7196157 138.9270263 8.94546718 141.81003006 8.08575439 144.70758057 C7.77637939 145.7581665 7.46700439 146.80875244 7.14825439 147.89117432 C6.83114502 148.95207275 6.51403564 150.01297119 6.18731689 151.10601807 C5.86247314 152.20558838 5.53762939 153.30515869 5.20294189 154.43804932 C4.40995223 157.12022025 3.61225268 159.80091367 2.81231689 162.48101807 C11.85905042 164.12209318 20.58385545 164.77957869 29.769104 164.78399658 C31.11102802 164.79168217 32.4529473 164.80023304 33.79486084 164.80957031 C36.65499812 164.82766822 39.51507244 164.83982056 42.37525749 164.84710884 C46.90208191 164.85871101 51.42876698 164.88421179 55.95552063 164.91142273 C63.11256699 164.95285905 70.26962032 164.98537693 77.42672879 165.01389688 C90.25753402 165.06510297 103.08828044 165.12720221 115.91898543 165.19923729 C120.41571468 165.22407029 124.91242552 165.24353987 129.40919769 165.25861943 C131.53037911 165.26638091 133.65153743 165.27630898 135.77270508 165.28717041 C138.35378933 165.30028339 140.93489465 165.3099094 143.51600647 165.31535339 C145.22930649 165.32570114 145.22930649 165.32570114 146.97721863 165.33625793 C147.96508834 165.34011285 148.95295805 165.34396776 149.97076321 165.34793949 C152.98272091 165.4889986 155.85030092 165.9292002 158.81231689 166.48101807 C157.510724 172.54823625 156.04485347 178.5506469 154.43731689 184.54351807 C152.14400918 193.16892703 149.95161604 201.81625895 147.81231689 210.48101807 C142.93688428 212.05255989 138.85445827 212.73057491 133.68249512 212.72825623 C132.65845176 212.73187785 132.65845176 212.73187785 131.61372066 212.73557264 C129.34420769 212.74117224 127.07498093 212.73257461 124.80548096 212.72393799 C123.17027206 212.72501193 121.53506353 212.72695226 119.89985657 212.72969055 C115.46728078 212.73452881 111.03480605 212.7268921 106.60224247 212.71673751 C101.94397672 212.70792119 97.2857138 212.70971527 92.62744141 212.71009827 C84.79272791 212.70916201 76.95805315 212.70048989 69.12335205 212.68682861 C60.1105273 212.67116941 51.09774515 212.66582833 42.08490777 212.66656417 C32.44479545 212.66724455 22.80469921 212.6602689 13.16459179 212.65111756 C10.41150792 212.649003 7.65842671 212.64827864 4.9053421 212.64787865 C0.54193044 212.64685966 -3.82144669 212.64063926 -8.18484688 212.63071251 C-9.7700765 212.62783775 -11.3553101 212.62655165 -12.94054222 212.62714005 C-21.44925902 212.62909977 -29.94403672 212.48250554 -38.4453125 212.11256409 C-39.63467317 212.07026068 -39.63467317 212.07026068 -40.84806132 212.02710265 C-48.45309927 211.64943005 -53.4217319 209.45973475 -58.62518311 203.85601807 C-59.14080811 203.07226807 -59.65643311 202.28851807 -60.18768311 201.48101807 C-60.84768311 200.49101807 -61.50768311 199.50101807 -62.18768311 198.48101807 C-63.4213219 186.52121459 -61.52522757 176.07756375 -57.89324951 164.73101807 C-56.7259039 161.00843774 -55.71464693 157.24423817 -54.68768311 153.48101807 C-54.2717721 151.98080836 -53.85510512 150.48080804 -53.43768311 148.98101807 C-53.12830811 147.86726807 -53.12830811 147.86726807 -52.81268311 146.73101807 C-52.18768311 144.48101807 -51.56268311 142.23101807 -50.93768311 139.98101807 C-50.73159424 139.2389209 -50.52550537 138.49682373 -50.31317139 137.73223877 C-49.89524625 136.22806715 -49.47695031 134.72399851 -49.05828857 133.22003174 C-48.03285324 129.53459962 -47.01333106 125.84776885 -46.00799561 122.15679932 C-43.71148629 113.75829854 -41.26287967 105.42354339 -38.68768311 97.10601807 C-36.174466 88.97787982 -33.95814132 80.82827499 -31.96331787 72.55889893 C-30.5332432 66.69058016 -28.84433724 60.95099783 -26.99188232 55.20367432 C-25.20241457 49.62830666 -23.69903884 44.00027851 -22.21893311 38.33648682 C-20.53024591 32.02309944 -18.66454756 25.76489271 -16.78582764 19.50592041 C-16.21155874 17.5618444 -15.66577737 15.60942204 -15.12127686 13.65679932 C-14.79256592 12.5056665 -14.46385498 11.35453369 -14.12518311 10.16851807 C-13.84545654 9.16176025 -13.56572998 8.15500244 -13.27752686 7.11773682 C-10.55120502 0.52179688 -6.65701057 -0.09966866 0 0 Z " fill="#E9E8EB" transform="translate(642.1876831054688,1179.5189819335938)"/>
<path d="M0 0 C1.68314049 0.00424484 1.68314049 0.00424484 3.40028381 0.00857544 C6.96618543 0.01972475 10.53183119 0.04481999 14.09765625 0.0703125 C16.52278282 0.08034907 18.94791334 0.08947374 21.37304688 0.09765625 C27.30216988 0.11964691 33.23114478 0.15307223 39.16015625 0.1953125 C39.29623795 0.82560867 39.43231964 1.45590485 39.57252502 2.1053009 C42.00933024 13.38167539 44.45377869 24.65283895 47.09765625 35.8828125 C49.2412328 45.07066601 51.26812275 54.27796628 53.22265625 63.5078125 C54.93582219 71.59662792 56.7069028 79.66099798 58.66015625 87.6953125 C60.92526309 97.0132006 62.93824167 106.37756381 64.9296875 115.75732422 C67.69472798 128.76187679 70.65362619 141.71831415 73.6640625 154.66796875 C76.14844176 165.3655328 78.6075424 176.06080524 80.82348633 186.81762695 C81.97969918 192.41863035 83.2676611 197.97982675 84.64453125 203.53125 C85.15295386 206.15810017 85.25716972 208.52744198 85.16015625 211.1953125 C79.56175678 212.37806468 74.09069717 212.33979107 68.3984375 212.328125 C66.85702339 212.32956009 66.85702339 212.32956009 65.2844696 212.33102417 C63.12022846 212.3317027 60.95598525 212.3298713 58.79174805 212.32568359 C55.47374942 212.32031427 52.15588515 212.32564813 48.83789062 212.33203125 C46.73307262 212.33137073 44.62825469 212.33009012 42.5234375 212.328125 C41.52967606 212.33014923 40.53591461 212.33217346 39.51203918 212.33425903 C38.59065659 212.33110687 37.66927399 212.32795471 36.7199707 212.32470703 C35.90977982 212.32391144 35.09958893 212.32311584 34.2648468 212.32229614 C32.16015625 212.1953125 32.16015625 212.1953125 29.16015625 211.1953125 C28.2445456 208.57512182 27.53494622 206.08866356 26.8984375 203.3984375 C26.70291794 202.6126532 26.50739838 201.8268689 26.30595398 201.01727295 C25.89406994 199.35090357 25.48846585 197.68297146 25.08862305 196.01367188 C24.47769188 193.46630927 23.84707283 190.92447468 23.21289062 188.3828125 C22.8152282 186.76330965 22.4187068 185.1435261 22.0234375 183.5234375 C21.83598465 182.76492493 21.6485318 182.00641235 21.45539856 181.22491455 C20.55891385 177.45428308 20.07691024 174.05986944 20.16015625 170.1953125 C5.04333109 170.09216191 -10.07292104 170.04640506 -25.19006348 170.06834221 C-32.20993103 170.07720149 -39.2288454 170.06751955 -46.24853516 170.01367188 C-53.02469602 169.961745 -59.79925465 169.96217312 -66.57553101 169.99435806 C-69.15908184 169.99810583 -71.74271965 169.98438446 -74.32608032 169.95281601 C-77.94963354 169.91153724 -81.56790399 169.93269131 -85.19140625 169.96826172 C-86.25668045 169.9416597 -87.32195465 169.91505768 -88.41950989 169.88764954 C-93.04419522 169.99060435 -95.75689268 170.20614746 -99.25154114 173.3981514 C-101.28184249 175.91849279 -103.08178908 178.48054164 -104.83984375 181.1953125 C-106.31482488 183.01122025 -107.79307274 184.82449012 -109.27734375 186.6328125 C-110.025 187.54546875 -110.77265625 188.458125 -111.54296875 189.3984375 C-113.09282887 191.28568213 -114.64496704 193.17105794 -116.19921875 195.0546875 C-120.15336502 199.85804639 -124.02463091 204.67549971 -127.6484375 209.734375 C-128.83984375 211.1953125 -128.83984375 211.1953125 -130.83984375 212.1953125 C-132.68841455 212.28632862 -134.54030754 212.31284396 -136.39111328 212.30883789 C-137.55216583 212.30876236 -138.71321838 212.30868683 -139.90945435 212.30860901 C-141.16781097 212.30344772 -142.4261676 212.29828644 -143.72265625 212.29296875 C-145.00719696 212.2915538 -146.29173767 212.29013885 -147.61520386 212.28868103 C-151.03141217 212.28486161 -154.44757801 212.27503623 -157.86376953 212.26397705 C-161.34927801 212.25375057 -164.83479335 212.24918076 -168.3203125 212.24414062 C-175.1601737 212.23341346 -182.00000669 212.21634392 -188.83984375 212.1953125 C-188.08778662 207.61938193 -186.70446251 205.41549938 -183.65234375 201.8828125 C-179.87622951 197.42283505 -176.30470574 192.89762519 -172.83984375 188.1953125 C-167.99555007 181.67275229 -163.10406549 175.20845394 -158 168.88671875 C-155.44054743 165.69781672 -152.92174384 162.47837253 -150.40234375 159.2578125 C-146.31495706 154.04008156 -142.15871491 148.88568593 -137.94921875 143.765625 C-132.8201576 137.515769 -127.81384556 131.17982214 -122.90234375 124.7578125 C-118.3407623 118.79762475 -113.62245918 112.97991954 -108.83984375 107.1953125 C-100.67525205 97.25520171 -92.63095074 87.22816529 -84.69580078 77.10424805 C-80.71514027 72.0265494 -76.68485263 66.99400137 -72.58984375 62.0078125 C-69.65106971 58.42077948 -66.73100061 54.8208232 -63.83984375 51.1953125 C-60.39218806 46.87388946 -56.89945638 42.59144469 -53.39453125 38.31640625 C-50.91662351 35.29193039 -48.44688691 32.26085675 -45.98071289 29.22680664 C-44.84646658 27.83244938 -43.71023847 26.43970186 -42.57202148 25.04858398 C-40.19341398 22.13450219 -37.85703726 19.21851921 -35.6171875 16.1953125 C-26.19387472 3.50189734 -15.21291351 -0.14548033 0 0 Z M-8.83984375 60.1953125 C-10.45064189 61.81484062 -10.45064189 61.81484062 -11.96484375 64.0078125 C-14.63986424 67.59885891 -17.36895786 71.11246164 -20.21484375 74.5703125 C-20.97925781 75.50101563 -21.74367188 76.43171875 -22.53125 77.390625 C-23.67400391 78.77894531 -23.67400391 78.77894531 -24.83984375 80.1953125 C-27.84911368 83.85449735 -30.84962988 87.52053457 -33.83984375 91.1953125 C-34.3188916 91.78393066 -34.79793945 92.37254883 -35.29150391 92.97900391 C-46.15310992 105.17135875 -46.15310992 105.17135875 -53.83984375 119.1953125 C-42.56855673 119.85902656 -31.31963924 120.2994764 -20.02734375 120.3203125 C-18.56470093 120.32708008 -18.56470093 120.32708008 -17.07250977 120.33398438 C-8.63591911 120.31716865 -0.25204477 119.78238129 8.16015625 119.1953125 C3.13374081 95.49415999 3.13374081 95.49415999 -2.796875 72.0078125 C-3.87069965 68.08252091 -4.86534387 64.14622603 -5.83984375 60.1953125 C-6.82984375 60.1953125 -7.81984375 60.1953125 -8.83984375 60.1953125 Z " fill="#E9E8EB" transform="translate(1397.83984375,1178.8046875)"/>
<path d="M0 0 C1.26770048 3.80310145 0.37494446 6.3876348 -0.625 10.125 C-0.80812744 10.83221191 -0.99125488 11.53942383 -1.17993164 12.26806641 C-2.88704243 18.77127736 -4.79217922 25.21422726 -6.71484375 31.65625 C-9.36839892 40.57251725 -11.85945963 49.54204293 -14.1796875 58.55078125 C-16.40383853 67.18572055 -18.79612797 75.73236561 -21.4375 84.25 C-24.44501444 93.9584391 -27.08022855 103.72981228 -29.6015625 113.57421875 C-31.61095293 121.41745672 -33.79431022 129.21010219 -36 137 C-36.25313965 137.8962207 -36.5062793 138.79244141 -36.76708984 139.71582031 C-37.57163976 142.56119165 -38.37894617 145.40576401 -39.1875 148.25 C-39.43757813 149.13187988 -39.68765625 150.01375977 -39.9453125 150.92236328 C-40.18378906 151.75751465 -40.42226563 152.59266602 -40.66796875 153.453125 C-40.87703857 154.18692383 -41.0861084 154.92072266 -41.30151367 155.67675781 C-42.14183484 158.47175824 -43.07296554 161.23269675 -44 164 C-42.94423893 164.00634791 -42.94423893 164.00634791 -41.86714935 164.01282406 C-24.72326251 164.11623052 -7.57941691 164.22488301 9.56439972 164.33933926 C17.85509366 164.39456406 26.1457919 164.44802808 34.43652344 164.49731445 C41.6646228 164.54028824 48.89269186 164.58659888 56.12074423 164.63687855 C59.94619366 164.66337356 63.77163749 164.6882233 67.59712219 164.70907402 C71.20203081 164.7287753 74.80688231 164.75295767 78.41173935 164.78049088 C80.35679938 164.79420513 82.30189062 164.80324525 84.24697876 164.81211853 C90.25407206 164.86228473 96.06051773 165.0818557 102 166 C101.06359691 178.39698254 98.97448167 190.20240912 94.6875 201.875 C94.41599121 202.65423828 94.14448242 203.43347656 93.86474609 204.23632812 C93.44249756 205.32204102 93.44249756 205.32204102 93.01171875 206.4296875 C92.76897217 207.07147949 92.52622559 207.71327148 92.27612305 208.37451172 C90.2961602 210.89653059 88.05864094 211.17215678 85 212 C82.54715167 212.18161413 80.08571401 212.26101891 77.62615967 212.26742554 C76.54487018 212.27422221 76.54487018 212.27422221 75.44173646 212.28115618 C73.03758899 212.29376876 70.63366898 212.29218186 68.22949219 212.29052734 C66.50100922 212.29651463 64.77252892 212.30332063 63.04405212 212.31088257 C58.35585463 212.32853102 53.66773018 212.33323751 48.97950268 212.33451414 C46.04762961 212.33593713 43.11577503 212.34020958 40.18390656 212.34550858 C29.94729944 212.36400616 19.71074437 212.37217967 9.47412109 212.37060547 C-0.05415635 212.36940466 -9.58220705 212.3904958 -19.11042714 212.4220928 C-27.30173022 212.44828423 -35.49295939 212.45897154 -43.684304 212.45769465 C-48.57175467 212.45718579 -53.45900385 212.46282663 -58.34641266 212.48405075 C-62.94627724 212.50348107 -67.54574916 212.50352495 -72.14562798 212.48901749 C-73.82817346 212.48693411 -75.51074384 212.49160203 -77.19324684 212.5037384 C-87.5209359 212.57337419 -96.63359302 212.36020567 -105 205.5625 C-110.03719015 199.10860012 -109.80664705 191.86639572 -109 184 C-108.14978933 178.858553 -106.80538462 173.83603982 -105.42944336 168.81420898 C-104.81521899 166.57242372 -104.22483023 164.32544118 -103.63867188 162.07617188 C-101.42168822 153.67326479 -98.87334594 145.43765332 -96.0690918 137.21362305 C-94.84581887 133.53654116 -93.87414015 129.898932 -93 126.125 C-91.1623789 118.44495251 -88.95151997 110.904248 -86.69287109 103.33935547 C-83.29270268 91.85929423 -80.05325019 80.33471948 -77 68.7578125 C-75.83863261 64.39361161 -74.64384236 60.03944889 -73.4375 55.6875 C-73.23954834 54.97053955 -73.04159668 54.2535791 -72.83764648 53.51489258 C-71.53946436 48.84454443 -70.16582634 44.20043633 -68.76538086 39.55981445 C-67.75138928 36.16852204 -66.77564259 32.76700349 -65.80688477 29.36254883 C-65.29746844 27.57466293 -64.78340835 25.78809544 -64.26538086 24.00268555 C-63.07519137 19.88425786 -61.92077018 15.77822456 -60.96875 11.59765625 C-60.6696875 10.34855469 -60.370625 9.09945313 -60.0625 7.8125 C-59.82660156 6.72582031 -59.59070313 5.63914062 -59.34765625 4.51953125 C-58 2 -58 2 -54.7109375 0.67578125 C-36.76684225 -2.59193294 -18.10412903 -0.89473614 0 0 Z " fill="#E9E8EB" transform="translate(460,1179)"/>
</svg>
