<?xml version="1.0" encoding="UTF-8"?>
<!-- Created with Inkscape (http://www.inkscape.org/) -->
<svg width="799.99" height="277.96" version="1.1" viewBox="0 0 799.99 277.96" xmlns="http://www.w3.org/2000/svg" xmlns:cc="http://creativecommons.org/ns#" xmlns:dc="http://purl.org/dc/elements/1.1/" xmlns:rdf="http://www.w3.org/1999/02/22-rdf-syntax-ns#">
 <metadata>
  <rdf:RDF>
   <cc:Work rdf:about="">
    <dc:format>image/svg+xml</dc:format>
    <dc:type rdf:resource="http://purl.org/dc/dcmitype/StillImage"/>
    <dc:title/>
   </cc:Work>
  </rdf:RDF>
 </metadata>
 <g transform="translate(-91.071 -113.74)">
  <path fill="#ffffff" d="m91.071 391.27c0-0.23842 6.439-11.151 14.309-24.25l14.309-23.817 680.61-0.50291-1.4459 2.2515c-0.79523 1.2383-7.4346 12.264-14.754 24.501l-13.308 22.25h-339.86c-186.92 0-339.86-0.19506-339.86-0.43347zm95.717-12.236c4.4583-2.1156 7.2756-6.6964 7.2756-11.83 0-14.339-19.802-18.787-26.063-5.8547-5.7867 11.954 6.4973 23.517 18.787 17.685zm-10.36-3.3216c-8.3167-3.3562-6.3519-16.202 2.6983-17.641 2.8898-0.45964 4.1533-0.0623 6.75 2.1226 8.0192 6.7478 0.28721 19.448-9.4483 15.519zm175.33 3.925c13.039-4.9404 10.881-24.101-2.889-25.653-8.8658-0.99931-15.788 4.7969-15.788 13.22 0 9.6729 9.4173 15.942 18.677 12.433zm-10.49-5.423c-2.6657-2.2431-3.1894-3.3771-3.1629-6.8492 0.05-6.5447 4.3742-10.37 10.436-9.2331 4.6966 0.88109 7.032 3.9196 7.032 9.1492 0 5.2615-2.4903 8.2224-7.6151 9.054-2.8288 0.45906-4.1049 0.0545-6.6902-2.1209zm116.72 3.7483c3.0834-2.2504 6.5086-8.7166 5.714-10.787-0.42294-1.1022-2.3291-1.4714-7.596-1.4714-6.3647 0-7.0314 0.18963-7.0314 2 0 1.7037 0.66667 2 4.5 2 5.0585 0 5.8403 1.4771 2.4201 4.5723-3.2992 2.9857-9.5712 2.5347-12.526-0.90078-6.7441-7.8404 2.1458-19.064 11.336-14.311 2.2384 1.1576 3.2565 1.2535 4.1215 0.38851 1.8526-1.8526 1.3624-2.7616-2.3191-4.2998-7.6692-3.2044-15.313-0.42861-18.885 6.8577-5.8141 11.861 9.431 23.86 20.267 15.952zm206.62 1.2923c3.3378-1.3946 4.5221-3.7815 2.4972-5.0329-0.53385-0.32994-2.3115 0.0935-3.9503 0.94098-4.2696 2.2079-6.6231 1.92-10.163-1.2431-2.4874-2.2225-3.1158-3.5769-3.1158-6.716s0.62834-4.4935 3.1158-6.716c3.5001-3.1274 6.2533-3.4658 10.438-1.2831 3.059 1.5954 4.6459 1.2422 4.6459-1.0342 0-2.0018-5.2423-4.4667-9.5-4.4667-7.605 0-13.493 5.8908-13.493 13.5 0 10.103 9.7638 16.129 19.525 12.051zm-439.33-4.801 0.30226-5.25 5.25-0.30226c3.7766-0.21743 5.25-0.70857 5.25-1.75 0-0.98577-1.1966-1.4846-3.75-1.5631-6.6459-0.20443-6.7372-0.25139-7.0634-3.6346l-0.31336-3.25h5.6329c5.2696 0 5.6123-0.14514 5.3134-2.25-0.29663-2.0886-0.82164-2.25-7.3196-2.25h-7l-0.27988 12.75c-0.26625 12.13-0.18364 12.75 1.6977 12.75 1.6806 0 2.023-0.78837 2.2799-5.25zm85.616 3.5c-0.25678-1.3507-1.5209-1.8187-5.54-2.0511l-5.2073-0.30111-0.28332-10.699c-0.26316-9.9378-0.42559-10.699-2.2833-10.699-1.8808 0-2.0167 0.75996-2.2799 12.75l-0.27987 12.75h8.1032c7.1774 0 8.0652-0.19994 7.7705-1.75zm81.186-7.3423v-9.0923l6.1539 9.0923c5.362 7.9222 6.524 9.0923 9.0299 9.0923h2.876l-0.27987-12.75c-0.2632-11.99-0.39909-12.75-2.2799-12.75-1.8128 0-2.0468 0.83333-2.5 8.9037l-0.5 8.9037-5.9312-8.6537c-3.2622-4.7595-6.2997-8.7099-6.75-8.7787-4.4284-0.67605-4.3049-1.0084-4.5987 12.375l-0.27987 12.75h2.5299c2.521 0 2.5299-0.0319 2.5299-9.0923zm138 7.0923c2.4195-2.4195 2.605-7.2522 0.36429-9.4929-1.2208-1.2208-1.3476-1.9238-0.5-2.7714 1.8352-1.8352 1.343-7.2382-0.8393-9.2131-1.3734-1.2429-3.7341-1.8232-7.75-1.905l-5.775-0.11763-0.42176 25.5h6.4609c5.1276 0 6.8736-0.41274 8.4609-2zm-10-5c0-3.5686 0.2619-4 2.4286-4 2.3747 0 5.5714 2.2951 5.5714 4s-3.1967 4-5.5714 4c-2.1667 0-2.4286-0.43137-2.4286-4zm0-11c0-4.2714 1.2535-5.005 5.0657-2.9648 3.804 2.0358 1.327 6.9648-3.5 6.9648-1.16 0-1.5657-1.0365-1.5657-4zm53.814 16.25c-0.25713-1.3525-1.523-1.8186-5.5733-2.0523l-5.2406-0.30226v-6.8955h5.5733c4.6612 0 5.5204-0.27234 5.25-1.6641-0.24725-1.2726-1.4998-1.6843-5.3233-1.75-4.8715-0.0837-5.008-0.16799-5.3093-3.2815l-0.3093-3.1957 5.3093-0.30431c4.5412-0.26029 5.3093-0.59366 5.3093-2.3043 0-1.8222-0.66667-2-7.5-2h-7.5l-0.27988 12.75-0.27987 12.75h8.1032c7.1774 0 8.0652-0.19994 7.7705-1.75zm29.485-1.75c1.3756-2.8846 2.2122-3.5 4.7585-3.5 2.4028 0 3.0154-0.38898 2.756-1.75-0.18345-0.9625-1.3051-1.889-2.4925-2.059-2.1063-0.30143-2.1221-0.4173-0.64578-4.75 0.83227-2.4426 1.6577-4.441 1.8342-4.441s2.0391 4.5 4.139 10c3.3546 8.7862 4.1062 10 6.192 10 1.8376 0 2.2296-0.39541 1.7353-1.75-0.35129-0.9625-2.5369-6.5805-4.857-12.484-5.9064-15.03-8.0246-15.394-13.179-2.2656-1.5116 3.85-3.5947 9.1375-4.6292 11.75l-1.8809 4.75h2.3002c1.6442 0 2.7762-0.99814 3.9692-3.5zm94.899-1.7401 0.30226-5.2401 11-0.02 0.30226 5.25c0.27527 4.7813 0.51519 5.25 2.6871 5.25h2.3849l-0.18714-12.75c-0.17644-12.021-0.3015-12.75-2.1871-12.75-1.7076 0-2.0442 0.76742-2.3023 5.25l-0.30226 5.25h-11.791l-0.30226-5.25c-0.25808-4.4826-0.59461-5.25-2.3023-5.25-1.8808 0-2.0167 0.75996-2.2799 12.75l-0.27987 12.75h2.4776c2.2832 0 2.5013-0.41128 2.7799-5.2401zm-321.54-55.51c-0.25293-0.4125 7.258-13.575 16.691-29.25l17.151-28.5 60.388-0.25786c43.771-0.18691 60.763 0.0532 61.75 0.87244 2.4818 2.0597 1.4222 6.1516-4.1339 15.964-5.4357 9.6003-10.42 15.178-15.18 16.988-1.3497 0.51315-16.839 0.93301-34.421 0.93301-25.169 0-32.681-0.29833-35.324-1.4028-4.0972-1.7119-11.771-8.4763-11.011-9.706 0.30394-0.49179 15.052-0.89112 32.91-0.89112 17.798 0 33.09-0.2805 33.984-0.62333 1.5869-0.60896 5.5392-7.2709 5.5392-9.3368 0-0.70214-12.422-1.0309-38.25-1.0124l-38.25 0.0274-11 18.573c-12.448 21.018-16.555 25.575-24.611 27.302-5.742 1.2314-15.553 1.4246-16.231 0.31964zm143.01 0.0232c-0.26816-0.4339 4.112-8.4354 9.7336-17.781l10.221-16.992 95.813-1 2.265-4c1.2458-2.2 2.2724-4.5625 2.2815-5.25 0.0129-0.97871-8.3682-1.25-38.618-1.25-26.719 0-39.845-0.36269-42.559-1.176-3.8349-1.149-12.807-8.0908-12.807-9.909 0-0.54326 24.57-0.91501 60.477-0.91501h60.477l1.5457 2.3591c1.8815 2.8715 1.5744 3.8093-4.7953 14.641-8.3045 14.122-13.175 18-22.605 18-6.0062 0-5.9296-0.28597-3.5563 13.282 0.84487 4.83 1.2669 9.2175 0.93778 9.75-0.33599 0.54365-6.2833 0.96815-13.564 0.96815-15.189 0-13.895 1.1597-15.903-14.25l-1.2707-9.75-50.243 0.069-14 23.431-11.672 0.28106c-6.4195 0.15458-11.891-0.074-12.159-0.50785zm135.08 0.11512c-0.70176-1.1528 26.862-47.442 30.62-51.422 4.7114-4.9894 8.2769-6.3034 18.382-6.7742 5.0875-0.23702 9.25-0.18145 9.25 0.1235 0 1.1508-29.276 49.288-31.34 51.531-3.8306 4.1628-9.2721 6.2227-18.08 6.8442-4.56 0.32181-8.5343 0.18536-8.8318-0.30323zm35.254-0.0356c1e-3 -0.46902 13.955-7.1436 31.008-14.832l31.006-13.979-29.517-29.675 15.5 0.31719c14.732 0.30147 15.723 0.44979 20 2.9919 2.475 1.4711 7.1859 5.4086 10.469 8.75 3.2828 3.3414 6.4389 6.0753 7.0135 6.0753 0.57466 0 9.5888-3.9127 20.031-8.6949l18.986-8.6949 17.5-0.37935c10.3-0.22328 17.089-0.0124 16.5 0.51255-0.55 0.49055-14.838 7.1343-31.75 14.764-16.912 7.6296-30.75 14.186-30.75 14.57 0 0.38382 6.3315 6.8256 14.07 14.315 10.665 10.322 13.676 13.768 12.444 14.241-0.89437 0.3432-7.5634 0.41602-14.82 0.16183-15.796-0.55331-18.087-1.4823-27.665-11.218-3.5591-3.6175-7.1116-6.5772-7.8944-6.5772s-10.021 3.9272-20.529 8.7271l-19.106 8.7271-16.25 0.37564c-8.9375 0.20661-16.249-8e-3 -16.247-0.47713zm-554.93-1.1027c0.0413-0.4125 2.435-4.575 5.3194-9.25l5.2444-8.5 9.1806-0.28753c5.0493-0.15814 9.1806 0.0373 9.1806 0.4344 0 0.39705-2.3485 4.6889-5.219 9.5375l-5.219 8.8156h-9.281c-5.1046 0-9.2473-0.3375-9.206-0.75zm43.424-8.2489c3.0254-4.9893 5.5006-9.2806 5.5006-9.5362s-4.2405-0.46484-9.4233-0.46484h-9.4233l5.4233-9.0389c2.9828-4.9714 5.4233-9.2464 5.4233-9.5s-4.05-0.46112-9-0.46112-9-0.25965-9-0.57699c0-0.31735 2.5304-4.8174 5.6232-10l5.6232-9.423h9.4358c5.1897 0 9.255 0.3375 9.034 0.75s-2.7226 4.6375-5.559 9.3889c-2.8364 4.7514-5.1572 8.9139-5.1572 9.25 0 0.33611 4.05 0.61112 9 0.61112s9 0.27501 9 0.61112c0 0.33612-2.25 4.3361-5 8.8889s-5 8.5528-5 8.8889c0 0.33611 4.05 0.61112 9 0.61112s8.9662 0.3375 8.925 0.75c-0.0413 0.4125-2.4351 4.575-5.3197 9.25l-5.2446 8.5-19.362 0.57244zm34.632 6.7489c0.66091-1.2375 2.9268-5.0704 5.0352-8.5176 2.1084-3.4472 3.8335-6.6928 3.8335-7.2125 0-0.51967-4.0118-1.0742-8.9152-1.2324l-8.9152-0.28753 10.826-18-8.998-0.28753c-4.9696-0.1588-8.998-0.72321-8.998-1.2607 0-0.53524 2.5022-5.0184 5.5606-9.9625l5.5606-8.9893h8.9394c4.9167 0 8.9386 0.3375 8.9375 0.75-1e-3 0.4125-2.251 4.4896-5 9.0602-2.749 4.5706-4.9981 8.7162-4.9981 9.2125s4.0491 1.0316 8.998 1.1898l8.998 0.28753-10.829 18 18.824 1-11.099 18.5h-18.962zm38.149 1c0.27171-0.6875 2.5699-4.6043 5.107-8.704 2.5371-4.0997 4.613-7.8122 4.613-8.25 0-0.43779-4.05-0.79598-9-0.79598s-9-0.20918-9-0.46484 2.4654-4.5307 5.4787-9.5l5.4787-9.0352h-9.562c-5.2591 0-9.412-0.37501-9.2287-0.83335 0.18333-0.45834 2.7718-4.9583 5.7521-10l5.4187-9.1666h9.3313c5.1322 0 9.3313 0.27501 9.3313 0.61112 0 0.33612-2.25 4.3361-5 8.8889s-5 8.7778-5 9.3889c0 0.73233 3.0609 1.1111 8.9787 1.1111h8.9787l-5.4787 9.0352c-3.0133 4.9693-5.4787 9.2443-5.4787 9.5s4.05 0.46484 9 0.46484 9 0.30798 9 0.68439c0 0.37642-2.3485 4.6514-5.219 9.5l-5.219 8.8156h-9.388c-7.1072 0-9.268-0.30368-8.894-1.25zm39.798-2.4625c1.2583-2.0831 3.7805-6.1587 5.6047-9.0569 1.8243-2.8982 3.3168-5.4857 3.3168-5.75s-4.2654-0.48058-9.4787-0.48058h-9.4787l5.4787-9.0352c3.0133-4.9693 5.4787-9.2443 5.4787-9.5s-4.05-0.46484-9-0.46484-9-0.30749-9-0.68332c0-0.37582 2.5366-4.8758 5.6368-10l5.6368-9.3167h9.4222c5.1822 0 9.2414 0.3375 9.0204 0.75s-2.7226 4.6375-5.559 9.3889c-2.8364 4.7514-5.1572 8.9139-5.1572 9.25 0 0.33611 4.05 0.61112 9 0.61112s9 0.19791 9 0.43979c0 0.24189-2.2491 4.1794-4.9981 8.75-2.749 4.5706-4.999 8.6477-5 9.0602-1e-3 0.4125 4.0481 0.75 8.9981 0.75s8.9652 0.3375 8.9227 0.75c-0.0425 0.4125-2.4086 4.575-5.2579 9.25l-5.1806 8.5-19.694 0.57495zm37.205 2.9625c0.221-0.4125 2.7528-4.6875 5.6261-9.5l5.2243-8.75h8.4329c4.6381 0 8.4329 0.41569 8.4329 0.92375 0 0.50805-2.3065 4.783-5.1256 9.5l-5.1256 8.5762h-8.9334c-4.9134 0-8.7526-0.3375-8.5316-0.75zm-7.4095-20c0.51958-0.9625 2.9885-5.125 5.4864-9.25l4.5418-7.5-8.9513-0.28753c-6.2019-0.19921-8.9454-0.65993-8.9322-1.5 0.0105-0.66686 2.3858-5.0375 5.2784-9.7125l5.2592-8.5 9.2216-0.28753c5.0719-0.15814 9.2216 0.0679 9.2216 0.5023 0 0.43441-2.25 4.6128-5 9.2852s-5 8.817-5 9.2102c0 0.39313 4.0208 0.84416 8.9352 1.0023l8.9352 0.28753-11.075 18.5h-9.433c-8.677 0-9.3572-0.14025-8.4883-1.75zm30.292-18.108c0.18333-0.47177 2.8083-4.9642 5.8333-9.9833l5.5-9.1255 8.75-0.0167c4.8125-9e-3 8.75 0.1711 8.75 0.40065 0 0.80797-9.2298 16.104-10.76 17.833-1.2447 1.4057-3.2079 1.75-9.9779 1.75-4.6356 0-8.2784-0.38599-8.095-0.85776zm-157.53-44.215c-3.0802-2.4229-3.4982-6.9254-1.1619-12.517 2.7978-6.696 17.848-30.732 21.58-34.463 2.059-2.059 5.9269-5.0269 8.5954-6.5954l4.8518-2.8518 54.25-0.28285c31.602-0.16477 54.25 0.0921 54.25 0.61514 0 2.0962-4.3733 6.1748-9.2 8.5801l-5.1927 2.5876h-39.336c-43.246 0-43.182-8e-3 -48.922 6.1308-4.3709 4.6747-13.35 20.734-13.35 23.877 0 1.4256 0.54 3.132 1.2 3.792 1.5219 1.5219 57.961 1.7194 60.776 0.21265 2.2235-1.19 6.0236-7.108 6.0236-9.3807 0-1.4682-2.6587-1.632-26.5-1.632-14.575 0-26.5-0.34265-26.5-0.76144s1.4687-3.0063 3.2639-5.75l3.2639-4.9886 36.152-0.26239c39.184-0.28439 39.32-0.26667 39.32 5.1258 0 2.8453-9.2295 19.098-13.35 23.509-6.7462 7.2212-5.5802 7.0814-59.265 7.1059-47.18 0.0215-48.166-0.0183-50.75-2.0506zm122.42 1.3534c0.0323-0.42943 4.6622-8.4308 10.289-17.781l10.23-17 95.86-1 2.265-4c1.2458-2.2 2.2724-4.5625 2.2815-5.25 0.0129-0.97912-8.517-1.25-39.361-1.25-43.671 0-43.232 0.0575-50.644-6.6391-2.1877-1.9765-3.9777-3.9948-3.9777-4.485 0-0.51489 25.643-0.78252 60.712-0.63364l60.712 0.25775 1.4794 2.636c1.4178 2.5262 1.2368 3.047-4.3456 12.5-9.3574 15.845-13.538 19.364-23.008 19.364-6.4645 0-6.2338-0.70989-4.0633 12.5 0.8133 4.95 1.4866 9.5625 1.4962 10.25 0.0131 0.94105-3.4276 1.25-13.921 1.25h-13.939l-0.68221-4.75c-0.37521-2.6125-1.1903-7.9-1.8113-11.75l-1.1291-7h-49.941l-14.114 23-12.223 0.28078c-6.7224 0.15443-12.196-0.0706-12.164-0.5zm128.99-0.0308c0.0814-1.2586 85.182-55.557 89.303-56.98 2.594-0.89564 7.812-1.2383 15.984-1.0498l12.133 0.27997 10.732 28c5.9028 15.4 10.748 28.575 10.766 29.277 0.0263 0.99096-3.1564 1.2152-14.191 1l-14.225-0.27746-8.0247-20.895c-6.5869-17.151-8.4412-21.048-10.349-21.745-2.9083-1.0636-1.8657-1.6375-29.172 16.057l-22.504 14.583 11 0.51844c6.2655 0.2953 12.007 1.084 13.338 1.8325 3.1486 1.7693 10.162 8.1638 10.162 9.2654 0 0.49581-16.459 0.88364-37.5 0.88364-20.625 0-37.478-0.3375-37.451-0.75zm147.99 0.12232c0.0192-0.47978 7.7817-13.697 17.25-29.372l17.215-28.5 10.5-0.29844c17.358-0.49336 16.153-1.195 42.115 24.527l22.615 22.406 11.613-19.476c12.101-20.294 15.626-24.434 22.58-26.517 3.9948-1.1969 18.078-1.5966 18.078-0.51314 0 0.34556-6.5062 11.544-14.458 24.886-19.016 31.906-20.898 33.485-39.888 33.485h-8.4603l-22.768-23.5c-12.522-12.925-23.035-23.5-23.362-23.5s-5.669 8.4842-11.872 18.854c-15.153 25.333-17.308 27.19-32.442 27.951-4.8125 0.24199-8.7343 0.0474-8.7151-0.43233zm142.97-0.10988c0-0.43931 4.6125-8.4406 10.25-17.781l10.25-16.982 7.7766-0.11149c4.2771-0.0613 7.9676 0.19763 8.2011 0.57543 0.2335 0.3778-2.4785 5.52-6.0266 11.427-3.5481 5.9071-6.4511 10.95-6.4511 11.207s18.187 0.33979 40.415 0.1844l40.415-0.28253 4.3348-3.0434c3.1665-2.2231 5.9979-5.8616 10.506-13.5 6.1574-10.434 7.3982-14.488 5.1292-16.757-0.89313-0.89313-11.57-1.2056-41.75-1.222-38.613-0.0209-40.765-0.11915-45.05-2.0566-4.3543-1.9687-11-7.4772-11-9.1176 0-0.44211 27.614-0.80383 61.365-0.80383 60.567 0 61.399 0.0269 64 2.0726 3.3185 2.6104 3.498 7.3005 0.50566 13.217-5.4017 10.681-16.624 28.601-20.518 32.765-2.3673 2.5309-6.6776 5.9165-9.5783 7.5236l-5.2741 2.922-58.75 0.28059c-32.312 0.15433-58.75-0.0788-58.75-0.51815zm-475.26-79.635c-4.9641-1.8468-6.4865-3.2095-8.9245-7.9885-4.3576-8.5415-3.2719-22.204 2.3017-28.966 7.1903-8.7231 28.102-8.882 35.662-0.27101 8.2702 9.4193 6.1059 30.275-3.7369 36.009-4.4602 2.5985-19.627 3.3275-25.303 1.2161zm19.084-1.2775c1.8986-0.50841 2.2088-1.0826 1.6936-3.1352-1.2918-5.1468-8.0444-17.715-9.5178-17.715-0.88357 0-3.0338 3.1872-5.2324 7.7556-4.9321 10.249-5.4519 12.432-3.1035 13.038 2.7949 0.7214 13.536 0.75872 16.16 0.0562zm-18.465-10.858c0.46786-6.0866 1.6461-11.138 4.1404-17.75 1.9175-5.0832 3.4896-9.5797 3.4936-9.9922 0.0154-1.6121-5.8739-0.63224-9.095 1.5132-5.1069 3.4015-7.1503 8.4581-7.1003 17.57 0.0435 7.9147 1.1812 12.381 3.927 15.415 3.0598 3.3811 3.9555 2.0753 4.6343-6.7559zm26.51 5.947c4.4802-5.6957 5.0508-20.753 1.0366-27.354-2.3145-3.8059-7.4669-7.0766-11.156-7.0816-1.5125-2e-3 -2.75 0.27149-2.75 0.60789s1.5698 4.8028 3.4884 9.9255c2.4956 6.6629 3.676 11.754 4.1475 17.888 0.71759 9.3355 1.7169 10.484 5.2332 6.0138zm-14.869-27.439c0-4.6667-0.41667-8-1-8s-1 3.3333-1 8 0.41667 8 1 8 1-3.3333 1-8zm27 31.2c0-0.43989 4.9013-8.8774 10.892-18.75l10.892-17.95h11.61l10.802 18c5.9409 9.9 10.802 18.338 10.803 18.75 8.8e-4 0.4125-2.3609 0.73788-5.2484 0.72306l-5.25-0.0269-8.4419-14.044c-9.5142-15.828-8.4386-15.461-14.366-4.9031l-2.8077 5.0013h7.3972c7.9272 0 7.2898-0.3787 10.519 6.25 0.20098 0.4125-4.7346 0.75557-10.968 0.76238l-11.333 0.0124-2.2592 3.4876c-2.0831 3.2158-2.6481 3.4876-7.25 3.4876-2.745 0-4.9908-0.3599-4.9908-0.79978zm62.415-0.62163c-6.1413-2.6739-7.4152-5.6396-7.4152-17.263 0-18.206 1.4902-19.315 25.95-19.315h17.05v8h-15.378c-18.516 0-18.122-0.24424-18.122 11.234 0 10.808-0.0737 10.766 18.691 10.766h14.809v8l-16.25-0.0391c-11.326-0.0273-17.185-0.44609-19.335-1.3823zm48.678 0.15405c-6.6031-2.3894-7.5534-5.007-7.9157-21.802l-0.32204-14.931h10.144v13.429c0 16.956-0.30087 16.571 12.949 16.571 6.887 0 10.131-0.39173 10.898-1.316 0.63547-0.76569 1.2093-6.9332 1.3724-14.75l0.28031-13.434 9.5-0.60958-0.0147 14.305c-0.0159 15.462-0.57335 17.69-5.3046 21.208-2.4666 1.8342-4.4056 2.1255-15.5 2.329-8.112 0.14882-13.908-0.21147-16.087-1zm42.906-17.678v-19.055h19.423c19.389 0 19.429 5e-3 22.471 2.5643 5.2398 4.409 5.9347 12.653 1.4813 17.574-0.9269 1.0242-1.2378 1.8622-0.6908 1.8622 1.761 0 3.3155 4.9452 3.3155 10.547v5.453h-9v-4.2775c0-2.3526-0.70052-5.2776-1.5567-6.5-1.4316-2.0439-2.3577-2.2225-11.525-2.2225-9.7799 0-9.9865-0.0484-10.943-2.5651-2.3767-6.2512-2.0819-6.4349 10.325-6.4349 11.631 0 13.7-0.62905 13.7-4.1648 0-2.9863-3.4103-3.8352-15.408-3.8352h-11.539l-0.27674 14.75-0.27673 14.75-9.5 0.60958zm49 18.164c0-0.42948 4.8961-8.867 10.88-18.75l10.88-17.969h11.533l10.853 17.969c5.9691 9.8828 10.853 18.32 10.853 18.75s-2.2284 0.78131-4.952 0.78131c-5.6751 0-5.6982-0.0256-16.564-18.341-6.6013-11.127-5.9368-11.089-11.791-0.66068l-2.8077 5.0013h7.3972c7.9272 0 7.2898-0.3787 10.519 6.25 0.20098 0.4125-4.7346 0.75557-10.968 0.76238l-11.333 0.0124-2.2592 3.4876c-2.0831 3.2158-2.6481 3.4876-7.25 3.4876-2.745 0-4.9908-0.35139-4.9908-0.78086z"/>
  <g fill="#ffffff" stroke="#ffffff" stroke-width="1.1161">
   <path fill="#ffffff" d="m162.15 280.01-3.5256-0.44115 10.696-18.229h8.7801c4.8291 0 8.7801 0.16853 8.7801 0.37451s-2.397 4.5586-5.3268 9.6726l-5.3268 9.2981-5.2759-0.1169c-2.9017-0.0643-6.8624-0.3154-8.8015-0.55803z"/>
   <path fill="#ffffff" d="m179.1 309.5c3.0107-4.9772 5.2969-9.2281 5.0804-9.4464-0.21652-0.21832-4.3586-0.56436-9.2047-0.76897l-8.8111-0.37203 10.678-17.857 8.5315 0.22633c4.6923 0.12448 8.6458 0.34066 8.7855 0.48039 0.13973 0.13974-1.9384 4.0389-4.6182 8.6648-3.5388 6.1089-4.6205 8.5706-3.9526 8.9948 0.50577 0.32125 4.3318 0.58921 8.5022 0.59548 4.1704 6e-3 7.7416 0.26864 7.9359 0.58306 0.35735 0.57821-7.8538 14.715-9.4473 16.265-0.48896 0.4756-4.7825 1.0224-9.9082 1.2619l-9.0453 0.42262z"/>
   <path fill="#ffffff" d="m138.02 317.98-2.3525-0.46009 9.9133-16.571 3.7202-0.45052c6.3825-0.77294 13.765-0.55396 13.765 0.40828 0 0.47946-2.2026 4.6647-4.8946 9.3006l-4.8946 8.4288-6.4522-0.0979c-3.5487-0.0539-7.5108-0.30499-8.8046-0.55804z"/>
   <path fill="#ffffff" d="m212.93 318.08c8e-3 -0.30692 2.1839-4.2271 4.8363-8.7114 2.6524-4.4844 4.8225-8.3767 4.8225-8.6496 0-0.83363-4.3485-1.4262-10.466-1.4262-3.1985 0-6.0057-0.30779-6.2382-0.68396-0.23249-0.37618 1.7562-4.3103 4.4192-8.7426 2.6631-4.4322 4.8425-8.3097 4.8431-8.6166s-2.7612-0.57733-6.1373-0.60091c-3.3761-0.0236-7.4136-0.2747-8.9722-0.55804l-2.8338-0.51516 10.876-18.216 8.8046-6e-3c4.8425-4e-3 8.693 0.26167 8.5566 0.58937s-2.3843 4.3688-4.9954 8.9803c-3.2667 5.7694-4.5076 8.6243-3.9786 9.1533 0.42283 0.42283 4.317 0.94986 8.6536 1.1712s7.8848 0.55721 7.8848 0.7464-2.2106 4.013-4.9126 8.4974c-2.7019 4.4844-4.684 8.382-4.4047 8.6613s4.1373 0.67635 8.5732 0.88231 8.2288 0.54188 8.4286 0.74649-1.9937 4.3062-4.8744 9.1146l-5.2376 8.7426h-8.831c-4.857 0-8.8248-0.25111-8.8172-0.55803z"/>
   <path fill="#ffffff" d="m253.68 317.99-2.0204-0.47001 4.8106-8.1534c4.345-7.3641 5.2048-9.118 4.6246-9.4326-0.1023-0.0555-4.1118-0.3066-8.9101-0.55804l-8.7241-0.45715 10.903-18.012-8.9425-0.48083c-4.9184-0.26445-9.0686-0.60698-9.2228-0.76116s2.0334-4.2556 4.8612-9.1142l5.1416-8.8338 9.028-0.20891c4.9654-0.1149 9.028 0.0215 9.028 0.30304 0 0.28158-1.9751 3.8912-4.3891 8.0214-6.4206 10.985-6.6194 10.412 3.7664 10.858l8.6779 0.37202-5.1424 8.5566c-2.8284 4.7061-5.143 8.9751-5.1437 9.4866-9.1e-4 0.69021 2.2055 0.93006 8.5553 0.93006 6.044 0 8.5566 0.25599 8.5566 0.87175 0 0.47946-2.2026 4.6647-4.8946 9.3006l-4.8946 8.4288-6.8242-0.088c-3.7533-0.0484-7.7334-0.29953-8.8446-0.55803z"/>
   <path fill="#ffffff" d="m277.84 280.14c-1.7392-0.15665-3.1622-0.41589-3.1622-0.5761 0-0.1602 2.4021-4.3262 5.3379-9.2578l5.3379-8.9665h8.861c5.124 0 8.7564 0.29086 8.613 0.68968-0.13641 0.37932-2.5918 4.7244-5.4564 9.6557l-5.2083 8.966-5.5804-0.11305c-3.0692-0.0622-7.0033-0.24121-8.7426-0.39786z"/>
   <path fill="#ffffff" d="m290.25 317.24c0.47673-0.89078 2.8842-4.8219 5.35-8.7358s4.3018-7.589 4.08-8.167c-0.31502-0.82091-2.28-1.0508-8.9831-1.0508-4.719 0-8.5799-0.10703-8.5799-0.23785 0-0.40531 9.6016-16.448 10.434-17.433 0.83951-0.99382 6.2378-1.1099 13.542-0.29127l4.2583 0.47728-4.9231 8.4466c-3.9186 6.7232-4.7115 8.5806-3.8862 9.1032 0.57027 0.36111 4.449 0.66168 8.6194 0.66795 4.1704 6e-3 7.7244 0.26251 7.8978 0.56943 0.17337 0.30692-1.8995 4.3194-4.6064 8.9166l-4.9216 8.3585-5.5804 0.0185c-3.0692 0.0102-7.3774 0.23426-9.5738 0.49799-3.9281 0.47167-3.9792 0.45302-3.1266-1.1401z"/>
   <path fill="#ffffff" d="m321.55 298.49c0-0.46555 2.1763-4.4586 4.8363-8.8734s4.8363-8.1831 4.8363-8.374-3.8626-0.51751-8.5835-0.72584-8.7866-0.5819-9.0349-0.83014 1.9559-4.4772 4.8981-9.3976l5.3494-8.9463h17.922l-3.1943 5.7664c-6.1972 11.187-6.9614 12.734-6.5122 13.184 0.24948 0.24948 4.1764 0.69161 8.7264 0.98251l8.2728 0.52891-10.062 17.113-8.7274 0.20963c-6.1491 0.14769-8.7274-0.0405-8.7274-0.63685z"/>
   <path fill="#ffffff" d="m331.04 318-2.0467-0.48332 10.498-17.485 7.2146 0.0114c3.968 6e-3 7.6214 0.26991 8.1186 0.58587 0.64598 0.41049-0.52634 3.0092-4.1066 9.1032l-5.0107 8.5287-6.31 0.11129c-3.4705 0.0612-7.231-0.1062-8.3567-0.37202z"/>
   <path fill="#ffffff" d="m354.85 280.17c-1.5346-0.17415-2.7902-0.49-2.7902-0.70189s2.3868-4.377 5.3041-9.2557l5.3041-8.8704h17.069l-1.6189 2.7902c-4.8029 8.2778-9.4355 15.117-10.426 15.392-2.0434 0.56731-10.005 0.96761-12.842 0.64568z"/>
  </g>
 </g>
</svg>
