<?xml version="1.0" encoding="UTF-8"?>
<svg version="1.1" xmlns="http://www.w3.org/2000/svg" width="1929" height="1373">
<path d="M0 0 C0.71285156 0.65355469 1.42570312 1.30710937 2.16015625 1.98046875 C2.84207031 2.58246094 3.52398437 3.18445313 4.2265625 3.8046875 C14.43913095 13.33775042 20.78673492 25.70461743 27.45043945 37.78979492 C31.93472781 45.88973718 36.63464281 53.83853452 41.47265625 61.73046875 C47.42159878 71.43666489 53.24690454 81.20343265 58.97265625 91.04296875 C64.08486883 99.82030213 69.28887406 108.51824334 74.76806641 117.07324219 C78.72522445 123.25536833 82.54534202 129.51461102 86.34765625 135.79296875 C87.53597919 137.74378153 88.72476697 139.69431125 89.9140625 141.64453125 C91.8357235 144.79572254 93.74106975 147.95505646 95.625 151.12890625 C100.03134391 158.42340919 104.99067997 164.25741111 111.16796875 170.06640625 C113.29818081 172.08167427 115.21642759 174.18118201 117.10888672 176.42041016 C121.60568967 181.58851363 126.45686262 186.38990755 131.3164978 191.2119751 C133.01008487 192.89261115 134.70036402 194.57651504 136.38989258 196.26123047 C139.97715438 199.83715412 143.56834745 203.40911307 147.16015625 206.98046875 C151.32768598 211.12426698 155.493516 215.26974536 159.65512085 219.41949463 C161.30748157 221.06544981 162.9628609 222.7083252 164.6184082 224.35107422 C172.94615078 232.63869209 172.94615078 232.63869209 176.49609375 236.81640625 C181.5056048 242.67121134 187.0771485 248.00658653 192.53884888 253.43432617 C194.63566841 255.51824708 196.72922991 257.60539384 198.82202148 259.69335938 C203.26525107 264.12522569 207.71240387 268.55314205 212.16015625 272.98046875 C217.31893789 278.11555941 222.47604877 283.25230526 227.62893677 288.39331055 C229.68017074 290.43811638 231.73441916 292.47985939 233.78881836 294.52148438 C235.05988274 295.78891243 236.33080479 297.05648323 237.6015625 298.32421875 C238.16384552 298.88133545 238.72612854 299.43845215 239.30545044 300.01245117 C242.12303534 302.82966688 244.81286676 305.7037994 247.40771484 308.72802734 C251.93826338 313.95901702 256.85391866 318.79832339 261.7578125 323.67578125 C262.81173718 324.72778272 263.86543143 325.78001508 264.91891479 326.8324585 C267.17366389 329.08406587 269.42995215 331.33411495 271.68746948 333.58294678 C275.26326135 337.14512338 278.83515287 340.71119417 282.40649414 344.27783203 C289.98807913 351.84835506 297.57389197 359.41463518 305.16015625 366.98046875 C313.35245494 375.1507046 321.54400587 383.32168194 329.73066998 391.49756432 C333.27484835 395.03678595 336.82144419 398.57356102 340.3699646 402.10842896 C342.58326688 404.31422784 344.79445578 406.52213623 347.00510025 408.73059845 C348.0236356 409.74727517 349.04302819 410.763094 350.0633812 411.77794647 C355.20023707 416.88799952 360.20325605 422.00526622 364.8061676 427.60647583 C365.25298386 428.05989349 365.69980011 428.51331116 366.16015625 428.98046875 C366.82015625 428.98046875 367.48015625 428.98046875 368.16015625 428.98046875 C370.04425999 426.59736482 371.83069637 424.19832549 373.59765625 421.73046875 C379.01465289 414.33230518 384.80581995 407.5792026 391.16015625 400.98046875 C391.73765625 400.35140625 392.31515625 399.72234375 392.91015625 399.07421875 C422.60371596 367.59904546 467.95411118 352.20607157 509.41015625 345.16796875 C510.55540771 344.97307861 511.70065918 344.77818848 512.88061523 344.57739258 C534.53615029 341.13284936 556.11274663 340.68434849 577.98643676 340.71733228 C582.27171146 340.72155148 586.55696985 340.71407334 590.84224039 340.70817977 C598.33274549 340.69946471 605.82322324 340.69808882 613.31373215 340.70168304 C624.45285969 340.70701378 635.59196098 340.70087108 646.73108567 340.69260011 C667.78632627 340.67739482 688.8415548 340.6756514 709.89679974 340.67812314 C726.1579984 340.67995864 742.41919314 340.6781908 758.68039131 340.6738987 C761.01991789 340.67329629 763.35944447 340.67269509 765.69897105 340.67209509 C769.22475327 340.6711878 772.75053548 340.67027913 776.2763177 340.66936274 C809.03763319 340.66093866 841.79894721 340.65659383 874.56026363 340.66076946 C875.79416816 340.66092584 877.02807268 340.66108221 878.29936825 340.66124333 C884.55273522 340.66204907 890.80610219 340.66289484 897.05946916 340.66375663 C898.92225079 340.66401326 898.92225079 340.66401326 900.82266438 340.66427508 C903.33399123 340.66462174 905.84531808 340.66497027 908.35664493 340.66532067 C947.43821166 340.67067858 986.51975583 340.66274321 1025.60131836 340.64428711 C1069.54796578 340.62355761 1113.49459923 340.61284606 1157.44125181 340.6168626 C1162.12953635 340.61725792 1166.81782088 340.61761947 1171.50610542 340.61795998 C1172.66041179 340.61805071 1173.81471815 340.61814144 1175.0040035 340.61823492 C1192.40488068 340.61939932 1209.80574371 340.61276467 1227.20661736 340.60214806 C1247.00082176 340.59008326 1266.79499507 340.58855199 1286.58919995 340.60093822 C1297.65565771 340.60755374 1308.72204104 340.60596594 1319.7884928 340.59234971 C1327.19366166 340.58407626 1334.59877505 340.58684018 1342.00393944 340.59832498 C1346.21422172 340.60455269 1350.42435929 340.6062573 1354.63463294 340.59446164 C1376.67303396 340.53687554 1398.29927361 341.2491646 1419.78515625 346.73046875 C1420.81600342 346.98723389 1421.84685059 347.24399902 1422.90893555 347.50854492 C1460.46434007 357.10446593 1493.72552056 374.51555028 1522.16015625 400.98046875 C1523.72086151 402.3367035 1525.28334207 403.6908982 1526.84765625 405.04296875 C1531.00580792 408.74314218 1534.59993261 412.71118589 1538.16015625 416.98046875 C1538.90910156 417.8415625 1539.65804688 418.70265625 1540.4296875 419.58984375 C1584.36321382 470.7879689 1601.75200461 539.01033499 1597.95800781 605.52441406 C1593.08059699 668.45221636 1562.99464622 724.25648358 1516.06542969 765.83642578 C1512.22615739 769.07101767 1508.23125156 772.04515003 1504.16015625 774.98046875 C1503.05995303 775.80824382 1501.96100969 776.63769587 1500.86328125 777.46875 C1486.7451005 788.01592172 1471.1200305 796.56081351 1455.16015625 803.98046875 C1454.3904248 804.33850586 1453.62069336 804.69654297 1452.82763672 805.06542969 C1405.06425504 826.99303434 1353.19944119 834.16811192 1301.08408165 834.1091032 C1299.0033866 834.11045262 1296.92269179 834.11223807 1294.84199744 834.11441544 C1289.14861931 834.11911639 1283.45525729 834.11765325 1277.7618784 834.11513767 C1271.55851802 834.11349782 1265.355161 834.11765103 1259.15180171 834.12104684 C1248.28735158 834.12619132 1237.42290733 834.12765455 1226.55845642 834.12659073 C1214.90720626 834.12546426 1203.2559593 834.12650737 1191.60470963 834.13016319 C1190.49867979 834.13050767 1190.49867979 834.13050767 1189.37030591 834.13085911 C1186.36690846 834.13180081 1183.36351102 834.1327565 1180.36011359 834.1337303 C1149.0681111 834.1438613 1117.77611041 834.14693578 1086.48410647 834.14752241 C1083.1185253 834.14758716 1079.75294413 834.1476551 1076.38736296 834.14772582 C1075.55214107 834.14774283 1074.71691918 834.14775983 1073.85638754 834.14777735 C1055.32971373 834.14818619 1036.80304026 834.15037735 1018.27636663 834.15288167 C1010.642481 834.15391005 1003.00859536 834.1549001 995.37470973 834.15589792 C994.10941186 834.1560638 994.10941186 834.1560638 992.81855242 834.15623303 C944.49561916 834.16255502 896.17268612 834.16668237 847.84975243 834.16622448 C846.04224424 834.1662087 844.23473605 834.16619297 842.42722787 834.16617727 C834.26687128 834.16610389 826.10651469 834.16601572 817.9461581 834.16592339 C814.30740676 834.16588226 810.66865542 834.16584212 807.02990407 834.16580207 C805.20864618 834.16578168 803.38738828 834.16576066 801.56613039 834.16573901 C743.97881737 834.1650588 686.39151051 834.17237636 628.80419922 834.1862793 C614.29420664 834.18978046 599.78421405 834.19324998 585.27422142 834.19654369 C584.38072233 834.19674657 583.48722325 834.19694944 582.56664843 834.19715846 C555.01782928 834.20337572 527.46901063 834.20713945 499.92019081 834.20840168 C499.05497222 834.20844163 498.18975362 834.20848158 497.29831628 834.20852274 C478.30256281 834.20937611 459.30680937 834.20963718 440.31105589 834.20935237 C433.51368033 834.20925589 426.71630477 834.20920384 419.91892921 834.20917364 C418.22799288 834.20916572 416.53705655 834.20915552 414.84612023 834.20914301 C387.93224539 834.20896688 361.01837583 834.21465686 334.10450251 834.22329683 C306.98995135 834.23195697 279.87540749 834.23412924 252.76085553 834.22753551 C249.00857345 834.2266233 245.25629135 834.22578 241.50400925 834.22497749 C240.76851077 834.22481741 240.0330123 834.22465732 239.27522599 834.22449238 C227.66135406 834.22214563 216.0474948 834.22648244 204.43362524 834.23364868 C192.99473874 834.24056554 181.55587699 834.2400991 170.11698968 834.23245654 C164.00610464 834.22857761 157.89526427 834.22779205 151.78438239 834.2359139 C146.21160134 834.24325544 140.63890167 834.24118338 135.06612409 834.23199003 C133.07576056 834.23028612 131.08539045 834.23183916 129.09503365 834.23729124 C110.62449058 834.28444755 91.78354721 833.71175161 73.66015625 829.85546875 C72.13660522 829.53896362 72.13660522 829.53896362 70.58227539 829.21606445 C53.29669309 825.43713273 36.56133929 819.74291313 21.16015625 810.98046875 C20.03609375 810.34367188 18.91203125 809.706875 17.75390625 809.05078125 C-24.23728382 784.15600428 -50.51388274 743.10680176 -64.17578125 697 C-64.36743362 696.35649094 -64.559086 695.71298187 -64.75654602 695.04997253 C-68.99608881 680.78991018 -72.75553336 666.41871064 -76.33984375 651.98046875 C-76.67741909 650.62731176 -77.01506707 649.27417288 -77.3527832 647.92105103 C-87.61248378 606.73561747 -96.30810589 565.18957693 -105.07800293 523.66697693 C-105.79225203 520.28530462 -106.50749833 516.90384595 -107.22375488 513.52259827 C-107.39913536 512.69458426 -107.57451584 511.86657026 -107.75521088 511.01346493 C-108.10607522 509.35699343 -108.45699143 507.70053291 -108.80796051 506.0440836 C-109.80057598 501.35513786 -110.78497597 496.66457029 -111.7626152 491.97248077 C-115.0322067 476.30417522 -118.54427468 460.73038437 -122.54296875 445.23046875 C-122.72756149 444.51464441 -122.91215424 443.79882008 -123.1023407 443.06130409 C-138.46613879 383.72718098 -158.77304438 323.7216171 -193.60107422 272.80957031 C-195.77056482 269.60621526 -197.86730055 266.35621673 -199.96484375 263.10546875 C-200.40965088 262.41678711 -200.85445801 261.72810547 -201.31274414 261.01855469 C-206.20683576 253.42868723 -211.06747258 245.81731407 -215.93164062 238.20825195 C-219.75806901 232.22468819 -223.59777767 226.25034082 -227.46484375 220.29296875 C-232.23983888 212.93572551 -236.94657232 205.53590705 -241.64892578 198.13208008 C-245.18738728 192.56493292 -248.74795274 187.01327396 -252.33984375 181.48046875 C-300.29625174 107.49441304 -300.29625174 107.49441304 -292.65234375 65.10546875 C-287.73656831 43.58172299 -275.14584753 26.81243792 -256.67578125 15.10791016 C-215.99512874 -9.87390544 -161.58482641 -14.92748521 -114.83984375 -20.01953125 C-113.23109375 -20.19742187 -113.23109375 -20.19742187 -111.58984375 -20.37890625 C-74.63641124 -24.33820259 -30.05110376 -25.93726317 0 0 Z M-255.83984375 50.98046875 C-264.80182503 63.15666273 -267.66333974 77.16262619 -265.53955078 92.09130859 C-261.42099387 114.86666597 -249.84246566 133.65223722 -237.3046875 152.6953125 C-233.71596762 158.14922902 -230.2103366 163.65398558 -226.71484375 169.16796875 C-222.23070768 176.23300825 -217.71968589 183.27880199 -213.16357422 190.29760742 C-209.02828205 196.6744108 -204.93329737 203.07674896 -200.83984375 209.48046875 C-196.35749958 216.49202389 -191.86928809 223.49923532 -187.33984375 230.48046875 C-182.06182242 238.61615295 -176.8334393 246.78342587 -171.61474609 254.95727539 C-167.42112657 261.52719328 -167.42112657 261.52719328 -163.16796875 268.05859375 C-133.89522431 312.5732452 -116.48263247 363.73083421 -101.71484375 414.54296875 C-101.49061737 415.30310272 -101.26639099 416.06323669 -101.03536987 416.84640503 C-91.18781706 450.40141694 -84.46166033 484.94317423 -77.28100586 519.14205933 C-75.12247426 529.41837461 -72.94127673 539.68989523 -70.7578125 549.9609375 C-70.43604853 551.47466666 -70.43604853 551.47466666 -70.10778427 553.01897621 C-49.55996808 681.28151203 -49.55996808 681.28151203 25.47265625 780.69140625 C61.23400512 803.25791532 99.54482422 806.32014589 140.76486576 806.21259999 C144.98334949 806.20384961 149.20182833 806.20689372 153.4203186 806.20840454 C160.70458779 806.20944617 167.98882075 806.20324582 175.27308083 806.19192886 C185.80450287 806.17557784 196.33590765 806.17045611 206.867341 806.16795288 C223.95966626 806.16359073 241.05197228 806.15032207 258.14428711 806.13134766 C274.73412989 806.11295035 291.32396742 806.09881276 307.91381836 806.09033203 C309.45131278 806.08954386 309.45131278 806.08954386 311.0198677 806.08873977 C316.16268892 806.08612943 321.30551019 806.08360208 326.44833148 806.08111596 C369.01895305 806.06042961 411.58955365 806.02524474 454.16015625 805.98046875 C450.4943286 802.98252955 446.88767756 800.61854391 442.72265625 798.35546875 C426.21343934 789.1486162 411.8770731 776.88818619 398.16015625 763.98046875 C397.50144531 763.36429688 396.84273437 762.748125 396.1640625 762.11328125 C378.21717475 744.78811016 364.62071903 722.45899821 354.16015625 699.98046875 C353.83160645 699.2750293 353.50305664 698.56958984 353.16455078 697.84277344 C336.67643464 661.87309107 330.71787848 623.92378871 330.84765625 584.66796875 C330.85039047 582.951436 330.85039047 582.951436 330.85317993 581.20022583 C330.90114016 563.2895025 331.45039537 545.71420142 334.16015625 527.98046875 C334.3317627 526.84544922 334.50336914 525.71042969 334.68017578 524.54101562 C337.94762744 503.71575625 342.62504198 482.79572448 351.20263672 463.45874023 C352.88284952 459.88551899 352.88284952 459.88551899 352.56689453 456.11352539 C350.63760908 453.18812327 348.23979183 450.83461721 345.7421875 448.40234375 C345.20671799 447.87207581 344.67124847 447.34180786 344.11955261 446.79547119 C342.40861873 445.10229819 340.69116857 443.41594667 338.97265625 441.73046875 C337.2728135 440.05848433 335.57454323 438.38497964 333.87931824 436.70831299 C332.82693842 435.66792915 331.77190334 434.63022066 330.71357727 433.59588623 C328.04173717 430.95940243 325.51534439 428.25790183 323.07975769 425.40106201 C318.73422972 420.41667552 314.07640805 415.77183918 309.38867188 411.11132812 C308.42341576 410.14799577 307.45839045 409.1844321 306.49357605 408.22065735 C304.43035622 406.1605765 302.36559892 404.1020541 300.29960632 402.04475403 C297.02625173 398.78502922 293.75681078 395.52139749 290.48791504 392.25720215 C283.54830039 385.32864353 276.60445583 378.40433131 269.66015625 371.48046875 C262.16075486 364.00313804 254.66210621 356.52506146 247.16834593 349.04207659 C243.92523308 345.80391616 240.67970534 342.56820251 237.43224335 339.33440399 C235.40576793 337.31543934 233.38141272 335.29435872 231.35759926 333.27272606 C229.98544817 331.90330968 228.61077844 330.53641841 227.23600769 329.16963196 C222.91124677 324.84523726 218.75530955 320.45236772 214.76877594 315.81493378 C212.23098184 312.92084107 209.51886766 310.21554211 206.78515625 307.5078125 C205.89340698 306.61825363 205.89340698 306.61825363 204.98364258 305.71072388 C203.70750359 304.43835594 202.43021208 303.16714304 201.15185547 301.89700317 C199.1222421 299.88029569 197.09589367 297.86035654 195.0703125 295.83959961 C190.76974391 291.5503908 186.46525099 287.265134 182.16015625 282.98046875 C177.16658382 278.01059293 172.17468616 273.03905845 167.18701172 268.06326294 C165.20225639 266.08493261 163.21448602 264.10966746 161.2265625 262.13452148 C155.96074793 256.88985665 150.77388882 251.66462465 145.95556641 246.00073242 C142.16554264 241.73605379 138.05254963 237.7663984 134.0038147 233.7489624 C132.31022763 232.06832635 130.61994848 230.38442246 128.93041992 228.69970703 C125.34315812 225.12378338 121.75196505 221.55182443 118.16015625 217.98046875 C113.99262652 213.83667052 109.8267965 209.69119214 105.66519165 205.54144287 C104.01283093 203.89548769 102.3574516 202.2526123 100.7019043 200.60986328 C95.84340463 195.77473361 91.06522369 190.91839152 86.63623047 185.67919922 C84.98893458 183.7834194 83.24034412 182.01387908 81.47265625 180.23046875 C76.20226262 174.30380005 72.47157945 167.41499378 68.48046875 160.6015625 C65.09130539 154.82177435 61.54380931 149.14904749 57.97265625 143.48046875 C40.85012992 116.20181562 24.28829053 88.54617655 8.16015625 60.66796875 C7.73686035 59.93884277 7.31356445 59.2097168 6.87744141 58.45849609 C4.68755836 54.67394655 2.54374037 50.86908709 0.44140625 47.03515625 C-9.30565157 29.4208793 -20.13441051 16.53311051 -39.95703125 10.046875 C-94.16111138 -5.46575049 -216.32291844 8.55177 -255.83984375 50.98046875 Z M549.39739895 368.88696671 C548.6775739 368.92688076 547.95774886 368.96679482 547.21611093 369.0079184 C493.44144901 372.05979001 441.8390186 387.45889747 404.03515625 427.23046875 C400.03519252 431.74443112 396.45182009 436.49849994 392.97265625 441.41796875 C392.47813965 442.1047168 391.98362305 442.79146484 391.47412109 443.49902344 C391.02633301 444.15161133 390.57854492 444.80419922 390.1171875 445.4765625 C389.7147583 446.05591553 389.3123291 446.63526855 388.89770508 447.23217773 C387.91206379 449.5685489 388.33601762 450.61042989 389.16015625 452.98046875 C391.30524735 455.18300415 393.46254668 457.22126534 395.75390625 459.26171875 C402.85362524 465.75015783 409.7215483 472.44448791 416.50390625 479.26171875 C417.50176457 480.26304654 418.49964885 481.26434846 419.49755859 482.265625 C422.55433236 485.33468339 425.60750995 488.40730573 428.66015625 491.48046875 C432.2454258 495.08959332 435.83249288 498.69689834 439.42378235 502.30003357 C440.83488338 503.71749738 442.24287149 505.13805801 443.65075684 506.55871582 C448.65407194 511.58105582 453.75003119 516.39931749 459.16015625 520.98046875 C459.82092163 521.54700668 460.48168701 522.11354462 461.16247559 522.69725037 C500.18836682 556.12483357 546.41106126 578.52583259 596.16015625 590.98046875 C597.2054248 591.24311523 598.25069336 591.50576172 599.32763672 591.77636719 C625.44654234 598.21751782 652.32144973 602.18625329 679.16015625 603.98046875 C680.23942886 604.06247025 681.31870148 604.14447174 682.43067932 604.22895813 C697.80008181 605.25883806 713.1891248 605.15386903 728.58502698 605.13556409 C731.10252707 605.13276804 733.62002414 605.13161803 736.13752556 605.13068962 C779.11317306 605.10610932 822.07975191 604.40449893 865.04861963 603.70086515 C876.8337788 603.50795453 888.61902965 603.32094202 900.40429688 603.13476562 C901.98490709 603.10977289 901.98490709 603.10977289 903.59744883 603.08427525 C925.53095819 602.73762613 947.46457097 602.39800084 969.39833069 602.06756592 C973.12586969 602.01136273 976.85339826 601.95454175 980.58091736 601.89703369 C1044.02857239 600.91926116 1107.47286915 600.82275944 1170.92691084 600.85100629 C1181.25466312 600.8555185 1191.58240414 600.85466162 1201.91015625 600.85009766 C1214.15952465 600.84468639 1226.40888602 600.84278205 1238.65825546 600.84570992 C1245.05177635 600.8472374 1251.44528962 600.84756619 1257.83880997 600.84417343 C1281.48794979 600.83336796 1305.12924143 600.87493383 1328.77294922 601.42626953 C1329.62051796 601.44568155 1330.46808671 601.46509357 1331.34133935 601.48509383 C1340.7308373 601.70695491 1350.11197962 602.04082314 1359.493927 602.47897339 C1360.80818486 602.53996851 1360.80818486 602.53996851 1362.14899337 602.60219586 C1368.10758415 602.89329612 1374.00846972 603.33128341 1379.91015625 604.23046875 C1380.76810791 604.35905273 1381.62605957 604.48763672 1382.51000977 604.62011719 C1403.03076373 607.90890648 1422.90309936 615.28801824 1436.56640625 631.72265625 C1448.89339363 649.18588837 1450.05076597 669.82854963 1446.70874023 690.30029297 C1439.43931513 730.32778829 1420.767671 769.79349028 1387.03515625 794.04296875 C1386.08640625 794.68234375 1385.13765625 795.32171875 1384.16015625 795.98046875 C1387.3873331 797.03296847 1389.40425283 796.90437894 1392.66015625 796.01171875 C1393.53687988 795.77412842 1394.41360352 795.53653809 1395.31689453 795.29174805 C1396.2551709 795.02402588 1397.19344727 794.75630371 1398.16015625 794.48046875 C1399.13839355 794.20565674 1400.11663086 793.93084473 1401.12451172 793.64770508 C1440.89462789 782.26694856 1477.16995776 763.68696768 1507.16015625 734.98046875 C1507.98966797 734.19978027 1507.98966797 734.19978027 1508.8359375 733.40332031 C1546.57659128 697.77120193 1568.85123813 646.31856605 1570.44140625 594.55859375 C1571.56716234 531.70845489 1551.71593102 472.7475367 1508.16015625 426.98046875 C1507.50789063 426.27535156 1506.855625 425.57023437 1506.18359375 424.84375 C1479.73016747 397.09579435 1442.0971933 380.05807937 1405.09765625 372.23046875 C1404.19708496 372.03171143 1403.29651367 371.8329541 1402.36865234 371.62817383 C1380.39483624 367.26520251 1357.62288499 367.68282437 1335.31679558 367.72353364 C1331.24673645 367.7286893 1327.17669156 367.72205525 1323.10663456 367.71704698 C1315.99983798 367.70987964 1308.89307187 367.71000784 1301.78627396 367.7151413 C1291.21714044 367.72275465 1280.64803229 367.71881376 1270.0788989 367.71272468 C1251.19203304 367.70222755 1232.30518076 367.70309248 1213.41831363 367.70888251 C1196.88385922 367.71392604 1180.34940978 367.71522127 1163.81495476 367.71283722 C1162.71551662 367.71268445 1161.61607849 367.71253168 1160.48332405 367.71237428 C1156.01954768 367.71175153 1151.5557713 367.71111472 1147.09199494 367.71045475 C1105.26142999 367.70434395 1063.43087366 367.70987154 1021.60031005 367.72064855 C984.50510117 367.73013297 947.40990603 367.72929467 910.31469727 367.71972656 C868.57117039 367.70899531 826.82765113 367.70478339 785.08412308 367.71095109 C780.62598193 367.71159245 776.16784078 367.71221813 771.70969963 367.71283722 C770.06332173 367.71307445 770.06332173 367.71307445 768.38368367 367.71331648 C751.87323963 367.71558296 735.36280113 367.71294661 718.85235786 367.70787811 C700.05552204 367.70213625 681.25870184 367.7036384 662.46186794 367.7144396 C651.96670508 367.72027297 641.47157613 367.72075295 630.97641422 367.71314725 C623.9368793 367.70861249 616.89737117 367.71154223 609.85784017 367.72015679 C605.86632698 367.72484534 601.87488036 367.72668977 597.88336963 367.71934482 C581.69222515 367.69184527 565.56538227 367.97186035 549.39739895 368.88696671 Z M374.16015625 478.98046875 C362.50320045 511.78818972 357.98196902 545.26648317 357.91992188 580.00512695 C357.91029033 583.24782711 357.87921632 586.48987159 357.84765625 589.73242188 C357.7502379 608.798352 359.38465501 627.66969304 363.91015625 646.23046875 C364.16909668 647.30997803 364.42803711 648.3894873 364.69482422 649.50170898 C377.33179543 700.59722109 408.2618907 746.23151019 453.59765625 773.66796875 C500.92730811 801.58932404 551.0446525 806.38382838 604.89306641 806.11779785 C609.56020255 806.09700287 614.22736172 806.08813367 618.89453125 806.078125 C627.98313163 806.05694525 637.07163239 806.02300429 646.16015625 805.98046875 C646.23728851 804.74765923 646.23728851 804.74765923 646.315979 803.48994446 C646.51262061 800.38776919 646.71404293 797.28594843 646.91851807 794.1842804 C647.0477403 792.20287785 647.17163953 790.22113043 647.29541016 788.23937988 C649.02735174 762.1654117 655.75766096 735.72981073 675.16015625 716.98046875 C676.52600516 715.80310183 677.90093287 714.63617708 679.28515625 713.48046875 C694.75253245 700.25298656 698.07180667 676.90586934 699.85546875 657.68359375 C700.47871391 649.4652084 700.31486469 641.21439571 700.16015625 632.98046875 C697.39227351 631.59652738 695.0011445 631.72734605 691.90625 631.5859375 C690.59358154 631.51979248 689.28091309 631.45364746 687.9284668 631.38549805 C686.87192398 631.33321548 686.87192398 631.33321548 685.79403687 631.27987671 C594.97540284 626.65256945 504.99442424 600.38413156 436.9609375 537.53515625 C434.84533538 535.60544386 432.70781001 533.73165198 430.53588867 531.86767578 C425.93875124 527.84878579 421.64045088 523.56984063 417.34765625 519.23046875 C416.53449951 518.41352539 415.72134277 517.59658203 414.88354492 516.75488281 C411.43838285 513.29351833 407.99925335 509.82618284 404.55957031 506.359375 C402.03269117 503.81431687 399.5027431 501.27233744 396.97265625 498.73046875 C396.20783936 497.95735352 395.44302246 497.18423828 394.6550293 496.38769531 C390.51666207 492.23071338 386.29410518 488.25112815 381.83227539 484.44213867 C380.42188695 483.2092586 379.09245431 481.88466939 377.78515625 480.54296875 C376.29560124 478.74943251 376.29560124 478.74943251 374.16015625 478.98046875 Z M932.72265625 629.41796875 C931.60933473 629.43488455 930.49601321 629.45180035 929.34895468 629.46922874 C904.81812015 629.84309924 880.28779656 630.24516407 855.75773227 630.66635072 C843.00079099 630.88522719 830.24373174 631.09143291 817.48632812 631.28149414 C816.71665203 631.29298016 815.94697593 631.30446619 815.15397632 631.31630027 C807.43850055 631.43126015 799.72299448 631.54395535 792.00746155 631.65501404 C770.72181081 631.9653042 749.44071216 632.42328295 728.16015625 632.98046875 C728.12051758 633.85445312 728.08087891 634.7284375 728.04003906 635.62890625 C724.57109279 708.76425979 724.57109279 708.76425979 699.16015625 732.98046875 C697.96281475 733.99360387 696.75537786 734.99501014 695.53515625 735.98046875 C691.1236556 739.61587206 688.16504691 744.16253108 685.16015625 748.98046875 C684.70640625 749.70621094 684.25265625 750.43195313 683.78515625 751.1796875 C676.11624249 764.91183619 673.94148634 781.55812115 674.09765625 797.04296875 C674.10216797 797.90857422 674.10667969 798.77417969 674.11132812 799.66601562 C674.12295712 801.77086414 674.14088552 803.87567633 674.16015625 805.98046875 C729.18392651 806.01473451 784.20769779 806.04657193 839.23147583 806.06515503 C840.04694386 806.06543114 840.86241189 806.06570726 841.70259107 806.06599174 C859.42851282 806.07197873 877.15443469 806.07751893 894.88035672 806.08259941 C903.57420919 806.0850939 912.26806164 806.08768703 920.96191406 806.09033203 C921.82701793 806.09059355 922.6921218 806.09085507 923.58344094 806.09112451 C951.58126228 806.09963434 979.5790755 806.11464731 1007.57689193 806.13306319 C1036.3686077 806.1519667 1065.16031897 806.1642485 1093.95204083 806.16829873 C1098.02656122 806.16887497 1102.10108159 806.16952624 1106.17560196 806.17022324 C1106.97745939 806.17035808 1107.77931682 806.17049293 1108.60547296 806.17063186 C1121.4692352 806.17298752 1134.33298349 806.18224254 1147.19674006 806.19413282 C1160.15575258 806.2059619 1173.11475141 806.21039113 1186.07376914 806.2074715 C1193.755698 806.20596011 1201.43757637 806.20991748 1209.11949603 806.22206384 C1214.88414161 806.23054876 1220.64874633 806.22833687 1226.41339315 806.22226654 C1228.72474355 806.22143054 1231.03609839 806.22388761 1233.34744023 806.23023511 C1287.4297891 806.36995387 1344.35648351 799.14506164 1384.72265625 759.79296875 C1390.78157826 753.71204949 1395.65757823 747.31545245 1400.16015625 739.98046875 C1400.82402344 738.9234375 1401.48789063 737.86640625 1402.171875 736.77734375 C1414.57055384 715.43894953 1426.05534779 682.98328601 1419.66015625 658.23046875 C1416.79523419 649.87780866 1411.29596465 643.43922494 1403.5859375 639.09765625 C1389.57381115 632.64440644 1374.51108802 630.14306727 1359.20091248 629.43670654 C1358.38034251 629.39646701 1357.55977254 629.35622747 1356.71433681 629.31476855 C1348.23183586 628.91224208 1339.74735013 628.63842168 1331.25805664 628.43066406 C1330.42155331 628.40979689 1329.58504997 628.38892972 1328.72319806 628.36743021 C1305.90813301 627.8129018 1283.09019491 627.79877038 1260.26958799 627.78059602 C1256.52049376 627.77727894 1252.77140416 627.77245518 1249.02231216 627.76720238 C1232.01287663 627.74372558 1215.00346306 627.73394467 1197.99401297 627.73158976 C1193.01084364 627.7308622 1188.02767506 627.72928759 1183.04450607 627.72734451 C1099.59347849 627.69619951 1016.16570321 628.1497657 932.72265625 629.41796875 Z " fill="#FFFFFF" transform="translate(310.83984375,46.01953125)"/>
<path d="M0 0 C14.85 0 29.7 0 45 0 C49.4992307 8.99846141 49.4992307 8.99846141 51.12451172 13.17602539 C51.49365692 14.11906021 51.86280212 15.06209503 52.24313354 16.03370667 C52.63469635 17.04481003 53.02625916 18.05591339 53.4296875 19.09765625 C53.86016388 20.19887314 54.29064026 21.30009003 54.73416138 22.43467712 C56.11800705 25.97590535 57.4969384 29.51901734 58.875 33.0625 C70.05869902 61.7862997 81.5512188 90.37804701 93 119 C93.33 79.73 93.66 40.46 94 0 C109.18 0 124.36 0 140 0 C140 76.23 140 152.46 140 231 C126.14 231 112.28 231 98 231 C94.98019275 223.75246259 91.98527818 216.51955048 89.13671875 209.20703125 C88.78764969 208.3141893 88.43858063 207.42134735 88.07893372 206.50144958 C86.94715127 203.60564071 85.81728314 200.70908941 84.6875 197.8125 C83.89073076 195.77241963 83.09385408 193.73238122 82.296875 191.69238281 C80.6637847 187.51152909 79.03151637 183.33035584 77.39990234 179.14892578 C75.49433278 174.26571807 73.58682319 169.38327235 71.67817688 164.50126648 C70.28142402 160.92847797 68.88533633 157.35542979 67.4894104 153.78231812 C66.84812363 152.14099506 66.20667461 150.49973538 65.56503296 148.85855103 C59.98876729 134.5929678 54.4985366 120.29619516 49 106 C48.67 147.25 48.34 188.5 48 231 C32.16 231 16.32 231 0 231 C0 154.77 0 78.54 0 0 Z " fill="#FFFFFF" transform="translate(1004,1116)"/>
<path d="M0 0 C14.19 0 28.38 0 43 0 C53.0780188 25.97027921 63.04934431 51.9806933 73 78 C76.10159558 72.04398415 78.64389256 66.02614895 81.01171875 59.74609375 C81.38424271 58.76874771 81.75676666 57.79140167 82.14057922 56.78443909 C83.32678537 53.67025925 84.50740076 50.55399849 85.6875 47.4375 C87.23139734 43.37305979 88.77758567 39.30949361 90.32421875 35.24609375 C90.89449295 33.74615372 90.89449295 33.74615372 91.47628784 32.21591187 C95.57708435 21.44814642 99.78675848 10.7242329 104 0 C118.19 0 132.38 0 147 0 C147 76.23 147 152.46 147 231 C132.48 231 117.96 231 103 231 C102.505 162.195 102.505 162.195 102 92 C89.92669763 123.47221957 89.92669763 123.47221957 78 155 C75.03 155 72.06 155 69 155 C63.80632591 144.43534512 59.93545482 133.3457041 55.875 122.3125 C55.15272099 120.35858447 54.4300675 118.40480732 53.70703125 116.45117188 C52.11271566 112.14221516 50.52196321 107.8319625 48.93453979 103.52046204 C47.63291191 100.0099602 46.31462128 96.50565674 45 93 C44.67 138.54 44.34 184.08 44 231 C29.48 231 14.96 231 0 231 C0 154.77 0 78.54 0 0 Z " fill="#FFFFFF" transform="translate(251,1116)"/>
<path d="M0 0 C12.37858361 10.80180941 20.97542148 25.49710464 24.125 41.6875 C24.38213776 42.91020348 24.38213776 42.91020348 24.64447021 44.15760803 C25.30094268 48.97994568 25.28080924 53.73388853 25.28613281 58.59545898 C25.29109772 59.6841478 25.29606262 60.77283661 25.30117798 61.89451599 C25.31576263 65.49088174 25.32259717 69.0872033 25.328125 72.68359375 C25.33388158 75.19499207 25.33963925 77.70639038 25.34539795 80.2177887 C25.35455826 84.81336438 25.36086138 89.40892752 25.3638947 94.0045113 C25.36791722 100.06289145 25.38013076 106.12111585 25.40625 112.17944336 C25.43393253 118.70272889 25.44665175 125.2258811 25.44857025 131.74922371 C25.45157825 134.22369562 25.45954337 136.69816705 25.47275543 139.17260551 C25.59794276 164.43124349 22.7834615 186.39303398 5.125 205.6875 C-9.89730857 220.50619294 -28.7577766 225.96205146 -49.3972168 225.93408203 C-68.85790767 225.66226907 -86.08050238 219.04368859 -100.1875 205.4609375 C-118.48105697 185.85079878 -120.34836631 162.83187106 -120.30859375 137.38671875 C-120.31316273 134.82045861 -120.31847042 132.25419968 -120.32447815 129.6879425 C-120.33338191 124.32453834 -120.3312558 118.96129778 -120.32104492 113.59790039 C-120.3095804 107.44082729 -120.32362777 101.28419065 -120.3504414 95.12717503 C-120.37546307 89.15293968 -120.37774341 83.17892505 -120.37132454 77.2046299 C-120.37117231 74.68633105 -120.37713421 72.1680234 -120.38961601 69.64975548 C-120.46028575 53.0549431 -120.1843207 37.29706376 -112.125 22.3125 C-111.78138428 21.65314453 -111.43776855 20.99378906 -111.08374023 20.31445312 C-107.98444446 14.54924066 -104.36642605 9.46341177 -99.875 4.6875 C-98.91400391 3.64722656 -98.91400391 3.64722656 -97.93359375 2.5859375 C-72.30368177 -22.606272 -27.22842024 -21.19846748 0 0 Z M-65.875 37.6875 C-71.84424324 45.29298251 -73.1744343 52.56636176 -73.16552734 62.03222656 C-73.17224457 63.06067184 -73.17896179 64.08911713 -73.18588257 65.14872742 C-73.20484869 68.54190938 -73.20878627 71.93489335 -73.2109375 75.328125 C-73.21736699 77.69456055 -73.22409546 80.06099531 -73.23110962 82.4274292 C-73.24307937 87.38702232 -73.24679081 92.3465458 -73.24560547 97.30615234 C-73.24540244 103.64557215 -73.27268975 109.98454286 -73.30714989 116.32385635 C-73.32944453 121.21221954 -73.33344219 126.10047516 -73.33238602 130.98888397 C-73.33473867 133.32514746 -73.34354316 135.66141406 -73.35905075 137.99762726 C-73.37875942 141.27379817 -73.37285261 144.5490072 -73.36083984 147.82519531 C-73.37207886 148.78034531 -73.38331787 149.7354953 -73.39489746 150.71958923 C-73.31319367 159.53756607 -70.79646145 167.7127719 -64.6171875 174.21484375 C-58.50791237 179.37896197 -51.94904911 180.41338554 -44.09375 180.12890625 C-37.16784401 179.17911574 -31.86581754 176.36435973 -27.4375 170.9375 C-22.2817935 163.85802241 -21.42994591 155.69210517 -21.47094727 147.20166016 C-21.46408401 146.19389023 -21.45722076 145.1861203 -21.45014954 144.14781189 C-21.43195763 140.84058245 -21.43570856 137.53383089 -21.44140625 134.2265625 C-21.43684057 131.91165006 -21.43153384 129.59673897 -21.42552185 127.28182983 C-21.41660546 122.43848146 -21.41899692 117.59529811 -21.42895508 112.75195312 C-21.4404381 106.56626515 -21.42023532 100.38114861 -21.39103794 94.19553566 C-21.37263063 89.41692528 -21.37297755 84.63845066 -21.37867546 79.85981369 C-21.37882814 77.58020603 -21.37282792 75.30058886 -21.36038399 73.02101517 C-21.3453917 69.82436247 -21.35621227 66.62875059 -21.37329102 63.43212891 C-21.35878906 62.03991875 -21.35878906 62.03991875 -21.34399414 60.61958313 C-21.4438592 51.62635862 -23.83657903 42.75443996 -30.18359375 36.12109375 C-41.00225414 26.95146705 -55.91435921 27.81385171 -65.875 37.6875 Z " fill="#FFFFFF" transform="translate(746.875,1126.3125)"/>
<path d="M0 0 C16.5 0 33 0 50 0 C56.26955662 22.87027857 62.04963618 45.85365457 67.80621219 68.85740304 C68.62808752 72.14122502 69.45056909 75.42489458 70.27324104 78.70851707 C73.14812129 90.18371547 76.02038241 101.65956604 78.89038086 113.13598633 C81.56036306 123.81225508 84.23656597 134.486952 86.91548103 145.16098243 C89.22549812 154.3664133 91.53101212 163.57296437 93.83304459 172.78039521 C95.2039579 178.26325587 96.576737 183.74563288 97.95416069 189.22686195 C99.2439381 194.35989213 100.52812757 199.49428765 101.80798149 204.6298008 C102.27840574 206.51331807 102.75084654 208.39633299 103.22543716 210.27880478 C103.87203534 212.84485137 104.51137897 215.41259954 105.14891052 217.98091125 C105.3386831 218.72680159 105.52845568 219.47269193 105.72397894 220.24118501 C106.65546428 224.02848569 107 227.03934536 107 231 C90.83 231 74.66 231 58 231 C53.29896907 212.19587629 53.29896907 212.19587629 51.25 202.75 C51.02957031 201.75871094 50.80914063 200.76742188 50.58203125 199.74609375 C50.37449219 198.79347656 50.16695312 197.84085938 49.953125 196.859375 C49.76911133 196.01858398 49.58509766 195.17779297 49.39550781 194.31152344 C49 192 49 192 49 188 C33.16 188 17.32 188 1 188 C0.34 191.96 -0.32 195.92 -1 200 C-1.54902564 202.65665523 -2.12147643 205.30867477 -2.7265625 207.953125 C-3.00580566 209.18192383 -3.28504883 210.41072266 -3.57275391 211.67675781 C-3.91999512 213.18592773 -4.26723633 214.69509766 -4.625 216.25 C-5.73875 221.1175 -6.8525 225.985 -8 231 C-24.5 231 -41 231 -58 231 C-47.94272784 189.7266259 -37.63089056 148.51841129 -27.24234486 107.32731867 C-26.43367689 104.1206688 -25.62528721 100.91394877 -24.8168335 97.70724487 C-16.60088428 65.12362912 -8.32778428 32.55523056 0 0 Z M24 80 C22.29878689 87.60491282 20.60329065 95.21107566 18.91503143 102.81887341 C18.13088192 106.35164048 17.34478832 109.88395116 16.55419922 113.4152832 C15.79095859 116.82479665 15.03289368 120.23542356 14.27836609 123.64687538 C13.84983267 125.57805727 13.41598187 127.50805674 12.98205566 129.43803406 C12.72178589 130.61888077 12.46151611 131.79972748 12.19335938 133.01635742 C11.96241577 134.05338303 11.73147217 135.09040863 11.49353027 136.15885925 C10.8573787 139.34042357 10.8573787 139.34042357 11 144 C20.24 144 29.48 144 39 144 C36.21965008 129.83759259 33.3522707 115.69622261 30.34692383 101.57992554 C29.9904651 99.90081194 29.63662568 98.22114016 29.28540039 96.54092407 C28.78741605 94.16237971 28.27974275 91.78610358 27.76953125 89.41015625 C27.62070999 88.69039612 27.47188873 87.97063599 27.31855774 87.22906494 C26.47330561 83.20601754 26.47330561 83.20601754 24 80 Z " fill="#FFFFFF" transform="translate(1800,1116)"/>
<path d="M0 0 C44.22 0 88.44 0 134 0 C134 46.56386002 134 46.56386002 121.93261719 64.125 C118.79798495 68.78814164 116.14986969 73.70880388 113.4375 78.625 C112.36515396 80.51408511 111.29093785 82.40210991 110.21484375 84.2890625 C106.8968928 90.15020418 103.69150442 96.06929646 100.5 102 C95.80208781 110.72599937 90.99048383 119.37782801 86.0925293 127.99291992 C80.30950817 138.18048655 74.66591061 148.44334362 69.01953125 158.70703125 C64.36660805 167.14921551 59.6813603 175.57355145 55 184 C81.07 184.33 107.14 184.66 134 185 C134 200.18 134 215.36 134 231 C88.79 231 43.58 231 -3 231 C-3 184.26816946 -3 184.26816946 10.12451172 164.8125 C12.65177181 161.02259681 14.7927768 157.07614285 16.9375 153.0625 C17.72221047 151.65194479 18.51008527 150.24314623 19.30078125 148.8359375 C22.76890666 142.63458312 26.1946415 136.40979058 29.625 130.1875 C30.31500429 128.9362691 31.00502718 127.68504845 31.69506836 126.43383789 C33.09792896 123.89003457 34.5006636 121.34616184 35.90332031 118.80224609 C38.93740768 113.29973377 41.9731386 107.79812835 45.00878906 102.29647827 C45.99810704 100.50343081 46.98734777 98.71034075 47.9765625 96.91723633 C51.06901685 91.3117462 54.16184438 85.70646288 57.25592041 80.10186768 C58.6989099 77.48799161 60.14169833 74.8740046 61.58447266 72.26000977 C62.26471138 71.02769555 62.9450459 69.7954342 63.62548828 68.56323242 C64.57609848 66.84177332 65.52633484 65.12010779 66.4765625 63.3984375 C67.01361816 62.42567871 67.55067383 61.45291992 68.10400391 60.45068359 C70.74727732 55.63996683 73.37154711 50.8188303 76 46 C50.92 45.67 25.84 45.34 0 45 C0 30.15 0 15.3 0 0 Z " fill="#FFFFFF" transform="translate(1384,1116)"/>
</svg>
