<svg xmlns="http://www.w3.org/2000/svg" viewBox="0 0 536 139">
<rect x="3" y="3" width="530" height="133" rx="12" fill="none" stroke="#ffffff" stroke-width="5"/>
<path d="M 128.0,124.5 L 115.5,124.0 L 115.5,117.0 L 116.5,116.0 L 115.5,86.0 L 111.5,72.0 L 105.5,60.0 L 88.0,42.5 L 71.0,35.5 L 56.0,31.5 L 51.0,27.5 L 45.0,26.5 L 41.5,23.0 L 45.0,19.5 L 48.5,18.0 L 47.0,16.5 L 43.0,16.5 L 16.0,19.5 L 12.5,23.0 L 16.0,26.5 L 23.0,29.5 L 30.0,34.5 L 32.0,33.5 L 36.0,35.5 L 46.0,45.5 L 48.5,46.0 L 53.5,53.0 L 57.5,62.0 L 58.5,72.0 L 59.5,73.0 L 59.5,84.0 L 55.5,104.0 L 53.5,107.0 L 51.5,115.0 L 46.0,124.5 L 19.5,124.0 L 26.5,117.0 L 41.5,97.0 L 49.5,80.0 L 48.0,78.5 L 43.5,87.0 L 33.5,101.0 L 10.0,124.5 L 9.5,13.0 L 128.0,12.5 L 128.5,46.0 L 126.5,49.0 L 127.5,51.0 L 127.5,69.0 L 126.0,69.5 L 113.0,56.5 L 111.5,58.0 L 121.5,69.0 L 128.5,80.0 L 128.0,124.5 Z" fill="#ffffff"/>
<text x="200" y="55" font-family="Heebo, Arial, sans-serif" font-size="33" font-weight="500" letter-spacing="12" fill="#ffffff">CIRCUIT</text>
<text x="200" y="108" font-family="Heebo, Arial, sans-serif" font-size="43" font-weight="800" letter-spacing="1" fill="#ffffff">PAUL RICARD</text>
</svg>