<?xml version="1.0" encoding="UTF-8"?>
<svg version="1.1" xmlns="http://www.w3.org/2000/svg" width="316" height="113">
<path d="M0 0 C1.07847198 -0.01283524 2.15694397 -0.02567047 3.26809692 -0.03889465 C5.03200272 -0.04997505 5.03200272 -0.04997505 6.83154297 -0.0612793 C8.03430878 -0.06935104 9.23707458 -0.07742279 10.47628784 -0.08573914 C13.03023833 -0.09960346 15.58420753 -0.11031504 18.13818359 -0.11816406 C22.03633119 -0.13533332 25.93362148 -0.17919511 29.83154297 -0.22338867 C32.31070339 -0.23351886 34.78987103 -0.24203394 37.26904297 -0.2487793 C38.43283478 -0.26628738 39.59662659 -0.28379547 40.79568481 -0.30183411 C47.34780016 -0.28436653 51.83144962 -0.1172467 56.94873047 4.17700195 C58.40844748 6.81231724 59.35792441 8.94507717 60.28466797 11.75512695 C60.56386078 12.53261292 60.84305359 13.31009888 61.13070679 14.11114502 C61.75074939 15.84485029 62.35989496 17.58247968 62.95983887 19.32324219 C64.01092759 22.35649144 65.10107397 25.37355057 66.19970703 28.38989258 C68.68567331 35.22569592 71.13108927 42.07562168 73.57373047 48.92700195 C74.41464816 51.27994809 75.25579281 53.63281312 76.09716797 55.9855957 C77.69129873 60.44348955 79.28162248 64.90271438 80.86962891 69.36279297 C82.10669911 72.83300363 83.35495151 76.29822719 84.62939453 79.75488281 C85.08282227 80.99117432 85.53625 82.22746582 86.00341797 83.5012207 C86.37708496 84.50499756 86.75075195 85.50877441 87.13574219 86.54296875 C88.72618362 91.69590346 88.84608016 96.06823017 86.69873047 101.11450195 C84.23009964 104.02395971 82.19417213 105.06040546 78.37969971 105.41751099 C77.41151306 105.41306976 76.44332642 105.40862854 75.44580078 105.40405273 C74.34496155 105.40390167 73.24412231 105.40375061 72.10992432 105.40359497 C70.9275116 105.3932724 69.74509888 105.38294983 68.52685547 105.37231445 C67.31173279 105.36948456 66.09661011 105.36665466 64.84466553 105.36373901 C60.96258712 105.35254149 57.08073918 105.32743729 53.19873047 105.30200195 C50.56722338 105.29197162 47.93571268 105.28284586 45.30419922 105.2746582 C38.85229763 105.25260352 32.40053052 105.21913 25.94873047 105.17700195 C26.93873047 102.20700195 27.92873047 99.23700195 28.94873047 96.17700195 C25.31873047 95.84700195 21.68873047 95.51700195 17.94873047 95.17700195 C17.28873047 97.48700195 16.62873047 99.79700195 15.94873047 102.17700195 C12.64873047 102.17700195 9.34873047 102.17700195 5.94873047 102.17700195 C6.60873047 100.19700195 7.26873047 98.21700195 7.94873047 96.17700195 C4.48373047 95.68200195 4.48373047 95.68200195 0.94873047 95.17700195 C1.47141513 92.41424018 2.05742633 89.85091436 2.94873047 87.17700195 C6.24873047 87.17700195 9.54873047 87.17700195 12.94873047 87.17700195 C12.28873047 89.48700195 11.62873047 91.79700195 10.94873047 94.17700195 C13.25873047 94.17700195 15.56873047 94.17700195 17.94873047 94.17700195 C18.05185547 93.31075195 18.15498047 92.44450195 18.26123047 91.55200195 C18.94873047 88.17700195 18.94873047 88.17700195 21.94873047 82.17700195 C26.56873047 82.17700195 31.18873047 82.17700195 35.94873047 82.17700195 C34.62873047 86.13700195 33.30873047 90.09700195 31.94873047 94.17700195 C35.24873047 94.17700195 38.54873047 94.17700195 41.94873047 94.17700195 C42.15369141 93.47833008 42.35865234 92.7796582 42.56982422 92.05981445 C42.83923828 91.14973633 43.10865234 90.2396582 43.38623047 89.30200195 C43.65306641 88.39708008 43.91990234 87.4921582 44.19482422 86.55981445 C44.94873047 84.17700195 44.94873047 84.17700195 45.94873047 82.17700195 C50.23873047 82.17700195 54.52873047 82.17700195 58.94873047 82.17700195 C56.36134079 74.89170393 53.77155871 67.60726508 51.17751408 60.32433414 C49.97319481 56.9428321 48.76994299 53.56095801 47.5690918 50.17822266 C46.18965966 46.29258018 44.80565617 42.40858003 43.42138672 38.5246582 C42.77291527 36.69500267 42.77291527 36.69500267 42.11134338 34.8283844 C41.71100388 33.70729782 41.31066437 32.58621124 40.89819336 31.43115234 C40.54511612 30.43853897 40.19203888 29.4459256 39.82826233 28.42323303 C39.14708306 26.24181568 39.14708306 26.24181568 37.94873047 25.17700195 C36.35359154 25.05427347 34.75318115 24.99919152 33.15356445 24.97167969 C31.62209023 24.94176186 31.62209023 24.94176186 30.05967712 24.91123962 C28.39407494 24.88617088 28.39407494 24.88617088 26.69482422 24.8605957 C25.56424088 24.83981461 24.43365753 24.81903351 23.26881409 24.79762268 C19.64135062 24.73200399 16.01381214 24.67318518 12.38623047 24.61450195 C9.93374861 24.57132844 7.48127447 24.52771455 5.02880859 24.48364258 C-0.9978038 24.37631012 -7.02449154 24.27456706 -13.05126953 24.17700195 C-12.74641887 22.75787323 -12.43862973 21.33937556 -12.12963867 19.92114258 C-11.95856094 19.13114868 -11.78748322 18.34115479 -11.61122131 17.52722168 C-10.80336576 14.13650463 -9.68193408 10.95375235 -8.48876953 7.67700195 C-8.05435547 6.47043945 -7.61994141 5.26387695 -7.17236328 4.02075195 C-5.43184344 -0.3942252 -4.57927788 0.04726613 0 0 Z " fill="#F4F5F9" transform="translate(42.05126953125,-0.177001953125)"/>
<path d="M0 0 C0.99033234 0.00424484 1.98066467 0.00848969 3.00100708 0.01286316 C6.14939095 0.02959253 9.29712363 0.06723456 12.4453125 0.10546875 C14.58592822 0.12052299 16.72655403 0.1342101 18.8671875 0.14648438 C24.10178291 0.17947715 29.33600117 0.22961919 34.5703125 0.29296875 C35.90902891 3.74924256 37.24036642 7.20831172 38.5703125 10.66796875 C38.951875 11.6528125 39.3334375 12.63765625 39.7265625 13.65234375 C40.0875 14.59335937 40.4484375 15.534375 40.8203125 16.50390625 C41.32304687 17.80787354 41.32304687 17.80787354 41.8359375 19.13818359 C42.5703125 21.29296875 42.5703125 21.29296875 42.5703125 23.29296875 C41.40459717 23.31278809 40.23888184 23.33260742 39.0378418 23.35302734 C34.71584345 23.42905834 30.39418288 23.51777951 26.07250977 23.61035156 C24.20148382 23.64865169 22.33038397 23.68350275 20.45922852 23.71484375 C17.77072731 23.76047199 15.08273527 23.81846963 12.39453125 23.87890625 C11.13814095 23.89623306 11.13814095 23.89623306 9.85636902 23.91390991 C5.94658213 24.01343332 3.8932172 24.07769895 0.5703125 26.29296875 C-0.46046222 28.26606743 -0.46046222 28.26606743 -1.22314453 30.61914062 C-1.54002228 31.51346802 -1.85690002 32.40779541 -2.18338013 33.32922363 C-2.51473969 34.29694702 -2.84609924 35.26467041 -3.1875 36.26171875 C-3.7102803 37.74859192 -3.7102803 37.74859192 -4.24362183 39.26550293 C-5.35690243 42.43806392 -6.45610661 45.61529114 -7.5546875 48.79296875 C-8.66343501 51.96952316 -9.77497985 55.14508638 -10.88717651 58.32043457 C-11.57875653 60.29826059 -12.26772932 62.2770005 -12.95388794 64.25671387 C-13.26446136 65.15104126 -13.57503479 66.04536865 -13.89501953 66.96679688 C-14.16798859 67.75574341 -14.44095764 68.54468994 -14.72219849 69.35754395 C-15.4296875 71.29296875 -15.4296875 71.29296875 -16.4296875 73.29296875 C-24.6796875 73.29296875 -32.9296875 73.29296875 -41.4296875 73.29296875 C-39.17915838 63.16558769 -39.17915838 63.16558769 -37.52197266 58.53295898 C-37.1546402 57.49836044 -36.78730774 56.4637619 -36.40884399 55.39781189 C-36.01611298 54.31004959 -35.62338196 53.22228729 -35.21875 52.1015625 C-34.80934174 50.95688004 -34.39993347 49.81219757 -33.9781189 48.63282776 C-33.11502237 46.22407288 -32.24922002 43.816286 -31.38085938 41.40942383 C-30.05855842 37.74120714 -28.74745528 34.06912533 -27.4375 30.39648438 C-26.59441838 28.04793704 -25.75069 25.69962176 -24.90625 23.3515625 C-24.51756744 22.26177597 -24.12888489 21.17198944 -23.72842407 20.04917908 C-18.12772424 4.58811668 -18.12772424 4.58811668 -13.83154297 1.3112793 C-9.15524201 -0.08852344 -4.85475775 -0.07884847 0 0 Z " fill="#F50000" transform="translate(41.4296875,31.70703125)"/>
<path d="M0 0 C1.63001953 0.01353516 1.63001953 0.01353516 3.29296875 0.02734375 C4.12441406 0.03894531 4.95585937 0.05054687 5.8125 0.0625 C6.8025 2.3725 7.7925 4.6825 8.8125 7.0625 C10.35821278 4.74393083 11.60868552 2.55611571 12.8125 0.0625 C14.4625 0.0625 16.1125 0.0625 17.8125 0.0625 C17.8125 1.0525 17.8125 2.0425 17.8125 3.0625 C18.328125 2.546875 18.84375 2.03125 19.375 1.5 C21.8125 0.0625 21.8125 0.0625 25.375 0.125 C28.8125 1.0625 28.8125 1.0625 30.75 2.8125 C31.99143286 5.44141664 32.12330287 7.18757347 31.8125 10.0625 C29.84427114 12.03072886 26.46441291 11.72498381 23.8125 12.0625 C26.1225 12.0625 28.4325 12.0625 30.8125 12.0625 C30.8125 13.3825 30.8125 14.7025 30.8125 16.0625 C27.61239699 17.6625515 24.28539683 17.55764569 20.8125 17.0625 C17.856801 15.01624685 17.00617982 13.77265935 16.0625 10.3125 C15.93875 9.19875 15.93875 9.19875 15.8125 8.0625 C14.4925 11.0325 13.1725 14.0025 11.8125 17.0625 C9.8325 17.0625 7.8525 17.0625 5.8125 17.0625 C4.4925 13.4325 3.1725 9.8025 1.8125 6.0625 C0.4925 6.0625 -0.8275 6.0625 -2.1875 6.0625 C-2.5175 9.3625 -2.8475 12.6625 -3.1875 16.0625 C-4.8375 16.0625 -6.4875 16.0625 -8.1875 16.0625 C-8.5175 11.1125 -8.8475 6.1625 -9.1875 1.0625 C-5.90230525 -0.03256492 -3.45086585 -0.03710608 0 0 Z M23.8125 4.0625 C22.8225 4.5575 22.8225 4.5575 21.8125 5.0625 C21.8125 5.7225 21.8125 6.3825 21.8125 7.0625 C23.4625 7.0625 25.1125 7.0625 26.8125 7.0625 C25.8225 6.0725 24.8325 5.0825 23.8125 4.0625 Z " fill="#F10000" transform="translate(207.1875,88.9375)"/>
<path d="M0 0 C0.99 0 1.98 0 3 0 C3 1.65 3 3.3 3 5 C4.32 5 5.64 5 7 5 C7 6.32 7 7.64 7 9 C5.68 9 4.36 9 3 9 C3.33 11.31 3.66 13.62 4 16 C5.32 16.33 6.64 16.66 8 17 C8 18.32 8 19.64 8 21 C6.72125 21.061875 5.4425 21.12375 4.125 21.1875 C3.04605469 21.23970703 3.04605469 21.23970703 1.9453125 21.29296875 C1.30335938 21.19628906 0.66140625 21.09960938 0 21 C-2.13586678 17.79619983 -2.23132175 16.98060033 -2.125 13.3125 C-2.10695312 12.50425781 -2.08890625 11.69601563 -2.0703125 10.86328125 C-2.04710937 10.24839844 -2.02390625 9.63351563 -2 9 C-2.66 9 -3.32 9 -4 9 C-4 12.96 -4 16.92 -4 21 C-5.65 21 -7.3 21 -9 21 C-9.33 17.04 -9.66 13.08 -10 9 C-10.99 9.33 -11.98 9.66 -13 10 C-13.33 13.63 -13.66 17.26 -14 21 C-15.65 21 -17.3 21 -19 21 C-19 15.72 -19 10.44 -19 5 C-8.375 3.75 -8.375 3.75 -5 6 C-2.12579877 3.28395285 -2.12579877 3.28395285 0 0 Z " fill="#F10000" transform="translate(173,56)"/>
<path d="M0 0 C0 1.32 0 2.64 0 4 C-0.66 4 -1.32 4 -2 4 C-1.938125 5.27875 -1.87625 6.5575 -1.8125 7.875 C-1.70703125 10.0546875 -1.70703125 10.0546875 -2 12 C-2.99 12.66 -3.98 13.32 -5 14 C-4.360625 14.20625 -3.72125 14.4125 -3.0625 14.625 C-1 16 -1 16 0 18.875 C0 22 0 22 -1.375 24.375 C-5.12744335 26.69794112 -8.68405289 26.683557 -13 26 C-13.99 25.34 -14.98 24.68 -16 24 C-16.56381964 19.94049858 -15.27228297 16.81684892 -14 13 C-14.33 12.34 -14.66 11.68 -15 11 C-15.3125 8.0625 -15.3125 8.0625 -15 5 C-11.72170731 1.00903498 -4.99547544 0 0 0 Z M-10 6 C-10 7.32 -10 8.64 -10 10 C-9.01 10 -8.02 10 -7 10 C-7 8.68 -7 7.36 -7 6 C-7.99 6 -8.98 6 -10 6 Z M-11 19 C-11 19.99 -11 20.98 -11 22 C-9.02 22 -7.04 22 -5 22 C-5 21.34 -5 20.68 -5 20 C-7.97 19.505 -7.97 19.505 -11 19 Z " fill="#F30000" transform="translate(183,87)"/>
<path d="M0 0 C3.78838539 0.6806806 3.78838539 0.6806806 7.1875 -0.0625 C9.875 -0.5 9.875 -0.5 12.875 1.5 C13.09637393 4.12697064 13.15662025 6.50893964 13.0625 9.125 C13.04219727 10.18460938 13.04219727 10.18460938 13.02148438 11.265625 C12.9861104 13.01074128 12.93230221 14.75546608 12.875 16.5 C11.225 16.5 9.575 16.5 7.875 16.5 C7.545 12.54 7.215 8.58 6.875 4.5 C5.885 4.83 4.895 5.16 3.875 5.5 C3.545 9.13 3.215 12.76 2.875 16.5 C1.555 16.5 0.235 16.5 -1.125 16.5 C-1.455 12.21 -1.785 7.92 -2.125 3.5 C-3.775 4.16 -5.425 4.82 -7.125 5.5 C-7.125 9.13 -7.125 12.76 -7.125 16.5 C-8.775 16.5 -10.425 16.5 -12.125 16.5 C-12.125 11.22 -12.125 5.94 -12.125 0.5 C-7.89983754 -0.17904397 -4.24118191 -0.64682118 0 0 Z " fill="#F30000" transform="translate(209.125,60.5)"/>
<path d="M0 0 C3.79185383 -0.05374281 7.58295298 -0.09354937 11.375 -0.125 C12.45523437 -0.14175781 13.53546875 -0.15851562 14.6484375 -0.17578125 C15.6796875 -0.18222656 16.7109375 -0.18867188 17.7734375 -0.1953125 C19.20308838 -0.21102295 19.20308838 -0.21102295 20.66162109 -0.22705078 C23 0 23 0 25 2 C25.1953125 5.2578125 25.1953125 5.2578125 25.125 9.125 C25.10695313 10.40632813 25.08890625 11.68765625 25.0703125 13.0078125 C25.04710937 13.99523438 25.02390625 14.98265625 25 16 C23.35 16 21.7 16 20 16 C20 12.04 20 8.08 20 4 C18.68 4.33 17.36 4.66 16 5 C15.67 8.63 15.34 12.26 15 16 C13.68 16 12.36 16 11 16 C10.67 12.04 10.34 8.08 10 4 C8.68 4 7.36 4 6 4 C6 7.96 6 11.92 6 16 C4.35 16 2.7 16 1 16 C0.67 10.72 0.34 5.44 0 0 Z " fill="#F4F5F9" transform="translate(249,32)"/>
<path d="M0 0 C0.75 1.75 0.75 1.75 1 4 C-0.9375 6.25 -0.9375 6.25 -3 8 C-2.195625 8.45375 -1.39125 8.9075 -0.5625 9.375 C2 11 2 11 3 13 C3.57142857 20.08571429 3.57142857 20.08571429 1.4375 23.5 C-1.9238388 25.56851618 -4.11959911 25.48505011 -8 25 C-10.375 23.9375 -10.375 23.9375 -12 22 C-12.94146479 18.36863581 -13.20520736 15.83948465 -12.3125 12.1875 C-10.81623311 9.69372185 -9.6956681 8.98841164 -7 8 C-7.33 6.68 -7.66 5.36 -8 4 C-2.25 0 -2.25 0 0 0 Z M-5 12 C-6.66621425 13.1645201 -6.66621425 13.1645201 -8 15 C-7.76956136 17.65466049 -7.76956136 17.65466049 -7 20 C-5.05396726 20.59070014 -5.05396726 20.59070014 -3 21 C-1.67254834 19.88741409 -1.67254834 19.88741409 -1.75 17.0625 C-1.87375 15.5465625 -1.87375 15.5465625 -2 14 C-2.99 13.34 -3.98 12.68 -5 12 Z " fill="#F4F5F9" transform="translate(201,23)"/>
<path d="M0 0 C1.32 0 2.64 0 4 0 C4.33 7.92 4.66 15.84 5 24 C1.04 24 -2.92 24 -7 24 C-10.56315478 20.43684522 -10.74509256 18.92821046 -11 14 C-10.1875 11.125 -10.1875 11.125 -9 9 C-6.04335481 7.5216774 -3.25770263 7.93967217 0 8 C0 5.36 0 2.72 0 0 Z M-5 12 C-6.01540112 16.10223585 -6.01540112 16.10223585 -5 20 C-3.68 20 -2.36 20 -1 20 C-1 17.36 -1 14.72 -1 12 C-2.32 12 -3.64 12 -5 12 Z " fill="#F4F5F9" transform="translate(216,24)"/>
<path d="M0 0 C1.875 1.1875 1.875 1.1875 3 3 C3.25 6.125 3.25 6.125 3 9 C1.03177114 10.96822886 -2.34808709 10.66248381 -5 11 C-2.69 11 -0.38 11 2 11 C1.67 12.65 1.34 14.3 1 16 C-6.95467422 16.61189802 -6.95467422 16.61189802 -10.5625 14.5 C-12.59373506 10.96741729 -12.686998 7.98295269 -12 4 C-9.12674021 -1.3360539 -5.54633041 -1.3865826 0 0 Z M-5 3 C-5.99 3.495 -5.99 3.495 -7 4 C-7 4.66 -7 5.32 -7 6 C-5.35 6 -3.7 6 -2 6 C-2.99 5.01 -3.98 4.02 -5 3 Z " fill="#F10000" transform="translate(193,61)"/>
<path d="M0 0 C2.42130331 3.63195496 2.21022785 5.38349348 2.125 9.6875 C2.10695313 10.86699219 2.08890625 12.04648438 2.0703125 13.26171875 C2.03550781 14.61716797 2.03550781 14.61716797 2 16 C0.04196493 16.05389087 -1.91648909 16.09274217 -3.875 16.125 C-5.51082031 16.15980469 -5.51082031 16.15980469 -7.1796875 16.1953125 C-10 16 -10 16 -12 14 C-12.25 11 -12.25 11 -12 8 C-9.4345406 5.4345406 -7.52313332 5.45953913 -4 5 C-7.10540926 3.78918149 -7.10540926 3.78918149 -11 4 C-11 2.68 -11 1.36 -11 0 C-7.17022458 -1.37871915 -3.92010499 -0.87113444 0 0 Z M-4 9 C-5.98 9.99 -5.98 9.99 -8 11 C-6.68 11.33 -5.36 11.66 -4 12 C-4 11.01 -4 10.02 -4 9 Z " fill="#F30000" transform="translate(307,61)"/>
<path d="M0 0 C0.7940625 0.06703125 1.588125 0.1340625 2.40625 0.203125 C4.5 0.75 4.5 0.75 6.5 3.75 C6.6953125 6.66796875 6.6953125 6.66796875 6.625 9.9375 C6.60695312 11.02417969 6.58890625 12.11085938 6.5703125 13.23046875 C6.53550781 14.47763672 6.53550781 14.47763672 6.5 15.75 C2.4096506 16.63002354 -1.30258142 16.98758973 -5.5 16.75 C-7.5 14.75 -7.5 14.75 -7.75 11.75 C-7.5 8.75 -7.5 8.75 -5.5 6.75 C-3.51178687 6.35235737 -1.51055661 6.01224651 0.5 5.75 C-1.99064888 5.06292445 -3.87886292 4.75 -6.5 4.75 C-6.5 3.43 -6.5 2.11 -6.5 0.75 C-4.04048544 -0.47975728 -2.71743376 -0.26468511 0 0 Z M-1.5 9.75 C-2.16 10.41 -2.82 11.07 -3.5 11.75 C-2.51 12.08 -1.52 12.41 -0.5 12.75 C0.16 12.42 0.82 12.09 1.5 11.75 C1.5 11.09 1.5 10.43 1.5 9.75 C0.51 9.75 -0.48 9.75 -1.5 9.75 Z " fill="#F20000" transform="translate(190.5,89.25)"/>
<path d="M0 0 C1.79133978 -0.05391993 3.58313899 -0.09275571 5.375 -0.125 C6.37273437 -0.14820312 7.37046875 -0.17140625 8.3984375 -0.1953125 C11 0 11 0 13 2 C13.1953125 5.2578125 13.1953125 5.2578125 13.125 9.125 C13.10695312 10.40632813 13.08890625 11.68765625 13.0703125 13.0078125 C13.04710937 13.99523438 13.02390625 14.98265625 13 16 C11.04196493 16.05389087 9.08351091 16.09274217 7.125 16.125 C5.48917969 16.15980469 5.48917969 16.15980469 3.8203125 16.1953125 C1 16 1 16 -1 14 C-0.75 10.4375 -0.75 10.4375 0 7 C2.70879335 5.64560332 5.00933268 5.93498549 8 6 C8 5.34 8 4.68 8 4 C5.69 4 3.38 4 1 4 C0.67 2.68 0.34 1.36 0 0 Z M4 10 C4 10.66 4 11.32 4 12 C5.32 11.67 6.64 11.34 8 11 C6.68 10.67 5.36 10.34 4 10 Z " fill="#F4F5F9" transform="translate(146,32)"/>
<path d="M0 0 C2.09768123 1.61665267 2.8983491 2.50273481 3.43359375 5.12109375 C3.43994339 8.88642847 3.4311636 11.29289169 1.4375 14.5625 C-1.92874109 16.54771911 -4.15426517 16.48071685 -8 16 C-10.375 14.9375 -10.375 14.9375 -12 13 C-12.93452809 9.39539164 -13.183875 6.82743749 -12.375 3.1875 C-11 1 -11 1 -8.75 -0.375 C-5.42910887 -1.12974798 -3.27117504 -0.92446251 0 0 Z M-5 3 C-5.99 3.495 -5.99 3.495 -7 4 C-7.84298574 6.38084878 -7.84298574 6.38084878 -8 9 C-7.01 10.485 -7.01 10.485 -6 12 C-4.68 11.67 -3.36 11.34 -2 11 C-1.7497843 8.08365871 -1.7497843 8.08365871 -2 5 C-2.99 4.34 -3.98 3.68 -5 3 Z " fill="#F4F5F9" transform="translate(288,32)"/>
<path d="M0 0 C1.82421875 1.93359375 1.82421875 1.93359375 2.21484375 5.2890625 C2.14523438 7.18591797 2.14523438 7.18591797 2.07421875 9.12109375 C2.038125 10.39339844 2.00203125 11.66570312 1.96484375 12.9765625 C1.89523438 14.44029297 1.89523438 14.44029297 1.82421875 15.93359375 C0.05414161 16.01473481 -1.71700223 16.0728488 -3.48828125 16.12109375 C-4.47441406 16.15589844 -5.46054688 16.19070312 -6.4765625 16.2265625 C-9.17578125 15.93359375 -9.17578125 15.93359375 -11.04296875 14.6171875 C-12.17578125 12.93359375 -12.17578125 12.93359375 -11.98828125 9.80859375 C-11.72015625 8.85984375 -11.45203125 7.91109375 -11.17578125 6.93359375 C-8.4669879 5.57919707 -6.16644857 5.86857924 -3.17578125 5.93359375 C-3.50578125 5.27359375 -3.83578125 4.61359375 -4.17578125 3.93359375 C-6.15578125 3.93359375 -8.13578125 3.93359375 -10.17578125 3.93359375 C-10.50578125 2.61359375 -10.83578125 1.29359375 -11.17578125 -0.06640625 C-7.18947241 -1.39517586 -3.86733599 -1.89548065 0 0 Z M-6.17578125 8.93359375 C-6.50578125 9.92359375 -6.83578125 10.91359375 -7.17578125 11.93359375 C-5.85578125 11.60359375 -4.53578125 11.27359375 -3.17578125 10.93359375 C-3.17578125 10.27359375 -3.17578125 9.61359375 -3.17578125 8.93359375 C-4.16578125 8.93359375 -5.15578125 8.93359375 -6.17578125 8.93359375 Z " fill="#F30000" transform="translate(157.17578125,90.06640625)"/>
<path d="M0 0 C2 2 2 2 2.1953125 5.2578125 C2.16050781 7.17207031 2.16050781 7.17207031 2.125 9.125 C2.10695312 10.40632813 2.08890625 11.68765625 2.0703125 13.0078125 C2.04710937 13.99523437 2.02390625 14.98265625 2 16 C0.04233719 16.08082094 -1.91626728 16.13910778 -3.875 16.1875 C-5.51082031 16.23970703 -5.51082031 16.23970703 -7.1796875 16.29296875 C-8.11039063 16.19628906 -9.04109375 16.09960938 -10 16 C-12 13 -12 13 -11.75 9.875 C-11.5025 8.92625 -11.255 7.9775 -11 7 C-8.29120665 5.64560332 -5.99066732 5.93498549 -3 6 C-3.33 5.34 -3.66 4.68 -4 4 C-5.98 4 -7.96 4 -10 4 C-10.33 2.68 -10.66 1.36 -11 0 C-7.02274741 -1.05280216 -3.99945368 -0.97764423 0 0 Z M-4 9 C-4.99 9.33 -5.98 9.66 -7 10 C-7 10.66 -7 11.32 -7 12 C-5.68 11.67 -4.36 11.34 -3 11 C-3.33 10.34 -3.66 9.68 -4 9 Z " fill="#F20000" transform="translate(235,61)"/>
<path d="M0 0 C2.4915904 3.7373856 2.45793285 5.57331583 2 10 C0.5 12.9375 0.5 12.9375 -2 15 C-4.82834327 15.7128816 -7.170087 15.70024432 -10 15 C-12.5625 13.0625 -12.5625 13.0625 -14 10 C-14.11247405 6.89357384 -13.83601134 3.99668854 -13 1 C-8.83366948 -3.16633052 -5.27032164 -1.95197098 0 0 Z M-6 2 C-7.66621425 3.1645201 -7.66621425 3.1645201 -9 5 C-8.76956136 7.65466049 -8.76956136 7.65466049 -8 10 C-6.05396726 10.59070014 -6.05396726 10.59070014 -4 11 C-2.67254834 9.88741409 -2.67254834 9.88741409 -2.75 7.0625 C-2.87375 5.5465625 -2.87375 5.5465625 -3 4 C-3.99 3.34 -4.98 2.68 -6 2 Z " fill="#F4F5F9" transform="translate(246,33)"/>
<path d="M0 0 C2.1068657 1.61113259 2.89781614 2.50012759 3.43359375 5.12109375 C3.43994339 8.88642847 3.4311636 11.29289169 1.4375 14.5625 C-1.92874109 16.54771911 -4.15426517 16.48071685 -8 16 C-10.19140625 14.78515625 -10.19140625 14.78515625 -12 13 C-12.49609375 10.625 -12.49609375 10.625 -12.4375 8 C-12.43621094 7.13375 -12.43492187 6.2675 -12.43359375 5.375 C-11.92115321 2.56811848 -11.25525297 1.69807282 -9 0 C-5.45026831 -1.1832439 -3.60040463 -0.90010116 0 0 Z M-5 3 C-7.14991567 3.80184414 -7.14991567 3.80184414 -7.75 5.8125 C-8.05694702 8.49828639 -7.38111722 9.7252187 -6 12 C-4.68 11.67 -3.36 11.34 -2 11 C-1.7497843 8.08365871 -1.7497843 8.08365871 -2 5 C-2.99 4.34 -3.98 3.68 -5 3 Z " fill="#F10000" transform="translate(274,61)"/>
<path d="M0 0 C1.65 0 3.3 0 5 0 C5.33 3.63 5.66 7.26 6 11 C6.99 11 7.98 11 9 11 C9.33 7.37 9.66 3.74 10 0 C11.65 0 13.3 0 15 0 C15 5.28 15 10.56 15 16 C13.06125 16.020625 11.1225 16.04125 9.125 16.0625 C8.03445312 16.07410156 6.94390625 16.08570312 5.8203125 16.09765625 C3 16 3 16 1 15 C-0.09506492 11.71480525 -0.09960608 9.26336585 -0.0625 5.8125 C-0.05347656 4.72582031 -0.04445312 3.63914063 -0.03515625 2.51953125 C-0.02355469 1.68808594 -0.01195312 0.85664062 0 0 Z " fill="#F4F5F9" transform="translate(161,32)"/>
<path d="M0 0 C2.0109214 3.81123955 2.13470876 6.58191729 1.625 10.8125 C1.45871094 12.27623047 1.45871094 12.27623047 1.2890625 13.76953125 C1.14597656 14.87361328 1.14597656 14.87361328 1 16 C-0.32 16 -1.64 16 -3 16 C-3.33 12.04 -3.66 8.08 -4 4 C-5.32 4 -6.64 4 -8 4 C-8 7.96 -8 11.92 -8 16 C-9.65 16 -11.3 16 -13 16 C-13 10.72 -13 5.44 -13 0 C-3.51413428 -1.44699647 -3.51413428 -1.44699647 0 0 Z " fill="#F30000" transform="translate(292,61)"/>
<path d="M0 0 C0 1.98 0 3.96 0 6 C-1.32 6 -2.64 6 -4 6 C-4.33 5.34 -4.66 4.68 -5 4 C-5.99 4.495 -5.99 4.495 -7 5 C-7.042721 6.66611905 -7.04063832 8.33382885 -7 10 C-5.81575674 11.41577477 -5.81575674 11.41577477 -2.4375 11.0625 C-0.7359375 11.0315625 -0.7359375 11.0315625 1 11 C0.34 12.65 -0.32 14.3 -1 16 C-8.2 16.48 -8.2 16.48 -11.5 14.5 C-13.61677916 10.97203474 -13.684469 8.01610126 -13 4 C-11.6682036 1.40299702 -10.8344775 0.37407612 -8.1875 -0.8125 C-5.33088326 -1.05735286 -2.79764842 -0.57224627 0 0 Z " fill="#F00000" transform="translate(252,61)"/>
<path d="M0 0 C1.32 0 2.64 0 4 0 C4 1.32 4 2.64 4 4 C5.32 4 6.64 4 8 4 C8 5.32 8 6.64 8 8 C6.68 8 5.36 8 4 8 C4 10.64 4 13.28 4 16 C5.32 16 6.64 16 8 16 C8 17.32 8 18.64 8 20 C4.625 20.125 4.625 20.125 1 20 C-1 18 -1 18 -1.1953125 15.6171875 C-1.17210937 14.71226563 -1.14890625 13.80734375 -1.125 12.875 C-1.10695312 11.96492188 -1.08890625 11.05484375 -1.0703125 10.1171875 C-1.04710937 9.41851562 -1.02390625 8.71984375 -1 8 C-1.66 8 -2.32 8 -3 8 C-3 6.68 -3 5.36 -3 4 C-2.34 3.67 -1.68 3.34 -1 3 C-0.67 2.01 -0.34 1.02 0 0 Z " fill="#F4F5F9" transform="translate(180,28)"/>
<path d="M0 0 C1.65 0 3.3 0 5 0 C5 7.92 5 15.84 5 24 C3.35 24 1.7 24 0 24 C0 16.08 0 8.16 0 0 Z " fill="#F40000" transform="translate(311,53)"/>
<path d="M0 0 C1.65 0 3.3 0 5 0 C5 7.59 5 15.18 5 23 C3.35 23 1.7 23 0 23 C0 15.41 0 7.82 0 0 Z " fill="#F50000" transform="translate(161,82)"/>
<path d="M0 0 C2.97 0 5.94 0 9 0 C9 1.32 9 2.64 9 4 C7.68 4.33 6.36 4.66 5 5 C5 8.63 5 12.26 5 16 C3.35 16 1.7 16 0 16 C0 10.72 0 5.44 0 0 Z " fill="#F4F5F9" transform="translate(223,32)"/>
<path d="M0 0 C2.31 0 4.62 0 7 0 C7 5.28 7 10.56 7 16 C5.35 16 3.7 16 2 16 C2 12.04 2 8.08 2 4 C1.34 4 0.68 4 0 4 C0 2.68 0 1.36 0 0 Z " fill="#F50000" transform="translate(253,61)"/>
<path d="M0 0 C2.31 0 4.62 0 7 0 C7 5.28 7 10.56 7 16 C5.35 16 3.7 16 2 16 C2 12.04 2 8.08 2 4 C1.34 4 0.68 4 0 4 C0 2.68 0 1.36 0 0 Z " fill="#F50000" transform="translate(145,61)"/>
<path d="M0 0 C1.65 0 3.3 0 5 0 C5 1.98 5 3.96 5 6 C3.35 6 1.7 6 0 6 C0 4.02 0 2.04 0 0 Z " fill="#F40000" transform="translate(255,53)"/>
<path d="M0 0 C1.65 0 3.3 0 5 0 C5 1.98 5 3.96 5 6 C3.35 6 1.7 6 0 6 C0 4.02 0 2.04 0 0 Z " fill="#F40000" transform="translate(147,53)"/>
</svg>
