<?xml version="1.0" encoding="UTF-8"?>
<svg version="1.1" xmlns="http://www.w3.org/2000/svg" width="467" height="268">
<path d="M0 0 C-2.12912942 2.29936759 -4.19707092 3.82807087 -6.93890381 5.33488464 C-7.73861603 5.77654465 -8.53832825 6.21820465 -9.36227417 6.67324829 C-10.67519943 7.38642715 -10.67519943 7.38642715 -12.01464844 8.11401367 C-12.94111176 8.62163742 -13.86757507 9.12926117 -14.82211304 9.65226746 C-23.5213047 14.39553828 -32.28869493 19.00957658 -41.07647324 23.58626842 C-46.94774884 26.64513863 -52.78898301 29.74208077 -58.58203125 32.94799805 C-93.66014111 52.31256663 -121.94281225 59.05409646 -162 55 C-162 54.34 -162 53.68 -162 53 C-149.2221665 45.94438625 -136.37396854 39.03327368 -123.43943024 32.2689743 C-117.42831256 29.12154532 -111.44651751 25.9353344 -105.51269531 22.64404297 C-69.15061333 2.52794381 -41.32397727 -4.22101502 0 0 Z " fill="#F4F5F9" transform="translate(304,66)"/>
<path d="M0 0 C1.70329305 1.42389913 3.30071978 2.87805434 4.8515625 4.46484375 C3.40769668 8.17764159 1.72919858 9.41348805 -1.7734375 11.21484375 C-2.59070312 11.6428125 -3.40796875 12.07078125 -4.25 12.51171875 C-4.87648437 12.82625 -5.50296875 13.14078125 -6.1484375 13.46484375 C-7.0559375 12.82546875 -7.9634375 12.18609375 -8.8984375 11.52734375 C-13.58559874 8.55279912 -17.00075987 8.30952719 -22.5234375 8.27734375 C-23.62429687 8.26316406 -24.72515625 8.24898437 -25.859375 8.234375 C-29.26319026 8.47288462 -31.97259936 9.25111709 -35.1484375 10.46484375 C-35.1484375 11.78484375 -35.1484375 13.10484375 -35.1484375 14.46484375 C-31.18557119 15.72009721 -27.14014682 15.72478313 -23.0234375 15.90234375 C-4.76571956 16.86847326 -4.76571956 16.86847326 2.8515625 22.46484375 C6.20584411 27.11755695 6.75115967 31.8973368 5.8515625 37.46484375 C2.87535323 43.30703232 -1.10386775 46.90725149 -7.2109375 49.21484375 C-17.71935565 52.09083188 -33.32084297 52.63929431 -43.1484375 47.46484375 C-45.84704328 45.75425211 -48.31156035 44.10459435 -50.1484375 41.46484375 C-50.609375 38.9765625 -50.609375 38.9765625 -50.1484375 36.46484375 C-48.1796875 34.6640625 -48.1796875 34.6640625 -45.6484375 33.15234375 C-44.813125 32.64058594 -43.9778125 32.12882812 -43.1171875 31.6015625 C-42.4675 31.22644531 -41.8178125 30.85132813 -41.1484375 30.46484375 C-39.78125 31.70182292 -38.4140625 32.93880208 -37.046875 34.17578125 C-32.41297286 37.32225801 -27.62904579 37.75931543 -22.1484375 37.77734375 C-20.9728125 37.79410156 -19.7971875 37.81085938 -18.5859375 37.828125 C-14.83241265 37.43144567 -12.39513858 36.3406055 -9.1484375 34.46484375 C-9.1484375 33.47484375 -9.1484375 32.48484375 -9.1484375 31.46484375 C-11.6201163 30.22900435 -13.51657826 30.21020951 -16.27734375 30.03515625 C-17.31310547 29.96167969 -18.34886719 29.88820312 -19.41601562 29.8125 C-21.58489335 29.66593683 -23.75417089 29.52515694 -25.92382812 29.390625 C-42.14903244 28.20951821 -42.14903244 28.20951821 -47.1484375 22.46484375 C-50.13538812 17.98441782 -50.50949376 14.7904236 -50.1484375 9.46484375 C-48.06529506 3.67833696 -44.60202048 0.19857015 -39.203125 -2.51171875 C-28.10299503 -6.65009473 -9.91455179 -7.08439792 0 0 Z " fill="#F4F5F9" transform="translate(63.1484375,174.53515625)"/>
<path d="M0 0 C-2.42185075 2.72454474 -4.9767711 4.1986409 -8.20715332 5.8583374 C-9.26972099 6.40722752 -10.33228867 6.95611763 -11.42705536 7.52164078 C-13.15795788 8.40376551 -13.15795788 8.40376551 -14.92382812 9.30371094 C-16.14148373 9.92891844 -17.35897188 10.55445219 -18.57630157 11.18029404 C-31.11813613 17.61560656 -43.72613927 23.92020681 -56.34342766 30.20594501 C-59.57575015 31.81696786 -62.80667201 33.430795 -66.03771973 35.04437256 C-74.19059604 39.11535581 -82.34519909 43.18287372 -90.5 47.25 C-99.34303803 51.66040533 -108.18572847 56.07150111 -117.02646303 60.48652244 C-120.21464165 62.07856213 -123.40322761 63.66977303 -126.59288025 65.25885773 C-151.02538183 77.35215209 -151.02538183 77.35215209 -174.96484375 90.3828125 C-187.31339846 97.30025661 -196.90260365 99.51371176 -211 98 C-208.88550617 95.70038502 -206.91448579 94.2718884 -204.12255859 92.88426208 C-203.33813385 92.4907103 -202.55370911 92.09715851 -201.74551392 91.69168091 C-200.45996109 91.05817215 -200.45996109 91.05817215 -199.1484375 90.41186523 C-197.78904556 89.73304543 -197.78904556 89.73304543 -196.40219116 89.04051208 C-193.3958737 87.54095471 -190.38543509 86.04986514 -187.375 84.55859375 C-185.27216963 83.51125057 -183.16963499 82.46331345 -181.06738281 81.41481018 C-175.51398913 78.64668745 -169.95721907 75.88541448 -164.39953613 73.12591553 C-155.56139072 68.73635726 -146.72813933 64.33696563 -137.89532471 59.93669319 C-134.83547742 58.41364052 -131.7740714 56.89376086 -128.71240234 55.37437439 C-117.47363084 49.78872839 -106.32066677 44.066669 -95.23486328 38.1836338 C-84.69585773 32.60193968 -74.10133361 27.12672339 -63.47872925 21.7060833 C-59.30999822 19.57760919 -55.14992862 17.43494246 -51.00585938 15.25878906 C-46.92901872 13.11861359 -42.83398221 11.01772651 -38.7243042 8.94134903 C-37.18680133 8.15655739 -35.65585484 7.35875246 -34.13262939 6.54659653 C-22.50457605 0.36309241 -13.12017458 -1.00725483 0 0 Z " fill="#F4F5F9" transform="translate(338,66)"/>
<path d="M0 0 C5.00477762 3.07902623 8.93396886 7.61087544 10.375 13.375 C10.375 16.675 10.375 19.975 10.375 23.375 C-0.185 23.375 -10.745 23.375 -21.625 23.375 C-17.42696159 28.49470092 -17.42696159 28.49470092 -13.6875 28.96875 C-12.676875 28.9378125 -11.66625 28.906875 -10.625 28.875 C-9.614375 28.8646875 -8.60375 28.854375 -7.5625 28.84375 C-4.543356 28.55164422 -4.543356 28.55164422 -2 26.78125 C0.375 25.375 0.375 25.375 2.515625 25.46484375 C4.82869935 26.59708393 5.72140507 27.79311885 7.125 29.9375 C7.55296875 30.57816406 7.9809375 31.21882813 8.421875 31.87890625 C8.73640625 32.37261719 9.0509375 32.86632812 9.375 33.375 C1.79379354 40.2341868 -5.42055714 41.00269152 -15.40234375 40.7578125 C-22.27365148 40.33284619 -27.30130834 37.69869166 -32.125 32.875 C-35.96516261 26.47472899 -36.38868802 20.72549722 -35.625 13.375 C-33.91155595 7.4363587 -30.66515946 3.80230843 -25.625 0.375 C-17.95452454 -2.73702147 -7.67785109 -3.51657302 0 0 Z M-21.625 12.375 C-21.625 13.035 -21.625 13.695 -21.625 14.375 C-15.685 14.375 -9.745 14.375 -3.625 14.375 C-5.27356825 10.25096527 -5.27356825 10.25096527 -8.625 8.375 C-14.44065801 7.81219439 -17.41894326 7.90606471 -21.625 12.375 Z " fill="#F4F5F9" transform="translate(184.625,184.625)"/>
<path d="M0 0 C4.54648677 2.8069614 7.41865949 6.32569891 9.6875 11.1875 C10.375 14.375 10.375 14.375 10.375 23.375 C-4.97 23.87 -4.97 23.87 -20.625 24.375 C-16.84993798 28.15006202 -15.47797945 28.54112212 -10.3125 28.625 C-5.78373936 28.60726334 -3.38238228 27.99378159 0.375 25.375 C2.4375 25.375 2.4375 25.375 4.375 26.375 C6.6875 28.6875 6.6875 28.6875 8.375 31.375 C8.234375 33.37109375 8.234375 33.37109375 7.375 35.375 C1.06422835 40.81285312 -6.89993568 41.20168467 -14.83984375 40.7890625 C-21.65613182 40.04342108 -26.3062194 38.08560769 -31.0625 33.125 C-35.04853617 27.90993602 -35.87926245 22.83893367 -35.5625 16.375 C-34.70181139 10.1493524 -32.56791786 5.70551877 -27.59765625 1.76953125 C-19.58984428 -2.98718901 -8.58601543 -3.85395011 0 0 Z M-20.625 11.375 C-20.955 12.365 -21.285 13.355 -21.625 14.375 C-15.685 14.375 -9.745 14.375 -3.625 14.375 C-4.16319376 10.46249364 -4.16319376 10.46249364 -6.25 9.125 C-11.69604015 7.40519785 -16.12556065 7.80191581 -20.625 11.375 Z " fill="#F4F5F9" transform="translate(434.625,184.625)"/>
<path d="M0 0 C4.47822542 3.15710035 7.06400845 7.08196532 8.80078125 12.26953125 C9.67715657 19.65757902 9.30840561 26.16576449 4.80078125 32.26953125 C-0.66012007 37.88212427 -7.05925123 39.45061753 -14.63671875 39.70703125 C-21.49102451 39.51663387 -26.77851366 38.24790378 -32.01171875 33.69140625 C-36.21391112 29.20637401 -38.11210234 24.90119645 -38.26171875 18.6640625 C-37.97586924 12.18778465 -36.81219377 7.00023881 -32.19921875 2.26953125 C-23.33459716 -4.73334901 -9.89449554 -5.27333755 0 0 Z M-24.19921875 13.26953125 C-25.36248543 17.6317813 -25.35560416 20.28021823 -23.19921875 24.26953125 C-21.28126435 27.25301588 -19.95456667 27.32568091 -16.38671875 28.14453125 C-12.25329269 28.52514138 -9.69055566 27.59708919 -6.19921875 25.26953125 C-3.7240213 21.55673507 -3.553354 18.5725003 -4.19921875 14.26953125 C-5.45308881 11.18135393 -5.45308881 11.18135393 -8.19921875 9.26953125 C-14.94696771 7.24268874 -19.20439398 8.27470648 -24.19921875 13.26953125 Z " fill="#F4F5F9" transform="translate(339.19921875,185.73046875)"/>
<path d="M0 0 C1.18710571 0.00918457 1.18710571 0.00918457 2.39819336 0.01855469 C7.97959765 0.16795911 13.75135465 0.57629811 18.125 4.4375 C19.0078125 6.37109375 19.0078125 6.37109375 19.125 8.4375 C18.05078125 10.17578125 18.05078125 10.17578125 16.4375 11.75 C15.91800781 12.28238281 15.39851563 12.81476563 14.86328125 13.36328125 C13.125 14.4375 13.125 14.4375 11.05078125 14.171875 C9.125 13.4375 9.125 13.4375 7 12.375 C2.80707827 11.00774291 -1.5098322 10.74943118 -5.875 11.4375 C-7.51169088 12.91215716 -7.51169088 12.91215716 -8.875 14.4375 C-8.30056152 14.48237549 -7.72612305 14.52725098 -7.13427734 14.57348633 C-4.50497006 14.78619374 -1.87766639 15.01793211 0.75 15.25 C1.65363281 15.32025391 2.55726563 15.39050781 3.48828125 15.46289062 C9.58447097 16.01911231 14.80678885 16.73292033 19 21.625 C20.47519456 25.31298639 20.78047102 28.5580262 20.125 32.4375 C17.93676978 37.3848031 14.99718248 39.79628054 10.0859375 41.74609375 C1.06112794 43.85347013 -9.61686739 43.80945256 -17.875 39.4375 C-20.375 37.75 -20.375 37.75 -21.875 36.4375 C-21.40297514 32.18927626 -18.90844482 30.23760291 -15.875 27.4375 C-14.823125 27.870625 -14.823125 27.870625 -13.75 28.3125 C-12.80125 28.68375 -11.8525 29.055 -10.875 29.4375 C-9.946875 29.80875 -9.01875 30.18 -8.0625 30.5625 C-3.39615733 31.84345681 1.02108979 32.27906409 5.625 30.4375 C6.12 30.1075 6.615 29.7775 7.125 29.4375 C3.77190448 26.08440448 -1.46419848 26.70539171 -6.046875 26.40234375 C-11.34343769 25.94063681 -14.65899707 24.94221409 -18.875 21.4375 C-21.70495141 17.19257289 -21.64036918 13.42037228 -20.875 8.4375 C-15.7987237 1.20765193 -8.25510586 -0.10798957 0 0 Z " fill="#F4F5F9" transform="translate(249.875,182.5625)"/>
<path d="M0 0 C4.29 0 8.58 0 13 0 C13.33 1.32 13.66 2.64 14 4 C14.70125 3.34 15.4025 2.68 16.125 2 C21.36077112 -1.49884466 28.01093192 -0.6824752 34 0 C38.08304233 1.20328069 40.38819105 3.00780431 42.6574707 6.68798828 C44.20308285 10.50100417 44.34384617 13.26307575 44.29296875 17.3671875 C44.28872391 18.04677521 44.28447906 18.72636292 44.28010559 19.42654419 C44.26344266 21.57644924 44.22581716 23.72538299 44.1875 25.875 C44.172437 27.3411322 44.15875143 28.80727924 44.14648438 30.2734375 C44.1135808 33.84926875 44.06188663 37.42453941 44 41 C40.04 41 36.08 41 32 41 C31.92652344 38.70482422 31.92652344 38.70482422 31.8515625 36.36328125 C31.7765134 34.34633656 31.70096649 32.32941035 31.625 30.3125 C31.5940625 29.30509766 31.563125 28.29769531 31.53125 27.25976562 C31.49257813 26.28330078 31.45390625 25.30683594 31.4140625 24.30078125 C31.36693115 22.95753784 31.36693115 22.95753784 31.31884766 21.5871582 C30.8824214 18.04595677 30.15898313 14.98067803 27.375 12.625 C23.86031035 11.70008167 20.4760594 11.93648285 17 13 C14.62286939 14.76200235 14.05323069 15.67553627 13.56762695 18.63549805 C13.54144287 19.66715088 13.51525879 20.69880371 13.48828125 21.76171875 C13.45283203 22.87998047 13.41738281 23.99824219 13.38085938 25.15039062 C13.34702148 26.90125977 13.34702148 26.90125977 13.3125 28.6875 C13.27833984 29.86634766 13.24417969 31.04519531 13.20898438 32.25976562 C13.12642761 35.17284019 13.06153987 38.08640568 13 41 C8.71 41 4.42 41 0 41 C0 27.47 0 13.94 0 0 Z " fill="#F4F5F9" transform="translate(351,183)"/>
<path d="M0 0 C-2.16912413 2.36548311 -4.25225412 3.82814049 -7.09849548 5.29692078 C-7.93195999 5.73016663 -8.7654245 6.16341248 -9.62414551 6.60978699 C-10.53571411 7.07588882 -11.44728271 7.54199066 -12.38647461 8.0222168 C-13.34965103 8.52008698 -14.31282745 9.01795715 -15.30519104 9.53091431 C-24.81442689 14.43444602 -34.35660402 19.27456791 -43.9038114 24.10366505 C-49.30716053 26.83745516 -54.69966734 29.59041504 -60.0769043 32.37524414 C-65.86563496 35.37143101 -71.67352312 38.32689951 -77.49670601 41.25553322 C-79.70058874 42.37205446 -81.89764191 43.50217501 -84.08711052 44.64670372 C-98.13453757 51.972814 -109.07671681 55.7546589 -125 54 C-121.61547186 51.38352523 -118.10989457 49.43324925 -114.27734375 47.55859375 C-113.28801598 47.06783104 -113.28801598 47.06783104 -112.27870178 46.56715393 C-110.16684499 45.52009002 -108.05241454 44.47837208 -105.9375 43.4375 C-97.24166694 39.14907311 -88.57640611 34.81651209 -80 30.29296875 C-79.21950287 29.88131973 -78.43900574 29.46967072 -77.63485718 29.04554749 C-73.12781975 26.6636522 -68.62868766 24.26736146 -64.13305664 21.86401367 C-58.87597631 19.05903755 -53.59606905 16.30081011 -48.30297852 13.56445312 C-46.1366773 12.43503216 -43.97809176 11.29069128 -41.82739258 10.13183594 C-27.51124111 2.43439744 -16.36591729 -1.955539 0 0 Z " fill="#F4F5F9" transform="translate(287,110)"/>
<path d="M0 0 C-2.7349375 2.15426909 -5.44118391 3.84096278 -8.55883789 5.38500977 C-9.45820572 5.8330043 -10.35757355 6.28099884 -11.28419495 6.74256897 C-12.25388718 7.22068527 -13.22357941 7.69880157 -14.22265625 8.19140625 C-15.23734482 8.69614975 -16.25203339 9.20089325 -17.29747009 9.72093201 C-20.55060232 11.33860196 -23.80633842 12.95093754 -27.0625 14.5625 C-43.27832314 22.59962968 -59.46230589 30.67078513 -75.33569336 39.37036133 C-107.90826286 57.21257467 -107.90826286 57.21257467 -125 54 C-122.83087587 51.63451689 -120.74774588 50.17185951 -117.90150452 48.70307922 C-117.06804001 48.26983337 -116.2345755 47.83658752 -115.37585449 47.39021301 C-114.46428589 46.92411118 -113.55271729 46.45800934 -112.61352539 45.9777832 C-111.16876076 45.23097794 -111.16876076 45.23097794 -109.69480896 44.46908569 C-100.18557311 39.56555398 -90.64339598 34.72543209 -81.0961886 29.89633495 C-75.69283947 27.16254484 -70.30033266 24.40958496 -64.9230957 21.62475586 C-59.13436504 18.62856899 -53.32647688 15.67310049 -47.50329399 12.74446678 C-45.29941126 11.62794554 -43.10235809 10.49782499 -40.91288948 9.35329628 C-26.86546243 2.027186 -15.92328319 -1.7546589 0 0 Z " fill="#F4F5F9" transform="translate(323,110)"/>
<path d="M0 0 C4.95 0 9.9 0 15 0 C19.455 13.365 19.455 13.365 24 27 C26.92006084 18.48949572 26.92006084 18.48949572 29.83374023 9.97680664 C30.19669189 8.92356201 30.55964355 7.87031738 30.93359375 6.78515625 C31.30540771 5.70113525 31.67722168 4.61711426 32.06030273 3.50024414 C33 1 33 1 34 0 C36.35313555 -0.07271741 38.70833668 -0.08370868 41.0625 -0.0625 C42.35285156 -0.05347656 43.64320313 -0.04445312 44.97265625 -0.03515625 C45.97167969 -0.02355469 46.97070312 -0.01195312 48 0 C43.6060936 13.44410223 38.9553682 26.75197482 34 40 C27.73 40 21.46 40 15 40 C11.33153484 31.34771011 7.93169639 22.63190795 4.6875 13.8125 C4.23310547 12.58724609 3.77871094 11.36199219 3.31054688 10.09960938 C0 1.13375235 0 1.13375235 0 0 Z " fill="#F4F5F9" transform="translate(103,184)"/>
<path d="M0 0 C4.29 0 8.58 0 13 0 C13 2.64 13 5.28 13 8 C16.96 8 20.92 8 25 8 C25 11.63 25 15.26 25 19 C21.04 19 17.08 19 13 19 C13.14019692 21.81288705 13.28687955 24.62516885 13.4375 27.4375 C13.47681641 28.23994141 13.51613281 29.04238281 13.55664062 29.86914062 C13.4054296 33.75239561 13.4054296 33.75239561 15 37 C16.68183948 37.23287008 18.3712416 37.41264166 20.0625 37.5625 C21.691875 37.706875 23.32125 37.85125 25 38 C25 41.63 25 45.26 25 49 C22.27022936 49.08126109 19.5428983 49.14061663 16.8125 49.1875 C15.65911133 49.22520508 15.65911133 49.22520508 14.48242188 49.26367188 C9.81187726 49.32380764 6.78042545 49.05424203 3 46 C-0.75196051 40.37205923 -0.13549025 33.61477896 -0.0625 27.0625 C-0.05798828 26.28326172 -0.05347656 25.50402344 -0.04882812 24.70117188 C-0.03716908 22.80074732 -0.01923877 20.90036294 0 19 C-1.65 19 -3.3 19 -5 19 C-5 15.37 -5 11.74 -5 8 C-3.35 8 -1.7 8 0 8 C0 5.36 0 2.72 0 0 Z " fill="#F4F5F9" transform="translate(276,175)"/>
<path d="M0 0 C4.29 0 8.58 0 13 0 C13.33 0.99 13.66 1.98 14 3 C14.61875 2.505 15.2375 2.01 15.875 1.5 C20.38244472 -0.66357347 24.02636676 -0.19894533 29 0 C29 3.63 29 7.26 29 11 C26.265625 11.1953125 23.53125 11.390625 20.796875 11.5859375 C17.68415798 11.8984174 17.68415798 11.8984174 14 14 C13.67 22.58 13.34 31.16 13 40 C8.71 40 4.42 40 0 40 C0 26.8 0 13.6 0 0 Z " fill="#F4F5F9" transform="translate(198,184)"/>
<path d="M0 0 C3.96 0 7.92 0 12 0 C12 17.82 12 35.64 12 54 C8.04 54 4.08 54 0 54 C0 36.18 0 18.36 0 0 Z " fill="#F4F5F9" transform="translate(90,170)"/>
<path d="M0 0 C4.29 0 8.58 0 13 0 C13 13.2 13 26.4 13 40 C8.71 40 4.42 40 0 40 C0 26.8 0 13.6 0 0 Z " fill="#F4F5F9" transform="translate(73,184)"/>
<path d="M0 0 C4.29 0 8.58 0 13 0 C13 3.63 13 7.26 13 11 C8.71 11 4.42 11 0 11 C0 7.37 0 3.74 0 0 Z " fill="#F4F5F9" transform="translate(73,170)"/>
<path d="" fill="#F4F5F9" transform="translate(0,0)"/>
<path d="" fill="#F4F5F9" transform="translate(0,0)"/>
</svg>
