<?xml version="1.0" encoding="UTF-8"?>
<svg version="1.1" xmlns="http://www.w3.org/2000/svg" width="500" height="217">
<path d="M0 0 C8.58 0 17.16 0 26 0 C26.185625 4.104375 26.37125 8.20875 26.5625 12.4375 C26.62381104 13.73357178 26.68512207 15.02964355 26.74829102 16.36499023 C26.79139404 17.37762939 26.83449707 18.39026855 26.87890625 19.43359375 C26.9260376 20.47572021 26.97316895 21.51784668 27.02172852 22.59155273 C27 25 27 25 26 26 C24.07332493 26.08748207 22.14348139 26.10697334 20.21484375 26.09765625 C19.04501953 26.09443359 17.87519531 26.09121094 16.66992188 26.08789062 C15.43822266 26.07951172 14.20652344 26.07113281 12.9375 26.0625 C11.08415039 26.05573242 11.08415039 26.05573242 9.19335938 26.04882812 C6.12888587 26.03699618 3.06443707 26.01906008 0 26 C0 33.92 0 41.84 0 50 C12.54 50 25.08 50 38 50 C38 62.21 38 74.42 38 87 C50.21 87 62.42 87 75 87 C75 99.87 75 112.74 75 126 C62.79 126 50.58 126 38 126 C38 140.85 38 155.7 38 171 C22.49 171 6.98 171 -9 171 C-9 155.49 -9 139.98 -9 124 C6.18 124 21.36 124 37 124 C37 112.12 37 100.24 37 88 C24.46 88 11.92 88 -1 88 C-1 75.46 -1 62.92 -1 50 C-8.92 50 -16.84 50 -25 50 C-25 41.75 -25 33.5 -25 25 C-16.75 25 -8.5 25 0 25 C0 16.75 0 8.5 0 0 Z " fill="#F4F5F9" transform="translate(25,21)"/>
<path d="M0 0 C8.58 0 17.16 0 26 0 C26.185625 4.104375 26.37125 8.20875 26.5625 12.4375 C26.62381104 13.73357178 26.68512207 15.02964355 26.74829102 16.36499023 C26.79139404 17.37762939 26.83449707 18.39026855 26.87890625 19.43359375 C26.9260376 20.47572021 26.97316895 21.51784668 27.02172852 22.59155273 C27 25 27 25 26 26 C24.07332493 26.08748207 22.14348139 26.10697334 20.21484375 26.09765625 C19.04501953 26.09443359 17.87519531 26.09121094 16.66992188 26.08789062 C15.43822266 26.07951172 14.20652344 26.07113281 12.9375 26.0625 C11.08415039 26.05573242 11.08415039 26.05573242 9.19335938 26.04882812 C6.12888587 26.03699618 3.06443707 26.01906008 0 26 C0 33.92 0 41.84 0 50 C0.66 50 1.32 50 2 50 C2 51.32 2 52.64 2 54 C1.01 54 0.02 54 -1 54 C-1 52.68 -1 51.36 -1 50 C-8.92 50 -16.84 50 -25 50 C-25 41.75 -25 33.5 -25 25 C-16.75 25 -8.5 25 0 25 C0 16.75 0 8.5 0 0 Z " fill="#F4F5F9" transform="translate(25,21)"/>
<path d="M0 0 C3.031875 -0.061875 6.06375 -0.12375 9.1875 -0.1875 C10.60712036 -0.22846802 10.60712036 -0.22846802 12.05541992 -0.27026367 C17.99543876 -0.32890095 21.30717948 0.58574712 25.8125 4.625 C27.67443646 8.34887293 27.67431434 11.92511118 27 16 C25.125 19.0625 25.125 19.0625 23 21 C22.34 21 21.68 21 21 21 C23.64 26.28 26.28 31.56 29 37 C25.7 37 22.4 37 19 37 C17.99515796 35.04414675 16.99626195 33.08523763 16 31.125 C15.443125 30.03445312 14.88625 28.94390625 14.3125 27.8203125 C13 25 13 25 13 23 C11.35 23 9.7 23 8 23 C8 27.62 8 32.24 8 37 C5.36 37 2.72 37 0 37 C0 24.79 0 12.58 0 0 Z M8 7 C8 9.97 8 12.94 8 16 C13.26271712 16.44711919 13.26271712 16.44711919 18.0625 14.8125 C19.38135516 12.26271335 18.7975116 10.68253902 18 8 C14.52674819 6.8422494 11.63932552 6.93133348 8 7 Z " fill="#F4F5F9" transform="translate(176,108)"/>
<path d="M0 0 C3.01125 -0.0825 6.0225 -0.165 9.125 -0.25 C10.06230957 -0.28641602 10.99961914 -0.32283203 11.96533203 -0.36035156 C17.47922855 -0.43316553 20.67167183 0.25147903 25 4 C28.281798 8.922697 28.17954815 13.60760901 28.25 19.4375 C28.27578125 20.71496094 28.3015625 21.99242187 28.328125 23.30859375 C27.88398063 28.30521791 26.25608114 31.54765618 23 35.3125 C15.85129311 39.33364763 7.85813001 37.87312556 0 37 C0 24.79 0 12.58 0 0 Z M8 7 C8 14.59 8 22.18 8 30 C15.25934445 30.7139385 15.25934445 30.7139385 17.953125 28.76171875 C21.12520145 23.42363487 20.30286413 15.81277841 19 10 C17.5 7.83333333 17.5 7.83333333 15 7 C12.69 7 10.38 7 8 7 Z " fill="#F4F5F9" transform="translate(330,108)"/>
<path d="M0 0 C0.66 0 1.32 0 2 0 C2 1.32 2 2.64 2 4 C1.34 4 0.68 4 0 4 C0 11.92 0 19.84 0 28 C0.66 28 1.32 28 2 28 C2 29.32 2 30.64 2 32 C1.01 32 0.02 32 -1 32 C-1 30.68 -1 29.36 -1 28 C-8.92 28 -16.84 28 -25 28 C-25 19.75 -25 11.5 -25 3 C-16.75 3 -8.5 3 0 3 C0 2.01 0 1.02 0 0 Z " fill="#F70000" transform="translate(25,43)"/>
<path d="M0 0 C2.64 0 5.28 0 8 0 C8.01981934 0.77190674 8.03963867 1.54381348 8.06005859 2.33911133 C8.15521143 5.83058958 8.26493047 9.32146152 8.375 12.8125 C8.4059375 14.02744141 8.436875 15.24238281 8.46875 16.49414062 C8.50742188 17.65751953 8.54609375 18.82089844 8.5859375 20.01953125 C8.6173584 21.09307861 8.6487793 22.16662598 8.68115234 23.27270508 C8.81592307 26.2160765 8.81592307 26.2160765 11 29 C14 29.5 14 29.5 17 29 C19.29174077 25.56238884 19.29524047 24.07928385 19.4140625 20.01953125 C19.45273437 18.85615234 19.49140625 17.69277344 19.53125 16.49414062 C19.57765625 14.67172852 19.57765625 14.67172852 19.625 12.8125 C19.66367187 11.58595703 19.70234375 10.35941406 19.7421875 9.09570312 C19.83656103 6.06395344 19.92214549 3.03221159 20 0 C22.64 0 25.28 0 28 0 C28.09941096 4.0200263 28.17172063 8.03956963 28.21972656 12.06054688 C28.23975319 13.42623368 28.26698332 14.79183569 28.30175781 16.15722656 C28.35066432 18.12787102 28.37091347 20.09915983 28.390625 22.0703125 C28.41157227 23.25383301 28.43251953 24.43735352 28.45410156 25.65673828 C27.90201911 29.7213711 26.55991884 31.83032992 24 35 C18.98379742 38.1100456 15.11858002 38.39100967 9.3046875 37.578125 C5.367121 36.59039645 3.0664731 34.6443995 0.88720703 31.28417969 C-0.31280519 28.19466006 -0.22434907 25.57579428 -0.1953125 22.265625 C-0.18886719 20.97011719 -0.18242187 19.67460938 -0.17578125 18.33984375 C-0.15907193 16.97655981 -0.14214206 15.61327856 -0.125 14.25 C-0.1149634 12.87110015 -0.10583873 11.49219335 -0.09765625 10.11328125 C-0.07408093 6.74201118 -0.0411727 3.37109364 0 0 Z " fill="#F4F5F9" transform="translate(238,108)"/>
<path d="M0 0 C8.25 0 16.5 0 25 0 C25 2.31 25 4.62 25 7 C19.39 7 13.78 7 8 7 C8 9.64 8 12.28 8 15 C12.95 15 17.9 15 23 15 C23 17.31 23 19.62 23 22 C18.05 22 13.1 22 8 22 C8 24.64 8 27.28 8 30 C13.61 30 19.22 30 25 30 C25 32.31 25 34.62 25 37 C16.75 37 8.5 37 0 37 C0 24.79 0 12.58 0 0 Z " fill="#F4F5F9" transform="translate(364,108)"/>
<path d="M0 0 C2.41176702 0.75071102 3.9043408 1.56297655 6 3 C4.84826645 5.46800047 3.95216435 7.04783565 2 9 C-0.53125 8.9765625 -0.53125 8.9765625 -3.5 8.625 C-4.96953125 8.45871094 -4.96953125 8.45871094 -6.46875 8.2890625 C-7.72171875 8.14597656 -7.72171875 8.14597656 -9 8 C-9.66 8 -10.32 8 -11 8 C-10.67 9.65 -10.34 11.3 -10 13 C-9.18015625 13.17015625 -8.3603125 13.3403125 -7.515625 13.515625 C-5.89914062 13.87914063 -5.89914062 13.87914063 -4.25 14.25 C-3.18265625 14.48203125 -2.1153125 14.7140625 -1.015625 14.953125 C2.34962274 16.12137163 3.83903599 17.19125286 6 20 C7.35681828 24.14459792 7.47639191 27.84663012 5.8125 31.875 C2.95308566 35.22741681 0.42623826 37.36768025 -4 38 C-9.52631719 38.43343664 -15.12534468 37.80344984 -20 35 C-20.82421875 33.00390625 -20.82421875 33.00390625 -21 31 C-19.9375 29.1875 -19.9375 29.1875 -18 28 C-15.375 28.3125 -15.375 28.3125 -12 29 C-8.99796023 29.09810587 -6.00270228 29.06005405 -3 29 C-2.67 27.68 -2.34 26.36 -2 25 C-4.84220968 23.43678467 -7.31036749 22.66024655 -10.5 22.125 C-13.31923234 21.50829293 -15.02239486 20.98600321 -17.5 19.4375 C-19.75007258 15.78113206 -20.19823713 12.26209824 -20 8 C-16.20640603 -1.18449065 -8.80327887 -0.85087454 0 0 Z " fill="#F4F5F9" transform="translate(425,108)"/>
<path d="M0 0 C2.31 0 4.62 0 7 0 C10.47375686 7.53188403 13.39225554 15.21596929 16.25 23 C16.71330891 24.25138828 17.17684905 25.50269098 17.640625 26.75390625 C21 35.86221168 21 35.86221168 21 37 C18.03 37 15.06 37 12 37 C11.34 35.02 10.68 33.04 10 31 C6.04 31.33 2.08 31.66 -2 32 C-2.99 34.475 -2.99 34.475 -4 37 C-6.97 37 -9.94 37 -13 37 C-8.68659728 24.65958454 -4.35832004 12.32462663 0 0 Z M4 14 C2.68 17.3 1.36 20.6 0 24 C2.64 24 5.28 24 8 24 C7.01 20.7 6.02 17.4 5 14 C4.67 14 4.34 14 4 14 Z " fill="#F4F5F9" transform="translate(476,108)"/>
<path d="M0 0 C3.01125 -0.0825 6.0225 -0.165 9.125 -0.25 C10.06230957 -0.28641602 10.99961914 -0.32283203 11.96533203 -0.36035156 C17.4812424 -0.43319213 20.65325189 0.27127295 25 4 C27.47362705 7.76421507 27.27174601 11.51161458 26.6796875 15.84375 C25.48919939 19.6204709 23.28542591 20.89732742 20 23 C17.11788698 23.96070434 15.30149956 24.10581883 12.3125 24.0625 C10.889375 24.041875 9.46625 24.02125 8 24 C8 28.29 8 32.58 8 37 C5.36 37 2.72 37 0 37 C0 24.79 0 12.58 0 0 Z M8 7 C8 9.97 8 12.94 8 16 C13.36090593 16.53673893 13.36090593 16.53673893 18 14.5 C18.33 14.005 18.66 13.51 19 13 C17.88145414 9.27385847 17.88145414 9.27385847 15 7 C12.6670134 6.95977609 10.33293334 6.95679753 8 7 Z " fill="#F4F5F9" transform="translate(438,108)"/>
<path d="M0 0 C3.1875 1.5 3.1875 1.5 5 3 C3.84826645 5.46800047 2.95216435 7.04783565 1 9 C-1.35224424 8.89467563 -3.58582043 8.48551084 -5.90625 8.09375 C-6.5971875 8.0628125 -7.288125 8.031875 -8 8 C-10.17990127 9.765535 -10.17990127 9.765535 -10.22705078 11.97119141 C-10.21657715 12.75671387 -10.20610352 13.54223633 -10.1953125 14.3515625 C-10.18886719 15.20234375 -10.18242187 16.053125 -10.17578125 16.9296875 C-10.15902344 17.81914063 -10.14226562 18.70859375 -10.125 19.625 C-10.11597656 20.5221875 -10.10695312 21.419375 -10.09765625 22.34375 C-10.0740497 24.56276586 -10.0411231 26.78125077 -10 29 C-5.3298291 29.17395513 -5.3298291 29.17395513 -0.8125 28.25 C0.0846875 28.12625 0.0846875 28.12625 1 28 C3.25 29.9375 3.25 29.9375 5 32 C4.00827903 34.97516292 3.27035683 35.86152455 0.4375 37.3125 C-4.55023641 38.31004728 -9.1864441 38.38587042 -13.83984375 36.09375 C-17.42471497 33.49931997 -18.96729653 30.60686129 -19.75390625 26.30078125 C-20.57749987 18.60083455 -20.79637778 10.98417592 -17 4 C-12.18976261 -0.93049332 -6.5059782 -0.86021292 0 0 Z " fill="#F4F5F9" transform="translate(228,108)"/>
<path d="M0 0 C0.8971875 0.7425 0.8971875 0.7425 1.8125 1.5 C0.66076645 3.96800047 -0.23533565 5.54783565 -2.1875 7.5 C-4.7890625 7.4765625 -4.7890625 7.4765625 -7.8125 7.125 C-8.81539062 7.01414062 -9.81828125 6.90328125 -10.8515625 6.7890625 C-12.00785156 6.64597656 -12.00785156 6.64597656 -13.1875 6.5 C-14.68227149 13.78701103 -15.04846601 20.52639535 -12.1875 27.5 C-8.05305102 27.64420977 -8.05305102 27.64420977 -4.0625 26.75 C-3.134375 26.62625 -3.134375 26.62625 -2.1875 26.5 C0.0625 28.4375 0.0625 28.4375 1.8125 30.5 C0.8125 33.5 0.8125 33.5 -1.8125 35.1875 C-6.80479029 37.12894622 -10.37711301 37.20995568 -15.375 35.25 C-19.28759565 32.81549604 -21.71367368 30.92147895 -23.1875 26.5 C-23.43654978 23.56687281 -23.4186822 20.63013393 -23.4375 17.6875 C-23.458125 16.89279297 -23.47875 16.09808594 -23.5 15.27929688 C-23.53864149 9.43960199 -22.51392495 5.31109682 -18.6875 0.6875 C-13.82042147 -3.16560384 -5.28762389 -2.48829359 0 0 Z " fill="#F4F5F9" transform="translate(153.1875,109.5)"/>
<path d="M0 0 C1.65 0 3.3 0 5 0 C7.97 6.6 10.94 13.2 14 20 C16.17173239 15.29014571 16.17173239 15.29014571 18.3371582 10.57739258 C22.04016122 2.59464517 22.04016122 2.59464517 24 0 C25.32 0 26.64 0 28 0 C28 10.89 28 21.78 28 33 C26.68 33 25.36 33 24 33 C23.505 23.1 23.505 23.1 23 13 C20.69 17.95 18.38 22.9 16 28 C14.68 28 13.36 28 12 28 C9.69 23.38 7.38 18.76 5 14 C4.67 20.27 4.34 26.54 4 33 C2.68 33 1.36 33 0 33 C0 22.11 0 11.22 0 0 Z " fill="#F4F5F9" transform="translate(416,160)"/>
<path d="M0 0 C8.91 0 17.82 0 27 0 C27 2.31 27 4.62 27 7 C24.03 7 21.06 7 18 7 C18 16.9 18 26.8 18 37 C15.03 37 12.06 37 9 37 C9 27.1 9 17.2 9 7 C6.03 7 3.06 7 0 7 C0 4.69 0 2.38 0 0 Z " fill="#F4F5F9" transform="translate(286,108)"/>
<path d="M0 0 C6 1 6 1 7.87451172 2.94946289 C8.64432373 4.1984436 8.64432373 4.1984436 9.4296875 5.47265625 C9.996875 6.37177734 10.5640625 7.27089844 11.1484375 8.19726562 C11.71820313 9.14279297 12.28796875 10.08832031 12.875 11.0625 C13.46796875 12.01189453 14.0609375 12.96128906 14.671875 13.93945312 C16.13176885 16.28234729 17.56818469 18.63984152 19 21 C19.33 14.07 19.66 7.14 20 0 C21.65 0 23.3 0 25 0 C25 10.89 25 21.78 25 33 C20 32 20 32 18.2265625 30.1015625 C17.43378906 28.87566406 17.43378906 28.87566406 16.625 27.625 C16.03847656 26.73296875 15.45195312 25.8409375 14.84765625 24.921875 C14.23792969 23.95765625 13.62820312 22.9934375 13 22 C12.33871094 20.97390625 11.67742187 19.9478125 10.99609375 18.890625 C9.31574695 16.26996292 7.65601475 13.63610512 6 11 C5.67 18.26 5.34 25.52 5 33 C3.35 33 1.7 33 0 33 C0 22.11 0 11.22 0 0 Z " fill="#F4F5F9" transform="translate(214,160)"/>
<path d="M0 0 C16 0 16 0 21 3 C22.72393401 6.44786802 22.50222927 10.22993228 22 14 C20.125 16.5625 20.125 16.5625 18 18 C17.34 18 16.68 18 16 18 C16.5053125 18.91523438 17.010625 19.83046875 17.53125 20.7734375 C18.18771927 21.97383845 18.8439573 23.17436587 19.5 24.375 C19.83386719 24.97828125 20.16773438 25.5815625 20.51171875 26.203125 C23 30.7734375 23 30.7734375 23 33 C21.35 33 19.7 33 18 33 C17.57589844 32.07316406 17.15179688 31.14632812 16.71484375 30.19140625 C16.12376463 28.98110139 15.53124009 27.77150169 14.9375 26.5625 C14.66228516 25.95083984 14.38707031 25.33917969 14.10351562 24.70898438 C13.13753331 22.65653612 13.13753331 22.65653612 11 20 C7.36898649 18.97949122 7.36898649 18.97949122 4 19 C4 23.62 4 28.24 4 33 C2.68 33 1.36 33 0 33 C0 22.11 0 11.22 0 0 Z M4 4 C4 7.63 4 11.26 4 15 C10.79487645 15.3795306 10.79487645 15.3795306 17 13 C18.16977494 10.65127469 18.16977494 10.65127469 18 8 C16.93724621 5.75256545 16.93724621 5.75256545 15 4 C12.2613775 3.51659568 12.2613775 3.51659568 9.3125 3.75 C7.559375 3.8325 5.80625 3.915 4 4 Z " fill="#F4F5F9" transform="translate(158,160)"/>
<path d="M0 0 C16 0 16 0 21 3 C22.60111899 6.20223797 22.49827144 9.52538714 22 13 C20.125 16 20.125 16 18 18 C17.34 18 16.68 18 16 18 C16.5053125 18.91523438 17.010625 19.83046875 17.53125 20.7734375 C18.18771927 21.97383845 18.8439573 23.17436587 19.5 24.375 C19.83386719 24.97828125 20.16773438 25.5815625 20.51171875 26.203125 C23 30.7734375 23 30.7734375 23 33 C21.35 33 19.7 33 18 33 C17.57589844 32.07316406 17.15179688 31.14632812 16.71484375 30.19140625 C16.12376463 28.98110139 15.53124009 27.77150169 14.9375 26.5625 C14.66228516 25.95083984 14.38707031 25.33917969 14.10351562 24.70898438 C13.13753331 22.65653612 13.13753331 22.65653612 11 20 C7.36898649 18.97949122 7.36898649 18.97949122 4 19 C4 23.62 4 28.24 4 33 C2.68 33 1.36 33 0 33 C0 22.11 0 11.22 0 0 Z M4 4 C4 7.63 4 11.26 4 15 C10.79487645 15.3795306 10.79487645 15.3795306 17 13 C18.16977494 10.65127469 18.16977494 10.65127469 18 8 C16.93724621 5.75256545 16.93724621 5.75256545 15 4 C12.2613775 3.51659568 12.2613775 3.51659568 9.3125 3.75 C7.559375 3.8325 5.80625 3.915 4 4 Z " fill="#F4F5F9" transform="translate(302,160)"/>
<path d="M0 0 C3.33013545 1.80382337 4.56777905 3.176722 6.3125 6.5 C7.74857562 13.81093044 8.15461297 22.11720806 5 29 C1.84441176 31.93018908 -0.74885343 33.24753727 -5 33.5 C-9.23394397 33.25666989 -11.82809401 31.86981971 -15 29 C-16.85635247 24.60304226 -17.29687434 20.75019953 -17.3125 16 C-17.32925781 14.824375 -17.34601563 13.64875 -17.36328125 12.4375 C-16.86608893 7.73288447 -15.511011 4.48587984 -12.12109375 1.15234375 C-8.24934774 -0.95109101 -4.27165821 -0.61617112 0 0 Z M-12 8 C-12.42918602 10.81486833 -12.60594812 13.13381854 -12.5625 15.9375 C-12.58634766 16.64068359 -12.61019531 17.34386719 -12.63476562 18.06835938 C-12.62360409 22.03814457 -12.12122716 23.84457018 -9.66015625 27 C-7.13819413 29.30195988 -7.13819413 29.30195988 -3.875 29.0625 C-0.47989598 27.80778764 0.26286694 27.13690984 2 24 C2.31988233 21.23345011 2.4649944 18.75943789 2.4375 16 C2.45748047 15.2884375 2.47746094 14.576875 2.49804688 13.84375 C2.49478627 10.34838298 2.27181408 8.36472717 0.16015625 5.53125 C-4.71337294 2.0765964 -8.63034059 3.50474611 -12 8 Z " fill="#F4F5F9" transform="translate(288,160)"/>
<path d="M0 0 C1.65 0 3.3 0 5 0 C5 4.62 5 9.24 5 14 C9.62 14 14.24 14 19 14 C19 9.38 19 4.76 19 0 C20.32 0 21.64 0 23 0 C23 10.89 23 21.78 23 33 C21.68 33 20.36 33 19 33 C19 28.05 19 23.1 19 18 C14.38 18 9.76 18 5 18 C5 22.95 5 27.9 5 33 C3.35 33 1.7 33 0 33 C0 22.11 0 11.22 0 0 Z " fill="#F4F5F9" transform="translate(357,160)"/>
<path d="M0 0 C1.65 0 3.3 0 5 0 C6.57277973 4.2152474 8.13917792 8.43278979 9.69970703 12.65258789 C10.2314862 14.08780763 10.7650041 15.52238439 11.30029297 16.95629883 C12.06936227 19.01737601 12.83215096 21.08068392 13.59375 23.14453125 C13.83436157 23.78526077 14.07497314 24.4259903 14.32287598 25.08613586 C15.34897405 27.88352941 16 29.99163868 16 33 C14.35 33 12.7 33 11 33 C10.34 31.02 9.68 29.04 9 27 C4.71 27 0.42 27 -4 27 C-4.66 28.98 -5.32 30.96 -6 33 C-7.65 33 -9.3 33 -11 33 C-10.39092779 28.5762124 -9.28583066 24.68385366 -7.71484375 20.5078125 C-7.04291992 18.70957031 -7.04291992 18.70957031 -6.35742188 16.875 C-5.88423277 15.62495526 -5.410924 14.3749558 -4.9375 13.125 C-4.45978804 11.85174939 -3.98256966 10.57831348 -3.50585938 9.3046875 C-2.34207756 6.20126933 -1.17331032 3.09982553 0 0 Z M2 8 C0.35 12.62 -1.3 17.24 -3 22 C0.63 22 4.26 22 8 22 C6.35 17.38 4.7 12.76 3 8 C2.67 8 2.34 8 2 8 Z " fill="#F4F5F9" transform="translate(194,160)"/>
<path d="M0 0 C2.3190918 0.08813477 2.3190918 0.08813477 5 1 C6.57739258 3.83569336 6.57739258 3.83569336 7.89453125 7.58984375 C8.13161301 8.2495668 8.36869476 8.90928986 8.61296082 9.58900452 C9.36551332 11.69888571 10.08872981 13.81759562 10.8125 15.9375 C11.31785305 17.36197098 11.82499412 18.78580898 12.33398438 20.20898438 C16 30.56293432 16 30.56293432 16 33 C14.35 33 12.7 33 11 33 C10.34 30.69 9.68 28.38 9 26 C4.38 26 -0.24 26 -5 26 C-5.33 27.98 -5.66 29.96 -6 32 C-7 33 -7 33 -9.5625 33.0625 C-10.366875 33.041875 -11.17125 33.02125 -12 33 C-8.38947371 21.82273244 -4.5113758 10.84649927 0 0 Z M2 8 C1.16235732 9.95649397 0.33000941 11.91525556 -0.5 13.875 C-0.9640625 14.96554688 -1.428125 16.05609375 -1.90625 17.1796875 C-3.12052456 19.80661929 -3.12052456 19.80661929 -3 22 C0.3 22 3.6 22 7 22 C6.54857225 20.22739369 6.08859477 18.4569632 5.625 16.6875 C5.36976563 15.70136719 5.11453125 14.71523437 4.8515625 13.69921875 C4.08086826 10.8194184 4.08086826 10.8194184 2 8 Z " fill="#F4F5F9" transform="translate(396,160)"/>
<path d="M0 0 C2.701875 -0.0825 5.40375 -0.165 8.1875 -0.25 C9.02949951 -0.28641602 9.87149902 -0.32283203 10.73901367 -0.36035156 C14.67603679 -0.41837972 16.56872297 -0.27286024 19.98828125 1.890625 C23.06701499 5.11881184 23.39615433 7.48552367 23.35546875 11.9609375 C22.75359564 15.41344041 20.68176469 16.94190152 18 19 C14.98509443 20.00496852 12.95818308 20.10335303 9.8125 20.0625 C8.224375 20.041875 6.63625 20.02125 5 20 C5 24.29 5 28.58 5 33 C3.35 33 1.7 33 0 33 C0 22.11 0 11.22 0 0 Z M5 4 C5 7.96 5 11.92 5 16 C12.02053429 16.41112965 12.02053429 16.41112965 18 13 C19.07642709 11.11149645 19.07642709 11.11149645 19 9 C18.00974907 6.33393981 17.5722047 5.28610235 15 4 C13.29297265 3.93003986 11.58331997 3.91559846 9.875 3.9375 C8.26625 3.958125 6.6575 3.97875 5 4 Z " fill="#F4F5F9" transform="translate(452,160)"/>
<path d="M0 0 C2.33984375 1.02734375 2.33984375 1.02734375 4 2 C3.67 3.32 3.34 4.64 3 6 C2.319375 5.835 1.63875 5.67 0.9375 5.5 C-2.45315882 4.92286658 -5.56650292 4.80565111 -9 5 C-9.66 5.66 -10.32 6.32 -11 7 C-10.67958603 9.60280568 -10.67958603 9.60280568 -10 12 C-9.08476562 12.26554688 -8.16953125 12.53109375 -7.2265625 12.8046875 C-6.03804688 13.15789062 -4.84953125 13.51109375 -3.625 13.875 C-1.84996094 14.39707031 -1.84996094 14.39707031 -0.0390625 14.9296875 C3 16 3 16 5 18 C5.61618658 21.73266871 5.60659122 25.26670678 5 29 C2.34837706 32.00052069 0.52766018 32.79235687 -3.4140625 33.328125 C-8.69722736 33.55158212 -12.43559736 32.88278061 -17 30 C-16.67 28.68 -16.34 27.36 -16 26 C-11.25 26.875 -11.25 26.875 -9 28 C-4.94857881 28.25860135 -3.45662331 28.30441554 0 26 C0.25030977 23.41619823 0.25030977 23.41619823 0 21 C-3.93631869 19.34928571 -7.92141501 18.08193676 -12.01171875 16.87890625 C-14 16 -14 16 -16 13 C-16.53628973 8.25000522 -16.66827007 6.10610218 -14.1875 2 C-9.59231957 -0.88325047 -5.29862823 -0.75017836 0 0 Z " fill="#F4F5F9" transform="translate(495,160)"/>
<path d="M0 0 C2.64 0 5.28 0 8 0 C8 12.21 8 24.42 8 37 C5.36 37 2.72 37 0 37 C0 24.79 0 12.58 0 0 Z " fill="#F4F5F9" transform="translate(273,108)"/>
<path d="M0 0 C2.64 0 5.28 0 8 0 C8 12.21 8 24.42 8 37 C5.36 37 2.72 37 0 37 C0 24.79 0 12.58 0 0 Z " fill="#F4F5F9" transform="translate(160,108)"/>
<path d="M0 0 C0.639375 0.495 1.27875 0.99 1.9375 1.5 C1.2775 2.82 0.6175 4.14 -0.0625 5.5 C-0.59875 5.17 -1.135 4.84 -1.6875 4.5 C-4.6667758 3.24556808 -6.85566197 3.22707761 -10.0625 3.5 C-13.12262302 5.11615439 -13.12262302 5.11615439 -13.73828125 7.3203125 C-14.67478835 13.61634819 -14.55636695 19.577066 -12.0625 25.5 C-7.34650182 26.42470553 -4.38984391 26.72923777 -0.0625 24.5 C0.5975 25.82 1.2575 27.14 1.9375 28.5 C-2.60309563 31.15790964 -5.80322406 32.07373919 -11.0625 31.5 C-15.28803893 29.67533546 -17.12390038 27.63458393 -19.0625 23.5 C-19.49182783 20.49068934 -19.48184469 17.53514779 -19.4375 14.5 C-19.44910156 13.7059375 -19.46070313 12.911875 -19.47265625 12.09375 C-19.44942599 7.44769765 -19.16340109 4.20424384 -16.0625 0.5 C-11.20826008 -2.7857943 -5.10940727 -2.50256683 0 0 Z " fill="#F4F5F9" transform="translate(265.0625,161.5)"/>
<path d="M0 0 C0.639375 0.495 1.27875 0.99 1.9375 1.5 C1.2775 2.82 0.6175 4.14 -0.0625 5.5 C-0.76375 5.17 -1.465 4.84 -2.1875 4.5 C-5.45466358 3.36359528 -7.63418185 2.97829941 -11.0625 3.5 C-13.89097798 7.16703851 -14.45084626 9.92588689 -14.375 14.5 C-14.37113281 15.510625 -14.36726563 16.52125 -14.36328125 17.5625 C-14.05714942 20.55225499 -13.3158749 22.78352213 -12.0625 25.5 C-7.34650182 26.42470553 -4.38984391 26.72923777 -0.0625 24.5 C0.5975 25.82 1.2575 27.14 1.9375 28.5 C-2.60309563 31.15790964 -5.80322406 32.07373919 -11.0625 31.5 C-14.76467897 29.81719138 -17.08405886 28.04889866 -19.0625 24.5 C-19.50956117 21.34852288 -19.48086916 18.2404959 -19.4375 15.0625 C-19.44910156 14.21623047 -19.46070313 13.36996094 -19.47265625 12.49804688 C-19.45025835 7.73102745 -19.28397601 4.28268337 -16.0625 0.5 C-11.20826008 -2.7857943 -5.10940727 -2.50256683 0 0 Z " fill="#F4F5F9" transform="translate(349.0625,161.5)"/>
<path d="M0 0 C6.6 0 13.2 0 20 0 C20 1.32 20 2.64 20 4 C14.72 4 9.44 4 4 4 C4 7.63 4 11.26 4 15 C8.62 15 13.24 15 18 15 C18 16.32 18 17.64 18 19 C13.38 19 8.76 19 4 19 C4 23.62 4 28.24 4 33 C2.68 33 1.36 33 0 33 C0 22.11 0 11.22 0 0 Z " fill="#F4F5F9" transform="translate(132,160)"/>
</svg>
