<?xml version="1.0" encoding="UTF-8"?>
<!-- Created with Inkscape by VulcanSphere (http://www.inkscape.org/ and http://vulcansphere.com) -->
<svg width="276.87" height="100.08" version="1.1" viewBox="0 0 73.255 26.481" xmlns="http://www.w3.org/2000/svg">
<title>Watkins Glen International</title>
<desc>Motorsport circuit in Watkins Glen, New York, U.S.</desc>
 <g transform="translate(23.89 -135.33)">
  <g transform="translate(.26459 -.26458)" fill-rule="evenodd">
   <g fill="#ffffff">
    <path d="m8.9118 142.85 3.4683-0.60378c-2.3028-1.025-5.0831-1.8956-7.3859-1.8956-0.309 0.014-0.65998 0.014-0.9549 0.0421 1.7974 0.58977 3.2998 1.4463 4.8725 2.4573"/>
    <path d="m7.7463 140.21c0.084279-0.0562 1.1515-0.11239 1.7131-0.14037 3.6509-0.1966 6.9648-0.0562 10.686 0.74418-1.2357 0.22462-2.682 0.6319-3.9177 0.71611-0.04209 0-2.9769-0.99702-8.4813-1.3199"/>
    <path d="m21.423 148.09c-1.5025-1.3761-3.1594-2.5837-4.8725-3.6649l-4.4232 1.0532c1.4463 1.3199 2.7101 2.9347 3.6789 4.6338z"/>
    <path d="m27.054 146.07c-1.8395-1.1374-3.693-2.0782-5.5605-2.8364l4.9848-1.2076c2.1484 0.53361 4.2406 1.2216 6.2627 2.0501z"/>
    <path d="m12.366 142.23 3.8896-0.7021c0.39321-0.0702 4.4231 1.2778 5.2937 1.6991l-5.0269 1.2216c-1.3761-0.91267-2.8646-1.6148-4.1564-2.2186"/>
    <path d="m3.6602 136.06c1.2357 0 2.6118 0.0421 3.7632 0.2668 1.9658 0.36509 4.3108 1.3621 5.4482 2.4854l-2.9909 0.5757c-0.9689-1.7552-3.9738-3.0751-6.2205-3.3279"/>
   </g>
   <path d="m7.283 135.86c2.7943-0.0561 6.5575 1.011 8.2425 2.3871l-1.8114 0.35112c-2.2045-1.657-3.5947-2.3029-6.4311-2.7382" fill="#ffffff"/>
   <path d="m32.895 142.96s-10.251-3.6509-19.757-3.3279c0 0 6.9928-2.1906 18.802 0.71611z" fill="#ffffff"/>
   <g fill="#ffffff">
    <path d="m-22.036 148.79 0.4493 6.8945 3.0331-6.8945h2.036l0.39321 6.8945 3.2156-6.8945h1.7692l-4.4091 8.9727h-2.1063l-0.35098-6.6979-2.9207 6.6979h-2.1063l-0.85651-8.9727z"/>
    <path d="m-8.149 151.18c1.6429 0 2.3029 0.8425 1.9659 2.4573l-0.87058 4.1283h-4.2687c-1.1936 0-1.7131-0.68799-1.4604-1.8956 0.323-1.5306 1.1655-2.1063 2.8365-2.1063h2.0922c0.014005-0.0561 0.014005-0.11229 0.028116-0.15438 0.18249-0.8425-0.21061-1.0672-1.2216-1.0672h-2.6399l0.28081-1.3621zm-0.25269 5.2657 0.28081-1.3621h-1.8675c-0.67412 0-1.0111 0.14051-1.1374 0.73018-0.1124 0.54772 0.15441 0.63193 0.73011 0.63193z"/>
    <path d="m-3.9926 151.18 0.5055-2.3871h1.5867l-0.5055 2.3871h1.685l-0.28078 1.3059h-1.671l-0.56162 2.668c-0.1826 0.91267-0.042192 1.2918 0.75823 1.2918h0.65998l-0.28088 1.3199h-1.4463c-1.1514 0-1.6709-0.7161-1.3901-2.0641l0.67398-3.2156h-1.1233l0.28081-1.3059z"/>
    <path d="m2.3403 148.79-1.1515 5.5465 3.2156-3.1594h2.008l-3.4543 3.2156 2.0782 3.37h-2.1344l-1.7692-3.2015-0.65998 3.2015h-1.5867l1.8675-8.9727z"/>
    <path d="m5.7103 157.76 1.3761-6.5856h1.6569l-1.3761 6.5856z"/>
    <path d="m7.2128 150.58 0.25269-1.2216h1.671l-0.2528 1.2216z"/>
    <path d="m13.096 151.18c1.7833 0 2.373 0.65997 2.008 2.4152l-0.85662 4.1704h-1.5867l0.81439-3.9598c0.1966-0.9127 0.09832-1.1795-0.80038-1.1795h-1.2778l-1.0672 5.1393h-1.5867l1.3761-6.5856z"/>
    <path d="m19.12 156.39c0.5757 0 0.8987-0.1825 0.99702-0.63179 0.09828-0.46341-0.15452-0.65998-0.73022-0.65998h-1.3621c-1.4603 0-2.0079-0.323-1.685-1.8535 0.29489-1.4182 1.0953-2.0642 2.5416-2.0642h3.4122l-0.28092 1.3761h-2.8083c-0.71621 0-1.1093 0.0422-1.2217 0.60381-0.08421 0.40718 0.1264 0.5757 0.6319 0.5757h1.4323c1.3339 0 1.8816 0.7021 1.6148 1.9659-0.2528 1.2357-1.1234 2.0641-2.0642 2.0641h-4.1002l0.28088-1.3761z"/>
    <path d="m29.146 152.44h4.0721l-1.1093 5.3218h-3.7071c-0.99692 0-1.7692-0.0702-2.4432-0.7863-0.68809-0.74419-0.85662-1.9097-0.51961-3.5385 0.66001-3.1735 2.2046-4.6479 4.8304-4.6479h3.707l-0.3229 1.5446h-3.7071c-1.3901 0-2.1484 0.96891-2.5696 3.019-0.39321 1.9097-0.02812 2.7803 1.362 2.7803h1.9378l0.43533-2.1063h-2.3028z"/>
    <path d="m33.33 157.76 1.8816-8.9727h1.6429l-1.8676 8.9727z"/>
    <path d="m36.686 154.48c0.4493-2.1484 1.7131-3.2999 3.7211-3.2999h2.3169l-0.29492 1.3761h-2.0922c-1.0251 0-1.4885 0.18259-1.7412 1.2357h3.5806l-0.29478 1.3761h-3.5807c-0.18253 1.0812 0.19657 1.2216 1.2216 1.2216h2.1063l-0.28081 1.3761h-2.3169c-1.994 0-2.7943-1.1233-2.345-3.2857"/>
    <path d="m46.726 151.18c1.7693 0 2.3731 0.65997 2.008 2.4152l-0.87058 4.1704h-1.5867l0.82839-3.9598c0.1826-0.9127 0.08431-1.1795-0.81439-1.1795h-1.2778l-1.0672 5.1393h-1.5867l1.3761-6.5856z"/>
   </g>
   <g fill="#ffffff">
    <path d="m-22.738 161.75 0.49152-2.2888h0.5055l-0.49153 2.2888z"/>
    <path d="m-18.091 161.75 0.49149-2.2888h0.5195l0.61792 1.6288h0.01397l0.323-1.6288h0.46341l-0.49149 2.2888h-0.5055l-0.61782-1.6008h-0.01411l-0.3229 1.6008z"/>
    <path d="m-11.491 161.75 0.3791-1.8676h-0.7161l0.09832-0.42118h1.9097l-0.098284 0.42118h-0.68813l-0.3791 1.8676z"/>
    <path d="m-6.3516 161.75 0.47741-2.2888h1.7552l-0.084173 0.42118h-1.2497l-0.098284 0.49149h1.1514l-0.084314 0.39321h-1.1514l-0.1264 0.56169h1.2638l-0.084279 0.42122z"/>
    <path d="m-0.51024 161.75 0.47741-2.2888h1.0953c0.21061 0 0.37913 0.0421 0.49142 0.1264 0.1264 0.0983 0.1826 0.2527 0.1966 0.47738-0.014005 0.15441-0.056197 0.29489-0.15452 0.40721-0.098284 0.11229-0.22458 0.18249-0.3791 0.1966v0.014c0.098319 0.0281 0.15452 0.0843 0.1966 0.15448 0.028116 0.0702 0.042086 0.15441 0.042086 0.2527v0.18259c-0.01397 0.0702-0.01397 0.14041-0.01397 0.21061 0 0.11229 0.01397 0.1966 0.028081 0.26681h-0.49149c-0.014005-0.0562-0.014005-0.11229-0.014005-0.15452 0-0.0842 0-0.15438 0.014005-0.23869 0-0.0702 0-0.15441 0.014005-0.22461-0.014005-0.1124-0.042122-0.1826-0.098319-0.22469-0.056092-0.0421-0.14041-0.0562-0.23869-0.0562h-0.47741l-0.18249 0.8987zm0.8986-1.8956-0.12629 0.6459h0.4633c0.084314 0 0.16849-0.0141 0.2528-0.0421 0.070203-0.0281 0.14041-0.0702 0.18249-0.1124 0.056197-0.0561 0.084314-0.1264 0.084314-0.21061 0-0.1264-0.042122-0.1966-0.11232-0.23869-0.070203-0.0281-0.15448-0.0421-0.26677-0.0421z"/>
    <path d="m5.4997 161.75 0.49142-2.2888h0.51961l0.61778 1.6288 0.33701-1.6288h0.46341l-0.49153 2.2888h-0.5055l-0.61778-1.6008h-0.014111l-0.3229 1.6008z"/>
    <path d="m12.858 159.96-0.49149 0.91271h0.61778l-0.11229-0.91271zm-1.5166 1.7973 1.3621-2.2888h0.5055l0.39321 2.2888h-0.5055l-0.0702-0.5055h-0.85658l-0.29492 0.5055z"/>
    <path d="m17.814 161.75 0.39317-1.8676h-0.71607l0.08417-0.42118h1.9097l-0.08431 0.42118h-0.68799l-0.39321 1.8676z"/>
    <path d="m22.954 161.75 0.49149-2.2888h0.5055l-0.49149 2.2888z"/>
    <path d="m28.247 160.8c0 0.11229 0.01401 0.21058 0.05609 0.29479 0.02812 0.0843 0.08431 0.15451 0.16852 0.21071 0.07027 0.0561 0.16849 0.0842 0.29489 0.0842 0.15452 0 0.29489-0.0561 0.40721-0.15441 0.1124-0.0983 0.1966-0.21072 0.2528-0.36509 0.04209-0.14041 0.0702-0.29493 0.0702-0.43533 0-0.1124-0.01401-0.21068-0.04212-0.29489-0.04219-0.0983-0.08428-0.16848-0.16849-0.22468-0.0702-0.0421-0.16849-0.0702-0.29489-0.0702-0.16852 0-0.30893 0.0421-0.42132 0.1404-0.11229 0.0983-0.1965 0.22468-0.2527 0.36509-0.04209 0.15448-0.0702 0.29489-0.0702 0.4494zm-0.5055 0c0-0.2528 0.05609-0.47752 0.15441-0.68812 0.09828-0.21058 0.23869-0.3791 0.42129-0.5055 0.1966-0.1264 0.40721-0.18249 0.67402-0.1966 0.30889 0 0.56169 0.0843 0.74418 0.2528 0.16849 0.16852 0.26681 0.40721 0.26681 0.73021 0 0.2527-0.04212 0.49139-0.14041 0.702-0.09832 0.21071-0.23869 0.3932-0.42129 0.5196-0.1966 0.1264-0.42122 0.1966-0.68802 0.1966-0.323 0-0.5757-0.0843-0.74418-0.2668-0.1826-0.16849-0.26681-0.42129-0.26681-0.74419"/>
    <path d="m33.808 161.75 0.47748-2.2888h0.5195l0.61778 1.6288h0.01411l0.3229-1.6288h0.46341l-0.47741 2.2888h-0.5055l-0.6319-1.6008-0.33701 1.6008z"/>
    <path d="m41.152 159.96-0.49149 0.91271h0.61789l-0.1124-0.91271zm-1.5025 1.7973 1.348-2.2888h0.51957l0.37913 2.2888h-0.50553l-0.0702-0.5055h-0.85658l-0.28081 0.5055z"/>
    <path d="m45.771 161.75 0.49152-2.2888h0.5055l-0.39321 1.8676h1.1093l-0.09821 0.42122z"/>
   </g>
  </g>
 </g>
</svg>