<svg xmlns="http://www.w3.org/2000/svg" viewBox="-2063.2 -1310.6 6007.8 3163.9">
<defs><linearGradient id="g" gradientUnits="userSpaceOnUse" x1="-1777.7" y1="-1025.1" x2="3659.2" y2="1567.9">
<stop offset="0" stop-color="#ff8a18"/><stop offset="1" stop-color="#7b2da0"/></linearGradient></defs>
<path d="M -483.0,1558.0 L -505.9,1556.4 L -515.1,1555.9 L -526.5,1555.2 L -535.9,1554.6 L -546.5,1553.9 L -557.3,1553.2 L -568.2,1552.4 L -579.2,1551.4 L -590.3,1550.4 L -601.6,1549.5 L -613.1,1548.6 L -625.8,1547.6 L -636.3,1546.8 L -648.1,1546.0 L -660.0,1545.1 L -673.1,1544.2 L -684.0,1543.5 L -696.2,1542.7 L -709.7,1541.9 L -720.8,1541.2 L -734.5,1540.3 L -747.1,1539.5 L -758.5,1538.6 L -771.2,1537.6 L -784.0,1536.4 L -796.9,1535.1 L -811.2,1533.3 L -822.9,1531.6 L -837.2,1529.3 L -849.0,1527.3 L -862.2,1525.0 L -875.4,1522.6 L -888.7,1519.9 L -902.0,1517.1 L -915.3,1514.1 L -930.0,1510.5 L -941.9,1507.3 L -956.6,1503.1 L -968.5,1499.4 L -981.8,1495.0 L -995.0,1490.3 L -1008.1,1485.4 L -1021.0,1480.1 L -1033.6,1474.5 L -1045.9,1468.6 L -1057.8,1462.2 L -1069.2,1455.3 L -1080.2,1447.8 L -1090.6,1440.0 L -1101.5,1430.9 L -1109.8,1423.0 L -1118.4,1413.8 L -1127.2,1403.3 L -1133.7,1394.4 L -1140.5,1384.2 L -1146.6,1374.0 L -1152.3,1364.0 L -1158.2,1353.7 L -1163.1,1344.8 L -1167.3,1337.4 L -1171.6,1329.7 L -1175.6,1322.6 L -1179.4,1316.1 L -1182.8,1310.1 L -1186.1,1304.7 L -1189.1,1299.8 L -1192.0,1295.3 L -1195.0,1290.8 L -1197.6,1287.3 L -1200.4,1283.8 L -1203.4,1280.6 L -1206.9,1277.4 L -1210.4,1274.9 L -1213.6,1272.9 L -1217.4,1271.0 L -1221.5,1269.4 L -1225.7,1268.1 L -1230.7,1267.0 L -1234.9,1266.4 L -1239.8,1265.9 L -1245.0,1265.7 L -1250.3,1265.6 L -1255.4,1265.7 L -1260.8,1265.7 L -1265.4,1265.5 L -1269.5,1264.9 L -1273.9,1263.9 L -1278.2,1262.5 L -1282.5,1260.6 L -1286.7,1258.4 L -1290.8,1255.7 L -1294.6,1252.7 L -1298.1,1249.5 L -1301.6,1245.5 L -1304.6,1241.5 L -1307.2,1237.6 L -1310.5,1232.4 L -1313.2,1227.9 L -1316.3,1222.7 L -1319.4,1217.2 L -1322.6,1211.6 L -1325.9,1205.9 L -1329.6,1199.2 L -1332.9,1193.6 L -1336.5,1187.2 L -1340.4,1180.5 L -1344.3,1173.7 L -1348.8,1166.0 L -1352.5,1159.7 L -1356.7,1152.6 L -1361.0,1145.3 L -1365.6,1137.9 L -1370.9,1129.7 L -1375.6,1123.0 L -1381.1,1115.5 L -1387.0,1108.1 L -1394.0,1100.1 L -1400.8,1093.1 L -1407.9,1086.2 L -1414.6,1080.1 L -1422.1,1073.3 L -1429.7,1066.5 L -1438.1,1058.6 L -1444.9,1051.9 L -1452.3,1044.1 L -1459.6,1036.0 L -1466.6,1027.4 L -1474.0,1017.6 L -1479.7,1009.2 L -1485.5,999.5 L -1490.8,989.5 L -1495.4,979.2 L -1499.1,968.7 L -1502.3,957.0 L -1504.1,947.2 L -1505.6,936.3 L -1506.5,925.3 L -1506.9,913.3 L -1507.0,903.8 L -1506.9,893.7 L -1506.9,884.1 L -1506.9,875.0 L -1507.1,866.3 L -1507.5,857.9 L -1508.1,849.2 L -1508.8,842.4 L -1510.0,835.2 L -1511.5,828.3 L -1513.6,820.9 L -1515.8,815.0 L -1518.6,808.7 L -1522.0,802.6 L -1525.9,796.7 L -1530.3,791.0 L -1535.7,785.1 L -1540.4,780.5 L -1546.7,775.4 L -1552.9,771.5 L -1559.5,768.2 L -1566.4,765.5 L -1572.8,763.4 L -1580.3,761.5 L -1587.9,759.7 L -1595.7,758.0 L -1604.4,756.0 L -1611.7,754.2 L -1619.7,751.8 L -1627.7,748.8 L -1636.2,744.8 L -1643.0,741.0 L -1651.0,735.8 L -1657.3,731.1 L -1664.1,725.4 L -1670.6,719.2 L -1677.0,712.6 L -1683.2,705.7 L -1689.2,698.4 L -1695.1,690.7 L -1700.8,682.7 L -1706.2,674.4 L -1711.3,665.8 L -1716.2,656.9 L -1721.5,646.8 L -1725.6,638.3 L -1730.2,628.7 L -1734.7,618.9 L -1739.2,608.9 L -1743.6,598.7 L -1748.3,587.2 L -1752.5,576.7 L -1756.1,567.2 L -1759.7,557.0 L -1763.2,546.2 L -1765.7,537.7 L -1768.3,528.6 L -1770.8,519.9 L -1773.0,511.4 L -1775.1,502.4 L -1776.4,495.1 L -1777.4,487.0 L -1777.7,478.9 L -1777.4,471.0 L -1776.4,463.1 L -1774.8,455.2 L -1772.6,447.2 L -1769.8,439.3 L -1766.5,431.3 L -1762.8,423.3 L -1758.8,415.2 L -1754.4,407.0 L -1749.2,398.1 L -1744.7,390.7 L -1739.4,382.5 L -1733.8,374.3 L -1727.3,365.4 L -1721.1,357.2 L -1715.3,349.9 L -1708.6,341.8 L -1701.7,333.8 L -1694.4,325.7 L -1686.2,316.8 L -1678.5,308.7 L -1671.4,301.5 L -1663.2,293.4 L -1654.8,285.5 L -1646.2,277.6 L -1637.2,269.8 L -1628.0,262.2 L -1618.6,254.8 L -1607.9,246.8 L -1599.0,240.4 L -1588.8,233.3 L -1578.5,226.4 L -1566.9,218.9 L -1557.3,212.7 L -1546.4,205.9 L -1535.4,199.2 L -1524.3,192.4 L -1513.1,185.6 L -1500.6,178.1 L -1490.3,171.9 L -1478.8,165.0 L -1467.2,158.1 L -1455.5,151.2 L -1443.7,144.3 L -1431.8,137.3 L -1419.8,130.4 L -1407.7,123.5 L -1394.2,116.0 L -1381.9,109.3 L -1370.8,103.2 L -1358.3,96.6 L -1345.8,90.0 L -1333.1,83.5 L -1320.3,77.0 L -1306.1,70.1 L -1294.4,64.4 L -1281.3,58.3 L -1268.0,52.4 L -1253.3,46.1 L -1241.1,41.0 L -1227.5,35.6 L -1212.3,29.8 L -1199.8,25.2 L -1185.8,20.3 L -1170.4,14.9 L -1157.6,10.7 L -1143.4,6.0 L -1127.7,0.9 L -1114.7,-3.2 L -1100.3,-7.6 L -1085.8,-12.0 L -1071.2,-16.3 L -1056.6,-20.6 L -1040.4,-25.2 L -1027.1,-28.9 L -1012.3,-32.9 L -997.5,-37.0 L -982.6,-41.1 L -967.6,-45.2 L -951.2,-49.7 L -937.7,-53.5 L -922.7,-57.7 L -907.7,-62.0 L -892.6,-66.3 L -877.5,-70.6 L -862.3,-74.9 L -847.2,-79.3 L -830.5,-84.1 L -815.2,-88.5 L -801.5,-92.4 L -786.1,-96.7 L -770.8,-101.0 L -755.4,-105.3 L -740.0,-109.6 L -724.5,-113.9 L -709.1,-118.3 L -693.6,-122.6 L -678.0,-127.0 L -662.5,-131.3 L -646.9,-135.8 L -631.3,-140.2 L -615.7,-144.6 L -600.1,-149.0 L -584.4,-153.5 L -568.7,-158.0 L -553.0,-162.5 L -537.3,-167.0 L -521.5,-171.5 L -505.8,-176.0 L -490.0,-180.5 L -474.1,-185.0 L -458.3,-189.4 L -442.4,-193.9 L -424.9,-198.8 L -410.6,-202.7 L -394.7,-207.1 L -377.2,-212.0 L -362.9,-216.0 L -345.3,-220.9 L -331.0,-224.9 L -313.5,-229.8 L -299.2,-233.8 L -283.3,-238.4 L -267.4,-242.9 L -251.5,-247.6 L -235.6,-252.2 L -219.8,-256.9 L -203.9,-261.5 L -188.1,-266.2 L -172.2,-270.9 L -156.3,-275.5 L -140.4,-280.0 L -124.5,-284.5 L -108.6,-289.0 L -92.6,-293.4 L -76.7,-297.8 L -60.8,-302.2 L -45.4,-306.5 L -30.7,-310.6 L -16.8,-314.4 L -3.7,-317.9 L 9.9,-321.4 L 20.4,-324.1 L 31.4,-327.0 L 41.7,-329.8 L 52.3,-332.7 L 60.4,-334.8 L 68.8,-337.0 L 76.7,-339.0 L 84.1,-340.8 L 91.1,-342.4 L 98.4,-343.8 L 104.1,-344.8 L 110.3,-345.5 L 116.6,-345.8 L 122.9,-345.6 L 129.9,-344.9 L 135.5,-343.9 L 141.7,-342.1 L 147.9,-339.8 L 153.9,-337.0 L 160.3,-333.9 L 165.2,-331.5 L 171.1,-329.0 L 176.0,-327.4 L 181.4,-326.0 L 186.8,-325.2 L 192.7,-324.8 L 197.6,-325.0 L 203.0,-325.6 L 208.4,-326.8 L 213.9,-328.5 L 219.9,-331.1 L 224.8,-333.7 L 230.1,-337.1 L 235.4,-340.9 L 241.2,-345.7 L 246.5,-350.5 L 251.2,-355.1 L 256.5,-360.5 L 262.0,-366.0 L 267.8,-371.5 L 273.9,-377.0 L 280.4,-382.2 L 287.4,-387.3 L 295.5,-392.5 L 302.5,-396.5 L 310.7,-400.7 L 319.2,-404.5 L 328.0,-408.2 L 337.9,-412.0 L 346.3,-415.1 L 355.7,-418.3 L 365.2,-421.3 L 374.9,-424.2 L 384.9,-427.0 L 396.0,-430.1 L 405.2,-432.7 L 415.5,-435.6 L 426.0,-438.5 L 436.7,-441.5 L 447.5,-444.5 L 458.4,-447.5 L 469.5,-450.5 L 480.6,-453.6 L 491.9,-456.6 L 503.4,-459.7 L 514.9,-462.9 L 526.5,-466.0 L 538.1,-469.1 L 551.1,-472.6 L 561.8,-475.5 L 574.9,-479.1 L 585.8,-482.1 L 597.9,-485.4 L 611.4,-489.1 L 622.5,-492.2 L 634.9,-495.7 L 647.4,-499.2 L 660.0,-502.7 L 673.9,-506.7 L 686.7,-510.3 L 698.2,-513.7 L 712.4,-517.8 L 724.1,-521.2 L 737.1,-524.9 L 750.3,-528.6 L 764.9,-532.7 L 776.9,-535.9 L 790.3,-539.6 L 805.1,-543.6 L 817.3,-546.9 L 830.9,-550.5 L 844.5,-554.2 L 858.1,-558.0 L 873.2,-562.1 L 885.5,-565.6 L 900.7,-569.9 L 913.1,-573.5 L 926.9,-577.5 L 940.9,-581.5 L 954.8,-585.6 L 968.8,-589.6 L 982.9,-593.7 L 997.0,-597.8 L 1011.1,-601.9 L 1025.3,-605.9 L 1039.6,-609.9 L 1053.9,-614.0 L 1068.3,-618.0 L 1082.7,-622.0 L 1097.2,-626.0 L 1111.7,-630.1 L 1127.7,-634.5 L 1140.9,-638.1 L 1155.5,-642.1 L 1170.2,-646.2 L 1184.9,-650.3 L 1199.6,-654.5 L 1215.9,-659.1 L 1229.2,-662.9 L 1244.1,-667.2 L 1260.5,-671.9 L 1273.9,-675.7 L 1288.9,-680.0 L 1305.4,-684.7 L 1318.9,-688.6 L 1335.5,-693.4 L 1349.1,-697.3 L 1367.3,-702.6 L 1379.4,-706.1 L 1394.6,-710.5 L 1409.9,-715.0 L 1425.1,-719.4 L 1440.4,-723.9 L 1455.7,-728.4 L 1471.1,-732.9 L 1488.0,-737.9 L 1501.9,-742.0 L 1517.3,-746.4 L 1534.4,-751.1 L 1549.9,-755.3 L 1564.0,-759.0 L 1579.6,-763.1 L 1595.3,-767.2 L 1611.0,-771.4 L 1626.6,-775.6 L 1642.3,-779.9 L 1658.0,-784.3 L 1673.7,-788.7 L 1689.3,-793.2 L 1706.6,-798.0 L 1720.8,-802.0 L 1736.6,-806.5 L 1752.3,-810.9 L 1768.1,-815.3 L 1784.0,-819.7 L 1799.6,-824.2 L 1814.8,-828.5 L 1830.7,-833.0 L 1844.4,-836.9 L 1856.0,-840.3 L 1869.4,-844.1 L 1879.7,-847.2 L 1890.6,-850.4 L 1900.9,-853.4 L 1910.6,-856.2 L 1919.7,-858.9 L 1928.2,-861.5 L 1936.3,-863.9 L 1943.8,-866.3 L 1950.8,-868.6 L 1957.3,-871.0 L 1963.4,-873.5 L 1969.1,-876.2 L 1974.4,-879.3 L 1980.0,-883.0 L 1984.8,-886.8 L 1989.0,-890.5 L 1993.4,-895.0 L 1997.7,-899.8 L 2001.8,-905.0 L 2005.6,-910.4 L 2009.5,-916.2 L 2012.4,-920.8 L 2015.7,-925.4 L 2019.6,-930.1 L 2022.9,-933.7 L 2026.8,-937.3 L 2031.0,-940.6 L 2035.5,-943.6 L 2040.2,-946.0 L 2045.2,-948.1 L 2050.3,-949.6 L 2055.8,-950.7 L 2061.4,-951.3 L 2067.9,-951.3 L 2073.3,-950.9 L 2079.6,-950.1 L 2086.7,-948.9 L 2093.5,-947.5 L 2100.4,-945.8 L 2107.5,-944.0 L 2114.1,-942.4 L 2121.7,-940.7 L 2129.5,-939.2 L 2137.6,-938.0 L 2146.7,-937.0 L 2154.4,-936.5 L 2163.1,-936.4 L 2171.9,-936.7 L 2181.8,-937.6 L 2190.0,-938.7 L 2199.3,-940.2 L 2208.7,-941.9 L 2219.2,-944.2 L 2228.8,-946.5 L 2237.5,-948.7 L 2247.3,-951.4 L 2258.2,-954.6 L 2267.2,-957.3 L 2277.3,-960.3 L 2288.7,-963.6 L 2298.2,-966.2 L 2308.8,-969.2 L 2320.7,-972.3 L 2331.7,-975.2 L 2341.7,-977.7 L 2353.0,-980.5 L 2364.4,-983.2 L 2377.1,-986.1 L 2388.7,-988.5 L 2399.4,-990.5 L 2411.4,-992.6 L 2423.5,-994.5 L 2435.7,-996.2 L 2448.1,-997.8 L 2460.5,-999.2 L 2473.1,-1000.4 L 2485.8,-1001.5 L 2498.7,-1002.5 L 2511.6,-1003.4 L 2524.6,-1004.2 L 2539.1,-1004.9 L 2551.0,-1005.5 L 2564.3,-1006.1 L 2579.0,-1006.7 L 2592.5,-1007.2 L 2606.1,-1007.7 L 2618.4,-1008.2 L 2632.1,-1008.6 L 2645.9,-1009.0 L 2659.7,-1009.3 L 2673.6,-1009.6 L 2687.6,-1009.9 L 2701.6,-1010.2 L 2715.7,-1010.4 L 2731.3,-1010.8 L 2744.1,-1011.1 L 2758.3,-1011.4 L 2774.1,-1011.8 L 2787.0,-1012.1 L 2801.5,-1012.4 L 2815.9,-1012.7 L 2830.5,-1013.0 L 2845.1,-1013.4 L 2859.7,-1013.8 L 2874.3,-1014.2 L 2890.5,-1014.8 L 2903.8,-1015.2 L 2918.6,-1015.7 L 2935.0,-1016.3 L 2949.9,-1016.7 L 2963.3,-1017.1 L 2978.3,-1017.4 L 2993.3,-1017.7 L 3008.4,-1018.0 L 3023.5,-1018.2 L 3038.6,-1018.3 L 3053.8,-1018.5 L 3070.5,-1018.7 L 3084.3,-1018.9 L 3099.5,-1019.1 L 3114.9,-1019.3 L 3130.2,-1019.5 L 3147.2,-1019.8 L 3161.1,-1020.1 L 3176.6,-1020.4 L 3192.1,-1020.8 L 3207.7,-1021.2 L 3223.3,-1021.6 L 3238.9,-1022.0 L 3256.2,-1022.4 L 3270.3,-1022.8 L 3286.1,-1023.2 L 3301.9,-1023.6 L 3317.7,-1024.1 L 3335.2,-1024.5 L 3349.5,-1024.8 L 3365.4,-1025.0 L 3382.9,-1025.1 L 3397.3,-1025.1 L 3413.3,-1025.1 L 3429.4,-1024.9 L 3446.9,-1024.4 L 3460.9,-1023.7 L 3475.9,-1022.7 L 3490.3,-1021.6 L 3504.0,-1019.9 L 3517.0,-1017.9 L 3529.4,-1015.9 L 3540.9,-1013.8 L 3551.8,-1011.7 L 3561.8,-1009.5 L 3571.1,-1007.3 L 3579.7,-1005.3 L 3587.6,-1003.3 L 3595.0,-1001.4 L 3601.7,-999.5 L 3608.0,-997.7 L 3613.8,-995.9 L 3619.2,-994.2 L 3624.2,-992.6 L 3628.8,-991.0 L 3633.2,-989.4 L 3637.3,-987.7 L 3641.5,-985.6 L 3644.7,-983.6 L 3647.9,-981.1 L 3650.7,-978.2 L 3653.1,-975.1 L 3655.1,-971.6 L 3656.7,-967.8 L 3657.9,-963.8 L 3658.7,-959.4 L 3659.1,-954.7 L 3659.2,-949.8 L 3658.9,-944.6 L 3658.1,-939.2 L 3656.9,-933.1 L 3655.6,-928.0 L 3653.7,-921.5 L 3651.9,-916.1 L 3649.4,-909.2 L 3647.2,-903.3 L 3644.5,-895.9 L 3642.2,-888.8 L 3640.1,-882.2 L 3637.7,-874.6 L 3635.4,-866.9 L 3632.9,-858.9 L 3630.5,-850.8 L 3627.9,-842.4 L 3625.3,-833.9 L 3622.6,-825.1 L 3619.5,-815.3 L 3617.0,-807.1 L 3614.1,-797.9 L 3611.1,-788.5 L 3608.1,-779.0 L 3605.1,-769.3 L 3602.1,-759.5 L 3598.8,-748.5 L 3596.0,-739.4 L 3592.8,-729.2 L 3589.5,-718.8 L 3586.2,-708.3 L 3582.8,-697.6 L 3579.4,-686.9 L 3575.9,-676.0 L 3572.4,-665.0 L 3568.9,-653.8 L 3565.0,-641.4 L 3561.9,-631.1 L 3558.3,-619.7 L 3554.7,-608.1 L 3550.8,-595.3 L 3547.5,-584.7 L 3543.7,-572.9 L 3539.6,-559.7 L 3536.2,-548.9 L 3532.4,-536.8 L 3528.7,-524.5 L 3524.9,-512.2 L 3521.0,-499.8 L 3517.2,-487.3 L 3512.9,-473.4 L 3509.0,-460.7 L 3505.0,-447.9 L 3501.4,-436.4 L 3496.9,-422.2 L 3492.8,-409.2 L 3489.0,-397.5 L 3484.8,-384.4 L 3479.9,-370.0 L 3475.9,-358.1 L 3471.2,-344.9 L 3466.5,-331.7 L 3461.1,-317.2 L 3456.6,-305.4 L 3451.4,-292.2 L 3445.5,-277.7 L 3440.6,-265.8 L 3434.9,-252.5 L 3429.1,-239.3 L 3423.0,-226.2 L 3416.8,-213.0 L 3410.4,-199.9 L 3403.9,-186.8 L 3397.3,-173.6 L 3390.6,-160.4 L 3383.7,-147.2 L 3376.8,-134.1 L 3369.7,-120.9 L 3362.6,-107.7 L 3355.3,-94.5 L 3347.9,-81.3 L 3340.5,-68.0 L 3333.1,-54.8 L 3325.6,-41.5 L 3318.0,-28.2 L 3310.4,-14.9 L 3302.8,-1.4 L 3295.3,12.0 L 3287.7,25.6 L 3279.4,40.5 L 3271.8,54.1 L 3264.2,67.7 L 3257.3,80.0 L 3249.6,93.7 L 3241.8,107.3 L 3234.0,120.9 L 3226.0,134.6 L 3218.0,148.2 L 3208.9,163.0 L 3200.5,176.5 L 3192.8,188.6 L 3184.2,201.9 L 3175.4,215.3 L 3166.5,228.5 L 3156.6,243.1 L 3147.4,256.2 L 3138.2,269.3 L 3129.7,281.1 L 3120.3,294.2 L 3110.8,307.2 L 3101.2,320.3 L 3091.6,333.4 L 3082.0,346.4 L 3072.3,359.5 L 3062.4,372.4 L 3052.3,385.3 L 3042.2,398.1 L 3032.1,411.0 L 3021.9,423.8 L 3011.6,436.6 L 3001.3,449.4 L 2991.0,462.2 L 2980.6,475.0 L 2970.3,487.9 L 2958.8,501.9 L 2949.4,513.5 L 2937.9,527.6 L 2928.5,539.1 L 2918.0,551.8 L 2907.6,564.4 L 2897.4,576.6 L 2887.6,588.4 L 2878.2,599.6 L 2869.0,610.2 L 2860.0,620.3 L 2851.3,629.9 L 2841.8,639.9 L 2834.2,647.7 L 2825.8,655.9 L 2817.6,663.7 L 2809.5,671.0 L 2801.3,677.9 L 2792.9,684.2 L 2784.1,689.9 L 2774.9,695.0 L 2765.4,699.6 L 2755.4,703.7 L 2745.2,707.2 L 2734.8,710.4 L 2724.7,713.3 L 2715.0,716.0 L 2705.9,718.5 L 2697.2,720.9 L 2688.1,723.4 L 2681.0,725.3 L 2673.6,727.4 L 2666.6,729.3 L 2659.9,731.2 L 2653.7,733.0 L 2647.2,735.2 L 2642.3,737.1 L 2637.1,739.5 L 2632.2,742.2 L 2627.7,745.2 L 2623.0,749.1 L 2619.7,752.7 L 2616.4,757.0 L 2613.6,761.7 L 2611.2,766.7 L 2609.1,772.6 L 2607.8,778.2 L 2607.2,783.4 L 2607.2,789.3 L 2607.7,795.4 L 2608.6,801.6 L 2609.9,808.0 L 2611.8,815.2 L 2613.5,821.3 L 2615.8,828.3 L 2618.5,836.2 L 2621.0,842.8 L 2623.8,850.2 L 2626.9,857.9 L 2630.0,865.7 L 2633.3,873.7 L 2636.6,881.9 L 2640.0,890.3 L 2643.3,898.9 L 2646.7,907.7 L 2650.2,916.6 L 2654.0,926.6 L 2657.2,935.0 L 2660.7,944.4 L 2664.2,953.6 L 2667.4,962.4 L 2670.4,970.6 L 2673.3,978.3 L 2675.9,985.4 L 2678.3,992.1 L 2680.6,998.2 L 2682.6,1004.0 L 2684.6,1009.3 L 2686.4,1014.4 L 2688.0,1019.2 L 2689.6,1023.8 L 2691.0,1028.1 L 2692.3,1032.3 L 2693.4,1036.6 L 2694.1,1039.9 L 2694.7,1043.5 L 2694.8,1046.9 L 2694.7,1050.3 L 2694.1,1053.5 L 2693.2,1056.6 L 2691.9,1059.7 L 2690.2,1062.6 L 2688.0,1065.5 L 2685.4,1068.3 L 2682.4,1070.9 L 2678.5,1073.6 L 2675.0,1075.6 L 2670.3,1078.0 L 2666.2,1079.7 L 2661.2,1081.5 L 2655.8,1083.0 L 2650.1,1084.4 L 2644.1,1085.8 L 2637.9,1087.1 L 2631.5,1088.3 L 2624.1,1089.7 L 2617.9,1090.9 L 2609.9,1092.3 L 2603.2,1093.5 L 2595.5,1094.9 L 2586.8,1096.4 L 2578.8,1097.9 L 2571.4,1099.2 L 2563.1,1100.8 L 2554.6,1102.4 L 2545.8,1104.2 L 2536.9,1105.9 L 2526.9,1107.9 L 2518.5,1109.5 L 2509.0,1111.4 L 2498.4,1113.5 L 2489.7,1115.2 L 2479.8,1117.2 L 2469.7,1119.2 L 2459.5,1121.2 L 2448.2,1123.5 L 2437.6,1125.6 L 2428.1,1127.5 L 2417.3,1129.6 L 2406.4,1131.8 L 2395.3,1134.0 L 2383.0,1136.5 L 2372.8,1138.6 L 2361.4,1140.9 L 2349.8,1143.1 L 2338.1,1145.4 L 2326.3,1147.7 L 2314.5,1149.9 L 2302.6,1152.2 L 2290.6,1154.5 L 2277.3,1157.1 L 2266.4,1159.2 L 2254.1,1161.7 L 2240.5,1164.4 L 2229.2,1166.6 L 2215.4,1169.3 L 2204.0,1171.6 L 2190.0,1174.6 L 2178.5,1177.2 L 2165.6,1180.2 L 2151.4,1183.7 L 2138.5,1187.3 L 2126.9,1190.7 L 2112.6,1195.2 L 2101.0,1199.1 L 2088.1,1203.7 L 2075.2,1208.6 L 2062.3,1213.7 L 2049.4,1219.1 L 2036.6,1224.6 L 2022.4,1230.8 L 2010.8,1236.0 L 1997.9,1241.8 L 1983.7,1248.2 L 1970.7,1254.1 L 1957.6,1260.0 L 1945.8,1265.4 L 1932.6,1271.3 L 1919.3,1277.2 L 1904.7,1283.7 L 1892.6,1289.1 L 1877.9,1295.7 L 1865.7,1301.1 L 1852.2,1307.2 L 1838.7,1313.3 L 1823.8,1320.1 L 1811.5,1325.7 L 1797.9,1332.1 L 1783.0,1339.3 L 1769.5,1346.0 L 1756.0,1352.9 L 1743.8,1359.1 L 1730.2,1366.0 L 1716.7,1373.1 L 1703.1,1380.2 L 1689.6,1387.6 L 1674.9,1395.9 L 1662.9,1403.0 L 1649.8,1411.2 L 1636.9,1419.5 L 1623.4,1428.4 L 1611.6,1436.2 L 1601.4,1442.9 L 1590.6,1450.0 L 1580.1,1456.8 L 1570.0,1463.1 L 1560.2,1469.0 L 1549.8,1475.2 L 1541.6,1479.9 L 1532.7,1484.8 L 1524.0,1489.4 L 1515.5,1493.5 L 1507.2,1497.2 L 1499.0,1500.5 L 1490.1,1503.4 L 1482.7,1505.5 L 1473.6,1507.6 L 1465.9,1508.9 L 1457.3,1510.0 L 1447.7,1510.6 L 1439.7,1510.6 L 1430.7,1510.2 L 1420.9,1509.0 L 1412.8,1507.7 L 1403.9,1505.7 L 1394.3,1502.9 L 1385.6,1499.8 L 1378.0,1496.6 L 1369.6,1492.5 L 1361.4,1487.9 L 1352.7,1482.3 L 1345.7,1477.3 L 1338.1,1471.3 L 1330.8,1464.9 L 1323.6,1458.1 L 1316.5,1451.1 L 1309.5,1443.8 L 1301.6,1435.7 L 1295.0,1429.0 L 1286.6,1421.0 L 1278.7,1413.8 L 1271.3,1407.4 L 1262.9,1400.6 L 1254.1,1394.3 L 1244.9,1388.4 L 1235.4,1383.0 L 1224.6,1377.8 L 1215.5,1374.0 L 1204.2,1370.1 L 1193.6,1367.1 L 1183.9,1364.9 L 1172.9,1363.0 L 1161.7,1361.6 L 1150.4,1360.6 L 1139.0,1359.9 L 1127.4,1359.5 L 1115.8,1359.5 L 1104.1,1359.8 L 1092.6,1360.5 L 1081.3,1361.6 L 1070.3,1363.2 L 1059.4,1365.3 L 1048.7,1368.0 L 1038.4,1371.4 L 1027.5,1375.8 L 1018.8,1380.0 L 1009.5,1385.2 L 1000.4,1391.0 L 991.6,1397.3 L 983.1,1404.2 L 974.8,1411.4 L 966.0,1419.8 L 959.1,1426.7 L 950.9,1434.8 L 944.3,1441.0 L 937.0,1447.5 L 929.8,1453.7 L 921.8,1459.9 L 915.1,1464.5 L 906.6,1469.6 L 899.5,1473.4 L 891.3,1476.9 L 882.0,1480.3 L 874.1,1482.6 L 865.3,1484.7 L 855.3,1486.4 L 847.1,1487.3 L 837.8,1487.8 L 828.5,1487.7 L 818.3,1486.9 L 809.9,1485.7 L 800.6,1483.8 L 791.5,1481.3 L 782.5,1478.2 L 773.6,1474.5 L 765.0,1470.2 L 755.8,1464.8 L 747.7,1459.3 L 740.7,1453.9 L 732.5,1446.7 L 726.3,1440.6 L 719.9,1433.7 L 714.0,1426.9 L 708.3,1420.4 L 702.7,1414.2 L 697.0,1408.3 L 691.1,1402.7 L 684.5,1396.9 L 678.8,1392.6 L 671.5,1387.7 L 665.2,1384.1 L 657.9,1380.4 L 649.5,1376.8 L 642.5,1374.2 L 634.4,1371.6 L 625.3,1369.2 L 617.6,1367.7 L 609.0,1366.4 L 600.1,1365.6 L 591.0,1365.2 L 580.8,1365.2 L 572.3,1365.6 L 562.8,1366.2 L 553.0,1367.0 L 542.2,1368.1 L 533.2,1369.0 L 523.3,1370.2 L 512.2,1371.5 L 503.0,1372.7 L 492.7,1373.9 L 482.1,1375.2 L 471.5,1376.4 L 459.6,1377.6 L 449.7,1378.5 L 438.5,1379.2 L 426.1,1379.7 L 415.8,1379.9 L 404.3,1379.8 L 391.4,1379.4 L 380.8,1378.7 L 369.0,1377.6 L 357.1,1376.4 L 345.1,1375.2 L 333.1,1374.0 L 321.0,1373.1 L 308.7,1372.6 L 295.1,1372.4 L 284.0,1372.8 L 271.5,1373.7 L 257.6,1375.1 L 245.0,1376.7 L 232.4,1378.7 L 219.6,1380.8 L 208.1,1383.0 L 195.3,1385.6 L 181.1,1388.6 L 168.2,1391.4 L 156.4,1394.1 L 143.4,1397.1 L 130.2,1400.2 L 117.0,1403.4 L 103.7,1406.7 L 89.0,1410.2 L 75.5,1413.4 L 63.3,1416.3 L 49.7,1419.5 L 36.1,1422.7 L 21.0,1426.1 L 8.9,1428.9 L -4.0,1431.8 L -16.3,1434.7 L -27.9,1437.4 L -38.9,1440.0 L -49.3,1442.5 L -59.1,1444.9 L -68.3,1447.1 L -76.9,1449.2 L -85.8,1451.4 L -92.7,1453.1 L -99.9,1455.0 L -106.7,1456.7 L -113.0,1458.4 L -118.9,1460.1 L -124.4,1461.9 L -130.2,1464.1 L -134.7,1466.1 L -139.5,1468.6 L -144.6,1471.9 L -148.8,1474.8 L -153.3,1478.5 L -157.8,1482.4 L -162.2,1486.7 L -167.0,1491.6 L -171.0,1495.6 L -175.4,1499.8 L -180.1,1503.6 L -185.1,1507.1 L -190.4,1510.3 L -196.0,1513.2 L -202.5,1515.9 L -208.7,1517.9 L -214.5,1519.3 L -221.1,1520.6 L -227.8,1521.6 L -235.0,1522.3 L -241.1,1522.8 L -246.8,1523.2 L -252.0,1523.8 L -256.4,1524.4 L -260.9,1525.2 L -265.2,1526.2 L -269.6,1527.7 L -273.3,1529.4 L -276.6,1531.1 L -279.9,1533.4 L -283.1,1536.0 L -286.2,1538.8 L -289.2,1541.9 L -292.1,1545.1 L -294.9,1548.5 L -297.9,1551.8 L -301.4,1555.1 L -305.0,1557.8 L -308.4,1560.0 L -312.5,1562.2 L -317.4,1564.1 L -321.6,1565.4 L -326.5,1566.5 L -331.6,1567.2 L -337.0,1567.7 L -342.6,1567.9 L -348.6,1567.8 L -354.7,1567.5 L -361.0,1567.0 L -367.3,1566.3 L -373.8,1565.6 L -380.6,1565.0 L -387.7,1564.4 L -395.0,1563.8 L -402.6,1563.2 L -411.3,1562.6 L -419.3,1562.0 L -426.6,1561.6 L -434.8,1561.0 L -444.0,1560.5 L -452.6,1559.9 L -460.5,1559.4 L -470.4,1558.8 L -478.7,1558.2" fill="none" stroke="url(#g)" stroke-width="380.6" stroke-linecap="round" stroke-linejoin="round"/>
<path d="M -483.0,1558.0 L -505.9,1556.4 L -515.1,1555.9 L -526.5,1555.2 L -535.9,1554.6 L -546.5,1553.9 L -557.3,1553.2 L -568.2,1552.4 L -579.2,1551.4 L -590.3,1550.4 L -601.6,1549.5 L -613.1,1548.6 L -625.8,1547.6 L -636.3,1546.8 L -648.1,1546.0 L -660.0,1545.1 L -673.1,1544.2 L -684.0,1543.5 L -696.2,1542.7 L -709.7,1541.9 L -720.8,1541.2 L -734.5,1540.3 L -747.1,1539.5 L -758.5,1538.6 L -771.2,1537.6 L -784.0,1536.4 L -796.9,1535.1 L -811.2,1533.3 L -822.9,1531.6 L -837.2,1529.3 L -849.0,1527.3 L -862.2,1525.0 L -875.4,1522.6 L -888.7,1519.9 L -902.0,1517.1 L -915.3,1514.1 L -930.0,1510.5 L -941.9,1507.3 L -956.6,1503.1 L -968.5,1499.4 L -981.8,1495.0 L -995.0,1490.3 L -1008.1,1485.4 L -1021.0,1480.1 L -1033.6,1474.5 L -1045.9,1468.6 L -1057.8,1462.2 L -1069.2,1455.3 L -1080.2,1447.8 L -1090.6,1440.0 L -1101.5,1430.9 L -1109.8,1423.0 L -1118.4,1413.8 L -1127.2,1403.3 L -1133.7,1394.4 L -1140.5,1384.2 L -1146.6,1374.0 L -1152.3,1364.0 L -1158.2,1353.7 L -1163.1,1344.8 L -1167.3,1337.4 L -1171.6,1329.7 L -1175.6,1322.6 L -1179.4,1316.1 L -1182.8,1310.1 L -1186.1,1304.7 L -1189.1,1299.8 L -1192.0,1295.3 L -1195.0,1290.8 L -1197.6,1287.3 L -1200.4,1283.8 L -1203.4,1280.6 L -1206.9,1277.4 L -1210.4,1274.9 L -1213.6,1272.9 L -1217.4,1271.0 L -1221.5,1269.4 L -1225.7,1268.1 L -1230.7,1267.0 L -1234.9,1266.4 L -1239.8,1265.9 L -1245.0,1265.7 L -1250.3,1265.6 L -1255.4,1265.7 L -1260.8,1265.7 L -1265.4,1265.5 L -1269.5,1264.9 L -1273.9,1263.9 L -1278.2,1262.5 L -1282.5,1260.6 L -1286.7,1258.4 L -1290.8,1255.7 L -1294.6,1252.7 L -1298.1,1249.5 L -1301.6,1245.5 L -1304.6,1241.5 L -1307.2,1237.6 L -1310.5,1232.4 L -1313.2,1227.9 L -1316.3,1222.7 L -1319.4,1217.2 L -1322.6,1211.6 L -1325.9,1205.9 L -1329.6,1199.2 L -1332.9,1193.6 L -1336.5,1187.2 L -1340.4,1180.5 L -1344.3,1173.7 L -1348.8,1166.0 L -1352.5,1159.7 L -1356.7,1152.6 L -1361.0,1145.3 L -1365.6,1137.9 L -1370.9,1129.7 L -1375.6,1123.0 L -1381.1,1115.5 L -1387.0,1108.1 L -1394.0,1100.1 L -1400.8,1093.1 L -1407.9,1086.2 L -1414.6,1080.1 L -1422.1,1073.3 L -1429.7,1066.5 L -1438.1,1058.6 L -1444.9,1051.9 L -1452.3,1044.1 L -1459.6,1036.0 L -1466.6,1027.4 L -1474.0,1017.6 L -1479.7,1009.2 L -1485.5,999.5 L -1490.8,989.5 L -1495.4,979.2 L -1499.1,968.7 L -1502.3,957.0 L -1504.1,947.2 L -1505.6,936.3 L -1506.5,925.3 L -1506.9,913.3 L -1507.0,903.8 L -1506.9,893.7 L -1506.9,884.1 L -1506.9,875.0 L -1507.1,866.3 L -1507.5,857.9 L -1508.1,849.2 L -1508.8,842.4 L -1510.0,835.2 L -1511.5,828.3 L -1513.6,820.9 L -1515.8,815.0 L -1518.6,808.7 L -1522.0,802.6 L -1525.9,796.7 L -1530.3,791.0 L -1535.7,785.1 L -1540.4,780.5 L -1546.7,775.4 L -1552.9,771.5 L -1559.5,768.2 L -1566.4,765.5 L -1572.8,763.4 L -1580.3,761.5 L -1587.9,759.7 L -1595.7,758.0 L -1604.4,756.0 L -1611.7,754.2 L -1619.7,751.8 L -1627.7,748.8 L -1636.2,744.8 L -1643.0,741.0 L -1651.0,735.8 L -1657.3,731.1 L -1664.1,725.4 L -1670.6,719.2 L -1677.0,712.6 L -1683.2,705.7 L -1689.2,698.4 L -1695.1,690.7 L -1700.8,682.7 L -1706.2,674.4 L -1711.3,665.8 L -1716.2,656.9 L -1721.5,646.8 L -1725.6,638.3 L -1730.2,628.7 L -1734.7,618.9 L -1739.2,608.9 L -1743.6,598.7 L -1748.3,587.2 L -1752.5,576.7 L -1756.1,567.2 L -1759.7,557.0 L -1763.2,546.2 L -1765.7,537.7 L -1768.3,528.6 L -1770.8,519.9 L -1773.0,511.4 L -1775.1,502.4 L -1776.4,495.1 L -1777.4,487.0 L -1777.7,478.9 L -1777.4,471.0 L -1776.4,463.1 L -1774.8,455.2 L -1772.6,447.2 L -1769.8,439.3 L -1766.5,431.3 L -1762.8,423.3 L -1758.8,415.2 L -1754.4,407.0 L -1749.2,398.1 L -1744.7,390.7 L -1739.4,382.5 L -1733.8,374.3 L -1727.3,365.4 L -1721.1,357.2 L -1715.3,349.9 L -1708.6,341.8 L -1701.7,333.8 L -1694.4,325.7 L -1686.2,316.8 L -1678.5,308.7 L -1671.4,301.5 L -1663.2,293.4 L -1654.8,285.5 L -1646.2,277.6 L -1637.2,269.8 L -1628.0,262.2 L -1618.6,254.8 L -1607.9,246.8 L -1599.0,240.4 L -1588.8,233.3 L -1578.5,226.4 L -1566.9,218.9 L -1557.3,212.7 L -1546.4,205.9 L -1535.4,199.2 L -1524.3,192.4 L -1513.1,185.6 L -1500.6,178.1 L -1490.3,171.9 L -1478.8,165.0 L -1467.2,158.1 L -1455.5,151.2 L -1443.7,144.3 L -1431.8,137.3 L -1419.8,130.4 L -1407.7,123.5 L -1394.2,116.0 L -1381.9,109.3 L -1370.8,103.2 L -1358.3,96.6 L -1345.8,90.0 L -1333.1,83.5 L -1320.3,77.0 L -1306.1,70.1 L -1294.4,64.4 L -1281.3,58.3 L -1268.0,52.4 L -1253.3,46.1 L -1241.1,41.0 L -1227.5,35.6 L -1212.3,29.8 L -1199.8,25.2 L -1185.8,20.3 L -1170.4,14.9 L -1157.6,10.7 L -1143.4,6.0 L -1127.7,0.9 L -1114.7,-3.2 L -1100.3,-7.6 L -1085.8,-12.0 L -1071.2,-16.3 L -1056.6,-20.6 L -1040.4,-25.2 L -1027.1,-28.9 L -1012.3,-32.9 L -997.5,-37.0 L -982.6,-41.1 L -967.6,-45.2 L -951.2,-49.7 L -937.7,-53.5 L -922.7,-57.7 L -907.7,-62.0 L -892.6,-66.3 L -877.5,-70.6 L -862.3,-74.9 L -847.2,-79.3 L -830.5,-84.1 L -815.2,-88.5 L -801.5,-92.4 L -786.1,-96.7 L -770.8,-101.0 L -755.4,-105.3 L -740.0,-109.6 L -724.5,-113.9 L -709.1,-118.3 L -693.6,-122.6 L -678.0,-127.0 L -662.5,-131.3 L -646.9,-135.8 L -631.3,-140.2 L -615.7,-144.6 L -600.1,-149.0 L -584.4,-153.5 L -568.7,-158.0 L -553.0,-162.5 L -537.3,-167.0 L -521.5,-171.5 L -505.8,-176.0 L -490.0,-180.5 L -474.1,-185.0 L -458.3,-189.4 L -442.4,-193.9 L -424.9,-198.8 L -410.6,-202.7 L -394.7,-207.1 L -377.2,-212.0 L -362.9,-216.0 L -345.3,-220.9 L -331.0,-224.9 L -313.5,-229.8 L -299.2,-233.8 L -283.3,-238.4 L -267.4,-242.9 L -251.5,-247.6 L -235.6,-252.2 L -219.8,-256.9 L -203.9,-261.5 L -188.1,-266.2 L -172.2,-270.9 L -156.3,-275.5 L -140.4,-280.0 L -124.5,-284.5 L -108.6,-289.0 L -92.6,-293.4 L -76.7,-297.8 L -60.8,-302.2 L -45.4,-306.5 L -30.7,-310.6 L -16.8,-314.4 L -3.7,-317.9 L 9.9,-321.4 L 20.4,-324.1 L 31.4,-327.0 L 41.7,-329.8 L 52.3,-332.7 L 60.4,-334.8 L 68.8,-337.0 L 76.7,-339.0 L 84.1,-340.8 L 91.1,-342.4 L 98.4,-343.8 L 104.1,-344.8 L 110.3,-345.5 L 116.6,-345.8 L 122.9,-345.6 L 129.9,-344.9 L 135.5,-343.9 L 141.7,-342.1 L 147.9,-339.8 L 153.9,-337.0 L 160.3,-333.9 L 165.2,-331.5 L 171.1,-329.0 L 176.0,-327.4 L 181.4,-326.0 L 186.8,-325.2 L 192.7,-324.8 L 197.6,-325.0 L 203.0,-325.6 L 208.4,-326.8 L 213.9,-328.5 L 219.9,-331.1 L 224.8,-333.7 L 230.1,-337.1 L 235.4,-340.9 L 241.2,-345.7 L 246.5,-350.5 L 251.2,-355.1 L 256.5,-360.5 L 262.0,-366.0 L 267.8,-371.5 L 273.9,-377.0 L 280.4,-382.2 L 287.4,-387.3 L 295.5,-392.5 L 302.5,-396.5 L 310.7,-400.7 L 319.2,-404.5 L 328.0,-408.2 L 337.9,-412.0 L 346.3,-415.1 L 355.7,-418.3 L 365.2,-421.3 L 374.9,-424.2 L 384.9,-427.0 L 396.0,-430.1 L 405.2,-432.7 L 415.5,-435.6 L 426.0,-438.5 L 436.7,-441.5 L 447.5,-444.5 L 458.4,-447.5 L 469.5,-450.5 L 480.6,-453.6 L 491.9,-456.6 L 503.4,-459.7 L 514.9,-462.9 L 526.5,-466.0 L 538.1,-469.1 L 551.1,-472.6 L 561.8,-475.5 L 574.9,-479.1 L 585.8,-482.1 L 597.9,-485.4 L 611.4,-489.1 L 622.5,-492.2 L 634.9,-495.7 L 647.4,-499.2 L 660.0,-502.7 L 673.9,-506.7 L 686.7,-510.3 L 698.2,-513.7 L 712.4,-517.8 L 724.1,-521.2 L 737.1,-524.9 L 750.3,-528.6 L 764.9,-532.7 L 776.9,-535.9 L 790.3,-539.6 L 805.1,-543.6 L 817.3,-546.9 L 830.9,-550.5 L 844.5,-554.2 L 858.1,-558.0 L 873.2,-562.1 L 885.5,-565.6 L 900.7,-569.9 L 913.1,-573.5 L 926.9,-577.5 L 940.9,-581.5 L 954.8,-585.6 L 968.8,-589.6 L 982.9,-593.7 L 997.0,-597.8 L 1011.1,-601.9 L 1025.3,-605.9 L 1039.6,-609.9 L 1053.9,-614.0 L 1068.3,-618.0 L 1082.7,-622.0 L 1097.2,-626.0 L 1111.7,-630.1 L 1127.7,-634.5 L 1140.9,-638.1 L 1155.5,-642.1 L 1170.2,-646.2 L 1184.9,-650.3 L 1199.6,-654.5 L 1215.9,-659.1 L 1229.2,-662.9 L 1244.1,-667.2 L 1260.5,-671.9 L 1273.9,-675.7 L 1288.9,-680.0 L 1305.4,-684.7 L 1318.9,-688.6 L 1335.5,-693.4 L 1349.1,-697.3 L 1367.3,-702.6 L 1379.4,-706.1 L 1394.6,-710.5 L 1409.9,-715.0 L 1425.1,-719.4 L 1440.4,-723.9 L 1455.7,-728.4 L 1471.1,-732.9 L 1488.0,-737.9 L 1501.9,-742.0 L 1517.3,-746.4 L 1534.4,-751.1 L 1549.9,-755.3 L 1564.0,-759.0 L 1579.6,-763.1 L 1595.3,-767.2 L 1611.0,-771.4 L 1626.6,-775.6 L 1642.3,-779.9 L 1658.0,-784.3 L 1673.7,-788.7 L 1689.3,-793.2 L 1706.6,-798.0 L 1720.8,-802.0 L 1736.6,-806.5 L 1752.3,-810.9 L 1768.1,-815.3 L 1784.0,-819.7 L 1799.6,-824.2 L 1814.8,-828.5 L 1830.7,-833.0 L 1844.4,-836.9 L 1856.0,-840.3 L 1869.4,-844.1 L 1879.7,-847.2 L 1890.6,-850.4 L 1900.9,-853.4 L 1910.6,-856.2 L 1919.7,-858.9 L 1928.2,-861.5 L 1936.3,-863.9 L 1943.8,-866.3 L 1950.8,-868.6 L 1957.3,-871.0 L 1963.4,-873.5 L 1969.1,-876.2 L 1974.4,-879.3 L 1980.0,-883.0 L 1984.8,-886.8 L 1989.0,-890.5 L 1993.4,-895.0 L 1997.7,-899.8 L 2001.8,-905.0 L 2005.6,-910.4 L 2009.5,-916.2 L 2012.4,-920.8 L 2015.7,-925.4 L 2019.6,-930.1 L 2022.9,-933.7 L 2026.8,-937.3 L 2031.0,-940.6 L 2035.5,-943.6 L 2040.2,-946.0 L 2045.2,-948.1 L 2050.3,-949.6 L 2055.8,-950.7 L 2061.4,-951.3 L 2067.9,-951.3 L 2073.3,-950.9 L 2079.6,-950.1 L 2086.7,-948.9 L 2093.5,-947.5 L 2100.4,-945.8 L 2107.5,-944.0 L 2114.1,-942.4 L 2121.7,-940.7 L 2129.5,-939.2 L 2137.6,-938.0 L 2146.7,-937.0 L 2154.4,-936.5 L 2163.1,-936.4 L 2171.9,-936.7 L 2181.8,-937.6 L 2190.0,-938.7 L 2199.3,-940.2 L 2208.7,-941.9 L 2219.2,-944.2 L 2228.8,-946.5 L 2237.5,-948.7 L 2247.3,-951.4 L 2258.2,-954.6 L 2267.2,-957.3 L 2277.3,-960.3 L 2288.7,-963.6 L 2298.2,-966.2 L 2308.8,-969.2 L 2320.7,-972.3 L 2331.7,-975.2 L 2341.7,-977.7 L 2353.0,-980.5 L 2364.4,-983.2 L 2377.1,-986.1 L 2388.7,-988.5 L 2399.4,-990.5 L 2411.4,-992.6 L 2423.5,-994.5 L 2435.7,-996.2 L 2448.1,-997.8 L 2460.5,-999.2 L 2473.1,-1000.4 L 2485.8,-1001.5 L 2498.7,-1002.5 L 2511.6,-1003.4 L 2524.6,-1004.2 L 2539.1,-1004.9 L 2551.0,-1005.5 L 2564.3,-1006.1 L 2579.0,-1006.7 L 2592.5,-1007.2 L 2606.1,-1007.7 L 2618.4,-1008.2 L 2632.1,-1008.6 L 2645.9,-1009.0 L 2659.7,-1009.3 L 2673.6,-1009.6 L 2687.6,-1009.9 L 2701.6,-1010.2 L 2715.7,-1010.4 L 2731.3,-1010.8 L 2744.1,-1011.1 L 2758.3,-1011.4 L 2774.1,-1011.8 L 2787.0,-1012.1 L 2801.5,-1012.4 L 2815.9,-1012.7 L 2830.5,-1013.0 L 2845.1,-1013.4 L 2859.7,-1013.8 L 2874.3,-1014.2 L 2890.5,-1014.8 L 2903.8,-1015.2 L 2918.6,-1015.7 L 2935.0,-1016.3 L 2949.9,-1016.7 L 2963.3,-1017.1 L 2978.3,-1017.4 L 2993.3,-1017.7 L 3008.4,-1018.0 L 3023.5,-1018.2 L 3038.6,-1018.3 L 3053.8,-1018.5 L 3070.5,-1018.7 L 3084.3,-1018.9 L 3099.5,-1019.1 L 3114.9,-1019.3 L 3130.2,-1019.5 L 3147.2,-1019.8 L 3161.1,-1020.1 L 3176.6,-1020.4 L 3192.1,-1020.8 L 3207.7,-1021.2 L 3223.3,-1021.6 L 3238.9,-1022.0 L 3256.2,-1022.4 L 3270.3,-1022.8 L 3286.1,-1023.2 L 3301.9,-1023.6 L 3317.7,-1024.1 L 3335.2,-1024.5 L 3349.5,-1024.8 L 3365.4,-1025.0 L 3382.9,-1025.1 L 3397.3,-1025.1 L 3413.3,-1025.1 L 3429.4,-1024.9 L 3446.9,-1024.4 L 3460.9,-1023.7 L 3475.9,-1022.7 L 3490.3,-1021.6 L 3504.0,-1019.9 L 3517.0,-1017.9 L 3529.4,-1015.9 L 3540.9,-1013.8 L 3551.8,-1011.7 L 3561.8,-1009.5 L 3571.1,-1007.3 L 3579.7,-1005.3 L 3587.6,-1003.3 L 3595.0,-1001.4 L 3601.7,-999.5 L 3608.0,-997.7 L 3613.8,-995.9 L 3619.2,-994.2 L 3624.2,-992.6 L 3628.8,-991.0 L 3633.2,-989.4 L 3637.3,-987.7 L 3641.5,-985.6 L 3644.7,-983.6 L 3647.9,-981.1 L 3650.7,-978.2 L 3653.1,-975.1 L 3655.1,-971.6 L 3656.7,-967.8 L 3657.9,-963.8 L 3658.7,-959.4 L 3659.1,-954.7 L 3659.2,-949.8 L 3658.9,-944.6 L 3658.1,-939.2 L 3656.9,-933.1 L 3655.6,-928.0 L 3653.7,-921.5 L 3651.9,-916.1 L 3649.4,-909.2 L 3647.2,-903.3 L 3644.5,-895.9 L 3642.2,-888.8 L 3640.1,-882.2 L 3637.7,-874.6 L 3635.4,-866.9 L 3632.9,-858.9 L 3630.5,-850.8 L 3627.9,-842.4 L 3625.3,-833.9 L 3622.6,-825.1 L 3619.5,-815.3 L 3617.0,-807.1 L 3614.1,-797.9 L 3611.1,-788.5 L 3608.1,-779.0 L 3605.1,-769.3 L 3602.1,-759.5 L 3598.8,-748.5 L 3596.0,-739.4 L 3592.8,-729.2 L 3589.5,-718.8 L 3586.2,-708.3 L 3582.8,-697.6 L 3579.4,-686.9 L 3575.9,-676.0 L 3572.4,-665.0 L 3568.9,-653.8 L 3565.0,-641.4 L 3561.9,-631.1 L 3558.3,-619.7 L 3554.7,-608.1 L 3550.8,-595.3 L 3547.5,-584.7 L 3543.7,-572.9 L 3539.6,-559.7 L 3536.2,-548.9 L 3532.4,-536.8 L 3528.7,-524.5 L 3524.9,-512.2 L 3521.0,-499.8 L 3517.2,-487.3 L 3512.9,-473.4 L 3509.0,-460.7 L 3505.0,-447.9 L 3501.4,-436.4 L 3496.9,-422.2 L 3492.8,-409.2 L 3489.0,-397.5 L 3484.8,-384.4 L 3479.9,-370.0 L 3475.9,-358.1 L 3471.2,-344.9 L 3466.5,-331.7 L 3461.1,-317.2 L 3456.6,-305.4 L 3451.4,-292.2 L 3445.5,-277.7 L 3440.6,-265.8 L 3434.9,-252.5 L 3429.1,-239.3 L 3423.0,-226.2 L 3416.8,-213.0 L 3410.4,-199.9 L 3403.9,-186.8 L 3397.3,-173.6 L 3390.6,-160.4 L 3383.7,-147.2 L 3376.8,-134.1 L 3369.7,-120.9 L 3362.6,-107.7 L 3355.3,-94.5 L 3347.9,-81.3 L 3340.5,-68.0 L 3333.1,-54.8 L 3325.6,-41.5 L 3318.0,-28.2 L 3310.4,-14.9 L 3302.8,-1.4 L 3295.3,12.0 L 3287.7,25.6 L 3279.4,40.5 L 3271.8,54.1 L 3264.2,67.7 L 3257.3,80.0 L 3249.6,93.7 L 3241.8,107.3 L 3234.0,120.9 L 3226.0,134.6 L 3218.0,148.2 L 3208.9,163.0 L 3200.5,176.5 L 3192.8,188.6 L 3184.2,201.9 L 3175.4,215.3 L 3166.5,228.5 L 3156.6,243.1 L 3147.4,256.2 L 3138.2,269.3 L 3129.7,281.1 L 3120.3,294.2 L 3110.8,307.2 L 3101.2,320.3 L 3091.6,333.4 L 3082.0,346.4 L 3072.3,359.5 L 3062.4,372.4 L 3052.3,385.3 L 3042.2,398.1 L 3032.1,411.0 L 3021.9,423.8 L 3011.6,436.6 L 3001.3,449.4 L 2991.0,462.2 L 2980.6,475.0 L 2970.3,487.9 L 2958.8,501.9 L 2949.4,513.5 L 2937.9,527.6 L 2928.5,539.1 L 2918.0,551.8 L 2907.6,564.4 L 2897.4,576.6 L 2887.6,588.4 L 2878.2,599.6 L 2869.0,610.2 L 2860.0,620.3 L 2851.3,629.9 L 2841.8,639.9 L 2834.2,647.7 L 2825.8,655.9 L 2817.6,663.7 L 2809.5,671.0 L 2801.3,677.9 L 2792.9,684.2 L 2784.1,689.9 L 2774.9,695.0 L 2765.4,699.6 L 2755.4,703.7 L 2745.2,707.2 L 2734.8,710.4 L 2724.7,713.3 L 2715.0,716.0 L 2705.9,718.5 L 2697.2,720.9 L 2688.1,723.4 L 2681.0,725.3 L 2673.6,727.4 L 2666.6,729.3 L 2659.9,731.2 L 2653.7,733.0 L 2647.2,735.2 L 2642.3,737.1 L 2637.1,739.5 L 2632.2,742.2 L 2627.7,745.2 L 2623.0,749.1 L 2619.7,752.7 L 2616.4,757.0 L 2613.6,761.7 L 2611.2,766.7 L 2609.1,772.6 L 2607.8,778.2 L 2607.2,783.4 L 2607.2,789.3 L 2607.7,795.4 L 2608.6,801.6 L 2609.9,808.0 L 2611.8,815.2 L 2613.5,821.3 L 2615.8,828.3 L 2618.5,836.2 L 2621.0,842.8 L 2623.8,850.2 L 2626.9,857.9 L 2630.0,865.7 L 2633.3,873.7 L 2636.6,881.9 L 2640.0,890.3 L 2643.3,898.9 L 2646.7,907.7 L 2650.2,916.6 L 2654.0,926.6 L 2657.2,935.0 L 2660.7,944.4 L 2664.2,953.6 L 2667.4,962.4 L 2670.4,970.6 L 2673.3,978.3 L 2675.9,985.4 L 2678.3,992.1 L 2680.6,998.2 L 2682.6,1004.0 L 2684.6,1009.3 L 2686.4,1014.4 L 2688.0,1019.2 L 2689.6,1023.8 L 2691.0,1028.1 L 2692.3,1032.3 L 2693.4,1036.6 L 2694.1,1039.9 L 2694.7,1043.5 L 2694.8,1046.9 L 2694.7,1050.3 L 2694.1,1053.5 L 2693.2,1056.6 L 2691.9,1059.7 L 2690.2,1062.6 L 2688.0,1065.5 L 2685.4,1068.3 L 2682.4,1070.9 L 2678.5,1073.6 L 2675.0,1075.6 L 2670.3,1078.0 L 2666.2,1079.7 L 2661.2,1081.5 L 2655.8,1083.0 L 2650.1,1084.4 L 2644.1,1085.8 L 2637.9,1087.1 L 2631.5,1088.3 L 2624.1,1089.7 L 2617.9,1090.9 L 2609.9,1092.3 L 2603.2,1093.5 L 2595.5,1094.9 L 2586.8,1096.4 L 2578.8,1097.9 L 2571.4,1099.2 L 2563.1,1100.8 L 2554.6,1102.4 L 2545.8,1104.2 L 2536.9,1105.9 L 2526.9,1107.9 L 2518.5,1109.5 L 2509.0,1111.4 L 2498.4,1113.5 L 2489.7,1115.2 L 2479.8,1117.2 L 2469.7,1119.2 L 2459.5,1121.2 L 2448.2,1123.5 L 2437.6,1125.6 L 2428.1,1127.5 L 2417.3,1129.6 L 2406.4,1131.8 L 2395.3,1134.0 L 2383.0,1136.5 L 2372.8,1138.6 L 2361.4,1140.9 L 2349.8,1143.1 L 2338.1,1145.4 L 2326.3,1147.7 L 2314.5,1149.9 L 2302.6,1152.2 L 2290.6,1154.5 L 2277.3,1157.1 L 2266.4,1159.2 L 2254.1,1161.7 L 2240.5,1164.4 L 2229.2,1166.6 L 2215.4,1169.3 L 2204.0,1171.6 L 2190.0,1174.6 L 2178.5,1177.2 L 2165.6,1180.2 L 2151.4,1183.7 L 2138.5,1187.3 L 2126.9,1190.7 L 2112.6,1195.2 L 2101.0,1199.1 L 2088.1,1203.7 L 2075.2,1208.6 L 2062.3,1213.7 L 2049.4,1219.1 L 2036.6,1224.6 L 2022.4,1230.8 L 2010.8,1236.0 L 1997.9,1241.8 L 1983.7,1248.2 L 1970.7,1254.1 L 1957.6,1260.0 L 1945.8,1265.4 L 1932.6,1271.3 L 1919.3,1277.2 L 1904.7,1283.7 L 1892.6,1289.1 L 1877.9,1295.7 L 1865.7,1301.1 L 1852.2,1307.2 L 1838.7,1313.3 L 1823.8,1320.1 L 1811.5,1325.7 L 1797.9,1332.1 L 1783.0,1339.3 L 1769.5,1346.0 L 1756.0,1352.9 L 1743.8,1359.1 L 1730.2,1366.0 L 1716.7,1373.1 L 1703.1,1380.2 L 1689.6,1387.6 L 1674.9,1395.9 L 1662.9,1403.0 L 1649.8,1411.2 L 1636.9,1419.5 L 1623.4,1428.4 L 1611.6,1436.2 L 1601.4,1442.9 L 1590.6,1450.0 L 1580.1,1456.8 L 1570.0,1463.1 L 1560.2,1469.0 L 1549.8,1475.2 L 1541.6,1479.9 L 1532.7,1484.8 L 1524.0,1489.4 L 1515.5,1493.5 L 1507.2,1497.2 L 1499.0,1500.5 L 1490.1,1503.4 L 1482.7,1505.5 L 1473.6,1507.6 L 1465.9,1508.9 L 1457.3,1510.0 L 1447.7,1510.6 L 1439.7,1510.6 L 1430.7,1510.2 L 1420.9,1509.0 L 1412.8,1507.7 L 1403.9,1505.7 L 1394.3,1502.9 L 1385.6,1499.8 L 1378.0,1496.6 L 1369.6,1492.5 L 1361.4,1487.9 L 1352.7,1482.3 L 1345.7,1477.3 L 1338.1,1471.3 L 1330.8,1464.9 L 1323.6,1458.1 L 1316.5,1451.1 L 1309.5,1443.8 L 1301.6,1435.7 L 1295.0,1429.0 L 1286.6,1421.0 L 1278.7,1413.8 L 1271.3,1407.4 L 1262.9,1400.6 L 1254.1,1394.3 L 1244.9,1388.4 L 1235.4,1383.0 L 1224.6,1377.8 L 1215.5,1374.0 L 1204.2,1370.1 L 1193.6,1367.1 L 1183.9,1364.9 L 1172.9,1363.0 L 1161.7,1361.6 L 1150.4,1360.6 L 1139.0,1359.9 L 1127.4,1359.5 L 1115.8,1359.5 L 1104.1,1359.8 L 1092.6,1360.5 L 1081.3,1361.6 L 1070.3,1363.2 L 1059.4,1365.3 L 1048.7,1368.0 L 1038.4,1371.4 L 1027.5,1375.8 L 1018.8,1380.0 L 1009.5,1385.2 L 1000.4,1391.0 L 991.6,1397.3 L 983.1,1404.2 L 974.8,1411.4 L 966.0,1419.8 L 959.1,1426.7 L 950.9,1434.8 L 944.3,1441.0 L 937.0,1447.5 L 929.8,1453.7 L 921.8,1459.9 L 915.1,1464.5 L 906.6,1469.6 L 899.5,1473.4 L 891.3,1476.9 L 882.0,1480.3 L 874.1,1482.6 L 865.3,1484.7 L 855.3,1486.4 L 847.1,1487.3 L 837.8,1487.8 L 828.5,1487.7 L 818.3,1486.9 L 809.9,1485.7 L 800.6,1483.8 L 791.5,1481.3 L 782.5,1478.2 L 773.6,1474.5 L 765.0,1470.2 L 755.8,1464.8 L 747.7,1459.3 L 740.7,1453.9 L 732.5,1446.7 L 726.3,1440.6 L 719.9,1433.7 L 714.0,1426.9 L 708.3,1420.4 L 702.7,1414.2 L 697.0,1408.3 L 691.1,1402.7 L 684.5,1396.9 L 678.8,1392.6 L 671.5,1387.7 L 665.2,1384.1 L 657.9,1380.4 L 649.5,1376.8 L 642.5,1374.2 L 634.4,1371.6 L 625.3,1369.2 L 617.6,1367.7 L 609.0,1366.4 L 600.1,1365.6 L 591.0,1365.2 L 580.8,1365.2 L 572.3,1365.6 L 562.8,1366.2 L 553.0,1367.0 L 542.2,1368.1 L 533.2,1369.0 L 523.3,1370.2 L 512.2,1371.5 L 503.0,1372.7 L 492.7,1373.9 L 482.1,1375.2 L 471.5,1376.4 L 459.6,1377.6 L 449.7,1378.5 L 438.5,1379.2 L 426.1,1379.7 L 415.8,1379.9 L 404.3,1379.8 L 391.4,1379.4 L 380.8,1378.7 L 369.0,1377.6 L 357.1,1376.4 L 345.1,1375.2 L 333.1,1374.0 L 321.0,1373.1 L 308.7,1372.6 L 295.1,1372.4 L 284.0,1372.8 L 271.5,1373.7 L 257.6,1375.1 L 245.0,1376.7 L 232.4,1378.7 L 219.6,1380.8 L 208.1,1383.0 L 195.3,1385.6 L 181.1,1388.6 L 168.2,1391.4 L 156.4,1394.1 L 143.4,1397.1 L 130.2,1400.2 L 117.0,1403.4 L 103.7,1406.7 L 89.0,1410.2 L 75.5,1413.4 L 63.3,1416.3 L 49.7,1419.5 L 36.1,1422.7 L 21.0,1426.1 L 8.9,1428.9 L -4.0,1431.8 L -16.3,1434.7 L -27.9,1437.4 L -38.9,1440.0 L -49.3,1442.5 L -59.1,1444.9 L -68.3,1447.1 L -76.9,1449.2 L -85.8,1451.4 L -92.7,1453.1 L -99.9,1455.0 L -106.7,1456.7 L -113.0,1458.4 L -118.9,1460.1 L -124.4,1461.9 L -130.2,1464.1 L -134.7,1466.1 L -139.5,1468.6 L -144.6,1471.9 L -148.8,1474.8 L -153.3,1478.5 L -157.8,1482.4 L -162.2,1486.7 L -167.0,1491.6 L -171.0,1495.6 L -175.4,1499.8 L -180.1,1503.6 L -185.1,1507.1 L -190.4,1510.3 L -196.0,1513.2 L -202.5,1515.9 L -208.7,1517.9 L -214.5,1519.3 L -221.1,1520.6 L -227.8,1521.6 L -235.0,1522.3 L -241.1,1522.8 L -246.8,1523.2 L -252.0,1523.8 L -256.4,1524.4 L -260.9,1525.2 L -265.2,1526.2 L -269.6,1527.7 L -273.3,1529.4 L -276.6,1531.1 L -279.9,1533.4 L -283.1,1536.0 L -286.2,1538.8 L -289.2,1541.9 L -292.1,1545.1 L -294.9,1548.5 L -297.9,1551.8 L -301.4,1555.1 L -305.0,1557.8 L -308.4,1560.0 L -312.5,1562.2 L -317.4,1564.1 L -321.6,1565.4 L -326.5,1566.5 L -331.6,1567.2 L -337.0,1567.7 L -342.6,1567.9 L -348.6,1567.8 L -354.7,1567.5 L -361.0,1567.0 L -367.3,1566.3 L -373.8,1565.6 L -380.6,1565.0 L -387.7,1564.4 L -395.0,1563.8 L -402.6,1563.2 L -411.3,1562.6 L -419.3,1562.0 L -426.6,1561.6 L -434.8,1561.0 L -444.0,1560.5 L -452.6,1559.9 L -460.5,1559.4 L -470.4,1558.8 L -478.7,1558.2" fill="none" stroke="#ffffff" stroke-opacity="0.92" stroke-width="38.1" stroke-linecap="round" stroke-linejoin="round"/>
<line x1="-461.0" y1="1216.2" x2="-505.1" y2="1899.8" stroke="#ffffff" stroke-width="53.3" stroke-linecap="round"/>
</svg>