<svg xmlns="http://www.w3.org/2000/svg" viewBox="-523.3 -375.1 1267.3 797.2">
<defs><linearGradient id="g" gradientUnits="userSpaceOnUse" x1="-463.1" y1="-314.9" x2="683.8" y2="361.9">
<stop offset="0" stop-color="#1c9fe0"/><stop offset="1" stop-color="#0b1f44"/></linearGradient></defs>
<path d="M 21.3,260.2 L 2.7,265.7 L -10.6,269.6 L -25.2,273.9 L -37.3,277.4 L -52.0,281.8 L -64.1,285.3 L -77.5,289.3 L -91.0,293.3 L -104.5,297.3 L -118.1,301.3 L -131.7,305.3 L -145.3,309.3 L -158.9,313.4 L -174.0,317.9 L -186.3,321.6 L -200.1,325.7 L -213.8,329.8 L -227.2,333.8 L -239.9,337.6 L -251.9,341.2 L -263.1,344.5 L -273.5,347.6 L -283.4,350.4 L -292.7,353.1 L -301.5,355.4 L -309.7,357.4 L -317.5,359.1 L -324.9,360.5 L -331.9,361.4 L -338.7,361.9 L -345.2,361.9 L -351.6,361.4 L -357.9,360.2 L -364.2,358.5 L -370.4,356.1 L -376.4,353.2 L -382.3,349.8 L -388.1,345.9 L -393.6,341.6 L -398.9,336.7 L -404.2,331.5 L -409.6,326.2 L -414.9,320.5 L -420.7,313.9 L -425.3,308.3 L -430.3,301.8 L -435.7,294.3 L -439.8,287.8 L -444.1,280.3 L -448.6,271.7 L -451.9,264.4 L -455.3,256.0 L -458.1,247.3 L -460.3,238.3 L -461.8,229.0 L -462.8,219.7 L -463.1,210.2 L -462.9,200.6 L -462.1,190.9 L -460.7,180.2 L -459.3,171.4 L -457.6,161.9 L -455.6,152.2 L -453.9,144.9 L -452.1,137.5 L -450.3,130.7 L -448.5,124.6 L -446.6,119.0 L -444.4,113.4 L -442.5,109.3 L -440.2,105.0 L -437.9,101.2 L -435.3,97.9 L -432.2,94.8 L -429.5,92.8 L -426.5,91.0 L -422.9,89.6 L -419.9,88.9 L -416.2,88.6 L -413.3,88.8 L -409.5,89.6 L -406.5,90.7 L -403.3,92.4 L -399.9,94.8 L -397.2,97.2 L -394.5,100.3 L -392.0,103.8 L -389.7,107.6 L -387.6,111.9 L -385.5,116.6 L -383.5,121.6 L -381.4,126.9 L -379.1,132.4 L -376.6,137.9 L -373.6,143.5 L -370.0,149.7 L -366.5,154.6 L -361.9,160.1 L -357.8,164.2 L -352.8,168.3 L -346.7,172.3 L -340.8,175.7 L -334.6,178.6 L -328.7,181.0 L -321.8,183.1 L -314.8,184.8 L -307.5,186.1 L -299.3,186.9 L -292.4,187.2 L -283.8,187.1 L -276.6,186.7 L -268.5,185.9 L -260.3,184.8 L -252.0,183.4 L -243.5,181.7 L -235.0,179.7 L -226.4,177.3 L -217.7,174.8 L -208.9,172.0 L -199.2,168.7 L -191.1,165.9 L -182.0,162.9 L -172.8,159.8 L -163.4,156.7 L -153.9,153.6 L -144.4,150.6 L -134.7,147.5 L -123.9,144.1 L -115.0,141.3 L -105.0,138.1 L -94.9,134.9 L -83.7,131.4 L -73.3,128.3 L -62.9,125.2 L -59.7,124.3 L -53.4,122.5 L -41.6,119.2 L -31.9,116.6 L -19.8,113.5 L -9.9,110.8 L 1.1,107.9 L 12.3,104.9 L 23.5,101.8 L 34.8,98.7 L 46.1,95.5 L 57.6,92.3 L 69.0,88.9 L 80.6,85.4 L 92.0,82.0 L 102.9,78.7 L 113.4,75.6 L 123.3,72.7 L 132.7,69.9 L 141.5,67.3 L 150.5,64.7 L 157.5,62.6 L 164.7,60.4 L 171.5,58.3 L 177.7,56.3 L 183.6,54.3 L 189.1,52.2 L 194.1,50.1 L 198.5,47.8 L 202.8,45.0 L 205.8,42.5 L 208.7,39.6 L 211.0,36.6 L 212.8,33.4 L 214.1,29.9 L 214.7,26.6 L 214.7,23.3 L 214.2,20.5 L 213.1,17.5 L 211.4,14.7 L 209.4,12.2 L 206.8,9.9 L 203.9,7.8 L 200.6,5.9 L 196.9,4.1 L 192.7,2.4 L 188.2,1.0 L 183.4,-0.2 L 178.1,-1.2 L 172.6,-2.1 L 166.9,-2.8 L 160.9,-3.5 L 154.8,-4.1 L 148.5,-4.7 L 141.9,-5.4 L 135.2,-6.0 L 127.5,-6.7 L 121.1,-7.2 L 113.7,-7.7 L 106.2,-8.2 L 98.6,-8.7 L 89.9,-9.1 L 82.7,-9.3 L 73.8,-9.5 L 66.4,-9.6 L 57.2,-9.6 L 49.5,-9.5 L 40.8,-9.3 L 32.1,-9.0 L 22.2,-8.4 L 14.1,-7.6 L 5.0,-6.5 L -4.2,-5.0 L -13.4,-3.2 L -22.7,-0.9 L -32.8,2.0 L -41.1,4.8 L -50.2,8.4 L -59.3,12.3 L -69.2,17.0 L -77.3,21.2 L -87.2,26.6 L -95.3,31.2 L -104.3,36.5 L -113.3,41.9 L -122.3,47.3 L -130.9,52.4 L -139.0,57.2 L -146.8,61.6 L -154.3,65.6 L -161.6,69.1 L -168.9,72.0 L -176.3,74.4 L -183.8,76.3 L -191.4,77.6 L -199.1,78.3 L -207.0,78.5 L -215.1,78.0 L -224.1,76.8 L -231.4,75.2 L -239.6,72.9 L -247.7,69.9 L -256.5,66.0 L -263.4,62.3 L -270.9,57.7 L -278.1,52.5 L -284.7,47.1 L -290.9,41.8 L -296.5,36.7 L -301.4,31.8 L -305.8,27.1 L -309.5,22.5 L -312.6,18.0 L -315.2,13.5 L -317.1,9.0 L -318.4,4.0 L -318.9,-0.1 L -318.9,-4.6 L -318.2,-9.7 L -317.1,-13.7 L -315.4,-18.1 L -313.1,-22.3 L -310.4,-26.1 L -307.1,-29.6 L -303.5,-32.8 L -299.1,-35.9 L -295.2,-38.1 L -290.5,-40.1 L -285.5,-42.0 L -279.7,-43.8 L -274.6,-45.1 L -268.7,-46.5 L -262.7,-47.6 L -256.6,-48.5 L -250.2,-49.4 L -243.6,-50.2 L -236.7,-50.9 L -229.7,-51.6 L -222.4,-52.2 L -215.0,-52.9 L -207.3,-53.5 L -199.5,-54.2 L -191.5,-54.8 L -183.4,-55.5 L -174.2,-56.1 L -166.6,-56.7 L -158.0,-57.3 L -149.1,-57.9 L -139.2,-58.5 L -131.0,-59.0 L -121.7,-59.6 L -112.2,-60.3 L -111.2,-60.4 L -102.5,-61.1 L -92.7,-62.0 L -82.7,-63.0 L -72.6,-64.3 L -62.4,-65.9 L -52.1,-67.8 L -41.7,-70.1 L -30.4,-73.2 L -21.2,-76.2 L -11.0,-80.1 L -1.0,-84.6 L 8.8,-89.7 L 18.2,-95.5 L 28.2,-102.7 L 35.9,-109.1 L 44.9,-117.7 L 52.4,-126.0 L 59.4,-134.9 L 65.2,-143.2 L 71.2,-152.8 L 77.3,-163.7 L 82.0,-172.8 L 87.2,-183.0 L 92.4,-193.3 L 97.8,-203.5 L 103.4,-213.7 L 109.2,-223.8 L 115.0,-233.7 L 118.4,-239.4 L 120.6,-243.1 L 126.5,-252.7 L 131.1,-260.2 L 136.5,-268.7 L 140.8,-275.2 L 145.6,-281.8 L 150.4,-287.8 L 155.8,-293.7 L 160.3,-298.0 L 165.4,-302.3 L 170.7,-305.9 L 176.1,-308.9 L 181.6,-311.3 L 187.1,-313.1 L 192.8,-314.3 L 198.4,-314.9 L 203.9,-314.9 L 209.2,-314.3 L 214.7,-313.0 L 219.0,-311.4 L 224.0,-308.9 L 227.8,-306.4 L 231.9,-303.1 L 236.2,-298.9 L 239.4,-295.1 L 242.7,-290.4 L 245.6,-285.4 L 248.2,-280.0 L 250.5,-274.2 L 252.5,-268.1 L 254.3,-261.7 L 256.1,-255.0 L 257.9,-248.1 L 259.8,-240.2 L 261.3,-233.4 L 262.9,-225.8 L 264.6,-217.9 L 266.2,-209.8 L 268.0,-201.4 L 270.0,-193.0 L 272.6,-183.5 L 275.2,-175.8 L 279.0,-166.4 L 282.6,-158.8 L 287.7,-149.7 L 292.5,-142.6 L 298.5,-135.0 L 305.1,-127.9 L 312.3,-121.3 L 320.7,-114.6 L 328.0,-109.5 L 336.4,-104.3 L 345.2,-99.6 L 355.3,-95.0 L 363.8,-91.8 L 373.4,-88.6 L 383.4,-85.9 L 393.5,-83.8 L 404.8,-81.8 L 414.0,-80.4 L 423.9,-79.1 L 434.2,-77.9 L 442.0,-76.9 L 450.8,-76.0 L 458.2,-75.4 L 464.4,-75.0 L 470.9,-74.9 L 476.8,-75.1 L 482.4,-75.7 L 487.9,-76.7 L 492.0,-77.9 L 496.2,-79.6 L 499.9,-81.7 L 503.1,-84.0 L 505.9,-86.8 L 508.3,-89.8 L 510.2,-93.0 L 511.6,-96.6 L 512.6,-100.3 L 513.1,-104.3 L 513.2,-108.4 L 512.7,-113.0 L 511.8,-116.8 L 510.2,-121.4 L 508.2,-125.8 L 506.1,-129.7 L 503.2,-134.0 L 499.9,-138.2 L 496.2,-142.3 L 491.9,-146.3 L 487.4,-150.2 L 482.5,-154.0 L 477.4,-157.9 L 471.3,-162.0 L 465.5,-165.7 L 459.4,-169.4 L 453.7,-172.7 L 447.2,-176.6 L 440.6,-180.5 L 434.1,-184.7 L 427.8,-188.8 L 422.0,-192.9 L 416.3,-197.5 L 412.1,-201.2 L 407.8,-205.5 L 404.0,-209.8 L 400.7,-214.4 L 397.9,-219.1 L 395.6,-224.1 L 393.8,-229.3 L 392.5,-234.6 L 391.7,-240.0 L 391.5,-245.3 L 391.9,-250.6 L 392.9,-255.7 L 394.4,-260.6 L 396.4,-265.3 L 398.9,-269.7 L 402.3,-274.3 L 405.6,-277.9 L 409.6,-281.7 L 414.1,-285.1 L 419.1,-288.2 L 424.4,-290.9 L 430.1,-293.1 L 436.2,-294.9 L 443.3,-296.4 L 449.4,-297.1 L 457.1,-297.4 L 463.6,-297.2 L 471.8,-296.3 L 478.5,-295.2 L 486.2,-293.5 L 494.6,-291.2 L 502.3,-288.4 L 509.1,-285.5 L 516.7,-281.8 L 524.2,-277.6 L 531.6,-272.9 L 538.9,-267.8 L 546.7,-261.7 L 553.8,-255.8 L 560.2,-250.3 L 567.3,-244.1 L 574.5,-237.8 L 581.8,-231.3 L 589.2,-224.8 L 596.6,-218.1 L 604.0,-211.4 L 611.5,-204.4 L 618.9,-197.3 L 626.2,-189.9 L 633.3,-182.2 L 640.2,-174.1 L 647.3,-164.8 L 652.7,-157.0 L 658.7,-147.1 L 663.1,-138.8 L 667.4,-129.4 L 671.3,-119.9 L 674.7,-110.4 L 677.5,-100.8 L 679.9,-91.1 L 681.8,-81.2 L 683.0,-71.2 L 683.8,-59.9 L 683.8,-50.6 L 683.2,-40.1 L 681.9,-29.6 L 679.9,-19.1 L 677.1,-8.6 L 673.7,1.7 L 669.6,11.8 L 664.2,22.5 L 659.2,31.0 L 653.0,40.2 L 646.2,49.0 L 638.8,57.4 L 630.1,66.0 L 621.7,73.0 L 613.8,78.8 L 604.6,84.6 L 595.0,89.8 L 585.0,94.6 L 574.8,98.9 L 564.2,102.8 L 553.5,106.3 L 541.5,110.0 L 531.6,112.8 L 520.5,115.9 L 509.3,118.9 L 498.0,121.9 L 486.7,125.0 L 474.2,128.5 L 463.9,131.3 L 452.4,134.5 L 440.8,137.7 L 429.3,140.9 L 417.6,144.2 L 405.9,147.6 L 394.2,151.1 L 382.4,154.5 L 370.6,158.1 L 358.7,161.6 L 346.7,165.2 L 334.7,168.8 L 322.6,172.4 L 310.4,176.0 L 297.0,179.9 L 285.9,183.2 L 272.3,187.1 L 259.9,190.8 L 247.4,194.4 L 236.2,197.6 L 223.6,201.2 L 210.9,204.9 L 198.2,208.5 L 185.5,212.1 L 172.7,215.8 L 159.9,219.5 L 147.0,223.2 L 132.8,227.2 L 119.8,231.0 L 108.1,234.4 L 95.1,238.1 L 82.0,241.9 L 68.9,245.7 L 55.8,249.5 L 42.6,253.3 L 29.4,257.1" fill="none" stroke="url(#g)" stroke-width="80.3" stroke-linecap="round" stroke-linejoin="round"/>
<path d="M 21.3,260.2 L 2.7,265.7 L -10.6,269.6 L -25.2,273.9 L -37.3,277.4 L -52.0,281.8 L -64.1,285.3 L -77.5,289.3 L -91.0,293.3 L -104.5,297.3 L -118.1,301.3 L -131.7,305.3 L -145.3,309.3 L -158.9,313.4 L -174.0,317.9 L -186.3,321.6 L -200.1,325.7 L -213.8,329.8 L -227.2,333.8 L -239.9,337.6 L -251.9,341.2 L -263.1,344.5 L -273.5,347.6 L -283.4,350.4 L -292.7,353.1 L -301.5,355.4 L -309.7,357.4 L -317.5,359.1 L -324.9,360.5 L -331.9,361.4 L -338.7,361.9 L -345.2,361.9 L -351.6,361.4 L -357.9,360.2 L -364.2,358.5 L -370.4,356.1 L -376.4,353.2 L -382.3,349.8 L -388.1,345.9 L -393.6,341.6 L -398.9,336.7 L -404.2,331.5 L -409.6,326.2 L -414.9,320.5 L -420.7,313.9 L -425.3,308.3 L -430.3,301.8 L -435.7,294.3 L -439.8,287.8 L -444.1,280.3 L -448.6,271.7 L -451.9,264.4 L -455.3,256.0 L -458.1,247.3 L -460.3,238.3 L -461.8,229.0 L -462.8,219.7 L -463.1,210.2 L -462.9,200.6 L -462.1,190.9 L -460.7,180.2 L -459.3,171.4 L -457.6,161.9 L -455.6,152.2 L -453.9,144.9 L -452.1,137.5 L -450.3,130.7 L -448.5,124.6 L -446.6,119.0 L -444.4,113.4 L -442.5,109.3 L -440.2,105.0 L -437.9,101.2 L -435.3,97.9 L -432.2,94.8 L -429.5,92.8 L -426.5,91.0 L -422.9,89.6 L -419.9,88.9 L -416.2,88.6 L -413.3,88.8 L -409.5,89.6 L -406.5,90.7 L -403.3,92.4 L -399.9,94.8 L -397.2,97.2 L -394.5,100.3 L -392.0,103.8 L -389.7,107.6 L -387.6,111.9 L -385.5,116.6 L -383.5,121.6 L -381.4,126.9 L -379.1,132.4 L -376.6,137.9 L -373.6,143.5 L -370.0,149.7 L -366.5,154.6 L -361.9,160.1 L -357.8,164.2 L -352.8,168.3 L -346.7,172.3 L -340.8,175.7 L -334.6,178.6 L -328.7,181.0 L -321.8,183.1 L -314.8,184.8 L -307.5,186.1 L -299.3,186.9 L -292.4,187.2 L -283.8,187.1 L -276.6,186.7 L -268.5,185.9 L -260.3,184.8 L -252.0,183.4 L -243.5,181.7 L -235.0,179.7 L -226.4,177.3 L -217.7,174.8 L -208.9,172.0 L -199.2,168.7 L -191.1,165.9 L -182.0,162.9 L -172.8,159.8 L -163.4,156.7 L -153.9,153.6 L -144.4,150.6 L -134.7,147.5 L -123.9,144.1 L -115.0,141.3 L -105.0,138.1 L -94.9,134.9 L -83.7,131.4 L -73.3,128.3 L -62.9,125.2 L -59.7,124.3 L -53.4,122.5 L -41.6,119.2 L -31.9,116.6 L -19.8,113.5 L -9.9,110.8 L 1.1,107.9 L 12.3,104.9 L 23.5,101.8 L 34.8,98.7 L 46.1,95.5 L 57.6,92.3 L 69.0,88.9 L 80.6,85.4 L 92.0,82.0 L 102.9,78.7 L 113.4,75.6 L 123.3,72.7 L 132.7,69.9 L 141.5,67.3 L 150.5,64.7 L 157.5,62.6 L 164.7,60.4 L 171.5,58.3 L 177.7,56.3 L 183.6,54.3 L 189.1,52.2 L 194.1,50.1 L 198.5,47.8 L 202.8,45.0 L 205.8,42.5 L 208.7,39.6 L 211.0,36.6 L 212.8,33.4 L 214.1,29.9 L 214.7,26.6 L 214.7,23.3 L 214.2,20.5 L 213.1,17.5 L 211.4,14.7 L 209.4,12.2 L 206.8,9.9 L 203.9,7.8 L 200.6,5.9 L 196.9,4.1 L 192.7,2.4 L 188.2,1.0 L 183.4,-0.2 L 178.1,-1.2 L 172.6,-2.1 L 166.9,-2.8 L 160.9,-3.5 L 154.8,-4.1 L 148.5,-4.7 L 141.9,-5.4 L 135.2,-6.0 L 127.5,-6.7 L 121.1,-7.2 L 113.7,-7.7 L 106.2,-8.2 L 98.6,-8.7 L 89.9,-9.1 L 82.7,-9.3 L 73.8,-9.5 L 66.4,-9.6 L 57.2,-9.6 L 49.5,-9.5 L 40.8,-9.3 L 32.1,-9.0 L 22.2,-8.4 L 14.1,-7.6 L 5.0,-6.5 L -4.2,-5.0 L -13.4,-3.2 L -22.7,-0.9 L -32.8,2.0 L -41.1,4.8 L -50.2,8.4 L -59.3,12.3 L -69.2,17.0 L -77.3,21.2 L -87.2,26.6 L -95.3,31.2 L -104.3,36.5 L -113.3,41.9 L -122.3,47.3 L -130.9,52.4 L -139.0,57.2 L -146.8,61.6 L -154.3,65.6 L -161.6,69.1 L -168.9,72.0 L -176.3,74.4 L -183.8,76.3 L -191.4,77.6 L -199.1,78.3 L -207.0,78.5 L -215.1,78.0 L -224.1,76.8 L -231.4,75.2 L -239.6,72.9 L -247.7,69.9 L -256.5,66.0 L -263.4,62.3 L -270.9,57.7 L -278.1,52.5 L -284.7,47.1 L -290.9,41.8 L -296.5,36.7 L -301.4,31.8 L -305.8,27.1 L -309.5,22.5 L -312.6,18.0 L -315.2,13.5 L -317.1,9.0 L -318.4,4.0 L -318.9,-0.1 L -318.9,-4.6 L -318.2,-9.7 L -317.1,-13.7 L -315.4,-18.1 L -313.1,-22.3 L -310.4,-26.1 L -307.1,-29.6 L -303.5,-32.8 L -299.1,-35.9 L -295.2,-38.1 L -290.5,-40.1 L -285.5,-42.0 L -279.7,-43.8 L -274.6,-45.1 L -268.7,-46.5 L -262.7,-47.6 L -256.6,-48.5 L -250.2,-49.4 L -243.6,-50.2 L -236.7,-50.9 L -229.7,-51.6 L -222.4,-52.2 L -215.0,-52.9 L -207.3,-53.5 L -199.5,-54.2 L -191.5,-54.8 L -183.4,-55.5 L -174.2,-56.1 L -166.6,-56.7 L -158.0,-57.3 L -149.1,-57.9 L -139.2,-58.5 L -131.0,-59.0 L -121.7,-59.6 L -112.2,-60.3 L -111.2,-60.4 L -102.5,-61.1 L -92.7,-62.0 L -82.7,-63.0 L -72.6,-64.3 L -62.4,-65.9 L -52.1,-67.8 L -41.7,-70.1 L -30.4,-73.2 L -21.2,-76.2 L -11.0,-80.1 L -1.0,-84.6 L 8.8,-89.7 L 18.2,-95.5 L 28.2,-102.7 L 35.9,-109.1 L 44.9,-117.7 L 52.4,-126.0 L 59.4,-134.9 L 65.2,-143.2 L 71.2,-152.8 L 77.3,-163.7 L 82.0,-172.8 L 87.2,-183.0 L 92.4,-193.3 L 97.8,-203.5 L 103.4,-213.7 L 109.2,-223.8 L 115.0,-233.7 L 118.4,-239.4 L 120.6,-243.1 L 126.5,-252.7 L 131.1,-260.2 L 136.5,-268.7 L 140.8,-275.2 L 145.6,-281.8 L 150.4,-287.8 L 155.8,-293.7 L 160.3,-298.0 L 165.4,-302.3 L 170.7,-305.9 L 176.1,-308.9 L 181.6,-311.3 L 187.1,-313.1 L 192.8,-314.3 L 198.4,-314.9 L 203.9,-314.9 L 209.2,-314.3 L 214.7,-313.0 L 219.0,-311.4 L 224.0,-308.9 L 227.8,-306.4 L 231.9,-303.1 L 236.2,-298.9 L 239.4,-295.1 L 242.7,-290.4 L 245.6,-285.4 L 248.2,-280.0 L 250.5,-274.2 L 252.5,-268.1 L 254.3,-261.7 L 256.1,-255.0 L 257.9,-248.1 L 259.8,-240.2 L 261.3,-233.4 L 262.9,-225.8 L 264.6,-217.9 L 266.2,-209.8 L 268.0,-201.4 L 270.0,-193.0 L 272.6,-183.5 L 275.2,-175.8 L 279.0,-166.4 L 282.6,-158.8 L 287.7,-149.7 L 292.5,-142.6 L 298.5,-135.0 L 305.1,-127.9 L 312.3,-121.3 L 320.7,-114.6 L 328.0,-109.5 L 336.4,-104.3 L 345.2,-99.6 L 355.3,-95.0 L 363.8,-91.8 L 373.4,-88.6 L 383.4,-85.9 L 393.5,-83.8 L 404.8,-81.8 L 414.0,-80.4 L 423.9,-79.1 L 434.2,-77.9 L 442.0,-76.9 L 450.8,-76.0 L 458.2,-75.4 L 464.4,-75.0 L 470.9,-74.9 L 476.8,-75.1 L 482.4,-75.7 L 487.9,-76.7 L 492.0,-77.9 L 496.2,-79.6 L 499.9,-81.7 L 503.1,-84.0 L 505.9,-86.8 L 508.3,-89.8 L 510.2,-93.0 L 511.6,-96.6 L 512.6,-100.3 L 513.1,-104.3 L 513.2,-108.4 L 512.7,-113.0 L 511.8,-116.8 L 510.2,-121.4 L 508.2,-125.8 L 506.1,-129.7 L 503.2,-134.0 L 499.9,-138.2 L 496.2,-142.3 L 491.9,-146.3 L 487.4,-150.2 L 482.5,-154.0 L 477.4,-157.9 L 471.3,-162.0 L 465.5,-165.7 L 459.4,-169.4 L 453.7,-172.7 L 447.2,-176.6 L 440.6,-180.5 L 434.1,-184.7 L 427.8,-188.8 L 422.0,-192.9 L 416.3,-197.5 L 412.1,-201.2 L 407.8,-205.5 L 404.0,-209.8 L 400.7,-214.4 L 397.9,-219.1 L 395.6,-224.1 L 393.8,-229.3 L 392.5,-234.6 L 391.7,-240.0 L 391.5,-245.3 L 391.9,-250.6 L 392.9,-255.7 L 394.4,-260.6 L 396.4,-265.3 L 398.9,-269.7 L 402.3,-274.3 L 405.6,-277.9 L 409.6,-281.7 L 414.1,-285.1 L 419.1,-288.2 L 424.4,-290.9 L 430.1,-293.1 L 436.2,-294.9 L 443.3,-296.4 L 449.4,-297.1 L 457.1,-297.4 L 463.6,-297.2 L 471.8,-296.3 L 478.5,-295.2 L 486.2,-293.5 L 494.6,-291.2 L 502.3,-288.4 L 509.1,-285.5 L 516.7,-281.8 L 524.2,-277.6 L 531.6,-272.9 L 538.9,-267.8 L 546.7,-261.7 L 553.8,-255.8 L 560.2,-250.3 L 567.3,-244.1 L 574.5,-237.8 L 581.8,-231.3 L 589.2,-224.8 L 596.6,-218.1 L 604.0,-211.4 L 611.5,-204.4 L 618.9,-197.3 L 626.2,-189.9 L 633.3,-182.2 L 640.2,-174.1 L 647.3,-164.8 L 652.7,-157.0 L 658.7,-147.1 L 663.1,-138.8 L 667.4,-129.4 L 671.3,-119.9 L 674.7,-110.4 L 677.5,-100.8 L 679.9,-91.1 L 681.8,-81.2 L 683.0,-71.2 L 683.8,-59.9 L 683.8,-50.6 L 683.2,-40.1 L 681.9,-29.6 L 679.9,-19.1 L 677.1,-8.6 L 673.7,1.7 L 669.6,11.8 L 664.2,22.5 L 659.2,31.0 L 653.0,40.2 L 646.2,49.0 L 638.8,57.4 L 630.1,66.0 L 621.7,73.0 L 613.8,78.8 L 604.6,84.6 L 595.0,89.8 L 585.0,94.6 L 574.8,98.9 L 564.2,102.8 L 553.5,106.3 L 541.5,110.0 L 531.6,112.8 L 520.5,115.9 L 509.3,118.9 L 498.0,121.9 L 486.7,125.0 L 474.2,128.5 L 463.9,131.3 L 452.4,134.5 L 440.8,137.7 L 429.3,140.9 L 417.6,144.2 L 405.9,147.6 L 394.2,151.1 L 382.4,154.5 L 370.6,158.1 L 358.7,161.6 L 346.7,165.2 L 334.7,168.8 L 322.6,172.4 L 310.4,176.0 L 297.0,179.9 L 285.9,183.2 L 272.3,187.1 L 259.9,190.8 L 247.4,194.4 L 236.2,197.6 L 223.6,201.2 L 210.9,204.9 L 198.2,208.5 L 185.5,212.1 L 172.7,215.8 L 159.9,219.5 L 147.0,223.2 L 132.8,227.2 L 119.8,231.0 L 108.1,234.4 L 95.1,238.1 L 82.0,241.9 L 68.9,245.7 L 55.8,249.5 L 42.6,253.3 L 29.4,257.1" fill="none" stroke="#ffffff" stroke-opacity="0.92" stroke-width="8.0" stroke-linecap="round" stroke-linejoin="round"/>
<line x1="0.9" y1="190.9" x2="41.7" y2="329.6" stroke="#ffffff" stroke-width="11.2" stroke-linecap="round"/>
</svg>