<svg xmlns="http://www.w3.org/2000/svg" viewBox="-525.6 -452.0 1148.0 764.4">
<defs><linearGradient id="g" gradientUnits="userSpaceOnUse" x1="-471.1" y1="-397.5" x2="567.8" y2="257.9">
<stop offset="0" stop-color="#1c9fe0"/><stop offset="1" stop-color="#0b1f44"/></linearGradient></defs>
<path d="M -122.5,-355.1 L -146.0,-349.1 L -159.1,-345.8 L -173.5,-342.0 L -185.3,-338.9 L -198.4,-335.4 L -211.5,-331.9 L -224.7,-328.5 L -239.3,-324.8 L -251.2,-321.7 L -264.4,-318.3 L -277.7,-314.9 L -292.4,-311.2 L -304.4,-308.1 L -317.4,-304.8 L -329.9,-301.5 L -341.7,-298.3 L -353.9,-294.9 L -364.3,-291.9 L -373.1,-289.3 L -383.3,-286.1 L -391.2,-283.6 L -399.6,-280.8 L -408.2,-277.7 L -414.9,-275.0 L -422.0,-272.1 L -428.8,-269.0 L -435.1,-265.6 L -441.6,-261.7 L -446.5,-258.2 L -451.5,-254.1 L -456.0,-249.6 L -460.0,-245.0 L -463.4,-240.1 L -466.2,-235.0 L -468.4,-229.7 L -470.1,-223.8 L -470.8,-219.0 L -471.1,-213.8 L -470.7,-208.2 L -470.0,-203.9 L -468.7,-199.2 L -466.9,-194.7 L -464.7,-190.5 L -462.1,-186.4 L -459.0,-182.5 L -455.5,-178.7 L -451.8,-175.0 L -447.6,-171.5 L -443.2,-168.2 L -438.5,-164.6 L -434.9,-161.4 L -431.3,-157.5 L -428.3,-153.2 L -425.8,-148.6 L -423.8,-143.4 L -422.6,-139.0 L -421.9,-134.0 L -421.8,-128.5 L -422.3,-123.6 L -423.2,-118.7 L -424.4,-114.3 L -426.2,-109.5 L -428.4,-104.8 L -431.0,-100.1 L -434.3,-94.8 L -437.0,-90.4 L -440.1,-85.2 L -443.0,-79.8 L -445.9,-73.4 L -448.0,-67.9 L -449.8,-61.5 L -451.3,-54.9 L -452.3,-48.0 L -452.8,-40.8 L -453.0,-33.5 L -452.7,-26.0 L -452.1,-18.3 L -450.9,-10.6 L -449.3,-2.7 L -447.0,5.9 L -444.6,13.0 L -441.6,20.8 L -437.6,29.3 L -433.9,36.2 L -429.3,43.6 L -424.2,51.0 L -418.6,58.0 L -412.5,64.9 L -406.0,71.5 L -399.0,77.7 L -391.6,83.7 L -383.9,89.3 L -375.7,94.6 L -367.2,99.4 L -358.4,104.0 L -348.4,108.5 L -339.9,111.8 L -329.4,115.5 L -319.5,118.6 L -310.6,121.2 L -300.4,123.9 L -290.1,126.5 L -279.8,129.1 L -269.3,131.7 L -258.7,134.3 L -248.0,137.0 L -237.3,139.7 L -226.4,142.5 L -215.5,145.3 L -204.5,148.1 L -193.4,150.9 L -182.2,153.7 L -171.0,156.4 L -159.6,159.1 L -148.1,161.8 L -136.6,164.5 L -123.9,167.6 L -113.4,170.1 L -101.7,173.0 L -89.9,175.9 L -78.1,179.0 L -66.2,182.0 L -54.3,185.1 L -42.3,188.3 L -30.3,191.5 L -16.9,195.1 L -5.9,198.0 L 7.5,201.6 L 18.6,204.5 L 31.0,207.8 L 43.5,211.0 L 56.0,214.3 L 69.8,217.9 L 82.4,221.2 L 93.8,224.2 L 106.5,227.6 L 119.3,231.0 L 131.8,234.3 L 143.8,237.5 L 155.2,240.5 L 167.1,243.7 L 176.4,246.1 L 186.2,248.7 L 195.6,251.1 L 204.5,253.2 L 213.1,255.0 L 221.2,256.5 L 229.0,257.4 L 236.5,257.9 L 244.4,257.8 L 250.5,257.3 L 257.0,256.3 L 263.7,254.7 L 268.9,252.9 L 274.4,250.5 L 279.6,247.5 L 284.7,244.0 L 289.6,240.0 L 294.3,235.4 L 299.0,230.0 L 302.3,225.2 L 305.7,219.5 L 308.7,213.4 L 311.4,207.1 L 313.7,200.6 L 315.5,193.8 L 316.9,186.8 L 317.9,179.5 L 318.7,172.0 L 319.1,164.4 L 319.2,156.5 L 319.0,148.4 L 318.4,139.4 L 317.5,132.0 L 315.9,122.8 L 314.3,115.2 L 312.0,106.7 L 309.4,98.3 L 306.2,89.9 L 302.6,81.5 L 298.1,72.4 L 293.4,64.3 L 288.8,57.2 L 283.3,49.4 L 277.3,41.9 L 270.9,34.6 L 264.0,27.5 L 256.8,20.7 L 249.3,14.1 L 240.7,7.0 L 233.5,1.4 L 225.2,-4.8 L 216.8,-10.9 L 208.2,-16.8 L 199.4,-22.7 L 190.5,-28.5 L 180.6,-34.9 L 172.3,-40.0 L 163.0,-45.7 L 153.6,-51.4 L 144.2,-57.0 L 134.7,-62.7 L 125.3,-68.7 L 116.0,-74.9 L 106.8,-81.3 L 97.6,-87.8 L 88.4,-94.5 L 78.4,-102.1 L 70.1,-108.3 L 61.0,-115.3 L 52.0,-122.5 L 43.1,-129.8 L 34.6,-136.9 L 25.8,-144.4 L 19.1,-150.3 L 12.0,-156.8 L 5.4,-163.1 L -0.7,-169.4 L -6.3,-175.7 L -11.4,-182.0 L -15.8,-188.5 L -19.6,-195.1 L -22.8,-201.9 L -25.4,-208.8 L -27.3,-215.8 L -28.8,-223.8 L -29.4,-230.2 L -29.4,-237.3 L -28.7,-245.0 L -27.6,-251.2 L -25.8,-258.1 L -23.4,-264.9 L -20.4,-271.6 L -16.5,-278.8 L -12.3,-285.0 L -8.1,-290.4 L -2.9,-296.1 L 2.7,-301.5 L 9.5,-307.0 L 15.4,-311.2 L 22.3,-315.6 L 29.5,-319.6 L 37.8,-323.7 L 44.8,-326.7 L 53.7,-330.0 L 62.1,-332.7 L 69.8,-334.8 L 78.3,-336.8 L 86.4,-338.6 L 94.0,-340.2 L 101.8,-341.7 L 107.9,-342.8 L 114.2,-343.8 L 120.2,-344.6 L 126.6,-345.2 L 131.7,-345.4 L 137.1,-345.3 L 142.5,-344.7 L 147.6,-343.7 L 152.8,-342.1 L 156.8,-340.4 L 160.8,-338.2 L 164.4,-335.7 L 167.6,-332.9 L 170.3,-329.7 L 172.7,-326.2 L 174.5,-322.5 L 176.0,-318.4 L 177.0,-314.1 L 177.6,-309.2 L 177.7,-304.9 L 177.3,-300.1 L 176.5,-295.3 L 175.1,-290.6 L 173.4,-286.2 L 170.9,-281.5 L 168.3,-277.5 L 165.7,-274.0 L 162.4,-269.8 L 159.8,-266.3 L 157.3,-262.4 L 155.2,-257.8 L 153.8,-253.8 L 152.8,-249.3 L 152.2,-244.3 L 152.2,-239.7 L 152.7,-235.7 L 153.8,-231.3 L 155.4,-227.1 L 157.4,-223.2 L 160.0,-219.5 L 163.1,-215.9 L 166.7,-212.6 L 170.8,-209.6 L 175.8,-206.8 L 180.2,-204.8 L 185.5,-203.2 L 191.1,-202.1 L 196.8,-201.7 L 202.6,-201.8 L 208.3,-202.6 L 213.7,-204.0 L 218.7,-205.9 L 223.5,-208.4 L 228.0,-211.3 L 232.7,-215.2 L 236.3,-218.6 L 240.1,-222.8 L 243.9,-227.3 L 248.1,-231.7 L 252.8,-235.9 L 257.6,-240.3 L 262.5,-244.8 L 267.6,-249.4 L 273.4,-254.6 L 278.2,-258.9 L 284.3,-264.2 L 289.6,-268.4 L 296.3,-273.4 L 302.1,-277.2 L 308.9,-281.3 L 315.9,-285.1 L 323.1,-288.8 L 330.5,-292.4 L 338.2,-296.0 L 344.2,-298.6 L 350.6,-301.1 L 356.5,-303.3 L 362.0,-305.1 L 367.2,-306.6 L 372.1,-307.5 L 376.7,-308.1 L 381.0,-308.1 L 385.2,-307.7 L 389.1,-306.8 L 392.8,-305.3 L 396.1,-303.4 L 399.1,-301.0 L 401.7,-298.3 L 404.0,-294.8 L 405.4,-291.8 L 406.5,-288.2 L 407.2,-283.9 L 407.3,-280.2 L 406.9,-276.1 L 405.9,-271.9 L 404.5,-267.7 L 402.5,-263.6 L 400.0,-259.5 L 397.2,-255.5 L 393.6,-251.3 L 389.8,-247.4 L 386.2,-244.0 L 381.8,-240.2 L 377.1,-236.5 L 372.0,-232.9 L 366.1,-228.9 L 361.0,-225.5 L 354.8,-221.2 L 349.7,-217.3 L 344.2,-212.7 L 338.9,-207.6 L 333.8,-202.0 L 329.0,-196.1 L 324.1,-189.1 L 320.6,-183.1 L 317.2,-176.2 L 314.2,-168.4 L 312.2,-161.9 L 310.6,-154.6 L 309.6,-147.2 L 309.2,-139.7 L 309.4,-131.2 L 310.0,-124.1 L 311.2,-116.2 L 313.1,-108.2 L 315.6,-100.2 L 318.7,-92.2 L 322.4,-84.3 L 327.1,-75.8 L 331.4,-69.0 L 336.9,-61.6 L 342.9,-54.5 L 349.4,-47.7 L 356.4,-41.2 L 363.9,-35.0 L 371.7,-29.1 L 379.8,-23.5 L 389.0,-17.4 L 397.5,-12.1 L 406.3,-6.8 L 414.2,-2.1 L 422.8,3.0 L 431.1,7.9 L 438.8,12.4 L 446.1,16.5 L 453.6,20.6 L 459.4,23.7 L 465.5,26.8 L 472.0,29.9 L 477.0,32.1 L 482.6,34.4 L 488.1,36.2 L 493.5,37.5 L 499.0,38.3 L 505.0,38.6 L 510.3,38.4 L 515.0,37.7 L 520.1,36.4 L 524.8,34.5 L 529.2,32.1 L 533.5,29.2 L 537.4,25.9 L 541.5,21.6 L 544.8,17.3 L 547.9,12.6 L 550.5,8.0 L 553.1,2.6 L 555.6,-3.1 L 557.9,-9.0 L 559.9,-15.2 L 561.8,-21.7 L 563.5,-28.3 L 564.9,-35.2 L 566.2,-43.0 L 566.9,-49.6 L 567.6,-57.8 L 567.8,-65.4 L 567.7,-72.4 L 567.4,-80.3 L 566.8,-88.2 L 565.9,-96.2 L 564.5,-105.1 L 563.0,-113.3 L 561.5,-120.7 L 559.6,-129.0 L 557.6,-137.3 L 555.4,-145.8 L 553.0,-154.3 L 550.5,-162.8 L 547.5,-172.3 L 544.8,-180.0 L 541.6,-188.7 L 538.3,-197.3 L 534.7,-206.0 L 530.9,-214.7 L 526.5,-224.3 L 522.6,-232.1 L 517.7,-241.6 L 513.4,-249.4 L 508.3,-258.0 L 502.4,-267.2 L 497.2,-274.7 L 491.1,-282.8 L 484.7,-290.7 L 477.8,-298.3 L 470.4,-305.7 L 461.9,-313.4 L 454.6,-319.3 L 446.1,-325.7 L 437.3,-331.6 L 428.1,-337.1 L 417.6,-342.7 L 408.8,-347.0 L 398.8,-351.3 L 388.5,-355.2 L 377.9,-358.7 L 366.1,-362.0 L 356.3,-364.3 L 344.1,-366.9 L 332.9,-369.1 L 321.6,-371.2 L 311.4,-373.1 L 299.9,-375.2 L 288.4,-377.3 L 275.6,-379.6 L 265.1,-381.5 L 253.4,-383.6 L 241.6,-385.7 L 229.7,-387.7 L 216.5,-389.8 L 205.7,-391.5 L 193.5,-393.1 L 181.3,-394.6 L 169.0,-395.8 L 155.3,-396.8 L 144.1,-397.2 L 131.5,-397.5 L 117.7,-397.3 L 106.3,-397.0 L 92.3,-396.2 L 79.5,-395.2 L 68.0,-394.1 L 55.3,-392.5 L 42.4,-390.7 L 29.6,-388.6 L 16.8,-386.4 L 3.9,-383.9 L -8.9,-381.2 L -21.8,-378.3 L -34.7,-375.4 L -48.9,-372.2 L -60.6,-369.5 L -73.5,-366.5 L -86.5,-363.5 L -99.6,-360.4 L -112.6,-357.3" fill="none" stroke="url(#g)" stroke-width="72.7" stroke-linecap="round" stroke-linejoin="round"/>
<path d="M -122.5,-355.1 L -146.0,-349.1 L -159.1,-345.8 L -173.5,-342.0 L -185.3,-338.9 L -198.4,-335.4 L -211.5,-331.9 L -224.7,-328.5 L -239.3,-324.8 L -251.2,-321.7 L -264.4,-318.3 L -277.7,-314.9 L -292.4,-311.2 L -304.4,-308.1 L -317.4,-304.8 L -329.9,-301.5 L -341.7,-298.3 L -353.9,-294.9 L -364.3,-291.9 L -373.1,-289.3 L -383.3,-286.1 L -391.2,-283.6 L -399.6,-280.8 L -408.2,-277.7 L -414.9,-275.0 L -422.0,-272.1 L -428.8,-269.0 L -435.1,-265.6 L -441.6,-261.7 L -446.5,-258.2 L -451.5,-254.1 L -456.0,-249.6 L -460.0,-245.0 L -463.4,-240.1 L -466.2,-235.0 L -468.4,-229.7 L -470.1,-223.8 L -470.8,-219.0 L -471.1,-213.8 L -470.7,-208.2 L -470.0,-203.9 L -468.7,-199.2 L -466.9,-194.7 L -464.7,-190.5 L -462.1,-186.4 L -459.0,-182.5 L -455.5,-178.7 L -451.8,-175.0 L -447.6,-171.5 L -443.2,-168.2 L -438.5,-164.6 L -434.9,-161.4 L -431.3,-157.5 L -428.3,-153.2 L -425.8,-148.6 L -423.8,-143.4 L -422.6,-139.0 L -421.9,-134.0 L -421.8,-128.5 L -422.3,-123.6 L -423.2,-118.7 L -424.4,-114.3 L -426.2,-109.5 L -428.4,-104.8 L -431.0,-100.1 L -434.3,-94.8 L -437.0,-90.4 L -440.1,-85.2 L -443.0,-79.8 L -445.9,-73.4 L -448.0,-67.9 L -449.8,-61.5 L -451.3,-54.9 L -452.3,-48.0 L -452.8,-40.8 L -453.0,-33.5 L -452.7,-26.0 L -452.1,-18.3 L -450.9,-10.6 L -449.3,-2.7 L -447.0,5.9 L -444.6,13.0 L -441.6,20.8 L -437.6,29.3 L -433.9,36.2 L -429.3,43.6 L -424.2,51.0 L -418.6,58.0 L -412.5,64.9 L -406.0,71.5 L -399.0,77.7 L -391.6,83.7 L -383.9,89.3 L -375.7,94.6 L -367.2,99.4 L -358.4,104.0 L -348.4,108.5 L -339.9,111.8 L -329.4,115.5 L -319.5,118.6 L -310.6,121.2 L -300.4,123.9 L -290.1,126.5 L -279.8,129.1 L -269.3,131.7 L -258.7,134.3 L -248.0,137.0 L -237.3,139.7 L -226.4,142.5 L -215.5,145.3 L -204.5,148.1 L -193.4,150.9 L -182.2,153.7 L -171.0,156.4 L -159.6,159.1 L -148.1,161.8 L -136.6,164.5 L -123.9,167.6 L -113.4,170.1 L -101.7,173.0 L -89.9,175.9 L -78.1,179.0 L -66.2,182.0 L -54.3,185.1 L -42.3,188.3 L -30.3,191.5 L -16.9,195.1 L -5.9,198.0 L 7.5,201.6 L 18.6,204.5 L 31.0,207.8 L 43.5,211.0 L 56.0,214.3 L 69.8,217.9 L 82.4,221.2 L 93.8,224.2 L 106.5,227.6 L 119.3,231.0 L 131.8,234.3 L 143.8,237.5 L 155.2,240.5 L 167.1,243.7 L 176.4,246.1 L 186.2,248.7 L 195.6,251.1 L 204.5,253.2 L 213.1,255.0 L 221.2,256.5 L 229.0,257.4 L 236.5,257.9 L 244.4,257.8 L 250.5,257.3 L 257.0,256.3 L 263.7,254.7 L 268.9,252.9 L 274.4,250.5 L 279.6,247.5 L 284.7,244.0 L 289.6,240.0 L 294.3,235.4 L 299.0,230.0 L 302.3,225.2 L 305.7,219.5 L 308.7,213.4 L 311.4,207.1 L 313.7,200.6 L 315.5,193.8 L 316.9,186.8 L 317.9,179.5 L 318.7,172.0 L 319.1,164.4 L 319.2,156.5 L 319.0,148.4 L 318.4,139.4 L 317.5,132.0 L 315.9,122.8 L 314.3,115.2 L 312.0,106.7 L 309.4,98.3 L 306.2,89.9 L 302.6,81.5 L 298.1,72.4 L 293.4,64.3 L 288.8,57.2 L 283.3,49.4 L 277.3,41.9 L 270.9,34.6 L 264.0,27.5 L 256.8,20.7 L 249.3,14.1 L 240.7,7.0 L 233.5,1.4 L 225.2,-4.8 L 216.8,-10.9 L 208.2,-16.8 L 199.4,-22.7 L 190.5,-28.5 L 180.6,-34.9 L 172.3,-40.0 L 163.0,-45.7 L 153.6,-51.4 L 144.2,-57.0 L 134.7,-62.7 L 125.3,-68.7 L 116.0,-74.9 L 106.8,-81.3 L 97.6,-87.8 L 88.4,-94.5 L 78.4,-102.1 L 70.1,-108.3 L 61.0,-115.3 L 52.0,-122.5 L 43.1,-129.8 L 34.6,-136.9 L 25.8,-144.4 L 19.1,-150.3 L 12.0,-156.8 L 5.4,-163.1 L -0.7,-169.4 L -6.3,-175.7 L -11.4,-182.0 L -15.8,-188.5 L -19.6,-195.1 L -22.8,-201.9 L -25.4,-208.8 L -27.3,-215.8 L -28.8,-223.8 L -29.4,-230.2 L -29.4,-237.3 L -28.7,-245.0 L -27.6,-251.2 L -25.8,-258.1 L -23.4,-264.9 L -20.4,-271.6 L -16.5,-278.8 L -12.3,-285.0 L -8.1,-290.4 L -2.9,-296.1 L 2.7,-301.5 L 9.5,-307.0 L 15.4,-311.2 L 22.3,-315.6 L 29.5,-319.6 L 37.8,-323.7 L 44.8,-326.7 L 53.7,-330.0 L 62.1,-332.7 L 69.8,-334.8 L 78.3,-336.8 L 86.4,-338.6 L 94.0,-340.2 L 101.8,-341.7 L 107.9,-342.8 L 114.2,-343.8 L 120.2,-344.6 L 126.6,-345.2 L 131.7,-345.4 L 137.1,-345.3 L 142.5,-344.7 L 147.6,-343.7 L 152.8,-342.1 L 156.8,-340.4 L 160.8,-338.2 L 164.4,-335.7 L 167.6,-332.9 L 170.3,-329.7 L 172.7,-326.2 L 174.5,-322.5 L 176.0,-318.4 L 177.0,-314.1 L 177.6,-309.2 L 177.7,-304.9 L 177.3,-300.1 L 176.5,-295.3 L 175.1,-290.6 L 173.4,-286.2 L 170.9,-281.5 L 168.3,-277.5 L 165.7,-274.0 L 162.4,-269.8 L 159.8,-266.3 L 157.3,-262.4 L 155.2,-257.8 L 153.8,-253.8 L 152.8,-249.3 L 152.2,-244.3 L 152.2,-239.7 L 152.7,-235.7 L 153.8,-231.3 L 155.4,-227.1 L 157.4,-223.2 L 160.0,-219.5 L 163.1,-215.9 L 166.7,-212.6 L 170.8,-209.6 L 175.8,-206.8 L 180.2,-204.8 L 185.5,-203.2 L 191.1,-202.1 L 196.8,-201.7 L 202.6,-201.8 L 208.3,-202.6 L 213.7,-204.0 L 218.7,-205.9 L 223.5,-208.4 L 228.0,-211.3 L 232.7,-215.2 L 236.3,-218.6 L 240.1,-222.8 L 243.9,-227.3 L 248.1,-231.7 L 252.8,-235.9 L 257.6,-240.3 L 262.5,-244.8 L 267.6,-249.4 L 273.4,-254.6 L 278.2,-258.9 L 284.3,-264.2 L 289.6,-268.4 L 296.3,-273.4 L 302.1,-277.2 L 308.9,-281.3 L 315.9,-285.1 L 323.1,-288.8 L 330.5,-292.4 L 338.2,-296.0 L 344.2,-298.6 L 350.6,-301.1 L 356.5,-303.3 L 362.0,-305.1 L 367.2,-306.6 L 372.1,-307.5 L 376.7,-308.1 L 381.0,-308.1 L 385.2,-307.7 L 389.1,-306.8 L 392.8,-305.3 L 396.1,-303.4 L 399.1,-301.0 L 401.7,-298.3 L 404.0,-294.8 L 405.4,-291.8 L 406.5,-288.2 L 407.2,-283.9 L 407.3,-280.2 L 406.9,-276.1 L 405.9,-271.9 L 404.5,-267.7 L 402.5,-263.6 L 400.0,-259.5 L 397.2,-255.5 L 393.6,-251.3 L 389.8,-247.4 L 386.2,-244.0 L 381.8,-240.2 L 377.1,-236.5 L 372.0,-232.9 L 366.1,-228.9 L 361.0,-225.5 L 354.8,-221.2 L 349.7,-217.3 L 344.2,-212.7 L 338.9,-207.6 L 333.8,-202.0 L 329.0,-196.1 L 324.1,-189.1 L 320.6,-183.1 L 317.2,-176.2 L 314.2,-168.4 L 312.2,-161.9 L 310.6,-154.6 L 309.6,-147.2 L 309.2,-139.7 L 309.4,-131.2 L 310.0,-124.1 L 311.2,-116.2 L 313.1,-108.2 L 315.6,-100.2 L 318.7,-92.2 L 322.4,-84.3 L 327.1,-75.8 L 331.4,-69.0 L 336.9,-61.6 L 342.9,-54.5 L 349.4,-47.7 L 356.4,-41.2 L 363.9,-35.0 L 371.7,-29.1 L 379.8,-23.5 L 389.0,-17.4 L 397.5,-12.1 L 406.3,-6.8 L 414.2,-2.1 L 422.8,3.0 L 431.1,7.9 L 438.8,12.4 L 446.1,16.5 L 453.6,20.6 L 459.4,23.7 L 465.5,26.8 L 472.0,29.9 L 477.0,32.1 L 482.6,34.4 L 488.1,36.2 L 493.5,37.5 L 499.0,38.3 L 505.0,38.6 L 510.3,38.4 L 515.0,37.7 L 520.1,36.4 L 524.8,34.5 L 529.2,32.1 L 533.5,29.2 L 537.4,25.9 L 541.5,21.6 L 544.8,17.3 L 547.9,12.6 L 550.5,8.0 L 553.1,2.6 L 555.6,-3.1 L 557.9,-9.0 L 559.9,-15.2 L 561.8,-21.7 L 563.5,-28.3 L 564.9,-35.2 L 566.2,-43.0 L 566.9,-49.6 L 567.6,-57.8 L 567.8,-65.4 L 567.7,-72.4 L 567.4,-80.3 L 566.8,-88.2 L 565.9,-96.2 L 564.5,-105.1 L 563.0,-113.3 L 561.5,-120.7 L 559.6,-129.0 L 557.6,-137.3 L 555.4,-145.8 L 553.0,-154.3 L 550.5,-162.8 L 547.5,-172.3 L 544.8,-180.0 L 541.6,-188.7 L 538.3,-197.3 L 534.7,-206.0 L 530.9,-214.7 L 526.5,-224.3 L 522.6,-232.1 L 517.7,-241.6 L 513.4,-249.4 L 508.3,-258.0 L 502.4,-267.2 L 497.2,-274.7 L 491.1,-282.8 L 484.7,-290.7 L 477.8,-298.3 L 470.4,-305.7 L 461.9,-313.4 L 454.6,-319.3 L 446.1,-325.7 L 437.3,-331.6 L 428.1,-337.1 L 417.6,-342.7 L 408.8,-347.0 L 398.8,-351.3 L 388.5,-355.2 L 377.9,-358.7 L 366.1,-362.0 L 356.3,-364.3 L 344.1,-366.9 L 332.9,-369.1 L 321.6,-371.2 L 311.4,-373.1 L 299.9,-375.2 L 288.4,-377.3 L 275.6,-379.6 L 265.1,-381.5 L 253.4,-383.6 L 241.6,-385.7 L 229.7,-387.7 L 216.5,-389.8 L 205.7,-391.5 L 193.5,-393.1 L 181.3,-394.6 L 169.0,-395.8 L 155.3,-396.8 L 144.1,-397.2 L 131.5,-397.5 L 117.7,-397.3 L 106.3,-397.0 L 92.3,-396.2 L 79.5,-395.2 L 68.0,-394.1 L 55.3,-392.5 L 42.4,-390.7 L 29.6,-388.6 L 16.8,-386.4 L 3.9,-383.9 L -8.9,-381.2 L -21.8,-378.3 L -34.7,-375.4 L -48.9,-372.2 L -60.6,-369.5 L -73.5,-366.5 L -86.5,-363.5 L -99.6,-360.4 L -112.6,-357.3" fill="none" stroke="#ffffff" stroke-opacity="0.92" stroke-width="7.3" stroke-linecap="round" stroke-linejoin="round"/>
<line x1="-139.0" y1="-418.4" x2="-106.0" y2="-291.7" stroke="#ffffff" stroke-width="10.2" stroke-linecap="round"/>
</svg>