<svg xmlns="http://www.w3.org/2000/svg" viewBox="-1359.1 -298.7 2002.0 1197.0">
<defs><linearGradient id="g" gradientUnits="userSpaceOnUse" x1="-1264.0" y1="-203.6" x2="547.8" y2="803.2">
<stop offset="0" stop-color="#1c9fe0"/><stop offset="1" stop-color="#0b1f44"/></linearGradient></defs>
<path d="M -594.5,675.1 L -571.6,676.8 L -558.8,677.9 L -546.0,679.2 L -533.2,680.5 L -520.3,682.0 L -507.4,683.6 L -494.5,685.4 L -480.2,687.4 L -468.5,689.2 L -455.5,691.2 L -441.2,693.4 L -428.1,695.5 L -416.2,697.3 L -403.1,699.4 L -389.9,701.4 L -375.3,703.6 L -363.3,705.3 L -348.5,707.1 L -336.4,708.5 L -322.9,709.8 L -309.4,711.0 L -294.4,712.0 L -280.8,712.8 L -268.4,713.3 L -254.7,713.7 L -240.9,713.8 L -227.1,713.6 L -213.3,713.0 L -199.5,712.1 L -185.6,710.9 L -171.8,709.5 L -156.5,708.0 L -143.9,706.7 L -130.0,705.2 L -116.0,703.5 L -102.0,701.8 L -88.0,699.9 L -74.0,698.0 L -60.4,696.0 L -47.4,693.9 L -35.2,691.8 L -23.6,689.8 L -12.7,687.8 L -2.5,685.8 L 7.2,683.7 L 16.4,681.7 L 24.9,679.7 L 32.9,677.6 L 40.2,675.5 L 47.1,673.3 L 53.4,671.1 L 59.4,668.8 L 65.0,666.4 L 70.7,663.5 L 75.0,660.7 L 79.5,657.3 L 83.6,653.4 L 87.4,649.1 L 91.1,643.9 L 93.8,639.3 L 96.4,633.8 L 98.6,627.5 L 100.4,622.1 L 103.0,615.4 L 105.5,609.9 L 108.8,604.0 L 112.5,598.1 L 116.8,592.4 L 122.1,586.4 L 126.8,581.6 L 132.4,576.6 L 138.5,571.9 L 145.6,567.0 L 151.7,563.3 L 158.9,559.5 L 166.4,556.0 L 174.1,552.6 L 182.6,548.6 L 189.6,544.8 L 197.8,539.7 L 205.1,534.5 L 211.4,529.4 L 218.8,522.6 L 224.5,516.6 L 230.5,509.5 L 236.1,502.0 L 241.7,493.2 L 245.9,485.7 L 250.2,477.0 L 254.0,468.1 L 257.4,458.8 L 260.4,449.3 L 263.3,439.7 L 266.6,428.9 L 269.5,420.1 L 273.1,409.2 L 276.2,400.2 L 279.7,390.2 L 283.3,380.1 L 287.5,368.9 L 290.9,359.7 L 294.7,349.4 L 298.6,339.0 L 302.4,328.5 L 306.3,318.0 L 310.2,307.4 L 314.2,296.7 L 318.1,285.9 L 322.2,275.0 L 326.6,263.0 L 330.6,252.0 L 334.3,242.0 L 338.4,230.8 L 342.9,218.5 L 346.6,208.3 L 350.7,196.9 L 354.6,185.6 L 358.5,173.9 L 361.3,164.7 L 364.1,155.0 L 366.3,145.8 L 368.1,136.9 L 369.4,128.3 L 370.1,120.1 L 370.1,111.2 L 369.6,104.1 L 368.5,96.2 L 366.9,88.5 L 364.9,80.5 L 363.4,74.3 L 361.9,67.8 L 360.7,61.4 L 360.0,55.2 L 359.8,49.0 L 360.1,42.9 L 361.1,36.3 L 362.4,30.9 L 364.4,24.4 L 366.6,19.2 L 369.5,13.6 L 373.0,8.1 L 376.9,2.7 L 381.3,-2.6 L 386.2,-7.6 L 391.4,-12.4 L 397.0,-17.2 L 402.8,-22.1 L 408.7,-27.0 L 414.7,-32.0 L 420.9,-37.0 L 427.3,-42.1 L 433.8,-47.3 L 440.4,-52.6 L 447.2,-58.0 L 454.0,-63.5 L 461.0,-69.1 L 468.0,-74.8 L 475.1,-80.6 L 482.3,-86.5 L 489.5,-92.5 L 497.1,-98.9 L 502.9,-103.9 L 509.5,-109.6 L 514.4,-114.0 L 519.4,-118.6 L 524.0,-123.0 L 528.3,-127.3 L 532.5,-132.0 L 535.7,-135.8 L 539.0,-140.1 L 541.8,-144.4 L 544.1,-148.9 L 545.9,-153.3 L 547.1,-157.7 L 547.7,-162.2 L 547.8,-166.5 L 547.3,-170.8 L 546.2,-174.9 L 544.7,-178.8 L 542.6,-182.5 L 540.1,-186.1 L 537.1,-189.5 L 533.7,-192.6 L 529.8,-195.4 L 525.6,-197.9 L 521.1,-199.9 L 516.2,-201.5 L 511.1,-202.6 L 505.3,-203.4 L 500.3,-203.6 L 494.0,-203.4 L 488.6,-203.0 L 482.5,-202.2 L 476.5,-201.2 L 470.3,-200.1 L 463.9,-198.8 L 457.3,-197.4 L 450.6,-196.0 L 443.7,-194.5 L 436.5,-192.9 L 428.5,-191.2 L 421.8,-189.8 L 414.2,-188.2 L 406.5,-186.6 L 398.6,-185.0 L 389.7,-183.3 L 382.3,-181.8 L 374.0,-180.2 L 365.5,-178.6 L 356.9,-177.0 L 348.1,-175.4 L 338.3,-173.7 L 330.1,-172.2 L 320.9,-170.7 L 311.7,-169.1 L 302.3,-167.6 L 291.8,-165.9 L 283.2,-164.5 L 272.5,-162.9 L 263.7,-161.6 L 252.8,-160.0 L 243.8,-158.7 L 233.6,-157.4 L 223.4,-156.2 L 212.1,-155.0 L 202.7,-154.2 L 192.2,-153.5 L 180.5,-153.0 L 170.9,-152.8 L 160.1,-152.8 L 149.3,-153.0 L 137.3,-153.4 L 127.5,-154.1 L 115.4,-155.0 L 105.4,-156.1 L 94.4,-157.5 L 83.2,-159.2 L 72.0,-161.0 L 59.6,-163.1 L 48.6,-164.9 L 39.2,-166.4 L 28.2,-168.0 L 19.8,-169.2 L 10.8,-170.4 L 2.2,-171.4 L -6.0,-172.1 L -13.9,-172.4 L -21.5,-172.2 L -29.1,-171.4 L -36.4,-170.1 L -43.5,-168.1 L -50.3,-165.6 L -56.8,-162.4 L -63.5,-158.3 L -68.7,-154.5 L -74.3,-149.7 L -79.5,-144.4 L -84.5,-138.7 L -89.5,-131.8 L -93.2,-125.7 L -97.4,-117.9 L -100.8,-110.5 L -103.8,-103.5 L -106.8,-95.5 L -109.7,-87.3 L -112.3,-78.8 L -114.5,-70.0 L -116.4,-61.0 L -117.9,-51.9 L -119.1,-42.6 L -120.0,-32.1 L -120.4,-23.4 L -120.5,-13.6 L -120.4,-3.7 L -119.8,6.4 L -118.9,16.6 L -117.7,26.8 L -115.9,38.2 L -114.1,47.6 L -111.7,58.1 L -109.1,68.6 L -105.9,80.2 L -103.0,89.8 L -99.3,101.5 L -96.3,111.2 L -92.7,123.2 L -89.9,133.0 L -87.0,143.5 L -84.5,153.7 L -82.5,163.4 L -80.9,172.7 L -79.7,181.8 L -79.2,190.5 L -79.2,199.0 L -79.7,207.2 L -80.9,215.4 L -82.8,223.5 L -85.3,231.6 L -88.3,239.7 L -91.6,247.7 L -95.1,255.2 L -98.6,262.1 L -102.0,268.4 L -105.3,274.3 L -108.7,279.8 L -112.1,284.9 L -115.6,289.6 L -119.3,293.7 L -123.1,297.4 L -127.5,300.7 L -131.3,303.0 L -135.7,304.9 L -140.4,306.2 L -145.3,307.1 L -150.4,307.5 L -156.2,307.4 L -161.0,306.9 L -166.4,305.9 L -171.9,304.5 L -177.5,302.9 L -183.3,301.2 L -189.2,299.6 L -195.4,297.9 L -201.7,296.4 L -208.3,294.9 L -215.1,293.7 L -222.0,292.7 L -229.2,291.9 L -236.6,291.4 L -244.1,291.1 L -252.6,291.1 L -259.6,291.2 L -268.3,291.5 L -275.6,291.9 L -283.9,292.4 L -293.1,293.0 L -300.7,293.5 L -309.4,294.1 L -318.2,294.6 L -327.2,295.2 L -337.2,295.8 L -345.5,296.3 L -354.8,296.9 L -364.2,297.6 L -373.7,298.4 L -384.3,299.2 L -393.0,300.0 L -403.9,300.9 L -412.8,301.6 L -422.9,302.4 L -433.1,303.1 L -443.4,303.8 L -453.8,304.4 L -464.3,305.0 L -475.9,305.6 L -485.6,306.1 L -496.3,306.6 L -507.1,307.0 L -517.6,307.4 L -527.6,307.8 L -537.1,308.1 L -546.2,308.5 L -555.7,308.9 L -563.1,309.1 L -571.1,309.4 L -578.6,309.7 L -585.7,309.8 L -592.3,309.9 L -598.4,309.9 L -604.0,309.8 L -609.2,309.6 L -614.0,309.2 L -618.4,308.5 L -622.5,307.5 L -626.4,306.1 L -630.4,304.2 L -633.8,302.0 L -637.0,299.5 L -640.3,296.7 L -643.2,294.0 L -646.4,291.2 L -649.8,288.7 L -653.3,286.6 L -657.0,284.8 L -661.0,283.4 L -665.8,282.3 L -669.9,281.7 L -674.6,281.5 L -679.5,281.7 L -684.5,282.3 L -689.6,283.4 L -695.2,284.9 L -699.8,286.4 L -704.8,288.2 L -709.6,290.2 L -714.3,292.5 L -719.2,295.2 L -723.2,297.4 L -727.8,299.9 L -732.6,302.4 L -737.5,305.0 L -742.7,307.7 L -748.0,310.4 L -753.5,313.3 L -759.1,316.3 L -765.0,319.3 L -771.0,322.5 L -777.2,325.7 L -784.3,329.5 L -790.2,332.6 L -796.9,336.2 L -803.8,339.9 L -810.7,343.7 L -817.8,347.6 L -825.0,351.7 L -832.3,355.9 L -839.7,360.4 L -847.2,365.0 L -855.5,370.3 L -862.3,374.7 L -869.9,379.9 L -877.5,385.4 L -885.1,391.1 L -893.3,397.6 L -900.1,403.2 L -907.6,409.6 L -915.1,416.2 L -922.7,422.8 L -930.4,429.6 L -938.1,436.5 L -945.9,443.5 L -953.8,450.6 L -961.7,457.9 L -969.5,465.3 L -977.3,473.0 L -985.0,480.8 L -992.7,488.8 L -1000.5,496.8 L -1008.9,505.8 L -1015.9,513.2 L -1023.5,521.4 L -1031.2,529.6 L -1039.7,538.6 L -1046.6,545.9 L -1054.5,554.1 L -1063.4,563.1 L -1070.8,570.2 L -1080.1,578.7 L -1087.8,585.3 L -1097.2,592.8 L -1104.8,598.7 L -1113.3,604.8 L -1121.9,610.3 L -1130.4,615.3 L -1138.8,620.0 L -1147.0,624.5 L -1154.9,628.7 L -1162.6,632.6 L -1170.1,636.3 L -1177.5,639.8 L -1184.7,643.2 L -1191.7,646.4 L -1198.4,649.4 L -1204.9,652.3 L -1211.6,655.3 L -1216.7,657.5 L -1222.1,659.9 L -1227.1,662.1 L -1231.8,664.3 L -1236.3,666.5 L -1241.0,668.9 L -1244.5,671.1 L -1248.2,673.7 L -1251.7,676.6 L -1254.7,679.9 L -1257.6,683.8 L -1259.5,687.2 L -1261.4,691.7 L -1262.6,695.6 L -1263.5,700.2 L -1264.0,705.0 L -1264.0,710.1 L -1263.5,715.3 L -1262.5,720.6 L -1261.0,726.0 L -1259.2,731.6 L -1257.0,737.2 L -1254.5,743.0 L -1251.6,749.5 L -1249.0,755.0 L -1246.0,761.2 L -1242.9,767.2 L -1239.6,772.7 L -1236.1,777.8 L -1232.4,782.6 L -1228.5,786.9 L -1224.2,790.7 L -1219.6,794.1 L -1214.2,797.2 L -1209.7,799.2 L -1204.5,801.0 L -1198.5,802.3 L -1192.8,803.0 L -1187.7,803.2 L -1181.4,802.9 L -1176.3,802.3 L -1170.1,800.9 L -1165.0,799.2 L -1158.7,796.8 L -1153.5,794.6 L -1146.8,791.8 L -1141.2,789.4 L -1134.8,786.6 L -1127.5,783.4 L -1121.4,780.7 L -1113.8,777.3 L -1106.7,774.2 L -1100.3,771.4 L -1093.1,768.2 L -1086.0,765.0 L -1078.1,761.6 L -1070.7,758.4 L -1064.0,755.5 L -1056.4,752.1 L -1048.6,748.7 L -1040.8,745.1 L -1032.8,741.4 L -1024.7,737.6 L -1016.5,733.8 L -1008.1,729.9 L -999.7,726.1 L -990.2,721.9 L -981.4,718.1 L -973.3,714.8 L -964.2,711.1 L -954.0,707.2 L -945.5,704.1 L -936.0,700.7 L -926.2,697.4 L -916.3,694.3 L -905.2,691.1 L -896.0,688.7 L -885.6,686.2 L -875.0,684.1 L -863.2,682.1 L -853.5,680.8 L -842.5,679.5 L -831.5,678.4 L -820.3,677.4 L -809.1,676.5 L -797.9,675.7 L -786.7,675.0 L -775.5,674.4 L -763.0,673.8 L -751.6,673.3 L -741.3,673.0 L -729.8,672.7 L -718.2,672.4 L -705.3,672.2 L -694.6,672.1 L -682.8,672.0 L -670.8,671.9 L -657.6,671.9 L -646.7,671.8 L -633.3,671.8 L -622.3,671.8 L -610.0,672.0 L -596.4,672.5" fill="none" stroke="url(#g)" stroke-width="126.8" stroke-linecap="round" stroke-linejoin="round"/>
<path d="M -594.5,675.1 L -571.6,676.8 L -558.8,677.9 L -546.0,679.2 L -533.2,680.5 L -520.3,682.0 L -507.4,683.6 L -494.5,685.4 L -480.2,687.4 L -468.5,689.2 L -455.5,691.2 L -441.2,693.4 L -428.1,695.5 L -416.2,697.3 L -403.1,699.4 L -389.9,701.4 L -375.3,703.6 L -363.3,705.3 L -348.5,707.1 L -336.4,708.5 L -322.9,709.8 L -309.4,711.0 L -294.4,712.0 L -280.8,712.8 L -268.4,713.3 L -254.7,713.7 L -240.9,713.8 L -227.1,713.6 L -213.3,713.0 L -199.5,712.1 L -185.6,710.9 L -171.8,709.5 L -156.5,708.0 L -143.9,706.7 L -130.0,705.2 L -116.0,703.5 L -102.0,701.8 L -88.0,699.9 L -74.0,698.0 L -60.4,696.0 L -47.4,693.9 L -35.2,691.8 L -23.6,689.8 L -12.7,687.8 L -2.5,685.8 L 7.2,683.7 L 16.4,681.7 L 24.9,679.7 L 32.9,677.6 L 40.2,675.5 L 47.1,673.3 L 53.4,671.1 L 59.4,668.8 L 65.0,666.4 L 70.7,663.5 L 75.0,660.7 L 79.5,657.3 L 83.6,653.4 L 87.4,649.1 L 91.1,643.9 L 93.8,639.3 L 96.4,633.8 L 98.6,627.5 L 100.4,622.1 L 103.0,615.4 L 105.5,609.9 L 108.8,604.0 L 112.5,598.1 L 116.8,592.4 L 122.1,586.4 L 126.8,581.6 L 132.4,576.6 L 138.5,571.9 L 145.6,567.0 L 151.7,563.3 L 158.9,559.5 L 166.4,556.0 L 174.1,552.6 L 182.6,548.6 L 189.6,544.8 L 197.8,539.7 L 205.1,534.5 L 211.4,529.4 L 218.8,522.6 L 224.5,516.6 L 230.5,509.5 L 236.1,502.0 L 241.7,493.2 L 245.9,485.7 L 250.2,477.0 L 254.0,468.1 L 257.4,458.8 L 260.4,449.3 L 263.3,439.7 L 266.6,428.9 L 269.5,420.1 L 273.1,409.2 L 276.2,400.2 L 279.7,390.2 L 283.3,380.1 L 287.5,368.9 L 290.9,359.7 L 294.7,349.4 L 298.6,339.0 L 302.4,328.5 L 306.3,318.0 L 310.2,307.4 L 314.2,296.7 L 318.1,285.9 L 322.2,275.0 L 326.6,263.0 L 330.6,252.0 L 334.3,242.0 L 338.4,230.8 L 342.9,218.5 L 346.6,208.3 L 350.7,196.9 L 354.6,185.6 L 358.5,173.9 L 361.3,164.7 L 364.1,155.0 L 366.3,145.8 L 368.1,136.9 L 369.4,128.3 L 370.1,120.1 L 370.1,111.2 L 369.6,104.1 L 368.5,96.2 L 366.9,88.5 L 364.9,80.5 L 363.4,74.3 L 361.9,67.8 L 360.7,61.4 L 360.0,55.2 L 359.8,49.0 L 360.1,42.9 L 361.1,36.3 L 362.4,30.9 L 364.4,24.4 L 366.6,19.2 L 369.5,13.6 L 373.0,8.1 L 376.9,2.7 L 381.3,-2.6 L 386.2,-7.6 L 391.4,-12.4 L 397.0,-17.2 L 402.8,-22.1 L 408.7,-27.0 L 414.7,-32.0 L 420.9,-37.0 L 427.3,-42.1 L 433.8,-47.3 L 440.4,-52.6 L 447.2,-58.0 L 454.0,-63.5 L 461.0,-69.1 L 468.0,-74.8 L 475.1,-80.6 L 482.3,-86.5 L 489.5,-92.5 L 497.1,-98.9 L 502.9,-103.9 L 509.5,-109.6 L 514.4,-114.0 L 519.4,-118.6 L 524.0,-123.0 L 528.3,-127.3 L 532.5,-132.0 L 535.7,-135.8 L 539.0,-140.1 L 541.8,-144.4 L 544.1,-148.9 L 545.9,-153.3 L 547.1,-157.7 L 547.7,-162.2 L 547.8,-166.5 L 547.3,-170.8 L 546.2,-174.9 L 544.7,-178.8 L 542.6,-182.5 L 540.1,-186.1 L 537.1,-189.5 L 533.7,-192.6 L 529.8,-195.4 L 525.6,-197.9 L 521.1,-199.9 L 516.2,-201.5 L 511.1,-202.6 L 505.3,-203.4 L 500.3,-203.6 L 494.0,-203.4 L 488.6,-203.0 L 482.5,-202.2 L 476.5,-201.2 L 470.3,-200.1 L 463.9,-198.8 L 457.3,-197.4 L 450.6,-196.0 L 443.7,-194.5 L 436.5,-192.9 L 428.5,-191.2 L 421.8,-189.8 L 414.2,-188.2 L 406.5,-186.6 L 398.6,-185.0 L 389.7,-183.3 L 382.3,-181.8 L 374.0,-180.2 L 365.5,-178.6 L 356.9,-177.0 L 348.1,-175.4 L 338.3,-173.7 L 330.1,-172.2 L 320.9,-170.7 L 311.7,-169.1 L 302.3,-167.6 L 291.8,-165.9 L 283.2,-164.5 L 272.5,-162.9 L 263.7,-161.6 L 252.8,-160.0 L 243.8,-158.7 L 233.6,-157.4 L 223.4,-156.2 L 212.1,-155.0 L 202.7,-154.2 L 192.2,-153.5 L 180.5,-153.0 L 170.9,-152.8 L 160.1,-152.8 L 149.3,-153.0 L 137.3,-153.4 L 127.5,-154.1 L 115.4,-155.0 L 105.4,-156.1 L 94.4,-157.5 L 83.2,-159.2 L 72.0,-161.0 L 59.6,-163.1 L 48.6,-164.9 L 39.2,-166.4 L 28.2,-168.0 L 19.8,-169.2 L 10.8,-170.4 L 2.2,-171.4 L -6.0,-172.1 L -13.9,-172.4 L -21.5,-172.2 L -29.1,-171.4 L -36.4,-170.1 L -43.5,-168.1 L -50.3,-165.6 L -56.8,-162.4 L -63.5,-158.3 L -68.7,-154.5 L -74.3,-149.7 L -79.5,-144.4 L -84.5,-138.7 L -89.5,-131.8 L -93.2,-125.7 L -97.4,-117.9 L -100.8,-110.5 L -103.8,-103.5 L -106.8,-95.5 L -109.7,-87.3 L -112.3,-78.8 L -114.5,-70.0 L -116.4,-61.0 L -117.9,-51.9 L -119.1,-42.6 L -120.0,-32.1 L -120.4,-23.4 L -120.5,-13.6 L -120.4,-3.7 L -119.8,6.4 L -118.9,16.6 L -117.7,26.8 L -115.9,38.2 L -114.1,47.6 L -111.7,58.1 L -109.1,68.6 L -105.9,80.2 L -103.0,89.8 L -99.3,101.5 L -96.3,111.2 L -92.7,123.2 L -89.9,133.0 L -87.0,143.5 L -84.5,153.7 L -82.5,163.4 L -80.9,172.7 L -79.7,181.8 L -79.2,190.5 L -79.2,199.0 L -79.7,207.2 L -80.9,215.4 L -82.8,223.5 L -85.3,231.6 L -88.3,239.7 L -91.6,247.7 L -95.1,255.2 L -98.6,262.1 L -102.0,268.4 L -105.3,274.3 L -108.7,279.8 L -112.1,284.9 L -115.6,289.6 L -119.3,293.7 L -123.1,297.4 L -127.5,300.7 L -131.3,303.0 L -135.7,304.9 L -140.4,306.2 L -145.3,307.1 L -150.4,307.5 L -156.2,307.4 L -161.0,306.9 L -166.4,305.9 L -171.9,304.5 L -177.5,302.9 L -183.3,301.2 L -189.2,299.6 L -195.4,297.9 L -201.7,296.4 L -208.3,294.9 L -215.1,293.7 L -222.0,292.7 L -229.2,291.9 L -236.6,291.4 L -244.1,291.1 L -252.6,291.1 L -259.6,291.2 L -268.3,291.5 L -275.6,291.9 L -283.9,292.4 L -293.1,293.0 L -300.7,293.5 L -309.4,294.1 L -318.2,294.6 L -327.2,295.2 L -337.2,295.8 L -345.5,296.3 L -354.8,296.9 L -364.2,297.6 L -373.7,298.4 L -384.3,299.2 L -393.0,300.0 L -403.9,300.9 L -412.8,301.6 L -422.9,302.4 L -433.1,303.1 L -443.4,303.8 L -453.8,304.4 L -464.3,305.0 L -475.9,305.6 L -485.6,306.1 L -496.3,306.6 L -507.1,307.0 L -517.6,307.4 L -527.6,307.8 L -537.1,308.1 L -546.2,308.5 L -555.7,308.9 L -563.1,309.1 L -571.1,309.4 L -578.6,309.7 L -585.7,309.8 L -592.3,309.9 L -598.4,309.9 L -604.0,309.8 L -609.2,309.6 L -614.0,309.2 L -618.4,308.5 L -622.5,307.5 L -626.4,306.1 L -630.4,304.2 L -633.8,302.0 L -637.0,299.5 L -640.3,296.7 L -643.2,294.0 L -646.4,291.2 L -649.8,288.7 L -653.3,286.6 L -657.0,284.8 L -661.0,283.4 L -665.8,282.3 L -669.9,281.7 L -674.6,281.5 L -679.5,281.7 L -684.5,282.3 L -689.6,283.4 L -695.2,284.9 L -699.8,286.4 L -704.8,288.2 L -709.6,290.2 L -714.3,292.5 L -719.2,295.2 L -723.2,297.4 L -727.8,299.9 L -732.6,302.4 L -737.5,305.0 L -742.7,307.7 L -748.0,310.4 L -753.5,313.3 L -759.1,316.3 L -765.0,319.3 L -771.0,322.5 L -777.2,325.7 L -784.3,329.5 L -790.2,332.6 L -796.9,336.2 L -803.8,339.9 L -810.7,343.7 L -817.8,347.6 L -825.0,351.7 L -832.3,355.9 L -839.7,360.4 L -847.2,365.0 L -855.5,370.3 L -862.3,374.7 L -869.9,379.9 L -877.5,385.4 L -885.1,391.1 L -893.3,397.6 L -900.1,403.2 L -907.6,409.6 L -915.1,416.2 L -922.7,422.8 L -930.4,429.6 L -938.1,436.5 L -945.9,443.5 L -953.8,450.6 L -961.7,457.9 L -969.5,465.3 L -977.3,473.0 L -985.0,480.8 L -992.7,488.8 L -1000.5,496.8 L -1008.9,505.8 L -1015.9,513.2 L -1023.5,521.4 L -1031.2,529.6 L -1039.7,538.6 L -1046.6,545.9 L -1054.5,554.1 L -1063.4,563.1 L -1070.8,570.2 L -1080.1,578.7 L -1087.8,585.3 L -1097.2,592.8 L -1104.8,598.7 L -1113.3,604.8 L -1121.9,610.3 L -1130.4,615.3 L -1138.8,620.0 L -1147.0,624.5 L -1154.9,628.7 L -1162.6,632.6 L -1170.1,636.3 L -1177.5,639.8 L -1184.7,643.2 L -1191.7,646.4 L -1198.4,649.4 L -1204.9,652.3 L -1211.6,655.3 L -1216.7,657.5 L -1222.1,659.9 L -1227.1,662.1 L -1231.8,664.3 L -1236.3,666.5 L -1241.0,668.9 L -1244.5,671.1 L -1248.2,673.7 L -1251.7,676.6 L -1254.7,679.9 L -1257.6,683.8 L -1259.5,687.2 L -1261.4,691.7 L -1262.6,695.6 L -1263.5,700.2 L -1264.0,705.0 L -1264.0,710.1 L -1263.5,715.3 L -1262.5,720.6 L -1261.0,726.0 L -1259.2,731.6 L -1257.0,737.2 L -1254.5,743.0 L -1251.6,749.5 L -1249.0,755.0 L -1246.0,761.2 L -1242.9,767.2 L -1239.6,772.7 L -1236.1,777.8 L -1232.4,782.6 L -1228.5,786.9 L -1224.2,790.7 L -1219.6,794.1 L -1214.2,797.2 L -1209.7,799.2 L -1204.5,801.0 L -1198.5,802.3 L -1192.8,803.0 L -1187.7,803.2 L -1181.4,802.9 L -1176.3,802.3 L -1170.1,800.9 L -1165.0,799.2 L -1158.7,796.8 L -1153.5,794.6 L -1146.8,791.8 L -1141.2,789.4 L -1134.8,786.6 L -1127.5,783.4 L -1121.4,780.7 L -1113.8,777.3 L -1106.7,774.2 L -1100.3,771.4 L -1093.1,768.2 L -1086.0,765.0 L -1078.1,761.6 L -1070.7,758.4 L -1064.0,755.5 L -1056.4,752.1 L -1048.6,748.7 L -1040.8,745.1 L -1032.8,741.4 L -1024.7,737.6 L -1016.5,733.8 L -1008.1,729.9 L -999.7,726.1 L -990.2,721.9 L -981.4,718.1 L -973.3,714.8 L -964.2,711.1 L -954.0,707.2 L -945.5,704.1 L -936.0,700.7 L -926.2,697.4 L -916.3,694.3 L -905.2,691.1 L -896.0,688.7 L -885.6,686.2 L -875.0,684.1 L -863.2,682.1 L -853.5,680.8 L -842.5,679.5 L -831.5,678.4 L -820.3,677.4 L -809.1,676.5 L -797.9,675.7 L -786.7,675.0 L -775.5,674.4 L -763.0,673.8 L -751.6,673.3 L -741.3,673.0 L -729.8,672.7 L -718.2,672.4 L -705.3,672.2 L -694.6,672.1 L -682.8,672.0 L -670.8,671.9 L -657.6,671.9 L -646.7,671.8 L -633.3,671.8 L -622.3,671.8 L -610.0,672.0 L -596.4,672.5" fill="none" stroke="#ffffff" stroke-opacity="0.92" stroke-width="12.7" stroke-linecap="round" stroke-linejoin="round"/>
<line x1="-605.7" y1="788.7" x2="-583.3" y2="561.5" stroke="#ffffff" stroke-width="17.8" stroke-linecap="round"/>
</svg>