<svg xmlns="http://www.w3.org/2000/svg" viewBox="-835.5 -1255.2 2394.8 1486.5">
<defs><linearGradient id="g" gradientUnits="userSpaceOnUse" x1="-721.7" y1="-1141.4" x2="1445.6" y2="117.5">
<stop offset="0" stop-color="#1c9fe0"/><stop offset="1" stop-color="#0b1f44"/></linearGradient></defs>
<path d="M 967.1,106.7 L 945.6,105.3 L 934.2,104.5 L 920.2,103.5 L 907.4,102.6 L 895.9,101.8 L 883.0,100.8 L 870.0,99.8 L 857.1,98.8 L 844.0,97.8 L 830.9,96.8 L 817.8,95.7 L 804.6,94.7 L 791.4,93.6 L 776.8,92.4 L 764.9,91.4 L 751.5,90.2 L 738.1,89.0 L 723.4,87.7 L 711.2,86.6 L 697.7,85.4 L 682.8,84.0 L 670.6,82.8 L 655.6,81.4 L 643.4,80.2 L 628.3,78.8 L 616.0,77.6 L 602.2,76.2 L 588.4,74.9 L 574.6,73.6 L 560.8,72.3 L 546.9,71.0 L 533.0,69.7 L 519.1,68.4 L 505.2,67.1 L 491.2,65.8 L 477.2,64.5 L 463.2,63.3 L 449.1,62.1 L 435.1,60.9 L 421.0,59.7 L 405.5,58.4 L 392.8,57.4 L 377.2,56.1 L 364.4,55.0 L 350.2,53.9 L 334.6,52.6 L 321.8,51.5 L 306.1,50.2 L 293.3,49.1 L 279.0,47.8 L 264.7,46.6 L 250.4,45.3 L 236.1,44.0 L 221.7,42.8 L 205.9,41.4 L 193.3,40.3 L 180.0,39.1 L 167.6,38.0 L 155.9,36.9 L 145.0,36.0 L 133.9,35.0 L 125.4,34.3 L 116.7,33.6 L 108.5,33.0 L 100.9,32.5 L 93.9,32.0 L 87.5,31.5 L 81.6,31.0 L 75.7,30.4 L 71.2,29.9 L 66.7,29.2 L 62.4,28.3 L 58.0,27.2 L 54.6,26.0 L 50.9,24.3 L 47.6,22.2 L 44.6,19.8 L 42.0,17.0 L 39.8,14.0 L 38.2,10.7 L 36.9,7.3 L 36.1,3.9 L 35.5,0.8 L 34.8,-2.2 L 34.0,-5.1 L 32.9,-8.1 L 31.7,-10.5 L 30.0,-12.8 L 28.1,-14.9 L 25.8,-16.8 L 22.8,-18.6 L 20.1,-19.8 L 16.5,-20.9 L 13.4,-21.5 L 9.7,-21.7 L 5.8,-21.6 L 1.7,-21.0 L -2.5,-20.0 L -6.8,-18.6 L -11.3,-16.9 L -16.1,-15.1 L -21.3,-13.4 L -26.6,-11.7 L -32.3,-9.9 L -38.2,-8.1 L -44.3,-6.3 L -51.4,-4.4 L -57.3,-2.9 L -64.8,-1.0 L -71.2,0.4 L -78.5,2.0 L -85.9,3.4 L -93.6,4.7 L -102.3,6.0 L -109.6,6.9 L -117.9,7.7 L -126.3,8.3 L -134.8,8.7 L -143.5,9.0 L -152.4,9.0 L -161.4,8.9 L -171.5,8.6 L -179.8,8.2 L -190.2,7.7 L -199.7,7.0 L -209.4,6.3 L -218.2,5.5 L -228.1,4.6 L -238.2,3.7 L -248.3,2.6 L -258.5,1.5 L -268.8,0.2 L -279.2,-1.2 L -289.7,-2.9 L -300.2,-4.8 L -310.8,-7.0 L -321.4,-9.6 L -331.9,-12.6 L -342.5,-15.9 L -353.0,-19.6 L -364.5,-24.2 L -374.9,-28.7 L -384.1,-33.2 L -394.3,-38.5 L -404.4,-44.2 L -414.3,-50.3 L -424.0,-56.8 L -433.6,-63.7 L -442.9,-71.0 L -452.8,-79.6 L -461.4,-87.9 L -468.9,-95.7 L -476.9,-104.7 L -484.5,-114.2 L -491.7,-124.0 L -498.5,-134.1 L -505.0,-144.6 L -511.1,-155.3 L -516.8,-166.3 L -522.1,-177.6 L -527.0,-189.0 L -531.6,-200.7 L -535.9,-212.6 L -540.1,-225.8 L -543.3,-236.8 L -546.6,-249.1 L -549.6,-261.5 L -552.6,-275.3 L -555.1,-288.0 L -557.2,-299.5 L -559.2,-312.3 L -561.1,-325.2 L -562.7,-338.2 L -564.3,-352.5 L -565.5,-364.3 L -566.6,-377.5 L -567.6,-390.7 L -568.6,-405.3 L -569.5,-417.3 L -570.4,-430.7 L -571.3,-444.1 L -572.3,-457.5 L -573.1,-471.0 L -574.0,-485.9 L -574.6,-498.1 L -575.3,-511.8 L -576.0,-525.4 L -576.6,-539.1 L -577.3,-554.2 L -577.8,-566.6 L -578.3,-580.2 L -579.0,-595.7 L -579.5,-605.4 L -580.1,-616.9 L -580.8,-628.7 L -581.3,-637.8 L -581.9,-647.4 L -582.4,-656.3 L -583.0,-665.4 L -583.5,-672.3 L -584.2,-679.4 L -584.9,-685.9 L -585.8,-691.9 L -586.9,-697.4 L -588.2,-702.4 L -589.9,-706.9 L -591.9,-711.1 L -594.3,-714.8 L -597.3,-718.5 L -600.0,-721.2 L -603.3,-723.9 L -606.8,-726.1 L -610.4,-727.9 L -614.2,-729.4 L -617.9,-730.9 L -621.5,-732.5 L -624.9,-734.5 L -628.1,-736.8 L -631.0,-739.7 L -633.7,-743.0 L -636.4,-747.1 L -638.1,-750.8 L -639.7,-755.2 L -640.9,-759.9 L -641.9,-764.9 L -642.9,-770.2 L -644.0,-776.4 L -645.0,-781.6 L -646.3,-788.3 L -647.5,-794.0 L -648.8,-800.4 L -650.3,-807.0 L -652.1,-814.5 L -653.8,-821.5 L -655.5,-827.9 L -657.5,-835.3 L -659.7,-842.7 L -662.3,-851.1 L -664.5,-858.1 L -667.4,-866.8 L -670.2,-874.8 L -672.9,-882.1 L -676.0,-890.3 L -679.3,-898.6 L -683.0,-907.9 L -686.1,-915.6 L -689.5,-924.3 L -692.9,-933.2 L -696.5,-943.1 L -699.5,-951.4 L -702.7,-960.8 L -705.9,-970.3 L -709.0,-979.9 L -712.0,-989.5 L -715.0,-999.7 L -717.1,-1007.5 L -719.0,-1015.9 L -720.4,-1023.9 L -721.3,-1031.5 L -721.7,-1038.9 L -721.5,-1046.1 L -720.6,-1053.1 L -719.2,-1059.9 L -717.2,-1066.4 L -714.7,-1072.7 L -711.7,-1078.8 L -707.7,-1085.4 L -703.9,-1090.6 L -698.8,-1096.7 L -694.3,-1101.2 L -689.0,-1105.8 L -683.3,-1109.8 L -676.6,-1113.7 L -670.8,-1116.6 L -664.0,-1119.4 L -656.9,-1121.8 L -649.4,-1123.7 L -641.8,-1125.3 L -633.9,-1126.4 L -625.0,-1127.4 L -617.5,-1128.0 L -609.1,-1128.4 L -600.5,-1128.7 L -591.8,-1128.8 L -582.9,-1129.1 L -573.8,-1129.4 L -564.7,-1129.8 L -555.3,-1130.4 L -545.9,-1131.1 L -535.4,-1132.1 L -526.7,-1132.9 L -515.9,-1134.1 L -507.0,-1135.1 L -496.0,-1136.3 L -485.9,-1137.4 L -476.9,-1138.4 L -467.5,-1139.3 L -458.8,-1140.2 L -450.7,-1140.9 L -443.1,-1141.3 L -435.3,-1141.4 L -429.2,-1141.1 L -422.8,-1140.4 L -416.6,-1139.0 L -410.3,-1137.1 L -404.1,-1134.6 L -398.0,-1131.5 L -392.1,-1127.8 L -385.8,-1123.0 L -380.4,-1118.2 L -375.7,-1113.3 L -370.3,-1107.0 L -366.0,-1101.5 L -361.7,-1095.3 L -357.6,-1088.9 L -353.8,-1082.4 L -350.3,-1075.9 L -347.0,-1069.1 L -343.5,-1061.6 L -340.7,-1055.4 L -337.5,-1048.3 L -334.1,-1041.1 L -330.8,-1033.7 L -327.0,-1025.4 L -323.7,-1018.6 L -320.1,-1010.8 L -316.2,-1002.9 L -312.3,-995.0 L -307.8,-986.1 L -303.6,-977.9 L -299.8,-970.5 L -295.4,-962.1 L -290.5,-952.8 L -286.4,-945.1 L -281.7,-936.4 L -277.0,-927.6 L -272.1,-918.7 L -266.8,-908.8 L -262.3,-900.7 L -257.2,-891.6 L -252.1,-882.4 L -246.9,-873.1 L -241.6,-863.8 L -236.1,-854.4 L -230.6,-845.0 L -224.9,-835.5 L -218.5,-825.1 L -213.2,-816.5 L -207.1,-807.0 L -200.8,-797.5 L -194.3,-788.1 L -186.8,-777.7 L -180.6,-769.3 L -173.4,-760.0 L -165.3,-749.9 L -158.5,-741.6 L -150.8,-732.4 L -143.0,-723.2 L -135.1,-714.0 L -127.1,-704.8 L -118.3,-694.6 L -110.9,-686.3 L -102.7,-676.9 L -94.5,-667.6 L -86.1,-658.2 L -76.9,-647.7 L -69.4,-639.2 L -61.0,-629.6 L -52.5,-619.9 L -44.0,-610.2 L -35.5,-600.5 L -26.9,-590.7 L -18.3,-580.9 L -9.7,-571.0 L -1.1,-561.0 L 8.5,-550.0 L 16.3,-541.0 L 25.0,-530.9 L 33.7,-520.8 L 42.5,-510.7 L 51.3,-500.5 L 60.2,-490.4 L 69.1,-480.2 L 78.0,-470.0 L 86.9,-459.7 L 95.8,-449.5 L 105.7,-438.2 L 113.9,-428.9 L 123.8,-417.5 L 132.0,-408.2 L 142.0,-396.8 L 150.2,-387.5 L 159.1,-377.2 L 167.6,-367.5 L 175.6,-358.4 L 183.1,-349.9 L 190.1,-342.0 L 196.6,-334.6 L 202.8,-327.7 L 208.6,-321.3 L 214.5,-314.8 L 219.2,-310.1 L 224.2,-305.3 L 229.1,-301.2 L 234.1,-297.6 L 239.1,-294.6 L 244.5,-292.0 L 250.2,-289.9 L 256.2,-288.2 L 262.5,-286.9 L 269.8,-286.1 L 276.0,-285.8 L 283.7,-285.9 L 290.3,-286.2 L 297.6,-286.6 L 305.1,-286.7 L 312.6,-286.4 L 320.2,-285.6 L 328.4,-284.2 L 335.1,-282.7 L 342.5,-280.4 L 349.7,-277.5 L 356.8,-274.1 L 364.4,-269.8 L 370.4,-265.8 L 377.0,-260.9 L 383.2,-255.5 L 389.3,-249.7 L 395.5,-243.8 L 402.1,-238.1 L 409.1,-232.7 L 417.1,-227.3 L 424.0,-223.3 L 432.5,-219.1 L 439.8,-216.2 L 449.0,-213.0 L 456.7,-210.9 L 465.6,-209.0 L 474.7,-207.4 L 484.0,-206.3 L 493.4,-205.3 L 503.0,-204.5 L 512.7,-203.7 L 523.5,-202.8 L 533.5,-202.0 L 543.6,-201.2 L 552.8,-200.5 L 563.1,-199.6 L 573.5,-198.8 L 584.1,-197.9 L 594.7,-197.0 L 605.4,-196.1 L 617.3,-195.0 L 627.2,-194.2 L 639.3,-193.1 L 649.3,-192.2 L 660.6,-191.2 L 671.9,-190.2 L 683.3,-189.2 L 695.9,-188.0 L 706.4,-187.1 L 718.0,-186.0 L 729.8,-184.9 L 742.8,-183.7 L 754.7,-182.6 L 765.5,-181.6 L 778.8,-180.4 L 789.7,-179.3 L 801.9,-178.2 L 814.2,-177.0 L 827.7,-175.7 L 838.9,-174.6 L 851.3,-173.4 L 863.8,-172.1 L 876.4,-170.9 L 889.0,-169.7 L 901.7,-168.5 L 914.5,-167.3 L 927.3,-166.0 L 941.5,-164.7 L 953.1,-163.6 L 966.1,-162.4 L 979.1,-161.2 L 992.2,-160.0 L 1005.3,-158.8 L 1018.5,-157.6 L 1031.8,-156.4 L 1045.0,-155.2 L 1058.4,-154.0 L 1071.8,-152.8 L 1085.2,-151.7 L 1098.7,-150.5 L 1112.2,-149.3 L 1127.1,-147.9 L 1139.3,-146.8 L 1153.0,-145.5 L 1166.7,-144.2 L 1180.4,-142.9 L 1194.1,-141.6 L 1207.9,-140.2 L 1221.7,-138.9 L 1235.5,-137.6 L 1249.4,-136.3 L 1263.3,-135.0 L 1278.4,-133.6 L 1290.2,-132.5 L 1303.7,-131.2 L 1314.0,-130.2 L 1324.7,-129.0 L 1335.7,-127.8 L 1344.1,-126.7 L 1352.9,-125.3 L 1362.0,-123.7 L 1369.0,-122.2 L 1376.3,-120.3 L 1383.2,-118.1 L 1389.8,-115.6 L 1396.2,-112.5 L 1402.5,-109.0 L 1408.6,-105.0 L 1415.0,-100.0 L 1419.9,-95.5 L 1425.4,-89.6 L 1429.3,-84.5 L 1433.1,-78.5 L 1436.5,-72.1 L 1439.4,-65.3 L 1441.8,-58.2 L 1443.6,-50.7 L 1444.8,-43.0 L 1445.5,-35.2 L 1445.6,-27.4 L 1445.0,-19.7 L 1443.7,-11.9 L 1441.9,-4.1 L 1439.4,3.6 L 1436.4,11.2 L 1432.8,18.8 L 1428.6,26.2 L 1423.5,34.2 L 1418.8,40.5 L 1412.5,48.0 L 1406.9,53.9 L 1399.6,60.8 L 1393.2,66.1 L 1385.7,71.8 L 1377.8,77.1 L 1368.7,82.5 L 1360.0,87.0 L 1351.1,91.2 L 1342.8,94.6 L 1333.3,98.0 L 1323.6,101.1 L 1313.7,103.9 L 1303.6,106.3 L 1293.3,108.3 L 1282.8,110.1 L 1272.3,111.6 L 1261.6,112.9 L 1249.6,114.1 L 1239.8,115.0 L 1228.8,115.7 L 1217.6,116.4 L 1206.4,116.9 L 1195.1,117.2 L 1183.6,117.5 L 1172.1,117.5 L 1160.5,117.4 L 1148.9,117.2 L 1137.1,116.9 L 1125.3,116.4 L 1113.4,115.9 L 1101.4,115.3 L 1089.4,114.6 L 1076.1,113.7 L 1065.2,112.9 L 1053.0,112.1 L 1040.7,111.2 L 1027.2,110.1 L 1016.0,109.3 L 1003.6,108.3 L 989.8,107.2 L 978.5,106.3" fill="none" stroke="url(#g)" stroke-width="151.7" stroke-linecap="round" stroke-linejoin="round"/>
<path d="M 967.1,106.7 L 945.6,105.3 L 934.2,104.5 L 920.2,103.5 L 907.4,102.6 L 895.9,101.8 L 883.0,100.8 L 870.0,99.8 L 857.1,98.8 L 844.0,97.8 L 830.9,96.8 L 817.8,95.7 L 804.6,94.7 L 791.4,93.6 L 776.8,92.4 L 764.9,91.4 L 751.5,90.2 L 738.1,89.0 L 723.4,87.7 L 711.2,86.6 L 697.7,85.4 L 682.8,84.0 L 670.6,82.8 L 655.6,81.4 L 643.4,80.2 L 628.3,78.8 L 616.0,77.6 L 602.2,76.2 L 588.4,74.9 L 574.6,73.6 L 560.8,72.3 L 546.9,71.0 L 533.0,69.7 L 519.1,68.4 L 505.2,67.1 L 491.2,65.8 L 477.2,64.5 L 463.2,63.3 L 449.1,62.1 L 435.1,60.9 L 421.0,59.7 L 405.5,58.4 L 392.8,57.4 L 377.2,56.1 L 364.4,55.0 L 350.2,53.9 L 334.6,52.6 L 321.8,51.5 L 306.1,50.2 L 293.3,49.1 L 279.0,47.8 L 264.7,46.6 L 250.4,45.3 L 236.1,44.0 L 221.7,42.8 L 205.9,41.4 L 193.3,40.3 L 180.0,39.1 L 167.6,38.0 L 155.9,36.9 L 145.0,36.0 L 133.9,35.0 L 125.4,34.3 L 116.7,33.6 L 108.5,33.0 L 100.9,32.5 L 93.9,32.0 L 87.5,31.5 L 81.6,31.0 L 75.7,30.4 L 71.2,29.9 L 66.7,29.2 L 62.4,28.3 L 58.0,27.2 L 54.6,26.0 L 50.9,24.3 L 47.6,22.2 L 44.6,19.8 L 42.0,17.0 L 39.8,14.0 L 38.2,10.7 L 36.9,7.3 L 36.1,3.9 L 35.5,0.8 L 34.8,-2.2 L 34.0,-5.1 L 32.9,-8.1 L 31.7,-10.5 L 30.0,-12.8 L 28.1,-14.9 L 25.8,-16.8 L 22.8,-18.6 L 20.1,-19.8 L 16.5,-20.9 L 13.4,-21.5 L 9.7,-21.7 L 5.8,-21.6 L 1.7,-21.0 L -2.5,-20.0 L -6.8,-18.6 L -11.3,-16.9 L -16.1,-15.1 L -21.3,-13.4 L -26.6,-11.7 L -32.3,-9.9 L -38.2,-8.1 L -44.3,-6.3 L -51.4,-4.4 L -57.3,-2.9 L -64.8,-1.0 L -71.2,0.4 L -78.5,2.0 L -85.9,3.4 L -93.6,4.7 L -102.3,6.0 L -109.6,6.9 L -117.9,7.7 L -126.3,8.3 L -134.8,8.7 L -143.5,9.0 L -152.4,9.0 L -161.4,8.9 L -171.5,8.6 L -179.8,8.2 L -190.2,7.7 L -199.7,7.0 L -209.4,6.3 L -218.2,5.5 L -228.1,4.6 L -238.2,3.7 L -248.3,2.6 L -258.5,1.5 L -268.8,0.2 L -279.2,-1.2 L -289.7,-2.9 L -300.2,-4.8 L -310.8,-7.0 L -321.4,-9.6 L -331.9,-12.6 L -342.5,-15.9 L -353.0,-19.6 L -364.5,-24.2 L -374.9,-28.7 L -384.1,-33.2 L -394.3,-38.5 L -404.4,-44.2 L -414.3,-50.3 L -424.0,-56.8 L -433.6,-63.7 L -442.9,-71.0 L -452.8,-79.6 L -461.4,-87.9 L -468.9,-95.7 L -476.9,-104.7 L -484.5,-114.2 L -491.7,-124.0 L -498.5,-134.1 L -505.0,-144.6 L -511.1,-155.3 L -516.8,-166.3 L -522.1,-177.6 L -527.0,-189.0 L -531.6,-200.7 L -535.9,-212.6 L -540.1,-225.8 L -543.3,-236.8 L -546.6,-249.1 L -549.6,-261.5 L -552.6,-275.3 L -555.1,-288.0 L -557.2,-299.5 L -559.2,-312.3 L -561.1,-325.2 L -562.7,-338.2 L -564.3,-352.5 L -565.5,-364.3 L -566.6,-377.5 L -567.6,-390.7 L -568.6,-405.3 L -569.5,-417.3 L -570.4,-430.7 L -571.3,-444.1 L -572.3,-457.5 L -573.1,-471.0 L -574.0,-485.9 L -574.6,-498.1 L -575.3,-511.8 L -576.0,-525.4 L -576.6,-539.1 L -577.3,-554.2 L -577.8,-566.6 L -578.3,-580.2 L -579.0,-595.7 L -579.5,-605.4 L -580.1,-616.9 L -580.8,-628.7 L -581.3,-637.8 L -581.9,-647.4 L -582.4,-656.3 L -583.0,-665.4 L -583.5,-672.3 L -584.2,-679.4 L -584.9,-685.9 L -585.8,-691.9 L -586.9,-697.4 L -588.2,-702.4 L -589.9,-706.9 L -591.9,-711.1 L -594.3,-714.8 L -597.3,-718.5 L -600.0,-721.2 L -603.3,-723.9 L -606.8,-726.1 L -610.4,-727.9 L -614.2,-729.4 L -617.9,-730.9 L -621.5,-732.5 L -624.9,-734.5 L -628.1,-736.8 L -631.0,-739.7 L -633.7,-743.0 L -636.4,-747.1 L -638.1,-750.8 L -639.7,-755.2 L -640.9,-759.9 L -641.9,-764.9 L -642.9,-770.2 L -644.0,-776.4 L -645.0,-781.6 L -646.3,-788.3 L -647.5,-794.0 L -648.8,-800.4 L -650.3,-807.0 L -652.1,-814.5 L -653.8,-821.5 L -655.5,-827.9 L -657.5,-835.3 L -659.7,-842.7 L -662.3,-851.1 L -664.5,-858.1 L -667.4,-866.8 L -670.2,-874.8 L -672.9,-882.1 L -676.0,-890.3 L -679.3,-898.6 L -683.0,-907.9 L -686.1,-915.6 L -689.5,-924.3 L -692.9,-933.2 L -696.5,-943.1 L -699.5,-951.4 L -702.7,-960.8 L -705.9,-970.3 L -709.0,-979.9 L -712.0,-989.5 L -715.0,-999.7 L -717.1,-1007.5 L -719.0,-1015.9 L -720.4,-1023.9 L -721.3,-1031.5 L -721.7,-1038.9 L -721.5,-1046.1 L -720.6,-1053.1 L -719.2,-1059.9 L -717.2,-1066.4 L -714.7,-1072.7 L -711.7,-1078.8 L -707.7,-1085.4 L -703.9,-1090.6 L -698.8,-1096.7 L -694.3,-1101.2 L -689.0,-1105.8 L -683.3,-1109.8 L -676.6,-1113.7 L -670.8,-1116.6 L -664.0,-1119.4 L -656.9,-1121.8 L -649.4,-1123.7 L -641.8,-1125.3 L -633.9,-1126.4 L -625.0,-1127.4 L -617.5,-1128.0 L -609.1,-1128.4 L -600.5,-1128.7 L -591.8,-1128.8 L -582.9,-1129.1 L -573.8,-1129.4 L -564.7,-1129.8 L -555.3,-1130.4 L -545.9,-1131.1 L -535.4,-1132.1 L -526.7,-1132.9 L -515.9,-1134.1 L -507.0,-1135.1 L -496.0,-1136.3 L -485.9,-1137.4 L -476.9,-1138.4 L -467.5,-1139.3 L -458.8,-1140.2 L -450.7,-1140.9 L -443.1,-1141.3 L -435.3,-1141.4 L -429.2,-1141.1 L -422.8,-1140.4 L -416.6,-1139.0 L -410.3,-1137.1 L -404.1,-1134.6 L -398.0,-1131.5 L -392.1,-1127.8 L -385.8,-1123.0 L -380.4,-1118.2 L -375.7,-1113.3 L -370.3,-1107.0 L -366.0,-1101.5 L -361.7,-1095.3 L -357.6,-1088.9 L -353.8,-1082.4 L -350.3,-1075.9 L -347.0,-1069.1 L -343.5,-1061.6 L -340.7,-1055.4 L -337.5,-1048.3 L -334.1,-1041.1 L -330.8,-1033.7 L -327.0,-1025.4 L -323.7,-1018.6 L -320.1,-1010.8 L -316.2,-1002.9 L -312.3,-995.0 L -307.8,-986.1 L -303.6,-977.9 L -299.8,-970.5 L -295.4,-962.1 L -290.5,-952.8 L -286.4,-945.1 L -281.7,-936.4 L -277.0,-927.6 L -272.1,-918.7 L -266.8,-908.8 L -262.3,-900.7 L -257.2,-891.6 L -252.1,-882.4 L -246.9,-873.1 L -241.6,-863.8 L -236.1,-854.4 L -230.6,-845.0 L -224.9,-835.5 L -218.5,-825.1 L -213.2,-816.5 L -207.1,-807.0 L -200.8,-797.5 L -194.3,-788.1 L -186.8,-777.7 L -180.6,-769.3 L -173.4,-760.0 L -165.3,-749.9 L -158.5,-741.6 L -150.8,-732.4 L -143.0,-723.2 L -135.1,-714.0 L -127.1,-704.8 L -118.3,-694.6 L -110.9,-686.3 L -102.7,-676.9 L -94.5,-667.6 L -86.1,-658.2 L -76.9,-647.7 L -69.4,-639.2 L -61.0,-629.6 L -52.5,-619.9 L -44.0,-610.2 L -35.5,-600.5 L -26.9,-590.7 L -18.3,-580.9 L -9.7,-571.0 L -1.1,-561.0 L 8.5,-550.0 L 16.3,-541.0 L 25.0,-530.9 L 33.7,-520.8 L 42.5,-510.7 L 51.3,-500.5 L 60.2,-490.4 L 69.1,-480.2 L 78.0,-470.0 L 86.9,-459.7 L 95.8,-449.5 L 105.7,-438.2 L 113.9,-428.9 L 123.8,-417.5 L 132.0,-408.2 L 142.0,-396.8 L 150.2,-387.5 L 159.1,-377.2 L 167.6,-367.5 L 175.6,-358.4 L 183.1,-349.9 L 190.1,-342.0 L 196.6,-334.6 L 202.8,-327.7 L 208.6,-321.3 L 214.5,-314.8 L 219.2,-310.1 L 224.2,-305.3 L 229.1,-301.2 L 234.1,-297.6 L 239.1,-294.6 L 244.5,-292.0 L 250.2,-289.9 L 256.2,-288.2 L 262.5,-286.9 L 269.8,-286.1 L 276.0,-285.8 L 283.7,-285.9 L 290.3,-286.2 L 297.6,-286.6 L 305.1,-286.7 L 312.6,-286.4 L 320.2,-285.6 L 328.4,-284.2 L 335.1,-282.7 L 342.5,-280.4 L 349.7,-277.5 L 356.8,-274.1 L 364.4,-269.8 L 370.4,-265.8 L 377.0,-260.9 L 383.2,-255.5 L 389.3,-249.7 L 395.5,-243.8 L 402.1,-238.1 L 409.1,-232.7 L 417.1,-227.3 L 424.0,-223.3 L 432.5,-219.1 L 439.8,-216.2 L 449.0,-213.0 L 456.7,-210.9 L 465.6,-209.0 L 474.7,-207.4 L 484.0,-206.3 L 493.4,-205.3 L 503.0,-204.5 L 512.7,-203.7 L 523.5,-202.8 L 533.5,-202.0 L 543.6,-201.2 L 552.8,-200.5 L 563.1,-199.6 L 573.5,-198.8 L 584.1,-197.9 L 594.7,-197.0 L 605.4,-196.1 L 617.3,-195.0 L 627.2,-194.2 L 639.3,-193.1 L 649.3,-192.2 L 660.6,-191.2 L 671.9,-190.2 L 683.3,-189.2 L 695.9,-188.0 L 706.4,-187.1 L 718.0,-186.0 L 729.8,-184.9 L 742.8,-183.7 L 754.7,-182.6 L 765.5,-181.6 L 778.8,-180.4 L 789.7,-179.3 L 801.9,-178.2 L 814.2,-177.0 L 827.7,-175.7 L 838.9,-174.6 L 851.3,-173.4 L 863.8,-172.1 L 876.4,-170.9 L 889.0,-169.7 L 901.7,-168.5 L 914.5,-167.3 L 927.3,-166.0 L 941.5,-164.7 L 953.1,-163.6 L 966.1,-162.4 L 979.1,-161.2 L 992.2,-160.0 L 1005.3,-158.8 L 1018.5,-157.6 L 1031.8,-156.4 L 1045.0,-155.2 L 1058.4,-154.0 L 1071.8,-152.8 L 1085.2,-151.7 L 1098.7,-150.5 L 1112.2,-149.3 L 1127.1,-147.9 L 1139.3,-146.8 L 1153.0,-145.5 L 1166.7,-144.2 L 1180.4,-142.9 L 1194.1,-141.6 L 1207.9,-140.2 L 1221.7,-138.9 L 1235.5,-137.6 L 1249.4,-136.3 L 1263.3,-135.0 L 1278.4,-133.6 L 1290.2,-132.5 L 1303.7,-131.2 L 1314.0,-130.2 L 1324.7,-129.0 L 1335.7,-127.8 L 1344.1,-126.7 L 1352.9,-125.3 L 1362.0,-123.7 L 1369.0,-122.2 L 1376.3,-120.3 L 1383.2,-118.1 L 1389.8,-115.6 L 1396.2,-112.5 L 1402.5,-109.0 L 1408.6,-105.0 L 1415.0,-100.0 L 1419.9,-95.5 L 1425.4,-89.6 L 1429.3,-84.5 L 1433.1,-78.5 L 1436.5,-72.1 L 1439.4,-65.3 L 1441.8,-58.2 L 1443.6,-50.7 L 1444.8,-43.0 L 1445.5,-35.2 L 1445.6,-27.4 L 1445.0,-19.7 L 1443.7,-11.9 L 1441.9,-4.1 L 1439.4,3.6 L 1436.4,11.2 L 1432.8,18.8 L 1428.6,26.2 L 1423.5,34.2 L 1418.8,40.5 L 1412.5,48.0 L 1406.9,53.9 L 1399.6,60.8 L 1393.2,66.1 L 1385.7,71.8 L 1377.8,77.1 L 1368.7,82.5 L 1360.0,87.0 L 1351.1,91.2 L 1342.8,94.6 L 1333.3,98.0 L 1323.6,101.1 L 1313.7,103.9 L 1303.6,106.3 L 1293.3,108.3 L 1282.8,110.1 L 1272.3,111.6 L 1261.6,112.9 L 1249.6,114.1 L 1239.8,115.0 L 1228.8,115.7 L 1217.6,116.4 L 1206.4,116.9 L 1195.1,117.2 L 1183.6,117.5 L 1172.1,117.5 L 1160.5,117.4 L 1148.9,117.2 L 1137.1,116.9 L 1125.3,116.4 L 1113.4,115.9 L 1101.4,115.3 L 1089.4,114.6 L 1076.1,113.7 L 1065.2,112.9 L 1053.0,112.1 L 1040.7,111.2 L 1027.2,110.1 L 1016.0,109.3 L 1003.6,108.3 L 989.8,107.2 L 978.5,106.3" fill="none" stroke="#ffffff" stroke-opacity="0.92" stroke-width="15.2" stroke-linecap="round" stroke-linejoin="round"/>
<line x1="976.7" y1="-29.5" x2="957.5" y2="242.9" stroke="#ffffff" stroke-width="21.2" stroke-linecap="round"/>
</svg>