<svg xmlns="http://www.w3.org/2000/svg" viewBox="-494.5 -479.0 1319.2 933.1">
<defs><linearGradient id="g" gradientUnits="userSpaceOnUse" x1="-431.8" y1="-416.4" x2="762.0" y2="391.4">
<stop offset="0" stop-color="#1c9fe0"/><stop offset="1" stop-color="#0b1f44"/></linearGradient></defs>
<path d="M 302.7,375.8 L 284.2,375.0 L 270.8,374.4 L 257.4,373.8 L 242.4,373.2 L 230.2,372.7 L 216.4,372.1 L 201.2,371.5 L 188.7,370.9 L 174.7,370.3 L 160.7,369.7 L 146.6,369.0 L 132.5,368.4 L 118.4,367.8 L 102.8,367.0 L 90.1,366.4 L 76.0,365.7 L 60.4,365.0 L 47.7,364.4 L 33.4,363.7 L 19.1,363.1 L 4.7,362.5 L -9.7,361.9 L -24.2,361.3 L -38.7,360.7 L -53.3,360.1 L -68.0,359.5 L -82.7,358.9 L -99.0,358.2 L -112.3,357.6 L -128.6,356.9 L -142.1,356.4 L -158.5,355.7 L -172.0,355.2 L -187.1,354.6 L -202.2,354.0 L -217.3,353.4 L -232.5,352.9 L -247.7,352.3 L -263.0,351.8 L -279.5,351.3 L -292.4,350.8 L -305.8,350.4 L -319.5,349.8 L -330.9,349.3 L -340.4,348.8 L -350.3,348.3 L -360.4,347.8 L -367.9,347.3 L -376.5,346.7 L -382.9,346.2 L -390.0,345.5 L -395.4,344.8 L -401.5,343.8 L -406.1,342.7 L -410.7,341.3 L -414.8,339.6 L -418.5,337.6 L -421.7,335.3 L -424.5,332.8 L -426.9,329.9 L -428.9,326.9 L -430.4,323.6 L -431.4,320.3 L -431.8,316.5 L -431.7,313.5 L -431.2,310.2 L -430.0,306.8 L -428.7,304.3 L -427.0,301.6 L -424.8,298.8 L -422.7,296.4 L -420.2,293.8 L -417.4,291.1 L -413.8,287.9 L -410.6,285.3 L -406.7,282.2 L -402.0,278.5 L -397.9,275.3 L -393.6,271.3 L -389.6,267.1 L -386.1,262.6 L -382.9,257.3 L -380.5,252.1 L -378.7,247.2 L -377.1,241.4 L -376.0,235.2 L -375.3,228.7 L -375.2,221.5 L -375.8,215.6 L -377.0,209.0 L -378.9,202.4 L -381.4,194.9 L -383.5,188.6 L -386.0,181.3 L -388.3,173.7 L -390.4,165.7 L -392.3,157.5 L -394.0,149.0 L -395.4,139.3 L -396.2,131.2 L -396.9,121.2 L -397.1,111.9 L -397.0,102.4 L -396.6,93.8 L -395.9,84.0 L -394.9,74.0 L -393.6,62.9 L -392.3,53.6 L -390.8,43.2 L -388.9,31.6 L -387.2,22.1 L -385.2,11.4 L -382.8,-0.4 L -380.9,-10.3 L -378.6,-21.3 L -376.3,-32.5 L -373.8,-45.0 L -371.8,-55.3 L -369.5,-66.9 L -367.2,-78.7 L -364.7,-91.7 L -362.6,-102.5 L -360.4,-114.6 L -358.2,-126.8 L -356.0,-139.0 L -353.8,-151.3 L -351.5,-163.7 L -349.0,-177.4 L -346.6,-190.0 L -344.4,-201.4 L -342.0,-214.2 L -339.5,-227.1 L -336.7,-241.3 L -334.5,-253.0 L -331.8,-267.5 L -329.6,-279.4 L -327.2,-292.4 L -324.8,-304.7 L -322.4,-317.1 L -320.5,-326.6 L -318.5,-336.3 L -316.4,-346.3 L -314.7,-353.8 L -312.7,-361.7 L -310.7,-369.0 L -308.6,-375.8 L -306.1,-382.8 L -303.9,-388.0 L -301.0,-393.8 L -298.3,-398.1 L -295.2,-402.3 L -291.9,-405.9 L -288.2,-409.0 L -284.3,-411.4 L -280.1,-413.4 L -275.7,-414.8 L -270.5,-415.9 L -265.6,-416.4 L -261.0,-416.4 L -255.1,-415.9 L -250.2,-415.1 L -244.7,-413.7 L -238.5,-411.7 L -232.9,-409.2 L -228.0,-406.4 L -222.9,-402.9 L -218.1,-398.7 L -213.1,-393.6 L -209.0,-388.9 L -204.5,-383.5 L -199.8,-377.7 L -194.7,-370.9 L -189.9,-364.5 L -185.5,-358.5 L -180.5,-351.7 L -175.4,-344.6 L -169.4,-336.7 L -164.4,-330.2 L -158.7,-323.0 L -152.7,-315.7 L -146.4,-308.4 L -139.8,-301.0 L -132.9,-293.7 L -125.8,-286.4 L -118.2,-279.2 L -110.3,-272.2 L -101.0,-265.0 L -92.1,-258.8 L -83.7,-253.5 L -74.5,-247.8 L -65.6,-242.4 L -56.5,-236.7 L -48.8,-231.5 L -42.3,-226.7 L -35.2,-220.6 L -30.0,-215.3 L -24.7,-209.1 L -20.2,-202.6 L -16.0,-195.0 L -13.1,-188.5 L -10.1,-180.3 L -8.3,-173.3 L -6.9,-165.3 L -6.1,-156.4 L -6.0,-148.8 L -6.2,-140.3 L -6.8,-131.7 L -7.5,-122.9 L -7.9,-113.4 L -7.8,-105.7 L -7.0,-97.2 L -5.3,-88.1 L -3.4,-80.9 L -0.6,-73.2 L 3.3,-65.0 L 7.0,-58.4 L 12.3,-50.8 L 17.3,-44.7 L 23.4,-38.2 L 30.0,-31.9 L 37.0,-25.7 L 44.5,-19.7 L 52.4,-13.9 L 60.7,-8.2 L 70.0,-2.1 L 77.9,2.8 L 87.7,8.7 L 95.4,13.4 L 103.5,18.2 L 111.0,22.8 L 117.9,27.1 L 124.3,31.3 L 130.8,35.6 L 135.7,39.1 L 140.8,42.9 L 145.5,46.7 L 149.7,50.6 L 153.5,54.6 L 156.9,59.1 L 159.3,62.8 L 161.3,67.1 L 162.7,71.8 L 163.4,76.0 L 163.6,79.6 L 163.1,83.6 L 162.0,87.4 L 160.2,91.3 L 158.1,94.4 L 155.8,96.9 L 152.9,99.4 L 149.5,101.7 L 145.7,103.7 L 141.6,105.3 L 137.0,106.4 L 132.2,107.1 L 127.2,107.2 L 121.9,107.0 L 116.2,106.5 L 110.2,105.9 L 103.8,105.1 L 97.1,104.1 L 90.2,102.9 L 83.2,101.7 L 75.3,100.1 L 68.6,98.8 L 60.9,97.2 L 52.2,95.4 L 44.8,93.8 L 35.6,91.9 L 27.8,90.3 L 18.1,88.2 L 10.0,86.4 L 0.9,84.3 L -8.4,82.0 L -17.8,79.6 L -27.4,77.0 L -37.2,74.3 L -48.2,71.4 L -57.3,69.1 L -67.7,66.9 L -78.3,64.9 L -89.1,63.3 L -100.0,62.0 L -112.3,60.9 L -122.5,60.3 L -134.0,60.0 L -145.1,60.2 L -155.6,60.9 L -165.5,61.9 L -175.7,63.5 L -184.4,65.3 L -192.5,67.5 L -199.5,69.7 L -206.7,72.6 L -214.0,76.1 L -219.7,79.2 L -225.4,82.9 L -230.8,86.8 L -235.6,90.8 L -239.8,94.8 L -243.5,99.0 L -246.7,103.3 L -249.4,108.0 L -251.1,111.9 L -252.4,116.2 L -253.2,120.4 L -253.3,124.4 L -252.7,128.6 L -251.6,131.7 L -250.0,134.9 L -247.8,137.6 L -245.1,140.2 L -242.4,142.0 L -238.8,143.8 L -235.5,144.9 L -231.6,145.9 L -227.3,146.7 L -222.7,147.4 L -217.7,148.0 L -212.4,148.5 L -206.6,149.1 L -200.5,149.6 L -194.1,150.2 L -186.6,150.9 L -180.3,151.5 L -173.0,152.2 L -165.5,152.9 L -157.7,153.7 L -149.6,154.5 L -140.5,155.5 L -131.9,156.4 L -123.9,157.2 L -114.9,158.1 L -105.7,159.0 L -96.5,159.8 L -87.0,160.6 L -76.3,161.3 L -67.4,161.8 L -57.3,162.3 L -47.0,162.7 L -36.5,163.1 L -25.8,163.5 L -15.1,164.0 L -4.3,164.4 L 6.7,164.8 L 17.8,165.3 L 29.1,165.7 L 40.5,166.2 L 52.1,166.7 L 65.0,167.3 L 75.7,167.8 L 87.7,168.4 L 99.8,168.9 L 113.3,169.6 L 125.6,170.3 L 136.8,170.9 L 150.5,171.6 L 163.1,172.3 L 174.5,172.9 L 187.4,173.6 L 200.3,174.2 L 213.3,174.9 L 226.4,175.5 L 239.6,176.1 L 252.9,176.8 L 266.3,177.4 L 279.8,178.1 L 293.4,178.7 L 307.1,179.3 L 320.8,179.9 L 334.4,180.5 L 347.2,180.9 L 359.3,181.3 L 371.6,181.5 L 381.1,181.6 L 391.1,181.5 L 400.5,181.2 L 409.4,180.5 L 417.8,179.5 L 425.7,178.1 L 433.0,176.2 L 439.8,173.8 L 446.1,171.0 L 452.4,167.2 L 457.1,163.7 L 461.7,159.3 L 466.1,154.1 L 469.1,149.5 L 472.1,143.6 L 474.0,138.7 L 475.7,132.4 L 476.5,127.0 L 476.9,120.9 L 476.7,114.6 L 475.8,108.2 L 474.3,101.6 L 472.1,94.2 L 470.1,88.0 L 467.3,81.0 L 464.1,73.9 L 460.2,66.9 L 455.4,59.2 L 450.5,52.2 L 445.6,46.0 L 439.7,39.3 L 433.4,32.8 L 426.5,26.6 L 418.4,20.0 L 410.6,14.4 L 403.2,9.6 L 394.6,4.5 L 385.6,-0.2 L 376.2,-4.6 L 366.6,-8.9 L 355.9,-13.5 L 347.0,-17.3 L 336.1,-22.2 L 327.1,-26.4 L 316.3,-32.2 L 307.7,-37.6 L 298.4,-44.1 L 289.0,-52.0 L 281.9,-58.9 L 274.7,-67.0 L 268.3,-75.6 L 262.1,-85.3 L 257.7,-93.6 L 253.6,-103.0 L 250.2,-112.5 L 247.7,-122.2 L 245.9,-131.9 L 244.8,-141.9 L 244.5,-151.9 L 244.9,-162.8 L 246.0,-171.8 L 247.8,-181.7 L 250.3,-191.6 L 253.9,-202.5 L 257.7,-212.3 L 261.5,-221.2 L 266.1,-231.0 L 271.0,-240.8 L 276.1,-250.4 L 281.3,-259.5 L 286.2,-268.1 L 291.4,-276.9 L 295.6,-283.6 L 300.2,-290.6 L 304.9,-297.1 L 309.6,-303.1 L 314.5,-308.7 L 319.6,-313.8 L 325.6,-318.9 L 330.7,-322.5 L 337.2,-326.2 L 342.6,-328.7 L 348.8,-330.7 L 355.0,-332.1 L 361.3,-332.8 L 367.7,-332.9 L 374.1,-332.3 L 380.5,-331.0 L 386.9,-329.0 L 393.1,-326.4 L 398.8,-323.3 L 404.1,-319.6 L 409.6,-314.9 L 414.3,-310.0 L 418.3,-305.2 L 422.5,-299.3 L 426.6,-293.0 L 430.7,-286.4 L 434.7,-279.4 L 439.1,-271.3 L 442.6,-264.5 L 446.6,-256.6 L 450.8,-248.6 L 455.0,-240.5 L 459.3,-232.3 L 463.7,-223.8 L 468.2,-215.3 L 473.0,-206.5 L 477.8,-197.7 L 482.8,-188.7 L 488.0,-179.5 L 493.2,-170.2 L 498.4,-160.9 L 503.8,-151.4 L 509.1,-141.8 L 515.1,-131.0 L 520.0,-122.1 L 525.5,-112.0 L 531.1,-101.9 L 536.8,-91.5 L 542.5,-81.1 L 548.9,-69.5 L 554.1,-59.8 L 560.6,-47.9 L 565.9,-38.2 L 571.9,-27.3 L 578.0,-16.2 L 584.1,-5.1 L 590.2,6.2 L 597.1,18.7 L 602.7,28.9 L 609.1,40.5 L 616.2,53.2 L 622.1,63.7 L 628.7,75.5 L 636.0,88.6 L 642.7,100.5 L 648.7,111.4 L 655.5,123.5 L 662.3,135.6 L 669.1,147.9 L 675.9,160.2 L 682.8,172.5 L 689.7,184.9 L 696.5,197.2 L 703.1,209.1 L 709.2,220.1 L 714.8,230.4 L 720.0,239.8 L 724.8,248.4 L 729.2,256.3 L 733.7,264.5 L 737.2,270.7 L 740.9,277.3 L 744.7,284.1 L 747.7,289.4 L 750.8,295.2 L 753.7,300.7 L 756.6,306.6 L 758.6,311.4 L 760.4,316.7 L 761.5,321.9 L 762.0,327.6 L 761.9,332.0 L 761.1,337.3 L 760.0,341.4 L 758.0,346.2 L 755.6,350.4 L 752.5,354.5 L 749.3,358.0 L 745.2,361.7 L 740.6,365.2 L 735.5,368.6 L 729.5,372.2 L 724.3,375.1 L 718.0,378.0 L 711.4,380.7 L 704.3,383.1 L 696.8,385.2 L 689.0,387.0 L 680.0,388.6 L 672.4,389.6 L 663.7,390.4 L 654.7,391.0 L 645.5,391.3 L 636.2,391.4 L 625.6,391.2 L 616.8,391.0 L 606.8,390.6 L 596.6,390.0 L 586.2,389.4 L 575.7,388.8 L 565.0,388.3 L 554.2,387.9 L 543.2,387.4 L 531.0,386.9 L 520.9,386.4 L 509.4,385.9 L 496.7,385.4 L 486.2,384.9 L 474.3,384.4 L 461.1,383.7 L 450.2,383.1 L 436.7,382.5 L 425.6,382.0 L 413.2,381.4 L 400.8,380.9 L 387.0,380.3 L 375.6,379.7 L 362.9,379.1 L 350.0,378.5 L 337.1,377.9 L 322.7,377.2 L 310.8,376.7" fill="none" stroke="url(#g)" stroke-width="83.6" stroke-linecap="round" stroke-linejoin="round"/>
<path d="M 302.7,375.8 L 284.2,375.0 L 270.8,374.4 L 257.4,373.8 L 242.4,373.2 L 230.2,372.7 L 216.4,372.1 L 201.2,371.5 L 188.7,370.9 L 174.7,370.3 L 160.7,369.7 L 146.6,369.0 L 132.5,368.4 L 118.4,367.8 L 102.8,367.0 L 90.1,366.4 L 76.0,365.7 L 60.4,365.0 L 47.7,364.4 L 33.4,363.7 L 19.1,363.1 L 4.7,362.5 L -9.7,361.9 L -24.2,361.3 L -38.7,360.7 L -53.3,360.1 L -68.0,359.5 L -82.7,358.9 L -99.0,358.2 L -112.3,357.6 L -128.6,356.9 L -142.1,356.4 L -158.5,355.7 L -172.0,355.2 L -187.1,354.6 L -202.2,354.0 L -217.3,353.4 L -232.5,352.9 L -247.7,352.3 L -263.0,351.8 L -279.5,351.3 L -292.4,350.8 L -305.8,350.4 L -319.5,349.8 L -330.9,349.3 L -340.4,348.8 L -350.3,348.3 L -360.4,347.8 L -367.9,347.3 L -376.5,346.7 L -382.9,346.2 L -390.0,345.5 L -395.4,344.8 L -401.5,343.8 L -406.1,342.7 L -410.7,341.3 L -414.8,339.6 L -418.5,337.6 L -421.7,335.3 L -424.5,332.8 L -426.9,329.9 L -428.9,326.9 L -430.4,323.6 L -431.4,320.3 L -431.8,316.5 L -431.7,313.5 L -431.2,310.2 L -430.0,306.8 L -428.7,304.3 L -427.0,301.6 L -424.8,298.8 L -422.7,296.4 L -420.2,293.8 L -417.4,291.1 L -413.8,287.9 L -410.6,285.3 L -406.7,282.2 L -402.0,278.5 L -397.9,275.3 L -393.6,271.3 L -389.6,267.1 L -386.1,262.6 L -382.9,257.3 L -380.5,252.1 L -378.7,247.2 L -377.1,241.4 L -376.0,235.2 L -375.3,228.7 L -375.2,221.5 L -375.8,215.6 L -377.0,209.0 L -378.9,202.4 L -381.4,194.9 L -383.5,188.6 L -386.0,181.3 L -388.3,173.7 L -390.4,165.7 L -392.3,157.5 L -394.0,149.0 L -395.4,139.3 L -396.2,131.2 L -396.9,121.2 L -397.1,111.9 L -397.0,102.4 L -396.6,93.8 L -395.9,84.0 L -394.9,74.0 L -393.6,62.9 L -392.3,53.6 L -390.8,43.2 L -388.9,31.6 L -387.2,22.1 L -385.2,11.4 L -382.8,-0.4 L -380.9,-10.3 L -378.6,-21.3 L -376.3,-32.5 L -373.8,-45.0 L -371.8,-55.3 L -369.5,-66.9 L -367.2,-78.7 L -364.7,-91.7 L -362.6,-102.5 L -360.4,-114.6 L -358.2,-126.8 L -356.0,-139.0 L -353.8,-151.3 L -351.5,-163.7 L -349.0,-177.4 L -346.6,-190.0 L -344.4,-201.4 L -342.0,-214.2 L -339.5,-227.1 L -336.7,-241.3 L -334.5,-253.0 L -331.8,-267.5 L -329.6,-279.4 L -327.2,-292.4 L -324.8,-304.7 L -322.4,-317.1 L -320.5,-326.6 L -318.5,-336.3 L -316.4,-346.3 L -314.7,-353.8 L -312.7,-361.7 L -310.7,-369.0 L -308.6,-375.8 L -306.1,-382.8 L -303.9,-388.0 L -301.0,-393.8 L -298.3,-398.1 L -295.2,-402.3 L -291.9,-405.9 L -288.2,-409.0 L -284.3,-411.4 L -280.1,-413.4 L -275.7,-414.8 L -270.5,-415.9 L -265.6,-416.4 L -261.0,-416.4 L -255.1,-415.9 L -250.2,-415.1 L -244.7,-413.7 L -238.5,-411.7 L -232.9,-409.2 L -228.0,-406.4 L -222.9,-402.9 L -218.1,-398.7 L -213.1,-393.6 L -209.0,-388.9 L -204.5,-383.5 L -199.8,-377.7 L -194.7,-370.9 L -189.9,-364.5 L -185.5,-358.5 L -180.5,-351.7 L -175.4,-344.6 L -169.4,-336.7 L -164.4,-330.2 L -158.7,-323.0 L -152.7,-315.7 L -146.4,-308.4 L -139.8,-301.0 L -132.9,-293.7 L -125.8,-286.4 L -118.2,-279.2 L -110.3,-272.2 L -101.0,-265.0 L -92.1,-258.8 L -83.7,-253.5 L -74.5,-247.8 L -65.6,-242.4 L -56.5,-236.7 L -48.8,-231.5 L -42.3,-226.7 L -35.2,-220.6 L -30.0,-215.3 L -24.7,-209.1 L -20.2,-202.6 L -16.0,-195.0 L -13.1,-188.5 L -10.1,-180.3 L -8.3,-173.3 L -6.9,-165.3 L -6.1,-156.4 L -6.0,-148.8 L -6.2,-140.3 L -6.8,-131.7 L -7.5,-122.9 L -7.9,-113.4 L -7.8,-105.7 L -7.0,-97.2 L -5.3,-88.1 L -3.4,-80.9 L -0.6,-73.2 L 3.3,-65.0 L 7.0,-58.4 L 12.3,-50.8 L 17.3,-44.7 L 23.4,-38.2 L 30.0,-31.9 L 37.0,-25.7 L 44.5,-19.7 L 52.4,-13.9 L 60.7,-8.2 L 70.0,-2.1 L 77.9,2.8 L 87.7,8.7 L 95.4,13.4 L 103.5,18.2 L 111.0,22.8 L 117.9,27.1 L 124.3,31.3 L 130.8,35.6 L 135.7,39.1 L 140.8,42.9 L 145.5,46.7 L 149.7,50.6 L 153.5,54.6 L 156.9,59.1 L 159.3,62.8 L 161.3,67.1 L 162.7,71.8 L 163.4,76.0 L 163.6,79.6 L 163.1,83.6 L 162.0,87.4 L 160.2,91.3 L 158.1,94.4 L 155.8,96.9 L 152.9,99.4 L 149.5,101.7 L 145.7,103.7 L 141.6,105.3 L 137.0,106.4 L 132.2,107.1 L 127.2,107.2 L 121.9,107.0 L 116.2,106.5 L 110.2,105.9 L 103.8,105.1 L 97.1,104.1 L 90.2,102.9 L 83.2,101.7 L 75.3,100.1 L 68.6,98.8 L 60.9,97.2 L 52.2,95.4 L 44.8,93.8 L 35.6,91.9 L 27.8,90.3 L 18.1,88.2 L 10.0,86.4 L 0.9,84.3 L -8.4,82.0 L -17.8,79.6 L -27.4,77.0 L -37.2,74.3 L -48.2,71.4 L -57.3,69.1 L -67.7,66.9 L -78.3,64.9 L -89.1,63.3 L -100.0,62.0 L -112.3,60.9 L -122.5,60.3 L -134.0,60.0 L -145.1,60.2 L -155.6,60.9 L -165.5,61.9 L -175.7,63.5 L -184.4,65.3 L -192.5,67.5 L -199.5,69.7 L -206.7,72.6 L -214.0,76.1 L -219.7,79.2 L -225.4,82.9 L -230.8,86.8 L -235.6,90.8 L -239.8,94.8 L -243.5,99.0 L -246.7,103.3 L -249.4,108.0 L -251.1,111.9 L -252.4,116.2 L -253.2,120.4 L -253.3,124.4 L -252.7,128.6 L -251.6,131.7 L -250.0,134.9 L -247.8,137.6 L -245.1,140.2 L -242.4,142.0 L -238.8,143.8 L -235.5,144.9 L -231.6,145.9 L -227.3,146.7 L -222.7,147.4 L -217.7,148.0 L -212.4,148.5 L -206.6,149.1 L -200.5,149.6 L -194.1,150.2 L -186.6,150.9 L -180.3,151.5 L -173.0,152.2 L -165.5,152.9 L -157.7,153.7 L -149.6,154.5 L -140.5,155.5 L -131.9,156.4 L -123.9,157.2 L -114.9,158.1 L -105.7,159.0 L -96.5,159.8 L -87.0,160.6 L -76.3,161.3 L -67.4,161.8 L -57.3,162.3 L -47.0,162.7 L -36.5,163.1 L -25.8,163.5 L -15.1,164.0 L -4.3,164.4 L 6.7,164.8 L 17.8,165.3 L 29.1,165.7 L 40.5,166.2 L 52.1,166.7 L 65.0,167.3 L 75.7,167.8 L 87.7,168.4 L 99.8,168.9 L 113.3,169.6 L 125.6,170.3 L 136.8,170.9 L 150.5,171.6 L 163.1,172.3 L 174.5,172.9 L 187.4,173.6 L 200.3,174.2 L 213.3,174.9 L 226.4,175.5 L 239.6,176.1 L 252.9,176.8 L 266.3,177.4 L 279.8,178.1 L 293.4,178.7 L 307.1,179.3 L 320.8,179.9 L 334.4,180.5 L 347.2,180.9 L 359.3,181.3 L 371.6,181.5 L 381.1,181.6 L 391.1,181.5 L 400.5,181.2 L 409.4,180.5 L 417.8,179.5 L 425.7,178.1 L 433.0,176.2 L 439.8,173.8 L 446.1,171.0 L 452.4,167.2 L 457.1,163.7 L 461.7,159.3 L 466.1,154.1 L 469.1,149.5 L 472.1,143.6 L 474.0,138.7 L 475.7,132.4 L 476.5,127.0 L 476.9,120.9 L 476.7,114.6 L 475.8,108.2 L 474.3,101.6 L 472.1,94.2 L 470.1,88.0 L 467.3,81.0 L 464.1,73.9 L 460.2,66.9 L 455.4,59.2 L 450.5,52.2 L 445.6,46.0 L 439.7,39.3 L 433.4,32.8 L 426.5,26.6 L 418.4,20.0 L 410.6,14.4 L 403.2,9.6 L 394.6,4.5 L 385.6,-0.2 L 376.2,-4.6 L 366.6,-8.9 L 355.9,-13.5 L 347.0,-17.3 L 336.1,-22.2 L 327.1,-26.4 L 316.3,-32.2 L 307.7,-37.6 L 298.4,-44.1 L 289.0,-52.0 L 281.9,-58.9 L 274.7,-67.0 L 268.3,-75.6 L 262.1,-85.3 L 257.7,-93.6 L 253.6,-103.0 L 250.2,-112.5 L 247.7,-122.2 L 245.9,-131.9 L 244.8,-141.9 L 244.5,-151.9 L 244.9,-162.8 L 246.0,-171.8 L 247.8,-181.7 L 250.3,-191.6 L 253.9,-202.5 L 257.7,-212.3 L 261.5,-221.2 L 266.1,-231.0 L 271.0,-240.8 L 276.1,-250.4 L 281.3,-259.5 L 286.2,-268.1 L 291.4,-276.9 L 295.6,-283.6 L 300.2,-290.6 L 304.9,-297.1 L 309.6,-303.1 L 314.5,-308.7 L 319.6,-313.8 L 325.6,-318.9 L 330.7,-322.5 L 337.2,-326.2 L 342.6,-328.7 L 348.8,-330.7 L 355.0,-332.1 L 361.3,-332.8 L 367.7,-332.9 L 374.1,-332.3 L 380.5,-331.0 L 386.9,-329.0 L 393.1,-326.4 L 398.8,-323.3 L 404.1,-319.6 L 409.6,-314.9 L 414.3,-310.0 L 418.3,-305.2 L 422.5,-299.3 L 426.6,-293.0 L 430.7,-286.4 L 434.7,-279.4 L 439.1,-271.3 L 442.6,-264.5 L 446.6,-256.6 L 450.8,-248.6 L 455.0,-240.5 L 459.3,-232.3 L 463.7,-223.8 L 468.2,-215.3 L 473.0,-206.5 L 477.8,-197.7 L 482.8,-188.7 L 488.0,-179.5 L 493.2,-170.2 L 498.4,-160.9 L 503.8,-151.4 L 509.1,-141.8 L 515.1,-131.0 L 520.0,-122.1 L 525.5,-112.0 L 531.1,-101.9 L 536.8,-91.5 L 542.5,-81.1 L 548.9,-69.5 L 554.1,-59.8 L 560.6,-47.9 L 565.9,-38.2 L 571.9,-27.3 L 578.0,-16.2 L 584.1,-5.1 L 590.2,6.2 L 597.1,18.7 L 602.7,28.9 L 609.1,40.5 L 616.2,53.2 L 622.1,63.7 L 628.7,75.5 L 636.0,88.6 L 642.7,100.5 L 648.7,111.4 L 655.5,123.5 L 662.3,135.6 L 669.1,147.9 L 675.9,160.2 L 682.8,172.5 L 689.7,184.9 L 696.5,197.2 L 703.1,209.1 L 709.2,220.1 L 714.8,230.4 L 720.0,239.8 L 724.8,248.4 L 729.2,256.3 L 733.7,264.5 L 737.2,270.7 L 740.9,277.3 L 744.7,284.1 L 747.7,289.4 L 750.8,295.2 L 753.7,300.7 L 756.6,306.6 L 758.6,311.4 L 760.4,316.7 L 761.5,321.9 L 762.0,327.6 L 761.9,332.0 L 761.1,337.3 L 760.0,341.4 L 758.0,346.2 L 755.6,350.4 L 752.5,354.5 L 749.3,358.0 L 745.2,361.7 L 740.6,365.2 L 735.5,368.6 L 729.5,372.2 L 724.3,375.1 L 718.0,378.0 L 711.4,380.7 L 704.3,383.1 L 696.8,385.2 L 689.0,387.0 L 680.0,388.6 L 672.4,389.6 L 663.7,390.4 L 654.7,391.0 L 645.5,391.3 L 636.2,391.4 L 625.6,391.2 L 616.8,391.0 L 606.8,390.6 L 596.6,390.0 L 586.2,389.4 L 575.7,388.8 L 565.0,388.3 L 554.2,387.9 L 543.2,387.4 L 531.0,386.9 L 520.9,386.4 L 509.4,385.9 L 496.7,385.4 L 486.2,384.9 L 474.3,384.4 L 461.1,383.7 L 450.2,383.1 L 436.7,382.5 L 425.6,382.0 L 413.2,381.4 L 400.8,380.9 L 387.0,380.3 L 375.6,379.7 L 362.9,379.1 L 350.0,378.5 L 337.1,377.9 L 322.7,377.2 L 310.8,376.7" fill="none" stroke="#ffffff" stroke-opacity="0.92" stroke-width="8.4" stroke-linecap="round" stroke-linejoin="round"/>
<line x1="306.0" y1="300.7" x2="299.5" y2="451.0" stroke="#ffffff" stroke-width="11.7" stroke-linecap="round"/>
</svg>