<svg xmlns="http://www.w3.org/2000/svg" viewBox="-429.6 -484.0 1313.2 970.7">
<defs><linearGradient id="g" gradientUnits="userSpaceOnUse" x1="-367.2" y1="-421.6" x2="821.2" y2="424.4">
<stop offset="0" stop-color="#ff8a18"/><stop offset="1" stop-color="#7b2da0"/></linearGradient></defs>
<path d="M 365.9,407.5 L 345.1,406.6 L 331.6,406.1 L 320.5,405.6 L 306.8,405.1 L 295.5,404.6 L 283.0,404.1 L 270.3,403.6 L 257.6,403.0 L 244.8,402.5 L 232.0,401.9 L 217.8,401.3 L 206.1,400.8 L 193.1,400.2 L 180.1,399.6 L 166.9,399.0 L 153.8,398.4 L 140.5,397.9 L 127.2,397.3 L 113.9,396.8 L 100.5,396.2 L 85.8,395.6 L 73.7,395.1 L 60.2,394.5 L 46.7,393.9 L 33.1,393.4 L 19.5,392.8 L 5.8,392.3 L -9.2,391.7 L -21.6,391.2 L -36.7,390.6 L -49.2,390.1 L -63.0,389.5 L -76.9,389.0 L -90.8,388.4 L -106.2,387.8 L -120.2,387.2 L -132.8,386.7 L -146.8,386.1 L -162.3,385.5 L -175.0,385.0 L -190.6,384.3 L -204.7,383.7 L -217.2,383.2 L -230.5,382.7 L -242.9,382.2 L -254.4,381.7 L -265.2,381.3 L -275.2,380.9 L -284.6,380.5 L -293.2,380.1 L -301.3,379.8 L -308.8,379.4 L -315.8,379.0 L -322.4,378.6 L -328.5,378.0 L -334.7,377.2 L -339.5,376.4 L -344.3,375.3 L -348.3,374.1 L -352.7,372.3 L -356.1,370.5 L -359.1,368.4 L -361.7,366.2 L -363.7,363.7 L -365.4,360.7 L -366.4,358.1 L -367.0,355.1 L -367.2,351.9 L -366.9,348.6 L -366.1,345.2 L -364.7,341.4 L -363.1,338.3 L -360.9,334.9 L -358.3,331.5 L -355.3,328.4 L -351.9,325.6 L -348.4,323.2 L -344.9,321.2 L -341.4,319.1 L -337.9,317.4 L -334.6,315.4 L -331.7,312.9 L -329.2,310.2 L -326.7,307.0 L -324.9,304.3 L -323.2,301.2 L -321.7,298.0 L -320.5,294.8 L -319.6,291.2 L -319.0,287.4 L -318.7,283.3 L -318.8,279.0 L -319.2,274.5 L -320.0,269.3 L -321.0,264.9 L -322.3,259.9 L -323.9,254.7 L -325.6,249.4 L -327.3,243.8 L -329.1,238.0 L -330.8,231.9 L -332.4,225.6 L -334.0,219.0 L -335.6,212.1 L -337.1,204.3 L -338.3,197.8 L -339.5,190.4 L -340.5,182.0 L -341.0,175.0 L -341.4,166.1 L -341.5,157.9 L -341.3,150.4 L -340.7,141.9 L -339.8,133.3 L -338.7,124.5 L -337.5,115.7 L -336.0,106.8 L -334.5,97.7 L -332.8,88.6 L -330.9,79.3 L -328.7,69.0 L -326.8,60.5 L -324.6,51.0 L -322.4,41.3 L -320.2,31.4 L -317.9,20.5 L -316.1,11.4 L -314.1,1.2 L -312.0,-9.1 L -310.0,-19.6 L -308.0,-30.1 L -305.9,-40.7 L -303.7,-52.5 L -301.6,-63.4 L -299.7,-73.2 L -297.7,-84.1 L -295.7,-95.2 L -293.6,-106.3 L -291.6,-117.6 L -289.4,-130.0 L -287.6,-140.3 L -285.5,-151.8 L -283.4,-163.3 L -281.3,-175.0 L -279.1,-186.7 L -276.9,-198.4 L -274.7,-210.3 L -272.5,-222.2 L -270.1,-235.3 L -268.0,-246.2 L -265.8,-258.2 L -263.6,-269.8 L -261.4,-281.8 L -259.6,-290.9 L -257.7,-300.5 L -256.0,-309.4 L -254.2,-317.8 L -252.5,-325.8 L -250.7,-333.3 L -248.7,-341.1 L -246.7,-347.6 L -244.6,-353.1 L -242.1,-358.7 L -239.4,-363.7 L -236.7,-367.8 L -233.0,-372.6 L -229.9,-375.7 L -226.3,-378.7 L -222.4,-381.1 L -217.8,-383.2 L -213.4,-384.6 L -209.3,-385.6 L -204.6,-386.2 L -199.1,-386.5 L -194.6,-386.2 L -189.5,-385.5 L -183.8,-384.2 L -179.1,-382.8 L -173.9,-380.9 L -168.5,-378.6 L -162.6,-375.5 L -157.6,-372.7 L -152.0,-369.3 L -146.2,-365.8 L -140.0,-362.4 L -133.7,-359.1 L -127.0,-356.2 L -120.1,-353.8 L -113.0,-351.8 L -105.8,-350.3 L -98.4,-349.3 L -91.0,-348.9 L -83.6,-349.1 L -76.3,-349.8 L -69.0,-351.2 L -61.7,-353.2 L -54.5,-355.7 L -47.2,-358.8 L -40.1,-362.4 L -33.0,-366.5 L -25.2,-371.4 L -18.9,-375.6 L -11.7,-380.4 L -4.4,-385.2 L 3.0,-390.0 L 10.7,-394.7 L 18.6,-399.4 L 26.7,-403.8 L 35.1,-407.8 L 44.6,-411.8 L 53.4,-414.8 L 61.4,-417.0 L 70.4,-418.9 L 80.4,-420.4 L 88.7,-421.2 L 98.0,-421.6 L 107.5,-421.5 L 117.0,-420.9 L 126.7,-419.8 L 137.3,-417.9 L 146.0,-415.8 L 155.7,-413.0 L 165.2,-409.6 L 174.3,-405.6 L 183.2,-401.1 L 191.5,-396.4 L 199.3,-392.0 L 206.5,-387.9 L 213.2,-384.1 L 219.9,-380.4 L 225.0,-377.8 L 230.2,-375.4 L 235.2,-373.5 L 240.1,-372.1 L 244.9,-371.3 L 249.7,-371.0 L 254.9,-371.3 L 259.0,-372.0 L 263.5,-373.2 L 268.3,-375.0 L 272.4,-376.9 L 277.0,-378.9 L 282.3,-380.8 L 286.8,-381.9 L 291.9,-382.8 L 297.2,-383.3 L 302.6,-383.4 L 308.1,-383.0 L 313.7,-382.1 L 319.3,-380.7 L 325.5,-378.6 L 330.7,-376.6 L 336.5,-373.9 L 342.6,-371.2 L 343.8,-370.6 L 348.8,-368.1 L 355.0,-364.7 L 361.4,-361.0 L 367.8,-357.1 L 374.3,-353.0 L 380.9,-348.7 L 387.6,-344.2 L 394.5,-339.6 L 401.4,-334.7 L 408.5,-329.7 L 415.6,-324.4 L 423.4,-318.3 L 429.9,-313.2 L 437.1,-307.2 L 444.2,-301.0 L 451.9,-293.8 L 458.1,-287.7 L 465.5,-279.8 L 472.0,-272.2 L 478.3,-264.3 L 483.9,-257.0 L 489.9,-248.5 L 496.3,-239.0 L 501.4,-230.9 L 507.0,-221.8 L 512.6,-212.5 L 518.1,-203.1 L 523.7,-193.6 L 529.2,-183.9 L 535.2,-173.1 L 540.2,-164.2 L 545.6,-154.1 L 551.6,-143.0 L 556.5,-133.9 L 562.1,-123.6 L 567.7,-113.3 L 574.0,-101.9 L 579.1,-92.5 L 585.0,-82.1 L 590.8,-71.5 L 596.7,-60.9 L 603.3,-49.2 L 608.6,-39.5 L 614.6,-28.7 L 621.2,-16.7 L 626.7,-6.8 L 632.8,4.2 L 638.9,15.3 L 645.0,26.5 L 651.2,37.7 L 657.4,49.0 L 663.7,60.4 L 670.6,72.9 L 676.3,83.2 L 682.7,94.7 L 689.1,106.2 L 695.5,117.8 L 702.0,129.4 L 708.5,141.1 L 715.1,152.8 L 721.7,164.5 L 728.3,176.3 L 734.9,188.2 L 741.5,200.1 L 748.1,212.0 L 754.8,224.0 L 761.4,235.9 L 767.8,247.5 L 773.9,258.6 L 779.7,269.0 L 785.0,278.7 L 790.5,288.7 L 794.7,296.3 L 799.4,305.0 L 802.9,311.5 L 806.4,318.4 L 809.6,324.8 L 812.5,331.0 L 815.1,337.1 L 817.3,342.9 L 819.0,348.7 L 820.4,355.0 L 821.0,360.0 L 821.2,365.9 L 820.8,371.2 L 820.0,375.7 L 818.6,380.4 L 816.3,385.2 L 814.0,389.0 L 810.9,393.0 L 807.0,397.2 L 803.4,400.4 L 799.0,403.7 L 793.6,406.9 L 788.9,409.2 L 783.3,411.5 L 777.3,413.4 L 771.0,415.3 L 764.5,417.1 L 757.7,418.7 L 749.8,420.3 L 743.2,421.4 L 734.9,422.5 L 727.9,423.2 L 720.0,423.8 L 711.0,424.2 L 703.5,424.4 L 694.9,424.3 L 686.3,424.2 L 677.4,423.8 L 667.5,423.3 L 658.3,422.8 L 649.9,422.2 L 641.5,421.6 L 630.0,420.6 L 621.3,419.9 L 611.5,419.2 L 601.5,418.6 L 591.4,418.0 L 581.2,417.5 L 570.9,417.1 L 560.4,416.7 L 549.8,416.4 L 539.1,416.0 L 528.3,415.7 L 517.4,415.2 L 505.3,414.6 L 495.3,414.1 L 484.1,413.6 L 471.6,412.9 L 461.3,412.4 L 449.9,411.7 L 438.3,411.1 L 426.7,410.4 L 413.8,409.7 L 403.2,409.2 L 390.1,408.5 L 379.4,408.0 L 367.3,407.5" fill="none" stroke="url(#g)" stroke-width="83.2" stroke-linecap="round" stroke-linejoin="round"/>
<path d="M 365.9,407.5 L 345.1,406.6 L 331.6,406.1 L 320.5,405.6 L 306.8,405.1 L 295.5,404.6 L 283.0,404.1 L 270.3,403.6 L 257.6,403.0 L 244.8,402.5 L 232.0,401.9 L 217.8,401.3 L 206.1,400.8 L 193.1,400.2 L 180.1,399.6 L 166.9,399.0 L 153.8,398.4 L 140.5,397.9 L 127.2,397.3 L 113.9,396.8 L 100.5,396.2 L 85.8,395.6 L 73.7,395.1 L 60.2,394.5 L 46.7,393.9 L 33.1,393.4 L 19.5,392.8 L 5.8,392.3 L -9.2,391.7 L -21.6,391.2 L -36.7,390.6 L -49.2,390.1 L -63.0,389.5 L -76.9,389.0 L -90.8,388.4 L -106.2,387.8 L -120.2,387.2 L -132.8,386.7 L -146.8,386.1 L -162.3,385.5 L -175.0,385.0 L -190.6,384.3 L -204.7,383.7 L -217.2,383.2 L -230.5,382.7 L -242.9,382.2 L -254.4,381.7 L -265.2,381.3 L -275.2,380.9 L -284.6,380.5 L -293.2,380.1 L -301.3,379.8 L -308.8,379.4 L -315.8,379.0 L -322.4,378.6 L -328.5,378.0 L -334.7,377.2 L -339.5,376.4 L -344.3,375.3 L -348.3,374.1 L -352.7,372.3 L -356.1,370.5 L -359.1,368.4 L -361.7,366.2 L -363.7,363.7 L -365.4,360.7 L -366.4,358.1 L -367.0,355.1 L -367.2,351.9 L -366.9,348.6 L -366.1,345.2 L -364.7,341.4 L -363.1,338.3 L -360.9,334.9 L -358.3,331.5 L -355.3,328.4 L -351.9,325.6 L -348.4,323.2 L -344.9,321.2 L -341.4,319.1 L -337.9,317.4 L -334.6,315.4 L -331.7,312.9 L -329.2,310.2 L -326.7,307.0 L -324.9,304.3 L -323.2,301.2 L -321.7,298.0 L -320.5,294.8 L -319.6,291.2 L -319.0,287.4 L -318.7,283.3 L -318.8,279.0 L -319.2,274.5 L -320.0,269.3 L -321.0,264.9 L -322.3,259.9 L -323.9,254.7 L -325.6,249.4 L -327.3,243.8 L -329.1,238.0 L -330.8,231.9 L -332.4,225.6 L -334.0,219.0 L -335.6,212.1 L -337.1,204.3 L -338.3,197.8 L -339.5,190.4 L -340.5,182.0 L -341.0,175.0 L -341.4,166.1 L -341.5,157.9 L -341.3,150.4 L -340.7,141.9 L -339.8,133.3 L -338.7,124.5 L -337.5,115.7 L -336.0,106.8 L -334.5,97.7 L -332.8,88.6 L -330.9,79.3 L -328.7,69.0 L -326.8,60.5 L -324.6,51.0 L -322.4,41.3 L -320.2,31.4 L -317.9,20.5 L -316.1,11.4 L -314.1,1.2 L -312.0,-9.1 L -310.0,-19.6 L -308.0,-30.1 L -305.9,-40.7 L -303.7,-52.5 L -301.6,-63.4 L -299.7,-73.2 L -297.7,-84.1 L -295.7,-95.2 L -293.6,-106.3 L -291.6,-117.6 L -289.4,-130.0 L -287.6,-140.3 L -285.5,-151.8 L -283.4,-163.3 L -281.3,-175.0 L -279.1,-186.7 L -276.9,-198.4 L -274.7,-210.3 L -272.5,-222.2 L -270.1,-235.3 L -268.0,-246.2 L -265.8,-258.2 L -263.6,-269.8 L -261.4,-281.8 L -259.6,-290.9 L -257.7,-300.5 L -256.0,-309.4 L -254.2,-317.8 L -252.5,-325.8 L -250.7,-333.3 L -248.7,-341.1 L -246.7,-347.6 L -244.6,-353.1 L -242.1,-358.7 L -239.4,-363.7 L -236.7,-367.8 L -233.0,-372.6 L -229.9,-375.7 L -226.3,-378.7 L -222.4,-381.1 L -217.8,-383.2 L -213.4,-384.6 L -209.3,-385.6 L -204.6,-386.2 L -199.1,-386.5 L -194.6,-386.2 L -189.5,-385.5 L -183.8,-384.2 L -179.1,-382.8 L -173.9,-380.9 L -168.5,-378.6 L -162.6,-375.5 L -157.6,-372.7 L -152.0,-369.3 L -146.2,-365.8 L -140.0,-362.4 L -133.7,-359.1 L -127.0,-356.2 L -120.1,-353.8 L -113.0,-351.8 L -105.8,-350.3 L -98.4,-349.3 L -91.0,-348.9 L -83.6,-349.1 L -76.3,-349.8 L -69.0,-351.2 L -61.7,-353.2 L -54.5,-355.7 L -47.2,-358.8 L -40.1,-362.4 L -33.0,-366.5 L -25.2,-371.4 L -18.9,-375.6 L -11.7,-380.4 L -4.4,-385.2 L 3.0,-390.0 L 10.7,-394.7 L 18.6,-399.4 L 26.7,-403.8 L 35.1,-407.8 L 44.6,-411.8 L 53.4,-414.8 L 61.4,-417.0 L 70.4,-418.9 L 80.4,-420.4 L 88.7,-421.2 L 98.0,-421.6 L 107.5,-421.5 L 117.0,-420.9 L 126.7,-419.8 L 137.3,-417.9 L 146.0,-415.8 L 155.7,-413.0 L 165.2,-409.6 L 174.3,-405.6 L 183.2,-401.1 L 191.5,-396.4 L 199.3,-392.0 L 206.5,-387.9 L 213.2,-384.1 L 219.9,-380.4 L 225.0,-377.8 L 230.2,-375.4 L 235.2,-373.5 L 240.1,-372.1 L 244.9,-371.3 L 249.7,-371.0 L 254.9,-371.3 L 259.0,-372.0 L 263.5,-373.2 L 268.3,-375.0 L 272.4,-376.9 L 277.0,-378.9 L 282.3,-380.8 L 286.8,-381.9 L 291.9,-382.8 L 297.2,-383.3 L 302.6,-383.4 L 308.1,-383.0 L 313.7,-382.1 L 319.3,-380.7 L 325.5,-378.6 L 330.7,-376.6 L 336.5,-373.9 L 342.6,-371.2 L 343.8,-370.6 L 348.8,-368.1 L 355.0,-364.7 L 361.4,-361.0 L 367.8,-357.1 L 374.3,-353.0 L 380.9,-348.7 L 387.6,-344.2 L 394.5,-339.6 L 401.4,-334.7 L 408.5,-329.7 L 415.6,-324.4 L 423.4,-318.3 L 429.9,-313.2 L 437.1,-307.2 L 444.2,-301.0 L 451.9,-293.8 L 458.1,-287.7 L 465.5,-279.8 L 472.0,-272.2 L 478.3,-264.3 L 483.9,-257.0 L 489.9,-248.5 L 496.3,-239.0 L 501.4,-230.9 L 507.0,-221.8 L 512.6,-212.5 L 518.1,-203.1 L 523.7,-193.6 L 529.2,-183.9 L 535.2,-173.1 L 540.2,-164.2 L 545.6,-154.1 L 551.6,-143.0 L 556.5,-133.9 L 562.1,-123.6 L 567.7,-113.3 L 574.0,-101.9 L 579.1,-92.5 L 585.0,-82.1 L 590.8,-71.5 L 596.7,-60.9 L 603.3,-49.2 L 608.6,-39.5 L 614.6,-28.7 L 621.2,-16.7 L 626.7,-6.8 L 632.8,4.2 L 638.9,15.3 L 645.0,26.5 L 651.2,37.7 L 657.4,49.0 L 663.7,60.4 L 670.6,72.9 L 676.3,83.2 L 682.7,94.7 L 689.1,106.2 L 695.5,117.8 L 702.0,129.4 L 708.5,141.1 L 715.1,152.8 L 721.7,164.5 L 728.3,176.3 L 734.9,188.2 L 741.5,200.1 L 748.1,212.0 L 754.8,224.0 L 761.4,235.9 L 767.8,247.5 L 773.9,258.6 L 779.7,269.0 L 785.0,278.7 L 790.5,288.7 L 794.7,296.3 L 799.4,305.0 L 802.9,311.5 L 806.4,318.4 L 809.6,324.8 L 812.5,331.0 L 815.1,337.1 L 817.3,342.9 L 819.0,348.7 L 820.4,355.0 L 821.0,360.0 L 821.2,365.9 L 820.8,371.2 L 820.0,375.7 L 818.6,380.4 L 816.3,385.2 L 814.0,389.0 L 810.9,393.0 L 807.0,397.2 L 803.4,400.4 L 799.0,403.7 L 793.6,406.9 L 788.9,409.2 L 783.3,411.5 L 777.3,413.4 L 771.0,415.3 L 764.5,417.1 L 757.7,418.7 L 749.8,420.3 L 743.2,421.4 L 734.9,422.5 L 727.9,423.2 L 720.0,423.8 L 711.0,424.2 L 703.5,424.4 L 694.9,424.3 L 686.3,424.2 L 677.4,423.8 L 667.5,423.3 L 658.3,422.8 L 649.9,422.2 L 641.5,421.6 L 630.0,420.6 L 621.3,419.9 L 611.5,419.2 L 601.5,418.6 L 591.4,418.0 L 581.2,417.5 L 570.9,417.1 L 560.4,416.7 L 549.8,416.4 L 539.1,416.0 L 528.3,415.7 L 517.4,415.2 L 505.3,414.6 L 495.3,414.1 L 484.1,413.6 L 471.6,412.9 L 461.3,412.4 L 449.9,411.7 L 438.3,411.1 L 426.7,410.4 L 413.8,409.7 L 403.2,409.2 L 390.1,408.5 L 379.4,408.0 L 367.3,407.5" fill="none" stroke="#ffffff" stroke-opacity="0.92" stroke-width="8.3" stroke-linecap="round" stroke-linejoin="round"/>
<line x1="368.9" y1="332.7" x2="362.8" y2="482.3" stroke="#ffffff" stroke-width="11.6" stroke-linecap="round"/>
</svg>