<svg xmlns="http://www.w3.org/2000/svg" viewBox="-481.7 -631.6 1231.2 887.5">
<defs><linearGradient id="g" gradientUnits="userSpaceOnUse" x1="-481.7" y1="-631.6" x2="749.4" y2="256.0">
<stop offset="0" stop-color="#1c9fe0"/><stop offset="1" stop-color="#0b1f44"/></linearGradient></defs>
<path d="M 270.0,218.7 L 251.8,218.1 L 237.6,217.6 L 223.4,217.1 L 209.0,216.6 L 193.9,216.1 L 179.3,215.6 L 165.4,215.1 L 150.7,214.6 L 135.2,214.1 L 121.1,213.5 L 104.6,212.9 L 90.3,212.3 L 75.2,211.6 L 60.0,210.9 L 45.5,210.3 L 30.1,209.7 L 13.9,209.0 L -3.1,208.3 L -16.3,207.7 L -31.9,207.1 L -48.4,206.5 L -64.1,205.8 L -79.2,205.2 L -95.0,204.6 L -111.7,203.9 L -127.6,203.3 L -144.4,202.6 L -159.5,201.8 L -174.8,200.7 L -188.8,199.7 L -202.9,198.8 L -217.8,197.8 L -229.5,197.0 L -242.7,196.2 L -254.3,195.6 L -267.5,194.9 L -278.6,194.5 L -289.5,194.1 L -300.8,193.8 L -312.5,193.6 L -323.3,193.5 L -333.1,193.5 L -342.8,193.4 L -352.5,193.2 L -360.9,192.9 L -370.1,192.6 L -377.8,192.3 L -385.5,192.0 L -392.5,191.7 L -400.1,191.3 L -406.5,191.0 L -411.9,190.6 L -416.9,190.2 L -421.7,189.8 L -425.9,189.4 L -430.2,188.8 L -433.9,188.1 L -437.4,187.4 L -441.0,186.6 L -444.7,185.5 L -447.8,184.2 L -450.8,182.5 L -453.4,180.2 L -455.5,177.8 L -457.3,174.7 L -458.6,171.5 L -459.1,168.7 L -459.2,165.7 L -458.7,162.4 L -457.6,159.3 L -455.8,156.3 L -453.8,153.8 L -451.3,151.6 L -448.2,149.4 L -445.3,147.1 L -442.2,144.1 L -439.2,140.9 L -436.4,137.4 L -433.4,132.9 L -430.7,128.6 L -427.9,124.0 L -424.6,118.9 L -421.0,113.2 L -417.6,107.6 L -414.8,102.2 L -412.4,95.9 L -410.9,90.6 L -410.1,85.2 L -409.8,79.5 L -410.1,73.8 L -411.1,67.8 L -412.6,62.1 L -414.5,56.2 L -416.5,50.4 L -418.9,43.3 L -421.1,36.8 L -423.3,30.2 L -425.6,22.4 L -427.6,14.7 L -429.5,7.0 L -431.2,-1.3 L -432.8,-10.4 L -433.8,-19.3 L -434.1,-28.0 L -433.9,-37.4 L -433.4,-48.0 L -432.6,-57.8 L -431.6,-67.3 L -430.4,-77.0 L -428.8,-87.8 L -427.1,-97.8 L -425.2,-109.0 L -423.4,-119.3 L -421.3,-130.3 L -419.2,-142.0 L -417.1,-153.4 L -414.9,-165.0 L -412.7,-176.7 L -410.4,-189.1 L -408.1,-201.0 L -405.8,-213.1 L -403.5,-224.8 L -401.3,-236.5 L -398.9,-249.0 L -396.4,-261.7 L -393.9,-275.1 L -391.4,-288.0 L -388.8,-301.0 L -386.4,-313.5 L -383.7,-327.4 L -381.1,-340.8 L -378.7,-353.6 L -376.2,-367.1 L -373.6,-381.3 L -371.3,-393.5 L -369.1,-405.7 L -367.0,-417.3 L -364.7,-429.3 L -362.9,-439.1 L -361.1,-448.9 L -359.4,-457.7 L -357.7,-466.8 L -355.8,-476.7 L -354.3,-484.7 L -352.7,-493.3 L -351.1,-501.6 L -349.4,-510.4 L -347.9,-517.9 L -346.5,-525.2 L -345.4,-531.0 L -344.2,-537.0 L -343.2,-541.9 L -342.2,-546.5 L -341.2,-550.3 L -339.9,-553.9 L -338.1,-557.0 L -336.2,-559.4 L -334.0,-561.4 L -331.3,-563.1 L -328.6,-564.6 L -326.1,-566.0 L -323.1,-567.5 L -320.4,-568.7 L -317.0,-570.1 L -313.7,-571.2 L -309.6,-571.9 L -305.8,-571.9 L -302.1,-571.4 L -297.8,-570.4 L -293.3,-569.0 L -289.1,-567.4 L -284.6,-565.2 L -280.1,-562.7 L -276.0,-560.1 L -271.8,-557.6 L -267.0,-555.1 L -262.5,-552.9 L -257.6,-550.8 L -252.1,-548.8 L -245.5,-546.5 L -239.5,-544.4 L -232.9,-542.2 L -226.3,-540.1 L -218.5,-538.1 L -211.8,-537.0 L -204.7,-536.5 L -197.3,-536.7 L -190.9,-537.4 L -183.3,-538.8 L -176.0,-540.7 L -168.8,-543.0 L -161.2,-545.8 L -152.8,-548.9 L -144.8,-552.1 L -136.9,-555.3 L -128.5,-559.0 L -120.1,-562.7 L -111.0,-567.0 L -103.5,-570.9 L -96.1,-575.0 L -87.6,-579.9 L -80.2,-584.1 L -71.5,-589.0 L -64.8,-592.7 L -56.8,-596.6 L -48.2,-599.8 L -39.9,-602.2 L -31.5,-604.1 L -23.4,-605.8 L -14.9,-607.4 L -5.7,-608.5 L 4.0,-609.0 L 11.5,-608.9 L 20.2,-608.2 L 29.2,-606.9 L 37.7,-605.5 L 45.6,-603.8 L 53.7,-601.7 L 62.1,-599.2 L 70.0,-596.5 L 77.5,-593.4 L 85.1,-589.5 L 91.9,-585.4 L 97.9,-581.5 L 104.5,-577.2 L 111.1,-572.9 L 116.7,-569.4 L 122.5,-566.2 L 128.3,-563.7 L 134.6,-561.7 L 140.3,-560.7 L 146.2,-560.3 L 152.0,-560.6 L 157.9,-561.6 L 163.1,-563.1 L 168.2,-565.1 L 173.4,-567.5 L 177.8,-569.4 L 182.1,-571.1 L 186.8,-572.5 L 191.4,-573.2 L 196.0,-573.3 L 200.8,-572.9 L 205.2,-572.4 L 209.5,-571.6 L 213.3,-570.7 L 217.3,-569.6 L 220.9,-568.7 L 224.2,-567.7 L 227.8,-566.7 L 230.8,-565.6 L 234.0,-564.2 L 236.1,-562.9 L 238.2,-561.1 L 239.9,-558.9 L 241.2,-556.7 L 242.6,-554.5 L 244.2,-552.0 L 245.4,-549.9 L 246.6,-547.4 L 247.4,-544.9 L 248.1,-541.9 L 248.7,-539.2 L 249.2,-536.3 L 249.3,-533.2 L 248.9,-530.3 L 248.0,-527.5 L 246.5,-524.7 L 244.6,-521.9 L 242.6,-519.4 L 240.4,-516.9 L 238.1,-514.5 L 235.3,-512.1 L 232.9,-510.1 L 230.3,-508.0 L 227.6,-505.8 L 225.3,-503.9 L 222.7,-501.7 L 220.1,-499.5 L 217.7,-497.4 L 214.6,-494.7 L 211.7,-492.1 L 208.6,-489.3 L 205.2,-485.9 L 201.3,-481.8 L 197.8,-477.9 L 194.1,-473.5 L 190.2,-468.6 L 186.5,-463.6 L 182.3,-457.8 L 178.4,-452.0 L 175.1,-447.0 L 171.6,-441.7 L 168.4,-436.9 L 165.7,-433.3 L 162.4,-429.6 L 158.9,-426.7 L 155.4,-424.4 L 151.5,-422.5 L 147.1,-421.1 L 143.5,-420.4 L 139.3,-420.2 L 135.2,-420.5 L 130.8,-421.3 L 126.8,-422.5 L 122.6,-424.1 L 119.1,-425.6 L 115.0,-427.5 L 111.4,-429.4 L 107.4,-431.9 L 104.0,-434.5 L 100.9,-437.3 L 97.8,-440.4 L 94.1,-444.0 L 90.7,-447.0 L 86.9,-449.8 L 83.1,-452.1 L 78.6,-454.7 L 75.0,-457.3 L 71.6,-460.3 L 68.5,-463.6 L 65.6,-466.7 L 62.3,-469.6 L 58.3,-472.4 L 54.7,-474.2 L 50.2,-475.7 L 45.7,-476.7 L 41.3,-477.0 L 36.4,-477.0 L 31.3,-476.9 L 25.6,-476.6 L 19.8,-476.3 L 14.0,-475.6 L 7.6,-474.7 L 0.5,-473.8 L -6.3,-473.0 L -13.7,-472.3 L -21.9,-471.7 L -29.5,-471.3 L -37.8,-470.9 L -44.8,-470.6 L -51.0,-470.4 L -56.9,-470.1 L -62.8,-469.9 L -68.6,-469.6 L -74.6,-469.3 L -80.2,-469.1 L -84.6,-468.8 L -89.5,-468.2 L -94.2,-467.3 L -99.1,-465.9 L -103.2,-464.3 L -107.3,-462.3 L -111.2,-459.8 L -114.3,-457.3 L -117.3,-453.9 L -119.5,-450.6 L -121.5,-446.7 L -123.1,-442.4 L -124.4,-438.6 L -125.5,-433.8 L -125.9,-429.6 L -125.7,-425.5 L -125.0,-421.3 L -123.7,-416.9 L -122.3,-412.6 L -120.8,-408.3 L -119.0,-403.7 L -116.7,-399.5 L -113.8,-395.4 L -110.9,-392.1 L -107.4,-389.1 L -103.7,-386.6 L -99.6,-384.5 L -95.8,-383.0 L -91.7,-381.9 L -87.4,-381.0 L -82.5,-380.0 L -77.1,-378.8 L -72.9,-377.5 L -68.4,-375.4 L -63.8,-372.5 L -60.5,-369.8 L -57.1,-366.3 L -54.0,-362.1 L -51.5,-357.7 L -49.3,-353.1 L -47.3,-347.8 L -45.4,-341.7 L -44.1,-336.0 L -43.1,-330.0 L -42.4,-323.4 L -42.1,-316.6 L -42.4,-309.3 L -43.1,-301.7 L -43.9,-295.7 L -44.5,-288.7 L -44.7,-281.8 L -44.7,-274.4 L -44.4,-267.3 L -43.6,-260.2 L -42.2,-252.8 L -40.4,-246.3 L -38.0,-240.1 L -34.7,-233.5 L -31.3,-227.7 L -26.9,-221.6 L -22.3,-216.1 L -17.1,-210.8 L -11.7,-205.9 L -4.9,-200.3 L 1.0,-195.6 L 7.9,-190.5 L 15.0,-185.2 L 22.6,-179.3 L 30.1,-173.5 L 37.7,-167.5 L 45.0,-161.5 L 52.7,-155.3 L 60.4,-149.0 L 67.2,-143.4 L 72.2,-139.3 L 77.8,-134.8 L 83.2,-130.3 L 87.8,-126.5 L 92.6,-122.5 L 96.9,-119.0 L 101.3,-115.4 L 105.1,-112.2 L 108.9,-109.1 L 112.8,-105.7 L 116.1,-102.7 L 118.8,-99.8 L 121.4,-96.3 L 123.4,-92.5 L 125.0,-88.4 L 126.1,-84.6 L 127.0,-80.6 L 127.2,-76.3 L 126.8,-72.8 L 125.7,-69.0 L 124.1,-65.7 L 121.9,-62.7 L 119.4,-60.3 L 116.4,-58.1 L 112.8,-56.3 L 109.0,-54.9 L 105.2,-53.9 L 100.4,-52.8 L 95.9,-52.0 L 90.9,-51.5 L 85.9,-51.2 L 79.7,-51.3 L 74.1,-51.8 L 68.0,-52.6 L 61.2,-53.8 L 55.1,-55.0 L 47.8,-56.6 L 40.4,-58.2 L 32.8,-59.8 L 24.8,-61.5 L 17.0,-63.2 L 8.1,-65.1 L -1.5,-67.1 L -9.6,-68.7 L -18.4,-70.4 L -27.9,-72.1 L -38.6,-74.1 L -48.1,-75.7 L -57.7,-77.4 L -68.0,-79.2 L -79.6,-81.3 L -89.8,-83.1 L -100.2,-84.9 L -111.2,-86.9 L -122.2,-88.9 L -133.4,-90.9 L -143.7,-92.6 L -153.5,-94.0 L -162.8,-95.0 L -171.3,-95.6 L -180.3,-96.0 L -188.2,-95.9 L -196.1,-95.5 L -204.5,-94.5 L -211.4,-93.3 L -218.2,-91.7 L -225.0,-89.6 L -230.6,-87.7 L -236.7,-85.3 L -241.9,-83.0 L -247.0,-80.3 L -251.9,-77.6 L -256.5,-74.9 L -261.2,-72.2 L -265.2,-69.8 L -269.1,-67.2 L -272.8,-64.7 L -276.0,-62.0 L -279.0,-58.9 L -281.4,-55.5 L -283.0,-52.7 L -284.7,-49.4 L -286.1,-45.6 L -286.9,-42.3 L -287.3,-39.0 L -287.2,-35.1 L -286.8,-32.1 L -285.9,-28.8 L -284.2,-25.4 L -282.5,-23.2 L -280.2,-21.1 L -277.2,-19.3 L -274.3,-18.2 L -271.5,-17.3 L -267.9,-16.2 L -264.3,-15.1 L -260.0,-14.1 L -255.1,-13.0 L -251.0,-12.1 L -245.8,-11.1 L -240.2,-10.2 L -233.6,-9.3 L -227.6,-8.5 L -220.9,-7.7 L -214.3,-7.0 L -206.6,-6.3 L -198.9,-5.6 L -190.8,-4.9 L -182.9,-4.2 L -174.3,-3.6 L -165.0,-2.8 L -155.0,-2.1 L -147.0,-1.5 L -136.4,-0.8 L -127.0,-0.2 L -116.9,0.4 L -106.6,1.1 L -96.6,1.7 L -84.8,2.4 L -74.4,3.0 L -63.9,3.6 L -52.6,4.2 L -40.5,4.9 L -29.4,5.6 L -17.6,6.2 L -4.4,6.9 L 7.8,7.6 L 19.5,8.2 L 31.3,8.8 L 44.5,9.5 L 57.2,10.2 L 69.5,10.8 L 82.5,11.4 L 97.0,12.1 L 109.6,12.7 L 122.3,13.3 L 135.9,13.9 L 150.2,14.6 L 164.0,15.2 L 177.2,15.7 L 192.5,16.4 L 205.9,17.1 L 220.0,17.9 L 233.3,18.6 L 247.4,19.5 L 260.8,20.4 L 271.8,21.1 L 283.5,21.8 L 294.8,22.5 L 306.6,23.3 L 315.9,23.9 L 326.9,24.5 L 335.9,25.1 L 344.7,25.6 L 353.5,26.1 L 362.3,26.6 L 371.1,26.8 L 377.8,26.6 L 384.6,26.0 L 391.5,24.8 L 398.5,22.9 L 404.5,20.6 L 409.5,18.1 L 414.6,14.8 L 419.1,11.0 L 423.1,6.8 L 426.8,1.8 L 429.7,-3.3 L 432.1,-8.5 L 434.4,-14.1 L 436.3,-20.4 L 437.7,-26.6 L 438.4,-32.5 L 438.4,-39.5 L 437.9,-45.5 L 436.7,-52.0 L 435.2,-58.2 L 433.0,-65.6 L 430.7,-72.2 L 428.1,-78.9 L 424.9,-86.1 L 421.1,-93.4 L 416.6,-101.0 L 411.7,-108.0 L 406.1,-114.7 L 399.6,-121.3 L 393.2,-127.0 L 386.2,-132.3 L 378.4,-137.7 L 370.2,-142.8 L 360.7,-148.3 L 352.4,-153.1 L 343.3,-158.0 L 334.5,-162.6 L 323.8,-167.7 L 315.0,-171.9 L 305.0,-176.6 L 294.7,-181.7 L 285.7,-186.2 L 276.9,-191.2 L 268.2,-196.7 L 260.6,-202.5 L 253.6,-208.7 L 247.6,-215.1 L 241.8,-222.3 L 236.3,-230.2 L 232.0,-237.7 L 228.0,-245.9 L 224.3,-255.2 L 221.6,-263.4 L 219.2,-272.3 L 217.4,-280.8 L 216.0,-289.9 L 215.1,-299.0 L 215.0,-308.7 L 215.7,-317.7 L 217.1,-327.0 L 218.8,-334.8 L 221.3,-343.7 L 223.8,-351.6 L 226.6,-359.7 L 229.8,-368.1 L 233.1,-375.9 L 236.2,-383.2 L 239.4,-390.9 L 242.9,-398.8 L 246.3,-406.1 L 249.9,-413.8 L 253.1,-420.2 L 257.1,-427.8 L 260.5,-433.9 L 264.9,-441.0 L 268.8,-446.6 L 273.7,-453.2 L 277.9,-458.4 L 282.6,-463.7 L 287.5,-468.6 L 292.6,-473.0 L 297.9,-477.0 L 303.1,-480.3 L 308.2,-483.0 L 313.6,-485.1 L 319.5,-486.8 L 325.7,-487.7 L 330.5,-487.9 L 336.1,-487.7 L 341.8,-486.8 L 347.1,-485.4 L 351.8,-483.5 L 356.6,-481.2 L 361.4,-478.3 L 365.8,-475.3 L 370.0,-471.9 L 373.8,-468.3 L 377.9,-463.8 L 381.4,-459.6 L 384.9,-455.1 L 388.6,-450.0 L 392.5,-444.2 L 396.6,-437.7 L 399.9,-432.3 L 404.1,-425.4 L 408.0,-418.9 L 412.4,-411.3 L 416.6,-403.8 L 420.6,-396.5 L 425.0,-388.5 L 429.7,-379.9 L 434.2,-371.5 L 438.7,-363.4 L 443.5,-354.6 L 448.6,-345.2 L 453.3,-336.6 L 458.4,-327.4 L 463.8,-317.6 L 469.1,-308.0 L 474.2,-298.8 L 479.7,-288.9 L 485.8,-277.9 L 491.2,-268.2 L 496.7,-258.4 L 503.1,-246.8 L 508.4,-237.3 L 514.7,-226.0 L 520.7,-215.1 L 526.5,-204.7 L 533.1,-193.0 L 539.3,-181.7 L 546.0,-169.7 L 551.7,-159.3 L 558.5,-147.0 L 564.8,-135.8 L 572.0,-122.7 L 578.3,-111.3 L 585.1,-99.1 L 591.5,-87.6 L 599.1,-74.0 L 605.7,-62.3 L 613.4,-48.6 L 620.1,-36.7 L 627.1,-24.0 L 633.8,-11.8 L 640.9,1.0 L 647.6,13.1 L 654.2,25.2 L 660.4,36.6 L 666.5,47.8 L 671.9,57.8 L 676.8,66.7 L 681.7,75.7 L 686.8,85.2 L 691.3,93.6 L 695.4,101.2 L 699.6,108.9 L 703.2,115.7 L 706.9,122.5 L 710.4,129.1 L 713.5,135.0 L 716.2,140.2 L 719.1,145.8 L 721.3,150.4 L 723.5,155.2 L 725.2,159.6 L 726.4,164.3 L 726.9,168.4 L 726.9,172.6 L 726.3,176.5 L 725.0,180.6 L 723.4,184.2 L 720.9,188.2 L 718.4,191.5 L 715.1,195.2 L 711.9,198.4 L 708.6,201.4 L 704.3,204.8 L 699.9,208.0 L 694.8,211.2 L 689.5,214.3 L 684.3,216.9 L 678.2,219.7 L 671.8,222.1 L 663.9,224.7 L 657.6,226.4 L 649.9,228.1 L 641.9,229.5 L 633.1,230.8 L 624.4,231.7 L 615.8,232.4 L 606.5,232.9 L 596.0,233.3 L 587.2,233.4 L 576.6,233.4 L 565.9,233.2 L 555.4,232.7 L 545.2,232.3 L 534.4,231.8 L 523.3,231.3 L 512.6,230.8 L 501.1,230.3 L 489.4,229.8 L 477.0,229.3 L 465.6,228.9 L 452.9,228.4 L 441.2,228.0 L 428.8,227.7 L 414.9,227.2 L 402.8,226.9 L 390.6,226.6 L 376.4,226.0 L 364.0,225.1 L 351.5,224.1 L 338.2,223.1 L 322.1,222.1 L 310.5,221.4 L 297.5,220.6 L 282.4,219.8 Z" fill="none" stroke="url(#g)" stroke-width="75.1" stroke-linejoin="round" stroke-linecap="round"/>
<path d="M 270.0,218.7 L 251.8,218.1 L 237.6,217.6 L 223.4,217.1 L 209.0,216.6 L 193.9,216.1 L 179.3,215.6 L 165.4,215.1 L 150.7,214.6 L 135.2,214.1 L 121.1,213.5 L 104.6,212.9 L 90.3,212.3 L 75.2,211.6 L 60.0,210.9 L 45.5,210.3 L 30.1,209.7 L 13.9,209.0 L -3.1,208.3 L -16.3,207.7 L -31.9,207.1 L -48.4,206.5 L -64.1,205.8 L -79.2,205.2 L -95.0,204.6 L -111.7,203.9 L -127.6,203.3 L -144.4,202.6 L -159.5,201.8 L -174.8,200.7 L -188.8,199.7 L -202.9,198.8 L -217.8,197.8 L -229.5,197.0 L -242.7,196.2 L -254.3,195.6 L -267.5,194.9 L -278.6,194.5 L -289.5,194.1 L -300.8,193.8 L -312.5,193.6 L -323.3,193.5 L -333.1,193.5 L -342.8,193.4 L -352.5,193.2 L -360.9,192.9 L -370.1,192.6 L -377.8,192.3 L -385.5,192.0 L -392.5,191.7 L -400.1,191.3 L -406.5,191.0 L -411.9,190.6 L -416.9,190.2 L -421.7,189.8 L -425.9,189.4 L -430.2,188.8 L -433.9,188.1 L -437.4,187.4 L -441.0,186.6 L -444.7,185.5 L -447.8,184.2 L -450.8,182.5 L -453.4,180.2 L -455.5,177.8 L -457.3,174.7 L -458.6,171.5 L -459.1,168.7 L -459.2,165.7 L -458.7,162.4 L -457.6,159.3 L -455.8,156.3 L -453.8,153.8 L -451.3,151.6 L -448.2,149.4 L -445.3,147.1 L -442.2,144.1 L -439.2,140.9 L -436.4,137.4 L -433.4,132.9 L -430.7,128.6 L -427.9,124.0 L -424.6,118.9 L -421.0,113.2 L -417.6,107.6 L -414.8,102.2 L -412.4,95.9 L -410.9,90.6 L -410.1,85.2 L -409.8,79.5 L -410.1,73.8 L -411.1,67.8 L -412.6,62.1 L -414.5,56.2 L -416.5,50.4 L -418.9,43.3 L -421.1,36.8 L -423.3,30.2 L -425.6,22.4 L -427.6,14.7 L -429.5,7.0 L -431.2,-1.3 L -432.8,-10.4 L -433.8,-19.3 L -434.1,-28.0 L -433.9,-37.4 L -433.4,-48.0 L -432.6,-57.8 L -431.6,-67.3 L -430.4,-77.0 L -428.8,-87.8 L -427.1,-97.8 L -425.2,-109.0 L -423.4,-119.3 L -421.3,-130.3 L -419.2,-142.0 L -417.1,-153.4 L -414.9,-165.0 L -412.7,-176.7 L -410.4,-189.1 L -408.1,-201.0 L -405.8,-213.1 L -403.5,-224.8 L -401.3,-236.5 L -398.9,-249.0 L -396.4,-261.7 L -393.9,-275.1 L -391.4,-288.0 L -388.8,-301.0 L -386.4,-313.5 L -383.7,-327.4 L -381.1,-340.8 L -378.7,-353.6 L -376.2,-367.1 L -373.6,-381.3 L -371.3,-393.5 L -369.1,-405.7 L -367.0,-417.3 L -364.7,-429.3 L -362.9,-439.1 L -361.1,-448.9 L -359.4,-457.7 L -357.7,-466.8 L -355.8,-476.7 L -354.3,-484.7 L -352.7,-493.3 L -351.1,-501.6 L -349.4,-510.4 L -347.9,-517.9 L -346.5,-525.2 L -345.4,-531.0 L -344.2,-537.0 L -343.2,-541.9 L -342.2,-546.5 L -341.2,-550.3 L -339.9,-553.9 L -338.1,-557.0 L -336.2,-559.4 L -334.0,-561.4 L -331.3,-563.1 L -328.6,-564.6 L -326.1,-566.0 L -323.1,-567.5 L -320.4,-568.7 L -317.0,-570.1 L -313.7,-571.2 L -309.6,-571.9 L -305.8,-571.9 L -302.1,-571.4 L -297.8,-570.4 L -293.3,-569.0 L -289.1,-567.4 L -284.6,-565.2 L -280.1,-562.7 L -276.0,-560.1 L -271.8,-557.6 L -267.0,-555.1 L -262.5,-552.9 L -257.6,-550.8 L -252.1,-548.8 L -245.5,-546.5 L -239.5,-544.4 L -232.9,-542.2 L -226.3,-540.1 L -218.5,-538.1 L -211.8,-537.0 L -204.7,-536.5 L -197.3,-536.7 L -190.9,-537.4 L -183.3,-538.8 L -176.0,-540.7 L -168.8,-543.0 L -161.2,-545.8 L -152.8,-548.9 L -144.8,-552.1 L -136.9,-555.3 L -128.5,-559.0 L -120.1,-562.7 L -111.0,-567.0 L -103.5,-570.9 L -96.1,-575.0 L -87.6,-579.9 L -80.2,-584.1 L -71.5,-589.0 L -64.8,-592.7 L -56.8,-596.6 L -48.2,-599.8 L -39.9,-602.2 L -31.5,-604.1 L -23.4,-605.8 L -14.9,-607.4 L -5.7,-608.5 L 4.0,-609.0 L 11.5,-608.9 L 20.2,-608.2 L 29.2,-606.9 L 37.7,-605.5 L 45.6,-603.8 L 53.7,-601.7 L 62.1,-599.2 L 70.0,-596.5 L 77.5,-593.4 L 85.1,-589.5 L 91.9,-585.4 L 97.9,-581.5 L 104.5,-577.2 L 111.1,-572.9 L 116.7,-569.4 L 122.5,-566.2 L 128.3,-563.7 L 134.6,-561.7 L 140.3,-560.7 L 146.2,-560.3 L 152.0,-560.6 L 157.9,-561.6 L 163.1,-563.1 L 168.2,-565.1 L 173.4,-567.5 L 177.8,-569.4 L 182.1,-571.1 L 186.8,-572.5 L 191.4,-573.2 L 196.0,-573.3 L 200.8,-572.9 L 205.2,-572.4 L 209.5,-571.6 L 213.3,-570.7 L 217.3,-569.6 L 220.9,-568.7 L 224.2,-567.7 L 227.8,-566.7 L 230.8,-565.6 L 234.0,-564.2 L 236.1,-562.9 L 238.2,-561.1 L 239.9,-558.9 L 241.2,-556.7 L 242.6,-554.5 L 244.2,-552.0 L 245.4,-549.9 L 246.6,-547.4 L 247.4,-544.9 L 248.1,-541.9 L 248.7,-539.2 L 249.2,-536.3 L 249.3,-533.2 L 248.9,-530.3 L 248.0,-527.5 L 246.5,-524.7 L 244.6,-521.9 L 242.6,-519.4 L 240.4,-516.9 L 238.1,-514.5 L 235.3,-512.1 L 232.9,-510.1 L 230.3,-508.0 L 227.6,-505.8 L 225.3,-503.9 L 222.7,-501.7 L 220.1,-499.5 L 217.7,-497.4 L 214.6,-494.7 L 211.7,-492.1 L 208.6,-489.3 L 205.2,-485.9 L 201.3,-481.8 L 197.8,-477.9 L 194.1,-473.5 L 190.2,-468.6 L 186.5,-463.6 L 182.3,-457.8 L 178.4,-452.0 L 175.1,-447.0 L 171.6,-441.7 L 168.4,-436.9 L 165.7,-433.3 L 162.4,-429.6 L 158.9,-426.7 L 155.4,-424.4 L 151.5,-422.5 L 147.1,-421.1 L 143.5,-420.4 L 139.3,-420.2 L 135.2,-420.5 L 130.8,-421.3 L 126.8,-422.5 L 122.6,-424.1 L 119.1,-425.6 L 115.0,-427.5 L 111.4,-429.4 L 107.4,-431.9 L 104.0,-434.5 L 100.9,-437.3 L 97.8,-440.4 L 94.1,-444.0 L 90.7,-447.0 L 86.9,-449.8 L 83.1,-452.1 L 78.6,-454.7 L 75.0,-457.3 L 71.6,-460.3 L 68.5,-463.6 L 65.6,-466.7 L 62.3,-469.6 L 58.3,-472.4 L 54.7,-474.2 L 50.2,-475.7 L 45.7,-476.7 L 41.3,-477.0 L 36.4,-477.0 L 31.3,-476.9 L 25.6,-476.6 L 19.8,-476.3 L 14.0,-475.6 L 7.6,-474.7 L 0.5,-473.8 L -6.3,-473.0 L -13.7,-472.3 L -21.9,-471.7 L -29.5,-471.3 L -37.8,-470.9 L -44.8,-470.6 L -51.0,-470.4 L -56.9,-470.1 L -62.8,-469.9 L -68.6,-469.6 L -74.6,-469.3 L -80.2,-469.1 L -84.6,-468.8 L -89.5,-468.2 L -94.2,-467.3 L -99.1,-465.9 L -103.2,-464.3 L -107.3,-462.3 L -111.2,-459.8 L -114.3,-457.3 L -117.3,-453.9 L -119.5,-450.6 L -121.5,-446.7 L -123.1,-442.4 L -124.4,-438.6 L -125.5,-433.8 L -125.9,-429.6 L -125.7,-425.5 L -125.0,-421.3 L -123.7,-416.9 L -122.3,-412.6 L -120.8,-408.3 L -119.0,-403.7 L -116.7,-399.5 L -113.8,-395.4 L -110.9,-392.1 L -107.4,-389.1 L -103.7,-386.6 L -99.6,-384.5 L -95.8,-383.0 L -91.7,-381.9 L -87.4,-381.0 L -82.5,-380.0 L -77.1,-378.8 L -72.9,-377.5 L -68.4,-375.4 L -63.8,-372.5 L -60.5,-369.8 L -57.1,-366.3 L -54.0,-362.1 L -51.5,-357.7 L -49.3,-353.1 L -47.3,-347.8 L -45.4,-341.7 L -44.1,-336.0 L -43.1,-330.0 L -42.4,-323.4 L -42.1,-316.6 L -42.4,-309.3 L -43.1,-301.7 L -43.9,-295.7 L -44.5,-288.7 L -44.7,-281.8 L -44.7,-274.4 L -44.4,-267.3 L -43.6,-260.2 L -42.2,-252.8 L -40.4,-246.3 L -38.0,-240.1 L -34.7,-233.5 L -31.3,-227.7 L -26.9,-221.6 L -22.3,-216.1 L -17.1,-210.8 L -11.7,-205.9 L -4.9,-200.3 L 1.0,-195.6 L 7.9,-190.5 L 15.0,-185.2 L 22.6,-179.3 L 30.1,-173.5 L 37.7,-167.5 L 45.0,-161.5 L 52.7,-155.3 L 60.4,-149.0 L 67.2,-143.4 L 72.2,-139.3 L 77.8,-134.8 L 83.2,-130.3 L 87.8,-126.5 L 92.6,-122.5 L 96.9,-119.0 L 101.3,-115.4 L 105.1,-112.2 L 108.9,-109.1 L 112.8,-105.7 L 116.1,-102.7 L 118.8,-99.8 L 121.4,-96.3 L 123.4,-92.5 L 125.0,-88.4 L 126.1,-84.6 L 127.0,-80.6 L 127.2,-76.3 L 126.8,-72.8 L 125.7,-69.0 L 124.1,-65.7 L 121.9,-62.7 L 119.4,-60.3 L 116.4,-58.1 L 112.8,-56.3 L 109.0,-54.9 L 105.2,-53.9 L 100.4,-52.8 L 95.9,-52.0 L 90.9,-51.5 L 85.9,-51.2 L 79.7,-51.3 L 74.1,-51.8 L 68.0,-52.6 L 61.2,-53.8 L 55.1,-55.0 L 47.8,-56.6 L 40.4,-58.2 L 32.8,-59.8 L 24.8,-61.5 L 17.0,-63.2 L 8.1,-65.1 L -1.5,-67.1 L -9.6,-68.7 L -18.4,-70.4 L -27.9,-72.1 L -38.6,-74.1 L -48.1,-75.7 L -57.7,-77.4 L -68.0,-79.2 L -79.6,-81.3 L -89.8,-83.1 L -100.2,-84.9 L -111.2,-86.9 L -122.2,-88.9 L -133.4,-90.9 L -143.7,-92.6 L -153.5,-94.0 L -162.8,-95.0 L -171.3,-95.6 L -180.3,-96.0 L -188.2,-95.9 L -196.1,-95.5 L -204.5,-94.5 L -211.4,-93.3 L -218.2,-91.7 L -225.0,-89.6 L -230.6,-87.7 L -236.7,-85.3 L -241.9,-83.0 L -247.0,-80.3 L -251.9,-77.6 L -256.5,-74.9 L -261.2,-72.2 L -265.2,-69.8 L -269.1,-67.2 L -272.8,-64.7 L -276.0,-62.0 L -279.0,-58.9 L -281.4,-55.5 L -283.0,-52.7 L -284.7,-49.4 L -286.1,-45.6 L -286.9,-42.3 L -287.3,-39.0 L -287.2,-35.1 L -286.8,-32.1 L -285.9,-28.8 L -284.2,-25.4 L -282.5,-23.2 L -280.2,-21.1 L -277.2,-19.3 L -274.3,-18.2 L -271.5,-17.3 L -267.9,-16.2 L -264.3,-15.1 L -260.0,-14.1 L -255.1,-13.0 L -251.0,-12.1 L -245.8,-11.1 L -240.2,-10.2 L -233.6,-9.3 L -227.6,-8.5 L -220.9,-7.7 L -214.3,-7.0 L -206.6,-6.3 L -198.9,-5.6 L -190.8,-4.9 L -182.9,-4.2 L -174.3,-3.6 L -165.0,-2.8 L -155.0,-2.1 L -147.0,-1.5 L -136.4,-0.8 L -127.0,-0.2 L -116.9,0.4 L -106.6,1.1 L -96.6,1.7 L -84.8,2.4 L -74.4,3.0 L -63.9,3.6 L -52.6,4.2 L -40.5,4.9 L -29.4,5.6 L -17.6,6.2 L -4.4,6.9 L 7.8,7.6 L 19.5,8.2 L 31.3,8.8 L 44.5,9.5 L 57.2,10.2 L 69.5,10.8 L 82.5,11.4 L 97.0,12.1 L 109.6,12.7 L 122.3,13.3 L 135.9,13.9 L 150.2,14.6 L 164.0,15.2 L 177.2,15.7 L 192.5,16.4 L 205.9,17.1 L 220.0,17.9 L 233.3,18.6 L 247.4,19.5 L 260.8,20.4 L 271.8,21.1 L 283.5,21.8 L 294.8,22.5 L 306.6,23.3 L 315.9,23.9 L 326.9,24.5 L 335.9,25.1 L 344.7,25.6 L 353.5,26.1 L 362.3,26.6 L 371.1,26.8 L 377.8,26.6 L 384.6,26.0 L 391.5,24.8 L 398.5,22.9 L 404.5,20.6 L 409.5,18.1 L 414.6,14.8 L 419.1,11.0 L 423.1,6.8 L 426.8,1.8 L 429.7,-3.3 L 432.1,-8.5 L 434.4,-14.1 L 436.3,-20.4 L 437.7,-26.6 L 438.4,-32.5 L 438.4,-39.5 L 437.9,-45.5 L 436.7,-52.0 L 435.2,-58.2 L 433.0,-65.6 L 430.7,-72.2 L 428.1,-78.9 L 424.9,-86.1 L 421.1,-93.4 L 416.6,-101.0 L 411.7,-108.0 L 406.1,-114.7 L 399.6,-121.3 L 393.2,-127.0 L 386.2,-132.3 L 378.4,-137.7 L 370.2,-142.8 L 360.7,-148.3 L 352.4,-153.1 L 343.3,-158.0 L 334.5,-162.6 L 323.8,-167.7 L 315.0,-171.9 L 305.0,-176.6 L 294.7,-181.7 L 285.7,-186.2 L 276.9,-191.2 L 268.2,-196.7 L 260.6,-202.5 L 253.6,-208.7 L 247.6,-215.1 L 241.8,-222.3 L 236.3,-230.2 L 232.0,-237.7 L 228.0,-245.9 L 224.3,-255.2 L 221.6,-263.4 L 219.2,-272.3 L 217.4,-280.8 L 216.0,-289.9 L 215.1,-299.0 L 215.0,-308.7 L 215.7,-317.7 L 217.1,-327.0 L 218.8,-334.8 L 221.3,-343.7 L 223.8,-351.6 L 226.6,-359.7 L 229.8,-368.1 L 233.1,-375.9 L 236.2,-383.2 L 239.4,-390.9 L 242.9,-398.8 L 246.3,-406.1 L 249.9,-413.8 L 253.1,-420.2 L 257.1,-427.8 L 260.5,-433.9 L 264.9,-441.0 L 268.8,-446.6 L 273.7,-453.2 L 277.9,-458.4 L 282.6,-463.7 L 287.5,-468.6 L 292.6,-473.0 L 297.9,-477.0 L 303.1,-480.3 L 308.2,-483.0 L 313.6,-485.1 L 319.5,-486.8 L 325.7,-487.7 L 330.5,-487.9 L 336.1,-487.7 L 341.8,-486.8 L 347.1,-485.4 L 351.8,-483.5 L 356.6,-481.2 L 361.4,-478.3 L 365.8,-475.3 L 370.0,-471.9 L 373.8,-468.3 L 377.9,-463.8 L 381.4,-459.6 L 384.9,-455.1 L 388.6,-450.0 L 392.5,-444.2 L 396.6,-437.7 L 399.9,-432.3 L 404.1,-425.4 L 408.0,-418.9 L 412.4,-411.3 L 416.6,-403.8 L 420.6,-396.5 L 425.0,-388.5 L 429.7,-379.9 L 434.2,-371.5 L 438.7,-363.4 L 443.5,-354.6 L 448.6,-345.2 L 453.3,-336.6 L 458.4,-327.4 L 463.8,-317.6 L 469.1,-308.0 L 474.2,-298.8 L 479.7,-288.9 L 485.8,-277.9 L 491.2,-268.2 L 496.7,-258.4 L 503.1,-246.8 L 508.4,-237.3 L 514.7,-226.0 L 520.7,-215.1 L 526.5,-204.7 L 533.1,-193.0 L 539.3,-181.7 L 546.0,-169.7 L 551.7,-159.3 L 558.5,-147.0 L 564.8,-135.8 L 572.0,-122.7 L 578.3,-111.3 L 585.1,-99.1 L 591.5,-87.6 L 599.1,-74.0 L 605.7,-62.3 L 613.4,-48.6 L 620.1,-36.7 L 627.1,-24.0 L 633.8,-11.8 L 640.9,1.0 L 647.6,13.1 L 654.2,25.2 L 660.4,36.6 L 666.5,47.8 L 671.9,57.8 L 676.8,66.7 L 681.7,75.7 L 686.8,85.2 L 691.3,93.6 L 695.4,101.2 L 699.6,108.9 L 703.2,115.7 L 706.9,122.5 L 710.4,129.1 L 713.5,135.0 L 716.2,140.2 L 719.1,145.8 L 721.3,150.4 L 723.5,155.2 L 725.2,159.6 L 726.4,164.3 L 726.9,168.4 L 726.9,172.6 L 726.3,176.5 L 725.0,180.6 L 723.4,184.2 L 720.9,188.2 L 718.4,191.5 L 715.1,195.2 L 711.9,198.4 L 708.6,201.4 L 704.3,204.8 L 699.9,208.0 L 694.8,211.2 L 689.5,214.3 L 684.3,216.9 L 678.2,219.7 L 671.8,222.1 L 663.9,224.7 L 657.6,226.4 L 649.9,228.1 L 641.9,229.5 L 633.1,230.8 L 624.4,231.7 L 615.8,232.4 L 606.5,232.9 L 596.0,233.3 L 587.2,233.4 L 576.6,233.4 L 565.9,233.2 L 555.4,232.7 L 545.2,232.3 L 534.4,231.8 L 523.3,231.3 L 512.6,230.8 L 501.1,230.3 L 489.4,229.8 L 477.0,229.3 L 465.6,228.9 L 452.9,228.4 L 441.2,228.0 L 428.8,227.7 L 414.9,227.2 L 402.8,226.9 L 390.6,226.6 L 376.4,226.0 L 364.0,225.1 L 351.5,224.1 L 338.2,223.1 L 322.1,222.1 L 310.5,221.4 L 297.5,220.6 L 282.4,219.8 Z" fill="none" stroke="#ffffff" stroke-width="7.5" stroke-linejoin="round" stroke-linecap="round"/>
</svg>