<svg xmlns="http://www.w3.org/2000/svg" viewBox="-646.7 -385.5 1309.6 849.6">
<defs><linearGradient id="g" gradientUnits="userSpaceOnUse" x1="-584.5" y1="-323.3" x2="600.7" y2="401.9">
<stop offset="0" stop-color="#ff8a18"/><stop offset="1" stop-color="#7b2da0"/></linearGradient></defs>
<path d="M 145.5,385.8 L 128.7,385.0 L 116.6,384.5 L 104.5,383.9 L 92.3,383.3 L 78.9,382.7 L 66.5,382.2 L 54.1,381.6 L 42.9,381.1 L 29.1,380.5 L 17.8,380.0 L 3.8,379.4 L -7.6,378.9 L -20.4,378.3 L -33.2,377.7 L -47.4,377.1 L -59.1,376.6 L -72.1,376.0 L -85.2,375.4 L -98.3,374.7 L -112.8,374.1 L -124.7,373.5 L -139.3,372.8 L -151.3,372.3 L -164.7,371.7 L -178.1,371.1 L -191.6,370.6 L -206.5,370.0 L -218.7,369.5 L -233.6,369.0 L -245.9,368.5 L -260.9,368.0 L -273.3,367.5 L -287.0,367.0 L -300.8,366.5 L -314.6,365.9 L -328.5,365.4 L -342.3,364.8 L -357.6,364.2 L -370.2,363.6 L -384.1,363.0 L -399.5,362.4 L -412.0,361.8 L -425.4,361.3 L -438.1,360.8 L -451.0,360.2 L -462.0,359.8 L -471.2,359.4 L -480.8,359.0 L -489.7,358.6 L -499.0,358.1 L -506.1,357.8 L -513.6,357.4 L -520.7,357.0 L -527.4,356.6 L -533.8,356.1 L -540.3,355.6 L -545.9,355.1 L -550.6,354.5 L -555.5,353.8 L -560.1,353.1 L -564.2,352.1 L -568.0,351.0 L -571.4,349.6 L -574.7,347.8 L -577.0,346.2 L -579.2,344.2 L -581.0,342.0 L -582.6,339.3 L -583.5,336.9 L -584.2,334.1 L -584.5,331.1 L -584.3,327.7 L -583.7,324.8 L -582.6,321.6 L -581.1,318.4 L -579.1,315.2 L -576.8,312.1 L -573.8,308.5 L -571.0,305.6 L -567.5,302.3 L -563.3,298.5 L -559.6,295.3 L -555.6,291.4 L -551.6,287.2 L -547.8,282.6 L -544.4,277.7 L -541.1,271.9 L -538.9,267.0 L -537.0,261.4 L -535.8,255.6 L -535.1,249.7 L -535.0,243.7 L -535.3,237.5 L -536.1,231.1 L -537.3,224.7 L -538.9,218.1 L -540.7,211.4 L -542.9,203.8 L -545.2,196.7 L -547.3,190.2 L -549.7,182.9 L -552.0,175.5 L -554.3,167.8 L -556.2,159.9 L -557.8,151.9 L -559.0,144.3 L -559.9,136.5 L -560.4,130.6 L -560.7,124.5 L -560.8,119.0 L -560.6,114.0 L -560.3,109.5 L -559.8,105.5 L -558.9,101.5 L -557.8,98.3 L -556.7,95.8 L -555.1,93.2 L -553.2,90.8 L -551.5,89.1 L -549.4,87.5 L -547.1,86.2 L -544.7,85.1 L -542.2,84.3 L -539.4,83.8 L -536.5,83.6 L -533.4,83.8 L -530.1,84.3 L -526.7,85.1 L -522.8,86.3 L -519.1,87.8 L -515.5,89.3 L -511.4,91.3 L -506.5,93.8 L -502.3,96.0 L -496.9,98.9 L -492.3,101.4 L -486.3,104.5 L -481.4,107.1 L -475.8,109.9 L -470.0,112.8 L -463.4,116.1 L -457.7,118.8 L -451.2,121.9 L -444.5,125.0 L -436.9,128.4 L -430.4,131.2 L -423.1,134.2 L -415.5,137.1 L -407.7,139.8 L -398.8,142.7 L -391.4,144.9 L -383.0,147.2 L -374.3,149.4 L -364.6,151.6 L -356.5,153.4 L -347.3,155.2 L -338.0,157.0 L -328.6,158.8 L -319.0,160.4 L -309.2,162.0 L -299.4,163.5 L -288.4,165.1 L -279.4,166.3 L -268.1,167.7 L -258.8,168.8 L -248.4,169.8 L -237.8,170.8 L -227.1,171.7 L -216.3,172.4 L -205.4,173.0 L -194.4,173.5 L -183.3,173.9 L -172.0,174.3 L -160.7,174.7 L -149.3,175.1 L -137.8,175.5 L -126.3,175.8 L -114.6,176.2 L -102.9,176.6 L -91.0,176.9 L -77.9,177.4 L -67.2,177.8 L -55.1,178.2 L -43.1,178.7 L -30.9,179.2 L -17.5,179.8 L -6.4,180.3 L 5.9,180.9 L 18.4,181.6 L 30.9,182.2 L 43.4,182.9 L 56.0,183.6 L 68.7,184.2 L 81.5,184.9 L 94.3,185.5 L 107.1,186.2 L 120.1,186.8 L 133.0,187.4 L 146.0,188.0 L 158.7,188.5 L 170.7,188.9 L 181.9,189.4 L 192.4,189.7 L 202.1,190.0 L 211.2,190.2 L 219.7,190.3 L 227.8,190.4 L 235.3,190.3 L 243.2,190.1 L 249.3,189.8 L 255.8,189.4 L 262.0,188.7 L 268.6,187.6 L 273.6,186.4 L 278.9,184.8 L 284.2,182.4 L 288.3,180.1 L 292.6,177.0 L 296.9,173.1 L 300.2,169.5 L 303.9,164.6 L 306.5,160.3 L 309.1,155.1 L 311.2,149.6 L 312.8,143.8 L 314.0,137.7 L 314.7,130.8 L 314.9,125.0 L 314.6,118.3 L 313.9,111.5 L 312.8,104.5 L 311.2,97.4 L 309.2,90.3 L 306.6,83.3 L 303.6,76.4 L 300.0,69.7 L 295.5,62.4 L 291.3,56.7 L 285.7,50.0 L 280.7,44.7 L 274.8,39.1 L 268.6,33.5 L 262.0,28.1 L 255.2,22.9 L 248.0,17.9 L 240.6,13.2 L 232.8,8.8 L 224.8,4.6 L 216.5,0.6 L 208.0,-3.2 L 199.4,-6.8 L 191.0,-10.2 L 182.4,-13.8 L 175.7,-16.7 L 168.8,-19.7 L 162.3,-22.7 L 155.6,-26.0 L 150.4,-28.9 L 144.8,-32.4 L 138.8,-36.7 L 134.1,-40.5 L 129.1,-45.2 L 124.2,-50.2 L 119.6,-55.7 L 115.1,-61.5 L 110.5,-68.4 L 107.0,-74.3 L 103.4,-81.1 L 100.3,-88.3 L 97.3,-96.5 L 95.2,-103.4 L 93.2,-112.2 L 92.0,-119.5 L 91.1,-127.9 L 90.7,-136.4 L 90.8,-145.0 L 91.4,-153.7 L 92.5,-162.5 L 94.1,-171.4 L 96.2,-180.2 L 98.7,-189.1 L 101.7,-198.0 L 105.4,-207.8 L 108.9,-215.7 L 113.3,-225.4 L 117.1,-233.4 L 121.4,-242.1 L 125.5,-250.3 L 129.5,-258.0 L 133.2,-265.0 L 136.8,-271.4 L 140.4,-277.3 L 143.8,-282.8 L 147.6,-288.4 L 150.7,-292.7 L 154.2,-297.2 L 157.9,-301.5 L 161.9,-305.5 L 166.1,-309.2 L 170.6,-312.6 L 175.4,-315.6 L 181.1,-318.4 L 185.8,-320.3 L 191.2,-321.9 L 197.3,-322.9 L 202.2,-323.3 L 207.8,-323.1 L 213.5,-322.4 L 219.3,-321.2 L 224.9,-319.4 L 230.5,-317.1 L 235.8,-314.3 L 240.9,-311.0 L 245.7,-307.3 L 250.8,-302.6 L 255.3,-297.8 L 259.1,-293.1 L 263.7,-287.0 L 267.4,-281.8 L 271.5,-275.6 L 275.4,-269.2 L 279.7,-261.8 L 283.2,-255.6 L 287.4,-247.8 L 290.8,-241.3 L 294.5,-233.9 L 298.2,-226.4 L 302.0,-218.7 L 306.0,-210.8 L 310.0,-202.9 L 314.2,-194.9 L 318.6,-186.7 L 323.0,-178.5 L 327.9,-169.3 L 332.1,-161.7 L 336.8,-153.2 L 341.6,-144.5 L 346.5,-135.8 L 352.0,-126.2 L 357.0,-117.3 L 361.6,-109.3 L 366.8,-100.3 L 371.9,-91.1 L 377.7,-80.9 L 382.4,-72.4 L 388.2,-62.0 L 392.9,-53.3 L 398.3,-43.6 L 403.7,-33.9 L 409.1,-24.0 L 414.6,-14.0 L 420.2,-4.0 L 425.8,6.1 L 432.1,17.3 L 437.2,26.6 L 443.6,37.9 L 448.8,47.3 L 454.6,57.8 L 461.1,69.5 L 467.0,80.1 L 472.3,89.7 L 478.2,100.5 L 484.2,111.4 L 490.8,123.4 L 496.2,133.4 L 502.9,145.5 L 508.4,155.5 L 514.6,166.7 L 520.8,177.9 L 527.1,189.1 L 533.4,200.4 L 539.6,211.5 L 545.6,222.2 L 551.1,232.2 L 556.9,242.4 L 561.3,250.3 L 566.3,259.3 L 570.2,266.2 L 574.2,273.5 L 578.3,281.0 L 581.5,286.7 L 584.8,292.9 L 587.9,298.7 L 590.9,304.4 L 593.8,310.5 L 595.9,315.5 L 598.0,321.5 L 599.3,326.4 L 600.3,331.8 L 600.7,337.1 L 600.5,342.4 L 599.8,347.7 L 598.7,352.9 L 596.7,358.4 L 594.7,362.8 L 591.9,367.2 L 588.6,371.4 L 584.9,375.3 L 580.3,379.3 L 576.1,382.2 L 571.1,385.2 L 565.8,388.0 L 560.0,390.6 L 553.9,393.0 L 546.8,395.4 L 540.8,397.1 L 533.8,398.7 L 525.8,400.1 L 519.0,400.9 L 511.2,401.6 L 502.5,401.9 L 495.2,401.9 L 486.1,401.6 L 477.7,401.2 L 470.0,400.7 L 461.2,400.2 L 452.4,399.6 L 442.4,399.0 L 433.2,398.5 L 424.7,398.1 L 415.2,397.7 L 405.6,397.3 L 395.8,396.9 L 384.9,396.4 L 375.9,396.0 L 365.8,395.6 L 355.5,395.1 L 345.2,394.6 L 334.8,394.2 L 324.2,393.7 L 313.5,393.2 L 302.7,392.7 L 291.9,392.2 L 280.9,391.6 L 269.8,391.1 L 258.6,390.6 L 247.3,390.0 L 236.0,389.5 L 223.4,388.9 L 213.0,388.4 L 201.3,387.9 L 188.4,387.3 L 177.8,386.8 L 164.8,386.2 L 154.0,385.8" fill="none" stroke="url(#g)" stroke-width="83.0" stroke-linecap="round" stroke-linejoin="round"/>
<path d="M 145.5,385.8 L 128.7,385.0 L 116.6,384.5 L 104.5,383.9 L 92.3,383.3 L 78.9,382.7 L 66.5,382.2 L 54.1,381.6 L 42.9,381.1 L 29.1,380.5 L 17.8,380.0 L 3.8,379.4 L -7.6,378.9 L -20.4,378.3 L -33.2,377.7 L -47.4,377.1 L -59.1,376.6 L -72.1,376.0 L -85.2,375.4 L -98.3,374.7 L -112.8,374.1 L -124.7,373.5 L -139.3,372.8 L -151.3,372.3 L -164.7,371.7 L -178.1,371.1 L -191.6,370.6 L -206.5,370.0 L -218.7,369.5 L -233.6,369.0 L -245.9,368.5 L -260.9,368.0 L -273.3,367.5 L -287.0,367.0 L -300.8,366.5 L -314.6,365.9 L -328.5,365.4 L -342.3,364.8 L -357.6,364.2 L -370.2,363.6 L -384.1,363.0 L -399.5,362.4 L -412.0,361.8 L -425.4,361.3 L -438.1,360.8 L -451.0,360.2 L -462.0,359.8 L -471.2,359.4 L -480.8,359.0 L -489.7,358.6 L -499.0,358.1 L -506.1,357.8 L -513.6,357.4 L -520.7,357.0 L -527.4,356.6 L -533.8,356.1 L -540.3,355.6 L -545.9,355.1 L -550.6,354.5 L -555.5,353.8 L -560.1,353.1 L -564.2,352.1 L -568.0,351.0 L -571.4,349.6 L -574.7,347.8 L -577.0,346.2 L -579.2,344.2 L -581.0,342.0 L -582.6,339.3 L -583.5,336.9 L -584.2,334.1 L -584.5,331.1 L -584.3,327.7 L -583.7,324.8 L -582.6,321.6 L -581.1,318.4 L -579.1,315.2 L -576.8,312.1 L -573.8,308.5 L -571.0,305.6 L -567.5,302.3 L -563.3,298.5 L -559.6,295.3 L -555.6,291.4 L -551.6,287.2 L -547.8,282.6 L -544.4,277.7 L -541.1,271.9 L -538.9,267.0 L -537.0,261.4 L -535.8,255.6 L -535.1,249.7 L -535.0,243.7 L -535.3,237.5 L -536.1,231.1 L -537.3,224.7 L -538.9,218.1 L -540.7,211.4 L -542.9,203.8 L -545.2,196.7 L -547.3,190.2 L -549.7,182.9 L -552.0,175.5 L -554.3,167.8 L -556.2,159.9 L -557.8,151.9 L -559.0,144.3 L -559.9,136.5 L -560.4,130.6 L -560.7,124.5 L -560.8,119.0 L -560.6,114.0 L -560.3,109.5 L -559.8,105.5 L -558.9,101.5 L -557.8,98.3 L -556.7,95.8 L -555.1,93.2 L -553.2,90.8 L -551.5,89.1 L -549.4,87.5 L -547.1,86.2 L -544.7,85.1 L -542.2,84.3 L -539.4,83.8 L -536.5,83.6 L -533.4,83.8 L -530.1,84.3 L -526.7,85.1 L -522.8,86.3 L -519.1,87.8 L -515.5,89.3 L -511.4,91.3 L -506.5,93.8 L -502.3,96.0 L -496.9,98.9 L -492.3,101.4 L -486.3,104.5 L -481.4,107.1 L -475.8,109.9 L -470.0,112.8 L -463.4,116.1 L -457.7,118.8 L -451.2,121.9 L -444.5,125.0 L -436.9,128.4 L -430.4,131.2 L -423.1,134.2 L -415.5,137.1 L -407.7,139.8 L -398.8,142.7 L -391.4,144.9 L -383.0,147.2 L -374.3,149.4 L -364.6,151.6 L -356.5,153.4 L -347.3,155.2 L -338.0,157.0 L -328.6,158.8 L -319.0,160.4 L -309.2,162.0 L -299.4,163.5 L -288.4,165.1 L -279.4,166.3 L -268.1,167.7 L -258.8,168.8 L -248.4,169.8 L -237.8,170.8 L -227.1,171.7 L -216.3,172.4 L -205.4,173.0 L -194.4,173.5 L -183.3,173.9 L -172.0,174.3 L -160.7,174.7 L -149.3,175.1 L -137.8,175.5 L -126.3,175.8 L -114.6,176.2 L -102.9,176.6 L -91.0,176.9 L -77.9,177.4 L -67.2,177.8 L -55.1,178.2 L -43.1,178.7 L -30.9,179.2 L -17.5,179.8 L -6.4,180.3 L 5.9,180.9 L 18.4,181.6 L 30.9,182.2 L 43.4,182.9 L 56.0,183.6 L 68.7,184.2 L 81.5,184.9 L 94.3,185.5 L 107.1,186.2 L 120.1,186.8 L 133.0,187.4 L 146.0,188.0 L 158.7,188.5 L 170.7,188.9 L 181.9,189.4 L 192.4,189.7 L 202.1,190.0 L 211.2,190.2 L 219.7,190.3 L 227.8,190.4 L 235.3,190.3 L 243.2,190.1 L 249.3,189.8 L 255.8,189.4 L 262.0,188.7 L 268.6,187.6 L 273.6,186.4 L 278.9,184.8 L 284.2,182.4 L 288.3,180.1 L 292.6,177.0 L 296.9,173.1 L 300.2,169.5 L 303.9,164.6 L 306.5,160.3 L 309.1,155.1 L 311.2,149.6 L 312.8,143.8 L 314.0,137.7 L 314.7,130.8 L 314.9,125.0 L 314.6,118.3 L 313.9,111.5 L 312.8,104.5 L 311.2,97.4 L 309.2,90.3 L 306.6,83.3 L 303.6,76.4 L 300.0,69.7 L 295.5,62.4 L 291.3,56.7 L 285.7,50.0 L 280.7,44.7 L 274.8,39.1 L 268.6,33.5 L 262.0,28.1 L 255.2,22.9 L 248.0,17.9 L 240.6,13.2 L 232.8,8.8 L 224.8,4.6 L 216.5,0.6 L 208.0,-3.2 L 199.4,-6.8 L 191.0,-10.2 L 182.4,-13.8 L 175.7,-16.7 L 168.8,-19.7 L 162.3,-22.7 L 155.6,-26.0 L 150.4,-28.9 L 144.8,-32.4 L 138.8,-36.7 L 134.1,-40.5 L 129.1,-45.2 L 124.2,-50.2 L 119.6,-55.7 L 115.1,-61.5 L 110.5,-68.4 L 107.0,-74.3 L 103.4,-81.1 L 100.3,-88.3 L 97.3,-96.5 L 95.2,-103.4 L 93.2,-112.2 L 92.0,-119.5 L 91.1,-127.9 L 90.7,-136.4 L 90.8,-145.0 L 91.4,-153.7 L 92.5,-162.5 L 94.1,-171.4 L 96.2,-180.2 L 98.7,-189.1 L 101.7,-198.0 L 105.4,-207.8 L 108.9,-215.7 L 113.3,-225.4 L 117.1,-233.4 L 121.4,-242.1 L 125.5,-250.3 L 129.5,-258.0 L 133.2,-265.0 L 136.8,-271.4 L 140.4,-277.3 L 143.8,-282.8 L 147.6,-288.4 L 150.7,-292.7 L 154.2,-297.2 L 157.9,-301.5 L 161.9,-305.5 L 166.1,-309.2 L 170.6,-312.6 L 175.4,-315.6 L 181.1,-318.4 L 185.8,-320.3 L 191.2,-321.9 L 197.3,-322.9 L 202.2,-323.3 L 207.8,-323.1 L 213.5,-322.4 L 219.3,-321.2 L 224.9,-319.4 L 230.5,-317.1 L 235.8,-314.3 L 240.9,-311.0 L 245.7,-307.3 L 250.8,-302.6 L 255.3,-297.8 L 259.1,-293.1 L 263.7,-287.0 L 267.4,-281.8 L 271.5,-275.6 L 275.4,-269.2 L 279.7,-261.8 L 283.2,-255.6 L 287.4,-247.8 L 290.8,-241.3 L 294.5,-233.9 L 298.2,-226.4 L 302.0,-218.7 L 306.0,-210.8 L 310.0,-202.9 L 314.2,-194.9 L 318.6,-186.7 L 323.0,-178.5 L 327.9,-169.3 L 332.1,-161.7 L 336.8,-153.2 L 341.6,-144.5 L 346.5,-135.8 L 352.0,-126.2 L 357.0,-117.3 L 361.6,-109.3 L 366.8,-100.3 L 371.9,-91.1 L 377.7,-80.9 L 382.4,-72.4 L 388.2,-62.0 L 392.9,-53.3 L 398.3,-43.6 L 403.7,-33.9 L 409.1,-24.0 L 414.6,-14.0 L 420.2,-4.0 L 425.8,6.1 L 432.1,17.3 L 437.2,26.6 L 443.6,37.9 L 448.8,47.3 L 454.6,57.8 L 461.1,69.5 L 467.0,80.1 L 472.3,89.7 L 478.2,100.5 L 484.2,111.4 L 490.8,123.4 L 496.2,133.4 L 502.9,145.5 L 508.4,155.5 L 514.6,166.7 L 520.8,177.9 L 527.1,189.1 L 533.4,200.4 L 539.6,211.5 L 545.6,222.2 L 551.1,232.2 L 556.9,242.4 L 561.3,250.3 L 566.3,259.3 L 570.2,266.2 L 574.2,273.5 L 578.3,281.0 L 581.5,286.7 L 584.8,292.9 L 587.9,298.7 L 590.9,304.4 L 593.8,310.5 L 595.9,315.5 L 598.0,321.5 L 599.3,326.4 L 600.3,331.8 L 600.7,337.1 L 600.5,342.4 L 599.8,347.7 L 598.7,352.9 L 596.7,358.4 L 594.7,362.8 L 591.9,367.2 L 588.6,371.4 L 584.9,375.3 L 580.3,379.3 L 576.1,382.2 L 571.1,385.2 L 565.8,388.0 L 560.0,390.6 L 553.9,393.0 L 546.8,395.4 L 540.8,397.1 L 533.8,398.7 L 525.8,400.1 L 519.0,400.9 L 511.2,401.6 L 502.5,401.9 L 495.2,401.9 L 486.1,401.6 L 477.7,401.2 L 470.0,400.7 L 461.2,400.2 L 452.4,399.6 L 442.4,399.0 L 433.2,398.5 L 424.7,398.1 L 415.2,397.7 L 405.6,397.3 L 395.8,396.9 L 384.9,396.4 L 375.9,396.0 L 365.8,395.6 L 355.5,395.1 L 345.2,394.6 L 334.8,394.2 L 324.2,393.7 L 313.5,393.2 L 302.7,392.7 L 291.9,392.2 L 280.9,391.6 L 269.8,391.1 L 258.6,390.6 L 247.3,390.0 L 236.0,389.5 L 223.4,388.9 L 213.0,388.4 L 201.3,387.9 L 188.4,387.3 L 177.8,386.8 L 164.8,386.2 L 154.0,385.8" fill="none" stroke="#ffffff" stroke-opacity="0.92" stroke-width="8.3" stroke-linecap="round" stroke-linejoin="round"/>
<line x1="149.0" y1="311.2" x2="142.1" y2="460.4" stroke="#ffffff" stroke-width="11.6" stroke-linecap="round"/>
</svg>