<svg xmlns="http://www.w3.org/2000/svg" viewBox="-1282.5 -435.9 2350.4 1504.5">
<defs><linearGradient id="g" gradientUnits="userSpaceOnUse" x1="-1170.8" y1="-324.3" x2="956.2" y2="957.0">
<stop offset="0" stop-color="#1c9fe0"/><stop offset="1" stop-color="#0b1f44"/></linearGradient></defs>
<path d="M -918.0,360.3 L -933.6,367.0 L -943.4,371.3 L -953.4,375.6 L -963.4,379.9 L -973.5,384.2 L -984.7,388.9 L -994.0,392.9 L -1004.3,397.2 L -1014.7,401.7 L -1025.2,406.1 L -1035.6,410.5 L -1045.5,414.8 L -1054.8,418.8 L -1064.4,422.9 L -1071.8,426.0 L -1079.4,429.2 L -1086.6,432.2 L -1094.0,435.3 L -1099.8,437.6 L -1105.8,440.0 L -1112.1,442.5 L -1117.0,444.2 L -1122.1,445.9 L -1126.9,447.4 L -1131.5,448.6 L -1135.9,449.6 L -1140.0,450.2 L -1144.0,450.6 L -1147.8,450.6 L -1151.3,450.3 L -1154.5,449.7 L -1157.4,448.7 L -1160.3,447.3 L -1162.3,446.0 L -1164.4,444.2 L -1166.2,442.2 L -1167.8,439.8 L -1169.0,437.4 L -1169.8,435.3 L -1170.4,432.8 L -1170.7,430.2 L -1170.8,427.4 L -1170.6,424.4 L -1170.0,421.1 L -1168.9,417.3 L -1167.6,414.1 L -1165.9,410.3 L -1163.8,406.3 L -1161.4,402.1 L -1158.6,397.7 L -1155.6,393.1 L -1152.4,388.3 L -1148.9,383.4 L -1145.2,378.3 L -1140.9,372.5 L -1137.2,367.6 L -1132.4,361.5 L -1128.4,356.3 L -1123.2,349.9 L -1118.9,344.5 L -1113.9,338.3 L -1108.8,332.1 L -1103.0,325.0 L -1098.1,319.1 L -1092.7,312.3 L -1087.2,305.4 L -1081.6,298.2 L -1075.4,290.2 L -1070.3,283.6 L -1063.8,275.3 L -1058.4,268.5 L -1052.2,261.0 L -1045.7,253.4 L -1039.1,245.8 L -1032.1,238.3 L -1024.9,230.9 L -1016.6,222.9 L -1009.5,216.4 L -1000.5,208.7 L -993.0,202.4 L -984.3,195.7 L -974.5,188.5 L -966.2,182.7 L -956.9,176.3 L -947.3,170.1 L -937.7,163.9 L -927.9,157.6 L -917.9,151.4 L -907.9,145.1 L -896.8,138.2 L -887.6,132.5 L -877.3,126.1 L -866.9,119.7 L -856.5,113.3 L -845.9,106.8 L -835.4,100.2 L -823.7,92.8 L -814.1,86.8 L -803.3,80.0 L -792.5,73.1 L -781.7,66.2 L -770.9,59.2 L -760.1,52.0 L -749.4,44.5 L -737.9,35.9 L -728.6,28.5 L -718.6,19.9 L -708.1,9.8 L -699.8,1.3 L -690.6,-8.4 L -681.3,-18.0 L -671.7,-27.3 L -661.7,-35.8 L -651.2,-43.6 L -640.4,-50.6 L -628.1,-57.2 L -617.8,-61.9 L -606.2,-66.5 L -594.5,-70.4 L -582.7,-73.7 L -570.8,-76.6 L -558.8,-79.0 L -546.7,-81.2 L -534.6,-83.3 L -522.4,-85.1 L -510.2,-86.9 L -497.9,-88.8 L -485.7,-91.1 L -473.5,-93.8 L -461.4,-96.8 L -449.4,-100.4 L -437.5,-104.3 L -425.7,-108.8 L -414.0,-113.6 L -402.5,-118.8 L -389.9,-124.8 L -379.6,-130.0 L -368.3,-135.9 L -355.8,-142.4 L -345.5,-147.6 L -334.0,-153.4 L -321.2,-159.7 L -309.5,-165.3 L -299.0,-170.2 L -287.1,-175.7 L -275.2,-180.9 L -263.1,-186.1 L -251.0,-191.0 L -238.7,-195.8 L -225.1,-200.7 L -213.8,-204.4 L -201.2,-208.3 L -188.4,-212.0 L -174.3,-215.7 L -162.7,-218.5 L -149.6,-221.4 L -136.6,-224.2 L -123.4,-226.7 L -108.9,-229.2 L -97.0,-231.2 L -82.3,-233.6 L -70.3,-235.4 L -56.9,-237.4 L -43.5,-239.4 L -30.1,-241.4 L -16.6,-243.4 L -3.1,-245.4 L 10.4,-247.4 L 24.0,-249.4 L 37.5,-251.4 L 51.1,-253.4 L 64.8,-255.4 L 78.4,-257.3 L 92.1,-259.3 L 108.5,-261.7 L 119.5,-263.3 L 133.2,-265.2 L 147.0,-267.2 L 160.7,-269.1 L 174.5,-271.0 L 188.3,-273.0 L 202.1,-274.9 L 216.0,-276.9 L 229.8,-278.9 L 243.7,-281.0 L 258.9,-283.3 L 271.4,-285.2 L 286.7,-287.5 L 300.6,-289.6 L 313.2,-291.4 L 327.1,-293.6 L 342.5,-295.9 L 355.1,-297.8 L 370.4,-300.1 L 383.1,-301.9 L 397.1,-304.0 L 411.0,-306.1 L 424.5,-308.0 L 437.5,-309.9 L 449.9,-311.8 L 462.9,-313.7 L 473.0,-315.2 L 483.8,-316.7 L 495.1,-318.4 L 504.1,-319.6 L 513.6,-321.0 L 522.7,-322.1 L 531.3,-323.0 L 539.4,-323.7 L 547.0,-324.2 L 554.0,-324.3 L 560.6,-324.1 L 566.8,-323.6 L 572.7,-322.9 L 578.4,-322.0 L 583.9,-320.6 L 589.2,-318.9 L 594.3,-316.7 L 599.0,-314.1 L 604.3,-310.4 L 607.8,-307.2 L 611.2,-303.8 L 614.7,-299.6 L 618.2,-295.0 L 621.5,-290.1 L 625.2,-284.5 L 628.4,-280.2 L 632.3,-275.7 L 636.8,-271.2 L 640.8,-267.8 L 645.5,-264.5 L 650.5,-261.6 L 655.7,-259.0 L 661.8,-256.7 L 667.5,-255.0 L 672.8,-253.8 L 678.9,-252.9 L 685.2,-252.3 L 691.8,-252.1 L 698.5,-252.3 L 705.5,-252.8 L 712.6,-253.7 L 719.8,-254.9 L 727.1,-256.4 L 734.3,-257.9 L 741.2,-259.4 L 748.6,-260.6 L 754.4,-261.4 L 761.3,-261.7 L 766.8,-261.6 L 772.7,-261.0 L 778.5,-259.8 L 784.6,-258.0 L 789.4,-256.1 L 794.6,-253.5 L 799.8,-250.4 L 804.9,-246.9 L 810.0,-242.9 L 814.9,-238.5 L 819.6,-233.7 L 824.2,-228.5 L 828.6,-222.9 L 832.7,-216.8 L 836.5,-210.5 L 840.2,-203.8 L 843.7,-196.8 L 847.3,-189.6 L 850.9,-182.2 L 854.5,-174.7 L 858.2,-166.9 L 861.9,-159.0 L 866.1,-150.2 L 869.6,-142.8 L 873.7,-134.5 L 877.9,-126.1 L 882.1,-117.7 L 886.5,-109.1 L 891.0,-100.4 L 896.1,-90.7 L 900.3,-82.6 L 904.9,-73.5 L 909.6,-64.3 L 914.9,-54.0 L 919.2,-45.5 L 923.9,-36.2 L 928.8,-26.5 L 932.5,-18.9 L 936.4,-10.9 L 939.9,-3.4 L 943.1,3.7 L 945.9,10.5 L 948.7,17.5 L 950.7,23.0 L 952.6,28.9 L 954.1,34.5 L 955.4,40.4 L 956.0,45.1 L 956.2,49.9 L 956.0,54.9 L 955.4,58.9 L 954.4,63.1 L 953.1,67.3 L 951.2,72.0 L 949.0,76.0 L 946.8,79.4 L 944.0,82.9 L 940.5,86.4 L 937.4,88.9 L 933.7,91.4 L 929.8,93.5 L 925.6,95.2 L 921.2,96.6 L 916.7,97.5 L 911.7,98.0 L 907.6,98.0 L 903.1,97.6 L 898.7,96.7 L 894.3,95.4 L 889.6,93.5 L 885.6,91.5 L 881.3,88.9 L 876.9,85.9 L 872.6,82.4 L 868.4,78.5 L 864.1,73.8 L 860.9,69.6 L 857.5,64.6 L 854.4,59.2 L 851.5,53.4 L 848.6,46.7 L 846.3,40.9 L 843.9,34.3 L 841.6,27.4 L 839.4,20.2 L 837.1,12.8 L 834.8,5.3 L 832.4,-2.0 L 830.0,-9.0 L 827.4,-15.5 L 824.6,-21.6 L 821.6,-27.2 L 818.4,-32.5 L 814.9,-37.5 L 811.1,-42.2 L 807.0,-46.5 L 802.5,-50.5 L 797.8,-54.1 L 792.7,-57.2 L 787.3,-60.1 L 781.6,-62.7 L 775.5,-65.0 L 768.7,-66.9 L 763.1,-67.9 L 756.8,-68.5 L 749.7,-68.6 L 743.7,-68.4 L 736.8,-67.8 L 729.7,-67.1 L 722.4,-66.1 L 714.9,-64.8 L 707.2,-63.2 L 699.4,-61.5 L 690.6,-59.5 L 683.3,-57.9 L 674.0,-55.8 L 666.3,-54.1 L 657.5,-52.3 L 648.5,-50.6 L 638.5,-48.8 L 630.1,-47.4 L 620.6,-45.9 L 610.9,-44.5 L 601.1,-43.2 L 591.1,-41.9 L 580.0,-40.6 L 570.7,-39.7 L 560.3,-38.8 L 549.7,-38.0 L 539.0,-37.3 L 528.1,-36.6 L 517.1,-36.0 L 506.0,-35.5 L 494.7,-35.0 L 482.3,-34.5 L 470.8,-34.0 L 460.4,-33.6 L 448.8,-33.1 L 437.0,-32.6 L 425.1,-32.2 L 413.2,-31.7 L 401.1,-31.3 L 387.8,-30.8 L 377.1,-30.4 L 365.6,-29.9 L 354.6,-29.3 L 344.0,-28.5 L 333.9,-27.5 L 324.2,-26.2 L 314.9,-24.5 L 305.9,-22.3 L 297.4,-19.5 L 289.2,-16.4 L 281.5,-12.7 L 274.2,-8.7 L 267.4,-4.2 L 260.4,1.1 L 254.6,6.4 L 249.7,11.5 L 244.6,17.6 L 239.8,24.0 L 235.0,31.5 L 231.5,37.8 L 227.9,45.3 L 224.4,53.9 L 221.8,61.2 L 219.2,69.5 L 216.9,78.2 L 214.9,87.8 L 213.8,95.8 L 212.9,104.8 L 212.4,114.0 L 212.3,124.3 L 212.6,132.9 L 213.4,142.5 L 214.9,153.0 L 216.6,161.6 L 219.1,171.1 L 222.5,181.3 L 225.8,189.6 L 230.0,198.7 L 234.6,207.6 L 239.8,216.3 L 245.5,224.6 L 251.8,232.6 L 258.6,240.2 L 265.9,247.6 L 274.4,255.4 L 281.7,261.5 L 290.3,267.9 L 299.0,274.3 L 308.9,281.0 L 317.3,286.2 L 326.9,291.7 L 336.7,297.1 L 346.7,302.3 L 356.9,307.3 L 367.1,312.3 L 377.6,317.3 L 389.1,322.7 L 398.7,327.2 L 409.4,332.2 L 420.1,337.3 L 430.9,342.5 L 441.7,347.8 L 452.5,353.2 L 463.4,358.8 L 474.1,364.3 L 485.4,370.3 L 494.2,375.1 L 503.6,380.3 L 512.5,385.3 L 521.0,390.2 L 529.0,394.9 L 537.2,399.9 L 543.5,403.8 L 550.1,408.2 L 556.1,412.5 L 561.6,416.9 L 567.1,421.7 L 571.2,425.8 L 575.4,430.4 L 579.1,435.2 L 582.4,440.1 L 585.2,445.3 L 587.6,450.6 L 589.6,456.1 L 591.2,461.9 L 592.4,467.8 L 593.2,473.8 L 593.6,480.4 L 593.3,486.3 L 592.7,491.5 L 591.4,498.0 L 589.8,503.9 L 587.9,509.1 L 585.5,514.9 L 582.3,521.2 L 579.4,526.3 L 575.8,531.8 L 571.9,537.5 L 567.9,543.3 L 564.0,549.1 L 560.5,555.0 L 557.5,561.0 L 554.8,567.6 L 553.0,573.0 L 551.4,579.7 L 550.4,585.2 L 549.9,591.9 L 549.8,597.4 L 550.2,604.0 L 550.9,609.3 L 552.2,615.2 L 553.9,621.2 L 556.1,627.2 L 558.7,633.4 L 561.7,639.5 L 565.1,645.5 L 569.2,651.9 L 573.0,656.8 L 577.6,662.1 L 583.1,667.9 L 588.5,673.1 L 593.6,677.8 L 599.4,683.0 L 605.6,688.0 L 612.0,693.1 L 618.7,698.2 L 625.6,703.2 L 632.6,708.4 L 639.8,713.5 L 647.2,718.8 L 655.4,724.6 L 662.2,729.5 L 669.9,734.9 L 677.2,740.2 L 684.1,745.3 L 691.0,750.7 L 696.3,755.0 L 701.6,759.7 L 706.5,764.3 L 711.0,768.9 L 715.5,773.9 L 719.1,778.6 L 722.2,783.3 L 724.6,787.6 L 726.9,792.5 L 728.6,797.5 L 729.9,802.5 L 730.6,807.6 L 730.9,813.3 L 730.7,817.9 L 730.1,823.1 L 728.8,828.9 L 727.5,833.7 L 725.5,839.1 L 723.2,844.4 L 720.3,849.7 L 717.1,855.0 L 713.4,860.3 L 709.3,865.6 L 704.4,871.4 L 700.1,876.3 L 694.7,882.4 L 690.0,887.4 L 684.7,893.0 L 679.1,898.7 L 673.4,904.4 L 667.5,910.3 L 661.4,916.3 L 655.2,922.2 L 648.7,927.7 L 642.0,932.8 L 635.1,937.4 L 627.9,941.5 L 620.4,945.2 L 612.7,948.4 L 604.0,951.5 L 596.7,953.6 L 588.5,955.3 L 579.4,956.5 L 571.9,957.0 L 563.3,956.9 L 554.7,956.3 L 545.0,955.1 L 537.1,953.7 L 528.3,951.6 L 519.4,949.0 L 510.7,945.9 L 502.0,942.3 L 493.4,938.2 L 484.1,933.3 L 476.5,928.9 L 467.2,923.3 L 459.7,918.3 L 451.5,912.6 L 443.2,906.6 L 435.1,900.3 L 426.2,893.2 L 418.9,887.1 L 410.9,880.2 L 402.2,872.3 L 395.2,865.6 L 387.4,857.9 L 379.9,850.0 L 371.7,841.0 L 365.2,833.4 L 358.0,824.8 L 350.4,815.0 L 344.3,806.8 L 336.9,796.7 L 330.3,787.2 L 324.6,778.6 L 318.2,768.9 L 311.9,759.1 L 305.5,749.2 L 298.6,738.2 L 293.1,729.0 L 287.2,718.7 L 281.5,708.1 L 276.1,697.3 L 271.1,686.3 L 266.4,675.1 L 262.1,663.6 L 258.0,652.0 L 254.2,640.3 L 250.6,628.4 L 246.9,616.5 L 242.9,603.3 L 239.4,592.5 L 235.5,580.5 L 230.9,567.3 L 226.9,556.5 L 222.4,544.5 L 217.8,532.5 L 212.9,520.6 L 207.2,507.5 L 202.3,496.9 L 196.5,485.2 L 190.4,473.7 L 183.8,462.4 L 177.0,451.2 L 169.7,440.3 L 161.2,428.6 L 153.8,419.3 L 145.3,409.2 L 136.3,399.5 L 126.9,390.1 L 116.1,380.3 L 105.9,371.7 L 96.6,364.1 L 86.0,355.9 L 74.2,347.1 L 64.4,340.1 L 53.3,332.5 L 42.3,325.3 L 31.4,318.5 L 20.6,311.9 L 10.0,305.7 L -0.5,299.7 L -11.1,294.0 L -21.6,288.6 L -32.3,283.7 L -43.1,279.3 L -54.0,275.5 L -65.1,272.3 L -76.4,269.8 L -88.9,267.8 L -99.2,266.6 L -110.9,265.8 L -123.7,265.5 L -134.3,265.9 L -146.1,266.8 L -159.0,268.3 L -169.7,269.9 L -181.5,272.0 L -193.3,274.4 L -205.2,277.1 L -217.0,280.0 L -228.9,283.1 L -240.9,286.2 L -252.9,289.3 L -265.0,292.4 L -277.1,295.5 L -289.4,298.5 L -301.7,301.4 L -314.1,304.2 L -326.5,306.9 L -339.1,309.3 L -351.8,311.6 L -364.5,313.5 L -378.6,315.3 L -390.2,316.5 L -404.4,317.7 L -416.1,318.4 L -429.1,319.0 L -442.2,319.5 L -455.2,319.8 L -469.1,320.0 L -479.9,320.1 L -492.4,320.2 L -501.9,320.1 L -512.9,320.0 L -521.4,319.8 L -531.1,319.5 L -538.6,319.3 L -546.3,319.1 L -554.4,318.8 L -560.5,318.6 L -566.9,318.3 L -572.9,318.0 L -578.5,317.7 L -583.8,317.2 L -588.8,316.8 L -593.3,316.2 L -597.8,315.4 L -601.3,314.8 L -604.8,314.0 L -608.0,313.1 L -611.1,312.1 L -614.1,311.0 L -616.9,309.8 L -619.5,308.6 L -622.0,307.0 L -623.7,305.7 L -625.3,304.1 L -626.7,302.5 L -627.9,300.8 L -628.6,299.3 L -629.4,297.7 L -630.0,295.9 L -630.5,293.9 L -630.9,291.5 L -631.0,288.9 L -630.9,286.0 L -630.6,282.9 L -630.0,279.5 L -629.5,276.0 L -629.2,272.6 L -629.0,269.2 L -629.2,266.0 L -629.8,262.6 L -630.6,259.9 L -631.9,257.1 L -633.5,254.7 L -635.5,252.6 L -637.7,250.9 L -640.1,249.5 L -642.8,248.5 L -645.8,247.7 L -649.1,247.2 L -652.7,247.1 L -656.4,247.5 L -660.2,248.3 L -664.1,249.4 L -668.3,250.6 L -672.8,252.1 L -677.6,253.6 L -682.6,255.4 L -687.9,257.4 L -693.9,259.7 L -699.0,261.8 L -704.8,264.2 L -711.4,267.1 L -717.0,269.5 L -723.3,272.3 L -729.9,275.3 L -736.6,278.4 L -743.5,281.5 L -750.6,284.8 L -757.8,288.1 L -765.9,291.8 L -773.4,295.2 L -780.3,298.3 L -788.1,301.9 L -796.1,305.4 L -805.0,309.4 L -812.5,312.8 L -820.9,316.5 L -829.4,320.4 L -838.0,324.2 L -846.7,328.1 L -856.4,332.5 L -865.4,336.5 L -873.5,340.1 L -882.7,344.2 L -892.0,348.3 L -902.3,352.8 L -910.9,356.6" fill="none" stroke="url(#g)" stroke-width="148.9" stroke-linecap="round" stroke-linejoin="round"/>
<path d="M -918.0,360.3 L -933.6,367.0 L -943.4,371.3 L -953.4,375.6 L -963.4,379.9 L -973.5,384.2 L -984.7,388.9 L -994.0,392.9 L -1004.3,397.2 L -1014.7,401.7 L -1025.2,406.1 L -1035.6,410.5 L -1045.5,414.8 L -1054.8,418.8 L -1064.4,422.9 L -1071.8,426.0 L -1079.4,429.2 L -1086.6,432.2 L -1094.0,435.3 L -1099.8,437.6 L -1105.8,440.0 L -1112.1,442.5 L -1117.0,444.2 L -1122.1,445.9 L -1126.9,447.4 L -1131.5,448.6 L -1135.9,449.6 L -1140.0,450.2 L -1144.0,450.6 L -1147.8,450.6 L -1151.3,450.3 L -1154.5,449.7 L -1157.4,448.7 L -1160.3,447.3 L -1162.3,446.0 L -1164.4,444.2 L -1166.2,442.2 L -1167.8,439.8 L -1169.0,437.4 L -1169.8,435.3 L -1170.4,432.8 L -1170.7,430.2 L -1170.8,427.4 L -1170.6,424.4 L -1170.0,421.1 L -1168.9,417.3 L -1167.6,414.1 L -1165.9,410.3 L -1163.8,406.3 L -1161.4,402.1 L -1158.6,397.7 L -1155.6,393.1 L -1152.4,388.3 L -1148.9,383.4 L -1145.2,378.3 L -1140.9,372.5 L -1137.2,367.6 L -1132.4,361.5 L -1128.4,356.3 L -1123.2,349.9 L -1118.9,344.5 L -1113.9,338.3 L -1108.8,332.1 L -1103.0,325.0 L -1098.1,319.1 L -1092.7,312.3 L -1087.2,305.4 L -1081.6,298.2 L -1075.4,290.2 L -1070.3,283.6 L -1063.8,275.3 L -1058.4,268.5 L -1052.2,261.0 L -1045.7,253.4 L -1039.1,245.8 L -1032.1,238.3 L -1024.9,230.9 L -1016.6,222.9 L -1009.5,216.4 L -1000.5,208.7 L -993.0,202.4 L -984.3,195.7 L -974.5,188.5 L -966.2,182.7 L -956.9,176.3 L -947.3,170.1 L -937.7,163.9 L -927.9,157.6 L -917.9,151.4 L -907.9,145.1 L -896.8,138.2 L -887.6,132.5 L -877.3,126.1 L -866.9,119.7 L -856.5,113.3 L -845.9,106.8 L -835.4,100.2 L -823.7,92.8 L -814.1,86.8 L -803.3,80.0 L -792.5,73.1 L -781.7,66.2 L -770.9,59.2 L -760.1,52.0 L -749.4,44.5 L -737.9,35.9 L -728.6,28.5 L -718.6,19.9 L -708.1,9.8 L -699.8,1.3 L -690.6,-8.4 L -681.3,-18.0 L -671.7,-27.3 L -661.7,-35.8 L -651.2,-43.6 L -640.4,-50.6 L -628.1,-57.2 L -617.8,-61.9 L -606.2,-66.5 L -594.5,-70.4 L -582.7,-73.7 L -570.8,-76.6 L -558.8,-79.0 L -546.7,-81.2 L -534.6,-83.3 L -522.4,-85.1 L -510.2,-86.9 L -497.9,-88.8 L -485.7,-91.1 L -473.5,-93.8 L -461.4,-96.8 L -449.4,-100.4 L -437.5,-104.3 L -425.7,-108.8 L -414.0,-113.6 L -402.5,-118.8 L -389.9,-124.8 L -379.6,-130.0 L -368.3,-135.9 L -355.8,-142.4 L -345.5,-147.6 L -334.0,-153.4 L -321.2,-159.7 L -309.5,-165.3 L -299.0,-170.2 L -287.1,-175.7 L -275.2,-180.9 L -263.1,-186.1 L -251.0,-191.0 L -238.7,-195.8 L -225.1,-200.7 L -213.8,-204.4 L -201.2,-208.3 L -188.4,-212.0 L -174.3,-215.7 L -162.7,-218.5 L -149.6,-221.4 L -136.6,-224.2 L -123.4,-226.7 L -108.9,-229.2 L -97.0,-231.2 L -82.3,-233.6 L -70.3,-235.4 L -56.9,-237.4 L -43.5,-239.4 L -30.1,-241.4 L -16.6,-243.4 L -3.1,-245.4 L 10.4,-247.4 L 24.0,-249.4 L 37.5,-251.4 L 51.1,-253.4 L 64.8,-255.4 L 78.4,-257.3 L 92.1,-259.3 L 108.5,-261.7 L 119.5,-263.3 L 133.2,-265.2 L 147.0,-267.2 L 160.7,-269.1 L 174.5,-271.0 L 188.3,-273.0 L 202.1,-274.9 L 216.0,-276.9 L 229.8,-278.9 L 243.7,-281.0 L 258.9,-283.3 L 271.4,-285.2 L 286.7,-287.5 L 300.6,-289.6 L 313.2,-291.4 L 327.1,-293.6 L 342.5,-295.9 L 355.1,-297.8 L 370.4,-300.1 L 383.1,-301.9 L 397.1,-304.0 L 411.0,-306.1 L 424.5,-308.0 L 437.5,-309.9 L 449.9,-311.8 L 462.9,-313.7 L 473.0,-315.2 L 483.8,-316.7 L 495.1,-318.4 L 504.1,-319.6 L 513.6,-321.0 L 522.7,-322.1 L 531.3,-323.0 L 539.4,-323.7 L 547.0,-324.2 L 554.0,-324.3 L 560.6,-324.1 L 566.8,-323.6 L 572.7,-322.9 L 578.4,-322.0 L 583.9,-320.6 L 589.2,-318.9 L 594.3,-316.7 L 599.0,-314.1 L 604.3,-310.4 L 607.8,-307.2 L 611.2,-303.8 L 614.7,-299.6 L 618.2,-295.0 L 621.5,-290.1 L 625.2,-284.5 L 628.4,-280.2 L 632.3,-275.7 L 636.8,-271.2 L 640.8,-267.8 L 645.5,-264.5 L 650.5,-261.6 L 655.7,-259.0 L 661.8,-256.7 L 667.5,-255.0 L 672.8,-253.8 L 678.9,-252.9 L 685.2,-252.3 L 691.8,-252.1 L 698.5,-252.3 L 705.5,-252.8 L 712.6,-253.7 L 719.8,-254.9 L 727.1,-256.4 L 734.3,-257.9 L 741.2,-259.4 L 748.6,-260.6 L 754.4,-261.4 L 761.3,-261.7 L 766.8,-261.6 L 772.7,-261.0 L 778.5,-259.8 L 784.6,-258.0 L 789.4,-256.1 L 794.6,-253.5 L 799.8,-250.4 L 804.9,-246.9 L 810.0,-242.9 L 814.9,-238.5 L 819.6,-233.7 L 824.2,-228.5 L 828.6,-222.9 L 832.7,-216.8 L 836.5,-210.5 L 840.2,-203.8 L 843.7,-196.8 L 847.3,-189.6 L 850.9,-182.2 L 854.5,-174.7 L 858.2,-166.9 L 861.9,-159.0 L 866.1,-150.2 L 869.6,-142.8 L 873.7,-134.5 L 877.9,-126.1 L 882.1,-117.7 L 886.5,-109.1 L 891.0,-100.4 L 896.1,-90.7 L 900.3,-82.6 L 904.9,-73.5 L 909.6,-64.3 L 914.9,-54.0 L 919.2,-45.5 L 923.9,-36.2 L 928.8,-26.5 L 932.5,-18.9 L 936.4,-10.9 L 939.9,-3.4 L 943.1,3.7 L 945.9,10.5 L 948.7,17.5 L 950.7,23.0 L 952.6,28.9 L 954.1,34.5 L 955.4,40.4 L 956.0,45.1 L 956.2,49.9 L 956.0,54.9 L 955.4,58.9 L 954.4,63.1 L 953.1,67.3 L 951.2,72.0 L 949.0,76.0 L 946.8,79.4 L 944.0,82.9 L 940.5,86.4 L 937.4,88.9 L 933.7,91.4 L 929.8,93.5 L 925.6,95.2 L 921.2,96.6 L 916.7,97.5 L 911.7,98.0 L 907.6,98.0 L 903.1,97.6 L 898.7,96.7 L 894.3,95.4 L 889.6,93.5 L 885.6,91.5 L 881.3,88.9 L 876.9,85.9 L 872.6,82.4 L 868.4,78.5 L 864.1,73.8 L 860.9,69.6 L 857.5,64.6 L 854.4,59.2 L 851.5,53.4 L 848.6,46.7 L 846.3,40.9 L 843.9,34.3 L 841.6,27.4 L 839.4,20.2 L 837.1,12.8 L 834.8,5.3 L 832.4,-2.0 L 830.0,-9.0 L 827.4,-15.5 L 824.6,-21.6 L 821.6,-27.2 L 818.4,-32.5 L 814.9,-37.5 L 811.1,-42.2 L 807.0,-46.5 L 802.5,-50.5 L 797.8,-54.1 L 792.7,-57.2 L 787.3,-60.1 L 781.6,-62.7 L 775.5,-65.0 L 768.7,-66.9 L 763.1,-67.9 L 756.8,-68.5 L 749.7,-68.6 L 743.7,-68.4 L 736.8,-67.8 L 729.7,-67.1 L 722.4,-66.1 L 714.9,-64.8 L 707.2,-63.2 L 699.4,-61.5 L 690.6,-59.5 L 683.3,-57.9 L 674.0,-55.8 L 666.3,-54.1 L 657.5,-52.3 L 648.5,-50.6 L 638.5,-48.8 L 630.1,-47.4 L 620.6,-45.9 L 610.9,-44.5 L 601.1,-43.2 L 591.1,-41.9 L 580.0,-40.6 L 570.7,-39.7 L 560.3,-38.8 L 549.7,-38.0 L 539.0,-37.3 L 528.1,-36.6 L 517.1,-36.0 L 506.0,-35.5 L 494.7,-35.0 L 482.3,-34.5 L 470.8,-34.0 L 460.4,-33.6 L 448.8,-33.1 L 437.0,-32.6 L 425.1,-32.2 L 413.2,-31.7 L 401.1,-31.3 L 387.8,-30.8 L 377.1,-30.4 L 365.6,-29.9 L 354.6,-29.3 L 344.0,-28.5 L 333.9,-27.5 L 324.2,-26.2 L 314.9,-24.5 L 305.9,-22.3 L 297.4,-19.5 L 289.2,-16.4 L 281.5,-12.7 L 274.2,-8.7 L 267.4,-4.2 L 260.4,1.1 L 254.6,6.4 L 249.7,11.5 L 244.6,17.6 L 239.8,24.0 L 235.0,31.5 L 231.5,37.8 L 227.9,45.3 L 224.4,53.9 L 221.8,61.2 L 219.2,69.5 L 216.9,78.2 L 214.9,87.8 L 213.8,95.8 L 212.9,104.8 L 212.4,114.0 L 212.3,124.3 L 212.6,132.9 L 213.4,142.5 L 214.9,153.0 L 216.6,161.6 L 219.1,171.1 L 222.5,181.3 L 225.8,189.6 L 230.0,198.7 L 234.6,207.6 L 239.8,216.3 L 245.5,224.6 L 251.8,232.6 L 258.6,240.2 L 265.9,247.6 L 274.4,255.4 L 281.7,261.5 L 290.3,267.9 L 299.0,274.3 L 308.9,281.0 L 317.3,286.2 L 326.9,291.7 L 336.7,297.1 L 346.7,302.3 L 356.9,307.3 L 367.1,312.3 L 377.6,317.3 L 389.1,322.7 L 398.7,327.2 L 409.4,332.2 L 420.1,337.3 L 430.9,342.5 L 441.7,347.8 L 452.5,353.2 L 463.4,358.8 L 474.1,364.3 L 485.4,370.3 L 494.2,375.1 L 503.6,380.3 L 512.5,385.3 L 521.0,390.2 L 529.0,394.9 L 537.2,399.9 L 543.5,403.8 L 550.1,408.2 L 556.1,412.5 L 561.6,416.9 L 567.1,421.7 L 571.2,425.8 L 575.4,430.4 L 579.1,435.2 L 582.4,440.1 L 585.2,445.3 L 587.6,450.6 L 589.6,456.1 L 591.2,461.9 L 592.4,467.8 L 593.2,473.8 L 593.6,480.4 L 593.3,486.3 L 592.7,491.5 L 591.4,498.0 L 589.8,503.9 L 587.9,509.1 L 585.5,514.9 L 582.3,521.2 L 579.4,526.3 L 575.8,531.8 L 571.9,537.5 L 567.9,543.3 L 564.0,549.1 L 560.5,555.0 L 557.5,561.0 L 554.8,567.6 L 553.0,573.0 L 551.4,579.7 L 550.4,585.2 L 549.9,591.9 L 549.8,597.4 L 550.2,604.0 L 550.9,609.3 L 552.2,615.2 L 553.9,621.2 L 556.1,627.2 L 558.7,633.4 L 561.7,639.5 L 565.1,645.5 L 569.2,651.9 L 573.0,656.8 L 577.6,662.1 L 583.1,667.9 L 588.5,673.1 L 593.6,677.8 L 599.4,683.0 L 605.6,688.0 L 612.0,693.1 L 618.7,698.2 L 625.6,703.2 L 632.6,708.4 L 639.8,713.5 L 647.2,718.8 L 655.4,724.6 L 662.2,729.5 L 669.9,734.9 L 677.2,740.2 L 684.1,745.3 L 691.0,750.7 L 696.3,755.0 L 701.6,759.7 L 706.5,764.3 L 711.0,768.9 L 715.5,773.9 L 719.1,778.6 L 722.2,783.3 L 724.6,787.6 L 726.9,792.5 L 728.6,797.5 L 729.9,802.5 L 730.6,807.6 L 730.9,813.3 L 730.7,817.9 L 730.1,823.1 L 728.8,828.9 L 727.5,833.7 L 725.5,839.1 L 723.2,844.4 L 720.3,849.7 L 717.1,855.0 L 713.4,860.3 L 709.3,865.6 L 704.4,871.4 L 700.1,876.3 L 694.7,882.4 L 690.0,887.4 L 684.7,893.0 L 679.1,898.7 L 673.4,904.4 L 667.5,910.3 L 661.4,916.3 L 655.2,922.2 L 648.7,927.7 L 642.0,932.8 L 635.1,937.4 L 627.9,941.5 L 620.4,945.2 L 612.7,948.4 L 604.0,951.5 L 596.7,953.6 L 588.5,955.3 L 579.4,956.5 L 571.9,957.0 L 563.3,956.9 L 554.7,956.3 L 545.0,955.1 L 537.1,953.7 L 528.3,951.6 L 519.4,949.0 L 510.7,945.9 L 502.0,942.3 L 493.4,938.2 L 484.1,933.3 L 476.5,928.9 L 467.2,923.3 L 459.7,918.3 L 451.5,912.6 L 443.2,906.6 L 435.1,900.3 L 426.2,893.2 L 418.9,887.1 L 410.9,880.2 L 402.2,872.3 L 395.2,865.6 L 387.4,857.9 L 379.9,850.0 L 371.7,841.0 L 365.2,833.4 L 358.0,824.8 L 350.4,815.0 L 344.3,806.8 L 336.9,796.7 L 330.3,787.2 L 324.6,778.6 L 318.2,768.9 L 311.9,759.1 L 305.5,749.2 L 298.6,738.2 L 293.1,729.0 L 287.2,718.7 L 281.5,708.1 L 276.1,697.3 L 271.1,686.3 L 266.4,675.1 L 262.1,663.6 L 258.0,652.0 L 254.2,640.3 L 250.6,628.4 L 246.9,616.5 L 242.9,603.3 L 239.4,592.5 L 235.5,580.5 L 230.9,567.3 L 226.9,556.5 L 222.4,544.5 L 217.8,532.5 L 212.9,520.6 L 207.2,507.5 L 202.3,496.9 L 196.5,485.2 L 190.4,473.7 L 183.8,462.4 L 177.0,451.2 L 169.7,440.3 L 161.2,428.6 L 153.8,419.3 L 145.3,409.2 L 136.3,399.5 L 126.9,390.1 L 116.1,380.3 L 105.9,371.7 L 96.6,364.1 L 86.0,355.9 L 74.2,347.1 L 64.4,340.1 L 53.3,332.5 L 42.3,325.3 L 31.4,318.5 L 20.6,311.9 L 10.0,305.7 L -0.5,299.7 L -11.1,294.0 L -21.6,288.6 L -32.3,283.7 L -43.1,279.3 L -54.0,275.5 L -65.1,272.3 L -76.4,269.8 L -88.9,267.8 L -99.2,266.6 L -110.9,265.8 L -123.7,265.5 L -134.3,265.9 L -146.1,266.8 L -159.0,268.3 L -169.7,269.9 L -181.5,272.0 L -193.3,274.4 L -205.2,277.1 L -217.0,280.0 L -228.9,283.1 L -240.9,286.2 L -252.9,289.3 L -265.0,292.4 L -277.1,295.5 L -289.4,298.5 L -301.7,301.4 L -314.1,304.2 L -326.5,306.9 L -339.1,309.3 L -351.8,311.6 L -364.5,313.5 L -378.6,315.3 L -390.2,316.5 L -404.4,317.7 L -416.1,318.4 L -429.1,319.0 L -442.2,319.5 L -455.2,319.8 L -469.1,320.0 L -479.9,320.1 L -492.4,320.2 L -501.9,320.1 L -512.9,320.0 L -521.4,319.8 L -531.1,319.5 L -538.6,319.3 L -546.3,319.1 L -554.4,318.8 L -560.5,318.6 L -566.9,318.3 L -572.9,318.0 L -578.5,317.7 L -583.8,317.2 L -588.8,316.8 L -593.3,316.2 L -597.8,315.4 L -601.3,314.8 L -604.8,314.0 L -608.0,313.1 L -611.1,312.1 L -614.1,311.0 L -616.9,309.8 L -619.5,308.6 L -622.0,307.0 L -623.7,305.7 L -625.3,304.1 L -626.7,302.5 L -627.9,300.8 L -628.6,299.3 L -629.4,297.7 L -630.0,295.9 L -630.5,293.9 L -630.9,291.5 L -631.0,288.9 L -630.9,286.0 L -630.6,282.9 L -630.0,279.5 L -629.5,276.0 L -629.2,272.6 L -629.0,269.2 L -629.2,266.0 L -629.8,262.6 L -630.6,259.9 L -631.9,257.1 L -633.5,254.7 L -635.5,252.6 L -637.7,250.9 L -640.1,249.5 L -642.8,248.5 L -645.8,247.7 L -649.1,247.2 L -652.7,247.1 L -656.4,247.5 L -660.2,248.3 L -664.1,249.4 L -668.3,250.6 L -672.8,252.1 L -677.6,253.6 L -682.6,255.4 L -687.9,257.4 L -693.9,259.7 L -699.0,261.8 L -704.8,264.2 L -711.4,267.1 L -717.0,269.5 L -723.3,272.3 L -729.9,275.3 L -736.6,278.4 L -743.5,281.5 L -750.6,284.8 L -757.8,288.1 L -765.9,291.8 L -773.4,295.2 L -780.3,298.3 L -788.1,301.9 L -796.1,305.4 L -805.0,309.4 L -812.5,312.8 L -820.9,316.5 L -829.4,320.4 L -838.0,324.2 L -846.7,328.1 L -856.4,332.5 L -865.4,336.5 L -873.5,340.1 L -882.7,344.2 L -892.0,348.3 L -902.3,352.8 L -910.9,356.6" fill="none" stroke="#ffffff" stroke-opacity="0.92" stroke-width="14.9" stroke-linecap="round" stroke-linejoin="round"/>
<line x1="-970.8" y1="237.2" x2="-865.2" y2="483.4" stroke="#ffffff" stroke-width="20.8" stroke-linecap="round"/>
</svg>