<svg xmlns="http://www.w3.org/2000/svg" viewBox="-2070.4 -1300.5 6009.1 3162.2">
<defs><linearGradient id="g" gradientUnits="userSpaceOnUse" x1="-1784.9" y1="-1015.0" x2="3653.2" y2="1576.2">
<stop offset="0" stop-color="#1c9fe0"/><stop offset="1" stop-color="#0b1f44"/></linearGradient></defs>
<path d="M -490.5,1566.6 L -505.2,1565.7 L -513.6,1565.1 L -523.1,1564.4 L -532.7,1563.8 L -542.5,1563.1 L -552.3,1562.4 L -563.3,1561.7 L -572.4,1561.1 L -583.5,1560.3 L -593.8,1559.6 L -603.2,1559.0 L -613.7,1558.3 L -624.3,1557.7 L -635.0,1557.0 L -645.8,1556.3 L -656.7,1555.7 L -667.7,1555.0 L -679.9,1554.3 L -690.0,1553.7 L -701.3,1553.0 L -713.8,1552.1 L -724.1,1551.4 L -735.6,1550.5 L -748.4,1549.4 L -760.0,1548.4 L -770.6,1547.5 L -782.4,1546.3 L -794.2,1545.1 L -807.3,1543.7 L -819.2,1542.3 L -830.0,1540.9 L -842.1,1539.3 L -854.2,1537.5 L -866.3,1535.6 L -878.4,1533.4 L -890.6,1531.1 L -902.8,1528.5 L -916.2,1525.5 L -927.2,1522.9 L -939.5,1519.7 L -951.7,1516.4 L -963.9,1512.8 L -977.3,1508.6 L -988.2,1505.0 L -1000.4,1500.8 L -1012.5,1496.4 L -1024.3,1491.8 L -1035.7,1487.0 L -1047.8,1481.5 L -1058.3,1476.3 L -1067.3,1471.3 L -1076.9,1465.6 L -1087.0,1459.0 L -1094.8,1453.3 L -1103.1,1446.7 L -1111.7,1439.0 L -1118.4,1432.4 L -1125.3,1424.8 L -1131.7,1416.9 L -1137.6,1408.8 L -1143.6,1399.6 L -1148.3,1391.8 L -1153.3,1383.1 L -1158.5,1373.6 L -1162.9,1365.3 L -1166.7,1358.2 L -1170.7,1350.9 L -1174.7,1343.3 L -1178.2,1336.9 L -1181.1,1331.4 L -1184.5,1325.1 L -1187.2,1320.2 L -1190.4,1314.7 L -1193.2,1310.0 L -1195.7,1306.1 L -1198.6,1301.7 L -1200.9,1298.4 L -1203.6,1295.0 L -1206.3,1291.8 L -1209.2,1288.8 L -1212.3,1286.2 L -1215.6,1283.9 L -1219.4,1281.8 L -1223.0,1280.1 L -1226.5,1278.7 L -1230.6,1277.4 L -1234.9,1276.3 L -1239.3,1275.5 L -1244.0,1275.0 L -1248.9,1274.8 L -1254.3,1274.8 L -1258.7,1275.0 L -1263.3,1275.1 L -1267.8,1275.1 L -1272.6,1274.6 L -1276.4,1273.9 L -1280.5,1272.8 L -1284.5,1271.4 L -1288.4,1269.6 L -1292.4,1267.5 L -1296.3,1265.0 L -1300.1,1262.2 L -1303.9,1259.1 L -1307.5,1255.7 L -1311.0,1251.9 L -1314.7,1247.4 L -1317.6,1243.5 L -1320.6,1239.0 L -1323.8,1233.7 L -1326.5,1229.1 L -1329.7,1223.2 L -1332.3,1218.3 L -1335.2,1212.7 L -1338.2,1207.0 L -1341.3,1201.1 L -1344.6,1194.9 L -1347.9,1188.6 L -1351.5,1182.2 L -1355.1,1175.6 L -1358.9,1168.8 L -1362.8,1161.9 L -1367.0,1155.0 L -1371.4,1148.1 L -1376.5,1140.4 L -1381.5,1133.5 L -1386.3,1127.2 L -1391.9,1120.3 L -1397.8,1113.6 L -1404.7,1106.2 L -1411.4,1099.6 L -1417.6,1093.7 L -1424.7,1087.2 L -1432.7,1080.1 L -1439.3,1074.1 L -1446.5,1067.2 L -1453.7,1060.1 L -1460.8,1052.6 L -1467.6,1044.9 L -1474.3,1036.8 L -1481.1,1027.5 L -1486.3,1019.6 L -1491.6,1010.5 L -1496.8,1000.2 L -1500.6,991.5 L -1504.3,981.6 L -1507.4,971.5 L -1509.8,961.1 L -1511.7,950.6 L -1513.2,938.8 L -1513.9,929.0 L -1514.3,918.2 L -1514.5,907.6 L -1514.6,897.4 L -1514.6,887.8 L -1514.7,878.7 L -1515.0,870.1 L -1515.4,861.9 L -1516.0,854.2 L -1517.0,846.2 L -1518.1,840.1 L -1519.9,833.0 L -1521.6,827.4 L -1524.0,821.5 L -1526.8,815.8 L -1530.4,809.8 L -1533.7,805.0 L -1537.8,799.8 L -1542.4,794.9 L -1547.8,789.8 L -1552.6,786.0 L -1558.3,782.3 L -1564.4,779.1 L -1570.7,776.3 L -1577.4,774.0 L -1584.3,772.0 L -1591.5,770.2 L -1598.8,768.5 L -1607.2,766.7 L -1614.9,764.9 L -1621.8,763.1 L -1629.6,760.7 L -1637.4,757.8 L -1645.1,754.4 L -1652.6,750.5 L -1659.7,746.1 L -1666.4,741.3 L -1672.7,736.0 L -1679.4,729.7 L -1684.7,724.2 L -1691.0,717.1 L -1695.9,710.9 L -1701.3,703.8 L -1706.5,696.3 L -1712.1,687.8 L -1716.5,680.6 L -1721.7,671.4 L -1725.8,663.7 L -1730.1,654.9 L -1734.4,645.9 L -1738.4,636.7 L -1742.5,627.4 L -1746.4,617.9 L -1750.4,608.2 L -1754.3,598.5 L -1758.1,588.5 L -1761.9,578.5 L -1765.7,568.3 L -1769.3,558.1 L -1772.6,548.2 L -1775.6,538.8 L -1778.2,529.7 L -1780.5,520.9 L -1782.3,512.3 L -1783.7,503.9 L -1784.6,495.0 L -1784.9,487.8 L -1784.5,479.9 L -1783.6,472.1 L -1782.2,464.3 L -1780.2,456.3 L -1777.8,448.3 L -1774.9,440.3 L -1771.6,432.3 L -1767.8,424.4 L -1763.3,415.6 L -1759.2,408.5 L -1753.9,399.8 L -1749.2,392.8 L -1743.1,384.2 L -1737.9,377.2 L -1731.9,369.5 L -1725.7,361.8 L -1718.5,353.4 L -1712.5,346.6 L -1705.5,339.0 L -1698.3,331.5 L -1690.9,324.0 L -1683.3,316.5 L -1675.5,309.1 L -1667.5,301.7 L -1659.3,294.4 L -1650.9,287.0 L -1642.4,279.8 L -1632.7,271.9 L -1624.6,265.4 L -1615.5,258.4 L -1606.1,251.5 L -1596.6,244.6 L -1586.8,237.9 L -1576.9,231.3 L -1566.9,224.8 L -1556.7,218.3 L -1546.5,211.9 L -1536.0,205.5 L -1525.5,199.1 L -1515.0,192.6 L -1504.3,186.2 L -1493.6,179.7 L -1482.8,173.1 L -1471.9,166.5 L -1461.0,159.9 L -1450.0,153.3 L -1438.9,146.8 L -1426.5,139.6 L -1416.4,133.7 L -1405.0,127.3 L -1393.6,120.8 L -1382.0,114.5 L -1370.4,108.2 L -1357.5,101.3 L -1346.9,95.7 L -1335.0,89.5 L -1323.0,83.5 L -1309.7,76.9 L -1298.8,71.7 L -1285.2,65.4 L -1274.0,60.5 L -1261.4,55.2 L -1248.8,50.0 L -1236.0,45.1 L -1221.8,39.8 L -1210.1,35.6 L -1197.1,31.0 L -1182.6,26.2 L -1170.7,22.4 L -1157.4,18.3 L -1142.7,13.9 L -1130.6,10.4 L -1117.2,6.5 L -1103.7,2.6 L -1090.1,-1.3 L -1076.6,-5.1 L -1063.0,-9.0 L -1049.4,-12.9 L -1035.8,-16.7 L -1022.1,-20.6 L -1007.1,-24.8 L -994.8,-28.3 L -981.1,-32.1 L -967.3,-36.0 L -953.6,-39.8 L -939.8,-43.6 L -925.9,-47.5 L -910.7,-51.7 L -898.2,-55.2 L -884.3,-59.0 L -870.4,-62.9 L -856.4,-66.8 L -842.5,-70.7 L -828.5,-74.6 L -814.5,-78.6 L -800.5,-82.6 L -785.0,-87.0 L -772.4,-90.7 L -758.3,-94.8 L -744.2,-98.9 L -730.1,-103.0 L -716.0,-107.2 L -701.9,-111.4 L -687.7,-115.6 L -673.6,-119.8 L -659.4,-124.0 L -645.2,-128.3 L -629.5,-132.9 L -616.7,-136.6 L -602.4,-140.8 L -586.6,-145.2 L -573.6,-148.8 L -559.2,-152.8 L -543.3,-157.1 L -530.3,-160.6 L -515.8,-164.6 L -501.3,-168.6 L -486.8,-172.6 L -472.3,-176.7 L -457.8,-180.8 L -443.3,-184.9 L -428.8,-189.0 L -414.2,-193.2 L -399.7,-197.3 L -385.1,-201.4 L -370.5,-205.6 L -355.9,-209.7 L -341.3,-213.9 L -326.7,-218.0 L -310.6,-222.6 L -297.4,-226.3 L -282.8,-230.5 L -268.1,-234.7 L -253.5,-238.9 L -238.8,-243.0 L -224.1,-247.2 L -209.4,-251.4 L -194.7,-255.6 L -180.0,-259.8 L -163.8,-264.4 L -150.5,-268.2 L -134.3,-272.8 L -121.0,-276.6 L -106.3,-280.8 L -91.5,-285.0 L -76.7,-289.1 L -60.4,-293.8 L -47.3,-297.5 L -33.2,-301.5 L -18.7,-305.7 L -7.5,-308.8 L 4.3,-312.1 L 15.3,-315.2 L 26.8,-318.4 L 35.7,-320.9 L 45.1,-323.5 L 54.0,-326.0 L 62.5,-328.3 L 70.5,-330.5 L 78.2,-332.5 L 85.4,-334.1 L 92.2,-335.5 L 99.3,-336.5 L 104.7,-336.9 L 110.6,-337.0 L 117.0,-336.5 L 122.0,-335.8 L 127.6,-334.5 L 133.2,-332.7 L 139.5,-330.2 L 144.7,-327.8 L 151.0,-324.6 L 156.1,-322.1 L 161.7,-319.6 L 167.4,-317.5 L 173.0,-315.9 L 179.3,-314.7 L 184.5,-314.3 L 190.7,-314.3 L 195.7,-314.9 L 201.0,-316.0 L 206.9,-317.9 L 211.6,-319.9 L 217.3,-322.9 L 222.5,-326.0 L 227.1,-329.3 L 232.2,-333.3 L 237.3,-337.7 L 242.3,-342.5 L 247.4,-347.6 L 252.5,-352.8 L 258.4,-358.7 L 263.5,-363.5 L 270.0,-369.2 L 275.7,-373.7 L 282.3,-378.4 L 289.3,-383.0 L 296.6,-387.4 L 304.2,-391.5 L 312.1,-395.4 L 320.3,-399.0 L 328.7,-402.5 L 338.3,-406.0 L 346.3,-408.7 L 356.3,-412.0 L 364.6,-414.5 L 374.0,-417.3 L 383.5,-419.9 L 393.2,-422.5 L 402.9,-425.1 L 413.8,-428.0 L 422.8,-430.3 L 432.9,-433.0 L 444.2,-436.0 L 453.5,-438.5 L 463.9,-441.2 L 474.4,-444.1 L 486.1,-447.2 L 496.8,-450.2 L 506.5,-452.8 L 517.4,-455.8 L 528.4,-458.8 L 539.4,-461.8 L 550.6,-464.8 L 560.7,-467.6 L 573.1,-470.9 L 585.6,-474.3 L 595.9,-477.1 L 607.4,-480.3 L 619.0,-483.4 L 630.6,-486.6 L 642.3,-489.9 L 655.2,-493.5 L 665.8,-496.5 L 677.6,-499.9 L 689.6,-503.3 L 701.5,-506.8 L 713.6,-510.2 L 725.7,-513.6 L 739.1,-517.3 L 750.2,-520.3 L 762.5,-523.7 L 776.1,-527.4 L 787.3,-530.4 L 801.1,-534.1 L 812.4,-537.2 L 826.3,-541.0 L 837.6,-544.2 L 850.3,-547.6 L 863.1,-551.2 L 875.9,-554.7 L 888.7,-558.2 L 901.6,-561.8 L 914.5,-565.4 L 927.5,-569.0 L 940.4,-572.7 L 954.7,-576.8 L 966.5,-580.2 L 979.6,-584.0 L 992.7,-587.8 L 1005.8,-591.6 L 1019.0,-595.4 L 1032.3,-599.2 L 1045.5,-603.0 L 1060.1,-607.3 L 1072.1,-610.7 L 1085.5,-614.6 L 1098.9,-618.4 L 1112.3,-622.3 L 1125.7,-626.2 L 1139.2,-630.1 L 1152.7,-634.0 L 1167.6,-638.2 L 1181.1,-642.0 L 1193.3,-645.4 L 1206.9,-649.2 L 1220.5,-653.1 L 1234.2,-656.9 L 1247.9,-660.7 L 1261.6,-664.5 L 1275.3,-668.4 L 1289.1,-672.2 L 1304.3,-676.5 L 1318.1,-680.4 L 1330.5,-683.8 L 1345.8,-688.1 L 1358.3,-691.6 L 1372.3,-695.4 L 1386.2,-699.3 L 1401.6,-703.6 L 1414.2,-707.1 L 1428.3,-711.0 L 1442.3,-714.9 L 1456.4,-718.8 L 1471.9,-723.1 L 1484.6,-726.6 L 1500.1,-731.0 L 1512.8,-734.6 L 1527.0,-738.6 L 1542.6,-743.0 L 1555.3,-746.7 L 1570.9,-751.2 L 1583.7,-754.9 L 1597.9,-759.1 L 1612.1,-763.3 L 1626.3,-767.5 L 1640.5,-771.8 L 1654.8,-775.9 L 1670.5,-780.5 L 1683.4,-784.3 L 1697.7,-788.4 L 1712.1,-792.6 L 1726.4,-796.6 L 1740.8,-800.7 L 1756.7,-805.1 L 1768.3,-808.3 L 1785.6,-813.1 L 1798.6,-816.7 L 1813.1,-820.7 L 1827.6,-824.7 L 1841.7,-828.7 L 1855.1,-832.5 L 1867.7,-836.0 L 1879.5,-839.4 L 1891.6,-842.9 L 1900.9,-845.6 L 1911.6,-848.7 L 1919.8,-851.1 L 1929.1,-853.9 L 1936.1,-856.2 L 1943.3,-858.7 L 1950.0,-861.3 L 1956.1,-863.8 L 1961.7,-866.4 L 1966.8,-869.2 L 1972.1,-872.5 L 1976.3,-875.5 L 1981.3,-879.5 L 1985.2,-883.3 L 1989.9,-888.3 L 1993.6,-892.9 L 1997.4,-898.4 L 2001.6,-904.5 L 2004.9,-909.5 L 2008.8,-915.2 L 2012.0,-919.5 L 2015.8,-923.9 L 2019.7,-927.7 L 2023.9,-931.1 L 2028.3,-934.0 L 2032.9,-936.4 L 2037.7,-938.4 L 2042.7,-939.8 L 2047.9,-940.9 L 2054.0,-941.7 L 2059.2,-941.9 L 2065.1,-941.6 L 2071.1,-940.9 L 2077.2,-939.8 L 2083.5,-938.6 L 2090.0,-937.2 L 2096.6,-935.5 L 2103.4,-933.7 L 2110.5,-931.9 L 2118.5,-930.2 L 2125.2,-928.9 L 2132.9,-927.8 L 2141.6,-926.9 L 2148.8,-926.5 L 2157.1,-926.3 L 2166.3,-926.4 L 2174.0,-926.7 L 2183.6,-927.5 L 2191.5,-928.4 L 2200.4,-929.8 L 2209.4,-931.6 L 2218.5,-933.7 L 2227.6,-936.0 L 2236.7,-938.7 L 2246.9,-941.9 L 2255.3,-944.7 L 2264.7,-947.9 L 2274.2,-951.0 L 2284.8,-954.4 L 2294.6,-957.4 L 2303.6,-960.0 L 2313.6,-962.9 L 2323.9,-965.7 L 2334.2,-968.4 L 2344.7,-971.0 L 2355.4,-973.4 L 2366.1,-975.7 L 2377.1,-977.8 L 2388.1,-979.8 L 2399.3,-981.7 L 2411.7,-983.6 L 2421.9,-985.0 L 2433.4,-986.5 L 2445.0,-987.8 L 2456.7,-988.9 L 2468.5,-990.0 L 2480.4,-990.9 L 2493.5,-991.8 L 2504.3,-992.4 L 2517.6,-993.1 L 2528.5,-993.6 L 2542.0,-994.1 L 2553.0,-994.5 L 2565.4,-995.0 L 2579.1,-995.4 L 2590.3,-995.8 L 2602.9,-996.2 L 2616.8,-996.7 L 2628.2,-997.1 L 2641.0,-997.5 L 2653.8,-998.0 L 2666.7,-998.4 L 2679.6,-998.9 L 2693.9,-999.4 L 2705.6,-999.8 L 2718.7,-1000.2 L 2731.8,-1000.6 L 2746.4,-1001.1 L 2759.6,-1001.5 L 2771.6,-1001.8 L 2786.3,-1002.2 L 2798.3,-1002.5 L 2811.7,-1002.7 L 2825.2,-1003.0 L 2838.7,-1003.2 L 2852.2,-1003.4 L 2865.8,-1003.7 L 2879.5,-1003.9 L 2893.1,-1004.2 L 2906.8,-1004.4 L 2920.5,-1004.7 L 2934.3,-1004.9 L 2949.5,-1005.2 L 2963.3,-1005.5 L 2975.7,-1005.7 L 2989.6,-1006.0 L 3003.5,-1006.3 L 3017.4,-1006.6 L 3031.4,-1006.9 L 3046.7,-1007.3 L 3059.3,-1007.6 L 3073.3,-1007.9 L 3087.3,-1008.3 L 3102.7,-1008.7 L 3115.4,-1009.0 L 3129.5,-1009.3 L 3143.6,-1009.7 L 3157.7,-1010.1 L 3171.9,-1010.5 L 3186.1,-1010.8 L 3201.8,-1011.2 L 3214.6,-1011.5 L 3228.9,-1011.9 L 3244.7,-1012.2 L 3257.6,-1012.5 L 3273.4,-1012.8 L 3286.4,-1013.1 L 3300.8,-1013.4 L 3315.3,-1013.7 L 3329.8,-1014.0 L 3345.7,-1014.4 L 3358.8,-1014.6 L 3373.4,-1014.8 L 3388.0,-1015.0 L 3402.6,-1014.9 L 3418.7,-1014.7 L 3431.8,-1014.3 L 3446.5,-1013.7 L 3460.9,-1012.8 L 3474.8,-1011.6 L 3488.1,-1010.2 L 3500.8,-1008.7 L 3513.1,-1007.1 L 3525.9,-1005.2 L 3536.0,-1003.6 L 3546.6,-1001.6 L 3557.7,-999.3 L 3566.3,-997.3 L 3575.3,-995.1 L 3583.6,-992.8 L 3591.4,-990.6 L 3598.5,-988.4 L 3605.0,-986.3 L 3611.0,-984.3 L 3617.0,-982.1 L 3621.5,-980.3 L 3626.1,-978.4 L 3630.7,-976.2 L 3634.2,-974.5 L 3637.7,-972.4 L 3640.9,-970.1 L 3643.8,-967.6 L 3646.4,-964.7 L 3648.5,-961.7 L 3650.4,-958.1 L 3651.5,-955.0 L 3652.4,-951.3 L 3653.0,-947.3 L 3653.2,-943.2 L 3652.9,-938.4 L 3652.2,-933.9 L 3651.2,-929.7 L 3649.7,-924.9 L 3647.8,-919.4 L 3646.0,-914.0 L 3644.3,-909.0 L 3642.3,-903.2 L 3640.3,-897.2 L 3638.0,-890.5 L 3636.1,-884.7 L 3633.9,-878.1 L 3631.7,-871.3 L 3629.3,-863.6 L 3627.2,-857.1 L 3624.9,-849.6 L 3622.6,-842.0 L 3620.3,-834.3 L 3617.9,-826.4 L 3615.5,-818.3 L 3612.8,-809.3 L 3610.5,-801.7 L 3607.9,-793.2 L 3605.3,-784.5 L 3602.6,-775.7 L 3599.8,-766.8 L 3597.1,-757.7 L 3593.9,-747.6 L 3591.3,-739.2 L 3588.4,-729.8 L 3585.1,-719.3 L 3582.4,-710.6 L 3579.4,-700.9 L 3576.0,-690.1 L 3573.2,-681.1 L 3570.0,-671.1 L 3566.7,-661.0 L 3563.5,-650.7 L 3559.8,-639.3 L 3556.8,-629.9 L 3553.4,-619.4 L 3550.0,-608.8 L 3546.2,-597.0 L 3543.1,-587.3 L 3539.6,-576.4 L 3536.2,-565.4 L 3532.7,-554.3 L 3529.1,-543.2 L 3525.6,-532.0 L 3522.0,-520.7 L 3518.5,-509.3 L 3514.9,-497.9 L 3511.3,-486.4 L 3507.6,-474.9 L 3503.6,-462.1 L 3500.3,-451.6 L 3496.7,-439.9 L 3493.0,-428.0 L 3489.3,-416.2 L 3485.2,-403.0 L 3481.9,-392.2 L 3478.1,-380.2 L 3474.3,-368.1 L 3470.5,-355.9 L 3466.6,-343.7 L 3462.6,-331.5 L 3458.5,-319.2 L 3454.4,-306.9 L 3450.0,-294.6 L 3445.5,-282.3 L 3440.3,-268.8 L 3435.9,-257.8 L 3430.3,-244.3 L 3425.5,-233.3 L 3420.0,-221.1 L 3413.7,-207.7 L 3408.4,-196.8 L 3402.4,-184.7 L 3396.2,-172.7 L 3389.2,-159.4 L 3383.5,-148.5 L 3377.0,-136.4 L 3370.4,-124.4 L 3363.0,-111.1 L 3356.9,-100.2 L 3350.1,-88.1 L 3343.3,-75.9 L 3336.4,-63.7 L 3329.5,-51.5 L 3322.6,-39.3 L 3315.7,-27.1 L 3308.7,-14.8 L 3301.8,-2.5 L 3294.8,9.8 L 3287.1,23.4 L 3280.8,34.6 L 3273.8,46.9 L 3266.8,59.3 L 3259.8,71.8 L 3252.1,85.5 L 3245.8,96.7 L 3238.7,109.2 L 3231.6,121.7 L 3224.5,134.2 L 3216.6,148.0 L 3210.0,159.2 L 3202.6,171.6 L 3195.1,184.0 L 3187.4,196.3 L 3179.7,208.6 L 3171.8,220.8 L 3163.8,233.0 L 3154.8,246.4 L 3147.4,257.2 L 3138.2,270.5 L 3129.7,282.4 L 3122.0,293.2 L 3112.5,306.3 L 3103.8,318.2 L 3095.9,328.8 L 3087.0,340.7 L 3078.1,352.5 L 3069.1,364.3 L 3060.1,376.1 L 3051.0,387.8 L 3040.8,400.7 L 3032.5,411.3 L 3023.2,423.0 L 3013.8,434.6 L 3004.4,446.3 L 2994.0,459.1 L 2985.5,469.6 L 2976.1,481.3 L 2965.7,494.2 L 2956.3,506.0 L 2947.8,516.5 L 2938.3,528.3 L 2928.8,540.0 L 2919.2,551.7 L 2909.6,563.5 L 2900.0,575.1 L 2888.3,589.1 L 2880.5,598.4 L 2870.8,609.8 L 2861.3,620.8 L 2852.2,631.3 L 2843.4,641.2 L 2834.7,650.6 L 2826.2,659.3 L 2817.7,667.5 L 2809.3,675.3 L 2800.0,683.3 L 2792.3,689.5 L 2783.5,695.8 L 2774.4,701.5 L 2764.9,706.9 L 2755.2,711.8 L 2745.2,716.1 L 2734.1,720.2 L 2724.9,723.1 L 2714.9,726.0 L 2705.1,728.6 L 2695.7,730.9 L 2686.8,733.1 L 2677.6,735.4 L 2670.3,737.3 L 2662.8,739.4 L 2655.0,741.6 L 2649.1,743.3 L 2643.1,745.2 L 2637.6,747.1 L 2633.1,748.8 L 2628.0,751.2 L 2623.7,753.5 L 2619.6,756.1 L 2615.9,759.0 L 2612.8,761.9 L 2609.4,765.8 L 2606.9,769.6 L 2604.7,773.6 L 2603.0,777.9 L 2601.8,782.4 L 2600.9,787.2 L 2600.4,792.8 L 2600.3,797.6 L 2600.5,803.2 L 2601.1,808.9 L 2602.1,814.7 L 2603.4,820.7 L 2605.2,826.8 L 2607.3,833.1 L 2609.6,839.5 L 2612.4,846.8 L 2614.9,853.6 L 2617.3,859.9 L 2620.0,867.1 L 2622.7,874.4 L 2625.8,882.7 L 2628.3,889.6 L 2631.1,897.4 L 2634.0,905.4 L 2637.0,913.6 L 2640.0,921.9 L 2643.2,930.3 L 2646.4,938.9 L 2649.8,947.5 L 2653.2,956.1 L 2656.5,964.4 L 2659.8,972.3 L 2662.8,979.8 L 2665.7,986.9 L 2668.4,993.7 L 2670.9,1000.1 L 2673.3,1006.3 L 2675.5,1012.2 L 2677.6,1017.9 L 2679.6,1023.3 L 2681.4,1028.5 L 2683.1,1033.4 L 2684.7,1038.1 L 2686.1,1042.5 L 2687.3,1046.7 L 2688.2,1050.7 L 2688.7,1054.5 L 2688.9,1058.1 L 2688.7,1062.0 L 2688.1,1065.1 L 2687.1,1068.3 L 2685.6,1071.6 L 2683.9,1074.4 L 2682.1,1076.8 L 2679.8,1079.3 L 2677.2,1081.6 L 2674.2,1083.9 L 2670.9,1086.0 L 2667.3,1087.9 L 2663.5,1089.6 L 2659.3,1091.2 L 2654.4,1092.7 L 2650.1,1093.8 L 2645.1,1094.8 L 2639.2,1095.7 L 2634.1,1096.5 L 2628.2,1097.4 L 2622.2,1098.5 L 2616.0,1099.5 L 2609.6,1100.7 L 2603.0,1101.8 L 2596.1,1103.0 L 2589.0,1104.1 L 2581.7,1105.3 L 2574.3,1106.5 L 2566.6,1107.7 L 2558.8,1109.1 L 2550.8,1110.5 L 2542.7,1111.9 L 2534.4,1113.4 L 2526.0,1114.9 L 2517.4,1116.4 L 2507.8,1118.2 L 2499.8,1119.7 L 2490.8,1121.4 L 2481.6,1123.1 L 2471.4,1125.0 L 2462.9,1126.6 L 2453.4,1128.4 L 2443.7,1130.3 L 2434.0,1132.1 L 2423.1,1134.2 L 2414.1,1135.9 L 2403.0,1138.0 L 2392.8,1140.0 L 2383.5,1141.8 L 2372.0,1144.0 L 2361.5,1146.0 L 2351.9,1147.9 L 2341.2,1150.0 L 2330.4,1152.1 L 2319.4,1154.3 L 2308.4,1156.6 L 2297.3,1158.8 L 2286.1,1161.1 L 2273.7,1163.7 L 2263.5,1165.8 L 2252.1,1168.2 L 2240.6,1170.7 L 2229.0,1173.2 L 2217.4,1175.8 L 2205.7,1178.4 L 2192.8,1181.4 L 2182.2,1183.9 L 2169.2,1187.1 L 2158.6,1189.7 L 2145.5,1193.2 L 2134.7,1196.1 L 2122.8,1199.7 L 2110.8,1203.4 L 2098.9,1207.4 L 2086.9,1211.6 L 2075.0,1216.0 L 2061.9,1221.0 L 2051.1,1225.3 L 2038.0,1230.7 L 2027.3,1235.2 L 2015.3,1240.4 L 2003.3,1245.7 L 1990.1,1251.6 L 1979.3,1256.5 L 1967.2,1262.0 L 1953.9,1268.0 L 1942.9,1272.9 L 1929.5,1279.0 L 1918.4,1283.9 L 1906.1,1289.4 L 1893.7,1295.0 L 1881.3,1300.5 L 1868.8,1306.1 L 1855.1,1312.3 L 1842.5,1318.0 L 1831.2,1323.1 L 1818.6,1328.8 L 1806.0,1334.5 L 1792.1,1340.8 L 1780.7,1346.0 L 1768.0,1351.9 L 1755.4,1357.8 L 1742.8,1364.0 L 1730.2,1370.3 L 1717.8,1376.7 L 1704.1,1384.0 L 1693.0,1390.1 L 1680.7,1397.1 L 1668.5,1404.3 L 1656.4,1411.8 L 1644.4,1419.4 L 1632.5,1427.1 L 1620.6,1435.0 L 1607.7,1443.5 L 1597.5,1450.2 L 1585.6,1458.0 L 1576.2,1463.9 L 1566.1,1470.1 L 1556.4,1476.0 L 1546.1,1481.9 L 1537.0,1487.0 L 1529.1,1491.2 L 1520.5,1495.6 L 1512.1,1499.7 L 1503.0,1503.9 L 1495.8,1507.0 L 1487.7,1510.2 L 1479.8,1513.0 L 1471.8,1515.4 L 1463.8,1517.4 L 1455.7,1518.9 L 1447.7,1519.9 L 1438.8,1520.3 L 1431.4,1520.3 L 1423.0,1519.8 L 1413.6,1518.9 L 1405.9,1517.8 L 1397.5,1516.0 L 1389.2,1513.7 L 1380.3,1510.6 L 1372.3,1507.2 L 1365.1,1503.8 L 1357.2,1499.7 L 1349.4,1495.0 L 1341.7,1490.0 L 1334.1,1484.5 L 1326.7,1478.7 L 1319.5,1472.5 L 1312.4,1465.9 L 1305.5,1459.0 L 1298.7,1451.8 L 1291.9,1444.4 L 1285.1,1436.9 L 1277.7,1428.8 L 1271.7,1422.5 L 1264.3,1415.2 L 1258.1,1409.7 L 1251.1,1404.0 L 1243.8,1398.6 L 1236.4,1393.7 L 1228.8,1389.3 L 1220.9,1385.4 L 1212.8,1382.0 L 1204.4,1378.9 L 1195.7,1376.1 L 1185.9,1373.4 L 1177.7,1371.5 L 1168.4,1369.8 L 1159.1,1368.6 L 1149.7,1368.0 L 1140.3,1367.9 L 1130.7,1368.0 L 1121.0,1368.2 L 1111.2,1368.6 L 1101.3,1369.1 L 1090.4,1369.9 L 1080.8,1370.8 L 1072.4,1371.8 L 1063.4,1373.2 L 1054.6,1374.7 L 1045.2,1376.9 L 1037.5,1379.0 L 1029.2,1381.7 L 1020.9,1384.9 L 1012.6,1388.5 L 1004.5,1392.5 L 995.6,1397.4 L 988.4,1401.8 L 980.6,1407.1 L 973.0,1412.9 L 965.7,1419.0 L 958.5,1425.6 L 951.6,1432.5 L 945.0,1439.5 L 938.6,1446.3 L 931.7,1453.3 L 926.0,1458.7 L 919.7,1464.2 L 913.1,1469.3 L 906.4,1473.9 L 899.4,1478.1 L 891.4,1482.4 L 884.7,1485.5 L 877.0,1488.6 L 869.1,1491.2 L 861.0,1493.3 L 852.0,1495.0 L 844.5,1496.0 L 836.2,1496.6 L 827.0,1496.8 L 818.6,1496.5 L 811.1,1495.8 L 802.8,1494.5 L 794.5,1492.9 L 786.3,1490.9 L 777.2,1488.2 L 769.1,1485.2 L 762.0,1482.1 L 754.3,1478.2 L 747.1,1473.8 L 740.1,1468.9 L 733.2,1463.4 L 726.6,1457.5 L 719.4,1450.6 L 713.7,1444.7 L 707.5,1437.9 L 701.6,1431.2 L 695.8,1424.7 L 690.1,1418.5 L 684.2,1412.8 L 678.1,1407.3 L 671.8,1402.3 L 664.6,1397.3 L 658.5,1393.6 L 651.4,1389.9 L 643.2,1386.1 L 636.3,1383.2 L 628.4,1380.5 L 620.4,1378.1 L 612.3,1376.3 L 604.0,1375.0 L 595.6,1374.1 L 586.2,1373.6 L 578.3,1373.6 L 569.5,1373.8 L 559.5,1374.4 L 551.3,1375.1 L 541.1,1376.1 L 532.6,1377.0 L 523.0,1378.1 L 512.4,1379.4 L 503.6,1380.4 L 493.7,1381.7 L 483.8,1382.9 L 473.7,1384.1 L 463.5,1385.2 L 453.2,1386.3 L 442.7,1387.2 L 432.1,1388.0 L 420.4,1388.6 L 410.6,1388.9 L 399.7,1389.0 L 388.7,1388.8 L 377.7,1388.3 L 365.4,1387.5 L 354.1,1386.5 L 344.0,1385.5 L 332.6,1384.4 L 321.1,1383.5 L 309.5,1382.8 L 297.8,1382.3 L 286.0,1382.2 L 274.2,1382.5 L 262.4,1383.1 L 249.3,1384.3 L 237.4,1385.8 L 226.7,1387.4 L 214.8,1389.6 L 202.9,1392.1 L 190.9,1394.7 L 177.7,1397.7 L 166.8,1400.2 L 154.7,1402.9 L 142.4,1405.7 L 128.9,1408.8 L 117.8,1411.3 L 105.5,1414.2 L 93.0,1417.0 L 79.3,1420.2 L 68.0,1422.8 L 55.4,1425.7 L 42.7,1428.6 L 30.0,1431.5 L 17.2,1434.4 L 4.4,1437.3 L -8.5,1440.2 L -22.7,1443.5 L -35.5,1446.5 L -46.5,1449.1 L -58.2,1451.9 L -69.3,1454.6 L -79.8,1457.3 L -89.7,1459.8 L -99.1,1462.3 L -108.8,1464.9 L -117.0,1467.3 L -124.0,1469.4 L -131.4,1471.8 L -138.8,1474.7 L -144.5,1477.2 L -150.5,1480.2 L -156.2,1483.6 L -162.0,1487.6 L -166.5,1491.2 L -171.5,1496.0 L -175.9,1500.6 L -179.9,1504.8 L -184.8,1509.7 L -189.0,1513.4 L -193.9,1517.1 L -199.0,1520.5 L -204.9,1523.9 L -210.1,1526.2 L -216.2,1528.5 L -222.5,1530.5 L -229.0,1532.0 L -235.7,1533.1 L -242.5,1533.7 L -249.1,1534.1 L -255.8,1534.4 L -261.0,1534.8 L -266.7,1535.6 L -271.1,1536.5 L -275.5,1537.7 L -279.7,1539.3 L -283.7,1541.2 L -287.3,1543.5 L -290.7,1546.1 L -293.7,1549.0 L -296.7,1552.4 L -299.4,1555.8 L -301.9,1558.8 L -305.0,1561.9 L -308.3,1564.8 L -312.0,1567.4 L -316.0,1569.6 L -320.3,1571.6 L -324.9,1573.2 L -329.7,1574.5 L -334.8,1575.4 L -340.1,1576.0 L -346.2,1576.2 L -351.5,1576.2 L -357.5,1576.1 L -363.7,1575.8 L -370.0,1575.4 L -377.2,1574.9 L -383.3,1574.4 L -390.2,1573.9 L -398.1,1573.3 L -404.8,1572.8 L -412.4,1572.3 L -420.9,1571.7 L -428.1,1571.2 L -437.0,1570.6 L -445.2,1570.0 L -453.6,1569.5 L -461.3,1568.9 L -470.0,1568.4 L -478.8,1567.8 L -487.8,1567.1" fill="none" stroke="url(#g)" stroke-width="380.7" stroke-linecap="round" stroke-linejoin="round"/>
<path d="M -490.5,1566.6 L -505.2,1565.7 L -513.6,1565.1 L -523.1,1564.4 L -532.7,1563.8 L -542.5,1563.1 L -552.3,1562.4 L -563.3,1561.7 L -572.4,1561.1 L -583.5,1560.3 L -593.8,1559.6 L -603.2,1559.0 L -613.7,1558.3 L -624.3,1557.7 L -635.0,1557.0 L -645.8,1556.3 L -656.7,1555.7 L -667.7,1555.0 L -679.9,1554.3 L -690.0,1553.7 L -701.3,1553.0 L -713.8,1552.1 L -724.1,1551.4 L -735.6,1550.5 L -748.4,1549.4 L -760.0,1548.4 L -770.6,1547.5 L -782.4,1546.3 L -794.2,1545.1 L -807.3,1543.7 L -819.2,1542.3 L -830.0,1540.9 L -842.1,1539.3 L -854.2,1537.5 L -866.3,1535.6 L -878.4,1533.4 L -890.6,1531.1 L -902.8,1528.5 L -916.2,1525.5 L -927.2,1522.9 L -939.5,1519.7 L -951.7,1516.4 L -963.9,1512.8 L -977.3,1508.6 L -988.2,1505.0 L -1000.4,1500.8 L -1012.5,1496.4 L -1024.3,1491.8 L -1035.7,1487.0 L -1047.8,1481.5 L -1058.3,1476.3 L -1067.3,1471.3 L -1076.9,1465.6 L -1087.0,1459.0 L -1094.8,1453.3 L -1103.1,1446.7 L -1111.7,1439.0 L -1118.4,1432.4 L -1125.3,1424.8 L -1131.7,1416.9 L -1137.6,1408.8 L -1143.6,1399.6 L -1148.3,1391.8 L -1153.3,1383.1 L -1158.5,1373.6 L -1162.9,1365.3 L -1166.7,1358.2 L -1170.7,1350.9 L -1174.7,1343.3 L -1178.2,1336.9 L -1181.1,1331.4 L -1184.5,1325.1 L -1187.2,1320.2 L -1190.4,1314.7 L -1193.2,1310.0 L -1195.7,1306.1 L -1198.6,1301.7 L -1200.9,1298.4 L -1203.6,1295.0 L -1206.3,1291.8 L -1209.2,1288.8 L -1212.3,1286.2 L -1215.6,1283.9 L -1219.4,1281.8 L -1223.0,1280.1 L -1226.5,1278.7 L -1230.6,1277.4 L -1234.9,1276.3 L -1239.3,1275.5 L -1244.0,1275.0 L -1248.9,1274.8 L -1254.3,1274.8 L -1258.7,1275.0 L -1263.3,1275.1 L -1267.8,1275.1 L -1272.6,1274.6 L -1276.4,1273.9 L -1280.5,1272.8 L -1284.5,1271.4 L -1288.4,1269.6 L -1292.4,1267.5 L -1296.3,1265.0 L -1300.1,1262.2 L -1303.9,1259.1 L -1307.5,1255.7 L -1311.0,1251.9 L -1314.7,1247.4 L -1317.6,1243.5 L -1320.6,1239.0 L -1323.8,1233.7 L -1326.5,1229.1 L -1329.7,1223.2 L -1332.3,1218.3 L -1335.2,1212.7 L -1338.2,1207.0 L -1341.3,1201.1 L -1344.6,1194.9 L -1347.9,1188.6 L -1351.5,1182.2 L -1355.1,1175.6 L -1358.9,1168.8 L -1362.8,1161.9 L -1367.0,1155.0 L -1371.4,1148.1 L -1376.5,1140.4 L -1381.5,1133.5 L -1386.3,1127.2 L -1391.9,1120.3 L -1397.8,1113.6 L -1404.7,1106.2 L -1411.4,1099.6 L -1417.6,1093.7 L -1424.7,1087.2 L -1432.7,1080.1 L -1439.3,1074.1 L -1446.5,1067.2 L -1453.7,1060.1 L -1460.8,1052.6 L -1467.6,1044.9 L -1474.3,1036.8 L -1481.1,1027.5 L -1486.3,1019.6 L -1491.6,1010.5 L -1496.8,1000.2 L -1500.6,991.5 L -1504.3,981.6 L -1507.4,971.5 L -1509.8,961.1 L -1511.7,950.6 L -1513.2,938.8 L -1513.9,929.0 L -1514.3,918.2 L -1514.5,907.6 L -1514.6,897.4 L -1514.6,887.8 L -1514.7,878.7 L -1515.0,870.1 L -1515.4,861.9 L -1516.0,854.2 L -1517.0,846.2 L -1518.1,840.1 L -1519.9,833.0 L -1521.6,827.4 L -1524.0,821.5 L -1526.8,815.8 L -1530.4,809.8 L -1533.7,805.0 L -1537.8,799.8 L -1542.4,794.9 L -1547.8,789.8 L -1552.6,786.0 L -1558.3,782.3 L -1564.4,779.1 L -1570.7,776.3 L -1577.4,774.0 L -1584.3,772.0 L -1591.5,770.2 L -1598.8,768.5 L -1607.2,766.7 L -1614.9,764.9 L -1621.8,763.1 L -1629.6,760.7 L -1637.4,757.8 L -1645.1,754.4 L -1652.6,750.5 L -1659.7,746.1 L -1666.4,741.3 L -1672.7,736.0 L -1679.4,729.7 L -1684.7,724.2 L -1691.0,717.1 L -1695.9,710.9 L -1701.3,703.8 L -1706.5,696.3 L -1712.1,687.8 L -1716.5,680.6 L -1721.7,671.4 L -1725.8,663.7 L -1730.1,654.9 L -1734.4,645.9 L -1738.4,636.7 L -1742.5,627.4 L -1746.4,617.9 L -1750.4,608.2 L -1754.3,598.5 L -1758.1,588.5 L -1761.9,578.5 L -1765.7,568.3 L -1769.3,558.1 L -1772.6,548.2 L -1775.6,538.8 L -1778.2,529.7 L -1780.5,520.9 L -1782.3,512.3 L -1783.7,503.9 L -1784.6,495.0 L -1784.9,487.8 L -1784.5,479.9 L -1783.6,472.1 L -1782.2,464.3 L -1780.2,456.3 L -1777.8,448.3 L -1774.9,440.3 L -1771.6,432.3 L -1767.8,424.4 L -1763.3,415.6 L -1759.2,408.5 L -1753.9,399.8 L -1749.2,392.8 L -1743.1,384.2 L -1737.9,377.2 L -1731.9,369.5 L -1725.7,361.8 L -1718.5,353.4 L -1712.5,346.6 L -1705.5,339.0 L -1698.3,331.5 L -1690.9,324.0 L -1683.3,316.5 L -1675.5,309.1 L -1667.5,301.7 L -1659.3,294.4 L -1650.9,287.0 L -1642.4,279.8 L -1632.7,271.9 L -1624.6,265.4 L -1615.5,258.4 L -1606.1,251.5 L -1596.6,244.6 L -1586.8,237.9 L -1576.9,231.3 L -1566.9,224.8 L -1556.7,218.3 L -1546.5,211.9 L -1536.0,205.5 L -1525.5,199.1 L -1515.0,192.6 L -1504.3,186.2 L -1493.6,179.7 L -1482.8,173.1 L -1471.9,166.5 L -1461.0,159.9 L -1450.0,153.3 L -1438.9,146.8 L -1426.5,139.6 L -1416.4,133.7 L -1405.0,127.3 L -1393.6,120.8 L -1382.0,114.5 L -1370.4,108.2 L -1357.5,101.3 L -1346.9,95.7 L -1335.0,89.5 L -1323.0,83.5 L -1309.7,76.9 L -1298.8,71.7 L -1285.2,65.4 L -1274.0,60.5 L -1261.4,55.2 L -1248.8,50.0 L -1236.0,45.1 L -1221.8,39.8 L -1210.1,35.6 L -1197.1,31.0 L -1182.6,26.2 L -1170.7,22.4 L -1157.4,18.3 L -1142.7,13.9 L -1130.6,10.4 L -1117.2,6.5 L -1103.7,2.6 L -1090.1,-1.3 L -1076.6,-5.1 L -1063.0,-9.0 L -1049.4,-12.9 L -1035.8,-16.7 L -1022.1,-20.6 L -1007.1,-24.8 L -994.8,-28.3 L -981.1,-32.1 L -967.3,-36.0 L -953.6,-39.8 L -939.8,-43.6 L -925.9,-47.5 L -910.7,-51.7 L -898.2,-55.2 L -884.3,-59.0 L -870.4,-62.9 L -856.4,-66.8 L -842.5,-70.7 L -828.5,-74.6 L -814.5,-78.6 L -800.5,-82.6 L -785.0,-87.0 L -772.4,-90.7 L -758.3,-94.8 L -744.2,-98.9 L -730.1,-103.0 L -716.0,-107.2 L -701.9,-111.4 L -687.7,-115.6 L -673.6,-119.8 L -659.4,-124.0 L -645.2,-128.3 L -629.5,-132.9 L -616.7,-136.6 L -602.4,-140.8 L -586.6,-145.2 L -573.6,-148.8 L -559.2,-152.8 L -543.3,-157.1 L -530.3,-160.6 L -515.8,-164.6 L -501.3,-168.6 L -486.8,-172.6 L -472.3,-176.7 L -457.8,-180.8 L -443.3,-184.9 L -428.8,-189.0 L -414.2,-193.2 L -399.7,-197.3 L -385.1,-201.4 L -370.5,-205.6 L -355.9,-209.7 L -341.3,-213.9 L -326.7,-218.0 L -310.6,-222.6 L -297.4,-226.3 L -282.8,-230.5 L -268.1,-234.7 L -253.5,-238.9 L -238.8,-243.0 L -224.1,-247.2 L -209.4,-251.4 L -194.7,-255.6 L -180.0,-259.8 L -163.8,-264.4 L -150.5,-268.2 L -134.3,-272.8 L -121.0,-276.6 L -106.3,-280.8 L -91.5,-285.0 L -76.7,-289.1 L -60.4,-293.8 L -47.3,-297.5 L -33.2,-301.5 L -18.7,-305.7 L -7.5,-308.8 L 4.3,-312.1 L 15.3,-315.2 L 26.8,-318.4 L 35.7,-320.9 L 45.1,-323.5 L 54.0,-326.0 L 62.5,-328.3 L 70.5,-330.5 L 78.2,-332.5 L 85.4,-334.1 L 92.2,-335.5 L 99.3,-336.5 L 104.7,-336.9 L 110.6,-337.0 L 117.0,-336.5 L 122.0,-335.8 L 127.6,-334.5 L 133.2,-332.7 L 139.5,-330.2 L 144.7,-327.8 L 151.0,-324.6 L 156.1,-322.1 L 161.7,-319.6 L 167.4,-317.5 L 173.0,-315.9 L 179.3,-314.7 L 184.5,-314.3 L 190.7,-314.3 L 195.7,-314.9 L 201.0,-316.0 L 206.9,-317.9 L 211.6,-319.9 L 217.3,-322.9 L 222.5,-326.0 L 227.1,-329.3 L 232.2,-333.3 L 237.3,-337.7 L 242.3,-342.5 L 247.4,-347.6 L 252.5,-352.8 L 258.4,-358.7 L 263.5,-363.5 L 270.0,-369.2 L 275.7,-373.7 L 282.3,-378.4 L 289.3,-383.0 L 296.6,-387.4 L 304.2,-391.5 L 312.1,-395.4 L 320.3,-399.0 L 328.7,-402.5 L 338.3,-406.0 L 346.3,-408.7 L 356.3,-412.0 L 364.6,-414.5 L 374.0,-417.3 L 383.5,-419.9 L 393.2,-422.5 L 402.9,-425.1 L 413.8,-428.0 L 422.8,-430.3 L 432.9,-433.0 L 444.2,-436.0 L 453.5,-438.5 L 463.9,-441.2 L 474.4,-444.1 L 486.1,-447.2 L 496.8,-450.2 L 506.5,-452.8 L 517.4,-455.8 L 528.4,-458.8 L 539.4,-461.8 L 550.6,-464.8 L 560.7,-467.6 L 573.1,-470.9 L 585.6,-474.3 L 595.9,-477.1 L 607.4,-480.3 L 619.0,-483.4 L 630.6,-486.6 L 642.3,-489.9 L 655.2,-493.5 L 665.8,-496.5 L 677.6,-499.9 L 689.6,-503.3 L 701.5,-506.8 L 713.6,-510.2 L 725.7,-513.6 L 739.1,-517.3 L 750.2,-520.3 L 762.5,-523.7 L 776.1,-527.4 L 787.3,-530.4 L 801.1,-534.1 L 812.4,-537.2 L 826.3,-541.0 L 837.6,-544.2 L 850.3,-547.6 L 863.1,-551.2 L 875.9,-554.7 L 888.7,-558.2 L 901.6,-561.8 L 914.5,-565.4 L 927.5,-569.0 L 940.4,-572.7 L 954.7,-576.8 L 966.5,-580.2 L 979.6,-584.0 L 992.7,-587.8 L 1005.8,-591.6 L 1019.0,-595.4 L 1032.3,-599.2 L 1045.5,-603.0 L 1060.1,-607.3 L 1072.1,-610.7 L 1085.5,-614.6 L 1098.9,-618.4 L 1112.3,-622.3 L 1125.7,-626.2 L 1139.2,-630.1 L 1152.7,-634.0 L 1167.6,-638.2 L 1181.1,-642.0 L 1193.3,-645.4 L 1206.9,-649.2 L 1220.5,-653.1 L 1234.2,-656.9 L 1247.9,-660.7 L 1261.6,-664.5 L 1275.3,-668.4 L 1289.1,-672.2 L 1304.3,-676.5 L 1318.1,-680.4 L 1330.5,-683.8 L 1345.8,-688.1 L 1358.3,-691.6 L 1372.3,-695.4 L 1386.2,-699.3 L 1401.6,-703.6 L 1414.2,-707.1 L 1428.3,-711.0 L 1442.3,-714.9 L 1456.4,-718.8 L 1471.9,-723.1 L 1484.6,-726.6 L 1500.1,-731.0 L 1512.8,-734.6 L 1527.0,-738.6 L 1542.6,-743.0 L 1555.3,-746.7 L 1570.9,-751.2 L 1583.7,-754.9 L 1597.9,-759.1 L 1612.1,-763.3 L 1626.3,-767.5 L 1640.5,-771.8 L 1654.8,-775.9 L 1670.5,-780.5 L 1683.4,-784.3 L 1697.7,-788.4 L 1712.1,-792.6 L 1726.4,-796.6 L 1740.8,-800.7 L 1756.7,-805.1 L 1768.3,-808.3 L 1785.6,-813.1 L 1798.6,-816.7 L 1813.1,-820.7 L 1827.6,-824.7 L 1841.7,-828.7 L 1855.1,-832.5 L 1867.7,-836.0 L 1879.5,-839.4 L 1891.6,-842.9 L 1900.9,-845.6 L 1911.6,-848.7 L 1919.8,-851.1 L 1929.1,-853.9 L 1936.1,-856.2 L 1943.3,-858.7 L 1950.0,-861.3 L 1956.1,-863.8 L 1961.7,-866.4 L 1966.8,-869.2 L 1972.1,-872.5 L 1976.3,-875.5 L 1981.3,-879.5 L 1985.2,-883.3 L 1989.9,-888.3 L 1993.6,-892.9 L 1997.4,-898.4 L 2001.6,-904.5 L 2004.9,-909.5 L 2008.8,-915.2 L 2012.0,-919.5 L 2015.8,-923.9 L 2019.7,-927.7 L 2023.9,-931.1 L 2028.3,-934.0 L 2032.9,-936.4 L 2037.7,-938.4 L 2042.7,-939.8 L 2047.9,-940.9 L 2054.0,-941.7 L 2059.2,-941.9 L 2065.1,-941.6 L 2071.1,-940.9 L 2077.2,-939.8 L 2083.5,-938.6 L 2090.0,-937.2 L 2096.6,-935.5 L 2103.4,-933.7 L 2110.5,-931.9 L 2118.5,-930.2 L 2125.2,-928.9 L 2132.9,-927.8 L 2141.6,-926.9 L 2148.8,-926.5 L 2157.1,-926.3 L 2166.3,-926.4 L 2174.0,-926.7 L 2183.6,-927.5 L 2191.5,-928.4 L 2200.4,-929.8 L 2209.4,-931.6 L 2218.5,-933.7 L 2227.6,-936.0 L 2236.7,-938.7 L 2246.9,-941.9 L 2255.3,-944.7 L 2264.7,-947.9 L 2274.2,-951.0 L 2284.8,-954.4 L 2294.6,-957.4 L 2303.6,-960.0 L 2313.6,-962.9 L 2323.9,-965.7 L 2334.2,-968.4 L 2344.7,-971.0 L 2355.4,-973.4 L 2366.1,-975.7 L 2377.1,-977.8 L 2388.1,-979.8 L 2399.3,-981.7 L 2411.7,-983.6 L 2421.9,-985.0 L 2433.4,-986.5 L 2445.0,-987.8 L 2456.7,-988.9 L 2468.5,-990.0 L 2480.4,-990.9 L 2493.5,-991.8 L 2504.3,-992.4 L 2517.6,-993.1 L 2528.5,-993.6 L 2542.0,-994.1 L 2553.0,-994.5 L 2565.4,-995.0 L 2579.1,-995.4 L 2590.3,-995.8 L 2602.9,-996.2 L 2616.8,-996.7 L 2628.2,-997.1 L 2641.0,-997.5 L 2653.8,-998.0 L 2666.7,-998.4 L 2679.6,-998.9 L 2693.9,-999.4 L 2705.6,-999.8 L 2718.7,-1000.2 L 2731.8,-1000.6 L 2746.4,-1001.1 L 2759.6,-1001.5 L 2771.6,-1001.8 L 2786.3,-1002.2 L 2798.3,-1002.5 L 2811.7,-1002.7 L 2825.2,-1003.0 L 2838.7,-1003.2 L 2852.2,-1003.4 L 2865.8,-1003.7 L 2879.5,-1003.9 L 2893.1,-1004.2 L 2906.8,-1004.4 L 2920.5,-1004.7 L 2934.3,-1004.9 L 2949.5,-1005.2 L 2963.3,-1005.5 L 2975.7,-1005.7 L 2989.6,-1006.0 L 3003.5,-1006.3 L 3017.4,-1006.6 L 3031.4,-1006.9 L 3046.7,-1007.3 L 3059.3,-1007.6 L 3073.3,-1007.9 L 3087.3,-1008.3 L 3102.7,-1008.7 L 3115.4,-1009.0 L 3129.5,-1009.3 L 3143.6,-1009.7 L 3157.7,-1010.1 L 3171.9,-1010.5 L 3186.1,-1010.8 L 3201.8,-1011.2 L 3214.6,-1011.5 L 3228.9,-1011.9 L 3244.7,-1012.2 L 3257.6,-1012.5 L 3273.4,-1012.8 L 3286.4,-1013.1 L 3300.8,-1013.4 L 3315.3,-1013.7 L 3329.8,-1014.0 L 3345.7,-1014.4 L 3358.8,-1014.6 L 3373.4,-1014.8 L 3388.0,-1015.0 L 3402.6,-1014.9 L 3418.7,-1014.7 L 3431.8,-1014.3 L 3446.5,-1013.7 L 3460.9,-1012.8 L 3474.8,-1011.6 L 3488.1,-1010.2 L 3500.8,-1008.7 L 3513.1,-1007.1 L 3525.9,-1005.2 L 3536.0,-1003.6 L 3546.6,-1001.6 L 3557.7,-999.3 L 3566.3,-997.3 L 3575.3,-995.1 L 3583.6,-992.8 L 3591.4,-990.6 L 3598.5,-988.4 L 3605.0,-986.3 L 3611.0,-984.3 L 3617.0,-982.1 L 3621.5,-980.3 L 3626.1,-978.4 L 3630.7,-976.2 L 3634.2,-974.5 L 3637.7,-972.4 L 3640.9,-970.1 L 3643.8,-967.6 L 3646.4,-964.7 L 3648.5,-961.7 L 3650.4,-958.1 L 3651.5,-955.0 L 3652.4,-951.3 L 3653.0,-947.3 L 3653.2,-943.2 L 3652.9,-938.4 L 3652.2,-933.9 L 3651.2,-929.7 L 3649.7,-924.9 L 3647.8,-919.4 L 3646.0,-914.0 L 3644.3,-909.0 L 3642.3,-903.2 L 3640.3,-897.2 L 3638.0,-890.5 L 3636.1,-884.7 L 3633.9,-878.1 L 3631.7,-871.3 L 3629.3,-863.6 L 3627.2,-857.1 L 3624.9,-849.6 L 3622.6,-842.0 L 3620.3,-834.3 L 3617.9,-826.4 L 3615.5,-818.3 L 3612.8,-809.3 L 3610.5,-801.7 L 3607.9,-793.2 L 3605.3,-784.5 L 3602.6,-775.7 L 3599.8,-766.8 L 3597.1,-757.7 L 3593.9,-747.6 L 3591.3,-739.2 L 3588.4,-729.8 L 3585.1,-719.3 L 3582.4,-710.6 L 3579.4,-700.9 L 3576.0,-690.1 L 3573.2,-681.1 L 3570.0,-671.1 L 3566.7,-661.0 L 3563.5,-650.7 L 3559.8,-639.3 L 3556.8,-629.9 L 3553.4,-619.4 L 3550.0,-608.8 L 3546.2,-597.0 L 3543.1,-587.3 L 3539.6,-576.4 L 3536.2,-565.4 L 3532.7,-554.3 L 3529.1,-543.2 L 3525.6,-532.0 L 3522.0,-520.7 L 3518.5,-509.3 L 3514.9,-497.9 L 3511.3,-486.4 L 3507.6,-474.9 L 3503.6,-462.1 L 3500.3,-451.6 L 3496.7,-439.9 L 3493.0,-428.0 L 3489.3,-416.2 L 3485.2,-403.0 L 3481.9,-392.2 L 3478.1,-380.2 L 3474.3,-368.1 L 3470.5,-355.9 L 3466.6,-343.7 L 3462.6,-331.5 L 3458.5,-319.2 L 3454.4,-306.9 L 3450.0,-294.6 L 3445.5,-282.3 L 3440.3,-268.8 L 3435.9,-257.8 L 3430.3,-244.3 L 3425.5,-233.3 L 3420.0,-221.1 L 3413.7,-207.7 L 3408.4,-196.8 L 3402.4,-184.7 L 3396.2,-172.7 L 3389.2,-159.4 L 3383.5,-148.5 L 3377.0,-136.4 L 3370.4,-124.4 L 3363.0,-111.1 L 3356.9,-100.2 L 3350.1,-88.1 L 3343.3,-75.9 L 3336.4,-63.7 L 3329.5,-51.5 L 3322.6,-39.3 L 3315.7,-27.1 L 3308.7,-14.8 L 3301.8,-2.5 L 3294.8,9.8 L 3287.1,23.4 L 3280.8,34.6 L 3273.8,46.9 L 3266.8,59.3 L 3259.8,71.8 L 3252.1,85.5 L 3245.8,96.7 L 3238.7,109.2 L 3231.6,121.7 L 3224.5,134.2 L 3216.6,148.0 L 3210.0,159.2 L 3202.6,171.6 L 3195.1,184.0 L 3187.4,196.3 L 3179.7,208.6 L 3171.8,220.8 L 3163.8,233.0 L 3154.8,246.4 L 3147.4,257.2 L 3138.2,270.5 L 3129.7,282.4 L 3122.0,293.2 L 3112.5,306.3 L 3103.8,318.2 L 3095.9,328.8 L 3087.0,340.7 L 3078.1,352.5 L 3069.1,364.3 L 3060.1,376.1 L 3051.0,387.8 L 3040.8,400.7 L 3032.5,411.3 L 3023.2,423.0 L 3013.8,434.6 L 3004.4,446.3 L 2994.0,459.1 L 2985.5,469.6 L 2976.1,481.3 L 2965.7,494.2 L 2956.3,506.0 L 2947.8,516.5 L 2938.3,528.3 L 2928.8,540.0 L 2919.2,551.7 L 2909.6,563.5 L 2900.0,575.1 L 2888.3,589.1 L 2880.5,598.4 L 2870.8,609.8 L 2861.3,620.8 L 2852.2,631.3 L 2843.4,641.2 L 2834.7,650.6 L 2826.2,659.3 L 2817.7,667.5 L 2809.3,675.3 L 2800.0,683.3 L 2792.3,689.5 L 2783.5,695.8 L 2774.4,701.5 L 2764.9,706.9 L 2755.2,711.8 L 2745.2,716.1 L 2734.1,720.2 L 2724.9,723.1 L 2714.9,726.0 L 2705.1,728.6 L 2695.7,730.9 L 2686.8,733.1 L 2677.6,735.4 L 2670.3,737.3 L 2662.8,739.4 L 2655.0,741.6 L 2649.1,743.3 L 2643.1,745.2 L 2637.6,747.1 L 2633.1,748.8 L 2628.0,751.2 L 2623.7,753.5 L 2619.6,756.1 L 2615.9,759.0 L 2612.8,761.9 L 2609.4,765.8 L 2606.9,769.6 L 2604.7,773.6 L 2603.0,777.9 L 2601.8,782.4 L 2600.9,787.2 L 2600.4,792.8 L 2600.3,797.6 L 2600.5,803.2 L 2601.1,808.9 L 2602.1,814.7 L 2603.4,820.7 L 2605.2,826.8 L 2607.3,833.1 L 2609.6,839.5 L 2612.4,846.8 L 2614.9,853.6 L 2617.3,859.9 L 2620.0,867.1 L 2622.7,874.4 L 2625.8,882.7 L 2628.3,889.6 L 2631.1,897.4 L 2634.0,905.4 L 2637.0,913.6 L 2640.0,921.9 L 2643.2,930.3 L 2646.4,938.9 L 2649.8,947.5 L 2653.2,956.1 L 2656.5,964.4 L 2659.8,972.3 L 2662.8,979.8 L 2665.7,986.9 L 2668.4,993.7 L 2670.9,1000.1 L 2673.3,1006.3 L 2675.5,1012.2 L 2677.6,1017.9 L 2679.6,1023.3 L 2681.4,1028.5 L 2683.1,1033.4 L 2684.7,1038.1 L 2686.1,1042.5 L 2687.3,1046.7 L 2688.2,1050.7 L 2688.7,1054.5 L 2688.9,1058.1 L 2688.7,1062.0 L 2688.1,1065.1 L 2687.1,1068.3 L 2685.6,1071.6 L 2683.9,1074.4 L 2682.1,1076.8 L 2679.8,1079.3 L 2677.2,1081.6 L 2674.2,1083.9 L 2670.9,1086.0 L 2667.3,1087.9 L 2663.5,1089.6 L 2659.3,1091.2 L 2654.4,1092.7 L 2650.1,1093.8 L 2645.1,1094.8 L 2639.2,1095.7 L 2634.1,1096.5 L 2628.2,1097.4 L 2622.2,1098.5 L 2616.0,1099.5 L 2609.6,1100.7 L 2603.0,1101.8 L 2596.1,1103.0 L 2589.0,1104.1 L 2581.7,1105.3 L 2574.3,1106.5 L 2566.6,1107.7 L 2558.8,1109.1 L 2550.8,1110.5 L 2542.7,1111.9 L 2534.4,1113.4 L 2526.0,1114.9 L 2517.4,1116.4 L 2507.8,1118.2 L 2499.8,1119.7 L 2490.8,1121.4 L 2481.6,1123.1 L 2471.4,1125.0 L 2462.9,1126.6 L 2453.4,1128.4 L 2443.7,1130.3 L 2434.0,1132.1 L 2423.1,1134.2 L 2414.1,1135.9 L 2403.0,1138.0 L 2392.8,1140.0 L 2383.5,1141.8 L 2372.0,1144.0 L 2361.5,1146.0 L 2351.9,1147.9 L 2341.2,1150.0 L 2330.4,1152.1 L 2319.4,1154.3 L 2308.4,1156.6 L 2297.3,1158.8 L 2286.1,1161.1 L 2273.7,1163.7 L 2263.5,1165.8 L 2252.1,1168.2 L 2240.6,1170.7 L 2229.0,1173.2 L 2217.4,1175.8 L 2205.7,1178.4 L 2192.8,1181.4 L 2182.2,1183.9 L 2169.2,1187.1 L 2158.6,1189.7 L 2145.5,1193.2 L 2134.7,1196.1 L 2122.8,1199.7 L 2110.8,1203.4 L 2098.9,1207.4 L 2086.9,1211.6 L 2075.0,1216.0 L 2061.9,1221.0 L 2051.1,1225.3 L 2038.0,1230.7 L 2027.3,1235.2 L 2015.3,1240.4 L 2003.3,1245.7 L 1990.1,1251.6 L 1979.3,1256.5 L 1967.2,1262.0 L 1953.9,1268.0 L 1942.9,1272.9 L 1929.5,1279.0 L 1918.4,1283.9 L 1906.1,1289.4 L 1893.7,1295.0 L 1881.3,1300.5 L 1868.8,1306.1 L 1855.1,1312.3 L 1842.5,1318.0 L 1831.2,1323.1 L 1818.6,1328.8 L 1806.0,1334.5 L 1792.1,1340.8 L 1780.7,1346.0 L 1768.0,1351.9 L 1755.4,1357.8 L 1742.8,1364.0 L 1730.2,1370.3 L 1717.8,1376.7 L 1704.1,1384.0 L 1693.0,1390.1 L 1680.7,1397.1 L 1668.5,1404.3 L 1656.4,1411.8 L 1644.4,1419.4 L 1632.5,1427.1 L 1620.6,1435.0 L 1607.7,1443.5 L 1597.5,1450.2 L 1585.6,1458.0 L 1576.2,1463.9 L 1566.1,1470.1 L 1556.4,1476.0 L 1546.1,1481.9 L 1537.0,1487.0 L 1529.1,1491.2 L 1520.5,1495.6 L 1512.1,1499.7 L 1503.0,1503.9 L 1495.8,1507.0 L 1487.7,1510.2 L 1479.8,1513.0 L 1471.8,1515.4 L 1463.8,1517.4 L 1455.7,1518.9 L 1447.7,1519.9 L 1438.8,1520.3 L 1431.4,1520.3 L 1423.0,1519.8 L 1413.6,1518.9 L 1405.9,1517.8 L 1397.5,1516.0 L 1389.2,1513.7 L 1380.3,1510.6 L 1372.3,1507.2 L 1365.1,1503.8 L 1357.2,1499.7 L 1349.4,1495.0 L 1341.7,1490.0 L 1334.1,1484.5 L 1326.7,1478.7 L 1319.5,1472.5 L 1312.4,1465.9 L 1305.5,1459.0 L 1298.7,1451.8 L 1291.9,1444.4 L 1285.1,1436.9 L 1277.7,1428.8 L 1271.7,1422.5 L 1264.3,1415.2 L 1258.1,1409.7 L 1251.1,1404.0 L 1243.8,1398.6 L 1236.4,1393.7 L 1228.8,1389.3 L 1220.9,1385.4 L 1212.8,1382.0 L 1204.4,1378.9 L 1195.7,1376.1 L 1185.9,1373.4 L 1177.7,1371.5 L 1168.4,1369.8 L 1159.1,1368.6 L 1149.7,1368.0 L 1140.3,1367.9 L 1130.7,1368.0 L 1121.0,1368.2 L 1111.2,1368.6 L 1101.3,1369.1 L 1090.4,1369.9 L 1080.8,1370.8 L 1072.4,1371.8 L 1063.4,1373.2 L 1054.6,1374.7 L 1045.2,1376.9 L 1037.5,1379.0 L 1029.2,1381.7 L 1020.9,1384.9 L 1012.6,1388.5 L 1004.5,1392.5 L 995.6,1397.4 L 988.4,1401.8 L 980.6,1407.1 L 973.0,1412.9 L 965.7,1419.0 L 958.5,1425.6 L 951.6,1432.5 L 945.0,1439.5 L 938.6,1446.3 L 931.7,1453.3 L 926.0,1458.7 L 919.7,1464.2 L 913.1,1469.3 L 906.4,1473.9 L 899.4,1478.1 L 891.4,1482.4 L 884.7,1485.5 L 877.0,1488.6 L 869.1,1491.2 L 861.0,1493.3 L 852.0,1495.0 L 844.5,1496.0 L 836.2,1496.6 L 827.0,1496.8 L 818.6,1496.5 L 811.1,1495.8 L 802.8,1494.5 L 794.5,1492.9 L 786.3,1490.9 L 777.2,1488.2 L 769.1,1485.2 L 762.0,1482.1 L 754.3,1478.2 L 747.1,1473.8 L 740.1,1468.9 L 733.2,1463.4 L 726.6,1457.5 L 719.4,1450.6 L 713.7,1444.7 L 707.5,1437.9 L 701.6,1431.2 L 695.8,1424.7 L 690.1,1418.5 L 684.2,1412.8 L 678.1,1407.3 L 671.8,1402.3 L 664.6,1397.3 L 658.5,1393.6 L 651.4,1389.9 L 643.2,1386.1 L 636.3,1383.2 L 628.4,1380.5 L 620.4,1378.1 L 612.3,1376.3 L 604.0,1375.0 L 595.6,1374.1 L 586.2,1373.6 L 578.3,1373.6 L 569.5,1373.8 L 559.5,1374.4 L 551.3,1375.1 L 541.1,1376.1 L 532.6,1377.0 L 523.0,1378.1 L 512.4,1379.4 L 503.6,1380.4 L 493.7,1381.7 L 483.8,1382.9 L 473.7,1384.1 L 463.5,1385.2 L 453.2,1386.3 L 442.7,1387.2 L 432.1,1388.0 L 420.4,1388.6 L 410.6,1388.9 L 399.7,1389.0 L 388.7,1388.8 L 377.7,1388.3 L 365.4,1387.5 L 354.1,1386.5 L 344.0,1385.5 L 332.6,1384.4 L 321.1,1383.5 L 309.5,1382.8 L 297.8,1382.3 L 286.0,1382.2 L 274.2,1382.5 L 262.4,1383.1 L 249.3,1384.3 L 237.4,1385.8 L 226.7,1387.4 L 214.8,1389.6 L 202.9,1392.1 L 190.9,1394.7 L 177.7,1397.7 L 166.8,1400.2 L 154.7,1402.9 L 142.4,1405.7 L 128.9,1408.8 L 117.8,1411.3 L 105.5,1414.2 L 93.0,1417.0 L 79.3,1420.2 L 68.0,1422.8 L 55.4,1425.7 L 42.7,1428.6 L 30.0,1431.5 L 17.2,1434.4 L 4.4,1437.3 L -8.5,1440.2 L -22.7,1443.5 L -35.5,1446.5 L -46.5,1449.1 L -58.2,1451.9 L -69.3,1454.6 L -79.8,1457.3 L -89.7,1459.8 L -99.1,1462.3 L -108.8,1464.9 L -117.0,1467.3 L -124.0,1469.4 L -131.4,1471.8 L -138.8,1474.7 L -144.5,1477.2 L -150.5,1480.2 L -156.2,1483.6 L -162.0,1487.6 L -166.5,1491.2 L -171.5,1496.0 L -175.9,1500.6 L -179.9,1504.8 L -184.8,1509.7 L -189.0,1513.4 L -193.9,1517.1 L -199.0,1520.5 L -204.9,1523.9 L -210.1,1526.2 L -216.2,1528.5 L -222.5,1530.5 L -229.0,1532.0 L -235.7,1533.1 L -242.5,1533.7 L -249.1,1534.1 L -255.8,1534.4 L -261.0,1534.8 L -266.7,1535.6 L -271.1,1536.5 L -275.5,1537.7 L -279.7,1539.3 L -283.7,1541.2 L -287.3,1543.5 L -290.7,1546.1 L -293.7,1549.0 L -296.7,1552.4 L -299.4,1555.8 L -301.9,1558.8 L -305.0,1561.9 L -308.3,1564.8 L -312.0,1567.4 L -316.0,1569.6 L -320.3,1571.6 L -324.9,1573.2 L -329.7,1574.5 L -334.8,1575.4 L -340.1,1576.0 L -346.2,1576.2 L -351.5,1576.2 L -357.5,1576.1 L -363.7,1575.8 L -370.0,1575.4 L -377.2,1574.9 L -383.3,1574.4 L -390.2,1573.9 L -398.1,1573.3 L -404.8,1572.8 L -412.4,1572.3 L -420.9,1571.7 L -428.1,1571.2 L -437.0,1570.6 L -445.2,1570.0 L -453.6,1569.5 L -461.3,1568.9 L -470.0,1568.4 L -478.8,1567.8 L -487.8,1567.1" fill="none" stroke="#ffffff" stroke-opacity="0.92" stroke-width="38.1" stroke-linecap="round" stroke-linejoin="round"/>
<line x1="-467.4" y1="1224.8" x2="-513.7" y2="1908.4" stroke="#ffffff" stroke-width="53.3" stroke-linecap="round"/>
</svg>