<svg xmlns="http://www.w3.org/2000/svg" viewBox="-814.8 -268.7 1107.2 962.8">
<defs><linearGradient id="g" gradientUnits="userSpaceOnUse" x1="-760.3" y1="-214.2" x2="237.9" y2="639.6">
<stop offset="0" stop-color="#1c9fe0"/><stop offset="1" stop-color="#0b1f44"/></linearGradient></defs>
<path d="M -646.3,254.5 L -642.8,257.0 L -638.9,259.8 L -635.4,262.4 L -631.4,265.3 L -627.7,267.9 L -624.1,270.6 L -620.0,273.5 L -616.2,276.2 L -612.5,279.0 L -608.3,282.1 L -604.5,284.9 L -600.2,288.0 L -596.4,290.9 L -592.5,293.8 L -588.1,297.1 L -584.2,300.1 L -580.2,303.1 L -575.7,306.4 L -571.7,309.5 L -567.6,312.6 L -563.1,316.0 L -560.8,317.8 L -556.7,320.9 L -554.4,322.7 L -550.2,325.9 L -547.9,327.6 L -543.6,330.9 L -541.3,332.7 L -537.0,335.9 L -534.7,337.7 L -530.4,341.0 L -528.0,342.8 L -525.6,344.6 L -521.3,348.0 L -518.9,349.8 L -516.5,351.7 L -512.1,355.0 L -507.7,358.4 L -505.2,360.3 L -502.8,362.2 L -498.3,365.6 L -495.9,367.5 L -491.4,371.0 L -488.9,372.9 L -484.4,376.4 L -481.9,378.3 L -479.3,380.2 L -476.8,382.2 L -472.2,385.7 L -467.7,389.3 L -465.1,391.3 L -460.5,394.9 L -457.9,396.8 L -453.3,400.4 L -450.7,402.5 L -448.1,404.5 L -443.4,408.1 L -438.7,411.8 L -436.1,413.9 L -431.4,417.6 L -428.8,419.6 L -426.1,421.7 L -421.4,425.4 L -418.7,427.5 L -413.9,431.2 L -411.3,433.3 L -408.6,435.4 L -403.8,439.2 L -398.9,443.0 L -396.2,445.1 L -391.4,448.9 L -388.7,451.1 L -386.0,453.2 L -381.1,457.0 L -378.4,459.1 L -375.6,461.2 L -370.7,465.1 L -365.8,468.9 L -363.0,471.1 L -358.1,474.9 L -355.3,477.1 L -350.3,480.9 L -347.6,483.1 L -344.8,485.2 L -339.8,489.1 L -337.0,491.3 L -332.0,495.2 L -329.2,497.3 L -324.2,501.2 L -321.4,503.4 L -316.3,507.3 L -313.5,509.5 L -308.4,513.4 L -305.6,515.6 L -302.8,517.8 L -299.9,520.0 L -297.7,521.7 L -294.8,523.9 L -292.6,525.6 L -289.7,527.8 L -286.9,530.0 L -281.9,533.8 L -279.2,535.9 L -274.4,539.5 L -271.9,541.5 L -267.3,545.0 L -264.8,546.8 L -262.4,548.7 L -260.0,550.5 L -255.8,553.7 L -251.8,556.8 L -247.9,559.8 L -243.7,563.0 L -240.0,565.8 L -236.4,568.6 L -232.5,571.5 L -229.1,574.1 L -225.4,577.0 L -222.1,579.5 L -218.9,581.9 L -215.5,584.5 L -212.5,586.8 L -209.5,589.1 L -206.2,591.6 L -203.2,593.8 L -200.0,596.3 L -197.1,598.5 L -194.2,600.7 L -191.0,603.1 L -188.2,605.2 L -185.4,607.4 L -182.2,609.7 L -179.4,611.8 L -176.3,614.0 L -173.6,615.9 L -170.8,617.8 L -167.9,619.7 L -165.3,621.3 L -162.5,623.0 L -159.0,625.2 L -156.4,626.7 L -152.8,628.8 L -149.5,630.7 L -146.2,632.5 L -143.2,634.1 L -140.2,635.6 L -137.0,637.0 L -133.2,638.3 L -129.5,639.1 L -125.2,639.6 L -121.2,639.5 L -117.7,638.7 L -114.5,637.2 L -111.7,635.2 L -109.5,632.6 L -107.7,629.5 L -106.5,626.0 L -105.7,622.0 L -105.4,617.9 L -105.6,613.3 L -106.2,609.8 L -107.3,606.0 L -108.8,602.2 L -110.1,599.3 L -111.5,596.3 L -113.0,593.2 L -114.7,589.7 L -116.2,586.5 L -117.9,583.0 L -119.7,579.2 L -121.0,576.5 L -122.8,572.5 L -124.8,568.4 L -126.2,565.7 L -127.5,563.0 L -129.1,559.9 L -130.6,557.1 L -132.3,553.8 L -133.8,550.9 L -135.4,547.8 L -137.2,544.4 L -138.8,541.2 L -140.7,537.6 L -142.4,534.3 L -144.4,530.5 L -146.1,527.1 L -147.8,523.6 L -149.6,520.0 L -151.5,516.0 L -153.1,512.5 L -154.8,508.4 L -156.3,504.8 L -157.6,501.2 L -158.9,497.1 L -160.0,493.4 L -161.0,489.7 L -162.0,485.6 L -162.8,481.9 L -163.6,477.8 L -164.3,474.1 L -164.9,470.4 L -165.4,466.4 L -165.9,462.8 L -166.3,459.2 L -166.7,455.2 L -167.1,449.6 L -167.3,444.1 L -167.3,438.7 L -167.1,433.3 L -166.6,427.9 L -166.2,424.1 L -165.4,419.2 L -164.7,415.4 L -164.0,412.1 L -163.1,408.3 L -162.2,405.0 L -161.2,401.6 L -159.9,397.9 L -158.7,394.5 L -157.3,390.8 L -155.8,387.4 L -154.2,384.2 L -152.3,380.6 L -150.5,377.4 L -148.3,373.8 L -146.1,370.7 L -143.9,367.6 L -141.6,364.5 L -138.8,361.0 L -136.3,357.9 L -133.3,354.6 L -130.5,351.5 L -127.3,348.2 L -124.2,345.3 L -121.1,342.4 L -117.8,339.6 L -114.1,336.5 L -110.6,333.8 L -106.6,330.9 L -103.0,328.2 L -99.2,325.6 L -95.0,322.8 L -91.2,320.3 L -87.2,317.9 L -82.7,315.2 L -78.7,312.8 L -74.0,310.1 L -69.9,307.8 L -65.7,305.4 L -61.0,302.7 L -56.8,300.3 L -52.6,297.9 L -48.0,295.4 L -44.1,293.1 L -39.8,290.6 L -36.0,288.4 L -32.4,286.3 L -28.5,283.9 L -25.1,281.9 L -21.4,279.6 L -18.1,277.5 L -15.0,275.5 L -11.5,273.2 L -8.5,271.2 L -5.5,269.1 L -2.2,266.9 L 0.7,264.8 L 3.8,262.4 L 6.6,260.3 L 9.4,258.2 L 12.4,255.7 L 15.0,253.5 L 17.6,251.2 L 20.4,248.6 L 22.8,246.2 L 25.1,243.8 L 27.6,241.0 L 29.8,238.4 L 32.2,235.4 L 34.4,232.6 L 36.7,229.4 L 38.8,226.6 L 40.8,223.6 L 43.0,220.2 L 45.0,217.1 L 47.1,213.9 L 49.3,210.4 L 51.3,207.1 L 53.4,203.5 L 55.2,200.1 L 57.0,196.8 L 58.8,193.3 L 60.7,189.5 L 62.5,186.1 L 64.7,182.3 L 66.7,178.9 L 68.8,175.6 L 71.2,172.0 L 73.5,168.9 L 76.1,165.4 L 78.6,162.4 L 81.1,159.5 L 84.0,156.3 L 86.7,153.5 L 89.4,150.9 L 92.6,148.0 L 95.5,145.6 L 98.4,143.2 L 101.8,140.7 L 105.2,138.3 L 108.3,136.2 L 111.5,134.3 L 114.8,132.3 L 118.3,130.1 L 121.6,128.1 L 125.2,125.9 L 128.3,123.9 L 131.8,121.7 L 134.7,119.6 L 137.6,117.5 L 140.3,115.4 L 143.2,113.0 L 145.7,110.8 L 148.3,108.2 L 150.5,105.8 L 152.7,103.4 L 154.9,100.5 L 156.9,97.9 L 158.7,95.2 L 160.7,92.2 L 162.4,89.4 L 164.1,86.2 L 165.5,83.3 L 166.9,80.3 L 168.3,76.9 L 169.5,73.8 L 170.5,70.7 L 171.7,67.1 L 172.6,63.9 L 173.5,60.5 L 174.6,56.8 L 175.5,53.4 L 176.6,49.5 L 177.6,46.0 L 178.8,42.1 L 179.8,38.6 L 181.0,35.2 L 182.1,31.8 L 183.5,28.1 L 184.8,24.8 L 186.2,21.2 L 187.6,18.1 L 189.2,14.6 L 190.7,11.6 L 192.3,8.7 L 193.8,5.9 L 195.6,2.9 L 197.3,0.3 L 199.2,-2.5 L 200.9,-4.9 L 202.8,-7.5 L 205.3,-10.7 L 207.3,-13.0 L 210.1,-16.1 L 212.8,-19.1 L 215.4,-21.9 L 217.9,-24.7 L 220.3,-27.4 L 222.7,-30.0 L 225.2,-32.8 L 227.2,-35.1 L 229.3,-37.6 L 231.1,-40.2 L 232.7,-43.1 L 234.0,-45.8 L 235.3,-49.3 L 236.3,-53.0 L 237.0,-56.8 L 237.6,-61.2 L 237.9,-65.8 L 237.9,-70.3 L 237.7,-74.1 L 237.4,-78.2 L 237.1,-82.3 L 236.7,-86.9 L 236.1,-91.7 L 235.5,-95.3 L 234.8,-99.1 L 233.9,-102.9 L 233.0,-106.9 L 231.9,-111.0 L 230.7,-115.2 L 229.4,-119.5 L 228.4,-122.6 L 226.8,-126.9 L 224.9,-131.0 L 223.0,-134.9 L 220.8,-138.7 L 218.5,-142.1 L 216.1,-145.3 L 213.6,-148.3 L 211.1,-151.0 L 208.6,-153.4 L 206.3,-155.7 L 204.2,-157.8 L 201.6,-160.5 L 199.2,-163.3 L 196.9,-166.2 L 195.0,-169.2 L 193.3,-172.4 L 191.9,-175.8 L 190.8,-179.3 L 189.8,-182.8 L 188.7,-186.6 L 187.2,-190.4 L 185.8,-193.1 L 184.3,-195.6 L 182.6,-197.9 L 180.0,-200.7 L 177.3,-203.1 L 174.6,-205.0 L 171.5,-206.6 L 168.1,-207.9 L 164.5,-209.1 L 160.9,-210.1 L 156.8,-211.2 L 152.3,-212.1 L 148.8,-212.8 L 145.2,-213.3 L 141.4,-213.8 L 137.2,-214.1 L 131.9,-214.2 L 127.7,-214.2 L 123.3,-214.1 L 118.7,-213.9 L 113.9,-213.7 L 109.0,-213.3 L 104.0,-213.0 L 98.9,-212.6 L 95.1,-212.3 L 89.6,-211.9 L 84.0,-211.4 L 78.3,-210.9 L 74.5,-210.6 L 70.3,-210.2 L 66.4,-209.9 L 62.5,-209.5 L 58.1,-209.1 L 54.0,-208.7 L 49.9,-208.3 L 45.4,-207.8 L 41.2,-207.4 L 36.5,-206.8 L 32.1,-206.3 L 27.8,-205.8 L 22.9,-205.2 L 18.5,-204.7 L 14.0,-204.1 L 9.0,-203.4 L 4.0,-202.7 L 0.1,-202.2 L -4.7,-201.5 L -8.9,-200.9 L -13.5,-200.2 L -17.5,-199.7 L -21.8,-199.0 L -25.6,-198.4 L -29.3,-197.9 L -33.3,-197.2 L -36.8,-196.7 L -40.3,-196.1 L -44.1,-195.5 L -49.4,-194.6 L -54.6,-193.7 L -59.6,-192.8 L -64.4,-191.7 L -68.9,-190.6 L -73.2,-189.3 L -77.3,-187.9 L -81.2,-186.4 L -84.8,-184.8 L -88.2,-183.0 L -91.3,-181.1 L -94.2,-179.1 L -96.9,-176.9 L -99.4,-174.5 L -101.5,-172.2 L -103.3,-169.9 L -105.2,-166.8 L -106.6,-163.5 L -107.5,-160.2 L -108.0,-156.4 L -107.8,-152.2 L -106.8,-148.6 L -105.2,-145.6 L -102.8,-143.2 L -100.3,-141.4 L -97.5,-139.4 L -95.0,-137.6 L -92.4,-135.7 L -89.6,-133.6 L -86.5,-131.3 L -84.1,-129.4 L -81.6,-127.5 L -79.0,-125.4 L -76.3,-123.2 L -73.5,-120.9 L -70.6,-118.4 L -67.6,-115.8 L -64.5,-113.0 L -62.3,-111.0 L -59.1,-107.9 L -57.0,-105.9 L -54.6,-103.6 L -52.5,-101.4 L -50.3,-99.2 L -47.8,-96.7 L -45.6,-94.3 L -43.3,-91.9 L -40.8,-89.2 L -38.5,-86.6 L -36.1,-84.0 L -33.5,-81.0 L -31.2,-78.3 L -28.8,-75.4 L -26.7,-72.8 L -24.4,-69.9 L -22.5,-67.3 L -20.6,-64.8 L -18.6,-62.0 L -16.9,-59.5 L -15.2,-57.1 L -13.3,-54.4 L -10.8,-50.7 L -8.5,-47.1 L -6.2,-43.6 L -4.1,-40.2 L -2.2,-36.8 L -0.6,-33.4 L 0.9,-30.0 L 2.1,-26.7 L 3.2,-23.3 L 4.1,-20.0 L 4.8,-16.5 L 5.3,-12.3 L 5.2,-7.9 L 4.7,-3.6 L 3.8,0.3 L 2.3,4.2 L 1.0,6.9 L -0.6,9.4 L -2.5,11.8 L -4.5,14.0 L -6.8,16.2 L -9.2,18.1 L -12.1,20.1 L -14.8,21.6 L -18.1,23.2 L -21.3,24.5 L -24.6,25.5 L -28.0,26.3 L -32.6,27.0 L -37.0,27.2 L -41.6,26.8 L -46.2,26.1 L -49.7,25.2 L -53.2,24.1 L -56.8,22.8 L -60.4,21.3 L -64.0,19.7 L -67.7,17.8 L -71.4,15.7 L -74.0,14.0 L -77.6,11.4 L -79.8,9.6 L -82.1,7.7 L -84.5,5.5 L -86.7,3.4 L -89.0,0.9 L -91.0,-1.4 L -93.0,-3.8 L -95.0,-6.6 L -96.8,-9.1 L -98.4,-11.7 L -100.2,-14.7 L -101.7,-17.4 L -103.3,-20.4 L -104.8,-23.1 L -106.2,-25.7 L -107.8,-28.6 L -110.0,-32.6 L -112.1,-36.4 L -114.2,-40.1 L -116.2,-43.6 L -118.1,-46.9 L -120.1,-50.2 L -122.0,-53.3 L -124.0,-56.4 L -126.0,-59.4 L -128.2,-62.3 L -130.5,-65.0 L -132.9,-67.5 L -135.6,-70.2 L -138.1,-72.6 L -140.4,-74.7 L -143.2,-77.1 L -145.8,-79.2 L -148.5,-81.1 L -151.2,-83.0 L -154.0,-84.7 L -156.8,-86.3 L -159.6,-87.7 L -162.5,-89.0 L -165.5,-90.1 L -169.6,-91.3 L -173.8,-92.1 L -177.8,-92.6 L -182.2,-92.7 L -186.5,-92.6 L -190.8,-92.2 L -194.6,-91.6 L -198.3,-90.7 L -201.6,-89.6 L -204.6,-88.3 L -207.3,-86.8 L -209.9,-85.0 L -212.2,-82.9 L -214.2,-80.6 L -215.9,-77.5 L -217.1,-73.8 L -217.5,-70.1 L -217.2,-66.2 L -216.2,-62.1 L -215.0,-59.0 L -213.5,-55.7 L -211.6,-52.4 L -210.0,-49.9 L -208.3,-47.4 L -206.4,-44.8 L -204.4,-42.0 L -202.1,-39.0 L -199.9,-36.0 L -197.6,-32.9 L -195.2,-29.6 L -192.7,-26.2 L -190.1,-22.6 L -188.4,-20.3 L -186.6,-17.9 L -184.6,-15.2 L -182.8,-12.7 L -180.7,-9.8 L -178.8,-7.2 L -176.6,-4.2 L -174.6,-1.5 L -172.6,1.2 L -170.5,4.1 L -168.1,7.3 L -166.0,10.2 L -163.5,13.6 L -161.3,16.6 L -159.0,19.7 L -156.5,23.1 L -154.2,26.2 L -152.0,29.2 L -149.6,32.5 L -147.4,35.5 L -145.1,38.7 L -143.0,41.6 L -141.1,44.5 L -138.9,47.7 L -137.2,50.6 L -135.5,53.5 L -133.7,56.7 L -132.2,59.6 L -130.7,62.8 L -129.4,65.7 L -128.2,68.5 L -127.0,71.7 L -125.5,76.2 L -124.3,80.7 L -123.2,85.2 L -122.4,89.8 L -121.9,94.4 L -121.5,99.1 L -121.4,103.9 L -121.4,108.7 L -121.8,113.6 L -122.3,118.5 L -122.8,122.0 L -123.5,127.0 L -124.3,132.1 L -125.3,137.2 L -126.4,142.3 L -127.2,145.5 L -128.1,149.0 L -129.1,152.2 L -130.3,155.6 L -131.4,158.6 L -132.6,161.6 L -134.1,164.8 L -135.6,167.6 L -137.1,170.3 L -139.0,173.3 L -140.8,175.9 L -142.7,178.5 L -145.0,181.3 L -147.1,183.7 L -149.6,186.3 L -151.9,188.6 L -154.4,190.8 L -157.2,193.1 L -159.8,195.2 L -162.9,197.4 L -165.7,199.3 L -168.5,201.2 L -171.5,203.1 L -174.8,205.1 L -178.2,207.0 L -181.4,208.8 L -184.6,210.5 L -187.8,212.2 L -191.5,214.1 L -194.9,215.7 L -198.7,217.5 L -202.1,219.0 L -205.5,220.4 L -209.4,221.9 L -212.8,223.1 L -216.3,224.1 L -220.2,225.2 L -223.7,226.1 L -227.7,226.9 L -231.2,227.5 L -234.7,228.0 L -238.6,228.4 L -244.1,228.8 L -249.7,229.0 L -255.3,229.1 L -261.1,228.9 L -266.9,228.5 L -270.7,228.2 L -275.0,227.8 L -278.9,227.4 L -283.2,226.9 L -287.1,226.4 L -291.1,225.8 L -295.4,225.0 L -299.4,224.2 L -303.3,223.3 L -307.6,222.1 L -311.4,221.0 L -315.2,219.7 L -319.3,218.1 L -322.9,216.6 L -326.9,214.8 L -330.4,213.1 L -334.4,211.0 L -337.9,209.0 L -341.4,206.9 L -345.2,204.3 L -348.6,201.9 L -351.9,199.4 L -355.6,196.4 L -358.9,193.6 L -362.5,190.4 L -365.6,187.3 L -368.7,184.1 L -371.7,180.7 L -374.9,176.9 L -377.8,173.3 L -380.9,169.3 L -383.6,165.6 L -386.6,161.3 L -389.3,157.4 L -391.9,153.4 L -394.8,148.8 L -397.3,144.7 L -399.8,140.5 L -402.6,135.8 L -405.2,131.4 L -407.7,127.2 L -410.5,122.5 L -413.0,118.4 L -415.7,114.0 L -418.2,110.1 L -420.8,106.0 L -423.2,102.3 L -425.5,98.8 L -427.7,95.4 L -430.2,91.7 L -432.3,88.5 L -434.4,85.3 L -436.7,81.9 L -438.8,78.9 L -441.0,75.7 L -443.0,73.0 L -445.0,70.3 L -447.2,67.4 L -449.2,64.9 L -451.4,62.2 L -453.4,59.9 L -455.4,57.7 L -457.6,55.4 L -460.8,52.4 L -464.0,49.7 L -467.2,47.2 L -470.5,44.9 L -473.7,42.9 L -476.9,41.0 L -480.0,39.4 L -483.1,38.0 L -486.2,36.7 L -489.3,35.5 L -492.4,34.6 L -496.8,33.6 L -501.1,33.0 L -505.6,32.9 L -510.1,33.1 L -514.0,33.4 L -518.8,34.0 L -522.6,34.7 L -526.6,35.6 L -530.7,36.6 L -535.3,37.9 L -539.3,39.0 L -542.6,40.0 L -547.2,41.5 L -550.2,42.5 L -553.6,43.6 L -556.8,44.6 L -560.0,45.7 L -563.7,47.0 L -567.0,48.1 L -570.8,49.4 L -574.3,50.6 L -578.2,52.0 L -581.8,53.3 L -585.4,54.6 L -589.5,56.2 L -593.2,57.6 L -596.9,59.1 L -600.7,60.6 L -605.0,62.4 L -609.2,64.2 L -613.1,65.9 L -617.1,67.6 L -621.5,69.5 L -625.5,71.3 L -629.6,73.1 L -634.2,75.2 L -638.4,77.0 L -642.5,78.8 L -647.2,80.9 L -651.5,82.8 L -655.8,84.8 L -660.5,86.8 L -664.7,88.7 L -669.2,90.7 L -673.2,92.5 L -677.1,94.2 L -681.3,96.1 L -685.0,97.8 L -688.6,99.4 L -692.4,101.1 L -695.8,102.6 L -699.5,104.2 L -702.7,105.7 L -705.8,107.1 L -709.1,108.6 L -712.0,109.9 L -715.1,111.3 L -719.4,113.2 L -723.5,115.0 L -727.5,116.8 L -731.4,118.7 L -735.1,120.5 L -738.5,122.5 L -741.8,124.7 L -744.8,127.0 L -747.6,129.5 L -750.2,132.1 L -752.5,134.9 L -754.5,137.7 L -756.2,140.7 L -757.6,143.7 L -758.8,146.7 L -759.8,150.8 L -760.3,154.9 L -760.2,159.8 L -759.6,163.3 L -758.5,166.8 L -757.0,170.3 L -755.1,173.4 L -753.4,175.7 L -751.4,177.9 L -749.2,179.9 L -746.7,181.9 L -744.1,183.7 L -741.4,185.5 L -738.5,187.4 L -735.6,189.4 L -732.6,191.7 L -729.5,194.0 L -726.2,196.5 L -722.8,199.0 L -719.3,201.6 L -716.7,203.6 L -714.3,205.4 L -711.8,207.2 L -709.3,209.1 L -706.4,211.2 L -703.8,213.1 L -700.8,215.3 L -698.1,217.3 L -695.0,219.6 L -692.1,221.7 L -689.2,223.9 L -685.9,226.3 L -682.9,228.5 L -679.9,230.8 L -676.4,233.3 L -673.3,235.6 L -670.1,237.9 L -666.5,240.6 L -663.3,243.0 L -660.0,245.4 L -656.2,248.2 L -652.5,251.0" fill="none" stroke="url(#g)" stroke-width="69.9" stroke-linecap="round" stroke-linejoin="round"/>
<path d="M -646.3,254.5 L -642.8,257.0 L -638.9,259.8 L -635.4,262.4 L -631.4,265.3 L -627.7,267.9 L -624.1,270.6 L -620.0,273.5 L -616.2,276.2 L -612.5,279.0 L -608.3,282.1 L -604.5,284.9 L -600.2,288.0 L -596.4,290.9 L -592.5,293.8 L -588.1,297.1 L -584.2,300.1 L -580.2,303.1 L -575.7,306.4 L -571.7,309.5 L -567.6,312.6 L -563.1,316.0 L -560.8,317.8 L -556.7,320.9 L -554.4,322.7 L -550.2,325.9 L -547.9,327.6 L -543.6,330.9 L -541.3,332.7 L -537.0,335.9 L -534.7,337.7 L -530.4,341.0 L -528.0,342.8 L -525.6,344.6 L -521.3,348.0 L -518.9,349.8 L -516.5,351.7 L -512.1,355.0 L -507.7,358.4 L -505.2,360.3 L -502.8,362.2 L -498.3,365.6 L -495.9,367.5 L -491.4,371.0 L -488.9,372.9 L -484.4,376.4 L -481.9,378.3 L -479.3,380.2 L -476.8,382.2 L -472.2,385.7 L -467.7,389.3 L -465.1,391.3 L -460.5,394.9 L -457.9,396.8 L -453.3,400.4 L -450.7,402.5 L -448.1,404.5 L -443.4,408.1 L -438.7,411.8 L -436.1,413.9 L -431.4,417.6 L -428.8,419.6 L -426.1,421.7 L -421.4,425.4 L -418.7,427.5 L -413.9,431.2 L -411.3,433.3 L -408.6,435.4 L -403.8,439.2 L -398.9,443.0 L -396.2,445.1 L -391.4,448.9 L -388.7,451.1 L -386.0,453.2 L -381.1,457.0 L -378.4,459.1 L -375.6,461.2 L -370.7,465.1 L -365.8,468.9 L -363.0,471.1 L -358.1,474.9 L -355.3,477.1 L -350.3,480.9 L -347.6,483.1 L -344.8,485.2 L -339.8,489.1 L -337.0,491.3 L -332.0,495.2 L -329.2,497.3 L -324.2,501.2 L -321.4,503.4 L -316.3,507.3 L -313.5,509.5 L -308.4,513.4 L -305.6,515.6 L -302.8,517.8 L -299.9,520.0 L -297.7,521.7 L -294.8,523.9 L -292.6,525.6 L -289.7,527.8 L -286.9,530.0 L -281.9,533.8 L -279.2,535.9 L -274.4,539.5 L -271.9,541.5 L -267.3,545.0 L -264.8,546.8 L -262.4,548.7 L -260.0,550.5 L -255.8,553.7 L -251.8,556.8 L -247.9,559.8 L -243.7,563.0 L -240.0,565.8 L -236.4,568.6 L -232.5,571.5 L -229.1,574.1 L -225.4,577.0 L -222.1,579.5 L -218.9,581.9 L -215.5,584.5 L -212.5,586.8 L -209.5,589.1 L -206.2,591.6 L -203.2,593.8 L -200.0,596.3 L -197.1,598.5 L -194.2,600.7 L -191.0,603.1 L -188.2,605.2 L -185.4,607.4 L -182.2,609.7 L -179.4,611.8 L -176.3,614.0 L -173.6,615.9 L -170.8,617.8 L -167.9,619.7 L -165.3,621.3 L -162.5,623.0 L -159.0,625.2 L -156.4,626.7 L -152.8,628.8 L -149.5,630.7 L -146.2,632.5 L -143.2,634.1 L -140.2,635.6 L -137.0,637.0 L -133.2,638.3 L -129.5,639.1 L -125.2,639.6 L -121.2,639.5 L -117.7,638.7 L -114.5,637.2 L -111.7,635.2 L -109.5,632.6 L -107.7,629.5 L -106.5,626.0 L -105.7,622.0 L -105.4,617.9 L -105.6,613.3 L -106.2,609.8 L -107.3,606.0 L -108.8,602.2 L -110.1,599.3 L -111.5,596.3 L -113.0,593.2 L -114.7,589.7 L -116.2,586.5 L -117.9,583.0 L -119.7,579.2 L -121.0,576.5 L -122.8,572.5 L -124.8,568.4 L -126.2,565.7 L -127.5,563.0 L -129.1,559.9 L -130.6,557.1 L -132.3,553.8 L -133.8,550.9 L -135.4,547.8 L -137.2,544.4 L -138.8,541.2 L -140.7,537.6 L -142.4,534.3 L -144.4,530.5 L -146.1,527.1 L -147.8,523.6 L -149.6,520.0 L -151.5,516.0 L -153.1,512.5 L -154.8,508.4 L -156.3,504.8 L -157.6,501.2 L -158.9,497.1 L -160.0,493.4 L -161.0,489.7 L -162.0,485.6 L -162.8,481.9 L -163.6,477.8 L -164.3,474.1 L -164.9,470.4 L -165.4,466.4 L -165.9,462.8 L -166.3,459.2 L -166.7,455.2 L -167.1,449.6 L -167.3,444.1 L -167.3,438.7 L -167.1,433.3 L -166.6,427.9 L -166.2,424.1 L -165.4,419.2 L -164.7,415.4 L -164.0,412.1 L -163.1,408.3 L -162.2,405.0 L -161.2,401.6 L -159.9,397.9 L -158.7,394.5 L -157.3,390.8 L -155.8,387.4 L -154.2,384.2 L -152.3,380.6 L -150.5,377.4 L -148.3,373.8 L -146.1,370.7 L -143.9,367.6 L -141.6,364.5 L -138.8,361.0 L -136.3,357.9 L -133.3,354.6 L -130.5,351.5 L -127.3,348.2 L -124.2,345.3 L -121.1,342.4 L -117.8,339.6 L -114.1,336.5 L -110.6,333.8 L -106.6,330.9 L -103.0,328.2 L -99.2,325.6 L -95.0,322.8 L -91.2,320.3 L -87.2,317.9 L -82.7,315.2 L -78.7,312.8 L -74.0,310.1 L -69.9,307.8 L -65.7,305.4 L -61.0,302.7 L -56.8,300.3 L -52.6,297.9 L -48.0,295.4 L -44.1,293.1 L -39.8,290.6 L -36.0,288.4 L -32.4,286.3 L -28.5,283.9 L -25.1,281.9 L -21.4,279.6 L -18.1,277.5 L -15.0,275.5 L -11.5,273.2 L -8.5,271.2 L -5.5,269.1 L -2.2,266.9 L 0.7,264.8 L 3.8,262.4 L 6.6,260.3 L 9.4,258.2 L 12.4,255.7 L 15.0,253.5 L 17.6,251.2 L 20.4,248.6 L 22.8,246.2 L 25.1,243.8 L 27.6,241.0 L 29.8,238.4 L 32.2,235.4 L 34.4,232.6 L 36.7,229.4 L 38.8,226.6 L 40.8,223.6 L 43.0,220.2 L 45.0,217.1 L 47.1,213.9 L 49.3,210.4 L 51.3,207.1 L 53.4,203.5 L 55.2,200.1 L 57.0,196.8 L 58.8,193.3 L 60.7,189.5 L 62.5,186.1 L 64.7,182.3 L 66.7,178.9 L 68.8,175.6 L 71.2,172.0 L 73.5,168.9 L 76.1,165.4 L 78.6,162.4 L 81.1,159.5 L 84.0,156.3 L 86.7,153.5 L 89.4,150.9 L 92.6,148.0 L 95.5,145.6 L 98.4,143.2 L 101.8,140.7 L 105.2,138.3 L 108.3,136.2 L 111.5,134.3 L 114.8,132.3 L 118.3,130.1 L 121.6,128.1 L 125.2,125.9 L 128.3,123.9 L 131.8,121.7 L 134.7,119.6 L 137.6,117.5 L 140.3,115.4 L 143.2,113.0 L 145.7,110.8 L 148.3,108.2 L 150.5,105.8 L 152.7,103.4 L 154.9,100.5 L 156.9,97.9 L 158.7,95.2 L 160.7,92.2 L 162.4,89.4 L 164.1,86.2 L 165.5,83.3 L 166.9,80.3 L 168.3,76.9 L 169.5,73.8 L 170.5,70.7 L 171.7,67.1 L 172.6,63.9 L 173.5,60.5 L 174.6,56.8 L 175.5,53.4 L 176.6,49.5 L 177.6,46.0 L 178.8,42.1 L 179.8,38.6 L 181.0,35.2 L 182.1,31.8 L 183.5,28.1 L 184.8,24.8 L 186.2,21.2 L 187.6,18.1 L 189.2,14.6 L 190.7,11.6 L 192.3,8.7 L 193.8,5.9 L 195.6,2.9 L 197.3,0.3 L 199.2,-2.5 L 200.9,-4.9 L 202.8,-7.5 L 205.3,-10.7 L 207.3,-13.0 L 210.1,-16.1 L 212.8,-19.1 L 215.4,-21.9 L 217.9,-24.7 L 220.3,-27.4 L 222.7,-30.0 L 225.2,-32.8 L 227.2,-35.1 L 229.3,-37.6 L 231.1,-40.2 L 232.7,-43.1 L 234.0,-45.8 L 235.3,-49.3 L 236.3,-53.0 L 237.0,-56.8 L 237.6,-61.2 L 237.9,-65.8 L 237.9,-70.3 L 237.7,-74.1 L 237.4,-78.2 L 237.1,-82.3 L 236.7,-86.9 L 236.1,-91.7 L 235.5,-95.3 L 234.8,-99.1 L 233.9,-102.9 L 233.0,-106.9 L 231.9,-111.0 L 230.7,-115.2 L 229.4,-119.5 L 228.4,-122.6 L 226.8,-126.9 L 224.9,-131.0 L 223.0,-134.9 L 220.8,-138.7 L 218.5,-142.1 L 216.1,-145.3 L 213.6,-148.3 L 211.1,-151.0 L 208.6,-153.4 L 206.3,-155.7 L 204.2,-157.8 L 201.6,-160.5 L 199.2,-163.3 L 196.9,-166.2 L 195.0,-169.2 L 193.3,-172.4 L 191.9,-175.8 L 190.8,-179.3 L 189.8,-182.8 L 188.7,-186.6 L 187.2,-190.4 L 185.8,-193.1 L 184.3,-195.6 L 182.6,-197.9 L 180.0,-200.7 L 177.3,-203.1 L 174.6,-205.0 L 171.5,-206.6 L 168.1,-207.9 L 164.5,-209.1 L 160.9,-210.1 L 156.8,-211.2 L 152.3,-212.1 L 148.8,-212.8 L 145.2,-213.3 L 141.4,-213.8 L 137.2,-214.1 L 131.9,-214.2 L 127.7,-214.2 L 123.3,-214.1 L 118.7,-213.9 L 113.9,-213.7 L 109.0,-213.3 L 104.0,-213.0 L 98.9,-212.6 L 95.1,-212.3 L 89.6,-211.9 L 84.0,-211.4 L 78.3,-210.9 L 74.5,-210.6 L 70.3,-210.2 L 66.4,-209.9 L 62.5,-209.5 L 58.1,-209.1 L 54.0,-208.7 L 49.9,-208.3 L 45.4,-207.8 L 41.2,-207.4 L 36.5,-206.8 L 32.1,-206.3 L 27.8,-205.8 L 22.9,-205.2 L 18.5,-204.7 L 14.0,-204.1 L 9.0,-203.4 L 4.0,-202.7 L 0.1,-202.2 L -4.7,-201.5 L -8.9,-200.9 L -13.5,-200.2 L -17.5,-199.7 L -21.8,-199.0 L -25.6,-198.4 L -29.3,-197.9 L -33.3,-197.2 L -36.8,-196.7 L -40.3,-196.1 L -44.1,-195.5 L -49.4,-194.6 L -54.6,-193.7 L -59.6,-192.8 L -64.4,-191.7 L -68.9,-190.6 L -73.2,-189.3 L -77.3,-187.9 L -81.2,-186.4 L -84.8,-184.8 L -88.2,-183.0 L -91.3,-181.1 L -94.2,-179.1 L -96.9,-176.9 L -99.4,-174.5 L -101.5,-172.2 L -103.3,-169.9 L -105.2,-166.8 L -106.6,-163.5 L -107.5,-160.2 L -108.0,-156.4 L -107.8,-152.2 L -106.8,-148.6 L -105.2,-145.6 L -102.8,-143.2 L -100.3,-141.4 L -97.5,-139.4 L -95.0,-137.6 L -92.4,-135.7 L -89.6,-133.6 L -86.5,-131.3 L -84.1,-129.4 L -81.6,-127.5 L -79.0,-125.4 L -76.3,-123.2 L -73.5,-120.9 L -70.6,-118.4 L -67.6,-115.8 L -64.5,-113.0 L -62.3,-111.0 L -59.1,-107.9 L -57.0,-105.9 L -54.6,-103.6 L -52.5,-101.4 L -50.3,-99.2 L -47.8,-96.7 L -45.6,-94.3 L -43.3,-91.9 L -40.8,-89.2 L -38.5,-86.6 L -36.1,-84.0 L -33.5,-81.0 L -31.2,-78.3 L -28.8,-75.4 L -26.7,-72.8 L -24.4,-69.9 L -22.5,-67.3 L -20.6,-64.8 L -18.6,-62.0 L -16.9,-59.5 L -15.2,-57.1 L -13.3,-54.4 L -10.8,-50.7 L -8.5,-47.1 L -6.2,-43.6 L -4.1,-40.2 L -2.2,-36.8 L -0.6,-33.4 L 0.9,-30.0 L 2.1,-26.7 L 3.2,-23.3 L 4.1,-20.0 L 4.8,-16.5 L 5.3,-12.3 L 5.2,-7.9 L 4.7,-3.6 L 3.8,0.3 L 2.3,4.2 L 1.0,6.9 L -0.6,9.4 L -2.5,11.8 L -4.5,14.0 L -6.8,16.2 L -9.2,18.1 L -12.1,20.1 L -14.8,21.6 L -18.1,23.2 L -21.3,24.5 L -24.6,25.5 L -28.0,26.3 L -32.6,27.0 L -37.0,27.2 L -41.6,26.8 L -46.2,26.1 L -49.7,25.2 L -53.2,24.1 L -56.8,22.8 L -60.4,21.3 L -64.0,19.7 L -67.7,17.8 L -71.4,15.7 L -74.0,14.0 L -77.6,11.4 L -79.8,9.6 L -82.1,7.7 L -84.5,5.5 L -86.7,3.4 L -89.0,0.9 L -91.0,-1.4 L -93.0,-3.8 L -95.0,-6.6 L -96.8,-9.1 L -98.4,-11.7 L -100.2,-14.7 L -101.7,-17.4 L -103.3,-20.4 L -104.8,-23.1 L -106.2,-25.7 L -107.8,-28.6 L -110.0,-32.6 L -112.1,-36.4 L -114.2,-40.1 L -116.2,-43.6 L -118.1,-46.9 L -120.1,-50.2 L -122.0,-53.3 L -124.0,-56.4 L -126.0,-59.4 L -128.2,-62.3 L -130.5,-65.0 L -132.9,-67.5 L -135.6,-70.2 L -138.1,-72.6 L -140.4,-74.7 L -143.2,-77.1 L -145.8,-79.2 L -148.5,-81.1 L -151.2,-83.0 L -154.0,-84.7 L -156.8,-86.3 L -159.6,-87.7 L -162.5,-89.0 L -165.5,-90.1 L -169.6,-91.3 L -173.8,-92.1 L -177.8,-92.6 L -182.2,-92.7 L -186.5,-92.6 L -190.8,-92.2 L -194.6,-91.6 L -198.3,-90.7 L -201.6,-89.6 L -204.6,-88.3 L -207.3,-86.8 L -209.9,-85.0 L -212.2,-82.9 L -214.2,-80.6 L -215.9,-77.5 L -217.1,-73.8 L -217.5,-70.1 L -217.2,-66.2 L -216.2,-62.1 L -215.0,-59.0 L -213.5,-55.7 L -211.6,-52.4 L -210.0,-49.9 L -208.3,-47.4 L -206.4,-44.8 L -204.4,-42.0 L -202.1,-39.0 L -199.9,-36.0 L -197.6,-32.9 L -195.2,-29.6 L -192.7,-26.2 L -190.1,-22.6 L -188.4,-20.3 L -186.6,-17.9 L -184.6,-15.2 L -182.8,-12.7 L -180.7,-9.8 L -178.8,-7.2 L -176.6,-4.2 L -174.6,-1.5 L -172.6,1.2 L -170.5,4.1 L -168.1,7.3 L -166.0,10.2 L -163.5,13.6 L -161.3,16.6 L -159.0,19.7 L -156.5,23.1 L -154.2,26.2 L -152.0,29.2 L -149.6,32.5 L -147.4,35.5 L -145.1,38.7 L -143.0,41.6 L -141.1,44.5 L -138.9,47.7 L -137.2,50.6 L -135.5,53.5 L -133.7,56.7 L -132.2,59.6 L -130.7,62.8 L -129.4,65.7 L -128.2,68.5 L -127.0,71.7 L -125.5,76.2 L -124.3,80.7 L -123.2,85.2 L -122.4,89.8 L -121.9,94.4 L -121.5,99.1 L -121.4,103.9 L -121.4,108.7 L -121.8,113.6 L -122.3,118.5 L -122.8,122.0 L -123.5,127.0 L -124.3,132.1 L -125.3,137.2 L -126.4,142.3 L -127.2,145.5 L -128.1,149.0 L -129.1,152.2 L -130.3,155.6 L -131.4,158.6 L -132.6,161.6 L -134.1,164.8 L -135.6,167.6 L -137.1,170.3 L -139.0,173.3 L -140.8,175.9 L -142.7,178.5 L -145.0,181.3 L -147.1,183.7 L -149.6,186.3 L -151.9,188.6 L -154.4,190.8 L -157.2,193.1 L -159.8,195.2 L -162.9,197.4 L -165.7,199.3 L -168.5,201.2 L -171.5,203.1 L -174.8,205.1 L -178.2,207.0 L -181.4,208.8 L -184.6,210.5 L -187.8,212.2 L -191.5,214.1 L -194.9,215.7 L -198.7,217.5 L -202.1,219.0 L -205.5,220.4 L -209.4,221.9 L -212.8,223.1 L -216.3,224.1 L -220.2,225.2 L -223.7,226.1 L -227.7,226.9 L -231.2,227.5 L -234.7,228.0 L -238.6,228.4 L -244.1,228.8 L -249.7,229.0 L -255.3,229.1 L -261.1,228.9 L -266.9,228.5 L -270.7,228.2 L -275.0,227.8 L -278.9,227.4 L -283.2,226.9 L -287.1,226.4 L -291.1,225.8 L -295.4,225.0 L -299.4,224.2 L -303.3,223.3 L -307.6,222.1 L -311.4,221.0 L -315.2,219.7 L -319.3,218.1 L -322.9,216.6 L -326.9,214.8 L -330.4,213.1 L -334.4,211.0 L -337.9,209.0 L -341.4,206.9 L -345.2,204.3 L -348.6,201.9 L -351.9,199.4 L -355.6,196.4 L -358.9,193.6 L -362.5,190.4 L -365.6,187.3 L -368.7,184.1 L -371.7,180.7 L -374.9,176.9 L -377.8,173.3 L -380.9,169.3 L -383.6,165.6 L -386.6,161.3 L -389.3,157.4 L -391.9,153.4 L -394.8,148.8 L -397.3,144.7 L -399.8,140.5 L -402.6,135.8 L -405.2,131.4 L -407.7,127.2 L -410.5,122.5 L -413.0,118.4 L -415.7,114.0 L -418.2,110.1 L -420.8,106.0 L -423.2,102.3 L -425.5,98.8 L -427.7,95.4 L -430.2,91.7 L -432.3,88.5 L -434.4,85.3 L -436.7,81.9 L -438.8,78.9 L -441.0,75.7 L -443.0,73.0 L -445.0,70.3 L -447.2,67.4 L -449.2,64.9 L -451.4,62.2 L -453.4,59.9 L -455.4,57.7 L -457.6,55.4 L -460.8,52.4 L -464.0,49.7 L -467.2,47.2 L -470.5,44.9 L -473.7,42.9 L -476.9,41.0 L -480.0,39.4 L -483.1,38.0 L -486.2,36.7 L -489.3,35.5 L -492.4,34.6 L -496.8,33.6 L -501.1,33.0 L -505.6,32.9 L -510.1,33.1 L -514.0,33.4 L -518.8,34.0 L -522.6,34.7 L -526.6,35.6 L -530.7,36.6 L -535.3,37.9 L -539.3,39.0 L -542.6,40.0 L -547.2,41.5 L -550.2,42.5 L -553.6,43.6 L -556.8,44.6 L -560.0,45.7 L -563.7,47.0 L -567.0,48.1 L -570.8,49.4 L -574.3,50.6 L -578.2,52.0 L -581.8,53.3 L -585.4,54.6 L -589.5,56.2 L -593.2,57.6 L -596.9,59.1 L -600.7,60.6 L -605.0,62.4 L -609.2,64.2 L -613.1,65.9 L -617.1,67.6 L -621.5,69.5 L -625.5,71.3 L -629.6,73.1 L -634.2,75.2 L -638.4,77.0 L -642.5,78.8 L -647.2,80.9 L -651.5,82.8 L -655.8,84.8 L -660.5,86.8 L -664.7,88.7 L -669.2,90.7 L -673.2,92.5 L -677.1,94.2 L -681.3,96.1 L -685.0,97.8 L -688.6,99.4 L -692.4,101.1 L -695.8,102.6 L -699.5,104.2 L -702.7,105.7 L -705.8,107.1 L -709.1,108.6 L -712.0,109.9 L -715.1,111.3 L -719.4,113.2 L -723.5,115.0 L -727.5,116.8 L -731.4,118.7 L -735.1,120.5 L -738.5,122.5 L -741.8,124.7 L -744.8,127.0 L -747.6,129.5 L -750.2,132.1 L -752.5,134.9 L -754.5,137.7 L -756.2,140.7 L -757.6,143.7 L -758.8,146.7 L -759.8,150.8 L -760.3,154.9 L -760.2,159.8 L -759.6,163.3 L -758.5,166.8 L -757.0,170.3 L -755.1,173.4 L -753.4,175.7 L -751.4,177.9 L -749.2,179.9 L -746.7,181.9 L -744.1,183.7 L -741.4,185.5 L -738.5,187.4 L -735.6,189.4 L -732.6,191.7 L -729.5,194.0 L -726.2,196.5 L -722.8,199.0 L -719.3,201.6 L -716.7,203.6 L -714.3,205.4 L -711.8,207.2 L -709.3,209.1 L -706.4,211.2 L -703.8,213.1 L -700.8,215.3 L -698.1,217.3 L -695.0,219.6 L -692.1,221.7 L -689.2,223.9 L -685.9,226.3 L -682.9,228.5 L -679.9,230.8 L -676.4,233.3 L -673.3,235.6 L -670.1,237.9 L -666.5,240.6 L -663.3,243.0 L -660.0,245.4 L -656.2,248.2 L -652.5,251.0" fill="none" stroke="#ffffff" stroke-opacity="0.92" stroke-width="7.0" stroke-linecap="round" stroke-linejoin="round"/>
<line x1="-609.3" y1="203.6" x2="-683.3" y2="305.4" stroke="#ffffff" stroke-width="9.8" stroke-linecap="round"/>
</svg>