<svg xmlns="http://www.w3.org/2000/svg" viewBox="-1284.1 -424.9 2349.5 1505.9">
<defs><linearGradient id="g" gradientUnits="userSpaceOnUse" x1="-1172.4" y1="-313.2" x2="953.8" y2="969.4">
<stop offset="0" stop-color="#ff8a18"/><stop offset="1" stop-color="#7b2da0"/></linearGradient></defs>
<path d="M -923.0,368.0 L -943.6,377.1 L -955.2,382.2 L -966.8,387.5 L -978.6,392.9 L -991.7,398.9 L -1002.5,403.9 L -1014.4,409.5 L -1025.9,414.9 L -1036.8,420.0 L -1047.9,425.1 L -1056.4,429.0 L -1065.2,433.0 L -1073.5,436.7 L -1081.2,440.1 L -1089.2,443.6 L -1095.3,446.3 L -1101.8,449.0 L -1107.9,451.6 L -1113.6,454.0 L -1119.1,456.2 L -1124.2,458.2 L -1129.0,460.0 L -1133.6,461.5 L -1137.9,462.7 L -1142.1,463.5 L -1146.1,463.9 L -1149.9,463.9 L -1153.7,463.6 L -1157.3,462.8 L -1160.7,461.5 L -1163.8,459.7 L -1166.5,457.5 L -1168.8,454.9 L -1170.6,451.8 L -1171.7,449.0 L -1172.3,445.9 L -1172.4,442.7 L -1172.2,439.4 L -1171.7,435.9 L -1170.7,431.8 L -1169.5,428.2 L -1167.7,424.0 L -1165.6,419.6 L -1163.1,414.9 L -1160.3,410.0 L -1157.0,404.8 L -1153.3,399.5 L -1149.0,393.3 L -1145.3,388.1 L -1140.9,381.9 L -1136.3,375.5 L -1131.4,368.9 L -1126.3,362.0 L -1120.9,354.9 L -1114.9,346.9 L -1109.7,340.2 L -1103.8,332.6 L -1097.7,324.7 L -1091.3,316.7 L -1084.7,308.6 L -1077.9,300.4 L -1070.8,292.1 L -1063.4,283.8 L -1055.1,274.7 L -1047.2,266.4 L -1039.9,258.8 L -1031.5,250.4 L -1022.8,242.0 L -1013.9,233.6 L -1004.7,225.2 L -995.2,217.0 L -985.4,208.8 L -975.3,200.8 L -964.9,193.0 L -953.1,184.7 L -943.2,178.0 L -932.1,170.5 L -920.7,163.1 L -909.1,155.7 L -897.4,148.3 L -885.5,140.8 L -873.6,133.3 L -861.5,125.7 L -849.3,118.1 L -835.8,109.7 L -824.7,102.7 L -812.4,94.9 L -798.7,86.1 L -787.4,78.9 L -774.9,70.8 L -762.4,62.5 L -750.0,53.9 L -737.8,45.0 L -726.1,35.6 L -715.0,25.6 L -703.7,14.0 L -694.8,4.3 L -685.1,-6.4 L -675.0,-16.4 L -664.5,-25.6 L -653.4,-33.6 L -641.8,-40.5 L -628.6,-46.8 L -617.4,-51.4 L -604.7,-55.6 L -591.6,-59.1 L -578.4,-62.0 L -563.6,-64.5 L -551.3,-66.2 L -537.6,-68.0 L -522.4,-70.2 L -509.9,-72.2 L -496.1,-75.0 L -482.3,-78.4 L -468.7,-82.4 L -455.2,-86.9 L -441.7,-91.9 L -428.3,-97.3 L -415.1,-103.0 L -400.5,-109.7 L -388.6,-115.3 L -375.5,-121.8 L -362.3,-128.4 L -349.0,-135.0 L -335.7,-141.5 L -322.2,-147.9 L -308.7,-154.3 L -295.1,-160.5 L -281.4,-166.7 L -266.2,-173.4 L -253.6,-178.8 L -238.0,-184.9 L -225.1,-189.5 L -210.4,-194.3 L -195.6,-198.7 L -180.7,-202.7 L -165.6,-206.4 L -150.3,-209.7 L -134.9,-212.6 L -119.4,-215.4 L -103.9,-218.0 L -88.3,-220.5 L -71.0,-223.2 L -56.8,-225.3 L -41.0,-227.6 L -25.2,-229.9 L -9.3,-232.2 L 8.1,-234.8 L 22.5,-236.9 L 38.4,-239.4 L 54.4,-241.9 L 71.9,-244.7 L 86.3,-247.0 L 104.0,-249.7 L 118.4,-252.0 L 134.5,-254.5 L 150.6,-256.9 L 166.7,-259.4 L 182.9,-261.8 L 199.1,-264.1 L 215.3,-266.5 L 231.5,-268.8 L 247.8,-271.1 L 265.6,-273.7 L 280.3,-275.9 L 296.6,-278.3 L 312.9,-280.8 L 329.2,-283.2 L 345.5,-285.7 L 361.8,-288.2 L 377.7,-290.5 L 392.9,-292.8 L 407.5,-294.9 L 421.3,-296.9 L 435.7,-299.0 L 446.8,-300.5 L 458.6,-302.2 L 469.8,-303.8 L 480.7,-305.3 L 491.1,-306.7 L 501.1,-308.0 L 511.6,-309.4 L 519.8,-310.4 L 528.6,-311.5 L 537.8,-312.4 L 544.9,-312.9 L 552.3,-313.2 L 560.0,-313.2 L 566.0,-312.8 L 572.2,-312.0 L 578.1,-310.7 L 583.8,-308.9 L 589.1,-306.5 L 594.1,-303.6 L 598.9,-300.2 L 603.5,-296.2 L 607.8,-291.7 L 611.9,-286.8 L 615.8,-281.7 L 619.4,-276.6 L 623.0,-271.6 L 626.7,-266.9 L 630.7,-262.5 L 635.1,-258.5 L 640.5,-254.3 L 645.1,-251.1 L 650.7,-248.0 L 656.6,-245.3 L 662.9,-243.3 L 669.4,-241.7 L 676.1,-240.7 L 683.1,-240.2 L 690.3,-240.1 L 697.7,-240.5 L 706.1,-241.6 L 713.2,-242.9 L 721.2,-244.9 L 729.3,-247.2 L 737.4,-249.2 L 745.3,-250.7 L 753.0,-251.6 L 761.1,-251.9 L 767.4,-251.7 L 774.8,-250.8 L 781.1,-249.5 L 786.5,-247.8 L 792.8,-245.1 L 797.6,-242.5 L 802.6,-239.2 L 807.4,-235.3 L 812.0,-231.0 L 816.9,-225.7 L 821.1,-220.4 L 824.7,-215.3 L 828.5,-209.1 L 832.2,-202.6 L 835.8,-195.7 L 839.4,-188.5 L 843.4,-180.1 L 846.7,-173.0 L 850.9,-164.1 L 854.4,-156.6 L 858.4,-148.1 L 862.5,-139.3 L 866.8,-130.3 L 871.3,-121.1 L 875.9,-111.7 L 880.6,-102.1 L 885.5,-92.4 L 890.5,-82.6 L 895.7,-72.6 L 901.0,-62.4 L 906.9,-51.0 L 911.8,-41.7 L 917.1,-31.7 L 922.1,-22.1 L 926.9,-13.0 L 931.3,-4.3 L 935.8,4.8 L 939.7,12.6 L 942.8,19.4 L 945.9,26.7 L 948.5,33.7 L 950.8,41.2 L 952.2,47.2 L 953.3,53.6 L 953.8,59.9 L 953.7,65.9 L 953.0,71.8 L 951.7,77.4 L 949.8,82.7 L 947.3,87.7 L 943.9,92.7 L 940.7,96.4 L 936.7,100.0 L 931.9,103.3 L 927.6,105.6 L 922.0,107.8 L 917.2,109.2 L 911.8,110.1 L 906.3,110.3 L 900.9,110.0 L 895.7,108.9 L 890.0,107.1 L 885.5,105.1 L 880.5,102.5 L 875.5,99.2 L 870.7,95.5 L 866.1,91.3 L 862.0,86.6 L 858.2,81.5 L 854.8,76.0 L 851.7,69.9 L 848.8,63.5 L 846.1,56.6 L 843.5,49.3 L 841.0,41.7 L 838.5,33.7 L 835.9,25.6 L 833.1,17.5 L 830.3,9.6 L 827.3,2.1 L 824.1,-5.0 L 820.7,-11.7 L 817.0,-18.1 L 813.1,-24.0 L 808.7,-29.6 L 803.4,-35.1 L 798.7,-39.1 L 792.6,-43.5 L 787.3,-46.5 L 781.3,-49.3 L 775.0,-51.5 L 768.5,-53.1 L 761.7,-54.1 L 753.8,-54.7 L 747.1,-54.9 L 739.3,-54.7 L 731.3,-54.1 L 722.2,-53.0 L 714.5,-51.7 L 705.8,-49.9 L 696.9,-48.0 L 687.7,-46.0 L 677.2,-43.7 L 668.3,-41.9 L 658.2,-39.9 L 647.9,-38.0 L 636.2,-36.0 L 626.5,-34.4 L 615.5,-32.8 L 604.2,-31.3 L 592.7,-29.9 L 580.9,-28.7 L 569.0,-27.5 L 556.8,-26.6 L 544.4,-25.7 L 530.6,-25.0 L 519.3,-24.4 L 506.4,-23.8 L 493.4,-23.3 L 480.2,-22.7 L 466.9,-22.1 L 452.0,-21.5 L 439.6,-21.1 L 425.8,-20.5 L 412.1,-20.0 L 398.8,-19.5 L 384.8,-18.9 L 373.8,-18.5 L 362.1,-18.0 L 350.9,-17.4 L 340.2,-16.6 L 329.9,-15.6 L 320.1,-14.2 L 310.6,-12.3 L 301.5,-9.8 L 291.8,-6.4 L 283.4,-2.5 L 276.1,1.5 L 268.2,6.7 L 260.6,12.5 L 253.3,19.0 L 246.4,26.3 L 240.1,34.2 L 234.4,42.7 L 229.2,51.8 L 224.7,61.4 L 220.9,71.4 L 217.8,81.8 L 215.4,92.4 L 213.7,103.4 L 212.7,114.6 L 212.2,126.0 L 212.4,137.7 L 213.3,149.5 L 215.0,161.3 L 217.7,174.4 L 220.8,185.0 L 225.0,196.7 L 230.1,208.1 L 236.0,219.2 L 242.9,230.0 L 250.5,240.4 L 259.9,251.2 L 268.2,259.6 L 279.2,269.2 L 288.8,276.5 L 301.1,285.0 L 311.6,291.4 L 323.6,298.2 L 335.9,304.6 L 348.5,311.0 L 362.4,317.9 L 373.9,323.7 L 386.6,330.3 L 399.4,337.0 L 412.3,343.8 L 425.2,350.7 L 437.9,357.6 L 450.2,364.2 L 463.0,371.2 L 472.9,376.6 L 483.4,382.4 L 493.3,387.9 L 502.8,393.2 L 512.7,398.7 L 520.5,403.1 L 528.8,407.9 L 536.7,412.5 L 544.9,417.7 L 551.1,422.0 L 557.4,426.9 L 563.2,432.1 L 568.5,437.5 L 573.2,443.2 L 577.5,449.2 L 581.1,455.4 L 584.1,461.8 L 586.6,469.1 L 588.0,475.1 L 589.0,482.0 L 589.5,489.0 L 589.4,496.1 L 588.8,503.3 L 587.4,511.0 L 585.6,517.0 L 583.1,523.6 L 580.0,530.2 L 576.4,536.8 L 572.1,543.3 L 567.4,549.7 L 562.6,556.2 L 558.3,562.8 L 554.2,570.2 L 551.4,576.4 L 548.8,584.1 L 547.0,591.2 L 545.9,598.4 L 545.5,604.8 L 545.6,611.8 L 546.4,618.9 L 547.7,626.1 L 549.7,633.3 L 552.5,641.1 L 555.4,647.4 L 559.1,654.3 L 563.4,661.0 L 568.8,668.1 L 573.7,673.7 L 579.5,679.6 L 585.8,685.2 L 592.5,690.8 L 599.5,696.3 L 607.5,702.4 L 614.3,707.4 L 622.1,713.0 L 631.0,719.4 L 638.4,724.8 L 646.8,730.9 L 655.4,737.2 L 663.7,743.3 L 671.5,749.3 L 678.9,755.0 L 685.8,760.4 L 692.1,765.6 L 697.8,770.7 L 703.6,776.2 L 707.9,780.6 L 712.3,785.5 L 716.1,790.5 L 719.5,795.5 L 722.4,801.2 L 724.4,806.0 L 725.9,811.3 L 727.0,817.3 L 727.3,822.3 L 727.2,828.6 L 726.6,833.9 L 725.5,840.0 L 723.7,846.1 L 721.4,852.2 L 718.4,858.4 L 714.5,864.9 L 710.9,870.2 L 706.5,876.2 L 701.5,882.2 L 696.1,888.3 L 689.8,895.2 L 684.5,901.0 L 678.5,907.7 L 672.4,914.4 L 666.1,921.0 L 659.7,927.3 L 653.1,933.4 L 646.2,939.2 L 639.0,944.7 L 631.3,949.8 L 622.4,954.9 L 614.8,958.7 L 605.9,962.4 L 596.0,965.6 L 587.7,967.5 L 577.4,968.9 L 568.8,969.4 L 558.1,969.3 L 549.2,968.5 L 539.2,967.0 L 529.1,964.7 L 518.1,961.5 L 509.1,958.3 L 499.1,954.2 L 489.2,949.5 L 479.4,944.2 L 469.7,938.5 L 460.0,932.3 L 450.4,925.6 L 439.9,917.9 L 431.3,911.2 L 421.0,902.7 L 412.6,895.5 L 403.5,887.0 L 394.5,878.3 L 384.8,868.2 L 377.0,859.7 L 367.8,849.0 L 360.4,839.9 L 352.3,829.6 L 344.3,819.0 L 335.6,807.2 L 328.5,797.3 L 320.7,786.1 L 312.1,773.7 L 304.3,762.2 L 297.5,751.6 L 290.2,739.6 L 283.2,727.3 L 276.7,714.6 L 270.6,701.7 L 265.0,688.5 L 259.3,673.7 L 255.0,661.4 L 250.3,647.5 L 245.3,632.2 L 241.2,619.6 L 236.7,605.5 L 231.9,591.5 L 226.9,577.5 L 221.7,563.4 L 216.4,549.3 L 210.9,535.2 L 205.0,521.2 L 198.5,507.4 L 191.6,493.7 L 184.1,480.2 L 176.0,467.0 L 167.2,454.2 L 157.9,441.7 L 147.9,429.6 L 137.4,418.0 L 126.4,406.8 L 114.9,396.0 L 102.9,385.7 L 90.6,375.7 L 77.9,366.1 L 65.0,356.8 L 51.9,347.7 L 38.6,338.7 L 25.3,329.8 L 12.2,321.3 L -0.9,313.3 L -14.0,305.8 L -27.4,299.0 L -41.0,293.1 L -54.8,288.2 L -68.7,284.2 L -82.8,281.1 L -97.1,278.8 L -111.6,277.5 L -126.3,276.9 L -141.0,277.3 L -155.7,278.5 L -170.4,280.5 L -185.2,283.0 L -199.9,286.1 L -214.5,289.7 L -229.2,293.6 L -243.9,297.8 L -260.1,302.4 L -273.5,306.1 L -288.5,310.0 L -303.6,313.7 L -318.9,317.1 L -334.3,320.1 L -349.9,322.8 L -365.5,325.1 L -381.3,327.0 L -397.1,328.5 L -414.6,329.6 L -429.0,330.3 L -444.9,330.9 L -460.3,331.2 L -474.9,331.4 L -488.7,331.5 L -501.6,331.5 L -513.8,331.5 L -525.3,331.4 L -536.0,331.2 L -546.9,331.0 L -555.2,330.7 L -563.8,330.4 L -571.7,330.0 L -579.1,329.5 L -586.4,328.9 L -592.0,328.3 L -597.7,327.5 L -602.9,326.7 L -607.8,325.7 L -612.6,324.3 L -616.2,322.9 L -619.6,321.1 L -622.6,319.1 L -624.9,316.8 L -626.8,314.2 L -628.4,311.5 L -629.6,308.8 L -630.4,305.9 L -631.0,303.0 L -631.3,299.8 L -631.3,296.1 L -631.0,292.8 L -630.5,288.6 L -630.3,285.3 L -630.4,281.7 L -630.9,278.3 L -631.9,275.0 L -633.5,272.1 L -635.4,269.4 L -637.8,267.0 L -640.0,265.3 L -642.7,263.9 L -645.6,262.8 L -648.9,261.9 L -652.7,261.4 L -656.4,261.2 L -660.0,261.3 L -664.3,261.8 L -669.3,262.7 L -674.1,264.0 L -678.6,265.4 L -684.0,267.2 L -689.6,269.4 L -696.1,272.1 L -701.8,274.5 L -708.2,277.3 L -715.7,280.5 L -722.0,283.3 L -730.1,286.8 L -737.0,289.9 L -745.0,293.4 L -753.1,297.1 L -761.4,300.8 L -769.9,304.6 L -778.7,308.6 L -787.7,312.7 L -796.9,316.9 L -807.2,321.6 L -815.9,325.5 L -826.7,330.3 L -836.6,334.8 L -845.7,338.9 L -856.0,343.5 L -866.5,348.2 L -877.1,352.9 L -887.9,357.8 L -900.0,363.1 L -910.1,367.5" fill="none" stroke="url(#g)" stroke-width="148.8" stroke-linecap="round" stroke-linejoin="round"/>
<path d="M -923.0,368.0 L -943.6,377.1 L -955.2,382.2 L -966.8,387.5 L -978.6,392.9 L -991.7,398.9 L -1002.5,403.9 L -1014.4,409.5 L -1025.9,414.9 L -1036.8,420.0 L -1047.9,425.1 L -1056.4,429.0 L -1065.2,433.0 L -1073.5,436.7 L -1081.2,440.1 L -1089.2,443.6 L -1095.3,446.3 L -1101.8,449.0 L -1107.9,451.6 L -1113.6,454.0 L -1119.1,456.2 L -1124.2,458.2 L -1129.0,460.0 L -1133.6,461.5 L -1137.9,462.7 L -1142.1,463.5 L -1146.1,463.9 L -1149.9,463.9 L -1153.7,463.6 L -1157.3,462.8 L -1160.7,461.5 L -1163.8,459.7 L -1166.5,457.5 L -1168.8,454.9 L -1170.6,451.8 L -1171.7,449.0 L -1172.3,445.9 L -1172.4,442.7 L -1172.2,439.4 L -1171.7,435.9 L -1170.7,431.8 L -1169.5,428.2 L -1167.7,424.0 L -1165.6,419.6 L -1163.1,414.9 L -1160.3,410.0 L -1157.0,404.8 L -1153.3,399.5 L -1149.0,393.3 L -1145.3,388.1 L -1140.9,381.9 L -1136.3,375.5 L -1131.4,368.9 L -1126.3,362.0 L -1120.9,354.9 L -1114.9,346.9 L -1109.7,340.2 L -1103.8,332.6 L -1097.7,324.7 L -1091.3,316.7 L -1084.7,308.6 L -1077.9,300.4 L -1070.8,292.1 L -1063.4,283.8 L -1055.1,274.7 L -1047.2,266.4 L -1039.9,258.8 L -1031.5,250.4 L -1022.8,242.0 L -1013.9,233.6 L -1004.7,225.2 L -995.2,217.0 L -985.4,208.8 L -975.3,200.8 L -964.9,193.0 L -953.1,184.7 L -943.2,178.0 L -932.1,170.5 L -920.7,163.1 L -909.1,155.7 L -897.4,148.3 L -885.5,140.8 L -873.6,133.3 L -861.5,125.7 L -849.3,118.1 L -835.8,109.7 L -824.7,102.7 L -812.4,94.9 L -798.7,86.1 L -787.4,78.9 L -774.9,70.8 L -762.4,62.5 L -750.0,53.9 L -737.8,45.0 L -726.1,35.6 L -715.0,25.6 L -703.7,14.0 L -694.8,4.3 L -685.1,-6.4 L -675.0,-16.4 L -664.5,-25.6 L -653.4,-33.6 L -641.8,-40.5 L -628.6,-46.8 L -617.4,-51.4 L -604.7,-55.6 L -591.6,-59.1 L -578.4,-62.0 L -563.6,-64.5 L -551.3,-66.2 L -537.6,-68.0 L -522.4,-70.2 L -509.9,-72.2 L -496.1,-75.0 L -482.3,-78.4 L -468.7,-82.4 L -455.2,-86.9 L -441.7,-91.9 L -428.3,-97.3 L -415.1,-103.0 L -400.5,-109.7 L -388.6,-115.3 L -375.5,-121.8 L -362.3,-128.4 L -349.0,-135.0 L -335.7,-141.5 L -322.2,-147.9 L -308.7,-154.3 L -295.1,-160.5 L -281.4,-166.7 L -266.2,-173.4 L -253.6,-178.8 L -238.0,-184.9 L -225.1,-189.5 L -210.4,-194.3 L -195.6,-198.7 L -180.7,-202.7 L -165.6,-206.4 L -150.3,-209.7 L -134.9,-212.6 L -119.4,-215.4 L -103.9,-218.0 L -88.3,-220.5 L -71.0,-223.2 L -56.8,-225.3 L -41.0,-227.6 L -25.2,-229.9 L -9.3,-232.2 L 8.1,-234.8 L 22.5,-236.9 L 38.4,-239.4 L 54.4,-241.9 L 71.9,-244.7 L 86.3,-247.0 L 104.0,-249.7 L 118.4,-252.0 L 134.5,-254.5 L 150.6,-256.9 L 166.7,-259.4 L 182.9,-261.8 L 199.1,-264.1 L 215.3,-266.5 L 231.5,-268.8 L 247.8,-271.1 L 265.6,-273.7 L 280.3,-275.9 L 296.6,-278.3 L 312.9,-280.8 L 329.2,-283.2 L 345.5,-285.7 L 361.8,-288.2 L 377.7,-290.5 L 392.9,-292.8 L 407.5,-294.9 L 421.3,-296.9 L 435.7,-299.0 L 446.8,-300.5 L 458.6,-302.2 L 469.8,-303.8 L 480.7,-305.3 L 491.1,-306.7 L 501.1,-308.0 L 511.6,-309.4 L 519.8,-310.4 L 528.6,-311.5 L 537.8,-312.4 L 544.9,-312.9 L 552.3,-313.2 L 560.0,-313.2 L 566.0,-312.8 L 572.2,-312.0 L 578.1,-310.7 L 583.8,-308.9 L 589.1,-306.5 L 594.1,-303.6 L 598.9,-300.2 L 603.5,-296.2 L 607.8,-291.7 L 611.9,-286.8 L 615.8,-281.7 L 619.4,-276.6 L 623.0,-271.6 L 626.7,-266.9 L 630.7,-262.5 L 635.1,-258.5 L 640.5,-254.3 L 645.1,-251.1 L 650.7,-248.0 L 656.6,-245.3 L 662.9,-243.3 L 669.4,-241.7 L 676.1,-240.7 L 683.1,-240.2 L 690.3,-240.1 L 697.7,-240.5 L 706.1,-241.6 L 713.2,-242.9 L 721.2,-244.9 L 729.3,-247.2 L 737.4,-249.2 L 745.3,-250.7 L 753.0,-251.6 L 761.1,-251.9 L 767.4,-251.7 L 774.8,-250.8 L 781.1,-249.5 L 786.5,-247.8 L 792.8,-245.1 L 797.6,-242.5 L 802.6,-239.2 L 807.4,-235.3 L 812.0,-231.0 L 816.9,-225.7 L 821.1,-220.4 L 824.7,-215.3 L 828.5,-209.1 L 832.2,-202.6 L 835.8,-195.7 L 839.4,-188.5 L 843.4,-180.1 L 846.7,-173.0 L 850.9,-164.1 L 854.4,-156.6 L 858.4,-148.1 L 862.5,-139.3 L 866.8,-130.3 L 871.3,-121.1 L 875.9,-111.7 L 880.6,-102.1 L 885.5,-92.4 L 890.5,-82.6 L 895.7,-72.6 L 901.0,-62.4 L 906.9,-51.0 L 911.8,-41.7 L 917.1,-31.7 L 922.1,-22.1 L 926.9,-13.0 L 931.3,-4.3 L 935.8,4.8 L 939.7,12.6 L 942.8,19.4 L 945.9,26.7 L 948.5,33.7 L 950.8,41.2 L 952.2,47.2 L 953.3,53.6 L 953.8,59.9 L 953.7,65.9 L 953.0,71.8 L 951.7,77.4 L 949.8,82.7 L 947.3,87.7 L 943.9,92.7 L 940.7,96.4 L 936.7,100.0 L 931.9,103.3 L 927.6,105.6 L 922.0,107.8 L 917.2,109.2 L 911.8,110.1 L 906.3,110.3 L 900.9,110.0 L 895.7,108.9 L 890.0,107.1 L 885.5,105.1 L 880.5,102.5 L 875.5,99.2 L 870.7,95.5 L 866.1,91.3 L 862.0,86.6 L 858.2,81.5 L 854.8,76.0 L 851.7,69.9 L 848.8,63.5 L 846.1,56.6 L 843.5,49.3 L 841.0,41.7 L 838.5,33.7 L 835.9,25.6 L 833.1,17.5 L 830.3,9.6 L 827.3,2.1 L 824.1,-5.0 L 820.7,-11.7 L 817.0,-18.1 L 813.1,-24.0 L 808.7,-29.6 L 803.4,-35.1 L 798.7,-39.1 L 792.6,-43.5 L 787.3,-46.5 L 781.3,-49.3 L 775.0,-51.5 L 768.5,-53.1 L 761.7,-54.1 L 753.8,-54.7 L 747.1,-54.9 L 739.3,-54.7 L 731.3,-54.1 L 722.2,-53.0 L 714.5,-51.7 L 705.8,-49.9 L 696.9,-48.0 L 687.7,-46.0 L 677.2,-43.7 L 668.3,-41.9 L 658.2,-39.9 L 647.9,-38.0 L 636.2,-36.0 L 626.5,-34.4 L 615.5,-32.8 L 604.2,-31.3 L 592.7,-29.9 L 580.9,-28.7 L 569.0,-27.5 L 556.8,-26.6 L 544.4,-25.7 L 530.6,-25.0 L 519.3,-24.4 L 506.4,-23.8 L 493.4,-23.3 L 480.2,-22.7 L 466.9,-22.1 L 452.0,-21.5 L 439.6,-21.1 L 425.8,-20.5 L 412.1,-20.0 L 398.8,-19.5 L 384.8,-18.9 L 373.8,-18.5 L 362.1,-18.0 L 350.9,-17.4 L 340.2,-16.6 L 329.9,-15.6 L 320.1,-14.2 L 310.6,-12.3 L 301.5,-9.8 L 291.8,-6.4 L 283.4,-2.5 L 276.1,1.5 L 268.2,6.7 L 260.6,12.5 L 253.3,19.0 L 246.4,26.3 L 240.1,34.2 L 234.4,42.7 L 229.2,51.8 L 224.7,61.4 L 220.9,71.4 L 217.8,81.8 L 215.4,92.4 L 213.7,103.4 L 212.7,114.6 L 212.2,126.0 L 212.4,137.7 L 213.3,149.5 L 215.0,161.3 L 217.7,174.4 L 220.8,185.0 L 225.0,196.7 L 230.1,208.1 L 236.0,219.2 L 242.9,230.0 L 250.5,240.4 L 259.9,251.2 L 268.2,259.6 L 279.2,269.2 L 288.8,276.5 L 301.1,285.0 L 311.6,291.4 L 323.6,298.2 L 335.9,304.6 L 348.5,311.0 L 362.4,317.9 L 373.9,323.7 L 386.6,330.3 L 399.4,337.0 L 412.3,343.8 L 425.2,350.7 L 437.9,357.6 L 450.2,364.2 L 463.0,371.2 L 472.9,376.6 L 483.4,382.4 L 493.3,387.9 L 502.8,393.2 L 512.7,398.7 L 520.5,403.1 L 528.8,407.9 L 536.7,412.5 L 544.9,417.7 L 551.1,422.0 L 557.4,426.9 L 563.2,432.1 L 568.5,437.5 L 573.2,443.2 L 577.5,449.2 L 581.1,455.4 L 584.1,461.8 L 586.6,469.1 L 588.0,475.1 L 589.0,482.0 L 589.5,489.0 L 589.4,496.1 L 588.8,503.3 L 587.4,511.0 L 585.6,517.0 L 583.1,523.6 L 580.0,530.2 L 576.4,536.8 L 572.1,543.3 L 567.4,549.7 L 562.6,556.2 L 558.3,562.8 L 554.2,570.2 L 551.4,576.4 L 548.8,584.1 L 547.0,591.2 L 545.9,598.4 L 545.5,604.8 L 545.6,611.8 L 546.4,618.9 L 547.7,626.1 L 549.7,633.3 L 552.5,641.1 L 555.4,647.4 L 559.1,654.3 L 563.4,661.0 L 568.8,668.1 L 573.7,673.7 L 579.5,679.6 L 585.8,685.2 L 592.5,690.8 L 599.5,696.3 L 607.5,702.4 L 614.3,707.4 L 622.1,713.0 L 631.0,719.4 L 638.4,724.8 L 646.8,730.9 L 655.4,737.2 L 663.7,743.3 L 671.5,749.3 L 678.9,755.0 L 685.8,760.4 L 692.1,765.6 L 697.8,770.7 L 703.6,776.2 L 707.9,780.6 L 712.3,785.5 L 716.1,790.5 L 719.5,795.5 L 722.4,801.2 L 724.4,806.0 L 725.9,811.3 L 727.0,817.3 L 727.3,822.3 L 727.2,828.6 L 726.6,833.9 L 725.5,840.0 L 723.7,846.1 L 721.4,852.2 L 718.4,858.4 L 714.5,864.9 L 710.9,870.2 L 706.5,876.2 L 701.5,882.2 L 696.1,888.3 L 689.8,895.2 L 684.5,901.0 L 678.5,907.7 L 672.4,914.4 L 666.1,921.0 L 659.7,927.3 L 653.1,933.4 L 646.2,939.2 L 639.0,944.7 L 631.3,949.8 L 622.4,954.9 L 614.8,958.7 L 605.9,962.4 L 596.0,965.6 L 587.7,967.5 L 577.4,968.9 L 568.8,969.4 L 558.1,969.3 L 549.2,968.5 L 539.2,967.0 L 529.1,964.7 L 518.1,961.5 L 509.1,958.3 L 499.1,954.2 L 489.2,949.5 L 479.4,944.2 L 469.7,938.5 L 460.0,932.3 L 450.4,925.6 L 439.9,917.9 L 431.3,911.2 L 421.0,902.7 L 412.6,895.5 L 403.5,887.0 L 394.5,878.3 L 384.8,868.2 L 377.0,859.7 L 367.8,849.0 L 360.4,839.9 L 352.3,829.6 L 344.3,819.0 L 335.6,807.2 L 328.5,797.3 L 320.7,786.1 L 312.1,773.7 L 304.3,762.2 L 297.5,751.6 L 290.2,739.6 L 283.2,727.3 L 276.7,714.6 L 270.6,701.7 L 265.0,688.5 L 259.3,673.7 L 255.0,661.4 L 250.3,647.5 L 245.3,632.2 L 241.2,619.6 L 236.7,605.5 L 231.9,591.5 L 226.9,577.5 L 221.7,563.4 L 216.4,549.3 L 210.9,535.2 L 205.0,521.2 L 198.5,507.4 L 191.6,493.7 L 184.1,480.2 L 176.0,467.0 L 167.2,454.2 L 157.9,441.7 L 147.9,429.6 L 137.4,418.0 L 126.4,406.8 L 114.9,396.0 L 102.9,385.7 L 90.6,375.7 L 77.9,366.1 L 65.0,356.8 L 51.9,347.7 L 38.6,338.7 L 25.3,329.8 L 12.2,321.3 L -0.9,313.3 L -14.0,305.8 L -27.4,299.0 L -41.0,293.1 L -54.8,288.2 L -68.7,284.2 L -82.8,281.1 L -97.1,278.8 L -111.6,277.5 L -126.3,276.9 L -141.0,277.3 L -155.7,278.5 L -170.4,280.5 L -185.2,283.0 L -199.9,286.1 L -214.5,289.7 L -229.2,293.6 L -243.9,297.8 L -260.1,302.4 L -273.5,306.1 L -288.5,310.0 L -303.6,313.7 L -318.9,317.1 L -334.3,320.1 L -349.9,322.8 L -365.5,325.1 L -381.3,327.0 L -397.1,328.5 L -414.6,329.6 L -429.0,330.3 L -444.9,330.9 L -460.3,331.2 L -474.9,331.4 L -488.7,331.5 L -501.6,331.5 L -513.8,331.5 L -525.3,331.4 L -536.0,331.2 L -546.9,331.0 L -555.2,330.7 L -563.8,330.4 L -571.7,330.0 L -579.1,329.5 L -586.4,328.9 L -592.0,328.3 L -597.7,327.5 L -602.9,326.7 L -607.8,325.7 L -612.6,324.3 L -616.2,322.9 L -619.6,321.1 L -622.6,319.1 L -624.9,316.8 L -626.8,314.2 L -628.4,311.5 L -629.6,308.8 L -630.4,305.9 L -631.0,303.0 L -631.3,299.8 L -631.3,296.1 L -631.0,292.8 L -630.5,288.6 L -630.3,285.3 L -630.4,281.7 L -630.9,278.3 L -631.9,275.0 L -633.5,272.1 L -635.4,269.4 L -637.8,267.0 L -640.0,265.3 L -642.7,263.9 L -645.6,262.8 L -648.9,261.9 L -652.7,261.4 L -656.4,261.2 L -660.0,261.3 L -664.3,261.8 L -669.3,262.7 L -674.1,264.0 L -678.6,265.4 L -684.0,267.2 L -689.6,269.4 L -696.1,272.1 L -701.8,274.5 L -708.2,277.3 L -715.7,280.5 L -722.0,283.3 L -730.1,286.8 L -737.0,289.9 L -745.0,293.4 L -753.1,297.1 L -761.4,300.8 L -769.9,304.6 L -778.7,308.6 L -787.7,312.7 L -796.9,316.9 L -807.2,321.6 L -815.9,325.5 L -826.7,330.3 L -836.6,334.8 L -845.7,338.9 L -856.0,343.5 L -866.5,348.2 L -877.1,352.9 L -887.9,357.8 L -900.0,363.1 L -910.1,367.5" fill="none" stroke="#ffffff" stroke-opacity="0.92" stroke-width="14.9" stroke-linecap="round" stroke-linejoin="round"/>
<line x1="-978.1" y1="246.0" x2="-867.9" y2="490.1" stroke="#ffffff" stroke-width="20.8" stroke-linecap="round"/>
</svg>