<svg xmlns="http://www.w3.org/2000/svg" viewBox="-885.6 -449.8 1459.6 792.9">
<defs><linearGradient id="g" gradientUnits="userSpaceOnUse" x1="-816.3" y1="-380.5" x2="504.6" y2="273.7">
<stop offset="0" stop-color="#1c9fe0"/><stop offset="1" stop-color="#0b1f44"/></linearGradient></defs>
<path d="M 133.3,208.6 L 119.9,205.4 L 109.6,202.9 L 98.7,200.3 L 87.1,197.5 L 76.5,194.9 L 65.4,192.2 L 53.0,189.2 L 42.2,186.6 L 31.4,184.0 L 20.0,181.2 L 7.8,178.3 L -4.4,175.3 L -14.9,172.8 L -26.7,170.1 L -39.1,167.3 L -50.5,164.8 L -62.6,162.2 L -74.7,159.6 L -88.1,156.8 L -99.7,154.3 L -111.4,151.7 L -125.0,148.8 L -136.8,146.2 L -150.5,143.2 L -161.2,140.9 L -173.8,138.1 L -187.7,135.1 L -199.8,132.4 L -211.9,129.8 L -226.0,126.7 L -238.2,124.0 L -251.1,121.1 L -264.1,118.2 L -276.5,115.5 L -290.8,112.3 L -303.3,109.5 L -315.8,106.7 L -328.9,103.8 L -342.2,100.8 L -356.1,97.7 L -369.4,94.7 L -382.1,91.9 L -395.5,88.8 L -409.0,85.8 L -422.5,82.8 L -436.0,79.8 L -450.3,76.7 L -464.0,73.7 L -477.0,70.9 L -490.7,67.9 L -505.8,64.6 L -520.3,61.4 L -532.1,58.8 L -546.0,55.7 L -559.4,52.8 L -572.0,50.0 L -584.4,47.3 L -595.4,44.8 L -605.1,42.7 L -615.5,40.3 L -623.8,38.4 L -631.4,36.5 L -638.8,34.3 L -646.0,31.9 L -652.7,29.1 L -658.5,26.0 L -664.0,22.5 L -669.4,18.4 L -674.7,13.3 L -678.8,8.4 L -682.3,3.3 L -685.4,-2.4 L -688.1,-8.9 L -689.6,-14.4 L -690.8,-20.5 L -691.3,-27.3 L -691.2,-33.2 L -690.7,-39.1 L -689.7,-46.0 L -689.0,-52.1 L -688.8,-58.3 L -689.1,-64.8 L -689.9,-71.2 L -691.4,-78.0 L -693.1,-83.3 L -695.4,-89.1 L -698.4,-94.9 L -701.7,-100.2 L -705.3,-105.2 L -709.8,-110.9 L -714.0,-115.7 L -718.9,-120.7 L -724.0,-125.3 L -729.7,-129.8 L -736.4,-134.6 L -742.2,-138.3 L -748.9,-142.3 L -756.3,-146.8 L -762.2,-151.0 L -769.3,-156.6 L -774.8,-161.6 L -780.7,-167.6 L -786.6,-174.3 L -791.6,-180.9 L -796.4,-188.0 L -801.1,-196.2 L -804.6,-203.3 L -807.8,-211.0 L -810.4,-218.4 L -812.8,-227.0 L -814.4,-234.5 L -815.6,-242.0 L -816.2,-250.0 L -816.3,-258.8 L -815.9,-266.0 L -814.8,-273.8 L -813.1,-281.9 L -810.9,-289.6 L -808.3,-296.8 L -805.1,-304.3 L -801.1,-311.8 L -797.1,-318.3 L -792.5,-324.8 L -786.8,-331.6 L -781.4,-337.2 L -775.6,-342.5 L -769.1,-347.8 L -761.7,-353.0 L -754.4,-357.6 L -747.0,-361.6 L -738.1,-365.8 L -730.2,-369.1 L -721.5,-372.0 L -712.5,-374.6 L -703.8,-376.6 L -693.5,-378.3 L -684.0,-379.4 L -674.8,-380.0 L -665.5,-380.4 L -655.5,-380.5 L -645.5,-380.3 L -634.8,-379.8 L -625.1,-379.0 L -614.8,-377.9 L -604.4,-376.5 L -593.4,-374.8 L -583.4,-373.2 L -572.8,-371.2 L -561.6,-369.0 L -549.8,-366.5 L -539.6,-364.1 L -528.7,-361.5 L -518.3,-359.0 L -507.9,-356.4 L -495.7,-353.4 L -485.1,-350.9 L -474.4,-348.3 L -463.0,-345.7 L -450.5,-342.9 L -439.7,-340.5 L -428.8,-338.1 L -419.3,-335.9 L -410.0,-333.5 L -400.7,-330.9 L -393.2,-328.5 L -386.3,-326.0 L -379.5,-322.9 L -372.6,-319.2 L -367.2,-315.6 L -362.5,-311.9 L -357.9,-307.6 L -354.0,-303.1 L -350.5,-298.4 L -347.7,-293.7 L -345.6,-289.0 L -343.7,-283.4 L -342.6,-278.6 L -342.0,-273.0 L -341.9,-266.8 L -342.3,-261.7 L -343.4,-255.6 L -344.9,-250.2 L -347.2,-244.0 L -349.7,-238.8 L -352.9,-233.6 L -356.4,-228.9 L -360.5,-224.2 L -365.3,-219.5 L -370.1,-215.6 L -376.1,-211.3 L -381.4,-208.0 L -388.2,-204.2 L -394.2,-201.3 L -401.1,-198.5 L -408.3,-196.1 L -416.1,-194.1 L -423.5,-192.8 L -431.9,-191.8 L -439.7,-191.3 L -448.4,-191.2 L -456.5,-191.6 L -465.1,-192.3 L -473.9,-193.5 L -483.2,-195.0 L -492.2,-196.8 L -500.8,-198.7 L -509.9,-200.9 L -519.6,-203.4 L -528.9,-206.0 L -537.8,-208.7 L -547.3,-211.7 L -556.8,-214.8 L -567.5,-218.3 L -576.0,-220.9 L -585.9,-223.7 L -593.8,-225.8 L -602.0,-227.8 L -608.5,-229.4 L -615.4,-230.8 L -621.3,-231.8 L -627.1,-232.4 L -632.4,-232.7 L -637.2,-232.7 L -642.1,-232.2 L -646.2,-231.3 L -650.4,-229.7 L -654.0,-227.8 L -657.5,-225.4 L -660.9,-222.3 L -663.7,-218.9 L -666.1,-215.3 L -668.1,-211.0 L -669.5,-207.2 L -670.6,-202.3 L -671.2,-197.8 L -671.2,-192.8 L -670.7,-187.2 L -669.7,-181.9 L -668.2,-176.8 L -666.2,-171.8 L -663.5,-166.3 L -660.3,-161.1 L -656.7,-156.1 L -652.6,-151.2 L -648.5,-146.5 L -643.6,-141.2 L -638.7,-136.1 L -633.8,-131.1 L -628.5,-125.7 L -622.6,-119.7 L -617.3,-114.3 L -611.9,-108.8 L -606.2,-102.8 L -599.9,-96.5 L -594.2,-90.6 L -588.0,-84.4 L -581.6,-78.0 L -574.2,-71.2 L -567.8,-65.8 L -560.4,-59.8 L -552.0,-53.6 L -544.8,-48.6 L -535.7,-42.8 L -528.0,-38.3 L -519.1,-33.4 L -509.6,-28.6 L -500.8,-24.3 L -490.8,-19.9 L -481.0,-15.8 L -471.6,-12.3 L -461.4,-8.9 L -450.4,-5.8 L -440.0,-3.4 L -430.6,-1.4 L -420.7,0.7 L -412.5,2.5 L -404.9,4.0 L -398.7,5.1 L -392.2,6.0 L -385.7,6.4 L -380.2,6.3 L -374.6,5.6 L -369.4,4.4 L -364.0,2.5 L -358.5,-0.1 L -353.5,-3.1 L -348.8,-6.7 L -344.7,-10.6 L -340.3,-15.7 L -337.0,-20.4 L -334.0,-25.4 L -331.2,-31.1 L -328.5,-37.3 L -325.8,-44.2 L -323.5,-50.7 L -321.4,-56.4 L -318.7,-63.5 L -315.9,-70.4 L -313.1,-77.0 L -309.3,-84.6 L -305.5,-91.0 L -301.3,-97.2 L -296.4,-103.6 L -290.8,-110.7 L -285.6,-116.7 L -279.6,-123.3 L -274.3,-128.9 L -267.8,-135.5 L -261.9,-141.4 L -255.5,-147.8 L -248.9,-154.2 L -242.2,-160.6 L -234.0,-168.2 L -227.9,-173.5 L -221.1,-179.5 L -212.9,-186.3 L -205.1,-192.8 L -198.5,-198.2 L -192.0,-203.3 L -185.5,-208.2 L -178.7,-213.0 L -172.6,-217.1 L -165.9,-221.1 L -158.4,-225.0 L -151.8,-227.8 L -145.0,-230.1 L -137.9,-232.0 L -130.6,-233.3 L -122.7,-234.0 L -116.1,-234.1 L -108.3,-233.6 L -101.2,-232.7 L -93.6,-231.3 L -85.6,-229.3 L -78.3,-227.1 L -69.8,-224.1 L -62.5,-221.1 L -55.3,-217.7 L -47.8,-213.5 L -39.8,-208.4 L -32.3,-203.0 L -26.4,-198.2 L -19.6,-192.2 L -12.6,-185.6 L -6.3,-179.3 L 0.2,-172.5 L 7.0,-165.0 L 13.6,-157.8 L 19.9,-150.9 L 26.6,-143.6 L 33.4,-136.2 L 40.8,-128.4 L 47.5,-121.3 L 54.8,-113.8 L 63.0,-105.5 L 70.1,-98.4 L 77.4,-91.1 L 85.1,-83.4 L 93.6,-74.9 L 100.7,-67.8 L 109.4,-59.1 L 117.4,-51.2 L 125.9,-42.7 L 132.8,-35.8 L 141.8,-26.9 L 149.2,-19.5 L 157.9,-10.8 L 165.9,-2.9 L 174.3,5.4 L 183.3,14.2 L 191.9,22.6 L 200.1,30.6 L 208.9,39.1 L 218.2,48.0 L 227.0,56.6 L 235.3,64.6 L 244.2,73.1 L 251.3,80.0 L 258.2,86.6 L 264.4,92.5 L 270.4,98.2 L 276.3,103.5 L 281.6,108.0 L 286.4,111.8 L 291.2,115.2 L 295.8,118.1 L 300.7,120.5 L 305.5,122.2 L 310.2,123.3 L 315.4,124.0 L 320.9,124.1 L 326.2,123.7 L 331.3,122.8 L 336.0,121.5 L 340.9,119.4 L 345.4,116.8 L 348.9,114.1 L 352.7,110.4 L 355.6,106.9 L 358.3,102.4 L 360.1,98.7 L 362.1,93.0 L 363.0,89.1 L 363.6,84.1 L 363.8,79.1 L 363.6,73.4 L 362.8,68.2 L 361.7,62.5 L 360.2,56.7 L 358.3,50.8 L 355.9,44.5 L 353.4,38.7 L 350.2,32.7 L 346.6,26.7 L 342.3,20.5 L 337.9,15.0 L 332.4,8.8 L 327.2,3.8 L 321.3,-1.3 L 315.3,-5.9 L 308.7,-10.6 L 301.5,-15.9 L 295.4,-20.4 L 289.8,-24.9 L 284.1,-29.9 L 279.7,-34.4 L 276.0,-38.6 L 272.8,-43.2 L 269.8,-48.3 L 267.1,-54.1 L 265.4,-59.4 L 263.9,-65.7 L 263.3,-70.6 L 263.0,-76.5 L 263.3,-82.9 L 264.0,-88.1 L 265.2,-93.6 L 267.2,-99.5 L 269.3,-104.1 L 272.1,-108.8 L 275.5,-113.3 L 279.3,-117.3 L 283.2,-120.7 L 287.8,-124.0 L 293.0,-127.0 L 298.3,-129.4 L 303.6,-131.2 L 309.5,-132.6 L 315.6,-133.6 L 321.9,-134.0 L 328.7,-133.8 L 335.3,-133.1 L 341.6,-131.9 L 348.9,-130.0 L 355.2,-127.8 L 361.7,-125.0 L 367.8,-121.8 L 374.1,-118.1 L 380.3,-114.0 L 387.1,-109.5 L 393.6,-105.2 L 399.9,-101.1 L 407.4,-96.1 L 414.4,-91.6 L 421.2,-87.1 L 428.1,-82.6 L 435.5,-77.8 L 442.8,-72.6 L 451.6,-66.0 L 457.7,-61.0 L 464.9,-54.5 L 470.6,-48.5 L 477.0,-40.9 L 481.8,-34.3 L 486.6,-26.7 L 490.9,-18.8 L 494.8,-10.3 L 497.7,-2.4 L 500.3,6.2 L 502.3,15.1 L 503.8,25.2 L 504.5,34.0 L 504.6,43.2 L 504.2,52.0 L 503.1,61.8 L 501.4,71.6 L 499.3,80.5 L 496.9,89.4 L 494.3,99.0 L 491.6,109.1 L 488.7,119.9 L 486.4,128.4 L 483.5,139.5 L 481.1,148.6 L 478.2,159.9 L 475.6,169.5 L 472.7,179.4 L 469.1,189.5 L 465.4,197.9 L 460.5,207.1 L 455.6,215.1 L 449.2,223.6 L 443.4,230.4 L 436.6,237.2 L 430.6,242.5 L 423.7,247.6 L 416.0,252.5 L 409.3,256.1 L 402.8,259.1 L 395.8,262.0 L 389.8,264.3 L 383.8,266.3 L 378.2,268.1 L 372.5,269.8 L 367.3,271.1 L 361.2,272.3 L 355.8,273.0 L 350.6,273.5 L 345.2,273.7 L 339.7,273.5 L 335.0,273.2 L 329.5,272.5 L 324.4,271.6 L 319.6,270.6 L 314.3,269.1 L 309.1,267.5 L 303.7,265.5 L 299.6,263.7 L 294.7,261.5 L 290.1,259.3 L 285.1,257.0 L 279.5,254.3 L 274.5,251.9 L 269.5,249.5 L 264.0,246.9 L 258.5,244.2 L 252.4,241.5 L 246.5,238.8 L 240.8,236.4 L 234.5,233.9 L 227.9,231.4 L 220.8,228.9 L 213.7,226.5 L 206.8,224.4 L 198.6,221.9 L 191.0,219.7 L 183.6,217.6 L 176.0,215.5 L 167.8,213.5 L 159.0,211.4 L 150.4,209.4 L 141.7,207.4" fill="none" stroke="url(#g)" stroke-width="92.5" stroke-linecap="round" stroke-linejoin="round"/>
<path d="M 133.3,208.6 L 119.9,205.4 L 109.6,202.9 L 98.7,200.3 L 87.1,197.5 L 76.5,194.9 L 65.4,192.2 L 53.0,189.2 L 42.2,186.6 L 31.4,184.0 L 20.0,181.2 L 7.8,178.3 L -4.4,175.3 L -14.9,172.8 L -26.7,170.1 L -39.1,167.3 L -50.5,164.8 L -62.6,162.2 L -74.7,159.6 L -88.1,156.8 L -99.7,154.3 L -111.4,151.7 L -125.0,148.8 L -136.8,146.2 L -150.5,143.2 L -161.2,140.9 L -173.8,138.1 L -187.7,135.1 L -199.8,132.4 L -211.9,129.8 L -226.0,126.7 L -238.2,124.0 L -251.1,121.1 L -264.1,118.2 L -276.5,115.5 L -290.8,112.3 L -303.3,109.5 L -315.8,106.7 L -328.9,103.8 L -342.2,100.8 L -356.1,97.7 L -369.4,94.7 L -382.1,91.9 L -395.5,88.8 L -409.0,85.8 L -422.5,82.8 L -436.0,79.8 L -450.3,76.7 L -464.0,73.7 L -477.0,70.9 L -490.7,67.9 L -505.8,64.6 L -520.3,61.4 L -532.1,58.8 L -546.0,55.7 L -559.4,52.8 L -572.0,50.0 L -584.4,47.3 L -595.4,44.8 L -605.1,42.7 L -615.5,40.3 L -623.8,38.4 L -631.4,36.5 L -638.8,34.3 L -646.0,31.9 L -652.7,29.1 L -658.5,26.0 L -664.0,22.5 L -669.4,18.4 L -674.7,13.3 L -678.8,8.4 L -682.3,3.3 L -685.4,-2.4 L -688.1,-8.9 L -689.6,-14.4 L -690.8,-20.5 L -691.3,-27.3 L -691.2,-33.2 L -690.7,-39.1 L -689.7,-46.0 L -689.0,-52.1 L -688.8,-58.3 L -689.1,-64.8 L -689.9,-71.2 L -691.4,-78.0 L -693.1,-83.3 L -695.4,-89.1 L -698.4,-94.9 L -701.7,-100.2 L -705.3,-105.2 L -709.8,-110.9 L -714.0,-115.7 L -718.9,-120.7 L -724.0,-125.3 L -729.7,-129.8 L -736.4,-134.6 L -742.2,-138.3 L -748.9,-142.3 L -756.3,-146.8 L -762.2,-151.0 L -769.3,-156.6 L -774.8,-161.6 L -780.7,-167.6 L -786.6,-174.3 L -791.6,-180.9 L -796.4,-188.0 L -801.1,-196.2 L -804.6,-203.3 L -807.8,-211.0 L -810.4,-218.4 L -812.8,-227.0 L -814.4,-234.5 L -815.6,-242.0 L -816.2,-250.0 L -816.3,-258.8 L -815.9,-266.0 L -814.8,-273.8 L -813.1,-281.9 L -810.9,-289.6 L -808.3,-296.8 L -805.1,-304.3 L -801.1,-311.8 L -797.1,-318.3 L -792.5,-324.8 L -786.8,-331.6 L -781.4,-337.2 L -775.6,-342.5 L -769.1,-347.8 L -761.7,-353.0 L -754.4,-357.6 L -747.0,-361.6 L -738.1,-365.8 L -730.2,-369.1 L -721.5,-372.0 L -712.5,-374.6 L -703.8,-376.6 L -693.5,-378.3 L -684.0,-379.4 L -674.8,-380.0 L -665.5,-380.4 L -655.5,-380.5 L -645.5,-380.3 L -634.8,-379.8 L -625.1,-379.0 L -614.8,-377.9 L -604.4,-376.5 L -593.4,-374.8 L -583.4,-373.2 L -572.8,-371.2 L -561.6,-369.0 L -549.8,-366.5 L -539.6,-364.1 L -528.7,-361.5 L -518.3,-359.0 L -507.9,-356.4 L -495.7,-353.4 L -485.1,-350.9 L -474.4,-348.3 L -463.0,-345.7 L -450.5,-342.9 L -439.7,-340.5 L -428.8,-338.1 L -419.3,-335.9 L -410.0,-333.5 L -400.7,-330.9 L -393.2,-328.5 L -386.3,-326.0 L -379.5,-322.9 L -372.6,-319.2 L -367.2,-315.6 L -362.5,-311.9 L -357.9,-307.6 L -354.0,-303.1 L -350.5,-298.4 L -347.7,-293.7 L -345.6,-289.0 L -343.7,-283.4 L -342.6,-278.6 L -342.0,-273.0 L -341.9,-266.8 L -342.3,-261.7 L -343.4,-255.6 L -344.9,-250.2 L -347.2,-244.0 L -349.7,-238.8 L -352.9,-233.6 L -356.4,-228.9 L -360.5,-224.2 L -365.3,-219.5 L -370.1,-215.6 L -376.1,-211.3 L -381.4,-208.0 L -388.2,-204.2 L -394.2,-201.3 L -401.1,-198.5 L -408.3,-196.1 L -416.1,-194.1 L -423.5,-192.8 L -431.9,-191.8 L -439.7,-191.3 L -448.4,-191.2 L -456.5,-191.6 L -465.1,-192.3 L -473.9,-193.5 L -483.2,-195.0 L -492.2,-196.8 L -500.8,-198.7 L -509.9,-200.9 L -519.6,-203.4 L -528.9,-206.0 L -537.8,-208.7 L -547.3,-211.7 L -556.8,-214.8 L -567.5,-218.3 L -576.0,-220.9 L -585.9,-223.7 L -593.8,-225.8 L -602.0,-227.8 L -608.5,-229.4 L -615.4,-230.8 L -621.3,-231.8 L -627.1,-232.4 L -632.4,-232.7 L -637.2,-232.7 L -642.1,-232.2 L -646.2,-231.3 L -650.4,-229.7 L -654.0,-227.8 L -657.5,-225.4 L -660.9,-222.3 L -663.7,-218.9 L -666.1,-215.3 L -668.1,-211.0 L -669.5,-207.2 L -670.6,-202.3 L -671.2,-197.8 L -671.2,-192.8 L -670.7,-187.2 L -669.7,-181.9 L -668.2,-176.8 L -666.2,-171.8 L -663.5,-166.3 L -660.3,-161.1 L -656.7,-156.1 L -652.6,-151.2 L -648.5,-146.5 L -643.6,-141.2 L -638.7,-136.1 L -633.8,-131.1 L -628.5,-125.7 L -622.6,-119.7 L -617.3,-114.3 L -611.9,-108.8 L -606.2,-102.8 L -599.9,-96.5 L -594.2,-90.6 L -588.0,-84.4 L -581.6,-78.0 L -574.2,-71.2 L -567.8,-65.8 L -560.4,-59.8 L -552.0,-53.6 L -544.8,-48.6 L -535.7,-42.8 L -528.0,-38.3 L -519.1,-33.4 L -509.6,-28.6 L -500.8,-24.3 L -490.8,-19.9 L -481.0,-15.8 L -471.6,-12.3 L -461.4,-8.9 L -450.4,-5.8 L -440.0,-3.4 L -430.6,-1.4 L -420.7,0.7 L -412.5,2.5 L -404.9,4.0 L -398.7,5.1 L -392.2,6.0 L -385.7,6.4 L -380.2,6.3 L -374.6,5.6 L -369.4,4.4 L -364.0,2.5 L -358.5,-0.1 L -353.5,-3.1 L -348.8,-6.7 L -344.7,-10.6 L -340.3,-15.7 L -337.0,-20.4 L -334.0,-25.4 L -331.2,-31.1 L -328.5,-37.3 L -325.8,-44.2 L -323.5,-50.7 L -321.4,-56.4 L -318.7,-63.5 L -315.9,-70.4 L -313.1,-77.0 L -309.3,-84.6 L -305.5,-91.0 L -301.3,-97.2 L -296.4,-103.6 L -290.8,-110.7 L -285.6,-116.7 L -279.6,-123.3 L -274.3,-128.9 L -267.8,-135.5 L -261.9,-141.4 L -255.5,-147.8 L -248.9,-154.2 L -242.2,-160.6 L -234.0,-168.2 L -227.9,-173.5 L -221.1,-179.5 L -212.9,-186.3 L -205.1,-192.8 L -198.5,-198.2 L -192.0,-203.3 L -185.5,-208.2 L -178.7,-213.0 L -172.6,-217.1 L -165.9,-221.1 L -158.4,-225.0 L -151.8,-227.8 L -145.0,-230.1 L -137.9,-232.0 L -130.6,-233.3 L -122.7,-234.0 L -116.1,-234.1 L -108.3,-233.6 L -101.2,-232.7 L -93.6,-231.3 L -85.6,-229.3 L -78.3,-227.1 L -69.8,-224.1 L -62.5,-221.1 L -55.3,-217.7 L -47.8,-213.5 L -39.8,-208.4 L -32.3,-203.0 L -26.4,-198.2 L -19.6,-192.2 L -12.6,-185.6 L -6.3,-179.3 L 0.2,-172.5 L 7.0,-165.0 L 13.6,-157.8 L 19.9,-150.9 L 26.6,-143.6 L 33.4,-136.2 L 40.8,-128.4 L 47.5,-121.3 L 54.8,-113.8 L 63.0,-105.5 L 70.1,-98.4 L 77.4,-91.1 L 85.1,-83.4 L 93.6,-74.9 L 100.7,-67.8 L 109.4,-59.1 L 117.4,-51.2 L 125.9,-42.7 L 132.8,-35.8 L 141.8,-26.9 L 149.2,-19.5 L 157.9,-10.8 L 165.9,-2.9 L 174.3,5.4 L 183.3,14.2 L 191.9,22.6 L 200.1,30.6 L 208.9,39.1 L 218.2,48.0 L 227.0,56.6 L 235.3,64.6 L 244.2,73.1 L 251.3,80.0 L 258.2,86.6 L 264.4,92.5 L 270.4,98.2 L 276.3,103.5 L 281.6,108.0 L 286.4,111.8 L 291.2,115.2 L 295.8,118.1 L 300.7,120.5 L 305.5,122.2 L 310.2,123.3 L 315.4,124.0 L 320.9,124.1 L 326.2,123.7 L 331.3,122.8 L 336.0,121.5 L 340.9,119.4 L 345.4,116.8 L 348.9,114.1 L 352.7,110.4 L 355.6,106.9 L 358.3,102.4 L 360.1,98.7 L 362.1,93.0 L 363.0,89.1 L 363.6,84.1 L 363.8,79.1 L 363.6,73.4 L 362.8,68.2 L 361.7,62.5 L 360.2,56.7 L 358.3,50.8 L 355.9,44.5 L 353.4,38.7 L 350.2,32.7 L 346.6,26.7 L 342.3,20.5 L 337.9,15.0 L 332.4,8.8 L 327.2,3.8 L 321.3,-1.3 L 315.3,-5.9 L 308.7,-10.6 L 301.5,-15.9 L 295.4,-20.4 L 289.8,-24.9 L 284.1,-29.9 L 279.7,-34.4 L 276.0,-38.6 L 272.8,-43.2 L 269.8,-48.3 L 267.1,-54.1 L 265.4,-59.4 L 263.9,-65.7 L 263.3,-70.6 L 263.0,-76.5 L 263.3,-82.9 L 264.0,-88.1 L 265.2,-93.6 L 267.2,-99.5 L 269.3,-104.1 L 272.1,-108.8 L 275.5,-113.3 L 279.3,-117.3 L 283.2,-120.7 L 287.8,-124.0 L 293.0,-127.0 L 298.3,-129.4 L 303.6,-131.2 L 309.5,-132.6 L 315.6,-133.6 L 321.9,-134.0 L 328.7,-133.8 L 335.3,-133.1 L 341.6,-131.9 L 348.9,-130.0 L 355.2,-127.8 L 361.7,-125.0 L 367.8,-121.8 L 374.1,-118.1 L 380.3,-114.0 L 387.1,-109.5 L 393.6,-105.2 L 399.9,-101.1 L 407.4,-96.1 L 414.4,-91.6 L 421.2,-87.1 L 428.1,-82.6 L 435.5,-77.8 L 442.8,-72.6 L 451.6,-66.0 L 457.7,-61.0 L 464.9,-54.5 L 470.6,-48.5 L 477.0,-40.9 L 481.8,-34.3 L 486.6,-26.7 L 490.9,-18.8 L 494.8,-10.3 L 497.7,-2.4 L 500.3,6.2 L 502.3,15.1 L 503.8,25.2 L 504.5,34.0 L 504.6,43.2 L 504.2,52.0 L 503.1,61.8 L 501.4,71.6 L 499.3,80.5 L 496.9,89.4 L 494.3,99.0 L 491.6,109.1 L 488.7,119.9 L 486.4,128.4 L 483.5,139.5 L 481.1,148.6 L 478.2,159.9 L 475.6,169.5 L 472.7,179.4 L 469.1,189.5 L 465.4,197.9 L 460.5,207.1 L 455.6,215.1 L 449.2,223.6 L 443.4,230.4 L 436.6,237.2 L 430.6,242.5 L 423.7,247.6 L 416.0,252.5 L 409.3,256.1 L 402.8,259.1 L 395.8,262.0 L 389.8,264.3 L 383.8,266.3 L 378.2,268.1 L 372.5,269.8 L 367.3,271.1 L 361.2,272.3 L 355.8,273.0 L 350.6,273.5 L 345.2,273.7 L 339.7,273.5 L 335.0,273.2 L 329.5,272.5 L 324.4,271.6 L 319.6,270.6 L 314.3,269.1 L 309.1,267.5 L 303.7,265.5 L 299.6,263.7 L 294.7,261.5 L 290.1,259.3 L 285.1,257.0 L 279.5,254.3 L 274.5,251.9 L 269.5,249.5 L 264.0,246.9 L 258.5,244.2 L 252.4,241.5 L 246.5,238.8 L 240.8,236.4 L 234.5,233.9 L 227.9,231.4 L 220.8,228.9 L 213.7,226.5 L 206.8,224.4 L 198.6,221.9 L 191.0,219.7 L 183.6,217.6 L 176.0,215.5 L 167.8,213.5 L 159.0,211.4 L 150.4,209.4 L 141.7,207.4" fill="none" stroke="#ffffff" stroke-opacity="0.92" stroke-width="9.2" stroke-linecap="round" stroke-linejoin="round"/>
<line x1="152.8" y1="127.7" x2="113.8" y2="289.5" stroke="#ffffff" stroke-width="12.9" stroke-linecap="round"/>
</svg>