<svg xmlns="http://www.w3.org/2000/svg" viewBox="-2126.2 -1397.7 6007.9 3162.3">
<defs><linearGradient id="g" gradientUnits="userSpaceOnUse" x1="-1840.7" y1="-1112.3" x2="3596.3" y2="1479.1">
<stop offset="0" stop-color="#ff8a18"/><stop offset="1" stop-color="#7b2da0"/></linearGradient></defs>
<path d="M -547.3,1469.4 L -561.1,1468.5 L -570.5,1467.9 L -579.0,1467.3 L -588.5,1466.6 L -598.2,1466.0 L -608.1,1465.3 L -618.0,1464.6 L -628.1,1463.9 L -639.3,1463.2 L -649.6,1462.5 L -659.0,1461.9 L -669.5,1461.2 L -680.2,1460.5 L -690.9,1459.8 L -702.8,1459.1 L -712.7,1458.5 L -723.7,1457.8 L -734.9,1457.0 L -747.2,1456.2 L -757.4,1455.4 L -768.7,1454.6 L -780.2,1453.7 L -791.6,1452.8 L -804.4,1451.7 L -814.9,1450.8 L -827.8,1449.7 L -838.4,1448.7 L -850.2,1447.5 L -863.3,1446.1 L -874.1,1444.7 L -886.1,1443.1 L -898.2,1441.3 L -910.3,1439.3 L -922.4,1437.1 L -934.6,1434.7 L -946.7,1432.2 L -959.0,1429.7 L -971.3,1427.1 L -983.6,1424.3 L -995.9,1421.3 L -1009.4,1417.8 L -1020.5,1414.7 L -1032.7,1411.0 L -1045.0,1407.1 L -1057.2,1402.9 L -1069.3,1398.5 L -1081.2,1393.8 L -1092.9,1388.8 L -1104.2,1383.5 L -1116.2,1377.3 L -1125.6,1372.1 L -1135.6,1365.9 L -1145.2,1359.3 L -1154.3,1352.4 L -1163.0,1345.1 L -1171.3,1337.5 L -1179.0,1329.6 L -1186.9,1320.4 L -1192.8,1312.6 L -1198.9,1303.7 L -1205.2,1293.6 L -1210.0,1285.4 L -1215.0,1276.5 L -1219.8,1267.9 L -1224.2,1259.8 L -1228.3,1252.1 L -1232.2,1245.0 L -1236.2,1237.7 L -1239.2,1232.2 L -1242.4,1226.6 L -1245.4,1221.3 L -1248.4,1216.2 L -1251.2,1211.4 L -1254.0,1206.9 L -1256.9,1202.7 L -1260.2,1198.4 L -1263.0,1195.0 L -1266.3,1191.7 L -1269.9,1188.7 L -1274.1,1185.9 L -1277.7,1184.0 L -1281.8,1182.3 L -1286.0,1181.0 L -1290.2,1180.2 L -1294.5,1179.7 L -1299.0,1179.5 L -1303.6,1179.4 L -1308.5,1179.4 L -1313.2,1179.5 L -1317.9,1179.4 L -1322.6,1179.1 L -1327.1,1178.4 L -1331.5,1177.4 L -1335.7,1176.1 L -1340.1,1174.3 L -1343.7,1172.4 L -1348.1,1169.8 L -1351.6,1167.4 L -1355.5,1164.3 L -1359.7,1160.5 L -1363.0,1157.0 L -1366.6,1152.8 L -1370.5,1147.7 L -1373.5,1143.2 L -1376.9,1138.0 L -1380.2,1132.5 L -1383.5,1126.7 L -1386.8,1120.7 L -1390.3,1114.5 L -1393.8,1108.2 L -1397.5,1101.7 L -1401.7,1094.3 L -1405.2,1088.2 L -1409.2,1081.2 L -1413.3,1074.2 L -1418.0,1066.4 L -1422.0,1059.8 L -1427.0,1051.8 L -1431.4,1045.2 L -1436.5,1037.8 L -1441.9,1030.5 L -1447.7,1023.3 L -1453.9,1016.2 L -1460.4,1009.2 L -1468.0,1001.9 L -1474.5,996.0 L -1481.9,989.5 L -1490.0,982.1 L -1497.3,975.1 L -1503.8,968.6 L -1511.8,960.4 L -1518.3,953.5 L -1525.1,945.6 L -1531.6,937.4 L -1537.6,928.9 L -1543.7,919.4 L -1548.7,910.4 L -1552.6,902.2 L -1556.5,892.8 L -1559.8,883.3 L -1562.6,873.5 L -1565.3,862.7 L -1567.0,853.8 L -1568.7,842.6 L -1569.7,833.3 L -1570.4,823.1 L -1570.7,813.1 L -1570.9,803.6 L -1570.9,794.6 L -1571.0,786.1 L -1571.1,778.0 L -1571.3,770.3 L -1571.7,762.1 L -1572.2,755.7 L -1573.1,748.7 L -1574.4,741.9 L -1576.3,734.5 L -1578.3,728.6 L -1580.9,722.3 L -1584.4,715.6 L -1587.7,710.4 L -1591.8,704.8 L -1596.9,699.0 L -1601.4,694.5 L -1606.9,689.9 L -1613.4,685.4 L -1619.0,682.2 L -1625.7,679.1 L -1633.4,676.2 L -1640.7,674.0 L -1647.5,672.3 L -1655.3,670.6 L -1663.3,669.0 L -1672.2,667.0 L -1679.5,665.1 L -1687.6,662.5 L -1695.5,659.3 L -1704.0,655.2 L -1710.8,651.3 L -1718.0,646.4 L -1725.1,641.1 L -1731.8,635.4 L -1738.9,628.6 L -1744.5,622.8 L -1750.4,616.0 L -1756.1,608.9 L -1762.1,600.6 L -1766.7,593.5 L -1771.6,585.4 L -1776.3,577.0 L -1780.9,568.3 L -1785.3,559.4 L -1789.7,550.4 L -1794.0,541.2 L -1798.3,531.8 L -1802.5,522.2 L -1806.5,512.5 L -1810.5,502.6 L -1814.3,492.5 L -1818.4,481.3 L -1821.7,472.1 L -1825.1,462.2 L -1828.3,452.6 L -1831.2,443.6 L -1834.1,434.0 L -1836.1,426.4 L -1838.0,418.2 L -1839.4,410.1 L -1840.4,401.4 L -1840.7,393.7 L -1840.6,386.7 L -1839.8,379.0 L -1838.6,371.2 L -1836.9,363.4 L -1834.8,355.4 L -1832.2,347.5 L -1829.1,339.5 L -1825.7,331.5 L -1821.7,323.6 L -1816.9,314.9 L -1812.7,307.8 L -1807.7,299.9 L -1802.5,292.0 L -1797.1,284.2 L -1790.8,275.7 L -1784.9,268.0 L -1779.4,261.0 L -1772.9,253.3 L -1766.3,245.7 L -1759.3,238.1 L -1752.1,230.6 L -1744.6,223.1 L -1736.2,215.0 L -1728.3,207.7 L -1720.1,200.4 L -1712.7,193.9 L -1704.2,186.7 L -1695.5,179.5 L -1686.7,172.4 L -1677.7,165.3 L -1668.5,158.3 L -1659.2,151.3 L -1649.7,144.5 L -1640.0,137.7 L -1630.3,131.0 L -1620.4,124.4 L -1610.3,117.9 L -1600.0,111.5 L -1588.6,104.4 L -1579.2,98.7 L -1568.6,92.4 L -1557.8,86.1 L -1547.1,79.8 L -1535.1,72.8 L -1525.3,67.0 L -1514.3,60.6 L -1502.1,53.5 L -1492.1,47.6 L -1480.9,41.2 L -1469.7,34.7 L -1458.3,28.3 L -1446.9,21.9 L -1435.3,15.7 L -1423.6,9.5 L -1410.7,2.8 L -1400.0,-2.6 L -1386.8,-9.0 L -1375.8,-14.1 L -1362.4,-20.3 L -1351.3,-25.2 L -1338.9,-30.6 L -1325.2,-36.5 L -1313.8,-41.1 L -1301.2,-46.2 L -1288.5,-51.1 L -1275.7,-55.9 L -1262.8,-60.6 L -1249.8,-65.2 L -1235.5,-70.0 L -1223.7,-73.9 L -1209.2,-78.6 L -1195.9,-82.7 L -1184.0,-86.4 L -1170.7,-90.5 L -1157.3,-94.6 L -1143.9,-98.7 L -1129.1,-103.1 L -1117.0,-106.8 L -1103.5,-110.8 L -1090.0,-114.8 L -1076.4,-118.7 L -1061.4,-123.0 L -1049.1,-126.5 L -1035.4,-130.4 L -1020.3,-134.7 L -1006.6,-138.6 L -994.2,-142.1 L -980.4,-146.0 L -966.6,-149.9 L -952.7,-153.8 L -938.9,-157.7 L -925.0,-161.6 L -911.0,-165.6 L -897.1,-169.5 L -883.1,-173.5 L -867.7,-177.9 L -855.1,-181.5 L -839.7,-185.9 L -827.0,-189.5 L -811.6,-193.9 L -798.9,-197.6 L -784.8,-201.6 L -770.6,-205.6 L -756.5,-209.7 L -740.8,-214.1 L -728.1,-217.7 L -713.8,-221.8 L -699.6,-225.8 L -683.9,-230.2 L -669.5,-234.3 L -656.7,-237.9 L -642.3,-242.0 L -628.0,-246.1 L -613.6,-250.2 L -599.2,-254.3 L -584.8,-258.4 L -570.4,-262.5 L -556.0,-266.6 L -541.5,-270.8 L -525.6,-275.3 L -511.1,-279.4 L -498.1,-283.0 L -483.5,-287.1 L -469.0,-291.2 L -453.0,-295.7 L -439.9,-299.4 L -425.3,-303.4 L -410.7,-307.5 L -394.6,-311.9 L -381.4,-315.5 L -365.3,-319.9 L -350.6,-323.9 L -337.4,-327.6 L -322.8,-331.6 L -306.6,-336.2 L -293.5,-339.9 L -278.8,-344.1 L -264.1,-348.3 L -249.4,-352.5 L -234.7,-356.7 L -220.0,-360.8 L -203.8,-365.5 L -190.6,-369.2 L -174.4,-373.9 L -161.1,-377.6 L -146.3,-381.8 L -130.1,-386.4 L -116.8,-390.2 L -102.0,-394.4 L -87.2,-398.7 L -71.0,-403.4 L -57.7,-407.2 L -42.9,-411.5 L -28.1,-415.9 L -13.3,-420.2 L 1.5,-424.5 L 17.8,-429.2 L 31.1,-433.0 L 45.9,-437.2 L 62.3,-441.9 L 75.6,-445.7 L 90.5,-449.9 L 105.3,-454.2 L 120.2,-458.4 L 136.5,-463.0 L 151.4,-467.2 L 164.8,-471.0 L 181.1,-475.6 L 194.5,-479.3 L 209.4,-483.5 L 225.8,-488.1 L 239.2,-491.9 L 254.1,-496.1 L 269.0,-500.3 L 283.9,-504.5 L 298.8,-508.7 L 313.7,-513.0 L 328.6,-517.2 L 343.5,-521.5 L 358.4,-525.7 L 373.3,-530.0 L 388.2,-534.3 L 403.1,-538.5 L 419.5,-543.2 L 432.9,-547.1 L 449.3,-551.8 L 462.8,-555.6 L 477.7,-559.8 L 492.7,-563.9 L 509.1,-568.5 L 522.5,-572.3 L 539.0,-576.8 L 553.9,-581.0 L 568.9,-585.2 L 582.3,-588.9 L 597.3,-593.1 L 612.2,-597.4 L 627.1,-601.7 L 643.5,-606.4 L 656.9,-610.4 L 671.8,-614.8 L 686.7,-619.1 L 701.6,-623.5 L 716.5,-627.9 L 731.4,-632.3 L 746.3,-636.7 L 761.2,-641.1 L 776.2,-645.4 L 791.1,-649.7 L 806.0,-654.0 L 821.0,-658.2 L 835.9,-662.5 L 850.9,-666.7 L 865.8,-670.9 L 882.3,-675.6 L 895.7,-679.4 L 910.6,-683.7 L 925.6,-687.9 L 940.5,-692.2 L 955.5,-696.5 L 971.9,-701.2 L 985.3,-705.0 L 1000.3,-709.2 L 1015.2,-713.5 L 1030.2,-717.7 L 1045.1,-721.9 L 1060.1,-726.1 L 1075.0,-730.3 L 1090.0,-734.5 L 1104.9,-738.7 L 1119.8,-742.9 L 1134.8,-747.1 L 1149.7,-751.3 L 1164.7,-755.5 L 1179.6,-759.7 L 1194.6,-763.9 L 1209.6,-768.1 L 1224.5,-772.3 L 1241.0,-777.0 L 1254.5,-780.8 L 1269.4,-785.0 L 1284.4,-789.2 L 1299.4,-793.5 L 1314.3,-797.8 L 1330.8,-802.5 L 1344.3,-806.3 L 1359.3,-810.6 L 1374.3,-814.9 L 1390.7,-819.7 L 1404.2,-823.6 L 1419.2,-827.9 L 1434.2,-832.2 L 1450.7,-836.9 L 1465.7,-841.3 L 1479.2,-845.1 L 1495.7,-849.9 L 1509.2,-853.8 L 1524.2,-858.1 L 1539.2,-862.4 L 1554.2,-866.7 L 1569.2,-871.0 L 1584.2,-875.3 L 1599.2,-879.7 L 1614.2,-884.0 L 1629.2,-888.2 L 1644.2,-892.4 L 1660.7,-897.0 L 1674.3,-900.8 L 1689.3,-904.9 L 1705.8,-909.5 L 1720.9,-913.7 L 1734.4,-917.5 L 1749.4,-921.7 L 1764.5,-925.9 L 1781.0,-930.6 L 1794.5,-934.4 L 1809.5,-938.6 L 1824.6,-942.8 L 1839.6,-947.1 L 1854.6,-951.3 L 1869.6,-955.5 L 1884.6,-959.8 L 1899.6,-964.0 L 1914.6,-968.2 L 1929.6,-972.4 L 1944.6,-976.6 L 1959.6,-980.9 L 1976.1,-985.5 L 1989.6,-989.3 L 2006.1,-993.8 L 2019.6,-997.6 L 2034.6,-1001.7 L 2049.5,-1005.8 L 2064.5,-1010.0 L 2079.5,-1014.2 L 2094.4,-1018.4 L 2109.4,-1022.6 L 2124.3,-1026.8 L 2139.2,-1031.1 L 2154.1,-1035.3 L 2170.5,-1040.0 L 2184.0,-1043.9 L 2200.4,-1048.5 L 2213.9,-1052.2 L 2230.3,-1056.6 L 2245.4,-1060.5 L 2259.0,-1063.8 L 2274.1,-1067.3 L 2289.3,-1070.5 L 2306.0,-1073.9 L 2321.3,-1076.8 L 2335.0,-1079.2 L 2350.4,-1081.7 L 2365.7,-1083.9 L 2382.7,-1085.9 L 2396.6,-1087.2 L 2412.1,-1088.5 L 2427.6,-1089.5 L 2443.1,-1090.4 L 2460.2,-1091.3 L 2474.1,-1091.9 L 2489.7,-1092.5 L 2505.2,-1093.1 L 2520.8,-1093.7 L 2537.9,-1094.3 L 2553.4,-1094.9 L 2567.4,-1095.4 L 2583.0,-1095.9 L 2598.5,-1096.3 L 2615.7,-1096.8 L 2631.2,-1097.2 L 2645.2,-1097.5 L 2660.8,-1097.8 L 2676.4,-1098.1 L 2693.5,-1098.4 L 2707.5,-1098.6 L 2723.1,-1098.9 L 2738.6,-1099.2 L 2754.2,-1099.5 L 2769.7,-1099.9 L 2786.8,-1100.4 L 2800.8,-1100.8 L 2816.4,-1101.3 L 2831.9,-1101.7 L 2849.0,-1102.2 L 2863.0,-1102.5 L 2878.5,-1102.9 L 2894.0,-1103.2 L 2909.5,-1103.6 L 2926.6,-1103.9 L 2940.5,-1104.3 L 2956.0,-1104.6 L 2971.5,-1105.0 L 2987.0,-1105.3 L 3002.5,-1105.7 L 3019.5,-1106.0 L 3033.5,-1106.4 L 3048.9,-1106.7 L 3064.4,-1107.1 L 3079.9,-1107.4 L 3095.4,-1107.7 L 3112.4,-1108.1 L 3126.3,-1108.4 L 3141.8,-1108.7 L 3158.9,-1109.1 L 3172.8,-1109.4 L 3188.3,-1109.7 L 3205.4,-1110.0 L 3219.3,-1110.3 L 3234.8,-1110.6 L 3251.9,-1111.0 L 3265.9,-1111.2 L 3281.4,-1111.5 L 3296.9,-1111.8 L 3312.5,-1112.0 L 3328.0,-1112.2 L 3343.6,-1112.3 L 3359.0,-1112.2 L 3375.6,-1111.8 L 3388.7,-1111.3 L 3402.8,-1110.6 L 3417.7,-1109.5 L 3429.5,-1108.3 L 3442.0,-1106.7 L 3454.1,-1105.1 L 3465.7,-1103.4 L 3476.7,-1101.5 L 3488.1,-1099.5 L 3496.9,-1097.7 L 3506.0,-1095.6 L 3514.5,-1093.5 L 3522.4,-1091.5 L 3529.6,-1089.4 L 3536.2,-1087.4 L 3542.7,-1085.4 L 3547.8,-1083.9 L 3553.0,-1082.2 L 3558.0,-1080.6 L 3563.2,-1078.9 L 3567.2,-1077.5 L 3571.4,-1075.9 L 3575.4,-1074.2 L 3579.1,-1072.4 L 3582.7,-1070.0 L 3585.7,-1067.6 L 3588.0,-1065.2 L 3590.4,-1062.3 L 3592.3,-1059.2 L 3593.8,-1055.9 L 3594.9,-1052.5 L 3595.7,-1048.9 L 3596.1,-1045.1 L 3596.3,-1041.0 L 3596.1,-1036.7 L 3595.5,-1032.2 L 3594.7,-1027.5 L 3593.6,-1022.6 L 3592.1,-1017.4 L 3590.2,-1011.5 L 3588.5,-1006.4 L 3586.5,-1000.6 L 3584.4,-994.6 L 3582.3,-988.4 L 3580.2,-981.9 L 3578.0,-975.2 L 3575.8,-968.3 L 3573.5,-961.2 L 3571.2,-953.9 L 3568.8,-946.4 L 3566.4,-938.8 L 3564.0,-931.0 L 3561.5,-923.0 L 3559.0,-914.8 L 3556.5,-906.5 L 3553.9,-898.1 L 3551.2,-889.5 L 3548.5,-880.7 L 3545.8,-871.8 L 3543.0,-862.8 L 3540.1,-853.8 L 3537.3,-844.6 L 3534.3,-835.2 L 3531.4,-825.8 L 3528.1,-815.2 L 3525.0,-805.6 L 3522.2,-796.7 L 3519.1,-786.8 L 3516.0,-776.8 L 3512.5,-765.6 L 3509.7,-756.4 L 3506.5,-746.1 L 3503.2,-735.6 L 3500.0,-725.1 L 3496.3,-713.3 L 3493.3,-703.7 L 3490.0,-692.9 L 3486.6,-682.0 L 3483.2,-671.0 L 3479.7,-659.9 L 3476.2,-648.9 L 3472.6,-637.7 L 3469.1,-626.5 L 3465.5,-615.2 L 3461.9,-603.8 L 3458.2,-592.4 L 3454.5,-580.8 L 3450.9,-569.2 L 3447.2,-557.6 L 3443.4,-545.9 L 3439.7,-534.1 L 3436.0,-522.2 L 3432.2,-510.3 L 3428.3,-498.3 L 3424.4,-486.3 L 3420.5,-474.2 L 3416.1,-460.9 L 3412.0,-448.7 L 3408.3,-437.7 L 3404.1,-425.5 L 3399.9,-413.2 L 3395.1,-399.6 L 3391.1,-388.6 L 3386.4,-376.2 L 3381.6,-363.9 L 3375.9,-350.5 L 3371.1,-339.5 L 3365.6,-327.3 L 3359.8,-315.2 L 3353.9,-303.2 L 3347.8,-291.2 L 3341.6,-279.2 L 3335.4,-267.1 L 3329.2,-255.0 L 3322.9,-242.9 L 3316.5,-230.8 L 3310.0,-218.6 L 3303.5,-206.5 L 3296.3,-193.1 L 3290.3,-182.1 L 3283.0,-168.7 L 3276.9,-157.7 L 3270.2,-145.5 L 3263.4,-133.2 L 3256.5,-120.9 L 3249.6,-108.7 L 3242.6,-96.4 L 3235.7,-84.1 L 3228.6,-71.7 L 3221.5,-59.4 L 3214.4,-47.1 L 3207.3,-34.7 L 3200.2,-22.3 L 3193.0,-9.9 L 3185.8,2.6 L 3178.6,15.0 L 3171.3,27.4 L 3164.0,39.9 L 3155.9,53.5 L 3149.3,64.7 L 3141.8,77.2 L 3134.3,89.6 L 3126.8,102.0 L 3119.2,114.4 L 3111.4,126.7 L 3103.5,139.0 L 3095.5,151.3 L 3087.4,163.4 L 3079.0,175.4 L 3069.7,188.6 L 3061.9,199.3 L 3053.3,211.2 L 3043.7,224.3 L 3035.8,235.0 L 3026.9,246.8 L 3018.1,258.7 L 3009.2,270.6 L 3000.2,282.4 L 2991.1,294.2 L 2982.0,306.0 L 2972.8,317.7 L 2962.7,330.7 L 2953.4,342.4 L 2945.0,353.0 L 2935.7,364.8 L 2926.3,376.5 L 2916.0,389.4 L 2907.4,399.9 L 2897.9,411.6 L 2887.4,424.4 L 2877.9,436.1 L 2869.2,446.6 L 2859.6,458.2 L 2850.0,469.9 L 2840.2,481.5 L 2829.5,494.3 L 2820.8,504.5 L 2811.5,515.4 L 2802.5,525.7 L 2792.9,536.6 L 2785.4,545.0 L 2777.2,553.8 L 2769.2,562.1 L 2760.4,570.8 L 2753.3,577.5 L 2745.2,584.5 L 2736.9,591.2 L 2728.3,597.4 L 2718.4,603.6 L 2710.0,608.2 L 2699.4,613.4 L 2690.4,617.3 L 2680.1,621.1 L 2669.8,624.5 L 2659.7,627.4 L 2649.0,630.2 L 2640.7,632.2 L 2632.0,634.2 L 2623.9,636.1 L 2616.3,638.0 L 2609.1,639.7 L 2602.4,641.4 L 2596.0,643.1 L 2589.8,644.9 L 2584.0,646.8 L 2578.4,648.9 L 2573.2,651.3 L 2567.8,654.4 L 2563.6,657.2 L 2559.4,660.7 L 2555.6,664.7 L 2552.3,668.9 L 2549.5,673.5 L 2547.4,678.4 L 2545.8,683.5 L 2544.8,688.8 L 2544.3,694.3 L 2544.2,700.6 L 2544.5,706.0 L 2545.2,712.1 L 2546.2,718.4 L 2547.7,724.9 L 2549.6,731.5 L 2551.9,738.2 L 2554.4,745.0 L 2557.1,752.0 L 2560.3,759.8 L 2563.2,767.0 L 2565.9,773.7 L 2569.0,781.3 L 2572.0,789.1 L 2575.3,797.9 L 2578.4,806.0 L 2581.2,813.5 L 2584.3,821.8 L 2587.8,831.2 L 2590.7,838.9 L 2594.0,847.7 L 2597.3,856.6 L 2601.0,866.4 L 2603.9,874.2 L 2607.0,882.5 L 2610.0,890.4 L 2612.7,897.8 L 2615.2,904.7 L 2617.5,911.3 L 2619.9,918.1 L 2621.8,923.5 L 2623.6,929.1 L 2625.5,935.1 L 2627.0,940.1 L 2628.3,944.9 L 2629.3,949.0 L 2630.2,953.3 L 2630.8,957.5 L 2631.0,961.5 L 2630.8,965.7 L 2630.3,968.8 L 2629.3,972.2 L 2628.0,975.4 L 2626.3,978.4 L 2624.3,981.1 L 2622.0,983.6 L 2619.4,985.9 L 2616.1,988.2 L 2613.2,990.0 L 2609.6,991.8 L 2605.3,993.5 L 2601.5,994.8 L 2597.1,996.0 L 2592.4,996.9 L 2587.0,997.8 L 2582.2,998.6 L 2576.7,999.4 L 2571.0,1000.3 L 2565.0,1001.3 L 2558.3,1002.5 L 2552.6,1003.4 L 2546.0,1004.5 L 2539.2,1005.6 L 2531.4,1006.9 L 2524.9,1007.9 L 2517.5,1009.2 L 2509.1,1010.6 L 2502.1,1011.9 L 2493.5,1013.5 L 2486.2,1014.9 L 2478.0,1016.5 L 2468.8,1018.3 L 2461.1,1019.8 L 2452.4,1021.5 L 2443.6,1023.2 L 2434.6,1024.9 L 2424.5,1026.9 L 2416.1,1028.4 L 2406.8,1030.2 L 2397.3,1032.0 L 2387.7,1033.9 L 2378.0,1035.7 L 2368.1,1037.6 L 2358.2,1039.5 L 2347.0,1041.6 L 2337.9,1043.3 L 2327.5,1045.2 L 2317.1,1047.2 L 2306.6,1049.2 L 2295.9,1051.2 L 2285.2,1053.3 L 2274.4,1055.5 L 2263.4,1057.6 L 2252.4,1059.8 L 2240.2,1062.3 L 2230.1,1064.3 L 2218.8,1066.6 L 2206.3,1069.1 L 2196.0,1071.2 L 2184.5,1073.6 L 2173.0,1076.0 L 2161.4,1078.4 L 2149.7,1080.9 L 2137.9,1083.5 L 2125.0,1086.5 L 2113.1,1089.3 L 2102.4,1092.0 L 2090.5,1095.1 L 2078.6,1098.4 L 2065.4,1102.3 L 2054.7,1105.8 L 2042.7,1109.8 L 2030.8,1114.1 L 2018.9,1118.6 L 2007.0,1123.4 L 1995.2,1128.3 L 1983.2,1133.3 L 1971.3,1138.4 L 1959.3,1143.6 L 1947.3,1148.8 L 1935.3,1154.1 L 1922.0,1160.1 L 1911.1,1165.0 L 1899.0,1170.5 L 1886.8,1176.0 L 1874.6,1181.5 L 1862.3,1187.0 L 1848.7,1193.1 L 1837.6,1198.0 L 1823.9,1204.1 L 1812.8,1209.1 L 1800.3,1214.7 L 1787.8,1220.4 L 1774.1,1226.6 L 1762.8,1231.7 L 1749.0,1238.0 L 1737.7,1243.3 L 1725.1,1249.1 L 1712.6,1255.1 L 1698.8,1261.7 L 1687.5,1267.2 L 1674.9,1273.5 L 1662.4,1279.8 L 1648.7,1286.9 L 1637.5,1292.9 L 1625.2,1299.8 L 1612.9,1306.9 L 1600.8,1314.2 L 1587.5,1322.6 L 1576.8,1329.6 L 1564.9,1337.4 L 1553.0,1345.3 L 1541.4,1352.8 L 1529.1,1360.7 L 1519.4,1366.9 L 1508.9,1373.4 L 1498.7,1379.5 L 1488.8,1385.2 L 1479.1,1390.7 L 1469.6,1395.7 L 1460.3,1400.3 L 1451.2,1404.5 L 1442.3,1408.3 L 1433.6,1411.6 L 1425.0,1414.5 L 1416.7,1416.9 L 1408.4,1418.9 L 1400.2,1420.4 L 1391.9,1421.5 L 1382.9,1422.1 L 1375.4,1422.1 L 1367.0,1421.8 L 1357.8,1421.0 L 1350.2,1419.8 L 1341.9,1418.2 L 1333.5,1416.1 L 1325.3,1413.5 L 1317.2,1410.4 L 1309.3,1406.9 L 1301.0,1402.4 L 1294.5,1398.4 L 1287.4,1393.5 L 1280.4,1388.2 L 1273.6,1382.6 L 1266.9,1376.6 L 1259.7,1369.6 L 1253.8,1363.8 L 1247.3,1357.2 L 1240.2,1349.8 L 1234.2,1343.7 L 1227.7,1337.1 L 1221.2,1330.8 L 1214.8,1324.7 L 1208.3,1318.9 L 1201.5,1313.5 L 1194.6,1308.3 L 1187.4,1303.6 L 1179.1,1298.8 L 1172.1,1295.1 L 1164.1,1291.3 L 1155.8,1287.8 L 1147.3,1284.5 L 1138.5,1281.6 L 1129.4,1279.0 L 1120.1,1276.8 L 1109.7,1274.8 L 1101.0,1273.5 L 1090.1,1272.3 L 1081.1,1271.7 L 1071.0,1271.4 L 1059.7,1271.4 L 1050.3,1271.7 L 1039.8,1272.3 L 1028.5,1273.2 L 1019.5,1274.2 L 1009.7,1275.6 L 1000.1,1277.4 L 990.7,1279.6 L 980.6,1282.5 L 972.4,1285.4 L 963.5,1289.1 L 954.5,1293.2 L 945.8,1297.7 L 937.3,1302.8 L 928.4,1308.9 L 921.4,1314.2 L 913.8,1320.5 L 906.6,1327.1 L 899.7,1333.9 L 893.2,1340.6 L 886.1,1347.7 L 880.3,1353.3 L 873.8,1359.2 L 866.6,1365.4 L 859.9,1370.8 L 853.7,1375.4 L 846.6,1380.1 L 838.6,1384.7 L 831.8,1388.0 L 824.2,1391.2 L 815.6,1394.2 L 808.4,1396.2 L 800.1,1398.0 L 790.7,1399.5 L 782.8,1400.4 L 774.1,1400.9 L 765.3,1400.8 L 756.7,1400.2 L 748.1,1398.9 L 739.7,1397.1 L 731.3,1394.8 L 722.2,1391.7 L 714.8,1388.7 L 705.8,1384.5 L 698.7,1380.7 L 690.9,1376.1 L 683.4,1370.9 L 675.4,1364.7 L 669.1,1359.3 L 662.4,1352.8 L 656.1,1346.1 L 650.3,1339.4 L 644.7,1332.8 L 638.7,1325.9 L 633.8,1320.5 L 628.2,1314.9 L 622.4,1309.6 L 615.8,1304.2 L 609.4,1299.8 L 602.8,1295.8 L 596.7,1292.6 L 589.5,1289.3 L 582.0,1286.3 L 574.3,1283.6 L 565.5,1281.2 L 557.3,1279.3 L 549.8,1278.0 L 540.3,1276.9 L 532.4,1276.4 L 523.4,1276.2 L 513.4,1276.4 L 505.1,1276.8 L 494.8,1277.5 L 486.2,1278.3 L 476.7,1279.2 L 466.0,1280.2 L 457.2,1281.2 L 447.3,1282.2 L 437.3,1283.4 L 427.2,1284.7 L 416.9,1286.1 L 406.6,1287.6 L 395.1,1289.1 L 385.5,1290.1 L 373.7,1291.0 L 362.9,1291.6 L 353.0,1291.8 L 340.9,1291.7 L 329.7,1291.3 L 319.7,1290.6 L 308.4,1289.7 L 297.1,1288.6 L 285.7,1287.4 L 274.2,1286.4 L 262.6,1285.6 L 251.0,1285.0 L 239.2,1284.7 L 227.4,1284.6 L 215.5,1285.0 L 203.6,1285.7 L 190.4,1286.8 L 179.5,1288.0 L 167.4,1289.7 L 155.4,1291.7 L 142.1,1294.3 L 131.2,1296.7 L 119.1,1299.6 L 106.9,1302.5 L 94.7,1305.5 L 82.4,1308.5 L 70.0,1311.5 L 57.6,1314.5 L 45.2,1317.5 L 32.7,1320.6 L 20.1,1323.6 L 7.4,1326.5 L -6.6,1329.8 L -18.0,1332.4 L -32.2,1335.6 L -43.8,1338.2 L -56.7,1341.1 L -69.6,1344.1 L -82.1,1347.1 L -94.2,1349.9 L -105.8,1352.7 L -116.9,1355.4 L -127.4,1357.9 L -138.2,1360.6 L -146.6,1362.7 L -156.2,1365.1 L -163.5,1367.0 L -171.1,1369.1 L -178.1,1371.1 L -185.2,1373.4 L -190.6,1375.4 L -196.2,1377.8 L -201.6,1380.4 L -206.8,1383.3 L -212.2,1386.8 L -216.9,1390.3 L -221.0,1393.7 L -225.3,1397.7 L -229.6,1401.9 L -233.8,1406.2 L -238.2,1410.2 L -243.1,1414.4 L -247.3,1417.6 L -252.1,1420.9 L -257.2,1423.9 L -262.5,1426.5 L -268.0,1428.7 L -273.8,1430.5 L -280.4,1432.1 L -286.0,1433.1 L -292.4,1433.9 L -298.6,1434.5 L -304.5,1435.0 L -310.0,1435.5 L -315.5,1436.2 L -320.2,1436.9 L -324.1,1437.6 L -328.2,1438.6 L -332.3,1439.8 L -336.1,1441.2 L -339.8,1443.0 L -343.6,1445.4 L -346.4,1447.6 L -349.2,1450.3 L -352.2,1453.6 L -354.5,1456.4 L -357.1,1459.7 L -359.9,1462.8 L -362.9,1465.7 L -366.6,1468.6 L -369.9,1470.7 L -373.8,1472.8 L -378.0,1474.6 L -382.5,1475.9 L -387.2,1477.1 L -392.3,1478.0 L -397.6,1478.6 L -403.2,1479.0 L -409.1,1479.1 L -415.9,1479.1 L -422.3,1478.9 L -428.2,1478.6 L -434.9,1478.1 L -441.9,1477.6 L -449.1,1477.0 L -456.4,1476.4 L -464.8,1475.7 L -471.8,1475.1 L -479.7,1474.4 L -488.6,1473.7 L -496.0,1473.1 L -504.4,1472.5 L -513.0,1471.9 L -521.7,1471.3 L -530.6,1470.7 L -540.5,1469.9" fill="none" stroke="url(#g)" stroke-width="380.6" stroke-linecap="round" stroke-linejoin="round"/>
<path d="M -547.3,1469.4 L -561.1,1468.5 L -570.5,1467.9 L -579.0,1467.3 L -588.5,1466.6 L -598.2,1466.0 L -608.1,1465.3 L -618.0,1464.6 L -628.1,1463.9 L -639.3,1463.2 L -649.6,1462.5 L -659.0,1461.9 L -669.5,1461.2 L -680.2,1460.5 L -690.9,1459.8 L -702.8,1459.1 L -712.7,1458.5 L -723.7,1457.8 L -734.9,1457.0 L -747.2,1456.2 L -757.4,1455.4 L -768.7,1454.6 L -780.2,1453.7 L -791.6,1452.8 L -804.4,1451.7 L -814.9,1450.8 L -827.8,1449.7 L -838.4,1448.7 L -850.2,1447.5 L -863.3,1446.1 L -874.1,1444.7 L -886.1,1443.1 L -898.2,1441.3 L -910.3,1439.3 L -922.4,1437.1 L -934.6,1434.7 L -946.7,1432.2 L -959.0,1429.7 L -971.3,1427.1 L -983.6,1424.3 L -995.9,1421.3 L -1009.4,1417.8 L -1020.5,1414.7 L -1032.7,1411.0 L -1045.0,1407.1 L -1057.2,1402.9 L -1069.3,1398.5 L -1081.2,1393.8 L -1092.9,1388.8 L -1104.2,1383.5 L -1116.2,1377.3 L -1125.6,1372.1 L -1135.6,1365.9 L -1145.2,1359.3 L -1154.3,1352.4 L -1163.0,1345.1 L -1171.3,1337.5 L -1179.0,1329.6 L -1186.9,1320.4 L -1192.8,1312.6 L -1198.9,1303.7 L -1205.2,1293.6 L -1210.0,1285.4 L -1215.0,1276.5 L -1219.8,1267.9 L -1224.2,1259.8 L -1228.3,1252.1 L -1232.2,1245.0 L -1236.2,1237.7 L -1239.2,1232.2 L -1242.4,1226.6 L -1245.4,1221.3 L -1248.4,1216.2 L -1251.2,1211.4 L -1254.0,1206.9 L -1256.9,1202.7 L -1260.2,1198.4 L -1263.0,1195.0 L -1266.3,1191.7 L -1269.9,1188.7 L -1274.1,1185.9 L -1277.7,1184.0 L -1281.8,1182.3 L -1286.0,1181.0 L -1290.2,1180.2 L -1294.5,1179.7 L -1299.0,1179.5 L -1303.6,1179.4 L -1308.5,1179.4 L -1313.2,1179.5 L -1317.9,1179.4 L -1322.6,1179.1 L -1327.1,1178.4 L -1331.5,1177.4 L -1335.7,1176.1 L -1340.1,1174.3 L -1343.7,1172.4 L -1348.1,1169.8 L -1351.6,1167.4 L -1355.5,1164.3 L -1359.7,1160.5 L -1363.0,1157.0 L -1366.6,1152.8 L -1370.5,1147.7 L -1373.5,1143.2 L -1376.9,1138.0 L -1380.2,1132.5 L -1383.5,1126.7 L -1386.8,1120.7 L -1390.3,1114.5 L -1393.8,1108.2 L -1397.5,1101.7 L -1401.7,1094.3 L -1405.2,1088.2 L -1409.2,1081.2 L -1413.3,1074.2 L -1418.0,1066.4 L -1422.0,1059.8 L -1427.0,1051.8 L -1431.4,1045.2 L -1436.5,1037.8 L -1441.9,1030.5 L -1447.7,1023.3 L -1453.9,1016.2 L -1460.4,1009.2 L -1468.0,1001.9 L -1474.5,996.0 L -1481.9,989.5 L -1490.0,982.1 L -1497.3,975.1 L -1503.8,968.6 L -1511.8,960.4 L -1518.3,953.5 L -1525.1,945.6 L -1531.6,937.4 L -1537.6,928.9 L -1543.7,919.4 L -1548.7,910.4 L -1552.6,902.2 L -1556.5,892.8 L -1559.8,883.3 L -1562.6,873.5 L -1565.3,862.7 L -1567.0,853.8 L -1568.7,842.6 L -1569.7,833.3 L -1570.4,823.1 L -1570.7,813.1 L -1570.9,803.6 L -1570.9,794.6 L -1571.0,786.1 L -1571.1,778.0 L -1571.3,770.3 L -1571.7,762.1 L -1572.2,755.7 L -1573.1,748.7 L -1574.4,741.9 L -1576.3,734.5 L -1578.3,728.6 L -1580.9,722.3 L -1584.4,715.6 L -1587.7,710.4 L -1591.8,704.8 L -1596.9,699.0 L -1601.4,694.5 L -1606.9,689.9 L -1613.4,685.4 L -1619.0,682.2 L -1625.7,679.1 L -1633.4,676.2 L -1640.7,674.0 L -1647.5,672.3 L -1655.3,670.6 L -1663.3,669.0 L -1672.2,667.0 L -1679.5,665.1 L -1687.6,662.5 L -1695.5,659.3 L -1704.0,655.2 L -1710.8,651.3 L -1718.0,646.4 L -1725.1,641.1 L -1731.8,635.4 L -1738.9,628.6 L -1744.5,622.8 L -1750.4,616.0 L -1756.1,608.9 L -1762.1,600.6 L -1766.7,593.5 L -1771.6,585.4 L -1776.3,577.0 L -1780.9,568.3 L -1785.3,559.4 L -1789.7,550.4 L -1794.0,541.2 L -1798.3,531.8 L -1802.5,522.2 L -1806.5,512.5 L -1810.5,502.6 L -1814.3,492.5 L -1818.4,481.3 L -1821.7,472.1 L -1825.1,462.2 L -1828.3,452.6 L -1831.2,443.6 L -1834.1,434.0 L -1836.1,426.4 L -1838.0,418.2 L -1839.4,410.1 L -1840.4,401.4 L -1840.7,393.7 L -1840.6,386.7 L -1839.8,379.0 L -1838.6,371.2 L -1836.9,363.4 L -1834.8,355.4 L -1832.2,347.5 L -1829.1,339.5 L -1825.7,331.5 L -1821.7,323.6 L -1816.9,314.9 L -1812.7,307.8 L -1807.7,299.9 L -1802.5,292.0 L -1797.1,284.2 L -1790.8,275.7 L -1784.9,268.0 L -1779.4,261.0 L -1772.9,253.3 L -1766.3,245.7 L -1759.3,238.1 L -1752.1,230.6 L -1744.6,223.1 L -1736.2,215.0 L -1728.3,207.7 L -1720.1,200.4 L -1712.7,193.9 L -1704.2,186.7 L -1695.5,179.5 L -1686.7,172.4 L -1677.7,165.3 L -1668.5,158.3 L -1659.2,151.3 L -1649.7,144.5 L -1640.0,137.7 L -1630.3,131.0 L -1620.4,124.4 L -1610.3,117.9 L -1600.0,111.5 L -1588.6,104.4 L -1579.2,98.7 L -1568.6,92.4 L -1557.8,86.1 L -1547.1,79.8 L -1535.1,72.8 L -1525.3,67.0 L -1514.3,60.6 L -1502.1,53.5 L -1492.1,47.6 L -1480.9,41.2 L -1469.7,34.7 L -1458.3,28.3 L -1446.9,21.9 L -1435.3,15.7 L -1423.6,9.5 L -1410.7,2.8 L -1400.0,-2.6 L -1386.8,-9.0 L -1375.8,-14.1 L -1362.4,-20.3 L -1351.3,-25.2 L -1338.9,-30.6 L -1325.2,-36.5 L -1313.8,-41.1 L -1301.2,-46.2 L -1288.5,-51.1 L -1275.7,-55.9 L -1262.8,-60.6 L -1249.8,-65.2 L -1235.5,-70.0 L -1223.7,-73.9 L -1209.2,-78.6 L -1195.9,-82.7 L -1184.0,-86.4 L -1170.7,-90.5 L -1157.3,-94.6 L -1143.9,-98.7 L -1129.1,-103.1 L -1117.0,-106.8 L -1103.5,-110.8 L -1090.0,-114.8 L -1076.4,-118.7 L -1061.4,-123.0 L -1049.1,-126.5 L -1035.4,-130.4 L -1020.3,-134.7 L -1006.6,-138.6 L -994.2,-142.1 L -980.4,-146.0 L -966.6,-149.9 L -952.7,-153.8 L -938.9,-157.7 L -925.0,-161.6 L -911.0,-165.6 L -897.1,-169.5 L -883.1,-173.5 L -867.7,-177.9 L -855.1,-181.5 L -839.7,-185.9 L -827.0,-189.5 L -811.6,-193.9 L -798.9,-197.6 L -784.8,-201.6 L -770.6,-205.6 L -756.5,-209.7 L -740.8,-214.1 L -728.1,-217.7 L -713.8,-221.8 L -699.6,-225.8 L -683.9,-230.2 L -669.5,-234.3 L -656.7,-237.9 L -642.3,-242.0 L -628.0,-246.1 L -613.6,-250.2 L -599.2,-254.3 L -584.8,-258.4 L -570.4,-262.5 L -556.0,-266.6 L -541.5,-270.8 L -525.6,-275.3 L -511.1,-279.4 L -498.1,-283.0 L -483.5,-287.1 L -469.0,-291.2 L -453.0,-295.7 L -439.9,-299.4 L -425.3,-303.4 L -410.7,-307.5 L -394.6,-311.9 L -381.4,-315.5 L -365.3,-319.9 L -350.6,-323.9 L -337.4,-327.6 L -322.8,-331.6 L -306.6,-336.2 L -293.5,-339.9 L -278.8,-344.1 L -264.1,-348.3 L -249.4,-352.5 L -234.7,-356.7 L -220.0,-360.8 L -203.8,-365.5 L -190.6,-369.2 L -174.4,-373.9 L -161.1,-377.6 L -146.3,-381.8 L -130.1,-386.4 L -116.8,-390.2 L -102.0,-394.4 L -87.2,-398.7 L -71.0,-403.4 L -57.7,-407.2 L -42.9,-411.5 L -28.1,-415.9 L -13.3,-420.2 L 1.5,-424.5 L 17.8,-429.2 L 31.1,-433.0 L 45.9,-437.2 L 62.3,-441.9 L 75.6,-445.7 L 90.5,-449.9 L 105.3,-454.2 L 120.2,-458.4 L 136.5,-463.0 L 151.4,-467.2 L 164.8,-471.0 L 181.1,-475.6 L 194.5,-479.3 L 209.4,-483.5 L 225.8,-488.1 L 239.2,-491.9 L 254.1,-496.1 L 269.0,-500.3 L 283.9,-504.5 L 298.8,-508.7 L 313.7,-513.0 L 328.6,-517.2 L 343.5,-521.5 L 358.4,-525.7 L 373.3,-530.0 L 388.2,-534.3 L 403.1,-538.5 L 419.5,-543.2 L 432.9,-547.1 L 449.3,-551.8 L 462.8,-555.6 L 477.7,-559.8 L 492.7,-563.9 L 509.1,-568.5 L 522.5,-572.3 L 539.0,-576.8 L 553.9,-581.0 L 568.9,-585.2 L 582.3,-588.9 L 597.3,-593.1 L 612.2,-597.4 L 627.1,-601.7 L 643.5,-606.4 L 656.9,-610.4 L 671.8,-614.8 L 686.7,-619.1 L 701.6,-623.5 L 716.5,-627.9 L 731.4,-632.3 L 746.3,-636.7 L 761.2,-641.1 L 776.2,-645.4 L 791.1,-649.7 L 806.0,-654.0 L 821.0,-658.2 L 835.9,-662.5 L 850.9,-666.7 L 865.8,-670.9 L 882.3,-675.6 L 895.7,-679.4 L 910.6,-683.7 L 925.6,-687.9 L 940.5,-692.2 L 955.5,-696.5 L 971.9,-701.2 L 985.3,-705.0 L 1000.3,-709.2 L 1015.2,-713.5 L 1030.2,-717.7 L 1045.1,-721.9 L 1060.1,-726.1 L 1075.0,-730.3 L 1090.0,-734.5 L 1104.9,-738.7 L 1119.8,-742.9 L 1134.8,-747.1 L 1149.7,-751.3 L 1164.7,-755.5 L 1179.6,-759.7 L 1194.6,-763.9 L 1209.6,-768.1 L 1224.5,-772.3 L 1241.0,-777.0 L 1254.5,-780.8 L 1269.4,-785.0 L 1284.4,-789.2 L 1299.4,-793.5 L 1314.3,-797.8 L 1330.8,-802.5 L 1344.3,-806.3 L 1359.3,-810.6 L 1374.3,-814.9 L 1390.7,-819.7 L 1404.2,-823.6 L 1419.2,-827.9 L 1434.2,-832.2 L 1450.7,-836.9 L 1465.7,-841.3 L 1479.2,-845.1 L 1495.7,-849.9 L 1509.2,-853.8 L 1524.2,-858.1 L 1539.2,-862.4 L 1554.2,-866.7 L 1569.2,-871.0 L 1584.2,-875.3 L 1599.2,-879.7 L 1614.2,-884.0 L 1629.2,-888.2 L 1644.2,-892.4 L 1660.7,-897.0 L 1674.3,-900.8 L 1689.3,-904.9 L 1705.8,-909.5 L 1720.9,-913.7 L 1734.4,-917.5 L 1749.4,-921.7 L 1764.5,-925.9 L 1781.0,-930.6 L 1794.5,-934.4 L 1809.5,-938.6 L 1824.6,-942.8 L 1839.6,-947.1 L 1854.6,-951.3 L 1869.6,-955.5 L 1884.6,-959.8 L 1899.6,-964.0 L 1914.6,-968.2 L 1929.6,-972.4 L 1944.6,-976.6 L 1959.6,-980.9 L 1976.1,-985.5 L 1989.6,-989.3 L 2006.1,-993.8 L 2019.6,-997.6 L 2034.6,-1001.7 L 2049.5,-1005.8 L 2064.5,-1010.0 L 2079.5,-1014.2 L 2094.4,-1018.4 L 2109.4,-1022.6 L 2124.3,-1026.8 L 2139.2,-1031.1 L 2154.1,-1035.3 L 2170.5,-1040.0 L 2184.0,-1043.9 L 2200.4,-1048.5 L 2213.9,-1052.2 L 2230.3,-1056.6 L 2245.4,-1060.5 L 2259.0,-1063.8 L 2274.1,-1067.3 L 2289.3,-1070.5 L 2306.0,-1073.9 L 2321.3,-1076.8 L 2335.0,-1079.2 L 2350.4,-1081.7 L 2365.7,-1083.9 L 2382.7,-1085.9 L 2396.6,-1087.2 L 2412.1,-1088.5 L 2427.6,-1089.5 L 2443.1,-1090.4 L 2460.2,-1091.3 L 2474.1,-1091.9 L 2489.7,-1092.5 L 2505.2,-1093.1 L 2520.8,-1093.7 L 2537.9,-1094.3 L 2553.4,-1094.9 L 2567.4,-1095.4 L 2583.0,-1095.9 L 2598.5,-1096.3 L 2615.7,-1096.8 L 2631.2,-1097.2 L 2645.2,-1097.5 L 2660.8,-1097.8 L 2676.4,-1098.1 L 2693.5,-1098.4 L 2707.5,-1098.6 L 2723.1,-1098.9 L 2738.6,-1099.2 L 2754.2,-1099.5 L 2769.7,-1099.9 L 2786.8,-1100.4 L 2800.8,-1100.8 L 2816.4,-1101.3 L 2831.9,-1101.7 L 2849.0,-1102.2 L 2863.0,-1102.5 L 2878.5,-1102.9 L 2894.0,-1103.2 L 2909.5,-1103.6 L 2926.6,-1103.9 L 2940.5,-1104.3 L 2956.0,-1104.6 L 2971.5,-1105.0 L 2987.0,-1105.3 L 3002.5,-1105.7 L 3019.5,-1106.0 L 3033.5,-1106.4 L 3048.9,-1106.7 L 3064.4,-1107.1 L 3079.9,-1107.4 L 3095.4,-1107.7 L 3112.4,-1108.1 L 3126.3,-1108.4 L 3141.8,-1108.7 L 3158.9,-1109.1 L 3172.8,-1109.4 L 3188.3,-1109.7 L 3205.4,-1110.0 L 3219.3,-1110.3 L 3234.8,-1110.6 L 3251.9,-1111.0 L 3265.9,-1111.2 L 3281.4,-1111.5 L 3296.9,-1111.8 L 3312.5,-1112.0 L 3328.0,-1112.2 L 3343.6,-1112.3 L 3359.0,-1112.2 L 3375.6,-1111.8 L 3388.7,-1111.3 L 3402.8,-1110.6 L 3417.7,-1109.5 L 3429.5,-1108.3 L 3442.0,-1106.7 L 3454.1,-1105.1 L 3465.7,-1103.4 L 3476.7,-1101.5 L 3488.1,-1099.5 L 3496.9,-1097.7 L 3506.0,-1095.6 L 3514.5,-1093.5 L 3522.4,-1091.5 L 3529.6,-1089.4 L 3536.2,-1087.4 L 3542.7,-1085.4 L 3547.8,-1083.9 L 3553.0,-1082.2 L 3558.0,-1080.6 L 3563.2,-1078.9 L 3567.2,-1077.5 L 3571.4,-1075.9 L 3575.4,-1074.2 L 3579.1,-1072.4 L 3582.7,-1070.0 L 3585.7,-1067.6 L 3588.0,-1065.2 L 3590.4,-1062.3 L 3592.3,-1059.2 L 3593.8,-1055.9 L 3594.9,-1052.5 L 3595.7,-1048.9 L 3596.1,-1045.1 L 3596.3,-1041.0 L 3596.1,-1036.7 L 3595.5,-1032.2 L 3594.7,-1027.5 L 3593.6,-1022.6 L 3592.1,-1017.4 L 3590.2,-1011.5 L 3588.5,-1006.4 L 3586.5,-1000.6 L 3584.4,-994.6 L 3582.3,-988.4 L 3580.2,-981.9 L 3578.0,-975.2 L 3575.8,-968.3 L 3573.5,-961.2 L 3571.2,-953.9 L 3568.8,-946.4 L 3566.4,-938.8 L 3564.0,-931.0 L 3561.5,-923.0 L 3559.0,-914.8 L 3556.5,-906.5 L 3553.9,-898.1 L 3551.2,-889.5 L 3548.5,-880.7 L 3545.8,-871.8 L 3543.0,-862.8 L 3540.1,-853.8 L 3537.3,-844.6 L 3534.3,-835.2 L 3531.4,-825.8 L 3528.1,-815.2 L 3525.0,-805.6 L 3522.2,-796.7 L 3519.1,-786.8 L 3516.0,-776.8 L 3512.5,-765.6 L 3509.7,-756.4 L 3506.5,-746.1 L 3503.2,-735.6 L 3500.0,-725.1 L 3496.3,-713.3 L 3493.3,-703.7 L 3490.0,-692.9 L 3486.6,-682.0 L 3483.2,-671.0 L 3479.7,-659.9 L 3476.2,-648.9 L 3472.6,-637.7 L 3469.1,-626.5 L 3465.5,-615.2 L 3461.9,-603.8 L 3458.2,-592.4 L 3454.5,-580.8 L 3450.9,-569.2 L 3447.2,-557.6 L 3443.4,-545.9 L 3439.7,-534.1 L 3436.0,-522.2 L 3432.2,-510.3 L 3428.3,-498.3 L 3424.4,-486.3 L 3420.5,-474.2 L 3416.1,-460.9 L 3412.0,-448.7 L 3408.3,-437.7 L 3404.1,-425.5 L 3399.9,-413.2 L 3395.1,-399.6 L 3391.1,-388.6 L 3386.4,-376.2 L 3381.6,-363.9 L 3375.9,-350.5 L 3371.1,-339.5 L 3365.6,-327.3 L 3359.8,-315.2 L 3353.9,-303.2 L 3347.8,-291.2 L 3341.6,-279.2 L 3335.4,-267.1 L 3329.2,-255.0 L 3322.9,-242.9 L 3316.5,-230.8 L 3310.0,-218.6 L 3303.5,-206.5 L 3296.3,-193.1 L 3290.3,-182.1 L 3283.0,-168.7 L 3276.9,-157.7 L 3270.2,-145.5 L 3263.4,-133.2 L 3256.5,-120.9 L 3249.6,-108.7 L 3242.6,-96.4 L 3235.7,-84.1 L 3228.6,-71.7 L 3221.5,-59.4 L 3214.4,-47.1 L 3207.3,-34.7 L 3200.2,-22.3 L 3193.0,-9.9 L 3185.8,2.6 L 3178.6,15.0 L 3171.3,27.4 L 3164.0,39.9 L 3155.9,53.5 L 3149.3,64.7 L 3141.8,77.2 L 3134.3,89.6 L 3126.8,102.0 L 3119.2,114.4 L 3111.4,126.7 L 3103.5,139.0 L 3095.5,151.3 L 3087.4,163.4 L 3079.0,175.4 L 3069.7,188.6 L 3061.9,199.3 L 3053.3,211.2 L 3043.7,224.3 L 3035.8,235.0 L 3026.9,246.8 L 3018.1,258.7 L 3009.2,270.6 L 3000.2,282.4 L 2991.1,294.2 L 2982.0,306.0 L 2972.8,317.7 L 2962.7,330.7 L 2953.4,342.4 L 2945.0,353.0 L 2935.7,364.8 L 2926.3,376.5 L 2916.0,389.4 L 2907.4,399.9 L 2897.9,411.6 L 2887.4,424.4 L 2877.9,436.1 L 2869.2,446.6 L 2859.6,458.2 L 2850.0,469.9 L 2840.2,481.5 L 2829.5,494.3 L 2820.8,504.5 L 2811.5,515.4 L 2802.5,525.7 L 2792.9,536.6 L 2785.4,545.0 L 2777.2,553.8 L 2769.2,562.1 L 2760.4,570.8 L 2753.3,577.5 L 2745.2,584.5 L 2736.9,591.2 L 2728.3,597.4 L 2718.4,603.6 L 2710.0,608.2 L 2699.4,613.4 L 2690.4,617.3 L 2680.1,621.1 L 2669.8,624.5 L 2659.7,627.4 L 2649.0,630.2 L 2640.7,632.2 L 2632.0,634.2 L 2623.9,636.1 L 2616.3,638.0 L 2609.1,639.7 L 2602.4,641.4 L 2596.0,643.1 L 2589.8,644.9 L 2584.0,646.8 L 2578.4,648.9 L 2573.2,651.3 L 2567.8,654.4 L 2563.6,657.2 L 2559.4,660.7 L 2555.6,664.7 L 2552.3,668.9 L 2549.5,673.5 L 2547.4,678.4 L 2545.8,683.5 L 2544.8,688.8 L 2544.3,694.3 L 2544.2,700.6 L 2544.5,706.0 L 2545.2,712.1 L 2546.2,718.4 L 2547.7,724.9 L 2549.6,731.5 L 2551.9,738.2 L 2554.4,745.0 L 2557.1,752.0 L 2560.3,759.8 L 2563.2,767.0 L 2565.9,773.7 L 2569.0,781.3 L 2572.0,789.1 L 2575.3,797.9 L 2578.4,806.0 L 2581.2,813.5 L 2584.3,821.8 L 2587.8,831.2 L 2590.7,838.9 L 2594.0,847.7 L 2597.3,856.6 L 2601.0,866.4 L 2603.9,874.2 L 2607.0,882.5 L 2610.0,890.4 L 2612.7,897.8 L 2615.2,904.7 L 2617.5,911.3 L 2619.9,918.1 L 2621.8,923.5 L 2623.6,929.1 L 2625.5,935.1 L 2627.0,940.1 L 2628.3,944.9 L 2629.3,949.0 L 2630.2,953.3 L 2630.8,957.5 L 2631.0,961.5 L 2630.8,965.7 L 2630.3,968.8 L 2629.3,972.2 L 2628.0,975.4 L 2626.3,978.4 L 2624.3,981.1 L 2622.0,983.6 L 2619.4,985.9 L 2616.1,988.2 L 2613.2,990.0 L 2609.6,991.8 L 2605.3,993.5 L 2601.5,994.8 L 2597.1,996.0 L 2592.4,996.9 L 2587.0,997.8 L 2582.2,998.6 L 2576.7,999.4 L 2571.0,1000.3 L 2565.0,1001.3 L 2558.3,1002.5 L 2552.6,1003.4 L 2546.0,1004.5 L 2539.2,1005.6 L 2531.4,1006.9 L 2524.9,1007.9 L 2517.5,1009.2 L 2509.1,1010.6 L 2502.1,1011.9 L 2493.5,1013.5 L 2486.2,1014.9 L 2478.0,1016.5 L 2468.8,1018.3 L 2461.1,1019.8 L 2452.4,1021.5 L 2443.6,1023.2 L 2434.6,1024.9 L 2424.5,1026.9 L 2416.1,1028.4 L 2406.8,1030.2 L 2397.3,1032.0 L 2387.7,1033.9 L 2378.0,1035.7 L 2368.1,1037.6 L 2358.2,1039.5 L 2347.0,1041.6 L 2337.9,1043.3 L 2327.5,1045.2 L 2317.1,1047.2 L 2306.6,1049.2 L 2295.9,1051.2 L 2285.2,1053.3 L 2274.4,1055.5 L 2263.4,1057.6 L 2252.4,1059.8 L 2240.2,1062.3 L 2230.1,1064.3 L 2218.8,1066.6 L 2206.3,1069.1 L 2196.0,1071.2 L 2184.5,1073.6 L 2173.0,1076.0 L 2161.4,1078.4 L 2149.7,1080.9 L 2137.9,1083.5 L 2125.0,1086.5 L 2113.1,1089.3 L 2102.4,1092.0 L 2090.5,1095.1 L 2078.6,1098.4 L 2065.4,1102.3 L 2054.7,1105.8 L 2042.7,1109.8 L 2030.8,1114.1 L 2018.9,1118.6 L 2007.0,1123.4 L 1995.2,1128.3 L 1983.2,1133.3 L 1971.3,1138.4 L 1959.3,1143.6 L 1947.3,1148.8 L 1935.3,1154.1 L 1922.0,1160.1 L 1911.1,1165.0 L 1899.0,1170.5 L 1886.8,1176.0 L 1874.6,1181.5 L 1862.3,1187.0 L 1848.7,1193.1 L 1837.6,1198.0 L 1823.9,1204.1 L 1812.8,1209.1 L 1800.3,1214.7 L 1787.8,1220.4 L 1774.1,1226.6 L 1762.8,1231.7 L 1749.0,1238.0 L 1737.7,1243.3 L 1725.1,1249.1 L 1712.6,1255.1 L 1698.8,1261.7 L 1687.5,1267.2 L 1674.9,1273.5 L 1662.4,1279.8 L 1648.7,1286.9 L 1637.5,1292.9 L 1625.2,1299.8 L 1612.9,1306.9 L 1600.8,1314.2 L 1587.5,1322.6 L 1576.8,1329.6 L 1564.9,1337.4 L 1553.0,1345.3 L 1541.4,1352.8 L 1529.1,1360.7 L 1519.4,1366.9 L 1508.9,1373.4 L 1498.7,1379.5 L 1488.8,1385.2 L 1479.1,1390.7 L 1469.6,1395.7 L 1460.3,1400.3 L 1451.2,1404.5 L 1442.3,1408.3 L 1433.6,1411.6 L 1425.0,1414.5 L 1416.7,1416.9 L 1408.4,1418.9 L 1400.2,1420.4 L 1391.9,1421.5 L 1382.9,1422.1 L 1375.4,1422.1 L 1367.0,1421.8 L 1357.8,1421.0 L 1350.2,1419.8 L 1341.9,1418.2 L 1333.5,1416.1 L 1325.3,1413.5 L 1317.2,1410.4 L 1309.3,1406.9 L 1301.0,1402.4 L 1294.5,1398.4 L 1287.4,1393.5 L 1280.4,1388.2 L 1273.6,1382.6 L 1266.9,1376.6 L 1259.7,1369.6 L 1253.8,1363.8 L 1247.3,1357.2 L 1240.2,1349.8 L 1234.2,1343.7 L 1227.7,1337.1 L 1221.2,1330.8 L 1214.8,1324.7 L 1208.3,1318.9 L 1201.5,1313.5 L 1194.6,1308.3 L 1187.4,1303.6 L 1179.1,1298.8 L 1172.1,1295.1 L 1164.1,1291.3 L 1155.8,1287.8 L 1147.3,1284.5 L 1138.5,1281.6 L 1129.4,1279.0 L 1120.1,1276.8 L 1109.7,1274.8 L 1101.0,1273.5 L 1090.1,1272.3 L 1081.1,1271.7 L 1071.0,1271.4 L 1059.7,1271.4 L 1050.3,1271.7 L 1039.8,1272.3 L 1028.5,1273.2 L 1019.5,1274.2 L 1009.7,1275.6 L 1000.1,1277.4 L 990.7,1279.6 L 980.6,1282.5 L 972.4,1285.4 L 963.5,1289.1 L 954.5,1293.2 L 945.8,1297.7 L 937.3,1302.8 L 928.4,1308.9 L 921.4,1314.2 L 913.8,1320.5 L 906.6,1327.1 L 899.7,1333.9 L 893.2,1340.6 L 886.1,1347.7 L 880.3,1353.3 L 873.8,1359.2 L 866.6,1365.4 L 859.9,1370.8 L 853.7,1375.4 L 846.6,1380.1 L 838.6,1384.7 L 831.8,1388.0 L 824.2,1391.2 L 815.6,1394.2 L 808.4,1396.2 L 800.1,1398.0 L 790.7,1399.5 L 782.8,1400.4 L 774.1,1400.9 L 765.3,1400.8 L 756.7,1400.2 L 748.1,1398.9 L 739.7,1397.1 L 731.3,1394.8 L 722.2,1391.7 L 714.8,1388.7 L 705.8,1384.5 L 698.7,1380.7 L 690.9,1376.1 L 683.4,1370.9 L 675.4,1364.7 L 669.1,1359.3 L 662.4,1352.8 L 656.1,1346.1 L 650.3,1339.4 L 644.7,1332.8 L 638.7,1325.9 L 633.8,1320.5 L 628.2,1314.9 L 622.4,1309.6 L 615.8,1304.2 L 609.4,1299.8 L 602.8,1295.8 L 596.7,1292.6 L 589.5,1289.3 L 582.0,1286.3 L 574.3,1283.6 L 565.5,1281.2 L 557.3,1279.3 L 549.8,1278.0 L 540.3,1276.9 L 532.4,1276.4 L 523.4,1276.2 L 513.4,1276.4 L 505.1,1276.8 L 494.8,1277.5 L 486.2,1278.3 L 476.7,1279.2 L 466.0,1280.2 L 457.2,1281.2 L 447.3,1282.2 L 437.3,1283.4 L 427.2,1284.7 L 416.9,1286.1 L 406.6,1287.6 L 395.1,1289.1 L 385.5,1290.1 L 373.7,1291.0 L 362.9,1291.6 L 353.0,1291.8 L 340.9,1291.7 L 329.7,1291.3 L 319.7,1290.6 L 308.4,1289.7 L 297.1,1288.6 L 285.7,1287.4 L 274.2,1286.4 L 262.6,1285.6 L 251.0,1285.0 L 239.2,1284.7 L 227.4,1284.6 L 215.5,1285.0 L 203.6,1285.7 L 190.4,1286.8 L 179.5,1288.0 L 167.4,1289.7 L 155.4,1291.7 L 142.1,1294.3 L 131.2,1296.7 L 119.1,1299.6 L 106.9,1302.5 L 94.7,1305.5 L 82.4,1308.5 L 70.0,1311.5 L 57.6,1314.5 L 45.2,1317.5 L 32.7,1320.6 L 20.1,1323.6 L 7.4,1326.5 L -6.6,1329.8 L -18.0,1332.4 L -32.2,1335.6 L -43.8,1338.2 L -56.7,1341.1 L -69.6,1344.1 L -82.1,1347.1 L -94.2,1349.9 L -105.8,1352.7 L -116.9,1355.4 L -127.4,1357.9 L -138.2,1360.6 L -146.6,1362.7 L -156.2,1365.1 L -163.5,1367.0 L -171.1,1369.1 L -178.1,1371.1 L -185.2,1373.4 L -190.6,1375.4 L -196.2,1377.8 L -201.6,1380.4 L -206.8,1383.3 L -212.2,1386.8 L -216.9,1390.3 L -221.0,1393.7 L -225.3,1397.7 L -229.6,1401.9 L -233.8,1406.2 L -238.2,1410.2 L -243.1,1414.4 L -247.3,1417.6 L -252.1,1420.9 L -257.2,1423.9 L -262.5,1426.5 L -268.0,1428.7 L -273.8,1430.5 L -280.4,1432.1 L -286.0,1433.1 L -292.4,1433.9 L -298.6,1434.5 L -304.5,1435.0 L -310.0,1435.5 L -315.5,1436.2 L -320.2,1436.9 L -324.1,1437.6 L -328.2,1438.6 L -332.3,1439.8 L -336.1,1441.2 L -339.8,1443.0 L -343.6,1445.4 L -346.4,1447.6 L -349.2,1450.3 L -352.2,1453.6 L -354.5,1456.4 L -357.1,1459.7 L -359.9,1462.8 L -362.9,1465.7 L -366.6,1468.6 L -369.9,1470.7 L -373.8,1472.8 L -378.0,1474.6 L -382.5,1475.9 L -387.2,1477.1 L -392.3,1478.0 L -397.6,1478.6 L -403.2,1479.0 L -409.1,1479.1 L -415.9,1479.1 L -422.3,1478.9 L -428.2,1478.6 L -434.9,1478.1 L -441.9,1477.6 L -449.1,1477.0 L -456.4,1476.4 L -464.8,1475.7 L -471.8,1475.1 L -479.7,1474.4 L -488.6,1473.7 L -496.0,1473.1 L -504.4,1472.5 L -513.0,1471.9 L -521.7,1471.3 L -530.6,1470.7 L -540.5,1469.9" fill="none" stroke="#ffffff" stroke-opacity="0.92" stroke-width="38.1" stroke-linecap="round" stroke-linejoin="round"/>
<line x1="-524.2" y1="1127.7" x2="-570.5" y2="1811.2" stroke="#ffffff" stroke-width="53.3" stroke-linecap="round"/>
</svg>