<svg xmlns="http://www.w3.org/2000/svg" viewBox="-848.5 -521.6 1997.3 1241.7">
<defs><linearGradient id="g" gradientUnits="userSpaceOnUse" x1="-753.6" y1="-426.7" x2="1053.9" y2="625.2">
<stop offset="0" stop-color="#1c9fe0"/><stop offset="1" stop-color="#0b1f44"/></linearGradient></defs>
<path d="M -649.9,254.6 L -641.9,260.7 L -635.0,266.0 L -628.0,271.3 L -621.0,276.8 L -613.8,282.3 L -606.5,287.8 L -599.1,293.5 L -591.5,299.2 L -583.9,305.1 L -576.2,311.0 L -568.5,316.9 L -559.8,323.5 L -552.6,329.0 L -544.6,335.1 L -536.4,341.3 L -528.2,347.5 L -519.8,353.8 L -510.6,360.8 L -502.9,366.5 L -493.5,373.7 L -485.7,379.6 L -476.1,386.9 L -468.3,392.9 L -459.5,399.7 L -450.6,406.5 L -441.7,413.4 L -431.7,421.0 L -423.5,427.2 L -413.4,434.9 L -405.1,441.2 L -394.8,448.9 L -386.4,455.3 L -376.1,463.1 L -366.6,470.3 L -358.1,476.8 L -347.6,484.8 L -339.0,491.3 L -329.4,498.6 L -319.8,506.0 L -309.2,514.1 L -300.5,520.8 L -289.9,529.0 L -281.2,535.8 L -271.5,543.3 L -260.8,551.6 L -252.1,558.3 L -242.4,565.7 L -233.1,572.7 L -224.4,579.2 L -216.2,585.2 L -208.6,590.7 L -201.5,595.7 L -194.8,600.3 L -188.0,604.8 L -182.8,608.1 L -176.7,611.8 L -171.5,614.8 L -166.9,617.2 L -162.1,619.4 L -157.3,621.4 L -152.8,623.0 L -148.3,624.1 L -143.9,624.9 L -139.6,625.2 L -135.5,625.0 L -131.2,624.2 L -128.0,623.2 L -124.8,621.6 L -121.7,619.3 L -119.5,617.1 L -117.6,614.4 L -116.0,611.5 L -114.9,608.2 L -114.1,604.2 L -113.7,600.8 L -113.6,596.7 L -113.9,592.4 L -114.6,587.8 L -115.6,582.5 L -116.8,578.0 L -118.7,572.4 L -120.6,567.7 L -123.0,562.3 L -125.8,556.8 L -129.1,550.6 L -132.1,545.3 L -135.5,539.4 L -139.2,533.2 L -142.9,526.9 L -146.6,520.3 L -150.2,513.4 L -153.9,505.4 L -156.7,498.6 L -159.8,489.9 L -162.0,482.6 L -164.0,474.1 L -165.5,465.4 L -166.6,455.6 L -167.0,447.5 L -166.9,438.4 L -166.2,429.4 L -164.8,419.4 L -163.0,411.3 L -160.2,401.5 L -157.2,393.5 L -153.4,384.7 L -148.5,375.3 L -143.9,367.8 L -138.2,359.8 L -132.0,352.0 L -125.3,344.6 L -118.0,337.6 L -110.3,331.0 L -102.1,324.9 L -93.5,319.1 L -83.6,313.4 L -74.2,308.6 L -65.7,304.5 L -56.1,299.8 L -46.4,295.0 L -36.9,289.9 L -26.7,284.1 L -18.5,279.3 L -9.7,273.7 L -1.1,267.9 L 7.1,261.8 L 15.0,255.3 L 22.4,248.4 L 29.3,241.2 L 35.7,233.5 L 41.8,225.5 L 48.2,216.3 L 53.5,207.6 L 58.0,199.7 L 62.7,191.1 L 67.5,182.6 L 72.4,174.5 L 77.8,166.6 L 83.6,159.2 L 89.7,152.1 L 96.2,145.5 L 103.1,139.3 L 110.3,133.6 L 117.8,128.3 L 126.3,123.0 L 133.0,118.8 L 140.0,114.0 L 146.4,108.8 L 152.2,103.1 L 157.5,97.1 L 162.3,90.7 L 166.5,84.1 L 170.2,77.3 L 173.3,70.2 L 176.1,62.9 L 178.4,55.4 L 180.5,46.8 L 182.1,39.8 L 184.1,32.1 L 186.3,24.7 L 189.0,17.5 L 192.1,10.5 L 196.0,3.1 L 199.6,-2.6 L 204.0,-8.7 L 208.7,-14.4 L 214.5,-20.2 L 219.5,-24.9 L 225.4,-29.8 L 231.6,-34.3 L 238.0,-38.4 L 244.6,-42.0 L 252.0,-45.3 L 258.2,-47.7 L 265.2,-49.7 L 272.2,-51.2 L 279.3,-52.1 L 287.0,-52.4 L 293.3,-52.2 L 300.2,-51.6 L 307.7,-50.2 L 313.8,-48.6 L 320.7,-46.5 L 328.3,-43.6 L 334.5,-40.9 L 341.4,-37.6 L 349.1,-33.9 L 355.6,-30.7 L 362.9,-27.1 L 370.2,-23.6 L 377.5,-20.6 L 384.9,-18.0 L 392.4,-16.0 L 400.6,-14.4 L 407.4,-13.6 L 414.9,-13.2 L 423.0,-13.6 L 429.6,-14.4 L 436.7,-16.0 L 443.7,-18.1 L 450.5,-20.8 L 457.8,-24.5 L 463.8,-27.9 L 470.1,-32.3 L 476.9,-37.7 L 482.2,-42.6 L 487.7,-48.4 L 493.1,-55.0 L 496.9,-60.6 L 500.6,-66.8 L 504.3,-72.6 L 508.2,-78.0 L 512.3,-83.0 L 516.6,-87.7 L 521.3,-91.9 L 526.2,-95.6 L 531.4,-98.7 L 536.7,-101.2 L 542.0,-103.2 L 547.4,-104.5 L 552.8,-105.3 L 558.7,-105.5 L 563.4,-105.2 L 568.6,-104.3 L 573.5,-102.9 L 578.7,-100.7 L 583.0,-98.5 L 587.5,-95.6 L 591.9,-92.3 L 596.1,-88.5 L 600.5,-83.9 L 604.7,-79.8 L 608.7,-76.2 L 613.4,-72.6 L 618.9,-69.2 L 624.1,-66.8 L 629.6,-64.8 L 635.2,-63.2 L 640.5,-62.1 L 646.5,-61.3 L 652.8,-60.7 L 659.2,-60.6 L 665.9,-60.9 L 672.8,-61.6 L 679.7,-62.6 L 687.6,-64.0 L 694.1,-65.3 L 701.4,-67.0 L 708.9,-68.8 L 716.5,-70.8 L 724.3,-72.8 L 732.2,-74.9 L 740.2,-77.0 L 748.4,-79.4 L 756.7,-81.9 L 765.1,-84.5 L 773.6,-87.4 L 782.9,-91.0 L 790.5,-94.3 L 799.0,-98.3 L 807.3,-102.6 L 816.5,-107.9 L 823.9,-112.5 L 832.0,-118.2 L 840.7,-124.8 L 848.4,-131.3 L 856.0,-138.2 L 862.7,-144.7 L 870.0,-152.3 L 877.1,-160.1 L 884.1,-168.2 L 890.9,-176.6 L 897.6,-185.2 L 904.1,-194.1 L 910.7,-203.1 L 917.9,-213.1 L 924.7,-222.2 L 930.9,-230.3 L 937.9,-239.4 L 945.2,-248.4 L 952.5,-257.4 L 959.9,-266.5 L 967.4,-275.6 L 975.1,-284.7 L 982.7,-293.9 L 990.4,-303.0 L 997.7,-311.9 L 1004.7,-320.5 L 1011.7,-329.2 L 1017.0,-335.9 L 1023.1,-343.5 L 1027.6,-349.3 L 1032.2,-355.3 L 1036.2,-360.9 L 1039.8,-366.1 L 1042.9,-370.9 L 1045.5,-375.3 L 1048.0,-380.0 L 1049.9,-384.1 L 1051.3,-387.8 L 1052.6,-391.9 L 1053.5,-396.4 L 1053.9,-399.9 L 1053.8,-403.6 L 1053.3,-407.1 L 1052.3,-410.5 L 1051.1,-413.1 L 1049.2,-416.0 L 1047.3,-418.1 L 1044.8,-420.3 L 1041.9,-422.3 L 1038.7,-423.9 L 1035.2,-425.2 L 1031.4,-426.1 L 1026.9,-426.6 L 1023.1,-426.7 L 1018.2,-426.3 L 1014.0,-425.6 L 1008.7,-424.4 L 1004.2,-423.1 L 998.9,-421.3 L 993.5,-419.4 L 987.3,-417.1 L 982.1,-415.0 L 976.1,-412.6 L 969.3,-409.8 L 963.5,-407.6 L 956.8,-405.0 L 949.9,-402.4 L 942.9,-399.8 L 935.6,-397.1 L 927.5,-394.0 L 920.6,-391.5 L 912.9,-388.8 L 904.9,-385.9 L 896.0,-382.8 L 888.6,-380.2 L 880.1,-377.4 L 871.6,-374.5 L 862.8,-371.7 L 854.0,-368.9 L 844.0,-365.9 L 834.8,-363.1 L 826.5,-360.6 L 816.1,-357.6 L 807.6,-355.1 L 798.0,-352.3 L 788.3,-349.4 L 778.5,-346.6 L 767.6,-343.4 L 758.6,-340.8 L 748.6,-337.9 L 738.4,-335.1 L 728.1,-332.2 L 717.8,-329.3 L 707.3,-326.4 L 696.8,-323.6 L 686.2,-320.7 L 675.5,-317.9 L 663.6,-314.9 L 653.8,-312.3 L 642.8,-309.5 L 631.7,-306.7 L 620.6,-304.0 L 609.4,-301.2 L 598.0,-298.5 L 585.5,-295.6 L 575.2,-293.2 L 562.5,-290.4 L 552.0,-288.0 L 539.1,-285.2 L 527.3,-282.7 L 516.6,-280.5 L 504.7,-278.0 L 492.6,-275.6 L 480.5,-273.2 L 468.3,-270.8 L 454.8,-268.1 L 443.8,-266.0 L 431.4,-263.6 L 418.9,-261.2 L 405.1,-258.6 L 393.8,-256.5 L 379.9,-253.8 L 368.5,-251.7 L 355.8,-249.3 L 343.0,-247.0 L 330.1,-244.7 L 317.2,-242.5 L 302.9,-240.2 L 291.2,-238.4 L 278.1,-236.5 L 264.9,-234.6 L 251.7,-232.8 L 238.5,-231.0 L 225.3,-229.2 L 212.0,-227.4 L 197.3,-225.5 L 185.2,-223.9 L 171.8,-222.2 L 158.3,-220.6 L 144.8,-219.0 L 131.3,-217.4 L 117.7,-215.7 L 102.7,-214.0 L 90.4,-212.5 L 76.7,-210.9 L 63.0,-209.3 L 49.3,-207.7 L 35.9,-206.1 L 23.1,-204.5 L 11.1,-202.9 L -0.3,-201.5 L -11.0,-200.1 L -20.9,-198.8 L -31.2,-197.3 L -39.7,-196.0 L -47.6,-194.6 L -54.9,-193.3 L -60.8,-192.0 L -66.9,-190.5 L -72.4,-189.0 L -77.4,-187.5 L -81.9,-185.9 L -85.9,-184.1 L -89.8,-181.9 L -92.5,-179.9 L -95.2,-177.5 L -97.4,-175.0 L -99.1,-172.2 L -100.4,-169.2 L -101.0,-166.1 L -101.2,-163.0 L -100.9,-159.7 L -100.2,-156.2 L -98.9,-152.7 L -97.1,-148.7 L -95.0,-145.0 L -92.7,-141.5 L -89.9,-137.5 L -86.8,-133.3 L -83.4,-129.2 L -79.7,-124.9 L -75.8,-120.6 L -71.6,-116.3 L -67.2,-111.8 L -62.5,-107.3 L -57.7,-102.6 L -52.3,-97.3 L -47.7,-92.9 L -42.7,-87.7 L -37.6,-82.4 L -32.5,-76.8 L -27.5,-71.0 L -22.0,-64.3 L -17.6,-58.7 L -13.1,-52.6 L -9.1,-46.6 L -5.7,-40.9 L -2.7,-35.4 L 0.1,-29.5 L 1.8,-25.0 L 3.3,-20.2 L 4.4,-15.2 L 4.9,-11.4 L 4.9,-7.0 L 4.6,-3.5 L 3.8,0.2 L 2.6,3.7 L 0.8,7.3 L -1.0,10.0 L -3.6,13.1 L -6.4,15.8 L -9.6,18.2 L -12.8,20.2 L -17.1,22.3 L -20.9,23.8 L -26.0,25.1 L -30.3,25.8 L -35.4,26.3 L -40.6,26.3 L -46.0,25.9 L -52.0,24.9 L -57.0,23.6 L -62.5,21.9 L -68.5,19.3 L -73.4,16.8 L -78.7,13.5 L -83.8,9.7 L -88.8,5.5 L -93.5,0.8 L -98.0,-4.4 L -102.6,-10.5 L -106.0,-15.8 L -109.8,-22.6 L -113.0,-29.0 L -115.8,-34.9 L -119.1,-41.5 L -123.1,-48.6 L -126.6,-54.2 L -130.6,-59.9 L -134.7,-65.1 L -138.9,-69.9 L -143.2,-74.2 L -147.6,-78.1 L -152.3,-81.5 L -157.0,-84.6 L -161.9,-87.2 L -167.2,-89.7 L -171.6,-91.4 L -176.4,-92.8 L -181.0,-93.8 L -185.5,-94.3 L -189.7,-94.3 L -193.8,-93.8 L -197.7,-92.9 L -201.8,-91.4 L -204.8,-89.7 L -207.9,-87.5 L -210.6,-85.0 L -212.9,-82.1 L -214.6,-79.0 L -215.9,-75.7 L -216.7,-72.4 L -217.0,-68.7 L -216.8,-65.4 L -216.2,-62.3 L -215.2,-58.7 L -213.8,-55.1 L -212.0,-51.3 L -209.8,-46.9 L -207.7,-43.2 L -204.8,-38.4 L -202.2,-34.5 L -199.1,-30.0 L -195.4,-24.9 L -192.2,-20.6 L -188.4,-15.7 L -184.4,-10.8 L -180.3,-5.6 L -176.0,-0.4 L -171.6,5.1 L -167.1,10.6 L -162.5,16.3 L -157.8,22.2 L -152.9,29.0 L -148.9,34.9 L -144.8,41.6 L -140.9,48.7 L -137.0,56.9 L -134.1,63.9 L -131.3,71.8 L -129.1,79.8 L -127.4,87.9 L -126.4,96.0 L -125.9,104.2 L -126.0,112.5 L -126.8,120.7 L -128.0,129.0 L -129.8,137.3 L -132.1,145.5 L -135.2,154.2 L -138.6,161.9 L -142.2,168.5 L -146.6,175.6 L -151.4,182.2 L -156.8,188.4 L -162.5,194.0 L -168.7,199.3 L -175.2,204.2 L -182.9,209.2 L -189.5,213.0 L -197.2,216.9 L -205.2,220.3 L -214.3,223.7 L -222.8,226.2 L -230.6,227.9 L -240.2,229.4 L -248.2,230.1 L -257.0,230.3 L -265.9,229.9 L -274.7,229.0 L -283.5,227.5 L -293.3,225.2 L -301.2,222.9 L -310.8,219.4 L -318.7,216.1 L -327.2,211.9 L -336.4,206.8 L -343.8,202.1 L -351.8,196.4 L -359.5,190.1 L -366.8,183.3 L -373.7,175.9 L -380.3,168.1 L -387.0,159.0 L -392.2,151.2 L -397.6,142.2 L -402.9,133.0 L -408.3,123.8 L -413.9,114.5 L -419.7,105.3 L -425.6,96.2 L -431.6,87.5 L -437.4,79.3 L -443.2,71.7 L -448.8,64.8 L -454.4,58.4 L -459.9,52.6 L -465.5,47.5 L -471.2,43.0 L -477.0,39.1 L -483.5,35.5 L -488.8,33.1 L -495.3,30.7 L -500.6,29.3 L -506.5,28.3 L -512.6,27.9 L -518.8,27.9 L -525.2,28.3 L -531.8,29.3 L -539.0,30.8 L -545.0,32.6 L -551.8,34.9 L -558.5,37.7 L -565.3,40.8 L -572.9,44.4 L -579.3,47.5 L -586.5,51.0 L -593.8,54.6 L -601.4,58.2 L -609.0,61.9 L -616.9,65.5 L -624.9,69.3 L -633.0,73.0 L -642.1,77.2 L -649.6,80.6 L -658.1,84.5 L -666.6,88.5 L -675.3,92.5 L -683.8,96.5 L -692.0,100.3 L -699.6,104.0 L -707.3,107.6 L -713.0,110.4 L -719.5,113.6 L -724.3,116.0 L -729.1,118.5 L -733.7,121.0 L -737.0,123.0 L -740.1,125.2 L -742.9,127.4 L -745.3,129.9 L -747.4,132.5 L -749.3,135.5 L -751.0,138.8 L -752.3,142.3 L -753.2,146.3 L -753.6,149.8 L -753.6,153.8 L -753.2,157.8 L -752.3,161.7 L -751.0,165.7 L -749.2,169.8 L -747.0,173.9 L -744.5,178.1 L -741.4,182.4 L -738.0,186.6 L -734.1,190.6 L -729.9,194.6 L -725.3,198.5 L -720.4,202.4 L -715.2,206.4 L -709.9,210.4 L -704.3,214.5 L -698.0,219.1 L -692.7,223.0 L -686.7,227.4 L -679.9,232.3 L -673.6,236.9 L -667.8,241.1 L -661.3,245.9 L -654.0,251.3" fill="none" stroke="url(#g)" stroke-width="126.5" stroke-linecap="round" stroke-linejoin="round"/>
<path d="M -649.9,254.6 L -641.9,260.7 L -635.0,266.0 L -628.0,271.3 L -621.0,276.8 L -613.8,282.3 L -606.5,287.8 L -599.1,293.5 L -591.5,299.2 L -583.9,305.1 L -576.2,311.0 L -568.5,316.9 L -559.8,323.5 L -552.6,329.0 L -544.6,335.1 L -536.4,341.3 L -528.2,347.5 L -519.8,353.8 L -510.6,360.8 L -502.9,366.5 L -493.5,373.7 L -485.7,379.6 L -476.1,386.9 L -468.3,392.9 L -459.5,399.7 L -450.6,406.5 L -441.7,413.4 L -431.7,421.0 L -423.5,427.2 L -413.4,434.9 L -405.1,441.2 L -394.8,448.9 L -386.4,455.3 L -376.1,463.1 L -366.6,470.3 L -358.1,476.8 L -347.6,484.8 L -339.0,491.3 L -329.4,498.6 L -319.8,506.0 L -309.2,514.1 L -300.5,520.8 L -289.9,529.0 L -281.2,535.8 L -271.5,543.3 L -260.8,551.6 L -252.1,558.3 L -242.4,565.7 L -233.1,572.7 L -224.4,579.2 L -216.2,585.2 L -208.6,590.7 L -201.5,595.7 L -194.8,600.3 L -188.0,604.8 L -182.8,608.1 L -176.7,611.8 L -171.5,614.8 L -166.9,617.2 L -162.1,619.4 L -157.3,621.4 L -152.8,623.0 L -148.3,624.1 L -143.9,624.9 L -139.6,625.2 L -135.5,625.0 L -131.2,624.2 L -128.0,623.2 L -124.8,621.6 L -121.7,619.3 L -119.5,617.1 L -117.6,614.4 L -116.0,611.5 L -114.9,608.2 L -114.1,604.2 L -113.7,600.8 L -113.6,596.7 L -113.9,592.4 L -114.6,587.8 L -115.6,582.5 L -116.8,578.0 L -118.7,572.4 L -120.6,567.7 L -123.0,562.3 L -125.8,556.8 L -129.1,550.6 L -132.1,545.3 L -135.5,539.4 L -139.2,533.2 L -142.9,526.9 L -146.6,520.3 L -150.2,513.4 L -153.9,505.4 L -156.7,498.6 L -159.8,489.9 L -162.0,482.6 L -164.0,474.1 L -165.5,465.4 L -166.6,455.6 L -167.0,447.5 L -166.9,438.4 L -166.2,429.4 L -164.8,419.4 L -163.0,411.3 L -160.2,401.5 L -157.2,393.5 L -153.4,384.7 L -148.5,375.3 L -143.9,367.8 L -138.2,359.8 L -132.0,352.0 L -125.3,344.6 L -118.0,337.6 L -110.3,331.0 L -102.1,324.9 L -93.5,319.1 L -83.6,313.4 L -74.2,308.6 L -65.7,304.5 L -56.1,299.8 L -46.4,295.0 L -36.9,289.9 L -26.7,284.1 L -18.5,279.3 L -9.7,273.7 L -1.1,267.9 L 7.1,261.8 L 15.0,255.3 L 22.4,248.4 L 29.3,241.2 L 35.7,233.5 L 41.8,225.5 L 48.2,216.3 L 53.5,207.6 L 58.0,199.7 L 62.7,191.1 L 67.5,182.6 L 72.4,174.5 L 77.8,166.6 L 83.6,159.2 L 89.7,152.1 L 96.2,145.5 L 103.1,139.3 L 110.3,133.6 L 117.8,128.3 L 126.3,123.0 L 133.0,118.8 L 140.0,114.0 L 146.4,108.8 L 152.2,103.1 L 157.5,97.1 L 162.3,90.7 L 166.5,84.1 L 170.2,77.3 L 173.3,70.2 L 176.1,62.9 L 178.4,55.4 L 180.5,46.8 L 182.1,39.8 L 184.1,32.1 L 186.3,24.7 L 189.0,17.5 L 192.1,10.5 L 196.0,3.1 L 199.6,-2.6 L 204.0,-8.7 L 208.7,-14.4 L 214.5,-20.2 L 219.5,-24.9 L 225.4,-29.8 L 231.6,-34.3 L 238.0,-38.4 L 244.6,-42.0 L 252.0,-45.3 L 258.2,-47.7 L 265.2,-49.7 L 272.2,-51.2 L 279.3,-52.1 L 287.0,-52.4 L 293.3,-52.2 L 300.2,-51.6 L 307.7,-50.2 L 313.8,-48.6 L 320.7,-46.5 L 328.3,-43.6 L 334.5,-40.9 L 341.4,-37.6 L 349.1,-33.9 L 355.6,-30.7 L 362.9,-27.1 L 370.2,-23.6 L 377.5,-20.6 L 384.9,-18.0 L 392.4,-16.0 L 400.6,-14.4 L 407.4,-13.6 L 414.9,-13.2 L 423.0,-13.6 L 429.6,-14.4 L 436.7,-16.0 L 443.7,-18.1 L 450.5,-20.8 L 457.8,-24.5 L 463.8,-27.9 L 470.1,-32.3 L 476.9,-37.7 L 482.2,-42.6 L 487.7,-48.4 L 493.1,-55.0 L 496.9,-60.6 L 500.6,-66.8 L 504.3,-72.6 L 508.2,-78.0 L 512.3,-83.0 L 516.6,-87.7 L 521.3,-91.9 L 526.2,-95.6 L 531.4,-98.7 L 536.7,-101.2 L 542.0,-103.2 L 547.4,-104.5 L 552.8,-105.3 L 558.7,-105.5 L 563.4,-105.2 L 568.6,-104.3 L 573.5,-102.9 L 578.7,-100.7 L 583.0,-98.5 L 587.5,-95.6 L 591.9,-92.3 L 596.1,-88.5 L 600.5,-83.9 L 604.7,-79.8 L 608.7,-76.2 L 613.4,-72.6 L 618.9,-69.2 L 624.1,-66.8 L 629.6,-64.8 L 635.2,-63.2 L 640.5,-62.1 L 646.5,-61.3 L 652.8,-60.7 L 659.2,-60.6 L 665.9,-60.9 L 672.8,-61.6 L 679.7,-62.6 L 687.6,-64.0 L 694.1,-65.3 L 701.4,-67.0 L 708.9,-68.8 L 716.5,-70.8 L 724.3,-72.8 L 732.2,-74.9 L 740.2,-77.0 L 748.4,-79.4 L 756.7,-81.9 L 765.1,-84.5 L 773.6,-87.4 L 782.9,-91.0 L 790.5,-94.3 L 799.0,-98.3 L 807.3,-102.6 L 816.5,-107.9 L 823.9,-112.5 L 832.0,-118.2 L 840.7,-124.8 L 848.4,-131.3 L 856.0,-138.2 L 862.7,-144.7 L 870.0,-152.3 L 877.1,-160.1 L 884.1,-168.2 L 890.9,-176.6 L 897.6,-185.2 L 904.1,-194.1 L 910.7,-203.1 L 917.9,-213.1 L 924.7,-222.2 L 930.9,-230.3 L 937.9,-239.4 L 945.2,-248.4 L 952.5,-257.4 L 959.9,-266.5 L 967.4,-275.6 L 975.1,-284.7 L 982.7,-293.9 L 990.4,-303.0 L 997.7,-311.9 L 1004.7,-320.5 L 1011.7,-329.2 L 1017.0,-335.9 L 1023.1,-343.5 L 1027.6,-349.3 L 1032.2,-355.3 L 1036.2,-360.9 L 1039.8,-366.1 L 1042.9,-370.9 L 1045.5,-375.3 L 1048.0,-380.0 L 1049.9,-384.1 L 1051.3,-387.8 L 1052.6,-391.9 L 1053.5,-396.4 L 1053.9,-399.9 L 1053.8,-403.6 L 1053.3,-407.1 L 1052.3,-410.5 L 1051.1,-413.1 L 1049.2,-416.0 L 1047.3,-418.1 L 1044.8,-420.3 L 1041.9,-422.3 L 1038.7,-423.9 L 1035.2,-425.2 L 1031.4,-426.1 L 1026.9,-426.6 L 1023.1,-426.7 L 1018.2,-426.3 L 1014.0,-425.6 L 1008.7,-424.4 L 1004.2,-423.1 L 998.9,-421.3 L 993.5,-419.4 L 987.3,-417.1 L 982.1,-415.0 L 976.1,-412.6 L 969.3,-409.8 L 963.5,-407.6 L 956.8,-405.0 L 949.9,-402.4 L 942.9,-399.8 L 935.6,-397.1 L 927.5,-394.0 L 920.6,-391.5 L 912.9,-388.8 L 904.9,-385.9 L 896.0,-382.8 L 888.6,-380.2 L 880.1,-377.4 L 871.6,-374.5 L 862.8,-371.7 L 854.0,-368.9 L 844.0,-365.9 L 834.8,-363.1 L 826.5,-360.6 L 816.1,-357.6 L 807.6,-355.1 L 798.0,-352.3 L 788.3,-349.4 L 778.5,-346.6 L 767.6,-343.4 L 758.6,-340.8 L 748.6,-337.9 L 738.4,-335.1 L 728.1,-332.2 L 717.8,-329.3 L 707.3,-326.4 L 696.8,-323.6 L 686.2,-320.7 L 675.5,-317.9 L 663.6,-314.9 L 653.8,-312.3 L 642.8,-309.5 L 631.7,-306.7 L 620.6,-304.0 L 609.4,-301.2 L 598.0,-298.5 L 585.5,-295.6 L 575.2,-293.2 L 562.5,-290.4 L 552.0,-288.0 L 539.1,-285.2 L 527.3,-282.7 L 516.6,-280.5 L 504.7,-278.0 L 492.6,-275.6 L 480.5,-273.2 L 468.3,-270.8 L 454.8,-268.1 L 443.8,-266.0 L 431.4,-263.6 L 418.9,-261.2 L 405.1,-258.6 L 393.8,-256.5 L 379.9,-253.8 L 368.5,-251.7 L 355.8,-249.3 L 343.0,-247.0 L 330.1,-244.7 L 317.2,-242.5 L 302.9,-240.2 L 291.2,-238.4 L 278.1,-236.5 L 264.9,-234.6 L 251.7,-232.8 L 238.5,-231.0 L 225.3,-229.2 L 212.0,-227.4 L 197.3,-225.5 L 185.2,-223.9 L 171.8,-222.2 L 158.3,-220.6 L 144.8,-219.0 L 131.3,-217.4 L 117.7,-215.7 L 102.7,-214.0 L 90.4,-212.5 L 76.7,-210.9 L 63.0,-209.3 L 49.3,-207.7 L 35.9,-206.1 L 23.1,-204.5 L 11.1,-202.9 L -0.3,-201.5 L -11.0,-200.1 L -20.9,-198.8 L -31.2,-197.3 L -39.7,-196.0 L -47.6,-194.6 L -54.9,-193.3 L -60.8,-192.0 L -66.9,-190.5 L -72.4,-189.0 L -77.4,-187.5 L -81.9,-185.9 L -85.9,-184.1 L -89.8,-181.9 L -92.5,-179.9 L -95.2,-177.5 L -97.4,-175.0 L -99.1,-172.2 L -100.4,-169.2 L -101.0,-166.1 L -101.2,-163.0 L -100.9,-159.7 L -100.2,-156.2 L -98.9,-152.7 L -97.1,-148.7 L -95.0,-145.0 L -92.7,-141.5 L -89.9,-137.5 L -86.8,-133.3 L -83.4,-129.2 L -79.7,-124.9 L -75.8,-120.6 L -71.6,-116.3 L -67.2,-111.8 L -62.5,-107.3 L -57.7,-102.6 L -52.3,-97.3 L -47.7,-92.9 L -42.7,-87.7 L -37.6,-82.4 L -32.5,-76.8 L -27.5,-71.0 L -22.0,-64.3 L -17.6,-58.7 L -13.1,-52.6 L -9.1,-46.6 L -5.7,-40.9 L -2.7,-35.4 L 0.1,-29.5 L 1.8,-25.0 L 3.3,-20.2 L 4.4,-15.2 L 4.9,-11.4 L 4.9,-7.0 L 4.6,-3.5 L 3.8,0.2 L 2.6,3.7 L 0.8,7.3 L -1.0,10.0 L -3.6,13.1 L -6.4,15.8 L -9.6,18.2 L -12.8,20.2 L -17.1,22.3 L -20.9,23.8 L -26.0,25.1 L -30.3,25.8 L -35.4,26.3 L -40.6,26.3 L -46.0,25.9 L -52.0,24.9 L -57.0,23.6 L -62.5,21.9 L -68.5,19.3 L -73.4,16.8 L -78.7,13.5 L -83.8,9.7 L -88.8,5.5 L -93.5,0.8 L -98.0,-4.4 L -102.6,-10.5 L -106.0,-15.8 L -109.8,-22.6 L -113.0,-29.0 L -115.8,-34.9 L -119.1,-41.5 L -123.1,-48.6 L -126.6,-54.2 L -130.6,-59.9 L -134.7,-65.1 L -138.9,-69.9 L -143.2,-74.2 L -147.6,-78.1 L -152.3,-81.5 L -157.0,-84.6 L -161.9,-87.2 L -167.2,-89.7 L -171.6,-91.4 L -176.4,-92.8 L -181.0,-93.8 L -185.5,-94.3 L -189.7,-94.3 L -193.8,-93.8 L -197.7,-92.9 L -201.8,-91.4 L -204.8,-89.7 L -207.9,-87.5 L -210.6,-85.0 L -212.9,-82.1 L -214.6,-79.0 L -215.9,-75.7 L -216.7,-72.4 L -217.0,-68.7 L -216.8,-65.4 L -216.2,-62.3 L -215.2,-58.7 L -213.8,-55.1 L -212.0,-51.3 L -209.8,-46.9 L -207.7,-43.2 L -204.8,-38.4 L -202.2,-34.5 L -199.1,-30.0 L -195.4,-24.9 L -192.2,-20.6 L -188.4,-15.7 L -184.4,-10.8 L -180.3,-5.6 L -176.0,-0.4 L -171.6,5.1 L -167.1,10.6 L -162.5,16.3 L -157.8,22.2 L -152.9,29.0 L -148.9,34.9 L -144.8,41.6 L -140.9,48.7 L -137.0,56.9 L -134.1,63.9 L -131.3,71.8 L -129.1,79.8 L -127.4,87.9 L -126.4,96.0 L -125.9,104.2 L -126.0,112.5 L -126.8,120.7 L -128.0,129.0 L -129.8,137.3 L -132.1,145.5 L -135.2,154.2 L -138.6,161.9 L -142.2,168.5 L -146.6,175.6 L -151.4,182.2 L -156.8,188.4 L -162.5,194.0 L -168.7,199.3 L -175.2,204.2 L -182.9,209.2 L -189.5,213.0 L -197.2,216.9 L -205.2,220.3 L -214.3,223.7 L -222.8,226.2 L -230.6,227.9 L -240.2,229.4 L -248.2,230.1 L -257.0,230.3 L -265.9,229.9 L -274.7,229.0 L -283.5,227.5 L -293.3,225.2 L -301.2,222.9 L -310.8,219.4 L -318.7,216.1 L -327.2,211.9 L -336.4,206.8 L -343.8,202.1 L -351.8,196.4 L -359.5,190.1 L -366.8,183.3 L -373.7,175.9 L -380.3,168.1 L -387.0,159.0 L -392.2,151.2 L -397.6,142.2 L -402.9,133.0 L -408.3,123.8 L -413.9,114.5 L -419.7,105.3 L -425.6,96.2 L -431.6,87.5 L -437.4,79.3 L -443.2,71.7 L -448.8,64.8 L -454.4,58.4 L -459.9,52.6 L -465.5,47.5 L -471.2,43.0 L -477.0,39.1 L -483.5,35.5 L -488.8,33.1 L -495.3,30.7 L -500.6,29.3 L -506.5,28.3 L -512.6,27.9 L -518.8,27.9 L -525.2,28.3 L -531.8,29.3 L -539.0,30.8 L -545.0,32.6 L -551.8,34.9 L -558.5,37.7 L -565.3,40.8 L -572.9,44.4 L -579.3,47.5 L -586.5,51.0 L -593.8,54.6 L -601.4,58.2 L -609.0,61.9 L -616.9,65.5 L -624.9,69.3 L -633.0,73.0 L -642.1,77.2 L -649.6,80.6 L -658.1,84.5 L -666.6,88.5 L -675.3,92.5 L -683.8,96.5 L -692.0,100.3 L -699.6,104.0 L -707.3,107.6 L -713.0,110.4 L -719.5,113.6 L -724.3,116.0 L -729.1,118.5 L -733.7,121.0 L -737.0,123.0 L -740.1,125.2 L -742.9,127.4 L -745.3,129.9 L -747.4,132.5 L -749.3,135.5 L -751.0,138.8 L -752.3,142.3 L -753.2,146.3 L -753.6,149.8 L -753.6,153.8 L -753.2,157.8 L -752.3,161.7 L -751.0,165.7 L -749.2,169.8 L -747.0,173.9 L -744.5,178.1 L -741.4,182.4 L -738.0,186.6 L -734.1,190.6 L -729.9,194.6 L -725.3,198.5 L -720.4,202.4 L -715.2,206.4 L -709.9,210.4 L -704.3,214.5 L -698.0,219.1 L -692.7,223.0 L -686.7,227.4 L -679.9,232.3 L -673.6,236.9 L -667.8,241.1 L -661.3,245.9 L -654.0,251.3" fill="none" stroke="#ffffff" stroke-opacity="0.92" stroke-width="12.7" stroke-linecap="round" stroke-linejoin="round"/>
<line x1="-719.2" y1="345.0" x2="-580.7" y2="164.1" stroke="#ffffff" stroke-width="17.7" stroke-linecap="round"/>
</svg>