<svg xmlns="http://www.w3.org/2000/svg" viewBox="-90.0 -90.0 1180.0 677.0">
<defs><linearGradient id="g" gradientUnits="userSpaceOnUse" x1="-31.0" y1="-56.2" x2="1031.0" y2="553.1">
<stop offset="0" stop-color="#1c9fe0"/><stop offset="1" stop-color="#0b1f44"/></linearGradient></defs>
<path d="M 787.6,1.6 L 781.5,1.6 L 777.4,1.6 L 772.7,1.6 L 767.5,1.6 L 761.7,1.6 L 755.6,1.6 L 748.9,1.6 L 741.9,1.7 L 734.5,1.7 L 726.7,1.8 L 718.5,1.8 L 710.1,1.9 L 701.4,1.9 L 692.4,2.0 L 683.1,2.0 L 673.7,2.1 L 664.1,2.2 L 654.3,2.2 L 644.4,2.3 L 634.4,2.4 L 624.3,2.4 L 614.1,2.5 L 603.9,2.5 L 593.8,2.6 L 583.6,2.6 L 573.5,2.6 L 563.5,2.7 L 553.6,2.7 L 543.8,2.7 L 534.2,2.7 L 524.7,2.7 L 515.5,2.7 L 506.4,2.6 L 497.7,2.6 L 489.2,2.5 L 481.1,2.5 L 473.3,2.4 L 465.8,2.3 L 458.7,2.2 L 449.4,2.2 L 439.8,2.7 L 431.8,3.9 L 425.2,5.7 L 417.6,9.2 L 411.1,14.3 L 405.7,19.9 L 399.6,25.3 L 393.5,28.1 L 386.1,29.8 L 375.7,30.5 L 363.5,30.2 L 354.4,29.0 L 347.8,27.3 L 342.3,24.8 L 336.1,20.1 L 329.4,14.7 L 324.0,11.3 L 316.9,8.2 L 307.6,5.4 L 298.8,3.6 L 292.9,2.7 L 286.4,1.9 L 279.2,1.2 L 271.2,0.7 L 262.3,0.3 L 252.7,0.1 L 242.1,0.0 L 230.5,0.1 L 222.1,0.2 L 213.7,0.4 L 205.3,0.7 L 196.9,1.1 L 188.4,1.7 L 180.1,2.6 L 171.8,3.5 L 163.5,4.6 L 155.2,6.0 L 146.9,7.9 L 138.8,10.4 L 130.9,13.2 L 123.1,16.4 L 115.4,19.8 L 107.8,23.5 L 100.3,27.4 L 92.9,31.4 L 85.7,35.6 L 78.7,40.0 L 71.7,44.7 L 64.9,49.7 L 58.4,55.2 L 52.4,61.1 L 47.0,67.4 L 41.7,74.0 L 36.8,80.9 L 32.1,87.9 L 27.7,95.2 L 23.6,102.5 L 19.7,109.9 L 16.2,117.5 L 13.1,125.4 L 10.4,133.4 L 8.0,141.5 L 5.9,149.7 L 4.1,157.8 L 2.7,166.0 L 1.4,174.3 L 0.6,182.7 L 0.1,191.1 L 0.0,199.6 L 0.4,208.0 L 1.3,216.3 L 2.6,224.7 L 4.4,232.9 L 6.6,241.1 L 9.0,249.2 L 11.7,257.1 L 14.6,264.9 L 17.8,272.6 L 21.2,280.3 L 25.1,287.9 L 29.3,295.2 L 33.9,302.2 L 38.7,308.9 L 43.9,315.5 L 49.4,321.9 L 55.4,328.0 L 61.7,333.6 L 68.4,338.7 L 75.3,343.4 L 82.4,347.9 L 89.6,352.2 L 97.0,356.3 L 104.4,360.3 L 111.9,364.2 L 119.5,367.9 L 127.2,371.4 L 134.8,374.9 L 142.5,378.2 L 150.1,381.5 L 157.8,384.9 L 165.4,388.3 L 173.1,391.7 L 180.7,395.1 L 188.4,398.5 L 196.1,401.9 L 203.8,405.3 L 211.5,408.8 L 219.2,412.2 L 226.9,415.6 L 234.7,419.0 L 242.4,422.4 L 250.1,425.8 L 257.9,429.1 L 265.7,432.4 L 273.5,435.7 L 281.3,439.0 L 289.1,442.2 L 296.9,445.4 L 304.7,448.6 L 312.6,451.7 L 320.4,454.8 L 328.3,457.8 L 336.2,460.7 L 344.1,463.6 L 352.0,466.5 L 360.0,469.2 L 367.9,472.0 L 375.9,474.6 L 383.9,477.1 L 391.9,479.6 L 399.9,482.0 L 407.9,484.3 L 416.7,486.8 L 425.2,489.0 L 433.4,491.0 L 441.4,492.7 L 449.3,494.2 L 457.1,495.4 L 465.0,496.2 L 473.1,496.8 L 481.4,497.0 L 490.1,496.8 L 499.1,496.4 L 507.0,496.0 L 515.6,495.8 L 524.3,495.6 L 532.9,495.2 L 541.1,494.4 L 549.5,493.2 L 557.8,491.8 L 566.0,490.2 L 574.3,488.4 L 582.4,486.3 L 590.5,484.1 L 598.7,481.7 L 606.7,479.1 L 614.7,476.3 L 622.6,473.4 L 630.5,470.5 L 638.4,467.6 L 646.2,464.7 L 654.1,461.9 L 659.8,459.8 L 666.0,457.3 L 673.1,454.0 L 681.0,450.0 L 689.3,445.3 L 697.7,439.9 L 705.6,434.1 L 712.1,428.7 L 718.3,422.9 L 723.9,416.6 L 729.0,409.9 L 733.2,402.7 L 736.6,395.1 L 738.8,387.0 L 739.9,378.5 L 738.7,370.3 L 734.9,363.0 L 729.1,356.7 L 722.7,351.9 L 715.4,347.7 L 707.5,344.1 L 698.6,340.7 L 689.0,337.7 L 679.7,335.3 L 671.0,333.5 L 663.3,332.1 L 657.1,331.3 L 650.0,330.3 L 642.1,327.7 L 634.8,324.0 L 627.8,319.9 L 621.0,316.4 L 613.3,313.4 L 604.6,311.4 L 595.1,310.9 L 585.9,310.7 L 576.7,310.7 L 567.6,310.7 L 558.7,310.8 L 549.9,310.9 L 541.3,311.0 L 533.0,311.1 L 524.9,311.1 L 517.2,310.9 L 509.9,310.6 L 502.9,310.1 L 492.9,308.8 L 484.3,306.9 L 477.3,304.3 L 471.3,300.4 L 467.2,294.1 L 466.5,285.2 L 470.0,278.4 L 477.1,274.2 L 484.8,271.4 L 493.9,269.2 L 500.6,267.9 L 507.8,266.9 L 515.5,266.0 L 523.8,265.2 L 532.5,264.6 L 541.7,264.0 L 551.2,263.6 L 561.0,263.4 L 569.0,263.2 L 577.0,263.1 L 585.2,263.1 L 593.5,263.1 L 601.9,263.1 L 610.4,263.1 L 619.0,263.2 L 627.6,263.4 L 636.3,263.5 L 645.0,263.6 L 653.8,263.8 L 662.5,264.0 L 671.2,264.1 L 679.8,264.3 L 688.4,264.4 L 696.9,264.6 L 705.4,264.7 L 713.7,264.8 L 721.9,264.8 L 729.9,264.9 L 737.8,264.8 L 745.2,263.0 L 752.7,258.1 L 758.8,253.6 L 765.6,248.2 L 772.3,242.6 L 778.2,237.7 L 784.3,232.5 L 790.6,227.0 L 797.1,221.4 L 803.8,215.7 L 810.6,210.0 L 817.4,204.2 L 824.5,198.4 L 831.6,192.8 L 838.7,187.3 L 845.7,182.2 L 852.5,177.4 L 859.1,173.0 L 865.5,169.2 L 873.1,165.2 L 881.1,161.8 L 888.4,160.0 L 897.0,160.7 L 903.6,166.3 L 907.0,173.5 L 907.2,180.8 L 904.9,188.5 L 900.5,196.7 L 896.6,202.3 L 892.0,208.1 L 886.8,214.1 L 881.0,220.2 L 874.7,226.4 L 868.0,232.7 L 861.0,239.1 L 853.9,245.3 L 847.5,250.9 L 841.0,256.5 L 834.4,262.1 L 827.8,267.7 L 821.4,273.3 L 815.0,278.8 L 808.8,284.3 L 802.8,289.8 L 796.8,295.5 L 789.7,302.6 L 783.2,309.5 L 777.6,316.4 L 772.9,323.1 L 769.2,329.7 L 766.8,336.3 L 765.7,343.9 L 767.0,352.2 L 770.6,359.5 L 776.3,365.5 L 782.9,370.0 L 790.2,373.4 L 798.2,376.0 L 806.9,377.9 L 815.9,379.3 L 825.3,380.1 L 834.7,380.4 L 843.9,380.1 L 852.7,379.4 L 861.0,378.2 L 868.6,376.5 L 875.3,374.4 L 881.5,371.7 L 889.0,368.0 L 896.5,364.1 L 903.9,360.1 L 911.1,355.7 L 918.2,351.1 L 924.9,346.0 L 931.4,340.6 L 937.6,334.9 L 943.6,329.0 L 949.4,322.8 L 955.0,316.5 L 960.3,310.1 L 965.5,303.4 L 970.0,296.2 L 974.0,288.7 L 977.6,281.3 L 981.1,273.8 L 984.7,266.2 L 988.0,258.5 L 991.2,250.7 L 993.9,242.6 L 996.1,234.5 L 997.7,226.2 L 998.8,217.8 L 999.5,209.5 L 999.8,201.1 L 1000.0,192.8 L 1000.0,184.4 L 999.7,176.0 L 999.0,167.5 L 997.8,159.2 L 996.1,150.9 L 993.9,142.8 L 991.3,134.7 L 988.2,126.9 L 984.9,119.2 L 981.4,111.6 L 977.7,104.2 L 973.6,96.7 L 969.3,89.5 L 964.7,82.4 L 959.6,75.7 L 954.3,69.3 L 948.6,63.1 L 942.6,57.1 L 936.3,51.5 L 929.7,46.2 L 922.9,41.4 L 915.8,36.9 L 908.6,32.6 L 901.2,28.5 L 893.6,24.7 L 886.0,21.2 L 878.2,17.9 L 870.3,15.0 L 862.3,12.5 L 854.1,10.4 L 845.8,8.6 L 837.5,7.1 L 829.2,5.7 L 821.0,4.4 L 812.7,3.1 L 804.3,2.3 L 795.9,1.8" fill="none" stroke="url(#g)" stroke-width="75.0" stroke-linecap="round" stroke-linejoin="round"/>
<path d="M 787.6,1.6 L 781.5,1.6 L 777.4,1.6 L 772.7,1.6 L 767.5,1.6 L 761.7,1.6 L 755.6,1.6 L 748.9,1.6 L 741.9,1.7 L 734.5,1.7 L 726.7,1.8 L 718.5,1.8 L 710.1,1.9 L 701.4,1.9 L 692.4,2.0 L 683.1,2.0 L 673.7,2.1 L 664.1,2.2 L 654.3,2.2 L 644.4,2.3 L 634.4,2.4 L 624.3,2.4 L 614.1,2.5 L 603.9,2.5 L 593.8,2.6 L 583.6,2.6 L 573.5,2.6 L 563.5,2.7 L 553.6,2.7 L 543.8,2.7 L 534.2,2.7 L 524.7,2.7 L 515.5,2.7 L 506.4,2.6 L 497.7,2.6 L 489.2,2.5 L 481.1,2.5 L 473.3,2.4 L 465.8,2.3 L 458.7,2.2 L 449.4,2.2 L 439.8,2.7 L 431.8,3.9 L 425.2,5.7 L 417.6,9.2 L 411.1,14.3 L 405.7,19.9 L 399.6,25.3 L 393.5,28.1 L 386.1,29.8 L 375.7,30.5 L 363.5,30.2 L 354.4,29.0 L 347.8,27.3 L 342.3,24.8 L 336.1,20.1 L 329.4,14.7 L 324.0,11.3 L 316.9,8.2 L 307.6,5.4 L 298.8,3.6 L 292.9,2.7 L 286.4,1.9 L 279.2,1.2 L 271.2,0.7 L 262.3,0.3 L 252.7,0.1 L 242.1,0.0 L 230.5,0.1 L 222.1,0.2 L 213.7,0.4 L 205.3,0.7 L 196.9,1.1 L 188.4,1.7 L 180.1,2.6 L 171.8,3.5 L 163.5,4.6 L 155.2,6.0 L 146.9,7.9 L 138.8,10.4 L 130.9,13.2 L 123.1,16.4 L 115.4,19.8 L 107.8,23.5 L 100.3,27.4 L 92.9,31.4 L 85.7,35.6 L 78.7,40.0 L 71.7,44.7 L 64.9,49.7 L 58.4,55.2 L 52.4,61.1 L 47.0,67.4 L 41.7,74.0 L 36.8,80.9 L 32.1,87.9 L 27.7,95.2 L 23.6,102.5 L 19.7,109.9 L 16.2,117.5 L 13.1,125.4 L 10.4,133.4 L 8.0,141.5 L 5.9,149.7 L 4.1,157.8 L 2.7,166.0 L 1.4,174.3 L 0.6,182.7 L 0.1,191.1 L 0.0,199.6 L 0.4,208.0 L 1.3,216.3 L 2.6,224.7 L 4.4,232.9 L 6.6,241.1 L 9.0,249.2 L 11.7,257.1 L 14.6,264.9 L 17.8,272.6 L 21.2,280.3 L 25.1,287.9 L 29.3,295.2 L 33.9,302.2 L 38.7,308.9 L 43.9,315.5 L 49.4,321.9 L 55.4,328.0 L 61.7,333.6 L 68.4,338.7 L 75.3,343.4 L 82.4,347.9 L 89.6,352.2 L 97.0,356.3 L 104.4,360.3 L 111.9,364.2 L 119.5,367.9 L 127.2,371.4 L 134.8,374.9 L 142.5,378.2 L 150.1,381.5 L 157.8,384.9 L 165.4,388.3 L 173.1,391.7 L 180.7,395.1 L 188.4,398.5 L 196.1,401.9 L 203.8,405.3 L 211.5,408.8 L 219.2,412.2 L 226.9,415.6 L 234.7,419.0 L 242.4,422.4 L 250.1,425.8 L 257.9,429.1 L 265.7,432.4 L 273.5,435.7 L 281.3,439.0 L 289.1,442.2 L 296.9,445.4 L 304.7,448.6 L 312.6,451.7 L 320.4,454.8 L 328.3,457.8 L 336.2,460.7 L 344.1,463.6 L 352.0,466.5 L 360.0,469.2 L 367.9,472.0 L 375.9,474.6 L 383.9,477.1 L 391.9,479.6 L 399.9,482.0 L 407.9,484.3 L 416.7,486.8 L 425.2,489.0 L 433.4,491.0 L 441.4,492.7 L 449.3,494.2 L 457.1,495.4 L 465.0,496.2 L 473.1,496.8 L 481.4,497.0 L 490.1,496.8 L 499.1,496.4 L 507.0,496.0 L 515.6,495.8 L 524.3,495.6 L 532.9,495.2 L 541.1,494.4 L 549.5,493.2 L 557.8,491.8 L 566.0,490.2 L 574.3,488.4 L 582.4,486.3 L 590.5,484.1 L 598.7,481.7 L 606.7,479.1 L 614.7,476.3 L 622.6,473.4 L 630.5,470.5 L 638.4,467.6 L 646.2,464.7 L 654.1,461.9 L 659.8,459.8 L 666.0,457.3 L 673.1,454.0 L 681.0,450.0 L 689.3,445.3 L 697.7,439.9 L 705.6,434.1 L 712.1,428.7 L 718.3,422.9 L 723.9,416.6 L 729.0,409.9 L 733.2,402.7 L 736.6,395.1 L 738.8,387.0 L 739.9,378.5 L 738.7,370.3 L 734.9,363.0 L 729.1,356.7 L 722.7,351.9 L 715.4,347.7 L 707.5,344.1 L 698.6,340.7 L 689.0,337.7 L 679.7,335.3 L 671.0,333.5 L 663.3,332.1 L 657.1,331.3 L 650.0,330.3 L 642.1,327.7 L 634.8,324.0 L 627.8,319.9 L 621.0,316.4 L 613.3,313.4 L 604.6,311.4 L 595.1,310.9 L 585.9,310.7 L 576.7,310.7 L 567.6,310.7 L 558.7,310.8 L 549.9,310.9 L 541.3,311.0 L 533.0,311.1 L 524.9,311.1 L 517.2,310.9 L 509.9,310.6 L 502.9,310.1 L 492.9,308.8 L 484.3,306.9 L 477.3,304.3 L 471.3,300.4 L 467.2,294.1 L 466.5,285.2 L 470.0,278.4 L 477.1,274.2 L 484.8,271.4 L 493.9,269.2 L 500.6,267.9 L 507.8,266.9 L 515.5,266.0 L 523.8,265.2 L 532.5,264.6 L 541.7,264.0 L 551.2,263.6 L 561.0,263.4 L 569.0,263.2 L 577.0,263.1 L 585.2,263.1 L 593.5,263.1 L 601.9,263.1 L 610.4,263.1 L 619.0,263.2 L 627.6,263.4 L 636.3,263.5 L 645.0,263.6 L 653.8,263.8 L 662.5,264.0 L 671.2,264.1 L 679.8,264.3 L 688.4,264.4 L 696.9,264.6 L 705.4,264.7 L 713.7,264.8 L 721.9,264.8 L 729.9,264.9 L 737.8,264.8 L 745.2,263.0 L 752.7,258.1 L 758.8,253.6 L 765.6,248.2 L 772.3,242.6 L 778.2,237.7 L 784.3,232.5 L 790.6,227.0 L 797.1,221.4 L 803.8,215.7 L 810.6,210.0 L 817.4,204.2 L 824.5,198.4 L 831.6,192.8 L 838.7,187.3 L 845.7,182.2 L 852.5,177.4 L 859.1,173.0 L 865.5,169.2 L 873.1,165.2 L 881.1,161.8 L 888.4,160.0 L 897.0,160.7 L 903.6,166.3 L 907.0,173.5 L 907.2,180.8 L 904.9,188.5 L 900.5,196.7 L 896.6,202.3 L 892.0,208.1 L 886.8,214.1 L 881.0,220.2 L 874.7,226.4 L 868.0,232.7 L 861.0,239.1 L 853.9,245.3 L 847.5,250.9 L 841.0,256.5 L 834.4,262.1 L 827.8,267.7 L 821.4,273.3 L 815.0,278.8 L 808.8,284.3 L 802.8,289.8 L 796.8,295.5 L 789.7,302.6 L 783.2,309.5 L 777.6,316.4 L 772.9,323.1 L 769.2,329.7 L 766.8,336.3 L 765.7,343.9 L 767.0,352.2 L 770.6,359.5 L 776.3,365.5 L 782.9,370.0 L 790.2,373.4 L 798.2,376.0 L 806.9,377.9 L 815.9,379.3 L 825.3,380.1 L 834.7,380.4 L 843.9,380.1 L 852.7,379.4 L 861.0,378.2 L 868.6,376.5 L 875.3,374.4 L 881.5,371.7 L 889.0,368.0 L 896.5,364.1 L 903.9,360.1 L 911.1,355.7 L 918.2,351.1 L 924.9,346.0 L 931.4,340.6 L 937.6,334.9 L 943.6,329.0 L 949.4,322.8 L 955.0,316.5 L 960.3,310.1 L 965.5,303.4 L 970.0,296.2 L 974.0,288.7 L 977.6,281.3 L 981.1,273.8 L 984.7,266.2 L 988.0,258.5 L 991.2,250.7 L 993.9,242.6 L 996.1,234.5 L 997.7,226.2 L 998.8,217.8 L 999.5,209.5 L 999.8,201.1 L 1000.0,192.8 L 1000.0,184.4 L 999.7,176.0 L 999.0,167.5 L 997.8,159.2 L 996.1,150.9 L 993.9,142.8 L 991.3,134.7 L 988.2,126.9 L 984.9,119.2 L 981.4,111.6 L 977.7,104.2 L 973.6,96.7 L 969.3,89.5 L 964.7,82.4 L 959.6,75.7 L 954.3,69.3 L 948.6,63.1 L 942.6,57.1 L 936.3,51.5 L 929.7,46.2 L 922.9,41.4 L 915.8,36.9 L 908.6,32.6 L 901.2,28.5 L 893.6,24.7 L 886.0,21.2 L 878.2,17.9 L 870.3,15.0 L 862.3,12.5 L 854.1,10.4 L 845.8,8.6 L 837.5,7.1 L 829.2,5.7 L 821.0,4.4 L 812.7,3.1 L 804.3,2.3 L 795.9,1.8" fill="none" stroke="#ffffff" stroke-opacity="0.92" stroke-width="7.5" stroke-linecap="round" stroke-linejoin="round"/>
<line x1="787.3" y1="69.1" x2="787.8" y2="-65.9" stroke="#ffffff" stroke-width="10.5" stroke-linecap="round"/>
</svg>
