<svg xmlns="http://www.w3.org/2000/svg" viewBox="-535.9 -763.9 955.1 1711.9">
<defs><linearGradient id="g" gradientUnits="userSpaceOnUse" x1="-454.6" y1="-682.6" x2="337.9" y2="866.7">
<stop offset="0" stop-color="#1c9fe0"/><stop offset="1" stop-color="#0b1f44"/></linearGradient></defs>
<path d="M -149.3,9.6 L -140.9,-10.7 L -135.6,-23.4 L -129.7,-37.4 L -125.0,-48.9 L -119.1,-62.9 L -114.3,-74.4 L -108.9,-87.3 L -103.0,-101.5 L -97.6,-114.4 L -92.7,-126.0 L -87.3,-139.0 L -81.8,-152.0 L -76.4,-165.0 L -70.4,-179.3 L -65.4,-191.1 L -60.0,-204.2 L -54.5,-217.4 L -48.5,-231.9 L -43.5,-243.8 L -38.1,-257.0 L -32.7,-270.3 L -27.3,-283.6 L -21.9,-297.0 L -16.0,-311.7 L -11.7,-322.4 L -5.8,-337.2 L 0.2,-352.0 L 5.1,-364.1 L 11.1,-379.0 L 16.1,-391.1 L 22.1,-406.0 L 27.1,-418.2 L 32.6,-431.7 L 38.1,-445.3 L 43.6,-458.9 L 49.6,-473.9 L 54.5,-486.3 L 59.9,-499.9 L 65.4,-513.7 L 70.8,-527.3 L 76.2,-540.8 L 81.4,-553.8 L 86.5,-566.1 L 91.4,-577.8 L 96.0,-588.8 L 100.9,-600.1 L 104.7,-608.7 L 108.8,-617.7 L 112.6,-626.0 L 116.3,-633.6 L 119.8,-640.7 L 123.3,-647.1 L 126.6,-652.9 L 130.2,-658.7 L 133.2,-662.8 L 136.3,-666.9 L 139.5,-670.6 L 143.0,-674.1 L 146.0,-676.5 L 149.6,-678.8 L 153.3,-680.5 L 157.6,-681.9 L 161.2,-682.5 L 165.6,-682.6 L 169.1,-682.2 L 172.8,-681.2 L 176.3,-679.8 L 179.7,-677.8 L 182.9,-675.5 L 186.3,-672.3 L 189.0,-669.3 L 191.7,-665.5 L 194.4,-661.0 L 196.4,-657.0 L 197.1,-655.6 L 198.6,-652.2 L 201.1,-646.6 L 203.1,-641.7 L 205.3,-635.3 L 207.1,-629.4 L 209.0,-623.2 L 210.7,-617.5 L 212.5,-610.9 L 214.1,-603.9 L 215.9,-596.0 L 217.1,-589.2 L 218.3,-581.4 L 219.3,-573.4 L 220.1,-565.2 L 220.6,-556.9 L 220.8,-547.5 L 220.8,-539.6 L 220.6,-530.7 L 220.1,-521.6 L 219.4,-511.4 L 218.6,-503.0 L 217.6,-493.4 L 216.3,-483.7 L 215.0,-473.9 L 213.3,-463.0 L 211.7,-453.9 L 209.9,-443.8 L 207.9,-433.6 L 205.8,-423.3 L 203.6,-412.9 L 201.3,-402.4 L 198.9,-391.8 L 196.5,-381.1 L 194.1,-370.3 L 191.7,-359.3 L 189.2,-348.3 L 186.9,-337.1 L 184.6,-325.9 L 182.4,-314.5 L 180.0,-301.9 L 178.1,-291.5 L 176.0,-279.8 L 173.8,-267.1 L 172.1,-257.0 L 170.3,-246.2 L 168.8,-235.8 L 167.4,-225.7 L 166.3,-215.9 L 165.6,-205.5 L 165.6,-196.3 L 166.0,-188.3 L 167.0,-179.6 L 168.6,-171.2 L 170.9,-163.0 L 173.8,-155.2 L 177.3,-147.8 L 181.2,-140.7 L 186.2,-133.4 L 190.7,-127.7 L 196.2,-121.7 L 202.3,-116.0 L 208.7,-110.6 L 215.5,-105.4 L 222.6,-100.4 L 229.9,-95.5 L 237.5,-90.7 L 245.4,-86.1 L 253.5,-81.4 L 261.5,-76.3 L 270.2,-70.3 L 277.3,-65.1 L 284.9,-58.9 L 292.3,-52.1 L 299.3,-44.9 L 306.4,-36.5 L 311.7,-29.3 L 317.0,-20.9 L 321.7,-12.2 L 325.9,-3.1 L 329.5,6.2 L 332.5,15.8 L 334.8,25.5 L 336.7,36.4 L 337.5,45.3 L 337.9,55.1 L 337.5,64.8 L 336.5,74.4 L 334.7,83.8 L 331.9,93.7 L 329.0,101.5 L 325.1,109.9 L 320.0,118.6 L 315.3,125.5 L 309.6,132.9 L 303.3,140.0 L 296.5,146.8 L 289.1,153.1 L 281.3,159.0 L 273.1,164.2 L 264.6,168.7 L 255.9,172.3 L 247.0,175.2 L 237.9,177.3 L 228.6,178.7 L 218.2,179.3 L 208.6,179.1 L 199.0,178.2 L 190.3,176.9 L 179.8,174.6 L 171.2,172.2 L 161.7,169.0 L 152.4,165.3 L 143.1,161.0 L 134.0,156.2 L 124.3,150.6 L 116.8,146.0 L 108.7,141.1 L 100.9,136.4 L 93.4,132.1 L 86.2,128.2 L 79.1,124.8 L 72.1,121.9 L 65.3,119.5 L 58.0,117.6 L 52.1,116.5 L 45.7,115.9 L 39.0,115.9 L 33.9,116.5 L 28.6,117.7 L 23.6,119.4 L 19.1,121.6 L 15.1,124.2 L 11.9,127.0 L 8.3,131.1 L 6.1,134.5 L 4.2,138.5 L 2.9,142.8 L 2.0,147.8 L 1.7,152.0 L 1.3,156.9 L 0.8,161.9 L 0.5,167.9 L 0.3,173.0 L 0.3,179.5 L 0.6,185.6 L 1.2,191.4 L 2.2,198.0 L 3.7,204.7 L 5.6,211.6 L 8.2,219.3 L 10.7,225.6 L 13.9,232.5 L 17.5,239.5 L 21.5,246.3 L 26.0,253.2 L 30.7,260.1 L 35.8,266.9 L 41.2,273.8 L 46.6,280.8 L 52.1,287.9 L 57.8,295.2 L 64.2,303.2 L 69.6,309.9 L 75.7,317.3 L 81.8,324.8 L 87.9,332.6 L 94.4,341.5 L 99.5,349.1 L 104.7,357.9 L 109.6,367.1 L 114.0,376.6 L 117.9,386.4 L 121.6,397.6 L 124.2,407.0 L 126.8,418.7 L 128.7,428.4 L 130.6,440.5 L 131.9,450.6 L 133.1,461.9 L 134.0,474.4 L 134.5,486.0 L 134.7,496.4 L 134.7,508.1 L 134.3,521.1 L 133.9,531.7 L 133.2,543.7 L 132.1,555.7 L 130.5,569.0 L 128.7,581.1 L 126.7,592.0 L 124.1,604.2 L 121.1,616.3 L 117.7,628.4 L 113.4,641.6 L 109.6,652.4 L 105.0,664.4 L 100.1,676.3 L 95.0,688.2 L 89.7,700.1 L 84.4,712.0 L 78.4,725.1 L 73.6,735.6 L 68.4,746.8 L 62.9,758.8 L 58.6,768.2 L 54.2,778.3 L 49.9,787.8 L 45.9,796.7 L 42.0,804.9 L 38.2,812.5 L 34.1,820.0 L 31.0,825.6 L 27.7,831.3 L 24.7,836.5 L 21.8,841.1 L 18.8,845.7 L 16.4,849.0 L 13.8,852.2 L 11.2,854.9 L 8.6,857.2 L 6.0,858.8 L 3.3,859.8 L 0.7,860.4 L -1.9,860.5 L -4.5,860.2 L -6.9,859.5 L -9.4,858.2 L -11.4,856.9 L -13.5,855.0 L -15.9,852.5 L -17.7,850.1 L -19.8,846.8 L -21.6,843.8 L -23.6,840.6 L -26.1,837.4 L -28.3,835.0 L -31.1,832.5 L -34.1,830.4 L -37.9,828.4 L -41.6,826.9 L -45.2,825.9 L -49.5,825.3 L -53.8,825.2 L -58.8,825.7 L -63.3,826.5 L -67.4,827.7 L -72.5,829.6 L -76.7,831.6 L -81.5,834.6 L -85.3,837.6 L -89.4,841.2 L -93.8,844.7 L -99.0,848.4 L -104.2,851.4 L -109.6,854.1 L -114.7,856.1 L -121.3,858.2 L -126.9,859.8 L -133.4,861.6 L -140.1,863.2 L -147.8,864.6 L -154.4,865.6 L -161.7,866.3 L -170.0,866.7 L -176.9,866.6 L -185.3,866.2 L -191.9,865.5 L -199.0,864.4 L -206.3,862.8 L -212.1,861.3 L -218.1,859.3 L -223.8,856.9 L -229.0,854.1 L -233.9,850.9 L -238.3,847.3 L -242.3,843.3 L -245.8,839.0 L -248.9,834.4 L -251.6,829.4 L -253.9,824.0 L -255.9,817.9 L -257.0,812.8 L -257.8,807.1 L -258.0,801.4 L -257.8,795.8 L -256.9,789.7 L -255.9,784.5 L -254.2,778.8 L -252.0,773.2 L -249.4,767.8 L -246.7,762.5 L -243.8,757.0 L -240.7,751.4 L -237.4,745.6 L -233.8,738.8 L -230.9,733.1 L -227.8,726.5 L -224.6,719.1 L -222.3,713.0 L -220.2,705.9 L -218.7,698.0 L -218.2,691.5 L -218.2,684.3 L -219.0,676.5 L -220.3,670.2 L -222.3,663.1 L -225.0,656.2 L -228.2,649.6 L -231.8,643.5 L -235.8,637.9 L -240.6,632.4 L -244.6,628.3 L -249.3,624.2 L -254.2,620.7 L -259.8,617.5 L -264.9,615.1 L -269.6,613.5 L -274.8,612.3 L -279.9,611.7 L -284.9,611.8 L -289.7,612.4 L -294.3,613.6 L -298.6,615.3 L -303.0,617.6 L -306.3,619.9 L -309.6,622.8 L -312.7,626.4 L -315.0,629.6 L -317.3,633.6 L -319.3,637.8 L -321.1,642.4 L -322.6,647.8 L -323.5,652.4 L -324.1,657.7 L -324.7,663.3 L -325.5,669.8 L -326.1,675.3 L -326.9,681.7 L -327.7,688.4 L -328.7,695.2 L -330.0,703.0 L -331.4,710.1 L -333.1,717.4 L -335.0,724.0 L -337.8,732.2 L -340.6,738.8 L -344.2,746.1 L -348.3,753.4 L -352.9,760.5 L -357.7,767.2 L -362.8,773.4 L -368.0,778.8 L -373.4,783.7 L -378.8,787.9 L -384.3,791.5 L -389.8,794.5 L -395.3,796.7 L -400.7,798.4 L -405.9,799.4 L -411.6,799.8 L -416.1,799.7 L -421.0,799.0 L -425.6,797.8 L -430.1,796.1 L -434.1,793.9 L -437.9,791.2 L -441.2,788.2 L -444.2,784.7 L -447.0,780.9 L -449.4,776.6 L -451.4,772.0 L -453.0,767.1 L -454.0,761.9 L -454.5,756.5 L -454.6,750.3 L -454.2,745.1 L -453.3,739.2 L -451.9,733.1 L -450.0,727.0 L -447.7,720.7 L -445.4,714.2 L -442.6,706.8 L -440.2,700.6 L -437.3,693.6 L -434.4,686.4 L -431.0,678.4 L -428.1,671.7 L -424.8,664.1 L -421.3,656.4 L -417.7,648.5 L -414.1,640.4 L -410.0,631.4 L -406.7,623.8 L -402.9,615.3 L -399.0,606.6 L -394.8,597.0 L -391.3,589.0 L -387.5,580.0 L -383.2,569.9 L -379.7,561.5 L -375.4,551.1 L -371.8,542.5 L -367.8,532.8 L -363.8,523.0 L -359.3,512.1 L -355.5,503.1 L -351.3,493.0 L -347.1,482.8 L -342.8,472.5 L -338.4,462.1 L -334.0,451.6 L -329.6,441.0 L -325.1,430.4 L -320.6,419.6 L -315.5,407.7 L -310.9,396.8 L -306.6,387.0 L -301.9,375.9 L -296.7,363.8 L -292.4,353.8 L -287.6,342.6 L -282.3,330.2 L -277.4,318.9 L -273.1,308.6 L -268.2,297.1 L -262.8,284.4 L -258.4,273.9 L -253.5,262.2 L -248.6,250.5 L -243.7,238.6 L -238.9,226.7 L -233.5,213.5 L -229.1,202.7 L -223.7,189.4 L -219.2,178.4 L -213.8,165.0 L -209.3,154.0 L -204.4,141.7 L -198.9,128.1 L -194.4,116.9 L -189.3,104.5 L -184.2,92.0 L -179.1,79.5 L -174.0,67.0 L -168.9,54.4 L -163.7,41.7 L -158.5,29.1 L -153.3,16.4" fill="none" stroke="url(#g)" stroke-width="108.4" stroke-linecap="round" stroke-linejoin="round"/>
<path d="M -149.3,9.6 L -140.9,-10.7 L -135.6,-23.4 L -129.7,-37.4 L -125.0,-48.9 L -119.1,-62.9 L -114.3,-74.4 L -108.9,-87.3 L -103.0,-101.5 L -97.6,-114.4 L -92.7,-126.0 L -87.3,-139.0 L -81.8,-152.0 L -76.4,-165.0 L -70.4,-179.3 L -65.4,-191.1 L -60.0,-204.2 L -54.5,-217.4 L -48.5,-231.9 L -43.5,-243.8 L -38.1,-257.0 L -32.7,-270.3 L -27.3,-283.6 L -21.9,-297.0 L -16.0,-311.7 L -11.7,-322.4 L -5.8,-337.2 L 0.2,-352.0 L 5.1,-364.1 L 11.1,-379.0 L 16.1,-391.1 L 22.1,-406.0 L 27.1,-418.2 L 32.6,-431.7 L 38.1,-445.3 L 43.6,-458.9 L 49.6,-473.9 L 54.5,-486.3 L 59.9,-499.9 L 65.4,-513.7 L 70.8,-527.3 L 76.2,-540.8 L 81.4,-553.8 L 86.5,-566.1 L 91.4,-577.8 L 96.0,-588.8 L 100.9,-600.1 L 104.7,-608.7 L 108.8,-617.7 L 112.6,-626.0 L 116.3,-633.6 L 119.8,-640.7 L 123.3,-647.1 L 126.6,-652.9 L 130.2,-658.7 L 133.2,-662.8 L 136.3,-666.9 L 139.5,-670.6 L 143.0,-674.1 L 146.0,-676.5 L 149.6,-678.8 L 153.3,-680.5 L 157.6,-681.9 L 161.2,-682.5 L 165.6,-682.6 L 169.1,-682.2 L 172.8,-681.2 L 176.3,-679.8 L 179.7,-677.8 L 182.9,-675.5 L 186.3,-672.3 L 189.0,-669.3 L 191.7,-665.5 L 194.4,-661.0 L 196.4,-657.0 L 197.1,-655.6 L 198.6,-652.2 L 201.1,-646.6 L 203.1,-641.7 L 205.3,-635.3 L 207.1,-629.4 L 209.0,-623.2 L 210.7,-617.5 L 212.5,-610.9 L 214.1,-603.9 L 215.9,-596.0 L 217.1,-589.2 L 218.3,-581.4 L 219.3,-573.4 L 220.1,-565.2 L 220.6,-556.9 L 220.8,-547.5 L 220.8,-539.6 L 220.6,-530.7 L 220.1,-521.6 L 219.4,-511.4 L 218.6,-503.0 L 217.6,-493.4 L 216.3,-483.7 L 215.0,-473.9 L 213.3,-463.0 L 211.7,-453.9 L 209.9,-443.8 L 207.9,-433.6 L 205.8,-423.3 L 203.6,-412.9 L 201.3,-402.4 L 198.9,-391.8 L 196.5,-381.1 L 194.1,-370.3 L 191.7,-359.3 L 189.2,-348.3 L 186.9,-337.1 L 184.6,-325.9 L 182.4,-314.5 L 180.0,-301.9 L 178.1,-291.5 L 176.0,-279.8 L 173.8,-267.1 L 172.1,-257.0 L 170.3,-246.2 L 168.8,-235.8 L 167.4,-225.7 L 166.3,-215.9 L 165.6,-205.5 L 165.6,-196.3 L 166.0,-188.3 L 167.0,-179.6 L 168.6,-171.2 L 170.9,-163.0 L 173.8,-155.2 L 177.3,-147.8 L 181.2,-140.7 L 186.2,-133.4 L 190.7,-127.7 L 196.2,-121.7 L 202.3,-116.0 L 208.7,-110.6 L 215.5,-105.4 L 222.6,-100.4 L 229.9,-95.5 L 237.5,-90.7 L 245.4,-86.1 L 253.5,-81.4 L 261.5,-76.3 L 270.2,-70.3 L 277.3,-65.1 L 284.9,-58.9 L 292.3,-52.1 L 299.3,-44.9 L 306.4,-36.5 L 311.7,-29.3 L 317.0,-20.9 L 321.7,-12.2 L 325.9,-3.1 L 329.5,6.2 L 332.5,15.8 L 334.8,25.5 L 336.7,36.4 L 337.5,45.3 L 337.9,55.1 L 337.5,64.8 L 336.5,74.4 L 334.7,83.8 L 331.9,93.7 L 329.0,101.5 L 325.1,109.9 L 320.0,118.6 L 315.3,125.5 L 309.6,132.9 L 303.3,140.0 L 296.5,146.8 L 289.1,153.1 L 281.3,159.0 L 273.1,164.2 L 264.6,168.7 L 255.9,172.3 L 247.0,175.2 L 237.9,177.3 L 228.6,178.7 L 218.2,179.3 L 208.6,179.1 L 199.0,178.2 L 190.3,176.9 L 179.8,174.6 L 171.2,172.2 L 161.7,169.0 L 152.4,165.3 L 143.1,161.0 L 134.0,156.2 L 124.3,150.6 L 116.8,146.0 L 108.7,141.1 L 100.9,136.4 L 93.4,132.1 L 86.2,128.2 L 79.1,124.8 L 72.1,121.9 L 65.3,119.5 L 58.0,117.6 L 52.1,116.5 L 45.7,115.9 L 39.0,115.9 L 33.9,116.5 L 28.6,117.7 L 23.6,119.4 L 19.1,121.6 L 15.1,124.2 L 11.9,127.0 L 8.3,131.1 L 6.1,134.5 L 4.2,138.5 L 2.9,142.8 L 2.0,147.8 L 1.7,152.0 L 1.3,156.9 L 0.8,161.9 L 0.5,167.9 L 0.3,173.0 L 0.3,179.5 L 0.6,185.6 L 1.2,191.4 L 2.2,198.0 L 3.7,204.7 L 5.6,211.6 L 8.2,219.3 L 10.7,225.6 L 13.9,232.5 L 17.5,239.5 L 21.5,246.3 L 26.0,253.2 L 30.7,260.1 L 35.8,266.9 L 41.2,273.8 L 46.6,280.8 L 52.1,287.9 L 57.8,295.2 L 64.2,303.2 L 69.6,309.9 L 75.7,317.3 L 81.8,324.8 L 87.9,332.6 L 94.4,341.5 L 99.5,349.1 L 104.7,357.9 L 109.6,367.1 L 114.0,376.6 L 117.9,386.4 L 121.6,397.6 L 124.2,407.0 L 126.8,418.7 L 128.7,428.4 L 130.6,440.5 L 131.9,450.6 L 133.1,461.9 L 134.0,474.4 L 134.5,486.0 L 134.7,496.4 L 134.7,508.1 L 134.3,521.1 L 133.9,531.7 L 133.2,543.7 L 132.1,555.7 L 130.5,569.0 L 128.7,581.1 L 126.7,592.0 L 124.1,604.2 L 121.1,616.3 L 117.7,628.4 L 113.4,641.6 L 109.6,652.4 L 105.0,664.4 L 100.1,676.3 L 95.0,688.2 L 89.7,700.1 L 84.4,712.0 L 78.4,725.1 L 73.6,735.6 L 68.4,746.8 L 62.9,758.8 L 58.6,768.2 L 54.2,778.3 L 49.9,787.8 L 45.9,796.7 L 42.0,804.9 L 38.2,812.5 L 34.1,820.0 L 31.0,825.6 L 27.7,831.3 L 24.7,836.5 L 21.8,841.1 L 18.8,845.7 L 16.4,849.0 L 13.8,852.2 L 11.2,854.9 L 8.6,857.2 L 6.0,858.8 L 3.3,859.8 L 0.7,860.4 L -1.9,860.5 L -4.5,860.2 L -6.9,859.5 L -9.4,858.2 L -11.4,856.9 L -13.5,855.0 L -15.9,852.5 L -17.7,850.1 L -19.8,846.8 L -21.6,843.8 L -23.6,840.6 L -26.1,837.4 L -28.3,835.0 L -31.1,832.5 L -34.1,830.4 L -37.9,828.4 L -41.6,826.9 L -45.2,825.9 L -49.5,825.3 L -53.8,825.2 L -58.8,825.7 L -63.3,826.5 L -67.4,827.7 L -72.5,829.6 L -76.7,831.6 L -81.5,834.6 L -85.3,837.6 L -89.4,841.2 L -93.8,844.7 L -99.0,848.4 L -104.2,851.4 L -109.6,854.1 L -114.7,856.1 L -121.3,858.2 L -126.9,859.8 L -133.4,861.6 L -140.1,863.2 L -147.8,864.6 L -154.4,865.6 L -161.7,866.3 L -170.0,866.7 L -176.9,866.6 L -185.3,866.2 L -191.9,865.5 L -199.0,864.4 L -206.3,862.8 L -212.1,861.3 L -218.1,859.3 L -223.8,856.9 L -229.0,854.1 L -233.9,850.9 L -238.3,847.3 L -242.3,843.3 L -245.8,839.0 L -248.9,834.4 L -251.6,829.4 L -253.9,824.0 L -255.9,817.9 L -257.0,812.8 L -257.8,807.1 L -258.0,801.4 L -257.8,795.8 L -256.9,789.7 L -255.9,784.5 L -254.2,778.8 L -252.0,773.2 L -249.4,767.8 L -246.7,762.5 L -243.8,757.0 L -240.7,751.4 L -237.4,745.6 L -233.8,738.8 L -230.9,733.1 L -227.8,726.5 L -224.6,719.1 L -222.3,713.0 L -220.2,705.9 L -218.7,698.0 L -218.2,691.5 L -218.2,684.3 L -219.0,676.5 L -220.3,670.2 L -222.3,663.1 L -225.0,656.2 L -228.2,649.6 L -231.8,643.5 L -235.8,637.9 L -240.6,632.4 L -244.6,628.3 L -249.3,624.2 L -254.2,620.7 L -259.8,617.5 L -264.9,615.1 L -269.6,613.5 L -274.8,612.3 L -279.9,611.7 L -284.9,611.8 L -289.7,612.4 L -294.3,613.6 L -298.6,615.3 L -303.0,617.6 L -306.3,619.9 L -309.6,622.8 L -312.7,626.4 L -315.0,629.6 L -317.3,633.6 L -319.3,637.8 L -321.1,642.4 L -322.6,647.8 L -323.5,652.4 L -324.1,657.7 L -324.7,663.3 L -325.5,669.8 L -326.1,675.3 L -326.9,681.7 L -327.7,688.4 L -328.7,695.2 L -330.0,703.0 L -331.4,710.1 L -333.1,717.4 L -335.0,724.0 L -337.8,732.2 L -340.6,738.8 L -344.2,746.1 L -348.3,753.4 L -352.9,760.5 L -357.7,767.2 L -362.8,773.4 L -368.0,778.8 L -373.4,783.7 L -378.8,787.9 L -384.3,791.5 L -389.8,794.5 L -395.3,796.7 L -400.7,798.4 L -405.9,799.4 L -411.6,799.8 L -416.1,799.7 L -421.0,799.0 L -425.6,797.8 L -430.1,796.1 L -434.1,793.9 L -437.9,791.2 L -441.2,788.2 L -444.2,784.7 L -447.0,780.9 L -449.4,776.6 L -451.4,772.0 L -453.0,767.1 L -454.0,761.9 L -454.5,756.5 L -454.6,750.3 L -454.2,745.1 L -453.3,739.2 L -451.9,733.1 L -450.0,727.0 L -447.7,720.7 L -445.4,714.2 L -442.6,706.8 L -440.2,700.6 L -437.3,693.6 L -434.4,686.4 L -431.0,678.4 L -428.1,671.7 L -424.8,664.1 L -421.3,656.4 L -417.7,648.5 L -414.1,640.4 L -410.0,631.4 L -406.7,623.8 L -402.9,615.3 L -399.0,606.6 L -394.8,597.0 L -391.3,589.0 L -387.5,580.0 L -383.2,569.9 L -379.7,561.5 L -375.4,551.1 L -371.8,542.5 L -367.8,532.8 L -363.8,523.0 L -359.3,512.1 L -355.5,503.1 L -351.3,493.0 L -347.1,482.8 L -342.8,472.5 L -338.4,462.1 L -334.0,451.6 L -329.6,441.0 L -325.1,430.4 L -320.6,419.6 L -315.5,407.7 L -310.9,396.8 L -306.6,387.0 L -301.9,375.9 L -296.7,363.8 L -292.4,353.8 L -287.6,342.6 L -282.3,330.2 L -277.4,318.9 L -273.1,308.6 L -268.2,297.1 L -262.8,284.4 L -258.4,273.9 L -253.5,262.2 L -248.6,250.5 L -243.7,238.6 L -238.9,226.7 L -233.5,213.5 L -229.1,202.7 L -223.7,189.4 L -219.2,178.4 L -213.8,165.0 L -209.3,154.0 L -204.4,141.7 L -198.9,128.1 L -194.4,116.9 L -189.3,104.5 L -184.2,92.0 L -179.1,79.5 L -174.0,67.0 L -168.9,54.4 L -163.7,41.7 L -158.5,29.1 L -153.3,16.4" fill="none" stroke="#ffffff" stroke-opacity="0.92" stroke-width="10.8" stroke-linecap="round" stroke-linejoin="round"/>
<line x1="-59.3" y1="47.2" x2="-239.4" y2="-27.9" stroke="#ffffff" stroke-width="15.2" stroke-linecap="round"/>
</svg>