<svg xmlns="http://www.w3.org/2000/svg" viewBox="-522.1 -757.8 953.1 1714.2">
<defs><linearGradient id="g" gradientUnits="userSpaceOnUse" x1="-440.6" y1="-676.3" x2="349.6" y2="875.0">
<stop offset="0" stop-color="#ff8a18"/><stop offset="1" stop-color="#7b2da0"/></linearGradient></defs>
<path d="M -136.7,12.8 L -129.4,-4.6 L -124.9,-15.5 L -119.2,-28.9 L -114.6,-39.8 L -109.0,-53.2 L -104.1,-64.9 L -98.9,-77.1 L -93.6,-89.4 L -88.4,-101.8 L -83.1,-114.1 L -78.1,-125.9 L -72.9,-138.3 L -67.6,-150.8 L -61.5,-165.2 L -56.8,-176.4 L -51.7,-188.4 L -46.4,-200.9 L -40.7,-214.2 L -35.7,-226.2 L -30.3,-238.9 L -24.4,-252.9 L -18.9,-266.3 L -14.3,-277.9 L -9.5,-290.2 L -3.9,-304.5 L 0.6,-316.2 L 6.0,-329.9 L 10.8,-342.3 L 16.0,-355.4 L 21.6,-369.8 L 27.1,-383.6 L 31.6,-394.8 L 37.4,-409.2 L 42.8,-422.4 L 48.4,-436.3 L 53.0,-447.5 L 58.4,-460.7 L 64.1,-474.7 L 69.5,-488.0 L 74.6,-500.6 L 80.0,-514.0 L 85.9,-528.7 L 90.9,-541.1 L 95.8,-553.4 L 100.2,-564.3 L 104.6,-575.0 L 108.8,-585.5 L 112.6,-594.9 L 116.3,-603.8 L 119.9,-612.8 L 123.2,-620.5 L 126.6,-628.3 L 129.7,-635.2 L 132.8,-641.9 L 135.8,-647.8 L 139.0,-653.7 L 141.8,-658.2 L 144.9,-662.4 L 148.2,-666.1 L 151.4,-669.0 L 155.2,-671.8 L 158.6,-673.6 L 162.2,-675.1 L 165.6,-675.9 L 169.5,-676.3 L 173.6,-676.2 L 177.0,-675.8 L 181.3,-674.6 L 184.7,-673.2 L 188.6,-671.1 L 192.1,-668.5 L 195.3,-665.6 L 198.5,-662.1 L 201.6,-658.1 L 204.7,-653.4 L 207.8,-648.1 L 210.3,-643.5 L 212.8,-638.2 L 215.4,-632.1 L 217.8,-626.0 L 220.0,-619.9 L 222.3,-613.2 L 224.6,-606.0 L 226.8,-598.8 L 228.8,-591.4 L 230.5,-583.7 L 231.8,-576.3 L 232.9,-568.1 L 233.6,-559.4 L 233.9,-550.4 L 233.9,-541.3 L 233.7,-533.7 L 233.4,-524.7 L 232.8,-515.5 L 232.0,-505.8 L 231.0,-496.4 L 229.6,-486.4 L 228.2,-477.8 L 226.2,-467.1 L 224.3,-457.9 L 222.3,-448.5 L 220.2,-438.6 L 218.1,-428.5 L 215.9,-417.8 L 213.9,-408.1 L 211.7,-397.7 L 209.2,-386.2 L 206.9,-376.2 L 204.7,-366.1 L 202.2,-354.8 L 199.8,-343.4 L 197.7,-333.6 L 195.4,-322.6 L 193.1,-310.9 L 191.0,-300.3 L 189.0,-289.0 L 187.1,-277.6 L 185.2,-265.0 L 183.6,-254.2 L 182.2,-243.4 L 181.0,-233.8 L 179.8,-223.6 L 179.0,-215.3 L 178.4,-207.2 L 178.2,-199.7 L 178.7,-191.4 L 179.8,-183.5 L 181.2,-176.2 L 183.2,-168.5 L 185.8,-161.1 L 189.1,-153.6 L 192.8,-146.6 L 196.8,-140.2 L 201.5,-133.7 L 207.1,-127.0 L 212.8,-120.9 L 218.7,-115.3 L 225.3,-109.8 L 232.3,-104.5 L 240.0,-99.2 L 247.2,-94.5 L 255.0,-89.6 L 262.9,-84.5 L 270.8,-79.3 L 279.2,-73.6 L 287.0,-67.8 L 294.3,-61.9 L 301.5,-55.3 L 308.3,-48.2 L 314.9,-40.3 L 321.0,-32.0 L 326.0,-24.1 L 330.5,-15.9 L 334.8,-7.0 L 338.9,2.6 L 342.2,11.9 L 344.7,21.1 L 346.8,30.8 L 348.4,40.7 L 349.4,51.7 L 349.6,60.6 L 349.1,70.4 L 347.8,81.1 L 345.9,90.1 L 343.2,99.3 L 339.8,108.2 L 335.8,117.0 L 331.3,125.0 L 326.1,133.0 L 320.1,140.9 L 314.1,147.6 L 307.0,154.4 L 300.1,160.1 L 292.5,165.5 L 284.1,170.4 L 275.8,174.5 L 267.7,177.6 L 258.1,180.4 L 249.2,182.2 L 240.3,183.2 L 231.8,183.6 L 223.3,183.3 L 214.4,182.4 L 205.6,180.8 L 196.5,178.6 L 187.8,175.9 L 179.6,172.9 L 170.3,168.9 L 162.3,164.9 L 154.1,160.3 L 146.3,155.7 L 138.0,150.9 L 129.1,145.8 L 120.5,141.1 L 111.3,136.2 L 104.7,132.8 L 97.4,129.1 L 90.6,125.9 L 83.9,123.0 L 77.3,120.6 L 72.4,119.3 L 66.8,118.1 L 61.4,117.6 L 55.5,117.6 L 50.6,118.3 L 45.8,119.5 L 41.0,121.4 L 36.1,124.1 L 32.1,127.0 L 28.2,130.6 L 24.8,134.6 L 21.9,139.0 L 19.5,143.6 L 17.4,149.0 L 15.9,154.5 L 14.9,160.3 L 14.5,166.0 L 14.5,172.2 L 15.0,178.9 L 16.1,186.1 L 17.2,191.8 L 18.7,198.7 L 20.6,206.1 L 22.7,213.2 L 25.3,220.4 L 28.1,227.2 L 31.5,234.3 L 35.6,241.7 L 39.8,248.7 L 44.4,255.8 L 49.0,262.4 L 54.6,270.1 L 59.6,276.9 L 64.7,283.7 L 70.6,291.8 L 76.2,299.2 L 81.5,306.4 L 86.9,313.7 L 93.2,322.2 L 98.4,329.2 L 104.4,337.7 L 110.5,346.8 L 115.0,354.1 L 120.1,362.9 L 124.8,372.1 L 129.3,382.0 L 133.0,391.8 L 136.2,401.3 L 139.1,411.6 L 141.4,422.1 L 143.3,433.3 L 144.6,444.2 L 145.7,455.7 L 146.5,467.4 L 147.1,477.5 L 147.6,488.3 L 147.9,500.2 L 148.0,512.3 L 147.8,523.3 L 147.4,534.4 L 146.6,546.1 L 145.5,557.8 L 144.1,569.6 L 142.3,582.1 L 140.3,594.0 L 138.0,605.3 L 135.4,617.2 L 132.4,629.1 L 128.8,641.6 L 125.2,652.9 L 120.7,665.9 L 116.4,677.7 L 112.0,688.9 L 107.6,700.2 L 102.5,712.6 L 97.8,723.9 L 92.7,735.7 L 86.9,748.8 L 81.9,759.9 L 76.8,770.6 L 71.8,781.2 L 67.1,790.9 L 62.3,800.7 L 58.5,808.5 L 54.7,816.1 L 51.3,822.9 L 47.8,829.6 L 43.9,836.3 L 40.0,842.2 L 35.8,847.7 L 31.0,853.0 L 26.1,857.7 L 21.0,861.6 L 15.6,865.0 L 9.6,867.9 L 2.3,870.9 L -3.7,872.6 L -10.2,873.9 L -17.2,874.7 L -24.7,875.0 L -32.1,875.0 L -39.6,875.0 L -46.8,874.9 L -54.6,874.9 L -63.2,874.9 L -71.2,874.8 L -78.5,874.8 L -86.8,874.7 L -96.0,874.6 L -104.1,874.4 L -112.7,874.2 L -121.0,873.9 L -129.8,873.5 L -138.7,873.0 L -148.2,872.2 L -156.8,871.3 L -166.0,870.0 L -175.4,868.3 L -183.8,866.6 L -191.1,864.8 L -198.2,862.7 L -205.4,860.0 L -211.1,857.3 L -216.8,853.9 L -221.8,850.3 L -227.1,845.7 L -231.3,841.4 L -235.5,836.0 L -238.2,831.6 L -241.0,826.2 L -243.4,820.1 L -244.9,814.8 L -245.9,809.4 L -246.4,803.3 L -246.3,797.8 L -245.7,792.7 L -244.6,787.6 L -242.8,781.6 L -240.8,776.6 L -238.1,771.4 L -234.9,766.0 L -231.3,761.0 L -227.7,756.1 L -223.8,750.8 L -220.1,745.5 L -216.3,739.7 L -212.6,733.1 L -209.2,725.8 L -207.0,719.9 L -205.0,712.6 L -203.5,704.6 L -202.7,696.9 L -202.6,687.7 L -203.0,681.4 L -204.4,672.8 L -206.0,665.8 L -208.7,657.9 L -211.9,650.5 L -214.8,644.7 L -218.1,639.0 L -221.7,633.8 L -225.4,629.2 L -229.2,625.5 L -233.3,622.1 L -238.0,619.1 L -243.0,616.7 L -248.4,614.8 L -253.6,613.6 L -258.9,613.0 L -263.8,613.0 L -269.1,613.6 L -273.9,614.9 L -278.4,616.6 L -282.8,618.8 L -287.0,621.6 L -291.3,625.1 L -294.8,628.5 L -298.3,632.6 L -301.2,636.6 L -303.8,641.2 L -306.1,646.1 L -308.0,650.9 L -309.6,656.4 L -310.7,662.1 L -311.6,668.4 L -312.4,674.6 L -313.3,680.7 L -314.3,687.4 L -315.4,694.5 L -316.8,701.5 L -318.5,708.6 L -320.3,715.5 L -322.5,722.8 L -325.2,730.9 L -327.8,738.0 L -331.1,745.3 L -334.9,752.6 L -339.4,760.1 L -343.7,766.3 L -349.1,773.2 L -353.5,778.1 L -358.3,783.2 L -362.4,787.2 L -366.7,790.9 L -371.0,793.9 L -375.7,796.5 L -380.8,798.6 L -386.5,800.3 L -391.4,801.1 L -397.3,801.5 L -402.2,801.2 L -407.6,800.2 L -412.6,798.7 L -417.0,796.7 L -421.6,793.9 L -425.5,790.6 L -428.8,787.1 L -432.0,783.1 L -434.6,778.7 L -437.0,773.8 L -438.7,769.0 L -439.9,764.1 L -440.5,759.3 L -440.6,753.5 L -440.2,748.5 L -439.4,743.5 L -438.0,738.2 L -436.0,732.8 L -433.6,727.1 L -431.2,721.5 L -428.8,716.0 L -426.2,710.0 L -423.6,703.8 L -420.7,697.1 L -417.5,689.9 L -414.9,683.8 L -412.1,677.3 L -408.7,669.5 L -405.7,662.7 L -402.7,655.8 L -399.4,648.3 L -396.1,640.7 L -392.2,631.8 L -389.3,625.1 L -385.8,617.1 L -381.8,608.2 L -378.4,600.3 L -374.9,592.4 L -371.2,583.8 L -367.5,575.2 L -363.7,565.9 L -360.2,557.5 L -356.4,548.5 L -352.4,538.9 L -348.4,529.3 L -344.8,520.9 L -340.9,511.5 L -336.7,501.6 L -332.6,492.0 L -328.8,482.8 L -324.2,472.1 L -320.5,463.2 L -316.0,452.2 L -311.8,442.2 L -307.6,432.0 L -303.6,422.3 L -299.5,412.5 L -294.9,401.6 L -290.6,391.2 L -286.4,381.2 L -281.8,370.0 L -277.4,359.3 L -273.3,349.1 L -268.5,337.2 L -264.5,327.4 L -260.0,316.5 L -255.0,304.4 L -250.7,293.8 L -246.4,283.3 L -241.8,272.1 L -236.7,259.7 L -232.3,249.0 L -227.8,238.2 L -222.8,226.2 L -217.9,214.1 L -213.5,203.8 L -208.5,191.6 L -204.0,180.5 L -198.9,168.2 L -194.1,156.5 L -189.5,145.2 L -184.7,133.4 L -179.6,120.9 L -174.6,108.9 L -169.9,97.5 L -165.0,85.5 L -159.7,72.8 L -154.4,60.1 L -149.6,48.5 L -144.8,36.9 L -139.7,24.7" fill="none" stroke="url(#g)" stroke-width="108.6" stroke-linecap="round" stroke-linejoin="round"/>
<path d="M -136.7,12.8 L -129.4,-4.6 L -124.9,-15.5 L -119.2,-28.9 L -114.6,-39.8 L -109.0,-53.2 L -104.1,-64.9 L -98.9,-77.1 L -93.6,-89.4 L -88.4,-101.8 L -83.1,-114.1 L -78.1,-125.9 L -72.9,-138.3 L -67.6,-150.8 L -61.5,-165.2 L -56.8,-176.4 L -51.7,-188.4 L -46.4,-200.9 L -40.7,-214.2 L -35.7,-226.2 L -30.3,-238.9 L -24.4,-252.9 L -18.9,-266.3 L -14.3,-277.9 L -9.5,-290.2 L -3.9,-304.5 L 0.6,-316.2 L 6.0,-329.9 L 10.8,-342.3 L 16.0,-355.4 L 21.6,-369.8 L 27.1,-383.6 L 31.6,-394.8 L 37.4,-409.2 L 42.8,-422.4 L 48.4,-436.3 L 53.0,-447.5 L 58.4,-460.7 L 64.1,-474.7 L 69.5,-488.0 L 74.6,-500.6 L 80.0,-514.0 L 85.9,-528.7 L 90.9,-541.1 L 95.8,-553.4 L 100.2,-564.3 L 104.6,-575.0 L 108.8,-585.5 L 112.6,-594.9 L 116.3,-603.8 L 119.9,-612.8 L 123.2,-620.5 L 126.6,-628.3 L 129.7,-635.2 L 132.8,-641.9 L 135.8,-647.8 L 139.0,-653.7 L 141.8,-658.2 L 144.9,-662.4 L 148.2,-666.1 L 151.4,-669.0 L 155.2,-671.8 L 158.6,-673.6 L 162.2,-675.1 L 165.6,-675.9 L 169.5,-676.3 L 173.6,-676.2 L 177.0,-675.8 L 181.3,-674.6 L 184.7,-673.2 L 188.6,-671.1 L 192.1,-668.5 L 195.3,-665.6 L 198.5,-662.1 L 201.6,-658.1 L 204.7,-653.4 L 207.8,-648.1 L 210.3,-643.5 L 212.8,-638.2 L 215.4,-632.1 L 217.8,-626.0 L 220.0,-619.9 L 222.3,-613.2 L 224.6,-606.0 L 226.8,-598.8 L 228.8,-591.4 L 230.5,-583.7 L 231.8,-576.3 L 232.9,-568.1 L 233.6,-559.4 L 233.9,-550.4 L 233.9,-541.3 L 233.7,-533.7 L 233.4,-524.7 L 232.8,-515.5 L 232.0,-505.8 L 231.0,-496.4 L 229.6,-486.4 L 228.2,-477.8 L 226.2,-467.1 L 224.3,-457.9 L 222.3,-448.5 L 220.2,-438.6 L 218.1,-428.5 L 215.9,-417.8 L 213.9,-408.1 L 211.7,-397.7 L 209.2,-386.2 L 206.9,-376.2 L 204.7,-366.1 L 202.2,-354.8 L 199.8,-343.4 L 197.7,-333.6 L 195.4,-322.6 L 193.1,-310.9 L 191.0,-300.3 L 189.0,-289.0 L 187.1,-277.6 L 185.2,-265.0 L 183.6,-254.2 L 182.2,-243.4 L 181.0,-233.8 L 179.8,-223.6 L 179.0,-215.3 L 178.4,-207.2 L 178.2,-199.7 L 178.7,-191.4 L 179.8,-183.5 L 181.2,-176.2 L 183.2,-168.5 L 185.8,-161.1 L 189.1,-153.6 L 192.8,-146.6 L 196.8,-140.2 L 201.5,-133.7 L 207.1,-127.0 L 212.8,-120.9 L 218.7,-115.3 L 225.3,-109.8 L 232.3,-104.5 L 240.0,-99.2 L 247.2,-94.5 L 255.0,-89.6 L 262.9,-84.5 L 270.8,-79.3 L 279.2,-73.6 L 287.0,-67.8 L 294.3,-61.9 L 301.5,-55.3 L 308.3,-48.2 L 314.9,-40.3 L 321.0,-32.0 L 326.0,-24.1 L 330.5,-15.9 L 334.8,-7.0 L 338.9,2.6 L 342.2,11.9 L 344.7,21.1 L 346.8,30.8 L 348.4,40.7 L 349.4,51.7 L 349.6,60.6 L 349.1,70.4 L 347.8,81.1 L 345.9,90.1 L 343.2,99.3 L 339.8,108.2 L 335.8,117.0 L 331.3,125.0 L 326.1,133.0 L 320.1,140.9 L 314.1,147.6 L 307.0,154.4 L 300.1,160.1 L 292.5,165.5 L 284.1,170.4 L 275.8,174.5 L 267.7,177.6 L 258.1,180.4 L 249.2,182.2 L 240.3,183.2 L 231.8,183.6 L 223.3,183.3 L 214.4,182.4 L 205.6,180.8 L 196.5,178.6 L 187.8,175.9 L 179.6,172.9 L 170.3,168.9 L 162.3,164.9 L 154.1,160.3 L 146.3,155.7 L 138.0,150.9 L 129.1,145.8 L 120.5,141.1 L 111.3,136.2 L 104.7,132.8 L 97.4,129.1 L 90.6,125.9 L 83.9,123.0 L 77.3,120.6 L 72.4,119.3 L 66.8,118.1 L 61.4,117.6 L 55.5,117.6 L 50.6,118.3 L 45.8,119.5 L 41.0,121.4 L 36.1,124.1 L 32.1,127.0 L 28.2,130.6 L 24.8,134.6 L 21.9,139.0 L 19.5,143.6 L 17.4,149.0 L 15.9,154.5 L 14.9,160.3 L 14.5,166.0 L 14.5,172.2 L 15.0,178.9 L 16.1,186.1 L 17.2,191.8 L 18.7,198.7 L 20.6,206.1 L 22.7,213.2 L 25.3,220.4 L 28.1,227.2 L 31.5,234.3 L 35.6,241.7 L 39.8,248.7 L 44.4,255.8 L 49.0,262.4 L 54.6,270.1 L 59.6,276.9 L 64.7,283.7 L 70.6,291.8 L 76.2,299.2 L 81.5,306.4 L 86.9,313.7 L 93.2,322.2 L 98.4,329.2 L 104.4,337.7 L 110.5,346.8 L 115.0,354.1 L 120.1,362.9 L 124.8,372.1 L 129.3,382.0 L 133.0,391.8 L 136.2,401.3 L 139.1,411.6 L 141.4,422.1 L 143.3,433.3 L 144.6,444.2 L 145.7,455.7 L 146.5,467.4 L 147.1,477.5 L 147.6,488.3 L 147.9,500.2 L 148.0,512.3 L 147.8,523.3 L 147.4,534.4 L 146.6,546.1 L 145.5,557.8 L 144.1,569.6 L 142.3,582.1 L 140.3,594.0 L 138.0,605.3 L 135.4,617.2 L 132.4,629.1 L 128.8,641.6 L 125.2,652.9 L 120.7,665.9 L 116.4,677.7 L 112.0,688.9 L 107.6,700.2 L 102.5,712.6 L 97.8,723.9 L 92.7,735.7 L 86.9,748.8 L 81.9,759.9 L 76.8,770.6 L 71.8,781.2 L 67.1,790.9 L 62.3,800.7 L 58.5,808.5 L 54.7,816.1 L 51.3,822.9 L 47.8,829.6 L 43.9,836.3 L 40.0,842.2 L 35.8,847.7 L 31.0,853.0 L 26.1,857.7 L 21.0,861.6 L 15.6,865.0 L 9.6,867.9 L 2.3,870.9 L -3.7,872.6 L -10.2,873.9 L -17.2,874.7 L -24.7,875.0 L -32.1,875.0 L -39.6,875.0 L -46.8,874.9 L -54.6,874.9 L -63.2,874.9 L -71.2,874.8 L -78.5,874.8 L -86.8,874.7 L -96.0,874.6 L -104.1,874.4 L -112.7,874.2 L -121.0,873.9 L -129.8,873.5 L -138.7,873.0 L -148.2,872.2 L -156.8,871.3 L -166.0,870.0 L -175.4,868.3 L -183.8,866.6 L -191.1,864.8 L -198.2,862.7 L -205.4,860.0 L -211.1,857.3 L -216.8,853.9 L -221.8,850.3 L -227.1,845.7 L -231.3,841.4 L -235.5,836.0 L -238.2,831.6 L -241.0,826.2 L -243.4,820.1 L -244.9,814.8 L -245.9,809.4 L -246.4,803.3 L -246.3,797.8 L -245.7,792.7 L -244.6,787.6 L -242.8,781.6 L -240.8,776.6 L -238.1,771.4 L -234.9,766.0 L -231.3,761.0 L -227.7,756.1 L -223.8,750.8 L -220.1,745.5 L -216.3,739.7 L -212.6,733.1 L -209.2,725.8 L -207.0,719.9 L -205.0,712.6 L -203.5,704.6 L -202.7,696.9 L -202.6,687.7 L -203.0,681.4 L -204.4,672.8 L -206.0,665.8 L -208.7,657.9 L -211.9,650.5 L -214.8,644.7 L -218.1,639.0 L -221.7,633.8 L -225.4,629.2 L -229.2,625.5 L -233.3,622.1 L -238.0,619.1 L -243.0,616.7 L -248.4,614.8 L -253.6,613.6 L -258.9,613.0 L -263.8,613.0 L -269.1,613.6 L -273.9,614.9 L -278.4,616.6 L -282.8,618.8 L -287.0,621.6 L -291.3,625.1 L -294.8,628.5 L -298.3,632.6 L -301.2,636.6 L -303.8,641.2 L -306.1,646.1 L -308.0,650.9 L -309.6,656.4 L -310.7,662.1 L -311.6,668.4 L -312.4,674.6 L -313.3,680.7 L -314.3,687.4 L -315.4,694.5 L -316.8,701.5 L -318.5,708.6 L -320.3,715.5 L -322.5,722.8 L -325.2,730.9 L -327.8,738.0 L -331.1,745.3 L -334.9,752.6 L -339.4,760.1 L -343.7,766.3 L -349.1,773.2 L -353.5,778.1 L -358.3,783.2 L -362.4,787.2 L -366.7,790.9 L -371.0,793.9 L -375.7,796.5 L -380.8,798.6 L -386.5,800.3 L -391.4,801.1 L -397.3,801.5 L -402.2,801.2 L -407.6,800.2 L -412.6,798.7 L -417.0,796.7 L -421.6,793.9 L -425.5,790.6 L -428.8,787.1 L -432.0,783.1 L -434.6,778.7 L -437.0,773.8 L -438.7,769.0 L -439.9,764.1 L -440.5,759.3 L -440.6,753.5 L -440.2,748.5 L -439.4,743.5 L -438.0,738.2 L -436.0,732.8 L -433.6,727.1 L -431.2,721.5 L -428.8,716.0 L -426.2,710.0 L -423.6,703.8 L -420.7,697.1 L -417.5,689.9 L -414.9,683.8 L -412.1,677.3 L -408.7,669.5 L -405.7,662.7 L -402.7,655.8 L -399.4,648.3 L -396.1,640.7 L -392.2,631.8 L -389.3,625.1 L -385.8,617.1 L -381.8,608.2 L -378.4,600.3 L -374.9,592.4 L -371.2,583.8 L -367.5,575.2 L -363.7,565.9 L -360.2,557.5 L -356.4,548.5 L -352.4,538.9 L -348.4,529.3 L -344.8,520.9 L -340.9,511.5 L -336.7,501.6 L -332.6,492.0 L -328.8,482.8 L -324.2,472.1 L -320.5,463.2 L -316.0,452.2 L -311.8,442.2 L -307.6,432.0 L -303.6,422.3 L -299.5,412.5 L -294.9,401.6 L -290.6,391.2 L -286.4,381.2 L -281.8,370.0 L -277.4,359.3 L -273.3,349.1 L -268.5,337.2 L -264.5,327.4 L -260.0,316.5 L -255.0,304.4 L -250.7,293.8 L -246.4,283.3 L -241.8,272.1 L -236.7,259.7 L -232.3,249.0 L -227.8,238.2 L -222.8,226.2 L -217.9,214.1 L -213.5,203.8 L -208.5,191.6 L -204.0,180.5 L -198.9,168.2 L -194.1,156.5 L -189.5,145.2 L -184.7,133.4 L -179.6,120.9 L -174.6,108.9 L -169.9,97.5 L -165.0,85.5 L -159.7,72.8 L -154.4,60.1 L -149.6,48.5 L -144.8,36.9 L -139.7,24.7" fill="none" stroke="#ffffff" stroke-opacity="0.92" stroke-width="10.9" stroke-linecap="round" stroke-linejoin="round"/>
<line x1="-46.6" y1="50.7" x2="-226.8" y2="-25.1" stroke="#ffffff" stroke-width="15.2" stroke-linecap="round"/>
</svg>