<svg xmlns="http://www.w3.org/2000/svg" viewBox="-1240.2 -229.5 2032.0 1144.0">
<defs><linearGradient id="g" gradientUnits="userSpaceOnUse" x1="-1143.6" y1="-132.9" x2="695.3" y2="818.0">
<stop offset="0" stop-color="#1c9fe0"/><stop offset="1" stop-color="#0b1f44"/></linearGradient></defs>
<path d="M -257.6,749.3 L -234.6,753.3 L -222.3,755.2 L -207.2,757.2 L -194.8,758.7 L -179.6,760.1 L -165.7,761.1 L -153.1,761.6 L -139.1,761.9 L -123.7,761.7 L -109.6,761.3 L -95.6,760.6 L -82.9,759.8 L -68.8,758.9 L -53.2,757.8 L -40.4,756.9 L -24.8,755.7 L -10.6,754.5 L 2.3,753.3 L 18.0,751.7 L 30.8,750.3 L 46.5,748.3 L 58.9,746.7 L 72.3,744.9 L 86.3,742.8 L 97.1,741.0 L 108.6,739.0 L 120.5,736.8 L 130.7,734.7 L 140.2,732.7 L 149.0,730.6 L 156.5,728.7 L 165.1,726.5 L 172.4,724.5 L 179.2,722.5 L 185.5,720.3 L 191.4,718.0 L 196.4,715.6 L 201.8,712.2 L 205.8,709.2 L 210.2,705.0 L 213.3,701.3 L 216.4,696.7 L 219.1,691.7 L 221.8,685.9 L 223.8,680.8 L 225.9,674.8 L 228.3,668.8 L 231.4,662.1 L 234.7,656.1 L 238.6,650.3 L 243.1,644.8 L 247.6,640.2 L 253.7,635.0 L 259.6,630.7 L 265.3,627.1 L 271.8,623.3 L 278.7,619.7 L 285.9,616.4 L 294.2,613.0 L 301.1,610.2 L 309.6,606.4 L 317.3,602.6 L 324.1,598.7 L 331.5,593.9 L 339.3,587.9 L 345.4,582.6 L 352.3,575.6 L 357.5,569.4 L 363.4,561.5 L 368.3,553.9 L 372.7,545.9 L 376.7,537.6 L 379.8,529.8 L 383.5,520.1 L 386.7,511.0 L 390.0,501.9 L 393.3,492.6 L 396.4,484.2 L 400.2,473.7 L 403.5,465.1 L 407.5,454.5 L 411.3,444.7 L 415.1,434.8 L 418.6,425.9 L 423.4,413.8 L 427.0,404.7 L 430.8,395.5 L 435.0,385.2 L 439.7,373.8 L 443.5,364.4 L 447.9,353.8 L 452.3,343.2 L 456.7,332.6 L 461.7,320.7 L 465.8,311.0 L 470.8,299.0 L 474.9,289.2 L 479.3,278.5 L 484.0,267.2 L 488.0,257.4 L 491.9,247.9 L 495.2,239.7 L 498.7,230.9 L 502.1,221.6 L 504.8,213.5 L 507.1,205.6 L 508.8,197.9 L 510.0,191.1 L 510.7,183.0 L 510.7,176.3 L 510.2,168.1 L 509.2,160.6 L 508.1,153.8 L 506.3,145.7 L 504.7,138.7 L 503.2,131.9 L 502.1,125.4 L 501.5,119.7 L 501.2,112.9 L 501.4,106.8 L 502.2,100.8 L 503.3,95.4 L 505.2,88.9 L 507.2,83.7 L 510.3,77.6 L 513.3,72.7 L 517.5,66.9 L 521.3,62.4 L 526.3,56.9 L 531.2,52.1 L 535.8,47.8 L 541.6,42.6 L 547.1,37.9 L 552.2,33.8 L 558.7,28.9 L 564.7,24.5 L 570.3,20.6 L 576.8,16.4 L 584.1,11.7 L 590.1,7.7 L 596.9,3.1 L 604.5,-2.1 L 610.8,-6.5 L 618.6,-12.1 L 625.0,-16.8 L 632.2,-22.1 L 639.4,-27.7 L 647.0,-33.7 L 652.9,-38.5 L 659.5,-44.1 L 665.0,-48.9 L 669.7,-53.2 L 674.8,-58.2 L 678.7,-62.2 L 682.5,-66.7 L 686.3,-71.7 L 688.9,-75.7 L 691.3,-80.3 L 693.3,-84.9 L 694.7,-89.9 L 695.2,-93.9 L 695.3,-98.2 L 694.7,-102.3 L 693.4,-106.7 L 691.8,-110.1 L 689.3,-114.2 L 686.8,-117.3 L 683.2,-120.9 L 679.1,-124.0 L 675.3,-126.3 L 670.8,-128.4 L 665.4,-130.1 L 660.8,-131.2 L 655.3,-132.0 L 649.6,-132.6 L 644.3,-132.9 L 638.2,-132.9 L 631.9,-132.6 L 625.4,-131.9 L 618.0,-130.9 L 611.1,-129.8 L 604.0,-128.6 L 596.7,-127.4 L 589.2,-126.1 L 582.4,-124.9 L 573.9,-123.4 L 566.8,-122.1 L 557.9,-120.6 L 549.6,-119.2 L 541.2,-117.8 L 533.5,-116.6 L 524.8,-115.2 L 515.9,-113.9 L 506.9,-112.5 L 496.9,-111.0 L 487.6,-109.7 L 478.2,-108.3 L 468.7,-107.0 L 460.1,-105.8 L 449.4,-104.4 L 439.5,-103.1 L 430.5,-102.0 L 419.4,-100.6 L 410.3,-99.5 L 400.0,-98.4 L 388.6,-97.3 L 379.1,-96.4 L 367.5,-95.5 L 357.9,-94.9 L 346.0,-94.4 L 336.3,-94.1 L 325.4,-94.0 L 313.3,-94.3 L 302.2,-94.8 L 290.0,-95.7 L 281.1,-96.6 L 268.8,-98.0 L 258.7,-99.4 L 246.2,-101.3 L 236.0,-103.0 L 223.5,-105.2 L 213.4,-107.0 L 202.7,-108.9 L 192.5,-110.7 L 182.9,-112.3 L 172.9,-114.0 L 165.2,-115.3 L 156.1,-116.8 L 149.0,-117.8 L 140.6,-118.9 L 133.2,-119.5 L 126.1,-119.7 L 119.9,-119.5 L 112.6,-118.6 L 106.7,-117.4 L 100.3,-115.4 L 93.5,-112.6 L 87.5,-109.4 L 81.7,-105.8 L 76.7,-102.1 L 70.9,-97.1 L 66.4,-92.6 L 61.9,-87.1 L 57.6,-81.3 L 53.3,-74.3 L 49.7,-67.6 L 46.6,-61.3 L 43.3,-54.0 L 39.8,-45.7 L 37.0,-37.9 L 34.5,-30.6 L 32.0,-22.3 L 29.6,-12.8 L 27.9,-4.9 L 26.0,5.1 L 24.7,14.3 L 23.7,22.8 L 22.9,33.4 L 22.6,43.1 L 22.7,54.0 L 23.0,63.1 L 23.5,72.3 L 24.5,82.5 L 26.0,94.0 L 27.5,103.4 L 29.7,115.0 L 32.0,125.7 L 34.3,135.3 L 37.5,147.1 L 40.7,157.9 L 43.9,168.8 L 47.0,179.7 L 49.9,190.2 L 52.1,199.4 L 54.4,210.2 L 56.0,218.7 L 57.4,228.7 L 58.1,236.6 L 58.4,245.1 L 58.0,253.4 L 57.0,261.5 L 55.3,269.3 L 52.8,277.1 L 49.5,285.6 L 46.1,293.2 L 42.8,299.8 L 39.1,306.7 L 35.5,313.0 L 32.0,318.9 L 28.5,324.5 L 24.8,330.1 L 21.8,334.4 L 18.4,338.7 L 14.5,342.9 L 10.5,346.4 L 7.1,348.8 L 3.5,350.7 L -1.1,352.4 L -5.4,353.6 L -10.0,354.3 L -14.8,354.5 L -19.2,354.3 L -24.8,353.8 L -30.1,353.0 L -35.0,351.9 L -41.1,350.3 L -46.3,348.8 L -52.8,346.9 L -58.3,345.4 L -65.2,343.6 L -71.8,342.1 L -78.6,340.7 L -85.6,339.7 L -92.8,338.7 L -100.9,337.9 L -107.6,337.3 L -115.3,336.8 L -123.2,336.4 L -130.4,336.3 L -139.4,336.2 L -147.7,336.3 L -155.3,336.5 L -164.8,336.8 L -173.6,337.1 L -181.6,337.4 L -191.5,337.9 L -199.8,338.4 L -210.0,338.9 L -219.3,339.4 L -227.9,339.8 L -238.5,340.4 L -248.3,340.8 L -257.2,341.2 L -267.2,341.6 L -278.3,342.0 L -287.5,342.3 L -298.9,342.7 L -308.2,342.9 L -319.8,343.3 L -329.3,343.5 L -340.0,343.8 L -351.8,344.1 L -362.7,344.2 L -372.6,344.3 L -384.7,344.2 L -394.5,344.2 L -404.9,344.2 L -414.7,344.1 L -424.9,344.1 L -432.7,344.1 L -440.9,344.1 L -448.6,344.1 L -456.6,344.0 L -462.7,344.0 L -469.0,343.8 L -475.5,343.5 L -480.4,342.9 L -485.9,341.8 L -490.0,340.7 L -494.3,339.0 L -498.6,336.8 L -501.8,334.7 L -505.3,332.0 L -508.5,329.0 L -511.6,325.7 L -514.0,323.2 L -517.1,320.5 L -520.0,318.5 L -522.7,317.1 L -526.2,315.8 L -530.0,314.9 L -532.9,314.4 L -536.8,314.3 L -541.4,314.4 L -545.8,315.0 L -550.4,316.0 L -555.2,317.5 L -559.6,319.3 L -565.1,321.9 L -570.3,324.4 L -575.7,326.9 L -581.4,329.4 L -586.7,331.7 L -592.9,334.4 L -599.2,337.1 L -606.5,340.2 L -613.3,343.1 L -619.5,345.8 L -626.7,348.9 L -634.7,352.3 L -642.2,355.5 L -649.0,358.5 L -656.8,361.9 L -664.7,365.4 L -673.5,369.4 L -681.7,373.2 L -689.1,376.8 L -697.3,381.0 L -706.5,385.8 L -714.0,389.9 L -723.1,395.4 L -731.4,400.6 L -739.0,405.4 L -748.2,411.6 L -756.6,417.4 L -765.0,423.4 L -773.5,429.6 L -781.1,435.3 L -790.3,442.7 L -797.8,448.9 L -806.8,456.8 L -814.9,464.3 L -822.1,471.3 L -830.0,479.2 L -838.7,488.1 L -846.5,496.4 L -853.7,503.9 L -861.6,512.4 L -869.7,520.8 L -878.7,530.1 L -887.1,538.5 L -894.8,546.0 L -903.6,554.4 L -912.4,562.7 L -921.4,571.0 L -930.6,579.3 L -940.8,588.4 L -949.4,595.7 L -959.1,603.6 L -969.1,611.2 L -980.4,618.9 L -991.0,625.5 L -1000.6,631.0 L -1012.5,637.1 L -1023.0,642.3 L -1033.3,647.0 L -1042.2,651.0 L -1051.7,655.1 L -1060.8,658.9 L -1070.3,662.8 L -1077.6,665.8 L -1086.0,669.3 L -1093.2,672.2 L -1099.2,674.7 L -1105.5,677.4 L -1111.3,679.9 L -1117.2,682.6 L -1122.0,685.1 L -1125.9,687.5 L -1130.1,690.7 L -1133.5,693.9 L -1136.1,696.9 L -1138.7,700.9 L -1140.7,704.8 L -1142.1,708.9 L -1143.1,713.2 L -1143.6,717.8 L -1143.6,721.9 L -1143.2,726.7 L -1142.2,732.1 L -1141.0,736.7 L -1139.1,742.4 L -1137.1,747.7 L -1135.0,752.6 L -1132.5,758.3 L -1129.6,764.8 L -1126.6,771.3 L -1124.4,776.0 L -1121.4,782.1 L -1118.9,786.8 L -1115.8,792.3 L -1112.7,796.9 L -1109.6,800.7 L -1105.6,804.9 L -1102.0,808.0 L -1097.3,811.2 L -1093.3,813.4 L -1088.6,815.2 L -1083.6,816.6 L -1077.8,817.5 L -1072.3,818.0 L -1066.6,817.9 L -1060.6,817.5 L -1055.1,816.7 L -1048.3,815.3 L -1041.9,813.5 L -1036.0,811.5 L -1029.4,809.1 L -1022.6,806.5 L -1015.7,803.7 L -1007.3,800.3 L -1000.7,797.6 L -993.3,794.6 L -986.5,791.9 L -977.9,788.6 L -969.9,785.5 L -961.0,782.1 L -954.4,779.6 L -946.0,776.5 L -936.6,773.0 L -927.9,769.8 L -919.2,766.5 L -911.1,763.5 L -902.1,760.1 L -892.9,756.8 L -882.7,753.0 L -873.3,749.5 L -864.7,746.4 L -854.1,742.5 L -845.3,739.3 L -835.4,735.8 L -824.4,732.0 L -815.2,729.0 L -804.8,725.9 L -793.3,722.6 L -783.7,720.1 L -771.8,717.3 L -760.8,715.0 L -749.7,713.1 L -738.5,711.4 L -727.1,710.0 L -716.8,708.9 L -705.2,708.0 L -692.4,707.2 L -681.8,706.8 L -667.5,706.4 L -656.8,706.4 L -646.0,706.4 L -633.9,706.5 L -620.5,706.7 L -609.4,706.9 L -595.9,707.1 L -584.7,707.4 L -571.0,707.6 L -558.5,707.9 L -547.1,708.2 L -533.2,708.5 L -519.3,709.0 L -509.1,709.3 L -495.0,709.9 L -482.2,710.5 L -469.3,711.3 L -456.4,712.3 L -444.7,713.4 L -431.7,714.9 L -417.5,716.8 L -404.4,718.8 L -391.4,721.0 L -379.7,723.2 L -366.7,725.9 L -353.7,728.6 L -339.3,731.7 L -327.4,734.2 L -314.3,736.9 L -299.7,739.9 L -287.7,742.3 L -273.0,745.1 L -259.6,747.7" fill="none" stroke="url(#g)" stroke-width="128.7" stroke-linecap="round" stroke-linejoin="round"/>
<path d="M -257.6,749.3 L -234.6,753.3 L -222.3,755.2 L -207.2,757.2 L -194.8,758.7 L -179.6,760.1 L -165.7,761.1 L -153.1,761.6 L -139.1,761.9 L -123.7,761.7 L -109.6,761.3 L -95.6,760.6 L -82.9,759.8 L -68.8,758.9 L -53.2,757.8 L -40.4,756.9 L -24.8,755.7 L -10.6,754.5 L 2.3,753.3 L 18.0,751.7 L 30.8,750.3 L 46.5,748.3 L 58.9,746.7 L 72.3,744.9 L 86.3,742.8 L 97.1,741.0 L 108.6,739.0 L 120.5,736.8 L 130.7,734.7 L 140.2,732.7 L 149.0,730.6 L 156.5,728.7 L 165.1,726.5 L 172.4,724.5 L 179.2,722.5 L 185.5,720.3 L 191.4,718.0 L 196.4,715.6 L 201.8,712.2 L 205.8,709.2 L 210.2,705.0 L 213.3,701.3 L 216.4,696.7 L 219.1,691.7 L 221.8,685.9 L 223.8,680.8 L 225.9,674.8 L 228.3,668.8 L 231.4,662.1 L 234.7,656.1 L 238.6,650.3 L 243.1,644.8 L 247.6,640.2 L 253.7,635.0 L 259.6,630.7 L 265.3,627.1 L 271.8,623.3 L 278.7,619.7 L 285.9,616.4 L 294.2,613.0 L 301.1,610.2 L 309.6,606.4 L 317.3,602.6 L 324.1,598.7 L 331.5,593.9 L 339.3,587.9 L 345.4,582.6 L 352.3,575.6 L 357.5,569.4 L 363.4,561.5 L 368.3,553.9 L 372.7,545.9 L 376.7,537.6 L 379.8,529.8 L 383.5,520.1 L 386.7,511.0 L 390.0,501.9 L 393.3,492.6 L 396.4,484.2 L 400.2,473.7 L 403.5,465.1 L 407.5,454.5 L 411.3,444.7 L 415.1,434.8 L 418.6,425.9 L 423.4,413.8 L 427.0,404.7 L 430.8,395.5 L 435.0,385.2 L 439.7,373.8 L 443.5,364.4 L 447.9,353.8 L 452.3,343.2 L 456.7,332.6 L 461.7,320.7 L 465.8,311.0 L 470.8,299.0 L 474.9,289.2 L 479.3,278.5 L 484.0,267.2 L 488.0,257.4 L 491.9,247.9 L 495.2,239.7 L 498.7,230.9 L 502.1,221.6 L 504.8,213.5 L 507.1,205.6 L 508.8,197.9 L 510.0,191.1 L 510.7,183.0 L 510.7,176.3 L 510.2,168.1 L 509.2,160.6 L 508.1,153.8 L 506.3,145.7 L 504.7,138.7 L 503.2,131.9 L 502.1,125.4 L 501.5,119.7 L 501.2,112.9 L 501.4,106.8 L 502.2,100.8 L 503.3,95.4 L 505.2,88.9 L 507.2,83.7 L 510.3,77.6 L 513.3,72.7 L 517.5,66.9 L 521.3,62.4 L 526.3,56.9 L 531.2,52.1 L 535.8,47.8 L 541.6,42.6 L 547.1,37.9 L 552.2,33.8 L 558.7,28.9 L 564.7,24.5 L 570.3,20.6 L 576.8,16.4 L 584.1,11.7 L 590.1,7.7 L 596.9,3.1 L 604.5,-2.1 L 610.8,-6.5 L 618.6,-12.1 L 625.0,-16.8 L 632.2,-22.1 L 639.4,-27.7 L 647.0,-33.7 L 652.9,-38.5 L 659.5,-44.1 L 665.0,-48.9 L 669.7,-53.2 L 674.8,-58.2 L 678.7,-62.2 L 682.5,-66.7 L 686.3,-71.7 L 688.9,-75.7 L 691.3,-80.3 L 693.3,-84.9 L 694.7,-89.9 L 695.2,-93.9 L 695.3,-98.2 L 694.7,-102.3 L 693.4,-106.7 L 691.8,-110.1 L 689.3,-114.2 L 686.8,-117.3 L 683.2,-120.9 L 679.1,-124.0 L 675.3,-126.3 L 670.8,-128.4 L 665.4,-130.1 L 660.8,-131.2 L 655.3,-132.0 L 649.6,-132.6 L 644.3,-132.9 L 638.2,-132.9 L 631.9,-132.6 L 625.4,-131.9 L 618.0,-130.9 L 611.1,-129.8 L 604.0,-128.6 L 596.7,-127.4 L 589.2,-126.1 L 582.4,-124.9 L 573.9,-123.4 L 566.8,-122.1 L 557.9,-120.6 L 549.6,-119.2 L 541.2,-117.8 L 533.5,-116.6 L 524.8,-115.2 L 515.9,-113.9 L 506.9,-112.5 L 496.9,-111.0 L 487.6,-109.7 L 478.2,-108.3 L 468.7,-107.0 L 460.1,-105.8 L 449.4,-104.4 L 439.5,-103.1 L 430.5,-102.0 L 419.4,-100.6 L 410.3,-99.5 L 400.0,-98.4 L 388.6,-97.3 L 379.1,-96.4 L 367.5,-95.5 L 357.9,-94.9 L 346.0,-94.4 L 336.3,-94.1 L 325.4,-94.0 L 313.3,-94.3 L 302.2,-94.8 L 290.0,-95.7 L 281.1,-96.6 L 268.8,-98.0 L 258.7,-99.4 L 246.2,-101.3 L 236.0,-103.0 L 223.5,-105.2 L 213.4,-107.0 L 202.7,-108.9 L 192.5,-110.7 L 182.9,-112.3 L 172.9,-114.0 L 165.2,-115.3 L 156.1,-116.8 L 149.0,-117.8 L 140.6,-118.9 L 133.2,-119.5 L 126.1,-119.7 L 119.9,-119.5 L 112.6,-118.6 L 106.7,-117.4 L 100.3,-115.4 L 93.5,-112.6 L 87.5,-109.4 L 81.7,-105.8 L 76.7,-102.1 L 70.9,-97.1 L 66.4,-92.6 L 61.9,-87.1 L 57.6,-81.3 L 53.3,-74.3 L 49.7,-67.6 L 46.6,-61.3 L 43.3,-54.0 L 39.8,-45.7 L 37.0,-37.9 L 34.5,-30.6 L 32.0,-22.3 L 29.6,-12.8 L 27.9,-4.9 L 26.0,5.1 L 24.7,14.3 L 23.7,22.8 L 22.9,33.4 L 22.6,43.1 L 22.7,54.0 L 23.0,63.1 L 23.5,72.3 L 24.5,82.5 L 26.0,94.0 L 27.5,103.4 L 29.7,115.0 L 32.0,125.7 L 34.3,135.3 L 37.5,147.1 L 40.7,157.9 L 43.9,168.8 L 47.0,179.7 L 49.9,190.2 L 52.1,199.4 L 54.4,210.2 L 56.0,218.7 L 57.4,228.7 L 58.1,236.6 L 58.4,245.1 L 58.0,253.4 L 57.0,261.5 L 55.3,269.3 L 52.8,277.1 L 49.5,285.6 L 46.1,293.2 L 42.8,299.8 L 39.1,306.7 L 35.5,313.0 L 32.0,318.9 L 28.5,324.5 L 24.8,330.1 L 21.8,334.4 L 18.4,338.7 L 14.5,342.9 L 10.5,346.4 L 7.1,348.8 L 3.5,350.7 L -1.1,352.4 L -5.4,353.6 L -10.0,354.3 L -14.8,354.5 L -19.2,354.3 L -24.8,353.8 L -30.1,353.0 L -35.0,351.9 L -41.1,350.3 L -46.3,348.8 L -52.8,346.9 L -58.3,345.4 L -65.2,343.6 L -71.8,342.1 L -78.6,340.7 L -85.6,339.7 L -92.8,338.7 L -100.9,337.9 L -107.6,337.3 L -115.3,336.8 L -123.2,336.4 L -130.4,336.3 L -139.4,336.2 L -147.7,336.3 L -155.3,336.5 L -164.8,336.8 L -173.6,337.1 L -181.6,337.4 L -191.5,337.9 L -199.8,338.4 L -210.0,338.9 L -219.3,339.4 L -227.9,339.8 L -238.5,340.4 L -248.3,340.8 L -257.2,341.2 L -267.2,341.6 L -278.3,342.0 L -287.5,342.3 L -298.9,342.7 L -308.2,342.9 L -319.8,343.3 L -329.3,343.5 L -340.0,343.8 L -351.8,344.1 L -362.7,344.2 L -372.6,344.3 L -384.7,344.2 L -394.5,344.2 L -404.9,344.2 L -414.7,344.1 L -424.9,344.1 L -432.7,344.1 L -440.9,344.1 L -448.6,344.1 L -456.6,344.0 L -462.7,344.0 L -469.0,343.8 L -475.5,343.5 L -480.4,342.9 L -485.9,341.8 L -490.0,340.7 L -494.3,339.0 L -498.6,336.8 L -501.8,334.7 L -505.3,332.0 L -508.5,329.0 L -511.6,325.7 L -514.0,323.2 L -517.1,320.5 L -520.0,318.5 L -522.7,317.1 L -526.2,315.8 L -530.0,314.9 L -532.9,314.4 L -536.8,314.3 L -541.4,314.4 L -545.8,315.0 L -550.4,316.0 L -555.2,317.5 L -559.6,319.3 L -565.1,321.9 L -570.3,324.4 L -575.7,326.9 L -581.4,329.4 L -586.7,331.7 L -592.9,334.4 L -599.2,337.1 L -606.5,340.2 L -613.3,343.1 L -619.5,345.8 L -626.7,348.9 L -634.7,352.3 L -642.2,355.5 L -649.0,358.5 L -656.8,361.9 L -664.7,365.4 L -673.5,369.4 L -681.7,373.2 L -689.1,376.8 L -697.3,381.0 L -706.5,385.8 L -714.0,389.9 L -723.1,395.4 L -731.4,400.6 L -739.0,405.4 L -748.2,411.6 L -756.6,417.4 L -765.0,423.4 L -773.5,429.6 L -781.1,435.3 L -790.3,442.7 L -797.8,448.9 L -806.8,456.8 L -814.9,464.3 L -822.1,471.3 L -830.0,479.2 L -838.7,488.1 L -846.5,496.4 L -853.7,503.9 L -861.6,512.4 L -869.7,520.8 L -878.7,530.1 L -887.1,538.5 L -894.8,546.0 L -903.6,554.4 L -912.4,562.7 L -921.4,571.0 L -930.6,579.3 L -940.8,588.4 L -949.4,595.7 L -959.1,603.6 L -969.1,611.2 L -980.4,618.9 L -991.0,625.5 L -1000.6,631.0 L -1012.5,637.1 L -1023.0,642.3 L -1033.3,647.0 L -1042.2,651.0 L -1051.7,655.1 L -1060.8,658.9 L -1070.3,662.8 L -1077.6,665.8 L -1086.0,669.3 L -1093.2,672.2 L -1099.2,674.7 L -1105.5,677.4 L -1111.3,679.9 L -1117.2,682.6 L -1122.0,685.1 L -1125.9,687.5 L -1130.1,690.7 L -1133.5,693.9 L -1136.1,696.9 L -1138.7,700.9 L -1140.7,704.8 L -1142.1,708.9 L -1143.1,713.2 L -1143.6,717.8 L -1143.6,721.9 L -1143.2,726.7 L -1142.2,732.1 L -1141.0,736.7 L -1139.1,742.4 L -1137.1,747.7 L -1135.0,752.6 L -1132.5,758.3 L -1129.6,764.8 L -1126.6,771.3 L -1124.4,776.0 L -1121.4,782.1 L -1118.9,786.8 L -1115.8,792.3 L -1112.7,796.9 L -1109.6,800.7 L -1105.6,804.9 L -1102.0,808.0 L -1097.3,811.2 L -1093.3,813.4 L -1088.6,815.2 L -1083.6,816.6 L -1077.8,817.5 L -1072.3,818.0 L -1066.6,817.9 L -1060.6,817.5 L -1055.1,816.7 L -1048.3,815.3 L -1041.9,813.5 L -1036.0,811.5 L -1029.4,809.1 L -1022.6,806.5 L -1015.7,803.7 L -1007.3,800.3 L -1000.7,797.6 L -993.3,794.6 L -986.5,791.9 L -977.9,788.6 L -969.9,785.5 L -961.0,782.1 L -954.4,779.6 L -946.0,776.5 L -936.6,773.0 L -927.9,769.8 L -919.2,766.5 L -911.1,763.5 L -902.1,760.1 L -892.9,756.8 L -882.7,753.0 L -873.3,749.5 L -864.7,746.4 L -854.1,742.5 L -845.3,739.3 L -835.4,735.8 L -824.4,732.0 L -815.2,729.0 L -804.8,725.9 L -793.3,722.6 L -783.7,720.1 L -771.8,717.3 L -760.8,715.0 L -749.7,713.1 L -738.5,711.4 L -727.1,710.0 L -716.8,708.9 L -705.2,708.0 L -692.4,707.2 L -681.8,706.8 L -667.5,706.4 L -656.8,706.4 L -646.0,706.4 L -633.9,706.5 L -620.5,706.7 L -609.4,706.9 L -595.9,707.1 L -584.7,707.4 L -571.0,707.6 L -558.5,707.9 L -547.1,708.2 L -533.2,708.5 L -519.3,709.0 L -509.1,709.3 L -495.0,709.9 L -482.2,710.5 L -469.3,711.3 L -456.4,712.3 L -444.7,713.4 L -431.7,714.9 L -417.5,716.8 L -404.4,718.8 L -391.4,721.0 L -379.7,723.2 L -366.7,725.9 L -353.7,728.6 L -339.3,731.7 L -327.4,734.2 L -314.3,736.9 L -299.7,739.9 L -287.7,742.3 L -273.0,745.1 L -259.6,747.7" fill="none" stroke="#ffffff" stroke-opacity="0.92" stroke-width="12.9" stroke-linecap="round" stroke-linejoin="round"/>
<line x1="-272.3" y1="864.2" x2="-242.9" y2="634.4" stroke="#ffffff" stroke-width="18.0" stroke-linecap="round"/>
</svg>