<svg xmlns="http://www.w3.org/2000/svg" viewBox="-90.0 -90.0 1180.0 647.4">
<defs><linearGradient id="g" gradientUnits="userSpaceOnUse" x1="-31.0" y1="-57.6" x2="1031.0" y2="525.0">
<stop offset="0" stop-color="#1c9fe0"/><stop offset="1" stop-color="#0b1f44"/></linearGradient></defs>
<path d="M 585.2,465.2 L 591.6,465.1 L 598.1,465.0 L 604.5,465.0 L 611.0,464.9 L 617.4,464.8 L 623.9,464.8 L 630.3,464.7 L 636.8,464.6 L 643.2,464.6 L 649.7,464.5 L 656.1,464.4 L 662.5,464.3 L 669.0,464.3 L 675.4,464.2 L 681.9,464.1 L 688.3,464.1 L 694.8,464.0 L 701.2,463.9 L 707.7,463.8 L 714.1,463.8 L 720.6,463.7 L 727.0,463.6 L 733.5,463.6 L 739.9,463.5 L 746.3,463.4 L 752.8,463.4 L 759.2,463.3 L 765.7,463.2 L 772.1,463.1 L 778.6,463.1 L 785.0,463.0 L 789.4,463.0 L 792.8,462.9 L 799.0,462.6 L 807.0,462.1 L 815.5,461.3 L 823.4,460.2 L 829.9,458.6 L 836.1,456.5 L 842.2,454.1 L 848.1,451.4 L 853.8,448.5 L 859.3,445.6 L 865.2,442.5 L 871.0,439.2 L 876.5,435.8 L 881.7,432.2 L 886.6,428.4 L 891.5,423.9 L 896.1,419.0 L 900.3,413.9 L 903.9,408.9 L 907.2,403.5 L 910.1,397.6 L 912.2,391.8 L 913.8,385.8 L 915.1,379.5 L 915.9,373.1 L 916.2,366.6 L 916.0,360.2 L 915.1,353.8 L 913.7,347.5 L 911.5,340.3 L 908.7,333.0 L 907.2,329.3 L 904.9,323.3 L 902.6,317.3 L 900.3,311.3 L 897.9,305.3 L 895.6,299.3 L 893.3,293.3 L 890.9,287.3 L 888.6,281.3 L 887.7,276.9 L 890.0,268.7 L 894.0,263.6 L 899.1,260.0 L 904.0,257.7 L 909.7,256.3 L 917.8,255.9 L 924.3,255.8 L 930.7,255.6 L 937.0,255.6 L 943.4,255.5 L 949.1,255.4 L 955.0,255.3 L 962.4,255.2 L 968.8,255.0 L 974.4,254.6 L 980.6,254.1 L 988.6,253.5 L 994.7,251.0 L 998.3,246.1 L 999.6,242.7 L 999.7,240.4 L 999.8,236.7 L 999.9,231.7 L 999.9,225.5 L 1000.0,218.5 L 1000.0,210.7 L 1000.0,202.3 L 1000.0,193.5 L 1000.0,184.5 L 999.9,175.5 L 999.8,166.6 L 999.7,158.0 L 999.6,149.9 L 999.4,142.4 L 999.2,135.8 L 999.0,130.1 L 998.7,125.7 L 998.4,122.7 L 997.5,117.7 L 996.0,111.6 L 994.2,105.3 L 992.1,99.2 L 989.7,93.1 L 987.1,87.1 L 984.3,81.3 L 981.2,75.7 L 977.8,70.1 L 974.2,64.8 L 970.2,59.8 L 965.8,55.1 L 961.0,50.7 L 955.9,46.6 L 950.6,42.7 L 945.5,38.9 L 940.5,35.1 L 935.3,31.4 L 930.0,27.9 L 924.5,24.8 L 918.6,21.9 L 912.3,19.6 L 904.5,17.6 L 896.1,15.8 L 888.6,14.5 L 883.3,13.6 L 880.9,13.3 L 874.5,12.2 L 868.2,11.1 L 861.8,10.0 L 855.4,8.9 L 849.1,7.9 L 842.7,6.8 L 836.4,5.7 L 830.0,4.6 L 823.7,3.6 L 817.3,2.5 L 810.9,1.4 L 804.6,0.3 L 801.0,0.0 L 794.1,0.0 L 785.6,0.2 L 778.8,0.8 L 772.6,1.7 L 766.4,3.1 L 760.2,5.2 L 753.7,8.0 L 747.6,11.1 L 743.0,14.2 L 738.7,19.1 L 737.4,26.1 L 737.6,31.6 L 738.0,38.0 L 738.4,44.5 L 738.8,50.9 L 739.2,57.4 L 739.6,63.8 L 739.9,70.2 L 740.3,76.7 L 740.7,83.1 L 741.1,89.5 L 741.5,96.0 L 741.9,102.4 L 741.7,108.3 L 737.1,113.7 L 734.1,113.8 L 726.6,114.1 L 718.2,114.7 L 712.4,116.2 L 706.3,118.8 L 700.6,122.0 L 695.5,126.0 L 691.6,130.8 L 688.5,136.6 L 687.0,142.7 L 686.1,149.6 L 686.3,157.7 L 686.5,162.0 L 686.5,168.3 L 686.6,174.7 L 686.6,181.1 L 686.6,187.5 L 686.5,194.0 L 686.5,200.5 L 686.3,207.1 L 686.1,213.6 L 686.0,220.7 L 685.5,227.6 L 683.5,232.3 L 678.7,234.1 L 671.8,234.2 L 664.5,233.9 L 658.5,233.9 L 652.5,233.9 L 646.3,233.8 L 639.8,233.6 L 633.0,233.5 L 626.2,233.6 L 619.3,233.7 L 612.9,233.7 L 606.4,233.7 L 600.0,233.7 L 593.5,233.8 L 587.1,233.8 L 580.6,233.8 L 574.2,233.8 L 567.7,233.8 L 561.3,233.8 L 554.9,233.8 L 548.4,233.8 L 542.0,233.8 L 535.5,233.8 L 529.1,233.8 L 522.6,233.9 L 516.2,233.9 L 509.7,233.9 L 503.3,233.9 L 496.8,233.9 L 490.4,233.9 L 483.9,233.9 L 477.5,233.9 L 471.0,233.9 L 464.6,233.9 L 458.2,233.9 L 451.7,233.9 L 445.3,234.0 L 438.8,234.0 L 432.4,234.0 L 425.9,234.0 L 419.5,234.0 L 413.0,234.0 L 406.6,234.0 L 400.1,234.0 L 393.7,234.0 L 387.2,234.0 L 380.8,234.0 L 374.3,234.1 L 367.9,234.1 L 361.5,234.1 L 355.0,234.1 L 348.6,234.1 L 342.1,234.1 L 335.7,234.1 L 329.2,234.1 L 322.8,234.1 L 316.3,234.1 L 309.9,234.1 L 303.4,234.1 L 297.0,234.2 L 290.5,234.2 L 289.4,234.2 L 286.8,234.1 L 282.7,234.1 L 277.3,234.1 L 270.7,234.0 L 263.2,234.0 L 255.0,233.9 L 246.1,233.9 L 236.9,233.8 L 227.5,233.8 L 218.1,233.8 L 209.0,233.7 L 200.2,233.7 L 192.1,233.6 L 184.7,233.6 L 178.3,233.6 L 173.1,233.6 L 169.3,233.6 L 167.1,233.7 L 160.3,234.8 L 156.1,237.7 L 153.0,242.1 L 149.6,248.5 L 146.0,253.9 L 140.8,257.7 L 136.6,259.0 L 130.9,259.6 L 123.6,259.7 L 115.7,259.5 L 111.7,259.4 L 105.8,259.4 L 98.5,259.4 L 90.3,259.4 L 81.4,259.5 L 72.4,259.5 L 63.6,259.6 L 55.4,259.7 L 48.3,259.8 L 42.7,259.9 L 38.9,259.9 L 37.4,259.9 L 34.1,261.0 L 26.6,263.9 L 20.1,267.2 L 14.8,270.8 L 10.1,275.2 L 6.0,280.2 L 2.7,286.0 L 0.6,291.8 L 0.0,298.1 L 0.9,304.4 L 2.9,311.2 L 6.1,318.9 L 8.6,324.5 L 9.2,325.8 L 10.9,329.4 L 13.6,335.4 L 17.2,342.7 L 21.2,350.3 L 25.2,357.1 L 29.2,362.5 L 34.0,367.8 L 39.0,372.3 L 44.0,376.2 L 48.9,379.5 L 54.3,382.8 L 60.2,385.7 L 65.9,387.8 L 71.8,389.5 L 77.6,390.9 L 83.6,391.9 L 90.6,392.6 L 97.1,392.9 L 103.8,392.6 L 110.8,392.2 L 117.5,391.8 L 123.4,391.8 L 130.7,392.6 L 137.1,394.0 L 142.2,395.8 L 147.7,398.8 L 152.7,402.9 L 156.4,407.8 L 158.7,413.4 L 160.3,420.2 L 160.9,427.7 L 160.8,435.9 L 160.6,440.8 L 160.5,444.0 L 160.1,452.1 L 159.3,459.0 L 159.7,464.4 L 164.3,466.6 L 167.4,467.0 L 172.4,467.2 L 178.7,467.3 L 186.2,467.4 L 194.6,467.4 L 203.6,467.4 L 212.9,467.3 L 222.2,467.2 L 231.2,467.1 L 239.7,467.0 L 247.4,466.8 L 253.9,466.7 L 259.0,466.6 L 262.5,466.5 L 264.0,466.5 L 269.3,466.5 L 275.8,466.5 L 282.2,466.4 L 288.7,466.4 L 295.1,466.4 L 301.5,466.4 L 308.0,466.3 L 314.4,466.3 L 320.9,466.3 L 327.3,466.3 L 333.8,466.2 L 340.2,466.2 L 346.7,466.2 L 353.1,466.1 L 359.6,466.1 L 366.0,466.1 L 372.5,466.1 L 378.9,466.0 L 385.4,466.0 L 391.8,466.0 L 398.2,466.0 L 404.7,465.9 L 411.1,465.9 L 417.6,465.9 L 424.0,465.9 L 430.5,465.8 L 436.9,465.8 L 443.4,465.8 L 449.8,465.7 L 456.3,465.7 L 462.7,465.7 L 469.2,465.7 L 475.6,465.6 L 482.0,465.6 L 488.5,465.6 L 494.9,465.6 L 501.4,465.5 L 507.8,465.5 L 514.3,465.5 L 520.7,465.4 L 527.2,465.4 L 533.6,465.4 L 540.1,465.4 L 546.5,465.3 L 553.0,465.3 L 559.4,465.3 L 565.9,465.3 L 572.3,465.2 L 578.7,465.2" fill="none" stroke="url(#g)" stroke-width="75.0" stroke-linecap="round" stroke-linejoin="round"/>
<path d="M 585.2,465.2 L 591.6,465.1 L 598.1,465.0 L 604.5,465.0 L 611.0,464.9 L 617.4,464.8 L 623.9,464.8 L 630.3,464.7 L 636.8,464.6 L 643.2,464.6 L 649.7,464.5 L 656.1,464.4 L 662.5,464.3 L 669.0,464.3 L 675.4,464.2 L 681.9,464.1 L 688.3,464.1 L 694.8,464.0 L 701.2,463.9 L 707.7,463.8 L 714.1,463.8 L 720.6,463.7 L 727.0,463.6 L 733.5,463.6 L 739.9,463.5 L 746.3,463.4 L 752.8,463.4 L 759.2,463.3 L 765.7,463.2 L 772.1,463.1 L 778.6,463.1 L 785.0,463.0 L 789.4,463.0 L 792.8,462.9 L 799.0,462.6 L 807.0,462.1 L 815.5,461.3 L 823.4,460.2 L 829.9,458.6 L 836.1,456.5 L 842.2,454.1 L 848.1,451.4 L 853.8,448.5 L 859.3,445.6 L 865.2,442.5 L 871.0,439.2 L 876.5,435.8 L 881.7,432.2 L 886.6,428.4 L 891.5,423.9 L 896.1,419.0 L 900.3,413.9 L 903.9,408.9 L 907.2,403.5 L 910.1,397.6 L 912.2,391.8 L 913.8,385.8 L 915.1,379.5 L 915.9,373.1 L 916.2,366.6 L 916.0,360.2 L 915.1,353.8 L 913.7,347.5 L 911.5,340.3 L 908.7,333.0 L 907.2,329.3 L 904.9,323.3 L 902.6,317.3 L 900.3,311.3 L 897.9,305.3 L 895.6,299.3 L 893.3,293.3 L 890.9,287.3 L 888.6,281.3 L 887.7,276.9 L 890.0,268.7 L 894.0,263.6 L 899.1,260.0 L 904.0,257.7 L 909.7,256.3 L 917.8,255.9 L 924.3,255.8 L 930.7,255.6 L 937.0,255.6 L 943.4,255.5 L 949.1,255.4 L 955.0,255.3 L 962.4,255.2 L 968.8,255.0 L 974.4,254.6 L 980.6,254.1 L 988.6,253.5 L 994.7,251.0 L 998.3,246.1 L 999.6,242.7 L 999.7,240.4 L 999.8,236.7 L 999.9,231.7 L 999.9,225.5 L 1000.0,218.5 L 1000.0,210.7 L 1000.0,202.3 L 1000.0,193.5 L 1000.0,184.5 L 999.9,175.5 L 999.8,166.6 L 999.7,158.0 L 999.6,149.9 L 999.4,142.4 L 999.2,135.8 L 999.0,130.1 L 998.7,125.7 L 998.4,122.7 L 997.5,117.7 L 996.0,111.6 L 994.2,105.3 L 992.1,99.2 L 989.7,93.1 L 987.1,87.1 L 984.3,81.3 L 981.2,75.7 L 977.8,70.1 L 974.2,64.8 L 970.2,59.8 L 965.8,55.1 L 961.0,50.7 L 955.9,46.6 L 950.6,42.7 L 945.5,38.9 L 940.5,35.1 L 935.3,31.4 L 930.0,27.9 L 924.5,24.8 L 918.6,21.9 L 912.3,19.6 L 904.5,17.6 L 896.1,15.8 L 888.6,14.5 L 883.3,13.6 L 880.9,13.3 L 874.5,12.2 L 868.2,11.1 L 861.8,10.0 L 855.4,8.9 L 849.1,7.9 L 842.7,6.8 L 836.4,5.7 L 830.0,4.6 L 823.7,3.6 L 817.3,2.5 L 810.9,1.4 L 804.6,0.3 L 801.0,0.0 L 794.1,0.0 L 785.6,0.2 L 778.8,0.8 L 772.6,1.7 L 766.4,3.1 L 760.2,5.2 L 753.7,8.0 L 747.6,11.1 L 743.0,14.2 L 738.7,19.1 L 737.4,26.1 L 737.6,31.6 L 738.0,38.0 L 738.4,44.5 L 738.8,50.9 L 739.2,57.4 L 739.6,63.8 L 739.9,70.2 L 740.3,76.7 L 740.7,83.1 L 741.1,89.5 L 741.5,96.0 L 741.9,102.4 L 741.7,108.3 L 737.1,113.7 L 734.1,113.8 L 726.6,114.1 L 718.2,114.7 L 712.4,116.2 L 706.3,118.8 L 700.6,122.0 L 695.5,126.0 L 691.6,130.8 L 688.5,136.6 L 687.0,142.7 L 686.1,149.6 L 686.3,157.7 L 686.5,162.0 L 686.5,168.3 L 686.6,174.7 L 686.6,181.1 L 686.6,187.5 L 686.5,194.0 L 686.5,200.5 L 686.3,207.1 L 686.1,213.6 L 686.0,220.7 L 685.5,227.6 L 683.5,232.3 L 678.7,234.1 L 671.8,234.2 L 664.5,233.9 L 658.5,233.9 L 652.5,233.9 L 646.3,233.8 L 639.8,233.6 L 633.0,233.5 L 626.2,233.6 L 619.3,233.7 L 612.9,233.7 L 606.4,233.7 L 600.0,233.7 L 593.5,233.8 L 587.1,233.8 L 580.6,233.8 L 574.2,233.8 L 567.7,233.8 L 561.3,233.8 L 554.9,233.8 L 548.4,233.8 L 542.0,233.8 L 535.5,233.8 L 529.1,233.8 L 522.6,233.9 L 516.2,233.9 L 509.7,233.9 L 503.3,233.9 L 496.8,233.9 L 490.4,233.9 L 483.9,233.9 L 477.5,233.9 L 471.0,233.9 L 464.6,233.9 L 458.2,233.9 L 451.7,233.9 L 445.3,234.0 L 438.8,234.0 L 432.4,234.0 L 425.9,234.0 L 419.5,234.0 L 413.0,234.0 L 406.6,234.0 L 400.1,234.0 L 393.7,234.0 L 387.2,234.0 L 380.8,234.0 L 374.3,234.1 L 367.9,234.1 L 361.5,234.1 L 355.0,234.1 L 348.6,234.1 L 342.1,234.1 L 335.7,234.1 L 329.2,234.1 L 322.8,234.1 L 316.3,234.1 L 309.9,234.1 L 303.4,234.1 L 297.0,234.2 L 290.5,234.2 L 289.4,234.2 L 286.8,234.1 L 282.7,234.1 L 277.3,234.1 L 270.7,234.0 L 263.2,234.0 L 255.0,233.9 L 246.1,233.9 L 236.9,233.8 L 227.5,233.8 L 218.1,233.8 L 209.0,233.7 L 200.2,233.7 L 192.1,233.6 L 184.7,233.6 L 178.3,233.6 L 173.1,233.6 L 169.3,233.6 L 167.1,233.7 L 160.3,234.8 L 156.1,237.7 L 153.0,242.1 L 149.6,248.5 L 146.0,253.9 L 140.8,257.7 L 136.6,259.0 L 130.9,259.6 L 123.6,259.7 L 115.7,259.5 L 111.7,259.4 L 105.8,259.4 L 98.5,259.4 L 90.3,259.4 L 81.4,259.5 L 72.4,259.5 L 63.6,259.6 L 55.4,259.7 L 48.3,259.8 L 42.7,259.9 L 38.9,259.9 L 37.4,259.9 L 34.1,261.0 L 26.6,263.9 L 20.1,267.2 L 14.8,270.8 L 10.1,275.2 L 6.0,280.2 L 2.7,286.0 L 0.6,291.8 L 0.0,298.1 L 0.9,304.4 L 2.9,311.2 L 6.1,318.9 L 8.6,324.5 L 9.2,325.8 L 10.9,329.4 L 13.6,335.4 L 17.2,342.7 L 21.2,350.3 L 25.2,357.1 L 29.2,362.5 L 34.0,367.8 L 39.0,372.3 L 44.0,376.2 L 48.9,379.5 L 54.3,382.8 L 60.2,385.7 L 65.9,387.8 L 71.8,389.5 L 77.6,390.9 L 83.6,391.9 L 90.6,392.6 L 97.1,392.9 L 103.8,392.6 L 110.8,392.2 L 117.5,391.8 L 123.4,391.8 L 130.7,392.6 L 137.1,394.0 L 142.2,395.8 L 147.7,398.8 L 152.7,402.9 L 156.4,407.8 L 158.7,413.4 L 160.3,420.2 L 160.9,427.7 L 160.8,435.9 L 160.6,440.8 L 160.5,444.0 L 160.1,452.1 L 159.3,459.0 L 159.7,464.4 L 164.3,466.6 L 167.4,467.0 L 172.4,467.2 L 178.7,467.3 L 186.2,467.4 L 194.6,467.4 L 203.6,467.4 L 212.9,467.3 L 222.2,467.2 L 231.2,467.1 L 239.7,467.0 L 247.4,466.8 L 253.9,466.7 L 259.0,466.6 L 262.5,466.5 L 264.0,466.5 L 269.3,466.5 L 275.8,466.5 L 282.2,466.4 L 288.7,466.4 L 295.1,466.4 L 301.5,466.4 L 308.0,466.3 L 314.4,466.3 L 320.9,466.3 L 327.3,466.3 L 333.8,466.2 L 340.2,466.2 L 346.7,466.2 L 353.1,466.1 L 359.6,466.1 L 366.0,466.1 L 372.5,466.1 L 378.9,466.0 L 385.4,466.0 L 391.8,466.0 L 398.2,466.0 L 404.7,465.9 L 411.1,465.9 L 417.6,465.9 L 424.0,465.9 L 430.5,465.8 L 436.9,465.8 L 443.4,465.8 L 449.8,465.7 L 456.3,465.7 L 462.7,465.7 L 469.2,465.7 L 475.6,465.6 L 482.0,465.6 L 488.5,465.6 L 494.9,465.6 L 501.4,465.5 L 507.8,465.5 L 514.3,465.5 L 520.7,465.4 L 527.2,465.4 L 533.6,465.4 L 540.1,465.4 L 546.5,465.3 L 553.0,465.3 L 559.4,465.3 L 565.9,465.3 L 572.3,465.2 L 578.7,465.2" fill="none" stroke="#ffffff" stroke-opacity="0.92" stroke-width="7.5" stroke-linecap="round" stroke-linejoin="round"/>
<line x1="584.5" y1="397.7" x2="585.9" y2="532.7" stroke="#ffffff" stroke-width="10.5" stroke-linecap="round"/>
</svg>
