<svg xmlns="http://www.w3.org/2000/svg" viewBox="-90.0 -90.0 1180.0 846.4">
<defs><linearGradient id="g" gradientUnits="userSpaceOnUse" x1="-31.0" y1="-47.7" x2="1031.0" y2="714.1">
<stop offset="0" stop-color="#1c9fe0"/><stop offset="1" stop-color="#0b1f44"/></linearGradient></defs>
<path d="M 132.3,659.9 L 137.7,664.4 L 144.3,666.4 L 151.5,665.6 L 157.7,662.1 L 161.9,656.7 L 163.8,650.0 L 163.0,641.0 L 165.1,635.1 L 169.6,632.0 L 174.9,628.4 L 180.7,624.4 L 186.7,619.8 L 192.4,614.8 L 197.4,609.4 L 201.9,603.8 L 206.0,598.1 L 209.7,592.0 L 213.1,585.8 L 216.0,579.3 L 218.4,572.6 L 220.1,565.7 L 221.4,558.7 L 222.8,551.7 L 224.7,544.9 L 228.0,538.4 L 232.9,533.4 L 239.1,531.2 L 246.0,530.4 L 253.2,530.2 L 260.5,530.4 L 267.8,530.6 L 274.9,530.5 L 282.0,530.6 L 289.1,530.6 L 296.2,530.6 L 303.3,530.7 L 310.4,530.8 L 317.5,530.9 L 324.6,531.0 L 331.7,531.1 L 338.8,531.2 L 345.9,531.3 L 353.0,531.4 L 360.1,531.5 L 367.2,531.6 L 374.4,531.7 L 381.5,531.7 L 388.6,531.7 L 395.7,531.7 L 402.8,531.7 L 409.9,531.6 L 417.0,531.4 L 424.1,531.3 L 431.2,531.1 L 438.3,531.0 L 445.4,530.8 L 452.5,530.7 L 459.6,530.5 L 466.7,530.3 L 473.8,530.1 L 480.9,529.9 L 488.0,529.7 L 495.1,529.4 L 502.2,529.2 L 509.3,529.0 L 516.4,528.7 L 523.5,528.4 L 530.6,528.2 L 537.7,527.9 L 544.8,527.5 L 551.9,527.2 L 559.0,526.9 L 566.1,526.5 L 573.2,526.2 L 580.3,525.8 L 587.4,525.4 L 594.5,524.9 L 601.6,524.5 L 608.7,524.0 L 615.7,523.6 L 622.8,523.0 L 629.9,522.3 L 636.9,521.4 L 644.0,520.3 L 651.0,519.0 L 657.9,517.5 L 664.8,515.8 L 671.7,514.0 L 678.4,512.0 L 685.1,509.6 L 691.7,507.0 L 698.3,504.2 L 704.7,501.2 L 711.1,498.1 L 717.5,494.9 L 723.7,491.5 L 729.9,488.1 L 736.0,484.5 L 742.1,480.7 L 748.1,477.0 L 754.1,473.1 L 760.0,469.2 L 766.0,465.3 L 771.9,461.4 L 777.9,457.6 L 783.9,453.6 L 789.7,449.5 L 795.4,445.3 L 800.9,440.8 L 806.1,436.1 L 811.1,431.1 L 815.9,425.8 L 820.5,420.4 L 825.0,414.9 L 829.4,409.2 L 833.6,403.6 L 837.7,397.8 L 841.7,391.9 L 845.5,385.9 L 849.2,379.8 L 852.8,373.7 L 856.2,367.5 L 859.7,361.3 L 863.1,355.1 L 866.6,348.9 L 870.0,342.6 L 873.5,336.4 L 876.9,330.2 L 880.4,324.0 L 883.8,317.8 L 887.2,311.5 L 890.6,305.3 L 894.0,299.1 L 897.4,292.8 L 900.8,286.6 L 904.2,280.3 L 907.5,274.0 L 910.8,267.8 L 914.2,261.5 L 917.5,255.2 L 920.8,248.9 L 924.1,242.6 L 927.3,236.3 L 930.6,230.0 L 933.8,223.6 L 937.0,217.3 L 940.2,211.0 L 943.3,204.6 L 946.5,198.2 L 949.6,191.8 L 952.7,185.4 L 955.8,179.0 L 958.9,172.6 L 962.0,166.2 L 965.0,159.7 L 968.0,153.3 L 971.0,146.8 L 974.0,140.4 L 976.9,133.9 L 979.9,127.4 L 982.8,121.0 L 985.6,114.5 L 988.5,108.0 L 991.3,101.5 L 994.1,95.0 L 996.9,88.5 L 999.5,81.6 L 1000.0,73.7 L 998.0,66.1 L 994.3,60.3 L 989.4,57.7 L 984.3,59.6 L 980.7,65.1 L 978.2,72.6 L 976.4,80.1 L 974.4,86.9 L 971.2,93.9 L 967.1,99.8 L 961.8,103.7 L 955.3,106.2 L 948.5,107.8 L 941.5,108.7 L 934.2,109.3 L 927.0,110.0 L 920.0,110.4 L 912.8,110.2 L 905.6,109.5 L 898.7,108.1 L 892.0,106.2 L 885.4,103.2 L 879.4,99.2 L 875.0,94.0 L 871.4,87.5 L 868.1,81.2 L 865.0,75.0 L 862.0,68.8 L 859.1,62.6 L 856.3,56.3 L 853.4,50.0 L 850.4,43.4 L 847.3,36.7 L 844.3,30.1 L 841.1,23.3 L 837.6,16.5 L 833.7,10.3 L 829.3,5.5 L 824.0,2.2 L 816.9,0.0 L 809.7,0.1 L 803.0,2.7 L 796.1,5.4 L 789.4,8.1 L 782.6,10.8 L 775.9,13.5 L 769.2,16.1 L 762.6,18.8 L 756.0,21.4 L 749.4,24.0 L 742.9,26.7 L 736.3,29.3 L 729.8,31.9 L 723.3,34.5 L 716.8,37.1 L 710.3,39.7 L 703.9,42.4 L 697.4,45.0 L 690.9,47.6 L 684.4,50.3 L 677.9,53.0 L 671.4,55.7 L 664.9,58.4 L 658.4,61.1 L 651.9,63.9 L 645.3,66.7 L 638.7,69.5 L 632.1,72.4 L 625.6,75.2 L 619.1,78.1 L 612.6,80.9 L 606.1,83.8 L 599.6,86.7 L 593.1,89.6 L 586.6,92.5 L 580.2,95.4 L 573.7,98.3 L 567.2,101.3 L 560.8,104.2 L 554.3,107.2 L 547.9,110.2 L 541.4,113.2 L 535.0,116.3 L 528.6,119.3 L 522.2,122.4 L 515.8,125.5 L 509.4,128.6 L 503.0,131.7 L 496.7,134.9 L 490.3,138.1 L 484.0,141.3 L 477.7,144.5 L 471.2,147.8 L 464.7,151.2 L 458.2,154.6 L 451.8,158.0 L 445.4,161.3 L 439.0,164.7 L 432.7,168.1 L 426.4,171.5 L 420.1,174.9 L 413.8,178.3 L 407.6,181.7 L 401.4,185.1 L 395.2,188.5 L 389.0,191.9 L 382.8,195.3 L 376.7,198.7 L 370.5,202.1 L 364.4,205.5 L 358.3,208.9 L 352.2,212.3 L 346.0,215.8 L 339.9,219.2 L 333.8,222.6 L 327.7,226.0 L 321.5,229.4 L 315.4,232.9 L 309.2,236.3 L 303.5,240.6 L 299.7,246.9 L 298.0,254.2 L 298.4,261.0 L 301.1,267.1 L 304.5,273.5 L 307.9,279.8 L 311.3,286.2 L 314.7,292.5 L 318.1,298.8 L 321.4,305.0 L 324.8,311.3 L 328.1,317.5 L 331.5,323.7 L 334.8,329.9 L 338.1,336.1 L 341.4,342.3 L 344.7,348.5 L 347.9,354.8 L 351.2,361.0 L 354.4,367.2 L 357.6,373.5 L 360.8,379.8 L 364.0,386.1 L 367.2,392.4 L 370.3,398.8 L 373.4,405.2 L 376.6,411.7 L 379.6,418.1 L 382.7,424.7 L 385.6,431.4 L 388.2,438.1 L 390.4,444.8 L 392.4,451.5 L 394.0,458.3 L 395.5,465.1 L 396.9,472.1 L 398.1,479.1 L 398.9,486.2 L 398.2,493.8 L 396.0,500.8 L 392.3,505.8 L 386.5,509.0 L 379.6,510.4 L 371.9,510.7 L 364.7,510.5 L 357.6,510.3 L 350.4,510.1 L 343.3,509.9 L 336.2,509.7 L 329.0,509.5 L 321.9,509.2 L 314.8,509.0 L 307.7,508.7 L 300.6,508.5 L 293.4,508.2 L 286.3,508.0 L 279.2,507.7 L 272.2,507.4 L 265.1,507.2 L 258.0,506.9 L 250.9,506.6 L 243.8,506.3 L 236.7,506.0 L 229.6,505.7 L 222.6,505.4 L 215.5,505.1 L 208.4,504.8 L 201.3,504.5 L 194.3,504.1 L 187.2,503.8 L 180.1,503.5 L 173.0,503.2 L 166.0,502.8 L 158.9,502.5 L 151.8,502.2 L 144.7,501.8 L 137.6,501.5 L 130.5,501.1 L 123.4,500.8 L 116.3,500.5 L 109.2,500.1 L 102.1,499.7 L 95.0,499.2 L 87.8,498.7 L 80.6,498.3 L 73.4,497.9 L 66.3,497.5 L 59.1,497.2 L 52.0,497.1 L 45.0,497.2 L 38.0,497.4 L 31.0,497.8 L 24.3,498.6 L 18.2,501.8 L 12.7,507.0 L 8.3,512.7 L 5.1,518.4 L 3.0,525.1 L 1.8,532.3 L 1.1,539.6 L 0.6,546.6 L 0.2,553.7 L 0.0,560.8 L 0.0,567.9 L 0.2,575.0 L 0.5,582.1 L 0.9,589.2 L 1.5,596.4 L 2.2,603.5 L 3.0,610.5 L 4.0,617.6 L 5.0,624.5 L 6.6,631.3 L 10.3,638.3 L 15.4,642.3 L 21.9,642.7 L 28.8,643.0 L 35.7,643.3 L 42.6,643.5 L 49.7,643.7 L 56.8,644.0 L 63.9,644.2 L 71.1,644.6 L 78.3,645.0 L 85.5,645.5 L 92.7,646.2 L 99.9,647.0 L 107.2,647.9 L 114.3,649.1 L 120.9,651.3 L 127.2,655.0" fill="none" stroke="url(#g)" stroke-width="75.0" stroke-linecap="round" stroke-linejoin="round"/>
<path d="M 132.3,659.9 L 137.7,664.4 L 144.3,666.4 L 151.5,665.6 L 157.7,662.1 L 161.9,656.7 L 163.8,650.0 L 163.0,641.0 L 165.1,635.1 L 169.6,632.0 L 174.9,628.4 L 180.7,624.4 L 186.7,619.8 L 192.4,614.8 L 197.4,609.4 L 201.9,603.8 L 206.0,598.1 L 209.7,592.0 L 213.1,585.8 L 216.0,579.3 L 218.4,572.6 L 220.1,565.7 L 221.4,558.7 L 222.8,551.7 L 224.7,544.9 L 228.0,538.4 L 232.9,533.4 L 239.1,531.2 L 246.0,530.4 L 253.2,530.2 L 260.5,530.4 L 267.8,530.6 L 274.9,530.5 L 282.0,530.6 L 289.1,530.6 L 296.2,530.6 L 303.3,530.7 L 310.4,530.8 L 317.5,530.9 L 324.6,531.0 L 331.7,531.1 L 338.8,531.2 L 345.9,531.3 L 353.0,531.4 L 360.1,531.5 L 367.2,531.6 L 374.4,531.7 L 381.5,531.7 L 388.6,531.7 L 395.7,531.7 L 402.8,531.7 L 409.9,531.6 L 417.0,531.4 L 424.1,531.3 L 431.2,531.1 L 438.3,531.0 L 445.4,530.8 L 452.5,530.7 L 459.6,530.5 L 466.7,530.3 L 473.8,530.1 L 480.9,529.9 L 488.0,529.7 L 495.1,529.4 L 502.2,529.2 L 509.3,529.0 L 516.4,528.7 L 523.5,528.4 L 530.6,528.2 L 537.7,527.9 L 544.8,527.5 L 551.9,527.2 L 559.0,526.9 L 566.1,526.5 L 573.2,526.2 L 580.3,525.8 L 587.4,525.4 L 594.5,524.9 L 601.6,524.5 L 608.7,524.0 L 615.7,523.6 L 622.8,523.0 L 629.9,522.3 L 636.9,521.4 L 644.0,520.3 L 651.0,519.0 L 657.9,517.5 L 664.8,515.8 L 671.7,514.0 L 678.4,512.0 L 685.1,509.6 L 691.7,507.0 L 698.3,504.2 L 704.7,501.2 L 711.1,498.1 L 717.5,494.9 L 723.7,491.5 L 729.9,488.1 L 736.0,484.5 L 742.1,480.7 L 748.1,477.0 L 754.1,473.1 L 760.0,469.2 L 766.0,465.3 L 771.9,461.4 L 777.9,457.6 L 783.9,453.6 L 789.7,449.5 L 795.4,445.3 L 800.9,440.8 L 806.1,436.1 L 811.1,431.1 L 815.9,425.8 L 820.5,420.4 L 825.0,414.9 L 829.4,409.2 L 833.6,403.6 L 837.7,397.8 L 841.7,391.9 L 845.5,385.9 L 849.2,379.8 L 852.8,373.7 L 856.2,367.5 L 859.7,361.3 L 863.1,355.1 L 866.6,348.9 L 870.0,342.6 L 873.5,336.4 L 876.9,330.2 L 880.4,324.0 L 883.8,317.8 L 887.2,311.5 L 890.6,305.3 L 894.0,299.1 L 897.4,292.8 L 900.8,286.6 L 904.2,280.3 L 907.5,274.0 L 910.8,267.8 L 914.2,261.5 L 917.5,255.2 L 920.8,248.9 L 924.1,242.6 L 927.3,236.3 L 930.6,230.0 L 933.8,223.6 L 937.0,217.3 L 940.2,211.0 L 943.3,204.6 L 946.5,198.2 L 949.6,191.8 L 952.7,185.4 L 955.8,179.0 L 958.9,172.6 L 962.0,166.2 L 965.0,159.7 L 968.0,153.3 L 971.0,146.8 L 974.0,140.4 L 976.9,133.9 L 979.9,127.4 L 982.8,121.0 L 985.6,114.5 L 988.5,108.0 L 991.3,101.5 L 994.1,95.0 L 996.9,88.5 L 999.5,81.6 L 1000.0,73.7 L 998.0,66.1 L 994.3,60.3 L 989.4,57.7 L 984.3,59.6 L 980.7,65.1 L 978.2,72.6 L 976.4,80.1 L 974.4,86.9 L 971.2,93.9 L 967.1,99.8 L 961.8,103.7 L 955.3,106.2 L 948.5,107.8 L 941.5,108.7 L 934.2,109.3 L 927.0,110.0 L 920.0,110.4 L 912.8,110.2 L 905.6,109.5 L 898.7,108.1 L 892.0,106.2 L 885.4,103.2 L 879.4,99.2 L 875.0,94.0 L 871.4,87.5 L 868.1,81.2 L 865.0,75.0 L 862.0,68.8 L 859.1,62.6 L 856.3,56.3 L 853.4,50.0 L 850.4,43.4 L 847.3,36.7 L 844.3,30.1 L 841.1,23.3 L 837.6,16.5 L 833.7,10.3 L 829.3,5.5 L 824.0,2.2 L 816.9,0.0 L 809.7,0.1 L 803.0,2.7 L 796.1,5.4 L 789.4,8.1 L 782.6,10.8 L 775.9,13.5 L 769.2,16.1 L 762.6,18.8 L 756.0,21.4 L 749.4,24.0 L 742.9,26.7 L 736.3,29.3 L 729.8,31.9 L 723.3,34.5 L 716.8,37.1 L 710.3,39.7 L 703.9,42.4 L 697.4,45.0 L 690.9,47.6 L 684.4,50.3 L 677.9,53.0 L 671.4,55.7 L 664.9,58.4 L 658.4,61.1 L 651.9,63.9 L 645.3,66.7 L 638.7,69.5 L 632.1,72.4 L 625.6,75.2 L 619.1,78.1 L 612.6,80.9 L 606.1,83.8 L 599.6,86.7 L 593.1,89.6 L 586.6,92.5 L 580.2,95.4 L 573.7,98.3 L 567.2,101.3 L 560.8,104.2 L 554.3,107.2 L 547.9,110.2 L 541.4,113.2 L 535.0,116.3 L 528.6,119.3 L 522.2,122.4 L 515.8,125.5 L 509.4,128.6 L 503.0,131.7 L 496.7,134.9 L 490.3,138.1 L 484.0,141.3 L 477.7,144.5 L 471.2,147.8 L 464.7,151.2 L 458.2,154.6 L 451.8,158.0 L 445.4,161.3 L 439.0,164.7 L 432.7,168.1 L 426.4,171.5 L 420.1,174.9 L 413.8,178.3 L 407.6,181.7 L 401.4,185.1 L 395.2,188.5 L 389.0,191.9 L 382.8,195.3 L 376.7,198.7 L 370.5,202.1 L 364.4,205.5 L 358.3,208.9 L 352.2,212.3 L 346.0,215.8 L 339.9,219.2 L 333.8,222.6 L 327.7,226.0 L 321.5,229.4 L 315.4,232.9 L 309.2,236.3 L 303.5,240.6 L 299.7,246.9 L 298.0,254.2 L 298.4,261.0 L 301.1,267.1 L 304.5,273.5 L 307.9,279.8 L 311.3,286.2 L 314.7,292.5 L 318.1,298.8 L 321.4,305.0 L 324.8,311.3 L 328.1,317.5 L 331.5,323.7 L 334.8,329.9 L 338.1,336.1 L 341.4,342.3 L 344.7,348.5 L 347.9,354.8 L 351.2,361.0 L 354.4,367.2 L 357.6,373.5 L 360.8,379.8 L 364.0,386.1 L 367.2,392.4 L 370.3,398.8 L 373.4,405.2 L 376.6,411.7 L 379.6,418.1 L 382.7,424.7 L 385.6,431.4 L 388.2,438.1 L 390.4,444.8 L 392.4,451.5 L 394.0,458.3 L 395.5,465.1 L 396.9,472.1 L 398.1,479.1 L 398.9,486.2 L 398.2,493.8 L 396.0,500.8 L 392.3,505.8 L 386.5,509.0 L 379.6,510.4 L 371.9,510.7 L 364.7,510.5 L 357.6,510.3 L 350.4,510.1 L 343.3,509.9 L 336.2,509.7 L 329.0,509.5 L 321.9,509.2 L 314.8,509.0 L 307.7,508.7 L 300.6,508.5 L 293.4,508.2 L 286.3,508.0 L 279.2,507.7 L 272.2,507.4 L 265.1,507.2 L 258.0,506.9 L 250.9,506.6 L 243.8,506.3 L 236.7,506.0 L 229.6,505.7 L 222.6,505.4 L 215.5,505.1 L 208.4,504.8 L 201.3,504.5 L 194.3,504.1 L 187.2,503.8 L 180.1,503.5 L 173.0,503.2 L 166.0,502.8 L 158.9,502.5 L 151.8,502.2 L 144.7,501.8 L 137.6,501.5 L 130.5,501.1 L 123.4,500.8 L 116.3,500.5 L 109.2,500.1 L 102.1,499.7 L 95.0,499.2 L 87.8,498.7 L 80.6,498.3 L 73.4,497.9 L 66.3,497.5 L 59.1,497.2 L 52.0,497.1 L 45.0,497.2 L 38.0,497.4 L 31.0,497.8 L 24.3,498.6 L 18.2,501.8 L 12.7,507.0 L 8.3,512.7 L 5.1,518.4 L 3.0,525.1 L 1.8,532.3 L 1.1,539.6 L 0.6,546.6 L 0.2,553.7 L 0.0,560.8 L 0.0,567.9 L 0.2,575.0 L 0.5,582.1 L 0.9,589.2 L 1.5,596.4 L 2.2,603.5 L 3.0,610.5 L 4.0,617.6 L 5.0,624.5 L 6.6,631.3 L 10.3,638.3 L 15.4,642.3 L 21.9,642.7 L 28.8,643.0 L 35.7,643.3 L 42.6,643.5 L 49.7,643.7 L 56.8,644.0 L 63.9,644.2 L 71.1,644.6 L 78.3,645.0 L 85.5,645.5 L 92.7,646.2 L 99.9,647.0 L 107.2,647.9 L 114.3,649.1 L 120.9,651.3 L 127.2,655.0" fill="none" stroke="#ffffff" stroke-opacity="0.92" stroke-width="7.5" stroke-linecap="round" stroke-linejoin="round"/>
<line x1="151.5" y1="595.2" x2="113.0" y2="724.5" stroke="#ffffff" stroke-width="10.5" stroke-linecap="round"/>
</svg>
