<svg xmlns="http://www.w3.org/2000/svg" viewBox="-464.8 -1159.3 1619.3 1402.5">
<defs><linearGradient id="g" gradientUnits="userSpaceOnUse" x1="-387.9" y1="-1082.3" x2="1077.6" y2="166.3">
<stop offset="0" stop-color="#1c9fe0"/><stop offset="1" stop-color="#0b1f44"/></linearGradient></defs>
<path d="M 747.0,-182.8 L 729.5,-173.0 L 720.2,-167.8 L 709.8,-162.0 L 699.3,-156.2 L 687.8,-149.8 L 678.3,-144.4 L 667.6,-138.5 L 655.9,-131.9 L 646.2,-126.5 L 635.3,-120.5 L 624.4,-114.5 L 612.4,-107.8 L 602.4,-102.3 L 590.2,-95.6 L 580.2,-90.1 L 567.9,-83.3 L 556.6,-77.1 L 546.5,-71.4 L 535.2,-65.1 L 523.8,-58.8 L 512.3,-52.4 L 500.9,-46.1 L 489.3,-39.7 L 477.7,-33.3 L 466.1,-26.8 L 453.3,-19.7 L 442.8,-13.8 L 429.9,-6.5 L 419.4,-0.5 L 407.6,6.1 L 395.9,12.8 L 384.0,19.6 L 372.2,26.3 L 360.2,33.0 L 348.3,39.7 L 335.2,47.1 L 323.2,53.9 L 312.3,60.0 L 300.3,66.7 L 288.2,73.5 L 276.1,80.4 L 263.9,87.2 L 251.8,94.1 L 239.9,100.8 L 228.5,107.2 L 216.4,114.0 L 206.8,119.4 L 196.6,125.1 L 185.8,131.0 L 177.4,135.6 L 168.3,140.4 L 158.7,145.4 L 151.1,149.1 L 143.0,152.9 L 135.2,156.3 L 126.8,159.4 L 119.3,161.9 L 112.7,163.6 L 104.9,165.1 L 98.7,165.9 L 92.0,166.3 L 85.6,166.1 L 79.4,165.3 L 73.4,164.1 L 67.7,162.2 L 62.3,159.9 L 57.2,157.1 L 52.4,153.9 L 47.6,149.9 L 44.1,146.2 L 40.6,141.8 L 37.5,137.1 L 34.6,131.6 L 32.5,126.3 L 30.9,121.4 L 29.5,115.1 L 28.8,109.3 L 28.6,104.0 L 28.8,98.1 L 29.6,92.1 L 30.9,86.0 L 32.9,79.1 L 34.9,73.4 L 37.7,66.3 L 40.4,60.4 L 43.7,53.9 L 47.4,47.4 L 51.5,40.9 L 55.9,34.5 L 60.7,28.0 L 65.7,21.6 L 71.5,14.4 L 76.9,7.9 L 81.9,1.8 L 87.4,-5.1 L 92.8,-12.2 L 98.2,-19.6 L 103.6,-27.6 L 107.6,-34.1 L 111.7,-41.2 L 115.2,-48.2 L 118.5,-55.8 L 120.8,-61.9 L 122.8,-68.7 L 124.4,-76.0 L 125.3,-82.0 L 125.7,-88.4 L 125.7,-94.7 L 125.1,-100.7 L 124.0,-106.5 L 122.3,-112.2 L 120.3,-117.6 L 117.5,-123.2 L 114.9,-127.6 L 111.6,-132.1 L 107.9,-136.3 L 103.9,-140.1 L 99.6,-143.7 L 94.9,-147.0 L 89.4,-150.1 L 84.6,-152.4 L 79.0,-154.6 L 73.1,-156.5 L 66.9,-158.0 L 60.5,-159.2 L 53.9,-159.9 L 46.5,-160.3 L 40.3,-160.4 L 33.2,-160.2 L 25.1,-159.9 L 17.6,-159.4 L 9.9,-158.6 L 2.2,-157.7 L -5.0,-156.7 L -13.1,-155.6 L -21.3,-154.6 L -29.8,-153.7 L -38.4,-153.1 L -47.0,-153.0 L -55.5,-153.3 L -63.9,-154.1 L -73.1,-155.6 L -80.6,-157.3 L -89.9,-159.8 L -97.5,-162.3 L -106.8,-165.9 L -114.3,-169.2 L -122.6,-173.3 L -130.8,-177.9 L -138.8,-183.0 L -146.7,-188.5 L -154.4,-194.4 L -162.0,-200.6 L -169.6,-207.1 L -177.1,-213.8 L -184.7,-220.6 L -192.4,-227.6 L -200.2,-234.6 L -208.0,-241.7 L -216.0,-248.8 L -224.8,-256.8 L -232.9,-264.1 L -240.2,-270.7 L -248.5,-278.2 L -257.6,-286.4 L -266.0,-294.0 L -273.5,-300.8 L -282.1,-308.4 L -290.7,-316.1 L -299.3,-323.8 L -308.0,-331.6 L -316.7,-339.5 L -326.1,-348.0 L -333.4,-354.7 L -341.0,-362.0 L -348.1,-369.1 L -354.7,-376.1 L -360.7,-382.9 L -366.2,-389.6 L -371.0,-396.3 L -375.7,-403.5 L -378.9,-409.3 L -382.2,-416.4 L -384.3,-422.0 L -386.1,-428.2 L -387.4,-434.9 L -387.9,-440.3 L -387.8,-446.3 L -387.1,-452.7 L -386.0,-457.9 L -384.4,-463.5 L -382.0,-469.8 L -379.7,-475.0 L -376.5,-480.7 L -372.8,-486.3 L -368.8,-492.0 L -364.6,-497.8 L -360.0,-503.6 L -355.1,-509.4 L -349.9,-515.0 L -344.3,-520.5 L -338.3,-525.8 L -332.1,-530.7 L -325.6,-535.1 L -318.9,-539.0 L -312.2,-542.4 L -305.3,-545.3 L -297.6,-547.9 L -291.3,-549.4 L -284.3,-550.6 L -276.8,-551.1 L -270.6,-551.0 L -264.0,-550.3 L -257.4,-549.0 L -251.0,-547.2 L -244.6,-544.9 L -238.3,-542.0 L -231.3,-538.3 L -225.8,-534.7 L -219.6,-530.4 L -213.6,-525.6 L -207.6,-520.4 L -201.1,-514.4 L -195.8,-509.3 L -189.9,-503.3 L -183.4,-496.5 L -178.0,-490.8 L -172.0,-484.2 L -165.9,-477.5 L -159.8,-470.8 L -152.9,-463.3 L -147.1,-457.1 L -140.6,-450.2 L -133.9,-443.3 L -127.1,-436.5 L -120.6,-430.2 L -114.2,-424.2 L -108.1,-418.8 L -102.3,-413.8 L -96.6,-409.3 L -90.5,-405.0 L -85.6,-402.1 L -79.8,-399.0 L -75.1,-397.1 L -70.0,-395.5 L -65.1,-394.5 L -60.3,-394.1 L -55.6,-394.2 L -51.3,-395.0 L -47.2,-396.2 L -43.6,-397.8 L -40.3,-399.9 L -37.1,-402.6 L -34.5,-405.4 L -32.5,-408.1 L -30.6,-411.6 L -29.2,-415.0 L -28.2,-418.2 L -27.5,-422.1 L -27.1,-426.5 L -27.2,-430.3 L -27.8,-435.2 L -28.6,-439.3 L -30.0,-444.0 L -31.7,-448.8 L -33.6,-453.8 L -35.6,-459.0 L -37.8,-464.5 L -40.2,-470.1 L -42.8,-475.9 L -45.5,-481.9 L -48.3,-488.1 L -51.3,-494.5 L -54.3,-501.1 L -57.7,-508.5 L -60.6,-514.8 L -64.2,-522.5 L -67.2,-529.0 L -70.7,-536.3 L -74.3,-543.8 L -78.0,-551.4 L -81.9,-559.1 L -86.2,-567.7 L -89.8,-574.9 L -93.9,-583.0 L -98.0,-591.3 L -102.1,-599.7 L -106.2,-608.2 L -110.4,-616.8 L -114.9,-626.5 L -118.5,-634.5 L -122.2,-643.4 L -125.7,-652.1 L -128.8,-660.5 L -131.8,-669.4 L -133.9,-676.4 L -135.9,-684.6 L -137.2,-691.1 L -138.2,-698.0 L -138.8,-704.7 L -139.0,-711.2 L -138.8,-718.0 L -138.2,-723.2 L -137.0,-728.8 L -135.5,-734.2 L -133.5,-739.3 L -130.7,-744.5 L -128.1,-748.6 L -124.5,-753.1 L -121.2,-756.5 L -117.2,-760.0 L -112.4,-763.5 L -108.2,-766.1 L -103.4,-768.6 L -98.4,-770.6 L -93.3,-772.1 L -88.1,-773.2 L -82.8,-773.8 L -77.5,-774.0 L -72.2,-773.7 L -66.9,-772.9 L -61.5,-771.6 L -56.0,-769.9 L -50.1,-767.3 L -45.2,-764.8 L -39.9,-761.5 L -34.8,-757.6 L -29.7,-753.3 L -24.6,-748.6 L -19.5,-743.8 L -13.5,-738.3 L -8.5,-733.8 L -2.7,-728.7 L 3.3,-723.7 L 9.6,-718.7 L 16.1,-713.8 L 23.6,-708.4 L 30.7,-703.7 L 37.3,-699.5 L 44.8,-694.9 L 52.6,-690.5 L 61.5,-685.8 L 69.1,-682.2 L 77.7,-678.5 L 86.5,-675.1 L 96.5,-671.6 L 104.8,-668.9 L 114.1,-665.9 L 123.2,-662.9 L 132.0,-659.8 L 140.2,-656.6 L 148.7,-652.8 L 155.2,-649.6 L 161.8,-645.9 L 167.8,-642.0 L 173.2,-638.0 L 178.4,-633.4 L 182.3,-629.5 L 186.1,-624.9 L 189.7,-619.8 L 193.0,-614.3 L 196.1,-608.4 L 199.0,-602.1 L 201.8,-595.4 L 204.6,-588.6 L 207.1,-581.4 L 209.5,-574.0 L 211.6,-566.4 L 213.4,-558.6 L 215.1,-549.7 L 216.5,-542.2 L 217.8,-533.8 L 219.0,-525.3 L 220.1,-517.1 L 221.1,-509.5 L 222.2,-502.4 L 223.2,-495.8 L 224.5,-489.1 L 225.7,-484.1 L 227.2,-479.0 L 229.0,-473.8 L 230.8,-469.9 L 232.9,-465.9 L 235.4,-462.2 L 238.1,-458.8 L 241.4,-455.4 L 244.3,-453.0 L 247.7,-450.6 L 251.6,-448.3 L 254.9,-446.7 L 259.1,-445.2 L 263.0,-444.2 L 266.6,-443.6 L 270.9,-443.1 L 275.3,-442.9 L 279.9,-443.0 L 285.2,-443.5 L 289.6,-444.3 L 294.5,-445.5 L 299.4,-447.2 L 304.4,-449.3 L 309.3,-451.8 L 314.2,-454.8 L 319.1,-458.2 L 324.3,-462.4 L 328.6,-466.0 L 333.4,-470.4 L 338.2,-475.1 L 342.9,-480.1 L 347.6,-485.5 L 352.6,-491.8 L 356.6,-497.3 L 361.1,-503.6 L 365.4,-510.2 L 369.5,-517.1 L 373.5,-524.2 L 377.4,-531.5 L 381.1,-539.1 L 384.7,-547.0 L 388.6,-555.8 L 391.6,-563.3 L 394.8,-571.8 L 398.1,-581.3 L 400.7,-589.3 L 403.5,-598.4 L 406.3,-608.6 L 408.6,-618.1 L 410.6,-626.8 L 412.5,-636.5 L 414.1,-646.4 L 415.5,-656.5 L 416.6,-666.7 L 417.5,-677.0 L 418.2,-687.5 L 418.7,-698.1 L 418.9,-708.8 L 418.9,-719.6 L 418.5,-730.5 L 417.9,-741.4 L 417.0,-752.5 L 415.8,-763.6 L 414.3,-774.8 L 412.6,-786.0 L 410.8,-797.3 L 408.9,-808.7 L 406.8,-821.3 L 405.0,-832.8 L 403.5,-843.2 L 401.9,-854.4 L 400.4,-865.1 L 399.0,-875.3 L 397.7,-885.0 L 396.6,-894.2 L 395.8,-903.0 L 395.1,-911.5 L 394.7,-920.4 L 394.7,-927.6 L 395.0,-935.5 L 395.7,-943.2 L 396.7,-950.8 L 398.2,-958.4 L 400.2,-965.9 L 402.6,-973.4 L 405.5,-980.7 L 408.8,-987.7 L 412.7,-994.5 L 417.1,-1001.2 L 422.5,-1008.4 L 427.3,-1014.2 L 433.5,-1021.1 L 439.6,-1027.2 L 445.5,-1032.6 L 452.3,-1038.3 L 459.5,-1043.9 L 467.0,-1049.2 L 475.6,-1054.8 L 482.9,-1059.1 L 491.3,-1063.6 L 499.8,-1067.7 L 508.1,-1071.3 L 517.1,-1074.6 L 525.1,-1077.2 L 532.0,-1079.1 L 540.3,-1080.8 L 547.1,-1081.8 L 554.6,-1082.3 L 562.1,-1082.3 L 569.8,-1081.7 L 577.5,-1080.6 L 585.3,-1079.0 L 593.2,-1076.8 L 601.9,-1074.0 L 609.0,-1071.4 L 617.8,-1067.8 L 625.7,-1064.1 L 632.9,-1060.4 L 640.9,-1056.2 L 649.7,-1051.2 L 656.9,-1047.0 L 665.0,-1042.2 L 673.9,-1036.7 L 680.8,-1031.9 L 688.3,-1026.4 L 695.4,-1020.7 L 702.0,-1014.8 L 708.2,-1008.9 L 714.0,-1002.8 L 719.8,-995.8 L 724.1,-989.9 L 728.8,-982.4 L 732.1,-976.0 L 735.2,-968.8 L 737.9,-960.7 L 739.6,-954.0 L 741.0,-946.2 L 742.0,-937.4 L 742.5,-930.1 L 742.6,-921.7 L 742.3,-913.2 L 741.7,-904.6 L 740.6,-895.0 L 739.6,-887.0 L 738.2,-878.1 L 736.7,-869.0 L 734.9,-859.9 L 732.9,-850.9 L 730.5,-840.9 L 728.5,-832.7 L 725.9,-822.6 L 723.6,-814.2 L 720.4,-803.9 L 717.7,-795.4 L 714.5,-785.9 L 711.4,-776.4 L 708.4,-767.3 L 705.7,-758.6 L 703.1,-749.5 L 701.1,-742.5 L 699.2,-735.1 L 697.6,-728.0 L 696.2,-721.2 L 695.1,-714.5 L 694.4,-707.7 L 694.0,-701.0 L 694.1,-694.4 L 694.8,-687.8 L 696.1,-680.7 L 697.6,-674.9 L 699.8,-668.6 L 702.5,-662.5 L 705.8,-656.4 L 709.6,-650.5 L 713.9,-644.7 L 719.2,-638.5 L 724.1,-633.6 L 729.8,-628.4 L 736.7,-623.0 L 742.6,-618.7 L 749.5,-614.1 L 756.7,-609.7 L 765.0,-605.2 L 772.0,-601.6 L 780.1,-597.8 L 788.3,-593.9 L 796.6,-590.0 L 805.1,-586.1 L 813.7,-582.1 L 823.3,-577.6 L 831.3,-573.9 L 840.2,-569.7 L 850.1,-565.1 L 858.4,-561.3 L 868.6,-556.5 L 877.0,-552.6 L 886.5,-548.3 L 897.0,-543.4 L 905.7,-539.4 L 916.5,-534.5 L 925.4,-530.4 L 935.3,-525.7 L 945.3,-521.1 L 956.5,-515.9 L 965.7,-511.6 L 975.9,-506.8 L 985.8,-502.2 L 995.1,-497.8 L 1004.0,-493.6 L 1012.4,-489.5 L 1020.1,-485.6 L 1027.3,-481.7 L 1034.6,-477.5 L 1040.0,-474.1 L 1045.7,-470.3 L 1050.8,-466.5 L 1055.8,-462.1 L 1059.5,-458.4 L 1063.2,-454.2 L 1066.6,-449.8 L 1069.5,-445.2 L 1072.0,-440.5 L 1074.1,-435.6 L 1075.6,-430.7 L 1076.7,-425.7 L 1077.4,-420.7 L 1077.6,-415.7 L 1077.4,-410.7 L 1076.8,-405.6 L 1075.8,-400.3 L 1074.2,-394.3 L 1072.5,-389.4 L 1070.2,-383.9 L 1067.6,-378.5 L 1064.5,-373.3 L 1061.0,-368.4 L 1057.1,-363.5 L 1052.8,-358.8 L 1047.5,-353.8 L 1042.2,-349.4 L 1037.1,-345.6 L 1031.1,-341.5 L 1024.9,-337.4 L 1018.3,-333.5 L 1011.5,-329.6 L 1003.8,-325.3 L 997.3,-321.9 L 989.3,-317.6 L 982.6,-314.0 L 975.0,-309.9 L 967.3,-305.7 L 959.5,-301.4 L 950.8,-296.5 L 943.5,-292.5 L 935.4,-287.9 L 927.1,-283.2 L 918.7,-278.5 L 910.2,-273.7 L 900.7,-268.4 L 892.9,-264.0 L 883.2,-258.6 L 875.1,-254.1 L 865.2,-248.5 L 857.0,-244.0 L 847.7,-238.8 L 838.4,-233.6 L 829.0,-228.3 L 819.5,-222.9 L 808.9,-217.0 L 800.2,-212.1 L 790.4,-206.6 L 780.5,-201.0 L 770.6,-195.5 L 759.5,-189.4 L 749.4,-183.7" fill="none" stroke="url(#g)" stroke-width="102.6" stroke-linecap="round" stroke-linejoin="round"/>
<path d="M 747.0,-182.8 L 729.5,-173.0 L 720.2,-167.8 L 709.8,-162.0 L 699.3,-156.2 L 687.8,-149.8 L 678.3,-144.4 L 667.6,-138.5 L 655.9,-131.9 L 646.2,-126.5 L 635.3,-120.5 L 624.4,-114.5 L 612.4,-107.8 L 602.4,-102.3 L 590.2,-95.6 L 580.2,-90.1 L 567.9,-83.3 L 556.6,-77.1 L 546.5,-71.4 L 535.2,-65.1 L 523.8,-58.8 L 512.3,-52.4 L 500.9,-46.1 L 489.3,-39.7 L 477.7,-33.3 L 466.1,-26.8 L 453.3,-19.7 L 442.8,-13.8 L 429.9,-6.5 L 419.4,-0.5 L 407.6,6.1 L 395.9,12.8 L 384.0,19.6 L 372.2,26.3 L 360.2,33.0 L 348.3,39.7 L 335.2,47.1 L 323.2,53.9 L 312.3,60.0 L 300.3,66.7 L 288.2,73.5 L 276.1,80.4 L 263.9,87.2 L 251.8,94.1 L 239.9,100.8 L 228.5,107.2 L 216.4,114.0 L 206.8,119.4 L 196.6,125.1 L 185.8,131.0 L 177.4,135.6 L 168.3,140.4 L 158.7,145.4 L 151.1,149.1 L 143.0,152.9 L 135.2,156.3 L 126.8,159.4 L 119.3,161.9 L 112.7,163.6 L 104.9,165.1 L 98.7,165.9 L 92.0,166.3 L 85.6,166.1 L 79.4,165.3 L 73.4,164.1 L 67.7,162.2 L 62.3,159.9 L 57.2,157.1 L 52.4,153.9 L 47.6,149.9 L 44.1,146.2 L 40.6,141.8 L 37.5,137.1 L 34.6,131.6 L 32.5,126.3 L 30.9,121.4 L 29.5,115.1 L 28.8,109.3 L 28.6,104.0 L 28.8,98.1 L 29.6,92.1 L 30.9,86.0 L 32.9,79.1 L 34.9,73.4 L 37.7,66.3 L 40.4,60.4 L 43.7,53.9 L 47.4,47.4 L 51.5,40.9 L 55.9,34.5 L 60.7,28.0 L 65.7,21.6 L 71.5,14.4 L 76.9,7.9 L 81.9,1.8 L 87.4,-5.1 L 92.8,-12.2 L 98.2,-19.6 L 103.6,-27.6 L 107.6,-34.1 L 111.7,-41.2 L 115.2,-48.2 L 118.5,-55.8 L 120.8,-61.9 L 122.8,-68.7 L 124.4,-76.0 L 125.3,-82.0 L 125.7,-88.4 L 125.7,-94.7 L 125.1,-100.7 L 124.0,-106.5 L 122.3,-112.2 L 120.3,-117.6 L 117.5,-123.2 L 114.9,-127.6 L 111.6,-132.1 L 107.9,-136.3 L 103.9,-140.1 L 99.6,-143.7 L 94.9,-147.0 L 89.4,-150.1 L 84.6,-152.4 L 79.0,-154.6 L 73.1,-156.5 L 66.9,-158.0 L 60.5,-159.2 L 53.9,-159.9 L 46.5,-160.3 L 40.3,-160.4 L 33.2,-160.2 L 25.1,-159.9 L 17.6,-159.4 L 9.9,-158.6 L 2.2,-157.7 L -5.0,-156.7 L -13.1,-155.6 L -21.3,-154.6 L -29.8,-153.7 L -38.4,-153.1 L -47.0,-153.0 L -55.5,-153.3 L -63.9,-154.1 L -73.1,-155.6 L -80.6,-157.3 L -89.9,-159.8 L -97.5,-162.3 L -106.8,-165.9 L -114.3,-169.2 L -122.6,-173.3 L -130.8,-177.9 L -138.8,-183.0 L -146.7,-188.5 L -154.4,-194.4 L -162.0,-200.6 L -169.6,-207.1 L -177.1,-213.8 L -184.7,-220.6 L -192.4,-227.6 L -200.2,-234.6 L -208.0,-241.7 L -216.0,-248.8 L -224.8,-256.8 L -232.9,-264.1 L -240.2,-270.7 L -248.5,-278.2 L -257.6,-286.4 L -266.0,-294.0 L -273.5,-300.8 L -282.1,-308.4 L -290.7,-316.1 L -299.3,-323.8 L -308.0,-331.6 L -316.7,-339.5 L -326.1,-348.0 L -333.4,-354.7 L -341.0,-362.0 L -348.1,-369.1 L -354.7,-376.1 L -360.7,-382.9 L -366.2,-389.6 L -371.0,-396.3 L -375.7,-403.5 L -378.9,-409.3 L -382.2,-416.4 L -384.3,-422.0 L -386.1,-428.2 L -387.4,-434.9 L -387.9,-440.3 L -387.8,-446.3 L -387.1,-452.7 L -386.0,-457.9 L -384.4,-463.5 L -382.0,-469.8 L -379.7,-475.0 L -376.5,-480.7 L -372.8,-486.3 L -368.8,-492.0 L -364.6,-497.8 L -360.0,-503.6 L -355.1,-509.4 L -349.9,-515.0 L -344.3,-520.5 L -338.3,-525.8 L -332.1,-530.7 L -325.6,-535.1 L -318.9,-539.0 L -312.2,-542.4 L -305.3,-545.3 L -297.6,-547.9 L -291.3,-549.4 L -284.3,-550.6 L -276.8,-551.1 L -270.6,-551.0 L -264.0,-550.3 L -257.4,-549.0 L -251.0,-547.2 L -244.6,-544.9 L -238.3,-542.0 L -231.3,-538.3 L -225.8,-534.7 L -219.6,-530.4 L -213.6,-525.6 L -207.6,-520.4 L -201.1,-514.4 L -195.8,-509.3 L -189.9,-503.3 L -183.4,-496.5 L -178.0,-490.8 L -172.0,-484.2 L -165.9,-477.5 L -159.8,-470.8 L -152.9,-463.3 L -147.1,-457.1 L -140.6,-450.2 L -133.9,-443.3 L -127.1,-436.5 L -120.6,-430.2 L -114.2,-424.2 L -108.1,-418.8 L -102.3,-413.8 L -96.6,-409.3 L -90.5,-405.0 L -85.6,-402.1 L -79.8,-399.0 L -75.1,-397.1 L -70.0,-395.5 L -65.1,-394.5 L -60.3,-394.1 L -55.6,-394.2 L -51.3,-395.0 L -47.2,-396.2 L -43.6,-397.8 L -40.3,-399.9 L -37.1,-402.6 L -34.5,-405.4 L -32.5,-408.1 L -30.6,-411.6 L -29.2,-415.0 L -28.2,-418.2 L -27.5,-422.1 L -27.1,-426.5 L -27.2,-430.3 L -27.8,-435.2 L -28.6,-439.3 L -30.0,-444.0 L -31.7,-448.8 L -33.6,-453.8 L -35.6,-459.0 L -37.8,-464.5 L -40.2,-470.1 L -42.8,-475.9 L -45.5,-481.9 L -48.3,-488.1 L -51.3,-494.5 L -54.3,-501.1 L -57.7,-508.5 L -60.6,-514.8 L -64.2,-522.5 L -67.2,-529.0 L -70.7,-536.3 L -74.3,-543.8 L -78.0,-551.4 L -81.9,-559.1 L -86.2,-567.7 L -89.8,-574.9 L -93.9,-583.0 L -98.0,-591.3 L -102.1,-599.7 L -106.2,-608.2 L -110.4,-616.8 L -114.9,-626.5 L -118.5,-634.5 L -122.2,-643.4 L -125.7,-652.1 L -128.8,-660.5 L -131.8,-669.4 L -133.9,-676.4 L -135.9,-684.6 L -137.2,-691.1 L -138.2,-698.0 L -138.8,-704.7 L -139.0,-711.2 L -138.8,-718.0 L -138.2,-723.2 L -137.0,-728.8 L -135.5,-734.2 L -133.5,-739.3 L -130.7,-744.5 L -128.1,-748.6 L -124.5,-753.1 L -121.2,-756.5 L -117.2,-760.0 L -112.4,-763.5 L -108.2,-766.1 L -103.4,-768.6 L -98.4,-770.6 L -93.3,-772.1 L -88.1,-773.2 L -82.8,-773.8 L -77.5,-774.0 L -72.2,-773.7 L -66.9,-772.9 L -61.5,-771.6 L -56.0,-769.9 L -50.1,-767.3 L -45.2,-764.8 L -39.9,-761.5 L -34.8,-757.6 L -29.7,-753.3 L -24.6,-748.6 L -19.5,-743.8 L -13.5,-738.3 L -8.5,-733.8 L -2.7,-728.7 L 3.3,-723.7 L 9.6,-718.7 L 16.1,-713.8 L 23.6,-708.4 L 30.7,-703.7 L 37.3,-699.5 L 44.8,-694.9 L 52.6,-690.5 L 61.5,-685.8 L 69.1,-682.2 L 77.7,-678.5 L 86.5,-675.1 L 96.5,-671.6 L 104.8,-668.9 L 114.1,-665.9 L 123.2,-662.9 L 132.0,-659.8 L 140.2,-656.6 L 148.7,-652.8 L 155.2,-649.6 L 161.8,-645.9 L 167.8,-642.0 L 173.2,-638.0 L 178.4,-633.4 L 182.3,-629.5 L 186.1,-624.9 L 189.7,-619.8 L 193.0,-614.3 L 196.1,-608.4 L 199.0,-602.1 L 201.8,-595.4 L 204.6,-588.6 L 207.1,-581.4 L 209.5,-574.0 L 211.6,-566.4 L 213.4,-558.6 L 215.1,-549.7 L 216.5,-542.2 L 217.8,-533.8 L 219.0,-525.3 L 220.1,-517.1 L 221.1,-509.5 L 222.2,-502.4 L 223.2,-495.8 L 224.5,-489.1 L 225.7,-484.1 L 227.2,-479.0 L 229.0,-473.8 L 230.8,-469.9 L 232.9,-465.9 L 235.4,-462.2 L 238.1,-458.8 L 241.4,-455.4 L 244.3,-453.0 L 247.7,-450.6 L 251.6,-448.3 L 254.9,-446.7 L 259.1,-445.2 L 263.0,-444.2 L 266.6,-443.6 L 270.9,-443.1 L 275.3,-442.9 L 279.9,-443.0 L 285.2,-443.5 L 289.6,-444.3 L 294.5,-445.5 L 299.4,-447.2 L 304.4,-449.3 L 309.3,-451.8 L 314.2,-454.8 L 319.1,-458.2 L 324.3,-462.4 L 328.6,-466.0 L 333.4,-470.4 L 338.2,-475.1 L 342.9,-480.1 L 347.6,-485.5 L 352.6,-491.8 L 356.6,-497.3 L 361.1,-503.6 L 365.4,-510.2 L 369.5,-517.1 L 373.5,-524.2 L 377.4,-531.5 L 381.1,-539.1 L 384.7,-547.0 L 388.6,-555.8 L 391.6,-563.3 L 394.8,-571.8 L 398.1,-581.3 L 400.7,-589.3 L 403.5,-598.4 L 406.3,-608.6 L 408.6,-618.1 L 410.6,-626.8 L 412.5,-636.5 L 414.1,-646.4 L 415.5,-656.5 L 416.6,-666.7 L 417.5,-677.0 L 418.2,-687.5 L 418.7,-698.1 L 418.9,-708.8 L 418.9,-719.6 L 418.5,-730.5 L 417.9,-741.4 L 417.0,-752.5 L 415.8,-763.6 L 414.3,-774.8 L 412.6,-786.0 L 410.8,-797.3 L 408.9,-808.7 L 406.8,-821.3 L 405.0,-832.8 L 403.5,-843.2 L 401.9,-854.4 L 400.4,-865.1 L 399.0,-875.3 L 397.7,-885.0 L 396.6,-894.2 L 395.8,-903.0 L 395.1,-911.5 L 394.7,-920.4 L 394.7,-927.6 L 395.0,-935.5 L 395.7,-943.2 L 396.7,-950.8 L 398.2,-958.4 L 400.2,-965.9 L 402.6,-973.4 L 405.5,-980.7 L 408.8,-987.7 L 412.7,-994.5 L 417.1,-1001.2 L 422.5,-1008.4 L 427.3,-1014.2 L 433.5,-1021.1 L 439.6,-1027.2 L 445.5,-1032.6 L 452.3,-1038.3 L 459.5,-1043.9 L 467.0,-1049.2 L 475.6,-1054.8 L 482.9,-1059.1 L 491.3,-1063.6 L 499.8,-1067.7 L 508.1,-1071.3 L 517.1,-1074.6 L 525.1,-1077.2 L 532.0,-1079.1 L 540.3,-1080.8 L 547.1,-1081.8 L 554.6,-1082.3 L 562.1,-1082.3 L 569.8,-1081.7 L 577.5,-1080.6 L 585.3,-1079.0 L 593.2,-1076.8 L 601.9,-1074.0 L 609.0,-1071.4 L 617.8,-1067.8 L 625.7,-1064.1 L 632.9,-1060.4 L 640.9,-1056.2 L 649.7,-1051.2 L 656.9,-1047.0 L 665.0,-1042.2 L 673.9,-1036.7 L 680.8,-1031.9 L 688.3,-1026.4 L 695.4,-1020.7 L 702.0,-1014.8 L 708.2,-1008.9 L 714.0,-1002.8 L 719.8,-995.8 L 724.1,-989.9 L 728.8,-982.4 L 732.1,-976.0 L 735.2,-968.8 L 737.9,-960.7 L 739.6,-954.0 L 741.0,-946.2 L 742.0,-937.4 L 742.5,-930.1 L 742.6,-921.7 L 742.3,-913.2 L 741.7,-904.6 L 740.6,-895.0 L 739.6,-887.0 L 738.2,-878.1 L 736.7,-869.0 L 734.9,-859.9 L 732.9,-850.9 L 730.5,-840.9 L 728.5,-832.7 L 725.9,-822.6 L 723.6,-814.2 L 720.4,-803.9 L 717.7,-795.4 L 714.5,-785.9 L 711.4,-776.4 L 708.4,-767.3 L 705.7,-758.6 L 703.1,-749.5 L 701.1,-742.5 L 699.2,-735.1 L 697.6,-728.0 L 696.2,-721.2 L 695.1,-714.5 L 694.4,-707.7 L 694.0,-701.0 L 694.1,-694.4 L 694.8,-687.8 L 696.1,-680.7 L 697.6,-674.9 L 699.8,-668.6 L 702.5,-662.5 L 705.8,-656.4 L 709.6,-650.5 L 713.9,-644.7 L 719.2,-638.5 L 724.1,-633.6 L 729.8,-628.4 L 736.7,-623.0 L 742.6,-618.7 L 749.5,-614.1 L 756.7,-609.7 L 765.0,-605.2 L 772.0,-601.6 L 780.1,-597.8 L 788.3,-593.9 L 796.6,-590.0 L 805.1,-586.1 L 813.7,-582.1 L 823.3,-577.6 L 831.3,-573.9 L 840.2,-569.7 L 850.1,-565.1 L 858.4,-561.3 L 868.6,-556.5 L 877.0,-552.6 L 886.5,-548.3 L 897.0,-543.4 L 905.7,-539.4 L 916.5,-534.5 L 925.4,-530.4 L 935.3,-525.7 L 945.3,-521.1 L 956.5,-515.9 L 965.7,-511.6 L 975.9,-506.8 L 985.8,-502.2 L 995.1,-497.8 L 1004.0,-493.6 L 1012.4,-489.5 L 1020.1,-485.6 L 1027.3,-481.7 L 1034.6,-477.5 L 1040.0,-474.1 L 1045.7,-470.3 L 1050.8,-466.5 L 1055.8,-462.1 L 1059.5,-458.4 L 1063.2,-454.2 L 1066.6,-449.8 L 1069.5,-445.2 L 1072.0,-440.5 L 1074.1,-435.6 L 1075.6,-430.7 L 1076.7,-425.7 L 1077.4,-420.7 L 1077.6,-415.7 L 1077.4,-410.7 L 1076.8,-405.6 L 1075.8,-400.3 L 1074.2,-394.3 L 1072.5,-389.4 L 1070.2,-383.9 L 1067.6,-378.5 L 1064.5,-373.3 L 1061.0,-368.4 L 1057.1,-363.5 L 1052.8,-358.8 L 1047.5,-353.8 L 1042.2,-349.4 L 1037.1,-345.6 L 1031.1,-341.5 L 1024.9,-337.4 L 1018.3,-333.5 L 1011.5,-329.6 L 1003.8,-325.3 L 997.3,-321.9 L 989.3,-317.6 L 982.6,-314.0 L 975.0,-309.9 L 967.3,-305.7 L 959.5,-301.4 L 950.8,-296.5 L 943.5,-292.5 L 935.4,-287.9 L 927.1,-283.2 L 918.7,-278.5 L 910.2,-273.7 L 900.7,-268.4 L 892.9,-264.0 L 883.2,-258.6 L 875.1,-254.1 L 865.2,-248.5 L 857.0,-244.0 L 847.7,-238.8 L 838.4,-233.6 L 829.0,-228.3 L 819.5,-222.9 L 808.9,-217.0 L 800.2,-212.1 L 790.4,-206.6 L 780.5,-201.0 L 770.6,-195.5 L 759.5,-189.4 L 749.4,-183.7" fill="none" stroke="#ffffff" stroke-opacity="0.92" stroke-width="10.3" stroke-linecap="round" stroke-linejoin="round"/>
<line x1="702.0" y1="-263.4" x2="791.9" y2="-102.1" stroke="#ffffff" stroke-width="14.4" stroke-linecap="round"/>
</svg>