<svg xmlns="http://www.w3.org/2000/svg" viewBox="-314.0 -921.7 1181.8 1380.5">
<defs><linearGradient id="g" gradientUnits="userSpaceOnUse" x1="-248.4" y1="-856.1" x2="802.2" y2="393.2">
<stop offset="0" stop-color="#ff8a18"/><stop offset="1" stop-color="#7b2da0"/></linearGradient></defs>
<path d="M 469.0,42.8 L 446.2,55.5 L 436.8,60.8 L 425.3,67.2 L 414.7,73.1 L 405.1,78.4 L 394.3,84.4 L 383.5,90.4 L 371.6,97.1 L 361.8,102.6 L 350.9,108.8 L 338.8,115.6 L 328.9,121.3 L 317.8,127.6 L 306.6,133.9 L 295.4,140.3 L 284.1,146.7 L 272.8,153.1 L 261.5,159.5 L 250.1,166.0 L 238.6,172.5 L 227.1,179.0 L 215.6,185.6 L 204.0,192.1 L 192.4,198.7 L 180.8,205.3 L 168.0,212.6 L 157.4,218.6 L 145.7,225.3 L 133.9,232.0 L 122.0,238.7 L 110.2,245.4 L 97.1,252.9 L 86.3,259.0 L 74.3,265.8 L 62.3,272.5 L 50.2,279.3 L 36.8,286.7 L 25.9,292.8 L 13.7,299.5 L 1.9,306.1 L -9.5,312.5 L -21.6,319.2 L -31.0,324.4 L -41.0,330.0 L -50.7,335.4 L -60.0,340.7 L -69.9,346.2 L -77.6,350.5 L -85.9,355.1 L -93.8,359.5 L -101.3,363.6 L -108.6,367.6 L -115.6,371.3 L -122.3,374.7 L -128.8,377.9 L -135.8,381.1 L -141.4,383.6 L -147.6,386.1 L -153.7,388.3 L -160.4,390.3 L -166.4,391.6 L -172.5,392.6 L -178.0,393.1 L -184.0,393.2 L -190.0,392.9 L -195.8,392.1 L -201.5,390.8 L -207.0,389.0 L -212.7,386.4 L -217.1,384.0 L -222.1,380.6 L -226.3,377.1 L -229.8,373.7 L -233.3,369.7 L -236.4,365.3 L -239.2,360.7 L -241.8,355.7 L -244.2,350.0 L -245.9,345.1 L -247.2,339.6 L -248.0,334.2 L -248.4,328.7 L -248.3,323.2 L -247.7,317.6 L -246.7,311.9 L -245.0,305.5 L -243.2,300.1 L -240.7,294.1 L -238.0,288.1 L -234.5,281.3 L -231.3,275.8 L -226.9,269.1 L -222.9,263.6 L -218.1,257.7 L -212.4,251.2 L -207.4,246.0 L -201.6,240.2 L -195.6,234.4 L -189.4,228.4 L -183.2,222.4 L -176.2,215.5 L -170.6,209.7 L -164.4,202.9 L -158.4,195.9 L -151.9,187.9 L -146.6,181.1 L -140.8,173.4 L -135.0,165.6 L -129.2,157.5 L -123.5,149.3 L -117.7,141.0 L -111.9,132.5 L -106.1,123.9 L -100.3,115.1 L -94.6,106.4 L -88.6,96.9 L -84.0,89.2 L -79.1,80.7 L -74.4,72.3 L -69.9,63.8 L -65.4,54.3 L -61.6,45.6 L -58.4,37.6 L -55.1,28.5 L -51.8,19.2 L -48.9,10.0 L -46.1,1.0 L -43.5,-7.7 L -40.8,-16.0 L -38.0,-23.7 L -34.6,-31.7 L -31.7,-37.8 L -28.1,-44.0 L -24.4,-49.7 L -20.4,-54.8 L -16.1,-59.5 L -11.5,-63.8 L -6.7,-67.6 L -1.7,-71.2 L 3.4,-74.9 L 8.7,-78.5 L 14.1,-82.4 L 19.6,-86.5 L 25.2,-90.9 L 30.7,-95.6 L 36.2,-100.6 L 41.6,-106.0 L 47.0,-111.6 L 52.4,-117.6 L 57.6,-123.9 L 62.9,-130.5 L 68.0,-137.3 L 73.1,-144.4 L 78.1,-151.7 L 83.0,-159.2 L 87.8,-166.9 L 92.6,-174.9 L 97.2,-183.1 L 101.6,-191.5 L 105.9,-200.2 L 109.9,-209.1 L 113.8,-218.2 L 117.4,-227.6 L 120.7,-237.2 L 123.9,-247.0 L 126.7,-257.0 L 129.3,-267.1 L 131.7,-277.5 L 133.8,-288.0 L 135.8,-298.6 L 137.5,-309.3 L 139.1,-320.2 L 140.5,-331.1 L 141.8,-342.2 L 143.1,-354.6 L 144.2,-365.9 L 145.2,-376.1 L 146.1,-388.8 L 146.6,-399.3 L 147.1,-411.0 L 147.4,-422.7 L 147.5,-434.6 L 147.5,-446.6 L 147.2,-458.6 L 146.7,-470.7 L 145.9,-484.0 L 145.0,-495.0 L 143.7,-507.2 L 142.3,-519.4 L 140.6,-531.7 L 138.8,-544.0 L 137.0,-556.1 L 135.1,-569.0 L 133.6,-579.2 L 131.8,-591.4 L 130.3,-601.0 L 128.8,-611.3 L 127.2,-621.3 L 125.8,-631.1 L 124.3,-640.5 L 123.0,-649.6 L 121.8,-658.4 L 120.7,-667.0 L 119.7,-675.4 L 118.9,-684.5 L 118.4,-691.7 L 118.0,-699.7 L 117.9,-707.5 L 118.2,-715.2 L 118.9,-723.5 L 119.9,-730.2 L 121.5,-737.5 L 123.5,-744.7 L 126.0,-751.5 L 129.0,-758.2 L 132.4,-764.7 L 136.3,-771.2 L 141.2,-778.2 L 145.5,-783.8 L 150.7,-790.0 L 156.4,-796.0 L 162.4,-801.8 L 168.8,-807.5 L 175.6,-812.9 L 182.7,-818.1 L 190.1,-823.1 L 197.8,-827.9 L 205.8,-832.4 L 214.0,-836.7 L 222.2,-840.6 L 231.0,-844.4 L 238.9,-847.4 L 245.8,-849.8 L 254.0,-852.2 L 260.5,-853.7 L 268.1,-855.0 L 274.1,-855.7 L 281.4,-856.1 L 287.3,-856.0 L 293.7,-855.6 L 300.1,-854.7 L 306.6,-853.6 L 313.2,-852.0 L 320.0,-850.1 L 326.8,-847.9 L 333.7,-845.2 L 341.3,-842.0 L 347.5,-839.0 L 354.5,-835.4 L 361.5,-831.5 L 368.5,-827.5 L 375.3,-823.5 L 381.9,-819.3 L 388.4,-815.1 L 395.2,-810.3 L 401.2,-805.7 L 406.5,-801.6 L 412.4,-796.7 L 418.3,-791.7 L 424.2,-786.5 L 429.8,-781.1 L 435.2,-775.6 L 440.0,-769.9 L 444.5,-764.3 L 448.4,-758.6 L 451.9,-752.8 L 454.9,-747.0 L 457.4,-741.2 L 459.6,-734.6 L 461.0,-729.2 L 462.2,-723.0 L 463.2,-716.6 L 463.8,-709.9 L 464.3,-703.0 L 464.4,-695.8 L 464.1,-687.7 L 463.6,-680.9 L 462.7,-672.5 L 461.7,-665.5 L 460.3,-657.6 L 458.6,-648.8 L 456.9,-641.4 L 454.9,-633.1 L 452.6,-624.7 L 450.3,-616.1 L 447.5,-606.6 L 445.0,-597.7 L 442.7,-589.7 L 440.1,-580.6 L 437.4,-571.4 L 434.8,-562.1 L 432.2,-552.6 L 429.5,-542.1 L 427.4,-533.8 L 425.3,-524.9 L 423.4,-516.3 L 421.8,-508.0 L 420.4,-500.0 L 419.4,-492.3 L 418.8,-484.0 L 418.6,-477.5 L 418.7,-469.6 L 419.4,-462.6 L 420.3,-456.4 L 421.9,-449.7 L 424.1,-442.5 L 426.4,-436.8 L 429.3,-430.6 L 432.7,-424.5 L 436.6,-418.5 L 440.8,-412.5 L 445.5,-406.7 L 450.6,-401.1 L 456.0,-395.8 L 462.4,-390.4 L 467.8,-386.2 L 474.0,-381.7 L 480.4,-377.3 L 486.9,-373.4 L 493.5,-369.8 L 500.9,-366.1 L 506.9,-363.1 L 514.3,-359.6 L 520.6,-356.8 L 527.8,-353.7 L 535.2,-350.5 L 542.8,-347.4 L 550.6,-344.3 L 558.6,-341.1 L 566.7,-337.9 L 575.8,-334.3 L 583.4,-331.2 L 591.9,-327.8 L 601.4,-323.8 L 609.2,-320.5 L 618.8,-316.3 L 626.8,-312.8 L 636.8,-308.4 L 645.0,-304.9 L 654.2,-300.9 L 663.6,-296.8 L 673.1,-292.7 L 682.6,-288.5 L 693.2,-283.7 L 701.5,-279.8 L 710.4,-275.7 L 718.8,-271.7 L 726.8,-267.8 L 734.4,-264.0 L 741.6,-260.2 L 748.5,-256.4 L 755.1,-252.6 L 761.3,-248.7 L 767.2,-244.6 L 772.6,-240.5 L 777.6,-236.1 L 782.3,-231.5 L 786.8,-226.2 L 790.1,-221.8 L 793.4,-216.6 L 796.1,-211.3 L 798.4,-205.9 L 800.1,-200.4 L 801.3,-194.9 L 802.0,-189.3 L 802.2,-183.8 L 802.0,-178.4 L 801.2,-173.0 L 800.1,-167.7 L 798.5,-162.4 L 796.5,-157.1 L 794.1,-151.9 L 791.3,-146.8 L 787.7,-141.4 L 784.4,-137.0 L 780.0,-132.0 L 776.0,-128.0 L 771.2,-123.7 L 765.6,-119.3 L 760.8,-115.8 L 754.6,-111.8 L 749.3,-108.5 L 743.1,-105.0 L 736.7,-101.6 L 729.4,-97.8 L 723.1,-94.8 L 716.1,-91.4 L 708.1,-87.5 L 701.5,-84.3 L 693.4,-80.0 L 686.6,-76.4 L 679.0,-72.2 L 671.3,-67.9 L 663.5,-63.4 L 654.7,-58.4 L 647.4,-54.2 L 639.2,-49.5 L 630.0,-44.3 L 622.4,-39.9 L 612.9,-34.6 L 604.2,-29.7 L 596.3,-25.3 L 587.4,-20.3 L 578.3,-15.3 L 569.2,-10.3 L 560.0,-5.2 L 550.6,0.0 L 541.2,5.3 L 530.7,11.1 L 522.0,16.0 L 511.4,22.0 L 502.6,26.9 L 492.7,32.4 L 482.7,38.0 L 472.6,43.5" fill="none" stroke="url(#g)" stroke-width="87.5" stroke-linecap="round" stroke-linejoin="round"/>
<path d="M 469.0,42.8 L 446.2,55.5 L 436.8,60.8 L 425.3,67.2 L 414.7,73.1 L 405.1,78.4 L 394.3,84.4 L 383.5,90.4 L 371.6,97.1 L 361.8,102.6 L 350.9,108.8 L 338.8,115.6 L 328.9,121.3 L 317.8,127.6 L 306.6,133.9 L 295.4,140.3 L 284.1,146.7 L 272.8,153.1 L 261.5,159.5 L 250.1,166.0 L 238.6,172.5 L 227.1,179.0 L 215.6,185.6 L 204.0,192.1 L 192.4,198.7 L 180.8,205.3 L 168.0,212.6 L 157.4,218.6 L 145.7,225.3 L 133.9,232.0 L 122.0,238.7 L 110.2,245.4 L 97.1,252.9 L 86.3,259.0 L 74.3,265.8 L 62.3,272.5 L 50.2,279.3 L 36.8,286.7 L 25.9,292.8 L 13.7,299.5 L 1.9,306.1 L -9.5,312.5 L -21.6,319.2 L -31.0,324.4 L -41.0,330.0 L -50.7,335.4 L -60.0,340.7 L -69.9,346.2 L -77.6,350.5 L -85.9,355.1 L -93.8,359.5 L -101.3,363.6 L -108.6,367.6 L -115.6,371.3 L -122.3,374.7 L -128.8,377.9 L -135.8,381.1 L -141.4,383.6 L -147.6,386.1 L -153.7,388.3 L -160.4,390.3 L -166.4,391.6 L -172.5,392.6 L -178.0,393.1 L -184.0,393.2 L -190.0,392.9 L -195.8,392.1 L -201.5,390.8 L -207.0,389.0 L -212.7,386.4 L -217.1,384.0 L -222.1,380.6 L -226.3,377.1 L -229.8,373.7 L -233.3,369.7 L -236.4,365.3 L -239.2,360.7 L -241.8,355.7 L -244.2,350.0 L -245.9,345.1 L -247.2,339.6 L -248.0,334.2 L -248.4,328.7 L -248.3,323.2 L -247.7,317.6 L -246.7,311.9 L -245.0,305.5 L -243.2,300.1 L -240.7,294.1 L -238.0,288.1 L -234.5,281.3 L -231.3,275.8 L -226.9,269.1 L -222.9,263.6 L -218.1,257.7 L -212.4,251.2 L -207.4,246.0 L -201.6,240.2 L -195.6,234.4 L -189.4,228.4 L -183.2,222.4 L -176.2,215.5 L -170.6,209.7 L -164.4,202.9 L -158.4,195.9 L -151.9,187.9 L -146.6,181.1 L -140.8,173.4 L -135.0,165.6 L -129.2,157.5 L -123.5,149.3 L -117.7,141.0 L -111.9,132.5 L -106.1,123.9 L -100.3,115.1 L -94.6,106.4 L -88.6,96.9 L -84.0,89.2 L -79.1,80.7 L -74.4,72.3 L -69.9,63.8 L -65.4,54.3 L -61.6,45.6 L -58.4,37.6 L -55.1,28.5 L -51.8,19.2 L -48.9,10.0 L -46.1,1.0 L -43.5,-7.7 L -40.8,-16.0 L -38.0,-23.7 L -34.6,-31.7 L -31.7,-37.8 L -28.1,-44.0 L -24.4,-49.7 L -20.4,-54.8 L -16.1,-59.5 L -11.5,-63.8 L -6.7,-67.6 L -1.7,-71.2 L 3.4,-74.9 L 8.7,-78.5 L 14.1,-82.4 L 19.6,-86.5 L 25.2,-90.9 L 30.7,-95.6 L 36.2,-100.6 L 41.6,-106.0 L 47.0,-111.6 L 52.4,-117.6 L 57.6,-123.9 L 62.9,-130.5 L 68.0,-137.3 L 73.1,-144.4 L 78.1,-151.7 L 83.0,-159.2 L 87.8,-166.9 L 92.6,-174.9 L 97.2,-183.1 L 101.6,-191.5 L 105.9,-200.2 L 109.9,-209.1 L 113.8,-218.2 L 117.4,-227.6 L 120.7,-237.2 L 123.9,-247.0 L 126.7,-257.0 L 129.3,-267.1 L 131.7,-277.5 L 133.8,-288.0 L 135.8,-298.6 L 137.5,-309.3 L 139.1,-320.2 L 140.5,-331.1 L 141.8,-342.2 L 143.1,-354.6 L 144.2,-365.9 L 145.2,-376.1 L 146.1,-388.8 L 146.6,-399.3 L 147.1,-411.0 L 147.4,-422.7 L 147.5,-434.6 L 147.5,-446.6 L 147.2,-458.6 L 146.7,-470.7 L 145.9,-484.0 L 145.0,-495.0 L 143.7,-507.2 L 142.3,-519.4 L 140.6,-531.7 L 138.8,-544.0 L 137.0,-556.1 L 135.1,-569.0 L 133.6,-579.2 L 131.8,-591.4 L 130.3,-601.0 L 128.8,-611.3 L 127.2,-621.3 L 125.8,-631.1 L 124.3,-640.5 L 123.0,-649.6 L 121.8,-658.4 L 120.7,-667.0 L 119.7,-675.4 L 118.9,-684.5 L 118.4,-691.7 L 118.0,-699.7 L 117.9,-707.5 L 118.2,-715.2 L 118.9,-723.5 L 119.9,-730.2 L 121.5,-737.5 L 123.5,-744.7 L 126.0,-751.5 L 129.0,-758.2 L 132.4,-764.7 L 136.3,-771.2 L 141.2,-778.2 L 145.5,-783.8 L 150.7,-790.0 L 156.4,-796.0 L 162.4,-801.8 L 168.8,-807.5 L 175.6,-812.9 L 182.7,-818.1 L 190.1,-823.1 L 197.8,-827.9 L 205.8,-832.4 L 214.0,-836.7 L 222.2,-840.6 L 231.0,-844.4 L 238.9,-847.4 L 245.8,-849.8 L 254.0,-852.2 L 260.5,-853.7 L 268.1,-855.0 L 274.1,-855.7 L 281.4,-856.1 L 287.3,-856.0 L 293.7,-855.6 L 300.1,-854.7 L 306.6,-853.6 L 313.2,-852.0 L 320.0,-850.1 L 326.8,-847.9 L 333.7,-845.2 L 341.3,-842.0 L 347.5,-839.0 L 354.5,-835.4 L 361.5,-831.5 L 368.5,-827.5 L 375.3,-823.5 L 381.9,-819.3 L 388.4,-815.1 L 395.2,-810.3 L 401.2,-805.7 L 406.5,-801.6 L 412.4,-796.7 L 418.3,-791.7 L 424.2,-786.5 L 429.8,-781.1 L 435.2,-775.6 L 440.0,-769.9 L 444.5,-764.3 L 448.4,-758.6 L 451.9,-752.8 L 454.9,-747.0 L 457.4,-741.2 L 459.6,-734.6 L 461.0,-729.2 L 462.2,-723.0 L 463.2,-716.6 L 463.8,-709.9 L 464.3,-703.0 L 464.4,-695.8 L 464.1,-687.7 L 463.6,-680.9 L 462.7,-672.5 L 461.7,-665.5 L 460.3,-657.6 L 458.6,-648.8 L 456.9,-641.4 L 454.9,-633.1 L 452.6,-624.7 L 450.3,-616.1 L 447.5,-606.6 L 445.0,-597.7 L 442.7,-589.7 L 440.1,-580.6 L 437.4,-571.4 L 434.8,-562.1 L 432.2,-552.6 L 429.5,-542.1 L 427.4,-533.8 L 425.3,-524.9 L 423.4,-516.3 L 421.8,-508.0 L 420.4,-500.0 L 419.4,-492.3 L 418.8,-484.0 L 418.6,-477.5 L 418.7,-469.6 L 419.4,-462.6 L 420.3,-456.4 L 421.9,-449.7 L 424.1,-442.5 L 426.4,-436.8 L 429.3,-430.6 L 432.7,-424.5 L 436.6,-418.5 L 440.8,-412.5 L 445.5,-406.7 L 450.6,-401.1 L 456.0,-395.8 L 462.4,-390.4 L 467.8,-386.2 L 474.0,-381.7 L 480.4,-377.3 L 486.9,-373.4 L 493.5,-369.8 L 500.9,-366.1 L 506.9,-363.1 L 514.3,-359.6 L 520.6,-356.8 L 527.8,-353.7 L 535.2,-350.5 L 542.8,-347.4 L 550.6,-344.3 L 558.6,-341.1 L 566.7,-337.9 L 575.8,-334.3 L 583.4,-331.2 L 591.9,-327.8 L 601.4,-323.8 L 609.2,-320.5 L 618.8,-316.3 L 626.8,-312.8 L 636.8,-308.4 L 645.0,-304.9 L 654.2,-300.9 L 663.6,-296.8 L 673.1,-292.7 L 682.6,-288.5 L 693.2,-283.7 L 701.5,-279.8 L 710.4,-275.7 L 718.8,-271.7 L 726.8,-267.8 L 734.4,-264.0 L 741.6,-260.2 L 748.5,-256.4 L 755.1,-252.6 L 761.3,-248.7 L 767.2,-244.6 L 772.6,-240.5 L 777.6,-236.1 L 782.3,-231.5 L 786.8,-226.2 L 790.1,-221.8 L 793.4,-216.6 L 796.1,-211.3 L 798.4,-205.9 L 800.1,-200.4 L 801.3,-194.9 L 802.0,-189.3 L 802.2,-183.8 L 802.0,-178.4 L 801.2,-173.0 L 800.1,-167.7 L 798.5,-162.4 L 796.5,-157.1 L 794.1,-151.9 L 791.3,-146.8 L 787.7,-141.4 L 784.4,-137.0 L 780.0,-132.0 L 776.0,-128.0 L 771.2,-123.7 L 765.6,-119.3 L 760.8,-115.8 L 754.6,-111.8 L 749.3,-108.5 L 743.1,-105.0 L 736.7,-101.6 L 729.4,-97.8 L 723.1,-94.8 L 716.1,-91.4 L 708.1,-87.5 L 701.5,-84.3 L 693.4,-80.0 L 686.6,-76.4 L 679.0,-72.2 L 671.3,-67.9 L 663.5,-63.4 L 654.7,-58.4 L 647.4,-54.2 L 639.2,-49.5 L 630.0,-44.3 L 622.4,-39.9 L 612.9,-34.6 L 604.2,-29.7 L 596.3,-25.3 L 587.4,-20.3 L 578.3,-15.3 L 569.2,-10.3 L 560.0,-5.2 L 550.6,0.0 L 541.2,5.3 L 530.7,11.1 L 522.0,16.0 L 511.4,22.0 L 502.6,26.9 L 492.7,32.4 L 482.7,38.0 L 472.6,43.5" fill="none" stroke="#ffffff" stroke-opacity="0.92" stroke-width="8.7" stroke-linecap="round" stroke-linejoin="round"/>
<line x1="430.6" y1="-26.0" x2="507.3" y2="111.5" stroke="#ffffff" stroke-width="12.2" stroke-linecap="round"/>
</svg>