<svg xmlns="http://www.w3.org/2000/svg" viewBox="-90.0 -90.0 1180.0 751.4">
<defs><linearGradient id="g" gradientUnits="userSpaceOnUse" x1="-31.0" y1="-52.4" x2="1031.0" y2="623.8">
<stop offset="0" stop-color="#1c9fe0"/><stop offset="1" stop-color="#0b1f44"/></linearGradient></defs>
<path d="M 850.5,486.9 L 842.0,487.1 L 834.1,496.8 L 826.0,507.0 L 817.8,516.7 L 809.4,525.5 L 800.2,534.0 L 790.3,541.8 L 780.1,548.8 L 769.1,554.9 L 757.0,558.5 L 745.3,557.6 L 733.0,553.6 L 721.7,548.2 L 710.8,541.9 L 700.6,535.0 L 690.9,527.3 L 681.6,518.8 L 673.6,509.3 L 666.6,499.3 L 659.2,488.7 L 651.8,478.5 L 643.8,469.1 L 634.5,460.8 L 624.2,453.5 L 613.5,447.2 L 601.6,442.8 L 589.9,438.7 L 580.2,431.8 L 576.4,419.8 L 567.1,412.2 L 555.7,412.4 L 552.8,404.8 L 551.9,392.4 L 546.3,381.2 L 539.6,371.0 L 531.8,361.0 L 522.8,352.3 L 512.7,344.9 L 501.9,338.8 L 490.5,333.6 L 478.8,328.7 L 467.4,323.9 L 456.2,318.1 L 447.1,310.8 L 439.2,300.7 L 434.5,289.3 L 430.9,277.0 L 427.1,265.1 L 421.7,253.8 L 414.5,243.6 L 406.3,234.0 L 397.9,224.5 L 390.2,214.8 L 384.4,204.1 L 379.9,192.4 L 375.2,181.0 L 369.0,170.3 L 360.3,161.1 L 349.5,154.7 L 337.4,151.3 L 325.0,149.2 L 313.1,146.9 L 301.4,144.6 L 289.4,142.2 L 277.1,139.9 L 264.6,137.6 L 252.1,135.3 L 239.5,133.1 L 227.0,131.0 L 214.5,129.0 L 201.7,127.0 L 189.0,125.2 L 176.7,123.5 L 164.8,122.0 L 151.7,120.6 L 138.8,119.4 L 126.8,118.6 L 115.1,118.2 L 102.5,117.5 L 90.2,116.6 L 77.9,115.7 L 65.6,114.8 L 53.0,114.1 L 40.6,113.4 L 28.5,109.5 L 19.4,101.8 L 14.2,90.2 L 12.4,77.8 L 13.0,65.2 L 13.7,52.5 L 14.5,39.9 L 15.5,27.6 L 18.2,15.9 L 29.4,13.1 L 41.9,15.4 L 54.0,18.7 L 66.0,22.1 L 77.9,25.8 L 89.8,29.6 L 101.8,33.4 L 113.7,37.0 L 125.7,40.5 L 137.9,43.5 L 150.1,46.0 L 162.4,48.1 L 174.8,49.9 L 187.2,51.3 L 199.7,52.4 L 212.2,53.2 L 224.7,53.7 L 237.2,54.0 L 249.7,54.2 L 262.1,54.3 L 274.6,54.3 L 287.1,54.3 L 299.7,54.3 L 312.2,54.2 L 324.7,54.1 L 337.2,54.0 L 349.7,53.8 L 362.2,53.6 L 374.7,53.5 L 387.2,53.3 L 399.7,53.1 L 412.2,52.9 L 424.7,52.8 L 437.2,52.6 L 449.6,52.5 L 462.1,52.4 L 474.6,52.4 L 487.1,52.3 L 499.6,52.4 L 512.1,52.4 L 524.6,52.5 L 537.2,52.9 L 549.7,53.5 L 562.3,54.4 L 574.7,55.7 L 587.1,57.3 L 599.3,59.3 L 611.6,61.8 L 624.1,64.9 L 636.3,68.5 L 648.0,72.4 L 659.6,76.6 L 670.9,81.1 L 682.2,85.8 L 693.5,90.7 L 704.9,95.7 L 716.3,100.7 L 728.0,105.7 L 739.8,110.5 L 751.4,115.4 L 762.9,120.2 L 774.4,125.1 L 785.7,130.0 L 797.1,135.0 L 808.5,140.0 L 819.9,144.9 L 831.6,150.0 L 843.7,150.5 L 854.0,143.6 L 861.9,134.1 L 872.2,127.1 L 884.3,126.9 L 895.2,133.4 L 896.3,144.9 L 894.9,157.6 L 901.5,167.8 L 913.2,170.0 L 923.8,163.6 L 930.3,154.1 L 929.8,153.0 L 929.3,154.0 L 934.8,158.5 L 945.4,165.4 L 954.5,173.9 L 960.3,185.1 L 964.7,197.3 L 968.5,209.1 L 972.0,220.7 L 975.2,232.2 L 978.2,243.7 L 981.2,255.6 L 984.3,268.0 L 987.4,281.0 L 987.6,293.6 L 985.5,305.9 L 982.1,317.3 L 975.9,327.5 L 968.3,337.5 L 959.9,347.1 L 951.9,355.9 L 944.2,365.0 L 937.8,372.7 L 930.5,381.6 L 922.5,391.3 L 913.9,401.7 L 905.0,412.5 L 896.0,423.4 L 887.1,434.1 L 878.5,444.5 L 870.4,454.3 L 863.1,463.1 L 854.9,472.9 L 847.3,482.1 L 854.2,490.1 L 860.9,484.2 L 868.2,475.6 L 877.4,464.4 L 886.0,454.0 L 893.8,444.6 L 901.9,434.9 L 910.1,424.9 L 918.3,414.9 L 926.4,405.2 L 934.1,395.8 L 943.1,385.0 L 950.9,375.6 L 958.5,366.5 L 966.7,357.2 L 976.2,346.7 L 983.6,337.3 L 990.0,328.0 L 995.3,317.2 L 998.1,305.4 L 1000.0,292.9 L 999.8,280.3 L 997.0,267.5 L 993.9,254.9 L 990.9,242.9 L 987.9,231.3 L 984.7,219.8 L 981.3,208.2 L 977.6,196.5 L 973.5,184.4 L 968.6,172.2 L 961.3,162.2 L 951.8,154.0 L 940.9,147.0 L 930.3,141.9 L 919.6,147.6 L 911.7,156.9 L 909.6,157.8 L 906.8,154.6 L 909.2,142.7 L 908.4,130.5 L 900.3,121.2 L 889.1,115.1 L 877.0,113.4 L 864.9,116.3 L 854.7,123.2 L 846.8,132.8 L 838.0,138.9 L 827.9,134.5 L 816.5,129.5 L 805.1,124.6 L 793.8,119.6 L 782.4,114.7 L 771.0,109.8 L 759.5,104.9 L 747.8,100.0 L 736.0,95.2 L 724.5,90.3 L 713.0,85.4 L 701.7,80.4 L 690.2,75.4 L 678.7,70.5 L 667.5,66.0 L 656.2,61.7 L 644.5,57.7 L 632.5,54.0 L 620.0,50.7 L 607.3,47.9 L 595.1,45.7 L 582.7,43.8 L 570.3,42.4 L 557.8,41.3 L 545.3,40.5 L 532.8,40.0 L 520.4,39.7 L 507.9,39.6 L 495.4,39.6 L 482.9,39.6 L 470.3,39.6 L 457.8,39.7 L 445.3,39.8 L 432.8,39.9 L 420.3,40.1 L 407.8,40.2 L 395.3,40.4 L 382.8,40.6 L 370.3,40.8 L 357.8,40.9 L 345.3,41.1 L 332.8,41.2 L 320.4,41.4 L 307.9,41.5 L 295.4,41.5 L 282.9,41.6 L 270.4,41.5 L 257.9,41.5 L 245.4,41.4 L 232.9,41.2 L 220.4,40.8 L 207.8,40.1 L 195.3,39.2 L 182.8,38.0 L 170.4,36.4 L 158.1,34.5 L 146.0,32.2 L 134.0,29.4 L 121.9,26.1 L 109.9,22.5 L 98.0,18.7 L 86.1,15.0 L 74.2,11.2 L 62.2,7.6 L 50.3,4.4 L 38.0,1.3 L 25.6,0.0 L 13.6,3.1 L 5.7,12.4 L 3.2,24.5 L 2.1,36.8 L 1.3,49.4 L 0.6,62.1 L 0.0,74.5 L 0.7,87.0 L 4.1,99.0 L 10.1,110.0 L 19.1,118.4 L 30.5,123.4 L 42.7,126.0 L 55.3,126.5 L 67.7,127.3 L 80.1,128.2 L 92.3,129.1 L 104.7,130.0 L 117.5,130.6 L 128.9,131.1 L 141.0,132.0 L 154.3,133.2 L 166.7,134.6 L 178.3,136.1 L 190.2,137.8 L 202.5,139.6 L 215.0,141.5 L 227.7,143.6 L 240.5,145.7 L 253.3,148.0 L 266.1,150.3 L 278.7,152.6 L 291.2,155.0 L 303.3,157.4 L 315.2,159.8 L 327.6,162.0 L 339.8,164.4 L 351.1,169.5 L 359.7,178.5 L 365.5,189.4 L 369.9,201.1 L 374.7,212.5 L 381.2,223.4 L 389.0,233.2 L 397.4,242.6 L 405.6,252.3 L 412.4,262.4 L 417.1,273.9 L 420.5,285.7 L 424.4,297.8 L 429.8,309.0 L 437.8,318.9 L 447.2,326.9 L 457.9,333.2 L 468.9,338.1 L 481.0,342.9 L 492.4,347.9 L 503.5,353.7 L 513.7,360.7 L 522.7,369.3 L 530.5,379.3 L 537.3,390.0 L 540.8,401.4 L 542.0,413.7 L 550.7,422.3 L 563.1,424.4 L 566.9,421.9 L 565.0,425.1 L 568.8,437.1 L 577.1,446.3 L 588.4,451.6 L 600.2,455.6 L 611.6,460.5 L 622.0,467.3 L 631.9,475.3 L 640.1,484.2 L 647.7,494.3 L 654.9,504.7 L 662.0,514.9 L 669.8,524.8 L 678.7,533.5 L 688.2,541.5 L 698.2,548.8 L 708.8,555.5 L 719.7,561.4 L 731.2,566.5 L 743.2,570.2 L 755.6,571.4 L 767.9,569.1 L 779.4,564.0 L 789.9,557.6 L 800.0,550.4 L 809.8,542.5 L 819.0,533.9 L 827.5,524.9 L 835.6,515.3 L 843.8,505.1 L 851.7,495.4" fill="none" stroke="url(#g)" stroke-width="75.0" stroke-linecap="round" stroke-linejoin="round"/>
<path d="M 850.5,486.9 L 842.0,487.1 L 834.1,496.8 L 826.0,507.0 L 817.8,516.7 L 809.4,525.5 L 800.2,534.0 L 790.3,541.8 L 780.1,548.8 L 769.1,554.9 L 757.0,558.5 L 745.3,557.6 L 733.0,553.6 L 721.7,548.2 L 710.8,541.9 L 700.6,535.0 L 690.9,527.3 L 681.6,518.8 L 673.6,509.3 L 666.6,499.3 L 659.2,488.7 L 651.8,478.5 L 643.8,469.1 L 634.5,460.8 L 624.2,453.5 L 613.5,447.2 L 601.6,442.8 L 589.9,438.7 L 580.2,431.8 L 576.4,419.8 L 567.1,412.2 L 555.7,412.4 L 552.8,404.8 L 551.9,392.4 L 546.3,381.2 L 539.6,371.0 L 531.8,361.0 L 522.8,352.3 L 512.7,344.9 L 501.9,338.8 L 490.5,333.6 L 478.8,328.7 L 467.4,323.9 L 456.2,318.1 L 447.1,310.8 L 439.2,300.7 L 434.5,289.3 L 430.9,277.0 L 427.1,265.1 L 421.7,253.8 L 414.5,243.6 L 406.3,234.0 L 397.9,224.5 L 390.2,214.8 L 384.4,204.1 L 379.9,192.4 L 375.2,181.0 L 369.0,170.3 L 360.3,161.1 L 349.5,154.7 L 337.4,151.3 L 325.0,149.2 L 313.1,146.9 L 301.4,144.6 L 289.4,142.2 L 277.1,139.9 L 264.6,137.6 L 252.1,135.3 L 239.5,133.1 L 227.0,131.0 L 214.5,129.0 L 201.7,127.0 L 189.0,125.2 L 176.7,123.5 L 164.8,122.0 L 151.7,120.6 L 138.8,119.4 L 126.8,118.6 L 115.1,118.2 L 102.5,117.5 L 90.2,116.6 L 77.9,115.7 L 65.6,114.8 L 53.0,114.1 L 40.6,113.4 L 28.5,109.5 L 19.4,101.8 L 14.2,90.2 L 12.4,77.8 L 13.0,65.2 L 13.7,52.5 L 14.5,39.9 L 15.5,27.6 L 18.2,15.9 L 29.4,13.1 L 41.9,15.4 L 54.0,18.7 L 66.0,22.1 L 77.9,25.8 L 89.8,29.6 L 101.8,33.4 L 113.7,37.0 L 125.7,40.5 L 137.9,43.5 L 150.1,46.0 L 162.4,48.1 L 174.8,49.9 L 187.2,51.3 L 199.7,52.4 L 212.2,53.2 L 224.7,53.7 L 237.2,54.0 L 249.7,54.2 L 262.1,54.3 L 274.6,54.3 L 287.1,54.3 L 299.7,54.3 L 312.2,54.2 L 324.7,54.1 L 337.2,54.0 L 349.7,53.8 L 362.2,53.6 L 374.7,53.5 L 387.2,53.3 L 399.7,53.1 L 412.2,52.9 L 424.7,52.8 L 437.2,52.6 L 449.6,52.5 L 462.1,52.4 L 474.6,52.4 L 487.1,52.3 L 499.6,52.4 L 512.1,52.4 L 524.6,52.5 L 537.2,52.9 L 549.7,53.5 L 562.3,54.4 L 574.7,55.7 L 587.1,57.3 L 599.3,59.3 L 611.6,61.8 L 624.1,64.9 L 636.3,68.5 L 648.0,72.4 L 659.6,76.6 L 670.9,81.1 L 682.2,85.8 L 693.5,90.7 L 704.9,95.7 L 716.3,100.7 L 728.0,105.7 L 739.8,110.5 L 751.4,115.4 L 762.9,120.2 L 774.4,125.1 L 785.7,130.0 L 797.1,135.0 L 808.5,140.0 L 819.9,144.9 L 831.6,150.0 L 843.7,150.5 L 854.0,143.6 L 861.9,134.1 L 872.2,127.1 L 884.3,126.9 L 895.2,133.4 L 896.3,144.9 L 894.9,157.6 L 901.5,167.8 L 913.2,170.0 L 923.8,163.6 L 930.3,154.1 L 929.8,153.0 L 929.3,154.0 L 934.8,158.5 L 945.4,165.4 L 954.5,173.9 L 960.3,185.1 L 964.7,197.3 L 968.5,209.1 L 972.0,220.7 L 975.2,232.2 L 978.2,243.7 L 981.2,255.6 L 984.3,268.0 L 987.4,281.0 L 987.6,293.6 L 985.5,305.9 L 982.1,317.3 L 975.9,327.5 L 968.3,337.5 L 959.9,347.1 L 951.9,355.9 L 944.2,365.0 L 937.8,372.7 L 930.5,381.6 L 922.5,391.3 L 913.9,401.7 L 905.0,412.5 L 896.0,423.4 L 887.1,434.1 L 878.5,444.5 L 870.4,454.3 L 863.1,463.1 L 854.9,472.9 L 847.3,482.1 L 854.2,490.1 L 860.9,484.2 L 868.2,475.6 L 877.4,464.4 L 886.0,454.0 L 893.8,444.6 L 901.9,434.9 L 910.1,424.9 L 918.3,414.9 L 926.4,405.2 L 934.1,395.8 L 943.1,385.0 L 950.9,375.6 L 958.5,366.5 L 966.7,357.2 L 976.2,346.7 L 983.6,337.3 L 990.0,328.0 L 995.3,317.2 L 998.1,305.4 L 1000.0,292.9 L 999.8,280.3 L 997.0,267.5 L 993.9,254.9 L 990.9,242.9 L 987.9,231.3 L 984.7,219.8 L 981.3,208.2 L 977.6,196.5 L 973.5,184.4 L 968.6,172.2 L 961.3,162.2 L 951.8,154.0 L 940.9,147.0 L 930.3,141.9 L 919.6,147.6 L 911.7,156.9 L 909.6,157.8 L 906.8,154.6 L 909.2,142.7 L 908.4,130.5 L 900.3,121.2 L 889.1,115.1 L 877.0,113.4 L 864.9,116.3 L 854.7,123.2 L 846.8,132.8 L 838.0,138.9 L 827.9,134.5 L 816.5,129.5 L 805.1,124.6 L 793.8,119.6 L 782.4,114.7 L 771.0,109.8 L 759.5,104.9 L 747.8,100.0 L 736.0,95.2 L 724.5,90.3 L 713.0,85.4 L 701.7,80.4 L 690.2,75.4 L 678.7,70.5 L 667.5,66.0 L 656.2,61.7 L 644.5,57.7 L 632.5,54.0 L 620.0,50.7 L 607.3,47.9 L 595.1,45.7 L 582.7,43.8 L 570.3,42.4 L 557.8,41.3 L 545.3,40.5 L 532.8,40.0 L 520.4,39.7 L 507.9,39.6 L 495.4,39.6 L 482.9,39.6 L 470.3,39.6 L 457.8,39.7 L 445.3,39.8 L 432.8,39.9 L 420.3,40.1 L 407.8,40.2 L 395.3,40.4 L 382.8,40.6 L 370.3,40.8 L 357.8,40.9 L 345.3,41.1 L 332.8,41.2 L 320.4,41.4 L 307.9,41.5 L 295.4,41.5 L 282.9,41.6 L 270.4,41.5 L 257.9,41.5 L 245.4,41.4 L 232.9,41.2 L 220.4,40.8 L 207.8,40.1 L 195.3,39.2 L 182.8,38.0 L 170.4,36.4 L 158.1,34.5 L 146.0,32.2 L 134.0,29.4 L 121.9,26.1 L 109.9,22.5 L 98.0,18.7 L 86.1,15.0 L 74.2,11.2 L 62.2,7.6 L 50.3,4.4 L 38.0,1.3 L 25.6,0.0 L 13.6,3.1 L 5.7,12.4 L 3.2,24.5 L 2.1,36.8 L 1.3,49.4 L 0.6,62.1 L 0.0,74.5 L 0.7,87.0 L 4.1,99.0 L 10.1,110.0 L 19.1,118.4 L 30.5,123.4 L 42.7,126.0 L 55.3,126.5 L 67.7,127.3 L 80.1,128.2 L 92.3,129.1 L 104.7,130.0 L 117.5,130.6 L 128.9,131.1 L 141.0,132.0 L 154.3,133.2 L 166.7,134.6 L 178.3,136.1 L 190.2,137.8 L 202.5,139.6 L 215.0,141.5 L 227.7,143.6 L 240.5,145.7 L 253.3,148.0 L 266.1,150.3 L 278.7,152.6 L 291.2,155.0 L 303.3,157.4 L 315.2,159.8 L 327.6,162.0 L 339.8,164.4 L 351.1,169.5 L 359.7,178.5 L 365.5,189.4 L 369.9,201.1 L 374.7,212.5 L 381.2,223.4 L 389.0,233.2 L 397.4,242.6 L 405.6,252.3 L 412.4,262.4 L 417.1,273.9 L 420.5,285.7 L 424.4,297.8 L 429.8,309.0 L 437.8,318.9 L 447.2,326.9 L 457.9,333.2 L 468.9,338.1 L 481.0,342.9 L 492.4,347.9 L 503.5,353.7 L 513.7,360.7 L 522.7,369.3 L 530.5,379.3 L 537.3,390.0 L 540.8,401.4 L 542.0,413.7 L 550.7,422.3 L 563.1,424.4 L 566.9,421.9 L 565.0,425.1 L 568.8,437.1 L 577.1,446.3 L 588.4,451.6 L 600.2,455.6 L 611.6,460.5 L 622.0,467.3 L 631.9,475.3 L 640.1,484.2 L 647.7,494.3 L 654.9,504.7 L 662.0,514.9 L 669.8,524.8 L 678.7,533.5 L 688.2,541.5 L 698.2,548.8 L 708.8,555.5 L 719.7,561.4 L 731.2,566.5 L 743.2,570.2 L 755.6,571.4 L 767.9,569.1 L 779.4,564.0 L 789.9,557.6 L 800.0,550.4 L 809.8,542.5 L 819.0,533.9 L 827.5,524.9 L 835.6,515.3 L 843.8,505.1 L 851.7,495.4" fill="none" stroke="#ffffff" stroke-opacity="0.92" stroke-width="7.5" stroke-linecap="round" stroke-linejoin="round"/>
<line x1="893.3" y1="539.1" x2="807.7" y2="434.7" stroke="#ffffff" stroke-width="10.5" stroke-linecap="round"/>
</svg>
