<svg xmlns="http://www.w3.org/2000/svg" viewBox="-834.8 -1194.9 2396.4 1486.6">
<defs><linearGradient id="g" gradientUnits="userSpaceOnUse" x1="-720.9" y1="-1081.0" x2="1447.8" y2="177.9">
<stop offset="0" stop-color="#ff8a18"/><stop offset="1" stop-color="#7b2da0"/></linearGradient></defs>
<path d="M 969.3,168.4 L 946.6,167.2 L 933.9,166.4 L 921.1,165.6 L 907.0,164.6 L 894.2,163.7 L 882.6,162.9 L 869.6,161.9 L 856.6,160.8 L 843.5,159.6 L 830.4,158.4 L 817.3,157.2 L 804.1,156.0 L 790.9,154.7 L 777.6,153.5 L 764.2,152.2 L 750.9,151.0 L 737.4,149.7 L 724.0,148.4 L 709.1,147.0 L 695.6,145.7 L 683.4,144.6 L 669.8,143.2 L 654.7,141.8 L 642.4,140.6 L 628.7,139.3 L 614.9,137.9 L 599.8,136.4 L 587.3,135.2 L 572.1,133.6 L 559.6,132.4 L 545.7,131.0 L 531.8,129.7 L 516.4,128.3 L 503.8,127.2 L 488.3,125.9 L 475.7,124.9 L 461.6,123.7 L 447.5,122.6 L 433.3,121.4 L 417.8,120.1 L 405.0,119.0 L 390.9,117.8 L 376.7,116.6 L 362.4,115.3 L 348.2,114.1 L 333.9,112.8 L 319.6,111.5 L 305.3,110.2 L 291.0,108.9 L 276.6,107.6 L 262.2,106.3 L 247.8,105.0 L 232.0,103.5 L 219.0,102.4 L 204.5,101.0 L 190.0,99.7 L 175.5,98.4 L 159.6,96.9 L 145.0,95.6 L 131.9,94.5 L 115.9,93.1 L 102.7,91.9 L 88.1,90.6 L 72.0,89.3 L 58.8,88.2 L 44.2,87.0 L 29.5,85.9 L 14.8,84.9 L -1.4,83.8 L -14.7,82.9 L -29.5,81.9 L -44.2,80.9 L -60.5,79.8 L -73.8,78.9 L -88.6,77.9 L -103.5,76.9 L -119.8,75.8 L -133.1,74.9 L -148.0,73.8 L -162.9,72.7 L -177.7,71.5 L -192.6,70.3 L -209.0,69.0 L -223.9,67.6 L -237.3,66.3 L -252.2,64.7 L -268.6,62.5 L -283.3,60.1 L -296.6,57.5 L -311.1,54.0 L -325.5,50.0 L -339.7,45.3 L -353.5,40.1 L -367.0,34.2 L -380.1,27.7 L -392.8,20.7 L -406.3,12.3 L -417.0,4.9 L -428.5,-3.9 L -440.5,-14.1 L -450.0,-22.9 L -461.0,-34.1 L -469.7,-43.7 L -478.8,-54.8 L -487.4,-66.3 L -496.2,-79.4 L -503.0,-90.4 L -510.7,-104.2 L -517.2,-117.1 L -522.6,-128.9 L -528.1,-142.2 L -533.2,-155.7 L -537.9,-169.4 L -542.2,-183.2 L -546.4,-198.5 L -549.5,-211.2 L -552.7,-225.4 L -555.4,-239.6 L -557.9,-255.4 L -559.8,-269.8 L -561.3,-282.9 L -562.6,-297.4 L -563.7,-311.9 L -564.7,-326.5 L -565.7,-341.1 L -566.7,-355.7 L -567.7,-371.8 L -568.7,-386.4 L -569.6,-399.6 L -570.6,-414.3 L -571.6,-429.0 L -572.6,-443.7 L -573.7,-459.8 L -574.6,-472.8 L -575.6,-486.7 L -576.6,-500.1 L -577.5,-512.9 L -578.4,-526.4 L -579.1,-537.0 L -579.9,-549.3 L -580.5,-558.9 L -581.1,-569.1 L -581.7,-579.7 L -582.2,-587.8 L -582.7,-596.2 L -583.3,-604.8 L -583.9,-612.0 L -584.5,-618.0 L -585.1,-624.2 L -585.8,-629.8 L -586.7,-634.9 L -587.9,-639.5 L -589.5,-644.1 L -591.1,-647.4 L -593.4,-651.1 L -595.7,-653.7 L -598.4,-656.3 L -601.8,-658.8 L -604.7,-660.7 L -608.3,-662.7 L -612.0,-664.8 L -616.2,-667.3 L -619.5,-669.6 L -623.1,-672.4 L -626.4,-675.7 L -629.3,-679.2 L -632.0,-683.1 L -634.3,-687.3 L -636.4,-691.9 L -638.5,-697.3 L -640.0,-702.1 L -641.5,-707.7 L -642.9,-713.5 L -644.2,-719.6 L -645.6,-725.9 L -647.0,-732.4 L -648.5,-739.2 L -650.1,-746.1 L -651.8,-753.3 L -653.9,-761.3 L -655.7,-768.0 L -657.9,-775.6 L -660.2,-783.3 L -662.7,-791.1 L -665.3,-799.1 L -668.3,-808.0 L -670.9,-815.4 L -674.2,-824.6 L -677.2,-833.1 L -680.0,-840.8 L -683.1,-849.6 L -686.3,-858.5 L -689.5,-867.5 L -692.8,-876.7 L -696.0,-885.9 L -699.3,-895.3 L -702.5,-904.7 L -705.6,-913.8 L -708.6,-922.5 L -711.5,-931.4 L -713.7,-938.4 L -715.8,-945.8 L -717.6,-952.8 L -719.1,-959.7 L -720.2,-966.5 L -720.8,-973.3 L -720.9,-980.0 L -720.4,-987.4 L -719.6,-993.2 L -718.1,-999.6 L -716.1,-1005.8 L -713.6,-1011.7 L -710.5,-1017.3 L -707.0,-1022.7 L -703.1,-1027.8 L -698.7,-1032.7 L -693.9,-1037.3 L -688.8,-1041.6 L -683.2,-1045.6 L -677.2,-1049.3 L -670.8,-1052.7 L -663.3,-1056.1 L -656.1,-1058.7 L -649.4,-1060.7 L -641.7,-1062.5 L -633.7,-1064.0 L -624.7,-1065.3 L -617.1,-1066.2 L -608.5,-1067.1 L -598.9,-1068.0 L -590.9,-1068.6 L -580.9,-1069.3 L -572.6,-1069.8 L -562.3,-1070.4 L -552.8,-1071.1 L -544.2,-1071.8 L -534.5,-1072.6 L -524.7,-1073.5 L -514.8,-1074.5 L -504.8,-1075.5 L -493.7,-1076.6 L -484.8,-1077.5 L -474.6,-1078.5 L -466.7,-1079.3 L -458.5,-1080.0 L -450.0,-1080.7 L -443.5,-1081.0 L -436.6,-1081.0 L -430.1,-1080.7 L -423.9,-1080.0 L -417.2,-1078.7 L -411.8,-1077.1 L -405.4,-1074.7 L -399.8,-1072.0 L -394.9,-1069.1 L -389.6,-1065.3 L -384.6,-1061.1 L -379.9,-1056.5 L -375.4,-1051.4 L -371.1,-1046.0 L -367.1,-1040.2 L -363.2,-1034.2 L -359.1,-1027.2 L -355.8,-1021.4 L -352.2,-1014.6 L -348.7,-1007.5 L -345.2,-1000.3 L -341.3,-992.2 L -337.6,-984.6 L -334.1,-977.7 L -330.2,-970.0 L -326.1,-962.1 L -322.0,-954.1 L -317.2,-945.2 L -313.3,-937.8 L -308.9,-929.4 L -304.4,-921.0 L -299.3,-911.5 L -294.7,-902.8 L -290.0,-894.1 L -285.7,-886.1 L -280.5,-876.3 L -276.1,-868.1 L -271.1,-859.0 L -265.6,-848.9 L -261.0,-840.5 L -255.8,-831.2 L -250.5,-821.8 L -245.1,-812.3 L -239.5,-802.7 L -233.9,-793.1 L -227.6,-782.5 L -222.3,-773.9 L -216.3,-764.2 L -210.1,-754.5 L -203.7,-744.8 L -197.2,-735.2 L -190.5,-725.6 L -183.6,-716.0 L -176.6,-706.4 L -169.3,-696.9 L -162.0,-687.5 L -154.4,-678.0 L -146.8,-668.6 L -139.0,-659.2 L -130.3,-648.9 L -123.1,-640.4 L -114.2,-629.9 L -106.9,-621.3 L -98.7,-611.7 L -90.5,-602.1 L -81.3,-591.6 L -73.7,-582.9 L -65.1,-573.2 L -56.6,-563.6 L -47.9,-553.8 L -39.2,-544.1 L -29.6,-533.3 L -21.7,-524.4 L -12.9,-514.5 L -4.1,-504.5 L 5.7,-493.5 L 14.5,-483.5 L 22.5,-474.4 L 31.4,-464.2 L 40.3,-454.0 L 49.2,-443.8 L 59.0,-432.5 L 67.9,-422.1 L 76.0,-412.8 L 85.0,-402.5 L 94.0,-392.1 L 103.0,-381.7 L 113.0,-370.3 L 121.2,-360.9 L 130.3,-350.6 L 140.0,-339.5 L 147.5,-330.8 L 155.5,-321.6 L 163.8,-312.1 L 170.2,-304.7 L 177.0,-296.9 L 184.1,-288.8 L 189.6,-282.6 L 195.3,-276.1 L 200.7,-270.0 L 205.9,-264.4 L 210.8,-259.1 L 215.4,-254.3 L 220.0,-249.8 L 224.5,-245.7 L 229.1,-242.0 L 234.3,-238.4 L 238.8,-235.7 L 244.5,-233.0 L 249.4,-231.1 L 255.1,-229.3 L 261.7,-227.8 L 267.8,-226.8 L 273.5,-226.3 L 280.7,-226.0 L 286.7,-226.0 L 294.2,-226.2 L 300.3,-226.4 L 306.9,-226.4 L 313.5,-226.0 L 320.7,-225.1 L 326.5,-224.0 L 333.0,-222.4 L 339.6,-220.3 L 346.1,-217.8 L 352.6,-214.8 L 359.0,-211.4 L 366.0,-207.0 L 371.6,-203.0 L 377.7,-198.1 L 383.7,-193.0 L 390.4,-187.1 L 396.8,-181.8 L 402.8,-177.1 L 409.8,-172.3 L 417.1,-167.9 L 424.6,-163.9 L 433.3,-160.0 L 440.7,-157.3 L 449.1,-154.6 L 457.8,-152.3 L 466.7,-150.3 L 475.9,-148.7 L 485.2,-147.2 L 495.6,-145.9 L 504.3,-144.9 L 515.0,-143.9 L 524.0,-143.1 L 534.0,-142.2 L 544.1,-141.3 L 554.3,-140.4 L 564.6,-139.5 L 575.0,-138.6 L 585.6,-137.6 L 596.3,-136.7 L 607.0,-135.8 L 617.9,-134.8 L 628.9,-133.9 L 640.0,-132.9 L 651.2,-131.9 L 662.4,-130.9 L 673.8,-130.0 L 685.3,-128.9 L 696.8,-127.9 L 709.6,-126.8 L 721.3,-125.7 L 731.9,-124.7 L 743.8,-123.6 L 755.7,-122.5 L 767.7,-121.3 L 780.9,-120.1 L 793.1,-118.9 L 804.1,-117.8 L 816.3,-116.6 L 828.7,-115.4 L 842.3,-114.0 L 853.5,-112.9 L 867.3,-111.5 L 879.9,-110.2 L 891.3,-109.1 L 904.1,-107.8 L 916.9,-106.5 L 931.0,-105.1 L 942.6,-104.0 L 955.6,-102.8 L 968.7,-101.5 L 981.7,-100.3 L 994.9,-99.1 L 1008.1,-97.9 L 1021.3,-96.7 L 1036.0,-95.3 L 1049.3,-94.0 L 1061.4,-92.9 L 1076.2,-91.5 L 1088.3,-90.4 L 1101.8,-89.1 L 1115.4,-87.9 L 1129.0,-86.6 L 1142.7,-85.3 L 1156.4,-84.0 L 1171.5,-82.6 L 1185.3,-81.3 L 1197.7,-80.1 L 1211.6,-78.9 L 1226.8,-77.5 L 1239.4,-76.3 L 1253.3,-75.0 L 1267.3,-73.7 L 1280.9,-72.3 L 1293.9,-71.1 L 1307.3,-69.7 L 1317.7,-68.6 L 1328.5,-67.4 L 1338.6,-66.1 L 1348.1,-64.7 L 1357.0,-63.1 L 1366.2,-61.2 L 1373.2,-59.5 L 1380.6,-57.4 L 1387.6,-55.1 L 1394.3,-52.6 L 1400.6,-49.7 L 1407.3,-46.0 L 1413.0,-42.3 L 1417.8,-38.5 L 1422.6,-34.0 L 1427.5,-28.6 L 1431.2,-23.8 L 1435.2,-17.5 L 1438.3,-12.0 L 1441.2,-5.6 L 1443.6,0.9 L 1445.5,7.6 L 1446.8,14.3 L 1447.5,21.2 L 1447.8,28.3 L 1447.6,35.5 L 1446.9,42.7 L 1445.6,49.9 L 1443.7,57.9 L 1441.4,65.1 L 1439.0,71.5 L 1435.8,78.5 L 1431.7,86.0 L 1427.9,92.0 L 1423.3,98.5 L 1418.2,104.8 L 1412.6,110.8 L 1406.6,116.7 L 1400.2,122.4 L 1393.4,127.8 L 1386.2,133.0 L 1377.9,138.4 L 1370.9,142.6 L 1362.7,147.0 L 1354.3,151.2 L 1344.7,155.4 L 1336.7,158.6 L 1327.5,161.9 L 1318.0,164.9 L 1308.4,167.5 L 1298.7,169.9 L 1287.7,172.0 L 1277.5,173.7 L 1268.3,175.0 L 1257.9,176.1 L 1246.2,177.0 L 1235.5,177.5 L 1225.8,177.8 L 1214.9,177.9 L 1203.9,177.8 L 1192.8,177.5 L 1181.6,177.2 L 1170.4,176.8 L 1159.0,176.3 L 1147.5,175.7 L 1134.9,175.0 L 1124.4,174.4 L 1112.7,173.7 L 1100.9,173.1 L 1089.1,172.6 L 1077.2,172.1 L 1064.0,171.6 L 1053.1,171.1 L 1041.0,170.5 L 1028.9,169.9 L 1016.6,169.3 L 1003.1,168.5 L 992.0,167.9 L 979.6,167.2" fill="none" stroke="url(#g)" stroke-width="151.8" stroke-linecap="round" stroke-linejoin="round"/>
<path d="M 969.3,168.4 L 946.6,167.2 L 933.9,166.4 L 921.1,165.6 L 907.0,164.6 L 894.2,163.7 L 882.6,162.9 L 869.6,161.9 L 856.6,160.8 L 843.5,159.6 L 830.4,158.4 L 817.3,157.2 L 804.1,156.0 L 790.9,154.7 L 777.6,153.5 L 764.2,152.2 L 750.9,151.0 L 737.4,149.7 L 724.0,148.4 L 709.1,147.0 L 695.6,145.7 L 683.4,144.6 L 669.8,143.2 L 654.7,141.8 L 642.4,140.6 L 628.7,139.3 L 614.9,137.9 L 599.8,136.4 L 587.3,135.2 L 572.1,133.6 L 559.6,132.4 L 545.7,131.0 L 531.8,129.7 L 516.4,128.3 L 503.8,127.2 L 488.3,125.9 L 475.7,124.9 L 461.6,123.7 L 447.5,122.6 L 433.3,121.4 L 417.8,120.1 L 405.0,119.0 L 390.9,117.8 L 376.7,116.6 L 362.4,115.3 L 348.2,114.1 L 333.9,112.8 L 319.6,111.5 L 305.3,110.2 L 291.0,108.9 L 276.6,107.6 L 262.2,106.3 L 247.8,105.0 L 232.0,103.5 L 219.0,102.4 L 204.5,101.0 L 190.0,99.7 L 175.5,98.4 L 159.6,96.9 L 145.0,95.6 L 131.9,94.5 L 115.9,93.1 L 102.7,91.9 L 88.1,90.6 L 72.0,89.3 L 58.8,88.2 L 44.2,87.0 L 29.5,85.9 L 14.8,84.9 L -1.4,83.8 L -14.7,82.9 L -29.5,81.9 L -44.2,80.9 L -60.5,79.8 L -73.8,78.9 L -88.6,77.9 L -103.5,76.9 L -119.8,75.8 L -133.1,74.9 L -148.0,73.8 L -162.9,72.7 L -177.7,71.5 L -192.6,70.3 L -209.0,69.0 L -223.9,67.6 L -237.3,66.3 L -252.2,64.7 L -268.6,62.5 L -283.3,60.1 L -296.6,57.5 L -311.1,54.0 L -325.5,50.0 L -339.7,45.3 L -353.5,40.1 L -367.0,34.2 L -380.1,27.7 L -392.8,20.7 L -406.3,12.3 L -417.0,4.9 L -428.5,-3.9 L -440.5,-14.1 L -450.0,-22.9 L -461.0,-34.1 L -469.7,-43.7 L -478.8,-54.8 L -487.4,-66.3 L -496.2,-79.4 L -503.0,-90.4 L -510.7,-104.2 L -517.2,-117.1 L -522.6,-128.9 L -528.1,-142.2 L -533.2,-155.7 L -537.9,-169.4 L -542.2,-183.2 L -546.4,-198.5 L -549.5,-211.2 L -552.7,-225.4 L -555.4,-239.6 L -557.9,-255.4 L -559.8,-269.8 L -561.3,-282.9 L -562.6,-297.4 L -563.7,-311.9 L -564.7,-326.5 L -565.7,-341.1 L -566.7,-355.7 L -567.7,-371.8 L -568.7,-386.4 L -569.6,-399.6 L -570.6,-414.3 L -571.6,-429.0 L -572.6,-443.7 L -573.7,-459.8 L -574.6,-472.8 L -575.6,-486.7 L -576.6,-500.1 L -577.5,-512.9 L -578.4,-526.4 L -579.1,-537.0 L -579.9,-549.3 L -580.5,-558.9 L -581.1,-569.1 L -581.7,-579.7 L -582.2,-587.8 L -582.7,-596.2 L -583.3,-604.8 L -583.9,-612.0 L -584.5,-618.0 L -585.1,-624.2 L -585.8,-629.8 L -586.7,-634.9 L -587.9,-639.5 L -589.5,-644.1 L -591.1,-647.4 L -593.4,-651.1 L -595.7,-653.7 L -598.4,-656.3 L -601.8,-658.8 L -604.7,-660.7 L -608.3,-662.7 L -612.0,-664.8 L -616.2,-667.3 L -619.5,-669.6 L -623.1,-672.4 L -626.4,-675.7 L -629.3,-679.2 L -632.0,-683.1 L -634.3,-687.3 L -636.4,-691.9 L -638.5,-697.3 L -640.0,-702.1 L -641.5,-707.7 L -642.9,-713.5 L -644.2,-719.6 L -645.6,-725.9 L -647.0,-732.4 L -648.5,-739.2 L -650.1,-746.1 L -651.8,-753.3 L -653.9,-761.3 L -655.7,-768.0 L -657.9,-775.6 L -660.2,-783.3 L -662.7,-791.1 L -665.3,-799.1 L -668.3,-808.0 L -670.9,-815.4 L -674.2,-824.6 L -677.2,-833.1 L -680.0,-840.8 L -683.1,-849.6 L -686.3,-858.5 L -689.5,-867.5 L -692.8,-876.7 L -696.0,-885.9 L -699.3,-895.3 L -702.5,-904.7 L -705.6,-913.8 L -708.6,-922.5 L -711.5,-931.4 L -713.7,-938.4 L -715.8,-945.8 L -717.6,-952.8 L -719.1,-959.7 L -720.2,-966.5 L -720.8,-973.3 L -720.9,-980.0 L -720.4,-987.4 L -719.6,-993.2 L -718.1,-999.6 L -716.1,-1005.8 L -713.6,-1011.7 L -710.5,-1017.3 L -707.0,-1022.7 L -703.1,-1027.8 L -698.7,-1032.7 L -693.9,-1037.3 L -688.8,-1041.6 L -683.2,-1045.6 L -677.2,-1049.3 L -670.8,-1052.7 L -663.3,-1056.1 L -656.1,-1058.7 L -649.4,-1060.7 L -641.7,-1062.5 L -633.7,-1064.0 L -624.7,-1065.3 L -617.1,-1066.2 L -608.5,-1067.1 L -598.9,-1068.0 L -590.9,-1068.6 L -580.9,-1069.3 L -572.6,-1069.8 L -562.3,-1070.4 L -552.8,-1071.1 L -544.2,-1071.8 L -534.5,-1072.6 L -524.7,-1073.5 L -514.8,-1074.5 L -504.8,-1075.5 L -493.7,-1076.6 L -484.8,-1077.5 L -474.6,-1078.5 L -466.7,-1079.3 L -458.5,-1080.0 L -450.0,-1080.7 L -443.5,-1081.0 L -436.6,-1081.0 L -430.1,-1080.7 L -423.9,-1080.0 L -417.2,-1078.7 L -411.8,-1077.1 L -405.4,-1074.7 L -399.8,-1072.0 L -394.9,-1069.1 L -389.6,-1065.3 L -384.6,-1061.1 L -379.9,-1056.5 L -375.4,-1051.4 L -371.1,-1046.0 L -367.1,-1040.2 L -363.2,-1034.2 L -359.1,-1027.2 L -355.8,-1021.4 L -352.2,-1014.6 L -348.7,-1007.5 L -345.2,-1000.3 L -341.3,-992.2 L -337.6,-984.6 L -334.1,-977.7 L -330.2,-970.0 L -326.1,-962.1 L -322.0,-954.1 L -317.2,-945.2 L -313.3,-937.8 L -308.9,-929.4 L -304.4,-921.0 L -299.3,-911.5 L -294.7,-902.8 L -290.0,-894.1 L -285.7,-886.1 L -280.5,-876.3 L -276.1,-868.1 L -271.1,-859.0 L -265.6,-848.9 L -261.0,-840.5 L -255.8,-831.2 L -250.5,-821.8 L -245.1,-812.3 L -239.5,-802.7 L -233.9,-793.1 L -227.6,-782.5 L -222.3,-773.9 L -216.3,-764.2 L -210.1,-754.5 L -203.7,-744.8 L -197.2,-735.2 L -190.5,-725.6 L -183.6,-716.0 L -176.6,-706.4 L -169.3,-696.9 L -162.0,-687.5 L -154.4,-678.0 L -146.8,-668.6 L -139.0,-659.2 L -130.3,-648.9 L -123.1,-640.4 L -114.2,-629.9 L -106.9,-621.3 L -98.7,-611.7 L -90.5,-602.1 L -81.3,-591.6 L -73.7,-582.9 L -65.1,-573.2 L -56.6,-563.6 L -47.9,-553.8 L -39.2,-544.1 L -29.6,-533.3 L -21.7,-524.4 L -12.9,-514.5 L -4.1,-504.5 L 5.7,-493.5 L 14.5,-483.5 L 22.5,-474.4 L 31.4,-464.2 L 40.3,-454.0 L 49.2,-443.8 L 59.0,-432.5 L 67.9,-422.1 L 76.0,-412.8 L 85.0,-402.5 L 94.0,-392.1 L 103.0,-381.7 L 113.0,-370.3 L 121.2,-360.9 L 130.3,-350.6 L 140.0,-339.5 L 147.5,-330.8 L 155.5,-321.6 L 163.8,-312.1 L 170.2,-304.7 L 177.0,-296.9 L 184.1,-288.8 L 189.6,-282.6 L 195.3,-276.1 L 200.7,-270.0 L 205.9,-264.4 L 210.8,-259.1 L 215.4,-254.3 L 220.0,-249.8 L 224.5,-245.7 L 229.1,-242.0 L 234.3,-238.4 L 238.8,-235.7 L 244.5,-233.0 L 249.4,-231.1 L 255.1,-229.3 L 261.7,-227.8 L 267.8,-226.8 L 273.5,-226.3 L 280.7,-226.0 L 286.7,-226.0 L 294.2,-226.2 L 300.3,-226.4 L 306.9,-226.4 L 313.5,-226.0 L 320.7,-225.1 L 326.5,-224.0 L 333.0,-222.4 L 339.6,-220.3 L 346.1,-217.8 L 352.6,-214.8 L 359.0,-211.4 L 366.0,-207.0 L 371.6,-203.0 L 377.7,-198.1 L 383.7,-193.0 L 390.4,-187.1 L 396.8,-181.8 L 402.8,-177.1 L 409.8,-172.3 L 417.1,-167.9 L 424.6,-163.9 L 433.3,-160.0 L 440.7,-157.3 L 449.1,-154.6 L 457.8,-152.3 L 466.7,-150.3 L 475.9,-148.7 L 485.2,-147.2 L 495.6,-145.9 L 504.3,-144.9 L 515.0,-143.9 L 524.0,-143.1 L 534.0,-142.2 L 544.1,-141.3 L 554.3,-140.4 L 564.6,-139.5 L 575.0,-138.6 L 585.6,-137.6 L 596.3,-136.7 L 607.0,-135.8 L 617.9,-134.8 L 628.9,-133.9 L 640.0,-132.9 L 651.2,-131.9 L 662.4,-130.9 L 673.8,-130.0 L 685.3,-128.9 L 696.8,-127.9 L 709.6,-126.8 L 721.3,-125.7 L 731.9,-124.7 L 743.8,-123.6 L 755.7,-122.5 L 767.7,-121.3 L 780.9,-120.1 L 793.1,-118.9 L 804.1,-117.8 L 816.3,-116.6 L 828.7,-115.4 L 842.3,-114.0 L 853.5,-112.9 L 867.3,-111.5 L 879.9,-110.2 L 891.3,-109.1 L 904.1,-107.8 L 916.9,-106.5 L 931.0,-105.1 L 942.6,-104.0 L 955.6,-102.8 L 968.7,-101.5 L 981.7,-100.3 L 994.9,-99.1 L 1008.1,-97.9 L 1021.3,-96.7 L 1036.0,-95.3 L 1049.3,-94.0 L 1061.4,-92.9 L 1076.2,-91.5 L 1088.3,-90.4 L 1101.8,-89.1 L 1115.4,-87.9 L 1129.0,-86.6 L 1142.7,-85.3 L 1156.4,-84.0 L 1171.5,-82.6 L 1185.3,-81.3 L 1197.7,-80.1 L 1211.6,-78.9 L 1226.8,-77.5 L 1239.4,-76.3 L 1253.3,-75.0 L 1267.3,-73.7 L 1280.9,-72.3 L 1293.9,-71.1 L 1307.3,-69.7 L 1317.7,-68.6 L 1328.5,-67.4 L 1338.6,-66.1 L 1348.1,-64.7 L 1357.0,-63.1 L 1366.2,-61.2 L 1373.2,-59.5 L 1380.6,-57.4 L 1387.6,-55.1 L 1394.3,-52.6 L 1400.6,-49.7 L 1407.3,-46.0 L 1413.0,-42.3 L 1417.8,-38.5 L 1422.6,-34.0 L 1427.5,-28.6 L 1431.2,-23.8 L 1435.2,-17.5 L 1438.3,-12.0 L 1441.2,-5.6 L 1443.6,0.9 L 1445.5,7.6 L 1446.8,14.3 L 1447.5,21.2 L 1447.8,28.3 L 1447.6,35.5 L 1446.9,42.7 L 1445.6,49.9 L 1443.7,57.9 L 1441.4,65.1 L 1439.0,71.5 L 1435.8,78.5 L 1431.7,86.0 L 1427.9,92.0 L 1423.3,98.5 L 1418.2,104.8 L 1412.6,110.8 L 1406.6,116.7 L 1400.2,122.4 L 1393.4,127.8 L 1386.2,133.0 L 1377.9,138.4 L 1370.9,142.6 L 1362.7,147.0 L 1354.3,151.2 L 1344.7,155.4 L 1336.7,158.6 L 1327.5,161.9 L 1318.0,164.9 L 1308.4,167.5 L 1298.7,169.9 L 1287.7,172.0 L 1277.5,173.7 L 1268.3,175.0 L 1257.9,176.1 L 1246.2,177.0 L 1235.5,177.5 L 1225.8,177.8 L 1214.9,177.9 L 1203.9,177.8 L 1192.8,177.5 L 1181.6,177.2 L 1170.4,176.8 L 1159.0,176.3 L 1147.5,175.7 L 1134.9,175.0 L 1124.4,174.4 L 1112.7,173.7 L 1100.9,173.1 L 1089.1,172.6 L 1077.2,172.1 L 1064.0,171.6 L 1053.1,171.1 L 1041.0,170.5 L 1028.9,169.9 L 1016.6,169.3 L 1003.1,168.5 L 992.0,167.9 L 979.6,167.2" fill="none" stroke="#ffffff" stroke-opacity="0.92" stroke-width="15.2" stroke-linecap="round" stroke-linejoin="round"/>
<line x1="978.0" y1="32.1" x2="960.5" y2="304.8" stroke="#ffffff" stroke-width="21.3" stroke-linecap="round"/>
</svg>