<svg xmlns="http://www.w3.org/2000/svg" viewBox="-852.7 -1256.3 2396.4 1486.2">
<defs><linearGradient id="g" gradientUnits="userSpaceOnUse" x1="-738.8" y1="-1142.5" x2="1429.8" y2="116.0">
<stop offset="0" stop-color="#1c9fe0"/><stop offset="1" stop-color="#0b1f44"/></linearGradient></defs>
<path d="M 949.6,106.6 L 933.0,105.3 L 920.2,104.3 L 906.0,103.1 L 894.4,102.1 L 880.1,100.9 L 868.4,99.8 L 855.3,98.6 L 842.2,97.3 L 827.7,95.9 L 814.5,94.7 L 802.6,93.6 L 789.2,92.4 L 775.9,91.1 L 762.5,89.9 L 749.0,88.8 L 735.5,87.6 L 722.0,86.6 L 708.4,85.5 L 694.7,84.5 L 681.0,83.5 L 667.3,82.4 L 653.6,81.3 L 639.8,80.2 L 624.6,78.9 L 612.1,77.9 L 598.2,76.7 L 584.3,75.4 L 570.3,74.2 L 554.9,72.8 L 542.2,71.6 L 528.2,70.3 L 514.1,68.9 L 498.5,67.4 L 485.8,66.2 L 471.6,64.8 L 457.4,63.4 L 443.1,62.1 L 428.8,60.7 L 414.5,59.5 L 400.1,58.3 L 385.8,57.1 L 371.3,56.0 L 356.9,54.9 L 341.0,53.6 L 327.9,52.6 L 311.9,51.2 L 298.9,50.1 L 284.3,48.8 L 269.7,47.5 L 255.1,46.2 L 240.5,44.9 L 225.8,43.5 L 211.2,42.2 L 196.5,40.9 L 180.6,39.5 L 166.9,38.3 L 155.2,37.3 L 143.0,36.2 L 131.5,35.2 L 120.8,34.3 L 110.8,33.5 L 101.4,32.8 L 92.7,32.2 L 84.5,31.6 L 77.0,31.1 L 69.4,30.5 L 63.6,29.9 L 57.1,29.3 L 52.2,28.7 L 46.6,27.9 L 42.4,27.0 L 38.0,25.9 L 34.2,24.4 L 30.4,22.4 L 27.5,20.2 L 25.2,18.1 L 22.8,15.2 L 21.2,12.7 L 19.6,9.8 L 18.1,6.2 L 17.1,2.8 L 16.5,-0.3 L 16.0,-3.6 L 15.3,-6.6 L 14.4,-9.5 L 13.3,-12.1 L 11.8,-14.5 L 10.1,-16.6 L 7.9,-18.4 L 5.5,-20.0 L 2.8,-21.3 L -0.6,-22.4 L -3.7,-22.9 L -7.3,-23.1 L -11.1,-22.8 L -15.1,-22.1 L -19.8,-21.0 L -23.9,-19.9 L -28.6,-18.3 L -33.6,-16.6 L -38.9,-14.8 L -44.5,-13.1 L -50.2,-11.3 L -56.3,-9.5 L -62.6,-7.7 L -69.1,-5.9 L -76.5,-3.9 L -82.9,-2.3 L -90.1,-0.7 L -98.2,1.1 L -105.1,2.4 L -112.9,3.8 L -121.0,5.1 L -129.2,6.2 L -137.6,7.1 L -146.2,8.0 L -155.0,8.6 L -163.9,9.2 L -173.0,9.5 L -182.3,9.7 L -192.6,9.7 L -201.1,9.5 L -210.7,9.1 L -220.5,8.5 L -230.3,7.8 L -240.3,6.8 L -250.4,5.7 L -260.6,4.5 L -270.9,3.2 L -281.3,1.8 L -291.8,0.2 L -303.4,-1.7 L -313.0,-3.5 L -323.7,-5.7 L -334.4,-8.2 L -345.2,-11.0 L -355.9,-14.3 L -367.5,-18.5 L -377.0,-22.4 L -387.4,-27.0 L -397.7,-32.2 L -408.9,-38.4 L -417.9,-43.8 L -427.7,-50.3 L -438.3,-57.9 L -446.7,-64.5 L -455.8,-72.3 L -464.6,-80.4 L -474.0,-89.9 L -481.5,-98.0 L -490.2,-108.2 L -497.0,-117.0 L -504.4,-126.9 L -511.3,-137.2 L -518.6,-148.9 L -524.9,-159.8 L -530.8,-170.9 L -535.8,-181.1 L -541.0,-192.6 L -546.4,-205.6 L -551.0,-217.5 L -554.8,-228.4 L -558.8,-240.7 L -562.8,-254.3 L -565.8,-265.6 L -569.1,-279.5 L -571.6,-291.0 L -574.1,-303.9 L -576.3,-316.9 L -578.3,-329.9 L -580.1,-343.1 L -581.6,-356.3 L -583.1,-370.9 L -584.2,-382.9 L -585.4,-396.3 L -586.5,-409.7 L -587.6,-423.2 L -588.6,-436.7 L -589.6,-450.3 L -590.7,-463.9 L -591.7,-477.6 L -592.6,-491.3 L -593.5,-505.0 L -594.5,-520.2 L -595.2,-532.6 L -596.0,-547.9 L -596.7,-560.4 L -597.4,-574.2 L -598.1,-587.4 L -598.7,-600.0 L -599.3,-611.9 L -599.9,-624.1 L -600.4,-633.5 L -600.8,-643.3 L -601.3,-652.4 L -601.8,-660.9 L -602.3,-668.7 L -602.8,-676.0 L -603.4,-682.7 L -604.1,-688.9 L -604.9,-694.7 L -606.1,-699.9 L -607.6,-704.7 L -609.5,-709.0 L -612.1,-713.2 L -614.5,-716.2 L -618.0,-719.3 L -621.3,-721.6 L -625.2,-723.9 L -630.1,-726.3 L -634.6,-728.7 L -638.5,-731.3 L -642.6,-734.5 L -646.4,-738.3 L -649.9,-742.4 L -652.8,-746.8 L -655.4,-751.5 L -657.5,-756.5 L -659.4,-761.9 L -661.0,-767.5 L -662.6,-773.8 L -663.7,-779.1 L -665.0,-785.3 L -666.3,-791.6 L -667.7,-798.2 L -669.1,-805.1 L -670.7,-812.1 L -672.5,-819.3 L -674.4,-826.6 L -676.6,-834.8 L -678.6,-841.7 L -681.0,-849.5 L -683.5,-857.4 L -686.3,-865.4 L -689.4,-874.4 L -692.1,-881.9 L -695.1,-890.4 L -698.2,-899.0 L -701.4,-907.7 L -704.5,-916.5 L -708.0,-926.4 L -710.8,-934.7 L -714.1,-943.9 L -717.4,-953.3 L -720.7,-962.8 L -723.9,-972.5 L -727.1,-982.3 L -730.4,-992.9 L -732.8,-1001.3 L -735.1,-1010.2 L -737.0,-1018.8 L -738.2,-1027.0 L -738.8,-1034.9 L -738.8,-1043.4 L -737.9,-1050.7 L -736.5,-1057.2 L -734.3,-1064.2 L -731.4,-1071.1 L -727.7,-1078.5 L -724.2,-1084.3 L -719.7,-1090.5 L -714.8,-1096.3 L -709.3,-1101.7 L -703.2,-1106.7 L -696.7,-1111.2 L -688.9,-1115.6 L -682.2,-1118.7 L -674.3,-1121.5 L -666.2,-1123.7 L -657.0,-1125.4 L -649.3,-1126.4 L -640.6,-1127.3 L -631.7,-1128.0 L -622.6,-1128.6 L -612.5,-1129.1 L -604.1,-1129.5 L -594.6,-1130.0 L -585.0,-1130.6 L -575.3,-1131.4 L -565.5,-1132.3 L -555.5,-1133.4 L -544.4,-1134.6 L -535.2,-1135.6 L -524.9,-1136.8 L -513.3,-1138.0 L -503.9,-1139.0 L -493.6,-1140.0 L -484.0,-1140.8 L -474.8,-1141.6 L -466.3,-1142.2 L -458.2,-1142.5 L -450.6,-1142.4 L -443.3,-1141.7 L -435.7,-1140.3 L -429.7,-1138.6 L -423.3,-1136.0 L -416.6,-1132.2 L -411.5,-1128.4 L -405.7,-1123.1 L -401.2,-1118.3 L -396.4,-1112.5 L -391.6,-1106.4 L -387.1,-1100.0 L -382.7,-1093.3 L -377.9,-1085.5 L -374.1,-1079.0 L -369.9,-1071.5 L -365.2,-1063.1 L -361.3,-1056.0 L -357.0,-1048.1 L -352.1,-1039.2 L -348.1,-1031.8 L -343.6,-1023.4 L -339.0,-1015.0 L -333.8,-1005.6 L -329.5,-997.8 L -324.5,-989.1 L -319.6,-980.2 L -314.6,-971.3 L -309.6,-962.2 L -304.5,-953.0 L -299.4,-943.6 L -294.2,-934.2 L -289.1,-924.7 L -283.4,-914.1 L -278.1,-904.4 L -273.4,-895.6 L -268.0,-885.7 L -262.4,-875.9 L -256.7,-866.0 L -251.0,-856.0 L -245.1,-846.1 L -239.0,-836.1 L -232.3,-825.0 L -226.6,-816.0 L -220.2,-805.9 L -213.0,-794.9 L -206.8,-785.9 L -199.8,-776.0 L -192.6,-766.1 L -185.2,-756.2 L -177.7,-746.4 L -169.9,-736.7 L -161.9,-727.0 L -152.9,-716.5 L -144.7,-706.9 L -137.1,-698.3 L -128.6,-688.7 L -119.2,-678.2 L -111.5,-669.5 L -102.9,-659.8 L -94.2,-650.1 L -85.5,-640.3 L -76.7,-630.5 L -68.0,-620.6 L -59.2,-610.6 L -50.3,-600.6 L -41.5,-590.5 L -32.7,-580.4 L -23.8,-570.2 L -14.9,-560.0 L -6.0,-549.7 L 2.9,-539.4 L 11.8,-529.0 L 20.8,-518.6 L 29.7,-508.2 L 38.7,-497.7 L 47.7,-487.2 L 56.7,-476.6 L 65.7,-466.1 L 74.8,-455.4 L 83.8,-444.8 L 93.9,-433.1 L 103.0,-422.5 L 111.3,-412.9 L 120.5,-402.2 L 130.6,-390.5 L 138.9,-380.9 L 147.8,-370.7 L 156.2,-361.0 L 164.2,-351.9 L 172.5,-342.5 L 178.8,-335.2 L 185.6,-327.6 L 192.7,-319.9 L 198.4,-314.1 L 204.4,-308.2 L 210.5,-303.0 L 216.7,-298.4 L 223.0,-294.5 L 229.6,-291.3 L 237.1,-288.6 L 243.4,-287.1 L 251.2,-285.9 L 257.7,-285.4 L 265.1,-285.5 L 272.6,-286.0 L 280.3,-287.0 L 288.1,-287.8 L 295.9,-287.9 L 303.7,-287.3 L 311.5,-286.2 L 319.3,-284.6 L 326.8,-282.5 L 334.8,-279.4 L 341.7,-276.0 L 347.8,-272.5 L 354.3,-268.1 L 360.6,-263.2 L 367.2,-257.3 L 372.5,-252.1 L 379.1,-245.5 L 384.8,-240.4 L 391.6,-235.0 L 398.6,-230.0 L 406.0,-225.4 L 413.8,-221.5 L 422.6,-217.9 L 431.0,-215.2 L 438.8,-213.2 L 447.7,-211.4 L 456.8,-210.1 L 466.0,-209.0 L 475.4,-208.2 L 485.0,-207.4 L 494.7,-206.7 L 504.5,-205.9 L 514.5,-205.1 L 524.6,-204.4 L 535.9,-203.5 L 545.2,-202.8 L 556.7,-201.9 L 566.3,-201.1 L 577.0,-200.3 L 587.8,-199.3 L 598.7,-198.3 L 609.7,-197.3 L 621.9,-196.1 L 631.9,-195.1 L 643.2,-194.0 L 654.6,-192.9 L 666.0,-191.8 L 677.6,-190.7 L 689.3,-189.5 L 701.0,-188.4 L 714.0,-187.2 L 725.9,-186.1 L 736.7,-185.1 L 748.8,-183.9 L 762.2,-182.7 L 773.2,-181.7 L 785.5,-180.5 L 799.1,-179.3 L 810.3,-178.2 L 822.8,-177.1 L 836.6,-175.9 L 849.2,-174.7 L 860.6,-173.7 L 873.3,-172.5 L 887.4,-171.2 L 899.0,-170.2 L 911.9,-168.9 L 924.8,-167.7 L 939.1,-166.3 L 950.9,-165.1 L 964.0,-163.8 L 977.2,-162.5 L 990.4,-161.2 L 1003.6,-159.9 L 1018.3,-158.4 L 1030.3,-157.2 L 1043.8,-155.9 L 1057.2,-154.5 L 1072.1,-153.0 L 1085.7,-151.6 L 1097.9,-150.4 L 1111.6,-149.0 L 1125.3,-147.7 L 1140.4,-146.2 L 1152.8,-145.0 L 1166.6,-143.7 L 1181.9,-142.3 L 1194.4,-141.1 L 1209.8,-139.6 L 1222.4,-138.4 L 1236.4,-137.0 L 1250.5,-135.6 L 1264.5,-134.2 L 1278.2,-132.8 L 1292.6,-131.3 L 1304.9,-129.9 L 1315.4,-128.7 L 1326.4,-127.3 L 1336.9,-125.7 L 1346.7,-123.8 L 1356.9,-121.4 L 1365.6,-118.9 L 1373.0,-116.3 L 1380.7,-112.9 L 1387.9,-109.2 L 1394.5,-104.9 L 1400.5,-100.1 L 1406.0,-94.8 L 1411.0,-89.0 L 1415.4,-82.8 L 1419.6,-75.4 L 1422.5,-69.0 L 1425.2,-61.7 L 1427.4,-54.0 L 1428.8,-46.2 L 1429.7,-38.3 L 1429.8,-30.4 L 1429.3,-22.4 L 1428.0,-13.7 L 1426.4,-6.5 L 1423.9,1.3 L 1420.8,9.1 L 1416.5,17.4 L 1412.5,23.9 L 1407.4,30.8 L 1401.8,37.5 L 1395.8,44.0 L 1389.6,50.5 L 1383.0,56.8 L 1376.0,62.9 L 1368.7,68.8 L 1361.0,74.3 L 1352.9,79.5 L 1344.5,84.4 L 1334.8,89.4 L 1326.6,93.2 L 1317.3,97.0 L 1307.7,100.5 L 1297.8,103.5 L 1287.7,106.2 L 1277.4,108.6 L 1266.9,110.5 L 1255.2,112.3 L 1245.5,113.5 L 1234.5,114.5 L 1223.5,115.2 L 1212.3,115.6 L 1201.1,115.9 L 1189.7,116.0 L 1178.3,115.9 L 1166.8,115.8 L 1155.2,115.7 L 1143.5,115.5 L 1130.5,115.2 L 1119.9,115.1 L 1107.9,114.9 L 1095.9,114.8 L 1083.8,114.7 L 1071.6,114.7 L 1059.4,114.7 L 1047.1,114.7 L 1034.6,114.6 L 1022.2,114.4 L 1009.6,114.2 L 995.8,113.9 L 984.3,113.5 L 971.6,113.0 L 958.8,112.4" fill="none" stroke="url(#g)" stroke-width="151.8" stroke-linecap="round" stroke-linejoin="round"/>
<path d="M 949.6,106.6 L 933.0,105.3 L 920.2,104.3 L 906.0,103.1 L 894.4,102.1 L 880.1,100.9 L 868.4,99.8 L 855.3,98.6 L 842.2,97.3 L 827.7,95.9 L 814.5,94.7 L 802.6,93.6 L 789.2,92.4 L 775.9,91.1 L 762.5,89.9 L 749.0,88.8 L 735.5,87.6 L 722.0,86.6 L 708.4,85.5 L 694.7,84.5 L 681.0,83.5 L 667.3,82.4 L 653.6,81.3 L 639.8,80.2 L 624.6,78.9 L 612.1,77.9 L 598.2,76.7 L 584.3,75.4 L 570.3,74.2 L 554.9,72.8 L 542.2,71.6 L 528.2,70.3 L 514.1,68.9 L 498.5,67.4 L 485.8,66.2 L 471.6,64.8 L 457.4,63.4 L 443.1,62.1 L 428.8,60.7 L 414.5,59.5 L 400.1,58.3 L 385.8,57.1 L 371.3,56.0 L 356.9,54.9 L 341.0,53.6 L 327.9,52.6 L 311.9,51.2 L 298.9,50.1 L 284.3,48.8 L 269.7,47.5 L 255.1,46.2 L 240.5,44.9 L 225.8,43.5 L 211.2,42.2 L 196.5,40.9 L 180.6,39.5 L 166.9,38.3 L 155.2,37.3 L 143.0,36.2 L 131.5,35.2 L 120.8,34.3 L 110.8,33.5 L 101.4,32.8 L 92.7,32.2 L 84.5,31.6 L 77.0,31.1 L 69.4,30.5 L 63.6,29.9 L 57.1,29.3 L 52.2,28.7 L 46.6,27.9 L 42.4,27.0 L 38.0,25.9 L 34.2,24.4 L 30.4,22.4 L 27.5,20.2 L 25.2,18.1 L 22.8,15.2 L 21.2,12.7 L 19.6,9.8 L 18.1,6.2 L 17.1,2.8 L 16.5,-0.3 L 16.0,-3.6 L 15.3,-6.6 L 14.4,-9.5 L 13.3,-12.1 L 11.8,-14.5 L 10.1,-16.6 L 7.9,-18.4 L 5.5,-20.0 L 2.8,-21.3 L -0.6,-22.4 L -3.7,-22.9 L -7.3,-23.1 L -11.1,-22.8 L -15.1,-22.1 L -19.8,-21.0 L -23.9,-19.9 L -28.6,-18.3 L -33.6,-16.6 L -38.9,-14.8 L -44.5,-13.1 L -50.2,-11.3 L -56.3,-9.5 L -62.6,-7.7 L -69.1,-5.9 L -76.5,-3.9 L -82.9,-2.3 L -90.1,-0.7 L -98.2,1.1 L -105.1,2.4 L -112.9,3.8 L -121.0,5.1 L -129.2,6.2 L -137.6,7.1 L -146.2,8.0 L -155.0,8.6 L -163.9,9.2 L -173.0,9.5 L -182.3,9.7 L -192.6,9.7 L -201.1,9.5 L -210.7,9.1 L -220.5,8.5 L -230.3,7.8 L -240.3,6.8 L -250.4,5.7 L -260.6,4.5 L -270.9,3.2 L -281.3,1.8 L -291.8,0.2 L -303.4,-1.7 L -313.0,-3.5 L -323.7,-5.7 L -334.4,-8.2 L -345.2,-11.0 L -355.9,-14.3 L -367.5,-18.5 L -377.0,-22.4 L -387.4,-27.0 L -397.7,-32.2 L -408.9,-38.4 L -417.9,-43.8 L -427.7,-50.3 L -438.3,-57.9 L -446.7,-64.5 L -455.8,-72.3 L -464.6,-80.4 L -474.0,-89.9 L -481.5,-98.0 L -490.2,-108.2 L -497.0,-117.0 L -504.4,-126.9 L -511.3,-137.2 L -518.6,-148.9 L -524.9,-159.8 L -530.8,-170.9 L -535.8,-181.1 L -541.0,-192.6 L -546.4,-205.6 L -551.0,-217.5 L -554.8,-228.4 L -558.8,-240.7 L -562.8,-254.3 L -565.8,-265.6 L -569.1,-279.5 L -571.6,-291.0 L -574.1,-303.9 L -576.3,-316.9 L -578.3,-329.9 L -580.1,-343.1 L -581.6,-356.3 L -583.1,-370.9 L -584.2,-382.9 L -585.4,-396.3 L -586.5,-409.7 L -587.6,-423.2 L -588.6,-436.7 L -589.6,-450.3 L -590.7,-463.9 L -591.7,-477.6 L -592.6,-491.3 L -593.5,-505.0 L -594.5,-520.2 L -595.2,-532.6 L -596.0,-547.9 L -596.7,-560.4 L -597.4,-574.2 L -598.1,-587.4 L -598.7,-600.0 L -599.3,-611.9 L -599.9,-624.1 L -600.4,-633.5 L -600.8,-643.3 L -601.3,-652.4 L -601.8,-660.9 L -602.3,-668.7 L -602.8,-676.0 L -603.4,-682.7 L -604.1,-688.9 L -604.9,-694.7 L -606.1,-699.9 L -607.6,-704.7 L -609.5,-709.0 L -612.1,-713.2 L -614.5,-716.2 L -618.0,-719.3 L -621.3,-721.6 L -625.2,-723.9 L -630.1,-726.3 L -634.6,-728.7 L -638.5,-731.3 L -642.6,-734.5 L -646.4,-738.3 L -649.9,-742.4 L -652.8,-746.8 L -655.4,-751.5 L -657.5,-756.5 L -659.4,-761.9 L -661.0,-767.5 L -662.6,-773.8 L -663.7,-779.1 L -665.0,-785.3 L -666.3,-791.6 L -667.7,-798.2 L -669.1,-805.1 L -670.7,-812.1 L -672.5,-819.3 L -674.4,-826.6 L -676.6,-834.8 L -678.6,-841.7 L -681.0,-849.5 L -683.5,-857.4 L -686.3,-865.4 L -689.4,-874.4 L -692.1,-881.9 L -695.1,-890.4 L -698.2,-899.0 L -701.4,-907.7 L -704.5,-916.5 L -708.0,-926.4 L -710.8,-934.7 L -714.1,-943.9 L -717.4,-953.3 L -720.7,-962.8 L -723.9,-972.5 L -727.1,-982.3 L -730.4,-992.9 L -732.8,-1001.3 L -735.1,-1010.2 L -737.0,-1018.8 L -738.2,-1027.0 L -738.8,-1034.9 L -738.8,-1043.4 L -737.9,-1050.7 L -736.5,-1057.2 L -734.3,-1064.2 L -731.4,-1071.1 L -727.7,-1078.5 L -724.2,-1084.3 L -719.7,-1090.5 L -714.8,-1096.3 L -709.3,-1101.7 L -703.2,-1106.7 L -696.7,-1111.2 L -688.9,-1115.6 L -682.2,-1118.7 L -674.3,-1121.5 L -666.2,-1123.7 L -657.0,-1125.4 L -649.3,-1126.4 L -640.6,-1127.3 L -631.7,-1128.0 L -622.6,-1128.6 L -612.5,-1129.1 L -604.1,-1129.5 L -594.6,-1130.0 L -585.0,-1130.6 L -575.3,-1131.4 L -565.5,-1132.3 L -555.5,-1133.4 L -544.4,-1134.6 L -535.2,-1135.6 L -524.9,-1136.8 L -513.3,-1138.0 L -503.9,-1139.0 L -493.6,-1140.0 L -484.0,-1140.8 L -474.8,-1141.6 L -466.3,-1142.2 L -458.2,-1142.5 L -450.6,-1142.4 L -443.3,-1141.7 L -435.7,-1140.3 L -429.7,-1138.6 L -423.3,-1136.0 L -416.6,-1132.2 L -411.5,-1128.4 L -405.7,-1123.1 L -401.2,-1118.3 L -396.4,-1112.5 L -391.6,-1106.4 L -387.1,-1100.0 L -382.7,-1093.3 L -377.9,-1085.5 L -374.1,-1079.0 L -369.9,-1071.5 L -365.2,-1063.1 L -361.3,-1056.0 L -357.0,-1048.1 L -352.1,-1039.2 L -348.1,-1031.8 L -343.6,-1023.4 L -339.0,-1015.0 L -333.8,-1005.6 L -329.5,-997.8 L -324.5,-989.1 L -319.6,-980.2 L -314.6,-971.3 L -309.6,-962.2 L -304.5,-953.0 L -299.4,-943.6 L -294.2,-934.2 L -289.1,-924.7 L -283.4,-914.1 L -278.1,-904.4 L -273.4,-895.6 L -268.0,-885.7 L -262.4,-875.9 L -256.7,-866.0 L -251.0,-856.0 L -245.1,-846.1 L -239.0,-836.1 L -232.3,-825.0 L -226.6,-816.0 L -220.2,-805.9 L -213.0,-794.9 L -206.8,-785.9 L -199.8,-776.0 L -192.6,-766.1 L -185.2,-756.2 L -177.7,-746.4 L -169.9,-736.7 L -161.9,-727.0 L -152.9,-716.5 L -144.7,-706.9 L -137.1,-698.3 L -128.6,-688.7 L -119.2,-678.2 L -111.5,-669.5 L -102.9,-659.8 L -94.2,-650.1 L -85.5,-640.3 L -76.7,-630.5 L -68.0,-620.6 L -59.2,-610.6 L -50.3,-600.6 L -41.5,-590.5 L -32.7,-580.4 L -23.8,-570.2 L -14.9,-560.0 L -6.0,-549.7 L 2.9,-539.4 L 11.8,-529.0 L 20.8,-518.6 L 29.7,-508.2 L 38.7,-497.7 L 47.7,-487.2 L 56.7,-476.6 L 65.7,-466.1 L 74.8,-455.4 L 83.8,-444.8 L 93.9,-433.1 L 103.0,-422.5 L 111.3,-412.9 L 120.5,-402.2 L 130.6,-390.5 L 138.9,-380.9 L 147.8,-370.7 L 156.2,-361.0 L 164.2,-351.9 L 172.5,-342.5 L 178.8,-335.2 L 185.6,-327.6 L 192.7,-319.9 L 198.4,-314.1 L 204.4,-308.2 L 210.5,-303.0 L 216.7,-298.4 L 223.0,-294.5 L 229.6,-291.3 L 237.1,-288.6 L 243.4,-287.1 L 251.2,-285.9 L 257.7,-285.4 L 265.1,-285.5 L 272.6,-286.0 L 280.3,-287.0 L 288.1,-287.8 L 295.9,-287.9 L 303.7,-287.3 L 311.5,-286.2 L 319.3,-284.6 L 326.8,-282.5 L 334.8,-279.4 L 341.7,-276.0 L 347.8,-272.5 L 354.3,-268.1 L 360.6,-263.2 L 367.2,-257.3 L 372.5,-252.1 L 379.1,-245.5 L 384.8,-240.4 L 391.6,-235.0 L 398.6,-230.0 L 406.0,-225.4 L 413.8,-221.5 L 422.6,-217.9 L 431.0,-215.2 L 438.8,-213.2 L 447.7,-211.4 L 456.8,-210.1 L 466.0,-209.0 L 475.4,-208.2 L 485.0,-207.4 L 494.7,-206.7 L 504.5,-205.9 L 514.5,-205.1 L 524.6,-204.4 L 535.9,-203.5 L 545.2,-202.8 L 556.7,-201.9 L 566.3,-201.1 L 577.0,-200.3 L 587.8,-199.3 L 598.7,-198.3 L 609.7,-197.3 L 621.9,-196.1 L 631.9,-195.1 L 643.2,-194.0 L 654.6,-192.9 L 666.0,-191.8 L 677.6,-190.7 L 689.3,-189.5 L 701.0,-188.4 L 714.0,-187.2 L 725.9,-186.1 L 736.7,-185.1 L 748.8,-183.9 L 762.2,-182.7 L 773.2,-181.7 L 785.5,-180.5 L 799.1,-179.3 L 810.3,-178.2 L 822.8,-177.1 L 836.6,-175.9 L 849.2,-174.7 L 860.6,-173.7 L 873.3,-172.5 L 887.4,-171.2 L 899.0,-170.2 L 911.9,-168.9 L 924.8,-167.7 L 939.1,-166.3 L 950.9,-165.1 L 964.0,-163.8 L 977.2,-162.5 L 990.4,-161.2 L 1003.6,-159.9 L 1018.3,-158.4 L 1030.3,-157.2 L 1043.8,-155.9 L 1057.2,-154.5 L 1072.1,-153.0 L 1085.7,-151.6 L 1097.9,-150.4 L 1111.6,-149.0 L 1125.3,-147.7 L 1140.4,-146.2 L 1152.8,-145.0 L 1166.6,-143.7 L 1181.9,-142.3 L 1194.4,-141.1 L 1209.8,-139.6 L 1222.4,-138.4 L 1236.4,-137.0 L 1250.5,-135.6 L 1264.5,-134.2 L 1278.2,-132.8 L 1292.6,-131.3 L 1304.9,-129.9 L 1315.4,-128.7 L 1326.4,-127.3 L 1336.9,-125.7 L 1346.7,-123.8 L 1356.9,-121.4 L 1365.6,-118.9 L 1373.0,-116.3 L 1380.7,-112.9 L 1387.9,-109.2 L 1394.5,-104.9 L 1400.5,-100.1 L 1406.0,-94.8 L 1411.0,-89.0 L 1415.4,-82.8 L 1419.6,-75.4 L 1422.5,-69.0 L 1425.2,-61.7 L 1427.4,-54.0 L 1428.8,-46.2 L 1429.7,-38.3 L 1429.8,-30.4 L 1429.3,-22.4 L 1428.0,-13.7 L 1426.4,-6.5 L 1423.9,1.3 L 1420.8,9.1 L 1416.5,17.4 L 1412.5,23.9 L 1407.4,30.8 L 1401.8,37.5 L 1395.8,44.0 L 1389.6,50.5 L 1383.0,56.8 L 1376.0,62.9 L 1368.7,68.8 L 1361.0,74.3 L 1352.9,79.5 L 1344.5,84.4 L 1334.8,89.4 L 1326.6,93.2 L 1317.3,97.0 L 1307.7,100.5 L 1297.8,103.5 L 1287.7,106.2 L 1277.4,108.6 L 1266.9,110.5 L 1255.2,112.3 L 1245.5,113.5 L 1234.5,114.5 L 1223.5,115.2 L 1212.3,115.6 L 1201.1,115.9 L 1189.7,116.0 L 1178.3,115.9 L 1166.8,115.8 L 1155.2,115.7 L 1143.5,115.5 L 1130.5,115.2 L 1119.9,115.1 L 1107.9,114.9 L 1095.9,114.8 L 1083.8,114.7 L 1071.6,114.7 L 1059.4,114.7 L 1047.1,114.7 L 1034.6,114.6 L 1022.2,114.4 L 1009.6,114.2 L 995.8,113.9 L 984.3,113.5 L 971.6,113.0 L 958.8,112.4" fill="none" stroke="#ffffff" stroke-opacity="0.92" stroke-width="15.2" stroke-linecap="round" stroke-linejoin="round"/>
<line x1="961.0" y1="-29.5" x2="938.2" y2="242.8" stroke="#ffffff" stroke-width="21.3" stroke-linecap="round"/>
</svg>