<svg xmlns="http://www.w3.org/2000/svg" viewBox="-1263.9 -848.0 2358.6 1456.0">
<defs><linearGradient id="g" gradientUnits="userSpaceOnUse" x1="-1263.9" y1="-848.0" x2="1094.7" y2="608.0">
<stop offset="0" stop-color="#1c9fe0"/><stop offset="1" stop-color="#0b1f44"/></linearGradient></defs>
<path d="M 93.1,62.0 L 74.8,48.6 L 65.0,41.5 L 54.5,33.9 L 44.0,26.2 L 33.9,18.8 L 22.1,10.2 L 12.3,3.1 L 0.9,-5.3 L -9.6,-12.9 L -21.9,-21.8 L -33.7,-30.5 L -43.3,-37.5 L -54.7,-45.8 L -66.8,-54.5 L -77.9,-62.5 L -89.6,-70.9 L -102.6,-80.3 L -114.5,-88.9 L -125.3,-96.6 L -138.5,-106.2 L -149.4,-114.1 L -162.7,-123.7 L -174.3,-132.1 L -186.0,-140.5 L -198.3,-149.5 L -212.0,-159.3 L -223.2,-167.4 L -235.7,-176.5 L -248.9,-186.1 L -262.1,-195.6 L -273.4,-203.8 L -285.8,-212.8 L -297.5,-221.3 L -309.7,-230.0 L -319.1,-236.7 L -330.1,-244.4 L -339.2,-250.7 L -348.0,-256.7 L -356.8,-262.5 L -365.1,-268.0 L -373.5,-273.5 L -381.1,-278.4 L -387.9,-282.7 L -395.2,-287.2 L -401.8,-291.1 L -408.1,-294.7 L -414.0,-297.7 L -420.7,-300.9 L -426.5,-303.6 L -432.4,-306.1 L -439.0,-308.5 L -446.3,-310.7 L -453.7,-312.5 L -461.1,-314.1 L -469.0,-315.6 L -476.8,-316.7 L -485.1,-317.5 L -491.9,-318.1 L -500.1,-318.8 L -507.0,-319.3 L -516.2,-319.8 L -523.7,-319.9 L -531.7,-319.7 L -540.4,-319.4 L -549.8,-319.1 L -558.6,-318.8 L -568.1,-318.5 L -577.8,-318.2 L -588.3,-318.3 L -598.4,-319.0 L -608.1,-320.3 L -618.3,-322.3 L -628.7,-324.9 L -639.6,-327.8 L -650.1,-331.0 L -660.1,-334.6 L -670.7,-338.9 L -681.6,-344.0 L -692.0,-349.4 L -702.4,-355.2 L -712.8,-361.4 L -723.3,-367.6 L -734.6,-374.2 L -744.3,-379.9 L -755.3,-386.3 L -766.3,-392.8 L -778.6,-400.0 L -788.9,-405.9 L -800.4,-412.3 L -813.3,-419.2 L -824.8,-425.0 L -836.5,-430.4 L -849.2,-435.6 L -862.7,-440.8 L -875.3,-445.7 L -887.2,-450.7 L -897.9,-455.4 L -908.5,-460.3 L -918.4,-465.0 L -928.2,-469.6 L -937.2,-473.9 L -946.3,-478.3 L -954.1,-482.1 L -962.9,-486.7 L -970.5,-490.9 L -977.8,-495.5 L -984.8,-500.6 L -991.1,-506.0 L -995.9,-510.8 L -1000.6,-516.2 L -1005.0,-522.1 L -1008.1,-526.9 L -1011.1,-532.4 L -1013.2,-537.2 L -1014.8,-542.1 L -1015.9,-547.4 L -1016.4,-551.7 L -1016.5,-555.9 L -1016.0,-559.9 L -1015.4,-564.3 L -1015.1,-569.2 L -1015.3,-574.0 L -1015.7,-578.7 L -1016.4,-584.2 L -1017.5,-588.9 L -1019.2,-593.7 L -1021.3,-597.8 L -1024.1,-601.8 L -1027.2,-605.3 L -1030.8,-608.4 L -1034.5,-611.0 L -1039.4,-613.7 L -1044.3,-615.7 L -1049.9,-617.2 L -1054.6,-618.1 L -1060.4,-618.7 L -1067.0,-618.8 L -1073.0,-618.4 L -1079.2,-617.7 L -1086.1,-617.0 L -1093.4,-616.4 L -1099.8,-616.3 L -1106.1,-616.6 L -1112.0,-617.2 L -1117.8,-618.3 L -1122.6,-619.4 L -1126.4,-620.8 L -1130.4,-622.8 L -1134.0,-625.3 L -1137.1,-628.4 L -1139.1,-631.0 L -1141.0,-634.3 L -1142.4,-637.8 L -1143.1,-641.3 L -1143.3,-644.7 L -1143.0,-647.7 L -1142.3,-650.8 L -1141.3,-654.0 L -1140.1,-657.6 L -1138.8,-662.0 L -1137.5,-665.8 L -1135.8,-670.6 L -1134.1,-675.4 L -1132.2,-680.3 L -1129.8,-685.5 L -1127.1,-690.8 L -1123.6,-696.5 L -1119.6,-701.9 L -1115.6,-706.5 L -1110.7,-711.2 L -1105.3,-715.6 L -1099.9,-719.1 L -1094.5,-721.9 L -1088.6,-724.2 L -1082.1,-726.0 L -1076.2,-727.0 L -1070.1,-727.4 L -1063.7,-727.1 L -1057.6,-726.2 L -1051.8,-724.7 L -1045.6,-722.6 L -1038.6,-719.7 L -1032.2,-716.8 L -1025.8,-713.8 L -1018.8,-709.8 L -1012.6,-705.6 L -1005.5,-700.2 L -1000.3,-695.5 L -994.0,-688.7 L -989.1,-682.5 L -984.6,-675.7 L -980.3,-668.3 L -976.1,-660.7 L -971.4,-652.0 L -967.5,-644.6 L -963.4,-636.1 L -958.8,-626.5 L -954.6,-618.1 L -949.6,-609.5 L -944.3,-601.6 L -938.3,-593.6 L -931.5,-585.4 L -924.9,-578.6 L -917.2,-571.6 L -910.0,-565.9 L -901.3,-560.0 L -894.0,-555.7 L -885.4,-551.4 L -876.4,-547.7 L -866.9,-544.4 L -857.2,-541.3 L -846.7,-538.0 L -836.6,-534.7 L -826.8,-531.6 L -815.8,-528.0 L -805.7,-524.7 L -794.4,-521.0 L -782.3,-517.1 L -772.8,-514.0 L -761.5,-510.4 L -749.5,-506.5 L -738.4,-502.9 L -726.7,-499.1 L -714.1,-495.1 L -702.1,-491.2 L -689.3,-487.1 L -677.6,-483.4 L -663.9,-479.0 L -653.2,-475.6 L -640.6,-471.6 L -627.2,-467.3 L -614.3,-463.1 L -601.9,-459.2 L -587.5,-454.5 L -575.6,-450.7 L -561.7,-446.2 L -548.9,-442.1 L -535.4,-437.8 L -521.1,-433.2 L -507.4,-428.8 L -492.9,-424.1 L -479.0,-419.6 L -465.8,-415.3 L -451.0,-410.6 L -436.9,-406.0 L -423.4,-401.7 L -409.2,-397.1 L -395.6,-392.7 L -379.8,-387.5 L -365.4,-382.9 L -351.6,-378.4 L -337.0,-373.7 L -321.7,-368.7 L -308.4,-364.4 L -293.0,-359.3 L -278.1,-354.5 L -264.0,-349.9 L -249.1,-345.0 L -232.6,-339.6 L -218.4,-334.9 L -204.0,-330.2 L -188.9,-325.3 L -173.7,-320.3 L -157.0,-314.8 L -143.3,-310.3 L -128.0,-305.2 L -112.6,-300.2 L -97.2,-295.0 L -81.8,-289.9 L -66.3,-284.8 L -50.0,-279.3 L -35.3,-274.4 L -19.7,-269.2 L -2.5,-263.4 L 13.1,-258.2 L 28.0,-253.0 L 42.9,-247.9 L 58.6,-242.5 L 74.3,-237.1 L 90.9,-231.3 L 105.9,-226.2 L 121.7,-220.8 L 137.6,-215.3 L 154.3,-209.6 L 170.2,-204.2 L 185.4,-199.0 L 201.3,-193.6 L 218.2,-187.9 L 234.2,-182.5 L 250.3,-177.0 L 265.6,-171.8 L 281.7,-166.4 L 298.6,-160.6 L 314.0,-155.4 L 331.7,-149.3 L 347.9,-143.8 L 364.1,-138.3 L 378.7,-133.3 L 394.9,-127.9 L 411.2,-122.4 L 428.4,-116.8 L 444.8,-111.5 L 460.3,-106.5 L 477.5,-100.9 L 493.9,-95.5 L 511.9,-89.6 L 525.9,-85.0 L 543.1,-79.4 L 559.6,-74.0 L 576.0,-68.6 L 591.7,-63.5 L 608.1,-58.1 L 626.3,-52.2 L 641.9,-47.0 L 657.5,-41.8 L 674.0,-36.3 L 691.3,-30.5 L 707.8,-24.9 L 723.4,-19.7 L 741.1,-14.0 L 755.5,-9.2 L 770.0,-4.5 L 783.0,-0.3 L 797.2,4.4 L 808.6,8.3 L 819.7,12.4 L 830.4,16.8 L 838.9,20.5 L 848.4,24.8 L 855.6,28.2 L 863.6,31.9 L 870.0,35.0 L 876.1,38.1 L 881.6,41.1 L 887.7,44.9 L 893.0,48.6 L 898.3,52.7 L 904.2,57.7 L 909.4,62.6 L 914.9,68.4 L 920.9,75.2 L 926.0,81.5 L 931.1,88.4 L 935.4,95.4 L 939.4,103.0 L 943.5,112.3 L 946.3,119.5 L 949.3,128.2 L 952.2,137.7 L 954.7,147.0 L 956.9,156.2 L 959.0,166.2 L 960.9,176.4 L 962.8,187.4 L 964.5,197.5 L 966.3,208.4 L 968.1,220.6 L 969.5,231.9 L 970.6,242.8 L 971.5,254.0 L 972.1,265.9 L 972.6,278.5 L 973.2,290.8 L 973.7,303.8 L 974.0,315.1 L 974.1,328.5 L 973.9,342.1 L 973.4,352.1 L 972.9,363.4 L 972.2,374.7 L 971.5,384.8 L 970.4,394.2 L 969.1,402.6 L 967.1,411.8 L 964.9,419.4 L 962.0,427.3 L 958.7,434.1 L 954.8,440.8 L 950.1,447.6 L 944.5,454.6 L 939.0,460.5 L 932.7,466.0 L 925.5,471.1 L 918.6,475.1 L 910.9,478.8 L 902.8,481.9 L 894.1,484.5 L 884.7,486.3 L 877.3,487.1 L 868.5,487.4 L 859.1,486.9 L 850.2,485.6 L 841.8,483.7 L 833.2,480.9 L 824.7,477.3 L 817.4,473.5 L 810.2,468.9 L 802.9,463.2 L 797.4,458.1 L 791.9,452.0 L 787.2,445.5 L 783.0,438.4 L 779.8,431.5 L 777.5,424.8 L 775.6,417.0 L 774.5,410.4 L 774.1,403.6 L 774.3,397.3 L 775.1,390.9 L 776.6,384.4 L 778.6,378.3 L 781.2,372.7 L 784.4,366.9 L 788.3,361.3 L 793.0,355.7 L 797.9,350.4 L 803.1,344.9 L 808.3,339.5 L 814.3,333.3 L 820.1,327.2 L 825.8,321.4 L 832.5,314.4 L 839.1,307.4 L 844.5,301.6 L 850.9,294.5 L 857.4,286.6 L 863.9,278.3 L 869.3,270.8 L 874.9,262.6 L 880.3,253.8 L 884.1,246.8 L 887.8,239.4 L 891.3,231.2 L 893.6,225.5 L 895.8,219.2 L 897.6,212.9 L 898.8,207.1 L 899.5,201.4 L 899.4,196.0 L 898.8,190.2 L 897.6,184.1 L 895.5,177.8 L 893.3,172.8 L 890.1,167.3 L 886.6,162.4 L 882.7,158.0 L 878.7,154.5 L 874.1,151.2 L 869.1,148.4 L 863.7,146.2 L 858.5,144.7 L 853.5,143.9 L 847.9,143.7 L 842.8,144.1 L 838.1,145.1 L 833.1,146.8 L 827.8,149.1 L 822.5,151.6 L 817.2,154.2 L 811.0,157.4 L 804.7,161.0 L 799.0,164.3 L 792.0,168.1 L 785.2,171.5 L 777.6,174.9 L 769.0,178.8 L 761.7,181.9 L 753.1,185.1 L 743.3,188.1 L 734.4,190.4 L 724.7,192.3 L 715.2,193.9 L 705.0,195.4 L 693.9,196.5 L 683.2,197.0 L 672.8,196.8 L 661.1,196.2 L 650.4,195.2 L 637.8,193.6 L 627.5,191.8 L 614.7,189.0 L 603.1,185.7 L 592.1,182.0 L 580.6,177.5 L 568.8,172.0 L 558.8,166.6 L 547.6,159.4 L 538.1,152.5 L 528.9,144.9 L 520.0,137.3 L 512.2,130.5 L 505.3,124.6 L 498.6,119.0 L 491.4,113.6 L 485.4,109.5 L 479.4,106.0 L 472.5,102.5 L 466.1,100.1 L 460.3,98.4 L 453.9,97.2 L 446.8,96.6 L 440.7,96.6 L 434.6,97.1 L 427.5,98.4 L 421.3,100.0 L 415.3,102.0 L 408.5,105.1 L 402.7,108.5 L 397.1,112.5 L 392.4,116.5 L 387.4,121.4 L 382.6,126.8 L 377.9,133.2 L 374.5,138.7 L 371.2,145.7 L 369.1,152.0 L 367.5,158.4 L 366.4,165.8 L 366.0,172.7 L 366.2,180.6 L 367.2,187.6 L 368.6,194.4 L 369.7,199.9 L 370.4,205.1 L 370.9,210.7 L 371.0,215.0 L 370.9,219.8 L 370.4,222.7 L 369.5,226.3 L 368.0,229.5 L 366.4,232.1 L 364.2,234.4 L 361.8,236.1 L 359.2,237.4 L 356.1,238.2 L 352.8,238.7 L 349.1,238.8 L 345.6,238.6 L 341.8,237.8 L 338.3,236.5 L 334.2,234.5 L 330.4,232.5 L 325.8,229.8 L 322.1,227.4 L 317.1,224.0 L 312.5,220.8 L 307.3,217.2 L 302.2,213.5 L 296.6,209.3 L 290.4,204.8 L 284.5,200.5 L 278.1,195.7 L 271.5,190.8 L 264.2,185.4 L 257.5,180.4 L 250.2,175.0 L 242.7,169.4 L 235.0,163.7 L 226.7,157.5 L 218.6,151.5 L 210.7,145.6 L 202.2,139.3 L 193.2,132.6 L 184.4,126.1 L 175.5,119.5 L 166.9,113.1 L 157.6,106.3 L 147.7,99.2 L 138.6,92.6 L 128.9,85.5 L 118.5,78.1 L 108.5,70.8 L 98.9,63.9 Z" fill="none" stroke="url(#g)" stroke-width="134.0" stroke-linejoin="round" stroke-linecap="round"/>
<path d="M 93.1,62.0 L 74.8,48.6 L 65.0,41.5 L 54.5,33.9 L 44.0,26.2 L 33.9,18.8 L 22.1,10.2 L 12.3,3.1 L 0.9,-5.3 L -9.6,-12.9 L -21.9,-21.8 L -33.7,-30.5 L -43.3,-37.5 L -54.7,-45.8 L -66.8,-54.5 L -77.9,-62.5 L -89.6,-70.9 L -102.6,-80.3 L -114.5,-88.9 L -125.3,-96.6 L -138.5,-106.2 L -149.4,-114.1 L -162.7,-123.7 L -174.3,-132.1 L -186.0,-140.5 L -198.3,-149.5 L -212.0,-159.3 L -223.2,-167.4 L -235.7,-176.5 L -248.9,-186.1 L -262.1,-195.6 L -273.4,-203.8 L -285.8,-212.8 L -297.5,-221.3 L -309.7,-230.0 L -319.1,-236.7 L -330.1,-244.4 L -339.2,-250.7 L -348.0,-256.7 L -356.8,-262.5 L -365.1,-268.0 L -373.5,-273.5 L -381.1,-278.4 L -387.9,-282.7 L -395.2,-287.2 L -401.8,-291.1 L -408.1,-294.7 L -414.0,-297.7 L -420.7,-300.9 L -426.5,-303.6 L -432.4,-306.1 L -439.0,-308.5 L -446.3,-310.7 L -453.7,-312.5 L -461.1,-314.1 L -469.0,-315.6 L -476.8,-316.7 L -485.1,-317.5 L -491.9,-318.1 L -500.1,-318.8 L -507.0,-319.3 L -516.2,-319.8 L -523.7,-319.9 L -531.7,-319.7 L -540.4,-319.4 L -549.8,-319.1 L -558.6,-318.8 L -568.1,-318.5 L -577.8,-318.2 L -588.3,-318.3 L -598.4,-319.0 L -608.1,-320.3 L -618.3,-322.3 L -628.7,-324.9 L -639.6,-327.8 L -650.1,-331.0 L -660.1,-334.6 L -670.7,-338.9 L -681.6,-344.0 L -692.0,-349.4 L -702.4,-355.2 L -712.8,-361.4 L -723.3,-367.6 L -734.6,-374.2 L -744.3,-379.9 L -755.3,-386.3 L -766.3,-392.8 L -778.6,-400.0 L -788.9,-405.9 L -800.4,-412.3 L -813.3,-419.2 L -824.8,-425.0 L -836.5,-430.4 L -849.2,-435.6 L -862.7,-440.8 L -875.3,-445.7 L -887.2,-450.7 L -897.9,-455.4 L -908.5,-460.3 L -918.4,-465.0 L -928.2,-469.6 L -937.2,-473.9 L -946.3,-478.3 L -954.1,-482.1 L -962.9,-486.7 L -970.5,-490.9 L -977.8,-495.5 L -984.8,-500.6 L -991.1,-506.0 L -995.9,-510.8 L -1000.6,-516.2 L -1005.0,-522.1 L -1008.1,-526.9 L -1011.1,-532.4 L -1013.2,-537.2 L -1014.8,-542.1 L -1015.9,-547.4 L -1016.4,-551.7 L -1016.5,-555.9 L -1016.0,-559.9 L -1015.4,-564.3 L -1015.1,-569.2 L -1015.3,-574.0 L -1015.7,-578.7 L -1016.4,-584.2 L -1017.5,-588.9 L -1019.2,-593.7 L -1021.3,-597.8 L -1024.1,-601.8 L -1027.2,-605.3 L -1030.8,-608.4 L -1034.5,-611.0 L -1039.4,-613.7 L -1044.3,-615.7 L -1049.9,-617.2 L -1054.6,-618.1 L -1060.4,-618.7 L -1067.0,-618.8 L -1073.0,-618.4 L -1079.2,-617.7 L -1086.1,-617.0 L -1093.4,-616.4 L -1099.8,-616.3 L -1106.1,-616.6 L -1112.0,-617.2 L -1117.8,-618.3 L -1122.6,-619.4 L -1126.4,-620.8 L -1130.4,-622.8 L -1134.0,-625.3 L -1137.1,-628.4 L -1139.1,-631.0 L -1141.0,-634.3 L -1142.4,-637.8 L -1143.1,-641.3 L -1143.3,-644.7 L -1143.0,-647.7 L -1142.3,-650.8 L -1141.3,-654.0 L -1140.1,-657.6 L -1138.8,-662.0 L -1137.5,-665.8 L -1135.8,-670.6 L -1134.1,-675.4 L -1132.2,-680.3 L -1129.8,-685.5 L -1127.1,-690.8 L -1123.6,-696.5 L -1119.6,-701.9 L -1115.6,-706.5 L -1110.7,-711.2 L -1105.3,-715.6 L -1099.9,-719.1 L -1094.5,-721.9 L -1088.6,-724.2 L -1082.1,-726.0 L -1076.2,-727.0 L -1070.1,-727.4 L -1063.7,-727.1 L -1057.6,-726.2 L -1051.8,-724.7 L -1045.6,-722.6 L -1038.6,-719.7 L -1032.2,-716.8 L -1025.8,-713.8 L -1018.8,-709.8 L -1012.6,-705.6 L -1005.5,-700.2 L -1000.3,-695.5 L -994.0,-688.7 L -989.1,-682.5 L -984.6,-675.7 L -980.3,-668.3 L -976.1,-660.7 L -971.4,-652.0 L -967.5,-644.6 L -963.4,-636.1 L -958.8,-626.5 L -954.6,-618.1 L -949.6,-609.5 L -944.3,-601.6 L -938.3,-593.6 L -931.5,-585.4 L -924.9,-578.6 L -917.2,-571.6 L -910.0,-565.9 L -901.3,-560.0 L -894.0,-555.7 L -885.4,-551.4 L -876.4,-547.7 L -866.9,-544.4 L -857.2,-541.3 L -846.7,-538.0 L -836.6,-534.7 L -826.8,-531.6 L -815.8,-528.0 L -805.7,-524.7 L -794.4,-521.0 L -782.3,-517.1 L -772.8,-514.0 L -761.5,-510.4 L -749.5,-506.5 L -738.4,-502.9 L -726.7,-499.1 L -714.1,-495.1 L -702.1,-491.2 L -689.3,-487.1 L -677.6,-483.4 L -663.9,-479.0 L -653.2,-475.6 L -640.6,-471.6 L -627.2,-467.3 L -614.3,-463.1 L -601.9,-459.2 L -587.5,-454.5 L -575.6,-450.7 L -561.7,-446.2 L -548.9,-442.1 L -535.4,-437.8 L -521.1,-433.2 L -507.4,-428.8 L -492.9,-424.1 L -479.0,-419.6 L -465.8,-415.3 L -451.0,-410.6 L -436.9,-406.0 L -423.4,-401.7 L -409.2,-397.1 L -395.6,-392.7 L -379.8,-387.5 L -365.4,-382.9 L -351.6,-378.4 L -337.0,-373.7 L -321.7,-368.7 L -308.4,-364.4 L -293.0,-359.3 L -278.1,-354.5 L -264.0,-349.9 L -249.1,-345.0 L -232.6,-339.6 L -218.4,-334.9 L -204.0,-330.2 L -188.9,-325.3 L -173.7,-320.3 L -157.0,-314.8 L -143.3,-310.3 L -128.0,-305.2 L -112.6,-300.2 L -97.2,-295.0 L -81.8,-289.9 L -66.3,-284.8 L -50.0,-279.3 L -35.3,-274.4 L -19.7,-269.2 L -2.5,-263.4 L 13.1,-258.2 L 28.0,-253.0 L 42.9,-247.9 L 58.6,-242.5 L 74.3,-237.1 L 90.9,-231.3 L 105.9,-226.2 L 121.7,-220.8 L 137.6,-215.3 L 154.3,-209.6 L 170.2,-204.2 L 185.4,-199.0 L 201.3,-193.6 L 218.2,-187.9 L 234.2,-182.5 L 250.3,-177.0 L 265.6,-171.8 L 281.7,-166.4 L 298.6,-160.6 L 314.0,-155.4 L 331.7,-149.3 L 347.9,-143.8 L 364.1,-138.3 L 378.7,-133.3 L 394.9,-127.9 L 411.2,-122.4 L 428.4,-116.8 L 444.8,-111.5 L 460.3,-106.5 L 477.5,-100.9 L 493.9,-95.5 L 511.9,-89.6 L 525.9,-85.0 L 543.1,-79.4 L 559.6,-74.0 L 576.0,-68.6 L 591.7,-63.5 L 608.1,-58.1 L 626.3,-52.2 L 641.9,-47.0 L 657.5,-41.8 L 674.0,-36.3 L 691.3,-30.5 L 707.8,-24.9 L 723.4,-19.7 L 741.1,-14.0 L 755.5,-9.2 L 770.0,-4.5 L 783.0,-0.3 L 797.2,4.4 L 808.6,8.3 L 819.7,12.4 L 830.4,16.8 L 838.9,20.5 L 848.4,24.8 L 855.6,28.2 L 863.6,31.9 L 870.0,35.0 L 876.1,38.1 L 881.6,41.1 L 887.7,44.9 L 893.0,48.6 L 898.3,52.7 L 904.2,57.7 L 909.4,62.6 L 914.9,68.4 L 920.9,75.2 L 926.0,81.5 L 931.1,88.4 L 935.4,95.4 L 939.4,103.0 L 943.5,112.3 L 946.3,119.5 L 949.3,128.2 L 952.2,137.7 L 954.7,147.0 L 956.9,156.2 L 959.0,166.2 L 960.9,176.4 L 962.8,187.4 L 964.5,197.5 L 966.3,208.4 L 968.1,220.6 L 969.5,231.9 L 970.6,242.8 L 971.5,254.0 L 972.1,265.9 L 972.6,278.5 L 973.2,290.8 L 973.7,303.8 L 974.0,315.1 L 974.1,328.5 L 973.9,342.1 L 973.4,352.1 L 972.9,363.4 L 972.2,374.7 L 971.5,384.8 L 970.4,394.2 L 969.1,402.6 L 967.1,411.8 L 964.9,419.4 L 962.0,427.3 L 958.7,434.1 L 954.8,440.8 L 950.1,447.6 L 944.5,454.6 L 939.0,460.5 L 932.7,466.0 L 925.5,471.1 L 918.6,475.1 L 910.9,478.8 L 902.8,481.9 L 894.1,484.5 L 884.7,486.3 L 877.3,487.1 L 868.5,487.4 L 859.1,486.9 L 850.2,485.6 L 841.8,483.7 L 833.2,480.9 L 824.7,477.3 L 817.4,473.5 L 810.2,468.9 L 802.9,463.2 L 797.4,458.1 L 791.9,452.0 L 787.2,445.5 L 783.0,438.4 L 779.8,431.5 L 777.5,424.8 L 775.6,417.0 L 774.5,410.4 L 774.1,403.6 L 774.3,397.3 L 775.1,390.9 L 776.6,384.4 L 778.6,378.3 L 781.2,372.7 L 784.4,366.9 L 788.3,361.3 L 793.0,355.7 L 797.9,350.4 L 803.1,344.9 L 808.3,339.5 L 814.3,333.3 L 820.1,327.2 L 825.8,321.4 L 832.5,314.4 L 839.1,307.4 L 844.5,301.6 L 850.9,294.5 L 857.4,286.6 L 863.9,278.3 L 869.3,270.8 L 874.9,262.6 L 880.3,253.8 L 884.1,246.8 L 887.8,239.4 L 891.3,231.2 L 893.6,225.5 L 895.8,219.2 L 897.6,212.9 L 898.8,207.1 L 899.5,201.4 L 899.4,196.0 L 898.8,190.2 L 897.6,184.1 L 895.5,177.8 L 893.3,172.8 L 890.1,167.3 L 886.6,162.4 L 882.7,158.0 L 878.7,154.5 L 874.1,151.2 L 869.1,148.4 L 863.7,146.2 L 858.5,144.7 L 853.5,143.9 L 847.9,143.7 L 842.8,144.1 L 838.1,145.1 L 833.1,146.8 L 827.8,149.1 L 822.5,151.6 L 817.2,154.2 L 811.0,157.4 L 804.7,161.0 L 799.0,164.3 L 792.0,168.1 L 785.2,171.5 L 777.6,174.9 L 769.0,178.8 L 761.7,181.9 L 753.1,185.1 L 743.3,188.1 L 734.4,190.4 L 724.7,192.3 L 715.2,193.9 L 705.0,195.4 L 693.9,196.5 L 683.2,197.0 L 672.8,196.8 L 661.1,196.2 L 650.4,195.2 L 637.8,193.6 L 627.5,191.8 L 614.7,189.0 L 603.1,185.7 L 592.1,182.0 L 580.6,177.5 L 568.8,172.0 L 558.8,166.6 L 547.6,159.4 L 538.1,152.5 L 528.9,144.9 L 520.0,137.3 L 512.2,130.5 L 505.3,124.6 L 498.6,119.0 L 491.4,113.6 L 485.4,109.5 L 479.4,106.0 L 472.5,102.5 L 466.1,100.1 L 460.3,98.4 L 453.9,97.2 L 446.8,96.6 L 440.7,96.6 L 434.6,97.1 L 427.5,98.4 L 421.3,100.0 L 415.3,102.0 L 408.5,105.1 L 402.7,108.5 L 397.1,112.5 L 392.4,116.5 L 387.4,121.4 L 382.6,126.8 L 377.9,133.2 L 374.5,138.7 L 371.2,145.7 L 369.1,152.0 L 367.5,158.4 L 366.4,165.8 L 366.0,172.7 L 366.2,180.6 L 367.2,187.6 L 368.6,194.4 L 369.7,199.9 L 370.4,205.1 L 370.9,210.7 L 371.0,215.0 L 370.9,219.8 L 370.4,222.7 L 369.5,226.3 L 368.0,229.5 L 366.4,232.1 L 364.2,234.4 L 361.8,236.1 L 359.2,237.4 L 356.1,238.2 L 352.8,238.7 L 349.1,238.8 L 345.6,238.6 L 341.8,237.8 L 338.3,236.5 L 334.2,234.5 L 330.4,232.5 L 325.8,229.8 L 322.1,227.4 L 317.1,224.0 L 312.5,220.8 L 307.3,217.2 L 302.2,213.5 L 296.6,209.3 L 290.4,204.8 L 284.5,200.5 L 278.1,195.7 L 271.5,190.8 L 264.2,185.4 L 257.5,180.4 L 250.2,175.0 L 242.7,169.4 L 235.0,163.7 L 226.7,157.5 L 218.6,151.5 L 210.7,145.6 L 202.2,139.3 L 193.2,132.6 L 184.4,126.1 L 175.5,119.5 L 166.9,113.1 L 157.6,106.3 L 147.7,99.2 L 138.6,92.6 L 128.9,85.5 L 118.5,78.1 L 108.5,70.8 L 98.9,63.9 Z" fill="none" stroke="#ffffff" stroke-width="13.4" stroke-linejoin="round" stroke-linecap="round"/>
</svg>