<svg xmlns="http://www.w3.org/2000/svg" viewBox="-386.2 -394.9 1432.1 955.6">
<defs><linearGradient id="g" gradientUnits="userSpaceOnUse" x1="-386.2" y1="-394.9" x2="1045.9" y2="560.8">
<stop offset="0" stop-color="#1c9fe0"/><stop offset="1" stop-color="#0b1f44"/></linearGradient></defs>
<path d="M 93.6,61.9 L 75.7,49.5 L 65.2,42.4 L 55.2,35.5 L 44.6,28.2 L 32.7,20.0 L 22.4,12.9 L 12.0,5.7 L 0.9,-1.9 L -11.4,-10.4 L -22.6,-18.3 L -32.8,-25.4 L -44.8,-33.8 L -55.6,-41.4 L -67.2,-49.6 L -79.3,-58.2 L -91.0,-66.5 L -102.1,-74.5 L -113.9,-82.9 L -126.4,-91.8 L -137.7,-100.0 L -150.4,-108.9 L -161.7,-116.8 L -173.7,-125.2 L -184.7,-132.9 L -194.8,-139.9 L -204.9,-147.0 L -214.5,-153.6 L -224.7,-160.8 L -232.4,-166.2 L -239.2,-171.0 L -247.0,-176.5 L -253.2,-180.9 L -259.4,-185.3 L -265.5,-189.6 L -270.7,-193.3 L -275.6,-196.8 L -280.4,-200.2 L -285.1,-203.6 L -289.0,-206.4 L -292.4,-208.8 L -295.7,-211.3 L -298.7,-213.6 L -301.6,-216.2 L -304.1,-219.0 L -306.5,-222.1 L -308.5,-225.0 L -310.3,-228.1 L -311.9,-231.7 L -312.7,-234.9 L -312.9,-238.3 L -312.6,-241.6 L -311.9,-244.6 L -310.4,-248.0 L -309.0,-250.9 L -307.2,-254.6 L -305.3,-258.3 L -303.1,-261.9 L -300.2,-265.8 L -297.3,-269.2 L -293.6,-272.7 L -289.6,-275.9 L -286.0,-278.7 L -281.4,-281.9 L -276.8,-285.2 L -272.2,-288.4 L -266.8,-292.3 L -262.1,-295.6 L -257.6,-298.8 L -252.8,-302.2 L -248.0,-305.3 L -242.9,-308.3 L -238.5,-310.8 L -234.6,-313.1 L -230.9,-315.2 L -227.2,-317.1 L -223.6,-318.8 L -220.6,-319.8 L -217.3,-320.5 L -213.8,-321.0 L -209.9,-321.4 L -205.9,-321.6 L -202.1,-321.6 L -198.0,-321.4 L -193.5,-321.0 L -188.3,-320.3 L -183.7,-319.6 L -178.4,-318.7 L -172.2,-317.5 L -166.5,-316.4 L -160.2,-315.0 L -154.0,-313.5 L -147.2,-311.6 L -139.9,-309.3 L -132.6,-306.9 L -125.3,-304.5 L -117.5,-301.9 L -109.0,-299.0 L -101.0,-296.3 L -91.6,-293.1 L -83.2,-290.2 L -74.1,-287.1 L -64.3,-283.8 L -54.8,-280.5 L -45.6,-277.4 L -35.7,-274.0 L -26.2,-270.7 L -15.9,-267.2 L -4.4,-263.2 L 5.6,-259.7 L 15.9,-256.2 L 26.9,-252.4 L 38.5,-248.4 L 49.2,-244.7 L 61.8,-240.4 L 72.2,-236.8 L 84.4,-232.6 L 95.7,-228.7 L 107.6,-224.6 L 120.9,-220.1 L 133.2,-215.9 L 144.9,-211.9 L 157.4,-207.6 L 169.3,-203.5 L 183.3,-198.7 L 196.2,-194.4 L 208.5,-190.2 L 222.2,-185.5 L 234.0,-181.5 L 247.2,-177.0 L 260.5,-172.5 L 274.5,-167.7 L 287.3,-163.3 L 302.3,-158.3 L 314.6,-154.1 L 329.0,-149.2 L 342.8,-144.5 L 356.0,-140.0 L 370.7,-135.1 L 384.8,-130.4 L 399.8,-125.7 L 413.4,-121.4 L 427.0,-117.1 L 441.5,-112.5 L 457.5,-107.5 L 472.0,-102.9 L 485.2,-98.7 L 499.9,-93.9 L 516.1,-88.7 L 530.9,-84.0 L 545.0,-79.5 L 559.1,-74.9 L 574.1,-70.1 L 589.8,-65.0 L 604.8,-60.1 L 619.0,-55.5 L 634.1,-50.5 L 649.2,-45.6 L 665.0,-40.3 L 680.2,-35.2 L 694.6,-30.4 L 709.9,-25.3 L 726.5,-19.7 L 740.6,-15.0 L 755.1,-10.1 L 769.2,-5.3 L 783.6,-0.4 L 796.2,3.8 L 808.3,8.0 L 821.2,12.4 L 832.4,16.4 L 844.8,21.1 L 855.1,25.5 L 865.9,30.6 L 875.6,36.1 L 884.7,41.9 L 893.4,48.2 L 903.3,56.3 L 911.9,64.2 L 920.1,72.8 L 927.1,80.9 L 934.1,90.4 L 940.9,101.3 L 946.4,111.5 L 950.8,121.4 L 954.6,131.6 L 958.0,142.6 L 961.0,155.1 L 962.8,165.6 L 964.1,177.5 L 965.4,190.8 L 966.4,202.5 L 967.5,214.9 L 968.4,226.9 L 969.2,239.6 L 969.9,252.5 L 970.5,265.9 L 970.8,277.7 L 971.1,289.7 L 971.4,301.2 L 971.7,313.3 L 971.9,323.2 L 972.1,332.7 L 972.2,342.4 L 972.4,352.1 L 972.6,361.0 L 972.6,369.1 L 972.6,377.3 L 972.3,385.2 L 971.6,393.9 L 970.7,400.2 L 969.3,407.5 L 967.2,415.4 L 965.0,421.7 L 962.0,428.5 L 958.3,435.3 L 953.9,442.3 L 949.0,448.8 L 943.9,454.9 L 937.7,461.3 L 930.8,467.3 L 925.0,471.4 L 918.0,475.6 L 910.7,479.2 L 903.2,482.1 L 895.1,484.5 L 887.1,486.2 L 879.5,487.1 L 870.4,487.5 L 862.8,487.2 L 853.8,486.1 L 846.1,484.4 L 838.4,482.0 L 831.3,479.1 L 823.8,475.2 L 817.4,471.3 L 811.2,466.6 L 804.9,461.0 L 800.0,455.7 L 795.6,450.2 L 791.1,443.0 L 788.4,437.5 L 785.8,430.5 L 784.2,423.7 L 783.3,417.2 L 783.0,409.8 L 783.3,403.5 L 784.3,397.1 L 785.7,391.2 L 787.9,384.7 L 790.5,378.9 L 793.4,373.6 L 797.0,367.8 L 800.5,362.9 L 805.1,356.9 L 809.3,352.1 L 814.4,346.9 L 820.0,341.2 L 825.5,335.5 L 831.0,329.9 L 836.8,323.7 L 842.5,317.1 L 848.9,309.5 L 854.2,302.5 L 859.2,295.3 L 864.2,287.6 L 868.9,280.2 L 873.4,273.2 L 877.7,266.1 L 881.2,260.0 L 884.7,253.3 L 887.2,247.9 L 889.8,241.3 L 891.6,235.2 L 892.7,229.2 L 893.5,223.1 L 894.0,216.7 L 894.0,209.7 L 893.6,203.0 L 892.8,196.6 L 891.4,189.8 L 889.4,182.6 L 887.1,177.0 L 883.8,170.4 L 880.7,165.3 L 876.6,159.7 L 872.2,154.9 L 867.8,150.8 L 862.9,147.1 L 857.5,143.9 L 851.9,141.3 L 847.1,139.6 L 841.7,138.3 L 836.4,137.5 L 830.9,137.4 L 826.1,137.8 L 821.2,138.8 L 816.6,140.4 L 812.1,142.6 L 808.2,145.2 L 804.5,148.4 L 801.6,151.5 L 798.2,155.2 L 795.6,158.1 L 792.3,161.3 L 789.0,164.5 L 785.1,167.7 L 781.6,170.3 L 777.4,172.9 L 773.6,174.9 L 768.8,177.2 L 764.7,179.2 L 759.6,181.5 L 754.5,183.6 L 749.4,185.6 L 743.7,187.5 L 737.0,189.4 L 731.0,191.1 L 724.3,192.7 L 716.9,194.1 L 709.9,195.2 L 702.3,196.1 L 694.7,196.8 L 685.7,197.4 L 677.6,197.8 L 669.3,198.0 L 660.3,198.1 L 650.7,197.8 L 641.7,197.0 L 632.2,195.6 L 621.9,193.8 L 612.6,191.6 L 602.7,188.8 L 592.8,185.2 L 582.5,180.9 L 572.9,176.2 L 562.7,170.4 L 554.8,165.2 L 546.8,159.7 L 538.1,153.4 L 530.9,148.2 L 524.2,143.1 L 516.8,137.6 L 510.5,132.8 L 504.3,128.1 L 499.4,124.3 L 494.0,120.2 L 489.3,116.9 L 484.4,113.7 L 479.3,110.8 L 474.0,108.2 L 468.7,105.7 L 462.3,103.4 L 456.8,102.0 L 450.5,100.9 L 444.0,100.3 L 437.1,100.2 L 430.7,100.6 L 423.2,101.7 L 417.2,103.0 L 410.4,105.2 L 404.0,107.9 L 398.8,110.8 L 393.2,114.7 L 388.6,118.8 L 384.1,123.6 L 379.7,129.2 L 376.1,135.0 L 373.2,140.9 L 370.6,148.0 L 368.9,154.3 L 367.5,161.9 L 366.9,167.8 L 366.8,175.2 L 367.1,182.5 L 367.5,187.9 L 368.3,193.3 L 369.1,198.6 L 369.4,204.0 L 369.1,208.6 L 368.2,213.4 L 366.8,218.0 L 364.9,222.4 L 363.1,225.3 L 360.6,228.3 L 357.3,231.1 L 354.1,233.1 L 350.4,234.7 L 346.5,235.8 L 342.7,236.2 L 338.7,236.0 L 335.0,235.3 L 331.8,234.0 L 328.3,232.0 L 325.2,230.0 L 322.0,227.8 L 318.3,225.3 L 314.3,222.4 L 309.9,219.1 L 306.3,216.3 L 301.8,212.9 L 296.7,209.1 L 291.4,205.0 L 286.5,201.4 L 280.5,197.0 L 274.8,192.8 L 268.0,187.7 L 261.5,182.9 L 255.4,178.4 L 248.5,173.3 L 241.0,167.7 L 233.2,162.0 L 226.4,156.9 L 218.6,151.1 L 210.6,145.2 L 202.1,138.8 L 194.2,132.9 L 184.9,126.0 L 177.2,120.2 L 167.9,113.3 L 159.0,106.7 L 149.9,99.9 L 141.0,93.5 L 131.5,86.7 L 121.3,79.5 L 111.5,72.6 L 102.0,65.9 Z" fill="none" stroke="url(#g)" stroke-width="81.4" stroke-linejoin="round" stroke-linecap="round"/>
<path d="M 93.6,61.9 L 75.7,49.5 L 65.2,42.4 L 55.2,35.5 L 44.6,28.2 L 32.7,20.0 L 22.4,12.9 L 12.0,5.7 L 0.9,-1.9 L -11.4,-10.4 L -22.6,-18.3 L -32.8,-25.4 L -44.8,-33.8 L -55.6,-41.4 L -67.2,-49.6 L -79.3,-58.2 L -91.0,-66.5 L -102.1,-74.5 L -113.9,-82.9 L -126.4,-91.8 L -137.7,-100.0 L -150.4,-108.9 L -161.7,-116.8 L -173.7,-125.2 L -184.7,-132.9 L -194.8,-139.9 L -204.9,-147.0 L -214.5,-153.6 L -224.7,-160.8 L -232.4,-166.2 L -239.2,-171.0 L -247.0,-176.5 L -253.2,-180.9 L -259.4,-185.3 L -265.5,-189.6 L -270.7,-193.3 L -275.6,-196.8 L -280.4,-200.2 L -285.1,-203.6 L -289.0,-206.4 L -292.4,-208.8 L -295.7,-211.3 L -298.7,-213.6 L -301.6,-216.2 L -304.1,-219.0 L -306.5,-222.1 L -308.5,-225.0 L -310.3,-228.1 L -311.9,-231.7 L -312.7,-234.9 L -312.9,-238.3 L -312.6,-241.6 L -311.9,-244.6 L -310.4,-248.0 L -309.0,-250.9 L -307.2,-254.6 L -305.3,-258.3 L -303.1,-261.9 L -300.2,-265.8 L -297.3,-269.2 L -293.6,-272.7 L -289.6,-275.9 L -286.0,-278.7 L -281.4,-281.9 L -276.8,-285.2 L -272.2,-288.4 L -266.8,-292.3 L -262.1,-295.6 L -257.6,-298.8 L -252.8,-302.2 L -248.0,-305.3 L -242.9,-308.3 L -238.5,-310.8 L -234.6,-313.1 L -230.9,-315.2 L -227.2,-317.1 L -223.6,-318.8 L -220.6,-319.8 L -217.3,-320.5 L -213.8,-321.0 L -209.9,-321.4 L -205.9,-321.6 L -202.1,-321.6 L -198.0,-321.4 L -193.5,-321.0 L -188.3,-320.3 L -183.7,-319.6 L -178.4,-318.7 L -172.2,-317.5 L -166.5,-316.4 L -160.2,-315.0 L -154.0,-313.5 L -147.2,-311.6 L -139.9,-309.3 L -132.6,-306.9 L -125.3,-304.5 L -117.5,-301.9 L -109.0,-299.0 L -101.0,-296.3 L -91.6,-293.1 L -83.2,-290.2 L -74.1,-287.1 L -64.3,-283.8 L -54.8,-280.5 L -45.6,-277.4 L -35.7,-274.0 L -26.2,-270.7 L -15.9,-267.2 L -4.4,-263.2 L 5.6,-259.7 L 15.9,-256.2 L 26.9,-252.4 L 38.5,-248.4 L 49.2,-244.7 L 61.8,-240.4 L 72.2,-236.8 L 84.4,-232.6 L 95.7,-228.7 L 107.6,-224.6 L 120.9,-220.1 L 133.2,-215.9 L 144.9,-211.9 L 157.4,-207.6 L 169.3,-203.5 L 183.3,-198.7 L 196.2,-194.4 L 208.5,-190.2 L 222.2,-185.5 L 234.0,-181.5 L 247.2,-177.0 L 260.5,-172.5 L 274.5,-167.7 L 287.3,-163.3 L 302.3,-158.3 L 314.6,-154.1 L 329.0,-149.2 L 342.8,-144.5 L 356.0,-140.0 L 370.7,-135.1 L 384.8,-130.4 L 399.8,-125.7 L 413.4,-121.4 L 427.0,-117.1 L 441.5,-112.5 L 457.5,-107.5 L 472.0,-102.9 L 485.2,-98.7 L 499.9,-93.9 L 516.1,-88.7 L 530.9,-84.0 L 545.0,-79.5 L 559.1,-74.9 L 574.1,-70.1 L 589.8,-65.0 L 604.8,-60.1 L 619.0,-55.5 L 634.1,-50.5 L 649.2,-45.6 L 665.0,-40.3 L 680.2,-35.2 L 694.6,-30.4 L 709.9,-25.3 L 726.5,-19.7 L 740.6,-15.0 L 755.1,-10.1 L 769.2,-5.3 L 783.6,-0.4 L 796.2,3.8 L 808.3,8.0 L 821.2,12.4 L 832.4,16.4 L 844.8,21.1 L 855.1,25.5 L 865.9,30.6 L 875.6,36.1 L 884.7,41.9 L 893.4,48.2 L 903.3,56.3 L 911.9,64.2 L 920.1,72.8 L 927.1,80.9 L 934.1,90.4 L 940.9,101.3 L 946.4,111.5 L 950.8,121.4 L 954.6,131.6 L 958.0,142.6 L 961.0,155.1 L 962.8,165.6 L 964.1,177.5 L 965.4,190.8 L 966.4,202.5 L 967.5,214.9 L 968.4,226.9 L 969.2,239.6 L 969.9,252.5 L 970.5,265.9 L 970.8,277.7 L 971.1,289.7 L 971.4,301.2 L 971.7,313.3 L 971.9,323.2 L 972.1,332.7 L 972.2,342.4 L 972.4,352.1 L 972.6,361.0 L 972.6,369.1 L 972.6,377.3 L 972.3,385.2 L 971.6,393.9 L 970.7,400.2 L 969.3,407.5 L 967.2,415.4 L 965.0,421.7 L 962.0,428.5 L 958.3,435.3 L 953.9,442.3 L 949.0,448.8 L 943.9,454.9 L 937.7,461.3 L 930.8,467.3 L 925.0,471.4 L 918.0,475.6 L 910.7,479.2 L 903.2,482.1 L 895.1,484.5 L 887.1,486.2 L 879.5,487.1 L 870.4,487.5 L 862.8,487.2 L 853.8,486.1 L 846.1,484.4 L 838.4,482.0 L 831.3,479.1 L 823.8,475.2 L 817.4,471.3 L 811.2,466.6 L 804.9,461.0 L 800.0,455.7 L 795.6,450.2 L 791.1,443.0 L 788.4,437.5 L 785.8,430.5 L 784.2,423.7 L 783.3,417.2 L 783.0,409.8 L 783.3,403.5 L 784.3,397.1 L 785.7,391.2 L 787.9,384.7 L 790.5,378.9 L 793.4,373.6 L 797.0,367.8 L 800.5,362.9 L 805.1,356.9 L 809.3,352.1 L 814.4,346.9 L 820.0,341.2 L 825.5,335.5 L 831.0,329.9 L 836.8,323.7 L 842.5,317.1 L 848.9,309.5 L 854.2,302.5 L 859.2,295.3 L 864.2,287.6 L 868.9,280.2 L 873.4,273.2 L 877.7,266.1 L 881.2,260.0 L 884.7,253.3 L 887.2,247.9 L 889.8,241.3 L 891.6,235.2 L 892.7,229.2 L 893.5,223.1 L 894.0,216.7 L 894.0,209.7 L 893.6,203.0 L 892.8,196.6 L 891.4,189.8 L 889.4,182.6 L 887.1,177.0 L 883.8,170.4 L 880.7,165.3 L 876.6,159.7 L 872.2,154.9 L 867.8,150.8 L 862.9,147.1 L 857.5,143.9 L 851.9,141.3 L 847.1,139.6 L 841.7,138.3 L 836.4,137.5 L 830.9,137.4 L 826.1,137.8 L 821.2,138.8 L 816.6,140.4 L 812.1,142.6 L 808.2,145.2 L 804.5,148.4 L 801.6,151.5 L 798.2,155.2 L 795.6,158.1 L 792.3,161.3 L 789.0,164.5 L 785.1,167.7 L 781.6,170.3 L 777.4,172.9 L 773.6,174.9 L 768.8,177.2 L 764.7,179.2 L 759.6,181.5 L 754.5,183.6 L 749.4,185.6 L 743.7,187.5 L 737.0,189.4 L 731.0,191.1 L 724.3,192.7 L 716.9,194.1 L 709.9,195.2 L 702.3,196.1 L 694.7,196.8 L 685.7,197.4 L 677.6,197.8 L 669.3,198.0 L 660.3,198.1 L 650.7,197.8 L 641.7,197.0 L 632.2,195.6 L 621.9,193.8 L 612.6,191.6 L 602.7,188.8 L 592.8,185.2 L 582.5,180.9 L 572.9,176.2 L 562.7,170.4 L 554.8,165.2 L 546.8,159.7 L 538.1,153.4 L 530.9,148.2 L 524.2,143.1 L 516.8,137.6 L 510.5,132.8 L 504.3,128.1 L 499.4,124.3 L 494.0,120.2 L 489.3,116.9 L 484.4,113.7 L 479.3,110.8 L 474.0,108.2 L 468.7,105.7 L 462.3,103.4 L 456.8,102.0 L 450.5,100.9 L 444.0,100.3 L 437.1,100.2 L 430.7,100.6 L 423.2,101.7 L 417.2,103.0 L 410.4,105.2 L 404.0,107.9 L 398.8,110.8 L 393.2,114.7 L 388.6,118.8 L 384.1,123.6 L 379.7,129.2 L 376.1,135.0 L 373.2,140.9 L 370.6,148.0 L 368.9,154.3 L 367.5,161.9 L 366.9,167.8 L 366.8,175.2 L 367.1,182.5 L 367.5,187.9 L 368.3,193.3 L 369.1,198.6 L 369.4,204.0 L 369.1,208.6 L 368.2,213.4 L 366.8,218.0 L 364.9,222.4 L 363.1,225.3 L 360.6,228.3 L 357.3,231.1 L 354.1,233.1 L 350.4,234.7 L 346.5,235.8 L 342.7,236.2 L 338.7,236.0 L 335.0,235.3 L 331.8,234.0 L 328.3,232.0 L 325.2,230.0 L 322.0,227.8 L 318.3,225.3 L 314.3,222.4 L 309.9,219.1 L 306.3,216.3 L 301.8,212.9 L 296.7,209.1 L 291.4,205.0 L 286.5,201.4 L 280.5,197.0 L 274.8,192.8 L 268.0,187.7 L 261.5,182.9 L 255.4,178.4 L 248.5,173.3 L 241.0,167.7 L 233.2,162.0 L 226.4,156.9 L 218.6,151.1 L 210.6,145.2 L 202.1,138.8 L 194.2,132.9 L 184.9,126.0 L 177.2,120.2 L 167.9,113.3 L 159.0,106.7 L 149.9,99.9 L 141.0,93.5 L 131.5,86.7 L 121.3,79.5 L 111.5,72.6 L 102.0,65.9 Z" fill="none" stroke="#ffffff" stroke-width="8.1" stroke-linejoin="round" stroke-linecap="round"/>
</svg>