<svg xmlns="http://www.w3.org/2000/svg" viewBox="-1262.7 -846.0 2356.2 1456.2">
<defs><linearGradient id="g" gradientUnits="userSpaceOnUse" x1="-1262.7" y1="-846.0" x2="1093.5" y2="610.2">
<stop offset="0" stop-color="#1c9fe0"/><stop offset="1" stop-color="#0b1f44"/></linearGradient></defs>
<path d="M 95.7,59.6 L 73.5,43.7 L 63.5,36.6 L 51.8,28.2 L 41.7,21.0 L 31.4,13.6 L 20.5,5.8 L 8.9,-2.4 L -2.2,-10.4 L -12.9,-18.0 L -24.2,-26.1 L -35.6,-34.2 L -47.6,-42.9 L -59.2,-51.1 L -70.3,-59.1 L -83.2,-68.4 L -94.4,-76.5 L -105.7,-84.7 L -117.6,-93.3 L -130.3,-102.4 L -141.8,-110.7 L -153.9,-119.4 L -166.2,-128.2 L -179.7,-137.9 L -191.5,-146.3 L -204.0,-155.1 L -216.0,-163.5 L -228.5,-172.1 L -241.6,-181.2 L -252.2,-188.5 L -262.2,-195.5 L -272.1,-202.4 L -281.5,-208.9 L -291.0,-215.5 L -299.2,-221.3 L -307.6,-227.2 L -316.1,-233.1 L -323.8,-238.5 L -330.9,-243.5 L -338.8,-249.0 L -345.4,-253.7 L -352.3,-258.5 L -358.8,-263.0 L -365.6,-267.7 L -372.3,-272.2 L -378.9,-276.4 L -385.7,-280.2 L -392.0,-283.3 L -398.1,-285.9 L -404.4,-288.1 L -410.7,-290.0 L -416.9,-291.4 L -423.4,-292.4 L -429.2,-292.8 L -435.6,-292.7 L -442.0,-292.1 L -447.4,-291.0 L -453.6,-289.0 L -459.1,-286.7 L -464.6,-283.6 L -469.9,-279.9 L -475.6,-275.3 L -480.5,-271.5 L -486.1,-267.3 L -492.1,-263.4 L -498.5,-259.8 L -505.0,-257.0 L -511.4,-254.8 L -519.2,-252.7 L -526.1,-251.5 L -533.9,-250.7 L -541.0,-250.6 L -548.5,-251.1 L -556.1,-252.4 L -563.4,-254.2 L -570.9,-256.9 L -578.9,-260.3 L -586.0,-264.0 L -593.6,-268.3 L -601.6,-273.2 L -609.4,-278.3 L -616.8,-283.3 L -625.6,-289.4 L -633.7,-295.3 L -641.5,-301.2 L -649.2,-307.3 L -657.5,-314.1 L -666.7,-321.7 L -674.3,-328.0 L -683.0,-335.1 L -691.8,-342.3 L -700.8,-349.7 L -709.9,-357.0 L -719.4,-364.3 L -729.2,-371.3 L -741.0,-379.1 L -750.0,-384.6 L -761.0,-390.8 L -772.7,-397.2 L -783.9,-403.4 L -795.4,-409.6 L -806.4,-415.4 L -818.1,-421.5 L -830.8,-427.6 L -843.7,-433.1 L -854.6,-437.3 L -866.1,-441.6 L -876.8,-445.7 L -887.3,-450.0 L -896.6,-454.0 L -905.1,-457.7 L -914.8,-461.9 L -922.9,-465.5 L -931.3,-469.2 L -940.0,-473.1 L -947.2,-476.6 L -955.9,-481.1 L -963.8,-485.7 L -970.0,-489.5 L -976.9,-494.0 L -983.6,-498.8 L -989.3,-503.4 L -994.3,-508.3 L -998.6,-513.1 L -1002.5,-518.5 L -1005.8,-524.3 L -1008.4,-530.0 L -1010.2,-535.6 L -1011.5,-541.8 L -1012.1,-547.8 L -1012.0,-553.5 L -1011.6,-559.5 L -1011.2,-565.8 L -1011.3,-572.5 L -1012.0,-577.5 L -1013.3,-583.2 L -1015.3,-588.9 L -1017.8,-594.0 L -1020.9,-598.8 L -1024.6,-603.4 L -1028.4,-607.2 L -1032.9,-610.8 L -1037.5,-613.8 L -1042.7,-616.4 L -1048.3,-618.5 L -1053.7,-619.8 L -1059.5,-620.7 L -1065.4,-620.9 L -1071.6,-620.6 L -1077.6,-619.7 L -1083.1,-618.2 L -1088.8,-616.5 L -1094.9,-615.1 L -1100.2,-614.5 L -1105.4,-614.5 L -1111.0,-615.0 L -1115.8,-616.1 L -1120.9,-617.9 L -1125.4,-620.2 L -1129.6,-623.1 L -1132.8,-626.0 L -1136.1,-630.0 L -1138.4,-633.7 L -1140.1,-637.5 L -1141.4,-641.7 L -1142.1,-646.3 L -1142.1,-650.2 L -1141.7,-654.1 L -1140.7,-658.2 L -1139.3,-662.1 L -1137.9,-666.2 L -1136.5,-670.3 L -1134.7,-675.3 L -1133.1,-679.9 L -1131.3,-684.7 L -1129.4,-689.2 L -1127.0,-693.8 L -1124.1,-698.1 L -1120.6,-702.4 L -1117.0,-706.2 L -1113.0,-710.1 L -1108.7,-713.6 L -1104.2,-716.5 L -1099.2,-719.0 L -1094.2,-721.0 L -1089.2,-722.6 L -1083.8,-724.0 L -1078.0,-725.0 L -1072.3,-725.5 L -1066.9,-725.5 L -1061.3,-725.0 L -1055.4,-723.8 L -1049.5,-721.9 L -1044.4,-719.9 L -1038.0,-717.0 L -1032.4,-714.0 L -1026.7,-710.3 L -1021.2,-706.3 L -1016.1,-702.2 L -1010.4,-697.3 L -1004.8,-692.2 L -999.1,-686.8 L -993.8,-681.2 L -988.0,-674.5 L -982.8,-667.7 L -978.2,-660.7 L -973.7,-652.9 L -969.1,-643.8 L -965.3,-636.2 L -960.9,-627.5 L -955.8,-618.3 L -950.7,-610.0 L -944.8,-601.5 L -937.6,-592.4 L -931.3,-585.5 L -923.4,-578.0 L -915.6,-571.5 L -907.9,-566.0 L -899.5,-560.7 L -889.7,-555.6 L -881.4,-551.8 L -870.7,-547.5 L -861.8,-544.2 L -851.1,-540.4 L -841.2,-537.0 L -829.6,-533.0 L -819.4,-529.4 L -809.1,-525.9 L -798.0,-522.0 L -786.3,-517.9 L -775.5,-514.2 L -764.0,-510.2 L -751.7,-506.0 L -740.5,-502.1 L -727.4,-497.5 L -716.5,-493.7 L -703.1,-489.1 L -692.0,-485.2 L -679.6,-480.9 L -666.4,-476.4 L -653.8,-472.1 L -641.6,-467.9 L -628.7,-463.5 L -615.1,-458.9 L -602.6,-454.6 L -589.4,-450.1 L -576.1,-445.5 L -561.4,-440.5 L -548.5,-436.1 L -534.9,-431.4 L -521.9,-426.9 L -508.2,-422.1 L -493.6,-417.1 L -480.3,-412.7 L -466.2,-408.1 L -451.3,-403.3 L -437.0,-398.8 L -423.4,-394.4 L -407.6,-389.4 L -393.1,-384.8 L -379.3,-380.4 L -364.7,-375.7 L -350.8,-371.3 L -336.1,-366.6 L -319.8,-361.4 L -304.3,-356.3 L -291.6,-352.3 L -276.7,-347.5 L -260.2,-342.1 L -245.9,-337.5 L -230.8,-332.7 L -214.9,-327.5 L -201.2,-323.1 L -185.2,-318.0 L -169.9,-313.0 L -153.8,-307.8 L -139.9,-303.3 L -123.7,-298.1 L -109.0,-293.3 L -93.5,-288.3 L -77.9,-283.3 L -60.8,-277.8 L -46.7,-273.2 L -29.5,-267.6 L -14.5,-262.8 L 0.4,-258.0 L 16.2,-252.9 L 32.8,-247.5 L 48.7,-242.4 L 63.8,-237.5 L 81.3,-231.9 L 97.3,-226.8 L 111.7,-222.2 L 128.5,-216.8 L 143.7,-211.9 L 160.6,-206.6 L 178.3,-200.9 L 192.0,-196.5 L 208.1,-191.3 L 225.9,-185.5 L 241.2,-180.5 L 258.3,-174.9 L 272.9,-170.2 L 290.7,-164.3 L 306.1,-159.3 L 323.1,-153.6 L 339.4,-148.2 L 354.8,-143.1 L 370.3,-137.9 L 386.6,-132.5 L 403.7,-126.8 L 420.0,-121.4 L 436.4,-116.0 L 451.9,-110.8 L 469.1,-105.1 L 485.5,-99.7 L 501.1,-94.5 L 519.1,-88.6 L 537.2,-82.6 L 551.2,-78.0 L 566.8,-72.8 L 584.9,-66.8 L 600.5,-61.6 L 617.0,-56.1 L 632.6,-50.9 L 649.1,-45.4 L 665.6,-39.9 L 683.7,-33.9 L 698.2,-29.0 L 715.3,-23.3 L 729.2,-18.6 L 743.2,-13.9 L 755.9,-9.6 L 768.9,-5.3 L 781.9,-0.8 L 793.9,3.2 L 804.8,7.0 L 815.9,10.8 L 826.6,14.6 L 838.0,18.8 L 847.4,22.5 L 857.6,27.1 L 865.9,31.4 L 875.8,37.2 L 884.4,43.1 L 892.1,48.7 L 901.2,56.1 L 908.3,62.6 L 915.7,70.4 L 922.9,79.1 L 928.8,87.6 L 934.5,97.1 L 940.3,108.0 L 944.5,117.3 L 949.0,128.3 L 952.6,138.6 L 955.8,149.7 L 958.9,162.2 L 961.2,173.3 L 963.3,184.6 L 965.4,196.7 L 967.4,210.2 L 968.7,222.1 L 969.7,234.1 L 970.4,247.0 L 970.7,260.6 L 971.0,274.0 L 971.2,284.8 L 971.5,297.3 L 971.7,307.5 L 971.9,317.9 L 972.0,327.6 L 972.2,337.8 L 972.4,347.9 L 972.6,358.9 L 972.7,367.8 L 972.8,377.3 L 973.0,386.5 L 973.0,394.6 L 972.8,401.8 L 972.1,408.9 L 971.0,415.7 L 969.3,422.6 L 967.4,428.6 L 964.6,434.9 L 961.6,440.3 L 957.9,446.3 L 954.3,451.2 L 950.4,455.7 L 946.0,460.3 L 940.9,465.0 L 936.5,468.7 L 931.3,472.6 L 925.3,476.4 L 919.5,479.5 L 913.8,482.1 L 907.8,484.2 L 901.3,486.0 L 894.2,487.6 L 887.7,488.7 L 880.0,489.4 L 873.6,489.6 L 866.0,489.3 L 859.1,488.5 L 851.0,486.8 L 844.2,484.8 L 837.4,482.2 L 830.4,478.9 L 823.4,474.9 L 817.2,470.6 L 811.7,466.1 L 806.4,461.0 L 801.6,455.5 L 797.1,449.4 L 793.5,443.3 L 790.7,437.3 L 788.5,430.9 L 787.0,423.7 L 786.5,417.5 L 786.7,411.3 L 787.4,404.8 L 788.9,398.1 L 790.8,392.1 L 793.2,385.8 L 796.3,379.0 L 799.4,373.0 L 802.7,366.8 L 806.6,360.2 L 811.0,353.2 L 816.0,345.5 L 819.9,339.4 L 824.6,332.0 L 829.7,324.1 L 834.5,316.7 L 839.6,308.7 L 844.9,300.5 L 850.9,292.1 L 856.3,284.9 L 862.0,277.1 L 866.3,271.3 L 870.9,265.1 L 874.6,260.1 L 878.5,254.6 L 881.2,250.2 L 883.8,245.5 L 886.0,241.1 L 888.0,235.7 L 889.4,231.0 L 890.4,226.1 L 891.3,221.0 L 892.1,215.9 L 892.5,210.4 L 892.6,205.0 L 892.3,199.9 L 891.7,194.2 L 890.8,188.9 L 889.4,183.5 L 887.6,177.9 L 885.5,173.1 L 882.8,168.1 L 879.9,163.9 L 876.3,159.7 L 872.6,156.2 L 868.7,153.4 L 864.4,151.1 L 859.3,149.1 L 854.7,147.9 L 850.0,147.3 L 844.7,147.3 L 839.2,147.9 L 834.5,148.9 L 829.2,150.5 L 823.7,152.6 L 817.8,155.3 L 811.5,158.2 L 805.2,161.1 L 798.2,164.3 L 792.3,167.0 L 785.1,170.3 L 777.2,173.9 L 769.6,176.8 L 761.3,179.8 L 752.3,182.8 L 743.8,185.4 L 733.6,188.2 L 724.9,190.2 L 714.5,192.3 L 704.8,194.0 L 694.4,195.3 L 682.6,196.2 L 671.6,196.6 L 661.6,196.4 L 650.3,195.6 L 639.0,194.1 L 627.0,191.7 L 616.1,188.9 L 604.6,185.4 L 592.5,181.2 L 581.1,176.7 L 570.4,171.8 L 559.7,166.2 L 549.7,160.4 L 539.1,153.4 L 531.5,147.7 L 524.0,141.6 L 516.6,135.1 L 510.1,129.4 L 504.5,124.3 L 499.2,119.5 L 494.0,115.0 L 489.7,111.2 L 485.1,107.5 L 480.3,104.3 L 474.8,101.4 L 469.6,99.4 L 464.8,98.2 L 459.1,97.4 L 453.9,97.2 L 447.8,97.5 L 442.5,97.8 L 436.5,98.3 L 431.3,98.9 L 424.9,100.1 L 419.5,101.6 L 414.3,103.7 L 408.4,106.7 L 403.6,109.4 L 398.0,112.9 L 393.1,116.5 L 388.0,120.9 L 383.1,125.9 L 379.0,130.8 L 375.5,136.0 L 372.1,142.4 L 369.5,148.9 L 367.9,154.4 L 366.5,161.7 L 365.8,168.1 L 365.7,174.5 L 366.0,181.0 L 366.3,185.6 L 366.9,191.0 L 367.6,195.4 L 368.4,199.6 L 369.2,202.7 L 370.1,206.1 L 370.7,209.9 L 370.8,212.9 L 370.2,216.6 L 369.2,219.3 L 367.5,222.2 L 365.5,224.6 L 363.0,226.8 L 360.2,229.0 L 357.0,231.0 L 354.4,232.0 L 351.2,232.8 L 347.7,232.9 L 343.9,232.6 L 340.4,231.9 L 336.7,230.9 L 332.7,229.6 L 328.8,227.9 L 324.1,225.5 L 320.1,223.3 L 315.3,220.3 L 310.7,217.3 L 305.6,213.8 L 299.7,209.6 L 294.4,205.8 L 288.9,201.8 L 282.8,197.3 L 275.8,192.1 L 269.5,187.5 L 263.0,182.6 L 256.0,177.4 L 248.8,172.0 L 241.3,166.5 L 233.3,160.5 L 225.5,154.7 L 217.4,148.7 L 208.3,142.0 L 200.3,136.0 L 192.6,130.3 L 183.5,123.4 L 174.6,116.9 L 165.9,110.7 L 156.5,104.2 L 147.0,97.7 L 136.8,90.6 L 127.5,84.1 L 117.6,77.1 L 107.6,70.0 L 96.9,62.5 Z" fill="none" stroke="url(#g)" stroke-width="133.9" stroke-linejoin="round" stroke-linecap="round"/>
<path d="M 95.7,59.6 L 73.5,43.7 L 63.5,36.6 L 51.8,28.2 L 41.7,21.0 L 31.4,13.6 L 20.5,5.8 L 8.9,-2.4 L -2.2,-10.4 L -12.9,-18.0 L -24.2,-26.1 L -35.6,-34.2 L -47.6,-42.9 L -59.2,-51.1 L -70.3,-59.1 L -83.2,-68.4 L -94.4,-76.5 L -105.7,-84.7 L -117.6,-93.3 L -130.3,-102.4 L -141.8,-110.7 L -153.9,-119.4 L -166.2,-128.2 L -179.7,-137.9 L -191.5,-146.3 L -204.0,-155.1 L -216.0,-163.5 L -228.5,-172.1 L -241.6,-181.2 L -252.2,-188.5 L -262.2,-195.5 L -272.1,-202.4 L -281.5,-208.9 L -291.0,-215.5 L -299.2,-221.3 L -307.6,-227.2 L -316.1,-233.1 L -323.8,-238.5 L -330.9,-243.5 L -338.8,-249.0 L -345.4,-253.7 L -352.3,-258.5 L -358.8,-263.0 L -365.6,-267.7 L -372.3,-272.2 L -378.9,-276.4 L -385.7,-280.2 L -392.0,-283.3 L -398.1,-285.9 L -404.4,-288.1 L -410.7,-290.0 L -416.9,-291.4 L -423.4,-292.4 L -429.2,-292.8 L -435.6,-292.7 L -442.0,-292.1 L -447.4,-291.0 L -453.6,-289.0 L -459.1,-286.7 L -464.6,-283.6 L -469.9,-279.9 L -475.6,-275.3 L -480.5,-271.5 L -486.1,-267.3 L -492.1,-263.4 L -498.5,-259.8 L -505.0,-257.0 L -511.4,-254.8 L -519.2,-252.7 L -526.1,-251.5 L -533.9,-250.7 L -541.0,-250.6 L -548.5,-251.1 L -556.1,-252.4 L -563.4,-254.2 L -570.9,-256.9 L -578.9,-260.3 L -586.0,-264.0 L -593.6,-268.3 L -601.6,-273.2 L -609.4,-278.3 L -616.8,-283.3 L -625.6,-289.4 L -633.7,-295.3 L -641.5,-301.2 L -649.2,-307.3 L -657.5,-314.1 L -666.7,-321.7 L -674.3,-328.0 L -683.0,-335.1 L -691.8,-342.3 L -700.8,-349.7 L -709.9,-357.0 L -719.4,-364.3 L -729.2,-371.3 L -741.0,-379.1 L -750.0,-384.6 L -761.0,-390.8 L -772.7,-397.2 L -783.9,-403.4 L -795.4,-409.6 L -806.4,-415.4 L -818.1,-421.5 L -830.8,-427.6 L -843.7,-433.1 L -854.6,-437.3 L -866.1,-441.6 L -876.8,-445.7 L -887.3,-450.0 L -896.6,-454.0 L -905.1,-457.7 L -914.8,-461.9 L -922.9,-465.5 L -931.3,-469.2 L -940.0,-473.1 L -947.2,-476.6 L -955.9,-481.1 L -963.8,-485.7 L -970.0,-489.5 L -976.9,-494.0 L -983.6,-498.8 L -989.3,-503.4 L -994.3,-508.3 L -998.6,-513.1 L -1002.5,-518.5 L -1005.8,-524.3 L -1008.4,-530.0 L -1010.2,-535.6 L -1011.5,-541.8 L -1012.1,-547.8 L -1012.0,-553.5 L -1011.6,-559.5 L -1011.2,-565.8 L -1011.3,-572.5 L -1012.0,-577.5 L -1013.3,-583.2 L -1015.3,-588.9 L -1017.8,-594.0 L -1020.9,-598.8 L -1024.6,-603.4 L -1028.4,-607.2 L -1032.9,-610.8 L -1037.5,-613.8 L -1042.7,-616.4 L -1048.3,-618.5 L -1053.7,-619.8 L -1059.5,-620.7 L -1065.4,-620.9 L -1071.6,-620.6 L -1077.6,-619.7 L -1083.1,-618.2 L -1088.8,-616.5 L -1094.9,-615.1 L -1100.2,-614.5 L -1105.4,-614.5 L -1111.0,-615.0 L -1115.8,-616.1 L -1120.9,-617.9 L -1125.4,-620.2 L -1129.6,-623.1 L -1132.8,-626.0 L -1136.1,-630.0 L -1138.4,-633.7 L -1140.1,-637.5 L -1141.4,-641.7 L -1142.1,-646.3 L -1142.1,-650.2 L -1141.7,-654.1 L -1140.7,-658.2 L -1139.3,-662.1 L -1137.9,-666.2 L -1136.5,-670.3 L -1134.7,-675.3 L -1133.1,-679.9 L -1131.3,-684.7 L -1129.4,-689.2 L -1127.0,-693.8 L -1124.1,-698.1 L -1120.6,-702.4 L -1117.0,-706.2 L -1113.0,-710.1 L -1108.7,-713.6 L -1104.2,-716.5 L -1099.2,-719.0 L -1094.2,-721.0 L -1089.2,-722.6 L -1083.8,-724.0 L -1078.0,-725.0 L -1072.3,-725.5 L -1066.9,-725.5 L -1061.3,-725.0 L -1055.4,-723.8 L -1049.5,-721.9 L -1044.4,-719.9 L -1038.0,-717.0 L -1032.4,-714.0 L -1026.7,-710.3 L -1021.2,-706.3 L -1016.1,-702.2 L -1010.4,-697.3 L -1004.8,-692.2 L -999.1,-686.8 L -993.8,-681.2 L -988.0,-674.5 L -982.8,-667.7 L -978.2,-660.7 L -973.7,-652.9 L -969.1,-643.8 L -965.3,-636.2 L -960.9,-627.5 L -955.8,-618.3 L -950.7,-610.0 L -944.8,-601.5 L -937.6,-592.4 L -931.3,-585.5 L -923.4,-578.0 L -915.6,-571.5 L -907.9,-566.0 L -899.5,-560.7 L -889.7,-555.6 L -881.4,-551.8 L -870.7,-547.5 L -861.8,-544.2 L -851.1,-540.4 L -841.2,-537.0 L -829.6,-533.0 L -819.4,-529.4 L -809.1,-525.9 L -798.0,-522.0 L -786.3,-517.9 L -775.5,-514.2 L -764.0,-510.2 L -751.7,-506.0 L -740.5,-502.1 L -727.4,-497.5 L -716.5,-493.7 L -703.1,-489.1 L -692.0,-485.2 L -679.6,-480.9 L -666.4,-476.4 L -653.8,-472.1 L -641.6,-467.9 L -628.7,-463.5 L -615.1,-458.9 L -602.6,-454.6 L -589.4,-450.1 L -576.1,-445.5 L -561.4,-440.5 L -548.5,-436.1 L -534.9,-431.4 L -521.9,-426.9 L -508.2,-422.1 L -493.6,-417.1 L -480.3,-412.7 L -466.2,-408.1 L -451.3,-403.3 L -437.0,-398.8 L -423.4,-394.4 L -407.6,-389.4 L -393.1,-384.8 L -379.3,-380.4 L -364.7,-375.7 L -350.8,-371.3 L -336.1,-366.6 L -319.8,-361.4 L -304.3,-356.3 L -291.6,-352.3 L -276.7,-347.5 L -260.2,-342.1 L -245.9,-337.5 L -230.8,-332.7 L -214.9,-327.5 L -201.2,-323.1 L -185.2,-318.0 L -169.9,-313.0 L -153.8,-307.8 L -139.9,-303.3 L -123.7,-298.1 L -109.0,-293.3 L -93.5,-288.3 L -77.9,-283.3 L -60.8,-277.8 L -46.7,-273.2 L -29.5,-267.6 L -14.5,-262.8 L 0.4,-258.0 L 16.2,-252.9 L 32.8,-247.5 L 48.7,-242.4 L 63.8,-237.5 L 81.3,-231.9 L 97.3,-226.8 L 111.7,-222.2 L 128.5,-216.8 L 143.7,-211.9 L 160.6,-206.6 L 178.3,-200.9 L 192.0,-196.5 L 208.1,-191.3 L 225.9,-185.5 L 241.2,-180.5 L 258.3,-174.9 L 272.9,-170.2 L 290.7,-164.3 L 306.1,-159.3 L 323.1,-153.6 L 339.4,-148.2 L 354.8,-143.1 L 370.3,-137.9 L 386.6,-132.5 L 403.7,-126.8 L 420.0,-121.4 L 436.4,-116.0 L 451.9,-110.8 L 469.1,-105.1 L 485.5,-99.7 L 501.1,-94.5 L 519.1,-88.6 L 537.2,-82.6 L 551.2,-78.0 L 566.8,-72.8 L 584.9,-66.8 L 600.5,-61.6 L 617.0,-56.1 L 632.6,-50.9 L 649.1,-45.4 L 665.6,-39.9 L 683.7,-33.9 L 698.2,-29.0 L 715.3,-23.3 L 729.2,-18.6 L 743.2,-13.9 L 755.9,-9.6 L 768.9,-5.3 L 781.9,-0.8 L 793.9,3.2 L 804.8,7.0 L 815.9,10.8 L 826.6,14.6 L 838.0,18.8 L 847.4,22.5 L 857.6,27.1 L 865.9,31.4 L 875.8,37.2 L 884.4,43.1 L 892.1,48.7 L 901.2,56.1 L 908.3,62.6 L 915.7,70.4 L 922.9,79.1 L 928.8,87.6 L 934.5,97.1 L 940.3,108.0 L 944.5,117.3 L 949.0,128.3 L 952.6,138.6 L 955.8,149.7 L 958.9,162.2 L 961.2,173.3 L 963.3,184.6 L 965.4,196.7 L 967.4,210.2 L 968.7,222.1 L 969.7,234.1 L 970.4,247.0 L 970.7,260.6 L 971.0,274.0 L 971.2,284.8 L 971.5,297.3 L 971.7,307.5 L 971.9,317.9 L 972.0,327.6 L 972.2,337.8 L 972.4,347.9 L 972.6,358.9 L 972.7,367.8 L 972.8,377.3 L 973.0,386.5 L 973.0,394.6 L 972.8,401.8 L 972.1,408.9 L 971.0,415.7 L 969.3,422.6 L 967.4,428.6 L 964.6,434.9 L 961.6,440.3 L 957.9,446.3 L 954.3,451.2 L 950.4,455.7 L 946.0,460.3 L 940.9,465.0 L 936.5,468.7 L 931.3,472.6 L 925.3,476.4 L 919.5,479.5 L 913.8,482.1 L 907.8,484.2 L 901.3,486.0 L 894.2,487.6 L 887.7,488.7 L 880.0,489.4 L 873.6,489.6 L 866.0,489.3 L 859.1,488.5 L 851.0,486.8 L 844.2,484.8 L 837.4,482.2 L 830.4,478.9 L 823.4,474.9 L 817.2,470.6 L 811.7,466.1 L 806.4,461.0 L 801.6,455.5 L 797.1,449.4 L 793.5,443.3 L 790.7,437.3 L 788.5,430.9 L 787.0,423.7 L 786.5,417.5 L 786.7,411.3 L 787.4,404.8 L 788.9,398.1 L 790.8,392.1 L 793.2,385.8 L 796.3,379.0 L 799.4,373.0 L 802.7,366.8 L 806.6,360.2 L 811.0,353.2 L 816.0,345.5 L 819.9,339.4 L 824.6,332.0 L 829.7,324.1 L 834.5,316.7 L 839.6,308.7 L 844.9,300.5 L 850.9,292.1 L 856.3,284.9 L 862.0,277.1 L 866.3,271.3 L 870.9,265.1 L 874.6,260.1 L 878.5,254.6 L 881.2,250.2 L 883.8,245.5 L 886.0,241.1 L 888.0,235.7 L 889.4,231.0 L 890.4,226.1 L 891.3,221.0 L 892.1,215.9 L 892.5,210.4 L 892.6,205.0 L 892.3,199.9 L 891.7,194.2 L 890.8,188.9 L 889.4,183.5 L 887.6,177.9 L 885.5,173.1 L 882.8,168.1 L 879.9,163.9 L 876.3,159.7 L 872.6,156.2 L 868.7,153.4 L 864.4,151.1 L 859.3,149.1 L 854.7,147.9 L 850.0,147.3 L 844.7,147.3 L 839.2,147.9 L 834.5,148.9 L 829.2,150.5 L 823.7,152.6 L 817.8,155.3 L 811.5,158.2 L 805.2,161.1 L 798.2,164.3 L 792.3,167.0 L 785.1,170.3 L 777.2,173.9 L 769.6,176.8 L 761.3,179.8 L 752.3,182.8 L 743.8,185.4 L 733.6,188.2 L 724.9,190.2 L 714.5,192.3 L 704.8,194.0 L 694.4,195.3 L 682.6,196.2 L 671.6,196.6 L 661.6,196.4 L 650.3,195.6 L 639.0,194.1 L 627.0,191.7 L 616.1,188.9 L 604.6,185.4 L 592.5,181.2 L 581.1,176.7 L 570.4,171.8 L 559.7,166.2 L 549.7,160.4 L 539.1,153.4 L 531.5,147.7 L 524.0,141.6 L 516.6,135.1 L 510.1,129.4 L 504.5,124.3 L 499.2,119.5 L 494.0,115.0 L 489.7,111.2 L 485.1,107.5 L 480.3,104.3 L 474.8,101.4 L 469.6,99.4 L 464.8,98.2 L 459.1,97.4 L 453.9,97.2 L 447.8,97.5 L 442.5,97.8 L 436.5,98.3 L 431.3,98.9 L 424.9,100.1 L 419.5,101.6 L 414.3,103.7 L 408.4,106.7 L 403.6,109.4 L 398.0,112.9 L 393.1,116.5 L 388.0,120.9 L 383.1,125.9 L 379.0,130.8 L 375.5,136.0 L 372.1,142.4 L 369.5,148.9 L 367.9,154.4 L 366.5,161.7 L 365.8,168.1 L 365.7,174.5 L 366.0,181.0 L 366.3,185.6 L 366.9,191.0 L 367.6,195.4 L 368.4,199.6 L 369.2,202.7 L 370.1,206.1 L 370.7,209.9 L 370.8,212.9 L 370.2,216.6 L 369.2,219.3 L 367.5,222.2 L 365.5,224.6 L 363.0,226.8 L 360.2,229.0 L 357.0,231.0 L 354.4,232.0 L 351.2,232.8 L 347.7,232.9 L 343.9,232.6 L 340.4,231.9 L 336.7,230.9 L 332.7,229.6 L 328.8,227.9 L 324.1,225.5 L 320.1,223.3 L 315.3,220.3 L 310.7,217.3 L 305.6,213.8 L 299.7,209.6 L 294.4,205.8 L 288.9,201.8 L 282.8,197.3 L 275.8,192.1 L 269.5,187.5 L 263.0,182.6 L 256.0,177.4 L 248.8,172.0 L 241.3,166.5 L 233.3,160.5 L 225.5,154.7 L 217.4,148.7 L 208.3,142.0 L 200.3,136.0 L 192.6,130.3 L 183.5,123.4 L 174.6,116.9 L 165.9,110.7 L 156.5,104.2 L 147.0,97.7 L 136.8,90.6 L 127.5,84.1 L 117.6,77.1 L 107.6,70.0 L 96.9,62.5 Z" fill="none" stroke="#ffffff" stroke-width="13.4" stroke-linejoin="round" stroke-linecap="round"/>
</svg>