<svg xmlns="http://www.w3.org/2000/svg" viewBox="-1260.5 -849.5 2351.0 1227.0">
<defs><linearGradient id="g" gradientUnits="userSpaceOnUse" x1="-1260.5" y1="-849.5" x2="1090.5" y2="377.5">
<stop offset="0" stop-color="#1c9fe0"/><stop offset="1" stop-color="#0b1f44"/></linearGradient></defs>
<path d="M 96.2,59.4 L 83.6,50.2 L 73.4,42.7 L 64.0,35.9 L 53.6,28.3 L 42.4,20.4 L 31.5,12.8 L 20.1,4.8 L 9.6,-2.5 L -0.9,-9.9 L -12.2,-17.7 L -23.5,-25.7 L -36.0,-34.4 L -47.0,-42.1 L -58.0,-49.8 L -69.7,-58.0 L -82.6,-67.0 L -94.5,-75.3 L -105.8,-83.3 L -118.4,-92.3 L -128.9,-100.3 L -141.3,-109.9 L -153.1,-118.9 L -165.2,-127.9 L -176.7,-136.4 L -188.9,-145.4 L -202.5,-155.2 L -214.3,-163.7 L -226.9,-172.6 L -238.9,-181.1 L -252.2,-190.5 L -264.1,-198.8 L -277.2,-208.1 L -287.3,-215.2 L -298.5,-223.1 L -308.0,-229.9 L -317.4,-236.5 L -327.1,-243.4 L -334.8,-248.9 L -342.1,-254.1 L -349.5,-259.3 L -356.6,-264.4 L -364.5,-270.0 L -370.5,-274.2 L -377.3,-279.0 L -383.5,-283.0 L -390.0,-287.0 L -396.7,-290.5 L -403.2,-293.3 L -410.1,-295.6 L -417.1,-297.4 L -423.9,-298.6 L -430.7,-299.2 L -436.9,-299.4 L -442.4,-299.1 L -447.9,-298.4 L -453.0,-297.4 L -457.7,-296.1 L -461.6,-294.6 L -465.2,-292.7 L -468.5,-290.3 L -471.5,-287.3 L -474.0,-284.2 L -476.5,-280.9 L -479.5,-277.5 L -483.3,-273.8 L -486.6,-270.6 L -490.7,-267.0 L -495.3,-263.5 L -500.5,-260.2 L -505.6,-257.6 L -511.8,-255.2 L -517.2,-253.6 L -523.7,-252.3 L -530.1,-251.5 L -536.4,-251.3 L -543.8,-251.7 L -550.1,-252.7 L -556.8,-254.2 L -563.4,-256.3 L -570.3,-258.7 L -576.9,-261.2 L -584.2,-264.3 L -592.3,-268.1 L -599.1,-271.7 L -606.7,-275.9 L -614.5,-280.3 L -622.8,-285.3 L -630.7,-290.4 L -638.2,-295.8 L -646.1,-301.9 L -653.8,-308.5 L -662.4,-316.1 L -670.0,-322.8 L -677.8,-329.5 L -686.1,-336.7 L -694.6,-343.9 L -703.8,-351.5 L -712.8,-358.7 L -721.6,-365.5 L -731.2,-372.6 L -741.6,-379.8 L -751.8,-386.6 L -762.3,-393.2 L -773.1,-399.7 L -784.8,-406.2 L -796.2,-412.0 L -807.4,-417.1 L -819.4,-422.3 L -830.9,-426.9 L -842.4,-431.4 L -853.2,-435.7 L -863.7,-439.9 L -874.0,-444.1 L -881.5,-447.3 L -890.1,-451.1 L -898.5,-454.7 L -907.6,-458.8 L -916.1,-462.6 L -923.0,-465.8 L -931.8,-469.8 L -938.9,-473.2 L -947.5,-477.3 L -954.8,-481.0 L -962.1,-485.0 L -968.9,-489.0 L -975.6,-493.2 L -982.2,-497.5 L -987.9,-501.6 L -992.8,-505.4 L -997.5,-509.7 L -1001.7,-514.2 L -1004.5,-517.7 L -1007.3,-521.6 L -1009.9,-525.4 L -1011.9,-528.7 L -1013.7,-531.7 L -1015.3,-534.6 L -1016.6,-536.9 L -1017.5,-539.1 L -1018.0,-541.4 L -1018.0,-543.8 L -1017.6,-546.2 L -1016.9,-548.8 L -1016.2,-551.5 L -1015.3,-554.8 L -1014.5,-558.0 L -1013.7,-561.5 L -1012.9,-565.8 L -1012.3,-569.9 L -1011.9,-574.6 L -1012.1,-579.8 L -1012.8,-584.7 L -1013.9,-589.3 L -1015.8,-593.9 L -1018.2,-598.5 L -1021.1,-602.4 L -1024.4,-605.9 L -1027.9,-608.8 L -1032.2,-611.6 L -1036.7,-614.0 L -1041.2,-615.9 L -1046.4,-617.6 L -1052.1,-618.7 L -1058.1,-619.3 L -1063.4,-619.3 L -1069.3,-618.7 L -1075.0,-617.8 L -1080.9,-616.8 L -1086.3,-616.0 L -1091.5,-615.4 L -1097.1,-615.0 L -1102.1,-614.9 L -1107.3,-615.3 L -1112.6,-616.4 L -1117.5,-618.0 L -1121.8,-620.0 L -1126.1,-622.6 L -1130.2,-626.0 L -1133.3,-629.2 L -1135.8,-632.7 L -1137.8,-636.5 L -1139.3,-640.5 L -1140.1,-644.4 L -1140.3,-647.8 L -1140.0,-651.3 L -1139.3,-655.0 L -1138.4,-659.2 L -1137.4,-663.4 L -1136.3,-667.9 L -1135.1,-672.5 L -1133.5,-677.5 L -1131.4,-683.0 L -1129.2,-688.1 L -1126.1,-694.2 L -1123.2,-699.1 L -1119.2,-704.7 L -1115.1,-709.5 L -1110.4,-714.2 L -1105.3,-718.4 L -1099.9,-721.9 L -1093.9,-724.9 L -1088.4,-726.9 L -1082.5,-728.4 L -1076.4,-729.2 L -1070.5,-729.3 L -1065.1,-728.8 L -1059.2,-727.7 L -1053.1,-725.9 L -1047.5,-723.7 L -1041.4,-721.0 L -1035.0,-717.6 L -1028.7,-713.9 L -1023.1,-710.3 L -1016.2,-705.5 L -1009.9,-700.6 L -1004.0,-695.5 L -997.6,-689.2 L -992.0,-683.1 L -985.8,-675.5 L -981.3,-669.2 L -976.4,-661.6 L -971.9,-653.4 L -968.1,-645.4 L -964.8,-637.7 L -961.4,-629.7 L -957.7,-622.0 L -953.6,-614.5 L -948.8,-606.4 L -943.8,-598.8 L -938.9,-592.2 L -933.9,-586.5 L -927.7,-580.3 L -921.7,-575.2 L -915.1,-570.4 L -908.1,-566.1 L -900.7,-562.1 L -892.8,-558.6 L -884.3,-555.1 L -876.3,-551.8 L -866.7,-547.9 L -858.7,-544.7 L -849.0,-541.1 L -840.0,-537.8 L -829.4,-534.0 L -820.0,-530.6 L -809.4,-526.8 L -800.1,-523.6 L -789.7,-520.1 L -779.0,-516.5 L -767.7,-512.6 L -756.7,-508.9 L -746.1,-505.4 L -734.2,-501.4 L -722.8,-497.5 L -711.7,-493.8 L -700.0,-489.8 L -687.5,-485.6 L -676.0,-481.7 L -662.6,-477.2 L -651.6,-473.4 L -638.0,-468.8 L -626.7,-465.0 L -613.5,-460.6 L -600.7,-456.2 L -588.5,-452.1 L -575.6,-447.7 L -562.5,-443.3 L -548.0,-438.4 L -534.1,-433.7 L -522.7,-429.8 L -507.8,-424.9 L -494.9,-420.7 L -481.2,-416.2 L -468.1,-411.9 L -454.2,-407.4 L -440.2,-402.8 L -424.8,-397.8 L -412.1,-393.6 L -397.9,-389.0 L -383.7,-384.3 L -368.7,-379.4 L -354.3,-374.7 L -339.1,-369.7 L -325.4,-365.2 L -310.8,-360.4 L -296.9,-355.9 L -280.7,-350.6 L -265.2,-345.5 L -252.6,-341.4 L -237.8,-336.5 L -222.1,-331.4 L -207.1,-326.4 L -192.9,-321.8 L -177.8,-316.8 L -161.1,-311.4 L -146.7,-306.6 L -132.2,-301.9 L -116.9,-296.9 L -100.9,-291.6 L -85.5,-286.5 L -70.9,-281.7 L -55.4,-276.6 L -39.1,-271.3 L -23.6,-266.2 L -6.5,-260.6 L 6.8,-256.2 L 24.0,-250.5 L 39.7,-245.4 L 55.5,-240.2 L 70.5,-235.3 L 86.3,-230.2 L 101.3,-225.3 L 118.8,-219.6 L 134.7,-214.4 L 149.8,-209.5 L 165.8,-204.3 L 181.0,-199.4 L 197.0,-194.2 L 213.9,-188.8 L 231.6,-183.1 L 245.3,-178.7 L 262.3,-173.2 L 279.2,-167.8 L 294.6,-162.8 L 310.8,-157.5 L 326.2,-152.6 L 342.3,-147.2 L 358.6,-141.8 L 375.6,-136.2 L 391.8,-130.8 L 407.3,-125.7 L 423.6,-120.3 L 441.5,-114.3 L 457.8,-108.9 L 472.5,-104.0 L 489.7,-98.3 L 505.2,-93.2 L 522.4,-87.5 L 537.9,-82.4 L 554.3,-76.9 L 570.7,-71.4 L 588.7,-65.3 L 604.3,-60.0 L 620.6,-54.4 L 636.2,-49.1 L 655.1,-42.6 L 670.6,-37.3 L 686.0,-32.1 L 701.6,-26.7 L 716.5,-21.6 L 729.9,-17.0 L 743.3,-12.4 L 755.9,-8.0 L 768.5,-3.6 L 779.4,0.1 L 790.3,3.9 L 800.6,7.5 L 810.9,11.0 L 819.9,14.2 L 829.2,17.5 L 838.4,20.7 L 848.4,24.3 L 856.8,27.7 L 864.9,31.4 L 873.0,35.8 L 881.6,41.1 L 888.9,45.8 L 896.1,50.5 L 903.4,55.6 L 910.5,61.0 L 917.2,66.6 L 923.8,72.9 L 929.6,79.2 L 934.7,85.5 L 940.0,93.0 L 944.5,100.0 L 948.3,106.9 L 951.9,114.2 L 954.9,121.3 L 957.7,128.8 L 960.0,136.4 L 962.1,144.5 L 963.8,152.5 L 965.3,160.2 L 966.8,168.5 L 968.2,176.8 L 969.2,185.5 L 969.9,193.3 L 970.2,200.4 L 970.2,207.3 L 970.0,214.3 L 969.7,219.7 L 969.3,224.8 L 968.8,229.3 L 968.1,233.4 L 967.3,237.2 L 966.5,240.3 L 965.3,243.7 L 963.9,246.4 L 962.1,249.0 L 960.0,251.1 L 957.5,252.9 L 954.7,254.5 L 951.9,255.7 L 949.2,256.6 L 946.2,257.2 L 943.1,257.3 L 940.3,257.0 L 937.5,256.1 L 934.6,254.9 L 931.5,253.6 L 928.2,251.8 L 925.2,249.8 L 922.2,247.3 L 918.9,244.0 L 916.2,241.0 L 913.2,237.0 L 910.5,232.7 L 908.1,228.3 L 905.8,223.3 L 903.8,217.9 L 902.0,211.5 L 900.7,205.7 L 899.4,199.7 L 897.8,193.1 L 895.9,187.4 L 893.4,181.7 L 890.5,176.2 L 887.3,171.1 L 884.1,166.8 L 880.8,163.0 L 877.1,159.4 L 872.7,155.9 L 868.2,153.1 L 863.7,151.0 L 858.5,149.2 L 853.6,148.1 L 848.9,147.7 L 844.0,147.8 L 838.6,148.7 L 833.8,149.9 L 828.9,151.5 L 823.6,153.4 L 817.5,156.0 L 812.0,158.7 L 806.4,161.5 L 800.1,164.7 L 793.5,168.0 L 786.3,171.6 L 779.0,175.2 L 771.8,178.7 L 764.0,182.2 L 755.7,185.5 L 746.6,188.7 L 737.5,191.2 L 728.6,193.3 L 718.8,195.0 L 708.7,196.4 L 697.8,197.5 L 687.2,198.1 L 677.0,198.2 L 666.0,197.7 L 654.3,196.7 L 643.6,195.2 L 631.1,192.8 L 620.3,190.1 L 608.9,186.8 L 598.0,183.3 L 585.3,178.8 L 574.5,174.3 L 563.0,168.9 L 553.7,163.8 L 543.5,157.4 L 534.4,151.0 L 526.6,144.8 L 518.7,137.9 L 512.3,132.0 L 505.5,125.6 L 500.1,120.7 L 494.2,115.6 L 489.6,112.0 L 484.3,108.2 L 479.2,105.1 L 474.4,102.9 L 468.8,100.9 L 462.8,99.4 L 456.5,98.4 L 451.1,98.0 L 445.0,97.8 L 438.2,97.9 L 432.7,98.2 L 426.3,99.0 L 420.1,100.4 L 415.1,102.2 L 409.6,104.8 L 404.8,107.7 L 399.7,111.2 L 395.1,114.6 L 390.3,118.5 L 385.4,123.2 L 381.7,127.6 L 377.6,133.4 L 374.5,139.1 L 372.0,145.1 L 370.3,150.6 L 369.1,156.8 L 368.5,163.6 L 368.7,169.5 L 369.3,175.5 L 370.2,182.7 L 370.9,188.5 L 371.3,195.0 L 371.2,200.8 L 370.6,206.1 L 369.5,211.3 L 367.9,216.1 L 365.6,220.9 L 362.9,225.0 L 359.9,228.4 L 356.4,231.4 L 352.2,234.2 L 348.3,236.0 L 344.4,237.2 L 340.2,237.9 L 335.9,237.9 L 331.5,237.4 L 328.3,236.5 L 324.9,235.1 L 321.6,233.0 L 319.1,230.8 L 316.6,228.4 L 314.0,226.0 L 311.0,223.1 L 307.8,220.0 L 304.3,216.7 L 300.5,213.0 L 296.6,209.4 L 292.5,205.7 L 287.9,201.8 L 282.4,197.3 L 277.3,193.4 L 271.5,189.2 L 265.7,185.1 L 259.3,180.6 L 252.4,175.6 L 245.5,170.7 L 238.8,165.9 L 230.8,160.2 L 224.0,155.4 L 215.5,149.4 L 208.0,144.0 L 200.3,138.5 L 191.2,132.0 L 183.1,126.2 L 174.9,120.4 L 165.7,113.8 L 156.3,107.1 L 147.7,100.9 L 138.5,94.3 L 129.6,87.9 L 119.1,80.4 L 109.9,73.8 L 100.1,66.8 Z" fill="none" stroke="url(#g)" stroke-width="133.6" stroke-linejoin="round" stroke-linecap="round"/>
<path d="M 96.2,59.4 L 83.6,50.2 L 73.4,42.7 L 64.0,35.9 L 53.6,28.3 L 42.4,20.4 L 31.5,12.8 L 20.1,4.8 L 9.6,-2.5 L -0.9,-9.9 L -12.2,-17.7 L -23.5,-25.7 L -36.0,-34.4 L -47.0,-42.1 L -58.0,-49.8 L -69.7,-58.0 L -82.6,-67.0 L -94.5,-75.3 L -105.8,-83.3 L -118.4,-92.3 L -128.9,-100.3 L -141.3,-109.9 L -153.1,-118.9 L -165.2,-127.9 L -176.7,-136.4 L -188.9,-145.4 L -202.5,-155.2 L -214.3,-163.7 L -226.9,-172.6 L -238.9,-181.1 L -252.2,-190.5 L -264.1,-198.8 L -277.2,-208.1 L -287.3,-215.2 L -298.5,-223.1 L -308.0,-229.9 L -317.4,-236.5 L -327.1,-243.4 L -334.8,-248.9 L -342.1,-254.1 L -349.5,-259.3 L -356.6,-264.4 L -364.5,-270.0 L -370.5,-274.2 L -377.3,-279.0 L -383.5,-283.0 L -390.0,-287.0 L -396.7,-290.5 L -403.2,-293.3 L -410.1,-295.6 L -417.1,-297.4 L -423.9,-298.6 L -430.7,-299.2 L -436.9,-299.4 L -442.4,-299.1 L -447.9,-298.4 L -453.0,-297.4 L -457.7,-296.1 L -461.6,-294.6 L -465.2,-292.7 L -468.5,-290.3 L -471.5,-287.3 L -474.0,-284.2 L -476.5,-280.9 L -479.5,-277.5 L -483.3,-273.8 L -486.6,-270.6 L -490.7,-267.0 L -495.3,-263.5 L -500.5,-260.2 L -505.6,-257.6 L -511.8,-255.2 L -517.2,-253.6 L -523.7,-252.3 L -530.1,-251.5 L -536.4,-251.3 L -543.8,-251.7 L -550.1,-252.7 L -556.8,-254.2 L -563.4,-256.3 L -570.3,-258.7 L -576.9,-261.2 L -584.2,-264.3 L -592.3,-268.1 L -599.1,-271.7 L -606.7,-275.9 L -614.5,-280.3 L -622.8,-285.3 L -630.7,-290.4 L -638.2,-295.8 L -646.1,-301.9 L -653.8,-308.5 L -662.4,-316.1 L -670.0,-322.8 L -677.8,-329.5 L -686.1,-336.7 L -694.6,-343.9 L -703.8,-351.5 L -712.8,-358.7 L -721.6,-365.5 L -731.2,-372.6 L -741.6,-379.8 L -751.8,-386.6 L -762.3,-393.2 L -773.1,-399.7 L -784.8,-406.2 L -796.2,-412.0 L -807.4,-417.1 L -819.4,-422.3 L -830.9,-426.9 L -842.4,-431.4 L -853.2,-435.7 L -863.7,-439.9 L -874.0,-444.1 L -881.5,-447.3 L -890.1,-451.1 L -898.5,-454.7 L -907.6,-458.8 L -916.1,-462.6 L -923.0,-465.8 L -931.8,-469.8 L -938.9,-473.2 L -947.5,-477.3 L -954.8,-481.0 L -962.1,-485.0 L -968.9,-489.0 L -975.6,-493.2 L -982.2,-497.5 L -987.9,-501.6 L -992.8,-505.4 L -997.5,-509.7 L -1001.7,-514.2 L -1004.5,-517.7 L -1007.3,-521.6 L -1009.9,-525.4 L -1011.9,-528.7 L -1013.7,-531.7 L -1015.3,-534.6 L -1016.6,-536.9 L -1017.5,-539.1 L -1018.0,-541.4 L -1018.0,-543.8 L -1017.6,-546.2 L -1016.9,-548.8 L -1016.2,-551.5 L -1015.3,-554.8 L -1014.5,-558.0 L -1013.7,-561.5 L -1012.9,-565.8 L -1012.3,-569.9 L -1011.9,-574.6 L -1012.1,-579.8 L -1012.8,-584.7 L -1013.9,-589.3 L -1015.8,-593.9 L -1018.2,-598.5 L -1021.1,-602.4 L -1024.4,-605.9 L -1027.9,-608.8 L -1032.2,-611.6 L -1036.7,-614.0 L -1041.2,-615.9 L -1046.4,-617.6 L -1052.1,-618.7 L -1058.1,-619.3 L -1063.4,-619.3 L -1069.3,-618.7 L -1075.0,-617.8 L -1080.9,-616.8 L -1086.3,-616.0 L -1091.5,-615.4 L -1097.1,-615.0 L -1102.1,-614.9 L -1107.3,-615.3 L -1112.6,-616.4 L -1117.5,-618.0 L -1121.8,-620.0 L -1126.1,-622.6 L -1130.2,-626.0 L -1133.3,-629.2 L -1135.8,-632.7 L -1137.8,-636.5 L -1139.3,-640.5 L -1140.1,-644.4 L -1140.3,-647.8 L -1140.0,-651.3 L -1139.3,-655.0 L -1138.4,-659.2 L -1137.4,-663.4 L -1136.3,-667.9 L -1135.1,-672.5 L -1133.5,-677.5 L -1131.4,-683.0 L -1129.2,-688.1 L -1126.1,-694.2 L -1123.2,-699.1 L -1119.2,-704.7 L -1115.1,-709.5 L -1110.4,-714.2 L -1105.3,-718.4 L -1099.9,-721.9 L -1093.9,-724.9 L -1088.4,-726.9 L -1082.5,-728.4 L -1076.4,-729.2 L -1070.5,-729.3 L -1065.1,-728.8 L -1059.2,-727.7 L -1053.1,-725.9 L -1047.5,-723.7 L -1041.4,-721.0 L -1035.0,-717.6 L -1028.7,-713.9 L -1023.1,-710.3 L -1016.2,-705.5 L -1009.9,-700.6 L -1004.0,-695.5 L -997.6,-689.2 L -992.0,-683.1 L -985.8,-675.5 L -981.3,-669.2 L -976.4,-661.6 L -971.9,-653.4 L -968.1,-645.4 L -964.8,-637.7 L -961.4,-629.7 L -957.7,-622.0 L -953.6,-614.5 L -948.8,-606.4 L -943.8,-598.8 L -938.9,-592.2 L -933.9,-586.5 L -927.7,-580.3 L -921.7,-575.2 L -915.1,-570.4 L -908.1,-566.1 L -900.7,-562.1 L -892.8,-558.6 L -884.3,-555.1 L -876.3,-551.8 L -866.7,-547.9 L -858.7,-544.7 L -849.0,-541.1 L -840.0,-537.8 L -829.4,-534.0 L -820.0,-530.6 L -809.4,-526.8 L -800.1,-523.6 L -789.7,-520.1 L -779.0,-516.5 L -767.7,-512.6 L -756.7,-508.9 L -746.1,-505.4 L -734.2,-501.4 L -722.8,-497.5 L -711.7,-493.8 L -700.0,-489.8 L -687.5,-485.6 L -676.0,-481.7 L -662.6,-477.2 L -651.6,-473.4 L -638.0,-468.8 L -626.7,-465.0 L -613.5,-460.6 L -600.7,-456.2 L -588.5,-452.1 L -575.6,-447.7 L -562.5,-443.3 L -548.0,-438.4 L -534.1,-433.7 L -522.7,-429.8 L -507.8,-424.9 L -494.9,-420.7 L -481.2,-416.2 L -468.1,-411.9 L -454.2,-407.4 L -440.2,-402.8 L -424.8,-397.8 L -412.1,-393.6 L -397.9,-389.0 L -383.7,-384.3 L -368.7,-379.4 L -354.3,-374.7 L -339.1,-369.7 L -325.4,-365.2 L -310.8,-360.4 L -296.9,-355.9 L -280.7,-350.6 L -265.2,-345.5 L -252.6,-341.4 L -237.8,-336.5 L -222.1,-331.4 L -207.1,-326.4 L -192.9,-321.8 L -177.8,-316.8 L -161.1,-311.4 L -146.7,-306.6 L -132.2,-301.9 L -116.9,-296.9 L -100.9,-291.6 L -85.5,-286.5 L -70.9,-281.7 L -55.4,-276.6 L -39.1,-271.3 L -23.6,-266.2 L -6.5,-260.6 L 6.8,-256.2 L 24.0,-250.5 L 39.7,-245.4 L 55.5,-240.2 L 70.5,-235.3 L 86.3,-230.2 L 101.3,-225.3 L 118.8,-219.6 L 134.7,-214.4 L 149.8,-209.5 L 165.8,-204.3 L 181.0,-199.4 L 197.0,-194.2 L 213.9,-188.8 L 231.6,-183.1 L 245.3,-178.7 L 262.3,-173.2 L 279.2,-167.8 L 294.6,-162.8 L 310.8,-157.5 L 326.2,-152.6 L 342.3,-147.2 L 358.6,-141.8 L 375.6,-136.2 L 391.8,-130.8 L 407.3,-125.7 L 423.6,-120.3 L 441.5,-114.3 L 457.8,-108.9 L 472.5,-104.0 L 489.7,-98.3 L 505.2,-93.2 L 522.4,-87.5 L 537.9,-82.4 L 554.3,-76.9 L 570.7,-71.4 L 588.7,-65.3 L 604.3,-60.0 L 620.6,-54.4 L 636.2,-49.1 L 655.1,-42.6 L 670.6,-37.3 L 686.0,-32.1 L 701.6,-26.7 L 716.5,-21.6 L 729.9,-17.0 L 743.3,-12.4 L 755.9,-8.0 L 768.5,-3.6 L 779.4,0.1 L 790.3,3.9 L 800.6,7.5 L 810.9,11.0 L 819.9,14.2 L 829.2,17.5 L 838.4,20.7 L 848.4,24.3 L 856.8,27.7 L 864.9,31.4 L 873.0,35.8 L 881.6,41.1 L 888.9,45.8 L 896.1,50.5 L 903.4,55.6 L 910.5,61.0 L 917.2,66.6 L 923.8,72.9 L 929.6,79.2 L 934.7,85.5 L 940.0,93.0 L 944.5,100.0 L 948.3,106.9 L 951.9,114.2 L 954.9,121.3 L 957.7,128.8 L 960.0,136.4 L 962.1,144.5 L 963.8,152.5 L 965.3,160.2 L 966.8,168.5 L 968.2,176.8 L 969.2,185.5 L 969.9,193.3 L 970.2,200.4 L 970.2,207.3 L 970.0,214.3 L 969.7,219.7 L 969.3,224.8 L 968.8,229.3 L 968.1,233.4 L 967.3,237.2 L 966.5,240.3 L 965.3,243.7 L 963.9,246.4 L 962.1,249.0 L 960.0,251.1 L 957.5,252.9 L 954.7,254.5 L 951.9,255.7 L 949.2,256.6 L 946.2,257.2 L 943.1,257.3 L 940.3,257.0 L 937.5,256.1 L 934.6,254.9 L 931.5,253.6 L 928.2,251.8 L 925.2,249.8 L 922.2,247.3 L 918.9,244.0 L 916.2,241.0 L 913.2,237.0 L 910.5,232.7 L 908.1,228.3 L 905.8,223.3 L 903.8,217.9 L 902.0,211.5 L 900.7,205.7 L 899.4,199.7 L 897.8,193.1 L 895.9,187.4 L 893.4,181.7 L 890.5,176.2 L 887.3,171.1 L 884.1,166.8 L 880.8,163.0 L 877.1,159.4 L 872.7,155.9 L 868.2,153.1 L 863.7,151.0 L 858.5,149.2 L 853.6,148.1 L 848.9,147.7 L 844.0,147.8 L 838.6,148.7 L 833.8,149.9 L 828.9,151.5 L 823.6,153.4 L 817.5,156.0 L 812.0,158.7 L 806.4,161.5 L 800.1,164.7 L 793.5,168.0 L 786.3,171.6 L 779.0,175.2 L 771.8,178.7 L 764.0,182.2 L 755.7,185.5 L 746.6,188.7 L 737.5,191.2 L 728.6,193.3 L 718.8,195.0 L 708.7,196.4 L 697.8,197.5 L 687.2,198.1 L 677.0,198.2 L 666.0,197.7 L 654.3,196.7 L 643.6,195.2 L 631.1,192.8 L 620.3,190.1 L 608.9,186.8 L 598.0,183.3 L 585.3,178.8 L 574.5,174.3 L 563.0,168.9 L 553.7,163.8 L 543.5,157.4 L 534.4,151.0 L 526.6,144.8 L 518.7,137.9 L 512.3,132.0 L 505.5,125.6 L 500.1,120.7 L 494.2,115.6 L 489.6,112.0 L 484.3,108.2 L 479.2,105.1 L 474.4,102.9 L 468.8,100.9 L 462.8,99.4 L 456.5,98.4 L 451.1,98.0 L 445.0,97.8 L 438.2,97.9 L 432.7,98.2 L 426.3,99.0 L 420.1,100.4 L 415.1,102.2 L 409.6,104.8 L 404.8,107.7 L 399.7,111.2 L 395.1,114.6 L 390.3,118.5 L 385.4,123.2 L 381.7,127.6 L 377.6,133.4 L 374.5,139.1 L 372.0,145.1 L 370.3,150.6 L 369.1,156.8 L 368.5,163.6 L 368.7,169.5 L 369.3,175.5 L 370.2,182.7 L 370.9,188.5 L 371.3,195.0 L 371.2,200.8 L 370.6,206.1 L 369.5,211.3 L 367.9,216.1 L 365.6,220.9 L 362.9,225.0 L 359.9,228.4 L 356.4,231.4 L 352.2,234.2 L 348.3,236.0 L 344.4,237.2 L 340.2,237.9 L 335.9,237.9 L 331.5,237.4 L 328.3,236.5 L 324.9,235.1 L 321.6,233.0 L 319.1,230.8 L 316.6,228.4 L 314.0,226.0 L 311.0,223.1 L 307.8,220.0 L 304.3,216.7 L 300.5,213.0 L 296.6,209.4 L 292.5,205.7 L 287.9,201.8 L 282.4,197.3 L 277.3,193.4 L 271.5,189.2 L 265.7,185.1 L 259.3,180.6 L 252.4,175.6 L 245.5,170.7 L 238.8,165.9 L 230.8,160.2 L 224.0,155.4 L 215.5,149.4 L 208.0,144.0 L 200.3,138.5 L 191.2,132.0 L 183.1,126.2 L 174.9,120.4 L 165.7,113.8 L 156.3,107.1 L 147.7,100.9 L 138.5,94.3 L 129.6,87.9 L 119.1,80.4 L 109.9,73.8 L 100.1,66.8 Z" fill="none" stroke="#ffffff" stroke-width="13.4" stroke-linejoin="round" stroke-linecap="round"/>
</svg>