<svg xmlns="http://www.w3.org/2000/svg" viewBox="-1247.0 -838.2 2329.0 1440.6">
<defs><linearGradient id="g" gradientUnits="userSpaceOnUse" x1="-1136.3" y1="-727.5" x2="971.3" y2="491.7">
<stop offset="0" stop-color="#1c9fe0"/><stop offset="1" stop-color="#0b1f44"/></linearGradient></defs>
<path d="M -57.7,-49.0 L -67.8,-56.3 L -77.9,-63.7 L -88.0,-71.1 L -98.3,-78.5 L -108.7,-86.0 L -120.1,-94.2 L -129.5,-101.0 L -140.1,-108.5 L -151.7,-116.9 L -161.3,-123.8 L -172.0,-131.5 L -182.7,-139.4 L -193.4,-147.2 L -205.3,-155.9 L -216.2,-163.9 L -226.0,-171.0 L -237.0,-179.0 L -248.0,-187.0 L -259.0,-194.9 L -269.8,-202.7 L -280.2,-210.1 L -291.0,-217.9 L -300.3,-224.5 L -308.2,-230.2 L -316.7,-236.1 L -325.4,-242.2 L -332.2,-246.9 L -339.4,-251.9 L -346.2,-256.4 L -352.7,-260.8 L -359.4,-265.2 L -365.3,-269.1 L -370.4,-272.3 L -375.7,-275.7 L -381.4,-279.1 L -385.9,-281.7 L -390.9,-284.3 L -395.8,-286.7 L -400.8,-288.8 L -405.8,-290.5 L -410.9,-291.8 L -416.0,-292.8 L -421.1,-293.2 L -426.8,-293.2 L -431.6,-292.8 L -436.8,-291.9 L -442.2,-290.6 L -448.2,-288.6 L -453.1,-286.5 L -458.6,-283.9 L -464.1,-280.8 L -469.6,-277.4 L -475.0,-273.7 L -480.8,-269.7 L -485.4,-266.6 L -490.7,-263.5 L -496.0,-260.7 L -501.6,-258.2 L -508.0,-255.9 L -513.4,-254.4 L -519.5,-253.2 L -525.9,-252.3 L -532.4,-251.9 L -539.0,-252.0 L -545.8,-252.6 L -552.7,-253.6 L -559.8,-255.1 L -567.1,-256.9 L -574.4,-259.3 L -581.7,-262.1 L -589.8,-265.7 L -596.3,-269.1 L -603.5,-273.3 L -610.7,-277.9 L -618.5,-283.3 L -625.0,-288.0 L -632.9,-293.9 L -639.5,-299.0 L -646.9,-304.8 L -654.3,-310.7 L -661.8,-316.8 L -670.1,-323.6 L -677.0,-329.3 L -685.6,-336.2 L -692.8,-341.9 L -701.8,-348.8 L -709.4,-354.4 L -718.7,-361.3 L -726.5,-366.8 L -735.4,-373.0 L -744.4,-379.1 L -753.7,-385.1 L -764.1,-391.6 L -772.7,-396.8 L -782.5,-402.5 L -792.5,-408.0 L -802.7,-413.3 L -814.1,-419.0 L -823.6,-423.5 L -834.3,-428.3 L -846.3,-433.4 L -856.2,-437.4 L -867.0,-441.8 L -877.5,-446.2 L -887.6,-450.4 L -897.3,-454.7 L -906.5,-458.9 L -915.3,-463.0 L -923.7,-467.0 L -932.6,-471.3 L -939.5,-474.7 L -946.8,-478.5 L -954.5,-482.5 L -960.4,-485.7 L -966.5,-489.2 L -972.1,-492.8 L -977.4,-496.3 L -982.6,-500.4 L -986.5,-503.7 L -990.4,-507.5 L -993.9,-511.4 L -997.1,-515.4 L -999.8,-519.6 L -1002.2,-524.0 L -1004.3,-528.6 L -1006.1,-534.0 L -1007.4,-538.7 L -1008.6,-544.2 L -1009.6,-550.0 L -1010.5,-556.1 L -1011.4,-562.4 L -1012.3,-568.8 L -1013.4,-575.1 L -1014.8,-581.1 L -1016.5,-586.7 L -1018.5,-591.9 L -1021.0,-596.6 L -1023.9,-600.9 L -1027.2,-604.7 L -1031.3,-608.3 L -1035.0,-610.9 L -1039.5,-613.3 L -1044.3,-615.3 L -1050.0,-616.9 L -1054.9,-617.8 L -1060.6,-618.3 L -1067.2,-618.4 L -1072.9,-618.1 L -1079.3,-617.7 L -1086.3,-617.1 L -1091.7,-616.6 L -1097.4,-616.4 L -1103.1,-616.4 L -1107.4,-616.7 L -1111.8,-617.3 L -1115.8,-618.2 L -1119.6,-619.4 L -1123.0,-620.9 L -1126.1,-622.7 L -1129.0,-625.0 L -1131.2,-627.4 L -1132.8,-629.7 L -1134.2,-632.6 L -1135.3,-635.7 L -1136.0,-639.1 L -1136.3,-642.7 L -1136.3,-646.6 L -1136.1,-650.8 L -1135.5,-655.3 L -1134.8,-660.1 L -1133.9,-665.2 L -1132.8,-670.5 L -1131.5,-676.0 L -1129.8,-681.6 L -1127.8,-687.1 L -1125.5,-692.3 L -1123.0,-697.1 L -1120.2,-701.6 L -1116.8,-706.1 L -1113.9,-709.5 L -1110.3,-713.0 L -1106.3,-716.3 L -1102.0,-719.3 L -1097.4,-721.9 L -1092.0,-724.3 L -1086.9,-726.0 L -1082.3,-727.0 L -1077.2,-727.5 L -1072.1,-727.5 L -1067.1,-727.0 L -1061.5,-726.0 L -1056.8,-724.7 L -1051.5,-723.0 L -1046.1,-720.8 L -1040.1,-718.0 L -1035.1,-715.3 L -1029.7,-711.8 L -1024.2,-708.0 L -1018.8,-703.8 L -1012.8,-698.7 L -1007.5,-693.7 L -1002.8,-689.0 L -997.1,-682.8 L -992.0,-676.8 L -987.6,-671.1 L -982.9,-664.5 L -978.3,-657.6 L -973.4,-649.7 L -969.4,-643.0 L -965.0,-635.4 L -960.6,-627.7 L -956.0,-619.9 L -951.2,-612.2 L -945.9,-604.6 L -939.7,-596.3 L -934.3,-589.8 L -927.8,-582.9 L -920.1,-575.9 L -913.5,-570.5 L -905.6,-565.0 L -897.4,-559.8 L -888.9,-555.1 L -880.0,-550.6 L -869.9,-546.0 L -861.5,-542.4 L -851.9,-538.5 L -842.2,-534.8 L -832.3,-531.2 L -822.2,-527.8 L -812.0,-524.4 L -801.6,-521.1 L -790.1,-517.4 L -780.6,-514.4 L -769.9,-511.0 L -759.1,-507.5 L -747.2,-503.5 L -737.4,-500.3 L -726.3,-496.7 L -714.1,-492.6 L -704.0,-489.3 L -692.8,-485.5 L -681.4,-481.8 L -670.0,-478.0 L -658.6,-474.3 L -647.0,-470.5 L -635.4,-466.6 L -622.6,-462.3 L -610.9,-458.3 L -600.3,-454.7 L -588.5,-450.7 L -575.4,-446.2 L -564.6,-442.5 L -552.5,-438.4 L -539.2,-433.8 L -528.2,-430.2 L -516.0,-426.1 L -503.6,-422.0 L -490.0,-417.5 L -478.8,-413.8 L -466.3,-409.7 L -453.7,-405.5 L -441.1,-401.3 L -427.2,-396.6 L -415.8,-392.8 L -403.1,-388.4 L -390.3,-384.1 L -377.4,-379.8 L -364.6,-375.4 L -351.6,-371.1 L -338.6,-366.7 L -325.6,-362.3 L -311.2,-357.5 L -299.5,-353.5 L -285.0,-348.8 L -273.2,-344.8 L -260.0,-340.5 L -246.8,-336.1 L -232.2,-331.2 L -220.3,-327.2 L -205.7,-322.3 L -193.7,-318.3 L -180.4,-313.8 L -167.3,-309.4 L -153.2,-304.7 L -141.7,-300.8 L -129.3,-296.6 L -117.2,-292.6 L -105.6,-288.7 L -94.3,-284.9 L -83.5,-281.2 L -72.9,-277.7 L -62.6,-274.2 L -52.7,-270.8 L -43.1,-267.5 L -34.0,-264.4 L -25.3,-261.5 L -17.0,-258.7 L -9.1,-256.1 L -1.5,-253.6 L 5.7,-251.2 L 12.5,-249.0 L 19.0,-246.8 L 25.2,-244.8 L 31.1,-242.9 L 37.2,-241.0 L 42.0,-239.6 L 47.1,-238.3 L 52.0,-237.1 L 57.2,-236.0 L 61.4,-235.4 L 66.0,-234.9 L 70.7,-234.8 L 75.4,-235.1 L 80.1,-235.9 L 85.2,-237.2 L 89.4,-238.7 L 94.1,-240.8 L 98.6,-243.4 L 103.5,-246.7 L 107.5,-249.7 L 111.8,-253.2 L 115.8,-256.7 L 119.7,-260.1 L 123.5,-263.2 L 127.5,-266.2 L 130.8,-268.4 L 134.4,-270.4 L 138.5,-272.2 L 141.9,-273.3 L 145.7,-274.1 L 150.2,-274.5 L 153.9,-274.5 L 158.0,-273.9 L 162.6,-272.8 L 166.3,-271.4 L 170.4,-269.4 L 174.3,-266.9 L 178.7,-263.6 L 182.2,-260.5 L 186.1,-256.7 L 190.5,-252.3 L 194.1,-248.4 L 198.3,-243.9 L 202.7,-239.2 L 207.4,-234.5 L 212.4,-229.7 L 217.6,-224.9 L 223.1,-220.2 L 229.5,-215.0 L 234.9,-210.8 L 241.2,-206.1 L 248.4,-201.0 L 255.2,-196.4 L 262.3,-191.8 L 268.8,-187.6 L 276.3,-183.1 L 284.0,-178.5 L 291.9,-174.0 L 300.0,-169.5 L 308.3,-165.1 L 316.8,-160.7 L 326.3,-155.9 L 334.3,-152.2 L 343.3,-148.1 L 352.5,-144.1 L 362.0,-140.2 L 371.6,-136.4 L 381.3,-132.8 L 391.2,-129.2 L 402.3,-125.4 L 411.5,-122.3 L 422.9,-118.6 L 432.4,-115.7 L 443.0,-112.3 L 453.7,-108.9 L 464.4,-105.4 L 475.3,-101.8 L 486.2,-98.2 L 497.2,-94.5 L 508.3,-90.9 L 519.5,-87.2 L 530.7,-83.5 L 542.0,-79.9 L 553.4,-76.2 L 564.9,-72.5 L 577.5,-68.3 L 589.1,-64.5 L 600.8,-60.7 L 611.3,-57.2 L 623.1,-53.3 L 634.9,-49.4 L 647.9,-45.0 L 659.9,-41.0 L 671.9,-37.0 L 682.7,-33.4 L 694.9,-29.3 L 708.3,-24.9 L 719.3,-21.3 L 731.6,-17.2 L 743.9,-13.2 L 756.3,-9.1 L 768.5,-5.1 L 780.4,-1.1 L 791.8,2.8 L 803.0,6.6 L 813.7,10.4 L 825.0,14.5 L 834.9,18.4 L 843.3,22.0 L 852.4,26.3 L 861.1,30.7 L 870.2,36.0 L 877.4,40.5 L 885.1,45.9 L 892.5,51.7 L 899.7,57.8 L 906.7,64.2 L 913.4,70.9 L 919.9,77.9 L 926.2,85.3 L 932.6,93.7 L 938.0,101.8 L 942.4,109.2 L 947.1,118.6 L 950.6,126.5 L 953.9,135.4 L 957.1,145.5 L 959.4,154.0 L 961.8,163.6 L 963.9,173.4 L 965.7,183.4 L 967.4,194.6 L 968.5,203.9 L 969.4,214.4 L 970.1,225.0 L 970.6,235.8 L 971.0,246.7 L 971.2,257.7 L 971.3,268.9 L 971.3,280.2 L 971.3,291.5 L 971.3,302.8 L 971.3,313.7 L 971.3,324.3 L 971.2,334.5 L 971.2,344.2 L 971.0,353.5 L 970.8,362.5 L 970.5,371.1 L 969.9,379.5 L 969.1,388.4 L 968.3,395.4 L 967.2,402.9 L 965.8,410.1 L 964.1,417.0 L 961.9,424.2 L 959.8,430.0 L 957.1,436.2 L 953.9,442.2 L 950.4,447.9 L 946.4,453.5 L 941.5,459.2 L 937.2,463.7 L 932.0,468.3 L 926.6,472.5 L 920.2,476.7 L 914.7,479.7 L 908.5,482.7 L 902.2,485.3 L 895.9,487.4 L 889.5,489.2 L 882.5,490.6 L 876.8,491.3 L 869.8,491.7 L 863.5,491.7 L 857.9,491.2 L 851.2,490.2 L 845.9,489.0 L 840.1,487.2 L 834.4,485.1 L 829.0,482.6 L 823.6,479.6 L 818.4,476.3 L 813.4,472.7 L 808.8,468.8 L 804.5,464.6 L 800.3,459.8 L 797.3,455.5 L 794.4,450.6 L 792.0,445.5 L 790.2,440.1 L 789.0,434.6 L 788.2,429.0 L 788.1,422.5 L 788.5,416.6 L 789.3,411.1 L 790.6,404.9 L 792.3,398.5 L 794.3,392.0 L 796.7,385.4 L 799.4,378.7 L 802.5,371.9 L 805.9,365.0 L 809.5,358.2 L 813.9,350.6 L 817.7,344.3 L 822.3,337.4 L 827.1,330.5 L 832.2,323.5 L 837.6,316.6 L 843.2,309.6 L 848.9,302.6 L 854.6,295.6 L 860.0,288.7 L 865.1,282.0 L 869.8,275.6 L 874.2,269.4 L 878.1,263.4 L 881.8,257.6 L 885.4,251.3 L 888.2,245.8 L 890.5,240.8 L 892.6,235.3 L 894.2,229.9 L 895.4,224.4 L 896.2,218.9 L 896.5,213.4 L 896.5,207.2 L 896.0,201.5 L 895.3,196.4 L 893.9,190.3 L 892.3,184.9 L 890.5,180.3 L 888.3,175.3 L 885.6,170.6 L 882.5,166.3 L 879.0,162.3 L 875.2,158.7 L 870.5,155.3 L 866.4,152.8 L 861.6,150.4 L 856.5,148.6 L 851.3,147.3 L 845.9,146.5 L 840.3,146.3 L 834.7,146.7 L 828.4,147.8 L 822.7,149.4 L 817.4,151.3 L 811.6,153.9 L 805.0,157.3 L 799.5,160.2 L 793.2,163.7 L 786.6,167.2 L 779.9,170.6 L 772.8,173.9 L 764.7,177.3 L 757.0,180.3 L 749.9,182.9 L 741.8,185.5 L 733.4,188.0 L 724.8,190.2 L 715.9,192.1 L 705.8,193.8 L 697.4,194.9 L 686.9,195.7 L 677.2,196.1 L 668.4,196.1 L 658.4,195.7 L 647.4,194.8 L 638.3,193.6 L 627.1,191.5 L 616.9,189.1 L 607.7,186.5 L 597.6,183.1 L 587.5,179.2 L 576.6,174.3 L 567.7,169.9 L 557.9,164.5 L 548.3,158.8 L 539.0,152.7 L 530.0,146.5 L 521.4,140.3 L 513.3,134.3 L 505.6,128.6 L 498.2,123.2 L 490.4,117.9 L 484.3,113.9 L 477.0,109.8 L 471.2,106.8 L 464.3,103.8 L 458.7,101.8 L 452.1,100.1 L 446.7,99.2 L 440.9,98.7 L 435.0,98.8 L 429.1,99.5 L 423.3,100.6 L 417.5,102.2 L 411.9,104.3 L 406.5,106.8 L 401.3,109.9 L 396.3,113.3 L 391.6,117.2 L 386.7,122.0 L 382.7,126.8 L 379.5,131.4 L 376.6,136.9 L 374.2,142.6 L 372.5,148.6 L 371.3,154.8 L 370.5,161.8 L 370.2,167.7 L 370.3,174.3 L 370.6,181.5 L 371.0,187.0 L 371.4,192.8 L 371.5,198.1 L 371.5,203.1 L 371.2,207.7 L 370.6,211.9 L 369.6,215.8 L 368.4,219.3 L 366.8,222.5 L 364.7,225.6 L 362.8,227.8 L 360.4,229.8 L 357.9,231.5 L 355.1,232.9 L 352.2,233.9 L 349.0,234.6 L 345.6,235.0 L 342.1,234.9 L 338.0,234.3 L 334.6,233.3 L 330.8,231.8 L 326.3,229.7 L 322.1,227.4 L 318.2,225.0 L 313.3,221.7 L 309.1,218.8 L 304.3,215.2 L 298.8,211.1 L 294.2,207.5 L 288.9,203.5 L 283.4,199.3 L 277.7,195.0 L 271.2,190.2 L 265.7,186.1 L 259.4,181.5 L 252.9,176.8 L 245.7,171.5 L 239.8,167.1 L 233.0,162.2 L 226.1,157.1 L 219.1,151.9 L 211.9,146.6 L 203.9,140.6 L 197.2,135.6 L 189.7,130.0 L 182.0,124.3 L 173.4,118.0 L 165.4,112.2 L 157.4,106.4 L 150.0,101.1 L 140.9,94.6 L 132.5,88.6 L 124.9,83.1 L 116.3,76.9 L 107.7,70.7 L 99.0,64.4 L 90.1,58.0 L 81.2,51.5 L 72.2,45.0 L 63.0,38.4 L 53.9,31.8 L 44.6,25.1 L 35.2,18.3 L 25.7,11.5 L 16.2,4.7 L 6.6,-2.2 L -4.0,-9.8 L -13.7,-16.8 L -22.5,-23.1 L -32.4,-30.2 L -42.3,-37.3" fill="none" stroke="url(#g)" stroke-width="147.5" stroke-linecap="round" stroke-linejoin="round"/>
<path d="M -57.7,-49.0 L -67.8,-56.3 L -77.9,-63.7 L -88.0,-71.1 L -98.3,-78.5 L -108.7,-86.0 L -120.1,-94.2 L -129.5,-101.0 L -140.1,-108.5 L -151.7,-116.9 L -161.3,-123.8 L -172.0,-131.5 L -182.7,-139.4 L -193.4,-147.2 L -205.3,-155.9 L -216.2,-163.9 L -226.0,-171.0 L -237.0,-179.0 L -248.0,-187.0 L -259.0,-194.9 L -269.8,-202.7 L -280.2,-210.1 L -291.0,-217.9 L -300.3,-224.5 L -308.2,-230.2 L -316.7,-236.1 L -325.4,-242.2 L -332.2,-246.9 L -339.4,-251.9 L -346.2,-256.4 L -352.7,-260.8 L -359.4,-265.2 L -365.3,-269.1 L -370.4,-272.3 L -375.7,-275.7 L -381.4,-279.1 L -385.9,-281.7 L -390.9,-284.3 L -395.8,-286.7 L -400.8,-288.8 L -405.8,-290.5 L -410.9,-291.8 L -416.0,-292.8 L -421.1,-293.2 L -426.8,-293.2 L -431.6,-292.8 L -436.8,-291.9 L -442.2,-290.6 L -448.2,-288.6 L -453.1,-286.5 L -458.6,-283.9 L -464.1,-280.8 L -469.6,-277.4 L -475.0,-273.7 L -480.8,-269.7 L -485.4,-266.6 L -490.7,-263.5 L -496.0,-260.7 L -501.6,-258.2 L -508.0,-255.9 L -513.4,-254.4 L -519.5,-253.2 L -525.9,-252.3 L -532.4,-251.9 L -539.0,-252.0 L -545.8,-252.6 L -552.7,-253.6 L -559.8,-255.1 L -567.1,-256.9 L -574.4,-259.3 L -581.7,-262.1 L -589.8,-265.7 L -596.3,-269.1 L -603.5,-273.3 L -610.7,-277.9 L -618.5,-283.3 L -625.0,-288.0 L -632.9,-293.9 L -639.5,-299.0 L -646.9,-304.8 L -654.3,-310.7 L -661.8,-316.8 L -670.1,-323.6 L -677.0,-329.3 L -685.6,-336.2 L -692.8,-341.9 L -701.8,-348.8 L -709.4,-354.4 L -718.7,-361.3 L -726.5,-366.8 L -735.4,-373.0 L -744.4,-379.1 L -753.7,-385.1 L -764.1,-391.6 L -772.7,-396.8 L -782.5,-402.5 L -792.5,-408.0 L -802.7,-413.3 L -814.1,-419.0 L -823.6,-423.5 L -834.3,-428.3 L -846.3,-433.4 L -856.2,-437.4 L -867.0,-441.8 L -877.5,-446.2 L -887.6,-450.4 L -897.3,-454.7 L -906.5,-458.9 L -915.3,-463.0 L -923.7,-467.0 L -932.6,-471.3 L -939.5,-474.7 L -946.8,-478.5 L -954.5,-482.5 L -960.4,-485.7 L -966.5,-489.2 L -972.1,-492.8 L -977.4,-496.3 L -982.6,-500.4 L -986.5,-503.7 L -990.4,-507.5 L -993.9,-511.4 L -997.1,-515.4 L -999.8,-519.6 L -1002.2,-524.0 L -1004.3,-528.6 L -1006.1,-534.0 L -1007.4,-538.7 L -1008.6,-544.2 L -1009.6,-550.0 L -1010.5,-556.1 L -1011.4,-562.4 L -1012.3,-568.8 L -1013.4,-575.1 L -1014.8,-581.1 L -1016.5,-586.7 L -1018.5,-591.9 L -1021.0,-596.6 L -1023.9,-600.9 L -1027.2,-604.7 L -1031.3,-608.3 L -1035.0,-610.9 L -1039.5,-613.3 L -1044.3,-615.3 L -1050.0,-616.9 L -1054.9,-617.8 L -1060.6,-618.3 L -1067.2,-618.4 L -1072.9,-618.1 L -1079.3,-617.7 L -1086.3,-617.1 L -1091.7,-616.6 L -1097.4,-616.4 L -1103.1,-616.4 L -1107.4,-616.7 L -1111.8,-617.3 L -1115.8,-618.2 L -1119.6,-619.4 L -1123.0,-620.9 L -1126.1,-622.7 L -1129.0,-625.0 L -1131.2,-627.4 L -1132.8,-629.7 L -1134.2,-632.6 L -1135.3,-635.7 L -1136.0,-639.1 L -1136.3,-642.7 L -1136.3,-646.6 L -1136.1,-650.8 L -1135.5,-655.3 L -1134.8,-660.1 L -1133.9,-665.2 L -1132.8,-670.5 L -1131.5,-676.0 L -1129.8,-681.6 L -1127.8,-687.1 L -1125.5,-692.3 L -1123.0,-697.1 L -1120.2,-701.6 L -1116.8,-706.1 L -1113.9,-709.5 L -1110.3,-713.0 L -1106.3,-716.3 L -1102.0,-719.3 L -1097.4,-721.9 L -1092.0,-724.3 L -1086.9,-726.0 L -1082.3,-727.0 L -1077.2,-727.5 L -1072.1,-727.5 L -1067.1,-727.0 L -1061.5,-726.0 L -1056.8,-724.7 L -1051.5,-723.0 L -1046.1,-720.8 L -1040.1,-718.0 L -1035.1,-715.3 L -1029.7,-711.8 L -1024.2,-708.0 L -1018.8,-703.8 L -1012.8,-698.7 L -1007.5,-693.7 L -1002.8,-689.0 L -997.1,-682.8 L -992.0,-676.8 L -987.6,-671.1 L -982.9,-664.5 L -978.3,-657.6 L -973.4,-649.7 L -969.4,-643.0 L -965.0,-635.4 L -960.6,-627.7 L -956.0,-619.9 L -951.2,-612.2 L -945.9,-604.6 L -939.7,-596.3 L -934.3,-589.8 L -927.8,-582.9 L -920.1,-575.9 L -913.5,-570.5 L -905.6,-565.0 L -897.4,-559.8 L -888.9,-555.1 L -880.0,-550.6 L -869.9,-546.0 L -861.5,-542.4 L -851.9,-538.5 L -842.2,-534.8 L -832.3,-531.2 L -822.2,-527.8 L -812.0,-524.4 L -801.6,-521.1 L -790.1,-517.4 L -780.6,-514.4 L -769.9,-511.0 L -759.1,-507.5 L -747.2,-503.5 L -737.4,-500.3 L -726.3,-496.7 L -714.1,-492.6 L -704.0,-489.3 L -692.8,-485.5 L -681.4,-481.8 L -670.0,-478.0 L -658.6,-474.3 L -647.0,-470.5 L -635.4,-466.6 L -622.6,-462.3 L -610.9,-458.3 L -600.3,-454.7 L -588.5,-450.7 L -575.4,-446.2 L -564.6,-442.5 L -552.5,-438.4 L -539.2,-433.8 L -528.2,-430.2 L -516.0,-426.1 L -503.6,-422.0 L -490.0,-417.5 L -478.8,-413.8 L -466.3,-409.7 L -453.7,-405.5 L -441.1,-401.3 L -427.2,-396.6 L -415.8,-392.8 L -403.1,-388.4 L -390.3,-384.1 L -377.4,-379.8 L -364.6,-375.4 L -351.6,-371.1 L -338.6,-366.7 L -325.6,-362.3 L -311.2,-357.5 L -299.5,-353.5 L -285.0,-348.8 L -273.2,-344.8 L -260.0,-340.5 L -246.8,-336.1 L -232.2,-331.2 L -220.3,-327.2 L -205.7,-322.3 L -193.7,-318.3 L -180.4,-313.8 L -167.3,-309.4 L -153.2,-304.7 L -141.7,-300.8 L -129.3,-296.6 L -117.2,-292.6 L -105.6,-288.7 L -94.3,-284.9 L -83.5,-281.2 L -72.9,-277.7 L -62.6,-274.2 L -52.7,-270.8 L -43.1,-267.5 L -34.0,-264.4 L -25.3,-261.5 L -17.0,-258.7 L -9.1,-256.1 L -1.5,-253.6 L 5.7,-251.2 L 12.5,-249.0 L 19.0,-246.8 L 25.2,-244.8 L 31.1,-242.9 L 37.2,-241.0 L 42.0,-239.6 L 47.1,-238.3 L 52.0,-237.1 L 57.2,-236.0 L 61.4,-235.4 L 66.0,-234.9 L 70.7,-234.8 L 75.4,-235.1 L 80.1,-235.9 L 85.2,-237.2 L 89.4,-238.7 L 94.1,-240.8 L 98.6,-243.4 L 103.5,-246.7 L 107.5,-249.7 L 111.8,-253.2 L 115.8,-256.7 L 119.7,-260.1 L 123.5,-263.2 L 127.5,-266.2 L 130.8,-268.4 L 134.4,-270.4 L 138.5,-272.2 L 141.9,-273.3 L 145.7,-274.1 L 150.2,-274.5 L 153.9,-274.5 L 158.0,-273.9 L 162.6,-272.8 L 166.3,-271.4 L 170.4,-269.4 L 174.3,-266.9 L 178.7,-263.6 L 182.2,-260.5 L 186.1,-256.7 L 190.5,-252.3 L 194.1,-248.4 L 198.3,-243.9 L 202.7,-239.2 L 207.4,-234.5 L 212.4,-229.7 L 217.6,-224.9 L 223.1,-220.2 L 229.5,-215.0 L 234.9,-210.8 L 241.2,-206.1 L 248.4,-201.0 L 255.2,-196.4 L 262.3,-191.8 L 268.8,-187.6 L 276.3,-183.1 L 284.0,-178.5 L 291.9,-174.0 L 300.0,-169.5 L 308.3,-165.1 L 316.8,-160.7 L 326.3,-155.9 L 334.3,-152.2 L 343.3,-148.1 L 352.5,-144.1 L 362.0,-140.2 L 371.6,-136.4 L 381.3,-132.8 L 391.2,-129.2 L 402.3,-125.4 L 411.5,-122.3 L 422.9,-118.6 L 432.4,-115.7 L 443.0,-112.3 L 453.7,-108.9 L 464.4,-105.4 L 475.3,-101.8 L 486.2,-98.2 L 497.2,-94.5 L 508.3,-90.9 L 519.5,-87.2 L 530.7,-83.5 L 542.0,-79.9 L 553.4,-76.2 L 564.9,-72.5 L 577.5,-68.3 L 589.1,-64.5 L 600.8,-60.7 L 611.3,-57.2 L 623.1,-53.3 L 634.9,-49.4 L 647.9,-45.0 L 659.9,-41.0 L 671.9,-37.0 L 682.7,-33.4 L 694.9,-29.3 L 708.3,-24.9 L 719.3,-21.3 L 731.6,-17.2 L 743.9,-13.2 L 756.3,-9.1 L 768.5,-5.1 L 780.4,-1.1 L 791.8,2.8 L 803.0,6.6 L 813.7,10.4 L 825.0,14.5 L 834.9,18.4 L 843.3,22.0 L 852.4,26.3 L 861.1,30.7 L 870.2,36.0 L 877.4,40.5 L 885.1,45.9 L 892.5,51.7 L 899.7,57.8 L 906.7,64.2 L 913.4,70.9 L 919.9,77.9 L 926.2,85.3 L 932.6,93.7 L 938.0,101.8 L 942.4,109.2 L 947.1,118.6 L 950.6,126.5 L 953.9,135.4 L 957.1,145.5 L 959.4,154.0 L 961.8,163.6 L 963.9,173.4 L 965.7,183.4 L 967.4,194.6 L 968.5,203.9 L 969.4,214.4 L 970.1,225.0 L 970.6,235.8 L 971.0,246.7 L 971.2,257.7 L 971.3,268.9 L 971.3,280.2 L 971.3,291.5 L 971.3,302.8 L 971.3,313.7 L 971.3,324.3 L 971.2,334.5 L 971.2,344.2 L 971.0,353.5 L 970.8,362.5 L 970.5,371.1 L 969.9,379.5 L 969.1,388.4 L 968.3,395.4 L 967.2,402.9 L 965.8,410.1 L 964.1,417.0 L 961.9,424.2 L 959.8,430.0 L 957.1,436.2 L 953.9,442.2 L 950.4,447.9 L 946.4,453.5 L 941.5,459.2 L 937.2,463.7 L 932.0,468.3 L 926.6,472.5 L 920.2,476.7 L 914.7,479.7 L 908.5,482.7 L 902.2,485.3 L 895.9,487.4 L 889.5,489.2 L 882.5,490.6 L 876.8,491.3 L 869.8,491.7 L 863.5,491.7 L 857.9,491.2 L 851.2,490.2 L 845.9,489.0 L 840.1,487.2 L 834.4,485.1 L 829.0,482.6 L 823.6,479.6 L 818.4,476.3 L 813.4,472.7 L 808.8,468.8 L 804.5,464.6 L 800.3,459.8 L 797.3,455.5 L 794.4,450.6 L 792.0,445.5 L 790.2,440.1 L 789.0,434.6 L 788.2,429.0 L 788.1,422.5 L 788.5,416.6 L 789.3,411.1 L 790.6,404.9 L 792.3,398.5 L 794.3,392.0 L 796.7,385.4 L 799.4,378.7 L 802.5,371.9 L 805.9,365.0 L 809.5,358.2 L 813.9,350.6 L 817.7,344.3 L 822.3,337.4 L 827.1,330.5 L 832.2,323.5 L 837.6,316.6 L 843.2,309.6 L 848.9,302.6 L 854.6,295.6 L 860.0,288.7 L 865.1,282.0 L 869.8,275.6 L 874.2,269.4 L 878.1,263.4 L 881.8,257.6 L 885.4,251.3 L 888.2,245.8 L 890.5,240.8 L 892.6,235.3 L 894.2,229.9 L 895.4,224.4 L 896.2,218.9 L 896.5,213.4 L 896.5,207.2 L 896.0,201.5 L 895.3,196.4 L 893.9,190.3 L 892.3,184.9 L 890.5,180.3 L 888.3,175.3 L 885.6,170.6 L 882.5,166.3 L 879.0,162.3 L 875.2,158.7 L 870.5,155.3 L 866.4,152.8 L 861.6,150.4 L 856.5,148.6 L 851.3,147.3 L 845.9,146.5 L 840.3,146.3 L 834.7,146.7 L 828.4,147.8 L 822.7,149.4 L 817.4,151.3 L 811.6,153.9 L 805.0,157.3 L 799.5,160.2 L 793.2,163.7 L 786.6,167.2 L 779.9,170.6 L 772.8,173.9 L 764.7,177.3 L 757.0,180.3 L 749.9,182.9 L 741.8,185.5 L 733.4,188.0 L 724.8,190.2 L 715.9,192.1 L 705.8,193.8 L 697.4,194.9 L 686.9,195.7 L 677.2,196.1 L 668.4,196.1 L 658.4,195.7 L 647.4,194.8 L 638.3,193.6 L 627.1,191.5 L 616.9,189.1 L 607.7,186.5 L 597.6,183.1 L 587.5,179.2 L 576.6,174.3 L 567.7,169.9 L 557.9,164.5 L 548.3,158.8 L 539.0,152.7 L 530.0,146.5 L 521.4,140.3 L 513.3,134.3 L 505.6,128.6 L 498.2,123.2 L 490.4,117.9 L 484.3,113.9 L 477.0,109.8 L 471.2,106.8 L 464.3,103.8 L 458.7,101.8 L 452.1,100.1 L 446.7,99.2 L 440.9,98.7 L 435.0,98.8 L 429.1,99.5 L 423.3,100.6 L 417.5,102.2 L 411.9,104.3 L 406.5,106.8 L 401.3,109.9 L 396.3,113.3 L 391.6,117.2 L 386.7,122.0 L 382.7,126.8 L 379.5,131.4 L 376.6,136.9 L 374.2,142.6 L 372.5,148.6 L 371.3,154.8 L 370.5,161.8 L 370.2,167.7 L 370.3,174.3 L 370.6,181.5 L 371.0,187.0 L 371.4,192.8 L 371.5,198.1 L 371.5,203.1 L 371.2,207.7 L 370.6,211.9 L 369.6,215.8 L 368.4,219.3 L 366.8,222.5 L 364.7,225.6 L 362.8,227.8 L 360.4,229.8 L 357.9,231.5 L 355.1,232.9 L 352.2,233.9 L 349.0,234.6 L 345.6,235.0 L 342.1,234.9 L 338.0,234.3 L 334.6,233.3 L 330.8,231.8 L 326.3,229.7 L 322.1,227.4 L 318.2,225.0 L 313.3,221.7 L 309.1,218.8 L 304.3,215.2 L 298.8,211.1 L 294.2,207.5 L 288.9,203.5 L 283.4,199.3 L 277.7,195.0 L 271.2,190.2 L 265.7,186.1 L 259.4,181.5 L 252.9,176.8 L 245.7,171.5 L 239.8,167.1 L 233.0,162.2 L 226.1,157.1 L 219.1,151.9 L 211.9,146.6 L 203.9,140.6 L 197.2,135.6 L 189.7,130.0 L 182.0,124.3 L 173.4,118.0 L 165.4,112.2 L 157.4,106.4 L 150.0,101.1 L 140.9,94.6 L 132.5,88.6 L 124.9,83.1 L 116.3,76.9 L 107.7,70.7 L 99.0,64.4 L 90.1,58.0 L 81.2,51.5 L 72.2,45.0 L 63.0,38.4 L 53.9,31.8 L 44.6,25.1 L 35.2,18.3 L 25.7,11.5 L 16.2,4.7 L 6.6,-2.2 L -4.0,-9.8 L -13.7,-16.8 L -22.5,-23.1 L -32.4,-30.2 L -42.3,-37.3" fill="none" stroke="#ffffff" stroke-opacity="0.92" stroke-width="14.8" stroke-linecap="round" stroke-linejoin="round"/>
<line x1="20.2" y1="-156.5" x2="-135.6" y2="58.5" stroke="#ffffff" stroke-width="20.7" stroke-linecap="round"/>
</svg>