<svg xmlns="http://www.w3.org/2000/svg" viewBox="-548.2 -415.2 1250.8 688.7">
<defs><linearGradient id="g" gradientUnits="userSpaceOnUse" x1="-488.8" y1="-355.7" x2="643.2" y2="214.1">
<stop offset="0" stop-color="#ff8a18"/><stop offset="1" stop-color="#7b2da0"/></linearGradient></defs>
<path d="M -106.6,-1.8 L -87.9,-1.6 L -76.2,-1.4 L -64.3,-1.2 L -51.2,-1.0 L -40.4,-0.9 L -28.3,-0.7 L -16.2,-0.6 L -4.1,-0.5 L 8.1,-0.4 L 21.6,-0.3 L 32.7,-0.3 L 45.1,-0.4 L 58.8,-0.4 L 71.4,-0.4 L 82.7,-0.4 L 95.4,-0.4 L 108.1,-0.3 L 120.9,-0.2 L 135.0,-0.2 L 146.6,-0.1 L 159.6,-0.0 L 172.5,0.0 L 185.1,-0.0 L 197.4,-0.1 L 210.4,-0.2 L 220.8,-0.4 L 231.9,-0.6 L 242.8,-1.0 L 254.4,-1.4 L 264.7,-2.0 L 273.6,-2.6 L 283.3,-3.6 L 292.6,-4.8 L 301.7,-6.4 L 310.4,-8.3 L 318.8,-10.6 L 326.8,-13.4 L 334.6,-16.6 L 342.1,-20.3 L 349.3,-24.3 L 356.8,-29.3 L 362.5,-33.8 L 368.5,-39.1 L 374.1,-44.7 L 379.7,-51.2 L 383.8,-56.9 L 387.8,-63.3 L 391.3,-70.1 L 394.4,-77.2 L 397.1,-84.6 L 399.4,-92.2 L 401.2,-100.2 L 402.7,-108.4 L 403.8,-116.8 L 404.9,-126.3 L 405.5,-135.1 L 405.7,-143.2 L 405.7,-152.3 L 405.4,-161.6 L 404.7,-171.9 L 403.7,-180.5 L 402.4,-190.1 L 400.6,-200.6 L 398.9,-209.3 L 396.6,-220.1 L 394.6,-228.9 L 392.2,-238.7 L 389.7,-248.1 L 387.1,-258.0 L 385.1,-265.7 L 383.0,-274.0 L 381.2,-281.8 L 379.7,-289.2 L 378.3,-296.9 L 377.5,-302.8 L 376.9,-308.9 L 376.7,-314.7 L 376.9,-320.5 L 377.3,-324.9 L 378.0,-329.4 L 379.0,-333.5 L 380.3,-337.1 L 381.9,-340.2 L 383.7,-342.9 L 385.7,-345.1 L 388.0,-347.0 L 390.7,-348.8 L 392.9,-350.1 L 395.5,-351.3 L 398.0,-352.3 L 400.7,-353.2 L 403.6,-353.9 L 406.2,-354.4 L 408.9,-354.8 L 411.8,-355.1 L 414.5,-355.4 L 417.7,-355.6 L 421.0,-355.7 L 424.6,-355.6 L 428.3,-355.3 L 431.9,-354.7 L 435.5,-353.9 L 438.9,-352.8 L 442.5,-351.2 L 445.3,-349.7 L 448.2,-347.9 L 450.9,-345.8 L 453.4,-343.5 L 456.1,-340.6 L 458.2,-337.9 L 460.7,-334.2 L 462.5,-330.8 L 464.4,-326.6 L 466.1,-322.2 L 467.4,-317.4 L 468.7,-312.2 L 470.2,-306.8 L 471.8,-301.1 L 473.7,-295.3 L 475.7,-289.2 L 477.8,-283.0 L 480.1,-276.7 L 482.5,-270.1 L 485.1,-263.4 L 487.8,-256.5 L 490.9,-248.7 L 493.5,-242.1 L 496.6,-234.7 L 499.8,-227.2 L 503.2,-219.5 L 506.6,-211.8 L 510.3,-204.0 L 514.2,-196.2 L 519.1,-187.6 L 523.4,-180.7 L 528.7,-173.2 L 534.3,-165.7 L 540.4,-158.4 L 546.9,-151.3 L 553.6,-144.2 L 560.5,-137.2 L 567.7,-130.2 L 574.9,-123.4 L 581.9,-116.8 L 588.6,-110.5 L 595.1,-104.3 L 601.2,-98.4 L 607.0,-92.5 L 613.0,-86.3 L 618.2,-80.7 L 622.4,-75.6 L 626.7,-70.0 L 630.4,-64.3 L 633.6,-58.6 L 636.6,-52.2 L 638.8,-46.3 L 640.5,-40.9 L 642.0,-34.3 L 642.8,-28.9 L 643.2,-22.3 L 643.1,-16.9 L 642.5,-10.9 L 641.5,-4.7 L 639.9,1.6 L 637.6,8.5 L 635.3,14.0 L 632.7,20.1 L 629.9,26.3 L 626.5,33.3 L 623.4,39.1 L 619.4,46.3 L 616.2,52.4 L 612.5,60.2 L 609.8,66.7 L 607.0,75.0 L 605.0,82.0 L 603.2,90.1 L 601.9,98.4 L 600.9,106.9 L 600.1,115.3 L 599.5,123.4 L 598.9,131.2 L 598.1,138.7 L 597.1,145.9 L 595.9,152.8 L 594.2,160.0 L 592.4,165.6 L 589.9,171.9 L 587.5,176.8 L 584.5,181.8 L 580.8,186.9 L 577.5,190.7 L 573.5,194.6 L 569.3,198.1 L 564.8,201.2 L 560.2,203.9 L 555.3,206.3 L 550.1,208.4 L 544.7,210.2 L 539.0,211.6 L 532.4,212.9 L 526.8,213.5 L 520.4,214.0 L 513.2,214.1 L 507.1,214.1 L 500.1,214.0 L 492.8,213.8 L 484.7,213.7 L 477.8,213.5 L 469.9,213.4 L 461.9,213.2 L 453.7,213.1 L 445.3,213.0 L 436.9,212.9 L 428.3,212.9 L 419.5,212.8 L 410.5,212.8 L 400.5,212.8 L 392.2,212.8 L 382.8,212.7 L 373.2,212.7 L 363.6,212.7 L 352.7,212.6 L 343.8,212.6 L 333.7,212.5 L 322.5,212.5 L 313.3,212.5 L 302.9,212.5 L 292.4,212.5 L 281.9,212.5 L 271.2,212.5 L 259.4,212.5 L 249.7,212.5 L 238.7,212.5 L 227.6,212.5 L 216.5,212.4 L 205.2,212.4 L 192.7,212.4 L 182.4,212.4 L 170.9,212.4 L 159.3,212.5 L 147.6,212.5 L 134.6,212.6 L 123.9,212.6 L 112.0,212.6 L 100.0,212.6 L 87.9,212.6 L 75.8,212.7 L 63.7,212.7 L 51.5,212.8 L 39.2,212.8 L 26.8,212.9 L 14.3,212.9 L 1.8,212.9 L -10.8,213.0 L -23.4,213.0 L -36.1,213.1 L -48.9,213.1 L -61.7,213.2 L -74.6,213.2 L -88.9,213.2 L -100.6,213.3 L -115.0,213.3 L -126.8,213.4 L -139.9,213.4 L -154.5,213.4 L -166.4,213.5 L -179.7,213.5 L -193.1,213.5 L -207.8,213.5 L -219.7,213.5 L -232.6,213.5 L -245.1,213.5 L -257.4,213.5 L -270.5,213.5 L -281.0,213.4 L -292.4,213.4 L -303.6,213.3 L -314.5,213.1 L -325.2,212.6 L -335.6,211.9 L -346.7,210.7 L -355.5,209.4 L -365.1,207.6 L -374.3,205.3 L -384.1,202.5 L -391.9,199.9 L -400.4,196.7 L -408.6,193.3 L -416.4,189.7 L -424.0,185.9 L -431.1,181.8 L -437.8,177.4 L -444.1,172.9 L -450.1,168.2 L -455.8,163.3 L -461.1,158.2 L -466.1,153.0 L -470.6,147.6 L -475.1,141.4 L -478.3,136.2 L -481.4,130.2 L -484.0,124.3 L -485.9,118.2 L -487.4,112.1 L -488.4,105.4 L -488.8,99.9 L -488.7,93.9 L -488.2,87.3 L -487.3,81.8 L -486.0,75.7 L -484.2,69.5 L -481.8,62.7 L -479.5,57.1 L -476.5,50.9 L -473.1,45.0 L -469.3,39.2 L -465.1,33.7 L -460.5,28.4 L -455.6,23.5 L -449.7,18.3 L -444.5,14.4 L -438.4,10.3 L -432.0,6.6 L -425.3,3.2 L -418.3,0.1 L -410.9,-2.6 L -403.2,-4.9 L -395.3,-6.9 L -387.3,-8.4 L -379.0,-9.6 L -369.6,-10.4 L -361.7,-10.8 L -352.8,-11.0 L -342.9,-11.1 L -334.6,-11.0 L -325.3,-10.9 L -315.8,-10.8 L -306.1,-10.6 L -295.4,-10.3 L -286.5,-9.9 L -276.5,-9.5 L -266.4,-9.0 L -256.2,-8.5 L -246.0,-8.0 L -235.6,-7.4 L -225.1,-6.9 L -214.4,-6.3 L -203.7,-5.7 L -192.9,-5.1 L -181.9,-4.6 L -170.9,-4.0 L -159.7,-3.5 L -148.5,-3.0 L -137.1,-2.6 L -125.7,-2.2 L -114.2,-1.8" fill="none" stroke="url(#g)" stroke-width="79.2" stroke-linecap="round" stroke-linejoin="round"/>
<path d="M -106.6,-1.8 L -87.9,-1.6 L -76.2,-1.4 L -64.3,-1.2 L -51.2,-1.0 L -40.4,-0.9 L -28.3,-0.7 L -16.2,-0.6 L -4.1,-0.5 L 8.1,-0.4 L 21.6,-0.3 L 32.7,-0.3 L 45.1,-0.4 L 58.8,-0.4 L 71.4,-0.4 L 82.7,-0.4 L 95.4,-0.4 L 108.1,-0.3 L 120.9,-0.2 L 135.0,-0.2 L 146.6,-0.1 L 159.6,-0.0 L 172.5,0.0 L 185.1,-0.0 L 197.4,-0.1 L 210.4,-0.2 L 220.8,-0.4 L 231.9,-0.6 L 242.8,-1.0 L 254.4,-1.4 L 264.7,-2.0 L 273.6,-2.6 L 283.3,-3.6 L 292.6,-4.8 L 301.7,-6.4 L 310.4,-8.3 L 318.8,-10.6 L 326.8,-13.4 L 334.6,-16.6 L 342.1,-20.3 L 349.3,-24.3 L 356.8,-29.3 L 362.5,-33.8 L 368.5,-39.1 L 374.1,-44.7 L 379.7,-51.2 L 383.8,-56.9 L 387.8,-63.3 L 391.3,-70.1 L 394.4,-77.2 L 397.1,-84.6 L 399.4,-92.2 L 401.2,-100.2 L 402.7,-108.4 L 403.8,-116.8 L 404.9,-126.3 L 405.5,-135.1 L 405.7,-143.2 L 405.7,-152.3 L 405.4,-161.6 L 404.7,-171.9 L 403.7,-180.5 L 402.4,-190.1 L 400.6,-200.6 L 398.9,-209.3 L 396.6,-220.1 L 394.6,-228.9 L 392.2,-238.7 L 389.7,-248.1 L 387.1,-258.0 L 385.1,-265.7 L 383.0,-274.0 L 381.2,-281.8 L 379.7,-289.2 L 378.3,-296.9 L 377.5,-302.8 L 376.9,-308.9 L 376.7,-314.7 L 376.9,-320.5 L 377.3,-324.9 L 378.0,-329.4 L 379.0,-333.5 L 380.3,-337.1 L 381.9,-340.2 L 383.7,-342.9 L 385.7,-345.1 L 388.0,-347.0 L 390.7,-348.8 L 392.9,-350.1 L 395.5,-351.3 L 398.0,-352.3 L 400.7,-353.2 L 403.6,-353.9 L 406.2,-354.4 L 408.9,-354.8 L 411.8,-355.1 L 414.5,-355.4 L 417.7,-355.6 L 421.0,-355.7 L 424.6,-355.6 L 428.3,-355.3 L 431.9,-354.7 L 435.5,-353.9 L 438.9,-352.8 L 442.5,-351.2 L 445.3,-349.7 L 448.2,-347.9 L 450.9,-345.8 L 453.4,-343.5 L 456.1,-340.6 L 458.2,-337.9 L 460.7,-334.2 L 462.5,-330.8 L 464.4,-326.6 L 466.1,-322.2 L 467.4,-317.4 L 468.7,-312.2 L 470.2,-306.8 L 471.8,-301.1 L 473.7,-295.3 L 475.7,-289.2 L 477.8,-283.0 L 480.1,-276.7 L 482.5,-270.1 L 485.1,-263.4 L 487.8,-256.5 L 490.9,-248.7 L 493.5,-242.1 L 496.6,-234.7 L 499.8,-227.2 L 503.2,-219.5 L 506.6,-211.8 L 510.3,-204.0 L 514.2,-196.2 L 519.1,-187.6 L 523.4,-180.7 L 528.7,-173.2 L 534.3,-165.7 L 540.4,-158.4 L 546.9,-151.3 L 553.6,-144.2 L 560.5,-137.2 L 567.7,-130.2 L 574.9,-123.4 L 581.9,-116.8 L 588.6,-110.5 L 595.1,-104.3 L 601.2,-98.4 L 607.0,-92.5 L 613.0,-86.3 L 618.2,-80.7 L 622.4,-75.6 L 626.7,-70.0 L 630.4,-64.3 L 633.6,-58.6 L 636.6,-52.2 L 638.8,-46.3 L 640.5,-40.9 L 642.0,-34.3 L 642.8,-28.9 L 643.2,-22.3 L 643.1,-16.9 L 642.5,-10.9 L 641.5,-4.7 L 639.9,1.6 L 637.6,8.5 L 635.3,14.0 L 632.7,20.1 L 629.9,26.3 L 626.5,33.3 L 623.4,39.1 L 619.4,46.3 L 616.2,52.4 L 612.5,60.2 L 609.8,66.7 L 607.0,75.0 L 605.0,82.0 L 603.2,90.1 L 601.9,98.4 L 600.9,106.9 L 600.1,115.3 L 599.5,123.4 L 598.9,131.2 L 598.1,138.7 L 597.1,145.9 L 595.9,152.8 L 594.2,160.0 L 592.4,165.6 L 589.9,171.9 L 587.5,176.8 L 584.5,181.8 L 580.8,186.9 L 577.5,190.7 L 573.5,194.6 L 569.3,198.1 L 564.8,201.2 L 560.2,203.9 L 555.3,206.3 L 550.1,208.4 L 544.7,210.2 L 539.0,211.6 L 532.4,212.9 L 526.8,213.5 L 520.4,214.0 L 513.2,214.1 L 507.1,214.1 L 500.1,214.0 L 492.8,213.8 L 484.7,213.7 L 477.8,213.5 L 469.9,213.4 L 461.9,213.2 L 453.7,213.1 L 445.3,213.0 L 436.9,212.9 L 428.3,212.9 L 419.5,212.8 L 410.5,212.8 L 400.5,212.8 L 392.2,212.8 L 382.8,212.7 L 373.2,212.7 L 363.6,212.7 L 352.7,212.6 L 343.8,212.6 L 333.7,212.5 L 322.5,212.5 L 313.3,212.5 L 302.9,212.5 L 292.4,212.5 L 281.9,212.5 L 271.2,212.5 L 259.4,212.5 L 249.7,212.5 L 238.7,212.5 L 227.6,212.5 L 216.5,212.4 L 205.2,212.4 L 192.7,212.4 L 182.4,212.4 L 170.9,212.4 L 159.3,212.5 L 147.6,212.5 L 134.6,212.6 L 123.9,212.6 L 112.0,212.6 L 100.0,212.6 L 87.9,212.6 L 75.8,212.7 L 63.7,212.7 L 51.5,212.8 L 39.2,212.8 L 26.8,212.9 L 14.3,212.9 L 1.8,212.9 L -10.8,213.0 L -23.4,213.0 L -36.1,213.1 L -48.9,213.1 L -61.7,213.2 L -74.6,213.2 L -88.9,213.2 L -100.6,213.3 L -115.0,213.3 L -126.8,213.4 L -139.9,213.4 L -154.5,213.4 L -166.4,213.5 L -179.7,213.5 L -193.1,213.5 L -207.8,213.5 L -219.7,213.5 L -232.6,213.5 L -245.1,213.5 L -257.4,213.5 L -270.5,213.5 L -281.0,213.4 L -292.4,213.4 L -303.6,213.3 L -314.5,213.1 L -325.2,212.6 L -335.6,211.9 L -346.7,210.7 L -355.5,209.4 L -365.1,207.6 L -374.3,205.3 L -384.1,202.5 L -391.9,199.9 L -400.4,196.7 L -408.6,193.3 L -416.4,189.7 L -424.0,185.9 L -431.1,181.8 L -437.8,177.4 L -444.1,172.9 L -450.1,168.2 L -455.8,163.3 L -461.1,158.2 L -466.1,153.0 L -470.6,147.6 L -475.1,141.4 L -478.3,136.2 L -481.4,130.2 L -484.0,124.3 L -485.9,118.2 L -487.4,112.1 L -488.4,105.4 L -488.8,99.9 L -488.7,93.9 L -488.2,87.3 L -487.3,81.8 L -486.0,75.7 L -484.2,69.5 L -481.8,62.7 L -479.5,57.1 L -476.5,50.9 L -473.1,45.0 L -469.3,39.2 L -465.1,33.7 L -460.5,28.4 L -455.6,23.5 L -449.7,18.3 L -444.5,14.4 L -438.4,10.3 L -432.0,6.6 L -425.3,3.2 L -418.3,0.1 L -410.9,-2.6 L -403.2,-4.9 L -395.3,-6.9 L -387.3,-8.4 L -379.0,-9.6 L -369.6,-10.4 L -361.7,-10.8 L -352.8,-11.0 L -342.9,-11.1 L -334.6,-11.0 L -325.3,-10.9 L -315.8,-10.8 L -306.1,-10.6 L -295.4,-10.3 L -286.5,-9.9 L -276.5,-9.5 L -266.4,-9.0 L -256.2,-8.5 L -246.0,-8.0 L -235.6,-7.4 L -225.1,-6.9 L -214.4,-6.3 L -203.7,-5.7 L -192.9,-5.1 L -181.9,-4.6 L -170.9,-4.0 L -159.7,-3.5 L -148.5,-3.0 L -137.1,-2.6 L -125.7,-2.2 L -114.2,-1.8" fill="none" stroke="#ffffff" stroke-opacity="0.92" stroke-width="7.9" stroke-linecap="round" stroke-linejoin="round"/>
<line x1="-107.6" y1="69.5" x2="-105.6" y2="-73.1" stroke="#ffffff" stroke-width="11.1" stroke-linecap="round"/>
</svg>