<svg xmlns="http://www.w3.org/2000/svg" viewBox="-616.3 -841.6 1324.1 1119.5">
<defs><linearGradient id="g" gradientUnits="userSpaceOnUse" x1="-553.4" y1="-778.7" x2="644.9" y2="214.9">
<stop offset="0" stop-color="#1c9fe0"/><stop offset="1" stop-color="#0b1f44"/></linearGradient></defs>
<path d="M -107.4,0.7 L -92.2,0.7 L -79.4,0.6 L -65.2,0.5 L -53.5,0.5 L -40.4,0.5 L -25.9,0.5 L -13.9,0.5 L -0.6,0.4 L 12.9,0.4 L 26.4,0.3 L 41.4,0.3 L 53.8,0.2 L 67.6,0.2 L 81.4,0.1 L 95.4,0.1 L 109.4,0.1 L 124.9,0.1 L 138.9,0.1 L 151.4,0.1 L 164.9,0.0 L 178.1,-0.1 L 190.9,-0.2 L 203.4,-0.3 L 215.5,-0.4 L 227.3,-0.6 L 238.7,-0.7 L 249.8,-1.0 L 261.6,-1.4 L 270.9,-1.9 L 280.9,-2.8 L 290.6,-4.0 L 299.8,-5.6 L 308.7,-7.6 L 317.2,-10.0 L 325.4,-12.8 L 333.3,-16.0 L 340.9,-19.7 L 348.2,-23.9 L 355.1,-28.5 L 361.5,-33.6 L 367.6,-39.1 L 373.4,-45.0 L 378.7,-51.3 L 383.5,-58.1 L 388.3,-65.8 L 391.8,-72.5 L 395.1,-80.1 L 397.8,-87.9 L 400.1,-96.0 L 401.8,-104.4 L 403.2,-113.0 L 404.3,-121.9 L 405.0,-131.0 L 405.3,-140.4 L 405.3,-149.9 L 404.9,-160.6 L 404.2,-169.6 L 403.1,-179.6 L 401.7,-189.9 L 399.8,-201.3 L 398.1,-210.6 L 396.0,-220.8 L 393.9,-230.9 L 391.8,-240.7 L 389.8,-250.3 L 387.6,-260.8 L 385.7,-270.4 L 384.2,-279.0 L 382.5,-288.5 L 381.0,-298.1 L 379.6,-308.6 L 378.5,-317.2 L 377.5,-326.5 L 376.6,-335.7 L 376.0,-344.6 L 375.6,-353.1 L 375.3,-362.2 L 375.2,-370.1 L 375.2,-377.1 L 375.2,-384.7 L 375.3,-392.1 L 375.4,-399.4 L 375.6,-407.1 L 375.6,-413.4 L 375.7,-420.7 L 375.5,-426.5 L 375.1,-432.6 L 374.3,-438.5 L 373.1,-444.2 L 371.6,-449.7 L 369.4,-455.6 L 367.2,-460.1 L 364.3,-464.9 L 361.1,-469.2 L 357.1,-473.6 L 353.6,-476.8 L 349.4,-479.8 L 344.4,-482.5 L 340.2,-484.3 L 334.8,-486.1 L 330.1,-487.3 L 324.8,-488.4 L 319.2,-489.3 L 312.9,-490.1 L 307.6,-490.7 L 301.2,-491.6 L 295.9,-492.6 L 289.6,-494.2 L 284.5,-496.0 L 278.9,-498.5 L 273.5,-501.5 L 267.5,-505.3 L 262.7,-508.6 L 257.3,-512.3 L 251.3,-516.2 L 246.5,-519.2 L 240.5,-522.5 L 234.9,-525.2 L 229.7,-527.1 L 224.0,-528.8 L 218.1,-530.0 L 211.7,-530.8 L 206.5,-530.9 L 200.7,-530.6 L 195.0,-529.8 L 189.3,-528.6 L 183.8,-526.7 L 178.5,-524.4 L 173.4,-521.6 L 168.2,-518.1 L 164.2,-514.9 L 159.5,-510.5 L 156.0,-506.7 L 152.6,-502.2 L 149.2,-497.1 L 146.4,-492.2 L 144.0,-487.1 L 141.9,-482.3 L 139.6,-476.8 L 137.5,-471.1 L 135.0,-464.5 L 132.7,-459.0 L 129.9,-452.7 L 126.7,-446.3 L 123.2,-439.7 L 119.3,-433.0 L 115.1,-426.3 L 110.5,-419.4 L 105.6,-412.5 L 100.3,-405.5 L 94.8,-398.5 L 88.9,-391.6 L 82.6,-384.7 L 76.0,-377.9 L 69.0,-371.1 L 61.6,-364.4 L 53.9,-357.9 L 45.9,-351.4 L 36.7,-344.5 L 27.9,-338.5 L 19.8,-333.2 L 10.5,-327.6 L -0.0,-321.5 L -8.9,-316.8 L -19.1,-311.8 L -29.5,-306.9 L -41.3,-301.9 L -51.1,-298.0 L -62.3,-293.9 L -73.7,-290.2 L -85.4,-286.8 L -97.3,-283.8 L -109.4,-281.1 L -121.5,-278.8 L -133.8,-276.9 L -146.3,-275.2 L -158.9,-273.7 L -171.6,-272.6 L -184.4,-271.6 L -197.4,-270.9 L -210.5,-270.4 L -223.6,-270.1 L -236.9,-269.8 L -250.3,-269.6 L -265.1,-269.5 L -277.3,-269.4 L -290.9,-269.4 L -304.7,-269.4 L -318.5,-269.4 L -332.4,-269.4 L -346.3,-269.4 L -361.8,-269.3 L -374.4,-269.2 L -388.2,-269.1 L -401.5,-268.9 L -414.2,-268.8 L -426.3,-268.8 L -437.6,-268.7 L -448.3,-268.8 L -458.2,-268.8 L -468.3,-268.8 L -476.0,-268.8 L -483.9,-268.9 L -491.2,-269.0 L -497.9,-269.2 L -504.0,-269.3 L -509.7,-269.6 L -515.0,-269.8 L -520.4,-270.3 L -524.5,-270.8 L -528.8,-271.6 L -532.8,-272.8 L -536.6,-274.2 L -540.1,-276.0 L -543.6,-278.5 L -546.2,-280.8 L -548.6,-283.6 L -550.5,-286.7 L -552.0,-289.9 L -553.0,-293.3 L -553.4,-297.1 L -553.4,-300.1 L -552.9,-303.9 L -552.2,-307.1 L -551.1,-310.8 L -549.7,-314.8 L -548.1,-319.0 L -546.1,-323.4 L -543.8,-327.9 L -540.9,-332.5 L -537.9,-337.0 L -535.2,-341.7 L -532.6,-347.0 L -530.6,-351.6 L -528.5,-357.1 L -526.4,-362.9 L -524.1,-369.1 L -521.4,-375.4 L -518.5,-381.9 L -515.0,-389.2 L -511.8,-395.2 L -507.9,-401.9 L -503.2,-409.5 L -498.9,-415.7 L -493.8,-422.5 L -487.6,-430.1 L -481.6,-436.8 L -475.9,-442.8 L -468.5,-449.9 L -462.1,-455.6 L -453.8,-462.4 L -446.7,-467.8 L -438.5,-473.6 L -429.8,-479.2 L -420.9,-484.7 L -411.6,-489.8 L -401.1,-495.1 L -392.3,-499.1 L -382.3,-503.4 L -372.0,-507.3 L -361.5,-511.1 L -350.8,-514.7 L -339.9,-518.2 L -328.8,-521.7 L -316.6,-525.7 L -305.3,-529.6 L -295.2,-533.3 L -283.9,-537.8 L -272.7,-542.8 L -260.6,-548.8 L -250.9,-554.2 L -239.2,-561.2 L -229.8,-567.4 L -219.6,-574.6 L -209.6,-582.4 L -199.8,-590.6 L -190.3,-599.2 L -180.9,-608.2 L -171.7,-617.4 L -162.6,-626.9 L -153.4,-636.4 L -144.1,-646.0 L -134.8,-655.7 L -125.4,-665.4 L -115.0,-676.1 L -106.6,-684.7 L -97.5,-693.9 L -89.1,-702.4 L -81.3,-710.3 L -74.0,-717.6 L -66.7,-724.9 L -60.5,-730.9 L -55.4,-736.0 L -50.0,-741.3 L -44.4,-746.7 L -39.5,-751.4 L -34.7,-755.8 L -30.6,-759.6 L -25.9,-763.6 L -21.4,-767.3 L -16.8,-770.4 L -11.8,-773.3 L -7.7,-775.3 L -3.1,-776.9 L 1.5,-778.1 L 6.5,-778.7 L 10.4,-778.7 L 14.7,-778.2 L 18.9,-777.3 L 22.9,-775.8 L 26.8,-774.0 L 30.6,-771.8 L 34.3,-769.3 L 38.4,-766.1 L 41.7,-763.3 L 45.5,-759.7 L 49.3,-755.8 L 53.2,-751.6 L 57.0,-747.0 L 61.4,-741.5 L 65.6,-736.4 L 69.7,-731.8 L 74.5,-726.8 L 79.8,-722.0 L 85.6,-717.6 L 91.8,-713.4 L 99.2,-709.2 L 105.6,-705.9 L 113.1,-702.6 L 121.1,-699.6 L 130.2,-696.9 L 138.0,-695.1 L 146.9,-693.6 L 156.0,-692.8 L 165.4,-692.5 L 174.9,-692.9 L 184.6,-693.9 L 195.3,-695.7 L 204.1,-697.7 L 214.9,-700.8 L 224.7,-704.2 L 233.5,-707.6 L 244.3,-712.1 L 253.2,-716.1 L 263.2,-720.6 L 273.4,-725.0 L 283.9,-729.2 L 294.6,-733.0 L 305.7,-736.4 L 316.8,-739.3 L 327.8,-741.6 L 338.4,-743.6 L 349.6,-745.3 L 358.4,-746.3 L 367.7,-747.2 L 376.8,-747.9 L 385.4,-748.3 L 393.7,-748.4 L 401.6,-748.2 L 409.0,-747.5 L 415.9,-746.5 L 423.1,-744.9 L 428.7,-743.3 L 434.5,-741.2 L 440.5,-738.4 L 445.1,-735.7 L 450.0,-732.3 L 454.4,-728.6 L 458.0,-724.9 L 458.7,-724.0 L 461.8,-720.0 L 464.5,-715.3 L 466.8,-710.3 L 468.6,-705.1 L 470.2,-699.7 L 471.6,-693.3 L 472.6,-687.8 L 473.5,-681.3 L 474.1,-673.9 L 474.4,-667.6 L 474.5,-660.3 L 474.4,-651.9 L 474.2,-644.8 L 474.0,-636.7 L 473.7,-628.4 L 473.4,-619.7 L 473.0,-610.9 L 472.6,-601.8 L 472.2,-592.6 L 471.7,-583.2 L 471.3,-573.6 L 470.9,-563.8 L 470.5,-553.8 L 470.0,-543.6 L 469.6,-533.3 L 469.2,-522.7 L 468.9,-510.9 L 468.6,-501.2 L 468.3,-490.3 L 468.0,-479.2 L 467.8,-467.9 L 467.5,-456.5 L 467.2,-445.0 L 466.8,-432.1 L 466.4,-421.5 L 465.9,-409.5 L 465.4,-396.2 L 465.0,-385.2 L 464.7,-372.9 L 464.4,-359.2 L 464.5,-348.0 L 465.0,-335.4 L 466.2,-322.8 L 468.3,-308.9 L 470.8,-297.6 L 474.6,-283.9 L 478.2,-272.8 L 482.6,-260.4 L 487.4,-248.1 L 492.5,-235.9 L 498.0,-223.7 L 504.6,-210.4 L 510.5,-199.8 L 517.6,-188.1 L 525.4,-176.9 L 533.8,-166.0 L 543.7,-154.6 L 552.2,-145.6 L 561.7,-136.2 L 571.0,-127.3 L 580.8,-117.9 L 588.3,-110.6 L 597.0,-102.0 L 603.6,-95.3 L 610.5,-88.1 L 616.8,-81.1 L 622.5,-74.3 L 627.5,-67.6 L 631.9,-61.0 L 635.6,-54.5 L 638.6,-48.1 L 641.1,-41.9 L 643.0,-35.0 L 644.1,-29.5 L 644.8,-23.5 L 644.9,-17.5 L 644.4,-10.9 L 643.5,-5.5 L 641.9,1.2 L 640.2,6.7 L 637.8,12.8 L 635.0,19.0 L 631.4,25.8 L 628.2,31.6 L 624.5,38.1 L 620.7,45.0 L 616.9,52.1 L 613.3,59.6 L 609.8,68.2 L 607.2,75.6 L 604.6,84.9 L 602.7,93.8 L 601.4,102.0 L 600.4,111.3 L 599.5,121.5 L 598.8,129.4 L 597.9,138.6 L 596.8,146.4 L 595.7,153.2 L 594.1,160.4 L 591.9,167.7 L 589.8,173.3 L 586.8,179.6 L 584.0,184.3 L 580.5,189.0 L 576.3,193.6 L 572.1,197.4 L 568.1,200.4 L 563.2,203.4 L 557.9,206.1 L 552.2,208.4 L 546.2,210.3 L 539.9,211.9 L 533.2,213.1 L 525.5,214.1 L 519.0,214.6 L 510.7,214.9 L 503.7,214.9 L 495.7,214.7 L 487.5,214.3 L 479.0,213.8 L 470.2,213.4 L 461.3,213.1 L 452.1,212.9 L 442.9,212.7 L 433.4,212.6 L 422.7,212.4 L 413.8,212.4 L 403.7,212.4 L 393.4,212.4 L 383.0,212.4 L 372.3,212.4 L 360.5,212.5 L 350.8,212.5 L 339.8,212.6 L 327.6,212.6 L 317.4,212.6 L 306.0,212.6 L 293.3,212.5 L 281.5,212.5 L 270.9,212.4 L 258.9,212.4 L 246.7,212.3 L 234.5,212.3 L 222.2,212.2 L 209.8,212.2 L 197.3,212.1 L 183.5,211.9 L 172.1,211.8 L 159.3,211.7 L 146.4,211.6 L 132.2,211.7 L 119.1,211.7 L 107.2,211.8 L 93.9,211.9 L 80.6,212.0 L 67.1,212.1 L 52.2,212.2 L 39.9,212.3 L 24.8,212.3 L 12.4,212.3 L -1.5,212.3 L -16.9,212.3 L -29.5,212.3 L -43.6,212.2 L -57.7,212.2 L -71.8,212.3 L -87.4,212.3 L -100.1,212.3 L -115.7,212.4 L -128.6,212.4 L -144.3,212.5 L -158.7,212.5 L -171.7,212.6 L -186.2,212.6 L -202.2,212.7 L -215.3,212.7 L -221.2,212.7 L -230.0,212.7 L -244.7,212.6 L -259.5,212.6 L -275.7,212.4 L -290.1,212.1 L -302.6,211.8 L -316.0,211.1 L -328.7,210.3 L -342.1,208.9 L -352.6,207.6 L -363.9,206.1 L -374.6,204.4 L -384.8,202.2 L -394.4,199.6 L -403.4,196.6 L -411.9,193.3 L -419.9,189.7 L -427.4,185.8 L -434.5,181.5 L -441.1,177.0 L -447.5,172.2 L -454.1,166.5 L -459.3,161.5 L -464.7,155.6 L -469.7,149.3 L -474.4,142.1 L -477.8,136.0 L -481.0,129.0 L -483.5,122.0 L -485.4,114.7 L -486.7,107.5 L -487.3,100.3 L -487.2,93.0 L -486.6,85.8 L -485.5,78.4 L -483.7,70.9 L -481.0,62.8 L -478.3,56.2 L -474.4,48.4 L -470.2,41.7 L -466.1,35.9 L -460.9,29.8 L -455.3,24.1 L -449.1,18.6 L -442.4,13.5 L -435.1,8.8 L -427.4,4.4 L -419.3,0.5 L -410.8,-3.0 L -401.9,-6.0 L -392.6,-8.5 L -383.1,-10.5 L -373.2,-11.9 L -362.1,-12.8 L -351.8,-13.0 L -342.4,-12.8 L -331.9,-12.3 L -321.2,-11.6 L -310.3,-10.8 L -299.3,-10.0 L -287.0,-9.0 L -276.8,-8.3 L -265.4,-7.4 L -252.6,-6.5 L -242.0,-5.9 L -230.1,-5.2 L -218.1,-4.5 L -205.9,-4.0 L -193.7,-3.5 L -181.4,-3.1 L -169.0,-2.7 L -156.4,-2.3 L -143.7,-1.9 L -131.0,-1.6 L -116.8,-1.2" fill="none" stroke="url(#g)" stroke-width="83.9" stroke-linecap="round" stroke-linejoin="round"/>
<path d="M -107.4,0.7 L -92.2,0.7 L -79.4,0.6 L -65.2,0.5 L -53.5,0.5 L -40.4,0.5 L -25.9,0.5 L -13.9,0.5 L -0.6,0.4 L 12.9,0.4 L 26.4,0.3 L 41.4,0.3 L 53.8,0.2 L 67.6,0.2 L 81.4,0.1 L 95.4,0.1 L 109.4,0.1 L 124.9,0.1 L 138.9,0.1 L 151.4,0.1 L 164.9,0.0 L 178.1,-0.1 L 190.9,-0.2 L 203.4,-0.3 L 215.5,-0.4 L 227.3,-0.6 L 238.7,-0.7 L 249.8,-1.0 L 261.6,-1.4 L 270.9,-1.9 L 280.9,-2.8 L 290.6,-4.0 L 299.8,-5.6 L 308.7,-7.6 L 317.2,-10.0 L 325.4,-12.8 L 333.3,-16.0 L 340.9,-19.7 L 348.2,-23.9 L 355.1,-28.5 L 361.5,-33.6 L 367.6,-39.1 L 373.4,-45.0 L 378.7,-51.3 L 383.5,-58.1 L 388.3,-65.8 L 391.8,-72.5 L 395.1,-80.1 L 397.8,-87.9 L 400.1,-96.0 L 401.8,-104.4 L 403.2,-113.0 L 404.3,-121.9 L 405.0,-131.0 L 405.3,-140.4 L 405.3,-149.9 L 404.9,-160.6 L 404.2,-169.6 L 403.1,-179.6 L 401.7,-189.9 L 399.8,-201.3 L 398.1,-210.6 L 396.0,-220.8 L 393.9,-230.9 L 391.8,-240.7 L 389.8,-250.3 L 387.6,-260.8 L 385.7,-270.4 L 384.2,-279.0 L 382.5,-288.5 L 381.0,-298.1 L 379.6,-308.6 L 378.5,-317.2 L 377.5,-326.5 L 376.6,-335.7 L 376.0,-344.6 L 375.6,-353.1 L 375.3,-362.2 L 375.2,-370.1 L 375.2,-377.1 L 375.2,-384.7 L 375.3,-392.1 L 375.4,-399.4 L 375.6,-407.1 L 375.6,-413.4 L 375.7,-420.7 L 375.5,-426.5 L 375.1,-432.6 L 374.3,-438.5 L 373.1,-444.2 L 371.6,-449.7 L 369.4,-455.6 L 367.2,-460.1 L 364.3,-464.9 L 361.1,-469.2 L 357.1,-473.6 L 353.6,-476.8 L 349.4,-479.8 L 344.4,-482.5 L 340.2,-484.3 L 334.8,-486.1 L 330.1,-487.3 L 324.8,-488.4 L 319.2,-489.3 L 312.9,-490.1 L 307.6,-490.7 L 301.2,-491.6 L 295.9,-492.6 L 289.6,-494.2 L 284.5,-496.0 L 278.9,-498.5 L 273.5,-501.5 L 267.5,-505.3 L 262.7,-508.6 L 257.3,-512.3 L 251.3,-516.2 L 246.5,-519.2 L 240.5,-522.5 L 234.9,-525.2 L 229.7,-527.1 L 224.0,-528.8 L 218.1,-530.0 L 211.7,-530.8 L 206.5,-530.9 L 200.7,-530.6 L 195.0,-529.8 L 189.3,-528.6 L 183.8,-526.7 L 178.5,-524.4 L 173.4,-521.6 L 168.2,-518.1 L 164.2,-514.9 L 159.5,-510.5 L 156.0,-506.7 L 152.6,-502.2 L 149.2,-497.1 L 146.4,-492.2 L 144.0,-487.1 L 141.9,-482.3 L 139.6,-476.8 L 137.5,-471.1 L 135.0,-464.5 L 132.7,-459.0 L 129.9,-452.7 L 126.7,-446.3 L 123.2,-439.7 L 119.3,-433.0 L 115.1,-426.3 L 110.5,-419.4 L 105.6,-412.5 L 100.3,-405.5 L 94.8,-398.5 L 88.9,-391.6 L 82.6,-384.7 L 76.0,-377.9 L 69.0,-371.1 L 61.6,-364.4 L 53.9,-357.9 L 45.9,-351.4 L 36.7,-344.5 L 27.9,-338.5 L 19.8,-333.2 L 10.5,-327.6 L -0.0,-321.5 L -8.9,-316.8 L -19.1,-311.8 L -29.5,-306.9 L -41.3,-301.9 L -51.1,-298.0 L -62.3,-293.9 L -73.7,-290.2 L -85.4,-286.8 L -97.3,-283.8 L -109.4,-281.1 L -121.5,-278.8 L -133.8,-276.9 L -146.3,-275.2 L -158.9,-273.7 L -171.6,-272.6 L -184.4,-271.6 L -197.4,-270.9 L -210.5,-270.4 L -223.6,-270.1 L -236.9,-269.8 L -250.3,-269.6 L -265.1,-269.5 L -277.3,-269.4 L -290.9,-269.4 L -304.7,-269.4 L -318.5,-269.4 L -332.4,-269.4 L -346.3,-269.4 L -361.8,-269.3 L -374.4,-269.2 L -388.2,-269.1 L -401.5,-268.9 L -414.2,-268.8 L -426.3,-268.8 L -437.6,-268.7 L -448.3,-268.8 L -458.2,-268.8 L -468.3,-268.8 L -476.0,-268.8 L -483.9,-268.9 L -491.2,-269.0 L -497.9,-269.2 L -504.0,-269.3 L -509.7,-269.6 L -515.0,-269.8 L -520.4,-270.3 L -524.5,-270.8 L -528.8,-271.6 L -532.8,-272.8 L -536.6,-274.2 L -540.1,-276.0 L -543.6,-278.5 L -546.2,-280.8 L -548.6,-283.6 L -550.5,-286.7 L -552.0,-289.9 L -553.0,-293.3 L -553.4,-297.1 L -553.4,-300.1 L -552.9,-303.9 L -552.2,-307.1 L -551.1,-310.8 L -549.7,-314.8 L -548.1,-319.0 L -546.1,-323.4 L -543.8,-327.9 L -540.9,-332.5 L -537.9,-337.0 L -535.2,-341.7 L -532.6,-347.0 L -530.6,-351.6 L -528.5,-357.1 L -526.4,-362.9 L -524.1,-369.1 L -521.4,-375.4 L -518.5,-381.9 L -515.0,-389.2 L -511.8,-395.2 L -507.9,-401.9 L -503.2,-409.5 L -498.9,-415.7 L -493.8,-422.5 L -487.6,-430.1 L -481.6,-436.8 L -475.9,-442.8 L -468.5,-449.9 L -462.1,-455.6 L -453.8,-462.4 L -446.7,-467.8 L -438.5,-473.6 L -429.8,-479.2 L -420.9,-484.7 L -411.6,-489.8 L -401.1,-495.1 L -392.3,-499.1 L -382.3,-503.4 L -372.0,-507.3 L -361.5,-511.1 L -350.8,-514.7 L -339.9,-518.2 L -328.8,-521.7 L -316.6,-525.7 L -305.3,-529.6 L -295.2,-533.3 L -283.9,-537.8 L -272.7,-542.8 L -260.6,-548.8 L -250.9,-554.2 L -239.2,-561.2 L -229.8,-567.4 L -219.6,-574.6 L -209.6,-582.4 L -199.8,-590.6 L -190.3,-599.2 L -180.9,-608.2 L -171.7,-617.4 L -162.6,-626.9 L -153.4,-636.4 L -144.1,-646.0 L -134.8,-655.7 L -125.4,-665.4 L -115.0,-676.1 L -106.6,-684.7 L -97.5,-693.9 L -89.1,-702.4 L -81.3,-710.3 L -74.0,-717.6 L -66.7,-724.9 L -60.5,-730.9 L -55.4,-736.0 L -50.0,-741.3 L -44.4,-746.7 L -39.5,-751.4 L -34.7,-755.8 L -30.6,-759.6 L -25.9,-763.6 L -21.4,-767.3 L -16.8,-770.4 L -11.8,-773.3 L -7.7,-775.3 L -3.1,-776.9 L 1.5,-778.1 L 6.5,-778.7 L 10.4,-778.7 L 14.7,-778.2 L 18.9,-777.3 L 22.9,-775.8 L 26.8,-774.0 L 30.6,-771.8 L 34.3,-769.3 L 38.4,-766.1 L 41.7,-763.3 L 45.5,-759.7 L 49.3,-755.8 L 53.2,-751.6 L 57.0,-747.0 L 61.4,-741.5 L 65.6,-736.4 L 69.7,-731.8 L 74.5,-726.8 L 79.8,-722.0 L 85.6,-717.6 L 91.8,-713.4 L 99.2,-709.2 L 105.6,-705.9 L 113.1,-702.6 L 121.1,-699.6 L 130.2,-696.9 L 138.0,-695.1 L 146.9,-693.6 L 156.0,-692.8 L 165.4,-692.5 L 174.9,-692.9 L 184.6,-693.9 L 195.3,-695.7 L 204.1,-697.7 L 214.9,-700.8 L 224.7,-704.2 L 233.5,-707.6 L 244.3,-712.1 L 253.2,-716.1 L 263.2,-720.6 L 273.4,-725.0 L 283.9,-729.2 L 294.6,-733.0 L 305.7,-736.4 L 316.8,-739.3 L 327.8,-741.6 L 338.4,-743.6 L 349.6,-745.3 L 358.4,-746.3 L 367.7,-747.2 L 376.8,-747.9 L 385.4,-748.3 L 393.7,-748.4 L 401.6,-748.2 L 409.0,-747.5 L 415.9,-746.5 L 423.1,-744.9 L 428.7,-743.3 L 434.5,-741.2 L 440.5,-738.4 L 445.1,-735.7 L 450.0,-732.3 L 454.4,-728.6 L 458.0,-724.9 L 458.7,-724.0 L 461.8,-720.0 L 464.5,-715.3 L 466.8,-710.3 L 468.6,-705.1 L 470.2,-699.7 L 471.6,-693.3 L 472.6,-687.8 L 473.5,-681.3 L 474.1,-673.9 L 474.4,-667.6 L 474.5,-660.3 L 474.4,-651.9 L 474.2,-644.8 L 474.0,-636.7 L 473.7,-628.4 L 473.4,-619.7 L 473.0,-610.9 L 472.6,-601.8 L 472.2,-592.6 L 471.7,-583.2 L 471.3,-573.6 L 470.9,-563.8 L 470.5,-553.8 L 470.0,-543.6 L 469.6,-533.3 L 469.2,-522.7 L 468.9,-510.9 L 468.6,-501.2 L 468.3,-490.3 L 468.0,-479.2 L 467.8,-467.9 L 467.5,-456.5 L 467.2,-445.0 L 466.8,-432.1 L 466.4,-421.5 L 465.9,-409.5 L 465.4,-396.2 L 465.0,-385.2 L 464.7,-372.9 L 464.4,-359.2 L 464.5,-348.0 L 465.0,-335.4 L 466.2,-322.8 L 468.3,-308.9 L 470.8,-297.6 L 474.6,-283.9 L 478.2,-272.8 L 482.6,-260.4 L 487.4,-248.1 L 492.5,-235.9 L 498.0,-223.7 L 504.6,-210.4 L 510.5,-199.8 L 517.6,-188.1 L 525.4,-176.9 L 533.8,-166.0 L 543.7,-154.6 L 552.2,-145.6 L 561.7,-136.2 L 571.0,-127.3 L 580.8,-117.9 L 588.3,-110.6 L 597.0,-102.0 L 603.6,-95.3 L 610.5,-88.1 L 616.8,-81.1 L 622.5,-74.3 L 627.5,-67.6 L 631.9,-61.0 L 635.6,-54.5 L 638.6,-48.1 L 641.1,-41.9 L 643.0,-35.0 L 644.1,-29.5 L 644.8,-23.5 L 644.9,-17.5 L 644.4,-10.9 L 643.5,-5.5 L 641.9,1.2 L 640.2,6.7 L 637.8,12.8 L 635.0,19.0 L 631.4,25.8 L 628.2,31.6 L 624.5,38.1 L 620.7,45.0 L 616.9,52.1 L 613.3,59.6 L 609.8,68.2 L 607.2,75.6 L 604.6,84.9 L 602.7,93.8 L 601.4,102.0 L 600.4,111.3 L 599.5,121.5 L 598.8,129.4 L 597.9,138.6 L 596.8,146.4 L 595.7,153.2 L 594.1,160.4 L 591.9,167.7 L 589.8,173.3 L 586.8,179.6 L 584.0,184.3 L 580.5,189.0 L 576.3,193.6 L 572.1,197.4 L 568.1,200.4 L 563.2,203.4 L 557.9,206.1 L 552.2,208.4 L 546.2,210.3 L 539.9,211.9 L 533.2,213.1 L 525.5,214.1 L 519.0,214.6 L 510.7,214.9 L 503.7,214.9 L 495.7,214.7 L 487.5,214.3 L 479.0,213.8 L 470.2,213.4 L 461.3,213.1 L 452.1,212.9 L 442.9,212.7 L 433.4,212.6 L 422.7,212.4 L 413.8,212.4 L 403.7,212.4 L 393.4,212.4 L 383.0,212.4 L 372.3,212.4 L 360.5,212.5 L 350.8,212.5 L 339.8,212.6 L 327.6,212.6 L 317.4,212.6 L 306.0,212.6 L 293.3,212.5 L 281.5,212.5 L 270.9,212.4 L 258.9,212.4 L 246.7,212.3 L 234.5,212.3 L 222.2,212.2 L 209.8,212.2 L 197.3,212.1 L 183.5,211.9 L 172.1,211.8 L 159.3,211.7 L 146.4,211.6 L 132.2,211.7 L 119.1,211.7 L 107.2,211.8 L 93.9,211.9 L 80.6,212.0 L 67.1,212.1 L 52.2,212.2 L 39.9,212.3 L 24.8,212.3 L 12.4,212.3 L -1.5,212.3 L -16.9,212.3 L -29.5,212.3 L -43.6,212.2 L -57.7,212.2 L -71.8,212.3 L -87.4,212.3 L -100.1,212.3 L -115.7,212.4 L -128.6,212.4 L -144.3,212.5 L -158.7,212.5 L -171.7,212.6 L -186.2,212.6 L -202.2,212.7 L -215.3,212.7 L -221.2,212.7 L -230.0,212.7 L -244.7,212.6 L -259.5,212.6 L -275.7,212.4 L -290.1,212.1 L -302.6,211.8 L -316.0,211.1 L -328.7,210.3 L -342.1,208.9 L -352.6,207.6 L -363.9,206.1 L -374.6,204.4 L -384.8,202.2 L -394.4,199.6 L -403.4,196.6 L -411.9,193.3 L -419.9,189.7 L -427.4,185.8 L -434.5,181.5 L -441.1,177.0 L -447.5,172.2 L -454.1,166.5 L -459.3,161.5 L -464.7,155.6 L -469.7,149.3 L -474.4,142.1 L -477.8,136.0 L -481.0,129.0 L -483.5,122.0 L -485.4,114.7 L -486.7,107.5 L -487.3,100.3 L -487.2,93.0 L -486.6,85.8 L -485.5,78.4 L -483.7,70.9 L -481.0,62.8 L -478.3,56.2 L -474.4,48.4 L -470.2,41.7 L -466.1,35.9 L -460.9,29.8 L -455.3,24.1 L -449.1,18.6 L -442.4,13.5 L -435.1,8.8 L -427.4,4.4 L -419.3,0.5 L -410.8,-3.0 L -401.9,-6.0 L -392.6,-8.5 L -383.1,-10.5 L -373.2,-11.9 L -362.1,-12.8 L -351.8,-13.0 L -342.4,-12.8 L -331.9,-12.3 L -321.2,-11.6 L -310.3,-10.8 L -299.3,-10.0 L -287.0,-9.0 L -276.8,-8.3 L -265.4,-7.4 L -252.6,-6.5 L -242.0,-5.9 L -230.1,-5.2 L -218.1,-4.5 L -205.9,-4.0 L -193.7,-3.5 L -181.4,-3.1 L -169.0,-2.7 L -156.4,-2.3 L -143.7,-1.9 L -131.0,-1.6 L -116.8,-1.2" fill="none" stroke="#ffffff" stroke-opacity="0.92" stroke-width="8.4" stroke-linecap="round" stroke-linejoin="round"/>
<line x1="-107.1" y1="76.2" x2="-107.6" y2="-74.8" stroke="#ffffff" stroke-width="11.7" stroke-linecap="round"/>
</svg>