<svg xmlns="http://www.w3.org/2000/svg" viewBox="-488.6 -174.6 971.1 1037.0">
<defs><linearGradient id="g" gradientUnits="userSpaceOnUse" x1="-488.6" y1="-174.6" x2="482.5" y2="862.4">
<stop offset="0" stop-color="#1c9fe0"/><stop offset="1" stop-color="#0b1f44"/></linearGradient></defs>
<path d="M -332.0,206.4 L -325.2,197.1 L -317.3,186.2 L -310.0,176.2 L -302.9,166.5 L -295.8,156.8 L -288.2,146.4 L -279.4,134.3 L -272.8,125.3 L -265.0,114.5 L -256.7,103.2 L -248.8,92.3 L -241.5,82.2 L -234.2,72.2 L -226.7,61.9 L -220.2,53.2 L -213.8,44.9 L -207.7,37.5 L -202.8,31.7 L -196.9,25.1 L -191.6,19.5 L -185.9,14.1 L -179.6,8.9 L -173.7,4.7 L -166.9,0.6 L -159.7,-2.9 L -153.1,-5.5 L -145.8,-7.8 L -138.5,-9.8 L -131.4,-11.3 L -123.8,-12.5 L -115.3,-13.4 L -108.1,-14.0 L -99.0,-14.4 L -90.9,-14.6 L -81.3,-14.4 L -73.7,-14.0 L -64.5,-13.4 L -54.3,-12.6 L -45.2,-11.8 L -36.1,-11.2 L -28.0,-10.7 L -18.2,-10.5 L -9.4,-10.4 L -1.0,-10.4 L 7.3,-10.5 L 17.0,-10.7 L 25.8,-11.4 L 33.5,-12.4 L 42.5,-14.1 L 50.5,-16.0 L 58.9,-18.5 L 67.2,-21.2 L 76.0,-24.4 L 85.1,-28.1 L 92.1,-31.4 L 100.0,-35.8 L 108.5,-41.1 L 115.8,-46.1 L 123.6,-52.0 L 131.0,-57.9 L 137.6,-63.4 L 145.5,-70.4 L 152.5,-76.6 L 159.9,-83.2 L 167.0,-89.6 L 174.4,-96.2 L 182.0,-103.0 L 187.8,-108.0 L 194.0,-113.2 L 200.3,-118.3 L 205.5,-122.4 L 210.3,-126.1 L 215.5,-130.2 L 220.0,-133.5 L 224.3,-136.8 L 228.9,-140.2 L 233.7,-143.6 L 239.0,-146.7 L 243.1,-148.7 L 248.0,-150.6 L 253.2,-152.1 L 257.9,-153.0 L 262.9,-153.5 L 268.3,-153.3 L 272.8,-152.7 L 277.3,-151.4 L 281.6,-149.7 L 285.6,-147.3 L 289.0,-144.7 L 292.1,-141.8 L 295.1,-138.4 L 297.9,-134.5 L 300.4,-130.2 L 302.3,-125.9 L 304.2,-121.0 L 305.8,-116.2 L 307.6,-110.7 L 309.4,-105.4 L 311.5,-99.0 L 313.4,-93.2 L 315.6,-86.8 L 317.7,-80.4 L 319.8,-74.7 L 322.2,-68.7 L 324.4,-63.8 L 326.8,-59.2 L 329.3,-55.0 L 332.4,-50.6 L 335.4,-46.9 L 338.8,-43.3 L 342.8,-39.6 L 347.2,-35.9 L 352.2,-32.0 L 357.6,-28.1 L 362.6,-24.9 L 368.6,-21.1 L 374.3,-17.8 L 380.3,-14.9 L 386.0,-12.2 L 391.8,-9.4 L 396.2,-7.0 L 400.2,-4.5 L 404.1,-1.8 L 407.7,0.8 L 411.2,3.3 L 414.3,5.3 L 417.8,7.3 L 421.5,9.2 L 425.0,11.0 L 428.3,12.7 L 432.3,14.8 L 435.6,16.6 L 439.6,19.0 L 443.2,21.6 L 446.7,24.6 L 449.8,27.8 L 453.0,31.7 L 455.7,35.6 L 457.7,39.2 L 459.4,43.3 L 460.5,47.0 L 461.2,51.0 L 461.4,55.2 L 461.0,59.7 L 460.2,64.1 L 459.1,68.5 L 457.5,73.7 L 455.8,78.5 L 453.8,83.3 L 451.5,88.7 L 448.7,94.9 L 446.3,100.2 L 443.4,106.4 L 440.3,112.8 L 436.8,120.2 L 433.6,126.8 L 430.1,134.1 L 426.2,142.0 L 422.6,149.4 L 418.7,157.5 L 414.7,165.8 L 410.7,173.9 L 405.8,183.4 L 401.3,191.8 L 396.7,200.3 L 391.8,209.5 L 386.3,219.9 L 381.3,229.5 L 376.6,238.3 L 371.4,248.3 L 365.5,259.5 L 360.6,268.8 L 355.1,279.2 L 349.6,289.8 L 343.6,301.1 L 337.4,313.1 L 332.5,322.5 L 326.3,334.3 L 320.4,345.6 L 314.2,357.7 L 308.7,368.1 L 302.3,380.4 L 296.5,391.7 L 289.7,404.9 L 284.0,415.8 L 277.4,428.6 L 271.1,440.9 L 265.1,452.7 L 258.6,465.2 L 252.2,477.7 L 245.4,491.1 L 239.2,503.2 L 232.3,516.7 L 226.0,529.1 L 219.0,542.8 L 211.7,557.3 L 206.0,568.5 L 198.5,583.2 L 192.4,595.2 L 184.2,611.4 L 178.4,622.9 L 171.7,635.8 L 164.4,649.3 L 156.6,663.5 L 150.4,674.5 L 143.7,686.0 L 137.4,696.8 L 131.0,707.5 L 125.1,717.4 L 119.6,726.5 L 113.7,736.3 L 108.5,744.8 L 103.2,753.6 L 97.6,762.4 L 92.4,769.9 L 86.9,777.5 L 80.9,785.6 L 75.7,792.2 L 70.6,798.5 L 65.0,804.6 L 59.0,810.7 L 53.3,815.7 L 46.5,821.2 L 40.3,825.4 L 33.0,829.7 L 26.5,832.9 L 20.1,835.4 L 12.5,837.7 L 5.1,839.3 L -2.1,840.5 L -9.8,841.1 L -17.5,841.3 L -25.7,840.8 L -33.5,839.8 L -40.8,838.2 L -48.7,835.9 L -56.2,833.0 L -62.9,829.7 L -69.8,825.8 L -76.5,821.2 L -82.7,816.4 L -88.9,810.7 L -95.1,804.2 L -100.7,797.5 L -105.9,790.2 L -111.0,782.0 L -115.4,774.2 L -119.8,765.6 L -124.1,757.2 L -129.0,747.8 L -133.9,738.6 L -138.7,729.8 L -144.1,720.5 L -150.3,710.6 L -156.2,701.7 L -162.7,692.3 L -169.3,682.7 L -176.6,672.6 L -184.2,662.5 L -192.0,652.4 L -198.9,643.8 L -206.4,634.6 L -214.3,624.9 L -222.4,614.9 L -228.6,607.2 L -235.6,598.5 L -241.5,591.3 L -246.7,584.8 L -251.5,578.9 L -256.6,572.6 L -260.9,567.3 L -265.3,561.8 L -269.9,556.2 L -273.7,551.5 L -277.3,547.2 L -281.0,543.2 L -284.5,539.6 L -288.7,535.8 L -291.9,533.2 L -295.8,530.4 L -299.9,527.7 L -304.0,525.5 L -307.9,523.7 L -311.9,522.2 L -316.2,521.3 L -320.4,521.0 L -324.3,521.2 L -328.5,521.9 L -332.9,523.1 L -336.7,524.7 L -340.8,526.8 L -344.9,529.3 L -349.8,532.2 L -354.0,534.6 L -358.0,536.9 L -362.2,539.1 L -366.1,540.8 L -369.7,541.8 L -373.5,542.5 L -377.2,542.9 L -381.1,543.3 L -385.2,543.2 L -388.9,542.6 L -392.8,541.6 L -396.7,540.1 L -401.1,538.0 L -405.0,535.9 L -409.0,533.4 L -413.3,530.4 L -418.0,526.9 L -422.2,523.3 L -426.6,519.2 L -431.3,514.4 L -435.8,509.4 L -440.1,504.0 L -444.0,498.5 L -447.3,493.4 L -450.4,487.9 L -452.9,483.1 L -455.4,477.7 L -457.4,472.8 L -459.3,467.6 L -461.1,461.8 L -462.8,455.6 L -464.5,448.7 L -465.9,442.0 L -466.9,435.2 L -467.3,429.1 L -467.4,423.1 L -467.0,416.9 L -466.0,410.5 L -464.6,404.2 L -462.8,398.2 L -460.5,391.7 L -457.8,385.2 L -454.4,378.3 L -451.0,371.9 L -446.9,365.1 L -442.4,358.3 L -437.4,351.4 L -432.2,344.4 L -426.6,336.7 L -421.3,329.6 L -415.6,321.9 L -409.2,313.2 L -403.3,305.0 L -397.6,297.1 L -391.7,289.0 L -385.5,280.3 L -378.8,271.0 L -372.2,262.0 L -365.6,252.8 L -359.2,244.0 L -352.0,234.0 L -345.0,224.4 Z" fill="none" stroke="url(#g)" stroke-width="84.6" stroke-linejoin="round" stroke-linecap="round"/>
<path d="M -332.0,206.4 L -325.2,197.1 L -317.3,186.2 L -310.0,176.2 L -302.9,166.5 L -295.8,156.8 L -288.2,146.4 L -279.4,134.3 L -272.8,125.3 L -265.0,114.5 L -256.7,103.2 L -248.8,92.3 L -241.5,82.2 L -234.2,72.2 L -226.7,61.9 L -220.2,53.2 L -213.8,44.9 L -207.7,37.5 L -202.8,31.7 L -196.9,25.1 L -191.6,19.5 L -185.9,14.1 L -179.6,8.9 L -173.7,4.7 L -166.9,0.6 L -159.7,-2.9 L -153.1,-5.5 L -145.8,-7.8 L -138.5,-9.8 L -131.4,-11.3 L -123.8,-12.5 L -115.3,-13.4 L -108.1,-14.0 L -99.0,-14.4 L -90.9,-14.6 L -81.3,-14.4 L -73.7,-14.0 L -64.5,-13.4 L -54.3,-12.6 L -45.2,-11.8 L -36.1,-11.2 L -28.0,-10.7 L -18.2,-10.5 L -9.4,-10.4 L -1.0,-10.4 L 7.3,-10.5 L 17.0,-10.7 L 25.8,-11.4 L 33.5,-12.4 L 42.5,-14.1 L 50.5,-16.0 L 58.9,-18.5 L 67.2,-21.2 L 76.0,-24.4 L 85.1,-28.1 L 92.1,-31.4 L 100.0,-35.8 L 108.5,-41.1 L 115.8,-46.1 L 123.6,-52.0 L 131.0,-57.9 L 137.6,-63.4 L 145.5,-70.4 L 152.5,-76.6 L 159.9,-83.2 L 167.0,-89.6 L 174.4,-96.2 L 182.0,-103.0 L 187.8,-108.0 L 194.0,-113.2 L 200.3,-118.3 L 205.5,-122.4 L 210.3,-126.1 L 215.5,-130.2 L 220.0,-133.5 L 224.3,-136.8 L 228.9,-140.2 L 233.7,-143.6 L 239.0,-146.7 L 243.1,-148.7 L 248.0,-150.6 L 253.2,-152.1 L 257.9,-153.0 L 262.9,-153.5 L 268.3,-153.3 L 272.8,-152.7 L 277.3,-151.4 L 281.6,-149.7 L 285.6,-147.3 L 289.0,-144.7 L 292.1,-141.8 L 295.1,-138.4 L 297.9,-134.5 L 300.4,-130.2 L 302.3,-125.9 L 304.2,-121.0 L 305.8,-116.2 L 307.6,-110.7 L 309.4,-105.4 L 311.5,-99.0 L 313.4,-93.2 L 315.6,-86.8 L 317.7,-80.4 L 319.8,-74.7 L 322.2,-68.7 L 324.4,-63.8 L 326.8,-59.2 L 329.3,-55.0 L 332.4,-50.6 L 335.4,-46.9 L 338.8,-43.3 L 342.8,-39.6 L 347.2,-35.9 L 352.2,-32.0 L 357.6,-28.1 L 362.6,-24.9 L 368.6,-21.1 L 374.3,-17.8 L 380.3,-14.9 L 386.0,-12.2 L 391.8,-9.4 L 396.2,-7.0 L 400.2,-4.5 L 404.1,-1.8 L 407.7,0.8 L 411.2,3.3 L 414.3,5.3 L 417.8,7.3 L 421.5,9.2 L 425.0,11.0 L 428.3,12.7 L 432.3,14.8 L 435.6,16.6 L 439.6,19.0 L 443.2,21.6 L 446.7,24.6 L 449.8,27.8 L 453.0,31.7 L 455.7,35.6 L 457.7,39.2 L 459.4,43.3 L 460.5,47.0 L 461.2,51.0 L 461.4,55.2 L 461.0,59.7 L 460.2,64.1 L 459.1,68.5 L 457.5,73.7 L 455.8,78.5 L 453.8,83.3 L 451.5,88.7 L 448.7,94.9 L 446.3,100.2 L 443.4,106.4 L 440.3,112.8 L 436.8,120.2 L 433.6,126.8 L 430.1,134.1 L 426.2,142.0 L 422.6,149.4 L 418.7,157.5 L 414.7,165.8 L 410.7,173.9 L 405.8,183.4 L 401.3,191.8 L 396.7,200.3 L 391.8,209.5 L 386.3,219.9 L 381.3,229.5 L 376.6,238.3 L 371.4,248.3 L 365.5,259.5 L 360.6,268.8 L 355.1,279.2 L 349.6,289.8 L 343.6,301.1 L 337.4,313.1 L 332.5,322.5 L 326.3,334.3 L 320.4,345.6 L 314.2,357.7 L 308.7,368.1 L 302.3,380.4 L 296.5,391.7 L 289.7,404.9 L 284.0,415.8 L 277.4,428.6 L 271.1,440.9 L 265.1,452.7 L 258.6,465.2 L 252.2,477.7 L 245.4,491.1 L 239.2,503.2 L 232.3,516.7 L 226.0,529.1 L 219.0,542.8 L 211.7,557.3 L 206.0,568.5 L 198.5,583.2 L 192.4,595.2 L 184.2,611.4 L 178.4,622.9 L 171.7,635.8 L 164.4,649.3 L 156.6,663.5 L 150.4,674.5 L 143.7,686.0 L 137.4,696.8 L 131.0,707.5 L 125.1,717.4 L 119.6,726.5 L 113.7,736.3 L 108.5,744.8 L 103.2,753.6 L 97.6,762.4 L 92.4,769.9 L 86.9,777.5 L 80.9,785.6 L 75.7,792.2 L 70.6,798.5 L 65.0,804.6 L 59.0,810.7 L 53.3,815.7 L 46.5,821.2 L 40.3,825.4 L 33.0,829.7 L 26.5,832.9 L 20.1,835.4 L 12.5,837.7 L 5.1,839.3 L -2.1,840.5 L -9.8,841.1 L -17.5,841.3 L -25.7,840.8 L -33.5,839.8 L -40.8,838.2 L -48.7,835.9 L -56.2,833.0 L -62.9,829.7 L -69.8,825.8 L -76.5,821.2 L -82.7,816.4 L -88.9,810.7 L -95.1,804.2 L -100.7,797.5 L -105.9,790.2 L -111.0,782.0 L -115.4,774.2 L -119.8,765.6 L -124.1,757.2 L -129.0,747.8 L -133.9,738.6 L -138.7,729.8 L -144.1,720.5 L -150.3,710.6 L -156.2,701.7 L -162.7,692.3 L -169.3,682.7 L -176.6,672.6 L -184.2,662.5 L -192.0,652.4 L -198.9,643.8 L -206.4,634.6 L -214.3,624.9 L -222.4,614.9 L -228.6,607.2 L -235.6,598.5 L -241.5,591.3 L -246.7,584.8 L -251.5,578.9 L -256.6,572.6 L -260.9,567.3 L -265.3,561.8 L -269.9,556.2 L -273.7,551.5 L -277.3,547.2 L -281.0,543.2 L -284.5,539.6 L -288.7,535.8 L -291.9,533.2 L -295.8,530.4 L -299.9,527.7 L -304.0,525.5 L -307.9,523.7 L -311.9,522.2 L -316.2,521.3 L -320.4,521.0 L -324.3,521.2 L -328.5,521.9 L -332.9,523.1 L -336.7,524.7 L -340.8,526.8 L -344.9,529.3 L -349.8,532.2 L -354.0,534.6 L -358.0,536.9 L -362.2,539.1 L -366.1,540.8 L -369.7,541.8 L -373.5,542.5 L -377.2,542.9 L -381.1,543.3 L -385.2,543.2 L -388.9,542.6 L -392.8,541.6 L -396.7,540.1 L -401.1,538.0 L -405.0,535.9 L -409.0,533.4 L -413.3,530.4 L -418.0,526.9 L -422.2,523.3 L -426.6,519.2 L -431.3,514.4 L -435.8,509.4 L -440.1,504.0 L -444.0,498.5 L -447.3,493.4 L -450.4,487.9 L -452.9,483.1 L -455.4,477.7 L -457.4,472.8 L -459.3,467.6 L -461.1,461.8 L -462.8,455.6 L -464.5,448.7 L -465.9,442.0 L -466.9,435.2 L -467.3,429.1 L -467.4,423.1 L -467.0,416.9 L -466.0,410.5 L -464.6,404.2 L -462.8,398.2 L -460.5,391.7 L -457.8,385.2 L -454.4,378.3 L -451.0,371.9 L -446.9,365.1 L -442.4,358.3 L -437.4,351.4 L -432.2,344.4 L -426.6,336.7 L -421.3,329.6 L -415.6,321.9 L -409.2,313.2 L -403.3,305.0 L -397.6,297.1 L -391.7,289.0 L -385.5,280.3 L -378.8,271.0 L -372.2,262.0 L -365.6,252.8 L -359.2,244.0 L -352.0,234.0 L -345.0,224.4 Z" fill="none" stroke="#ffffff" stroke-width="8.5" stroke-linejoin="round" stroke-linecap="round"/>
</svg>