<svg xmlns="http://www.w3.org/2000/svg" viewBox="-945.2 -740.6 1896.6 1196.4">
<defs><linearGradient id="g" gradientUnits="userSpaceOnUse" x1="-855.1" y1="-650.5" x2="861.2" y2="365.8">
<stop offset="0" stop-color="#1c9fe0"/><stop offset="1" stop-color="#0b1f44"/></linearGradient></defs>
<path d="M 833.7,-184.7 L 836.1,-162.6 L 837.5,-148.9 L 838.7,-137.6 L 839.9,-125.0 L 841.1,-112.4 L 842.2,-99.6 L 843.4,-86.8 L 844.6,-74.0 L 846.0,-59.7 L 847.1,-48.0 L 848.5,-34.9 L 849.8,-21.8 L 851.1,-8.9 L 852.3,3.8 L 853.5,15.9 L 854.7,28.8 L 855.7,38.9 L 856.7,49.7 L 857.6,60.2 L 858.4,70.2 L 859.3,80.8 L 859.9,90.1 L 860.5,98.2 L 860.9,106.8 L 861.2,115.1 L 861.2,123.2 L 861.0,131.0 L 860.5,139.5 L 859.6,146.3 L 858.2,153.7 L 856.3,161.0 L 853.9,168.0 L 850.9,174.9 L 847.5,181.6 L 843.6,188.0 L 839.3,194.2 L 834.0,200.6 L 829.4,205.7 L 824.0,211.1 L 818.3,216.3 L 812.1,221.2 L 805.6,226.1 L 798.9,230.9 L 791.8,235.5 L 784.4,239.9 L 776.6,244.2 L 768.6,248.1 L 759.3,252.2 L 751.6,255.2 L 742.7,258.3 L 732.7,261.5 L 724.3,263.8 L 714.8,266.3 L 705.1,268.5 L 695.2,270.6 L 685.2,272.5 L 675.0,274.4 L 664.7,276.2 L 654.2,278.0 L 643.6,279.7 L 631.8,281.4 L 622.0,282.8 L 611.1,284.3 L 600.1,285.7 L 588.9,286.9 L 577.6,288.0 L 566.3,288.9 L 553.6,289.8 L 543.2,290.4 L 531.5,290.9 L 518.5,291.4 L 507.9,291.8 L 495.9,292.1 L 483.9,292.5 L 472.0,292.9 L 460.4,293.4 L 449.4,293.8 L 438.7,294.4 L 428.4,295.0 L 418.5,295.9 L 408.0,297.0 L 399.6,298.1 L 390.5,299.6 L 381.6,301.5 L 372.8,303.7 L 364.1,306.4 L 355.4,309.4 L 346.6,312.7 L 338.1,316.1 L 329.8,319.6 L 321.8,323.1 L 314.1,326.4 L 306.0,329.9 L 299.4,332.6 L 292.4,335.4 L 284.8,338.2 L 278.7,340.3 L 271.9,342.2 L 265.2,343.8 L 257.9,345.1 L 251.1,345.9 L 244.8,346.2 L 237.7,346.1 L 230.4,345.7 L 223.0,344.8 L 215.4,343.6 L 207.7,342.0 L 199.8,340.1 L 191.8,337.9 L 183.8,335.5 L 175.6,332.9 L 167.3,330.3 L 158.8,327.8 L 150.1,325.4 L 141.3,323.4 L 132.4,321.8 L 123.8,320.6 L 115.4,319.9 L 107.2,319.7 L 98.5,320.0 L 91.7,320.7 L 84.5,322.0 L 77.6,323.8 L 71.0,326.0 L 64.0,329.0 L 58.4,331.8 L 52.3,335.2 L 46.2,339.0 L 40.0,342.8 L 33.4,346.9 L 28.1,350.0 L 22.4,353.3 L 16.6,356.2 L 10.9,358.8 L 4.5,361.3 L -0.8,363.0 L -6.7,364.4 L -12.7,365.3 L -18.6,365.8 L -24.5,365.7 L -30.9,365.0 L -36.2,364.1 L -42.0,362.6 L -47.7,360.7 L -53.3,358.4 L -58.6,355.6 L -63.6,352.4 L -69.0,348.4 L -73.4,344.6 L -78.2,340.0 L -83.4,334.4 L -87.6,329.5 L -92.2,323.8 L -96.8,317.8 L -101.9,311.0 L -106.1,305.2 L -111.4,298.0 L -115.9,291.9 L -121.1,285.1 L -126.5,278.3 L -132.8,270.8 L -138.2,264.8 L -145.3,257.6 L -151.4,251.9 L -158.5,245.7 L -166.0,239.6 L -173.7,233.8 L -182.6,227.4 L -190.0,222.3 L -198.4,216.6 L -207.0,210.9 L -215.8,205.3 L -225.7,199.3 L -233.9,194.5 L -243.3,189.2 L -252.9,184.1 L -262.6,179.2 L -273.5,173.8 L -282.6,169.4 L -292.7,164.6 L -303.0,159.7 L -313.3,154.8 L -323.7,149.7 L -334.2,144.6 L -345.8,138.9 L -355.4,134.2 L -366.1,128.9 L -377.9,123.1 L -387.7,118.3 L -398.7,112.9 L -409.7,107.5 L -420.8,102.0 L -432.0,96.6 L -443.2,91.0 L -454.5,85.5 L -467.0,79.4 L -477.2,74.3 L -488.7,68.7 L -500.2,63.1 L -511.7,57.4 L -524.5,51.2 L -535.0,46.0 L -546.7,40.2 L -558.4,34.3 L -570.1,28.4 L -581.9,22.4 L -593.7,16.4 L -605.6,10.3 L -617.4,4.1 L -630.5,-2.7 L -641.3,-8.4 L -653.2,-14.8 L -666.3,-21.8 L -676.8,-27.5 L -688.0,-33.6 L -698.9,-39.6 L -709.4,-45.4 L -720.5,-51.6 L -729.3,-56.5 L -738.7,-62.0 L -747.7,-67.3 L -757.2,-73.1 L -764.6,-77.8 L -772.5,-83.0 L -780.1,-88.1 L -787.3,-93.2 L -794.9,-98.7 L -800.9,-103.3 L -807.9,-108.8 L -813.4,-113.2 L -819.3,-118.2 L -824.8,-123.3 L -829.9,-128.5 L -834.6,-133.9 L -838.9,-139.5 L -842.7,-145.4 L -845.9,-151.4 L -848.8,-158.3 L -850.8,-164.1 L -852.7,-171.4 L -853.9,-177.6 L -854.7,-184.7 L -855.1,-192.5 L -855.0,-199.0 L -854.3,-206.0 L -853.0,-213.6 L -851.5,-219.7 L -849.2,-227.1 L -846.9,-233.0 L -843.9,-239.5 L -840.1,-246.5 L -836.6,-252.1 L -832.3,-258.2 L -827.6,-264.1 L -822.5,-269.8 L -817.0,-275.2 L -811.1,-280.5 L -804.8,-285.5 L -798.1,-290.4 L -791.0,-295.1 L -783.7,-299.7 L -775.2,-304.5 L -768.1,-308.4 L -760.0,-312.7 L -751.8,-317.0 L -743.5,-321.5 L -735.1,-326.1 L -725.8,-331.5 L -718.2,-336.2 L -709.7,-341.6 L -701.2,-347.2 L -692.7,-353.1 L -684.2,-359.3 L -675.7,-365.6 L -667.2,-372.2 L -658.7,-378.8 L -650.2,-385.6 L -641.6,-392.5 L -633.1,-399.6 L -624.7,-406.6 L -615.9,-414.1 L -608.8,-420.2 L -601.3,-426.8 L -593.3,-433.9 L -587.1,-439.5 L -580.6,-445.4 L -574.4,-451.0 L -568.7,-456.3 L -563.5,-461.2 L -558.7,-465.8 L -554.3,-470.2 L -550.3,-474.4 L -546.7,-478.4 L -543.5,-482.2 L -540.8,-486.0 L -538.5,-489.6 L -536.7,-493.2 L -535.3,-496.7 L -534.3,-500.6 L -533.9,-503.7 L -533.8,-507.2 L -534.1,-511.1 L -534.7,-514.2 L -535.7,-517.9 L -537.0,-521.8 L -538.7,-525.7 L -540.8,-529.8 L -543.3,-534.0 L -545.9,-538.2 L -548.8,-542.5 L -551.1,-545.9 L -553.7,-550.1 L -555.4,-553.6 L -556.9,-557.6 L -557.8,-561.6 L -558.2,-565.7 L -558.0,-569.7 L -557.3,-573.8 L -556.2,-577.9 L -554.5,-582.6 L -552.7,-586.5 L -550.4,-591.0 L -547.7,-595.6 L -544.6,-600.2 L -541.1,-604.8 L -536.7,-609.8 L -532.8,-613.9 L -528.0,-618.3 L -522.8,-622.6 L -517.1,-626.8 L -511.1,-630.8 L -504.8,-634.5 L -498.2,-637.9 L -491.3,-641.0 L -483.4,-643.9 L -476.7,-646.0 L -469.1,-647.9 L -460.7,-649.4 L -453.0,-650.2 L -446.1,-650.5 L -437.8,-650.2 L -431.0,-649.5 L -423.3,-648.2 L -415.6,-646.4 L -407.7,-644.1 L -399.1,-641.0 L -391.2,-637.6 L -384.1,-634.3 L -376.3,-630.1 L -368.4,-625.5 L -360.7,-620.5 L -352.9,-615.2 L -345.2,-609.6 L -337.6,-603.8 L -329.8,-597.8 L -321.2,-591.2 L -314.0,-585.7 L -305.8,-579.5 L -297.6,-573.3 L -289.2,-567.0 L -280.7,-560.7 L -271.2,-553.7 L -263.4,-547.9 L -254.6,-541.4 L -245.7,-534.8 L -236.7,-528.1 L -227.7,-521.4 L -217.7,-513.9 L -209.4,-507.8 L -200.1,-501.0 L -190.7,-494.1 L -181.3,-487.2 L -171.8,-480.2 L -162.3,-473.1 L -152.7,-466.0 L -143.0,-458.8 L -133.2,-451.6 L -123.5,-444.4 L -114.0,-437.4 L -104.8,-430.7 L -95.9,-424.2 L -87.4,-418.0 L -79.2,-411.9 L -71.3,-406.1 L -63.7,-400.4 L -56.5,-394.8 L -49.6,-389.2 L -43.0,-383.6 L -36.8,-378.0 L -30.9,-372.3 L -25.4,-366.5 L -19.9,-359.9 L -15.8,-354.3 L -11.8,-347.9 L -8.3,-341.2 L -5.4,-334.4 L -2.9,-327.3 L -0.9,-319.8 L 0.7,-312.1 L 2.0,-304.1 L 2.8,-295.8 L 3.3,-286.5 L 3.5,-278.8 L 3.4,-270.0 L 3.0,-261.1 L 2.3,-252.1 L 1.5,-242.0 L 0.7,-232.7 L -0.1,-224.2 L -1.0,-214.6 L -1.8,-203.9 L -2.3,-195.2 L -2.5,-185.6 L -2.5,-175.4 L -2.2,-167.2 L -1.6,-158.1 L -0.5,-148.2 L 0.7,-140.2 L 2.5,-131.4 L 4.7,-122.5 L 7.3,-113.6 L 10.4,-104.8 L 14.0,-96.1 L 17.9,-87.3 L 22.2,-78.5 L 26.8,-69.8 L 32.2,-60.2 L 37.1,-52.5 L 43.4,-43.2 L 49.0,-35.7 L 56.2,-26.8 L 62.5,-19.6 L 69.8,-11.9 L 77.3,-4.3 L 85.5,3.7 L 91.9,10.0 L 99.2,17.2 L 104.7,22.8 L 110.5,28.8 L 116.2,35.0 L 120.5,39.9 L 124.9,45.1 L 128.7,50.1 L 132.1,55.0 L 135.3,60.3 L 137.6,65.0 L 139.4,69.3 L 140.8,73.9 L 141.8,78.6 L 142.1,83.2 L 141.9,87.8 L 141.1,92.3 L 139.4,96.9 L 137.5,100.4 L 134.9,103.9 L 131.9,107.0 L 128.4,109.9 L 124.5,112.7 L 120.2,115.3 L 115.0,118.0 L 110.5,119.9 L 105.1,121.8 L 99.4,123.4 L 93.4,124.8 L 86.5,126.2 L 80.7,127.3 L 74.6,128.4 L 68.7,129.5 L 63.2,130.7 L 57.6,132.1 L 53.4,133.4 L 49.2,135.1 L 45.3,137.0 L 41.8,139.0 L 38.6,141.3 L 35.6,144.2 L 33.3,146.8 L 31.3,149.9 L 29.6,153.1 L 28.3,156.5 L 27.5,160.0 L 27.1,163.9 L 27.2,167.1 L 27.8,170.8 L 28.8,174.5 L 30.2,178.3 L 32.2,182.0 L 34.7,185.6 L 37.7,189.1 L 41.1,192.3 L 45.4,195.6 L 49.8,198.4 L 54.1,200.9 L 59.2,203.6 L 65.3,206.4 L 70.6,208.6 L 76.7,210.7 L 83.1,212.6 L 89.8,214.4 L 96.9,215.9 L 104.9,217.5 L 111.7,218.5 L 119.5,219.6 L 128.3,220.5 L 135.7,221.1 L 143.8,221.4 L 151.7,221.5 L 159.4,221.3 L 166.7,220.8 L 173.7,220.0 L 180.4,218.9 L 186.9,217.4 L 193.1,215.4 L 199.0,212.9 L 204.6,210.0 L 210.2,206.5 L 215.7,202.6 L 221.9,198.1 L 227.1,194.1 L 233.0,189.5 L 239.7,184.1 L 245.1,179.6 L 251.2,174.3 L 257.3,168.7 L 263.4,163.0 L 269.6,157.0 L 276.4,150.1 L 282.0,144.2 L 288.2,137.5 L 295.0,129.8 L 300.5,123.3 L 306.7,116.0 L 312.9,108.5 L 319.2,100.9 L 325.5,93.1 L 331.9,85.3 L 338.5,77.3 L 345.1,69.3 L 351.8,61.1 L 358.5,52.9 L 366.1,43.7 L 372.4,36.2 L 380.2,26.8 L 387.4,18.3 L 394.0,10.5 L 402.0,1.0 L 408.7,-6.9 L 416.3,-15.6 L 423.9,-24.4 L 431.8,-33.0 L 439.9,-41.7 L 448.9,-51.2 L 456.3,-59.0 L 464.7,-67.8 L 473.1,-76.6 L 481.5,-85.5 L 490.0,-94.5 L 498.4,-103.6 L 507.8,-113.7 L 516.2,-123.0 L 523.9,-131.5 L 532.3,-141.0 L 540.8,-150.7 L 550.0,-161.1 L 557.2,-169.4 L 564.9,-178.1 L 572.8,-187.1 L 578.8,-194.1 L 585.1,-201.3 L 591.0,-208.1 L 596.4,-214.4 L 601.5,-220.4 L 606.4,-226.1 L 610.9,-231.4 L 615.1,-236.5 L 619.4,-241.8 L 623.0,-246.3 L 626.1,-250.3 L 629.3,-254.7 L 632.4,-259.0 L 635.3,-263.4 L 638.0,-267.9 L 640.4,-272.5 L 642.6,-277.2 L 644.6,-282.2 L 646.5,-288.0 L 647.9,-293.5 L 648.8,-298.5 L 649.4,-304.0 L 649.7,-309.5 L 649.7,-315.0 L 649.4,-320.2 L 648.8,-325.8 L 648.1,-330.2 L 647.1,-335.0 L 645.7,-339.6 L 643.9,-344.0 L 641.8,-348.2 L 639.3,-352.1 L 636.4,-355.8 L 633.3,-359.1 L 629.7,-362.1 L 625.8,-365.0 L 621.4,-367.7 L 616.6,-370.3 L 611.4,-372.5 L 605.8,-374.5 L 599.9,-376.2 L 593.6,-377.8 L 586.5,-379.3 L 579.8,-380.5 L 573.6,-381.6 L 566.7,-382.8 L 560.0,-384.0 L 553.5,-385.3 L 546.9,-386.8 L 541.2,-388.6 L 535.8,-390.6 L 531.3,-392.7 L 526.6,-395.5 L 521.9,-398.9 L 518.4,-402.1 L 514.9,-405.9 L 511.9,-410.1 L 509.3,-414.4 L 507.3,-419.0 L 505.8,-423.7 L 504.8,-428.5 L 504.3,-433.3 L 504.3,-438.0 L 504.8,-442.7 L 505.8,-447.3 L 507.4,-452.5 L 509.1,-456.8 L 511.4,-461.5 L 514.2,-466.3 L 517.4,-470.7 L 521.0,-474.7 L 525.0,-478.3 L 529.3,-481.3 L 533.9,-483.8 L 538.7,-485.7 L 543.8,-487.1 L 549.2,-488.1 L 554.9,-488.6 L 560.8,-488.7 L 567.5,-488.2 L 573.2,-487.4 L 579.6,-486.0 L 586.9,-484.0 L 592.9,-481.9 L 599.6,-479.3 L 607.1,-476.0 L 613.4,-473.0 L 620.4,-469.5 L 627.5,-465.8 L 634.9,-462.0 L 643.2,-457.7 L 650.9,-453.8 L 658.0,-450.1 L 665.9,-445.9 L 674.8,-441.1 L 682.0,-436.9 L 690.1,-432.0 L 698.9,-426.2 L 706.1,-421.2 L 714.8,-414.8 L 721.9,-409.2 L 729.6,-402.6 L 737.1,-395.7 L 744.5,-388.4 L 751.8,-380.8 L 758.9,-372.9 L 765.8,-364.7 L 772.5,-356.1 L 778.9,-347.2 L 784.9,-338.0 L 790.7,-328.5 L 796.6,-317.7 L 801.1,-308.6 L 805.8,-298.2 L 810.2,-287.5 L 814.2,-276.7 L 817.8,-265.6 L 821.0,-254.3 L 824.0,-242.8 L 826.6,-231.1 L 828.9,-219.3 L 830.8,-207.4 L 832.6,-194.1" fill="none" stroke="url(#g)" stroke-width="120.1" stroke-linecap="round" stroke-linejoin="round"/>
<path d="M 833.7,-184.7 L 836.1,-162.6 L 837.5,-148.9 L 838.7,-137.6 L 839.9,-125.0 L 841.1,-112.4 L 842.2,-99.6 L 843.4,-86.8 L 844.6,-74.0 L 846.0,-59.7 L 847.1,-48.0 L 848.5,-34.9 L 849.8,-21.8 L 851.1,-8.9 L 852.3,3.8 L 853.5,15.9 L 854.7,28.8 L 855.7,38.9 L 856.7,49.7 L 857.6,60.2 L 858.4,70.2 L 859.3,80.8 L 859.9,90.1 L 860.5,98.2 L 860.9,106.8 L 861.2,115.1 L 861.2,123.2 L 861.0,131.0 L 860.5,139.5 L 859.6,146.3 L 858.2,153.7 L 856.3,161.0 L 853.9,168.0 L 850.9,174.9 L 847.5,181.6 L 843.6,188.0 L 839.3,194.2 L 834.0,200.6 L 829.4,205.7 L 824.0,211.1 L 818.3,216.3 L 812.1,221.2 L 805.6,226.1 L 798.9,230.9 L 791.8,235.5 L 784.4,239.9 L 776.6,244.2 L 768.6,248.1 L 759.3,252.2 L 751.6,255.2 L 742.7,258.3 L 732.7,261.5 L 724.3,263.8 L 714.8,266.3 L 705.1,268.5 L 695.2,270.6 L 685.2,272.5 L 675.0,274.4 L 664.7,276.2 L 654.2,278.0 L 643.6,279.7 L 631.8,281.4 L 622.0,282.8 L 611.1,284.3 L 600.1,285.7 L 588.9,286.9 L 577.6,288.0 L 566.3,288.9 L 553.6,289.8 L 543.2,290.4 L 531.5,290.9 L 518.5,291.4 L 507.9,291.8 L 495.9,292.1 L 483.9,292.5 L 472.0,292.9 L 460.4,293.4 L 449.4,293.8 L 438.7,294.4 L 428.4,295.0 L 418.5,295.9 L 408.0,297.0 L 399.6,298.1 L 390.5,299.6 L 381.6,301.5 L 372.8,303.7 L 364.1,306.4 L 355.4,309.4 L 346.6,312.7 L 338.1,316.1 L 329.8,319.6 L 321.8,323.1 L 314.1,326.4 L 306.0,329.9 L 299.4,332.6 L 292.4,335.4 L 284.8,338.2 L 278.7,340.3 L 271.9,342.2 L 265.2,343.8 L 257.9,345.1 L 251.1,345.9 L 244.8,346.2 L 237.7,346.1 L 230.4,345.7 L 223.0,344.8 L 215.4,343.6 L 207.7,342.0 L 199.8,340.1 L 191.8,337.9 L 183.8,335.5 L 175.6,332.9 L 167.3,330.3 L 158.8,327.8 L 150.1,325.4 L 141.3,323.4 L 132.4,321.8 L 123.8,320.6 L 115.4,319.9 L 107.2,319.7 L 98.5,320.0 L 91.7,320.7 L 84.5,322.0 L 77.6,323.8 L 71.0,326.0 L 64.0,329.0 L 58.4,331.8 L 52.3,335.2 L 46.2,339.0 L 40.0,342.8 L 33.4,346.9 L 28.1,350.0 L 22.4,353.3 L 16.6,356.2 L 10.9,358.8 L 4.5,361.3 L -0.8,363.0 L -6.7,364.4 L -12.7,365.3 L -18.6,365.8 L -24.5,365.7 L -30.9,365.0 L -36.2,364.1 L -42.0,362.6 L -47.7,360.7 L -53.3,358.4 L -58.6,355.6 L -63.6,352.4 L -69.0,348.4 L -73.4,344.6 L -78.2,340.0 L -83.4,334.4 L -87.6,329.5 L -92.2,323.8 L -96.8,317.8 L -101.9,311.0 L -106.1,305.2 L -111.4,298.0 L -115.9,291.9 L -121.1,285.1 L -126.5,278.3 L -132.8,270.8 L -138.2,264.8 L -145.3,257.6 L -151.4,251.9 L -158.5,245.7 L -166.0,239.6 L -173.7,233.8 L -182.6,227.4 L -190.0,222.3 L -198.4,216.6 L -207.0,210.9 L -215.8,205.3 L -225.7,199.3 L -233.9,194.5 L -243.3,189.2 L -252.9,184.1 L -262.6,179.2 L -273.5,173.8 L -282.6,169.4 L -292.7,164.6 L -303.0,159.7 L -313.3,154.8 L -323.7,149.7 L -334.2,144.6 L -345.8,138.9 L -355.4,134.2 L -366.1,128.9 L -377.9,123.1 L -387.7,118.3 L -398.7,112.9 L -409.7,107.5 L -420.8,102.0 L -432.0,96.6 L -443.2,91.0 L -454.5,85.5 L -467.0,79.4 L -477.2,74.3 L -488.7,68.7 L -500.2,63.1 L -511.7,57.4 L -524.5,51.2 L -535.0,46.0 L -546.7,40.2 L -558.4,34.3 L -570.1,28.4 L -581.9,22.4 L -593.7,16.4 L -605.6,10.3 L -617.4,4.1 L -630.5,-2.7 L -641.3,-8.4 L -653.2,-14.8 L -666.3,-21.8 L -676.8,-27.5 L -688.0,-33.6 L -698.9,-39.6 L -709.4,-45.4 L -720.5,-51.6 L -729.3,-56.5 L -738.7,-62.0 L -747.7,-67.3 L -757.2,-73.1 L -764.6,-77.8 L -772.5,-83.0 L -780.1,-88.1 L -787.3,-93.2 L -794.9,-98.7 L -800.9,-103.3 L -807.9,-108.8 L -813.4,-113.2 L -819.3,-118.2 L -824.8,-123.3 L -829.9,-128.5 L -834.6,-133.9 L -838.9,-139.5 L -842.7,-145.4 L -845.9,-151.4 L -848.8,-158.3 L -850.8,-164.1 L -852.7,-171.4 L -853.9,-177.6 L -854.7,-184.7 L -855.1,-192.5 L -855.0,-199.0 L -854.3,-206.0 L -853.0,-213.6 L -851.5,-219.7 L -849.2,-227.1 L -846.9,-233.0 L -843.9,-239.5 L -840.1,-246.5 L -836.6,-252.1 L -832.3,-258.2 L -827.6,-264.1 L -822.5,-269.8 L -817.0,-275.2 L -811.1,-280.5 L -804.8,-285.5 L -798.1,-290.4 L -791.0,-295.1 L -783.7,-299.7 L -775.2,-304.5 L -768.1,-308.4 L -760.0,-312.7 L -751.8,-317.0 L -743.5,-321.5 L -735.1,-326.1 L -725.8,-331.5 L -718.2,-336.2 L -709.7,-341.6 L -701.2,-347.2 L -692.7,-353.1 L -684.2,-359.3 L -675.7,-365.6 L -667.2,-372.2 L -658.7,-378.8 L -650.2,-385.6 L -641.6,-392.5 L -633.1,-399.6 L -624.7,-406.6 L -615.9,-414.1 L -608.8,-420.2 L -601.3,-426.8 L -593.3,-433.9 L -587.1,-439.5 L -580.6,-445.4 L -574.4,-451.0 L -568.7,-456.3 L -563.5,-461.2 L -558.7,-465.8 L -554.3,-470.2 L -550.3,-474.4 L -546.7,-478.4 L -543.5,-482.2 L -540.8,-486.0 L -538.5,-489.6 L -536.7,-493.2 L -535.3,-496.7 L -534.3,-500.6 L -533.9,-503.7 L -533.8,-507.2 L -534.1,-511.1 L -534.7,-514.2 L -535.7,-517.9 L -537.0,-521.8 L -538.7,-525.7 L -540.8,-529.8 L -543.3,-534.0 L -545.9,-538.2 L -548.8,-542.5 L -551.1,-545.9 L -553.7,-550.1 L -555.4,-553.6 L -556.9,-557.6 L -557.8,-561.6 L -558.2,-565.7 L -558.0,-569.7 L -557.3,-573.8 L -556.2,-577.9 L -554.5,-582.6 L -552.7,-586.5 L -550.4,-591.0 L -547.7,-595.6 L -544.6,-600.2 L -541.1,-604.8 L -536.7,-609.8 L -532.8,-613.9 L -528.0,-618.3 L -522.8,-622.6 L -517.1,-626.8 L -511.1,-630.8 L -504.8,-634.5 L -498.2,-637.9 L -491.3,-641.0 L -483.4,-643.9 L -476.7,-646.0 L -469.1,-647.9 L -460.7,-649.4 L -453.0,-650.2 L -446.1,-650.5 L -437.8,-650.2 L -431.0,-649.5 L -423.3,-648.2 L -415.6,-646.4 L -407.7,-644.1 L -399.1,-641.0 L -391.2,-637.6 L -384.1,-634.3 L -376.3,-630.1 L -368.4,-625.5 L -360.7,-620.5 L -352.9,-615.2 L -345.2,-609.6 L -337.6,-603.8 L -329.8,-597.8 L -321.2,-591.2 L -314.0,-585.7 L -305.8,-579.5 L -297.6,-573.3 L -289.2,-567.0 L -280.7,-560.7 L -271.2,-553.7 L -263.4,-547.9 L -254.6,-541.4 L -245.7,-534.8 L -236.7,-528.1 L -227.7,-521.4 L -217.7,-513.9 L -209.4,-507.8 L -200.1,-501.0 L -190.7,-494.1 L -181.3,-487.2 L -171.8,-480.2 L -162.3,-473.1 L -152.7,-466.0 L -143.0,-458.8 L -133.2,-451.6 L -123.5,-444.4 L -114.0,-437.4 L -104.8,-430.7 L -95.9,-424.2 L -87.4,-418.0 L -79.2,-411.9 L -71.3,-406.1 L -63.7,-400.4 L -56.5,-394.8 L -49.6,-389.2 L -43.0,-383.6 L -36.8,-378.0 L -30.9,-372.3 L -25.4,-366.5 L -19.9,-359.9 L -15.8,-354.3 L -11.8,-347.9 L -8.3,-341.2 L -5.4,-334.4 L -2.9,-327.3 L -0.9,-319.8 L 0.7,-312.1 L 2.0,-304.1 L 2.8,-295.8 L 3.3,-286.5 L 3.5,-278.8 L 3.4,-270.0 L 3.0,-261.1 L 2.3,-252.1 L 1.5,-242.0 L 0.7,-232.7 L -0.1,-224.2 L -1.0,-214.6 L -1.8,-203.9 L -2.3,-195.2 L -2.5,-185.6 L -2.5,-175.4 L -2.2,-167.2 L -1.6,-158.1 L -0.5,-148.2 L 0.7,-140.2 L 2.5,-131.4 L 4.7,-122.5 L 7.3,-113.6 L 10.4,-104.8 L 14.0,-96.1 L 17.9,-87.3 L 22.2,-78.5 L 26.8,-69.8 L 32.2,-60.2 L 37.1,-52.5 L 43.4,-43.2 L 49.0,-35.7 L 56.2,-26.8 L 62.5,-19.6 L 69.8,-11.9 L 77.3,-4.3 L 85.5,3.7 L 91.9,10.0 L 99.2,17.2 L 104.7,22.8 L 110.5,28.8 L 116.2,35.0 L 120.5,39.9 L 124.9,45.1 L 128.7,50.1 L 132.1,55.0 L 135.3,60.3 L 137.6,65.0 L 139.4,69.3 L 140.8,73.9 L 141.8,78.6 L 142.1,83.2 L 141.9,87.8 L 141.1,92.3 L 139.4,96.9 L 137.5,100.4 L 134.9,103.9 L 131.9,107.0 L 128.4,109.9 L 124.5,112.7 L 120.2,115.3 L 115.0,118.0 L 110.5,119.9 L 105.1,121.8 L 99.4,123.4 L 93.4,124.8 L 86.5,126.2 L 80.7,127.3 L 74.6,128.4 L 68.7,129.5 L 63.2,130.7 L 57.6,132.1 L 53.4,133.4 L 49.2,135.1 L 45.3,137.0 L 41.8,139.0 L 38.6,141.3 L 35.6,144.2 L 33.3,146.8 L 31.3,149.9 L 29.6,153.1 L 28.3,156.5 L 27.5,160.0 L 27.1,163.9 L 27.2,167.1 L 27.8,170.8 L 28.8,174.5 L 30.2,178.3 L 32.2,182.0 L 34.7,185.6 L 37.7,189.1 L 41.1,192.3 L 45.4,195.6 L 49.8,198.4 L 54.1,200.9 L 59.2,203.6 L 65.3,206.4 L 70.6,208.6 L 76.7,210.7 L 83.1,212.6 L 89.8,214.4 L 96.9,215.9 L 104.9,217.5 L 111.7,218.5 L 119.5,219.6 L 128.3,220.5 L 135.7,221.1 L 143.8,221.4 L 151.7,221.5 L 159.4,221.3 L 166.7,220.8 L 173.7,220.0 L 180.4,218.9 L 186.9,217.4 L 193.1,215.4 L 199.0,212.9 L 204.6,210.0 L 210.2,206.5 L 215.7,202.6 L 221.9,198.1 L 227.1,194.1 L 233.0,189.5 L 239.7,184.1 L 245.1,179.6 L 251.2,174.3 L 257.3,168.7 L 263.4,163.0 L 269.6,157.0 L 276.4,150.1 L 282.0,144.2 L 288.2,137.5 L 295.0,129.8 L 300.5,123.3 L 306.7,116.0 L 312.9,108.5 L 319.2,100.9 L 325.5,93.1 L 331.9,85.3 L 338.5,77.3 L 345.1,69.3 L 351.8,61.1 L 358.5,52.9 L 366.1,43.7 L 372.4,36.2 L 380.2,26.8 L 387.4,18.3 L 394.0,10.5 L 402.0,1.0 L 408.7,-6.9 L 416.3,-15.6 L 423.9,-24.4 L 431.8,-33.0 L 439.9,-41.7 L 448.9,-51.2 L 456.3,-59.0 L 464.7,-67.8 L 473.1,-76.6 L 481.5,-85.5 L 490.0,-94.5 L 498.4,-103.6 L 507.8,-113.7 L 516.2,-123.0 L 523.9,-131.5 L 532.3,-141.0 L 540.8,-150.7 L 550.0,-161.1 L 557.2,-169.4 L 564.9,-178.1 L 572.8,-187.1 L 578.8,-194.1 L 585.1,-201.3 L 591.0,-208.1 L 596.4,-214.4 L 601.5,-220.4 L 606.4,-226.1 L 610.9,-231.4 L 615.1,-236.5 L 619.4,-241.8 L 623.0,-246.3 L 626.1,-250.3 L 629.3,-254.7 L 632.4,-259.0 L 635.3,-263.4 L 638.0,-267.9 L 640.4,-272.5 L 642.6,-277.2 L 644.6,-282.2 L 646.5,-288.0 L 647.9,-293.5 L 648.8,-298.5 L 649.4,-304.0 L 649.7,-309.5 L 649.7,-315.0 L 649.4,-320.2 L 648.8,-325.8 L 648.1,-330.2 L 647.1,-335.0 L 645.7,-339.6 L 643.9,-344.0 L 641.8,-348.2 L 639.3,-352.1 L 636.4,-355.8 L 633.3,-359.1 L 629.7,-362.1 L 625.8,-365.0 L 621.4,-367.7 L 616.6,-370.3 L 611.4,-372.5 L 605.8,-374.5 L 599.9,-376.2 L 593.6,-377.8 L 586.5,-379.3 L 579.8,-380.5 L 573.6,-381.6 L 566.7,-382.8 L 560.0,-384.0 L 553.5,-385.3 L 546.9,-386.8 L 541.2,-388.6 L 535.8,-390.6 L 531.3,-392.7 L 526.6,-395.5 L 521.9,-398.9 L 518.4,-402.1 L 514.9,-405.9 L 511.9,-410.1 L 509.3,-414.4 L 507.3,-419.0 L 505.8,-423.7 L 504.8,-428.5 L 504.3,-433.3 L 504.3,-438.0 L 504.8,-442.7 L 505.8,-447.3 L 507.4,-452.5 L 509.1,-456.8 L 511.4,-461.5 L 514.2,-466.3 L 517.4,-470.7 L 521.0,-474.7 L 525.0,-478.3 L 529.3,-481.3 L 533.9,-483.8 L 538.7,-485.7 L 543.8,-487.1 L 549.2,-488.1 L 554.9,-488.6 L 560.8,-488.7 L 567.5,-488.2 L 573.2,-487.4 L 579.6,-486.0 L 586.9,-484.0 L 592.9,-481.9 L 599.6,-479.3 L 607.1,-476.0 L 613.4,-473.0 L 620.4,-469.5 L 627.5,-465.8 L 634.9,-462.0 L 643.2,-457.7 L 650.9,-453.8 L 658.0,-450.1 L 665.9,-445.9 L 674.8,-441.1 L 682.0,-436.9 L 690.1,-432.0 L 698.9,-426.2 L 706.1,-421.2 L 714.8,-414.8 L 721.9,-409.2 L 729.6,-402.6 L 737.1,-395.7 L 744.5,-388.4 L 751.8,-380.8 L 758.9,-372.9 L 765.8,-364.7 L 772.5,-356.1 L 778.9,-347.2 L 784.9,-338.0 L 790.7,-328.5 L 796.6,-317.7 L 801.1,-308.6 L 805.8,-298.2 L 810.2,-287.5 L 814.2,-276.7 L 817.8,-265.6 L 821.0,-254.3 L 824.0,-242.8 L 826.6,-231.1 L 828.9,-219.3 L 830.8,-207.4 L 832.6,-194.1" fill="none" stroke="#ffffff" stroke-opacity="0.92" stroke-width="12.0" stroke-linecap="round" stroke-linejoin="round"/>
<line x1="726.1" y1="-174.0" x2="941.3" y2="-195.5" stroke="#ffffff" stroke-width="16.8" stroke-linecap="round"/>
</svg>