<svg xmlns="http://www.w3.org/2000/svg" viewBox="-317.4 -892.6 868.3 707.8">
<defs><linearGradient id="g" gradientUnits="userSpaceOnUse" x1="-317.4" y1="-892.6" x2="550.9" y2="-184.8">
<stop offset="0" stop-color="#1c9fe0"/><stop offset="1" stop-color="#0b1f44"/></linearGradient></defs>
<path d="M -0.6,-844.3 L 15.0,-846.5 L 28.0,-848.1 L 43.2,-850.0 L 55.8,-851.6 L 69.8,-853.4 L 83.9,-855.1 L 99.5,-857.1 L 112.4,-858.7 L 127.5,-860.4 L 141.3,-861.9 L 156.7,-863.5 L 170.7,-864.8 L 186.2,-866.4 L 200.2,-867.7 L 215.0,-869.1 L 228.4,-870.3 L 241.3,-871.4 L 252.9,-872.4 L 265.7,-873.4 L 276.1,-874.1 L 286.4,-874.7 L 296.6,-874.9 L 305.3,-874.7 L 314.1,-874.2 L 323.0,-873.3 L 331.3,-871.9 L 339.1,-870.2 L 347.7,-867.5 L 354.2,-865.0 L 361.5,-861.6 L 369.2,-857.2 L 375.8,-852.7 L 381.5,-848.2 L 388.1,-842.2 L 393.3,-836.8 L 398.9,-830.2 L 403.6,-823.8 L 408.4,-816.7 L 412.7,-809.2 L 417.1,-800.9 L 421.6,-791.8 L 425.0,-784.5 L 429.0,-775.1 L 432.5,-766.3 L 436.2,-756.9 L 440.1,-746.7 L 443.8,-736.8 L 447.2,-727.1 L 450.6,-716.7 L 454.0,-704.8 L 456.6,-693.7 L 458.8,-682.9 L 460.9,-670.1 L 462.5,-659.5 L 464.2,-648.2 L 466.0,-635.5 L 467.9,-623.3 L 469.4,-611.5 L 470.8,-598.9 L 471.9,-584.8 L 472.4,-573.2 L 472.8,-560.1 L 473.0,-546.9 L 473.4,-533.6 L 474.0,-521.1 L 474.7,-510.3 L 475.3,-500.0 L 475.9,-489.4 L 476.6,-478.8 L 477.2,-468.1 L 477.8,-458.2 L 478.4,-448.6 L 479.1,-439.6 L 480.1,-430.2 L 481.5,-420.5 L 483.1,-411.4 L 484.9,-402.9 L 487.0,-393.6 L 489.1,-385.3 L 491.5,-376.3 L 493.7,-368.2 L 496.3,-359.3 L 498.9,-351.5 L 502.1,-342.5 L 505.1,-335.0 L 508.4,-327.2 L 511.7,-319.8 L 514.7,-313.4 L 517.6,-307.2 L 520.4,-301.2 L 522.7,-296.1 L 525.0,-291.2 L 527.1,-286.6 L 528.8,-282.6 L 530.1,-279.0 L 531.0,-275.6 L 531.7,-271.9 L 532.2,-268.4 L 532.5,-265.0 L 532.9,-261.1 L 533.2,-257.1 L 533.2,-253.5 L 533.0,-249.4 L 532.7,-246.2 L 532.0,-242.1 L 531.0,-238.5 L 529.7,-235.2 L 527.9,-232.0 L 525.9,-229.3 L 523.2,-226.1 L 520.5,-223.2 L 517.7,-220.6 L 514.2,-217.6 L 511.3,-215.5 L 507.6,-213.0 L 503.5,-210.7 L 499.3,-208.8 L 495.3,-207.3 L 490.1,-205.6 L 485.6,-204.5 L 480.2,-203.5 L 474.1,-202.8 L 468.5,-202.5 L 462.4,-202.6 L 456.4,-203.0 L 449.1,-203.9 L 442.4,-205.1 L 436.2,-206.5 L 429.3,-208.6 L 421.6,-211.4 L 415.0,-214.4 L 408.5,-217.9 L 401.8,-222.1 L 395.4,-226.8 L 388.8,-232.2 L 382.4,-237.7 L 376.0,-242.9 L 369.2,-248.7 L 361.8,-255.0 L 355.0,-260.8 L 346.9,-267.8 L 339.3,-274.4 L 332.0,-280.8 L 324.2,-287.7 L 316.6,-294.4 L 308.5,-301.5 L 299.7,-309.2 L 291.3,-316.6 L 282.3,-324.6 L 274.4,-331.5 L 265.1,-339.7 L 256.2,-347.6 L 247.6,-355.3 L 238.0,-363.9 L 228.7,-372.2 L 219.8,-380.2 L 210.4,-388.7 L 199.8,-398.2 L 190.6,-406.5 L 181.3,-414.8 L 170.4,-424.6 L 160.4,-433.6 L 150.8,-442.2 L 141.1,-450.9 L 129.8,-461.0 L 119.5,-470.3 L 109.6,-479.2 L 99.1,-488.7 L 89.2,-497.8 L 78.1,-508.0 L 67.6,-517.8 L 57.0,-527.7 L 47.0,-537.1 L 35.9,-547.5 L 26.5,-556.3 L 18.6,-563.8 L 10.3,-571.6 L 2.1,-579.2 L -6.0,-586.9 L -12.0,-592.5 L -18.7,-598.8 L -25.2,-604.9 L -31.7,-611.1 L -37.5,-616.4 L -43.3,-621.8 L -49.6,-627.3 L -54.8,-631.9 L -60.5,-636.4 L -65.5,-640.2 L -70.7,-643.8 L -76.1,-647.3 L -80.8,-650.1 L -86.4,-652.9 L -91.9,-655.3 L -97.6,-657.3 L -103.2,-658.9 L -109.7,-660.4 L -115.3,-661.3 L -120.9,-661.9 L -126.9,-662.0 L -133.6,-661.6 L -139.6,-660.9 L -145.6,-659.8 L -151.8,-658.3 L -158.4,-656.1 L -163.8,-653.8 L -169.0,-651.0 L -174.6,-647.4 L -178.9,-644.1 L -182.7,-640.7 L -186.2,-636.9 L -189.1,-632.9 L -191.7,-628.6 L -193.5,-624.4 L -195.1,-619.7 L -196.1,-614.9 L -196.8,-609.5 L -196.9,-604.5 L -197.0,-598.4 L -197.1,-592.6 L -197.2,-586.4 L -197.3,-580.4 L -197.8,-574.1 L -198.7,-568.1 L -200.4,-561.7 L -202.4,-556.1 L -205.2,-550.2 L -208.5,-545.0 L -212.0,-540.3 L -216.2,-535.6 L -220.7,-531.5 L -225.7,-527.8 L -230.5,-525.0 L -235.7,-522.6 L -241.5,-520.6 L -246.6,-519.6 L -251.6,-519.0 L -256.9,-519.1 L -262.2,-519.8 L -267.1,-521.0 L -271.8,-522.9 L -276.3,-525.1 L -281.0,-528.3 L -284.5,-531.2 L -288.0,-534.9 L -291.0,-539.0 L -293.8,-543.8 L -295.9,-548.5 L -297.6,-553.7 L -298.9,-559.8 L -299.5,-565.0 L -299.7,-571.6 L -299.6,-577.3 L -298.9,-584.1 L -297.9,-590.8 L -296.4,-597.1 L -294.5,-603.8 L -292.1,-611.4 L -289.7,-618.3 L -286.8,-626.2 L -284.1,-633.1 L -280.7,-641.4 L -277.2,-649.6 L -273.8,-657.5 L -269.9,-666.0 L -265.4,-675.6 L -261.4,-684.1 L -256.3,-694.0 L -252.1,-701.7 L -246.2,-711.7 L -240.7,-720.3 L -234.8,-728.9 L -228.2,-737.9 L -220.4,-747.7 L -212.8,-756.3 L -204.9,-764.1 L -196.5,-771.5 L -187.2,-778.9 L -177.5,-786.0 L -166.3,-793.4 L -156.8,-799.1 L -145.9,-805.3 L -133.6,-811.7 L -122.6,-816.9 L -110.6,-821.9 L -99.0,-826.0 L -84.4,-830.3 L -73.4,-833.0 L -59.6,-835.7 L -46.8,-837.9 L -33.3,-840.0 L -18.3,-842.3 L -4.5,-844.1 Z" fill="none" stroke="url(#g)" stroke-width="70.8" stroke-linejoin="round" stroke-linecap="round"/>
<path d="M -0.6,-844.3 L 15.0,-846.5 L 28.0,-848.1 L 43.2,-850.0 L 55.8,-851.6 L 69.8,-853.4 L 83.9,-855.1 L 99.5,-857.1 L 112.4,-858.7 L 127.5,-860.4 L 141.3,-861.9 L 156.7,-863.5 L 170.7,-864.8 L 186.2,-866.4 L 200.2,-867.7 L 215.0,-869.1 L 228.4,-870.3 L 241.3,-871.4 L 252.9,-872.4 L 265.7,-873.4 L 276.1,-874.1 L 286.4,-874.7 L 296.6,-874.9 L 305.3,-874.7 L 314.1,-874.2 L 323.0,-873.3 L 331.3,-871.9 L 339.1,-870.2 L 347.7,-867.5 L 354.2,-865.0 L 361.5,-861.6 L 369.2,-857.2 L 375.8,-852.7 L 381.5,-848.2 L 388.1,-842.2 L 393.3,-836.8 L 398.9,-830.2 L 403.6,-823.8 L 408.4,-816.7 L 412.7,-809.2 L 417.1,-800.9 L 421.6,-791.8 L 425.0,-784.5 L 429.0,-775.1 L 432.5,-766.3 L 436.2,-756.9 L 440.1,-746.7 L 443.8,-736.8 L 447.2,-727.1 L 450.6,-716.7 L 454.0,-704.8 L 456.6,-693.7 L 458.8,-682.9 L 460.9,-670.1 L 462.5,-659.5 L 464.2,-648.2 L 466.0,-635.5 L 467.9,-623.3 L 469.4,-611.5 L 470.8,-598.9 L 471.9,-584.8 L 472.4,-573.2 L 472.8,-560.1 L 473.0,-546.9 L 473.4,-533.6 L 474.0,-521.1 L 474.7,-510.3 L 475.3,-500.0 L 475.9,-489.4 L 476.6,-478.8 L 477.2,-468.1 L 477.8,-458.2 L 478.4,-448.6 L 479.1,-439.6 L 480.1,-430.2 L 481.5,-420.5 L 483.1,-411.4 L 484.9,-402.9 L 487.0,-393.6 L 489.1,-385.3 L 491.5,-376.3 L 493.7,-368.2 L 496.3,-359.3 L 498.9,-351.5 L 502.1,-342.5 L 505.1,-335.0 L 508.4,-327.2 L 511.7,-319.8 L 514.7,-313.4 L 517.6,-307.2 L 520.4,-301.2 L 522.7,-296.1 L 525.0,-291.2 L 527.1,-286.6 L 528.8,-282.6 L 530.1,-279.0 L 531.0,-275.6 L 531.7,-271.9 L 532.2,-268.4 L 532.5,-265.0 L 532.9,-261.1 L 533.2,-257.1 L 533.2,-253.5 L 533.0,-249.4 L 532.7,-246.2 L 532.0,-242.1 L 531.0,-238.5 L 529.7,-235.2 L 527.9,-232.0 L 525.9,-229.3 L 523.2,-226.1 L 520.5,-223.2 L 517.7,-220.6 L 514.2,-217.6 L 511.3,-215.5 L 507.6,-213.0 L 503.5,-210.7 L 499.3,-208.8 L 495.3,-207.3 L 490.1,-205.6 L 485.6,-204.5 L 480.2,-203.5 L 474.1,-202.8 L 468.5,-202.5 L 462.4,-202.6 L 456.4,-203.0 L 449.1,-203.9 L 442.4,-205.1 L 436.2,-206.5 L 429.3,-208.6 L 421.6,-211.4 L 415.0,-214.4 L 408.5,-217.9 L 401.8,-222.1 L 395.4,-226.8 L 388.8,-232.2 L 382.4,-237.7 L 376.0,-242.9 L 369.2,-248.7 L 361.8,-255.0 L 355.0,-260.8 L 346.9,-267.8 L 339.3,-274.4 L 332.0,-280.8 L 324.2,-287.7 L 316.6,-294.4 L 308.5,-301.5 L 299.7,-309.2 L 291.3,-316.6 L 282.3,-324.6 L 274.4,-331.5 L 265.1,-339.7 L 256.2,-347.6 L 247.6,-355.3 L 238.0,-363.9 L 228.7,-372.2 L 219.8,-380.2 L 210.4,-388.7 L 199.8,-398.2 L 190.6,-406.5 L 181.3,-414.8 L 170.4,-424.6 L 160.4,-433.6 L 150.8,-442.2 L 141.1,-450.9 L 129.8,-461.0 L 119.5,-470.3 L 109.6,-479.2 L 99.1,-488.7 L 89.2,-497.8 L 78.1,-508.0 L 67.6,-517.8 L 57.0,-527.7 L 47.0,-537.1 L 35.9,-547.5 L 26.5,-556.3 L 18.6,-563.8 L 10.3,-571.6 L 2.1,-579.2 L -6.0,-586.9 L -12.0,-592.5 L -18.7,-598.8 L -25.2,-604.9 L -31.7,-611.1 L -37.5,-616.4 L -43.3,-621.8 L -49.6,-627.3 L -54.8,-631.9 L -60.5,-636.4 L -65.5,-640.2 L -70.7,-643.8 L -76.1,-647.3 L -80.8,-650.1 L -86.4,-652.9 L -91.9,-655.3 L -97.6,-657.3 L -103.2,-658.9 L -109.7,-660.4 L -115.3,-661.3 L -120.9,-661.9 L -126.9,-662.0 L -133.6,-661.6 L -139.6,-660.9 L -145.6,-659.8 L -151.8,-658.3 L -158.4,-656.1 L -163.8,-653.8 L -169.0,-651.0 L -174.6,-647.4 L -178.9,-644.1 L -182.7,-640.7 L -186.2,-636.9 L -189.1,-632.9 L -191.7,-628.6 L -193.5,-624.4 L -195.1,-619.7 L -196.1,-614.9 L -196.8,-609.5 L -196.9,-604.5 L -197.0,-598.4 L -197.1,-592.6 L -197.2,-586.4 L -197.3,-580.4 L -197.8,-574.1 L -198.7,-568.1 L -200.4,-561.7 L -202.4,-556.1 L -205.2,-550.2 L -208.5,-545.0 L -212.0,-540.3 L -216.2,-535.6 L -220.7,-531.5 L -225.7,-527.8 L -230.5,-525.0 L -235.7,-522.6 L -241.5,-520.6 L -246.6,-519.6 L -251.6,-519.0 L -256.9,-519.1 L -262.2,-519.8 L -267.1,-521.0 L -271.8,-522.9 L -276.3,-525.1 L -281.0,-528.3 L -284.5,-531.2 L -288.0,-534.9 L -291.0,-539.0 L -293.8,-543.8 L -295.9,-548.5 L -297.6,-553.7 L -298.9,-559.8 L -299.5,-565.0 L -299.7,-571.6 L -299.6,-577.3 L -298.9,-584.1 L -297.9,-590.8 L -296.4,-597.1 L -294.5,-603.8 L -292.1,-611.4 L -289.7,-618.3 L -286.8,-626.2 L -284.1,-633.1 L -280.7,-641.4 L -277.2,-649.6 L -273.8,-657.5 L -269.9,-666.0 L -265.4,-675.6 L -261.4,-684.1 L -256.3,-694.0 L -252.1,-701.7 L -246.2,-711.7 L -240.7,-720.3 L -234.8,-728.9 L -228.2,-737.9 L -220.4,-747.7 L -212.8,-756.3 L -204.9,-764.1 L -196.5,-771.5 L -187.2,-778.9 L -177.5,-786.0 L -166.3,-793.4 L -156.8,-799.1 L -145.9,-805.3 L -133.6,-811.7 L -122.6,-816.9 L -110.6,-821.9 L -99.0,-826.0 L -84.4,-830.3 L -73.4,-833.0 L -59.6,-835.7 L -46.8,-837.9 L -33.3,-840.0 L -18.3,-842.3 L -4.5,-844.1 Z" fill="none" stroke="#ffffff" stroke-width="7.1" stroke-linejoin="round" stroke-linecap="round"/>
</svg>