<svg xmlns="http://www.w3.org/2000/svg" viewBox="-1276.3 -432.0 2355.1 1508.5">
<defs><linearGradient id="g" gradientUnits="userSpaceOnUse" x1="-1164.4" y1="-320.1" x2="966.9" y2="964.6">
<stop offset="0" stop-color="#1c9fe0"/><stop offset="1" stop-color="#0b1f44"/></linearGradient></defs>
<path d="M -909.7,363.9 L -921.5,369.1 L -931.4,373.4 L -941.5,377.7 L -952.6,382.6 L -961.8,386.5 L -972.1,391.0 L -982.5,395.5 L -992.9,400.0 L -1003.5,404.5 L -1014.1,409.1 L -1024.7,413.8 L -1035.3,418.4 L -1045.5,422.8 L -1055.2,427.0 L -1065.4,431.4 L -1073.2,434.7 L -1081.5,438.2 L -1089.4,441.5 L -1096.8,444.4 L -1104.5,447.4 L -1110.4,449.6 L -1117.1,452.0 L -1122.3,453.6 L -1128.1,455.2 L -1132.6,456.1 L -1137.2,456.7 L -1141.6,456.8 L -1145.6,456.6 L -1149.6,455.8 L -1152.5,454.8 L -1155.4,453.2 L -1157.9,451.3 L -1160.2,448.7 L -1161.7,446.3 L -1163.0,443.4 L -1164.0,439.9 L -1164.4,436.8 L -1164.4,433.2 L -1163.8,429.4 L -1162.7,425.8 L -1161.2,422.0 L -1159.4,418.1 L -1157.3,413.9 L -1154.8,409.5 L -1152.0,405.0 L -1148.9,400.2 L -1145.6,395.2 L -1142.2,390.1 L -1138.4,384.8 L -1134.5,379.4 L -1130.4,373.7 L -1126.0,367.9 L -1121.5,362.0 L -1116.8,355.9 L -1112.0,349.7 L -1107.0,343.3 L -1101.8,336.8 L -1096.5,330.2 L -1090.5,322.7 L -1085.5,316.5 L -1079.7,309.5 L -1073.8,302.4 L -1067.7,295.3 L -1061.4,288.0 L -1055.0,280.8 L -1047.7,272.7 L -1041.6,266.1 L -1034.6,258.6 L -1027.5,251.2 L -1020.2,243.7 L -1012.7,236.2 L -1005.0,228.6 L -997.1,221.2 L -989.0,213.7 L -980.6,206.4 L -972.0,199.2 L -963.1,192.1 L -954.0,185.1 L -944.7,178.3 L -934.3,170.8 L -925.5,164.9 L -915.7,158.3 L -905.7,151.7 L -895.5,145.1 L -885.2,138.6 L -873.8,131.4 L -863.3,124.9 L -852.6,118.4 L -843.0,112.5 L -832.2,105.9 L -821.3,99.2 L -810.4,92.5 L -799.4,85.7 L -788.4,78.8 L -777.3,71.9 L -766.2,64.8 L -755.2,57.6 L -744.2,50.3 L -733.4,42.8 L -722.8,35.1 L -712.5,27.1 L -702.7,18.6 L -692.4,8.8 L -684.5,0.5 L -675.1,-9.7 L -667.4,-17.9 L -657.5,-27.3 L -649.2,-34.3 L -639.6,-41.4 L -628.6,-48.3 L -619.5,-53.2 L -609.1,-57.7 L -598.6,-61.5 L -588.0,-64.5 L -576.3,-67.0 L -566.8,-68.6 L -556.1,-70.2 L -544.3,-71.6 L -534.5,-72.5 L -523.5,-73.6 L -512.5,-74.9 L -501.5,-76.7 L -490.5,-78.9 L -479.5,-81.6 L -468.7,-84.8 L -457.8,-88.5 L -447.1,-92.5 L -436.4,-96.9 L -425.7,-101.4 L -413.9,-106.7 L -404.3,-111.2 L -393.6,-116.2 L -381.7,-121.9 L -370.9,-127.1 L -361.2,-131.8 L -350.3,-137.1 L -339.3,-142.5 L -328.3,-147.9 L -316.2,-153.9 L -306.1,-158.7 L -294.9,-164.1 L -283.6,-169.4 L -272.2,-174.6 L -260.7,-179.6 L -249.0,-184.4 L -237.2,-189.1 L -225.2,-193.5 L -213.1,-197.6 L -199.6,-201.9 L -188.5,-205.1 L -176.0,-208.5 L -163.4,-211.6 L -150.7,-214.5 L -136.7,-217.4 L -123.8,-219.9 L -112.2,-222.0 L -99.2,-224.2 L -86.1,-226.3 L -71.7,-228.6 L -59.9,-230.5 L -46.7,-232.5 L -33.5,-234.5 L -19.0,-236.7 L -7.0,-238.5 L 7.6,-240.8 L 19.6,-242.6 L 32.9,-244.7 L 47.7,-246.9 L 59.8,-248.8 L 73.2,-250.8 L 86.7,-252.8 L 103.0,-255.2 L 115.2,-257.0 L 127.4,-258.7 L 141.1,-260.7 L 156.1,-262.8 L 168.4,-264.6 L 183.5,-266.8 L 195.9,-268.5 L 209.6,-270.5 L 223.4,-272.5 L 237.2,-274.5 L 251.0,-276.6 L 266.3,-278.8 L 278.7,-280.7 L 292.6,-282.8 L 306.5,-284.9 L 320.5,-287.0 L 334.4,-289.1 L 348.4,-291.2 L 362.4,-293.3 L 376.4,-295.4 L 390.4,-297.4 L 405.9,-299.7 L 420.0,-301.8 L 432.6,-303.6 L 446.6,-305.6 L 461.4,-307.8 L 473.0,-309.5 L 485.3,-311.2 L 497.1,-312.9 L 508.3,-314.5 L 519.0,-315.9 L 529.1,-317.2 L 538.7,-318.3 L 548.7,-319.3 L 556.5,-319.8 L 564.6,-320.1 L 572.3,-320.1 L 579.5,-319.8 L 586.3,-319.1 L 592.6,-318.0 L 598.5,-316.5 L 604.0,-314.7 L 609.2,-312.4 L 614.1,-309.8 L 618.5,-306.9 L 622.8,-303.3 L 625.9,-300.2 L 628.8,-296.4 L 631.3,-292.3 L 633.7,-287.5 L 635.7,-283.5 L 638.0,-278.9 L 640.8,-273.8 L 643.4,-269.9 L 646.8,-265.7 L 650.5,-261.9 L 654.8,-258.4 L 659.4,-255.3 L 664.4,-252.7 L 669.7,-250.5 L 675.9,-248.7 L 681.2,-247.7 L 687.9,-247.0 L 693.5,-246.9 L 699.9,-247.2 L 706.5,-247.9 L 713.3,-249.1 L 720.2,-250.6 L 727.9,-252.6 L 734.4,-254.3 L 741.7,-256.0 L 749.7,-257.6 L 756.8,-258.5 L 763.0,-258.8 L 769.8,-258.8 L 776.4,-258.2 L 782.8,-257.0 L 789.2,-255.4 L 795.4,-253.1 L 801.5,-250.3 L 808.1,-246.6 L 813.8,-242.7 L 819.4,-238.3 L 824.1,-233.8 L 829.2,-228.4 L 834.0,-222.5 L 838.5,-216.2 L 842.8,-209.6 L 847.0,-202.6 L 851.1,-195.4 L 855.1,-187.9 L 859.1,-180.3 L 863.1,-172.4 L 867.4,-163.4 L 871.0,-156.0 L 875.0,-147.6 L 879.0,-138.9 L 883.1,-130.2 L 887.3,-121.4 L 891.6,-112.5 L 896.1,-103.5 L 900.7,-94.4 L 905.9,-84.3 L 910.3,-75.9 L 915.2,-66.5 L 920.2,-57.0 L 925.1,-47.3 L 930.0,-37.4 L 934.9,-27.7 L 939.9,-17.4 L 944.3,-8.5 L 948.4,-0.0 L 951.8,7.2 L 955.3,14.8 L 958.4,22.1 L 961.0,29.0 L 963.2,35.6 L 965.0,42.6 L 966.2,48.8 L 966.8,54.1 L 966.9,59.8 L 966.5,65.2 L 965.6,70.4 L 964.0,75.9 L 962.1,80.0 L 959.6,84.4 L 956.2,88.8 L 953.1,92.1 L 948.8,95.7 L 944.9,98.3 L 940.3,100.8 L 934.8,103.1 L 929.7,104.5 L 925.0,105.2 L 919.8,105.5 L 914.0,105.1 L 909.2,104.2 L 903.9,102.8 L 898.7,100.8 L 893.5,98.2 L 888.5,95.0 L 883.7,91.2 L 879.2,86.9 L 875.0,82.1 L 871.0,76.8 L 867.3,71.1 L 863.9,64.9 L 860.7,58.3 L 857.7,51.4 L 854.8,44.2 L 852.0,36.7 L 849.4,29.0 L 846.8,21.1 L 844.1,13.0 L 841.1,4.0 L 838.6,-3.1 L 835.7,-10.5 L 832.6,-17.5 L 829.3,-24.1 L 825.7,-30.2 L 821.4,-36.4 L 817.5,-41.0 L 812.8,-45.7 L 807.7,-49.9 L 801.7,-53.9 L 796.4,-56.6 L 790.2,-59.2 L 783.0,-61.3 L 776.8,-62.6 L 769.7,-63.6 L 762.4,-64.0 L 754.0,-63.8 L 747.0,-63.3 L 739.1,-62.3 L 730.2,-60.7 L 722.8,-59.2 L 714.4,-57.4 L 705.9,-55.5 L 697.2,-53.5 L 688.2,-51.5 L 679.1,-49.4 L 669.9,-47.4 L 659.4,-45.3 L 650.7,-43.7 L 640.9,-41.9 L 630.9,-40.3 L 620.8,-38.8 L 609.4,-37.3 L 600.0,-36.2 L 589.4,-35.1 L 578.6,-34.1 L 567.6,-33.2 L 555.4,-32.4 L 545.3,-31.8 L 534.0,-31.2 L 522.5,-30.7 L 510.9,-30.2 L 499.2,-29.8 L 487.4,-29.4 L 475.5,-29.0 L 463.5,-28.5 L 451.4,-28.1 L 439.2,-27.7 L 426.8,-27.2 L 413.2,-26.7 L 402.1,-26.2 L 390.2,-25.7 L 377.7,-25.2 L 366.9,-24.6 L 357.5,-24.0 L 347.5,-23.2 L 337.8,-22.2 L 328.5,-20.9 L 319.6,-19.2 L 310.9,-16.9 L 302.5,-14.0 L 294.5,-10.6 L 286.9,-6.5 L 279.6,-1.9 L 272.7,3.3 L 266.2,9.0 L 260.0,15.2 L 254.3,21.9 L 249.0,29.1 L 244.3,36.6 L 240.0,44.6 L 236.3,53.0 L 232.9,62.7 L 230.5,70.9 L 228.1,80.2 L 226.1,89.8 L 224.6,99.6 L 223.6,110.6 L 223.2,120.8 L 223.4,130.0 L 224.3,141.5 L 225.5,150.9 L 227.6,161.4 L 230.4,171.8 L 234.2,183.1 L 238.0,192.2 L 242.8,202.2 L 248.2,211.9 L 255.0,222.2 L 261.1,230.4 L 268.5,239.2 L 276.3,247.6 L 284.7,255.6 L 293.5,263.2 L 302.7,270.5 L 312.3,277.5 L 322.2,284.1 L 332.4,290.4 L 343.9,297.0 L 353.5,302.3 L 364.4,308.0 L 375.3,313.7 L 386.3,319.5 L 397.4,325.2 L 408.6,331.0 L 421.0,337.4 L 432.3,343.3 L 442.5,348.7 L 453.8,354.8 L 465.2,360.9 L 476.7,367.0 L 488.1,373.2 L 499.3,379.3 L 510.1,385.2 L 521.2,391.4 L 529.7,396.4 L 539.5,402.4 L 546.9,407.1 L 554.6,412.3 L 561.7,417.4 L 568.2,422.4 L 574.8,427.8 L 579.7,432.3 L 584.5,437.3 L 589.1,443.0 L 592.4,447.8 L 595.5,453.3 L 598.1,459.0 L 600.1,464.9 L 601.6,471.0 L 602.6,477.4 L 603.0,483.9 L 602.9,491.2 L 602.2,497.3 L 600.9,504.1 L 599.1,510.8 L 596.6,517.5 L 593.2,524.8 L 590.0,530.6 L 585.9,536.9 L 581.6,543.1 L 577.4,549.1 L 573.5,555.0 L 569.8,561.0 L 566.4,567.9 L 564.0,573.6 L 561.8,580.2 L 560.1,586.9 L 559.1,593.7 L 558.6,601.3 L 558.8,607.6 L 559.5,614.5 L 560.9,621.5 L 563.1,629.0 L 565.4,635.1 L 568.9,642.4 L 572.3,648.2 L 576.6,654.6 L 581.9,661.4 L 586.6,666.7 L 592.3,672.6 L 598.4,678.2 L 605.0,683.7 L 611.8,689.0 L 618.8,694.4 L 626.0,699.8 L 633.4,705.3 L 640.8,710.9 L 648.4,716.6 L 656.1,722.4 L 663.9,728.4 L 671.7,734.4 L 679.5,740.5 L 687.0,746.4 L 694.1,752.1 L 701.4,758.1 L 707.0,762.8 L 712.7,768.0 L 718.1,773.2 L 722.9,778.3 L 727.1,783.6 L 730.8,788.9 L 733.8,794.4 L 736.2,800.0 L 738.0,805.8 L 739.1,811.8 L 739.6,818.5 L 739.6,824.1 L 739.0,830.3 L 737.7,837.0 L 736.0,842.4 L 733.6,848.4 L 730.4,854.9 L 727.2,860.1 L 723.2,865.8 L 718.7,871.5 L 713.8,877.1 L 708.1,883.2 L 703.1,888.3 L 696.8,894.5 L 691.6,899.7 L 685.6,905.6 L 678.8,912.2 L 673.2,917.8 L 666.8,924.0 L 659.4,930.7 L 652.2,936.6 L 645.4,941.5 L 636.5,947.0 L 628.9,951.0 L 619.2,955.3 L 610.0,958.5 L 601.6,960.9 L 591.1,963.0 L 582.4,964.1 L 572.8,964.6 L 563.2,964.4 L 553.6,963.4 L 544.2,961.8 L 535.0,959.5 L 525.2,956.2 L 517.5,953.1 L 509.1,949.1 L 500.8,944.6 L 491.9,939.2 L 484.6,934.5 L 475.7,928.4 L 468.5,923.2 L 460.5,917.2 L 451.6,910.4 L 444.4,904.6 L 436.4,898.1 L 427.6,890.6 L 420.4,884.3 L 412.5,877.2 L 403.8,869.1 L 396.8,862.2 L 389.1,854.5 L 381.5,846.4 L 373.2,837.4 L 366.6,829.7 L 358.6,820.1 L 352.3,812.0 L 345.4,802.8 L 338.7,793.4 L 331.4,782.8 L 325.6,773.9 L 318.7,763.0 L 312.6,752.8 L 307.2,743.5 L 301.3,733.1 L 295.6,722.4 L 290.0,711.6 L 284.6,700.7 L 279.4,689.6 L 273.8,677.2 L 269.0,665.8 L 264.7,655.4 L 259.7,642.5 L 255.7,631.9 L 251.3,620.0 L 246.9,608.1 L 242.6,596.0 L 238.3,583.9 L 234.1,571.7 L 229.5,558.2 L 225.6,547.2 L 221.2,534.9 L 216.5,522.6 L 211.5,510.5 L 206.1,498.4 L 200.4,486.4 L 194.3,474.6 L 188.0,462.9 L 181.2,451.3 L 174.1,440.0 L 166.5,428.9 L 157.6,417.1 L 149.9,407.8 L 140.9,397.8 L 131.5,388.1 L 121.7,378.8 L 111.5,369.9 L 99.8,360.7 L 89.9,353.5 L 78.6,346.0 L 67.0,338.8 L 55.3,331.7 L 42.4,323.9 L 31.8,317.6 L 18.7,309.9 L 7.9,303.8 L -4.3,297.4 L -16.8,291.3 L -30.8,285.3 L -42.5,281.0 L -55.8,276.9 L -70.6,273.3 L -82.8,271.0 L -97.9,269.2 L -110.3,268.5 L -125.4,268.6 L -139.1,269.4 L -151.4,270.8 L -166.4,273.0 L -178.5,275.3 L -192.0,278.4 L -205.3,282.1 L -219.9,286.4 L -231.9,289.9 L -245.3,293.7 L -258.7,297.4 L -272.3,300.9 L -285.9,304.2 L -299.6,307.3 L -313.4,310.3 L -327.2,313.0 L -341.1,315.5 L -355.1,317.6 L -370.6,319.6 L -384.7,321.1 L -397.5,322.3 L -411.6,323.4 L -425.9,324.2 L -441.6,324.8 L -454.4,325.1 L -468.2,325.2 L -481.5,325.2 L -494.1,325.1 L -507.1,324.9 L -518.3,324.6 L -527.9,324.3 L -538.0,324.0 L -547.5,323.6 L -557.2,323.1 L -564.7,322.7 L -573.3,322.1 L -579.8,321.6 L -586.5,320.9 L -593.3,319.9 L -598.2,319.0 L -603.2,317.9 L -607.7,316.6 L -611.9,315.0 L -614.9,313.3 L -618.0,311.0 L -620.0,308.9 L -621.8,306.3 L -623.0,303.6 L -623.9,300.7 L -624.3,297.6 L -624.3,294.2 L -623.7,290.4 L -622.9,287.3 L -621.6,283.3 L -620.7,280.0 L -620.1,276.0 L -620.1,272.5 L -620.5,269.3 L -621.6,265.4 L -622.9,262.4 L -624.9,259.3 L -627.3,256.7 L -630.0,254.7 L -633.3,252.9 L -636.4,252.0 L -639.9,251.5 L -644.0,251.5 L -647.5,252.0 L -651.5,253.0 L -655.8,254.3 L -660.3,255.9 L -665.0,257.7 L -670.1,259.7 L -675.3,261.8 L -680.8,264.1 L -686.5,266.6 L -692.3,269.2 L -698.3,271.9 L -705.1,275.0 L -710.8,277.6 L -717.4,280.6 L -724.9,284.0 L -731.8,287.2 L -738.3,290.1 L -745.6,293.4 L -753.0,296.7 L -760.6,300.1 L -768.4,303.6 L -776.3,307.1 L -784.4,310.6 L -792.6,314.3 L -801.0,318.0 L -809.5,321.7 L -819.0,325.9 L -826.9,329.3 L -835.8,333.2 L -844.8,337.1 L -853.9,341.0 L -863.1,345.0 L -873.4,349.4 L -882.0,353.0 L -891.5,357.1 L -901.2,361.3" fill="none" stroke="url(#g)" stroke-width="149.2" stroke-linecap="round" stroke-linejoin="round"/>
<path d="M -909.7,363.9 L -921.5,369.1 L -931.4,373.4 L -941.5,377.7 L -952.6,382.6 L -961.8,386.5 L -972.1,391.0 L -982.5,395.5 L -992.9,400.0 L -1003.5,404.5 L -1014.1,409.1 L -1024.7,413.8 L -1035.3,418.4 L -1045.5,422.8 L -1055.2,427.0 L -1065.4,431.4 L -1073.2,434.7 L -1081.5,438.2 L -1089.4,441.5 L -1096.8,444.4 L -1104.5,447.4 L -1110.4,449.6 L -1117.1,452.0 L -1122.3,453.6 L -1128.1,455.2 L -1132.6,456.1 L -1137.2,456.7 L -1141.6,456.8 L -1145.6,456.6 L -1149.6,455.8 L -1152.5,454.8 L -1155.4,453.2 L -1157.9,451.3 L -1160.2,448.7 L -1161.7,446.3 L -1163.0,443.4 L -1164.0,439.9 L -1164.4,436.8 L -1164.4,433.2 L -1163.8,429.4 L -1162.7,425.8 L -1161.2,422.0 L -1159.4,418.1 L -1157.3,413.9 L -1154.8,409.5 L -1152.0,405.0 L -1148.9,400.2 L -1145.6,395.2 L -1142.2,390.1 L -1138.4,384.8 L -1134.5,379.4 L -1130.4,373.7 L -1126.0,367.9 L -1121.5,362.0 L -1116.8,355.9 L -1112.0,349.7 L -1107.0,343.3 L -1101.8,336.8 L -1096.5,330.2 L -1090.5,322.7 L -1085.5,316.5 L -1079.7,309.5 L -1073.8,302.4 L -1067.7,295.3 L -1061.4,288.0 L -1055.0,280.8 L -1047.7,272.7 L -1041.6,266.1 L -1034.6,258.6 L -1027.5,251.2 L -1020.2,243.7 L -1012.7,236.2 L -1005.0,228.6 L -997.1,221.2 L -989.0,213.7 L -980.6,206.4 L -972.0,199.2 L -963.1,192.1 L -954.0,185.1 L -944.7,178.3 L -934.3,170.8 L -925.5,164.9 L -915.7,158.3 L -905.7,151.7 L -895.5,145.1 L -885.2,138.6 L -873.8,131.4 L -863.3,124.9 L -852.6,118.4 L -843.0,112.5 L -832.2,105.9 L -821.3,99.2 L -810.4,92.5 L -799.4,85.7 L -788.4,78.8 L -777.3,71.9 L -766.2,64.8 L -755.2,57.6 L -744.2,50.3 L -733.4,42.8 L -722.8,35.1 L -712.5,27.1 L -702.7,18.6 L -692.4,8.8 L -684.5,0.5 L -675.1,-9.7 L -667.4,-17.9 L -657.5,-27.3 L -649.2,-34.3 L -639.6,-41.4 L -628.6,-48.3 L -619.5,-53.2 L -609.1,-57.7 L -598.6,-61.5 L -588.0,-64.5 L -576.3,-67.0 L -566.8,-68.6 L -556.1,-70.2 L -544.3,-71.6 L -534.5,-72.5 L -523.5,-73.6 L -512.5,-74.9 L -501.5,-76.7 L -490.5,-78.9 L -479.5,-81.6 L -468.7,-84.8 L -457.8,-88.5 L -447.1,-92.5 L -436.4,-96.9 L -425.7,-101.4 L -413.9,-106.7 L -404.3,-111.2 L -393.6,-116.2 L -381.7,-121.9 L -370.9,-127.1 L -361.2,-131.8 L -350.3,-137.1 L -339.3,-142.5 L -328.3,-147.9 L -316.2,-153.9 L -306.1,-158.7 L -294.9,-164.1 L -283.6,-169.4 L -272.2,-174.6 L -260.7,-179.6 L -249.0,-184.4 L -237.2,-189.1 L -225.2,-193.5 L -213.1,-197.6 L -199.6,-201.9 L -188.5,-205.1 L -176.0,-208.5 L -163.4,-211.6 L -150.7,-214.5 L -136.7,-217.4 L -123.8,-219.9 L -112.2,-222.0 L -99.2,-224.2 L -86.1,-226.3 L -71.7,-228.6 L -59.9,-230.5 L -46.7,-232.5 L -33.5,-234.5 L -19.0,-236.7 L -7.0,-238.5 L 7.6,-240.8 L 19.6,-242.6 L 32.9,-244.7 L 47.7,-246.9 L 59.8,-248.8 L 73.2,-250.8 L 86.7,-252.8 L 103.0,-255.2 L 115.2,-257.0 L 127.4,-258.7 L 141.1,-260.7 L 156.1,-262.8 L 168.4,-264.6 L 183.5,-266.8 L 195.9,-268.5 L 209.6,-270.5 L 223.4,-272.5 L 237.2,-274.5 L 251.0,-276.6 L 266.3,-278.8 L 278.7,-280.7 L 292.6,-282.8 L 306.5,-284.9 L 320.5,-287.0 L 334.4,-289.1 L 348.4,-291.2 L 362.4,-293.3 L 376.4,-295.4 L 390.4,-297.4 L 405.9,-299.7 L 420.0,-301.8 L 432.6,-303.6 L 446.6,-305.6 L 461.4,-307.8 L 473.0,-309.5 L 485.3,-311.2 L 497.1,-312.9 L 508.3,-314.5 L 519.0,-315.9 L 529.1,-317.2 L 538.7,-318.3 L 548.7,-319.3 L 556.5,-319.8 L 564.6,-320.1 L 572.3,-320.1 L 579.5,-319.8 L 586.3,-319.1 L 592.6,-318.0 L 598.5,-316.5 L 604.0,-314.7 L 609.2,-312.4 L 614.1,-309.8 L 618.5,-306.9 L 622.8,-303.3 L 625.9,-300.2 L 628.8,-296.4 L 631.3,-292.3 L 633.7,-287.5 L 635.7,-283.5 L 638.0,-278.9 L 640.8,-273.8 L 643.4,-269.9 L 646.8,-265.7 L 650.5,-261.9 L 654.8,-258.4 L 659.4,-255.3 L 664.4,-252.7 L 669.7,-250.5 L 675.9,-248.7 L 681.2,-247.7 L 687.9,-247.0 L 693.5,-246.9 L 699.9,-247.2 L 706.5,-247.9 L 713.3,-249.1 L 720.2,-250.6 L 727.9,-252.6 L 734.4,-254.3 L 741.7,-256.0 L 749.7,-257.6 L 756.8,-258.5 L 763.0,-258.8 L 769.8,-258.8 L 776.4,-258.2 L 782.8,-257.0 L 789.2,-255.4 L 795.4,-253.1 L 801.5,-250.3 L 808.1,-246.6 L 813.8,-242.7 L 819.4,-238.3 L 824.1,-233.8 L 829.2,-228.4 L 834.0,-222.5 L 838.5,-216.2 L 842.8,-209.6 L 847.0,-202.6 L 851.1,-195.4 L 855.1,-187.9 L 859.1,-180.3 L 863.1,-172.4 L 867.4,-163.4 L 871.0,-156.0 L 875.0,-147.6 L 879.0,-138.9 L 883.1,-130.2 L 887.3,-121.4 L 891.6,-112.5 L 896.1,-103.5 L 900.7,-94.4 L 905.9,-84.3 L 910.3,-75.9 L 915.2,-66.5 L 920.2,-57.0 L 925.1,-47.3 L 930.0,-37.4 L 934.9,-27.7 L 939.9,-17.4 L 944.3,-8.5 L 948.4,-0.0 L 951.8,7.2 L 955.3,14.8 L 958.4,22.1 L 961.0,29.0 L 963.2,35.6 L 965.0,42.6 L 966.2,48.8 L 966.8,54.1 L 966.9,59.8 L 966.5,65.2 L 965.6,70.4 L 964.0,75.9 L 962.1,80.0 L 959.6,84.4 L 956.2,88.8 L 953.1,92.1 L 948.8,95.7 L 944.9,98.3 L 940.3,100.8 L 934.8,103.1 L 929.7,104.5 L 925.0,105.2 L 919.8,105.5 L 914.0,105.1 L 909.2,104.2 L 903.9,102.8 L 898.7,100.8 L 893.5,98.2 L 888.5,95.0 L 883.7,91.2 L 879.2,86.9 L 875.0,82.1 L 871.0,76.8 L 867.3,71.1 L 863.9,64.9 L 860.7,58.3 L 857.7,51.4 L 854.8,44.2 L 852.0,36.7 L 849.4,29.0 L 846.8,21.1 L 844.1,13.0 L 841.1,4.0 L 838.6,-3.1 L 835.7,-10.5 L 832.6,-17.5 L 829.3,-24.1 L 825.7,-30.2 L 821.4,-36.4 L 817.5,-41.0 L 812.8,-45.7 L 807.7,-49.9 L 801.7,-53.9 L 796.4,-56.6 L 790.2,-59.2 L 783.0,-61.3 L 776.8,-62.6 L 769.7,-63.6 L 762.4,-64.0 L 754.0,-63.8 L 747.0,-63.3 L 739.1,-62.3 L 730.2,-60.7 L 722.8,-59.2 L 714.4,-57.4 L 705.9,-55.5 L 697.2,-53.5 L 688.2,-51.5 L 679.1,-49.4 L 669.9,-47.4 L 659.4,-45.3 L 650.7,-43.7 L 640.9,-41.9 L 630.9,-40.3 L 620.8,-38.8 L 609.4,-37.3 L 600.0,-36.2 L 589.4,-35.1 L 578.6,-34.1 L 567.6,-33.2 L 555.4,-32.4 L 545.3,-31.8 L 534.0,-31.2 L 522.5,-30.7 L 510.9,-30.2 L 499.2,-29.8 L 487.4,-29.4 L 475.5,-29.0 L 463.5,-28.5 L 451.4,-28.1 L 439.2,-27.7 L 426.8,-27.2 L 413.2,-26.7 L 402.1,-26.2 L 390.2,-25.7 L 377.7,-25.2 L 366.9,-24.6 L 357.5,-24.0 L 347.5,-23.2 L 337.8,-22.2 L 328.5,-20.9 L 319.6,-19.2 L 310.9,-16.9 L 302.5,-14.0 L 294.5,-10.6 L 286.9,-6.5 L 279.6,-1.9 L 272.7,3.3 L 266.2,9.0 L 260.0,15.2 L 254.3,21.9 L 249.0,29.1 L 244.3,36.6 L 240.0,44.6 L 236.3,53.0 L 232.9,62.7 L 230.5,70.9 L 228.1,80.2 L 226.1,89.8 L 224.6,99.6 L 223.6,110.6 L 223.2,120.8 L 223.4,130.0 L 224.3,141.5 L 225.5,150.9 L 227.6,161.4 L 230.4,171.8 L 234.2,183.1 L 238.0,192.2 L 242.8,202.2 L 248.2,211.9 L 255.0,222.2 L 261.1,230.4 L 268.5,239.2 L 276.3,247.6 L 284.7,255.6 L 293.5,263.2 L 302.7,270.5 L 312.3,277.5 L 322.2,284.1 L 332.4,290.4 L 343.9,297.0 L 353.5,302.3 L 364.4,308.0 L 375.3,313.7 L 386.3,319.5 L 397.4,325.2 L 408.6,331.0 L 421.0,337.4 L 432.3,343.3 L 442.5,348.7 L 453.8,354.8 L 465.2,360.9 L 476.7,367.0 L 488.1,373.2 L 499.3,379.3 L 510.1,385.2 L 521.2,391.4 L 529.7,396.4 L 539.5,402.4 L 546.9,407.1 L 554.6,412.3 L 561.7,417.4 L 568.2,422.4 L 574.8,427.8 L 579.7,432.3 L 584.5,437.3 L 589.1,443.0 L 592.4,447.8 L 595.5,453.3 L 598.1,459.0 L 600.1,464.9 L 601.6,471.0 L 602.6,477.4 L 603.0,483.9 L 602.9,491.2 L 602.2,497.3 L 600.9,504.1 L 599.1,510.8 L 596.6,517.5 L 593.2,524.8 L 590.0,530.6 L 585.9,536.9 L 581.6,543.1 L 577.4,549.1 L 573.5,555.0 L 569.8,561.0 L 566.4,567.9 L 564.0,573.6 L 561.8,580.2 L 560.1,586.9 L 559.1,593.7 L 558.6,601.3 L 558.8,607.6 L 559.5,614.5 L 560.9,621.5 L 563.1,629.0 L 565.4,635.1 L 568.9,642.4 L 572.3,648.2 L 576.6,654.6 L 581.9,661.4 L 586.6,666.7 L 592.3,672.6 L 598.4,678.2 L 605.0,683.7 L 611.8,689.0 L 618.8,694.4 L 626.0,699.8 L 633.4,705.3 L 640.8,710.9 L 648.4,716.6 L 656.1,722.4 L 663.9,728.4 L 671.7,734.4 L 679.5,740.5 L 687.0,746.4 L 694.1,752.1 L 701.4,758.1 L 707.0,762.8 L 712.7,768.0 L 718.1,773.2 L 722.9,778.3 L 727.1,783.6 L 730.8,788.9 L 733.8,794.4 L 736.2,800.0 L 738.0,805.8 L 739.1,811.8 L 739.6,818.5 L 739.6,824.1 L 739.0,830.3 L 737.7,837.0 L 736.0,842.4 L 733.6,848.4 L 730.4,854.9 L 727.2,860.1 L 723.2,865.8 L 718.7,871.5 L 713.8,877.1 L 708.1,883.2 L 703.1,888.3 L 696.8,894.5 L 691.6,899.7 L 685.6,905.6 L 678.8,912.2 L 673.2,917.8 L 666.8,924.0 L 659.4,930.7 L 652.2,936.6 L 645.4,941.5 L 636.5,947.0 L 628.9,951.0 L 619.2,955.3 L 610.0,958.5 L 601.6,960.9 L 591.1,963.0 L 582.4,964.1 L 572.8,964.6 L 563.2,964.4 L 553.6,963.4 L 544.2,961.8 L 535.0,959.5 L 525.2,956.2 L 517.5,953.1 L 509.1,949.1 L 500.8,944.6 L 491.9,939.2 L 484.6,934.5 L 475.7,928.4 L 468.5,923.2 L 460.5,917.2 L 451.6,910.4 L 444.4,904.6 L 436.4,898.1 L 427.6,890.6 L 420.4,884.3 L 412.5,877.2 L 403.8,869.1 L 396.8,862.2 L 389.1,854.5 L 381.5,846.4 L 373.2,837.4 L 366.6,829.7 L 358.6,820.1 L 352.3,812.0 L 345.4,802.8 L 338.7,793.4 L 331.4,782.8 L 325.6,773.9 L 318.7,763.0 L 312.6,752.8 L 307.2,743.5 L 301.3,733.1 L 295.6,722.4 L 290.0,711.6 L 284.6,700.7 L 279.4,689.6 L 273.8,677.2 L 269.0,665.8 L 264.7,655.4 L 259.7,642.5 L 255.7,631.9 L 251.3,620.0 L 246.9,608.1 L 242.6,596.0 L 238.3,583.9 L 234.1,571.7 L 229.5,558.2 L 225.6,547.2 L 221.2,534.9 L 216.5,522.6 L 211.5,510.5 L 206.1,498.4 L 200.4,486.4 L 194.3,474.6 L 188.0,462.9 L 181.2,451.3 L 174.1,440.0 L 166.5,428.9 L 157.6,417.1 L 149.9,407.8 L 140.9,397.8 L 131.5,388.1 L 121.7,378.8 L 111.5,369.9 L 99.8,360.7 L 89.9,353.5 L 78.6,346.0 L 67.0,338.8 L 55.3,331.7 L 42.4,323.9 L 31.8,317.6 L 18.7,309.9 L 7.9,303.8 L -4.3,297.4 L -16.8,291.3 L -30.8,285.3 L -42.5,281.0 L -55.8,276.9 L -70.6,273.3 L -82.8,271.0 L -97.9,269.2 L -110.3,268.5 L -125.4,268.6 L -139.1,269.4 L -151.4,270.8 L -166.4,273.0 L -178.5,275.3 L -192.0,278.4 L -205.3,282.1 L -219.9,286.4 L -231.9,289.9 L -245.3,293.7 L -258.7,297.4 L -272.3,300.9 L -285.9,304.2 L -299.6,307.3 L -313.4,310.3 L -327.2,313.0 L -341.1,315.5 L -355.1,317.6 L -370.6,319.6 L -384.7,321.1 L -397.5,322.3 L -411.6,323.4 L -425.9,324.2 L -441.6,324.8 L -454.4,325.1 L -468.2,325.2 L -481.5,325.2 L -494.1,325.1 L -507.1,324.9 L -518.3,324.6 L -527.9,324.3 L -538.0,324.0 L -547.5,323.6 L -557.2,323.1 L -564.7,322.7 L -573.3,322.1 L -579.8,321.6 L -586.5,320.9 L -593.3,319.9 L -598.2,319.0 L -603.2,317.9 L -607.7,316.6 L -611.9,315.0 L -614.9,313.3 L -618.0,311.0 L -620.0,308.9 L -621.8,306.3 L -623.0,303.6 L -623.9,300.7 L -624.3,297.6 L -624.3,294.2 L -623.7,290.4 L -622.9,287.3 L -621.6,283.3 L -620.7,280.0 L -620.1,276.0 L -620.1,272.5 L -620.5,269.3 L -621.6,265.4 L -622.9,262.4 L -624.9,259.3 L -627.3,256.7 L -630.0,254.7 L -633.3,252.9 L -636.4,252.0 L -639.9,251.5 L -644.0,251.5 L -647.5,252.0 L -651.5,253.0 L -655.8,254.3 L -660.3,255.9 L -665.0,257.7 L -670.1,259.7 L -675.3,261.8 L -680.8,264.1 L -686.5,266.6 L -692.3,269.2 L -698.3,271.9 L -705.1,275.0 L -710.8,277.6 L -717.4,280.6 L -724.9,284.0 L -731.8,287.2 L -738.3,290.1 L -745.6,293.4 L -753.0,296.7 L -760.6,300.1 L -768.4,303.6 L -776.3,307.1 L -784.4,310.6 L -792.6,314.3 L -801.0,318.0 L -809.5,321.7 L -819.0,325.9 L -826.9,329.3 L -835.8,333.2 L -844.8,337.1 L -853.9,341.0 L -863.1,345.0 L -873.4,349.4 L -882.0,353.0 L -891.5,357.1 L -901.2,361.3" fill="none" stroke="#ffffff" stroke-opacity="0.92" stroke-width="14.9" stroke-linecap="round" stroke-linejoin="round"/>
<line x1="-963.1" y1="240.7" x2="-856.3" y2="487.1" stroke="#ffffff" stroke-width="20.9" stroke-linecap="round"/>
</svg>