<svg xmlns="http://www.w3.org/2000/svg" viewBox="-90.0 -90.0 1180.0 624.5">
<defs><linearGradient id="g" gradientUnits="userSpaceOnUse" x1="-31.0" y1="-58.8" x2="1031.0" y2="503.2">
<stop offset="0" stop-color="#1c9fe0"/><stop offset="1" stop-color="#0b1f44"/></linearGradient></defs>
<path d="M 998.8,62.2 L 997.5,56.4 L 995.9,50.7 L 993.7,45.2 L 991.2,39.9 L 988.1,34.8 L 984.7,29.9 L 980.9,25.3 L 976.8,21.0 L 972.4,17.0 L 967.8,13.4 L 962.8,10.1 L 957.6,7.3 L 952.2,4.9 L 946.5,3.1 L 940.7,1.8 L 934.9,0.9 L 929.0,0.4 L 923.1,0.1 L 917.1,0.0 L 911.2,0.0 L 905.2,0.0 L 899.3,0.0 L 893.4,0.0 L 887.4,0.0 L 881.5,0.0 L 875.6,0.0 L 869.6,0.0 L 863.8,0.6 L 858.4,3.0 L 853.8,6.8 L 849.6,10.9 L 845.2,15.0 L 840.8,19.0 L 835.6,21.6 L 829.7,22.0 L 823.8,22.0 L 817.8,22.0 L 811.9,22.0 L 806.0,22.0 L 800.0,22.0 L 794.2,20.8 L 789.0,18.2 L 784.4,14.4 L 780.1,10.3 L 775.8,6.2 L 771.1,2.6 L 765.7,0.3 L 759.8,0.0 L 753.8,0.0 L 747.9,0.0 L 742.0,0.0 L 736.0,0.0 L 730.1,0.0 L 724.2,0.0 L 718.2,0.0 L 712.3,0.0 L 706.4,0.0 L 700.4,0.0 L 694.5,0.0 L 688.6,0.0 L 682.6,0.0 L 676.7,0.0 L 670.8,0.0 L 664.8,0.0 L 658.9,0.0 L 653.0,0.0 L 647.0,0.0 L 641.1,0.0 L 635.2,0.0 L 629.2,0.0 L 623.3,0.0 L 617.4,0.0 L 611.4,0.0 L 605.5,0.0 L 599.6,0.0 L 593.6,0.0 L 587.7,0.0 L 581.8,0.0 L 575.8,0.0 L 569.9,0.0 L 564.0,0.0 L 558.0,0.0 L 552.1,0.0 L 546.2,0.0 L 540.2,0.0 L 534.3,0.0 L 528.4,0.0 L 522.4,0.0 L 516.5,0.0 L 510.6,0.0 L 504.6,0.0 L 498.7,0.0 L 492.8,0.0 L 486.8,0.0 L 480.9,0.0 L 475.0,0.0 L 469.0,0.0 L 463.1,0.0 L 457.2,0.0 L 451.2,0.0 L 445.3,0.0 L 439.4,0.0 L 433.4,0.0 L 427.5,0.0 L 421.6,0.0 L 415.6,0.1 L 409.7,0.3 L 403.8,0.7 L 397.9,1.2 L 392.0,1.9 L 386.1,2.8 L 380.3,3.9 L 374.5,5.2 L 368.8,6.7 L 363.1,8.4 L 357.5,10.3 L 351.9,12.2 L 346.3,14.4 L 340.8,16.6 L 335.4,19.0 L 330.0,21.6 L 324.7,24.2 L 319.5,27.1 L 314.4,30.0 L 309.4,33.2 L 304.5,36.6 L 299.7,40.1 L 295.1,43.8 L 290.5,47.6 L 286.1,51.5 L 281.8,55.6 L 277.6,59.8 L 273.5,64.1 L 269.5,68.5 L 265.5,72.9 L 261.6,77.3 L 257.6,81.8 L 253.7,86.3 L 249.8,90.7 L 245.8,95.0 L 241.7,99.3 L 237.4,103.4 L 232.9,107.3 L 228.3,111.1 L 223.6,114.7 L 218.7,118.0 L 213.7,121.2 L 208.5,124.0 L 203.1,126.6 L 197.7,128.8 L 192.1,130.8 L 186.3,132.4 L 180.6,133.7 L 174.7,134.9 L 168.9,135.7 L 163.0,136.4 L 157.1,137.0 L 151.2,137.4 L 145.2,138.0 L 139.3,138.6 L 133.5,139.4 L 127.6,140.4 L 121.8,141.6 L 116.1,143.1 L 110.4,144.9 L 104.9,147.0 L 99.4,149.3 L 94.0,151.8 L 88.8,154.6 L 83.6,157.5 L 78.7,160.8 L 73.9,164.3 L 69.3,168.0 L 64.9,172.0 L 60.7,176.2 L 56.8,180.7 L 53.1,185.3 L 49.8,190.2 L 46.7,195.3 L 44.0,200.6 L 41.6,206.0 L 39.5,211.5 L 37.6,217.2 L 35.9,222.9 L 34.3,228.6 L 32.8,234.3 L 31.2,240.0 L 29.7,245.8 L 28.1,251.5 L 26.6,257.2 L 25.1,263.0 L 23.5,268.7 L 22.0,274.4 L 20.4,280.1 L 18.9,285.9 L 17.3,291.6 L 15.8,297.3 L 14.3,303.1 L 12.7,308.8 L 11.2,314.5 L 9.6,320.2 L 8.1,326.0 L 6.5,331.7 L 5.7,334.8 L 4.8,338.0 L 3.5,343.5 L 2.0,350.4 L 0.7,358.1 L 0.0,365.7 L 0.2,372.5 L 1.4,378.3 L 3.6,383.8 L 6.9,388.8 L 11.0,393.0 L 16.0,396.1 L 21.7,397.9 L 27.5,398.8 L 33.4,399.5 L 39.3,400.2 L 45.2,401.0 L 51.1,401.7 L 57.0,402.4 L 62.9,403.1 L 68.7,403.8 L 74.6,404.6 L 80.5,405.3 L 86.4,406.0 L 92.3,406.7 L 98.2,407.4 L 104.1,408.1 L 110.0,408.8 L 115.9,409.5 L 121.8,410.1 L 127.7,410.8 L 133.6,411.5 L 139.5,412.2 L 145.4,412.8 L 151.3,413.5 L 157.1,414.2 L 163.0,414.8 L 168.9,415.5 L 174.8,416.1 L 180.7,416.8 L 186.6,417.4 L 192.5,418.1 L 198.4,418.7 L 204.3,419.4 L 210.2,420.0 L 216.1,420.6 L 222.0,421.3 L 227.9,421.9 L 233.8,422.6 L 239.7,423.2 L 245.6,423.9 L 251.5,424.5 L 257.4,425.2 L 263.3,425.8 L 269.2,426.5 L 275.1,427.1 L 281.0,427.7 L 286.9,428.4 L 292.8,429.0 L 298.7,429.7 L 304.6,430.3 L 310.5,431.0 L 316.4,431.6 L 322.3,432.2 L 328.2,432.9 L 334.1,433.5 L 340.0,434.2 L 345.9,434.8 L 351.8,435.5 L 357.7,436.1 L 363.6,436.7 L 369.5,437.4 L 375.4,438.0 L 381.3,438.7 L 387.2,439.3 L 393.1,440.0 L 399.0,440.6 L 404.9,441.2 L 410.8,441.9 L 416.7,442.5 L 422.5,443.2 L 428.5,443.8 L 434.4,444.3 L 440.3,444.5 L 446.2,444.0 L 452.0,442.7 L 457.6,440.8 L 463.0,438.3 L 468.1,435.3 L 472.9,431.8 L 477.4,427.9 L 481.4,423.5 L 484.7,418.7 L 487.3,413.4 L 489.1,407.7 L 490.2,401.9 L 490.9,396.0 L 491.4,390.1 L 492.0,384.2 L 492.6,378.3 L 493.3,372.4 L 493.9,366.5 L 494.5,360.6 L 495.1,354.7 L 495.8,348.8 L 496.4,342.9 L 497.0,337.0 L 497.6,331.1 L 498.2,325.2 L 498.8,319.3 L 499.3,313.4 L 499.9,307.5 L 500.5,301.5 L 501.0,295.6 L 501.5,289.6 L 502.0,283.6 L 502.7,277.8 L 503.6,272.0 L 504.9,266.3 L 506.6,260.8 L 508.8,255.5 L 511.8,250.3 L 515.5,245.3 L 519.6,241.0 L 524.1,237.1 L 529.0,233.8 L 534.2,231.0 L 539.7,228.8 L 545.4,227.1 L 551.2,225.8 L 557.1,224.7 L 562.9,223.7 L 568.7,222.6 L 574.6,221.6 L 580.4,220.5 L 586.2,219.5 L 592.1,218.5 L 597.9,217.4 L 603.8,216.4 L 609.6,215.3 L 615.4,214.3 L 621.3,213.2 L 627.1,212.2 L 633.0,211.1 L 638.8,210.1 L 644.6,209.0 L 650.5,208.0 L 656.3,206.9 L 662.2,205.9 L 668.0,204.8 L 673.8,203.8 L 679.7,202.7 L 685.5,201.7 L 691.4,200.6 L 697.2,199.6 L 703.0,198.6 L 708.9,197.5 L 714.7,196.5 L 720.6,195.4 L 726.4,194.4 L 732.2,193.3 L 738.1,192.3 L 743.9,191.2 L 749.7,190.2 L 755.6,189.1 L 761.4,188.1 L 767.3,187.0 L 773.1,186.0 L 778.9,184.9 L 784.8,183.9 L 790.6,182.8 L 796.5,181.8 L 802.3,180.7 L 808.1,179.7 L 814.0,178.7 L 819.8,177.6 L 825.7,176.6 L 831.5,175.5 L 837.3,174.5 L 843.2,173.4 L 849.0,172.4 L 854.9,171.3 L 860.7,170.3 L 866.5,169.2 L 872.4,168.2 L 878.2,167.1 L 884.1,166.1 L 889.9,165.0 L 895.7,164.0 L 901.6,162.9 L 907.4,161.9 L 913.3,160.8 L 919.1,159.8 L 924.9,158.8 L 930.8,157.7 L 936.6,156.3 L 942.3,154.7 L 947.8,152.7 L 953.3,150.4 L 958.6,147.7 L 963.5,144.5 L 968.3,140.9 L 973.0,137.2 L 977.3,133.2 L 981.3,128.8 L 985.0,124.2 L 988.3,119.2 L 991.2,114.1 L 993.8,108.7 L 995.9,103.2 L 997.6,97.5 L 998.8,91.7 L 999.6,85.8 L 1000.0,79.9 L 1000.0,73.9 L 999.6,68.0" fill="none" stroke="url(#g)" stroke-width="75.0" stroke-linecap="round" stroke-linejoin="round"/>
<path d="M 998.8,62.2 L 997.5,56.4 L 995.9,50.7 L 993.7,45.2 L 991.2,39.9 L 988.1,34.8 L 984.7,29.9 L 980.9,25.3 L 976.8,21.0 L 972.4,17.0 L 967.8,13.4 L 962.8,10.1 L 957.6,7.3 L 952.2,4.9 L 946.5,3.1 L 940.7,1.8 L 934.9,0.9 L 929.0,0.4 L 923.1,0.1 L 917.1,0.0 L 911.2,0.0 L 905.2,0.0 L 899.3,0.0 L 893.4,0.0 L 887.4,0.0 L 881.5,0.0 L 875.6,0.0 L 869.6,0.0 L 863.8,0.6 L 858.4,3.0 L 853.8,6.8 L 849.6,10.9 L 845.2,15.0 L 840.8,19.0 L 835.6,21.6 L 829.7,22.0 L 823.8,22.0 L 817.8,22.0 L 811.9,22.0 L 806.0,22.0 L 800.0,22.0 L 794.2,20.8 L 789.0,18.2 L 784.4,14.4 L 780.1,10.3 L 775.8,6.2 L 771.1,2.6 L 765.7,0.3 L 759.8,0.0 L 753.8,0.0 L 747.9,0.0 L 742.0,0.0 L 736.0,0.0 L 730.1,0.0 L 724.2,0.0 L 718.2,0.0 L 712.3,0.0 L 706.4,0.0 L 700.4,0.0 L 694.5,0.0 L 688.6,0.0 L 682.6,0.0 L 676.7,0.0 L 670.8,0.0 L 664.8,0.0 L 658.9,0.0 L 653.0,0.0 L 647.0,0.0 L 641.1,0.0 L 635.2,0.0 L 629.2,0.0 L 623.3,0.0 L 617.4,0.0 L 611.4,0.0 L 605.5,0.0 L 599.6,0.0 L 593.6,0.0 L 587.7,0.0 L 581.8,0.0 L 575.8,0.0 L 569.9,0.0 L 564.0,0.0 L 558.0,0.0 L 552.1,0.0 L 546.2,0.0 L 540.2,0.0 L 534.3,0.0 L 528.4,0.0 L 522.4,0.0 L 516.5,0.0 L 510.6,0.0 L 504.6,0.0 L 498.7,0.0 L 492.8,0.0 L 486.8,0.0 L 480.9,0.0 L 475.0,0.0 L 469.0,0.0 L 463.1,0.0 L 457.2,0.0 L 451.2,0.0 L 445.3,0.0 L 439.4,0.0 L 433.4,0.0 L 427.5,0.0 L 421.6,0.0 L 415.6,0.1 L 409.7,0.3 L 403.8,0.7 L 397.9,1.2 L 392.0,1.9 L 386.1,2.8 L 380.3,3.9 L 374.5,5.2 L 368.8,6.7 L 363.1,8.4 L 357.5,10.3 L 351.9,12.2 L 346.3,14.4 L 340.8,16.6 L 335.4,19.0 L 330.0,21.6 L 324.7,24.2 L 319.5,27.1 L 314.4,30.0 L 309.4,33.2 L 304.5,36.6 L 299.7,40.1 L 295.1,43.8 L 290.5,47.6 L 286.1,51.5 L 281.8,55.6 L 277.6,59.8 L 273.5,64.1 L 269.5,68.5 L 265.5,72.9 L 261.6,77.3 L 257.6,81.8 L 253.7,86.3 L 249.8,90.7 L 245.8,95.0 L 241.7,99.3 L 237.4,103.4 L 232.9,107.3 L 228.3,111.1 L 223.6,114.7 L 218.7,118.0 L 213.7,121.2 L 208.5,124.0 L 203.1,126.6 L 197.7,128.8 L 192.1,130.8 L 186.3,132.4 L 180.6,133.7 L 174.7,134.9 L 168.9,135.7 L 163.0,136.4 L 157.1,137.0 L 151.2,137.4 L 145.2,138.0 L 139.3,138.6 L 133.5,139.4 L 127.6,140.4 L 121.8,141.6 L 116.1,143.1 L 110.4,144.9 L 104.9,147.0 L 99.4,149.3 L 94.0,151.8 L 88.8,154.6 L 83.6,157.5 L 78.7,160.8 L 73.9,164.3 L 69.3,168.0 L 64.9,172.0 L 60.7,176.2 L 56.8,180.7 L 53.1,185.3 L 49.8,190.2 L 46.7,195.3 L 44.0,200.6 L 41.6,206.0 L 39.5,211.5 L 37.6,217.2 L 35.9,222.9 L 34.3,228.6 L 32.8,234.3 L 31.2,240.0 L 29.7,245.8 L 28.1,251.5 L 26.6,257.2 L 25.1,263.0 L 23.5,268.7 L 22.0,274.4 L 20.4,280.1 L 18.9,285.9 L 17.3,291.6 L 15.8,297.3 L 14.3,303.1 L 12.7,308.8 L 11.2,314.5 L 9.6,320.2 L 8.1,326.0 L 6.5,331.7 L 5.7,334.8 L 4.8,338.0 L 3.5,343.5 L 2.0,350.4 L 0.7,358.1 L 0.0,365.7 L 0.2,372.5 L 1.4,378.3 L 3.6,383.8 L 6.9,388.8 L 11.0,393.0 L 16.0,396.1 L 21.7,397.9 L 27.5,398.8 L 33.4,399.5 L 39.3,400.2 L 45.2,401.0 L 51.1,401.7 L 57.0,402.4 L 62.9,403.1 L 68.7,403.8 L 74.6,404.6 L 80.5,405.3 L 86.4,406.0 L 92.3,406.7 L 98.2,407.4 L 104.1,408.1 L 110.0,408.8 L 115.9,409.5 L 121.8,410.1 L 127.7,410.8 L 133.6,411.5 L 139.5,412.2 L 145.4,412.8 L 151.3,413.5 L 157.1,414.2 L 163.0,414.8 L 168.9,415.5 L 174.8,416.1 L 180.7,416.8 L 186.6,417.4 L 192.5,418.1 L 198.4,418.7 L 204.3,419.4 L 210.2,420.0 L 216.1,420.6 L 222.0,421.3 L 227.9,421.9 L 233.8,422.6 L 239.7,423.2 L 245.6,423.9 L 251.5,424.5 L 257.4,425.2 L 263.3,425.8 L 269.2,426.5 L 275.1,427.1 L 281.0,427.7 L 286.9,428.4 L 292.8,429.0 L 298.7,429.7 L 304.6,430.3 L 310.5,431.0 L 316.4,431.6 L 322.3,432.2 L 328.2,432.9 L 334.1,433.5 L 340.0,434.2 L 345.9,434.8 L 351.8,435.5 L 357.7,436.1 L 363.6,436.7 L 369.5,437.4 L 375.4,438.0 L 381.3,438.7 L 387.2,439.3 L 393.1,440.0 L 399.0,440.6 L 404.9,441.2 L 410.8,441.9 L 416.7,442.5 L 422.5,443.2 L 428.5,443.8 L 434.4,444.3 L 440.3,444.5 L 446.2,444.0 L 452.0,442.7 L 457.6,440.8 L 463.0,438.3 L 468.1,435.3 L 472.9,431.8 L 477.4,427.9 L 481.4,423.5 L 484.7,418.7 L 487.3,413.4 L 489.1,407.7 L 490.2,401.9 L 490.9,396.0 L 491.4,390.1 L 492.0,384.2 L 492.6,378.3 L 493.3,372.4 L 493.9,366.5 L 494.5,360.6 L 495.1,354.7 L 495.8,348.8 L 496.4,342.9 L 497.0,337.0 L 497.6,331.1 L 498.2,325.2 L 498.8,319.3 L 499.3,313.4 L 499.9,307.5 L 500.5,301.5 L 501.0,295.6 L 501.5,289.6 L 502.0,283.6 L 502.7,277.8 L 503.6,272.0 L 504.9,266.3 L 506.6,260.8 L 508.8,255.5 L 511.8,250.3 L 515.5,245.3 L 519.6,241.0 L 524.1,237.1 L 529.0,233.8 L 534.2,231.0 L 539.7,228.8 L 545.4,227.1 L 551.2,225.8 L 557.1,224.7 L 562.9,223.7 L 568.7,222.6 L 574.6,221.6 L 580.4,220.5 L 586.2,219.5 L 592.1,218.5 L 597.9,217.4 L 603.8,216.4 L 609.6,215.3 L 615.4,214.3 L 621.3,213.2 L 627.1,212.2 L 633.0,211.1 L 638.8,210.1 L 644.6,209.0 L 650.5,208.0 L 656.3,206.9 L 662.2,205.9 L 668.0,204.8 L 673.8,203.8 L 679.7,202.7 L 685.5,201.7 L 691.4,200.6 L 697.2,199.6 L 703.0,198.6 L 708.9,197.5 L 714.7,196.5 L 720.6,195.4 L 726.4,194.4 L 732.2,193.3 L 738.1,192.3 L 743.9,191.2 L 749.7,190.2 L 755.6,189.1 L 761.4,188.1 L 767.3,187.0 L 773.1,186.0 L 778.9,184.9 L 784.8,183.9 L 790.6,182.8 L 796.5,181.8 L 802.3,180.7 L 808.1,179.7 L 814.0,178.7 L 819.8,177.6 L 825.7,176.6 L 831.5,175.5 L 837.3,174.5 L 843.2,173.4 L 849.0,172.4 L 854.9,171.3 L 860.7,170.3 L 866.5,169.2 L 872.4,168.2 L 878.2,167.1 L 884.1,166.1 L 889.9,165.0 L 895.7,164.0 L 901.6,162.9 L 907.4,161.9 L 913.3,160.8 L 919.1,159.8 L 924.9,158.8 L 930.8,157.7 L 936.6,156.3 L 942.3,154.7 L 947.8,152.7 L 953.3,150.4 L 958.6,147.7 L 963.5,144.5 L 968.3,140.9 L 973.0,137.2 L 977.3,133.2 L 981.3,128.8 L 985.0,124.2 L 988.3,119.2 L 991.2,114.1 L 993.8,108.7 L 995.9,103.2 L 997.6,97.5 L 998.8,91.7 L 999.6,85.8 L 1000.0,79.9 L 1000.0,73.9 L 999.6,68.0" fill="none" stroke="#ffffff" stroke-opacity="0.92" stroke-width="7.5" stroke-linecap="round" stroke-linejoin="round"/>
<line x1="934.0" y1="81.3" x2="1063.5" y2="43.1" stroke="#ffffff" stroke-width="10.5" stroke-linecap="round"/>
</svg>
