<svg xmlns="http://www.w3.org/2000/svg" viewBox="-90.0 -90.0 1180.0 1159.9">
<defs><linearGradient id="g" gradientUnits="userSpaceOnUse" x1="-31.0" y1="-32.0" x2="1031.0" y2="1011.9">
<stop offset="0" stop-color="#1c9fe0"/><stop offset="1" stop-color="#0b1f44"/></linearGradient></defs>
<path d="M 383.7,977.5 L 393.6,979.0 L 403.5,979.7 L 413.4,979.9 L 423.4,979.9 L 433.3,979.8 L 443.2,979.7 L 453.2,979.6 L 463.2,979.5 L 473.1,979.4 L 483.1,979.3 L 493.1,979.1 L 503.1,979.0 L 513.1,978.7 L 523.0,978.5 L 533.0,978.2 L 543.0,977.8 L 552.9,977.3 L 562.8,976.8 L 572.7,976.2 L 582.6,975.5 L 592.5,974.7 L 602.3,973.8 L 612.1,972.8 L 621.9,971.1 L 631.6,968.8 L 641.1,966.0 L 650.5,962.7 L 659.8,959.0 L 668.9,954.9 L 678.1,950.7 L 687.1,946.4 L 696.2,942.1 L 705.1,937.8 L 714.1,933.5 L 723.0,929.1 L 731.8,924.8 L 740.7,920.3 L 749.5,915.9 L 758.3,911.4 L 767.0,906.9 L 775.8,902.3 L 784.6,897.7 L 793.4,893.1 L 802.2,888.5 L 811.0,883.8 L 819.9,879.1 L 828.7,874.3 L 837.1,868.8 L 844.4,861.7 L 849.1,853.5 L 851.7,843.6 L 851.4,833.9 L 849.1,824.3 L 845.4,815.0 L 839.9,806.9 L 832.8,799.6 L 824.7,793.5 L 816.1,789.9 L 806.1,788.9 L 795.8,790.3 L 787.0,793.9 L 779.1,799.5 L 771.8,806.0 L 764.9,813.1 L 758.0,820.4 L 750.9,827.6 L 743.3,834.3 L 735.3,840.2 L 727.1,845.9 L 718.8,851.4 L 710.4,856.7 L 701.8,861.8 L 693.0,866.6 L 684.2,871.2 L 675.2,875.4 L 666.1,879.3 L 656.8,882.9 L 647.4,886.2 L 637.9,889.3 L 628.4,892.1 L 618.7,894.7 L 609.0,897.0 L 599.3,899.3 L 589.6,901.4 L 580.0,903.3 L 570.3,904.9 L 560.3,904.4 L 550.4,902.1 L 541.5,898.7 L 533.8,893.0 L 526.8,885.0 L 521.6,876.2 L 518.8,867.0 L 516.3,857.2 L 513.9,847.5 L 511.5,837.8 L 509.3,828.2 L 507.1,818.5 L 505.0,808.9 L 502.9,799.2 L 500.9,789.6 L 498.9,780.0 L 497.0,770.4 L 495.2,760.7 L 493.3,751.1 L 491.5,741.4 L 489.7,731.8 L 487.9,722.1 L 486.1,712.3 L 484.3,702.6 L 482.5,692.8 L 480.7,682.9 L 478.8,673.0 L 476.9,663.1 L 475.0,653.1 L 473.0,643.0 L 471.9,633.2 L 472.5,623.1 L 474.4,613.2 L 477.3,603.8 L 481.6,595.2 L 487.8,587.3 L 495.5,580.8 L 503.9,575.3 L 512.5,569.9 L 521.0,564.6 L 529.5,559.3 L 537.9,554.2 L 546.4,549.1 L 554.9,544.0 L 563.4,539.1 L 571.9,534.2 L 580.4,529.3 L 589.0,524.6 L 597.6,519.8 L 606.3,515.1 L 615.0,510.5 L 623.9,505.8 L 632.8,501.2 L 641.7,496.7 L 650.8,492.1 L 659.2,488.2 L 668.1,484.7 L 677.8,481.3 L 687.9,478.2 L 698.2,475.4 L 708.3,472.9 L 717.9,470.8 L 726.8,469.1 L 736.9,467.3 L 746.9,465.5 L 756.8,463.8 L 766.6,462.2 L 776.4,460.6 L 786.2,459.0 L 795.9,457.4 L 805.6,455.9 L 815.3,454.4 L 824.9,452.9 L 834.6,451.4 L 844.2,449.9 L 853.9,448.4 L 863.6,446.9 L 873.3,445.4 L 883.0,443.9 L 892.8,442.4 L 902.6,440.9 L 912.5,439.3 L 922.5,437.8 L 932.5,436.1 L 942.6,434.5 L 952.6,432.7 L 961.8,429.3 L 970.5,424.1 L 978.5,417.7 L 985.6,410.8 L 991.7,403.5 L 996.0,394.6 L 998.5,384.7 L 999.6,376.1 L 1000.0,367.2 L 999.3,356.8 L 996.9,346.1 L 992.1,336.5 L 986.7,327.6 L 981.4,318.8 L 976.1,310.1 L 970.7,301.4 L 965.4,292.8 L 960.0,284.3 L 954.7,275.8 L 949.3,267.4 L 944.0,259.0 L 938.6,250.7 L 933.3,242.4 L 927.9,234.1 L 922.5,225.9 L 917.2,217.7 L 911.8,209.5 L 906.4,201.4 L 901.0,193.3 L 895.5,185.2 L 890.1,177.1 L 884.7,169.0 L 879.2,161.0 L 873.7,152.9 L 868.2,144.9 L 862.7,136.8 L 857.2,128.7 L 851.6,120.7 L 846.1,112.6 L 840.5,104.5 L 834.9,96.4 L 829.2,88.2 L 823.6,80.1 L 817.9,71.9 L 812.2,63.6 L 806.4,55.4 L 800.7,47.1 L 794.9,38.8 L 789.1,30.4 L 783.2,22.0 L 777.5,13.9 L 769.6,7.8 L 759.8,3.4 L 750.5,2.1 L 740.6,1.5 L 730.7,1.0 L 720.8,0.6 L 710.8,0.3 L 700.9,0.2 L 690.9,0.1 L 680.9,0.0 L 671.0,0.0 L 661.6,0.0 L 651.5,0.2 L 640.9,0.8 L 630.5,1.9 L 621.0,3.8 L 611.9,6.9 L 602.3,10.3 L 593.0,13.9 L 583.7,17.6 L 574.6,21.3 L 565.5,25.1 L 556.6,29.0 L 547.6,32.9 L 538.7,36.9 L 529.8,41.0 L 520.9,45.0 L 511.9,49.1 L 502.9,53.1 L 493.8,57.2 L 484.5,61.2 L 475.1,65.2 L 465.7,69.2 L 456.4,72.9 L 447.1,76.5 L 437.8,80.0 L 428.5,83.5 L 419.2,87.1 L 409.9,90.6 L 400.6,94.3 L 391.5,98.1 L 382.4,102.1 L 373.4,106.4 L 364.7,111.1 L 356.1,116.3 L 347.7,121.8 L 339.2,127.3 L 330.7,132.5 L 322.1,137.4 L 313.2,141.5 L 303.9,144.9 L 294.1,147.6 L 284.3,149.7 L 274.6,151.4 L 264.8,152.7 L 255.1,153.8 L 245.3,154.9 L 235.4,156.0 L 225.6,157.4 L 215.7,159.1 L 208.0,162.7 L 202.0,170.9 L 201.7,181.4 L 204.8,190.8 L 207.8,200.5 L 208.1,209.9 L 205.7,219.9 L 201.2,229.5 L 195.0,236.6 L 186.6,242.8 L 178.4,248.3 L 170.3,253.5 L 162.0,258.3 L 153.4,262.9 L 144.3,267.4 L 135.0,271.7 L 125.7,275.3 L 116.2,278.4 L 106.7,281.3 L 97.3,284.4 L 88.0,287.9 L 79.0,292.2 L 70.4,297.2 L 62.2,302.9 L 54.3,309.2 L 47.1,316.1 L 40.5,323.4 L 34.5,331.1 L 29.1,339.4 L 24.3,348.2 L 20.3,357.4 L 17.4,366.9 L 15.6,376.6 L 15.2,386.0 L 16.7,395.8 L 19.7,405.9 L 23.9,415.3 L 29.1,423.3 L 35.3,431.2 L 41.5,439.1 L 47.8,446.8 L 54.1,454.4 L 60.5,462.0 L 66.9,469.5 L 73.3,477.0 L 79.8,484.4 L 86.3,491.8 L 92.9,499.1 L 99.4,506.5 L 106.0,513.8 L 112.6,521.1 L 119.2,528.5 L 125.9,535.9 L 132.5,543.3 L 139.1,550.8 L 145.7,558.3 L 152.3,565.9 L 158.9,573.6 L 165.5,581.3 L 171.9,589.1 L 177.9,597.5 L 183.0,606.5 L 186.4,615.6 L 187.2,624.6 L 185.0,633.8 L 180.7,643.0 L 175.2,651.8 L 169.3,660.1 L 163.3,668.3 L 157.3,676.4 L 151.2,684.4 L 145.1,692.4 L 139.1,700.4 L 133.0,708.3 L 126.8,716.1 L 120.7,723.9 L 114.6,731.7 L 108.4,739.5 L 102.3,747.2 L 96.1,754.9 L 89.9,762.6 L 83.8,770.3 L 77.6,778.0 L 71.5,785.7 L 65.3,793.4 L 59.2,801.1 L 53.0,808.8 L 46.9,816.6 L 40.8,824.4 L 34.7,832.2 L 28.6,840.1 L 22.5,848.0 L 16.5,856.0 L 10.4,864.0 L 3.9,873.3 L 0.0,883.4 L 0.1,892.3 L 4.1,899.8 L 10.2,903.2 L 19.7,905.1 L 31.0,906.2 L 42.3,907.4 L 52.7,909.3 L 62.9,911.5 L 73.1,913.6 L 83.2,915.8 L 93.1,917.9 L 103.0,920.0 L 112.8,922.1 L 122.5,924.1 L 132.1,926.2 L 141.7,928.2 L 151.2,930.2 L 160.7,932.2 L 170.1,934.2 L 179.5,936.1 L 188.9,938.1 L 198.3,940.0 L 207.7,942.0 L 217.0,943.9 L 226.4,945.8 L 235.8,947.8 L 245.2,949.7 L 254.6,951.6 L 264.1,953.5 L 273.7,955.5 L 283.2,957.4 L 292.9,959.4 L 302.6,961.3 L 312.4,963.3 L 322.3,965.3 L 332.2,967.3 L 342.3,969.3 L 352.5,971.3 L 362.8,973.3 L 373.2,975.4" fill="none" stroke="url(#g)" stroke-width="75.0" stroke-linecap="round" stroke-linejoin="round"/>
<path d="M 383.7,977.5 L 393.6,979.0 L 403.5,979.7 L 413.4,979.9 L 423.4,979.9 L 433.3,979.8 L 443.2,979.7 L 453.2,979.6 L 463.2,979.5 L 473.1,979.4 L 483.1,979.3 L 493.1,979.1 L 503.1,979.0 L 513.1,978.7 L 523.0,978.5 L 533.0,978.2 L 543.0,977.8 L 552.9,977.3 L 562.8,976.8 L 572.7,976.2 L 582.6,975.5 L 592.5,974.7 L 602.3,973.8 L 612.1,972.8 L 621.9,971.1 L 631.6,968.8 L 641.1,966.0 L 650.5,962.7 L 659.8,959.0 L 668.9,954.9 L 678.1,950.7 L 687.1,946.4 L 696.2,942.1 L 705.1,937.8 L 714.1,933.5 L 723.0,929.1 L 731.8,924.8 L 740.7,920.3 L 749.5,915.9 L 758.3,911.4 L 767.0,906.9 L 775.8,902.3 L 784.6,897.7 L 793.4,893.1 L 802.2,888.5 L 811.0,883.8 L 819.9,879.1 L 828.7,874.3 L 837.1,868.8 L 844.4,861.7 L 849.1,853.5 L 851.7,843.6 L 851.4,833.9 L 849.1,824.3 L 845.4,815.0 L 839.9,806.9 L 832.8,799.6 L 824.7,793.5 L 816.1,789.9 L 806.1,788.9 L 795.8,790.3 L 787.0,793.9 L 779.1,799.5 L 771.8,806.0 L 764.9,813.1 L 758.0,820.4 L 750.9,827.6 L 743.3,834.3 L 735.3,840.2 L 727.1,845.9 L 718.8,851.4 L 710.4,856.7 L 701.8,861.8 L 693.0,866.6 L 684.2,871.2 L 675.2,875.4 L 666.1,879.3 L 656.8,882.9 L 647.4,886.2 L 637.9,889.3 L 628.4,892.1 L 618.7,894.7 L 609.0,897.0 L 599.3,899.3 L 589.6,901.4 L 580.0,903.3 L 570.3,904.9 L 560.3,904.4 L 550.4,902.1 L 541.5,898.7 L 533.8,893.0 L 526.8,885.0 L 521.6,876.2 L 518.8,867.0 L 516.3,857.2 L 513.9,847.5 L 511.5,837.8 L 509.3,828.2 L 507.1,818.5 L 505.0,808.9 L 502.9,799.2 L 500.9,789.6 L 498.9,780.0 L 497.0,770.4 L 495.2,760.7 L 493.3,751.1 L 491.5,741.4 L 489.7,731.8 L 487.9,722.1 L 486.1,712.3 L 484.3,702.6 L 482.5,692.8 L 480.7,682.9 L 478.8,673.0 L 476.9,663.1 L 475.0,653.1 L 473.0,643.0 L 471.9,633.2 L 472.5,623.1 L 474.4,613.2 L 477.3,603.8 L 481.6,595.2 L 487.8,587.3 L 495.5,580.8 L 503.9,575.3 L 512.5,569.9 L 521.0,564.6 L 529.5,559.3 L 537.9,554.2 L 546.4,549.1 L 554.9,544.0 L 563.4,539.1 L 571.9,534.2 L 580.4,529.3 L 589.0,524.6 L 597.6,519.8 L 606.3,515.1 L 615.0,510.5 L 623.9,505.8 L 632.8,501.2 L 641.7,496.7 L 650.8,492.1 L 659.2,488.2 L 668.1,484.7 L 677.8,481.3 L 687.9,478.2 L 698.2,475.4 L 708.3,472.9 L 717.9,470.8 L 726.8,469.1 L 736.9,467.3 L 746.9,465.5 L 756.8,463.8 L 766.6,462.2 L 776.4,460.6 L 786.2,459.0 L 795.9,457.4 L 805.6,455.9 L 815.3,454.4 L 824.9,452.9 L 834.6,451.4 L 844.2,449.9 L 853.9,448.4 L 863.6,446.9 L 873.3,445.4 L 883.0,443.9 L 892.8,442.4 L 902.6,440.9 L 912.5,439.3 L 922.5,437.8 L 932.5,436.1 L 942.6,434.5 L 952.6,432.7 L 961.8,429.3 L 970.5,424.1 L 978.5,417.7 L 985.6,410.8 L 991.7,403.5 L 996.0,394.6 L 998.5,384.7 L 999.6,376.1 L 1000.0,367.2 L 999.3,356.8 L 996.9,346.1 L 992.1,336.5 L 986.7,327.6 L 981.4,318.8 L 976.1,310.1 L 970.7,301.4 L 965.4,292.8 L 960.0,284.3 L 954.7,275.8 L 949.3,267.4 L 944.0,259.0 L 938.6,250.7 L 933.3,242.4 L 927.9,234.1 L 922.5,225.9 L 917.2,217.7 L 911.8,209.5 L 906.4,201.4 L 901.0,193.3 L 895.5,185.2 L 890.1,177.1 L 884.7,169.0 L 879.2,161.0 L 873.7,152.9 L 868.2,144.9 L 862.7,136.8 L 857.2,128.7 L 851.6,120.7 L 846.1,112.6 L 840.5,104.5 L 834.9,96.4 L 829.2,88.2 L 823.6,80.1 L 817.9,71.9 L 812.2,63.6 L 806.4,55.4 L 800.7,47.1 L 794.9,38.8 L 789.1,30.4 L 783.2,22.0 L 777.5,13.9 L 769.6,7.8 L 759.8,3.4 L 750.5,2.1 L 740.6,1.5 L 730.7,1.0 L 720.8,0.6 L 710.8,0.3 L 700.9,0.2 L 690.9,0.1 L 680.9,0.0 L 671.0,0.0 L 661.6,0.0 L 651.5,0.2 L 640.9,0.8 L 630.5,1.9 L 621.0,3.8 L 611.9,6.9 L 602.3,10.3 L 593.0,13.9 L 583.7,17.6 L 574.6,21.3 L 565.5,25.1 L 556.6,29.0 L 547.6,32.9 L 538.7,36.9 L 529.8,41.0 L 520.9,45.0 L 511.9,49.1 L 502.9,53.1 L 493.8,57.2 L 484.5,61.2 L 475.1,65.2 L 465.7,69.2 L 456.4,72.9 L 447.1,76.5 L 437.8,80.0 L 428.5,83.5 L 419.2,87.1 L 409.9,90.6 L 400.6,94.3 L 391.5,98.1 L 382.4,102.1 L 373.4,106.4 L 364.7,111.1 L 356.1,116.3 L 347.7,121.8 L 339.2,127.3 L 330.7,132.5 L 322.1,137.4 L 313.2,141.5 L 303.9,144.9 L 294.1,147.6 L 284.3,149.7 L 274.6,151.4 L 264.8,152.7 L 255.1,153.8 L 245.3,154.9 L 235.4,156.0 L 225.6,157.4 L 215.7,159.1 L 208.0,162.7 L 202.0,170.9 L 201.7,181.4 L 204.8,190.8 L 207.8,200.5 L 208.1,209.9 L 205.7,219.9 L 201.2,229.5 L 195.0,236.6 L 186.6,242.8 L 178.4,248.3 L 170.3,253.5 L 162.0,258.3 L 153.4,262.9 L 144.3,267.4 L 135.0,271.7 L 125.7,275.3 L 116.2,278.4 L 106.7,281.3 L 97.3,284.4 L 88.0,287.9 L 79.0,292.2 L 70.4,297.2 L 62.2,302.9 L 54.3,309.2 L 47.1,316.1 L 40.5,323.4 L 34.5,331.1 L 29.1,339.4 L 24.3,348.2 L 20.3,357.4 L 17.4,366.9 L 15.6,376.6 L 15.2,386.0 L 16.7,395.8 L 19.7,405.9 L 23.9,415.3 L 29.1,423.3 L 35.3,431.2 L 41.5,439.1 L 47.8,446.8 L 54.1,454.4 L 60.5,462.0 L 66.9,469.5 L 73.3,477.0 L 79.8,484.4 L 86.3,491.8 L 92.9,499.1 L 99.4,506.5 L 106.0,513.8 L 112.6,521.1 L 119.2,528.5 L 125.9,535.9 L 132.5,543.3 L 139.1,550.8 L 145.7,558.3 L 152.3,565.9 L 158.9,573.6 L 165.5,581.3 L 171.9,589.1 L 177.9,597.5 L 183.0,606.5 L 186.4,615.6 L 187.2,624.6 L 185.0,633.8 L 180.7,643.0 L 175.2,651.8 L 169.3,660.1 L 163.3,668.3 L 157.3,676.4 L 151.2,684.4 L 145.1,692.4 L 139.1,700.4 L 133.0,708.3 L 126.8,716.1 L 120.7,723.9 L 114.6,731.7 L 108.4,739.5 L 102.3,747.2 L 96.1,754.9 L 89.9,762.6 L 83.8,770.3 L 77.6,778.0 L 71.5,785.7 L 65.3,793.4 L 59.2,801.1 L 53.0,808.8 L 46.9,816.6 L 40.8,824.4 L 34.7,832.2 L 28.6,840.1 L 22.5,848.0 L 16.5,856.0 L 10.4,864.0 L 3.9,873.3 L 0.0,883.4 L 0.1,892.3 L 4.1,899.8 L 10.2,903.2 L 19.7,905.1 L 31.0,906.2 L 42.3,907.4 L 52.7,909.3 L 62.9,911.5 L 73.1,913.6 L 83.2,915.8 L 93.1,917.9 L 103.0,920.0 L 112.8,922.1 L 122.5,924.1 L 132.1,926.2 L 141.7,928.2 L 151.2,930.2 L 160.7,932.2 L 170.1,934.2 L 179.5,936.1 L 188.9,938.1 L 198.3,940.0 L 207.7,942.0 L 217.0,943.9 L 226.4,945.8 L 235.8,947.8 L 245.2,949.7 L 254.6,951.6 L 264.1,953.5 L 273.7,955.5 L 283.2,957.4 L 292.9,959.4 L 302.6,961.3 L 312.4,963.3 L 322.3,965.3 L 332.2,967.3 L 342.3,969.3 L 352.5,971.3 L 362.8,973.3 L 373.2,975.4" fill="none" stroke="#ffffff" stroke-opacity="0.92" stroke-width="7.5" stroke-linecap="round" stroke-linejoin="round"/>
<line x1="389.3" y1="910.2" x2="378.2" y2="1044.8" stroke="#ffffff" stroke-width="10.5" stroke-linecap="round"/>
</svg>
