<?xml version="1.0" encoding="UTF-8"?>
<!-- Generator: visioncortex VTracer 0.6.12 -->
<svg version="1.1" xmlns="http://www.w3.org/2000/svg" width="600" height="488" viewBox="0 0 600 488">
<rect x="0" y="0" width="600" height="488" rx="78" ry="78" fill="#009639"/>
<path d="M0 0 C0.4293 0.0351 0.4293 0.0351 2.6016 0.2129 C10.1533 0.939 14.8746 3.3944 20.75 8.1875 C21.3958 8.4762 22.0416 8.765 22.707 9.0625 C25.1568 10.4115 26.2187 11.8427 27.8125 14.125 C30.5551 18.017 30.5551 18.017 32.3086 19.5508 C34.4026 21.9285 34.9034 24.4038 35.75 27.4375 C37.8316 34.6313 37.8316 34.6313 39.4375 38.0625 C45.871 53.3803 42.8453 75.395 43 91.6875 C43.0214 92.8795 43.0427 94.0715 43.0647 95.2996 C43.0691 96.4073 43.0736 97.515 43.0781 98.6562 C43.0875 99.6301 43.0968 100.604 43.1064 101.6074 C42.6935 104.5964 41.7384 105.9642 39.75 108.1875 C35.1667 108.2455 30.5835 108.2811 26 108.3125 C24.698 108.3293 23.3961 108.346 22.0547 108.3633 C20.8043 108.3697 19.5539 108.3762 18.2656 108.3828 C17.1135 108.3933 15.9614 108.4038 14.7744 108.4146 C11.8258 108.1932 10.1833 107.8234 7.75 106.1875 C6.575 103.8374 6.6073 102.3969 6.5764 99.7764 C6.5629 98.8607 6.5494 97.9451 6.5355 97.0016 C6.5303 96.5038 6.5303 96.5038 6.5039 93.9844 C6.4709 91.8672 6.4377 89.75 6.4043 87.6328 C6.3572 84.3024 6.3129 80.9721 6.2732 77.6416 C5.9107 48.6697 5.9107 48.6697 2.75 39.1875 C1.4312 38.4925 0.096 37.8282 -1.25 37.1875 C-2.2239 36.1604 -3.1818 35.1179 -4.125 34.0625 C-8.5329 30.2506 -13.0029 30.1711 -18.6602 30.3945 C-26.1938 32.0586 -32.0598 37.8663 -36.25 44.1875 C-45.4267 75.1239 -40.5616 112.8113 -40.5071 144.8167 C-40.4996 149.7704 -40.5023 154.724 -40.5107 159.6777 C-40.6713 256.7205 -40.6713 256.7205 -31.8125 266.4375 C-31.03 267.3295 -30.2476 268.2216 -29.4414 269.1406 C-25.5547 272.771 -21.4129 272.4012 -16.375 272.4375 C-15.6673 272.4581 -14.9596 272.4787 -14.2305 272.5 C-8.5057 272.5426 -5.5655 271.2006 -1.3359 267.5234 C4.3114 261.0509 5.4225 254.0233 6.4194 245.7822 C6.6606 243.8891 6.9396 242.0007 7.2407 240.1162 C8.8841 229.3528 9.2289 218.6599 9.438 207.7871 C9.5005 204.6649 9.5835 201.5436 9.668 198.4219 C9.7122 196.4167 9.7552 194.4115 9.7969 192.4062 C9.8228 191.4832 9.8487 190.5602 9.8754 189.6093 C9.9576 184.3858 9.6152 180.0928 7.75 175.1875 C3.1144 171.1334 -2.2023 171.7426 -8.0703 171.5938 C-11.25 171.1875 -11.25 171.1875 -12.908 169.9451 C-15.4733 166.5855 -15.0053 162.3374 -15.1875 158.25 C-15.2552 157.3431 -15.3229 156.4363 -15.3926 155.502 C-15.4371 154.626 -15.4815 153.7501 -15.5273 152.8477 C-15.5711 152.0498 -15.6148 151.252 -15.6599 150.4299 C-15.0821 147.2692 -13.704 146.2063 -11.25 144.1875 C-8.8328 143.7065 -8.8328 143.7065 -6.1143 143.7334 C-5.6039 143.7335 -5.6039 143.7335 -3.0211 143.7343 C-1.9261 143.755 -0.8312 143.7756 0.2969 143.7969 C1.4232 143.8025 2.5496 143.8082 3.71 143.814 C7.3071 143.8364 10.9032 143.8866 14.5 143.9375 C16.9388 143.9576 19.3776 143.9758 21.8164 143.9922 C27.7946 144.0363 33.7722 144.1032 39.75 144.1875 C42.8229 147.549 43.1249 149.8466 43.1242 154.3429 C43.1312 155.6062 43.1383 156.8695 43.1455 158.1711 C43.138 159.5685 43.1303 160.966 43.1223 162.3635 C43.1247 163.8371 43.1285 165.3106 43.1334 166.7841 C43.1428 170.7841 43.1334 174.7837 43.12 178.7836 C43.1087 182.9676 43.1128 187.1516 43.1148 191.3356 C43.1157 198.3609 43.1046 205.3861 43.0862 212.4114 C43.065 220.5378 43.0615 228.664 43.0677 236.7905 C43.0734 244.6041 43.0678 252.4177 43.0566 260.2313 C43.0519 263.5586 43.0511 266.8859 43.0532 270.2132 C43.055 274.1292 43.0469 278.0451 43.0311 281.9611 C43.0268 283.3999 43.026 284.8387 43.0288 286.2774 C43.032 288.238 43.0217 290.1985 43.0107 292.1591 C43.0097 292.7082 43.0097 292.7082 43.0045 295.4869 C42.75 298.1875 42.75 298.1875 40.75 301.1875 C38.6887 301.2961 36.6257 301.3734 34.5625 301.4375 C33.4139 301.4839 32.2654 301.5303 31.082 301.5781 C27.0583 301.1064 25.5154 300.1088 22.75 297.1875 C21.8945 294.9336 21.8945 294.9336 21.5625 292.625 C21.0535 289.3081 20.6947 288.1045 18.75 285.1875 C17.1 285.1875 15.45 285.1875 13.75 285.1875 C13.1312 286.3425 12.5125 287.4975 11.875 288.6875 C7.0328 296.2813 0.8558 301.0688 -7.9375 303.1875 C-20.1444 305.2198 -37.2665 306.3231 -48.5664 299.8633 C-50.2811 298.4018 -51.7465 296.8625 -53.25 295.1875 C-54.4263 294.195 -55.6142 293.2159 -56.8125 292.25 C-62.8472 287.0136 -66.6307 282.2273 -69.293 274.6172 C-70.25 272.1875 -70.25 272.1875 -71.7695 269.9336 C-74.5428 264.7896 -74.6843 258.8749 -75.4432 253.1466 C-75.9392 249.4263 -76.4691 245.7144 -77.0363 242.0044 C-79.4544 225.5091 -79.7275 209.1217 -79.7188 192.4909 C-79.7187 189.379 -79.7274 186.2672 -79.7356 183.1554 C-79.7547 175.7807 -79.7578 168.4062 -79.751 161.0315 C-79.7451 154.3669 -79.7592 147.7028 -79.792 141.0383 C-80.3014 35.2328 -80.3014 35.2328 -57.5234 11.2109 C-54.8819 8.8599 -52.3466 7.3142 -49.0742 6.0039 C-47.25 5.1875 -47.25 5.1875 -45.4023 3.6602 C-42.6447 1.7733 -40.4267 1.5001 -37.125 1.0625 C-35.9713 0.9078 -34.8176 0.7531 -33.6289 0.5938 C-33.0714 0.5267 -33.0714 0.5267 -30.25 0.1875 C-29.8008 0.1308 -29.8008 0.1308 -27.5273 -0.1562 C-18.3075 -1.2083 -9.2195 -0.8952 0 0 Z " fill="#FFFFFF" transform="translate(196.25,96.8125)"/>
<path d="M0 0 C0.8135 0.0616 1.627 0.1231 2.4651 0.1865 C7.7567 0.7127 10.8722 1.9504 15.1875 5.25 C16.8507 6.1729 18.5172 7.0899 20.1875 8 C25.2087 10.9856 28.0868 14.3691 31.1875 19.25 C31.5484 19.7759 31.5484 19.7759 33.375 22.4375 C33.9731 23.3656 34.5713 24.2938 35.1875 25.25 C35.7005 26.0209 36.2136 26.7917 36.7422 27.5859 C38.2838 30.4276 38.7311 32.4965 39.125 35.6875 C39.9798 41.5697 41.5044 47.0657 43.2852 52.7305 C47.9132 70.7818 46.271 91.7328 39.8594 109.0703 C39.062 111.6571 38.7383 114.1941 38.375 116.875 C37.4364 122.5224 35.1707 125.3183 31.1875 129.25 C30.5069 130.1575 29.8263 131.065 29.125 132 C27.0316 134.4311 24.9575 135.6779 22.1875 137.25 C20.6554 140.3143 20.9581 142.8666 21.1875 146.25 C22.5781 149.4703 23.5148 150.881 26.6016 152.5742 C29.5914 154.5117 30.6725 156.2132 32.375 159.3125 C35.0418 164.1043 35.0418 164.1043 37.1875 166.25 C37.9084 168.9382 38.5437 171.5943 39.125 174.3125 C40.3392 179.7571 41.603 185.062 43.5742 190.293 C45.3601 195.9918 45.375 201.7691 45.4258 207.6797 C45.4339 208.5877 45.4419 209.4957 45.4502 210.4312 C45.464 212.3525 45.4748 214.2739 45.4827 216.1953 C45.4941 218.1306 45.5145 220.0659 45.5442 222.001 C45.736 234.5122 44.7648 245.2437 41.1875 257.25 C40.8144 258.8885 40.4588 260.5312 40.1328 262.1797 C38.4145 270.5469 36.2953 277.2381 31.1875 284.25 C30.7479 284.9422 30.3084 285.6345 29.8555 286.3477 C22.7848 296.9231 13.4546 301.2053 1.4333 303.8577 C-14.736 307.0062 -36.0992 307.5293 -50.4414 298.0898 C-56.1046 293.5729 -61.1136 288.5399 -63.875 281.75 C-64.8656 279.3351 -65.7887 277.2839 -67.2922 275.1409 C-69.2446 271.4283 -69.6902 267.821 -70.1641 263.7148 C-70.2684 262.8815 -70.3728 262.0482 -70.4803 261.1896 C-70.6992 259.4209 -70.9123 257.6516 -71.1201 255.8816 C-71.4305 253.2466 -71.7605 250.6146 -72.0938 247.9824 C-73.1962 239.0744 -74.0931 230.1465 -74.7109 221.1914 C-74.7831 220.3521 -74.8553 219.5127 -74.9296 218.6479 C-75.146 214.9419 -75.2322 212.9264 -73.2397 209.7156 C-70.0146 207.7682 -67.835 207.7935 -64.0781 207.8594 C-62.7826 207.8723 -61.4871 207.8852 -60.1523 207.8984 C-58.7891 207.9319 -57.4258 207.9657 -56.0625 208 C-54.6836 208.0201 -53.3047 208.0383 -51.9258 208.0547 C-48.554 208.1018 -45.1836 208.1677 -41.8125 208.25 C-39.32 211.1446 -38.4451 212.8162 -38.5898 216.6367 C-38.6 217.0605 -38.6 217.0605 -38.6514 219.2051 C-38.6676 219.6559 -38.6676 219.6559 -38.75 221.9375 C-39.0064 237.1008 -39.316 257.1551 -28.8125 269.25 C-24.6567 272.4087 -20.9392 272.7392 -15.875 272.6875 C-15.1847 272.7075 -14.4944 272.7275 -13.7832 272.748 C-8.6453 272.7432 -5.7509 271.4803 -1.8125 268.25 C9.4556 252.6735 9.0815 228.6555 8.1875 210.25 C8.1517 209.4957 8.116 208.7415 8.0791 207.9644 C7.5195 197.9016 5.988 188.3945 3.25 178.6875 C2.9972 177.7888 2.7444 176.8901 2.4839 175.9641 C0.4226 169.112 0.4226 169.112 -2.8125 166.25 C-3.129 165.9606 -3.129 165.9606 -4.7305 164.4961 C-11.443 159.1469 -17.1825 158.2301 -25.4688 157.6367 C-28.8125 157.25 -28.8125 157.25 -30.8125 155.25 C-31.2673 151.4565 -31.1365 147.6301 -31.125 143.8125 C-31.1411 142.7497 -31.1572 141.6868 -31.1738 140.5918 C-31.1745 139.5728 -31.1751 138.5538 -31.1758 137.5039 C-31.1788 136.5688 -31.1817 135.6336 -31.1848 134.6702 C-30.8125 132.25 -30.8125 132.25 -29.5137 130.447 C-26.6692 128.4455 -23.363 128.7927 -20 128.75 C-12.4811 128.653 -7.015 127.0263 -1.147 121.9141 C1.656 118.4188 2.4448 114.0237 3.5 109.75 C3.7507 108.8129 4.0014 107.8757 4.2598 106.9102 C4.9337 104.3626 5.5833 101.815 6.1875 99.25 C6.3709 98.4721 6.5542 97.6941 6.7432 96.8926 C9.2902 81.7447 8.8415 62.8262 4.6875 48.0625 C4.4689 47.2523 4.2503 46.4421 4.0251 45.6074 C2.05 39.5658 -1.538 35.7468 -6.8125 32.25 C-11.1669 30.5202 -14.6518 30.1256 -19.3125 30.625 C-24.2618 32.9229 -28.4427 35.9263 -31.8125 40.25 C-33.9399 46.7183 -34.6164 53.4467 -35.4375 60.1875 C-35.5716 61.2207 -35.7056 62.2539 -35.8438 63.3184 C-36.429 68.033 -36.8705 72.5639 -36.7109 77.3164 C-36.8125 81.25 -36.8125 81.25 -37.9583 82.9595 C-40.5293 84.7489 -42.4647 84.7149 -45.582 84.832 C-46.7183 84.8765 -47.8546 84.921 -49.0254 84.9668 C-49.6193 84.9826 -49.6193 84.9826 -52.625 85.0625 C-53.8013 85.1134 -54.9775 85.1643 -56.1895 85.2168 C-61.8942 85.4071 -66.4596 85.4893 -71.8125 83.25 C-75.9839 74.9072 -72.4838 59.2108 -71.4331 50.0659 C-71.1855 47.857 -70.9736 45.6462 -70.7617 43.4336 C-69.8396 34.7972 -67.9347 28.4105 -62.8125 21.25 C-62.3381 20.1981 -61.8637 19.1462 -61.375 18.0625 C-57.7496 11.5367 -52.3156 7.622 -45.8125 4.25 C-45.1164 3.7434 -44.4203 3.2368 -43.7031 2.7148 C-39.6177 0.6445 -35.7111 0.4264 -31.1875 0.0625 C-30.7364 0.023 -30.7364 0.023 -28.4534 -0.1768 C-18.8325 -0.9784 -9.6118 -0.8403 0 0 Z " fill="#FFFFFF" transform="translate(447.8125,96.75)"/>
<path d="M0 0 C0.9205 -0.005 1.8409 -0.0099 2.7893 -0.015 C5.8434 -0.0297 8.8975 -0.0365 11.9517 -0.042 C14.0691 -0.0477 16.1866 -0.0535 18.3041 -0.0593 C22.7478 -0.0698 27.1915 -0.0756 31.6353 -0.0791 C37.3341 -0.0846 43.0327 -0.1086 48.7314 -0.1371 C53.1066 -0.1557 57.4816 -0.1609 61.8568 -0.1624 C63.958 -0.1655 66.0592 -0.1735 68.1603 -0.1866 C71.098 -0.2036 74.035 -0.2018 76.9727 -0.1953 C77.8435 -0.2045 78.7143 -0.2137 79.6114 -0.2232 C85.5359 -0.1821 85.5359 -0.1821 88.6872 1.6834 C91.6096 4.7064 90.35 11.293 90.4282 15.3486 C90.4701 16.4991 90.512 17.6496 90.5552 18.835 C90.6757 27.1513 90.6757 27.1513 88.2876 31.458 C83.5458 34.0041 79.3291 33.5433 74.0532 33.2236 C72.0841 33.1125 70.1139 33.0193 68.1431 32.9463 C67.2742 32.8935 66.4052 32.8407 65.51 32.7864 C63.1157 33.1611 63.1157 33.1611 60.9973 34.5388 C58.0658 38.6244 58.5687 42.5833 58.6169 47.4926 C58.6115 48.5556 58.6062 49.6186 58.6006 50.7139 C58.5873 54.2877 58.6025 57.8609 58.6174 61.4348 C58.6136 63.9921 58.608 66.5494 58.6007 69.1066 C58.5887 74.6189 58.5888 80.131 58.5993 85.6433 C58.6142 93.6164 58.6043 101.5893 58.5878 109.5624 C58.5613 122.5023 58.5505 135.4422 58.5515 148.3821 C58.5516 149.1566 58.5516 149.9311 58.5517 150.7291 C58.552 153.8675 58.5523 157.0059 58.5527 160.1444 C58.5536 168.7864 58.5523 177.4285 58.5496 186.0706 C58.5494 186.4575 58.5494 186.4575 58.5488 188.4156 C58.5444 201.3081 58.5282 214.2005 58.5043 227.093 C58.4903 235.0486 58.4874 243.004 58.499 250.9596 C58.5071 257.05 58.5005 263.1402 58.4883 269.2306 C58.4859 271.7337 58.4886 274.2367 58.4969 276.7397 C58.5074 280.1456 58.4998 283.5509 58.4875 286.9567 C58.4951 287.9569 58.5027 288.957 58.5105 289.9875 C58.507 290.4421 58.507 290.4421 58.4893 292.7426 C58.4896 293.5292 58.4898 294.3157 58.4901 295.126 C58.013 297.7197 57.2184 298.6042 55.1157 300.1611 C52.5984 300.4227 50.3347 300.5109 47.8228 300.4541 C47.1167 300.4499 46.4107 300.4456 45.6833 300.4412 C43.4312 300.4245 41.18 300.3868 38.9282 300.3486 C37.4002 300.3336 35.8722 300.3199 34.3442 300.3076 C30.6011 300.2746 26.8585 300.2228 23.1157 300.1611 C21.0391 297.0462 20.8667 296.3941 20.8752 292.8659 C20.8738 292.4251 20.8738 292.4251 20.8669 290.194 C20.8741 289.2245 20.8813 288.255 20.8887 287.2561 C20.8884 286.2267 20.8881 285.1974 20.8878 284.1368 C20.8892 280.6707 20.9049 277.2048 20.9204 273.7388 C20.9242 271.2604 20.9272 268.7819 20.9293 266.3035 C20.9356 260.9571 20.9479 255.6108 20.9654 250.2645 C20.9905 242.5247 21.0027 234.785 21.0113 227.0452 C21.0254 214.4754 21.047 201.9057 21.0747 189.3359 C21.0764 188.5834 21.078 187.8308 21.0797 187.0554 C21.0932 180.9524 21.1071 174.8494 21.1209 168.7464 C21.133 163.4205 21.145 158.0945 21.1567 152.7686 C21.1584 152.0187 21.1601 151.2689 21.1618 150.4963 C21.1892 137.9813 21.2087 125.4663 21.2226 112.9513 C21.2315 105.2345 21.2476 97.5179 21.2728 89.8012 C21.2917 83.8821 21.3004 77.9629 21.3054 72.0438 C21.3091 69.619 21.3163 67.1943 21.3272 64.7696 C21.3417 61.4557 21.3437 58.142 21.3428 54.8281 C21.35 53.8719 21.3572 52.9158 21.3646 51.9307 C21.3473 46.3108 21.2477 40.4405 19.1157 35.1611 C15.7091 32.8901 14.6528 32.9502 10.6782 33.0713 C9.6186 33.0913 8.559 33.1112 7.4673 33.1318 C5.2328 33.193 2.9984 33.2581 0.7642 33.3271 C0.2344 33.3365 0.2344 33.3365 -2.4468 33.3838 C-3.4174 33.4122 -4.3881 33.4407 -5.3882 33.47 C-7.8843 33.1611 -7.8843 33.1611 -9.6616 31.7722 C-12.9894 27.3873 -12.3304 22.0908 -12.5718 16.7861 C-12.6317 15.7317 -12.6917 14.6772 -12.7534 13.5908 C-12.8005 12.575 -12.8475 11.5593 -12.896 10.5127 C-12.942 9.5828 -12.988 8.6529 -13.0354 7.6948 C-12.8729 4.97 -12.3653 3.4375 -10.8843 1.1611 C-7.5167 -0.5226 -3.7044 0.0047 0 0 Z " fill="#FFFFFF" transform="translate(268.88427734375,97.8388671875)"/>
</svg>
