<?xml version="1.0" encoding="UTF-8"?>
<!-- Generator: visioncortex VTracer 0.6.12 -->
<svg version="1.1" xmlns="http://www.w3.org/2000/svg" width="504" height="456">
<rect x="0" y="0" width="504" height="456" rx="73" ry="73" fill="#F08C00"/>
<path d="M0 0 C6.314 3.958 10.3 9.625 14 16 C14.353 16.603 14.706 17.207 15.07 17.828 C16.359 20.839 16.888 23.847 17.5 27.062 C17.737 28.291 17.974 29.519 18.219 30.785 C18.34 31.458 18.462 32.131 18.587 32.825 C18.87 34.316 19.186 35.8 19.528 37.279 C21.341 45.664 21.338 53.989 21.316 62.528 C21.312 65.089 21.336 67.648 21.361 70.209 C21.364 71.839 21.364 73.468 21.363 75.098 C21.372 75.862 21.382 76.627 21.391 77.414 C21.372 79.551 21.372 79.551 21 83 C17.916 85.056 17.279 85.25 13.797 85.23 C12.981 85.229 12.165 85.227 11.324 85.225 C10.475 85.212 9.625 85.2 8.75 85.188 C7.916 85.187 7.082 85.186 6.223 85.186 C-6.907 85.093 -6.907 85.093 -9 83 C-9.916 76.629 -10.057 70.485 -9.938 64.062 C-9.874 57.027 -10.093 50.119 -10.875 43.125 C-10.914 42.766 -10.914 42.766 -11.113 40.949 C-12.464 29.968 -12.464 29.968 -15.559 26.004 C-20.36 22.321 -24.236 21.087 -30.309 21.391 C-34.14 22.258 -36.553 24.093 -39.441 26.688 C-41 28 -41 28 -43 28 C-47.448 45.917 -48.737 63.015 -48.606 81.428 C-48.585 84.979 -48.592 88.53 -48.594 92.082 C-48.594 98.028 -48.574 103.975 -48.542 109.921 C-48.505 116.746 -48.496 123.569 -48.503 130.393 C-48.51 137.037 -48.499 143.681 -48.479 150.325 C-48.471 153.119 -48.468 155.912 -48.47 158.706 C-48.471 173.134 -48.222 186.896 -45 201 C-44.798 202.103 -44.596 203.206 -44.388 204.343 C-43.422 209.583 -41.923 212.653 -37.875 216.188 C-33.935 218.853 -30.819 219.897 -26.07 219.5 C-22.8 218.71 -20.583 217.103 -18 215 C-17.34 214.642 -16.68 214.283 -16 213.914 C-12.876 210.925 -12.335 207.3 -11.312 203.188 C-11.1 202.393 -10.888 201.598 -10.67 200.779 C-8.567 192.758 -7.841 185.302 -7.832 177.02 C-7.829 175.97 -7.825 174.92 -7.822 173.838 C-7.817 171.627 -7.815 169.416 -7.815 167.204 C-7.813 163.814 -7.794 160.424 -7.775 157.033 C-7.772 154.883 -7.77 152.732 -7.77 150.582 C-7.766 150.074 -7.766 150.074 -7.748 147.504 C-7.749 147.034 -7.749 147.034 -7.757 144.652 C-7.756 143.824 -7.754 142.996 -7.753 142.143 C-8 140 -8 140 -10 137 C-12.526 136.505 -14.887 136.165 -17.438 135.938 C-24.624 135.251 -24.624 135.251 -28 133 C-28.388 131.152 -28.388 131.152 -28.398 128.938 C-28.4 128.539 -28.4 128.539 -28.41 126.523 C-28.399 125.691 -28.387 124.858 -28.375 124 C-28.387 123.167 -28.398 122.335 -28.41 121.477 C-28.406 120.68 -28.402 119.883 -28.398 119.062 C-28.395 118.332 -28.392 117.601 -28.388 116.848 C-28 115 -28 115 -25 113 C-23.027 112.746 -23.027 112.746 -20.76 112.741 C-19.909 112.735 -19.058 112.729 -18.181 112.722 C-17.723 112.724 -17.723 112.724 -15.406 112.734 C-14.463 112.732 -13.52 112.731 -12.548 112.729 C-10.555 112.727 -8.561 112.731 -6.567 112.739 C-3.512 112.75 -0.457 112.739 2.598 112.727 C4.534 112.728 6.47 112.73 8.406 112.734 C9.322 112.73 10.238 112.726 11.181 112.722 C11.607 112.725 11.607 112.725 13.76 112.741 C14.134 112.742 14.134 112.742 16.027 112.746 C18 113 18 113 21 115 C21.378 117.208 21.378 117.208 21.381 120.01 C21.389 121.071 21.398 122.131 21.407 123.223 C21.401 124.391 21.394 125.558 21.388 126.762 C21.393 127.988 21.399 129.214 21.404 130.477 C21.415 133.845 21.412 137.212 21.403 140.58 C21.395 144.1 21.402 147.62 21.407 151.139 C21.413 157.051 21.405 162.962 21.391 168.874 C21.375 175.714 21.38 182.555 21.397 189.395 C21.41 195.262 21.412 201.128 21.404 206.995 C21.4 210.502 21.399 214.008 21.409 217.515 C21.419 221.423 21.405 225.33 21.388 229.238 C21.394 230.406 21.4 231.574 21.407 232.777 C21.398 233.837 21.39 234.897 21.381 235.99 C21.38 236.914 21.379 237.839 21.378 238.792 C21.253 239.52 21.128 240.249 21 241 C17.803 243.132 16.712 243.32 13 243.375 C12.134 243.403 11.267 243.432 10.375 243.461 C8 243 8 243 6.254 241.238 C5.018 239.032 4.415 237.282 3.938 234.812 C3.628 233.554 3.319 232.296 3 231 C2.34 230.67 1.68 230.34 1 230 C-1.893 231.827 -4.559 233.6 -7.098 235.906 C-15.558 243.477 -25.642 246.586 -37 246 C-49.651 244.482 -58.99 240.634 -67.082 230.355 C-71.197 224.3 -73.871 217.979 -76 211 C-76.392 209.762 -76.784 208.525 -77.188 207.25 C-79.66 196.568 -79.148 184.741 -79.129 173.851 C-79.131 172.512 -79.133 171.173 -79.135 169.834 C-79.139 166.247 -79.138 162.661 -79.134 159.074 C-79.132 155.29 -79.134 151.507 -79.136 147.723 C-79.138 141.374 -79.135 135.026 -79.13 128.677 C-79.125 121.374 -79.127 114.071 -79.132 106.768 C-79.137 100.456 -79.137 94.145 -79.135 87.834 C-79.133 84.082 -79.133 80.33 -79.136 76.579 C-79.139 73.05 -79.137 69.521 -79.131 65.993 C-79.129 64.106 -79.132 62.219 -79.136 60.333 C-79.079 36.904 -79.079 36.904 -75 26 C-74.661 25.022 -74.322 24.043 -73.973 23.035 C-71.211 15.66 -67.642 10.463 -62 5 C-61.506 4.486 -61.013 3.971 -60.504 3.441 C-57.006 0.102 -53.323 -1.067 -48.758 -2.227 C-46.474 -2.867 -44.477 -3.636 -42.301 -4.551 C-28.796 -9.673 -12.51 -6.214 0 0 Z " fill="#FFFFFF" transform="translate(187,110)"/>
<path d="M0 0 C0.677 -0.007 1.354 -0.014 2.051 -0.021 C4.283 -0.039 6.514 -0.035 8.746 -0.03 C10.3 -0.034 11.854 -0.039 13.408 -0.045 C16.663 -0.054 19.918 -0.052 23.173 -0.042 C27.343 -0.03 31.512 -0.051 35.682 -0.08 C38.89 -0.098 42.099 -0.098 45.307 -0.092 C46.844 -0.092 48.382 -0.098 49.919 -0.111 C52.069 -0.125 54.217 -0.115 56.367 -0.098 C57.59 -0.097 58.812 -0.097 60.072 -0.097 C63.794 0.502 64.981 1.387 67.184 4.404 C67.586 7.215 67.745 9.545 67.684 12.342 C67.691 12.693 67.691 12.693 67.73 14.472 C67.704 17.95 67.25 20.281 65.59 23.345 C60.923 27.338 54.45 26.507 48.57 26.396 C47.144 26.379 45.717 26.362 44.291 26.345 C42.068 26.314 39.845 26.279 37.622 26.233 C35.459 26.19 33.296 26.167 31.133 26.146 C29.847 26.124 28.562 26.102 27.237 26.079 C26.229 26.186 25.222 26.294 24.184 26.404 C21.716 30.106 21.925 31.978 21.909 36.398 C21.904 37.106 21.899 37.813 21.893 38.543 C21.88 40.882 21.881 43.221 21.883 45.56 C21.879 47.186 21.875 48.811 21.87 50.436 C21.862 53.842 21.863 57.248 21.868 60.655 C21.874 65.023 21.857 69.391 21.834 73.759 C21.819 77.115 21.818 80.471 21.821 83.827 C21.821 85.438 21.815 87.049 21.805 88.659 C21.793 90.91 21.8 93.159 21.811 95.41 C21.811 96.691 21.81 97.972 21.809 99.292 C22.184 102.404 22.184 102.404 23.481 104.317 C26.452 106.214 29.865 105.824 33.281 105.81 C33.676 105.816 33.676 105.816 35.675 105.843 C39.056 105.889 42.436 105.901 45.817 105.915 C48.284 105.931 50.751 105.964 53.219 105.998 C53.603 105.996 53.603 105.996 55.545 105.989 C57.699 106.019 57.699 106.019 61.184 106.404 C63.328 109.62 63.439 110.514 63.449 114.22 C63.451 114.685 63.451 114.685 63.457 117.035 C63.449 118.002 63.442 118.97 63.434 119.967 C63.437 120.452 63.437 120.452 63.457 122.91 C63.454 123.837 63.452 124.765 63.449 125.72 C63.447 126.571 63.445 127.421 63.442 128.297 C63.184 130.404 63.184 130.404 61.184 132.404 C58.414 132.613 55.736 132.705 52.965 132.713 C51.294 132.738 49.624 132.763 47.953 132.789 C45.313 132.818 42.673 132.842 40.033 132.86 C37.489 132.882 34.946 132.921 32.402 132.963 C31.61 132.963 30.817 132.963 30 132.963 C27.775 133.003 27.775 133.003 24.184 133.404 C21.75 137.055 21.908 139.747 21.941 143.965 C21.939 144.733 21.937 145.5 21.935 146.291 C21.931 148.83 21.942 151.369 21.953 153.908 C21.954 155.67 21.955 157.432 21.955 159.194 C21.956 162.887 21.964 166.58 21.978 170.273 C21.995 175.013 21.999 179.754 21.998 184.494 C21.998 188.132 22.004 191.771 22.011 195.409 C22.014 197.157 22.016 198.905 22.017 200.654 C22.019 203.093 22.028 205.533 22.038 207.973 C22.038 208.699 22.037 209.426 22.037 210.175 C22.069 215.175 22.069 215.175 23.184 217.404 C24.339 217.419 25.494 217.433 26.684 217.448 C30.98 217.506 35.276 217.584 39.572 217.667 C41.429 217.7 43.286 217.728 45.144 217.75 C47.818 217.784 50.491 217.836 53.164 217.892 C53.578 217.896 53.578 217.896 55.671 217.912 C60.303 218.029 63.421 218.405 67.184 221.404 C68.874 224.786 68.452 228.564 68.496 232.279 C68.511 232.687 68.511 232.687 68.584 234.752 C68.592 235.542 68.601 236.332 68.609 237.146 C68.624 237.867 68.639 238.587 68.654 239.329 C67.961 242.388 66.628 243.468 64.184 245.404 C61.034 245.912 61.034 245.912 57.275 245.922 C56.589 245.929 55.902 245.936 55.195 245.943 C52.93 245.96 50.667 245.949 48.402 245.935 C46.826 245.938 45.249 245.942 43.673 245.947 C40.371 245.953 37.069 245.944 33.767 245.926 C29.537 245.903 25.307 245.916 21.077 245.94 C17.822 245.954 14.567 245.95 11.312 245.939 C9.753 245.937 8.193 245.94 6.633 245.949 C4.452 245.959 2.273 245.944 0.092 245.922 C-1.149 245.918 -2.389 245.915 -3.667 245.912 C-6.816 245.404 -6.816 245.404 -8.982 243.966 C-11.755 240.093 -11.37 236.562 -11.324 231.908 C-11.331 230.935 -11.337 229.961 -11.343 228.959 C-11.359 225.689 -11.347 222.42 -11.334 219.15 C-11.339 216.809 -11.347 214.469 -11.355 212.128 C-11.373 205.765 -11.366 199.402 -11.354 193.038 C-11.345 187.061 -11.352 181.085 -11.357 175.108 C-11.369 162.55 -11.356 149.993 -11.334 137.435 C-11.316 126.655 -11.319 115.875 -11.338 105.095 C-11.359 92.581 -11.368 80.067 -11.355 67.553 C-11.349 60.927 -11.348 54.302 -11.362 47.676 C-11.373 41.448 -11.365 35.221 -11.342 28.994 C-11.337 26.704 -11.338 24.413 -11.347 22.123 C-11.358 19.006 -11.344 15.89 -11.324 12.773 C-11.333 11.859 -11.342 10.944 -11.351 10.002 C-11.275 3.919 -11.275 3.919 -8.979 1.343 C-5.914 0.012 -3.339 0.015 0 0 Z " fill="#FFFFFF" transform="translate(337.81640625,107.595947265625)"/>
<path d="M0 0 C0.807 0.005 1.614 0.01 2.445 0.015 C5.109 0.032 7.772 0.058 10.435 0.085 C12.285 0.102 14.136 0.118 15.986 0.135 C19.861 0.171 23.737 0.213 27.612 0.256 C32.586 0.311 37.561 0.348 42.536 0.38 C46.355 0.408 50.174 0.449 53.993 0.494 C55.828 0.513 57.663 0.527 59.498 0.536 C62.058 0.551 64.616 0.584 67.176 0.621 C67.557 0.621 67.557 0.621 69.487 0.622 C71.594 0.664 71.594 0.664 74.958 1.069 C77.726 5.221 77.363 8.626 77.396 13.507 C77.429 14.366 77.462 15.225 77.496 16.11 C77.531 20.203 77.506 22.353 74.97 25.671 C70.291 27.844 66.064 27.221 61.021 26.825 C58.794 26.722 58.794 26.722 54.958 27.069 C51.399 31.181 51.533 35.526 51.573 40.705 C51.568 41.574 51.563 42.443 51.557 43.338 C51.543 46.247 51.551 49.156 51.558 52.066 C51.552 54.152 51.545 56.238 51.537 58.325 C51.522 62.816 51.516 67.307 51.517 71.798 C51.519 78.894 51.5 85.99 51.477 93.086 C51.436 106.861 51.417 120.637 51.401 134.412 C51.379 151.958 51.345 169.504 51.294 187.05 C51.274 194.11 51.264 201.17 51.263 208.23 C51.26 212.613 51.249 216.995 51.236 221.377 C51.232 223.417 51.231 225.456 51.234 227.495 C51.237 230.268 51.229 233.041 51.217 235.814 C51.221 236.63 51.225 237.445 51.229 238.286 C51.187 243.841 51.187 243.841 48.958 246.069 C46.532 246.312 46.532 246.312 43.505 246.3 C42.411 246.298 41.317 246.296 40.189 246.294 C39.04 246.282 37.892 246.269 36.708 246.257 C35.575 246.256 34.442 246.256 33.275 246.255 C26.258 246.218 19.832 245.451 12.958 244.069 C12.956 242.975 12.954 241.881 12.951 240.754 C12.893 214.156 12.817 187.559 12.723 160.961 C12.678 148.099 12.638 135.237 12.612 122.375 C12.589 111.166 12.556 99.958 12.51 88.75 C12.486 82.813 12.467 76.876 12.461 70.939 C12.455 65.354 12.435 59.77 12.404 54.185 C12.395 52.133 12.392 50.08 12.393 48.027 C12.395 45.23 12.379 42.434 12.357 39.637 C12.362 38.82 12.367 38.002 12.372 37.161 C12.33 33.851 12.187 31.48 10.56 28.558 C8.958 27.069 8.958 27.069 6.937 26.679 C6.56 26.702 6.56 26.702 4.65 26.819 C4.235 26.835 4.235 26.835 2.136 26.913 C0.397 27.017 -1.343 27.121 -3.083 27.226 C-9.495 27.464 -9.495 27.464 -12.592 25.226 C-16.225 19.821 -15.778 11.366 -15.042 5.069 C-13.763 2.742 -12.954 1.411 -10.436 0.468 C-6.96 -0.111 -3.512 -0.038 0 0 Z " fill="#FFFFFF" transform="translate(235.04150390625,106.9306640625)"/>
</svg>
