<?xml version="1.0" encoding="UTF-8"?>
<!-- Generator: visioncortex VTracer 0.6.12 -->
<svg version="1.1" xmlns="http://www.w3.org/2000/svg" width="504" height="488" viewBox="0 0 504 488">
<rect x="0" y="0" width="504" height="488" rx="78" ry="78" fill="#E21E19"/>
<path d="M0 0 C4.5207 -0.0494 9.0412 -0.0857 13.562 -0.1099 C15.1005 -0.1199 16.6389 -0.1336 18.1772 -0.1509 C20.3864 -0.1751 22.5954 -0.1865 24.8047 -0.1953 C25.4943 -0.2056 26.184 -0.216 26.8945 -0.2266 C28.598 -0.227 30.3009 -0.1219 32 0 C34.4771 2.4771 34.2517 3.1858 34.2583 6.5972 C34.2617 7.0816 34.2617 7.0816 34.279 9.5326 C34.2777 10.0658 34.2777 10.0658 34.2712 12.7644 C34.2765 13.8849 34.2817 15.0053 34.2871 16.1597 C34.2973 18.5999 34.3031 21.0401 34.305 23.4802 C34.3086 27.3428 34.3253 31.2051 34.3457 35.0676 C34.3942 44.6659 34.4257 54.2643 34.447 63.8627 C34.465 71.9622 34.4944 80.0613 34.5411 88.1606 C34.5527 90.7198 34.5586 93.2791 34.5587 95.8383 C34.5589 99.4219 34.5772 103.0051 34.5994 106.5886 C34.5948 107.645 34.5902 108.7014 34.5855 109.7898 C34.6429 115.6393 35.252 119.8079 38 125 C45.2107 127.2517 52.0463 127.2989 59.5625 127.25 C60.7555 127.2577 61.9486 127.2655 63.1777 127.2734 C77.759 127.241 77.759 127.241 82 123 C82.2405 120.9222 82.2405 120.9222 82.2271 118.3067 C82.2269 117.3168 82.2268 116.327 82.2266 115.3072 C82.2163 114.2172 82.206 113.1273 82.1953 112.0044 C82.1924 110.8596 82.1895 109.7148 82.1865 108.5353 C82.1788 106.0428 82.1666 103.5502 82.1503 101.0577 C82.1249 97.1162 82.1118 93.1749 82.1021 89.2334 C82.0779 80.1523 82.0339 71.0714 81.9896 61.9905 C81.946 53.0134 81.9103 44.0363 81.8881 35.0591 C81.8751 31.1703 81.8501 27.2816 81.8247 23.3929 C81.8174 21.0134 81.8107 18.6339 81.8047 16.2544 C81.7944 15.1685 81.784 14.0827 81.7734 12.9639 C81.7732 11.9684 81.7731 10.9729 81.7729 9.9473 C81.7685 9.0834 81.7641 8.2195 81.7595 7.3295 C82.0265 4.7432 82.5554 3.1587 84 1 C89.2245 -0.7415 94.8359 -0.2255 100.3062 -0.2402 C102.4922 -0.25 104.6774 -0.281 106.8633 -0.3125 C108.2526 -0.319 109.6419 -0.3243 111.0312 -0.3281 C111.6632 -0.3328 111.6632 -0.3328 114.8613 -0.3564 C118 0 118 0 119.6716 1.2139 C121.4247 3.571 121.3815 5.0092 121.3931 7.9339 C121.4044 8.958 121.4158 9.9821 121.4274 11.0373 C121.4246 12.1659 121.4218 13.2945 121.4189 14.4573 C121.4233 15.0554 121.4233 15.0554 121.4455 18.0822 C121.4668 21.4085 121.4746 24.7343 121.4767 28.0607 C121.4823 31.6456 121.505 35.2305 121.5255 38.8154 C121.5629 45.8409 121.584 52.8663 121.5994 59.8918 C121.6122 65.6006 121.6308 71.3094 121.6536 77.0182 C121.6569 77.8298 121.6601 78.6414 121.6634 79.4777 C121.67 81.1263 121.6766 82.775 121.6833 84.4236 C121.7447 99.8946 121.7878 115.3656 121.8247 130.8367 C121.8567 144.1178 121.9045 157.3989 121.9639 170.6799 C122.0327 186.0929 122.0918 201.5059 122.1352 216.919 C122.1399 218.562 122.1446 220.205 122.1493 221.848 C122.1504 222.2522 122.1504 222.2522 122.1562 224.2978 C122.1731 230.0007 122.1971 235.7035 122.2237 241.4064 C122.2559 248.355 122.2775 255.3036 122.2852 262.2523 C122.2894 265.7991 122.2985 269.3458 122.3206 272.8926 C122.3444 276.7337 122.3449 280.5746 122.343 284.4158 C122.3536 285.5421 122.3642 286.6685 122.3751 287.8289 C122.3707 288.8557 122.3664 289.8824 122.3619 290.9403 C122.3645 291.8272 122.367 292.7141 122.3696 293.6279 C121.9269 296.4692 120.8754 297.8626 119 300 C114.2128 300.0742 109.426 300.1286 104.6384 300.1648 C103.0098 300.1799 101.3812 300.2004 99.7527 300.2263 C97.4118 300.2627 95.0715 300.2797 92.7305 300.293 C92.3664 300.3007 92.3664 300.3007 90.5237 300.3399 C85.4875 300.3416 85.4875 300.3416 83.3049 298.8124 C81.5211 296.3348 81.6384 294.7017 81.6594 291.6617 C81.6596 290.5541 81.6598 289.4465 81.6601 288.3054 C81.6678 287.6976 81.6678 287.6976 81.707 284.6216 C81.7138 282.6569 81.7205 280.6923 81.7272 278.7277 C81.7373 276.615 81.7549 274.5024 81.7745 272.3898 C81.8151 267.9859 81.8328 263.5822 81.8469 259.1782 C81.8831 249.0322 81.9492 238.8864 82.0156 228.7405 C82.0762 219.4473 82.1304 210.1542 82.1603 200.8608 C82.1752 196.484 82.2048 192.1076 82.2455 187.731 C82.2625 185.6628 82.2727 183.5946 82.2797 181.5262 C82.2883 179.006 82.3077 176.4857 82.3399 173.9657 C82.3401 172.8525 82.3404 171.7393 82.3406 170.5923 C82.3472 169.6274 82.3539 168.6625 82.3608 167.6684 C81.9264 164.4558 80.9209 162.5936 79 160 C74.8287 158.058 71.0969 157.7438 66.5352 157.7344 C65.3228 157.7318 64.1104 157.7292 62.8613 157.7266 C61.6077 157.7343 60.3541 157.742 59.0625 157.75 C57.8128 157.7423 56.563 157.7345 55.2754 157.7266 C42.6417 157.7534 42.6417 157.7534 38 160 C33.8947 165.6886 34.574 172.0557 34.5994 178.7666 C34.5924 180.0517 34.5854 181.3369 34.5782 182.6609 C34.5631 185.4471 34.5573 188.233 34.5587 191.0191 C34.5608 195.4225 34.5412 199.8256 34.5186 204.2289 C34.4777 212.7747 34.459 221.3204 34.4424 229.8662 C34.42 240.7587 34.3866 251.6511 34.3352 262.5435 C34.3152 266.9235 34.3057 271.3033 34.3042 275.6833 C34.3022 277.7482 34.2956 279.813 34.2871 281.8779 C34.2768 284.3989 34.2737 286.9199 34.279 289.4409 C34.2721 290.5457 34.2653 291.6504 34.2583 292.7886 C34.2567 293.7524 34.255 294.7162 34.2533 295.7092 C34 298 34 298 32 300 C29.5626 300.1749 27.2406 300.2318 24.8047 300.1953 C24.0972 300.1925 23.3898 300.1897 22.6609 300.1867 C20.3988 300.1755 18.137 300.1504 15.875 300.125 C14.3425 300.115 12.8099 300.1058 11.2773 300.0977 C7.5181 300.0756 3.7591 300.0411 0 300 C-4.1204 295.0415 -3.4177 289.528 -3.381 283.4229 C-3.3856 282.2379 -3.3903 281.0529 -3.3951 279.832 C-3.405 276.5464 -3.4015 273.2611 -3.3922 269.9755 C-3.3854 266.4308 -3.3959 262.8861 -3.4041 259.3414 C-3.4175 252.3988 -3.4146 245.4562 -3.4059 238.5135 C-3.3991 232.8715 -3.3982 227.2295 -3.4014 221.5875 C-3.4019 220.7848 -3.4024 219.9821 -3.4028 219.155 C-3.4038 217.5243 -3.4048 215.8936 -3.4058 214.2629 C-3.4143 198.9688 -3.4045 183.6747 -3.3884 168.3805 C-3.375 155.255 -3.3773 142.1295 -3.3911 129.0039 C-3.4072 113.7648 -3.4135 98.5258 -3.4043 83.2866 C-3.4033 81.6619 -3.4024 80.0372 -3.4014 78.4125 C-3.4012 78.0128 -3.4012 78.0128 -3.4 75.99 C-3.3975 70.3542 -3.4018 64.7184 -3.4089 59.0826 C-3.4173 52.2153 -3.415 45.348 -3.399 38.4807 C-3.3912 34.9763 -3.3881 31.472 -3.398 27.9676 C-3.4062 24.1706 -3.3959 20.3741 -3.381 16.5771 C-3.3876 15.4667 -3.3943 14.3563 -3.4012 13.2123 C-3.3304 4.0078 -3.3304 4.0078 0 0 Z " fill="#FFFFFF" transform="translate(124,98)"/>
<path d="M0 0 C2.0201 -0.0119 4.0372 -0.0611 6.0566 -0.1116 C7.3354 -0.1187 8.6141 -0.1258 9.9316 -0.1331 C11.1013 -0.1465 12.271 -0.16 13.4761 -0.1738 C17.5991 0.6028 19.0659 2.1988 21.6582 5.4255 C22.4082 8.3357 22.4082 8.3357 22.6582 11.488 C23.2105 16.1855 24.1028 19.8882 26.0957 24.1755 C28.326 29.0912 29.3606 33.637 30.1582 38.9255 C30.9374 44.0641 31.883 48.4831 34.0957 53.238 C36.9192 59.3414 38.0457 65.54 39.1384 72.1338 C39.8772 76.3603 40.7971 79.9683 42.6816 83.8357 C45.121 88.9778 45.6538 94.0593 46.2207 99.6755 C47.4135 111.2192 47.4135 111.2192 50.6582 115.4255 C52.5447 114.7712 52.5447 114.7712 54.6582 113.4255 C55.7073 110.9705 55.7073 110.9705 56.4746 107.8943 C56.6193 107.3335 56.6193 107.3335 57.3516 104.4958 C57.495 103.9067 57.495 103.9067 58.2207 100.9255 C58.8041 98.6231 59.3887 96.321 59.9746 94.0193 C60.1145 93.4596 60.1145 93.4596 60.8223 90.6274 C61.5778 87.7336 62.4208 84.8912 63.3184 82.0388 C64.5391 78.0649 65.1546 74.264 65.5332 70.113 C66.135 65.0509 67.0964 60.8604 69.0957 56.1755 C71.3389 50.8479 72.3417 45.9184 73.0957 40.238 C74.1026 32.674 75.9088 25.796 78.5896 18.6514 C80.237 14.1713 81.0361 10.1735 81.2476 5.3928 C81.7983 2.7544 82.4088 1.9279 84.6582 0.4255 C87.7051 0.0532 87.7051 0.0532 91.4082 0.0623 C92.0627 0.0618 92.7172 0.0613 93.3916 0.0607 C94.7735 0.0631 96.1553 0.0728 97.5371 0.0894 C99.6508 0.113 101.7632 0.1099 103.877 0.1033 C114.2393 0.1463 114.2393 0.1463 117.6582 2.4255 C118.1505 10.9947 116.7222 17.9429 113.1348 25.7341 C111.5949 29.5838 110.9077 33.2295 110.3457 37.3005 C109.2639 44.2673 107.3531 50.5264 104.8547 57.103 C102.8022 62.6419 101.6502 68.081 100.7012 73.8984 C99.9117 78.5604 98.5349 82.4571 96.623 86.7498 C95.3867 90.1784 94.8121 93.6558 94.2207 97.238 C93.3618 102.4163 92.2036 106.9908 90.1582 111.863 C88.0553 116.9076 86.9724 121.6252 86.1582 126.988 C85.1998 133.2948 83.5322 138.4486 80.8457 144.2693 C79.1712 148.7198 78.4907 153.2287 77.9102 157.9373 C77.2901 162.3593 76.0376 165.8883 74.1302 169.9352 C71.4111 176.3765 70.9917 181.8155 71.1382 188.74 C71.1402 189.3229 71.1402 189.3229 71.1506 192.2726 C71.1692 196.0845 71.2226 199.8952 71.2754 203.7068 C71.2924 206.3705 71.307 209.0341 71.3184 211.6979 C71.3528 218.6801 71.4177 225.6618 71.4897 232.6438 C71.5981 243.1801 71.6821 253.7166 71.7371 264.2533 C71.7624 268.8306 71.8135 273.4072 71.8698 277.9843 C71.8871 280.3716 71.9037 282.7589 71.9194 285.1462 C71.9381 286.2351 71.9567 287.324 71.9759 288.4458 C71.979 289.4437 71.9821 290.4415 71.9853 291.4696 C71.9946 292.3353 72.0038 293.2009 72.0134 294.0928 C71.5836 296.9157 70.5174 298.3016 68.6582 300.4255 C64.1559 300.4997 59.6539 300.5541 55.1511 300.5903 C53.6195 300.6054 52.0879 300.6259 50.5564 300.6519 C48.3545 300.6883 46.1533 300.7053 43.9512 300.7185 C43.2667 300.734 42.5822 300.7495 41.877 300.7654 C37.1332 300.7671 37.1332 300.7671 34.9766 299.2164 C33.2265 296.8391 33.2845 295.3704 33.2864 292.4313 C33.2796 291.3997 33.2729 290.3681 33.2659 289.3053 C33.2736 288.1738 33.2814 287.0424 33.2893 285.8767 C33.2855 284.6845 33.2818 283.4923 33.2779 282.2639 C33.2698 278.9907 33.2746 275.7177 33.2838 272.4444 C33.2893 269.0115 33.2748 265.5787 33.2615 262.1459 C33.2253 251.9265 33.219 241.7071 33.2216 231.4877 C33.2233 223.5579 33.216 215.6283 33.1816 207.6986 C33.1676 204.286 33.1616 200.8738 33.1746 197.4612 C33.1865 193.6437 33.174 189.827 33.1565 186.0095 C33.1662 184.8943 33.176 183.7791 33.186 182.63 C33.1181 175.1524 31.5656 169.2843 28.6582 162.4255 C26.8006 157.463 25.5146 152.8123 24.7832 147.5505 C24.1481 143.3132 23.1441 139.9993 21.2207 136.1755 C18.991 131.677 17.9454 127.3509 17.1582 122.4255 C16.3911 117.6504 15.4398 113.4501 13.2207 109.113 C10.3148 103.3796 9.3072 97.5195 8.1099 91.261 C7.1444 86.3499 5.8819 82.2406 3.5879 77.7771 C2.286 74.484 1.7915 71.09 1.2207 67.613 C0.3939 62.605 -0.6383 58.2605 -2.7793 53.613 C-5.5022 47.67 -6.7079 41.6791 -7.822 35.2739 C-8.714 30.4339 -10.1146 26.5971 -12.4392 22.2654 C-13.7122 19.6704 -14.1816 17.1492 -14.5918 14.3005 C-14.7413 13.3286 -14.8909 12.3566 -15.0449 11.3552 C-15.3487 8.3576 -15.3954 5.4364 -15.3418 2.4255 C-10.6162 -0.7249 -5.563 0.0155 0 0 Z " fill="#FFFFFF" transform="translate(280.341796875,97.574462890625)"/>
</svg>
