<?xml version="1.0" encoding="UTF-8"?>
<!-- Generator: visioncortex VTracer 0.6.12 -->
<svg version="1.1" xmlns="http://www.w3.org/2000/svg" width="496" height="488" viewBox="0 0 496 488">
<rect x="0" y="0" width="496" height="488" rx="78" ry="78" fill="#005096"/>
<path d="M0 0 C1.2961 -0.0063 2.5921 -0.0126 3.9274 -0.0191 C5.353 -0.0155 6.7785 -0.0114 8.2041 -0.0068 C9.6699 -0.0082 11.1356 -0.0101 12.6014 -0.0126 C15.685 -0.0156 18.7685 -0.0113 21.8521 -0.002 C25.7653 0.0093 29.6782 0.003 33.5914 -0.0091 C36.627 -0.0164 39.6625 -0.014 42.6981 -0.0088 C44.1379 -0.0075 45.5777 -0.0091 47.0175 -0.0138 C72.2432 -0.0782 72.2432 -0.0782 81.8447 6.2588 C83.2107 6.7432 84.5865 7.2009 85.9697 7.6338 C90.235 9.146 92.1515 11.6193 94.8447 15.2588 C95.6414 16.0155 96.438 16.7721 97.2588 17.5518 C100.026 20.4486 101.7024 23.1394 103.5322 26.6963 C104.1136 27.7881 104.695 28.88 105.2939 30.0049 C107.745 35.78 108.1356 42.0815 108.8447 48.2588 C108.9877 49.4467 109.1307 50.6347 109.2781 51.8586 C109.7033 55.5104 110.0907 59.1645 110.4697 62.8213 C110.5368 63.4172 110.5368 63.4172 110.876 66.4326 C112.6683 83.78 112.0265 100.9679 110.3005 118.293 C110.0283 121.0486 109.7785 123.8056 109.5303 126.5635 C109.3591 128.3527 109.1866 130.1417 109.0127 131.9307 C108.9407 132.737 108.8687 133.5434 108.7945 134.3742 C107.9707 142.3423 105.5227 149.352 101.8057 156.4229 C100.9668 158.0256 100.2107 159.671 99.4697 161.3213 C96.015 167.5663 91.8237 171.6324 85.6689 175.1963 C83.8447 176.2588 83.8447 176.2588 81.5322 178.0088 C75.0879 182.7824 63.5688 181.3136 55.8994 181.5049 C55.5645 181.5132 55.5645 181.5132 53.8694 181.5556 C51.1136 181.6216 48.3578 181.6844 45.6016 181.7356 C43.5547 181.7752 41.5084 181.8266 39.4619 181.8799 C38.2616 181.9049 37.0614 181.93 35.8247 181.9558 C32.8447 182.2588 32.8447 182.2588 29.8447 184.2588 C28.8971 187.1017 28.7139 188.8723 28.7 191.8201 C28.6965 192.2877 28.6965 192.2877 28.6791 194.654 C28.6778 195.166 28.6778 195.166 28.6711 197.7571 C28.6645 198.837 28.6578 199.9168 28.6509 201.0294 C28.6368 203.3768 28.6249 205.7242 28.6149 208.0716 C28.5985 211.7816 28.5753 215.4915 28.55 219.2014 C28.4792 229.7503 28.419 240.2993 28.3679 250.8484 C28.3362 257.2969 28.295 263.7453 28.2477 270.1936 C28.2317 272.6565 28.2194 275.1194 28.2108 277.5823 C28.1987 281.0183 28.1746 284.454 28.1477 287.8899 C28.1471 288.9159 28.1465 289.9419 28.1459 290.9991 C28.1362 291.9315 28.1265 292.8638 28.1165 293.8245 C28.1122 294.6373 28.108 295.4501 28.1036 296.2875 C27.8447 298.2588 27.8447 298.2588 25.8447 300.2588 C22.7119 300.5176 22.7119 300.5176 18.7197 300.5244 C18.017 300.5263 17.3143 300.5282 16.5903 300.5302 C15.1042 300.5316 13.618 300.5279 12.1318 300.5195 C9.8536 300.5088 7.5761 300.5194 5.2979 300.5322 C3.8551 300.5309 2.4124 300.5283 0.9697 300.5244 C-0.3477 300.5222 -1.6651 300.5199 -3.0225 300.5176 C-6.1553 300.2588 -6.1553 300.2588 -8.1553 298.2588 C-8.406 296.1147 -8.406 296.1147 -8.407 293.3955 C-8.4122 292.3617 -8.4174 291.3279 -8.4228 290.2627 C-8.4183 289.1182 -8.4138 287.9736 -8.4092 286.7944 C-8.4124 285.5854 -8.4155 284.3764 -8.4187 283.1307 C-8.4253 279.7641 -8.4229 276.3978 -8.4167 273.0313 C-8.4122 269.4048 -8.4192 265.7783 -8.4247 262.1518 C-8.4336 255.0433 -8.4316 247.9349 -8.4259 240.8264 C-8.4213 235.0512 -8.4207 229.2761 -8.4229 223.501 C-8.4232 222.6804 -8.4235 221.8597 -8.4238 221.0142 C-8.4245 219.3473 -8.4251 217.6803 -8.4258 216.0134 C-8.4315 200.3674 -8.4249 184.7214 -8.4142 169.0755 C-8.4052 155.6385 -8.4068 142.2016 -8.416 128.7646 C-8.4267 113.1762 -8.4309 97.5878 -8.4248 81.9994 C-8.4242 80.3384 -8.4235 78.6775 -8.4229 77.0165 C-8.4226 76.1992 -8.4223 75.3819 -8.422 74.5399 C-8.4202 68.7689 -8.4232 62.998 -8.4279 57.2271 C-8.4335 50.1982 -8.432 43.1694 -8.4213 36.1405 C-8.416 32.5514 -8.414 28.9625 -8.4206 25.3734 C-8.4276 21.4899 -8.4193 17.6066 -8.4092 13.7231 C-8.4137 12.5786 -8.4182 11.4341 -8.4228 10.2549 C-8.4175 9.221 -8.4123 8.1872 -8.407 7.122 C-8.4066 6.2247 -8.4063 5.3274 -8.406 4.4028 C-7.8164 -0.6395 -4.172 0.0058 0 0 Z " fill="#FFFFFF" transform="translate(130.1552734375,97.7412109375)"/>
<path d="M0 0 C0.6162 0.0754 0.6162 0.0754 3.7344 0.457 C11.9109 2.1559 19.2732 7.2357 24.2773 13.8789 C26.0337 16.6081 27.6881 19.3428 29.25 22.1875 C29.7682 23.1311 30.2864 24.0747 30.8203 25.0469 C32.4284 28.5795 33.3861 32.1103 34.25 35.875 C34.5885 37.305 34.9283 38.7347 35.2695 40.1641 C35.3518 40.5097 35.3518 40.5097 35.7681 42.2588 C36.3993 44.785 37.1716 47.2618 37.9375 49.75 C41.3698 62.3039 40.5107 76.2577 40.25 89.1875 C40.2374 89.8794 40.2249 90.5713 40.2119 91.2842 C40.021 99.2208 38.9372 106.0895 36.3516 113.5859 C34.7595 118.7913 33.8056 124.1115 32.9089 129.4775 C31.975 134.4592 30.5101 137.658 27.3801 141.6372 C25.8695 143.7095 25.3412 145.6958 24.8125 148.1875 C23.6182 152.7052 21.8475 155.1404 18.6602 158.4766 C16.7002 160.8545 15.9691 163.3246 15.0234 166.2227 C13.952 168.9446 12.2882 171.0022 10.5234 173.3125 C8.2391 176.6759 6.774 180.4328 5.25 184.1875 C4.59 184.1875 3.93 184.1875 3.25 184.1875 C3.103 184.7444 2.9561 185.3012 2.8047 185.875 C1.2326 191.2236 -0.848 194.8415 -4.3398 199.1484 C-6.2839 201.9595 -7.0336 204.8455 -7.9727 208.1016 C-9.172 211.3198 -11.5657 213.5664 -13.75 216.1875 C-14.6071 218.4251 -15.2667 220.682 -15.9414 222.9805 C-16.7617 225.2194 -17.6898 226.6029 -19.1875 228.4375 C-22.362 232.515 -23.3877 237.1191 -24.7734 242.0312 C-25.6224 244.7751 -26.589 247.1026 -27.9375 249.625 C-30.8846 255.4177 -31.0586 260.8089 -30.75 267.1875 C-29.7412 269.9976 -29.416 270.8545 -26.75 272.1875 C-24.9844 272.2967 -23.2147 272.3439 -21.4458 272.3611 C-20.8918 272.3678 -20.8918 272.3678 -18.0879 272.402 C-17.4869 272.4072 -17.4869 272.4072 -14.4453 272.4336 C-11.918 272.4665 -9.3906 272.4997 -6.8633 272.5332 C-2.8648 272.5807 1.1337 272.6255 5.1323 272.6643 C8.9816 272.704 12.8306 272.7555 16.6797 272.8086 C17.8777 272.817 19.0757 272.8254 20.31 272.8341 C21.4244 272.8507 22.5388 272.8674 23.687 272.8845 C24.6669 272.8948 25.6468 272.9051 26.6565 272.9158 C29.3118 273.194 30.9713 273.8345 33.25 275.1875 C34.0799 280.301 34.4614 285.2594 34.5 290.4375 C34.5206 291.1439 34.5412 291.8503 34.5625 292.5781 C34.6014 297.7173 34.6014 297.7173 32.9809 299.8854 C30.88 301.4658 29.8343 301.5643 27.2269 301.5685 C26.411 301.5769 25.595 301.5854 24.7543 301.5941 C24.3086 301.591 24.3086 301.591 22.0527 301.5757 C21.111 301.5809 20.1693 301.5862 19.1991 301.5916 C16.0804 301.6048 12.9624 301.5961 9.8438 301.5859 C7.6805 301.588 5.5172 301.5909 3.3539 301.5946 C-1.1823 301.5991 -5.7183 301.5926 -10.2544 301.5786 C-16.0755 301.5615 -21.8962 301.5714 -27.7174 301.5893 C-32.1851 301.6002 -36.6528 301.5967 -41.1205 301.5889 C-43.2672 301.5869 -45.4139 301.5894 -47.5605 301.5964 C-50.5582 301.604 -53.5551 301.5924 -56.5527 301.5757 C-57.4443 301.5818 -58.3358 301.5878 -59.2543 301.5941 C-60.0703 301.5856 -60.8862 301.5772 -61.7269 301.5685 C-62.4356 301.5673 -63.1442 301.5662 -63.8744 301.565 C-66.3424 301.0683 -67.236 300.1684 -68.75 298.1875 C-69.0781 295.2383 -69.0781 295.2383 -69 291.5 C-68.9934 291.1576 -68.9934 291.1576 -68.9602 289.4248 C-68.9256 287.8808 -68.8825 286.337 -68.8325 284.7935 C-68.742 281.9342 -68.6826 279.0749 -68.6211 276.2148 C-68.2643 262.6687 -66.9898 251.1087 -61.6484 238.5586 C-60.7612 236.2171 -60.2581 234.0219 -59.8125 231.5625 C-59.0062 227.4812 -57.3696 224.7679 -55.043 221.3633 C-53.5333 218.8228 -52.6348 216.297 -51.6875 213.5 C-50.25 209.2855 -48.58 206.6366 -45.75 203.1875 C-45.0446 201.5369 -44.3816 199.8678 -43.75 198.1875 C-42.2411 194.1854 -40.4697 191.5022 -37.75 188.1875 C-37.0724 186.7226 -36.4294 185.2415 -35.8125 183.75 C-34.4963 180.6097 -33.4301 178.8052 -31.1875 176.125 C-28.6581 173.0768 -27.7287 170.7273 -26.4883 167.0547 C-25.4167 164.3447 -23.6029 162.4219 -21.75 160.1875 C-20.4413 157.9429 -19.2102 155.668 -17.9961 153.3711 C-16.75 151.1875 -16.75 151.1875 -15.25 149.2109 C-13.6273 147.0219 -12.4915 144.8296 -11.3125 142.375 C-9.8677 139.3986 -8.3885 136.5473 -6.625 133.75 C-4.4854 130.0869 -3.5625 126.2498 -2.5391 122.1562 C-1.4585 118.0908 -0.0443 114.1621 1.3828 110.207 C3.3893 103.2205 3.4092 96.1271 3.418 88.9141 C3.4213 87.9503 3.4246 86.9865 3.4281 85.9935 C3.4331 83.9647 3.4355 81.936 3.4353 79.9072 C3.4375 76.8286 3.4557 73.7504 3.4746 70.6719 C3.4775 68.6901 3.4795 66.7083 3.4805 64.7266 C3.4841 64.2728 3.4841 64.2728 3.5022 61.9762 C3.4722 53.4329 2.6945 45.4108 -2.1875 38.1875 C-2.7843 37.28 -3.3812 36.3725 -3.9961 35.4375 C-6.2008 32.6092 -7.8452 31.3251 -11.4219 30.7812 C-20.7495 30.4972 -20.7495 30.4972 -24.875 34.1875 C-25.3932 34.7444 -25.9114 35.3013 -26.4453 35.875 C-26.6606 36.0916 -26.6606 36.0916 -27.75 37.1875 C-28.41 37.1875 -29.07 37.1875 -29.75 37.1875 C-35.2494 63.1081 -34.994 88.8112 -34.75 115.1875 C-38.625 117.8948 -41.2643 118.5711 -45.9688 118.5859 C-46.5585 118.5879 -46.5585 118.5879 -49.543 118.5977 C-50.1546 118.5919 -50.1546 118.5919 -53.25 118.5625 C-54.4733 118.5741 -55.6966 118.5857 -56.957 118.5977 C-58.1365 118.5938 -59.316 118.5899 -60.5312 118.5859 C-61.6044 118.5826 -62.6775 118.5792 -63.7832 118.5757 C-67.1459 118.1357 -69.0431 117.2018 -71.75 115.1875 C-72.9779 112.1178 -72.7326 110.0614 -72.2812 106.7812 C-71.5467 101.1625 -71.5144 95.5337 -71.375 89.875 C-71.0451 79.1816 -70.4383 68.5318 -69.5637 57.8693 C-69.4392 56.3476 -69.3184 54.8256 -69.2015 53.3033 C-67.6 32.6822 -67.6 32.6822 -61.75 25.1875 C-61.1518 23.7855 -60.5898 22.3676 -60.0625 20.9375 C-57.0427 13.8991 -51.4817 8.7305 -44.75 5.1875 C-43.9224 4.5275 -43.0948 3.8675 -42.2422 3.1875 C-38.0073 0.3488 -33.4693 0.2768 -28.5 -0.0625 C-27.6093 -0.1398 -26.7185 -0.2172 -25.8008 -0.2969 C-17.1338 -1.0013 -8.6299 -1.1197 0 0 Z " fill="#FFFFFF" transform="translate(341.75,96.8125)"/>
<path d="M0 0 C52.47 0 104.94 0 159 0 C159 52.47 159 104.94 159 159 C153.3943 157.8789 153.3943 157.8789 151 154.75 C149.1426 152.4066 147.2975 150.2434 145.125 148.1875 C143 146 143 146 143 144 C142.6184 143.8762 142.6184 143.8762 140.6875 143.25 C137.7392 141.8787 136.6417 140.7649 135 138 C135 137.34 135 136.68 135 136 C134.6184 135.8762 134.6184 135.8762 132.6875 135.25 C129.7392 133.8787 128.6417 132.7649 127 130 C127 129.34 127 128.68 127 128 C126.6184 127.8762 126.6184 127.8762 124.6875 127.25 C121.7392 125.8787 120.6417 124.7649 119 122 C119 121.34 119 120.68 119 120 C118.6184 119.8762 118.6184 119.8762 116.6875 119.25 C113.7392 117.8787 112.6417 116.7649 111 114 C111 113.34 111 112.68 111 112 C110.6184 111.8762 110.6184 111.8762 108.6875 111.25 C105.7392 109.8787 104.6417 108.7649 103 106 C103 105.34 103 104.68 103 104 C102.6184 103.8762 102.6184 103.8762 100.6875 103.25 C97.7392 101.8787 96.6417 100.7649 95 98 C95 97.34 95 96.68 95 96 C94.6184 95.8762 94.6184 95.8762 92.6875 95.25 C89.7392 93.8787 88.6417 92.7649 87 90 C87 89.34 87 88.68 87 88 C86.6184 87.8762 86.6184 87.8762 84.6875 87.25 C81.7392 85.8787 80.6417 84.7649 79 82 C79 81.34 79 80.68 79 80 C78.6184 79.8762 78.6184 79.8762 76.6875 79.25 C73.7392 77.8787 72.6417 76.7649 71 74 C71 73.34 71 72.68 71 72 C70.6184 71.8762 70.6184 71.8762 68.6875 71.25 C65.7392 69.8787 64.6417 68.7649 63 66 C63 65.34 63 64.68 63 64 C62.2369 63.7525 61.4737 63.505 60.6875 63.25 C57.7392 61.8787 56.6417 60.7649 55 58 C55 57.34 55 56.68 55 56 C54.2369 55.7525 53.4737 55.505 52.6875 55.25 C49.7392 53.8787 48.6417 52.7649 47 50 C47 49.34 47 48.68 47 48 C46.2369 47.7525 45.4737 47.505 44.6875 47.25 C41.7392 45.8787 40.6417 44.7649 39 42 C39 41.34 39 40.68 39 40 C38.2369 39.7525 37.4737 39.505 36.6875 39.25 C33.7392 37.8787 32.6417 36.7649 31 34 C31 33.34 31 32.68 31 32 C30.2369 31.7525 29.4737 31.505 28.6875 31.25 C25.7392 29.8787 24.6417 28.7649 23 26 C23 25.34 23 24.68 23 24 C22.2369 23.7525 21.4737 23.505 20.6875 23.25 C17.7392 21.8787 16.6417 20.7649 15 18 C15 17.34 15 16.68 15 16 C14.2781 15.7937 13.5562 15.5875 12.8125 15.375 C9.8034 13.9039 8.2925 12.219 6.2695 9.5859 C5 8 5 8 2.1875 5.3125 C0 3 0 3 0 0 Z " fill="#F85B03" transform="translate(337,0)"/>
<path d="M0 0 C0.9249 -0.02 1.8498 -0.04 2.8027 -0.0605 C10.1201 -0.0553 14.0803 1.5117 19.7969 6.1484 C20.3383 6.6976 20.8797 7.2467 21.4375 7.8125 C21.7134 8.0845 21.7134 8.0845 23.1094 9.4609 C27.723 15.2394 28.3735 20.8006 28.875 27.9375 C28.9145 28.4712 28.9145 28.4712 29.1143 31.1719 C30.4825 52.3055 30.4439 73.7554 28.875 94.875 C28.8051 95.8618 28.7351 96.8486 28.6631 97.8652 C28.0951 104.251 27.3092 110.0918 22.3125 114.5625 C21.4462 115.1813 20.58 115.8 19.6875 116.4375 C18.9038 117.3037 18.12 118.17 17.3125 119.0625 C11.9825 123.8848 5.4177 123.7784 -1.4375 123.75 C-2.2225 123.7661 -3.0076 123.7822 -3.8164 123.7988 C-8.4385 123.8027 -11.6089 123.5142 -15.3125 120.4375 C-16.2531 117.6158 -16.4401 115.8929 -16.4462 112.9723 C-16.4505 112.0583 -16.4547 111.1442 -16.4591 110.2025 C-16.4587 109.2019 -16.4582 108.2013 -16.4578 107.1704 C-16.4611 106.1149 -16.4645 105.0593 -16.4679 103.9718 C-16.4775 100.4734 -16.4794 96.975 -16.4805 93.4766 C-16.4837 91.049 -16.487 88.6215 -16.4906 86.1939 C-16.4965 81.1013 -16.4984 76.0087 -16.4978 70.916 C-16.4977 64.3867 -16.5114 57.8575 -16.5286 51.3282 C-16.5397 46.3131 -16.5417 41.298 -16.5412 36.2829 C-16.5424 33.8755 -16.5468 31.4682 -16.5545 29.0608 C-16.5643 25.6949 -16.5615 22.3293 -16.5554 18.9634 C-16.561 17.9668 -16.5667 16.9703 -16.5724 15.9436 C-16.5334 7.3852 -16.5334 7.3852 -14.3125 3.4375 C-10.0767 -0.6976 -5.5953 -0.0424 0 0 Z " fill="#005096" transform="translate(174.3125,126.5625)"/>
<path d="M0 0 C2.97 0 5.94 0 9 0 C9.1856 0.3816 9.1856 0.3816 10.125 2.3125 C12 5 12 5 14.875 6.4375 C18.6709 8.3355 20.3753 10.7023 23 14 C24.6464 15.3583 26.313 16.6925 28 18 C32.0939 21.8942 35.7612 25.8196 38.5625 30.75 C40 33 40 33 43 34 C43 36.97 43 39.94 43 43 C37.4713 42.5086 37.4713 42.5086 35.3711 40.2422 C33.9286 37.8832 33.4277 36.0681 32.875 33.375 C30.1975 23.9061 21.3056 15.9362 13 11 C10.3971 10.0756 7.8673 9.3629 5.1641 8.8008 C2.3545 7.7611 1.4493 6.5948 0 4 C0 2.68 0 1.36 0 0 Z " fill="#005096" transform="translate(453,0)"/>
</svg>
