<?xml version="1.0" encoding="UTF-8"?>
<!-- Generator: visioncortex VTracer 0.6.12 -->
<svg version="1.1" xmlns="http://www.w3.org/2000/svg" width="488" height="488" viewBox="0 0 488 488">
<rect x="6" y="6" width="476" height="476" rx="72" ry="72" fill="#401B51" stroke="#ffffff" stroke-width="10"/>
<path d="M0 0 C9.2322 -0.0465 18.4643 -0.082 27.6966 -0.1036 C31.9842 -0.114 36.2718 -0.1281 40.5593 -0.1509 C44.7026 -0.1727 48.8457 -0.1846 52.989 -0.1898 C54.5641 -0.1934 56.1392 -0.2006 57.7143 -0.2115 C68.2304 -0.281 77.6023 -0.1386 87.0859 5 C88.9421 5.9698 90.791 6.7039 92.75 7.4375 C96.3818 9.1836 97.6372 10.7988 100 14 C100.99 14.7425 101.98 15.485 103 16.25 C106.2852 18.8649 107.5538 21.8565 109.043 25.7188 C110 28 110 28 111.5156 30.1641 C113.6575 34.2562 114.0071 38.3269 114.5625 42.875 C114.6753 43.7284 114.7881 44.5817 114.9043 45.4609 C115.1445 47.2859 115.3772 49.1119 115.6035 50.9387 C115.8854 53.115 116.1942 55.2879 116.5215 57.4578 C117.9054 66.8605 118.3974 76.081 118.375 85.5625 C118.3755 86.3188 118.3759 87.0751 118.3764 87.8544 C118.3544 100.5587 117.5099 113.1182 116.1875 125.75 C116.1048 126.5623 116.0221 127.3746 115.937 128.2115 C115.6951 130.5335 115.4357 132.8527 115.168 135.1719 C115.0959 135.8475 115.0239 136.5232 114.9497 137.2193 C113.972 145.1227 110.7009 152.0363 107 159 C106.5669 159.825 106.1338 160.65 105.6875 161.5 C101.6138 167.5351 97.7393 172.0048 91 175 C90.3985 175.6607 89.797 176.3215 89.1772 177.0022 C82.0558 183.5368 65.7538 181.401 56.375 181.5625 C54.0679 181.6066 51.7609 181.6533 49.454 181.7053 C48.0329 181.737 46.6116 181.764 45.1903 181.7855 C42.1962 181.8488 39.8644 182.0452 37 183 C34.6544 188.5747 34.707 193.715 34.7129 199.6553 C34.7095 200.1857 34.7095 200.1857 34.6922 202.8698 C34.6786 205.1664 34.6696 207.463 34.6645 209.7596 C34.6562 213.3901 34.6357 217.0203 34.6119 220.6507 C34.5556 229.6618 34.5202 238.6729 34.4843 247.6841 C34.4531 255.3082 34.414 262.9321 34.3641 270.556 C34.3439 274.1402 34.3357 277.7243 34.3278 281.3085 C34.3148 283.4931 34.3013 285.6777 34.2871 287.8623 C34.2881 288.8649 34.2891 289.8675 34.2901 290.9005 C34.2818 291.8117 34.2735 292.723 34.265 293.6618 C34.2635 294.0589 34.2635 294.0589 34.2561 296.0684 C34 298 34 298 32 300 C28.8672 300.2588 28.8672 300.2588 24.875 300.2656 C24.1723 300.2675 23.4696 300.2695 22.7456 300.2714 C21.2594 300.2728 19.7733 300.2691 18.2871 300.2607 C16.0088 300.25 13.7314 300.2606 11.4531 300.2734 C10.0104 300.2721 8.5677 300.2696 7.125 300.2656 C5.8076 300.2634 4.4902 300.2611 3.1328 300.2588 C-0 300 -0 300 -2 298 C-2.2583 295.8786 -2.2583 295.8786 -2.2701 293.192 C-2.2794 292.1704 -2.2887 291.1489 -2.2983 290.0964 C-2.2984 288.9656 -2.2985 287.8348 -2.2987 286.6697 C-2.3066 285.4751 -2.3145 284.2804 -2.3226 283.0495 C-2.3426 279.723 -2.3535 276.3966 -2.3607 273.0701 C-2.3705 269.4864 -2.3917 265.9029 -2.4115 262.3193 C-2.4483 255.294 -2.4741 248.2688 -2.4959 241.2435 C-2.5137 235.5342 -2.535 229.8249 -2.5588 224.1156 C-2.5621 223.3041 -2.5655 222.4927 -2.569 221.6566 C-2.5758 220.0083 -2.5827 218.36 -2.5895 216.7116 C-2.6533 201.2387 -2.7041 185.7658 -2.7509 170.2928 C-2.7942 156.1313 -2.854 141.9699 -2.9215 127.8085 C-2.9907 113.2776 -3.0487 98.7467 -3.0946 84.2158 C-3.1206 76.0538 -3.151 67.8919 -3.1931 59.7299 C-3.2289 52.7802 -3.2541 45.8305 -3.2657 38.8807 C-3.2719 35.3338 -3.283 31.787 -3.3072 28.2401 C-3.3332 24.3971 -3.3359 20.5543 -3.3363 16.7112 C-3.3475 15.5871 -3.3588 14.463 -3.3704 13.3048 C-3.3667 12.2754 -3.3629 11.2461 -3.3591 10.1855 C-3.3622 9.2985 -3.3653 8.4114 -3.3685 7.4974 C-2.9191 4.4518 -1.7154 2.5262 0 0 Z " fill="#FFFFFF" transform="translate(124,98)"/>
<path d="M0 0 C18.1358 -0.5991 32.872 0.5101 47.6201 12.0962 C49.9174 14.2534 51.7758 16.5452 53.6201 19.0962 C54.2182 19.8864 54.8164 20.6766 55.4326 21.4907 C59.6828 27.5384 61.6584 32.9215 62.8804 40.1912 C63.6107 44.0464 64.6107 47.7313 65.6748 51.5063 C67.7227 59.3017 68.2074 66.71 68.0867 74.7432 C68.0574 76.8603 68.0662 78.975 68.0791 81.0923 C68.0616 92.0157 65.9264 101.6749 62.292 111.9478 C61.5945 114.178 61.2004 116.3571 60.8076 118.6587 C59.745 123.8095 56.9435 127.1471 53.6201 131.0962 C53.1161 131.809 52.6121 132.5219 52.0928 133.2563 C50.2271 135.5873 48.3798 136.0795 45.6201 137.0962 C44.3932 139.55 44.4184 141.296 44.3701 144.0337 C44.3443 144.909 44.3186 145.7842 44.292 146.686 C44.6846 149.5701 45.3732 150.3223 47.6201 152.0962 C48.4039 152.6531 49.1876 153.2099 49.9951 153.7837 C53.4061 156.7886 55.3662 160.1919 57.6201 164.0962 C58.1229 164.8477 58.6256 165.5992 59.1436 166.3735 C60.9486 169.7018 61.7901 173.0603 62.6201 176.7212 C62.9587 178.1564 63.2985 179.5913 63.6396 181.0259 C63.8042 181.7229 63.9687 182.42 64.1382 183.1382 C64.777 185.7334 65.5425 188.2858 66.3076 190.8462 C68.9491 200.482 68.7905 210.6077 68.7451 220.5337 C68.741 221.6283 68.7369 222.7228 68.7327 223.8506 C68.6526 235.418 68.1149 245.9824 64.6201 257.0962 C64.0972 258.8039 63.5764 260.5122 63.0576 262.2212 C62.9319 262.6279 62.9319 262.6279 62.2959 264.686 C61.6349 267.0434 61.181 269.376 60.7451 271.7837 C59.9104 275.7678 58.3425 278.3263 55.8271 281.4868 C54.6201 283.0962 54.6201 283.0962 53.3701 286.0337 C50.7083 290.6918 46.7324 293.7216 42.6201 297.0962 C41.866 297.7609 41.1119 298.4255 40.335 299.1104 C37.4272 301.2373 35.3189 301.99 31.8311 302.7993 C30.7237 303.0571 29.6164 303.3149 28.4756 303.5806 C27.327 303.8332 26.1785 304.0859 24.9951 304.3462 C24.4324 304.4803 24.4324 304.4803 21.585 305.1587 C5.7736 308.7414 -13.2598 307.7617 -27.7744 299.7793 C-33.9572 295.4304 -39.2245 289.6294 -41.5713 282.3267 C-42.3799 280.0962 -42.3799 280.0962 -44.3682 276.9478 C-46.9126 272.587 -47.428 268.2391 -48.0049 263.2837 C-48.1233 262.3601 -48.2417 261.4365 -48.3638 260.4849 C-48.7172 257.6902 -49.0491 254.8936 -49.3799 252.0962 C-49.5768 250.5505 -49.7746 249.0049 -49.9736 247.4595 C-50.5285 243.012 -50.9847 238.5606 -51.3799 234.0962 C-51.4604 233.1864 -51.541 232.2767 -51.624 231.3394 C-51.8626 228.4679 -52.0646 225.5962 -52.2549 222.7212 C-52.3285 221.8227 -52.4022 220.9242 -52.478 219.9985 C-52.8319 213.7321 -52.8319 213.7321 -50.5752 210.5571 C-45.3646 207.0896 -39.5334 207.8745 -33.5049 207.8462 C-32.4156 207.8256 -31.3264 207.8049 -30.2041 207.7837 C-29.1509 207.7785 -28.0978 207.7734 -27.0127 207.7681 C-26.5326 207.7634 -26.5326 207.7634 -24.103 207.7397 C-20.8622 208.164 -18.9899 209.154 -16.3799 211.0962 C-14.9235 215.5556 -15.3506 220.2899 -15.4451 224.9395 C-15.6686 236.036 -14.9335 246.2996 -12.3799 257.0962 C-12.1749 258.0308 -11.97 258.9653 -11.7588 259.9282 C-10.2391 265.6202 -7.3439 268.9373 -2.3799 272.0962 C3.6661 274.1115 11.8508 274.4803 17.6826 271.5962 C25.6494 264.816 28.2693 252.0968 29.6201 242.0962 C29.782 238.8568 29.8077 235.6205 29.8232 232.3774 C29.8289 231.4425 29.8346 230.5076 29.8405 229.5443 C29.8499 227.5675 29.8565 225.5906 29.8604 223.6138 C29.87 220.6337 29.901 217.6543 29.9326 214.6743 C29.9916 203.9986 29.404 194.4495 26.6201 184.0962 C26.348 182.7274 26.0853 181.3566 25.8389 179.9829 C23.9784 171.7018 21.0119 167.6864 14.1787 162.6704 C9.2057 159.6107 4.4442 159.819 -1.251 159.5728 C-4.6108 159.061 -5.8089 158.191 -8.3799 156.0962 C-8.4669 152.3255 -8.5203 148.5551 -8.5674 144.7837 C-8.5925 143.7118 -8.6177 142.64 -8.6436 141.5356 C-8.6532 140.5076 -8.6629 139.4796 -8.6729 138.4204 C-8.6886 137.4725 -8.7043 136.5247 -8.7205 135.5481 C-8.3799 133.0962 -8.3799 133.0962 -7.074 131.291 C-4.2685 129.3123 -1.371 129.6362 1.9951 129.5337 C9.7743 129.2805 14.8838 127.8339 20.6904 122.6079 C24.7506 117.3231 26.121 110.4967 27.6201 104.0962 C27.7132 103.7362 27.7132 103.7362 28.1843 101.9146 C29.8633 94.7656 29.9587 87.6378 29.9358 80.3291 C29.9326 78.2314 29.9562 76.1351 29.9814 74.0376 C30.0205 65.6843 29.1069 58.1152 26.6201 50.0962 C26.3194 49.072 26.0188 48.0479 25.709 46.9927 C23.7973 40.6768 21.3327 36.5688 15.6201 33.0962 C11.2729 31.6471 7.1635 31.578 2.6201 32.0962 C-0.6924 33.8462 -0.6924 33.8462 -3.3799 36.0962 C-4.2874 36.7356 -5.1949 37.3749 -6.1299 38.0337 C-9.9563 41.5412 -10.6243 45.6536 -11.2314 50.6665 C-11.3604 51.7287 -11.4893 52.7909 -11.6221 53.8853 C-11.6852 54.4357 -11.6852 54.4357 -12.0049 57.2212 C-12.1389 58.2988 -12.273 59.3765 -12.4111 60.4868 C-13.1384 66.646 -13.4762 72.5541 -13.1353 78.752 C-13.4495 81.7629 -14.2143 82.9938 -16.3799 85.0962 C-21.797 86.8032 -27.7533 86.3193 -33.3799 86.3462 C-33.92 86.3565 -33.92 86.3565 -36.6533 86.4087 C-37.6975 86.4138 -38.7416 86.419 -39.8174 86.4243 C-40.7648 86.4337 -41.7123 86.443 -42.6885 86.4526 C-45.982 86.0164 -47.7975 85.1856 -50.3799 83.0962 C-51.5829 79.6587 -51.4311 76.5111 -51.1455 72.9126 C-51.1066 72.4127 -51.1066 72.4127 -50.9099 69.8828 C-50.8637 69.3508 -50.8637 69.3508 -50.6299 66.6587 C-50.5827 66.1087 -50.5827 66.1087 -50.344 63.3252 C-50.0394 59.9137 -49.7148 56.5048 -49.3799 53.0962 C-49.2766 52.0374 -49.1733 50.9786 -49.0669 49.8877 C-48.7621 46.9115 -48.4225 43.9418 -48.0674 40.9712 C-47.9742 40.0786 -47.8811 39.186 -47.7852 38.2664 C-47.1059 33.0285 -45.8633 29.6855 -42.55 25.5576 C-41.1822 23.8493 -40.3467 22.1096 -39.5049 20.0962 C-37.2587 15.4884 -34.2996 12.3614 -30.3799 9.0962 C-29.6206 8.462 -28.8614 7.8278 -28.0791 7.1743 C-19.3776 0.7835 -10.3749 0.4193 0 0 Z " fill="#FFFFFF" transform="translate(313.3798828125,95.90380859375)"/>
<path d="M0 0 C0.3648 -0.0081 0.3648 -0.0081 2.2109 -0.0488 C8.641 -0.0546 13.366 1.4536 18.4258 5.6172 C19.2546 6.4654 20.0835 7.3136 20.9375 8.1875 C21.7793 9.0305 22.621 9.8736 23.4883 10.7422 C26.9954 14.961 27.8707 18.8273 28.2578 24.2305 C28.3419 25.3885 28.426 26.5466 28.5127 27.7397 C28.591 28.9806 28.6693 30.2215 28.75 31.5 C28.7917 32.1475 28.7917 32.1475 29.0029 35.4243 C30.1211 53.6572 29.8565 71.7751 28.8125 90 C28.7777 90.6681 28.7428 91.3362 28.7069 92.0246 C28.066 103.9175 26.3609 110.7375 17.5781 119.1992 C12.5984 122.7628 7.6146 123.1126 1.625 123.3125 C0.858 123.3666 0.091 123.4208 -0.6992 123.4766 C-5.5467 123.6861 -9.7609 122.6308 -14.375 121.3125 C-16.9886 116.3728 -16.6635 111.474 -16.6497 106.0337 C-16.6548 105.0006 -16.6599 103.9675 -16.6651 102.903 C-16.679 99.49 -16.6781 96.0771 -16.6758 92.6641 C-16.6797 90.289 -16.684 87.914 -16.6888 85.5389 C-16.6962 80.5607 -16.6959 75.5827 -16.6907 70.6045 C-16.6849 64.2301 -16.7018 57.8559 -16.725 51.4816 C-16.7398 46.5762 -16.7406 41.6708 -16.7375 36.7654 C-16.738 34.4155 -16.7433 32.0656 -16.7533 29.7157 C-16.7657 26.427 -16.7589 23.1388 -16.7473 19.8501 C-16.755 18.8826 -16.7626 17.9151 -16.7705 16.9183 C-16.7268 11.2913 -16.1047 7.2741 -13.375 2.3125 C-9.3361 -0.3339 -4.6925 -0.0205 0 0 Z " fill="#3F1B50" transform="translate(174.375,126.6875)"/>
</svg>
