<?xml version="1.0" encoding="utf-8"?>
<!-- Track map generated with TinyPedal -->
<svg viewBox="-366.4349 -738.3995 1289.3469 1090.6486" version="1.1" xmlns="http://www.w3.org/2000/svg">
	<title>Lusail Short Circuit</title>
	<!-- Sector coordinates index -->
	<desc>144,301</desc>
	<!-- Raw global coordinates -->
	<polyline id="map" fill="none" stroke="black" stroke-width="10" points="4.0394,-1.0157 -8.7015,-23.7414 -13.9535,-33.1475 -20.4093,-44.724 -26.3105,-55.3243 -31.6504,-64.9235 -37.6132,-75.6545 -43.6138,-86.4486 -50.2802,-98.3805 -55.7967,-108.1807 -61.9848,-119.1122 -68.8441,-131.1967 -74.4899,-141.1333 -80.7959,-152.226 -87.1329,-163.3739 -93.4946,-174.5786 -99.8792,-185.8397 -106.2872,-197.1553 -112.7233,-208.5209 -119.1959,-219.9303 -125.6986,-231.3853 -132.2295,-242.8857 -138.7773,-254.4041 -145.3414,-265.9496 -151.9293,-277.5384 -158.5365,-289.1715 -165.8247,-302.0193 -171.811,-312.5663 -178.4912,-324.3183 -185.1903,-336.111 -191.9055,-347.9448 -198.6479,-359.8126 -206.0888,-372.9092 -212.1906,-383.6593 -218.9694,-395.6485 -225.7284,-407.6942 -232.4735,-419.7922 -239.8996,-433.1466 -245.9806,-444.1082 -252.7133,-456.2501 -259.297,-468.1039 -265.6569,-479.5233 -272.3568,-491.5407 -277.6148,-500.9646 -283.2319,-511.0275 -288.6387,-520.6984 -293.8583,-530.0131 -299.3816,-539.8655 -303.7087,-547.6032 -308.3035,-555.8524 -312.6787,-563.7512 -316.8319,-571.3126 -320.7659,-578.5676 -324.4649,-585.54 -327.9023,-592.25 -331.0944,-598.756 -334.347,-605.7479 -336.8052,-611.3687 -339.3023,-617.5371 -341.4918,-623.6527 -343.4708,-630.3475 -344.8468,-636.4308 -345.812,-642.5207 -346.312,-647.989 -346.4349,-654.0228 -346.0932,-659.9784 -345.27,-665.8144 -343.9553,-671.4848 -342.1552,-676.9434 -339.6427,-682.6541 -337.1989,-687.0638 -333.7789,-692.0972 -330.2986,-696.3058 -326.8974,-699.7752 -322.8534,-703.2579 -318.5275,-706.3773 -313.8896,-709.2051 -308.9276,-711.7693 -303.1523,-714.2305 -298.3015,-715.8541 -292.847,-717.1859 -287.3626,-718.0272 -281.8545,-718.3995 -276.3789,-718.2936 -270.8307,-717.7298 -265.1069,-716.7047 -258.6575,-714.9987 -253.3175,-713.1422 -247.3389,-710.7087 -241.2513,-707.9858 -234.5024,-704.5159 -228.9775,-701.2798 -222.2529,-696.8459 -216.8074,-692.8438 -210.8718,-688.0497 -204.4262,-682.3384 -199.1904,-677.3746 -193.3848,-671.5981 -187.5518,-665.598 -181.6504,-659.424 -175.6123,-653.1504 -168.7389,-646.2184 -162.889,-640.5816 -156.1144,-634.4105 -149.0887,-628.3845 -141.0795,-621.8744 -134.3304,-616.5989 -126.6327,-610.7892 -118.7557,-605.0018 -110.7135,-599.2257 -102.5143,-593.4564 -94.1683,-587.6856 -85.691,-581.8958 -77.0836,-576.0912 -68.3438,-570.2823 -59.5853,-564.5853 -50.0812,-558.6281 -42.4029,-553.99 -33.9476,-549.054 -25.4946,-544.3412 -16.9899,-539.9019 -7.5405,-535.4017 1.2024,-531.6277 9.222,-528.4261 18.3117,-525.0408 27.5599,-521.8333 36.8035,-518.866 45.835,-516.1178 54.501,-513.4603 62.7525,-510.7811 70.547,-507.977 78.5292,-504.6195 84.5809,-501.6497 90.7947,-498.1312 96.4623,-494.3852 101.6163,-490.399 106.3024,-486.1191 110.5518,-481.5246 114.4134,-476.686 118.0476,-471.7248 121.6561,-466.6042 125.3296,-461.2944 129.1753,-455.8643 133.2676,-450.3634 137.6529,-444.8322 142.3529,-439.2992 147.3919,-433.8039 152.7609,-428.3543 158.4455,-422.957 164.4346,-417.619 170.7129,-412.3419 177.27,-407.1312 184.0987,-401.994 191.1798,-396.9208 198.4938,-391.8982 206.0008,-386.9704 213.7255,-382.144 221.679,-377.4171 229.869,-372.8206 238.2979,-368.3784 246.9692,-364.1199 255.8792,-360.063 265.0207,-356.2195 274.3885,-352.6081 283.9737,-349.2385 293.7684,-346.123 303.761,-343.2628 313.9391,-340.6507 324.2892,-338.2743 334.7519,-336.1483 345.3543,-334.2281 356.0906,-332.4874 366.9535,-330.9135 377.9356,-329.4792 389.0308,-328.1649 401.3599,-326.8431 412.676,-325.7357 422.9466,-324.8308 435.6114,-323.9226 446.0603,-323.354 457.7583,-322.8642 469.5422,-322.5667 481.4081,-322.4531 493.3525,-322.5118 505.3695,-322.7709 517.4529,-323.26 530.812,-324.0907 541.788,-324.9969 553.98,-326.2451 566.21,-327.7183 578.483,-329.3714 590.7834,-331.1542 602.9084,-332.9498 615.7977,-334.854 626.0284,-336.3725 638.1824,-338.1862 647.7978,-339.6357 658.1238,-341.2096 668.1282,-342.7394 677.8503,-344.2218 687.2772,-345.6405 696.385,-346.9758 705.2203,-348.2101 713.8268,-349.3264 722.2315,-350.2866 731.269,-351.1174 738.5233,-351.618 746.4612,-351.9756 754.267,-352.06 761.9587,-351.8042 770.3047,-351.0576 777.0213,-350.0552 784.335,-348.5094 791.4542,-346.4904 798.3447,-343.9977 805.0129,-341.0255 811.5178,-337.5693 817.9545,-333.6463 824.9657,-328.8287 830.618,-324.4943 836.7836,-319.271 842.7964,-313.6264 848.6269,-307.5755 854.2789,-301.1416 859.7196,-294.3814 864.9237,-287.2887 869.9108,-279.8805 874.6835,-272.1823 879.2369,-264.2045 883.5143,-256.0198 887.3779,-247.827 891.1636,-238.9609 894.2084,-231.0918 896.5922,-224.1624 898.9917,-215.9618 900.5027,-209.499 901.8354,-201.8781 902.532,-195.8358 902.912,-188.5905 902.8481,-182.7289 902.3872,-176.3043 901.5391,-169.93 900.3506,-163.4322 898.8223,-156.7775 896.9244,-150.0158 894.666,-143.1858 892.039,-136.2927 888.7563,-128.7102 885.7642,-122.4707 882.1845,-115.4979 878.3174,-108.5013 874.3135,-101.5298 870.274,-94.6687 866.1431,-88.0571 861.8962,-81.6267 857.0681,-74.7692 852.5344,-68.7427 848.3542,-63.4555 843.5291,-57.5971 838.4952,-51.6652 833.2759,-45.7824 827.8959,-40.1398 822.359,-34.8316 816.7427,-29.9524 811.0751,-25.5194 805.3647,-21.5509 799.6166,-18.0768 793.8289,-15.0995 787.9659,-12.5994 781.4161,-10.3774 775.9857,-8.9575 769.7891,-7.7436 763.3645,-6.8288 756.6855,-6.1424 749.7652,-5.7257 742.6215,-5.6175 734.5285,-5.8546 727.7434,-6.3339 719.3411,-7.2623 712.3461,-8.2789 704.4398,-9.6487 695.5869,-11.425 688.2271,-13.0837 679.9291,-15.1307 671.5013,-17.3517 662.9427,-19.7208 653.3733,-22.4579 644.5212,-25.0043 636.4532,-27.3198 627.3942,-29.9183 618.197,-32.5432 608.8577,-35.1658 599.3742,-37.7627 588.9212,-40.5132 580.597,-42.5998 571.6716,-44.7086 563.0775,-46.5882 554.7938,-48.2306 546.7918,-49.5865 539.0546,-50.5834 530.8278,-51.2318 524.2675,-51.4253 516.3994,-51.2525 509.3751,-50.6281 503.1756,-49.6437 496.4542,-48.0922 489.3014,-45.8531 483.6373,-43.619 477.4339,-40.6826 471.3149,-37.2767 465.2667,-33.4191 459.3046,-29.1498 453.4995,-24.4736 447.9049,-19.4173 442.6046,-13.9829 437.1695,-7.5932 432.9605,-2.134 428.4563,4.0446 424.1453,10.393 420.1858,16.9124 416.5932,23.5521 412.8673,30.889 409.9111,36.8725 406.4131,44.3274 403.5982,50.6354 400.4544,57.8373 397.3201,65.2464 394.1971,72.8537 391.0851,80.6555 387.9361,88.6231 384.7275,96.7468 381.0938,105.843 378.0401,113.4063 374.55,121.9255 370.6033,131.3664 367.2721,139.1802 363.0812,148.8445 359.5736,156.8497 355.2357,166.7688 351.66,174.9984 347.6615,184.2609 343.6174,193.6358 339.4888,203.1031 335.257,212.6507 330.4969,223.1897 326.6493,231.5508 322.5116,240.4097 318.5139,248.8254 314.6067,256.835 310.765,264.4383 306.9718,271.6594 303.1839,278.5355 299.3583,285.0991 295.4568,291.3376 291.4367,297.1889 287.2658,302.6306 282.8992,307.6588 278.3205,312.276 273.0426,316.8468 268.5634,320.1615 263.4128,323.391 258.1042,326.1384 252.7011,328.3779 247.218,330.1067 241.6779,331.3248 236.125,332.0354 230.6034,332.2491 225.1546,331.9806 219.7978,331.2565 214.4737,330.0932 209.1602,328.5091 203.8793,326.5126 198.6745,324.1047 193.5884,321.2862 188.1585,317.7159 183.8466,314.4292 178.7502,309.9766 174.7571,305.9981 170.5229,301.2377 166.0971,295.6281 162.6192,290.7932 158.5562,284.583 155.3423,279.2787 151.828,273.1409 148.3698,266.7297 144.6194,259.38 141.5598,253.1613 138.1535,246.0807 134.3337,238.1563 131.0578,231.5647 126.8405,223.4 123.2166,216.6361 119.0181,209.0326 114.675,201.3211 110.213,193.4926 105.193,184.7373 101.013,177.4579 96.3092,169.2424 91.0735,160.0513 86.7467,152.4138 81.4096,142.9401 76.5316,134.2423 72.1066,126.3176 67.1479,117.3978 62.1454,108.3603 57.0883,99.2143 51.9661,89.9689 46.7783,80.6272 41.5236,71.1939 35.67,60.7134 30.824,52.0603 24.8379,41.3892 19.9019,32.576 14.3891,22.6927 8.8483,12.7156 3.2802,2.648"/>
	<!-- Raw distance reference points -->
	<polyline id="dist" fill="none" stroke="none" stroke-width="0" points="3664.2522,13.4739 23.3759,13.3931 35.3334,13.3625 47.375,13.3202 59.4973,13.2842 71.7007,13.2541 83.9761,13.2144 96.3259,13.1783 108.7454,13.1361 121.2326,13.1008 133.7912,13.0639 146.42,13.0267 159.1172,12.9885 171.8797,12.9506 184.6998,12.918 197.5823,12.8783 210.5288,12.842 223.532,12.8061 236.5924,12.7651 249.7104,12.7223 262.8918,12.6892 276.123,12.6519 289.3734,12.6092 302.6553,12.5777 315.9888,12.5396 329.3704,12.4968 342.7972,12.4542 356.2698,12.4184 369.7873,12.3769 383.3481,12.3428 396.9536,12.2992 410.6036,12.259 424.2969,12.2203 438.0249,12.1828 451.7917,12.1388 465.6039,12.1009 479.452,12.0609 493.334,12.0122 507.2562,11.9728 521.1445,11.929 534.7115,11.8951 547.7921,11.8569 560.3235,11.8156 572.3307,11.7892 583.8492,11.7624 594.9341,11.759 605.6214,11.7772 615.9168,11.8155 625.7955,11.8534 635.2435,11.8918 644.2755,11.932 652.8968,11.9657 661.1369,11.9959 669.0211,12.0195 676.5394,12.038 683.7657,12.0506 690.7236,12.0521 697.4921,12.0386 704.0892,12.0086 710.4996,11.9595 716.799,11.8824 722.9927,11.8134 729.1463,11.7558 735.4326,11.7139 741.6349,11.678 747.806,11.6471 753.9025,11.6218 759.9256,11.6021 766.1895,11.5894 772.1744,11.5775 778.1168,11.5685 784.0086,11.5603 789.8384,11.5553 795.9305,11.5513 801.5875,11.5484 807.2162,11.5478 812.9269,11.5498 818.7983,11.5595 824.7907,11.5827 831.0109,11.608 836.8441,11.6398 842.567,11.6733 848.2191,11.7048 853.7914,11.7413 859.4388,11.78 865.3282,11.8247 871.3488,11.8811 877.554,11.9313 883.9241,11.9761 890.4998,12.0032 897.3435,12.0092 904.4092,11.9882 911.6226,11.9314 919.0279,11.8746 926.5225,11.7987 934.2859,11.7165 942.1528,11.6563 950.2261,11.5993 958.5718,11.5573 967.1308,11.5363 975.8685,11.543 984.7483,11.592 993.798,11.6593 1003.063,11.7528 1012.5042,11.8495 1022.0345,11.9508 1031.6348,12.0079 1041.3224,12.0622 1051.1053,12.1279 1060.9937,12.1973 1070.998,12.2785 1081.1301,12.3654 1091.381,12.4383 1101.7491,12.5009 1112.2283,12.5655 1122.6685,12.6293 1132.8734,12.698 1142.8505,12.7501 1152.6466,12.7988 1162.3281,12.8463 1171.9076,12.8942 1181.3723,12.9381 1190.8065,12.9818 1200.351,13.0117 1210.2064,13.0728 1220.5144,13.1638 1230.7217,13.2796 1240.2711,13.4148 1249.1277,13.5418 1257.6069,13.6324 1266.119,13.6819 1274.3726,13.7375 1282.9719,13.8173 1291.0105,13.921 1297.6774,14.0306 1303.7557,14.1238 1309.6301,14.1883 1315.7966,14.2242 1322.062,14.2328 1328.4108,14.2527 1335.2932,14.2838 1342.0237,14.3285 1348.8531,14.3582 1355.9777,14.3752 1363.1311,14.3809 1370.5405,14.3645 1378.038,14.3499 1385.7584,14.3308 1393.6117,14.309 1401.6747,14.289 1409.8893,14.2726 1418.2931,14.2557 1426.838,14.2371 1435.5321,14.2219 1444.3834,14.2022 1453.3228,14.1863 1462.3917,14.1675 1471.6,14.1442 1480.946,14.1178 1490.4429,14.0854 1500.0787,14.0533 1509.8491,14.0198 1519.6946,13.9853 1529.6364,13.954 1539.7073,13.9219 1549.9193,13.8844 1560.215,13.8273 1570.6539,13.7541 1581.1912,13.6813 1591.7849,13.6321 1602.4879,13.5896 1613.2925,13.5672 1624.1953,13.5558 1635.2076,13.5525 1646.3669,13.5473 1657.6378,13.5455 1668.9854,13.5545 1680.4192,13.5555 1691.9601,13.5637 1703.5787,13.5703 1715.2815,13.5731 1727.0457,13.5808 1738.8735,13.5947 1750.7308,13.612 1762.6818,13.6374 1774.7283,13.6644 1786.8456,13.6999 1799.0601,13.7281 1811.3112,13.7643 1823.6313,13.796 1836.0284,13.8199 1848.4659,13.8358 1860.7303,13.8458 1872.593,13.8489 1884.0999,13.8493 1895.2814,13.8485 1906.0979,13.8435 1916.5327,13.841 1926.6428,13.8411 1936.4774,13.8414 1946.0105,13.8468 1955.2101,13.8517 1964.1266,13.8642 1972.7997,13.8665 1981.2556,13.857 1989.5095,13.8288 1997.5667,13.7912 2005.4536,13.7366 2013.212,13.6784 2020.8207,13.61 2028.3954,13.542 2035.944,13.492 2043.4425,13.4368 2050.9854,13.3906 2058.4058,13.3503 2065.8931,13.3087 2073.3582,13.2653 2081.1113,13.2293 2088.9365,13.1954 2097.0164,13.1792 2105.1636,13.1717 2113.4756,13.1763 2121.8093,13.1906 2130.2407,13.2073 2138.8308,13.2171 2147.502,13.2139 2156.3799,13.207 2165.4033,13.1966 2174.5886,13.1905 2183.8003,13.1843 2192.8276,13.186 2201.5588,13.1855 2209.947,13.1881 2217.9692,13.1898 2225.6655,13.1785 2233.0474,13.174 2240.2795,13.1782 2247.2219,13.1896 2254.0388,13.2171 2260.9226,13.2512 2267.488,13.2954 2274.0266,13.349 2280.7876,13.4143 2287.5857,13.4968 2294.5349,13.5923 2301.5828,13.6869 2308.845,13.7777 2316.2441,13.8605 2323.8691,13.9111 2331.6143,13.9447 2339.5757,14.0169 2347.5852,14.0729 2355.5002,14.0976 2363.2905,14.1398 2370.9961,14.1953 2378.6118,14.214 2386.1418,14.2573 2393.5996,14.2919 2401.1233,14.3172 2408.8259,14.3345 2416.583,14.3444 2424.2705,14.3452 2431.8833,14.3371 2439.3296,14.3274 2446.9099,14.3321 2454.1279,14.3458 2461.4585,14.3715 2468.2717,14.4041 2474.9314,14.4427 2481.7356,14.4933 2488.1663,14.5401 2494.6345,14.602 2501.3352,14.6752 2508.0371,14.7645 2514.9055,14.8591 2521.9526,14.9465 2529.2244,15.0275 2536.6562,15.0857 2544.2661,15.1475 2552.0413,15.1781 2560.0388,15.1874 2568.2288,15.1667 2576.584,15.1223 2585.1182,15.0524 2593.8259,14.978 2602.687,14.9088 2611.7168,14.8379 2620.9023,14.7762 2630.208,14.7245 2639.6191,14.6733 2649.1729,14.624 2658.8669,14.586 2668.689,14.5473 2678.5107,14.5141 2688.0457,14.4905 2697.2041,14.4705 2705.9929,14.4504 2714.4355,14.4296 2722.5481,14.3951 2730.3374,14.3548 2737.814,14.2968 2745.0579,14.2436 2752.1892,14.1684 2759.3022,14.0946 2766.7336,14.036 2773.9246,13.9814 2781.3804,13.9378 2788.4353,13.9144 2795.8269,13.8998 2803.0522,13.8944 2810.4944,13.9052 2817.7983,13.9267 2825.1445,13.9691 2832.4543,14.0186 2839.772,14.0694 2846.9814,14.108 2854.4094,14.0851 2861.8506,14.0877 2869.4597,14.0865 2877.0657,14.0818 2884.6306,14.0596 2892.1218,14.006 2899.5483,13.9747 2907.03,13.965 2914.6836,13.927 2922.5269,13.8904 2930.5547,13.8462 2938.759,13.8203 2947.1384,13.7828 2955.6868,13.7598 2964.3936,13.7281 2973.2671,13.6982 2982.2964,13.6768 2991.4785,13.6551 3000.7529,13.6334 3010.1648,13.6216 3019.7188,13.6107 3029.4097,13.6127 3039.2317,13.6193 3049.1792,13.6333 3059.249,13.6514 3069.4392,13.6856 3079.7522,13.7329 3090.1848,13.7971 3100.7,13.8822 3110.9421,13.9651 3120.717,14.0468 3130.0308,14.1284 3138.9399,14.2036 3147.448,14.2817 3155.5884,14.3545 3163.4277,14.4247 3170.9985,14.4834 3178.3247,14.5217 3185.3328,14.5546 3192.1045,14.5667 3198.687,14.5725 3205.2661,14.5762 3211.7312,14.5915 3218.0754,14.6059 3224.3225,14.6249 3230.6282,14.6444 3236.6318,14.6674 3242.5474,14.6918 3248.3945,14.7177 3254.1765,14.7431 3259.9055,14.7667 3265.7971,14.7919 3271.4014,14.8174 3277.0161,14.8449 3282.6873,14.8729 3288.4185,14.9058 3294.2012,14.9429 3300.0261,14.9826 3305.8633,15.0266 3311.7695,15.066 3317.7646,15.1177 3323.8491,15.1595 3330.0457,15.2076 3336.2915,15.2503 3342.7725,15.27 3349.4009,15.2997 3356.1677,15.3257 3363.2385,15.3533 3370.5593,15.378 3378.0647,15.4045 3385.772,15.4301 3393.6196,15.4536 3401.6089,15.4629 3409.7759,15.466 3418.1257,15.4523 3426.6584,15.4283 3435.3452,15.3918 3444.1963,15.343 3453.2063,15.279 3462.3716,15.1916 3471.6855,15.1055 3481.1455,15.0026 3490.751,14.8827 3500.4951,14.7875 3510.3738,14.674 3520.3413,14.5644 3530.4214,14.462 3540.6248,14.3501 3550.9521,14.2429 3561.4038,14.1295 3571.9763,14.0166 3582.6648,13.9092 3593.4636,13.823 3604.3711,13.7458 3615.3828,13.6967 3626.4998,13.6525 3637.7217,13.6178 3649.0398,13.5818 3660.4478,13.5528 3671.8418,13.5178"/>
</svg>
