<?xml version="1.0" encoding="utf-8"?>
<!-- Track map generated with TinyPedal -->
<svg viewBox="-110.0000 -110.0000 1220.0000 791.3984" version="1.1" xmlns="http://www.w3.org/2000/svg">
	<title>Michelin Raceway Road Atlanta</title>
	<!-- Sector coordinates index -->
	<desc>140,280</desc>
	<!-- Raw global coordinates -->
	<polyline id="map" fill="none" stroke="black" stroke-width="10" points="850.5117,486.8787 842.0156,487.1219 834.1191,496.8418 825.9924,506.9936 817.8005,516.6684 809.4078,525.5351 800.1795,533.9600 790.3431,541.7535 780.0672,548.7891 769.0978,554.8802 757.0446,558.5306 745.2733,557.6419 733.0451,553.5759 721.7452,548.1900 710.8433,541.9413 700.5939,534.9987 690.8690,527.3032 681.5876,518.8430 673.6111,509.3037 666.5926,499.3443 659.2339,488.6982 651.8263,478.5366 643.7970,469.1387 634.4515,460.8101 624.1536,453.4541 613.4576,447.1918 601.5950,442.7619 589.9205,438.7083 580.2056,431.8458 576.4448,419.7925 567.1100,412.2430 555.7464,412.4131 552.7954,404.8031 551.9050,392.4063 546.2730,381.1821 539.6372,370.9664 531.7697,361.0487 522.8457,352.3098 512.7012,344.9422 501.8823,338.8494 490.4962,333.5865 478.8031,328.7164 467.3503,323.9147 456.2405,318.1169 447.0536,310.7589 439.2227,300.6983 434.5454,289.2955 430.9329,276.9523 427.1378,265.1296 421.7046,253.8100 414.5004,243.5708 406.3238,234.0326 397.8905,224.5476 390.2427,214.7940 384.4243,204.0808 379.9029,192.3799 375.2458,180.9784 368.9886,170.2836 360.3403,161.1413 349.4549,154.6991 337.4105,151.2583 324.9999,149.1636 313.1460,146.9274 301.3978,144.5793 289.3525,142.2251 277.0759,139.8826 264.6337,137.5694 252.0917,135.3032 239.5156,133.1016 226.9710,130.9824 214.5239,128.9631 201.7092,126.9983 189.0413,125.1538 176.7188,123.4761 164.8141,121.9980 151.6959,120.5717 138.7899,119.4118 126.8253,118.6239 115.0719,118.1713 102.5027,117.5145 90.1555,116.6441 77.8882,115.6934 65.5825,114.8005 53.0471,114.1065 40.5862,113.3864 28.5125,109.5406 19.3982,101.8060 14.1684,90.1653 12.4293,77.8394 13.0408,65.2499 13.7110,52.5249 14.5077,39.9022 15.4984,27.6303 18.2335,15.8925 29.4465,13.0599 41.9051,15.4328 54.0294,18.7112 65.9709,22.0979 77.8949,25.7743 89.8446,29.5941 101.7746,33.3874 113.6552,37.0350 125.6723,40.4529 137.8582,43.4953 150.1035,46.0354 162.3857,48.1485 174.7683,49.8875 187.2229,51.2825 199.7210,52.3638 212.2341,53.1616 224.7337,53.7060 237.1913,54.0273 249.6575,54.1801 262.1466,54.2751 274.6373,54.3217 287.1498,54.3208 299.6621,54.2791 312.1727,54.2022 324.6815,54.0953 337.1884,53.9636 349.6932,53.8123 362.1959,53.6466 374.6963,53.4715 387.1945,53.2924 399.6902,53.1144 412.1834,52.9427 424.6740,52.7824 437.1619,52.6387 449.6470,52.5169 462.1292,52.4220 474.6084,52.3593 487.0846,52.3339 499.6015,52.3575 512.1002,52.4260 524.6016,52.5413 537.1820,52.8844 549.7442,53.5064 562.2616,54.4350 574.7076,55.6981 587.0556,57.3236 599.2789,59.3394 611.6108,61.8378 624.1500,64.9386 636.2698,68.4681 648.0455,72.3693 659.5522,76.5851 670.8651,81.0586 682.1988,85.7960 693.5285,90.7072 704.8837,95.7067 716.3377,100.7263 727.9642,105.6980 739.7757,110.5474 751.4297,115.3583 762.9390,120.2123 774.3500,125.1041 785.7090,130.0286 797.0624,134.9806 808.4563,139.9550 819.9373,144.9467 831.5516,149.9504 843.7150,150.5204 854.0318,143.5674 861.9488,134.1126 872.1597,127.1400 884.2790,126.9003 895.2443,133.3629 896.2913,144.8841 894.8568,157.5852 901.4871,167.7543 913.2388,169.9682 923.7783,163.5742 930.2729,154.0830 929.8018,153.0377 929.3431,153.9975 934.8339,158.4802 945.4034,165.3955 954.5023,173.8589 960.3313,185.0821 964.6528,197.3021 968.4964,209.1157 971.9770,220.7389 975.1726,232.2453 978.1781,243.6967 981.1798,255.5708 984.2739,268.0474 987.3748,280.9730 987.6073,293.5739 985.4907,305.8540 982.1421,317.2903 975.8792,327.5241 968.2731,337.5348 959.9191,347.0676 951.8967,355.9414 944.2130,365.0489 937.8406,372.7180 930.5161,381.5507 922.4524,391.2894 913.8624,401.6762 904.9591,412.4536 895.9553,423.3637 887.0553,434.1487 878.4548,444.5416 870.3921,454.2758 863.0918,463.0878 854.9411,472.8995 847.2516,482.0830 854.2454,490.1456 860.9406,484.2408 868.1713,475.5747 877.3969,464.4458 886.0382,454.0121 893.7990,444.6387 901.8772,434.8658 910.1110,424.8945 918.3383,414.9258 926.3970,405.1606 934.1354,395.7879 943.0601,385.0202 950.8948,375.5898 958.4974,366.4977 966.7098,357.2390 976.1999,346.6536 983.6335,337.2708 989.9600,327.9515 995.3439,317.1834 998.1401,305.4013 1000.0000,292.9269 999.8374,280.3289 996.9995,267.4799 993.8791,254.9035 990.8639,242.9123 987.8525,231.3100 984.7196,219.8179 981.3422,208.2319 977.6323,196.4892 973.4697,184.4028 968.6015,172.1952 961.2523,162.1535 951.7567,154.0430 940.9239,146.9779 930.2847,141.8753 919.6186,147.6099 911.6997,156.9186 909.5713,157.8134 906.7822,154.5838 909.2243,142.7049 908.3758,130.4937 900.3352,121.1897 889.1323,115.1024 877.0399,113.3534 864.9263,116.2505 854.7093,123.1748 846.8189,132.8223 837.9502,138.8643 827.9390,134.4829 816.4967,129.5154 805.1286,124.5561 793.7888,119.6095 782.4311,114.6798 771.0095,109.7716 759.4781,104.8891 747.7908,100.0368 736.0250,95.2268 724.4833,90.3387 713.0496,85.3609 701.6528,80.3562 690.2218,75.3874 678.6855,70.5175 667.5295,66.0243 656.1599,61.7378 644.4953,57.7150 632.4746,54.0219 620.0367,50.7242 607.3334,47.9165 595.0757,45.6647 582.7214,43.8232 570.2951,42.3619 557.8211,41.2503 545.3240,40.4581 532.8284,39.9550 520.3586,39.7107 507.8662,39.6274 495.3583,39.5712 482.8610,39.5658 470.3485,39.6041 457.8377,39.6780 445.3288,39.7824 432.8217,39.9121 420.3168,40.0619 407.8139,40.2265 395.3132,40.4009 382.8149,40.5798 370.3189,40.7582 357.8255,40.9307 345.3346,41.0922 332.8465,41.2376 320.3611,41.3616 307.8787,41.4592 295.3992,41.5250 282.9228,41.5539 270.4306,41.5395 257.9339,41.4764 245.4371,41.3645 232.9230,41.1630 220.3706,40.7543 207.8107,40.1042 195.2759,39.1830 182.7986,37.9611 170.4112,36.4087 158.1463,34.4961 146.0363,32.1937 133.9508,29.4084 121.9098,26.1418 109.8992,22.5345 97.9521,18.7487 86.1226,14.9555 74.2193,11.2160 62.1845,7.6461 50.2562,4.3625 38.0361,1.2684 25.5526,0.0000 13.6073,3.0651 5.6584,12.4404 3.1709,24.4724 2.1382,36.8089 1.3221,49.4133 0.6377,62.0609 0.0000,74.5268 0.7441,87.0397 4.1475,99.0272 10.1235,110.0476 19.0597,118.3703 30.4919,123.4063 42.7274,125.9690 55.3158,126.5224 67.7489,127.2735 80.1438,128.1880 92.3186,129.1225 104.7012,129.9578 117.4623,130.5871 128.8510,131.0965 141.0363,131.9873 154.2708,133.2372 166.7084,134.6340 178.2801,136.1066 190.2405,137.7540 202.5165,139.5579 215.0352,141.5001 227.7235,143.5624 240.5084,145.7267 253.3170,147.9747 266.0763,150.2882 278.7133,152.6491 291.1549,155.0392 303.3283,157.4402 315.1633,159.8347 327.5840,161.9852 339.7580,164.3922 351.0553,169.4838 359.7074,178.4644 365.4703,189.3954 369.9062,201.0561 374.6606,212.4895 381.1820,223.3837 389.0077,233.1977 397.3947,242.5960 405.6038,252.2508 412.3972,262.4200 417.0528,273.8636 420.5321,285.7282 424.3638,297.7872 429.7918,308.9935 437.7672,318.9294 447.1789,326.9264 457.8600,333.1885 468.8907,338.0870 480.9541,342.9403 492.3996,347.9326 503.4959,353.7257 513.6936,360.6707 522.6951,369.2899 530.4885,379.2609 537.3024,389.9965 540.7553,401.3850 541.9986,413.6870 550.7435,422.3054 563.0760,424.3889 566.8807,421.8600 564.9872,425.1301 568.7500,437.1075 577.0650,446.2515 588.3755,451.6141 600.2451,455.6279 611.5772,460.5326 622.0170,467.3463 631.9084,475.2684 640.1304,484.1760 647.7291,494.3231 654.8764,504.6749 662.0415,514.9403 669.7915,524.7762 678.6639,533.4614 688.2010,541.4690 698.2064,548.7976 708.7559,555.4705 719.6532,561.3834 731.1613,566.5016 743.2042,570.1859 755.5950,571.3984 767.8624,569.0622 779.3600,564.0158 789.8919,557.5922 800.0402,550.3680 809.7662,542.4599 818.9554,533.9364 827.4604,524.8707 835.5940,515.2683 843.8370,505.0806 851.7247,495.3501"/>
</svg>
