<?xml version="1.0" encoding="utf-8"?>
<!-- Track map generated with TinyPedal -->
<svg viewBox="-1162.1481 -745.5107 2155.1715 1255.1527" version="1.1" xmlns="http://www.w3.org/2000/svg">
	<title>Paul Ricard - 1A-V2</title>
	<!-- Sector coordinates index -->
	<desc>177,319</desc>
	<!-- Raw global coordinates -->
	<polyline id="map" fill="none" stroke="black" stroke-width="10" points="95.7139,59.5705 73.4737,43.6998 63.5013,36.5813 51.8325,28.2496 41.6515,20.9802 31.3772,13.6397 20.4645,5.8406 8.8997,-2.4308 -2.2157,-10.3798 -12.869,-17.9919 -24.1687,-26.0782 -35.5605,-34.2353 -47.6281,-42.8603 -59.2155,-51.1378 -70.2993,-59.0689 -83.1901,-68.3763 -94.3807,-76.5084 -105.6523,-84.6836 -117.6293,-93.2983 -130.278,-102.4026 -141.7691,-110.6756 -153.933,-119.429 -166.17,-128.2229 -179.7124,-137.9396 -191.5102,-146.3233 -204.0358,-155.1255 -216.0291,-163.4732 -228.5433,-172.129 -241.6078,-181.1756 -252.2188,-188.5372 -262.2051,-195.4797 -272.1042,-202.3714 -281.4983,-208.9134 -290.965,-215.5136 -299.2286,-221.2834 -307.6172,-227.1548 -316.0842,-233.0887 -323.8305,-238.518 -330.9123,-243.4866 -338.7829,-249.0129 -345.3937,-253.6522 -352.2816,-258.4912 -358.772,-263.0415 -365.5712,-267.7381 -372.3192,-272.2367 -378.9478,-276.3879 -385.7021,-280.2049 -392.0353,-283.3091 -398.0572,-285.8521 -404.3872,-288.1221 -410.6864,-289.9734 -416.9208,-291.4096 -423.3521,-292.3741 -429.1825,-292.7871 -435.6333,-292.7142 -442.0245,-292.0891 -447.4439,-290.9819 -453.6454,-289.042 -459.0856,-286.6698 -464.6024,-283.5685 -469.8854,-279.8548 -475.6396,-275.3217 -480.5052,-271.5195 -486.1485,-267.3244 -492.0558,-263.4354 -498.5452,-259.8419 -505.0105,-256.9871 -511.4212,-254.7651 -519.1592,-252.735 -526.0876,-251.4914 -533.8589,-250.7401 -540.9621,-250.6292 -548.5188,-251.1496 -556.132,-252.3691 -563.3671,-254.2134 -570.9443,-256.8568 -578.8678,-260.3373 -586.0271,-264.0055 -593.5914,-268.3051 -601.6127,-273.2445 -609.3584,-278.2791 -616.8395,-283.3072 -625.6399,-289.4266 -633.7448,-295.2822 -641.4839,-301.1556 -649.2383,-307.3416 -657.4684,-314.11 -666.6708,-321.6781 -674.3327,-327.9807 -682.9827,-335.1058 -691.7822,-342.3459 -700.7579,-349.6603 -709.9402,-357.003 -719.4061,-364.2636 -729.2396,-371.306 -741.017,-379.0751 -750.0414,-384.5661 -760.967,-390.787 -772.6671,-397.2492 -783.9448,-403.4065 -795.3648,-409.5678 -806.3608,-415.4106 -818.1141,-421.4956 -830.7531,-427.5882 -843.6925,-433.1429 -854.5634,-437.343 -866.0501,-441.6304 -876.7935,-445.723 -887.2682,-450.0038 -896.6018,-454.0331 -905.1221,-457.7267 -914.7639,-461.9196 -922.9131,-465.4742 -931.3127,-469.1669 -939.9606,-473.0774 -947.2202,-476.5772 -955.8683,-481.1108 -963.8483,-485.6794 -969.9975,-489.469 -976.8875,-493.9947 -983.5698,-498.7832 -989.27,-503.4191 -994.3345,-508.2668 -998.5845,-513.1383 -1002.4561,-518.4842 -1005.8475,-524.291 -1008.4098,-530.0004 -1010.2099,-535.5633 -1011.4987,-541.7968 -1012.0696,-547.778 -1012.0355,-553.457 -1011.5616,-559.4573 -1011.1633,-565.8246 -1011.3273,-572.4605 -1011.9529,-577.4738 -1013.2867,-583.1749 -1015.3097,-588.875 -1017.8082,-593.9743 -1020.8633,-598.7665 -1024.6112,-603.4232 -1028.447,-607.2438 -1032.9021,-610.8193 -1037.4948,-613.7645 -1042.6515,-616.3544 -1048.3403,-618.4583 -1053.6951,-619.8165 -1059.4933,-620.6747 -1065.3956,-620.9348 -1071.6453,-620.6036 -1077.5781,-619.6717 -1083.1223,-618.2168 -1088.7881,-616.4756 -1094.899,-615.0721 -1100.1548,-614.5032 -1105.3627,-614.462 -1110.9592,-615.0455 -1115.8149,-616.1336 -1120.8917,-617.9327 -1125.3716,-620.1925 -1129.6062,-623.1183 -1132.7845,-626.0299 -1136.0802,-629.9819 -1138.379,-633.6563 -1140.1344,-637.509 -1141.385,-641.675 -1142.0787,-646.289 -1142.1481,-650.2221 -1141.7289,-654.0526 -1140.6812,-658.1548 -1139.3197,-662.0958 -1137.9037,-666.2278 -1136.4891,-670.343 -1134.7379,-675.3491 -1133.1285,-679.8636 -1131.3458,-684.6767 -1129.4382,-689.2342 -1127.035,-693.8136 -1124.1472,-698.1412 -1120.5647,-702.4412 -1116.964,-706.2011 -1112.9797,-710.0966 -1108.7274,-713.5697 -1104.1896,-716.4878 -1099.1689,-719.0101 -1094.1542,-720.9959 -1089.2065,-722.5831 -1083.8214,-723.9629 -1077.9768,-724.9708 -1072.3193,-725.4963 -1066.948,-725.5107 -1061.2971,-724.9752 -1055.3607,-723.7949 -1049.4575,-721.9409 -1044.3552,-719.9219 -1037.9861,-716.988 -1032.4369,-713.9779 -1026.6833,-710.3441 -1021.1643,-706.3123 -1016.0739,-702.1713 -1010.3541,-697.2717 -1004.7678,-692.2392 -999.1412,-686.7717 -993.787,-681.1758 -987.9771,-674.489 -982.7915,-667.6674 -978.1646,-660.731 -973.66,-652.9335 -969.0558,-643.8391 -965.2656,-636.1575 -960.86,-627.4623 -955.803,-618.2843 -950.7001,-610.0491 -944.7794,-601.4944 -937.601,-592.4142 -931.2634,-585.4716 -923.4268,-578.0076 -915.6031,-571.5162 -907.8745,-565.9514 -899.4592,-560.7075 -889.7292,-555.5613 -881.3552,-551.803 -870.7127,-547.54 -861.751,-544.1772 -851.0706,-540.4055 -841.2193,-536.9921 -829.6157,-532.9711 -819.4295,-529.4393 -809.0894,-525.8559 -798.0473,-522.0236 -786.2806,-517.9412 -775.4849,-514.1966 -763.9717,-510.2042 -751.7225,-505.9574 -740.5019,-502.0673 -727.3527,-497.5065 -716.4921,-493.7343 -703.1002,-489.0812 -692.0349,-485.2285 -679.6257,-480.9099 -666.4476,-476.4012 -653.7714,-472.0855 -641.6227,-467.9467 -628.7297,-463.545 -615.0803,-458.8783 -602.6281,-454.6204 -589.4206,-450.0987 -576.113,-445.5405 -561.3584,-440.4866 -548.5222,-436.0848 -534.9224,-431.4043 -521.9244,-426.9072 -508.1598,-422.1257 -493.6017,-417.1104 -480.3037,-412.6835 -466.202,-408.0688 -451.2983,-403.2943 -437.0329,-398.7684 -423.419,-394.4411 -407.5771,-389.4059 -393.1091,-384.7981 -379.3055,-380.3961 -364.7101,-375.742 -350.7887,-371.2973 -336.0769,-366.5908 -319.8325,-361.3651 -304.2635,-356.3424 -291.6099,-352.2682 -276.6719,-347.4592 -260.1758,-342.1434 -245.8796,-337.5325 -230.7769,-332.6663 -214.8628,-327.541 -201.1787,-323.128 -185.1662,-317.9597 -169.8655,-313.0268 -153.7504,-307.824 -139.9002,-303.3478 -123.6992,-298.1059 -108.9994,-293.3484 -93.4858,-288.333 -77.9284,-283.3081 -60.7716,-277.7627 -46.7013,-273.2113 -29.4592,-267.635 -14.532,-262.8092 0.4311,-257.9749 16.2165,-252.8746 32.8315,-247.5135 48.6923,-242.4014 63.7928,-237.5438 81.3131,-231.9139 97.2635,-226.7849 111.6504,-222.1736 128.4626,-216.8004 143.7037,-211.9348 160.5819,-206.5535 178.2983,-200.9115 192.0018,-196.5202 208.1203,-191.2632 225.8825,-185.4698 241.2499,-180.4671 258.2605,-174.9272 272.8591,-170.1639 290.7063,-164.331 306.1119,-159.2713 323.1404,-153.618 339.3766,-148.2169 354.8208,-143.079 370.2826,-137.9388 386.578,-132.5261 403.7091,-126.8368 420.0411,-121.416 436.3919,-115.9917 451.9384,-110.8362 469.1247,-105.136 485.5112,-99.7028 501.093,-94.5407 519.1448,-88.5681 537.2097,-82.5922 551.1799,-77.9701 566.8029,-72.7991 584.9001,-66.807 600.5302,-61.6102 616.9883,-56.1301 632.6334,-50.9157 649.1024,-45.4216 665.5809,-39.9268 683.6982,-33.8838 698.243,-29.0218 715.2595,-23.317 729.2193,-18.6226 743.1637,-13.9262 755.8785,-9.6361 768.8522,-5.2557 781.9396,-0.831 793.8553,3.2191 804.7505,6.9567 815.856,10.8054 826.5898,14.601 837.9516,18.7852 847.42,22.5373 857.5591,27.071 865.941,31.384 875.78,37.2354 884.449,43.0894 892.0875,48.7412 901.17,56.1407 908.3035,62.6381 915.7207,70.3513 922.8846,79.0947 928.8062,87.6057 934.5285,97.0926 940.2811,108.0368 944.4918,117.2718 948.9717,128.3057 952.5565,138.566 955.7919,149.6638 958.8517,162.211 961.2088,173.2915 963.3142,184.5843 965.4029,196.6652 967.3902,210.1947 968.7192,222.0851 969.7052,234.1487 970.3707,246.9818 970.7413,260.6152 971.0112,274.0363 971.2242,284.8497 971.4669,297.2508 971.6633,307.4652 971.8589,317.8817 972.0388,327.6265 972.2214,337.8077 972.3965,347.9121 972.5791,358.9232 972.7148,367.7753 972.8498,377.2621 972.9719,386.5133 973.0234,394.6356 972.8226,401.8047 972.1461,408.9133 970.9904,415.7192 969.3499,422.6202 967.3713,428.6024 964.5939,434.8985 961.6448,440.3148 957.874,446.3022 954.2763,451.167 950.3567,455.7198 946.015,460.3011 940.921,465.0451 936.4904,468.7031 931.3373,472.5622 925.3273,476.4207 919.5493,479.5294 913.7911,482.0671 907.7928,484.1689 901.2711,485.9993 894.2362,487.5751 887.7223,488.6763 880.0165,489.4464 873.5911,489.642 865.9892,489.3385 859.0593,488.4849 851.0369,486.8051 844.1716,484.7628 837.4113,482.1892 830.4431,478.9293 823.4449,474.9323 817.2156,470.6143 811.7229,466.1028 806.4155,460.9635 801.623,455.4693 797.1429,449.3851 793.4761,443.3242 790.6566,437.3376 788.453,430.8702 787.0194,423.6615 786.5361,417.4504 786.6831,411.2581 787.4367,404.7888 788.8996,398.0764 790.7628,392.0769 793.2006,385.8321 796.3362,378.9515 799.3779,372.9534 802.7018,366.8349 806.5602,360.2403 811.0408,353.1821 815.972,345.5117 819.9,339.4033 824.6331,332.0389 829.7411,324.0794 834.4835,316.6802 839.5935,308.6882 844.8859,300.5376 850.9059,292.0988 856.2618,284.8881 861.9906,277.1491 866.2817,271.3393 870.8576,265.1472 874.6196,260.0578 878.4529,254.6468 881.2163,250.2213 883.7593,245.5439 885.9559,241.0513 888.0396,235.696 889.3589,230.955 890.379,226.1386 891.3083,221.0232 892.0621,215.8544 892.5078,210.3565 892.5837,205.034 892.3403,199.9022 891.696,194.1649 890.7709,188.9478 889.434,183.4673 887.5953,177.8995 885.5192,173.1136 882.7863,168.1012 879.9255,163.9008 876.3416,159.7261 872.5778,156.2463 868.7197,153.4499 864.3954,151.068 859.3201,149.0691 854.7328,147.9213 850.0029,147.3016 844.6601,147.2523 839.2309,147.8611 834.5073,148.8593 829.1757,150.4969 823.7194,152.6177 817.778,155.2719 811.4861,158.1861 805.1943,161.0966 798.2393,164.3057 792.3466,167.0208 785.1213,170.3423 777.1642,173.8679 769.6045,176.8349 761.327,179.8141 752.2905,182.8433 743.783,185.3736 733.5814,188.1736 724.9435,190.2361 714.5354,192.3122 704.8434,193.9509 694.3599,195.2808 682.5775,196.2397 671.6337,196.5841 661.6168,196.4054 650.3364,195.6205 638.9561,194.125 626.9559,191.7284 616.0804,188.9068 604.5961,185.4366 592.5314,181.238 581.0807,176.6714 570.3973,171.7803 559.701,166.2121 549.7059,160.375 539.0883,153.3668 531.4521,147.6817 524.0358,141.5998 516.5919,135.1115 510.1476,129.3653 504.5336,124.3382 499.1537,119.514 494.0066,114.951 489.6552,111.2071 485.0954,107.524 480.3232,104.263 474.787,101.3717 469.5688,99.4002 464.7764,98.166 459.1061,97.3864 453.9054,97.2403 447.811,97.4557 442.4692,97.7916 436.476,98.2804 431.2814,98.8941 424.9153,100.0994 419.4996,101.6136 414.2978,103.6622 408.437,106.6565 403.6397,109.4108 398.0276,112.9107 393.1204,116.4558 387.9913,120.8979 383.1034,125.8972 379.014,130.8244 375.4693,136.0309 372.1027,142.4292 369.5042,148.9437 367.8874,154.4426 366.4573,161.7211 365.8232,168.0858 365.6999,174.503 365.9592,180.9934 366.3379,185.5913 366.9442,190.977 367.6426,195.4103 368.44,199.6245 369.2134,202.6771 370.1205,206.1118 370.7444,209.8744 370.7704,212.9482 370.1614,216.576 369.1614,219.3302 367.4594,222.2477 365.4531,224.5712 362.9826,226.7873 360.1804,229.0452 357.0,230.9974 354.3834,232.0403 351.1794,232.7592 347.7023,232.9137 343.8591,232.5676 340.3621,231.9107 336.7061,230.9309 332.7093,229.5577 328.7827,227.9048 324.0934,225.5409 320.1143,223.2776 315.2676,220.2861 310.6776,217.2571 305.6183,213.7622 299.7102,209.6244 294.3802,205.8275 288.8699,201.7682 282.8037,197.2862 275.8202,192.1196 269.5386,187.4604 263.048,182.6378 256.0267,177.4207 248.7918,172.0468 241.3493,166.5152 233.3118,160.5441 225.4538,154.7052 217.4051,148.7184 208.3409,141.9651 200.3399,135.9993 192.6278,130.2511 183.4902,123.4417 174.5804,116.9112 165.91,110.696 156.5186,104.2182 146.9664,97.6528 136.8211,90.5902 127.5202,84.0862 117.6088,77.1247 107.5901,70.0293 96.9457,62.4581"/>
	<!-- Raw distance reference points -->
	<polyline id="dist" fill="none" stroke="none" stroke-width="0" points="5745.7314,0.3804 25.3363,0.3713 38.2308,0.3629 51.2583,0.3236 64.418,0.3005 77.7081,0.2597 91.1221,0.2498 104.6534,0.2363 118.3108,0.1922 132.0911,0.1111 145.9874,0.0402 160.0006,-0.0608 174.1739,-0.2027 188.3718,-0.3886 202.7108,-0.6348 217.156,-0.8938 231.7096,-1.1354 246.3652,-1.3588 261.1259,-1.6265 275.9716,-1.8919 290.878,-2.1119 305.8738,-2.3517 320.9302,-2.6438 336.0746,-2.9263 351.3125,-3.1898 366.6231,-3.4378 382.0053,-3.6482 397.2151,-3.8521 411.6971,-4.0203 425.3568,-4.1535 438.1847,-4.2415 450.2499,-4.3087 461.6953,-4.3926 472.6953,-4.4718 483.3107,-4.487 493.5503,-4.4846 503.4048,-4.4582 512.8802,-4.442 521.9934,-4.4387 530.7511,-4.4453 539.2595,-4.4473 547.6731,-4.4541 556.0123,-4.4674 564.272,-4.457 572.3676,-4.4195 580.1828,-4.3845 587.5712,-4.3629 594.5817,-4.3521 601.381,-4.3582 608.0458,-4.3879 614.5519,-4.4299 621.4843,-4.4935 628.399,-4.5845 636.4538,-4.691 643.4198,-4.7904 650.224,-4.9144 657.1168,-4.9991 663.2548,-5.0667 669.3481,-5.0731 675.5558,-5.0342 681.988,-4.925 688.6517,-4.7653 695.5271,-4.6464 702.6462,-4.5338 709.7944,-4.4435 717.1548,-4.4056 724.4596,-4.3948 732.2373,-4.4254 739.8607,-4.5466 747.9412,-4.7078 755.632,-4.9427 763.4707,-5.2303 771.2149,-5.5525 778.8587,-5.8504 786.5837,-6.0709 794.5201,-6.2303 802.6891,-6.3521 811.1047,-6.4191 819.7886,-6.5149 828.7427,-6.6018 837.9259,-6.686 847.3494,-6.7862 857.0339,-6.8841 866.9641,-6.971 877.1203,-7.0236 887.494,-7.0783 898.1352,-7.1262 908.9884,-7.2838 920.0508,-7.3482 931.364,-7.4365 942.8034,-7.499 954.3982,-7.5619 966.1732,-7.5921 978.1141,-7.625 990.2175,-7.6736 1002.4916,-7.7419 1014.924,-7.7835 1027.5428,-7.8382 1040.3147,-7.9171 1053.2627,-8.0033 1066.3295,-8.0955 1079.4801,-8.2223 1092.8049,-8.3457 1106.2634,-8.4821 1119.736,-8.594 1132.7749,-8.6545 1145.0225,-8.7521 1156.4816,-8.8422 1167.2183,-8.9624 1177.3527,-9.1142 1187.0829,-9.2372 1196.604,-9.4009 1205.9492,-9.5618 1215.1129,-9.7265 1224.1375,-9.912 1233.0236,-10.0979 1241.8441,-10.3355 1250.6057,-10.5803 1259.0697,-10.7539 1267.2471,-10.9403 1275.03,-11.0941 1282.26,-11.2195 1289.1283,-11.3359 1295.7454,-11.4448 1302.4025,-11.5655 1309.0237,-11.6939 1315.6135,-11.7953 1322.3737,-11.8553 1328.5796,-11.9085 1334.543,-11.9703 1340.4528,-12.0468 1346.5303,-12.1378 1352.677,-12.2412 1358.8346,-12.371 1364.9689,-12.482 1371.2811,-12.5782 1377.2562,-12.6712 1383.1453,-12.7552 1389.0435,-12.8346 1394.9381,-12.9177 1400.8014,-12.9896 1406.7576,-13.0634 1412.5939,-13.1289 1418.4476,-13.194 1424.2679,-13.2594 1430.0731,-13.3242 1435.8994,-13.3916 1441.7488,-13.4592 1447.6892,-13.564 1453.6501,-13.6609 1459.5938,-13.728 1465.4369,-13.7819 1471.1044,-13.8233 1476.631,-13.8229 1482.0276,-13.8558 1487.2438,-13.9067 1492.2946,-13.9536 1497.261,-13.9969 1502.2657,-14.0249 1507.5396,-14.009 1513.5054,-13.9492 1519.9106,-13.8599 1526.4634,-13.7882 1530.5283,-13.7155 1534.6556,-13.6438 1538.439,-13.584 1542.3007,-13.5577 1546.2456,-13.5549 1550.2672,-13.5521 1554.4149,-13.5784 1558.7817,-13.6071 1563.3777,-13.6194 1568.218,-13.6536 1573.2748,-13.6803 1578.3961,-13.7293 1583.5304,-13.7751 1588.5483,-13.8174 1593.5205,-13.8838 1598.6013,-13.9587 1603.929,-14.0291 1609.5349,-14.1025 1615.1974,-14.1746 1621.4543,-14.2492 1627.2216,-14.3217 1633.0837,-14.3871 1639.186,-14.4257 1645.5851,-14.421 1652.8427,-14.3898 1659.177,-14.3772 1665.3435,-14.378 1671.7025,-14.3953 1677.7346,-14.4242 1683.8762,-14.4365 1690.2019,-14.4317 1696.9041,-14.424 1703.652,-14.411 1710.5739,-14.3939 1717.6582,-14.3895 1724.6769,-14.3838 1732.0662,-14.3716 1739.6722,-14.3504 1747.6808,-14.3079 1755.915,-14.2542 1764.5359,-14.1807 1773.29,-14.1018 1782.2577,-14.0326 1791.4349,-13.9502 1800.7671,-13.8715 1810.4989,-13.7639 1820.3971,-13.6486 1830.3807,-13.5127 1840.4878,-13.3727 1850.7242,-13.1912 1861.0769,-12.9852 1871.796,-12.8258 1882.7445,-12.6599 1893.6423,-12.5504 1904.2197,-12.4674 1914.2278,-12.4103 1924.1117,-12.3611 1934.2378,-12.2925 1944.6409,-12.185 1955.2703,-12.0776 1966.0481,-11.943 1977.0144,-11.8249 1988.1729,-11.6557 1999.5126,-11.5176 2011.0282,-11.3608 2022.714,-11.2175 2034.5712,-11.0204 2046.5935,-10.8597 2058.7773,-10.6843 2071.1182,-10.5023 2083.6089,-10.357 2096.2458,-10.1884 2109.0142,-10.0648 2121.9009,-9.9126 2134.9163,-9.8162 2148.0581,-9.704 2161.3145,-9.5332 2174.696,-9.3864 2188.2163,-9.2666 2201.8545,-9.1661 2215.5923,-9.0012 2229.4409,-8.8768 2243.4048,-8.7472 2257.4775,-8.6086 2271.646,-8.4534 2285.9204,-8.3467 2300.2966,-8.2412 2314.7649,-8.1389 2329.3262,-8.0142 2343.9861,-7.8421 2358.7371,-7.6645 2373.5789,-7.4831 2388.4897,-7.3192 2403.4607,-7.1702 2418.4893,-7.0231 2433.5945,-6.8417 2448.7712,-6.6992 2464.0107,-6.5458 2479.3213,-6.3924 2494.7061,-6.251 2510.1541,-6.0889 2525.6711,-5.9038 2541.2454,-5.7175 2556.8733,-5.5703 2572.5679,-5.4161 2588.3198,-5.2551 2604.1284,-5.1125 2619.9902,-4.9247 2635.9099,-4.7343 2651.8826,-4.5814 2667.8958,-4.3902 2683.9697,-4.2057 2700.0999,-4.0248 2716.2756,-3.8354 2732.4949,-3.5827 2748.7605,-3.361 2765.063,-3.0979 2781.4097,-2.8538 2797.8022,-2.5938 2814.2329,-2.3605 2830.7036,-2.1289 2847.2144,-1.9371 2863.7625,-1.7726 2880.3477,-1.624 2896.9702,-1.4482 2913.6306,-1.3188 2930.3379,-1.1765 2947.0715,-0.9728 2963.7764,-0.7966 2980.6172,-0.6982 2997.4226,-0.4763 3014.2673,-0.2905 3031.1375,-0.0808 3048.0295,0.136 3064.9648,0.3185 3081.9404,0.5209 3098.9424,0.7135 3115.9167,0.8759 3132.9636,1.0345 3150.0327,1.1708 3167.1099,1.3606 3184.1968,1.4481 3201.259,1.5395 3218.3538,1.6314 3235.4944,1.7716 3252.6299,1.9161 3269.801,2.1066 3286.9873,2.2966 3304.1946,2.5064 3321.4302,2.7109 3338.6758,2.9076 3355.9258,3.2867 3373.1887,3.6477 3390.4683,3.9452 3407.7461,4.337 3425.0542,4.8141 3442.3779,5.1545 3459.7026,5.5097 3477.0415,5.9373 3494.3938,6.3196 3511.7634,6.7525 3529.1182,7.1633 3546.4805,7.6191 3563.8567,8.0831 3581.2231,8.6044 3598.2922,9.0354 3614.6531,9.6249 3630.2183,10.1597 3644.9763,10.6915 3659.1257,11.1546 3672.8315,11.6166 3686.0215,12.0647 3698.6609,12.4578 3710.8081,12.7909 3722.5535,13.1097 3733.9143,13.4269 3744.9023,13.7775 3755.6101,14.058 3766.1389,14.34 3776.5298,14.5256 3786.835,14.7144 3797.2847,14.8564 3807.947,14.9703 3818.7678,15.0751 3829.6873,15.1242 3840.6011,15.1364 3851.6184,15.1212 3862.9968,15.1444 3874.4351,15.1442 3886.073,15.0587 3898.085,14.9982 3909.7625,14.8954 3921.5691,14.7581 3933.595,14.5463 3945.4788,14.2738 3957.5044,14.0297 3969.5698,13.8181 3981.7312,13.6085 3994.0754,13.3528 4006.6223,13.1211 4019.3362,12.8635 4032.1951,12.6018 4045.1902,12.2991 4058.0269,12.0249 4070.0803,11.8011 4081.3923,11.5472 4092.1814,11.3034 4102.6235,11.0523 4112.8955,10.8212 4123.0767,10.5601 4133.1709,10.2991 4143.1797,10.0001 4153.0234,9.7373 4162.5117,9.4438 4171.3369,9.1411 4179.4233,8.8776 4186.9224,8.6346 4193.9082,8.3775 4200.7275,8.1154 4207.293,7.8387 4213.811,7.5879 4220.2568,7.2929 4226.6699,7.006 4232.9976,6.6693 4239.3286,6.3764 4245.6143,6.0823 4251.9126,5.7725 4258.2808,5.4372 4264.7036,5.1717 4271.1934,4.8945 4277.7983,4.6009 4284.4238,4.3414 4291.127,4.1084 4298.0259,3.8817 4304.9141,3.6387 4311.9131,3.3898 4319.2051,3.1674 4326.4092,2.929 4333.915,2.7539 4341.3779,2.5708 4349.1978,2.4435 4356.9219,2.3332 4365.019,2.2654 4373.0195,2.215 4380.8945,2.1737 4388.9014,2.1366 4396.6514,2.1011 4404.4731,2.0643 4412.269,2.0205 4419.9395,1.9649 4428.1279,1.8974 4435.7407,1.8804 4443.8789,1.9338 4451.3262,2.0679 4459.0483,2.3237 4465.7412,2.569 4472.3198,2.8149 4478.7476,3.0624 4485.2241,3.3139 4491.7861,3.5396 4498.4023,3.7782 4505.2295,4.0325 4512.2119,4.2601 4519.4951,4.488 4527.0825,4.753 4535.0254,5.0307 4543.2935,5.3526 4551.8228,5.6036 4560.5557,5.9024 4569.5337,6.2275 4578.7451,6.5278 4588.2002,6.8418 4597.9155,7.1574 4607.8081,7.4733 4617.2866,7.7591 4626.0796,8.0607 4634.1484,8.2875 4641.5039,8.5358 4648.2104,8.7441 4654.2988,8.9744 4659.8662,9.1612 4665.2412,9.3533 4670.5562,9.5575 4675.8413,9.7843 4681.1074,9.9659 4686.4165,10.1417 4691.7998,10.3152 4697.5068,10.4701 4703.0137,10.6393 4708.5952,10.7944 4714.2622,10.9292 4719.979,11.0776 4725.7476,11.2077 4731.6152,11.3456 4737.7646,11.4676 4743.6143,11.5563 4749.4526,11.6195 4755.2612,11.6594 4761.0454,11.6914 4767.2241,11.6911 4772.6523,11.6733 4777.9688,11.6272 4783.3569,11.5437 4788.8022,11.466 4794.2222,11.3636 4799.5928,11.2334 4804.9795,11.0834 4810.4736,10.9134 4816.147,10.708 4822.0503,10.4837 4828.2324,10.2264 4834.7373,9.941 4841.5684,9.6553 4848.8643,9.3259 4856.5269,9.0585 4864.6631,8.7294 4873.1577,8.3577 4881.8047,8.0056 4890.8062,7.6268 4900.082,7.2332 4909.5889,6.8511 4919.3877,6.5138 4929.4736,6.2272 4939.8384,5.8724 4950.4443,5.5805 4961.2656,5.3056 4972.2476,5.0017 4983.3086,4.7586 4994.561,4.5459 5006.0186,4.3439 5017.7656,4.152 5029.5859,3.9857 5041.5347,3.9072 5053.7188,3.8063 5066.0107,3.7039 5078.6929,3.6528 5091.3149,3.6193 5103.6123,3.5925 5115.3252,3.5843 5126.5762,3.5637 5137.4302,3.554 5147.6709,3.5357 5157.1235,3.5149 5165.8052,3.504 5173.7622,3.4815 5180.9771,3.4762 5187.4287,3.4743 5193.3945,3.4687 5199.1436,3.4531 5204.7915,3.4213 5210.3252,3.3936 5215.7529,3.3617 5221.1001,3.3215 5226.4033,3.2634 5231.7388,3.2004 5237.3403,3.1181 5243.0845,3.0495 5249.0,2.9899 5255.0356,2.9398 5261.1387,2.8904 5267.5195,2.8607 5273.6802,2.8282 5279.959,2.7614 5286.4297,2.7047 5293.3198,2.6388 5299.98,2.5845 5307.124,2.5342 5314.0938,2.4948 5321.1338,2.4726 5328.2261,2.4527 5334.9106,2.4526 5341.5864,2.4398 5348.2256,2.433 5354.8447,2.4015 5361.4927,2.3556 5367.7827,2.3047 5373.6494,2.2436 5379.0679,2.1917 5384.0303,2.1355 5388.5991,2.0888 5392.7622,2.0512 5396.4307,2.0332 5399.9272,2.0174 5403.3721,2.0065 5406.7886,2.0059 5410.1216,2.0027 5413.3999,1.9874 5416.3843,1.9533 5419.9087,1.9164 5424.0718,1.8799 5428.8379,1.8467 5433.8701,1.8209 5438.9453,1.8151 5443.9419,1.7982 5448.6714,1.7701 5453.0615,1.7495 5456.6426,1.7431 5460.9199,1.7344 5465.103,1.7113 5469.4678,1.679 5474.1572,1.6354 5479.1953,1.5864 5484.5967,1.5315 5490.3721,1.4779 5496.522,1.4026 5503.061,1.324 5509.9302,1.2651 5517.1279,1.1651 5524.6714,1.0413 5532.5537,0.8914 5540.7617,0.7745 5549.2671,0.6477 5558.0151,0.5128 5567.0283,0.3847 5576.3032,0.2943 5585.832,0.2444 5595.6084,0.2239 5605.6255,0.2212 5615.8765,0.2101 5626.3516,0.2212 5637.0264,0.2405 5647.8711,0.2626 5658.9087,0.2969 5670.1343,0.3367 5681.542,0.3653 5693.1318,0.3659 5704.8999,0.3658 5716.8418,0.3693 5728.9541,0.3697 5741.231,0.3737 5753.667,0.4101"/>
</svg>
