<?xml version="1.0" encoding="utf-8"?>
<!-- Track map generated with TinyPedal -->
<svg viewBox="-1163.3173 -747.3631 2157.3963 1254.7823" version="1.1" xmlns="http://www.w3.org/2000/svg">
	<title>Paul Ricard - 1A</title>
	<!-- Sector coordinates index -->
	<desc>167,308</desc>
	<!-- Raw global coordinates -->
	<polyline id="map" fill="none" stroke="black" stroke-width="10" points="93.1049,61.9878 74.7811,48.6393 64.9558,41.4812 54.5302,33.8895 44.0004,26.2155 33.9007,18.8499 22.0947,10.2288 12.3422,3.1101 0.8582,-5.2646 -9.6254,-12.9114 -21.87,-21.8466 -33.6676,-30.4529 -43.2937,-37.472 -54.722,-45.7673 -66.844,-54.5138 -77.897,-62.4811 -89.6187,-70.93 -102.6069,-80.2955 -114.4993,-88.8745 -125.2673,-96.6475 -138.4936,-106.2007 -149.3651,-114.0548 -162.7297,-123.7051 -174.3298,-132.0939 -185.9868,-140.5326 -198.3228,-149.4544 -211.9651,-159.3219 -223.1773,-167.4432 -235.6911,-176.5049 -248.8901,-186.0609 -262.0962,-195.6243 -273.4001,-203.8109 -285.7768,-212.771 -297.5302,-221.2866 -309.6881,-230.0374 -319.0878,-236.7191 -330.1158,-244.4382 -339.2467,-250.7231 -348.0009,-256.6633 -356.7731,-262.5254 -365.136,-268.0384 -373.4881,-273.4832 -381.0658,-278.3572 -387.9402,-282.7097 -395.1841,-287.1691 -401.7746,-291.0707 -408.1327,-294.6506 -414.0196,-297.6871 -420.7007,-300.8878 -426.4573,-303.575 -432.369,-306.0848 -438.9651,-308.4845 -446.3113,-310.6927 -453.6914,-312.494 -461.05,-314.0676 -469.0258,-315.5619 -476.8008,-316.6764 -485.1181,-317.4661 -491.852,-318.1057 -500.059,-318.8254 -506.9687,-319.3429 -516.1847,-319.8179 -523.6778,-319.8729 -531.7493,-319.7226 -540.4382,-319.4257 -549.8453,-319.1063 -558.6052,-318.8134 -568.0764,-318.5033 -577.801,-318.2475 -588.2663,-318.3331 -598.4105,-319.0216 -608.1116,-320.2878 -618.3401,-322.317 -628.6602,-324.8503 -639.6304,-327.7556 -650.1445,-330.9886 -660.1409,-334.5807 -670.6554,-338.8805 -681.6499,-343.9823 -692.0495,-349.3925 -702.4062,-355.2458 -712.813,-361.3571 -723.3499,-367.5763 -734.5724,-374.1808 -744.3102,-379.9108 -755.2585,-386.345 -766.3266,-392.8382 -778.6459,-399.9958 -788.8651,-405.8517 -800.386,-412.3197 -813.3362,-419.2365 -824.7767,-424.9798 -836.4946,-430.3928 -849.1613,-435.6162 -862.6817,-440.841 -875.291,-445.729 -887.2279,-450.6513 -897.8739,-455.4185 -908.4564,-460.3153 -918.4258,-464.9753 -928.2466,-469.6119 -937.1714,-473.8688 -946.3263,-478.2798 -954.0524,-482.1008 -962.8832,-486.6614 -970.4922,-490.877 -977.8152,-495.4645 -984.7805,-500.5702 -991.0591,-505.9756 -995.8541,-510.7697 -1000.5606,-516.1608 -1005.0266,-522.0916 -1008.1158,-526.9038 -1011.062,-532.3925 -1013.1596,-537.2076 -1014.7917,-542.1362 -1015.9299,-547.3708 -1016.4163,-551.6653 -1016.4667,-555.9438 -1016.0258,-559.9416 -1015.4097,-564.327 -1015.0967,-569.1843 -1015.2578,-573.9944 -1015.6738,-578.7114 -1016.4335,-584.2405 -1017.4957,-588.8749 -1019.229,-593.7156 -1021.2872,-597.7726 -1024.0634,-601.828 -1027.1937,-605.2751 -1030.8152,-608.4108 -1034.4747,-610.9628 -1039.4249,-613.6574 -1044.3312,-615.651 -1049.8523,-617.2366 -1054.5608,-618.1169 -1060.3527,-618.6934 -1067.0172,-618.7539 -1072.979,-618.3571 -1079.2196,-617.7158 -1086.09,-617.0052 -1093.449,-616.3815 -1099.7842,-616.254 -1106.1063,-616.5636 -1111.9604,-617.2443 -1117.7993,-618.2863 -1122.5573,-619.4371 -1126.4221,-620.7711 -1130.449,-622.783 -1133.9524,-625.3073 -1137.0991,-628.4114 -1139.1476,-631.0449 -1141.0432,-634.3469 -1142.3525,-637.7647 -1143.113,-641.2935 -1143.3173,-644.6545 -1143.0344,-647.7166 -1142.3275,-650.8104 -1141.303,-654.0056 -1140.1376,-657.6453 -1138.7555,-662.0065 -1137.4519,-665.8094 -1135.7858,-670.5668 -1134.0533,-675.4083 -1132.1719,-680.2526 -1129.84,-685.5038 -1127.0742,-690.8447 -1123.6307,-696.4639 -1119.5668,-701.9422 -1115.5911,-706.47 -1110.7405,-711.1743 -1105.3243,-715.5633 -1099.9271,-719.0956 -1094.5498,-721.8665 -1088.5973,-724.2253 -1082.1167,-726.0002 -1076.2305,-726.9572 -1070.0796,-727.3631 -1063.6678,-727.0897 -1057.5844,-726.1618 -1051.7639,-724.6936 -1045.5824,-722.5751 -1038.6492,-719.7023 -1032.1552,-716.8246 -1025.811,-713.7529 -1018.8019,-709.7899 -1012.5549,-705.648 -1005.5227,-700.1848 -1000.3196,-695.4584 -994.012,-688.7414 -989.105,-682.4579 -984.6439,-675.7425 -980.3199,-668.3319 -976.0606,-660.6619 -971.3548,-651.9579 -967.5384,-644.597 -963.3943,-636.1342 -958.8244,-626.537 -954.6166,-618.1313 -949.6379,-609.4865 -944.3177,-601.6268 -938.2623,-593.5815 -931.4585,-585.4299 -924.8923,-578.5692 -917.2426,-571.599 -910.0107,-565.8848 -901.3325,-559.9993 -893.9811,-555.7108 -885.3861,-551.4375 -876.3586,-547.7166 -866.9245,-544.4289 -857.1934,-541.2974 -846.7383,-537.9669 -836.5938,-534.7037 -826.8147,-531.5504 -815.8252,-527.9995 -805.7163,-524.7234 -794.3654,-521.0405 -782.2744,-517.1183 -772.795,-514.0435 -761.4937,-510.3768 -749.4581,-506.4716 -738.4227,-502.8896 -726.6564,-499.0875 -714.1323,-495.0831 -702.0604,-491.2235 -689.2519,-487.1279 -677.566,-483.3886 -663.8975,-479.0165 -653.2338,-475.6092 -640.5788,-471.5641 -627.1685,-467.27 -614.282,-463.1375 -601.9373,-459.1762 -587.522,-454.5454 -575.6331,-450.7252 -561.6536,-446.2372 -548.9088,-442.147 -535.3981,-437.8054 -521.1104,-433.2046 -507.4084,-428.7866 -492.9255,-424.1108 -479.0411,-419.6296 -465.7704,-415.3471 -451.0175,-410.5815 -436.9043,-406.0153 -423.4444,-401.662 -409.2081,-397.0575 -395.618,-392.6585 -379.8088,-387.5365 -365.3655,-382.8582 -351.5864,-378.3867 -337.0211,-373.6526 -321.6602,-368.6558 -308.4398,-364.3516 -292.9535,-359.31 -278.1432,-354.4884 -264.0216,-349.8891 -249.1025,-345.0244 -232.6368,-339.6217 -218.364,-334.9379 -204.0449,-330.2387 -188.9201,-325.267 -173.7474,-320.2906 -157.0,-314.795 -143.2585,-310.2817 -127.9528,-305.2299 -112.6067,-300.1517 -97.2238,-295.0357 -81.7971,-289.906 -66.3302,-284.7623 -50.0493,-279.3411 -35.2788,-274.4183 -19.6939,-269.2223 -2.5234,-263.4416 13.1208,-258.151 27.9907,-253.0401 42.8878,-247.895 58.5977,-242.4766 74.3312,-237.0555 90.8837,-231.3479 105.893,-226.1849 121.7185,-220.7629 137.5799,-215.3347 154.2677,-209.6316 170.1931,-204.1937 185.3502,-199.0262 201.3416,-193.5986 218.1644,-187.8945 234.215,-182.4593 250.2946,-177.0174 265.5919,-171.8321 281.7111,-166.3572 298.6304,-160.595 313.9555,-155.3707 331.7271,-149.3134 347.9002,-143.7935 364.0956,-138.2671 378.6953,-133.3165 394.9496,-127.8553 411.2397,-122.4403 428.3928,-116.8344 444.7596,-111.5288 460.3092,-106.4715 477.5043,-100.8538 493.8969,-95.4959 511.9427,-89.598 525.8945,-85.04 543.1432,-79.4022 559.5827,-74.0249 576.0311,-68.6407 591.6677,-63.5226 608.1346,-58.1287 626.2537,-52.1728 641.9005,-46.9949 657.5436,-41.7793 674.0121,-36.2656 691.3113,-30.4704 707.7903,-24.9498 723.4449,-19.7293 741.0634,-13.9635 755.5474,-9.2347 770.0234,-4.5083 783.0303,-0.2571 797.1697,4.4048 808.5604,8.3204 819.6906,12.4424 830.4372,16.7664 838.903,20.461 848.4198,24.8205 855.577,28.1602 863.6078,31.9325 869.9547,34.959 876.1198,38.0577 881.574,41.0632 887.7216,44.9061 893.0125,48.6076 898.3102,52.6857 904.1588,57.6733 909.4161,62.6466 914.9015,68.3662 920.8918,75.1928 926.0126,81.465 931.0908,88.4068 935.423,95.3524 939.4348,103.0409 943.5414,112.3404 946.3011,119.4867 949.2975,128.1767 952.202,137.654 954.7457,147.0073 956.9218,156.1917 958.9575,166.1559 960.8572,176.3875 962.8034,187.3866 964.514,197.5107 966.2602,208.3716 968.0669,220.5648 969.4991,231.8806 970.6072,242.8331 971.4599,253.9703 972.0976,265.8606 972.6312,278.5298 973.183,290.7695 973.7214,303.8051 973.9807,315.1262 974.079,328.458 973.8559,342.084 973.4414,352.1222 972.8688,363.4072 972.2446,374.6918 971.5115,384.8011 970.4203,394.2125 969.0615,402.613 967.1132,411.8316 964.9449,419.3751 961.9609,427.277 958.6712,434.1096 954.8099,440.7885 950.1229,447.6478 944.5417,454.5859 938.983,460.4531 932.6632,466.0158 925.5298,471.0999 918.6082,475.1232 910.8979,478.8329 902.8235,481.9423 894.0733,484.4935 884.6927,486.3338 877.3281,487.146 868.5195,487.4192 859.1489,486.9085 850.1901,485.626 841.7906,483.697 833.2219,480.9375 824.6787,477.3297 817.4005,473.4817 810.1926,468.8837 802.8883,463.1827 797.4145,458.0917 791.9349,452.0084 787.1711,445.5337 782.9744,438.4209 779.7847,431.4579 777.4821,424.7673 775.5963,417.0313 774.546,410.4264 774.0948,403.6065 774.2686,397.3024 775.0624,390.896 776.5596,384.3981 778.6302,378.314 781.1728,372.6592 784.4355,366.8633 788.2958,361.2696 792.9657,355.651 797.9092,350.3773 803.1439,344.926 808.3237,339.5384 814.2705,333.3499 820.1348,327.2477 825.8142,321.3647 832.5492,314.3601 839.1206,307.4272 844.5101,301.6099 850.8821,294.498 857.4317,286.5872 863.8512,278.2533 869.2904,270.8335 874.9072,262.6164 880.2872,253.8178 884.1051,246.8363 887.7711,239.3542 891.348,231.1992 893.5613,225.4934 895.762,219.1623 897.6012,212.8974 898.8355,207.1066 899.455,201.3851 899.4484,195.9571 898.8419,190.1697 897.5514,184.0662 895.4793,177.7582 893.2691,172.7625 890.1389,167.252 886.6376,162.4203 882.6605,158.0406 878.7328,154.5426 874.058,151.1945 869.1238,148.4359 863.7369,146.1931 858.479,144.7069 853.4531,143.8953 847.9437,143.675 842.8192,144.1265 838.0555,145.1207 833.051,146.7558 827.7888,149.0545 822.5316,151.5896 817.2036,154.1936 811.0308,157.4203 804.6774,161.0185 798.9752,164.2721 791.9514,168.1427 785.1686,171.5131 777.6159,174.9397 768.9863,178.7891 761.6527,181.8922 753.1304,185.084 743.2845,188.1397 734.4033,190.3707 724.7172,192.3452 715.2277,193.9298 704.9666,195.364 693.9102,196.5187 683.1752,197.0219 672.7904,196.8464 661.1213,196.1558 650.4056,195.1763 637.8354,193.599 627.4583,191.8347 614.7275,188.9625 603.1339,185.7098 592.142,182.0427 580.6487,177.5294 568.75,172.008 558.781,166.5742 547.5789,159.4397 538.0927,152.4501 528.9125,144.903 520.0214,137.2712 512.2054,130.5146 505.3292,124.5875 498.5641,118.9581 491.4355,113.5582 485.437,109.5239 479.45,105.9809 472.4694,102.5473 466.0739,100.0531 460.2883,98.3821 453.8573,97.2015 446.7954,96.6013 440.6838,96.5864 434.5735,97.1388 427.4609,98.4165 421.3014,99.976 415.2724,102.0382 408.5365,105.1173 402.6584,108.507 397.0822,112.462 392.3531,116.504 387.3651,121.4455 382.6336,126.7913 377.8678,133.1584 374.5337,138.6853 371.2477,145.7052 369.0781,151.9567 367.5006,158.4141 366.3881,165.828 365.9765,172.6818 366.2447,180.5635 367.1719,187.5518 368.5995,194.4436 369.6858,199.8513 370.4176,205.1387 370.8543,210.7219 371.0065,215.042 370.8761,219.7534 370.4449,222.7288 369.4621,226.2577 368.0177,229.5394 366.369,232.1218 364.2413,234.3766 361.7976,236.1397 359.1572,237.3957 356.1039,238.2374 352.8047,238.6623 349.0872,238.8084 345.569,238.5601 341.8341,237.7574 338.326,236.4655 334.2076,234.4837 330.4285,232.4789 325.8277,229.7766 322.1404,227.3827 317.0972,223.9864 312.4521,220.7896 307.2947,217.1631 302.1558,213.4604 296.5554,209.3408 290.3824,204.7845 284.5367,200.4659 278.124,195.7236 271.4574,190.7827 264.2254,185.4112 257.4916,180.4097 250.1956,174.9915 242.6904,169.4185 234.9796,163.6941 226.6695,157.5262 218.5605,151.5027 210.6886,145.6476 202.2317,139.35 193.183,132.6143 184.4218,126.0952 175.5103,119.4611 166.9008,113.0621 157.6263,106.3128 147.7015,99.1515 138.5896,92.5689 128.8608,85.5428 118.4993,78.0587 108.4965,70.8309 98.8735,63.8817"/>
	<!-- Raw distance reference points -->
	<polyline id="dist" fill="none" stroke="none" stroke-width="0" points="5694.2539,0.4454 20.7562,0.4318 33.5495,0.4156 46.4379,0.3907 59.4626,0.3603 72.6164,0.3373 85.9041,0.3084 99.3181,0.3035 112.855,0.2543 126.5278,0.1868 140.2627,0.1065 154.1664,0.0078 168.1703,-0.1028 182.289,-0.2563 196.5229,-0.4972 210.8646,-0.7374 225.3157,-0.9839 239.8677,-1.2456 254.5265,-1.5003 269.2805,-1.7333 284.1111,-1.9973 299.0099,-2.201 313.997,-2.5024 329.0623,-2.7578 344.2068,-3.012 359.4289,-3.2897 374.7352,-3.5395 390.1139,-3.7389 405.5638,-3.9339 421.0896,-4.1159 436.6243,-4.2526 452.1236,-4.3357 467.4034,-4.4508 481.9241,-4.5136 495.5705,-4.5104 508.395,-4.4737 520.6776,-4.4599 532.4268,-4.4625 543.5931,-4.4633 554.1209,-4.4771 564.114,-4.4662 573.6078,-4.42 582.634,-4.3853 591.2037,-4.3675 599.3087,-4.3542 606.9783,-4.3543 614.2798,-4.371 621.2419,-4.3975 627.9728,-4.4574 634.7771,-4.523 641.6304,-4.5944 648.9512,-4.677 656.4412,-4.786 664.4161,-4.8831 672.4716,-4.9832 680.7688,-5.0563 688.9121,-5.1793 696.7114,-5.2538 704.6865,-5.3476 712.3315,-5.425 720.1422,-5.4896 728.1565,-5.5847 736.5206,-5.6252 745.1182,-5.7401 753.9263,-5.8549 762.9055,-5.9504 772.0945,-6.0645 781.5057,-6.1726 791.1752,-6.3107 801.0775,-6.4546 811.1693,-6.6182 821.4034,-6.8249 831.81,-7.0429 842.4475,-7.2017 853.3397,-7.3404 864.4197,-7.4184 875.704,-7.5039 887.1697,-7.5815 898.7869,-7.6213 910.5225,-7.6421 922.4072,-7.6333 934.4311,-7.6318 946.6085,-7.6464 958.9565,-7.7029 971.5022,-7.7366 984.3549,-7.7898 997.3029,-7.8625 1010.3702,-7.9516 1023.5356,-8.0371 1036.809,-8.1524 1050.2612,-8.2961 1063.8427,-8.4115 1077.4877,-8.5425 1091.2375,-8.6302 1105.0426,-8.7366 1118.5428,-8.8453 1131.4418,-8.981 1143.6946,-9.1579 1155.3198,-9.3105 1166.2894,-9.5111 1176.5747,-9.7117 1186.3937,-9.9013 1196.0615,-10.128 1205.6541,-10.3347 1215.1191,-10.5905 1224.2777,-10.7981 1232.8732,-10.9856 1240.9298,-11.1434 1248.614,-11.2845 1256.0165,-11.3922 1263.0909,-11.5143 1269.9884,-11.6444 1276.3589,-11.7311 1282.0331,-11.7916 1287.024,-11.8293 1291.5992,-11.8687 1296.0876,-11.9192 1300.5406,-11.9771 1304.8771,-12.0546 1309.2157,-12.1228 1313.8492,-12.2068 1318.9238,-12.3125 1324.4005,-12.4377 1330.0452,-12.5522 1335.5669,-12.6657 1340.8746,-12.7352 1346.0421,-12.7895 1351.0975,-12.842 1356.0591,-12.9073 1361.014,-12.9716 1366.1074,-13.0369 1371.3468,-13.0981 1376.7129,-13.1701 1382.2473,-13.2379 1387.9813,-13.3091 1394.0641,-13.3726 1399.9698,-13.4412 1406.0641,-13.5227 1412.363,-13.6253 1418.9711,-13.7024 1425.8712,-13.7622 1432.9086,-13.812 1439.5771,-13.8225 1445.8501,-13.8647 1451.6859,-13.9225 1457.1575,-13.9762 1462.3695,-14.0144 1467.3903,-14.0239 1472.0819,-13.9949 1476.2858,-13.9256 1479.9741,-13.8536 1483.1169,-13.8054 1486.6429,-13.7391 1489.1755,-13.6751 1492.4957,-13.6235 1494.8129,-13.5882 1498.0161,-13.564 1500.9917,-13.557 1504.3713,-13.5528 1508.1875,-13.5517 1512.2281,-13.5743 1516.5969,-13.5987 1521.3229,-13.6135 1526.3885,-13.6521 1531.7931,-13.6931 1537.4678,-13.7559 1543.312,-13.8162 1549.3746,-13.8967 1555.5488,-13.9816 1561.9556,-14.0594 1568.8506,-14.1455 1575.6924,-14.2339 1582.3906,-14.312 1589.3844,-14.3709 1596.202,-14.4193 1603.6785,-14.4078 1610.4553,-14.363 1616.9424,-14.3434 1623.4254,-14.3442 1629.6945,-14.3603 1636.1185,-14.3772 1642.7426,-14.3711 1649.6406,-14.364 1656.7017,-14.3419 1664.0466,-14.3183 1671.6256,-14.292 1679.3696,-14.2653 1687.3741,-14.24 1695.4869,-14.2116 1703.7297,-14.1837 1712.0526,-14.1421 1720.4131,-14.0936 1728.9043,-14.0374 1737.6469,-13.9784 1746.6671,-13.9021 1755.9209,-13.8305 1765.3643,-13.7167 1775.024,-13.5936 1784.9198,-13.4846 1794.8685,-13.3458 1804.7814,-13.1819 1814.9679,-13.0053 1825.4136,-12.8296 1835.7255,-12.6928 1845.8654,-12.5816 1855.6685,-12.5075 1865.144,-12.4457 1874.4644,-12.4181 1883.9431,-12.3636 1893.6561,-12.274 1903.645,-12.1631 1913.8585,-12.038 1924.2666,-11.9058 1934.9089,-11.7631 1945.7316,-11.6343 1956.7314,-11.4523 1967.9247,-11.3208 1979.3003,-11.1565 1990.8441,-10.9536 2002.5605,-10.8074 2014.4402,-10.6333 2026.4835,-10.4538 2038.6941,-10.3088 2051.0615,-10.1453 2063.5798,-9.9993 2076.2429,-9.8572 2089.0366,-9.7399 2101.9377,-9.6231 2114.969,-9.4543 2128.1296,-9.3293 2141.417,-9.1931 2154.8259,-9.0581 2168.3535,-8.9153 2181.9988,-8.7708 2195.7583,-8.6254 2209.6284,-8.5014 2223.6086,-8.3686 2237.6938,-8.2469 2251.884,-8.116 2266.1772,-7.9725 2280.5698,-7.8289 2295.0576,-7.6651 2309.6379,-7.4921 2324.3105,-7.3405 2339.0696,-7.1911 2353.8972,-7.0383 2368.781,-6.9035 2383.7383,-6.7303 2398.769,-6.588 2413.8694,-6.4131 2429.0432,-6.2574 2444.2896,-6.1047 2459.6062,-5.9339 2474.9932,-5.7755 2490.4531,-5.649 2505.9707,-5.4968 2521.543,-5.3408 2537.1616,-5.1922 2552.8552,-5.0432 2568.6152,-4.8604 2584.4219,-4.6967 2600.2766,-4.5087 2616.1882,-4.3368 2632.1494,-4.1757 2648.1606,-3.9712 2664.2214,-3.7831 2680.332,-3.5451 2696.49,-3.3044 2712.7014,-3.0765 2728.9634,-2.8572 2745.2659,-2.6042 2761.6147,-2.3332 2778.0176,-2.13 2794.4714,-1.9262 2810.9509,-1.7293 2827.4575,-1.5901 2844.0212,-1.4546 2860.6389,-1.3365 2877.283,-1.2244 2893.9192,-1.0355 2910.5227,-0.8319 2927.1624,-0.7425 2943.8782,-0.5712 2960.707,-0.3769 2977.5801,-0.1621 2994.4663,0.0368 3011.3176,0.2312 3028.1641,0.4315 3045.0212,0.6336 3061.9456,0.8078 3078.9294,0.9593 3095.968,1.0934 3113.0107,1.2689 3130.0095,1.3824 3147.0393,1.465 3164.1172,1.5441 3181.2102,1.6769 3198.3193,1.817 3215.4473,1.9777 3232.6023,2.1694 3249.7771,2.3632 3266.9683,2.584 3284.1697,2.7817 3301.3674,3.0587 3318.5864,3.4618 3335.8367,3.8001 3353.1128,4.1542 3370.4028,4.5143 3387.696,4.9554 3404.9934,5.3383 3422.3018,5.72 3439.6267,6.0894 3456.9624,6.5071 3474.3044,6.9973 3491.6587,7.4051 3509.0261,7.8465 3526.4036,8.31 3543.7871,8.8135 3561.1655,9.3467 3578.5437,9.921 3595.4443,10.5988 3611.5522,11.1356 3626.8345,11.6532 3641.2615,12.0954 3654.8274,12.5584 3667.5586,12.8989 3679.4421,13.2206 3690.5093,13.5278 3700.7681,13.7819 3710.2725,14.0511 3719.0371,14.2437 3727.1138,14.4375 3734.5237,14.5812 3741.428,14.7097 3747.9688,14.8178 3754.5122,14.9256 3761.2754,15.0158 3768.2917,15.089 3775.5986,15.1407 3783.2305,15.1714 3791.1665,15.1809 3799.4348,15.1724 3807.9629,15.1967 3816.6362,15.2294 3825.4031,15.2284 3834.3269,15.1849 3843.5046,15.0867 3852.6792,15.0339 3862.2476,14.9229 3872.1353,14.7705 3882.1616,14.5906 3892.3037,14.3947 3902.6145,14.1674 3913.0786,13.9389 3923.7214,13.7345 3934.4502,13.5631 3945.334,13.3659 3956.4163,13.1413 3967.7273,12.9144 3979.2769,12.6852 3991.0659,12.4568 4003.0261,12.2139 4015.1482,11.9579 4027.3733,11.7188 4039.7678,11.4274 4052.3479,11.1619 4065.0513,10.8221 4077.4851,10.4821 4089.3113,10.197 4100.5503,9.8765 4111.2622,9.5082 4121.3516,9.1547 4130.7505,8.8151 4139.6211,8.4868 4148.1655,8.0967 4156.439,7.757 4164.5518,7.3834 4172.5757,7.0421 4180.7993,6.6691 4189.2319,6.2537 4197.792,5.7896 4206.5303,5.3808 4215.2676,4.9773 4223.9805,4.6123 4232.5947,4.318 4241.5625,3.9968 4250.5591,3.6803 4259.584,3.359 4268.6743,3.0347 4277.5977,2.8069 4286.9263,2.5864 4296.4775,2.4087 4306.1289,2.3024 4315.7422,2.2397 4325.1699,2.1985 4334.2695,2.1649 4342.9893,2.1448 4351.6299,2.1072 4360.1201,2.0841 4368.4072,2.0422 4376.4771,2.0103 4384.124,2.0316 4391.5747,2.1097 4398.1582,2.2503 4404.6797,2.4374 4410.7505,2.6559 4416.4624,2.7845 4422.1279,2.9214 4427.9336,3.0528 4433.8057,3.1984 4439.5278,3.3638 4445.3198,3.5385 4450.9258,3.7211 4457.1353,3.9318 4463.0601,4.1622 4469.6191,4.4279 4476.4346,4.7066 4483.7622,5.0028 4491.4185,5.3081 4499.314,5.6553 4507.5601,5.9722 4515.9243,6.2129 4524.5688,6.5434 4533.5049,6.853 4542.73,7.1277 4552.2085,7.4324 4561.9634,7.7691 4571.9722,8.0995 4582.209,8.3854 4592.2061,8.7001 4601.6753,9.0459 4610.6519,9.3308 4619.1519,9.6679 4627.0386,10.0178 4634.3823,10.2541 4641.0117,10.4779 4647.1294,10.6818 4652.936,10.8695 4658.4111,11.0406 4663.9526,11.1947 4669.5811,11.3501 4675.3057,11.4953 4681.1255,11.6313 4686.9946,11.7213 4692.8398,11.8008 4698.4668,11.8463 4704.2427,11.8637 4709.9761,11.8653 4715.6353,11.8513 4721.2026,11.8102 4726.6768,11.734 4732.0571,11.6412 4737.3208,11.5381 4742.4609,11.4032 4747.4736,11.264 4752.46,11.1108 4757.6143,10.924 4762.9922,10.6984 4768.7041,10.4662 4774.8999,10.2224 4781.5,9.9322 4788.4224,9.6341 4795.7104,9.3581 4803.3867,9.0364 4811.3989,8.7267 4819.8403,8.3765 4828.5562,7.98 4837.4453,7.6598 4846.6553,7.2944 4856.1265,6.8766 4865.8374,6.5647 4875.814,6.234 4886.0767,5.9202 4896.5908,5.613 4907.3076,5.3201 4918.1406,5.0362 4929.2256,4.7892 4940.4971,4.5306 4951.9663,4.3347 4963.6572,4.1298 4975.4424,3.9918 4987.3809,3.9051 4999.5581,3.805 5011.8608,3.7149 5024.3438,3.6694 5036.8843,3.6311 5049.5742,3.6031 5062.2959,3.5825 5074.8457,3.5579 5086.833,3.5445 5098.104,3.5175 5108.5293,3.508 5118.0889,3.4827 5126.8506,3.4752 5134.9438,3.4643 5142.5513,3.4433 5149.8345,3.3898 5156.9009,3.3361 5163.7578,3.2928 5170.4512,3.2509 5176.9888,3.2008 5183.5542,3.133 5190.0889,3.0768 5196.6528,3.0208 5203.4419,2.9489 5210.2417,2.9067 5217.0977,2.8739 5224.3291,2.8141 5231.4263,2.7431 5238.9004,2.6676 5246.127,2.6007 5253.7573,2.5293 5261.1973,2.4788 5269.1426,2.4482 5276.7061,2.44 5284.4155,2.4426 5291.4658,2.4322 5298.4014,2.4139 5305.4448,2.3728 5312.627,2.3138 5319.7422,2.2455 5326.772,2.1654 5333.4897,2.0985 5339.6279,2.0512 5345.2358,2.0236 5350.3184,2.0056 5354.8145,2.0113 5358.7261,2.0167 5362.4917,2.0166 5365.6929,2.0163 5368.4556,2.0148 5371.4966,2.0027 5373.6128,1.985 5376.6167,1.9694 5378.8066,1.9532 5381.9624,1.9344 5384.4297,1.9186 5387.957,1.9059 5390.8018,1.8937 5393.874,1.8747 5397.7944,1.8507 5401.479,1.8132 5405.7061,1.7773 5410.3813,1.7258 5415.4307,1.6798 5420.8799,1.6089 5426.7681,1.5617 5433.0586,1.4951 5439.7725,1.4052 5446.7368,1.3424 5454.0264,1.2486 5461.667,1.1158 5469.6504,0.9792 5477.9702,0.8557 5486.6304,0.7171 5495.4937,0.5857 5504.5718,0.4439 5513.8931,0.3343 5523.4771,0.2767 5533.3237,0.2451 5543.4141,0.2459 5553.7197,0.2438 5564.2578,0.2464 5574.9937,0.2597 5585.8994,0.2838 5596.9956,0.3146 5608.2764,0.3605 5619.7427,0.3849 5631.3926,0.3853 5643.2183,0.3827 5655.2139,0.3798 5667.3774,0.3754 5679.7061,0.3746 5692.1987,0.4057"/>
</svg>
