<?xml version="1.0" encoding="utf-8"?>
<!-- Track map generated with TinyPedal -->
<svg viewBox="-573.4202 -798.6907 1238.2859 1033.6380" version="1.1" xmlns="http://www.w3.org/2000/svg">
	<title>Sebring International Raceway</title>
	<!-- Sector coordinates index -->
	<desc>243,407</desc>
	<!-- Raw global coordinates -->
	<polyline id="map" fill="none" stroke="black" stroke-width="10" points="-107.3712,0.6976 -92.1537,0.6935 -79.3592,0.6153 -65.1738,0.5367 -53.478,0.4926 -40.3925,0.4631 -25.889,0.4514 -13.938,0.4551 -0.5722,0.436 12.8838,0.3819 26.4269,0.3195 41.423,0.2552 53.7657,0.2046 67.555,0.1602 81.4236,0.1279 95.3684,0.121 109.3831,0.1348 124.8624,0.1394 138.934,0.121 151.4061,0.0852 164.9474,0.0128 178.1104,-0.0788 190.9161,-0.1896 203.3738,-0.3052 215.4917,-0.4288 227.2639,-0.5727 238.6927,-0.7417 249.7802,-0.9701 261.579,-1.3718 270.9167,-1.8951 280.9431,-2.7548 290.5712,-4.0093 299.7983,-5.6355 308.6527,-7.6146 317.1736,-9.9552 325.3852,-12.754 333.317,-16.0038 340.9414,-19.7084 348.2161,-23.8672 355.0901,-28.4894 361.5401,-33.5775 367.6104,-39.108 373.3584,-45.0037 378.6609,-51.3355 383.514,-58.0612 388.3376,-65.849 391.7916,-72.4722 395.0702,-80.066 397.8102,-87.9001 400.0508,-96.001 401.8258,-104.3798 403.2146,-113.0149 404.2785,-121.8927 404.9664,-131.0134 405.2978,-140.3598 405.2955,-149.9111 404.9015,-160.6366 404.2119,-169.566 403.1241,-179.6399 401.6931,-189.8613 399.8109,-201.2621 398.0894,-210.5936 396.0483,-220.825 393.9424,-230.8608 391.8455,-240.6742 389.8017,-250.3055 387.6335,-260.8141 385.7495,-270.4143 384.1657,-279.0242 382.54,-288.5323 381.0344,-298.1106 379.5626,-308.6251 378.4926,-317.1536 377.458,-326.5205 376.6366,-335.6896 376.0354,-344.5732 375.6293,-353.1303 375.3468,-362.1892 375.2169,-370.144 375.1884,-377.1088 375.2276,-384.6758 375.3183,-392.0883 375.4374,-399.3513 375.5583,-407.148 375.6322,-413.353 375.6537,-420.6823 375.5396,-426.4514 375.1249,-432.6027 374.3342,-438.502 373.1482,-444.2029 371.5634,-449.7286 369.3593,-455.5677 367.167,-460.1053 364.3365,-464.8525 361.1129,-469.2478 357.1424,-473.6147 353.5908,-476.7725 349.3563,-479.7845 344.43,-482.5066 340.1843,-484.2945 334.7521,-486.1016 330.1207,-487.3349 324.7652,-488.4499 319.216,-489.3443 312.9026,-490.0972 307.6214,-490.6606 301.1704,-491.5538 295.9396,-492.5868 289.5876,-494.2166 284.4828,-496.0398 278.9143,-498.5309 273.4551,-501.5075 267.5366,-505.2575 262.6808,-508.5568 257.2671,-512.2885 251.3444,-516.233 246.484,-519.2298 240.4553,-522.5367 234.8659,-525.1651 229.7383,-527.1403 223.9516,-528.8462 218.1141,-530.044 211.6855,-530.772 206.453,-530.9064 200.6852,-530.569 194.9754,-529.7811 189.3207,-528.5649 183.8139,-526.7492 178.4824,-524.4161 173.3998,-521.6359 168.1912,-518.1022 164.1513,-514.8689 159.5016,-510.5205 156.0323,-506.7133 152.5611,-502.2463 149.1958,-497.1096 146.4482,-492.2213 143.966,-487.1007 141.8625,-482.3377 139.6466,-476.8367 137.5125,-471.0853 134.994,-464.5357 132.7132,-459.008 129.8997,-452.7049 126.7344,-446.2631 123.2003,-439.7023 119.3043,-433.0362 115.0587,-426.2718 110.4788,-419.4146 105.5684,-412.477 100.3246,-405.4788 94.7647,-398.4962 88.8642,-391.5623 82.595,-384.6769 75.9525,-377.8618 68.9712,-371.1034 61.6292,-364.4402 53.9405,-357.8755 45.9053,-351.4337 36.6567,-344.5339 27.9345,-338.482 19.8286,-333.2227 10.5347,-327.5556 -0.0271,-321.5445 -8.9244,-316.8085 -19.0788,-311.758 -29.4973,-306.9229 -41.264,-301.8874 -51.1251,-298.0065 -62.3116,-293.9393 -73.7428,-290.1805 -85.423,-286.7992 -97.3131,-283.7808 -109.3571,-281.1219 -121.505,-278.8436 -133.8088,-276.859 -146.2656,-275.1819 -158.8582,-273.7386 -171.5811,-272.5603 -184.4272,-271.61 -197.3909,-270.8958 -210.4656,-270.4264 -223.6435,-270.1117 -236.9185,-269.8398 -250.2879,-269.6214 -265.1011,-269.4701 -277.3021,-269.4044 -290.942,-269.3867 -304.6673,-269.4095 -318.4756,-269.4321 -332.3657,-269.448 -346.3336,-269.4286 -361.7625,-269.3407 -374.3883,-269.2347 -388.1641,-269.0856 -401.4896,-268.9435 -414.2299,-268.831 -426.3014,-268.7657 -437.6457,-268.743 -448.2644,-268.7517 -458.1817,-268.7673 -468.2946,-268.7927 -475.9688,-268.8424 -483.8773,-268.9321 -491.1559,-269.0417 -497.8614,-269.177 -504.0399,-269.3455 -509.7247,-269.5549 -514.9803,-269.8264 -520.3732,-270.2578 -524.5009,-270.7905 -528.8042,-271.6272 -532.8494,-272.7558 -536.6395,-274.21 -540.1475,-276.0251 -543.6336,-278.4573 -546.1644,-280.7563 -548.5916,-283.5916 -550.5494,-286.6801 -552.0168,-289.946 -552.9663,-293.3167 -553.4202,-297.0554 -553.3836,-300.101 -552.9168,-303.8653 -552.2321,-307.0724 -551.1351,-310.8209 -549.7471,-314.7764 -548.1006,-318.9817 -546.1472,-323.3886 -543.7666,-327.9009 -540.9078,-332.4629 -537.8755,-337.033 -535.2067,-341.7312 -532.6428,-347.032 -530.65,-351.6036 -528.4972,-357.0721 -526.3651,-362.9266 -524.0533,-369.0848 -521.3802,-375.4464 -518.4933,-381.9089 -515.0107,-389.1502 -511.8332,-395.1784 -507.9188,-401.9482 -503.1502,-409.4665 -498.8891,-415.6532 -493.7607,-422.5354 -487.6299,-430.0778 -481.6354,-436.841 -475.9327,-442.7669 -468.5227,-449.8837 -462.0986,-455.5819 -453.8172,-462.3768 -446.7123,-467.802 -438.4531,-473.6342 -429.8255,-479.2466 -420.8648,-484.6561 -411.5721,-489.7938 -401.052,-495.102 -392.264,-499.1431 -382.2618,-503.3537 -371.9995,-507.3258 -361.4986,-511.0905 -350.7815,-514.6857 -339.882,-518.1967 -328.8326,-521.7129 -316.5546,-525.7263 -305.3234,-529.6121 -295.1776,-533.3381 -283.9053,-537.8162 -272.7177,-542.7709 -260.6037,-548.8036 -250.874,-554.1561 -239.2193,-561.185 -229.8403,-567.3542 -219.5882,-574.6255 -209.5732,-582.3771 -199.8083,-590.5923 -190.2677,-599.21 -180.9223,-608.1805 -171.7065,-617.4226 -162.5638,-626.873 -153.3987,-636.4349 -144.1471,-646.0419 -134.8257,-655.7096 -125.4328,-665.4277 -115.0029,-676.1135 -106.5596,-684.6988 -97.5358,-693.8616 -89.0845,-702.4099 -81.2535,-710.3074 -74.0145,-717.5699 -66.6832,-724.8682 -60.5408,-730.9392 -55.3864,-736.0122 -49.9895,-741.2856 -44.3618,-746.7263 -39.4728,-751.377 -34.7405,-755.7938 -30.5537,-759.6137 -25.9425,-763.6312 -21.3686,-767.2524 -16.814,-770.3948 -11.8107,-773.2868 -7.6842,-775.2587 -3.065,-776.9404 1.5291,-778.0797 6.4879,-778.6887 10.445,-778.6907 14.7371,-778.2029 18.8892,-777.2502 22.9037,-775.8439 26.8036,-774.0306 30.5926,-771.8396 34.3162,-769.3102 38.3806,-766.1414 41.7265,-763.2665 45.5003,-759.745 49.3102,-755.8437 53.1616,-751.5795 57.034,-746.9509 61.416,-741.5438 65.6188,-736.4412 69.6606,-731.7979 74.5289,-726.7859 79.8416,-722.0432 85.5989,-717.5799 91.8189,-713.4102 99.1971,-709.1694 105.6267,-705.9396 113.1476,-702.5897 121.0824,-699.6204 130.2329,-696.8936 137.9822,-695.1061 146.8634,-693.6343 156.0,-692.7682 165.3644,-692.5108 174.9102,-692.8506 184.5597,-693.8575 195.2616,-695.6558 204.0673,-697.7002 214.8774,-700.8175 224.7198,-704.1535 233.5318,-707.554 244.3252,-712.1253 253.209,-716.1058 263.2125,-720.601 273.4125,-725.0344 283.8745,-729.2227 294.6386,-733.0108 305.6874,-736.3664 316.8432,-739.2507 327.8104,-741.632 338.4178,-743.5881 349.5955,-745.2632 358.3667,-746.3102 367.7491,-747.2103 376.7766,-747.8657 385.4446,-748.2814 393.7083,-748.3935 401.562,-748.1629 408.9828,-747.5447 415.9497,-746.5087 423.1082,-744.9091 428.6552,-743.3074 434.478,-741.1697 440.502,-738.3569 445.148,-735.6791 449.9824,-732.3192 454.3957,-728.5576 457.9977,-724.8917 458.737,-724.0355 461.7536,-720.0026 464.5459,-715.2543 466.806,-710.3074 468.622,-705.1295 470.1517,-699.661 471.5981,-693.2725 472.6047,-687.7576 473.4855,-681.334 474.1169,-673.9184 474.3851,-667.5845 474.4731,-660.2745 474.3972,-651.9153 474.2397,-644.8374 473.9861,-636.7278 473.6884,-628.3616 473.3512,-619.7455 472.9716,-610.8868 472.5767,-601.832 472.1652,-592.6447 471.7379,-583.2491 471.3191,-573.6471 470.8998,-563.8424 470.4747,-553.84 470.044,-543.6438 469.6199,-533.2587 469.2354,-522.6926 468.852,-510.9423 468.5665,-501.228 468.2802,-490.2843 468.0252,-479.1844 467.7689,-467.9323 467.4914,-456.5293 467.1645,-444.9795 466.7508,-432.1093 466.3712,-421.4536 465.9123,-409.4845 465.3974,-396.1656 465.0166,-385.1514 464.6595,-372.8582 464.4327,-359.2238 464.5161,-347.9735 465.0376,-335.391 466.1548,-322.7625 468.3103,-308.8956 470.7982,-297.6129 474.568,-283.9058 478.2147,-272.7772 482.6268,-260.4367 487.363,-248.1172 492.4778,-235.8514 497.9814,-223.6581 504.6141,-210.4186 510.5221,-199.7585 517.6123,-188.142 525.3676,-176.8822 533.7699,-166.0152 543.7226,-154.5711 552.2258,-145.6357 561.7373,-136.1935 571.032,-127.2546 580.7817,-117.8958 588.3082,-110.5881 596.9529,-102.0415 603.5751,-95.328 610.4584,-88.1219 616.7847,-81.1253 622.4747,-74.2819 627.5126,-67.5748 631.8645,-60.9776 635.5639,-54.5016 638.6251,-48.142 641.0618,-41.862 643.0439,-35.0474 644.1194,-29.5463 644.7661,-23.4896 644.8657,-17.4834 644.3602,-10.9296 643.5053,-5.5196 641.9205,1.1619 640.1829,6.6739 637.805,12.8262 634.9844,18.9841 631.4096,25.824 628.2114,31.5552 624.4722,38.1208 620.6597,44.9551 616.9122,52.1216 613.3417,59.6459 609.7734,68.2475 607.2075,75.5826 604.598,84.9382 602.7495,93.793 601.4477,102.0083 600.3572,111.3424 599.4584,121.4634 598.7953,129.3879 597.8592,138.5504 596.8265,146.4385 595.6864,153.2126 594.1021,160.359 591.8946,167.7039 589.7663,173.3 586.7581,179.6045 583.9595,184.2894 580.4993,188.9987 576.291,193.637 572.1124,197.3755 568.0703,200.3827 563.1902,203.4014 557.9112,206.0757 552.2313,208.3681 546.2009,210.2886 539.8589,211.8735 533.2006,213.1276 525.5132,214.0958 518.9731,214.6148 510.7073,214.9402 503.7316,214.9473 495.74,214.6933 487.4962,214.2691 478.9968,213.8278 470.2461,213.4284 461.2581,213.115 452.1304,212.8871 442.8529,212.72 433.3672,212.574 422.6972,212.4458 413.7866,212.3895 403.6996,212.3616 393.4221,212.3671 382.959,212.3871 372.3304,212.4159 360.5389,212.4658 350.8002,212.5226 339.8294,212.5801 327.5832,212.6162 317.4264,212.6174 305.9997,212.5917 293.2624,212.5439 281.5341,212.4758 270.8596,212.4173 258.8712,212.3661 246.7497,212.3228 234.5028,212.2777 222.1683,212.2297 209.8024,212.1604 197.3459,212.0787 183.5181,211.9494 172.1084,211.8252 159.331,211.7049 146.4497,211.6477 132.1632,211.6584 119.0708,211.7048 107.2041,211.7705 93.9292,211.8663 80.5604,211.9772 67.101,212.0952 52.1927,212.2078 39.9163,212.2731 24.8192,212.3111 12.3923,212.3171 -1.4929,212.3063 -16.8574,212.274 -29.4939,212.2531 -43.5807,212.2492 -57.6973,212.2498 -71.8326,212.263 -87.3945,212.2918 -100.1144,212.3177 -115.7235,212.3571 -128.552,212.393 -144.2993,212.4505 -158.679,212.5196 -171.6715,212.5754 -186.1628,212.6222 -202.1696,212.6558 -215.3165,212.6802 -221.1744,212.6873 -229.9767,212.6881 -244.6905,212.6497 -259.4552,212.5617 -275.6933,212.3838 -290.1082,212.1131 -302.6314,211.7535 -315.9601,211.1395 -328.6951,210.2621 -342.0857,208.938 -352.6022,207.6409 -363.8503,206.1387 -374.5952,204.3662 -384.7784,202.1801 -394.3926,199.6056 -403.4309,196.6454 -411.9185,193.3325 -419.901,189.7029 -427.4033,185.7727 -434.4642,181.5396 -441.1198,177.011 -447.4516,172.1866 -454.1213,166.5272 -459.2924,161.5357 -464.7127,155.6134 -469.6565,149.3419 -474.4322,142.1049 -477.8008,135.9967 -480.9691,129.0472 -483.525,121.9503 -485.418,114.7451 -486.6623,107.4974 -487.2858,100.2587 -487.2338,93.042 -486.6348,85.7752 -485.4855,78.3841 -483.6942,70.9338 -481.0408,62.7558 -478.338,56.18 -474.4012,48.434 -470.2459,41.7065 -466.0533,35.9296 -460.9227,29.8271 -455.2801,24.0551 -449.0903,18.608 -442.3629,13.5071 -435.1373,8.7574 -427.439,4.4079 -419.3124,0.4838 -410.7875,-3.0036 -401.8768,-5.9878 -392.6254,-8.4973 -383.0549,-10.4691 -373.2035,-11.8755 -362.0925,-12.7744 -351.7775,-12.9827 -342.4062,-12.7764 -331.8556,-12.2885 -321.154,-11.6129 -310.3005,-10.8208 -299.2946,-9.9747 -287.0121,-9.024 -276.8264,-8.2519 -265.3677,-7.4166 -252.5942,-6.5334 -242.0129,-5.8525 -230.1217,-5.163 -218.0959,-4.5273 -205.9432,-3.9646 -193.7267,-3.4709 -181.3952,-3.0587 -168.9518,-2.6817 -156.4014,-2.2939 -143.744,-1.9164 -130.9823,-1.5591 -116.8249,-1.186"/>
	<!-- Raw distance reference points -->
	<polyline id="dist" fill="none" stroke="none" stroke-width="0" points="5808.2495,-1.3016 13.1777,-1.2663 25.9827,-1.2614 38.8864,-1.2602 51.8478,-1.2414 64.9138,-1.2189 78.0955,-1.2371 91.3755,-1.2104 104.752,-1.1903 118.2191,-1.1981 131.7565,-1.1974 145.3777,-1.165 159.0977,-1.1867 172.8647,-1.1384 186.7139,-1.1269 200.6419,-1.1034 214.6451,-1.0789 228.707,-1.0675 242.7976,-1.0437 256.6868,-1.0439 270.2421,-1.0314 283.4177,-1.0232 296.2231,-1.0274 308.6681,-1.0221 320.7797,-1.0215 332.5562,-0.9958 343.9907,-0.9798 355.0848,-0.9692 365.8245,-0.9418 376.205,-0.9276 386.2276,-0.9544 395.9081,-0.9469 405.3153,-0.9358 414.4974,-0.933 423.5311,-0.9716 432.3232,-0.9701 441.0951,-0.968 449.8374,-0.9724 458.5247,-0.985 466.9848,-0.9878 475.5567,-0.9631 484.1256,-0.9216 492.548,-0.9523 501.2342,-0.9491 510.0,-0.9291 518.8045,-0.91 527.5737,-0.8957 536.0686,-0.8649 544.748,-0.8338 553.4232,-0.8112 562.1629,-0.7804 571.0109,-0.7392 580.1688,-0.7053 589.5287,-0.6902 599.0703,-0.656 608.769,-0.6629 618.5901,-0.7045 628.5412,-0.7107 638.626,-0.7411 648.917,-0.7704 659.4077,-0.7957 669.9484,-0.7881 680.3847,-0.7629 690.6449,-0.7574 700.6905,-0.7813 710.5552,-0.8221 720.3107,-0.8498 730.0981,-0.8389 739.8594,-0.7987 749.529,-0.7638 759.2492,-0.7781 768.9344,-0.8018 778.5176,-0.7886 787.9871,-0.7424 797.2305,-0.7091 806.1515,-0.649 814.7391,-0.596 823.0061,-0.542 831.0187,-0.525 838.7851,-0.5228 846.3957,-0.5155 853.83,-0.5037 861.1224,-0.4811 868.2249,-0.4624 875.134,-0.4445 881.8036,-0.4162 888.209,-0.3858 894.2778,-0.3748 900.1437,-0.3715 905.8883,-0.378 911.5919,-0.3735 917.2584,-0.3539 922.8704,-0.3148 928.4699,-0.2692 933.975,-0.2162 939.4047,-0.1473 944.7476,-0.0961 949.9919,-0.0262 955.1358,0.028 960.2379,0.068 965.3542,0.1224 970.5515,0.1272 975.9724,0.1221 981.5899,0.1288 987.3678,0.1394 993.4203,0.1521 999.493,0.1847 1005.5767,0.2231 1011.6484,0.2071 1017.8079,0.2431 1023.938,0.2549 1030.1755,0.265 1036.5431,0.2662 1043.058,0.2635 1049.6328,0.2664 1056.1143,0.2651 1062.4861,0.2669 1068.75,0.2684 1074.9491,0.2591 1081.0793,0.2434 1087.2141,0.2348 1093.2642,0.2177 1099.2639,0.1939 1105.2181,0.1776 1111.1383,0.1813 1117.3292,0.2145 1123.3958,0.1931 1129.4517,0.207 1135.4821,0.2436 1141.4427,0.2721 1147.1011,0.3025 1152.7341,0.2902 1158.3523,0.2755 1163.8864,0.2638 1169.4011,0.2425 1174.8737,0.2758 1180.3416,0.2828 1185.8044,0.2974 1191.5686,0.2892 1197.5298,0.2559 1203.6914,0.2311 1210.0774,0.2271 1216.7617,0.2332 1223.6798,0.2252 1230.9094,0.2157 1238.3853,0.2129 1246.1576,0.2123 1254.1649,0.2089 1262.4397,0.2096 1270.9528,0.2414 1279.7017,0.243 1288.6345,0.2667 1297.7491,0.2901 1307.0756,0.2776 1316.6023,0.2719 1326.328,0.229 1336.2611,0.1607 1346.3894,0.1092 1356.7285,0.04 1367.2697,-0.0352 1377.9431,-0.0575 1388.821,-0.0689 1399.8444,-0.094 1410.9928,-0.1258 1422.2917,-0.1638 1433.7705,-0.1844 1445.333,-0.2305 1457.0446,-0.3054 1468.9379,-0.3205 1480.925,-0.3438 1493.0566,-0.4092 1505.252,-0.4593 1517.5612,-0.512 1529.9293,-0.5865 1542.3275,-0.6084 1554.8162,-0.7 1567.406,-0.7018 1580.0708,-0.7193 1592.8213,-0.7395 1605.682,-0.8217 1618.6499,-0.9248 1631.7192,-1.01 1644.8912,-1.0468 1658.1661,-1.1091 1671.5265,-1.1243 1684.9733,-1.1662 1698.5165,-1.2104 1712.1573,-1.2508 1725.885,-1.2897 1739.699,-1.3283 1753.5933,-1.3873 1767.5604,-1.4563 1781.5941,-1.473 1795.6313,-1.5195 1809.4094,-1.546 1822.7336,-1.5565 1835.4849,-1.5926 1847.5692,-1.6525 1858.9152,-1.6684 1869.528,-1.6857 1879.4329,-1.7325 1888.6597,-1.756 1897.2334,-1.7691 1905.1643,-1.7852 1912.4419,-1.8253 1919.1426,-1.8478 1925.3185,-1.862 1931.0037,-1.8706 1936.2501,-1.8811 1941.1495,-1.8954 1945.7794,-1.8894 1950.2318,-1.8935 1954.5613,-1.9234 1958.7767,-1.9727 1962.7198,-2.0317 1966.7913,-2.0859 1970.8823,-2.1282 1974.9882,-2.1657 1979.126,-2.1611 1983.2241,-2.1475 1986.7207,-2.1184 1990.5405,-2.0574 1994.2092,-2.0086 1997.8618,-1.9606 2001.4587,-1.9152 2005.3868,-1.8566 2009.496,-1.8197 2013.9253,-1.8045 2018.7441,-1.8148 2023.9355,-1.8279 2029.4043,-1.8065 2034.8982,-1.7607 2040.2743,-1.7244 2045.5522,-1.6916 2050.969,-1.6702 2056.7498,-1.6365 2063.0901,-1.6208 2069.8152,-1.6279 2077.0034,-1.5826 2084.217,-1.5307 2091.7915,-1.4794 2099.4712,-1.4211 2107.5032,-1.39 2115.678,-1.3692 2124.1621,-1.3599 2132.8269,-1.3706 2141.7004,-1.3718 2150.7517,-1.3723 2159.938,-1.3469 2169.323,-1.3334 2178.9216,-1.3166 2188.7212,-1.2474 2198.6973,-1.2306 2208.8569,-1.2016 2219.2285,-1.1368 2229.8037,-1.1132 2240.5222,-1.079 2251.2549,-1.0377 2262.0039,-0.9793 2272.8567,-0.9009 2283.8618,-0.8223 2295.0222,-0.784 2306.3325,-0.7205 2317.7922,-0.6647 2329.394,-0.6258 2341.1304,-0.6118 2352.9973,-0.5255 2364.9934,-0.4642 2377.1331,-0.4503 2389.3992,-0.4147 2401.7373,-0.3807 2414.1804,-0.3694 2426.6528,-0.3298 2439.2834,-0.2619 2451.9646,-0.2395 2464.792,-0.2182 2477.6157,-0.1479 2490.5547,-0.0869 2503.6011,-0.0347 2516.7327,-0.0629 2529.9478,-0.0667 2543.2332,-0.064 2556.5706,-0.0131 2570.0188,0.0021 2583.5317,-0.0024 2597.0679,0.0291 2610.4536,0.0481 2623.2832,0.0363 2635.2939,0.058 2646.408,0.0748 2656.6501,0.11 2666.0938,0.1413 2674.8037,0.1477 2682.8794,0.1476 2690.4285,0.1514 2697.5681,0.1971 2704.3503,0.2345 2710.8601,0.2579 2717.1592,0.2635 2723.2415,0.2614 2729.0056,0.2676 2734.4609,0.2837 2739.6799,0.2922 2744.7791,0.2693 2749.9106,0.2695 2754.6394,0.2601 2759.3589,0.2392 2763.9521,0.246 2768.4929,0.279 2772.9802,0.3007 2777.4495,0.3186 2781.9277,0.3434 2786.3945,0.3929 2790.8984,0.4098 2795.5459,0.3826 2800.3972,0.3631 2805.5059,0.3469 2810.8853,0.3411 2816.554,0.3209 2822.5339,0.3205 2828.8174,0.3279 2835.5872,0.3284 2842.6292,0.3154 2849.9819,0.2934 2857.2322,0.2857 2864.7158,0.2742 2872.301,0.284 2880.2161,0.3089 2888.2812,0.3237 2896.6589,0.3164 2905.27,0.2991 2914.0979,0.2931 2923.125,0.2685 2932.2292,0.2388 2941.5957,0.2437 2951.0906,0.2667 2960.6885,0.269 2970.364,0.3188 2980.1379,0.324 2990.074,0.3397 3000.1963,0.3842 3010.4978,0.4311 3020.9297,0.4625 3031.531,0.4305 3042.2981,0.3984 3053.229,0.3845 3064.3682,0.3664 3075.7671,0.3097 3087.5281,0.2278 3099.2827,0.1411 3110.9731,0.1053 3122.4016,0.0786 3133.3281,0.0243 3143.7102,-0.0489 3153.5359,-0.1028 3162.9226,-0.165 3171.9563,-0.2593 3180.6216,-0.3698 3188.8782,-0.4612 3196.7141,-0.5052 3204.137,-0.5499 3211.1323,-0.6014 3217.7964,-0.6435 3224.2373,-0.707 3230.6257,-0.7703 3236.7981,-0.8582 3242.9814,-0.9196 3249.2407,-0.9974 3255.8425,-1.0541 3260.5544,-1.0516 3261.7544,-1.0451 3267.4453,-0.9915 3272.9722,-0.9156 3278.3811,-0.8549 3283.8169,-0.8242 3289.4326,-0.804 3295.229,-0.7812 3301.3608,-0.7673 3307.7742,-0.7759 3314.4016,-0.8067 3321.3857,-0.8357 3328.6748,-0.8617 3336.2346,-0.8456 3344.0652,-0.8295 3352.168,-0.7915 3360.5212,-0.7536 3369.1399,-0.6983 3378.0081,-0.6894 3387.0791,-0.7486 3396.2722,-0.7737 3405.6768,-0.7466 3415.2954,-0.7182 3425.1121,-0.7322 3435.1199,-0.7607 3445.3159,-0.7686 3455.6982,-0.8175 3466.2617,-0.8226 3476.936,-0.8614 3487.7246,-0.8761 3498.677,-0.818 3509.783,-0.7879 3521.0337,-0.8281 3532.4302,-0.8767 3543.9736,-0.9505 3555.6731,-0.9869 3567.5664,-1.0104 3579.5842,-1.065 3591.7556,-1.0852 3604.031,-1.1236 3616.386,-1.0973 3628.7854,-1.0103 3641.2373,-0.9712 3653.7397,-0.9025 3666.5015,-0.9126 3679.3271,-0.8657 3692.2454,-0.7498 3705.2236,-0.6962 3718.3059,-0.6878 3731.4333,-0.7201 3744.6277,-0.7484 3757.917,-0.7423 3771.2979,-0.7624 3784.7776,-0.8152 3798.3579,-0.8464 3812.1099,-0.9259 3825.9456,-0.9946 3839.8206,-1.071 3853.6812,-1.133 3867.5029,-1.1925 3881.0349,-1.2622 3894.0291,-1.2759 3906.3784,-1.2966 3918.0691,-1.266 3929.1433,-1.284 3939.6418,-1.3398 3949.5627,-1.382 3958.9482,-1.4153 3967.8008,-1.4546 3976.1675,-1.4953 3984.1729,-1.5054 3991.7205,-1.4919 3998.9707,-1.4559 4005.7959,-1.3839 4012.4082,-1.3103 4018.6758,-1.2495 4024.7703,-1.1859 4030.7527,-1.1335 4036.6758,-1.0905 4042.6072,-1.073 4048.7383,-1.0657 4055.0381,-1.0692 4061.519,-1.0807 4068.0862,-1.1006 4074.9846,-1.1137 4082.1631,-1.1278 4089.7549,-1.1529 4097.7822,-1.1805 4106.0195,-1.2103 4114.6611,-1.2345 4123.3945,-1.2832 4132.2456,-1.3289 4141.2329,-1.3869 4150.3223,-1.4199 4159.6689,-1.4715 4169.1362,-1.5288 4178.4048,-1.5989 4187.2539,-1.6174 4195.6274,-1.5951 4203.6079,-1.559 4211.2329,-1.4984 4218.4751,-1.456 4225.1587,-1.4338 4231.7036,-1.4491 4237.9761,-1.4949 4243.9604,-1.5282 4249.7192,-1.5485 4255.2783,-1.5742 4260.8257,-1.6 4266.3525,-1.6301 4272.0117,-1.6426 4277.8306,-1.6485 4283.8354,-1.6359 4289.8755,-1.6284 4296.248,-1.6279 4302.8882,-1.6166 4309.7915,-1.585 4317.0137,-1.5773 4324.3979,-1.5507 4332.083,-1.5169 4340.0171,-1.4867 4348.2607,-1.4337 4356.77,-1.4069 4365.5361,-1.3916 4374.5371,-1.3966 4383.6846,-1.401 4392.9702,-1.3791 4402.4653,-1.3698 4412.1665,-1.3498 4422.064,-1.3357 4432.1528,-1.3399 4442.438,-1.317 4452.9038,-1.2953 4463.5317,-1.2747 4474.249,-1.2473 4485.062,-1.2328 4496.0327,-1.2329 4507.1577,-1.2283 4518.4395,-1.2182 4529.8711,-1.2108 4541.4458,-1.1861 4553.1626,-1.1728 4565.0151,-1.1713 4576.9946,-1.1638 4589.1108,-1.1515 4601.3599,-1.1573 4613.6982,-1.1671 4626.0649,-1.1507 4638.5171,-1.1341 4651.082,-1.1547 4663.7549,-1.1469 4676.5332,-1.144 4689.4126,-1.17 4702.3931,-1.1627 4715.4775,-1.1786 4728.6606,-1.2008 4741.9424,-1.2003 4755.3149,-1.2249 4768.7749,-1.2261 4782.3237,-1.2447 4795.9644,-1.2818 4809.6846,-1.3086 4823.4888,-1.3043 4837.3755,-1.3418 4851.3394,-1.3716 4865.3765,-1.393 4879.4604,-1.42 4893.5713,-1.4323 4907.708,-1.4566 4921.8564,-1.5012 4935.9937,-1.5122 4950.1787,-1.5432 4964.4268,-1.5646 4978.7373,-1.5945 4993.1108,-1.6309 5007.543,-1.6459 5022.0356,-1.6631 5036.5845,-1.6947 5051.1968,-1.7159 5054.7656,-1.724 5065.8682,-1.7472 5080.5713,-1.7592 5095.3252,-1.7631 5110.1025,-1.7892 5124.564,-1.7775 5138.5098,-1.7799 5151.8389,-1.7894 5164.5742,-1.7986 5176.8081,-1.7929 5188.6377,-1.8048 5200.0889,-1.8004 5211.2139,-1.7935 5221.7095,-1.8089 5231.6758,-1.826 5241.189,-1.8176 5250.2871,-1.7802 5259.0405,-1.7287 5267.4561,-1.6982 5275.604,-1.676 5283.6113,-1.6719 5291.5273,-1.6435 5299.4204,-1.6463 5307.3628,-1.6493 5315.3193,-1.6913 5323.2637,-1.7426 5331.1509,-1.7886 5339.0449,-1.8292 5346.7935,-1.8853 5354.5869,-1.9475 5362.1597,-1.9666 5369.8091,-1.971 5377.2588,-1.9719 5384.9077,-1.8974 5392.4136,-1.8614 5400.4131,-1.8548 5408.5972,-1.8189 5416.6147,-1.8044 5424.8569,-1.7917 5432.978,-1.7703 5440.9346,-1.7554 5448.9292,-1.7412 5456.8916,-1.7471 5464.9209,-1.7592 5473.0557,-1.7537 5481.3921,-1.7287 5489.772,-1.686 5498.2354,-1.6415 5507.0093,-1.6042 5515.7974,-1.5903 5524.7466,-1.5546 5533.9116,-1.5584 5543.4419,-1.5536 5553.1035,-1.5261 5562.9951,-1.5174 5573.1538,-1.4961 5583.4473,-1.4625 5593.9116,-1.4394 5604.5801,-1.4443 5615.416,-1.4505 5626.3628,-1.4251 5637.4863,-1.4069 5648.7915,-1.4304 5660.2402,-1.3981 5671.8306,-1.3703 5683.5776,-1.3947 5695.4668,-1.3721 5707.4902,-1.401 5719.645,-1.3609 5731.8691,-1.3702 5744.2061,-1.3423 5756.6509,-1.3376 5769.1909,-1.3415 5781.8491,-1.3188 5794.6367,-1.3063 5807.5366,-1.3091"/>
</svg>
