<?xml version="1.0" encoding="utf-8"?>
<!-- Track map generated with TinyPedal -->
<svg viewBox="-586.1444 -994.5223 1308.7352 2074.7586" version="1.1" xmlns="http://www.w3.org/2000/svg">
	<title>Spa-Francorchamps</title>
	<!-- Sector coordinates index -->
	<desc>198,528</desc>
	<!-- Raw global coordinates -->
	<polyline id="map" fill="none" stroke="black" stroke-width="10" points="-229.8417,-735.6408 -236.934,-746.3668 -242.907,-755.4033 -248.9387,-764.5262 -255.6374,-774.6595 -261.1619,-783.0283 -267.3448,-792.4068 -273.5608,-801.8451 -279.8163,-811.3519 -286.1177,-820.9342 -292.4785,-830.582 -298.8934,-840.2772 -305.2511,-849.8602 -311.3864,-859.1164 -317.2358,-867.9756 -323.3072,-877.2239 -327.9786,-884.3984 -332.8501,-891.968 -337.3972,-899.1379 -341.6202,-905.924 -345.8887,-912.9517 -349.0779,-918.3691 -352.5796,-924.6014 -355.0815,-929.3943 -357.625,-934.8956 -359.2836,-939.1334 -360.6859,-943.6088 -361.6077,-947.8343 -362.0561,-951.8289 -361.9867,-955.9248 -361.4904,-959.0165 -360.477,-962.1443 -358.9868,-964.9346 -356.8506,-967.6155 -354.7657,-969.507 -352.1151,-971.3013 -348.8248,-972.8636 -345.8505,-973.799 -342.2718,-974.4263 -338.4911,-974.5223 -334.667,-974.0753 -330.7504,-973.2473 -326.5472,-972.1569 -322.0663,-970.7693 -317.324,-969.0737 -312.3241,-967.1124 -307.0724,-964.9258 -301.6399,-962.5598 -295.9908,-960.012 -290.132,-957.2794 -284.0716,-954.3585 -277.8117,-951.2634 -271.3591,-948.0017 -264.722,-944.5783 -257.9036,-941.0061 -250.9289,-937.3116 -243.8039,-933.4995 -236.5128,-929.5601 -229.0602,-925.4941 -220.6822,-920.8769 -213.6946,-916.9843 -205.8021,-912.5273 -197.7891,-907.9177 -189.6651,-903.1488 -181.4536,-898.2252 -173.1755,-893.155 -163.968,-887.3918 -156.362,-882.5293 -147.8407,-876.965 -139.2496,-871.2362 -130.6007,-865.3342 -121.8998,-859.2563 -113.1611,-852.9934 -104.4131,-846.5195 -95.6913,-839.8 -87.0176,-832.8207 -78.4057,-825.5759 -69.8788,-818.0983 -61.4483,-810.3629 -53.0868,-802.3936 -43.9622,-793.3718 -36.5415,-785.8104 -28.3289,-777.2381 -20.1295,-768.5104 -11.9136,-759.6572 -3.6868,-750.6779 5.3554,-740.6412 13.5925,-731.3968 21.8646,-722.0571 29.3486,-713.581 37.728,-704.1041 46.182,-694.5745 54.706,-684.9917 63.3029,-675.3621 71.9799,-665.6945 80.7432,-655.9991 89.6203,-646.3041 98.6337,-636.6641 107.7702,-627.151 117.0241,-617.7943 126.4498,-608.6794 136.1442,-599.9404 146.1561,-591.6942 157.5724,-583.3367 167.1466,-577.0051 178.8709,-569.5203 188.2528,-563.2755 199.2045,-555.2349 207.6104,-548.2354 216.2801,-539.9957 224.9719,-530.4357 231.3092,-522.2322 237.6169,-512.8124 243.1871,-503.1384 247.9342,-493.2265 252.3841,-482.1613 255.7022,-473.0613 259.123,-462.8252 262.5334,-451.3758 265.1531,-441.8854 268.0959,-431.269 271.2996,-420.6515 274.9443,-410.1151 279.0585,-399.6859 283.6548,-389.3906 288.6795,-379.2197 294.1609,-369.21 300.0078,-359.3231 306.1401,-349.5235 312.5161,-339.7918 319.761,-329.1389 325.8181,-320.4315 332.6542,-310.7484 340.2719,-300.067 347.2752,-290.3246 353.6385,-281.5296 360.765,-271.7212 367.9446,-261.8738 375.1688,-251.9802 383.1446,-241.0315 389.674,-232.0107 396.9075,-221.9032 404.0775,-211.6822 411.1623,-201.333 418.1217,-190.8348 424.9326,-180.1763 431.5576,-169.3418 437.9598,-158.3192 444.138,-147.1152 450.6792,-134.5934 455.823,-124.1983 461.3178,-112.4963 466.5689,-100.6403 471.5978,-88.6444 476.9051,-75.3062 481.5627,-63.0678 485.6419,-51.9716 490.0795,-39.5647 494.4555,-27.0912 499.2196,-13.3032 503.0927,-1.9749 507.3817,10.6518 511.65,23.294 516.3477,37.2446 520.2192,48.6832 524.9782,62.6955 528.8767,74.1912 533.2128,86.9969 537.9885,101.1216 541.9041,112.706 546.2506,125.6123 550.569,138.5599 555.731,154.1471 559.5889,165.8719 563.4438,177.6222 567.7401,190.7019 572.4824,205.1188 576.361,216.9405 581.1033,231.4201 584.9946,243.2884 589.3335,256.4963 593.6875,269.726 598.0667,282.9734 602.4772,296.2356 607.3682,310.8401 611.3893,322.8048 615.8713,336.1162 620.363,349.4478 624.8515,362.8024 629.3335,376.1812 633.8114,389.5819 638.2924,403.0011 642.7711,416.4402 647.2446,429.9002 652.1669,444.726 656.6357,458.2242 660.6507,470.3873 665.0651,483.7674 669.7497,497.971 673.4089,509.0895 677.2949,520.9142 680.9957,532.2175 684.4935,543.0081 687.7634,553.2732 690.7958,563.0423 693.5591,572.3273 696.2347,582.0104 698.1131,589.5391 699.8375,597.5095 701.1622,605.0742 702.0656,612.2298 702.5477,618.9922 702.5908,625.4003 702.1818,631.4798 701.3077,637.2589 699.9877,642.7763 698.2651,648.0083 696.1617,652.8673 693.4174,657.7224 690.8322,661.3023 687.6045,664.8611 684.0237,668.0132 679.7498,671.2199 676.0951,673.8498 671.95,676.9088 667.4802,680.5674 664.0369,683.8525 660.5191,687.8479 657.394,692.2354 654.7055,696.9935 652.4871,702.0812 650.7598,707.4541 649.5425,713.0708 648.8196,719.4775 648.7256,724.8605 649.2052,731.5679 650.06,737.1428 651.4821,743.4243 653.3803,749.8044 655.7166,756.275 658.4267,762.7819 661.7151,770.0365 664.4814,776.1266 667.4816,783.0612 670.3945,790.6637 672.5064,797.4689 673.9402,803.5237 675.0283,810.1883 675.5825,816.7943 675.5972,823.3581 675.0385,829.8886 673.9122,836.3954 672.2217,842.889 669.7313,850.0034 666.8812,856.3729 663.4826,862.6021 659.9348,868.0652 655.4812,873.9836 650.509,879.7247 645.0775,885.264 639.271,890.6592 633.1543,895.9923 626.7563,901.2802 620.1027,906.5423 613.227,911.8107 606.1332,917.0804 598.1035,922.899 591.3916,927.7196 583.7772,933.1219 575.9939,938.5588 568.0909,944.0976 560.1317,949.7515 552.1016,955.5607 544.0087,961.5312 535.8579,967.6642 526.8189,974.5828 519.3522,980.3542 510.9491,986.8389 502.4101,993.3643 493.7225,999.9081 484.9052,1006.452 476.1523,1012.8887 466.8705,1019.6872 458.8577,1025.5354 451.2606,1031.0164 444.7415,1035.6311 437.8245,1040.3883 431.2251,1044.6993 424.8732,1048.5026 418.7132,1051.7924 412.1196,1054.8042 406.2913,1057.0107 401.1674,1058.5276 395.5808,1059.6714 390.1289,1060.2363 384.8339,1060.2239 379.2111,1059.5267 374.7835,1058.4384 370.0658,1056.7006 365.1528,1054.1753 361.3692,1051.6527 357.0491,1048.0378 353.7842,1044.6724 350.4906,1040.5339 347.3648,1035.5581 345.077,1030.7614 343.5185,1026.2848 342.3483,1021.1815 341.7454,1015.4082 341.7549,1010.5699 342.2798,1005.0985 343.3565,999.5704 345.0161,994.0391 347.2739,988.5623 350.1404,983.2037 353.5912,978.0063 357.602,973.0015 362.1303,968.1902 367.1622,963.5555 372.6575,959.0963 378.578,954.8046 384.8597,950.6223 391.4362,946.5174 398.2947,942.5186 405.4275,938.574 412.7919,934.6197 420.3427,930.5977 428.6415,926.0847 435.1571,922.3709 441.9952,918.21 448.3905,913.9739 454.299,909.5907 459.6807,904.9915 464.9943,899.6577 468.8633,895.0237 472.6607,889.5723 475.9034,883.8236 478.7784,877.1853 480.5811,871.5212 482.014,864.9811 482.9098,857.509 483.1191,851.2046 482.7935,844.0374 481.8985,836.7101 480.3032,828.5005 478.5574,821.6913 476.1843,814.0577 473.1201,805.6088 470.3543,798.5967 467.129,790.66 463.7675,782.567 460.2913,774.3148 456.7389,765.8916 453.1365,757.2924 449.536,748.5032 445.6414,738.5976 442.5182,730.3097 439.1269,720.9368 435.8188,711.386 432.5812,701.6503 429.1175,690.7286 426.3707,681.63 423.4177,671.3492 420.563,660.8962 417.8069,650.277 414.8633,638.4165 412.5069,628.5779 409.9453,617.5093 407.4491,606.2991 404.9825,594.9587 402.5298,583.5228 400.0779,571.9786 397.6144,560.3226 395.1212,548.561 392.5988,536.6945 390.04,524.7274 387.4333,512.6636 384.5309,499.3029 382.1741,488.4763 379.6233,476.8347 376.9012,464.633 374.4626,454.0651 372.2558,444.9428 369.728,435.2213 367.0746,425.8904 364.1847,416.9499 360.9151,408.4198 357.1688,400.2836 352.8909,392.5444 348.0883,385.2522 342.7635,378.4112 336.9452,372.036 330.654,366.1384 323.9049,360.7108 316.7175,355.7509 309.1267,351.2756 301.1594,347.3303 292.8524,343.9662 284.2438,341.1902 275.3353,339.0126 265.232,337.2771 256.7608,336.3159 247.1638,335.6047 237.3965,335.3054 227.4901,335.5386 216.4701,336.4458 206.376,337.8711 197.259,339.6444 186.1258,342.4704 177.075,345.3644 167.1379,349.222 157.3764,353.758 146.8956,359.5146 138.55,364.7912 129.567,371.2416 120.9556,378.3179 111.9552,386.7888 104.9786,394.2213 97.622,402.9472 90.7171,412.1475 84.2847,421.7922 78.2966,431.8019 72.7079,442.1267 67.4902,452.7426 62.6778,463.6409 58.2486,474.7938 53.7176,487.2981 50.224,497.6869 46.4595,509.3548 42.7334,521.1259 39.0062,532.9835 35.2558,544.9182 31.5051,556.9337 27.3361,570.2272 23.4676,582.3664 19.9322,593.3367 15.9407,605.5722 11.9149,617.8641 7.8589,630.2106 3.7754,642.5598 -0.2571,654.6578 -4.2034,666.2498 -8.465,678.29 -11.9059,687.563 -16.0746,698.1907 -19.4656,706.3208 -23.2528,714.777 -27.044,722.6527 -30.7998,729.989 -34.9706,737.418 -38.5098,742.9729 -42.6386,748.5894 -47.4418,754.1365 -51.5964,758.1996 -56.481,762.2335 -61.6657,765.7664 -67.1304,768.7896 -72.8799,771.3203 -78.9333,773.3716 -85.2724,774.935 -92.5194,776.0346 -98.6172,776.4448 -105.5208,776.3707 -112.5087,775.7064 -119.5328,774.4437 -127.2608,772.388 -133.5595,770.2082 -140.5093,767.3134 -147.3055,764.1524 -153.9262,761.0408 -160.4736,758.1635 -167.037,755.6521 -174.3521,753.4167 -180.4307,752.0469 -187.2637,751.0436 -194.1505,750.5895 -201.0644,750.7343 -208.6631,751.5909 -214.8067,752.8434 -221.5189,754.7979 -228.0963,757.3395 -235.1395,760.7936 -240.7234,764.1372 -247.311,768.8385 -252.4939,773.1807 -258.0154,778.5078 -263.7544,784.9102 -268.2254,790.5385 -272.9866,797.1557 -277.476,804.1611 -281.6971,811.53 -285.7729,819.1821 -289.8344,827.0389 -293.9113,835.0795 -298.0543,843.2725 -302.2896,851.6001 -306.6132,860.0601 -311.0107,868.6255 -315.4962,877.2917 -320.0903,886.0601 -324.7249,894.7902 -329.2393,903.2112 -333.5854,911.1972 -338.2267,919.4263 -341.9564,925.7339 -346.0696,932.3246 -350.2124,938.4543 -354.4513,944.0787 -358.87,949.1721 -363.5167,953.7133 -368.402,957.6626 -373.5266,960.9966 -378.9142,963.7233 -384.5819,965.8564 -391.0912,967.5846 -396.5808,968.5148 -402.7839,969.0054 -409.6446,968.8522 -415.2751,968.1737 -421.566,966.8555 -428.5184,964.7512 -434.2166,962.5515 -440.5545,959.6085 -446.9019,956.187 -453.2649,952.3496 -460.3128,947.7366 -466.1516,943.7263 -473.3909,938.6346 -479.4098,934.3338 -486.2401,929.4454 -493.9412,923.9672 -500.3823,919.4055 -507.6261,914.1785 -515.5494,908.0606 -522.5516,902.0173 -528.5991,896.1348 -535.5775,888.3702 -540.8608,881.5666 -546.725,872.7342 -551.4833,864.2685 -555.2668,856.3519 -559.1997,846.3709 -561.7844,838.0307 -563.9683,828.6454 -565.3984,819.1425 -566.1255,809.5684 -566.1444,800.0009 -565.492,790.5351 -563.9618,780.36 -562.2362,772.1784 -559.7408,763.2094 -556.7479,754.3011 -552.9849,744.5203 -549.588,736.527 -545.119,726.7468 -541.2496,718.7216 -536.7556,709.7734 -531.5906,699.891 -527.188,691.7808 -522.1112,682.75 -516.3023,672.7991 -511.3754,664.6482 -505.7083,655.5933 -499.2232,645.6535 -493.7106,637.5552 -487.3797,628.5911 -480.8075,619.6879 -473.2966,609.9758 -466.9183,602.1136 -458.8342,592.6212 -451.9739,584.9706 -444.104,576.5897 -435.9891,568.3313 -426.806,559.3732 -419.1059,552.1356 -409.4878,543.4175 -400.5508,535.6202 -392.3511,528.6859 -383.0637,521.0866 -373.5922,513.6006 -363.9329,506.2434 -354.0886,499.0178 -344.0638,491.9269 -332.821,484.3034 -322.41,477.536 -312.9042,471.554 -301.1286,464.3622 -291.3791,458.5577 -280.4466,452.1598 -269.4201,445.8011 -258.3123,439.4609 -247.1278,433.1394 -235.8471,426.8738 -223.3643,419.9823 -213.1428,414.2591 -201.812,407.7515 -190.5674,401.0012 -179.4572,393.9444 -168.5137,386.5526 -157.7328,378.8489 -147.1167,370.8477 -136.6852,362.5413 -126.4871,353.894 -116.5576,344.8893 -106.9732,335.5085 -96.9015,324.7097 -89.0401,315.5065 -80.7062,304.9213 -72.8054,293.9799 -65.3664,282.6938 -58.4213,271.0757 -51.3652,257.9406 -46.0333,246.9501 -40.5445,234.5104 -35.4502,221.8717 -30.5161,209.1299 -25.1209,195.0565 -20.7225,183.5019 -15.4225,169.3087 -11.3228,157.5845 -7.065,144.4262 -3.2507,131.1109 0.207,116.2674 2.3784,103.9838 4.1048,90.2264 5.1071,75.0159 5.2213,62.559 4.3726,47.4007 2.933,35.0863 0.274,20.1975 -2.968,6.8495 -6.4169,-5.0293 -11.1936,-19.3885 -15.5841,-30.9798 -20.9982,-43.6541 -26.9104,-56.1307 -33.6674,-69.7807 -39.1965,-80.9876 -45.2852,-93.5056 -51.2572,-106.12 -57.0704,-118.8453 -62.703,-131.6864 -68.1493,-144.6403 -73.4291,-157.6949 -78.534,-170.8487 -83.3852,-184.1253 -87.923,-197.5333 -92.58,-212.4172 -96.5473,-226.0515 -99.9133,-238.3974 -103.4316,-252.1924 -106.7071,-266.0656 -110.0383,-281.4064 -112.5337,-293.964 -115.088,-307.5948 -117.352,-320.6412 -119.3962,-333.0552 -121.4734,-345.9687 -123.175,-357.0586 -124.5507,-366.5338 -125.9404,-376.5098 -127.2008,-385.9172 -128.4432,-395.6265 -129.3434,-403.0875 -130.2807,-411.6319 -130.8719,-418.144 -131.3149,-424.8668 -131.5446,-431.6496 -131.5278,-436.7113 -131.3049,-441.8126 -130.8251,-446.4001 -129.9275,-450.9042 -128.834,-454.1448 -127.0778,-457.5628 -125.3348,-459.9225 -123.1117,-462.096 -120.6259,-463.81 -117.9036,-465.1214 -114.9099,-466.0894 -111.6402,-466.6643 -107.8094,-466.7816 -104.5328,-466.4893 -100.376,-465.8917 -96.9943,-465.6236 -92.9967,-465.75 -89.4964,-466.3281 -86.4219,-467.2803 -82.7946,-469.0096 -80.0404,-470.8757 -77.3862,-473.3474 -75.2398,-476.124 -73.654,-479.1547 -72.5578,-482.7542 -72.1663,-485.8767 -72.2555,-489.4706 -72.9933,-493.4949 -74.0809,-496.8169 -75.73,-500.6156 -77.7577,-504.5883 -80.1031,-508.7572 -82.7067,-513.1441 -85.535,-517.7495 -88.5782,-522.5603 -91.8274,-527.5633 -95.271,-532.738 -98.8215,-537.985 -102.5108,-543.4039 -106.7268,-549.5793 -110.2992,-554.7921 -114.3925,-560.7484 -119.0283,-567.5014 -123.3532,-573.8206 -127.3336,-579.6484 -131.8481,-586.2736 -136.4294,-593.0185 -141.0975,-599.9154 -145.8517,-606.9604 -150.6897,-614.1498 -155.6095,-621.4803 -160.6108,-628.9462 -165.6895,-636.5445 -170.8425,-644.273 -176.593,-652.9201 -181.3609,-660.1056 -186.7204,-668.2042 -192.1201,-676.3873 -197.5811,-684.6802 -203.1004,-693.085 -209.2363,-702.4574 -214.311,-710.2197 -220.0107,-718.9376 -225.7713,-727.7521"/>
	<!-- Raw distance reference points -->
	<polyline id="dist" fill="none" stroke="none" stroke-width="0" points="6971.1187,22.0641 10.8642,22.2967 21.7059,22.5173 32.6574,22.7272 43.7028,22.9651 54.8235,23.172 66.0517,23.396 77.3589,23.6226 88.7422,23.8461 100.2166,24.0802 111.7787,24.3143 123.4028,24.5839 134.8862,24.8496 145.9812,25.1685 156.6064,25.5332 166.7055,25.9503 176.2615,26.3087 185.2774,26.71 193.7778,27.0837 201.7498,27.4487 209.2078,27.8158 216.216,28.0749 222.739,28.3486 228.7607,28.5229 234.2564,28.6989 239.2644,28.8001 243.8115,28.868 247.9468,28.9062 251.8949,28.9034 255.9438,28.8646 260.2725,28.8081 263.4797,28.7348 267.9146,28.6743 272.5496,28.6458 277.3041,28.6505 281.7878,28.665 285.7797,28.6658 289.2816,28.6318 292.5249,28.5399 295.8889,28.4059 299.4931,28.2397 303.3914,28.047 307.6869,27.8282 312.3641,27.5775 317.3949,27.2978 322.7504,26.9852 328.4378,26.6492 334.3785,26.2933 340.6015,25.9143 347.0948,25.5194 353.8371,25.1039 360.8235,24.6702 368.0583,24.2149 375.5176,23.7385 383.215,23.2456 391.1023,22.7344 399.1848,22.1951 407.4681,21.6315 415.944,21.062 424.6079,20.4232 433.4788,19.8835 442.5341,19.269 451.7762,18.643 461.1861,18.0304 470.7481,17.4331 480.4587,16.7921 490.3378,16.0798 500.3809,15.4837 510.5803,14.848 520.9295,14.1953 531.424,13.5549 542.0618,12.9447 552.8363,12.3588 563.7453,11.7797 574.7961,11.2092 585.959,10.6417 597.2338,10.1165 608.5945,9.5811 620.0622,9.0481 631.6339,8.4978 643.3112,7.8933 655.0917,7.3752 666.9734,6.7803 678.9606,6.1624 691.0609,5.5485 703.255,4.9174 715.5436,4.219 727.9317,3.5666 740.4144,2.9207 752.9902,2.3247 765.6556,1.6808 778.4087,1.0563 791.2472,0.4432 804.1646,-0.1531 817.1674,-0.7167 830.2534,-1.2742 843.4075,-1.8046 856.615,-2.3391 869.8115,-2.8749 882.9753,-3.4358 896.0837,-3.9735 909.1351,-4.4401 922.2869,-4.802 935.2632,-4.9564 948.0569,-4.8527 960.7421,-4.4781 973.2877,-3.9901 985.646,-3.0094 997.8215,-1.9074 1009.9056,-0.4609 1021.842,1.2799 1033.5969,2.8858 1045.3862,4.6773 1056.9042,6.4056 1068.174,8.1368 1079.2588,9.9441 1090.2229,11.309 1101.175,12.7993 1112.1378,14.3085 1123.135,15.3871 1134.1842,16.4324 1145.3219,17.3337 1156.5479,18.1806 1167.8243,18.9414 1179.1791,19.6306 1190.5309,20.2035 1201.928,20.7632 1213.406,21.3008 1224.9552,21.8291 1236.5818,22.3509 1248.2836,22.9184 1260.0582,23.3712 1271.9257,23.8935 1283.8673,24.4733 1295.8706,25.0069 1307.9409,25.5004 1320.0767,26.0518 1332.2728,26.6247 1344.5312,27.1855 1356.8527,27.8016 1369.2347,28.3246 1381.6772,28.8903 1394.1775,29.4666 1406.7385,30.0179 1419.3593,30.5639 1432.0256,31.0963 1444.749,31.6242 1457.5282,32.1684 1470.4117,32.7262 1483.3179,33.3584 1496.3259,33.9047 1509.3435,34.5245 1522.3176,35.1922 1535.3342,35.8709 1548.3942,36.6063 1561.4833,37.2462 1574.5945,37.791 1587.7653,38.3695 1601.0039,38.9409 1614.277,39.5724 1627.5957,40.0917 1640.976,40.6846 1654.3402,41.2871 1667.7241,41.9472 1681.137,42.4966 1694.6066,43.1704 1708.1191,43.7291 1721.6697,44.3457 1735.2446,45.0262 1748.8459,45.5909 1762.4757,46.1932 1776.1387,46.8188 1789.8292,47.555 1803.546,48.1077 1817.2979,48.6718 1831.0795,49.3086 1844.8905,50.0023 1858.7313,50.5734 1872.5961,51.2743 1886.4829,51.8488 1900.3938,52.4864 1914.3367,53.123 1928.304,53.763 1942.2949,54.4057 1956.3094,55.104 1970.3529,55.6711 1984.4199,56.3107 1998.5006,56.9475 2012.6003,57.5924 2026.7291,58.2343 2040.8777,58.8828 2055.0356,59.5398 2069.2124,60.2007 2083.4038,60.8524 2097.615,61.5797 2111.8467,62.2504 2126.0991,62.8462 2140.2017,63.5074 2153.8384,64.2109 2166.8818,64.7537 2179.3352,65.3184 2191.2397,65.8648 2202.6035,66.389 2213.4011,66.8824 2223.6355,67.3361 2233.3242,67.7409 2242.4731,68.1617 2251.0867,68.4718 2259.1914,68.7933 2266.8374,69.0939 2274.0327,69.3839 2280.9155,69.6558 2287.4131,69.9238 2293.5916,70.1758 2299.481,70.416 2305.0806,70.6539 2310.4277,70.8824 2315.4814,71.0893 2320.2632,71.2897 2324.8201,71.4334 2329.2449,71.5785 2334.0076,71.7169 2338.6372,71.8632 2343.6467,71.9819 2348.9316,72.1119 2354.7402,72.2517 2360.4648,72.3696 2366.2419,72.4966 2372.0623,72.6354 2377.915,72.7738 2383.7458,72.9217 2389.7666,73.078 2395.6199,73.2341 2401.5364,73.4019 2407.5386,73.5404 2413.6125,73.6964 2419.8152,73.7997 2426.2458,73.8931 2432.8862,73.9743 2439.7319,74.0407 2446.7412,74.1024 2453.9155,74.1749 2461.291,74.2426 2468.8135,74.3269 2476.2039,74.4134 2483.3357,74.4725 2490.1753,74.5008 2496.8398,74.4932 2503.3262,74.4559 2509.6978,74.3942 2516.2344,74.333 2522.8447,74.269 2529.6079,74.214 2536.5056,74.1455 2543.5298,74.0895 2550.6384,74.0341 2557.8076,74.0091 2565.0342,73.9787 2572.511,73.9376 2580.1448,73.8776 2588.0015,73.785 2596.0193,73.6637 2604.2988,73.5146 2612.7834,73.344 2621.4653,73.1354 2630.3064,72.9035 2639.3079,72.6246 2648.4622,72.3735 2657.7805,72.0762 2667.2676,71.7586 2676.9214,71.4162 2686.6846,71.0509 2696.5962,70.6649 2706.6548,70.2641 2716.8608,69.8592 2727.2126,69.3894 2737.7043,68.9751 2748.3323,68.495 2759.0898,67.9865 2769.9634,67.4505 2780.9473,66.8819 2791.8198,66.3101 2802.3191,65.6637 2812.332,65.0838 2821.7993,64.5238 2830.7051,64.012 2839.0989,63.4615 2846.9634,62.9167 2854.3269,62.3857 2861.2874,61.864 2867.895,61.34 2874.2266,60.8896 2880.4343,60.51 2886.1992,60.1067 2891.6853,59.7229 2896.9583,59.349 2902.0706,58.954 2907.0679,58.6333 2912.0203,58.276 2916.9797,57.8791 2921.9741,57.5519 2927.0479,57.1499 2932.2407,56.8141 2937.5603,56.4318 2942.9578,56.0089 2948.334,55.6261 2953.6462,55.2857 2958.9092,54.8968 2964.1934,54.4684 2969.5332,54.116 2975.0081,53.7154 2980.6187,53.2969 2986.3699,52.8727 2992.2676,52.4491 2998.3159,52.0404 3004.4446,51.6361 3010.7581,51.2382 3017.2136,50.8276 3023.8752,50.3909 3030.8752,49.9067 3038.2192,49.3808 3045.7766,48.8261 3053.5439,48.2464 3061.4922,47.6666 3069.6426,47.0805 3077.99,46.4972 3086.5347,45.9095 3095.1187,45.2678 3103.46,44.7701 3111.467,44.248 3119.1514,43.7237 3126.5134,43.2044 3133.5813,42.694 3140.4097,42.1104 3147.1372,41.6296 3153.927,41.0936 3161.282,40.5717 3168.3628,40.019 3175.78,39.5732 3182.7561,39.0924 3189.8103,38.5883 3196.7212,38.1895 3203.7471,37.7582 3210.9688,37.3245 3218.4399,36.8072 3226.0959,36.3317 3234.1255,35.7661 3242.3311,35.107 3250.6809,34.5481 3259.2273,33.8971 3267.9998,33.2391 3276.9587,32.5655 3286.1287,31.8965 3295.479,31.2286 3304.9917,30.5551 3314.6853,29.8081 3324.5579,29.1898 3334.5752,28.5043 3344.7529,27.802 3355.0881,27.0888 3365.5725,26.2842 3376.2104,25.5988 3386.9885,24.8452 3397.8833,24.0896 3408.8835,23.3164 3420.0083,22.4394 3431.2693,21.7391 3442.6606,20.9576 3454.1907,20.1798 3465.8335,19.3951 3477.5676,18.5998 3489.4204,17.8026 3501.376,16.9831 3513.4341,16.1353 3525.5879,15.2907 3537.8496,14.4323 3550.2114,13.5913 3562.6711,12.6376 3575.0344,11.8595 3586.9844,11.0428 3598.394,10.1681 3609.2822,9.4129 3619.7375,8.7459 3629.7976,8.0336 3639.5044,7.3285 3648.9031,6.6409 3658.0269,5.9756 3667.0042,5.3232 3675.9121,4.6817 3684.717,4.0538 3693.4526,3.4257 3702.2385,2.794 3711.0029,2.1678 3719.7842,1.5528 3728.5525,0.9434 3737.3743,0.3289 3746.2439,-0.28 3755.144,-0.8744 3764.1523,-1.4745 3773.2219,-2.0726 3782.3811,-2.7514 3791.7461,-3.3248 3801.323,-3.9867 3811.0247,-4.6717 3820.9072,-5.3775 3830.9099,-6.1783 3841.0232,-6.9085 3851.2542,-7.5693 3861.6606,-8.381 3872.2686,-9.033 3883.085,-9.737 3894.022,-10.4173 3905.1392,-11.1312 3916.2488,-11.703 3927.4932,-12.3238 3938.7378,-12.9094 3950.1399,-13.5205 3961.5757,-13.9858 3973.136,-14.4899 3984.822,-14.9513 3996.4722,-15.3655 4008.0913,-15.7372 4019.7317,-16.0628 4031.4783,-16.3981 4043.3145,-16.7345 4055.2944,-17.0556 4067.3474,-17.4204 4079.5198,-17.6972 4091.7983,-17.9786 4104.1255,-18.2377 4116.5444,-18.4524 4129.0923,-18.6019 4141.7007,-18.7231 4154.3477,-18.835 4167.0659,-18.9011 4179.8613,-18.9556 4192.7388,-18.9512 4205.6753,-18.8968 4218.6616,-18.8305 4231.6636,-18.7403 4244.418,-18.616 4256.6641,-18.477 4268.3076,-18.3454 4279.334,-18.2514 4289.7407,-18.1462 4299.5532,-18.0814 4308.8125,-18.0374 4317.5967,-17.9888 4326.0278,-17.9408 4333.9146,-17.8954 4341.4565,-17.8459 4348.5381,-17.7623 4355.3979,-17.6673 4361.9663,-17.5984 4368.4272,-17.5324 4374.9849,-17.4624 4381.3945,-17.3922 4387.8584,-17.3325 4394.561,-17.2789 4401.1792,-17.2325 4407.9023,-17.1699 4414.7725,-17.1218 4421.6963,-17.0782 4428.7334,-17.0275 4435.897,-16.9667 4443.1733,-16.9041 4450.5576,-16.8635 4458.0332,-16.8379 4465.4883,-16.8299 4472.811,-16.8278 4480.0396,-16.8489 4487.1401,-16.8908 4494.4028,-16.9445 4501.5669,-16.9849 4508.8193,-17.0206 4516.6992,-17.0684 4523.9614,-17.1122 4531.5591,-17.1641 4538.9409,-17.2054 4546.564,-17.253 4553.7881,-17.2979 4561.1421,-17.3602 4568.3726,-17.4111 4575.7529,-17.4699 4583.2329,-17.507 4590.8003,-17.5381 4598.5015,-17.558 4606.2822,-17.5884 4614.3164,-17.6972 4622.6221,-17.8386 4631.1177,-17.982 4639.7861,-18.1336 4648.6255,-18.2959 4657.6323,-18.4593 4666.8086,-18.6643 4676.1475,-18.8852 4685.6401,-19.1016 4695.2598,-19.3121 4705.0107,-19.5292 4714.9033,-19.755 4724.7817,-19.9826 4734.3325,-20.2115 4743.4224,-20.4356 4752.0352,-20.6806 4760.2012,-20.8891 4767.9697,-21.1332 4775.353,-21.382 4782.3765,-21.6357 4789.1123,-21.8885 4795.769,-22.1426 4802.2261,-22.3924 4808.5928,-22.6397 4815.1484,-22.8917 4821.4272,-23.1332 4827.7729,-23.3897 4834.4585,-23.5878 4840.8755,-23.8014 4847.2192,-24.0308 4853.5229,-24.2062 4859.7861,-24.3933 4866.1904,-24.6042 4872.8218,-24.7998 4879.5889,-25.0325 4886.7236,-25.2774 4894.1416,-25.5298 4901.7891,-25.8083 4909.6445,-26.0126 4917.6812,-26.269 4925.8906,-26.4827 4934.2954,-26.6885 4942.8804,-26.8821 4951.6606,-27.0279 4960.5869,-27.1846 4969.624,-27.362 4978.7817,-27.5142 4987.979,-27.6353 4997.3442,-27.7627 5006.9072,-27.8289 5016.5996,-27.85 5026.4175,-27.839 5036.2842,-27.8045 5046.1357,-27.7272 5055.8862,-27.6198 5065.5054,-27.4774 5075.041,-27.2829 5084.481,-27.0785 5093.8955,-26.8463 5103.04,-26.6052 5112.0522,-26.2832 5121.1997,-26.0587 5130.4043,-25.7828 5139.6426,-25.5176 5149.1206,-25.2166 5158.7153,-24.9717 5168.3984,-24.7045 5178.1782,-24.4805 5188.1104,-24.1814 5198.1963,-23.8334 5208.3745,-23.5613 5218.6494,-23.2408 5229.0459,-22.8651 5239.4849,-22.5643 5250.1147,-22.2357 5260.8574,-21.8962 5271.6953,-21.5578 5282.6191,-21.1957 5293.6245,-20.8091 5304.6968,-20.3987 5315.9131,-20.058 5327.2051,-19.6563 5338.5508,-19.3216 5349.9688,-18.9672 5361.5347,-18.6181 5373.1787,-18.2286 5384.9155,-17.9167 5396.6831,-17.5374 5408.4795,-17.2135 5420.3706,-16.9329 5432.3677,-16.5809 5444.5015,-16.2542 5456.6924,-15.9236 5468.9404,-15.6023 5481.249,-15.3106 5493.5991,-15.0041 5505.9927,-14.7084 5518.4478,-14.4613 5530.9731,-14.1704 5543.5859,-13.9339 5556.2637,-13.6849 5568.9985,-13.4253 5581.791,-13.1916 5594.6338,-12.9315 5607.5513,-12.6506 5620.5288,-12.3741 5633.5464,-12.1292 5646.6274,-11.8684 5659.748,-11.602 5672.9268,-11.3524 5686.2095,-11.0867 5699.6211,-10.7963 5713.0063,-10.4951 5726.5,-10.2161 5739.9878,-9.908 5753.4946,-9.5923 5767.0356,-9.278 5780.5566,-8.9169 5794.0063,-8.6121 5807.4297,-8.2642 5820.8086,-7.9023 5834.2251,-7.5297 5847.6816,-7.1383 5861.1035,-6.6893 5874.5498,-6.3209 5888.0479,-5.9285 5901.6265,-5.5421 5915.2759,-5.1572 5928.9976,-4.7308 5942.7212,-4.3661 5956.4746,-3.9679 5970.252,-3.6229 5984.0557,-3.2932 5997.854,-3.0229 6011.5913,-2.7497 6025.4028,-2.5084 6039.6328,-2.2021 6053.8047,-1.7918 6068.041,-1.476 6082.0171,-1.0342 6095.8535,-0.6867 6109.583,-0.2667 6123.144,0.1175 6136.6504,0.375 6150.5254,0.587 6164.2139,0.7298 6177.9834,0.8671 6191.7964,0.991 6205.6475,1.1352 6219.5122,1.2227 6233.416,1.3689 6247.3721,1.5472 6261.355,1.7666 6275.3794,2.0083 6289.4595,2.273 6303.5557,2.5805 6317.7246,2.8973 6331.9487,3.2221 6346.2402,3.621 6360.4878,4.0902 6374.8076,4.5497 6389.1235,5.0048 6403.4136,5.5246 6417.668,6.068 6431.9268,6.6308 6446.1494,7.133 6460.0063,7.653 6473.2388,8.1779 6485.8086,8.6609 6497.7217,9.1667 6509.0137,9.594 6519.6719,9.9557 6529.7451,10.3312 6539.2515,10.687 6548.2188,11.0295 6556.6143,11.2969 6564.4541,11.5888 6571.7275,11.8019 6578.4385,12.0237 6584.5996,12.2221 6590.1978,12.3615 6595.2207,12.5047 6599.7231,12.6271 6603.8203,12.7311 6607.4854,12.8378 6610.7061,12.9824 6613.9287,13.0936 6616.5146,13.2034 6619.5103,13.3041 6621.8516,13.3946 6624.9795,13.4811 6627.7295,13.5728 6630.9204,13.6815 6634.5664,13.7791 6638.2607,13.9107 6642.1157,14.0126 6645.7432,14.1111 6649.6899,14.1713 6654.0781,14.2458 6658.7466,14.4002 6663.5454,14.5745 6668.3647,14.7863 6672.8955,14.9734 6676.8994,15.1454 6680.2017,15.3347 6683.8472,15.4995 6687.3032,15.6738 6690.9136,15.852 6694.4937,15.9966 6698.5386,16.157 6702.9473,16.3121 6707.6958,16.4558 6712.7886,16.6023 6718.21,16.7514 6723.9155,16.9065 6729.874,17.0633 6736.0835,17.2251 6742.4233,17.3863 6748.9878,17.5473 6755.7817,17.7256 6762.8071,17.8761 6770.042,18.045 6777.4902,18.2256 6785.1299,18.3833 6792.9644,18.5368 6800.9756,18.7035 6809.1235,18.8636 6817.4463,19.0283 6825.937,19.1923 6834.5967,19.3613 6843.4189,19.5139 6852.4014,19.6745 6861.5415,19.8429 6870.8311,20.01 6880.2651,20.1929 6889.8389,20.3479 6899.5493,20.5246 6909.3511,20.7198 6919.2808,20.9073 6929.3389,21.09 6939.5063,21.3064 6949.8242,21.4867 6960.2241,21.6875 6970.752,21.9016"/>
</svg>
