<?xml version="1.0" encoding="UTF-8"?>
<svg version="1.1" xmlns="http://www.w3.org/2000/svg" width="3840" height="2160">
<path d="M0 0 C19.8 0 39.6 0 60 0 C59.67 1.32 59.34 2.64 59 4 C59.99257812 4.02578125 60.98515625 4.0515625 62.0078125 4.078125 C84.81486682 4.92607596 105.45845219 14.62233866 123 29 C123.64710937 29.51433594 124.29421875 30.02867188 124.9609375 30.55859375 C128.20880659 33.21654376 130.21613716 35.16539721 132 39 C132.98718534 40.67428877 133.98894221 42.3400181 135 44 C148.35016232 66.04391722 148.9521311 86.64269138 146 111.75 C145.89317902 112.66263611 145.78635803 113.57527222 145.67630005 114.51556396 C143.79140654 130.17465283 140.95953041 144.87865959 132.89453125 158.6796875 C131.13425264 161.76471187 129.91689108 164.65607331 128.75 168 C124.70932808 178.77099354 119.26829672 188.56320447 112.4765625 197.8359375 C110.47908497 200.76345748 109.22553512 203.68384615 108 207 C107.34 207 106.68 207 106 207 C105.855625 207.61875 105.71125 208.2375 105.5625 208.875 C105 211 105 211 104 213 C103.34 213 102.68 213 102 213 C101.74992187 213.721875 101.49984375 214.44375 101.2421875 215.1875 C99.88861341 218.25219604 98.25839963 220.42381931 96.125 223 C95.44695313 223.825 94.76890625 224.65 94.0703125 225.5 C93.04550781 226.7375 93.04550781 226.7375 92 228 C91.36320312 228.83660156 90.72640625 229.67320312 90.0703125 230.53515625 C87.03988582 234.14307934 83.4656249 236.86990291 79.78515625 239.7890625 C78.1587205 241.08017419 76.55116979 242.39721036 74.99609375 243.7734375 C69.9495723 248.06788556 64.66256752 249.49933596 58.26953125 251.04296875 C55.08479306 251.97518005 52.78729848 253.24246721 50 255 C49.34 255 48.68 255 48 255 C47.78708117 264.71315439 48.29007569 273.87819893 49.75 283.5 C50.12209759 286.12444348 50.49054995 288.74904162 50.8515625 291.375 C50.94617767 292.06154663 51.04079285 292.74809326 51.13827515 293.45544434 C52.3132601 302.11699641 53.23294645 310.80541748 54.125 319.5 C54.21069244 320.3316568 54.29638489 321.1633136 54.38467407 322.02017212 C55.47910621 332.73656799 56.32950978 343.43181166 56.9375 354.1875 C57.58838793 365.48392088 58.9726294 376.56764448 60.63781738 387.74642944 C63.63741287 408.04058509 65.33507601 428.4666893 67.1721344 448.89216614 C68.95227056 468.92736388 68.95227056 468.92736388 71.5 488.875 C73.49014518 503.00981114 74.92644118 517.10488815 75.23779297 531.38134766 C75.59765533 547.00595969 77.3748448 562.75261635 81.51345825 577.87632751 C82.03317797 580.14481624 82.21810621 582.26710551 82.34130859 584.59057617 C82.39161224 585.49639938 82.44191589 586.4022226 82.4937439 587.335495 C82.57031723 588.7994445 82.57031723 588.7994445 82.6484375 590.29296875 C82.76786625 592.38999466 82.88767069 594.4869992 83.0078125 596.58398438 C83.1918145 599.86559684 83.37286796 603.14728504 83.546875 606.42944336 C84.13111283 617.33825913 84.76238125 628.07016716 86.86383057 638.80296326 C88.39275565 646.69289594 89.13191803 654.64999755 89.88037109 662.64599609 C90.12359038 665.23499505 90.37937734 667.82252706 90.63671875 670.41015625 C91.48318062 679.12696188 92.10864135 687.80675436 92.4375 696.55859375 C92.80978415 705.91388244 93.99271109 715.01005722 95.46807861 724.24807739 C97.88699911 739.49213831 99.62476267 754.66168141 100.625 770.0625 C101.37726693 781.58919283 102.38124343 792.84690362 104.44311523 804.22851562 C106.99651469 818.84730812 108.05375911 833.7096749 109.37896729 848.48074341 C109.70097898 852.02658493 110.06067034 855.55650673 110.52734375 859.08642578 C110.98773968 862.89848509 111.231957 866.65286119 111.39453125 870.48828125 C111.46060386 871.9164646 111.52761824 873.34460462 111.59545898 874.77270508 C111.64777176 875.88205917 111.64777176 875.88205917 111.70114136 877.01382446 C112.31356122 889.65545273 113.39057671 901.99593288 115.46582031 914.49438477 C117.04734485 924.38184733 117.83883528 934.27117252 118.5625 944.25 C119.52375883 957.46041491 120.78644454 970.53921303 122.67236328 983.65527344 C123.26824626 987.91969974 123.74641052 992.19732538 124.23071289 996.47558594 C124.68119186 1000.41023098 125.17665112 1004.33465422 125.71875 1008.2578125 C127.2771357 1019.72863383 128.31714753 1031.12698214 128.9375 1042.6875 C129.48008095 1052.79611315 130.39689349 1062.73498234 131.9375 1072.75 C134.1790918 1087.3676311 135.09866385 1102.02126262 135.96069336 1116.77441406 C136.60401647 1127.58738657 137.59667888 1138.02670183 140.05859375 1148.6015625 C141.18269383 1153.4913429 141.64748197 1158.38136714 142.0625 1163.375 C142.14628906 1164.32745605 142.23007813 1165.27991211 142.31640625 1166.26123047 C142.91183972 1173.26804039 143.3431893 1180.27743316 143.57055664 1187.30615234 C143.73094303 1191.30987193 144.16207487 1195.14194408 144.875 1199.0859375 C146.63698616 1209.14738733 147.47094888 1219.3433744 148.5 1229.5 C148.71450421 1231.58857657 148.92934586 1233.67711851 149.14453125 1235.765625 C149.66969889 1240.87241111 150.18816068 1245.97985086 150.70431519 1251.08755493 C150.98913146 1253.89294673 151.27829612 1256.69785734 151.56860352 1259.50268555 C152.53851185 1268.93298725 153.34923769 1278.34939567 153.9375 1287.8125 C154.6490476 1298.49154633 155.81011775 1309.03118512 157.28125 1319.62890625 C157.98257851 1324.72175667 158.51809171 1329.81977691 159 1334.9375 C159.69522406 1342.2911147 160.55754222 1349.61155496 161.5 1356.9375 C163.4045909 1371.87149496 164.90585166 1386.75667331 165.53344727 1401.79980469 C165.97242182 1410.66131222 167.34481283 1419.39295503 168.74047852 1428.14672852 C169 1430 169 1430 169 1432 C172.0123073 1431.34798571 172.0123073 1431.34798571 172.98999023 1429.43017578 C175.95089001 1422.34009656 178.52496006 1415.12620108 181.0625 1407.875 C185.90519856 1394.07366889 185.90519856 1394.07366889 187.71875 1389.94140625 C188.86294471 1387.31464217 189.71562537 1384.82893878 190.4375 1382.0625 C190.685 1381.12277344 190.9325 1380.18304687 191.1875 1379.21484375 C191.94791169 1376.2060994 192.69147029 1373.19352428 193.43139648 1370.1796875 C196.2646624 1358.67714723 199.72230508 1347.47116444 203.80615234 1336.34985352 C206.86104961 1327.91052078 208.96187641 1319.19889544 211.1940918 1310.5144043 C213.31016987 1302.2898447 215.45627993 1294.10250342 218.04296875 1286.01171875 C221.0586543 1276.52154096 223.4776138 1266.99275535 225.66210938 1257.27734375 C227.02083438 1251.4337507 228.7030769 1246.06108089 231.02954102 1240.53759766 C232.84028115 1235.80279691 233.87768333 1230.87195482 235 1225.9375 C235.2563623 1224.84058838 235.51272461 1223.74367676 235.77685547 1222.61352539 C236.52451576 1219.41050739 237.26275168 1216.20542746 238 1213 C238.70453075 1209.97826877 239.41418252 1206.95775775 240.125 1203.9375 C240.36089844 1202.93227295 240.36089844 1202.93227295 240.6015625 1201.90673828 C242.85598139 1192.32310965 245.16310123 1182.76105485 247.9375 1173.3125 C249.91044964 1166.53483772 251.53272352 1159.69273379 253.14208984 1152.82080078 C254.65768978 1146.37047268 256.30847925 1139.97436071 258.0390625 1133.578125 C260.7846261 1123.35480688 263.23129776 1113.07426842 265.5625 1102.75 C266.19383115 1099.96342679 266.8255852 1097.17695071 267.45800781 1094.390625 C267.89835436 1092.44833968 268.33626215 1090.50550156 268.7734375 1088.5625 C270.18837406 1082.56982752 272.0609469 1076.81585608 274.0625 1071 C276.08733129 1065.09798726 277.60506619 1059.48413516 278.44921875 1053.28515625 C279.17220674 1048.97286621 280.27459041 1044.79181926 281.375 1040.5625 C283.17947029 1033.59761267 284.67788979 1026.64541056 285.9375 1019.5625 C287.19451092 1012.59349302 288.78752998 1005.84772952 290.8125 999.0625 C293.40634315 990.36043999 295.62808427 981.59194551 297.6875 972.75 C297.83982086 972.09649567 297.99214172 971.44299133 298.14907837 970.76968384 C299.80536747 963.62437876 301.357571 956.49547742 302.5 949.25 C303.85327591 940.96327346 306.07389782 932.96508782 308.3059082 924.87646484 C310.69563585 916.20983702 312.84235747 907.50920228 314.87890625 898.75390625 C315.57859079 895.75086743 316.30929599 892.76037831 317.08984375 889.77734375 C319.08720332 882.14387975 320.63135923 874.58831831 321.85595703 866.7980957 C323.56165875 856.15869517 326.05557136 845.6879489 329.3046875 835.41308594 C329.97802871 833.07625148 330.46029479 830.77769077 330.8984375 828.38671875 C331.96618799 822.9133632 333.46198066 817.60653379 335 812.25 C337.06914932 804.88474036 338.61724302 797.8186982 339.5234375 790.22265625 C340.01929235 786.86953944 340.82103221 783.75893983 341.75 780.5 C343.71842525 773.51573559 345.12533507 766.47888781 346.49453735 759.35437012 C348.31769717 749.86931793 350.24253544 740.49948375 353.0625 731.25 C356.38111246 720.34291313 358.38215523 709.25517189 360.4296875 698.05175781 C361.68343381 691.34292696 363.13519413 684.67488593 364.57226562 678.00341797 C364.95877389 676.19309444 365.33176168 674.37989714 365.703125 672.56640625 C366.98352857 666.36538199 368.43162921 660.2327833 369.9934082 654.09741211 C375.14046576 633.87623568 380.1699178 613.50128876 382.94482422 592.80175781 C383.80975108 586.61850624 385.27496737 580.72366005 386.94921875 574.71484375 C389.88194397 564.06625813 392.02301673 553.23335434 394.2800293 542.42578125 C395.01672562 538.92041577 395.77086692 535.41911416 396.52734375 531.91796875 C397.68706809 526.51931674 398.7805554 521.11103189 399.83862305 515.69165039 C401.68171192 506.25380311 403.64255704 496.8938379 406.10546875 487.59765625 C407.01380639 483.94447298 407.75722074 480.28483533 408.47973633 476.59155273 C408.9771056 474.11404226 409.51698431 471.65127004 410.078125 469.1875 C412.98850602 456.35513877 415.3903732 443.46600642 417.61474609 430.5012207 C418.9532307 422.73605037 420.37315124 414.99654905 421.9375 407.2734375 C422.09928741 406.46905746 422.26107483 405.66467743 422.42776489 404.83592224 C423.20846308 400.95922789 424.0014989 397.08581269 424.81591797 393.21606445 C428.17877255 379.03014976 428.17877255 379.03014976 425.64404297 365.24487305 C423.74397475 362.65040806 421.76829263 361.57119312 419 360 C419 359.34 419 358.68 419 358 C418.4225 357.773125 417.845 357.54625 417.25 357.3125 C414.40408619 355.65238361 413.00158079 353.60812043 411 351 C409.34850223 349.31529112 407.68236892 347.65341341 406 346 C403.37181598 343.3990325 400.74817691 340.79351594 398.125 338.1875 C397.44308594 337.51396484 396.76117187 336.84042969 396.05859375 336.14648438 C383.99134245 324.13669618 383.99134245 324.13669618 381.99267578 319.82885742 C381.07759485 317.6464623 381.07759485 317.6464623 378 317 C366.16606286 303.25059188 358.82474299 287.86232688 354.234375 270.5625 C353.18318343 266.60817436 351.97453644 262.71681907 350.75 258.8125 C347.14764681 245.97450436 347.87574269 234.62903391 350.6875 221.75 C350.97157305 220.38786574 351.25402502 219.02539246 351.53491211 217.66259766 C352.08909109 214.98734575 352.65371598 212.31465908 353.22753906 209.64355469 C353.89193513 206.50972193 354.51858607 203.37346342 355.1171875 200.2265625 C358.90998596 180.50285943 366.63297585 164.0807452 380 149 C380.69609375 148.19755859 380.69609375 148.19755859 381.40625 147.37890625 C382.86366573 145.7005525 384.33505504 144.03573422 385.8125 142.375 C386.26858643 141.85341309 386.72467285 141.33182617 387.19458008 140.79443359 C389.60934907 138.1362744 391.33236177 136.35906948 395 136 C395 135.34 395 134.68 395 134 C397.76312766 132.60760644 400.53431494 131.23681263 403.3125 129.875 C404.43301758 129.30652344 404.43301758 129.30652344 405.57617188 128.7265625 C421.22055427 121.12605283 435.93533692 117.96077691 453.25 118.3125 C454.14319946 118.3220874 455.03639893 118.3316748 455.95666504 118.34155273 C470.08985225 118.50425687 483.49562341 119.53770696 497 124 C497.90041016 124.29471191 498.80082031 124.58942383 499.72851562 124.89306641 C514.74924726 129.95348458 528.77477521 136.42184381 541.4296875 146.0546875 C544.04075112 148.03084203 546.72186728 149.8586045 549.4375 151.6875 C552.97075978 154.14130719 555.43512799 156.51910227 558 160 C558.886875 160.70125 559.77375 161.4025 560.6875 162.125 C565.54042653 166.05355957 569.2034368 171.08464281 573 176 C573.41330566 176.53302734 573.82661133 177.06605469 574.25244141 177.61523438 C581.08630082 186.51636918 586.34812699 195.79552366 591 206 C591.3815625 206.83402344 591.763125 207.66804687 592.15625 208.52734375 C595.40657599 218.05260463 594.16155165 229.07502692 594 239 C593.98324219 240.31742188 593.96648437 241.63484375 593.94921875 242.9921875 C593.14434164 263.27509071 580.71324439 284.38411168 567 299 C566.01 299.33 565.02 299.66 564 300 C562.91803923 301.8454793 562.91803923 301.8454793 562 304 C557.64786961 311.33386679 551.41542924 316.01109445 544.67114258 320.98339844 C540.51860924 324.04892546 536.58339175 327.19408603 532.77734375 330.67944336 C525.69023529 337.14768641 518.13748001 341.41540897 509.57421875 345.6796875 C505.49474307 347.71222078 501.60534393 349.94751899 497.75 352.375 C496.72390625 353.01824219 495.6978125 353.66148437 494.640625 354.32421875 C493.12911983 355.28344318 491.61827075 356.24370731 490.109375 357.20703125 C485.2898228 360.14321475 480.06099036 361.99113937 474.79296875 363.94921875 C472.09603369 364.90880892 472.09603369 364.90880892 470 366 C467.96391376 372.36838158 467.52739123 378.60645809 467.18359375 385.25390625 C467.0915139 386.84343361 467.0915139 386.84343361 466.99757385 388.46507263 C466.80368967 391.83051957 466.62001724 395.19641911 466.4375 398.5625 C466.2497817 401.93203151 466.05985122 405.30141372 465.86671448 408.67063904 C465.74742068 410.76066122 465.63147842 412.85087824 465.51939392 414.94129944 C465.30087608 418.83830025 465.05215819 422.65101782 464.47485352 426.51367188 C463.82147435 431.31071789 463.785154 436.066059 463.71875 440.90234375 C463.70034058 441.93887589 463.68193115 442.97540802 463.66296387 444.04335022 C463.60450743 447.34134535 463.55157438 450.63939052 463.5 453.9375 C463.4319838 458.28004828 463.35830241 462.62244745 463.28125 466.96484375 C463.26767456 467.95153549 463.25409912 468.93822723 463.2401123 469.95481873 C463.16711667 474.04963186 463.05170147 478.07032119 462.49780273 482.13085938 C461.94520923 486.42585786 461.81114593 490.61734758 461.75390625 494.94140625 C461.72234683 496.66415017 461.69043252 498.38688762 461.65820312 500.10961914 C461.64281494 500.99972687 461.62742676 501.88983459 461.61157227 502.80691528 C461.38339338 515.61998288 461.09675372 528.34257012 459.72851562 541.09228516 C459.12362604 547.20727084 458.87645381 553.28965649 458.75390625 559.4296875 C458.73645355 560.28692917 458.71900085 561.14417084 458.70101929 562.02738953 C458.61894207 566.29829899 458.55583229 570.56856966 458.51757812 574.84008789 C458.39624012 583.91627344 457.74126178 592.72789821 456.5 601.72265625 C454.97088084 612.92844452 454.5387881 623.96267586 454.46096802 635.26278687 C454.41949095 640.98419442 454.32815054 646.70489799 454.2421875 652.42578125 C454.22525345 653.61186478 454.2083194 654.7979483 454.19087219 656.01997375 C454.00292165 668.38522577 453.62575085 680.742344 453.18899536 693.10107422 C453.10633849 695.44458098 453.02590016 697.78816732 452.94796753 700.13183594 C452.50237918 713.46823841 451.78007775 726.74513733 450.70022583 740.04570007 C450.06836671 747.86624344 449.63978414 755.65532246 449.4375 763.5 C449.20661082 771.78253519 448.71403248 779.93474544 447.74533081 788.16325378 C446.93498434 795.48206984 446.71958785 802.78685703 446.53515625 810.14453125 C446.49757658 811.53398585 446.45963342 812.92343065 446.4213562 814.31286621 C446.34035641 817.27303414 446.2613922 820.2332462 446.18405151 823.19351196 C445.99947575 830.24352512 445.8021722 837.29318823 445.60598183 844.34288597 C445.53876578 846.7606731 445.47190918 849.17846999 445.40507507 851.5962677 C444.9916215 866.51049773 444.54421367 881.42353557 444.06466675 896.33578491 C443.98037176 898.97182892 443.89744965 901.60791721 443.81594849 904.24404907 C443.702426 907.90891527 443.58429395 911.57360408 443.46484375 915.23828125 C443.43260712 916.30397339 443.40037048 917.36966553 443.36715698 918.46765137 C443.19134901 923.68759291 442.85146741 928.82285538 442.22190857 934.00737 C441.90736287 936.83183596 441.81962087 939.64426432 441.75390625 942.484375 C441.72240479 943.65476318 441.69090332 944.82515137 441.65844727 946.03100586 C441.62678467 947.25827393 441.59512207 948.48554199 441.5625 949.75 C441.31017549 958.18162531 440.9771795 966.55060602 440.0625 974.9375 C437.37896759 1000.16321004 436.8082696 1025.65589416 436.34155273 1051.00317383 C436.31720154 1052.21969887 436.31720154 1052.21969887 436.2923584 1053.46080017 C436.26272221 1054.96224642 436.23652413 1056.46376686 436.21472168 1057.96534729 C436.13471652 1061.96700021 435.76196091 1065.83941182 435.22737122 1069.80230713 C434.75888265 1074.33055834 434.82059237 1078.88528303 434.7890625 1083.43359375 C434.76320975 1085.6973558 434.73656775 1087.96110893 434.70922852 1090.22485352 C434.69594513 1091.40201935 434.68266174 1092.57918518 434.66897583 1093.79202271 C434.45479974 1111.54664102 434.06194232 1129.13337405 432.16113281 1146.79101562 C430.69645135 1160.76457813 430.19000234 1174.76823216 429.64672852 1188.80297852 C429.60992477 1189.7361087 429.57312103 1190.66923889 429.53520203 1191.63064575 C429.46746909 1193.36976122 429.40268732 1195.10899556 429.34162903 1196.84835815 C429.18636706 1200.90903603 428.92650566 1204.92452696 428.49072266 1208.96533203 C427.95411315 1214.0517051 427.79793443 1219.10330673 427.71875 1224.21484375 C427.70034058 1225.15123184 427.68193115 1226.08761993 427.66296387 1227.05238342 C427.60484847 1230.0140321 427.55177828 1232.97573419 427.5 1235.9375 C427.43160811 1239.84254927 427.357942 1243.74744962 427.28125 1247.65234375 C427.26767456 1248.52664536 427.25409912 1249.40094696 427.2401123 1250.30174255 C427.15360945 1254.68860999 426.93159661 1259.01559416 426.49780273 1263.38256836 C425.92029587 1269.3332307 425.81231617 1275.25116864 425.75390625 1281.2265625 C425.72092214 1283.58333641 425.68771139 1285.94010715 425.65429688 1288.296875 C425.60740028 1291.93780009 425.56300608 1295.57871692 425.52319336 1299.21972656 C425.35393346 1314.03756952 424.74991672 1328.69540619 423.45678711 1343.45800781 C422.85025505 1350.49046684 422.6392247 1357.50554794 422.5 1364.5625 C422.26266401 1373.78551336 421.85671192 1382.93841218 421 1392.125 C420.21094929 1400.58762202 419.78739209 1409.00401138 419.5625 1417.5 C419.06166857 1436.04357194 417.49369758 1454.51496554 416 1473 C420.06419003 1471.20406247 420.93396429 1469.67077131 422.5625 1465.5 C422.99046875 1464.41203125 423.4184375 1463.3240625 423.859375 1462.203125 C424.80066347 1459.55978066 425.59389438 1456.9585904 426.3125 1454.25 C428.69561036 1445.80698043 433.34029828 1438.0871478 437.38671875 1430.34765625 C440.40744114 1424.47681705 442.8735771 1418.45040298 445.33520508 1412.33081055 C447.4389355 1407.17503598 449.83036596 1402.30751901 452.640625 1397.4921875 C453.99364826 1395.01164486 455.09301718 1392.47870894 456.18310547 1389.87402344 C457.62197266 1386.57314341 459.29640806 1383.39124078 460.9375 1380.1875 C463.66148959 1374.82522775 466.15709242 1369.48278257 468.2109375 1363.8203125 C469 1362 469 1362 471 1360 C471.68124706 1358.00491933 472.34427209 1356.00361307 473 1354 C474.28236442 1350.97657926 475.63306568 1347.98602156 477 1345 C477.66 1345 478.32 1345 479 1345 C479.226875 1343.72125 479.45375 1342.4425 479.6875 1341.125 C480.69997092 1336.52938731 482.49849769 1332.77917054 484.69140625 1328.640625 C486.86822917 1324.24799129 488.42264292 1319.63513867 490 1315 C490.66 1315 491.32 1315 492 1315 C492.11794922 1314.0409375 492.11794922 1314.0409375 492.23828125 1313.0625 C493.31068021 1308.75090623 495.24293774 1304.98104642 497.1875 1301 C498.00561772 1299.29837385 498.82332455 1297.59655009 499.640625 1295.89453125 C500.04216797 1295.06260254 500.44371094 1294.23067383 500.85742188 1293.37353516 C502.40675868 1290.15501968 503.92877649 1286.9252804 505.4375 1283.6875 C505.88996094 1282.72199219 506.34242187 1281.75648437 506.80859375 1280.76171875 C508.04966169 1277.88488257 509.05204175 1274.98496621 510 1272 C510.66 1272 511.32 1272 512 1272 C512.13148438 1270.99839844 512.13148438 1270.99839844 512.265625 1269.9765625 C513.21067441 1266.14609628 514.93828071 1262.85062739 516.75 1259.375 C517.48060616 1257.94344208 518.20977046 1256.51114739 518.9375 1255.078125 C519.46923828 1254.03301758 519.46923828 1254.03301758 520.01171875 1252.96679688 C522.876782 1247.26498128 525.45844581 1241.45394884 527.75 1235.5 C530.74298634 1227.86483076 534.45064478 1220.53194643 537.98388672 1213.13671875 C540.75834062 1207.30249949 543.38414734 1201.40174127 545.984375 1195.48828125 C549.57568334 1187.36357841 553.23689335 1179.359068 557.5 1171.5625 C561.43561723 1164.36368255 564.67022575 1156.96118598 567.82714844 1149.39282227 C570.13451303 1143.89781211 572.68909721 1138.71217639 575.6640625 1133.54296875 C577.74124555 1129.58903259 579.2218946 1125.43747855 580.7265625 1121.23828125 C581.92946253 1118.17937289 583.33815274 1115.29783076 584.83105469 1112.37231445 C587.3271762 1107.30656408 589.53780874 1102.10536348 591.8125 1096.9375 C596.10289949 1087.2380863 600.4615251 1077.58603887 605 1068 C605.64007999 1066.62925952 606.27936457 1065.25814741 606.91796875 1063.88671875 C610.49936978 1056.20954799 614.1784146 1048.59461844 617.99316406 1041.03076172 C621.50734885 1034.03860307 624.83818108 1026.96329775 628.13330078 1019.86572266 C628.88576472 1018.24591155 629.64357791 1016.62858745 630.40234375 1015.01171875 C632.44349532 1010.60987431 634.32838919 1006.18686928 636.07446289 1001.65893555 C638.69773539 994.8738321 641.73317069 988.52217512 645.24047852 982.14916992 C647.60296241 977.83429584 649.3754112 973.63007807 651 969 C651.67068325 967.63742612 652.35886847 966.28335522 653.0625 964.9375 C654.9115813 961.35977565 656.02428692 957.90285231 657 954 C657.66 954 658.32 954 659 954 C659.11915771 953.44473633 659.23831543 952.88947266 659.36108398 952.31738281 C660.08172009 949.70359683 661.09251882 947.38689304 662.22265625 944.921875 C662.67503662 943.93316406 663.12741699 942.94445312 663.59350586 941.92578125 C664.07827393 940.87777344 664.56304199 939.82976563 665.0625 938.75 C665.55693604 937.67621094 666.05137207 936.60242188 666.56079102 935.49609375 C670.84879001 926.23074253 675.34219368 917.08803519 680.02416992 908.01538086 C682.10483178 903.93708938 683.880966 899.87663057 685.4375 895.5625 C687.1825975 890.93189174 689.14234361 886.74362817 691.625 882.4765625 C696.62003621 873.47982114 700.50574632 863.88683902 704.36572266 854.36425781 C711.23698997 837.51632751 711.23698997 837.51632751 715.58203125 830.4140625 C717.08157573 827.86111901 717.98233872 825.42527202 718.9375 822.625 C723.42553733 810.62018849 729.78110126 799.12043339 736.28515625 788.09375 C737.75949468 785.4338957 738.66222658 783.29840403 739.375 780.375 C741.00702942 774.57125903 743.49547672 769.29517588 746.10253906 763.87158203 C747.7757866 760.38215993 749.41586914 756.87703857 751.0625 753.375 C751.40756592 752.64265137 751.75263184 751.91030273 752.1081543 751.15576172 C755.40108337 744.16350524 758.62116935 737.1424535 761.73046875 730.06640625 C768.41352319 714.88306519 775.4854159 699.89111949 782.96777344 685.08496094 C783.90912465 683.2090031 784.83112278 681.32455043 785.75 679.4375 C786.06582031 678.81681641 786.38164062 678.19613281 786.70703125 677.55664062 C788.80962312 673.19216962 789.45579719 669.81760324 789 665 C787.22917604 661.19600779 785.69845924 658.69845924 782.75 655.75 C779.44220559 652.44220559 776.86605776 648.81776092 774.16015625 645.01171875 C772.51547054 642.71867592 770.83628036 640.47735098 769.12109375 638.23828125 C765.22867495 633.06695107 761.89331303 627.57170318 758.5 622.06640625 C756.11313873 618.23126717 753.6928113 614.53827887 750.90625 610.98046875 C747.76300461 606.86212152 745.58656506 602.54028067 743.5 597.8125 C743.11835693 596.9560791 742.73671387 596.0996582 742.34350586 595.21728516 C738.269916 585.77026074 735.40047242 575.99224313 733 566 C732.80132324 565.20239258 732.60264648 564.40478516 732.39794922 563.58300781 C729.91858152 552.69808472 730.96680779 542.22819547 732.75 531.3125 C732.92901855 530.18489258 733.10803711 529.05728516 733.29248047 527.89550781 C735.11387078 516.74446322 737.29247739 505.69603868 741 495 C741.66 495 742.32 495 743 495 C743.10570313 494.12730469 743.21140625 493.25460937 743.3203125 492.35546875 C744.02897 488.85698142 745.13572789 486.41463458 746.875 483.3125 C747.38804688 482.38050781 747.90109375 481.44851563 748.4296875 480.48828125 C749.81832122 478.28788404 751.17214158 476.80809779 753 475 C753.7908272 473.62688565 754.538355 472.22827261 755.25 470.8125 C759.61626961 462.77074373 765.93108188 456.70276196 773 451 C773.78890625 450.36191406 774.5778125 449.72382813 775.390625 449.06640625 C783.03794659 443.19353802 791.30464377 439.05878011 800 435 C800.928125 434.56429688 801.85625 434.12859375 802.8125 433.6796875 C818.77471314 426.39962407 835.99497065 425.70730227 853.3125 425.75 C854.62855225 425.75306152 855.94460449 425.75612305 857.30053711 425.75927734 C868.44773296 425.86920039 877.19852004 426.68738174 887.5625 430.875 C889.35544059 431.5808007 891.14840893 432.28653091 892.94140625 432.9921875 C893.80032471 433.33548096 894.65924316 433.67877441 895.54418945 434.0324707 C897.75270568 434.90257209 899.97182034 435.72585384 902.203125 436.53515625 C916.18761863 441.75575168 928.62188121 450.34004731 939 461 C939.8353125 461.81855469 940.670625 462.63710938 941.53125 463.48046875 C946.93841413 468.9988562 951.92347356 475.01436299 955.9375 481.625 C957.60470912 485.02318745 957.60470912 485.02318745 960 486 C970.59091279 504.68587798 972.18862634 521.52946291 972.13037109 542.63354492 C972.12501236 544.93219619 972.13035606 547.23065147 972.13671875 549.52929688 C972.15297907 576.01983643 972.15297907 576.01983643 969 586 C968.34 586 967.68 586 967 586 C966.896875 586.70125 966.79375 587.4025 966.6875 588.125 C965.59133263 592.70897262 963.79113108 597.03302785 960 600 C959.34 600 958.68 600 958 600 C957.92910156 600.54398438 957.85820312 601.08796875 957.78515625 601.6484375 C956.68508446 604.94317988 954.69551714 607.00301453 952.4375 609.625 C949.17821412 612.88586718 949.17821412 612.88586718 948 617 C946.69026002 618.3565164 945.35197858 619.68557638 944 621 C943.319375 621.9075 942.63875 622.815 941.9375 623.75 C941.298125 624.4925 940.65875 625.235 940 626 C939.01 626 938.02 626 937 626 C936.67 626.99 936.34 627.98 936 629 C930.77777778 632 930.77777778 632 928 632 C928 632.66 928 633.32 928 634 C926.05859375 635.33203125 926.05859375 635.33203125 923.4375 636.8125 C920.25064224 638.65799672 917.16226281 640.5156599 914.1875 642.6875 C904.08843662 650.01427147 892.33578296 653.29374321 880.5703125 657.08789062 C876.47220117 658.4288549 872.56456096 659.71604526 868.70703125 661.65625 C865.4667906 663.26468114 862.49803207 663.82440303 858.9375 664.4375 C852.7729361 665.55250587 846.97015372 667.21113955 841.01171875 669.16796875 C838.09661276 669.97330931 835.5108833 670.28184134 832.5 670.4375 C829.10991969 670.70716548 828.00450862 670.99718211 825 672.875 C822.15142292 677.32590169 821.60885395 681.81111041 821 687 C820.34 687 819.68 687 819 687 C819.061875 688.175625 819.12375 689.35125 819.1875 690.5625 C819.20293024 694.9524045 817.78988371 697.99066049 816 702 C815.49034484 704.67568957 815.23851736 707.28090206 815 710 C814.34 710 813.68 710 813 710 C812.90912109 710.95712891 812.90912109 710.95712891 812.81640625 711.93359375 C812.69072266 713.17302734 812.69072266 713.17302734 812.5625 714.4375 C812.48128906 715.26121094 812.40007812 716.08492187 812.31640625 716.93359375 C812 719 812 719 811 720 C810.65111516 721.36622129 810.34578655 722.74368542 810.0625 724.125 C809.46293405 726.94518058 808.80660357 729.66480022 808 732.4375 C807.22665265 735.19254993 806.63977209 737.82084679 806.125 740.625 C805.13443468 745.74034122 803.65909078 750.63649125 802.078125 755.59765625 C801.33232945 757.95123568 800.61539048 760.31408253 799.921875 762.68359375 C799.57640625 763.86050781 799.2309375 765.03742187 798.875 766.25 C798.56304688 767.32765625 798.25109375 768.4053125 797.9296875 769.515625 C797 772 797 772 795 773 C794.63918263 775.12836574 794.55696174 777.22826172 794.44140625 779.3828125 C793.9645516 782.21018079 792.9335641 784.53221565 791.76000977 787.13427734 C790.49706616 790.23463552 789.87236077 793.48547116 789.1875 796.75 C787.75141163 803.25208855 785.94879877 809.54856142 783.875 815.875 C781.69660193 822.54864322 780.0413021 829.04641597 779 836 C778.02994716 841.57322813 776.59664165 846.1254269 773.9375 851.12109375 C772.51428287 853.97345808 771.80788237 856.91994848 771 860 C770.36144926 862.10638814 769.71481186 864.21033272 769.0625 866.3125 C767.5838208 871.09484538 766.13015975 875.88328319 764.7109375 880.68359375 C764.19374382 882.36873579 763.6284807 884.03935156 763.03515625 885.69921875 C761.47915305 890.66081386 760.57169165 895.73474702 759.58789062 900.8359375 C758.51898646 906.15064827 756.96527923 910.94962431 755 916 C755 916.66 755 917.32 755 918 C754.34 918 753.68 918 753 918 C753.04125 918.804375 753.0825 919.60875 753.125 920.4375 C752.9720219 924.79737593 752.05024765 928.78025497 751 933 C750.34 933 749.68 933 749 933 C748.75378906 934.20011719 748.50757812 935.40023437 748.25390625 936.63671875 C746.81223682 943.1235961 744.85576341 949.45374848 742.9375 955.8125 C742.21673357 958.21462952 741.49665124 960.61696445 740.77734375 963.01953125 C740.46015381 964.07245361 740.14296387 965.12537598 739.81616211 966.21020508 C739.15644531 968.46524062 738.54635672 970.71545378 738 973 C737.34 973 736.68 973 736 973 C735.87625 973.9075 735.7525 974.815 735.625 975.75 C735.53089844 976.38808594 735.43679688 977.02617188 735.33984375 977.68359375 C735.09061462 979.38236244 734.85566889 981.08324293 734.62890625 982.78515625 C734.48324219 983.78417969 734.33757812 984.78320312 734.1875 985.8125 C734.05730469 986.74707031 733.92710938 987.68164062 733.79296875 988.64453125 C733.11553425 991.51111368 732.27454852 993.89124681 731.1484375 996.59375 C728.71030498 1002.48917546 727.07716285 1008.53047386 725.4375 1014.6875 C722.2064066 1026.78798059 722.2064066 1026.78798059 720.40625 1030.78125 C718.83248532 1034.38342248 717.92317559 1037.99611366 717.0625 1041.8125 C715.73660762 1047.42209458 714.15541734 1052.68964655 711.83203125 1057.984375 C710.23119548 1061.86245602 709.65690551 1065.87087964 709 1070 C708.34 1070 707.68 1070 707 1070 C706.96624268 1070.59135742 706.93248535 1071.18271484 706.89770508 1071.79199219 C706.37697566 1078.63281656 704.79229382 1084.73954354 702.6875 1091.25 C702.0511523 1093.27444716 701.41573298 1095.29918639 700.78125 1097.32421875 C700.47445312 1098.29536621 700.16765625 1099.26651367 699.8515625 1100.26708984 C698.41650747 1104.87259614 697.11919883 1109.51346303 695.82421875 1114.16015625 C694.95744086 1117.14663743 694.10203024 1120.09080906 693 1123 C692.34 1123.33 691.68 1123.66 691 1124 C691.061875 1125.155 691.12375 1126.31 691.1875 1127.5 C691.18093817 1131.25992906 690.38538783 1134.16678506 688.92578125 1137.66015625 C687.35082137 1141.64075104 686.1996662 1145.75532417 684.96484375 1149.8515625 C684.35655152 1151.83651611 683.72508804 1153.8146546 683.0612793 1155.78173828 C681.36918798 1160.91289718 679.9151076 1166.11116112 678.43115234 1171.30566406 C677.87233964 1173.25930075 677.30929758 1175.21168781 676.74609375 1177.1640625 C676.39417969 1178.39382813 676.04226563 1179.62359375 675.6796875 1180.890625 C675.19604736 1182.57720215 675.19604736 1182.57720215 674.70263672 1184.29785156 C673.91611331 1186.85727069 673.91611331 1186.85727069 674 1189 C673.34 1189 672.68 1189 672 1189 C672.12375 1190.423125 672.12375 1190.423125 672.25 1191.875 C672.25 1197.04916356 670.01721891 1201.32561687 668 1206 C664.82059604 1213.77771547 662.65525118 1221.76832994 660.50366211 1229.87426758 C658.12627522 1238.74692219 655.42156806 1247.50635088 652.62792969 1256.25610352 C650.96544507 1261.53305898 649.61940185 1266.50460919 649 1272 C648.33847444 1274.3347961 647.67258667 1276.66836622 647 1279 C647 1279.99 647 1280.98 647 1282 C646.34 1282 645.68 1282 645 1282 C644.88970459 1282.54672363 644.77940918 1283.09344727 644.66577148 1283.65673828 C643.4941495 1289.21764184 641.92997476 1294.51222038 640.0625 1299.875 C637.99777255 1305.9127162 636.09837293 1311.93556962 634.54296875 1318.12890625 C634 1320 634 1320 633 1321 C632.63239269 1323.32817964 632.29758419 1325.6618385 632 1328 C631.34 1328 630.68 1328 630 1328 C630.061875 1329.546875 630.061875 1329.546875 630.125 1331.125 C630.00017943 1334.99443762 629.27734114 1337.38014512 628 1341 C627.12906682 1343.70306241 626.28485666 1346.41446446 625.4375 1349.125 C625.21642578 1349.82753906 624.99535156 1350.53007813 624.76757812 1351.25390625 C623.35452381 1355.7705572 622.16879964 1360.2480052 621.1328125 1364.86328125 C620.96910156 1365.58580078 620.80539062 1366.30832031 620.63671875 1367.05273438 C620.29847641 1368.54642288 619.96505443 1370.04121201 619.63671875 1371.53710938 C618.54666889 1376.29868375 616.9539546 1380.50694931 615 1385 C614.44571537 1387.13245615 613.94378332 1389.27933943 613.5 1391.4375 C612.38323024 1396.52694553 610.92897367 1401.17756582 609 1406 C606.84954475 1411.91375194 605.21331675 1417.89023864 603.74609375 1424.0078125 C602.58634138 1428.65896599 601.22862493 1433.24925233 599.8515625 1437.83984375 C597.72849414 1444.92162089 595.71507046 1451.99512697 594 1459.1875 C592.45936687 1465.63050879 590.42600279 1471.72230851 588.05078125 1477.9140625 C587.01720651 1480.94946788 586.43336824 1483.82831597 586 1487 C585.34 1487 584.68 1487 584 1487 C583.938125 1488.03125 583.87625 1489.0625 583.8125 1490.125 C583.3311457 1493.99589084 582.21114666 1497.30191525 580.8125 1500.9375 C577.93716892 1508.65200501 576.10099517 1516.51501502 574.23828125 1524.52587891 C572.55736693 1531.73799776 570.71821949 1538.87621314 568.69018555 1545.99780273 C567.22584131 1551.14368701 565.90095587 1556.31066003 564.67578125 1561.51953125 C563.96976628 1564.11097347 563.00014085 1566.50985339 562 1569 C561.62406934 1570.9924325 561.28020455 1572.9918674 561 1575 C560.34 1575 559.68 1575 559 1575 C559.061875 1575.969375 559.12375 1576.93875 559.1875 1577.9375 C559.16867267 1582.67257364 557.61498143 1586.5955052 556 1591 C552.84520238 1599.8416011 550.38970309 1608.30658265 548.6875 1617.54296875 C547.91839661 1621.41033523 546.87052599 1625.10645262 545.6484375 1628.8515625 C544.93558846 1631.21341173 544.45082426 1633.57575632 544 1636 C543.34 1636 542.68 1636 542 1636 C542.061875 1637.546875 542.061875 1637.546875 542.125 1639.125 C542.00014732 1642.99543318 541.34093643 1645.40064433 540 1649 C539.53302838 1650.53907214 539.07562304 1652.08106204 538.625 1653.625 C537.53512837 1657.31084726 536.33145924 1660.93476947 535.0625 1664.5625 C533.05895536 1670.44263484 531.66868103 1676.40389703 530.39477539 1682.47680664 C529.98945791 1684.33190541 529.50158473 1686.16858348 529 1688 C528.34 1688.33 527.68 1688.66 527 1689 C526.34227572 1692.02934491 526.34227572 1692.02934491 526 1695 C525.34 1695 524.68 1695 524 1695 C524 1697.31 524 1699.62 524 1702 C523.34 1702 522.68 1702 522 1702 C522.08314453 1703.74990234 522.08314453 1703.74990234 522.16796875 1705.53515625 C522.1631829 1709.89314886 520.99754249 1713.45555081 519.3125 1717.4375 C517.10895984 1722.96092835 515.1767588 1728.46372594 513.5625 1734.1875 C510.71464287 1744.23694413 507.35914419 1754.111856 504 1764 C503.34 1764 502.68 1764 502 1764 C501.82210937 1764.98419922 501.82210937 1764.98419922 501.640625 1765.98828125 C499.63164121 1775.43295505 496.98347519 1784.69476503 492.3359375 1793.17578125 C489.1946494 1799.81657452 487.21648382 1807.0077933 485 1814 C484.34 1814 483.68 1814 483 1814 C482.85304688 1814.66644531 482.70609375 1815.33289062 482.5546875 1816.01953125 C481.01174803 1822.35977103 478.79630862 1827.54056505 475.54296875 1833.1796875 C473.44251004 1837.01900697 471.86034579 1841.01017503 470.23046875 1845.06640625 C468.67996162 1848.76301215 466.88274414 1852.29858708 465.015625 1855.84375 C464.04904962 1857.89586389 463.46297757 1859.78575946 463 1862 C462.34 1862 461.68 1862 461 1862 C460.67 1863.65 460.34 1865.3 460 1867 C459.34 1867 458.68 1867 458 1867 C457.814375 1867.78375 457.62875 1868.5675 457.4375 1869.375 C455.4327251 1874.43051931 452.49320428 1878.8312232 449 1883 C448.34 1883 447.68 1883 447 1883 C446.896875 1883.70125 446.79375 1884.4025 446.6875 1885.125 C445.90640997 1888.39137647 444.57941257 1891.0471852 443 1894 C442.34 1894 441.68 1894 441 1894 C441 1894.66 441 1895.32 441 1896 C440.34 1896 439.68 1896 439 1896 C438.89171875 1896.7321875 438.7834375 1897.464375 438.671875 1898.21875 C437.043744 1904.95845505 431.91049568 1910.34132461 427 1915 C424.20116743 1918.09004059 421.63925341 1921.12540102 420 1925 C419.34 1925 418.68 1925 418 1925 C417.896875 1925.598125 417.79375 1926.19625 417.6875 1926.8125 C416.90175967 1929.31258286 416.03081147 1930.37535082 414 1932 C413.34 1932 412.68 1932 412 1932 C411.7525 1932.721875 411.505 1933.44375 411.25 1934.1875 C409.87730408 1937.27606582 408.27646704 1939.51011418 406 1942 C405.34 1942 404.68 1942 404 1942 C403.67 1942.99 403.34 1943.98 403 1945 C401.01399663 1946.3540932 399.01182457 1947.68457624 397 1949 C395.30591008 1950.63878458 393.64413918 1952.31110631 392 1954 C389.71259547 1956.31673023 387.4183906 1958.62669754 385.125 1960.9375 C384.53847656 1961.53240234 383.95195312 1962.12730469 383.34765625 1962.74023438 C377.84950142 1968.26859885 372.33096551 1973.39982407 365.625 1977.4375 C361.1571852 1980.20299747 357.04028593 1983.19700009 352.97265625 1986.51953125 C351.04673872 1987.96492282 349.15195007 1988.93693666 347 1990 C345.87849782 1990.85266752 344.77530909 1991.72974562 343.6875 1992.625 C338.82671814 1996.33572626 333.4880196 1999.03832487 328.0859375 2001.8515625 C322.60112709 2004.71170725 317.23347804 2007.77648389 311.8515625 2010.82421875 C311.22564209 2011.17532715 310.59972168 2011.52643555 309.95483398 2011.88818359 C308.60598237 2012.65534611 307.26740249 2013.44075536 305.93774414 2014.24072266 C299.93951135 2017.7657696 293.81042905 2019.92635392 287.1875 2022 C279.86452982 2024.35796319 272.76808681 2026.81911524 265.7265625 2029.9140625 C261.39472947 2031.63934844 256.92442877 2032.81347312 252.421875 2034.0078125 C249.88715399 2034.74276585 247.57337932 2035.54516803 245.13671875 2036.51953125 C240.84823303 2038.16411973 236.59297228 2038.90231925 232.0625 2039.5625 C230.47369586 2039.81082648 228.88514919 2040.06080628 227.296875 2040.3125 C226.54986328 2040.42980469 225.80285156 2040.54710938 225.03320312 2040.66796875 C220.23209419 2041.45201152 215.54264177 2042.53604759 210.8828125 2043.9375 C206.33349845 2045.24289253 201.71649844 2046.09538774 197.0625 2046.9375 C196.12043701 2047.10934814 195.17837402 2047.28119629 194.20776367 2047.45825195 C185.73481536 2048.95748864 177.22840724 2050.06283129 168.68188477 2051.04858398 C167.72080811 2051.16016846 166.75973145 2051.27175293 165.76953125 2051.38671875 C164.91979736 2051.48170654 164.07006348 2051.57669434 163.19458008 2051.67456055 C160.82944303 2051.96038212 160.82944303 2051.96038212 158 2053 C155.51073778 2053.22093393 153.04105287 2053.39388131 150.546875 2053.5234375 C149.79960144 2053.56455658 149.05232788 2053.60567566 148.28240967 2053.64804077 C140.11147733 2054.07836205 131.9359244 2054.34229344 123.75683594 2054.55761719 C121.2100758 2054.62607315 118.66368155 2054.70358339 116.1171875 2054.78125 C114.47918153 2054.82606748 112.84116106 2054.87035861 111.203125 2054.9140625 C110.07502411 2054.94990952 110.07502411 2054.94990952 108.9241333 2054.98648071 C105.13282108 2055.07712629 101.68300774 2054.93658796 98 2054 C98 2054.99 98 2055.98 98 2057 C99.65 2057.33 101.3 2057.66 103 2058 C103 2059.32 103 2060.64 103 2062 C48.55 2062 -5.9 2062 -62 2062 C-62 2057 -62 2057 -60.5 2055.1875 C-60.005 2054.795625 -59.51 2054.40375 -59 2054 C-60.02488525 2054.01595215 -61.04977051 2054.0319043 -62.10571289 2054.04833984 C-72.62847108 2054.16056799 -82.96463045 2053.60222831 -93.4375 2052.625 C-94.98393788 2052.48534205 -96.53040633 2052.34602228 -98.0769043 2052.20703125 C-102.38576795 2051.81656637 -106.69292773 2051.40974125 -111 2051 C-112.03092773 2050.90428711 -113.06185547 2050.80857422 -114.12402344 2050.70996094 C-122.72708019 2049.90134337 -131.09807415 2048.71414395 -139.53515625 2046.78125 C-143.19849138 2045.95524433 -146.87011867 2045.24668748 -150.5625 2044.5625 C-151.54174438 2044.38086304 -151.54174438 2044.38086304 -152.54077148 2044.19555664 C-153.93303532 2043.93744685 -155.32537225 2043.67973107 -156.71777344 2043.42236328 C-190.12308665 2037.24016475 -190.12308665 2037.24016475 -196.34375 2034.55859375 C-200.22475709 2032.90419009 -204.06861479 2031.7468302 -208.125 2030.625 C-218.77699534 2027.58124235 -228.91694282 2023.49674909 -239.12109375 2019.203125 C-243.39369207 2017.41756152 -247.69472351 2015.70496569 -252 2014 C-252 2013.34 -252 2012.68 -252 2012 C-253.2375 2011.814375 -254.475 2011.62875 -255.75 2011.4375 C-261.11470578 2010.25188321 -265.29070389 2007.72075978 -269.94140625 2004.87109375 C-272.85542246 2003.08844527 -275.80606255 2001.43325435 -278.8125 1999.8125 C-280.14861328 1999.08740234 -280.14861328 1999.08740234 -281.51171875 1998.34765625 C-283.07627541 1997.5002904 -284.64131013 1996.65380604 -286.20703125 1995.80859375 C-290.88730661 1993.22538678 -290.88730661 1993.22538678 -292 1991 C-292.99 1991 -293.98 1991 -295 1991 C-296.02297922 1990.02351983 -297.01904252 1989.01868662 -298 1988 C-299.65365406 1986.97862543 -301.32376502 1985.98387706 -303 1985 C-313.18978762 1978.44148215 -313.18978762 1978.44148215 -317 1975 C-317 1974.34 -317 1973.68 -317 1973 C-317.61875 1972.9175 -318.2375 1972.835 -318.875 1972.75 C-321 1972 -321 1972 -321.9375 1970.0625 C-322.81426677 1967.78628596 -322.81426677 1967.78628596 -325.19140625 1967.20703125 C-328.77499173 1965.66693679 -331.23245507 1963.29420577 -334 1960.625 C-335.01940212 1959.65734418 -336.04021897 1958.69117639 -337.0625 1957.7265625 C-337.5565332 1957.25879395 -338.05056641 1956.79102539 -338.55957031 1956.30908203 C-339.85455578 1955.13218168 -341.22854828 1954.04364505 -342.609375 1952.96875 C-345.22347459 1950.8159621 -347.15692396 1948.53398179 -349.25 1945.875 C-352.32691859 1942.02756757 -355.48030679 1938.31613214 -358.8125 1934.6875 C-361.93025316 1931.27643906 -364.51320144 1927.87940576 -367 1924 C-367.66 1923.67 -368.32 1923.34 -369 1923 C-369.33 1922.01 -369.66 1921.02 -370 1920 C-370.66 1919.67 -371.32 1919.34 -372 1919 C-375 1914.5 -375 1914.5 -375 1912 C-375.99 1911.67 -376.98 1911.34 -378 1911 C-379.83203125 1908.33984375 -379.83203125 1908.33984375 -381.8125 1904.9375 C-384.16155282 1900.95505756 -386.55638136 1897.12575558 -389.4375 1893.5 C-391.60526752 1890.72713749 -392.77408559 1888.6146305 -393 1885 C-393.66 1885 -394.32 1885 -395 1885 C-395.51046875 1884.05253906 -395.51046875 1884.05253906 -396.03125 1883.0859375 C-398.34861976 1878.80866458 -400.67714503 1874.54133211 -403.109375 1870.328125 C-403.46451172 1869.71275879 -403.81964844 1869.09739258 -404.18554688 1868.46337891 C-404.88184093 1867.26083435 -405.58094982 1866.05991412 -406.28320312 1864.86083984 C-408.14752086 1861.64090738 -409.64899416 1858.45963455 -411 1855 C-412.21053942 1852.50934993 -413.43721064 1850.03291889 -414.6875 1847.5625 C-415.0383667 1846.86310303 -415.3892334 1846.16370605 -415.75073242 1845.44311523 C-417.47629164 1842.00558389 -419.21532823 1838.57563924 -420.9765625 1835.15625 C-423.82696911 1829.59266202 -426.40604542 1824.19847469 -428.19140625 1818.19921875 C-429.18851329 1815.48728028 -430.55670328 1813.12694958 -432 1810.625 C-434.63449082 1805.98699518 -436.10674923 1801.61420858 -437.34375 1796.4453125 C-438.15982559 1793.4044594 -439.56919914 1790.79346836 -441 1788 C-441 1786.68 -441 1785.36 -441 1784 C-441.66 1784 -442.32 1784 -443 1784 C-443.32613281 1782.94941406 -443.65226562 1781.89882812 -443.98828125 1780.81640625 C-445.31746743 1776.54173128 -446.65649708 1772.27019473 -448 1768 C-448.30679687 1767.02289062 -448.61359375 1766.04578125 -448.9296875 1765.0390625 C-450.01111552 1761.68329101 -451.0322095 1758.95168574 -453 1756 C-453.36562775 1754.00565112 -453.69543259 1752.0045822 -454 1750 C-454.54597223 1748.00448649 -455.12842518 1746.01868524 -455.7421875 1744.04296875 C-456.08636719 1742.92986328 -456.43054687 1741.81675781 -456.78515625 1740.66992188 C-457.14480469 1739.52072266 -457.50445313 1738.37152344 -457.875 1737.1875 C-458.22691406 1736.04990234 -458.57882812 1734.91230469 -458.94140625 1733.74023438 C-460.69333622 1728.09693578 -462.49209084 1722.47431639 -464.37890625 1716.87475586 C-465.43147343 1713.69760831 -466.33666 1710.4798539 -467.25390625 1707.26171875 C-467.92752091 1705.01118394 -467.92752091 1705.01118394 -469 1703.09765625 C-470.74614365 1699.43484711 -471.2936261 1695.43730617 -472.12109375 1691.484375 C-472.92742702 1688.28771154 -474.00898054 1685.32711609 -475.19946289 1682.25830078 C-476.78472544 1677.78630365 -477.84948919 1673.16154713 -479 1668.5625 C-480.74777652 1661.60325443 -482.63188061 1654.77470518 -485 1648 C-486.52343878 1643.55850384 -487.80968404 1639.10522925 -489 1634.5625 C-489.66219007 1632.04048703 -490.32879796 1629.51962953 -491 1627 C-491.433125 1625.34291016 -491.433125 1625.34291016 -491.875 1623.65234375 C-492.76230396 1620.77168679 -493.7582817 1618.16004312 -494.93359375 1615.3984375 C-497.42023143 1609.3056569 -498.72602078 1603.05162783 -500.0625 1596.625 C-500.55179537 1594.32518197 -501.04267066 1592.02569948 -501.53515625 1589.7265625 C-501.77387451 1588.61071777 -502.01259277 1587.49487305 -502.25854492 1586.34521484 C-504.16825817 1577.72918227 -506.23605981 1569.09582721 -509.125 1560.75 C-510 1558 -510 1558 -510 1555 C-510.66 1555 -511.32 1555 -512 1555 C-513.98756888 1550.0973301 -514.37429811 1545.51612752 -514.65625 1540.29296875 C-514.7696875 1539.53628906 -514.883125 1538.77960938 -515 1538 C-515.66 1537.67 -516.32 1537.34 -517 1537 C-517.80615234 1534.73779297 -517.80615234 1534.73779297 -518.5859375 1531.7421875 C-519.0193042 1530.10213745 -519.0193042 1530.10213745 -519.46142578 1528.42895508 C-519.76290527 1527.2561499 -520.06438477 1526.08334473 -520.375 1524.875 C-520.84462158 1523.09162231 -520.84462158 1523.09162231 -521.32373047 1521.2722168 C-522.43908459 1517.03196308 -523.53826109 1512.78763993 -524.63476562 1508.54248047 C-526.75153234 1500.35444195 -529.16881216 1492.37813399 -531.90625 1484.3828125 C-533.0279599 1480.91352401 -533.83168345 1477.48893066 -534.53515625 1473.91796875 C-535.01974672 1471.91852405 -535.71392692 1470.18423296 -536.5625 1468.3125 C-537.93951048 1465.13938889 -538.58328353 1462.41707504 -539 1459 C-539.66 1459 -540.32 1459 -541 1459 C-541.25523437 1457.72769531 -541.25523437 1457.72769531 -541.515625 1456.4296875 C-544.16678287 1443.59695527 -547.2027555 1430.50582768 -552.5625 1418.5 C-554.79487601 1413.06464971 -556 1407.87821697 -556 1402 C-556.66 1402 -557.32 1402 -558 1402 C-558.13051758 1401.41621582 -558.26103516 1400.83243164 -558.39550781 1400.23095703 C-559.00517147 1397.52697591 -559.62751897 1394.82605804 -560.25 1392.125 C-560.45496094 1391.2071875 -560.65992188 1390.289375 -560.87109375 1389.34375 C-562.17345085 1383.73966794 -563.8564326 1378.53524752 -566.07666016 1373.22851562 C-569.45896087 1365.06520497 -571.47698575 1356.40069724 -573.2890625 1347.77734375 C-573.93812097 1345.2417362 -574.77566293 1343.29320276 -576 1341 C-577.34943909 1336.87671388 -578.26346736 1333.34721137 -578 1329 C-578.66 1329 -579.32 1329 -580 1329 C-580.13535156 1328.40058594 -580.27070312 1327.80117187 -580.41015625 1327.18359375 C-582.16302008 1319.80477178 -584.28891358 1312.56558175 -586.5 1305.3125 C-586.79656494 1304.33917725 -587.09312988 1303.36585449 -587.39868164 1302.36303711 C-588.98472162 1297.19689029 -590.63206817 1292.05765311 -592.35693359 1286.9362793 C-593.14739885 1284.55618061 -593.86460672 1282.1587288 -594.5625 1279.75 C-595.3352606 1277.12261397 -596.14037082 1274.66015485 -597.1875 1272.125 C-598 1270 -598 1270 -598 1266 C-598.66 1265.67 -599.32 1265.34 -600 1265 C-602.67626374 1259.69613186 -603.85880926 1254.49783898 -604.9375 1248.6875 C-606.13071295 1242.61963911 -607.52033551 1237.12122563 -610.0625 1231.4609375 C-611.69300916 1227.18085096 -612.38907859 1222.67960704 -613.28515625 1218.19921875 C-614.12346405 1214.44744777 -615.34074798 1211.45677503 -617 1208 C-619.04511585 1203.14284985 -620.31505957 1198.61719067 -621.3125 1193.4375 C-622.52596263 1187.4279708 -624.42030228 1182.15274168 -626.8034668 1176.54785156 C-628.93631231 1171.43434612 -630.17064563 1166.37690352 -631.29296875 1160.96875 C-631.95204159 1158.20137234 -632.81261536 1155.79341036 -633.9375 1153.1875 C-636.27170279 1147.7291931 -637.54920737 1142.08514294 -638.875 1136.3203125 C-639.7048359 1132.91635819 -640.77291425 1129.63515578 -641.90625 1126.3203125 C-644.47060517 1118.77327276 -646.40650523 1111.08403406 -648.35546875 1103.359375 C-649.80671035 1097.79080995 -651.38751659 1092.81272856 -654.12988281 1087.75244141 C-655.47476952 1085.04380034 -656.03392066 1082.26433597 -656.625 1079.3125 C-657.43805604 1075.31896003 -658.42996612 1071.75708495 -660 1068 C-660.4987716 1066.42273273 -660.97790056 1064.8391235 -661.4375 1063.25 C-662.36345773 1060.09248413 -663.34374495 1056.97793552 -664.4375 1053.875 C-666.10968113 1048.95476023 -667.29043648 1043.91798786 -668.51708984 1038.87353516 C-669.57808213 1034.55544885 -670.8130509 1030.37746841 -672.2890625 1026.1875 C-673.14041216 1023.56796259 -673.78917992 1020.92693451 -674.4375 1018.25 C-675.76038778 1012.80607439 -677.33925006 1007.47623543 -679.01953125 1002.1328125 C-680.1942256 998.37940665 -681.29583042 994.60662088 -682.38671875 990.828125 C-682.84771855 989.00378351 -682.84771855 989.00378351 -684 988 C-684.04063832 986.33382885 -684.042721 984.66611905 -684 983 C-684.66 983 -685.32 983 -686 983 C-686.27263672 981.85724609 -686.27263672 981.85724609 -686.55078125 980.69140625 C-687.70795815 975.9380796 -688.85295179 971.23499208 -690.5 966.625 C-692.59989597 960.56592517 -693.70953074 954.26992395 -695 948 C-696.48029587 940.88163734 -698.15970115 934.28936577 -701.02734375 927.60546875 C-702.5607848 923.49781744 -703.36141782 919.24796928 -704.28125 914.96875 C-704.86571184 912.55466849 -705.5106008 910.54252629 -706.5625 908.3125 C-707.76143999 905.54972523 -708.35415114 903.53104458 -708.875 900.625 C-709.76418486 895.72694781 -711.08509988 891.01646398 -712.5 886.25 C-712.71382324 885.52893066 -712.92764648 884.80786133 -713.14794922 884.06494141 C-714.06923766 880.99279606 -715.01889104 877.94486046 -716.05859375 874.91015625 C-717.4576475 870.58528056 -718.3486624 866.16805065 -719.31640625 861.73046875 C-719.72552289 859.10307474 -719.72552289 859.10307474 -721 858 C-721.1546875 856.0509375 -721.1546875 856.0509375 -721.3125 854.0625 C-721.76281154 849.46496444 -723.19696921 845.83597366 -725.01953125 841.625 C-726.38571958 837.96731651 -726.95723044 834.2993869 -727.5078125 830.4453125 C-728.00741735 827.96314873 -728.86758552 826.24773592 -730 824 C-730.52733078 822.01215621 -731.0015377 820.00986009 -731.4375 818 C-733.7621865 807.57979718 -736.34360191 797.44669269 -739.9309082 787.39038086 C-742.48804903 780.03146295 -744.28450117 772.70797976 -745.75 765.0625 C-745.97042969 763.96615234 -746.19085937 762.86980469 -746.41796875 761.74023438 C-747.33182096 757.08299376 -748.13167335 752.76128688 -748 748 C-748.66 748 -749.32 748 -750 748 C-750.18175781 747.09378906 -750.36351562 746.18757812 -750.55078125 745.25390625 C-751.83024174 739.05344388 -753.18785455 733.04653071 -755.3125 727.08203125 C-756.26090338 724.20987784 -756.8767133 721.29862529 -757.47265625 718.3359375 C-757.99589999 715.86963496 -757.99589999 715.86963496 -758.94140625 713 C-760.79748604 706.61700061 -761.42679296 699.90665501 -762.32421875 693.3359375 C-763.46539862 685.65384863 -764.7708406 677.29226968 -771 672 C-773.2670186 671.49549333 -773.2670186 671.49549333 -775.75 671.4375 C-778.79617447 671.27944378 -781.31607131 670.9096399 -784.265625 670.06640625 C-788.48844665 668.86051681 -792.66568447 668.16178308 -797 667.5 C-824.29157304 663.33299808 -850.5318551 651.18596819 -874 637 C-874.76054688 636.57074219 -875.52109375 636.14148438 -876.3046875 635.69921875 C-880.57971819 633.22292739 -883.47937087 630.57512025 -886.546875 626.70703125 C-888.03174155 624.96271221 -889.58209752 623.6075793 -891.375 622.1875 C-892.24125 621.465625 -893.1075 620.74375 -894 620 C-894 619.34 -894 618.68 -894 618 C-894.99 617.67 -895.98 617.34 -897 617 C-897 616.34 -897 615.68 -897 615 C-897.66 615 -898.32 615 -899 615 C-900.47265625 613.35546875 -900.47265625 613.35546875 -902.0625 611.1875 C-902.58972656 610.47980469 -903.11695313 609.77210938 -903.66015625 609.04296875 C-905 607 -905 607 -906 604 C-906.66 603.67 -907.32 603.34 -908 603 C-908 601.68 -908 600.36 -908 599 C-908.99 598.67 -909.98 598.34 -911 598 C-912.0625 596.1796875 -912.0625 596.1796875 -913 593.875 C-913.33902344 593.05257812 -913.67804687 592.23015625 -914.02734375 591.3828125 C-914.34832031 590.59648438 -914.66929687 589.81015625 -915 589 C-915.515625 587.9275 -916.03125 586.855 -916.5625 585.75 C-919.42367296 579.05296879 -921.28437933 571.28552766 -921 564 C-921.66 563.67 -922.32 563.34 -923 563 C-923 563.66 -923 564.32 -923 565 C-923.66 565 -924.32 565 -925 565 C-925.33 566.32 -925.66 567.64 -926 569 C-926 555.14 -926 541.28 -926 527 C-925.34 527 -924.68 527 -924 527 C-923.67 528.65 -923.34 530.3 -923 532 C-922.34 532 -921.68 532 -921 532 C-919.98042882 528.94128646 -919.77467825 526.19405693 -919.55786133 522.99609375 C-918.36068886 507.06363024 -913.64610158 491.87963468 -904 479 C-903.0682711 477.7127744 -902.13734609 476.4249667 -901.20703125 475.13671875 C-895.53955614 467.37021248 -889.66963801 459.93857503 -883 453 C-882.34257813 452.30003906 -881.68515625 451.60007812 -881.0078125 450.87890625 C-879.02893173 449.02707425 -877.28051414 447.90800994 -874.875 446.6875 C-871.49390026 444.90576465 -868.45371554 442.93113806 -865.3828125 440.66015625 C-860.18023985 436.98857151 -854.8386043 434.26373266 -849 431.75 C-848.00033203 431.31888916 -847.00066406 430.88777832 -845.97070312 430.44360352 C-837.06352035 426.75853339 -828.5561817 424.88916031 -819 424 C-817.07800781 423.77570313 -817.07800781 423.77570313 -815.1171875 423.546875 C-805.77801055 422.65000206 -797.20002148 423.57290256 -788 425 C-786.94941406 425.11085938 -785.89882812 425.22171875 -784.81640625 425.3359375 C-776.23977699 426.36103263 -769.46882232 429.95475274 -762 434 C-760.19115419 434.90318904 -758.37904646 435.79990067 -756.5625 436.6875 C-744.48274831 442.73726107 -732.3407741 450.15431919 -723 460 C-721.75387588 461.04630021 -720.50341119 462.08744044 -719.25 463.125 C-715.06817318 466.74192714 -711.7326318 470.83667633 -708.3046875 475.16015625 C-706.02985449 477.9632132 -703.64321476 480.60507443 -701.1875 483.25 C-697.76642186 487.00962233 -695.30216 490.48094519 -693 495 C-692.29516196 496.18957795 -691.58678003 497.37706272 -690.875 498.5625 C-678.65752593 520.96120246 -682.79449327 564.13638796 -688.6875 588.125 C-692.08501747 599.56206429 -698.27578426 608.87349656 -705.66015625 618.0625 C-707.54665786 620.43086262 -709.28346248 622.82279118 -711 625.3125 C-713.33353041 628.48610136 -715.99845102 630.67429058 -719.125 633.0625 C-723.24331311 636.2560422 -726.08209282 639.10380427 -728 644 C-728.391875 644.90105469 -728.78375 645.80210937 -729.1875 646.73046875 C-735.16142016 662.54956653 -729.68112975 683.02567166 -723 698 C-722.51838157 699.36701797 -722.05635596 700.74129971 -721.625 702.125 C-718.51505225 711.63209415 -714.72664526 720.77618411 -710.46484375 729.8203125 C-709.07773179 732.83127019 -707.80546321 735.86473193 -706.5625 738.9375 C-702.45657602 748.91278968 -697.43482179 758.44379599 -692.06640625 767.79296875 C-691 770 -691 770 -691 773 C-690.34 773 -689.68 773 -689 773 C-686.87495924 777.46239501 -684.75727462 781.92817867 -682.64624023 786.3972168 C-681.92753464 787.91606726 -681.20685141 789.43398361 -680.48413086 790.95092773 C-679.44379826 793.13541139 -678.41069659 795.32318987 -677.37890625 797.51171875 C-677.05596085 798.18587326 -676.73301544 798.86002777 -676.40028381 799.55461121 C-674.77786059 803.01461071 -673.53909979 806.20716186 -673 810 C-672.34 810 -671.68 810 -671 810 C-671 810.99 -671 811.98 -671 813 C-670.34 813 -669.68 813 -669 813 C-668.71914551 813.68811768 -668.43829102 814.37623535 -668.14892578 815.08520508 C-663.10942923 827.37115013 -657.99683474 839.47839929 -651.63793945 851.14453125 C-648.15093177 857.57909702 -645.14190865 864.17186313 -642.18530273 870.86376953 C-638.71930118 878.69479326 -634.92330301 886.32097185 -631.00341797 893.93603516 C-624.19168747 907.19120795 -624.19168747 907.19120795 -621.75 913.9375 C-617.13339504 926.53400974 -610.77079814 938.56173306 -604.71875 950.51953125 C-603.49646026 952.99466797 -602.48004036 955.29516472 -601.5625 957.875 C-600.12949418 961.86862277 -598.25770434 965.56230459 -596.28125 969.3125 C-595.24349665 971.48925093 -594.39034174 973.59869479 -593.5703125 975.859375 C-592.12072814 979.80741496 -590.31260019 983.5213816 -588.375 987.25 C-582.71365534 998.36369575 -577.71831028 1009.77833759 -572.72265625 1021.203125 C-572.17738281 1022.44473389 -572.17738281 1022.44473389 -571.62109375 1023.71142578 C-570.93048686 1025.28599675 -570.24408583 1026.8624211 -569.5625 1028.44091797 C-567.78007902 1032.54317554 -567.78007902 1032.54317554 -565 1036 C-564.55146462 1037.58712521 -564.10753082 1039.17565931 -563.68359375 1040.76953125 C-562.18599358 1045.65598665 -560.01022533 1050.3076232 -558 1055 C-557.53335937 1056.12019531 -557.06671875 1057.24039062 -556.5859375 1058.39453125 C-554.08365803 1064.35584412 -551.44610341 1070.18156668 -548.5 1075.9375 C-546.11495637 1080.61405614 -544.05583677 1085.28245811 -542.1875 1090.1875 C-539.93550513 1096.08367404 -537.19445402 1101.57884037 -534.1875 1107.125 C-528.00838166 1118.5572425 -522.96779304 1130.4343295 -518.2109375 1142.51953125 C-517.93991211 1143.20756836 -517.66888672 1143.89560547 -517.38964844 1144.60449219 C-516.68006677 1146.4214925 -515.98398817 1148.24375033 -515.2890625 1150.06640625 C-514.15604711 1152.94808992 -514.15604711 1152.94808992 -512.5234375 1154.96484375 C-510.85749404 1157.19037334 -509.85309556 1159.48179739 -508.80371094 1162.04589844 C-507.95617763 1164.10654746 -507.05198911 1166.13440856 -506.1328125 1168.1640625 C-503.08610804 1174.92865137 -500.06059825 1181.65738571 -497.5 1188.625 C-494.35037156 1197.02753224 -490.14855512 1204.90396322 -486.03662109 1212.86523438 C-482.91400077 1218.92380554 -479.95550073 1224.90163452 -477.625 1231.3125 C-475.34113147 1237.51700951 -472.38069974 1243.21608943 -469.20947266 1249.0012207 C-466.03303652 1254.80674098 -463.35246699 1260.62331645 -461.3125 1266.9375 C-461.06113281 1267.70964844 -460.80976562 1268.48179688 -460.55078125 1269.27734375 C-460.36902344 1269.84582031 -460.18726563 1270.41429687 -460 1271 C-459.34 1271 -458.68 1271 -458 1271 C-457.773125 1271.94875 -457.54625 1272.8975 -457.3125 1273.875 C-455.87077592 1278.90591129 -453.39985853 1283.3717014 -451 1288 C-449.9979915 1290.01983819 -448.99803975 1292.04069783 -448 1294.0625 C-445.79316312 1298.50475973 -443.44175633 1302.8136876 -440.8828125 1307.0625 C-440 1309 -440 1309 -440 1313 C-439.34 1313 -438.68 1313 -438 1313 C-437.74476563 1313.85851563 -437.48953125 1314.71703125 -437.2265625 1315.6015625 C-435.94051081 1319.16482673 -434.31365683 1322.12330866 -432.375 1325.375 C-416 1353.32816828 -416 1353.32816828 -416 1361 C-415.34 1361 -414.68 1361 -414 1361 C-413.62875 1361.928125 -413.2575 1362.85625 -412.875 1363.8125 C-411.5083678 1367.00556588 -409.93114162 1370.023859 -408.25 1373.0625 C-405.78580067 1377.52034803 -403.41925074 1382.015595 -401.125 1386.5625 C-400.52945313 1387.73941406 -399.93390625 1388.91632813 -399.3203125 1390.12890625 C-398 1393 -398 1393 -398 1395 C-397.34 1395 -396.68 1395 -396 1395 C-395.773125 1395.99 -395.54625 1396.98 -395.3125 1398 C-394.26420796 1401.64371855 -392.60214234 1404.39126693 -390.53515625 1407.54296875 C-388.65074146 1410.5589914 -386.97460814 1413.67086067 -385.3125 1416.8125 C-384.97653809 1417.44736328 -384.64057617 1418.08222656 -384.29443359 1418.73632812 C-383.19366656 1420.82284908 -382.09658936 1422.91128067 -381 1425 C-380.18113862 1426.55606802 -379.3621237 1428.11205525 -378.54296875 1429.66796875 C-377.26812211 1432.09027573 -375.99335689 1434.51262546 -374.71875 1436.93505859 C-373.87954769 1438.52986576 -373.04019484 1440.12459372 -372.20068359 1441.71923828 C-371.42980557 1443.18356168 -370.65926816 1444.64806446 -369.88916016 1446.11279297 C-367.62000507 1450.42366357 -365.32230154 1454.71750214 -363 1459 C-362.68401855 1459.59022949 -362.36803711 1460.18045898 -362.04248047 1460.78857422 C-361.12581953 1462.49174998 -360.18830864 1464.18365384 -359.25 1465.875 C-358.71890625 1466.84179688 -358.1878125 1467.80859375 -357.640625 1468.8046875 C-355.75359785 1471.32970954 -354.97460968 1471.43125708 -352 1472 C-352.09958008 1471.13580444 -352.09958008 1471.13580444 -352.20117188 1470.25415039 C-353.06956978 1462.24127808 -353.34402049 1454.2410913 -353.60546875 1446.18945312 C-353.66154297 1444.60874023 -353.66154297 1444.60874023 -353.71875 1442.99609375 C-353.74904297 1442.05950928 -353.77933594 1441.1229248 -353.81054688 1440.15795898 C-353.95870268 1437.68837744 -354.19078339 1435.28509728 -354.48576355 1432.83204651 C-354.98509472 1428.39761148 -355.24890542 1423.98707409 -355.41723633 1419.52929688 C-355.4500621 1418.73070598 -355.48288788 1417.93211508 -355.51670837 1417.10932446 C-355.58739743 1415.3829972 -355.65672036 1413.65661356 -355.72480202 1411.9301815 C-355.87274277 1408.18930605 -356.0287034 1404.44877592 -356.18403912 1400.70820141 C-356.30868821 1397.70382142 -356.43231588 1394.69940043 -356.5559082 1391.69497681 C-358.28691897 1349.72626747 -358.28691897 1349.72626747 -361 1307.8125 C-362.77443156 1284.57791808 -364.04103972 1261.33523698 -365.1875 1238.0625 C-365.27302196 1236.33558103 -365.35855243 1234.60866249 -365.4440918 1232.88174438 C-366.27866621 1215.98649525 -367.10674238 1199.09203312 -367.64897156 1182.18434143 C-367.83308671 1176.83288942 -368.20853992 1171.55050379 -368.7797699 1166.22666931 C-369.06333682 1163.35962364 -369.159882 1160.50885785 -369.2109375 1157.62890625 C-369.23736328 1156.49267822 -369.26378906 1155.3564502 -369.29101562 1154.18579102 C-369.33258789 1152.39226196 -369.33258789 1152.39226196 -369.375 1150.5625 C-369.64151509 1140.97704236 -370.28039418 1131.57208004 -371.5 1122.0625 C-373.09260382 1109.46155395 -373.46470894 1096.93346507 -373.62109375 1084.24829102 C-373.74497684 1075.60998002 -374.18984921 1067.07074088 -374.96484375 1058.46484375 C-376.22255342 1044.46195925 -376.6653538 1030.45555091 -377.10449219 1016.40722656 C-377.48338887 1004.5293369 -378.00382129 992.75215998 -379.30114746 980.93635559 C-380.12825702 973.26426737 -380.36838872 965.65224372 -380.5 957.9375 C-380.66880352 948.251157 -381.14308406 938.65350452 -381.90625 928.99609375 C-382.80963438 917.46530421 -383.45066221 905.93501874 -384 894.3828125 C-384.04111404 893.52273905 -384.08222809 892.6626656 -384.12458801 891.77652931 C-384.50718375 883.75403485 -384.87975163 875.73108032 -385.25 867.70800781 C-386.27019872 843.72955539 -386.27019872 843.72955539 -388.25453186 819.81892395 C-389.63599385 806.5065235 -390.1243189 793.10169891 -390.81206131 779.73862457 C-390.93910496 777.28145836 -391.06809295 774.82440164 -391.19772339 772.36737061 C-392.13618911 754.57724466 -393.03070729 736.78567525 -393.8203125 718.98828125 C-393.85190901 718.27616926 -393.88350552 717.56405727 -393.91605949 716.83036613 C-394.19423075 710.54847872 -394.46957612 704.26646893 -394.74234009 697.98434448 C-395.52401659 680.02107812 -396.52445106 662.09111441 -397.8215332 644.15774536 C-398.81788908 630.28583186 -399.34805377 616.44871189 -399.60992432 602.54446411 C-399.83615139 590.54218894 -400.38150201 578.63002094 -401.27197266 566.6550293 C-401.87651074 558.39394351 -402.21939035 550.1546468 -402.4375 541.875 C-402.76225771 530.04651238 -403.65876143 518.32240454 -404.70773315 506.54208374 C-405.56066279 496.92139618 -406.23760104 487.34645778 -406.5 477.6875 C-406.81807472 466.09759747 -407.68997107 454.59247104 -408.63961792 443.04156494 C-409.89860702 427.6129075 -410.68160301 412.18307926 -411.26538086 396.71484375 C-411.5757381 388.77589705 -411.96154412 380.84146196 -412.74609375 372.93359375 C-412.86525146 371.66443115 -412.98440918 370.39526855 -413.10717773 369.08764648 C-413.71724553 365.84274506 -413.71724553 365.84274506 -416.39648438 364.14013672 C-419.25790838 362.88705625 -422.12347113 361.74729851 -425.0625 360.6875 C-430.69692041 358.57699065 -436.0096567 356.10898367 -441.34375 353.33203125 C-443.95924562 351.96740628 -443.95924562 351.96740628 -446.63671875 350.98046875 C-450.10182198 349.54288047 -452.25714002 347.55149765 -455 345 C-455 344.34 -455 343.68 -455 343 C-455.67417969 342.93167969 -456.34835937 342.86335938 -457.04296875 342.79296875 C-461.04194573 341.72058787 -463.93515179 339.65340433 -467.3125 337.3125 C-467.97604492 336.86132812 -468.63958984 336.41015625 -469.32324219 335.9453125 C-473.4552302 333.11912178 -477.52633171 330.2228421 -481.484375 327.15625 C-482.94445052 326.04237795 -484.47198512 325.01867659 -486 324 C-486 323.34 -486 322.68 -486 322 C-486.57621094 321.73960937 -487.15242188 321.47921875 -487.74609375 321.2109375 C-490.16230095 319.91280192 -492.00794479 318.4380757 -494.0625 316.625 C-494.73410156 316.03976562 -495.40570312 315.45453125 -496.09765625 314.8515625 C-497.98992125 313.00980971 -499.54512063 311.20271456 -501 309 C-501 308.34 -501 307.68 -501 307 C-501.66 307 -502.32 307 -503 307 C-505.54717187 304.53749866 -507.73219857 301.71878466 -510 299 C-510.7425 298.13246094 -511.485 297.26492188 -512.25 296.37109375 C-527.39498962 278.38641857 -541.58655049 252.24657988 -540 228 C-539.57298796 224.75286765 -538.945611 221.57436366 -538.25 218.375 C-538.06735596 217.51471191 -537.88471191 216.65442383 -537.6965332 215.76806641 C-537.32027181 214.01606387 -536.9385767 212.26521886 -536.55126953 210.515625 C-536.03973532 208.18132538 -535.5620058 205.84250941 -535.08984375 203.5 C-533.5417921 196.20252691 -531.56388708 190.32600673 -526.859375 184.375 C-524.81254507 181.76056176 -523.14733191 179.0321761 -521.4375 176.1875 C-518.68199586 171.80458401 -516.14018844 169.06013928 -512 166 C-509.50679392 163.58024353 -507.10999887 161.12367546 -504.80078125 158.52734375 C-489.69068252 142.80050629 -465.48807818 135.84494723 -445 130 C-444.27466064 129.7930249 -443.54932129 129.5860498 -442.80200195 129.37280273 C-436.04991945 127.65866374 -429.24940957 127.50665942 -422.3125 127.3125 C-421.01481689 127.2727002 -419.71713379 127.23290039 -418.38012695 127.19189453 C-375.89611503 126.04641426 -375.89611503 126.04641426 -360.25 130.875 C-355.64253909 132.26219253 -351.09090703 133.42503312 -346.375 134.375 C-336.5387935 136.60886375 -327.68042161 140.38405849 -322 149 C-321.29875 150.051875 -320.5975 151.10375 -319.875 152.1875 C-317.73251165 156.13002979 -316.52666182 160.35696418 -315.17626953 164.62011719 C-314.03929221 167.8870981 -312.71117751 170.92840828 -311.2265625 174.05078125 C-308.06137217 180.8205308 -305.10693937 187.65757036 -302.25 194.5625 C-301.52876953 196.25536133 -301.52876953 196.25536133 -300.79296875 197.98242188 C-295.03567842 211.92661112 -294.62703253 225.00465861 -294.62939453 239.89941406 C-294.62500936 242.99339384 -294.58855753 246.0859577 -294.55078125 249.1796875 C-294.47329859 262.72354691 -295.21509401 273.24140528 -303.3671875 284.52734375 C-305.35091246 287.53140571 -306.88705553 290.69786206 -308.4375 293.9375 C-311.40870844 300.08479943 -314.92911603 305.53005329 -319 311 C-319.93849863 312.37431858 -320.87610801 313.74924519 -321.8125 315.125 C-322.534375 316.07375 -323.25625 317.0225 -324 318 C-324.66 318 -325.32 318 -326 318 C-326.24621094 318.57492187 -326.49242187 319.14984375 -326.74609375 319.7421875 C-328.19793053 322.35639827 -329.90287549 324.06336208 -332.0625 326.125 C-334.91571933 328.77905 -334.91571933 328.77905 -337 332 C-337.66 332 -338.32 332 -339 332 C-339 332.66 -339 333.32 -339 334 C-339.66 334 -340.32 334 -341 334 C-341 334.66 -341 335.32 -341 336 C-341.66 336 -342.32 336 -343 336 C-343.33 336.99 -343.66 337.98 -344 339 C-344.66 339 -345.32 339 -346 339 C-346 339.66 -346 340.32 -346 341 C-346.66 341 -347.32 341 -348 341 C-348.66 342.32 -349.32 343.64 -350 345 C-350.66 345 -351.32 345 -352 345 C-352.31710937 345.81597656 -352.31710937 345.81597656 -352.640625 346.6484375 C-354.49581478 349.85770257 -357.03926045 352.1522766 -359.75 354.625 C-360.26304687 355.11484375 -360.77609375 355.6046875 -361.3046875 356.109375 C-364.66967201 359.203808 -367.57466736 360.87379259 -372 362 C-372 362.66 -372 363.32 -372 364 C-372.66 364.66 -373.32 365.32 -374 366 C-376.09221298 372.27663893 -374.73394727 377.76458591 -372.75 383.875 C-369.45228596 394.56406099 -366.56668965 405.33713748 -365.0625 416.4375 C-363.71552976 426.06044956 -360.70411065 435.35399637 -357.90234375 444.63671875 C-357.02276637 447.91514355 -356.49479132 451.07386185 -356.0625 454.4375 C-355.41357394 458.89886668 -354.49876818 462.68109369 -352.78125 466.8203125 C-351.14936025 471.3732849 -350.37428106 476.17965071 -349.42236328 480.91210938 C-348.63588865 484.7999308 -347.81649099 488.68089104 -347 492.5625 C-346.74404053 493.78030151 -346.74404053 493.78030151 -346.48291016 495.02270508 C-344.46883864 504.56978954 -342.31240291 514.04697924 -339.68359375 523.4453125 C-339.04575917 525.82899146 -338.50549405 528.21032593 -338 530.625 C-337.37411668 533.53894858 -336.60196291 536.30966603 -335.625 539.125 C-332.25845867 548.98537741 -329.88989854 558.60055579 -328.78662109 568.93652344 C-327.71236434 578.40010432 -324.98409878 587.47064755 -322.4375 596.625 C-321.00365092 601.79764912 -319.91107635 607.02086932 -318.8125 612.2734375 C-317.96952018 616.13979685 -317.03502947 619.97727161 -316.0625 623.8125 C-311.15951865 643.20862924 -306.69579464 662.74387564 -302.97265625 682.40234375 C-302.16959015 686.45593509 -300.98342668 690.23847779 -299.5625 694.125 C-297.22230804 700.75440262 -295.86906268 707.30950579 -294.7734375 714.24609375 C-294.1116537 718.02005296 -294.1116537 718.02005296 -292.6015625 721.484375 C-290.04770296 727.9569256 -289.19538285 734.9865215 -288 741.8125 C-286.54177446 750.07672743 -285.06432252 758.25358751 -282.74121094 766.3293457 C-281.33407342 771.39939752 -280.26775562 776.55272824 -279.125 781.6875 C-277.13735788 790.47976135 -274.93418914 799.08366051 -272.078125 807.6328125 C-269.81467678 814.70198775 -268.59628774 821.53563294 -267.6875 828.875 C-266.660734 836.59847906 -265.12232273 843.92630421 -262.90917969 851.39111328 C-261.15737003 857.30445579 -259.75925757 863.24495245 -258.51977539 869.28588867 C-257.30627536 875.05018607 -255.6793675 880.66701546 -254.04125977 886.32373047 C-252.38781173 892.16139061 -250.92793024 898.04117816 -249.5 903.9375 C-249.19521729 905.19022705 -248.89043457 906.4429541 -248.57641602 907.73364258 C-246.72134516 915.51722927 -245.18643424 923.28588696 -243.9375 931.1875 C-242.7000214 939.0111222 -240.81419342 946.20919882 -238.14038086 953.65820312 C-236.27191654 958.9285652 -235.09030436 964.10617056 -234.17895508 969.63525391 C-233.18518177 975.46774836 -231.68463258 981.10824332 -230.125 986.8125 C-227.77360108 995.48064455 -225.94392644 1004.15762867 -224.375 1013 C-222.81788227 1021.74662227 -221.10346088 1030.25947566 -218.63037109 1038.79736328 C-217.18398463 1043.85131319 -215.81458674 1048.92682392 -214.4375 1054 C-214.13134766 1055.12535156 -213.82519531 1056.25070312 -213.50976562 1057.41015625 C-211.53866359 1064.74488888 -209.83658951 1072.05868308 -208.5078125 1079.53515625 C-208.24902437 1081.93426847 -208.24902437 1081.93426847 -207 1083 C-206.66747486 1084.86818668 -206.38566892 1086.7454399 -206.125 1088.625 C-204.60268135 1098.9091082 -202.65315955 1109.04604264 -199.78930664 1119.04345703 C-198.95521369 1122.16775818 -198.27961685 1125.29818072 -197.625 1128.46484375 C-196.09410341 1135.69171516 -194.32902428 1142.84364299 -192.5 1150 C-189.82816702 1160.45398407 -187.46320697 1170.94061635 -185.2734375 1181.50537109 C-183.82013488 1188.49720124 -182.20524987 1195.44065682 -180.5 1202.375 C-180.29842285 1203.20725098 -180.0968457 1204.03950195 -179.88916016 1204.89697266 C-178.93054077 1208.74299985 -177.8826573 1212.45369928 -176.44140625 1216.1484375 C-175.02030627 1219.79347257 -174.16687882 1223.39887983 -173.4375 1227.25 C-173.24873291 1228.2258606 -173.24873291 1228.2258606 -173.05615234 1229.22143555 C-172.32108015 1233.0737234 -171.70217204 1236.93411963 -171.125 1240.8125 C-170.34130425 1245.7025024 -169.07880173 1250.38012861 -167.6875 1255.125 C-165.49720747 1262.61610747 -163.95650591 1270.13591952 -162.5625 1277.8125 C-160.87705842 1287.06691023 -158.72106262 1296.00565855 -156.02197266 1305.01318359 C-154.47340796 1310.2144619 -153.31490904 1315.28038784 -152.55078125 1320.66015625 C-150.23320889 1334.71352056 -146.39305434 1348.48161271 -142.37402344 1362.125 C-138.9062436 1374.05538837 -136.929499 1385.61130433 -136 1398 C-134.71270656 1397.56606179 -133.42962842 1397.11960644 -132.1484375 1396.66796875 C-131.43349121 1396.42071045 -130.71854492 1396.17345215 -129.98193359 1395.91870117 C-127.14572778 1394.60401252 -125.76707801 1392.51468793 -124 1390 C-123.34 1390 -122.68 1390 -122 1390 C-121.855625 1389.21625 -121.71125 1388.4325 -121.5625 1387.625 C-121 1385 -121 1385 -120 1383 C-119.34 1383 -118.68 1383 -118 1383 C-117.88527344 1382.13375 -117.77054688 1381.2675 -117.65234375 1380.375 C-116.99259394 1376.96168362 -115.9325797 1374.18736642 -114.5625 1371 C-111.82097287 1364.0437688 -110.78905826 1357.40136651 -110 1350 C-109.69358811 1347.35323526 -109.38302336 1344.70753673 -109.0625 1342.0625 C-108.94225464 1341.0573938 -108.94225464 1341.0573938 -108.81958008 1340.03198242 C-108.2501351 1335.47038217 -107.44217659 1331.00256252 -106.5 1326.5 C-103.94736473 1314.26401679 -102.85685273 1302.11045119 -102.39425659 1289.63537598 C-101.69044785 1271.79084254 -99.27215702 1254.29658814 -96.47583008 1236.67016602 C-94.77261601 1225.74999531 -93.58150404 1215.02103606 -93.3011322 1203.96343994 C-93.00460181 1192.51404666 -91.29004622 1181.20571828 -89.2800293 1169.94189453 C-87.56475363 1160.2294844 -86.39854583 1150.6206903 -85.72128296 1140.78323364 C-84.80946151 1127.67161623 -83.57488532 1114.64501472 -81.94216919 1101.6027832 C-80.63421465 1091.08306212 -79.54651522 1080.54992094 -78.55078125 1069.99609375 C-78.48724142 1069.32514742 -78.42370159 1068.65420109 -78.35823631 1067.96292305 C-77.77609041 1061.81446332 -77.19527732 1055.66589614 -76.63754272 1049.51516724 C-75.31107328 1034.92309255 -73.74323912 1020.45684617 -71.41026306 1005.98895264 C-70.07274001 997.67117172 -69.0723163 989.36454918 -68.275177 980.97961426 C-67.29310563 970.68400016 -66.24744181 960.3995181 -64.8125 950.15625 C-64.71086548 949.43022583 -64.60923096 948.70420166 -64.5045166 947.95617676 C-64.29624633 946.47295576 -64.08778945 944.98976096 -63.87915039 943.5065918 C-61.31158623 925.20898536 -59.7426359 906.87920284 -58.25717163 888.46508789 C-56.88482293 871.59938995 -55.06423825 854.91700331 -52.48025513 838.19552612 C-50.49167281 825.29206108 -49.21141048 812.47841197 -48.3427124 799.4543457 C-47.52549523 787.41765872 -45.98686142 775.64662829 -44 763.75 C-41.69594811 749.95146338 -40.23957211 736.27515045 -39.375 722.3125 C-38.25601915 704.25990976 -36.13854325 686.60954325 -33.11328125 668.765625 C-31.61455647 659.71697362 -30.85282338 650.98864219 -30.6875 641.8125 C-30.47983911 631.94207291 -29.15949563 622.66015875 -27.1875 613 C-24.2796044 598.69106959 -22.92585975 584.43034714 -21.875 569.875 C-21.79631683 568.78551056 -21.71763367 567.69602112 -21.63656616 566.57351685 C-21.51905502 564.9458992 -21.51905502 564.9458992 -21.39916992 563.28540039 C-20.57563814 551.93819803 -19.61439629 540.70387527 -18 529.4375 C-15.8001939 514.0000562 -14.6367698 498.49811002 -13.48242188 482.95288086 C-12.63215526 471.68501428 -11.5100506 460.50099525 -10.05201721 449.29484558 C-9.10516599 441.9942551 -8.37587492 434.72116543 -7.875 427.375 C-7.7289564 425.32014096 -7.58059848 423.26544481 -7.4296875 421.2109375 C-7.34050049 419.91615479 -7.34050049 419.91615479 -7.24951172 418.59521484 C-7 416 -7 416 -6.51586914 413.30737305 C-5.81914897 408.84051638 -5.57886638 404.381647 -5.31640625 399.87109375 C-5.19205827 397.84440098 -5.06770928 395.81770828 -4.94335938 393.79101562 C-4.75381465 390.63913689 -4.56546019 387.48718974 -4.37768555 384.33520508 C-3.58263027 371.06989215 -2.5839898 357.85463168 -1.26028442 344.63174438 C1.03472814 321.42679673 3.17631454 298.1917469 3.8125 274.875 C3.8337796 274.14061707 3.8550592 273.40623413 3.87698364 272.64959717 C4.34423315 263.74036423 4.34423315 263.74036423 3 255 C1.03241727 253.63979849 1.03241727 253.63979849 -1 253 C-1 252.34 -1 251.68 -1 251 C-1.99 250.7215625 -1.99 250.7215625 -3 250.4375 C-9.32328889 247.40759074 -14.09418821 241.90581179 -19 237 C-20.66089257 235.49360906 -22.3281936 233.99426944 -24 232.5 C-27.44087532 229.42345266 -30.73631834 226.26368166 -34 223 C-38.7078182 218.67833792 -43.48510174 214.43740228 -48.3125 210.25 C-53.74144669 205.50373523 -58.51437113 200.33713161 -63.23046875 194.890625 C-64.86863988 192.92091997 -64.86863988 192.92091997 -67 192 C-67 191.34 -67 190.68 -67 190 C-67.66 190 -68.32 190 -69 190 C-69 189.01 -69 188.02 -69 187 C-69.66 187 -70.32 187 -71 187 C-71.86625 185.453125 -71.86625 185.453125 -72.75 183.875 C-74.06793428 181.55821027 -75.42173707 179.38780102 -76.9375 177.1875 C-82.00492451 169.35602575 -84.999598 161.4572564 -87.25 152.4375 C-87.75245678 150.47715727 -88.25751809 148.51747961 -88.765625 146.55859375 C-88.97993164 145.70579834 -89.19423828 144.85300293 -89.41503906 143.97436523 C-89.82427762 142.01668683 -89.82427762 142.01668683 -91 141 C-91.67722591 137.69421928 -92.09013268 134.34047319 -92.5625 131 C-92.70107422 130.07832031 -92.83964844 129.15664062 -92.98242188 128.20703125 C-96.26882342 105.25078794 -89.44496855 77.56346801 -77.0625 57.875 C-76.29292969 56.64330078 -76.29292969 56.64330078 -75.5078125 55.38671875 C-75.01023437 54.59910156 -74.51265625 53.81148437 -74 53 C-73.56429687 52.26394531 -73.12859375 51.52789062 -72.6796875 50.76953125 C-72.26976562 50.08246094 -71.85984375 49.39539063 -71.4375 48.6875 C-70.90962891 47.79611328 -70.90962891 47.79611328 -70.37109375 46.88671875 C-68.50367679 44.31702532 -66.25988369 42.23010484 -64 40 C-62.2875396 38.06614675 -60.57939014 36.12846967 -58.875 34.1875 C-45.35563428 19.15981353 -24.16937983 7.56119109 -4 5 C-2.33372278 4.96397238 -0.66593555 4.95063895 1 5 C0.67 3.35 0.34 1.7 0 0 Z M-27 1726 C-28.26787354 1726.13623779 -29.53574707 1726.27247559 -30.84204102 1726.4128418 C-33.95950025 1726.75815825 -37.07343237 1727.12549775 -40.1875 1727.5 C-49.61561152 1728.5988475 -59.02812198 1729.39270475 -68.5 1730 C-76.55273879 1730.52842113 -84.52598001 1731.17500135 -92.5 1732.4375 C-93.19802734 1732.54771484 -93.89605469 1732.65792969 -94.61523438 1732.77148438 C-98.70978144 1733.47284698 -102.68094752 1734.43547671 -106.6953125 1735.50390625 C-112.03559829 1736.86495022 -117.26599964 1737.57145198 -122.74194336 1738.12646484 C-138.09488638 1739.70498798 -152.93756185 1742.7863626 -167.9375 1746.375 C-168.91555603 1746.60566162 -169.89361206 1746.83632324 -170.90130615 1747.07397461 C-182.97546849 1749.93881523 -194.49673734 1753.32818612 -206 1758 C-214.65067768 1761.4426386 -222.97916882 1764.31654725 -232.0625 1766.375 C-241.38258241 1768.5251065 -248.79306588 1772.21105675 -257 1777 C-260.12223752 1778.59326995 -263.26499931 1780.13653328 -266.4140625 1781.67578125 C-268.19107004 1782.58575943 -269.93459775 1783.56324355 -271.64453125 1784.59375 C-274 1786 -274 1786 -277.0625 1787.1875 C-285.86816354 1790.85493471 -293.6697728 1797.38120177 -301.29296875 1803.01953125 C-303.066288 1804.31689468 -304.86031492 1805.58652127 -306.67578125 1806.82421875 C-316.98913185 1813.94356497 -326.29996721 1823.09995784 -334 1833 C-334 1833.66 -334 1834.32 -334 1835 C-334.66 1835 -335.32 1835 -336 1835 C-337.47309111 1837.10019014 -338.81309635 1839.17767729 -340.125 1841.375 C-340.49753906 1841.97828125 -340.87007812 1842.5815625 -341.25390625 1843.203125 C-343.3272824 1846.37345777 -343.3272824 1846.37345777 -344 1850 C-344.66 1850 -345.32 1850 -346 1850 C-347.85789303 1853.1212603 -349.03379982 1855.19752694 -348.87890625 1858.875 C-347.79320103 1862.73528521 -346.15765253 1864.50827942 -343.375 1867.375 C-342.46492188 1868.32890625 -341.55484375 1869.2828125 -340.6171875 1870.265625 C-339.32167969 1871.61914062 -339.32167969 1871.61914062 -338 1873 C-336.82443178 1874.36739734 -335.65659291 1875.74151565 -334.5 1877.125 C-328.55868808 1883.93100989 -321.88773574 1889.51894102 -314.35107422 1894.45605469 C-312.14049728 1895.90773574 -309.95811488 1897.39292832 -307.78125 1898.89453125 C-297.86274 1905.68305733 -287.81522485 1911.75041826 -277 1917 C-275.93362305 1917.51771973 -275.93362305 1917.51771973 -274.84570312 1918.04589844 C-259.81348352 1925.23786334 -244.06194967 1930.33966269 -228.08203125 1934.98046875 C-225.41216986 1935.86365484 -222.86393805 1936.86021121 -220.265625 1937.9296875 C-215.23892664 1939.96558706 -210.1643744 1941.50799087 -204.9375 1942.9375 C-194.15772565 1945.92174742 -194.15772565 1945.92174742 -189.66796875 1947.390625 C-180.60792453 1950.32229498 -171.75928067 1951.92650486 -162.27978516 1952.92456055 C-156.62469668 1953.54067332 -151.41740332 1954.64355459 -145.95605469 1956.21972656 C-140.23623921 1957.72951598 -134.39646082 1958.61131885 -128.5625 1959.5625 C-127.90924744 1959.6708316 -127.25599487 1959.77916321 -126.58294678 1959.89077759 C-117.51590207 1961.39098347 -108.45767722 1962.6606998 -99.29125977 1963.36743164 C-95.05308889 1963.70718466 -91.18365692 1964.41502283 -87.08056641 1965.51635742 C-83.22915781 1966.41164496 -79.306373 1966.70368421 -75.375 1967.0625 C-73.73681479 1967.21833366 -72.09878843 1967.3758476 -70.4609375 1967.53515625 C-69.39045166 1967.63389038 -69.39045166 1967.63389038 -68.29833984 1967.73461914 C-66.60167717 1967.93052655 -64.91266335 1968.19552689 -63.23168945 1968.49780273 C-59.4370215 1969.08748559 -55.66248506 1969.31572996 -51.83203125 1969.5 C-51.04924301 1969.54033356 -50.26645477 1969.58066711 -49.45994568 1969.6222229 C-46.91098262 1969.75222861 -44.36179468 1969.87667771 -41.8125 1970 C-40.9306604 1970.04324402 -40.0488208 1970.08648804 -39.14025879 1970.13104248 C-34.68891411 1970.34906794 -30.23740278 1970.56305177 -25.78564453 1970.77246094 C-21.92808485 1970.95422632 -18.07147597 1971.15101522 -14.21484375 1971.3515625 C20.96235414 1973.05747055 56.22112476 1972.24679744 91.38940048 1970.78239441 C93.65417287 1970.68887616 95.91905711 1970.59868075 98.18399048 1970.50915527 C118.81433376 1969.68357911 139.22617919 1968.27067965 159.55155945 1964.44244385 C163.02338338 1963.81507018 166.49866412 1963.37151976 170 1962.9375 C175.07806272 1962.3106319 175.07806272 1962.3106319 180 1961 C182.26896319 1960.84470974 184.54042512 1960.72492371 186.8125 1960.625 C195.23002632 1960.15645028 203.28948516 1958.61900218 211.40771484 1956.31738281 C219.68802511 1953.97302091 228.03866917 1952.41142344 236.50390625 1950.89453125 C242.16142355 1949.84832369 247.53678877 1948.63181122 252.95751953 1946.70068359 C256.21365039 1945.58365089 259.52336009 1944.84814597 262.875 1944.0625 C268.34392123 1942.73572403 273.59722942 1941.20963199 278.85546875 1939.18359375 C281.38914879 1938.22992288 283.92381809 1937.33736167 286.48828125 1936.47265625 C302.96509021 1930.90230256 318.28444755 1924.397843 333.1328125 1915.296875 C335.77437107 1913.68654543 338.44505083 1912.25245882 341.2265625 1910.8984375 C344.15429727 1909.464154 346.7044276 1907.9342232 349.25 1905.875 C350.36955078 1904.97394531 350.36955078 1904.97394531 351.51171875 1904.0546875 C352.33285156 1903.37664062 353.15398438 1902.69859375 354 1902 C354.97582031 1901.19820312 355.95164062 1900.39640625 356.95703125 1899.5703125 C359.9891601 1897.0677399 362.99532253 1894.53545386 366 1892 C367.10214844 1891.08734375 367.10214844 1891.08734375 368.2265625 1890.15625 C382.24534607 1878.3156838 392.75604324 1862.9159191 398.8828125 1845.609375 C399.11030832 1840.5438015 397.51785577 1835.99869405 394.45556641 1831.96630859 C392.62113592 1829.99629195 390.72051098 1828.14611638 388.75 1826.3125 C388.10675781 1825.68794922 387.46351563 1825.06339844 386.80078125 1824.41992188 C380.20306739 1816.97212312 380.20306739 1816.97212312 372 1813 C372 1812.34 372 1811.68 372 1811 C370.55235738 1809.70958086 369.03910851 1808.49232866 367.5 1807.3125 C364.1402609 1804.70253318 360.8950005 1802.05213224 357.75 1799.1875 C354.37182178 1796.19227316 350.72414453 1793 346 1793 C346 1792.34 346 1791.68 346 1791 C342.17141527 1789.05212356 338.42229739 1787.1704007 334.4375 1785.5625 C331.73542137 1784.33428244 329.97739034 1783.31736923 327.6875 1781.5625 C323.49560547 1778.43267741 318.88725582 1776.77153311 314 1775 C309.03104928 1773.1780514 304.17036765 1771.22918135 299.3125 1769.125 C292.60863576 1766.22781676 285.84818751 1763.53722263 279 1761 C278.35160156 1760.75749512 277.70320313 1760.51499023 277.03515625 1760.26513672 C268.01922812 1756.90972868 259.06645747 1754.09526971 249.68359375 1751.95703125 C246 1751 246 1751 242.39648438 1749.57275391 C237.68252749 1747.78371168 232.91585502 1746.81694151 227.97265625 1745.87890625 C227.02547226 1745.69287338 226.07828827 1745.50684052 225.10240173 1745.31517029 C222.09032159 1744.72447202 219.07658626 1744.14286704 216.0625 1743.5625 C212.11504687 1742.79722016 208.16847431 1742.02757186 204.22265625 1741.25390625 C202.78280869 1740.97208496 202.78280869 1740.97208496 201.31387329 1740.68457031 C194.67766051 1739.3708984 188.09515528 1737.89391549 181.51881409 1736.31010437 C176.69981775 1735.1517605 171.89924675 1734.12263345 167 1733.375 C166.23276611 1733.25511719 165.46553223 1733.13523437 164.67504883 1733.01171875 C156.9596778 1731.87605033 149.2081767 1731.32389874 141.43334961 1730.7668457 C134.91845797 1730.28497066 128.51754142 1729.54990493 122.0625 1728.5625 C92.56498141 1724.3593668 62.95171986 1723.7083327 33.20790863 1723.68947983 C30.84231133 1723.68752464 28.47673642 1723.68240894 26.11114502 1723.6769104 C8.31465416 1723.64624995 -9.2935336 1723.99686111 -27 1726 Z " fill="#A77524" transform="translate(1894,49)"/>
<path d="M0 0 C0.66 0 1.32 0 2 0 C2 4.62 2 9.24 2 14 C1.34 14 0.68 14 0 14 C-0.89214652 11.32356043 -1.13540211 9.74615622 -1.125 7 C-1.12757813 6.319375 -1.13015625 5.63875 -1.1328125 4.9375 C-1 3 -1 3 0 0 Z " fill="#A77524" transform="translate(2870,582)"/>
<path d="" fill="#A77524" transform="translate(0,0)"/>
<path d="" fill="#A77524" transform="translate(0,0)"/>
<path d="" fill="#A77524" transform="translate(0,0)"/>
</svg>
