<?xml version="1.0" encoding="UTF-8"?>
<svg version="1.1" xmlns="http://www.w3.org/2000/svg" width="1029" height="414">
<path d="M0 0 C2.43567882 0.00141265 4.87135976 0.00061427 7.30703735 -0.00221252 C12.52235968 -0.00334511 17.73739875 0.01068466 22.95263481 0.03897667 C30.49267735 0.07985353 38.03256921 0.09265839 45.57271052 0.09891663 C57.810116 0.1098222 70.04735352 0.14299412 82.28466797 0.19042969 C94.16226367 0.2364226 106.03981353 0.27176666 117.91748047 0.29296875 C118.65132752 0.29428237 119.38517458 0.29559598 120.14125942 0.29694941 C123.82326522 0.30347525 127.50527134 0.30979364 131.18727767 0.31600893 C161.66606897 0.36772538 192.14465653 0.45606319 222.62329102 0.56762695 C221.18134496 4.25034986 219.5604852 7.65847124 217.63891602 11.1184082 C217.04071045 12.19687012 216.44250488 13.27533203 215.82617188 14.38647461 C215.1754445 15.55115555 214.52447799 16.71570291 213.87329102 17.88012695 C213.54104523 18.47653992 213.20879944 19.07295288 212.8664856 19.68743896 C207.63708684 29.0734112 202.27320479 38.37471657 196.82983398 47.63842773 C192.01887363 55.84185351 187.35908257 64.12416651 182.72802734 72.43017578 C177.63682674 81.55929881 172.46277593 90.63873363 167.26293945 99.70629883 C164.46617567 104.58689316 161.67683454 109.47173037 158.88668823 114.35610962 C157.1988169 117.31083749 155.51070752 120.26542932 153.82250977 123.2199707 C153.48306839 123.81404221 153.14362701 124.40811371 152.79389954 125.02018738 C150.60376442 128.85286762 148.41241382 132.6848507 146.2203064 136.5164032 C144.73331171 139.1155887 143.24670641 141.71499681 141.76013184 144.31442261 C141.04751808 145.56024164 140.33471081 146.80595001 139.6217041 148.05154419 C138.63346864 149.77798279 137.64594053 151.50482623 136.65844727 153.23168945 C136.09520752 154.2160498 135.53196777 155.20041016 134.95166016 156.21459961 C134.14270125 157.64756155 133.35919786 159.09581326 132.62329102 160.56762695 C164.63329102 160.56762695 196.64329102 160.56762695 229.62329102 160.56762695 C230.28329102 158.91762695 230.94329102 157.26762695 231.62329102 155.56762695 C232.56673827 153.74948638 233.54075245 151.94702769 234.53735352 150.1574707 C235.12508545 149.09987549 235.71281738 148.04228027 236.31835938 146.95263672 C236.95523682 145.8149585 237.59211426 144.67728027 238.24829102 143.50512695 C238.92096789 142.29935515 239.59357395 141.09354384 240.26611328 139.88769531 C247.28775978 127.31710836 254.44369798 114.82315042 261.60968018 102.33447266 C264.65943169 97.01838867 267.70497493 91.69989726 270.74829102 86.38012695 C271.07976135 85.80087463 271.41123169 85.22162231 271.75274658 84.62481689 C277.11307007 75.25382104 282.41295624 65.85023561 287.65332031 56.41162109 C290.35880416 51.55118105 293.10393877 46.72706749 295.97485352 41.9621582 C296.496521 41.09018799 297.01818848 40.21821777 297.55566406 39.31982422 C298.52884816 37.70195498 299.51394391 36.0911655 300.51318359 34.48925781 C300.94010498 33.77777588 301.36702637 33.06629395 301.80688477 32.33325195 C302.18385498 31.72255859 302.5608252 31.11186523 302.94921875 30.48266602 C304.17520128 26.9996501 302.92653566 24.26177445 301.5 20.99633789 C301.04439697 20.10720703 300.58879395 19.21807617 300.11938477 18.30200195 C299.62631836 17.33004883 299.13325195 16.3580957 298.62524414 15.35668945 C298.10897461 14.35379883 297.59270508 13.3509082 297.06079102 12.31762695 C296.03703435 10.31324586 295.01481029 8.30808097 293.99438477 6.30200195 C293.53990967 5.41738281 293.08543457 4.53276367 292.6171875 3.62133789 C291.62329102 1.56762695 291.62329102 1.56762695 291.62329102 0.56762695 C298.89966661 0.49779123 306.17596869 0.4446467 313.45261288 0.41219044 C316.83229945 0.39660469 320.21175496 0.37549839 323.59130859 0.34130859 C327.48614504 0.30474746 331.38065747 0.28785929 335.27563477 0.2746582 C337.07616554 0.25143242 337.07616554 0.25143242 338.91307068 0.22773743 C348.19622234 0.22589307 356.23975587 1.50996313 363.61547852 7.49731445 C368.16710754 12.19062843 371.2894684 17.98644533 374.62329102 23.56762695 C376.25844975 26.26488689 377.8984628 28.95916497 379.53833008 31.65356445 C380.72321346 33.60160413 381.90614673 35.55083123 383.0871582 37.5012207 C389.43318179 47.96237802 396.00997832 58.27400726 402.62329102 68.56762695 C403.73063599 67.88941895 403.73063599 67.88941895 404.86035156 67.19750977 C417.87957352 59.2331892 430.90805512 51.31718564 444.19311523 43.80126953 C449.82171694 40.61194534 455.39580232 37.3459184 460.93579102 34.00512695 C462.11334961 33.2956189 462.11334961 33.2956189 463.31469727 32.57177734 C465.05510129 31.52304204 466.79549794 30.47429449 468.53588867 29.42553711 C474.34898266 25.92738392 480.1681295 22.43952552 485.99472046 18.96389771 C487.39267638 18.12898036 488.78970082 17.29250102 490.18569946 16.45431519 C505.0677408 7.52068549 517.56237236 0.19792057 535.34204102 0.37231445 C536.44052368 0.37514435 537.53900635 0.37797424 538.67077637 0.38088989 C542.15506202 0.39202209 545.63908397 0.41711397 549.12329102 0.44262695 C551.49568312 0.45266574 553.86807928 0.46179002 556.24047852 0.4699707 C562.03483825 0.49193861 567.82904579 0.52534649 573.62329102 0.56762695 C572.38278718 4.57839407 570.91912149 8.12429014 568.85766602 11.77856445 C568.0281543 13.25583008 568.0281543 13.25583008 567.18188477 14.76293945 C566.58504883 15.81223633 565.98821289 16.8615332 565.37329102 17.94262695 C564.75067383 19.04606445 564.12805664 20.14950195 563.48657227 21.28637695 C558.69608872 29.74924326 553.80255435 38.15022994 548.88061523 46.53710938 C544.0560178 54.77581978 539.37756956 63.09109125 534.72827148 71.4296875 C529.63704493 80.55900438 524.46286627 89.6385761 519.26293945 98.70629883 C516.46617567 103.58689316 513.67683454 108.47173037 510.88668823 113.35610962 C509.1988169 116.31083749 507.51070752 119.26542932 505.82250977 122.2199707 C505.48306839 122.81404221 505.14362701 123.40811371 504.79389954 124.02018738 C502.60376442 127.85286762 500.41241382 131.6848507 498.2203064 135.5164032 C496.73331171 138.1155887 495.24670641 140.71499681 493.76013184 143.31442261 C493.04751808 144.56024164 492.33471081 145.80595001 491.6217041 147.05154419 C490.63346864 148.77798279 489.64594053 150.50482623 488.65844727 152.23168945 C488.09520752 153.2160498 487.53196777 154.20041016 486.95166016 155.21459961 C486.14270125 156.64756155 485.35919786 158.09581326 484.62329102 159.56762695 C493.67318398 159.6840805 502.72281439 159.77262312 511.77329636 159.82668781 C515.97698403 159.85265173 520.1801547 159.88780367 524.38354492 159.94482422 C528.44902796 159.99962147 532.51401744 160.02914647 536.57984161 160.04201317 C538.12184659 160.0511684 539.66382816 160.06904385 541.20561981 160.09627724 C556.94636111 160.36295757 567.62803122 155.90469701 579.18579102 145.19262695 C579.99016602 144.32637695 580.79454102 143.46012695 581.62329102 142.56762695 C582.16985352 142.03782227 582.71641602 141.50801758 583.27954102 140.9621582 C590.25049196 133.8055057 594.85096327 125.13538559 599.8527832 116.57104492 C602.72240725 111.70313056 605.67494917 106.88608979 608.62005615 102.06359863 C614.89651177 91.78100947 621.08106358 81.44705205 627.21072388 71.07635498 C649.53838884 33.32684396 649.53838884 33.32684396 658.62329102 24.56762695 C659.26524414 23.93985352 659.90719727 23.31208008 660.56860352 22.6652832 C667.90175361 15.88137715 676.32838863 10.9521876 685.37329102 6.81762695 C686.26467773 6.39513672 686.26467773 6.39513672 687.17407227 5.96411133 C699.62929394 0.51657701 712.86711117 0.13271767 726.20703125 0.22705078 C727.91365545 0.22789933 729.62028073 0.22741748 731.3269043 0.22572327 C735.91067928 0.22487077 740.49421351 0.24237413 745.07793307 0.26344514 C749.88650173 0.28233782 754.69507732 0.28397222 759.50367737 0.28752136 C768.58742604 0.29680514 777.67106498 0.3213687 786.75476557 0.35156983 C797.10556602 0.38522874 807.45637201 0.4016286 817.80721366 0.41665614 C839.07930043 0.44792196 860.35128878 0.50061028 881.62329102 0.56762695 C880.27845956 3.33793112 878.93396093 5.56914378 876.90063477 7.88793945 C876.09916016 8.80760498 876.09916016 8.80760498 875.28149414 9.74584961 C874.71366211 10.38828613 874.14583008 11.03072266 873.56079102 11.69262695 C872.9787793 12.35697754 872.39676758 13.02132813 871.79711914 13.70581055 C870.07777846 15.66447511 868.35195107 17.61718621 866.62329102 19.56762695 C866.15810059 20.09356445 865.69291016 20.61950195 865.21362305 21.16137695 C854.78708955 32.92669494 844.82400487 43.68059755 828.42706299 46.02452469 C825.1309564 46.19393646 821.86878001 46.21829796 818.56860352 46.17944336 C817.33603317 46.18510818 816.10346283 46.19077301 814.83354187 46.1966095 C812.18225331 46.20541715 809.53281774 46.20547754 806.88174438 46.18977737 C802.68693302 46.16521039 798.49267441 46.17705272 794.29785156 46.19345093 C786.91506021 46.21780199 779.5325273 46.21218767 772.14971924 46.199646 C761.01052009 46.18096534 749.87136779 46.18594186 738.73220444 46.21968019 C734.56454227 46.23116729 730.39729054 46.22679519 726.22965145 46.20965981 C723.03403131 46.19990193 719.83844668 46.20893457 716.64282227 46.21459961 C715.49367844 46.2053093 714.34453461 46.19601898 713.16056824 46.18644714 C712.10388443 46.19175949 711.04720062 46.19707184 709.95849609 46.20254517 C708.585924 46.19971747 708.585924 46.19971747 707.18562317 46.19683266 C704.04320165 46.65157151 702.18843111 47.72152129 699.62329102 49.56762695 C698.04753114 51.69727235 696.70601854 53.73255521 695.37329102 56.00512695 C694.95619873 56.69413086 694.53910645 57.38313477 694.109375 58.09301758 C693.15021133 59.67924191 692.19605719 61.2685019 691.24584961 62.86010742 C689.46809413 65.82659979 687.6666528 68.77784086 685.86157227 71.7277832 C678.10016218 84.4289457 670.45393125 97.19534552 662.87329102 110.00512695 C656.05576767 121.52473273 649.13785973 132.97092628 642.02709961 144.31274414 C640.64273634 146.5363927 639.28041565 148.77211085 637.92407227 151.01293945 C620.99062364 178.870781 597.57149813 196.02800858 566.0793457 204.10986328 C559.38070168 205.74089439 552.84847605 206.69352506 545.93507385 206.68788147 C544.62967148 206.68925613 543.3242691 206.6906308 541.97930908 206.69204712 C540.55017066 206.68850887 539.12103248 206.68487407 537.69189453 206.68115234 C536.17363995 206.68087 534.65538524 206.68102912 533.13713074 206.68159485 C529.03022617 206.68188099 524.92335098 206.67601387 520.81645322 206.66902089 C516.51898934 206.66275686 512.22152474 206.66218114 507.92405701 206.66099548 C499.79277756 206.65789115 491.66151161 206.64968988 483.53023809 206.63964599 C474.27027798 206.62845695 465.01031722 206.62296738 455.75035203 206.61795056 C436.70799071 206.60750651 417.66564195 206.58992448 398.62329102 206.56762695 C399.58499114 204.80398312 400.54675461 203.04037383 401.50854492 201.27677917 C402.31190781 199.80360875 402.31190781 199.80360875 403.13150024 198.3006773 C411.32775748 183.28464146 419.67749435 168.37450024 428.35180664 153.62939453 C432.72477073 146.17118403 436.94656198 138.63724125 441.12329102 131.06762695 C447.60636524 119.32026614 454.31671442 107.71990613 461.11206055 96.15112305 C464.32980195 90.65029276 467.4761272 85.10903168 470.62329102 79.56762695 C462.71793563 83.41144402 455.05821031 87.52299963 447.49829102 92.00512695 C445.38926815 93.24530932 443.2798804 94.48487133 441.17016602 95.72387695 C440.09186523 96.3580957 439.01356445 96.99231445 437.90258789 97.64575195 C432.53334386 100.79246793 427.14121912 103.89923079 421.74829102 107.00512695 C420.68296143 107.61904297 419.61763184 108.23295898 418.52001953 108.86547852 C416.34311647 110.11988193 414.16611371 111.37411233 411.98901367 112.62817383 C408.47435851 114.65344734 404.96073632 116.68050174 401.44750977 118.70825195 C400.85736084 119.04885147 400.26721191 119.38945099 399.65917969 119.7403717 C396.82636345 121.37532602 393.99360102 123.0103735 391.16088867 124.64550781 C389.17859511 125.78935624 387.19557942 126.93195461 385.21166992 128.07299805 C383.60533353 129.00055807 382.00268643 129.9345777 380.40600586 130.87866211 C375.83252777 133.56762695 375.83252777 133.56762695 373.62329102 133.56762695 C372.1496582 131.54589844 372.1496582 131.54589844 370.42016602 128.6887207 C369.77611816 127.63297852 369.13207031 126.57723633 368.46850586 125.48950195 C367.76995982 124.32812847 367.07155828 123.16666807 366.37329102 122.00512695 C365.65602154 120.82373232 364.93807845 119.64274642 364.21948242 118.4621582 C362.741822 116.03202173 361.2682725 113.59946588 359.7980957 111.16479492 C357.76233158 107.7945647 355.71417119 104.43201904 353.66235352 101.0715332 C348.28190822 92.25716379 342.92693721 83.42845173 337.62329102 74.56762695 C335.24144077 77.60306371 333.2965924 80.74473421 331.39282227 84.09887695 C330.44802002 85.75826294 330.44802002 85.75826294 329.48413086 87.45117188 C328.80130608 88.65663151 328.1185274 89.86211725 327.43579102 91.06762695 C326.72203657 92.32339882 326.00800179 93.57901138 325.29370117 94.83447266 C324.18379548 96.78552076 323.07417937 98.73672964 321.96563721 100.68855286 C319.48674737 105.05312587 316.99838621 109.41214538 314.50219727 113.7668457 C308.111186 124.91937872 301.75696341 136.09002264 295.49829102 147.31762695 C290.76673638 155.79009653 285.98448338 164.23128942 281.12329102 172.63012695 C280.27806885 174.1020752 280.27806885 174.1020752 279.41577148 175.60375977 C271.12319951 189.85282853 262.0289875 200.98768246 245.80504131 206.14569569 C243.00738329 206.68673808 240.35877534 206.69696024 237.508255 206.70133972 C236.25363968 206.70560471 234.99902435 206.70986969 233.70639038 206.71426392 C232.31842038 206.71391441 230.9304504 206.71345288 229.54248047 206.71289062 C228.07867853 206.71588333 226.61487738 206.71928611 225.15107727 206.72306824 C221.17562579 206.73190348 217.20019584 206.73424622 213.2247355 206.73488402 C210.7387973 206.73559507 208.25286456 206.73773047 205.76692772 206.74038124 C197.08761625 206.74963473 188.40832014 206.75371633 179.72900391 206.75292969 C171.65044606 206.75232964 163.57195514 206.76286702 155.49341422 206.77867335 C148.54972277 206.79177296 141.60605311 206.79711253 134.6623494 206.79647428 C130.51887198 206.7962199 126.37545398 206.79903743 122.23198891 206.80965233 C118.33072315 206.8193735 114.42957311 206.81938508 110.52830315 206.8121357 C109.10174006 206.81109467 107.67516962 206.81342392 106.24861908 206.81949615 C94.60358362 206.86582623 83.89265577 206.57868941 75.08422852 198.08325195 C69.55978237 191.81575165 69.22601806 186.18570083 69.38500977 178.1105957 C70.51742137 161.27293459 82.4530307 145.2366109 90.77954102 131.1105957 C94.78296313 124.31525935 98.71307818 117.47930849 102.62329102 110.63012695 C103.12635773 109.7496167 103.12635773 109.7496167 103.6395874 108.85131836 C108.89541497 99.64817588 114.09752213 90.41538029 119.22875977 81.14208984 C125.51379358 69.84088373 132.10267694 58.74582252 138.62329102 47.56762695 C69.32329102 47.23762695 0.02329102 46.90762695 -71.37670898 46.56762695 C-61.69621449 27.20663797 -52.58340036 9.57306516 -31.12180609 2.23735124 C-21.04555038 -0.79960878 -10.41255733 -0.08505307 0 0 Z " fill="#E9E8EB" transform="translate(142.376708984375,13.432373046875)"/>
<path d="M0 0 C156.75 0 313.5 0 475 0 C472.03 6.27 469.06 12.54 466 19 C464.56527344 22.04347656 464.56527344 22.04347656 463.1015625 25.1484375 C460.43865249 30.78400755 457.73344759 36.39831757 455 42 C454.53271484 42.95890137 454.06542969 43.91780273 453.58398438 44.90576172 C445.6364115 61.06747543 438.56034581 73.16741017 421.38282871 80.55582142 C414.18229686 82.90346737 406.6101414 82.4030491 399.1247406 82.36076355 C397.4010547 82.36207281 395.67736939 82.36470145 393.95368725 82.36853105 C389.23088971 82.37522425 384.50829712 82.36325938 379.78552568 82.34819686 C374.68747692 82.33522396 369.58943941 82.33962685 364.49137878 82.34190369 C355.66319994 82.34347563 346.83508768 82.33407469 338.00692558 82.31719017 C325.24294439 82.29279402 312.47899535 82.28499426 299.71499337 82.2812262 C279.00553397 82.27466269 258.29611006 82.25470422 237.58666992 82.22631836 C217.47111183 82.19877521 197.35556338 82.17754287 177.23999023 82.16479492 C175.99976459 82.16400675 174.75953894 82.16321858 173.48173069 82.16240653 C167.25979282 82.15849137 161.03785488 82.15470026 154.8159169 82.15097082 C103.21057975 82.11987803 51.60530824 82.06457659 0 82 C0 54.94 0 27.88 0 0 Z " fill="#EA5D0F" transform="translate(472,262)"/>
<path d="M0 0 C61.38 0 122.76 0 186 0 C181.72006369 8.55987261 174.58018396 15.53765488 168.09472656 22.51098633 C164.33375428 26.57659999 160.81283318 30.80231181 157.36328125 35.13671875 C156.58339844 36.08160156 155.80351562 37.02648437 155 38 C154.35892303 39.10974686 154.35892303 39.10974686 153.70489502 40.24191284 C151.42349857 43.62931563 149.25624361 46.4717014 145.10494041 47.44372749 C140.17567387 47.93078369 135.250106 47.63528549 130.31539726 47.34206963 C127.44920202 47.18095792 124.58910442 47.09264613 121.71925354 47.02540588 C113.57026526 46.82833078 105.4289442 46.55692511 97.28979492 46.10571289 C75.37348681 43.67864139 75.37348681 43.67864139 55.66290283 50.54766846 C50.31200792 56.360266 47.35070845 63.60518203 45.01234436 71.07044983 C44 74 44 74 41 79 C81.92 79.33 122.84 79.66 165 80 C161.40839211 84.78881051 158.20529452 89.02818512 154.1875 93.3125 C150.8290922 96.95203013 147.60769533 100.64425766 144.5 104.5 C140.59809025 109.33753642 136.48591413 113.93468202 132.26171875 118.4921875 C129.93361106 120.8702773 129.93361106 120.8702773 128.60574341 123.61729431 C124.3461514 127.51228799 119.6136031 126.68734169 114.04638672 126.63110352 C112.82316208 126.63825882 111.59993744 126.64541412 110.33964539 126.65278625 C106.98545675 126.66680377 103.63280846 126.65835482 100.27874517 126.63869596 C96.76135196 126.62229134 93.24400841 126.63112588 89.72659302 126.63621521 C83.81336823 126.64073776 77.90045954 126.62486558 71.98730469 126.59692383 C65.17079586 126.56495972 58.35485991 126.56485238 51.53831089 126.5821386 C44.96551266 126.59806702 38.39292249 126.59122405 31.82013321 126.57420158 C29.03167235 126.56736526 26.24338 126.56832833 23.45492172 126.57574654 C19.54639046 126.58491085 15.6384346 126.56074118 11.72998047 126.53344727 C10.58467361 126.53997314 9.43936676 126.54649902 8.25935364 126.55322266 C-0.39989162 126.4508746 -7.01794715 124.55452447 -14.3125 119.875 C-20.04895415 113.73832812 -23.19871383 106.43114376 -23 98 C-22.04842589 78.14382024 -5.55100171 57.79111583 4.3828125 41.4140625 C4.89996826 40.55014893 5.41712402 39.68623535 5.94995117 38.79614258 C6.91688932 37.18172246 7.89563088 35.57429314 8.88793945 33.9753418 C9.31550537 33.25773682 9.74307129 32.54013184 10.18359375 31.80078125 C10.74904907 30.87519409 10.74904907 30.87519409 11.32592773 29.9309082 C12.53725147 26.46102068 11.35011048 23.76786891 9.87670898 20.53637695 C9.42110596 19.69550537 8.96550293 18.85463379 8.49609375 17.98828125 C8.00302734 17.06595703 7.50996094 16.14363281 7.00195312 15.19335938 C6.48568359 14.24267578 5.96941406 13.29199219 5.4375 12.3125 C4.41171264 10.41472984 3.38939077 8.51508105 2.37109375 6.61328125 C1.6893811 5.35704956 1.6893811 5.35704956 0.99389648 4.07543945 C0 2 0 2 0 0 Z " fill="#E9E8EB" transform="translate(23,94)"/>
<path d="M0 0 C11 0 11 0 13.53393555 2.17138672 C14.062854 3.16412598 14.59177246 4.15686523 15.13671875 5.1796875 C15.73291016 6.25347656 16.32910156 7.32726562 16.94335938 8.43359375 C17.51892578 9.56925781 18.09449219 10.70492188 18.6875 11.875 C19.30560547 13.00292969 19.92371094 14.13085938 20.56054688 15.29296875 C25 23.50325305 25 23.50325305 25 26 C25.66 26 26.32 26 27 26 C27.21527344 25.21238281 27.43054688 24.42476563 27.65234375 23.61328125 C29.44349638 18.81091551 31.95946831 14.59032312 34.5625 10.1875 C35.06974609 9.31673828 35.57699219 8.44597656 36.09960938 7.54882812 C39.83828712 1.16171288 39.83828712 1.16171288 41 0 C44.63 0 48.26 0 52 0 C52 17.16 52 34.32 52 52 C47.71 52 43.42 52 39 52 C38.67 44.41 38.34 36.82 38 29 C36.02 32.63 34.04 36.26 32 40 C27.71 40 23.42 40 19 40 C16.525 35.545 16.525 35.545 14 31 C13.67 37.93 13.34 44.86 13 52 C8.71 52 4.42 52 0 52 C0 34.84 0 17.68 0 0 Z " fill="#FEFDFD" transform="translate(646,277)"/>
<path d="M0 0 C4.29 0 8.58 0 13 0 C16.18842438 3.45862983 17.82642059 5.95098702 20 10 C21.28459424 12.09071209 22.59859719 14.1607275 23.91894531 16.22900391 C25.97259336 19.46927753 27.98172199 22.737578 30 26 C30.33 17.42 30.66 8.84 31 0 C35.62 0 40.24 0 45 0 C45 17.16 45 34.32 45 52 C40.38 52 35.76 52 31 52 C27.65371124 48.57663741 26.00547613 46.44896898 23.875 42.375 C23.35164062 41.47136719 22.82828125 40.56773437 22.2890625 39.63671875 C21.31041546 37.94385708 20.35287388 36.23846265 19.42529297 34.51708984 C17.76670377 31.58799518 15.86716681 28.80075022 14 26 C13.67 34.58 13.34 43.16 13 52 C8.71 52 4.42 52 0 52 C0 34.84 0 17.68 0 0 Z " fill="#FEFCFB" transform="translate(770,277)"/>
<path d="M0 0 C6.29007634 4.58015267 6.29007634 4.58015267 8 8 C8.13559318 11.00474497 8.04299016 13.99068847 8 17 C3.71 17 -0.58 17 -5 17 C-5.66 15.02 -6.32 13.04 -7 11 C-10.69486103 8.53675931 -12.63293092 8.61008312 -17 9 C-19.08984231 10.08674994 -19.08984231 10.08674994 -20 12 C-19.59812242 14.08714256 -19.59812242 14.08714256 -19 16 C-18.443125 16.12117188 -17.88625 16.24234375 -17.3125 16.3671875 C-15.70862535 16.7193897 -14.1058246 17.07650431 -12.50390625 17.4375 C-10.97241958 17.78154693 -9.43893471 18.1170192 -7.90234375 18.4375 C-2.22416749 19.70182553 3.55155142 21.48949397 7.6953125 25.73828125 C10.37767769 30.38824964 9.75442307 35.83848881 9 41 C6.93971801 45.59661398 3.59056023 48.05837348 -1 49.9375 C-9.13973459 52.11999207 -17.9065224 52.42661728 -25.625 48.8125 C-30.35030113 46.07353235 -33.24913811 43.25258567 -35 38 C-35.03954234 35.66700175 -35.04401732 33.33291811 -35 31 C-30.71 31 -26.42 31 -22 31 C-21.319375 32.7015625 -21.319375 32.7015625 -20.625 34.4375 C-19.42904194 38.04721692 -19.42904194 38.04721692 -17 39 C-14.89044938 39.19738723 -14.89044938 39.19738723 -12.5625 39.1875 C-11.78003906 39.20167969 -10.99757813 39.21585937 -10.19140625 39.23046875 C-7.70794013 39.14086064 -7.70794013 39.14086064 -5 37 C-5.495 34.525 -5.495 34.525 -6 32 C-7.258125 31.731875 -8.51625 31.46375 -9.8125 31.1875 C-11.54188053 30.79260208 -13.2710297 30.39669016 -15 30 C-16.38638672 29.70802734 -16.38638672 29.70802734 -17.80078125 29.41015625 C-24.15576964 27.9246887 -28.62126416 25.94328983 -33 21 C-34.97325184 17.05349633 -34.44349901 12.30133287 -34 8 C-31.34371023 2.68742046 -28.41827754 -0.06230055 -22.9375 -2.1875 C-15.28391262 -4.12553286 -6.9480351 -3.96403687 0 0 Z " fill="#FEFBFA" transform="translate(863,279)"/>
<path d="M0 0 C3.96 0 7.92 0 12 0 C15.22657087 3.43018942 17.1311486 5.9451582 19.375 9.9375 C19.93832031 10.86369141 20.50164062 11.78988281 21.08203125 12.74414062 C22.19931565 14.58262823 23.30093636 16.43073746 24.38574219 18.28857422 C26.77128903 22.29551361 29.36963838 26.15082089 32 30 C31.99476318 29.12674072 31.98952637 28.25348145 31.98413086 27.35375977 C31.96712249 24.12410727 31.95456631 20.89447755 31.94506836 17.66479492 C31.9400292 16.26504772 31.93319784 14.8653058 31.92456055 13.46557617 C31.9124768 11.45754223 31.90730193 9.44947043 31.90234375 7.44140625 C31.89710693 6.23170166 31.89187012 5.02199707 31.88647461 3.77563477 C32 1 32 1 33 0 C36.63 0 40.26 0 44 0 C44 16.83 44 33.66 44 51 C40.04 51 36.08 51 32 51 C28.94103154 47.61328492 27.21138271 44.91347728 25 41 C23.48923603 38.67637108 21.94416243 36.37837742 20.39086914 34.08300781 C17.90612734 30.40284277 15.45674223 26.69891527 13 23 C12.67 32.24 12.34 41.48 12 51 C8.04 51 4.08 51 0 51 C0 34.17 0 17.34 0 0 Z " fill="#EAE9EC" transform="translate(392,278)"/>
<path d="M0 0 C12.54 0 25.08 0 38 0 C38 3.63 38 7.26 38 11 C30.08 11 22.16 11 14 11 C14 13.97 14 16.94 14 20 C20.6 20 27.2 20 34 20 C34 23.63 34 27.26 34 31 C27.4 31 20.8 31 14 31 C14 34.3 14 37.6 14 41 C22.25 41 30.5 41 39 41 C39 44.63 39 48.26 39 52 C26.13 52 13.26 52 0 52 C0 34.84 0 17.68 0 0 Z " fill="#FEFBF9" transform="translate(569,277)"/>
<path d="M0 0 C3.96 0 7.92 0 12 0 C17.82762635 13.50904924 23.6512754 27.01905155 29.25 40.625 C29.63212646 41.54748535 30.01425293 42.4699707 30.40795898 43.42041016 C30.75286377 44.26394043 31.09776855 45.1074707 31.453125 45.9765625 C31.90413574 47.07605225 31.90413574 47.07605225 32.36425781 48.19775391 C33 50 33 50 33 52 C28.05 52 23.1 52 18 52 C16.02 46.555 16.02 46.555 14 41 C8.72 41 3.44 41 -2 41 C-3.32 44.63 -4.64 48.26 -6 52 C-10.95 52 -15.9 52 -21 52 C-18.61317458 43.06748669 -15.11279514 34.6969163 -11.52978516 26.19433594 C-10.49739506 23.74381682 -9.47271784 21.29018161 -8.44921875 18.8359375 C-7.7895085 17.26022986 -7.12936724 15.68470259 -6.46875 14.109375 C-6.16553833 13.3842572 -5.86232666 12.6591394 -5.54992676 11.91204834 C-3.84032542 7.86167575 -2.01341504 3.91190914 0 0 Z " fill="#FEFCFB" transform="translate(728,277)"/>
<path d="M0 0 C6.93 -0.0928125 6.93 -0.0928125 14 -0.1875 C16.16175781 -0.22846802 16.16175781 -0.22846802 18.3671875 -0.27026367 C25.27965588 -0.31500612 30.79605438 -0.181124 37 3 C42.37922732 8.65508513 42.34356643 12.95601267 42.28125 20.56640625 C41.90780383 25.12556156 41.20441774 26.79558226 38 30 C36.34946333 31.02640464 34.68463089 32.03056896 33 33 C33.33322266 33.47421387 33.66644531 33.94842773 34.00976562 34.43701172 C35.51135304 36.57966145 37.00574182 38.72723333 38.5 40.875 C39.02464844 41.62136719 39.54929688 42.36773437 40.08984375 43.13671875 C40.58613281 43.85214844 41.08242187 44.56757813 41.59375 45.3046875 C42.05458984 45.96452637 42.51542969 46.62436523 42.99023438 47.30419922 C44 49 44 49 44 51 C39.37152338 51.99339323 35.5974424 52.242552 31 51 C26.24505068 46.98232862 23.14543441 41.29266019 20 36 C19.40445313 35.11699219 18.80890625 34.23398437 18.1953125 33.32421875 C17 31 17 31 17 26 C20.96 25.34 24.92 24.68 29 24 C29.226875 22.618125 29.45375 21.23625 29.6875 19.8125 C29.81511719 19.03519531 29.94273437 18.25789063 30.07421875 17.45703125 C30.18144256 14.37992573 30.18144256 14.37992573 27 10 C22.05 9.67 17.1 9.34 12 9 C12 22.86 12 36.72 12 51 C8.04 51 4.08 51 0 51 C0 34.17 0 17.34 0 0 Z " fill="#EAE9EC" transform="translate(109,350)"/>
<path d="M0 0 C33.12379227 0 33.12379227 0 39.66015625 6.3671875 C42.92439866 10.34518554 43.46174847 14.86193635 43.31640625 19.91015625 C42.74139388 23.70807744 41.23496161 26.8939032 39 30 C36.25 32 36.25 32 34 33 C35.43227625 37.13852452 37.47942543 40.21222014 40.125 43.6875 C44 48.78291815 44 48.78291815 44 51 C39.46609578 51.75681863 35.50835638 52.00298265 31 51 C27.1317971 47.50864208 24.64135623 43.45830559 22 39 C21.26394531 37.9584375 20.52789062 36.916875 19.76953125 35.84375 C17.59248363 32.3450951 17.67630027 30.04624658 18 26 C18.61488281 25.97421875 19.22976562 25.9484375 19.86328125 25.921875 C24.82112572 25.66368084 24.82112572 25.66368084 29.0625 23.375 C30.35622147 20.09757227 30.31730339 17.49033727 30 14 C28.27773504 10.75150023 28.27773504 10.75150023 25 10 C20.71 9.67 16.42 9.34 12 9 C12 22.86 12 36.72 12 51 C8.04 51 4.08 51 0 51 C0 34.17 0 17.34 0 0 Z " fill="#EAE9EC" transform="translate(109,278)"/>
<path d="M0 0 C4.64562156 4.16914755 7.18510768 7.36796289 7.59863281 13.62597656 C7.64427921 16.56326915 7.67275663 19.49988268 7.6875 22.4375 C7.708125 23.44941406 7.72875 24.46132813 7.75 25.50390625 C7.78713289 32.66127146 7.40649038 39.04885303 2.25 44.5 C-5.57191981 49.19315189 -12.50511893 50.18525312 -21.5625 49.1875 C-27.40456339 47.59187035 -31.68739299 44.91028666 -35.5625 40.1875 C-37.21390946 35.23327163 -36.8267443 30.08980335 -36.85766602 24.90063477 C-36.87485018 22.89250808 -36.91875424 20.88466826 -36.96289062 18.87695312 C-36.97126953 17.60142578 -36.97964844 16.32589844 -36.98828125 15.01171875 C-37.00286377 13.84729248 -37.01744629 12.68286621 -37.0324707 11.4831543 C-36.29868182 6.33748356 -33.81778453 3.26345817 -29.9375 -0.0625 C-20.42386455 -4.99549616 -9.58633662 -4.87725898 0 0 Z M-23.18994141 8.41040039 C-25.1163768 10.90462366 -24.95042047 12.68127968 -24.9609375 15.80859375 C-24.96480469 16.90880859 -24.96867188 18.00902344 -24.97265625 19.14257812 C-24.96105469 20.29177734 -24.94945312 21.44097656 -24.9375 22.625 C-24.94910156 23.77033203 -24.96070313 24.91566406 -24.97265625 26.09570312 C-24.96878906 27.19720703 -24.96492187 28.29871094 -24.9609375 29.43359375 C-24.95755371 30.44091553 -24.95416992 31.4482373 -24.95068359 32.48608398 C-24.50380957 35.59593375 -23.74332175 36.95383896 -21.5625 39.1875 C-17.85235899 40.42421367 -14.41811242 40.75118603 -10.5625 40.1875 C-7.7524654 38.39386089 -6.05309532 37.16869065 -4.5625 34.1875 C-4.32164654 30.56781652 -4.3773042 26.93930726 -4.375 23.3125 C-4.35663086 21.80236328 -4.35663086 21.80236328 -4.33789062 20.26171875 C-4.33595703 19.29105469 -4.33402344 18.32039063 -4.33203125 17.3203125 C-4.32586792 15.98830811 -4.32586792 15.98830811 -4.31958008 14.62939453 C-4.58305335 11.98089236 -5.11390178 10.41092983 -6.5625 8.1875 C-12.48590049 4.58195188 -17.49570045 4.13160457 -23.18994141 8.41040039 Z " fill="#EAE9EC" transform="translate(202.5625,280.8125)"/>
<path d="M0 0 C4.08396367 4.38279028 4.60268146 8.23888117 5 14 C1.04 14 -2.92 14 -7 14 C-7.45375 12.865625 -7.9075 11.73125 -8.375 10.5625 C-9.57095806 6.95278308 -9.57095806 6.95278308 -12 6 C-17.6503378 5.42543739 -17.6503378 5.42543739 -22.5625 7.75 C-24.20384458 9.85377614 -24.20384458 9.85377614 -23.9375 12.125 C-23.02196448 14.34367958 -23.02196448 14.34367958 -20 16 C-16.72491962 16.65645884 -13.46035642 17.19886604 -10.15625 17.6796875 C-4.18954554 18.66666117 0.81251071 20.53025402 4.9375 25.1875 C6.68863309 29.8228523 6.85906702 34.23909909 5.37890625 38.99609375 C2.93111517 44.05486199 -0.84041367 46.1388635 -6 48 C-9.02618517 48.52342836 -11.93510135 48.56276243 -15 48.5 C-15.75539063 48.51546875 -16.51078125 48.5309375 -17.2890625 48.546875 C-23.60521639 48.50346501 -28.68139016 46.70547644 -33.6015625 42.69433594 C-36.39646617 39.80770009 -37.29183875 37.52308954 -37.3125 33.625 C-37.209375 32.42875 -37.10625 31.2325 -37 30 C-33.37 30 -29.74 30 -26 30 C-25.566875 30.94875 -25.13375 31.8975 -24.6875 32.875 C-23.20697799 36.20041937 -23.20697799 36.20041937 -20 38 C-17.58849742 38.31662439 -17.58849742 38.31662439 -15 38.25 C-13.700625 38.25773437 -13.700625 38.25773437 -12.375 38.265625 C-9.734205 38.15414552 -9.734205 38.15414552 -7 36 C-6.7497843 32.91634129 -6.7497843 32.91634129 -7 30 C-12.25284127 27.64075843 -17.66276825 26.922281 -23.30859375 25.9765625 C-28.13645006 24.69935184 -31.38914597 22.66874941 -34.84765625 19.0859375 C-37.09998765 15.00883591 -36.58740586 10.50344492 -36 6 C-33.82596402 1.49088833 -31.50906984 -0.85819183 -27 -3 C-18.187513 -5.75632853 -7.85966359 -4.86694553 0 0 Z " fill="#EAE9EC" transform="translate(37,353)"/>
<path d="M0 0 C3.30945102 2.16033608 5.82451999 4.59640011 7.6875 8.1015625 C8.15879297 10.96943034 7.99578997 13.17280777 7.6875 16.1015625 C4.0575 16.1015625 0.4275 16.1015625 -3.3125 16.1015625 C-3.76625 14.9671875 -4.22 13.8328125 -4.6875 12.6640625 C-5.88345806 9.05434558 -5.88345806 9.05434558 -8.3125 8.1015625 C-14.39766056 7.86822963 -14.39766056 7.86822963 -20.3125 9.1015625 C-20.3125 11.7415625 -20.3125 14.3815625 -20.3125 17.1015625 C-19.73806152 17.20178711 -19.16362305 17.30201172 -18.57177734 17.40527344 C-15.94086244 17.87282672 -13.31440218 18.36198685 -10.6875 18.8515625 C-9.33205078 19.08746094 -9.33205078 19.08746094 -7.94921875 19.328125 C-1.37890934 20.57504503 4.41768452 22.6158393 8.6875 28.1015625 C10.07636985 32.63736531 9.90273671 36.41053937 8.5 40.9140625 C6.18477604 44.98566326 4.45022151 47.37170621 0.07421875 49.18359375 C-7.44765556 51.22239475 -17.85177478 51.79183846 -25.0625 48.4765625 C-29.1087316 45.87606309 -32.66301934 42.78672882 -33.8359375 37.9375 C-34.08896483 36.00218283 -34.21168024 34.05074457 -34.3125 32.1015625 C-30.3525 32.1015625 -26.3925 32.1015625 -22.3125 32.1015625 C-22.044375 33.0503125 -21.77625 33.9990625 -21.5 34.9765625 C-20.56263412 38.35423523 -20.56263412 38.35423523 -17.3125 40.1015625 C-14.67278052 40.45638551 -14.67278052 40.45638551 -11.8125 40.4140625 C-10.8534375 40.43082031 -9.894375 40.44757813 -8.90625 40.46484375 C-6.28549035 40.30721835 -6.28549035 40.30721835 -4.46484375 38.7421875 C-3.05880513 37.08601707 -3.05880513 37.08601707 -3.375 34.5390625 C-4.0674584 32.02368974 -4.0674584 32.02368974 -6.0078125 31.0078125 C-8.72010872 29.94128246 -11.23770172 29.55323621 -14.125 29.1640625 C-21.59542686 27.98260813 -27.52868502 26.43308233 -32.3125 20.1015625 C-33.65841969 14.53842779 -33.63900273 10.46263401 -31.3125 5.1015625 C-23.22601119 -2.98492631 -10.53271768 -4.85776203 0 0 Z " fill="#EAE9EC" transform="translate(279.3125,350.8984375)"/>
<path d="M0 0 C31.8 0 31.8 0 39 6 C42.9576611 10.50354539 42.97514095 16.2409878 43 22 C42.25840362 27.65467239 40.26365222 30.20818106 36.046875 33.73828125 C30.70977313 37.02813603 25.68968269 37.26756939 19.625 37.125 C18.52091797 37.11146484 18.52091797 37.11146484 17.39453125 37.09765625 C15.5962112 37.07430144 13.79806089 37.03843836 12 37 C12 41.62 12 46.24 12 51 C8.04 51 4.08 51 0 51 C0 34.17 0 17.34 0 0 Z M12 9 C12 15.27 12 21.54 12 28 C15.34125 28.12375 15.34125 28.12375 18.75 28.25 C20.62945312 28.31960938 20.62945312 28.31960938 22.546875 28.390625 C26.05046682 28.3021781 26.05046682 28.3021781 28.390625 26.109375 C31.28124137 22.32070306 31.40399227 19.76710873 31 15 C28.86320715 11.61060444 27.8225233 10.27417443 24 9 C19.99616868 8.86600297 16.0072645 8.95691113 12 9 Z " fill="#EAE9EC" transform="translate(225,278)"/>
<path d="M0 0 C3.96 0 7.92 0 12 0 C12.01981934 1.09989258 12.03963867 2.19978516 12.06005859 3.33300781 C12.13619901 7.41836222 12.22490336 11.50336438 12.31738281 15.58837891 C12.35563771 17.3555607 12.3904967 19.12281944 12.421875 20.89013672 C12.46760152 23.43224563 12.52558289 25.97382648 12.5859375 28.515625 C12.59748871 29.30430969 12.60903992 30.09299438 12.62094116 30.90557861 C12.73296247 36.27133725 12.73296247 36.27133725 15 41 C18.18503287 42.59251643 21.5332405 42.39129761 25 42 C28.23613354 40.25746655 28.82395315 39.52814056 30 36 C30.15370348 33.27116927 30.25728265 30.56302858 30.31640625 27.83203125 C30.33718735 27.03721848 30.35796844 26.2424057 30.37937927 25.42350769 C30.44472087 22.88659237 30.50368808 20.34957427 30.5625 17.8125 C30.60569986 16.09178628 30.64931463 14.37108292 30.69335938 12.65039062 C30.80038648 8.43369887 30.90169724 4.2169038 31 0 C34.63 0 38.26 0 42 0 C42.09913284 5.72911572 42.1715934 11.45772839 42.21972656 17.1875 C42.23979906 19.13517966 42.26706332 21.08279937 42.30175781 23.03027344 C42.35046852 25.83543721 42.37301241 28.63980187 42.390625 31.4453125 C42.41127014 32.31116974 42.43191528 33.17702698 42.45318604 34.06912231 C42.45520488 39.55116562 41.65086878 42.64515395 38 47 C30.99908502 52.49534186 23.51982071 52.53501244 15 52 C9.14781555 50.97114822 5.85335141 48.35271956 2.12890625 43.81640625 C-0.63124933 39.37532547 -0.12987227 34.35626736 -0.09765625 29.296875 C-0.0962413 28.45908508 -0.09482635 27.62129517 -0.09336853 26.75811768 C-0.08778197 24.08870843 -0.07523194 21.4193838 -0.0625 18.75 C-0.05748326 16.93750121 -0.05292066 15.12500111 -0.04882812 13.3125 C-0.03781694 8.87496752 -0.02056155 4.43749809 0 0 Z " fill="#EAE9EB" transform="translate(51,278)"/>
<path d="M0 0 C0.75728394 0.00202423 1.51456787 0.00404846 2.2947998 0.00613403 C3.06787476 0.00517731 3.84094971 0.00422058 4.63745117 0.00323486 C6.27502524 0.00255313 7.91260199 0.00440697 9.5501709 0.00857544 C12.06536901 0.01392382 14.58038854 0.00863027 17.09558105 0.00222778 C18.68282103 0.00288857 20.2700609 0.00416973 21.8572998 0.00613403 C22.99322571 0.00309769 22.99322571 0.00309769 24.15209961 0 C29.46109849 0.02399522 29.46109849 0.02399522 30.5760498 1.13894653 C30.5760498 3.77894653 30.5760498 6.41894653 30.5760498 9.13894653 C22.3260498 9.13894653 14.0760498 9.13894653 5.5760498 9.13894653 C5.5760498 13.09894653 5.5760498 17.05894653 5.5760498 21.13894653 C12.5060498 21.13894653 19.4360498 21.13894653 26.5760498 21.13894653 C26.5760498 23.77894653 26.5760498 26.41894653 26.5760498 29.13894653 C25.5760498 30.13894653 25.5760498 30.13894653 23.62658691 30.25247192 C22.79393311 30.24723511 21.9612793 30.24199829 21.10339355 30.23660278 C20.20427246 30.23338013 19.30515137 30.23015747 18.37878418 30.22683716 C17.43325684 30.21845825 16.48772949 30.21007935 15.5135498 30.20144653 C14.56415527 30.19693481 13.61476074 30.1924231 12.63659668 30.18777466 C10.28305449 30.17594781 7.92954449 30.15801175 5.5760498 30.13894653 C5.5760498 34.09894653 5.5760498 38.05894653 5.5760498 42.13894653 C13.8260498 42.13894653 22.0760498 42.13894653 30.5760498 42.13894653 C30.5760498 45.10894653 30.5760498 48.07894653 30.5760498 51.13894653 C18.3660498 51.13894653 6.1560498 51.13894653 -6.4239502 51.13894653 C-6.44685327 44.03644897 -6.46678217 36.9340785 -6.47888184 29.83157349 C-6.48392369 27.41327481 -6.49075698 24.9949792 -6.49938965 22.57669067 C-6.51146176 19.1091537 -6.51717983 15.64165687 -6.52160645 12.17410278 C-6.52676773 11.0855751 -6.53192902 9.99704742 -6.5372467 8.87553406 C-6.53732224 7.87457199 -6.53739777 6.87360992 -6.53747559 5.84231567 C-6.5396962 4.95629166 -6.54191681 4.07026764 -6.54420471 3.15739441 C-6.29585941 -1.01103161 -3.52873468 0.01594891 0 0 Z " fill="#EAE9EC" transform="translate(6.4239501953125,277.8610534667969)"/>
<path d="M0 0 C3.63 0 7.26 0 11 0 C15.36964819 9.35983813 19.30414186 18.87808377 23.21313477 28.4375 C24.32471243 31.15485443 25.44047006 33.87046686 26.55664062 36.5859375 C27.26326689 38.30979499 27.96965608 40.03374969 28.67578125 41.7578125 C29.01007645 42.57122101 29.34437164 43.38462952 29.688797 44.22268677 C32 49.88479172 32 49.88479172 32 51 C27.71 51 23.42 51 19 51 C15 41.25 15 41.25 15 39 C9.06 39.33 3.12 39.66 -3 40 C-4.32 43.63 -5.64 47.26 -7 51 C-11.29 51 -15.58 51 -20 51 C-18.04284135 44.96477474 -15.90239035 39.07214882 -13.49609375 33.203125 C-13.17214127 32.40646423 -12.84818878 31.60980347 -12.51441956 30.78900146 C-11.49142716 28.27491282 -10.46456415 25.76242759 -9.4375 23.25 C-8.74517935 21.55088853 -8.05311988 19.85167062 -7.36132812 18.15234375 C-5.83991787 14.41568837 -4.31600833 10.68006339 -2.78977966 6.94537354 C-1.85129254 4.63370599 -0.92658549 2.31646373 0 0 Z M5 14 C4.16080602 16.26882087 3.32848276 18.53977027 2.5 20.8125 C2.26152344 21.45509766 2.02304687 22.09769531 1.77734375 22.75976562 C0.72931254 25.64933739 0 27.90076061 0 31 C3.96 31 7.92 31 12 31 C11.21563093 28.5391169 10.42291109 26.08149031 9.625 23.625 C9.40328125 22.92632812 9.1815625 22.22765625 8.953125 21.5078125 C7.62845587 17.37952197 7.62845587 17.37952197 5 14 Z " fill="#E9E9EB" transform="translate(349,278)"/>
<path d="M0 0 C11.88 0 23.76 0 36 0 C36 2.97 36 5.94 36 9 C27.75 9 19.5 9 11 9 C11 12.96 11 16.92 11 21 C17.93 21 24.86 21 32 21 C32 23.97 32 26.94 32 30 C25.07 30 18.14 30 11 30 C11 33.96 11 37.92 11 42 C19.25 42 27.5 42 36 42 C36 44.97 36 47.94 36 51 C24.12 51 12.24 51 0 51 C0 34.17 0 17.34 0 0 Z " fill="#EAE9EB" transform="translate(283,278)"/>
<path d="M0 0 C11.88 0 23.76 0 36 0 C36 2.97 36 5.94 36 9 C28.08 9 20.16 9 12 9 C12 12.63 12 16.26 12 20 C18.6 20 25.2 20 32 20 C32 22.97 32 25.94 32 29 C25.4 29 18.8 29 12 29 C12 33.29 12 37.58 12 42 C20.25 42 28.5 42 37 42 C37 44.64 37 47.28 37 50 C24.79 50 12.58 50 0 50 C0 33.5 0 17 0 0 Z " fill="#E9E8EB" transform="translate(195,350)"/>
<path d="M0 0 C11.88 0 23.76 0 36 0 C36 2.97 36 5.94 36 9 C28.08 9 20.16 9 12 9 C12 12.63 12 16.26 12 20 C18.6 20 25.2 20 32 20 C32 22.97 32 25.94 32 29 C25.4 29 18.8 29 12 29 C12 33.29 12 37.58 12 42 C20.25 42 28.5 42 37 42 C37 44.64 37 47.28 37 50 C24.79 50 12.58 50 0 50 C0 33.5 0 17 0 0 Z " fill="#E9E8EB" transform="translate(58,350)"/>
<path d="M0 0 C4.62 0 9.24 0 14 0 C14 13.53 14 27.06 14 41 C21.92 41 29.84 41 38 41 C38 44.63 38 48.26 38 52 C25.46 52 12.92 52 0 52 C0 34.84 0 17.68 0 0 Z " fill="#FEFAF8" transform="translate(521,277)"/>
<path d="M0 0 C3.63 0 7.26 0 11 0 C11 16.5 11 33 11 50 C7.37 50 3.74 50 0 50 C0 33.5 0 17 0 0 Z " fill="#E9E8EB" transform="translate(168,350)"/>
<path d="M0 0 C2.9375 1.6875 2.9375 1.6875 5 4 C5 5.65 5 7.3 5 9 C9.29 9 13.58 9 18 9 C18 7.02 18 5.04 18 3 C18.33 3 18.66 3 19 3 C19 5.31 19 7.62 19 10 C16.02128482 10.22423695 13.04314074 10.42969368 10.0625 10.625 C9.23169922 10.68945312 8.40089844 10.75390625 7.54492188 10.8203125 C1.82326505 11.1765246 -3.54968141 10.94491476 -9 9 C-9.66 8.34 -10.32 7.68 -11 7 C-10.8125 4.5 -10.8125 4.5 -10 2 C-6.2626144 -0.4915904 -4.42668417 -0.45793285 0 0 Z " fill="#EB6A23" transform="translate(853,287)"/>
<path d="M0 0 C2 1 2 1 2.8515625 2.9609375 C3.10679687 3.75757813 3.36203125 4.55421875 3.625 5.375 C3.88539063 6.16648437 4.14578125 6.95796875 4.4140625 7.7734375 C5 10 5 10 5 13 C2.03 13 -0.94 13 -4 13 C-3.52140759 11.39566191 -3.04210442 9.79153584 -2.5625 8.1875 C-2.29566406 7.29417969 -2.02882813 6.40085937 -1.75390625 5.48046875 C-1.19612127 3.64526945 -0.60655425 1.81966274 0 0 Z " fill="#EC6E29" transform="translate(733,294)"/>
</svg>
