<?xml version="1.0" encoding="UTF-8"?>
<svg id="BANSDEAU_LONG" xmlns="http://www.w3.org/2000/svg" xmlns:xlink="http://www.w3.org/1999/xlink" version="1.1" viewBox="0 0 1036.67 99.64">
  <!-- Generator: Adobe Illustrator 30.2.0, SVG Export Plug-In . SVG Version: 2.1.1 Build 105)  -->
  <defs>
    <style>
      .st0 {
        fill: none;
      }

      .st1 {
        fill-rule: evenodd;
      }

      .st1, .st2 {
        fill: #fff;
      }

      .st3 {
        fill: #1d1e1c;
      }

      .st4 {
        clip-path: url(#clippath-1);
      }

      .st5 {
        clip-path: url(#clippath-2);
      }

      .st6 {
        clip-path: url(#clippath);
      }
    </style>
    <clipPath id="clippath">
      <rect class="st0" x="354.38" y="48.4" width="79.66" height="11.27"/>
    </clipPath>
    <clipPath id="clippath-1">
      <rect class="st0" x="354.38" y="48.4" width="79.66" height="11.27"/>
    </clipPath>
    <clipPath id="clippath-2">
      <rect class="st0" x="354.38" y="48.4" width="79.66" height="11.27"/>
    </clipPath>
  </defs>
  <g id="BOSCH">
    <path class="st1" d="M929.62,53.24c1.17-.45,1.94-1.58,1.92-2.84,0-2.56-1.81-3.82-4.3-3.82h-6.53v13.89h7.1c2.18,0,4.33-1.53,4.33-3.87,0-2.77-2.51-3.34-2.51-3.36h0ZM924.12,49.46h2.53c.68-.04,1.27.48,1.31,1.16v.15c-.01.71-.6,1.28-1.32,1.27h-2.53v-2.58h0ZM926.67,57.56h-2.56v-2.73h2.49c1.25,0,1.83.55,1.83,1.35,0,1-.74,1.38-1.77,1.38h.01Z"/>
    <path class="st1" d="M939.65,46.22c-4.02,0-6.38,3.21-6.38,7.27s2.36,7.27,6.38,7.27,6.38-3.19,6.38-7.27-2.34-7.27-6.38-7.27ZM939.65,57.45c-1.97,0-2.95-1.77-2.95-3.95s.98-3.93,2.95-3.93,2.97,1.77,2.97,3.93-1,3.95-2.97,3.95Z"/>
    <path class="st1" d="M953.43,52.03l-.48-.11c-1.18-.24-2.12-.55-2.12-1.4,0-.92.9-1.29,1.68-1.29,1.08.02,2.11.48,2.84,1.29l2.16-2.14c-.98-1.11-2.58-2.18-5.07-2.18-2.93,0-5.16,1.64-5.16,4.37,0,2.49,1.79,3.71,3.98,4.17l.48.11c1.81.37,2.49.66,2.49,1.53s-.74,1.38-1.88,1.38c-1.35,0-2.58-.59-3.52-1.79l-2.21,2.18c1.22,1.46,2.77,2.6,5.77,2.6,2.6,0,5.37-1.49,5.37-4.52.04-3.17-2.36-3.78-4.35-4.19h.02Z"/>
    <path class="st1" d="M965.55,57.45c-1.53,0-3.12-1.27-3.12-4.04,0-2.47,1.49-3.84,3.04-3.84,1.22,0,1.94.57,2.51,1.55l2.8-1.86c-1.4-2.12-3.06-3.01-5.35-3.01-4.19,0-6.47,3.25-6.47,7.19s2.51,7.36,6.42,7.36c2.75,0,4.06-.96,5.48-3.01l-2.82-1.9c-.57.92-1.18,1.57-2.49,1.57h0Z"/>
    <polygon class="st1" points="980.1 46.57 980.1 51.68 975.88 51.68 975.88 46.57 972.24 46.57 972.24 60.47 975.88 60.47 975.88 54.98 980.1 54.98 980.1 60.47 983.75 60.47 983.75 46.57 980.1 46.57"/>
    <path class="st2" d="M899.69,43.03c-5.81,0-10.53,4.71-10.53,10.53s4.71,10.53,10.53,10.53,10.53-4.71,10.53-10.53-4.72-10.53-10.53-10.53ZM899.69,63.11c-5.27,0-9.55-4.27-9.55-9.55s4.27-9.55,9.55-9.55,9.55,4.27,9.55,9.55h0c0,5.27-4.28,9.54-9.55,9.55Z"/>
    <path class="st2" d="M904.04,46.99h-.72v3.6h-7.23v-3.6h-.74c-3.63,2.4-4.63,7.28-2.24,10.91.59.89,1.35,1.65,2.24,2.24h.74v-3.6h7.23v3.6h.72c3.63-2.4,4.63-7.28,2.24-10.91-.59-.89-1.35-1.65-2.24-2.24ZM895.08,58.72c-2.85-2.53-3.1-6.89-.57-9.74.18-.2.37-.39.57-.57,0,0,0,10.31,0,10.31ZM903.32,55.53h-7.23v-3.95h7.23v3.95ZM904.3,58.7v-2.18h0v-5.92h0v-2.18c2.84,2.55,3.07,6.93.52,9.77-.16.18-.34.36-.52.52h0Z"/>
  </g>
  <g id="MOTUL">
    <path class="st2" d="M806.66,51.78c-1.12-.15-2.18.37-2.75,1.37-.48.84-.6,2-.09,2.85.36.72,1.11,1.21,1.9,1.28,1.03.09,1.94-.42,2.48-1.28.55-.81.58-2.12.13-2.99-.3-.66-1-1.12-1.67-1.24"/>
    <path class="st2" d="M847.38,61.37h-8.84l1.84-13.93h5.25l-1.18,9.53h4.15l-1.22,4.4h0ZM835.8,60.49c-1.75,1.27-4.08,1.46-6.33,1.15-1.79-.33-3.84-1.49-4.42-3.32-.25-.66-.21-1.45-.21-2.16l1.05-8.71h5.18l-.99,8.65c-.03.52.21,1.05.67,1.27.48.18,1.08.11,1.45-.25.33-.28.45-.67.54-1.08l1.18-8.59h5.05l-1.09,9.53c-.24,1.36-.87,2.64-2.08,3.51M824.32,51.87l-2.18-.09-1.12,9.6h-5.29l1.2-9.58-2.01.07-3.37-4.42h13.22l-.46,4.42h.01ZM813.79,54.66c-.04,2.67-1.79,5.16-4.22,6.28-2.97,1.4-6.94.75-9.27-1.55-2.06-1.96-2.48-5.26-1.4-7.79,1.25-2.82,4.21-4.58,7.26-4.45,1.31.03,2.58.25,3.7.81l.52.4,3.09,3.97c.34.67.36,1.52.33,2.33M797.11,61.39h-4.86l.27-6.08-2.64,6.08h-3.24l-.92-6.17-1.57,6.16h-4.99l4.08-13.92h5.28l.82,5.66,2.36-5.66h5.41v13.94h0ZM775.66,64.86h76.44v-20.89h-76.44v20.89Z"/>
  </g>
  <g id="DHL">
    <polygon class="st2" points="354.42 57.43 354.42 58.14 364.54 58.14 365.06 57.43 354.42 57.43"/>
    <polygon class="st2" points="354.42 55.94 354.42 56.65 365.63 56.65 366.16 55.94 354.42 55.94"/>
    <polygon class="st2" points="354.42 58.91 354.42 59.62 363.45 59.62 363.97 58.91 354.42 58.91"/>
    <polygon class="st2" points="423.92 57.43 423.4 58.14 433.99 58.14 433.99 57.43 423.92 57.43"/>
    <polygon class="st2" points="422.82 58.91 422.31 59.62 433.99 59.62 433.99 58.91 422.82 58.91"/>
    <polygon class="st2" points="425.01 55.94 424.49 56.65 433.99 56.65 433.99 55.94 425.01 55.94"/>
    <g class="st6">
      <g>
        <path class="st2" d="M364.9,59.62l5.05-6.86h6.32c.29,0,.47.05.52.14.05.1-.02.26-.2.52l-.56.77c-.26.36-.53.73-.73.99-.1.14-.26.35-.17.53.08.16.33.23.78.23h8.41c-1.05,1.41-3.31,3.68-7.03,3.68h-12.39Z"/>
        <path class="st2" d="M384.09,59.62c.37-.5,2.52-3.43,2.71-3.68h7.2l-2.71,3.68h-7.2Z"/>
        <path class="st2" d="M394.67,59.62c.37-.5,2.52-3.43,2.71-3.68h7.2l-2.71,3.68h-7.2Z"/>
        <path class="st2" d="M409.14,59.62c-1.59,0-2.71-.42-3.08-1.15-.22-.44-.14-.96.22-1.46.54-.72.72-.97.78-1.06h16.5l-2.71,3.68h-11.72,0Z"/>
        <path class="st2" d="M379.35,55c-.5,0-.66-.1-.7-.18-.06-.12.07-.31.17-.43.18-.25.42-.58.66-.91.23-.32.45-.63.62-.86.21-.29.28-.48.21-.61s-.26-.19-.6-.19h-13.78l2.48-3.37h14.66c1.75,0,3.1.68,3.7,1.86.42.83.38,1.78-.1,2.43-.71.97-1.55,2.11-1.67,2.27h-5.65Z"/>
      </g>
    </g>
    <polygon class="st2" points="402.89 48.45 400.09 52.25 396.71 52.25 399.52 48.45 392.32 48.45 387.49 55 405.27 55 410.09 48.45 402.89 48.45"/>
    <g class="st4">
      <path class="st2" d="M407.76,55c.51-.7,4.57-6.2,4.83-6.55h7.63l-4.82,6.55h-7.64Z"/>
    </g>
    <polygon class="st2" points="354.38 57.38 354.38 58.18 364.56 58.18 365.15 57.38 354.38 57.38"/>
    <polygon class="st2" points="354.38 55.9 354.38 56.7 365.66 56.7 366.24 55.9 354.38 55.9"/>
    <polygon class="st2" points="354.38 58.87 354.38 59.66 363.47 59.66 364.06 58.87 354.38 58.87"/>
    <polygon class="st2" points="423.9 57.38 423.31 58.18 434.04 58.18 434.04 57.38 423.9 57.38"/>
    <polygon class="st2" points="422.8 58.87 422.22 59.67 434.04 59.66 434.04 58.87 422.8 58.87"/>
    <polygon class="st2" points="424.99 55.9 424.4 56.7 434.04 56.7 434.04 55.9 424.99 55.9"/>
    <g class="st5">
      <g>
        <path class="st2" d="M364.81,59.66l5.11-6.95h6.34c.7,0,.69.27.35.73-.35.47-.94,1.28-1.29,1.76-.18.24-.51.69.57.69h8.5c-.71.97-3,3.77-7.12,3.77h-12.47.01Z"/>
        <polygon class="st2" points="394.09 55.9 391.32 59.66 384 59.66 386.78 55.9 394.09 55.9"/>
        <polygon class="st2" points="404.66 55.9 401.89 59.66 394.58 59.66 397.35 55.9 404.66 55.9"/>
        <path class="st2" d="M407.04,55.9s-.53.73-.79,1.08c-.92,1.24-.11,2.69,2.89,2.69h11.74l2.77-3.77h-16.61,0Z"/>
        <path class="st2" d="M368.39,48.4l-2.55,3.46h13.87c.7,0,.69.27.35.73-.35.47-.93,1.29-1.28,1.77-.18.24-.51.69.57.69h5.67s.91-1.24,1.68-2.28c1.04-1.41.09-4.36-3.64-4.36h-14.68,0Z"/>
      </g>
    </g>
    <polygon class="st2" points="402.87 48.4 400.07 52.21 396.8 52.21 399.61 48.4 392.3 48.4 387.4 55.04 405.29 55.04 410.18 48.4 402.87 48.4"/>
    <polygon class="st2" points="420.3 48.4 415.41 55.04 407.67 55.04 412.56 48.4 420.3 48.4"/>
  </g>
  <g id="MICHELIN">
    <g>
      <path class="st3" d="M262.91,40.22s0,.02.01.03c.02.04.04.1.08.18.18.44.57,1.36,1.03,2.18.26.46.51.83.76,1.12-.19.27-.45.73-.6,1.31-.15.6-.08,1.39.18,2.15.11.32.24.61.41.88h0s-.01.05-.02.07c-.19,1.49.45,2.94,1.71,3.89.2.15.41.28.63.4.18.56.56,1.09,1.11,1.52.37.29.8.53,1.24.68h0c.47.68,1.2,1.17,2.1,1.43.23.06.46.11.69.14.01,0,.02.03.04.04.44.42,1.01.75,1.67.93-.11.86,0,1.53.18,2.02h24.56c0-.81-.21-1.61-.65-2.33-.01-.02-.02-.04-.04-.05.15-1.13-.11-2.27-.75-3.22-.69-1.04-1.75-1.74-2.97-1.98-.12-.02-.25-.04-.38-.06h-.05c-1.25-1.21-2.57-1.83-3.04-2.03.02-.07.03-.13.04-.19.02,0,.03,0,.05-.02,1.33-.58,2.13-1.56,2.29-2.84.13-1.01-.15-2.13-.72-2.91v-.04c.14-1.37-.07-2.56-.61-3.54-.44-.8-1.11-1.44-1.89-1.8h-.01c-.22-.73-1.15-1.29-2.15-1.27-.79.02-1.65.39-1.97,1-1.2.43-3.07,1.55-3.63,4.38-.83.62-1.38,1.54-1.51,2.55-.15,1.12.23,2.23.99,3.07-.77,0-2.01.07-3.46.36-.02,0-.03,0-.04,0-1.12-.79-2.57-1.09-3.86-.76-.05,0-.1.04-.14.07-.36-.11-.75-.19-1.18-.24h-.08c-.19-.61-.51-1.16-.95-1.6-.02-.02-.07-.06-.07-.07h0c-.07-.44-.19-.93-.24-1.1-.13-.43-.33-.91-.9-1.49-.36-.36-.75-.59-1.02-.71.05-.14.09-.27.1-.34,0-.03.01-.06.01-.09,0,0,.14-1.38.31-2.19v-.03c.45-2.78.45-2.83.45-2.85v-.02c.02-.25-.07-.49-.24-.69-.21-.23-.54-.36-.89-.36-.5,0-.94.25-1.22.7-.16.26-.28.57-.37.84-.46-.9-1.07-2.08-1.5-2.93,0,0-.02-.03-.02-.04-.15-.25-.5-.55-.98-.55-.14,0-.29.03-.43.08-.21-.18-.47-.28-.75-.28-.14,0-.28.02-.42.07-.49.16-.78.6-.77,1.12-.38.14-.64.45-.72.84-.05.27,0,.5.03.61,0,.02,0,.04.02.08-.01.02-.02.03-.03.05-.27.43-.42,1.22.62,3.84"/>
      <path class="st2" d="M281.9,48.69s.36.03.57.11c.36.14,1.08.83,1.47.89.07,0,.25-.04.05-.17-.05-.04-.5-.44-.34-.65h0c.06-.08.14-.1.22-.09.56.14,1.03.22,1.2.24.1,0,.17.02.21-.02.04-.03.01-.06-.1-.09-.87-.23-1.83-.61-2.5-1.11-.9-.69-1.38-1.78-1.24-2.87.1-.8.52-1.5,1.17-2.01.26-.19.67-.33.79-.38.32-.11-.2-.2-.24-.2-.13-.02-.14-.16-.03-.57.6-1.93,1.94-2.79,3.04-3.16.19-.06.49-.14.69-.17.3-.05.19-.18-.16-.22,0,0-.12,0-.06-.08,0,0,.08-.09.17-.15.25-.16.61-.28,1-.29.71-.02,1.32.38,1.4.74,0,0,.03.07-.06.08-.14,0-.25.06-.06.16.04.02.23.08.5.2.01,0,.03,0,.04.02.54.25,2.21,1.26,2.08,4.13h0c0,.09-.01.17-.02.26,0,.08-.02.16-.03.24-.16-.02-.22.05-.11.16.08.08.28.32.4.51.38.62.56,1.44.46,2.2-.13,1.02-.77,1.65-1.4,2.02-.28.16-.94.49-1.76.67-.17.04-.09.26.69.24.07,0,.21.02.25.09.09.17-.07.49-.4.69-.29.17-.06.21.35.09.12-.02.43.11.47.12.66.29,2.31,1.14,3.55,2.82.86,1.23,1.17,2.21.9,2.82-.26.59-1.04.7-1.05.7h-.01c-3,.47-8.21-.36-11.8-1.41-.64-.19-1.6-.53-2.41-.88.79-1.72.48-3.89-.82-5.36-.02-.02-.03-.04-.05-.06,1.28-.22,2.34-.25,2.96-.24"/>
      <path class="st2" d="M296.6,54.03c.58.86.78,1.9.58,2.91-.17.86-.62,1.63-1.28,2.19.02-.71-.11-1.54-.63-2.2.21-.17.4-.38.53-.68.4-.89.07-2.1-.98-3.6h0s-.04-.06-.07-.09c.75.28,1.39.79,1.85,1.47"/>
      <path class="st2" d="M278.4,49.51c1.2,1.35,1.4,3.41.48,4.89-1.03,1.66-2.88,2.49-4.61,2.05-.25-.06-.49-.15-.7-.26.16-.03.33-.06.48-.1,1.7-.46,2.96-2.02,3.15-3.89.12-1.18-.21-2.36-.92-3.24-.25-.31-.53-.57-.85-.8,1.1,0,2.21.49,2.97,1.35"/>
      <path class="st2" d="M275.67,49.45c.57.72.85,1.69.75,2.67-.16,1.55-1.19,2.83-2.57,3.21-1.16.32-2.28.04-3.05-.47,1.69-.03,3.31-1.19,3.85-2.88.27-.85.25-1.77-.05-2.59-.14-.38-.34-.73-.59-1.04.71.23,1.25.59,1.66,1.1"/>
      <path class="st2" d="M273.04,49.5c.06-.32.09-.64.08-.96.83.8,1.15,2.04.78,3.2-.51,1.6-2.22,2.62-3.8,2.26-.67-.15-1.44-.56-1.92-1.18.29.06.58.09.87.09.55,0,1.1-.11,1.62-.34,1.22-.53,2.1-1.68,2.37-3.09"/>
      <path class="st2" d="M271.86,46.87h0c.42.7.57,1.59.4,2.48-.22,1.15-.93,2.09-1.91,2.51-1.11.48-2.39.31-3.42-.46-.81-.61-1.31-1.48-1.41-2.41h0c.08.07.16.14.25.2.62.45,1.38.68,2.2.68.56,0,.97-.11,1.04-.13,1.44-.41,2.15-1.28,2.49-1.93.18-.34.28-.66.34-.94"/>
      <path class="st2" d="M262.97,36.78s.02,0,.03-.02c.03-.03.06-.04.1-.06h.13s.05,0,.07.02c.23.08.39.37.45.77.15,1.15.69,1.92.72,1.95.03.05.09.07.14.07.03,0,.07,0,.1-.03.08-.06.09-.16.04-.24,0,0-.51-.73-.66-1.79-.07-.54-.32-.92-.67-1.05-.09-.03-.17-.04-.26-.04-.05-.11-.09-.21-.1-.27-.03-.15-.1-.44.23-.55.02,0,.04,0,.06-.02h.03c.24-.03.55.08.86,1.19.29,1.02.94,2.01.96,2.05.03.05.09.08.14.08.03,0,.07,0,.09-.03.08-.05.1-.16.05-.24,0,0-.65-.99-.92-1.96-.13-.48-.32-1-.64-1.26-.04-.12-.1-.25-.11-.29-.06-.16-.11-.53.2-.63.06-.02.12-.03.17-.03.25,0,.37.21.44.37,0,.02.02.05.03.07l1.41,3.37s.02.05.04.06c.05.04.11.05.16.03.08-.03.12-.13.09-.21l-1.37-3.27c.02-.06.07-.12.16-.16s.16-.06.23-.06c.21,0,.31.17.31.17,0,0,1.82,3.57,2.17,4.19-.14.23-.25.46-.27.52-.02.09.04.17.08.09.1-.15.25-.33.37-.47h0s0,0,.01-.02c.09-.15.35-.86.46-1.09.08-.33.22-.76.4-1.05.16-.25.38-.33.56-.33.21,0,.37.1.36.21,0,.05-.45,2.81-.45,2.81-.12.58-.22,1.4-.28,1.88,0,.12-.02.23-.04.35v.04s0,.03-.02.07c-.09.42-.26.74-.26.74l.14.66h0c.06.28.12.57.14.66.1.37-.03.59.04.67.09.1.33-.39.39-.65.05-.21-.03-.62-.1-.92.2.09.5.26.78.54.48.48.61.85.7,1.15.09.31.24.96.25,1.32,0,.35-.11,2.24-2.34,2.86,0,0-.34.1-.83.1s-1.14-.11-1.74-.54c-1.08-.77-1.5-2.44-1.28-3.33.1-.42.28-.75.43-.97.1.06.21.11.32.15l.06.3s.18.89.51,1.15c.19.15.51.16.6.16.1,0,.33,0,.37-.11,0-.02.02-.06-.03-.1-.02-.02-.05-.03-.1-.06-.16-.09-.45-.24-.52-.53-.04-.16-.17-.74-.25-1.08.33-.26.37-.55-.07-.46-.26.05-.5-.07-.69-.21-.87-.76-1.78-3.1-1.96-3.51-.74-1.87-.89-2.88-.66-3.16"/>
      <path class="st2" d="M297.9,59.2h-.96c.31-.37.57-.79.75-1.24.15.4.22.82.21,1.24"/>
      <path class="st2" d="M274.72,57.33c.16.02.33.03.49.03,1.62,0,3.2-.85,4.21-2.33.86.39,1.87.74,2.58.95,1.98.58,4.24,1.05,6.37,1.32,1.34.17,2.57.26,3.64.26.8,0,1.52-.05,2.13-.14.04,0,.2-.03.41-.1.49.51.58,1.25.55,1.88h-20.12c-.19-.38-.36-.99-.26-1.87"/>
      <path class="st3" d="M285.45,44.9c-.02-.07-.1-.07-.13-.07-.08,0-.18.02-.25.05-.2.07-.36.32-.35.46,0,.02,0,.04.02.06.01,0,.03.03.07.03h0s.06-.03.06-.07.03-.11.08-.16.14-.14.4-.19c.04,0,.11-.05.09-.11M287.28,43.46c-.15.24-.33.38-.49.39h-.05c.27-.14.48-.51.52-.95.05-.59-.23-1.1-.63-1.13-.19-.02-.37.08-.52.24.14,0,.26.14.27.33,0,.19-.1.35-.25.36-.12,0-.23-.09-.27-.23-.03.1-.05.2-.06.3-.03.36.06.69.23.9-.02-.02-.05-.04-.07-.07-.12-.15-.21-.39-.25-.67-.02-.13-.02-.25-.01-.39.03-.32.21-1.32,1.02-1.24.61.06.77.51.82.9v.05c.04.39-.03.66-.13.91-.04.1-.09.19-.14.28M287.78,42.55c.01-.68-.08-1.19-.56-1.49-.05-.03-.1-.06-.16-.08-.21-.08-.45-.09-.66-.03-.25.07-.45.25-.58.47-.14.23-.22.49-.27.75-.06.27-.07.53-.04.8.04.27.13.56.3.78.09.11.21.19.33.23.11.04.23.06.35.07,0,0,.2.02.32.02.49-.02.96-.78.97-1.52M289.18,46.2c-.18.14-.37.26-.59.33-.22.07-.45.08-.69.06-.23-.02-.45-.07-.66-.17-.23-.11-.42-.27-.59-.44.82.2,1.69.31,2.53.22M289.66,45.81c-.5.11-1.02.13-1.54.08-.84-.07-1.69-.26-2.47-.59-.07-.03-.14-.06-.21-.09-.03-.02-.07-.04-.1-.05h0c-.11-.04-.22.04-.23.15,0,.09.05.14.12.18.21.11.44.19.66.27.19.09.34.26.48.41.18.18.37.35.59.48.42.24.95.32,1.43.25.25-.04.49-.13.7-.26.16-.1.29-.21.44-.33.08-.07.17-.14.27-.19.06-.03.44-.19.64-.3,0,.07,0,.13.05.14.05,0,.1-.09.12-.17.02-.08,0-.16-.02-.22-.02-.05-.11-.13-.19-.14-.08,0-.11.06-.07.09.01,0,.02.02.03.03-.03.02-.06.04-.09.05-.19.09-.39.15-.6.2M290.68,43.21c-.03.13-.06.25-.11.37-.11.26-.25.46-.41.57-.07.05-.14.08-.22.09.25-.15.45-.51.49-.93.05-.59-.22-1.1-.61-1.13-.19-.02-.37.08-.51.25.14,0,.26.14.26.33s-.1.35-.25.36c-.12,0-.22-.09-.26-.23-.03.1-.05.2-.06.3-.04.4.07.75.27.96-.12-.07-.23-.24-.29-.46-.03-.1-.05-.2-.06-.3-.03-.27-.03-.54.11-.9,0-.02.01-.03.02-.05.14-.37.41-.76.99-.66.77.12.69,1.13.64,1.45M290.88,42.1c-.07-.25-.2-.47-.42-.6-.18-.11-.41-.16-.63-.14-.06,0-.11.02-.17.03-.53.17-.75.64-.9,1.29-.17.71.07,1.55.52,1.7.11.04.3.07.3.07.12.02.23.03.35.02.13,0,.25-.05.37-.14.22-.16.38-.42.48-.67s.16-.51.17-.78c.01-.26,0-.53-.07-.78"/>
      <polygon class="st2" points="253.55 59.2 252.96 60.8 316.73 60.8 317.32 59.2 253.55 59.2"/>
      <path class="st2" d="M313.35,62.94l-1.62,4.39c.02-.44.11-2.19.16-3.19.02-.41-.07-.73-.27-.94-.24-.25-.56-.26-.56-.26h-3.6l-2.35,6.4h2.61l1.67-4.53-.2,4.53h4.38l2.36-6.4h-2.59.01ZM303.27,69.34l2.35-6.4h-3.1l-2.35,6.4h3.1ZM299.77,67.21h-3.04l1.57-4.27h-3.01l-2.36,6.4h6.05l.78-2.13h.01ZM292.95,64.61l.62-1.68h-6.46l-2.35,6.4h6.53l.63-1.73h-3.61l.26-.71h3.37l.58-1.57h-3.37l.26-.71h3.54ZM283.01,69.34l2.36-6.4h-2.95l-.85,2.3h-1.56l.85-2.3h-2.96l-2.35,6.4h2.95l.8-2.17h1.56l-.8,2.17h2.95ZM275.38,65.28l.94-2.25c-1.61-.4-3.23-.21-4.07-.04-1.88.38-4.42,1.76-4.39,4.28.02,1.45,1.77,2.26,3.78,2.2,1.13-.03,2.2-.24,2.34-.26l.75-1.94c-.99.16-1.94.39-2.68.1-1.34-.54-.51-1.93.43-2.37.42-.19.99-.37,1.67-.36.28,0,.98.02,1.24.63M265.58,69.34l2.35-6.4h-3.1l-2.36,6.4h3.11ZM260.69,69.34l2.35-6.4h-4.38l-2.26,3.44s.14-1.8.18-2.23c.03-.33,0-1.21-.82-1.21h-3.59l-2.36,6.4h2.81l1.71-4.63-.36,4.63h2.5l3.06-4.55-1.67,4.55h2.83Z"/>
    </g>
  </g>
  <g id="TOTALENERGIES">
    <g>
      <path class="st2" d="M165.02,65.98c-1.31,0-2.33,1-2.33,2.29s1.03,2.28,2.33,2.28,2.33-1,2.33-2.28-1.02-2.29-2.33-2.29ZM166.19,68.26c0,.67-.53,1.21-1.17,1.21s-1.18-.53-1.18-1.21.52-1.23,1.18-1.23,1.17.54,1.17,1.23Z"/>
      <path class="st2" d="M175.42,66.02c-.25,0-.5.13-.51.42v.06c-.41-.35-.87-.52-1.43-.52-1.22,0-2.14.98-2.14,2.28s.91,2.28,2.13,2.28c.56,0,1.04-.19,1.41-.55v.47h1.05v-4c0-.23-.23-.43-.51-.43h0ZM173.65,69.47c-.66,0-1.16-.52-1.16-1.22s.5-1.22,1.16-1.22,1.17.5,1.18,1.22c0,.72-.49,1.21-1.18,1.21h0Z"/>
      <path class="st2" d="M180.3,68.11h2.11c.15,0,.28-.12.28-.28v-.6c0-.15-.12-.28-.28-.28h-2.11v-1.27h2.43c.15,0,.27-.12.27-.27v-.52c0-.15-.12-.27-.27-.27h-3.3c-.15,0-.28.12-.28.27v5.27c0,.15.12.27.28.27h3.66v-1.15h-2.79v-1.19.02Z"/>
      <path class="st2" d="M163.65,65.43v-.52c0-.15-.12-.27-.27-.27h-4.54c-.15,0-.27.12-.27.27v.52c0,.15.12.27.27.27h1.68v4.75h1.18v-4.75h1.68c.15,0,.27-.12.27-.27h0Z"/>
      <path class="st2" d="M177.54,64.63c-.22,0-.58.13-.58.48v5.34h1.15v-5.34c0-.35-.35-.48-.58-.48h.01Z"/>
      <path class="st2" d="M170.86,69.33c-.11-.03-.22-.03-.31.02-.17.09-.38.14-.59.14-.48,0-.7-.21-.7-.65v-1.8h1.23c.26,0,.4-.25.4-.49s-.12-.49-.4-.49h-1.23v-1.44h-1.15v1.44h-.59v.99h.59v1.85c0,.99.66,1.64,1.68,1.64.32,0,.79-.06,1.18-.36h0c.2-.16.25-.37.13-.63-.05-.1-.14-.18-.25-.22Z"/>
      <path class="st2" d="M196.88,66.41c-.03-.27-.22-.43-.51-.43-.38,0-.99.03-1.39.79v-.32c-.02-.29-.28-.42-.52-.42-.28,0-.51.2-.51.43v4h1.15v-1.77c.02-1.37.76-1.62.99-1.66.18-.03.2-.03.37-.05.32-.05.44-.32.42-.56h0Z"/>
      <path class="st2" d="M186.2,65.98c-.54,0-1.02.18-1.36.51v-.05c-.02-.29-.27-.42-.52-.42-.28,0-.51.2-.51.43v4h1.15v-2.47c.05-.47.38-.94,1.03-.94.6,0,.99.44.99,1.13v2.28h1.15v-2.41c0-1.25-.77-2.06-1.96-2.06h.03Z"/>
      <path class="st2" d="M200.96,66.02c-.28,0-.5.17-.51.4v.1c-.39-.35-.88-.54-1.44-.54-1.22,0-2.15.98-2.15,2.29s.92,2.27,2.14,2.27c.51,0,.95-.16,1.31-.48v.14c0,.65-.51,1.09-1.28,1.09-.68,0-1.14-.22-1.27-.29-.21-.11-.52-.1-.67.11-.08.12-.11.26-.09.39s.1.24.23.32c.45.3,1.14.49,1.85.49,1.44,0,2.36-.87,2.36-2.22v-3.67c0-.22-.22-.4-.49-.4h0ZM200.36,68.26c0,.72-.49,1.2-1.18,1.2s-1.17-.51-1.17-1.2.5-1.22,1.17-1.22,1.18.5,1.18,1.22Z"/>
      <path class="st2" d="M202.97,66.02c-.22,0-.58.13-.58.48v3.95h1.15v-3.95c0-.35-.35-.48-.58-.48h.01Z"/>
      <path class="st2" d="M202.97,64.19c-.39,0-.68.29-.68.66s.29.67.68.67.69-.29.69-.67-.3-.67-.69-.66Z"/>
      <path class="st2" d="M191.08,65.98c-1.31,0-2.26.96-2.26,2.28s1.02,2.28,2.37,2.28c.61,0,1.16-.18,1.63-.53.17-.12.22-.4.11-.59-.13-.23-.44-.25-.61-.16-.16.09-.59.29-1.04.29-.64,0-1.14-.35-1.3-.9h2.94c.16,0,.26-.1.28-.27v-.15c0-1.32-.87-2.24-2.13-2.24h0ZM192.11,67.76h-2.08c.16-.5.57-.81,1.11-.81.49,0,.88.32.98.81h0Z"/>
      <path class="st2" d="M206.52,65.98c-1.31,0-2.26.96-2.26,2.28s1.02,2.28,2.37,2.28c.61,0,1.16-.18,1.63-.53.17-.12.22-.4.11-.59-.13-.23-.44-.25-.6-.16s-.59.29-1.04.29c-.64,0-1.14-.35-1.3-.9h2.94c.16,0,.26-.1.28-.27v-.15c0-1.32-.87-2.24-2.13-2.24h0ZM207.53,67.76h-2.08c.16-.5.57-.81,1.11-.81.49,0,.88.32.98.81h0Z"/>
      <path class="st2" d="M211.23,67.71h0c-.69-.15-.88-.24-.88-.42,0-.28.34-.33.54-.33.4,0,.85.11,1.14.22.3.11.52.03.66-.24.11-.22.03-.46-.21-.61-.23-.14-.71-.36-1.56-.36-1.01,0-1.72.56-1.72,1.38s.81,1.15,1.59,1.33c.66.15.8.29.8.48,0,.32-.38.38-.62.38-.69,0-1.07-.22-1.17-.28-.25-.16-.51-.12-.69.11-.08.1-.11.22-.09.34.02.13.1.24.22.32.5.34,1.05.5,1.69.5,1.08,0,1.8-.56,1.8-1.43s-.62-1.18-1.51-1.4h0Z"/>
    </g>
    <path class="st2" d="M205.34,52.74c-1.39.45-3.6,1.22-7.1.96-2.63-.2-7.12-1.45-8.1-5-2.41-.22-4.77-.48-6.87-.72.76,5.95,4.7,9,9,10.15,5.16,1.38,10.77.48,14.36-1.19.68-.33,1.63-.95,1.63-2.29,0-1.21-1.06-2.5-2.91-1.9h0Z"/>
    <path class="st2" d="M211.06,36.62c-1.57-1.92-4.26-3.36-8.01-3.76-1.42-.15-2.85-.19-4.28-.11l.13,6.25c3.01-.16,5.19.55,6.37,1.32.65.45,1.04.97,1.05,1.37,0,.78-1.9,1.04-4.1,1.23-5.67.43-15.9-1.12-21.4-2.13-5.79-1.06-12.27-2.36-17.3-3.11-2.92-.44-4.94,1.97-4.94,4.2,0,1.92,1.44,3.48,3.18,3.6,2.47.18,3.8.22,5.79.57,3.6.64,4.26,2.03,5.17,4.71.55,1.62,1.93,5.95,2.03,6.23.28.96,1.18,1.61,2.25,1.52,1.52-.12,2.67-1.23,2.3-3.03-.29-1.44-.93-4.83-1.64-8.16,4.98.5,19.3,2.47,25.74,1.78,4.54-.49,7.95-2.11,8.99-5.47.75-2.41.35-4.99-1.32-7.04v.03Z"/>
    <path class="st2" d="M198.9,39.01c.72-.04,1.39-.02,2.01.03l.33-6.3c-.82-.03-1.64-.03-2.46.02h0c-6.18.36-12.01,3-14.58,8.63,2,.33,4.25.66,6.54.94,1.16-1.39,3.81-3.08,8.17-3.31h0Z"/>
  </g>
  <g id="ROLEX">
    <path class="st2" d="M77.42,36.66c.11,0,.21-.02.31-.04l3.57,12.53c.4,1.4,2.37,2.46,4.75,2.46s4.35-1.06,4.75-2.46h0l3.57-12.52c.09.02.18.03.27.03.69,0,1.26-.58,1.26-1.3s-.56-1.3-1.26-1.3-1.26.58-1.26,1.3c0,.52.29.96.71,1.17l-4.14,9.15.67-12.33h.03c.69,0,1.26-.58,1.26-1.3s-.56-1.3-1.26-1.3-1.26.58-1.26,1.3c0,.59.38,1.09.91,1.24l-2.75,12.06-1.33-13.29c.61-.09,1.08-.63,1.08-1.28,0-.71-.56-1.3-1.26-1.3s-1.26.58-1.26,1.3c0,.65.47,1.19,1.08,1.28l-1.32,13.26-2.75-12.03c.53-.15.92-.65.92-1.25,0-.72-.56-1.3-1.26-1.3s-1.26.58-1.26,1.3.56,1.3,1.26,1.3h.02l.67,12.33-4.15-9.17c.4-.22.68-.65.68-1.15,0-.71-.56-1.3-1.26-1.3s-1.26.58-1.26,1.3.56,1.3,1.26,1.3M86.03,48.1c2.17,0,3.93.57,3.93,1.28s-1.76,1.28-3.93,1.28-3.94-.57-3.94-1.28,1.76-1.28,3.94-1.28"/>
    <path class="st2" d="M72.15,56.87c-3.6,0-6.52,3.02-6.52,6.64s2.92,6.64,6.52,6.64,6.52-3.02,6.52-6.64-2.92-6.64-6.52-6.64M74.86,67.34c-.2.31-.46.59-.75.82-.48.39-1.03.62-1.62.65-.11.01-.23.02-.35.02s-.23,0-.35-.02c-.58-.02-1.14-.26-1.62-.65-.3-.23-.55-.5-.75-.82-.68-.96-1.1-2.32-1.1-3.82,0-1.41.37-2.69.98-3.64.34-.62.87-1.12,1.52-1.41h0s.06-.03.09-.04c.09-.04.17-.07.26-.1.3-.09.61-.14.94-.14s.64.05.94.14c.09.03.18.06.26.09.03,0,.06.03.09.04h.02c.65.29,1.18.79,1.52,1.41.61.95.98,2.23.98,3.64,0,1.5-.42,2.86-1.1,3.82"/>
    <path class="st2" d="M91.59,64.89h-.91v1.87c-.03,1.12-.91,2.02-2.01,2.02h-3.82v-10.52h1.75v-.94h-6.3v.94h1.75v10.52h-1.75v.94h11.29v-3.06h0v-1.77Z"/>
    <path class="st2" d="M105.37,57.34h-11.87v.94h1.71v10.52h-1.71v.94h11.93v-4.46h-.91v1.48h0c-.01,1.13-.91,2.05-2.01,2.05h-4.5v-5.22h1.44c.81,0,1.47.69,1.47,1.53v.03h0v.68h.83v-2.25h0v-.76h0v-2.17h-.83v.6h0v.03c0,.84-.66,1.44-1.47,1.45h-1.44v-4.44h4.51c1.1,0,1.99.92,2,2.05h0v1.27h.91v-4.25h-.06v-.02Z"/>
    <path class="st2" d="M120.94,68.83c-.87-.02-1.08-.3-1.75-1.1l-3.98-5.11,2.63-3.24h0c.71-.83.9-1.12,1.81-1.13h.68v-.91h-4.84v.91h1.06c.23,0,.41.19.41.42,0,.09-.03.18-.08.25l-2.33,2.87-1.83-2.35-.38-.5c-.06-.07-.09-.16-.09-.26,0-.24.18-.43.41-.43h1.04v-.91h-6.06v.91h.29c.77.04,1,.31,1.6,1.03l3.52,4.52-3.17,3.9h0c-.71.83-.9,1.11-1.81,1.13h-.74v.9h5.18v-.9h-1.27c-.23,0-.41-.19-.41-.43,0-.1.04-.19.09-.26l2.81-3.47,2.34,3,.35.46c.06.07.09.16.09.26,0,.24-.18.43-.41.43h-1.12v.9h6.53v-.9h-.58.01Z"/>
    <path class="st2" d="M63.57,68.78l-.79-2.38c-.37-1.06-.63-1.54-1.22-2.08-.38-.35-.92-.52-1.31-.64,1.48-.24,2.6-1.57,2.6-3.16,0-1.76-1.39-3.19-3.1-3.19h-9.21v.93h1.69v10.53h-1.72v.94h6.25v-.94h-1.73v-5.06h1.73c.43.02.8.08,1.13.18.31.08.64.19.86.34.3.2.61.47.89.96.07.13.14.26.2.39.51.99.82,2.36,1.16,4.11h3.92v-.94h-1.36.01ZM57.97,62.78h-2.92v-4.53h2.92c1.26.05,2.26.95,2.26,2.27s-1,2.21-2.26,2.27"/>
    <path class="st2" d="M77.42,36.66c.11,0,.21-.02.31-.04l3.57,12.53c.4,1.4,2.37,2.46,4.75,2.46s4.35-1.06,4.75-2.46h0l3.57-12.52c.09.02.18.03.27.03.69,0,1.26-.58,1.26-1.3s-.56-1.3-1.26-1.3-1.26.58-1.26,1.3c0,.52.29.96.71,1.17l-4.14,9.15.67-12.33h.03c.69,0,1.26-.58,1.26-1.3s-.56-1.3-1.26-1.3-1.26.58-1.26,1.3c0,.59.38,1.09.91,1.24l-2.75,12.06-1.33-13.29c.61-.09,1.08-.63,1.08-1.28,0-.71-.56-1.3-1.26-1.3s-1.26.58-1.26,1.3c0,.65.47,1.19,1.08,1.28l-1.32,13.26-2.75-12.03c.53-.15.92-.65.92-1.25,0-.72-.56-1.3-1.26-1.3s-1.26.58-1.26,1.3.56,1.3,1.26,1.3h.02l.67,12.33-4.15-9.17c.4-.22.68-.65.68-1.15,0-.71-.56-1.3-1.26-1.3s-1.26.58-1.26,1.3.56,1.3,1.26,1.3M86.03,48.1c2.17,0,3.93.57,3.93,1.28s-1.76,1.28-3.93,1.28-3.94-.57-3.94-1.28,1.76-1.28,3.94-1.28"/>
    <path class="st2" d="M72.15,56.87c-3.6,0-6.52,3.02-6.52,6.64s2.92,6.64,6.52,6.64,6.52-3.02,6.52-6.64-2.92-6.64-6.52-6.64M74.86,67.34c-.2.31-.46.59-.75.82-.48.39-1.03.62-1.62.65-.11.01-.23.02-.35.02s-.23,0-.35-.02c-.58-.02-1.14-.26-1.62-.65-.3-.23-.55-.5-.75-.82-.68-.96-1.1-2.32-1.1-3.82,0-1.41.37-2.69.98-3.64.34-.62.87-1.12,1.52-1.41h0s.06-.03.09-.04c.09-.04.17-.07.26-.1.3-.09.61-.14.94-.14s.64.05.94.14c.09.03.18.06.26.09.03,0,.06.03.09.04h.02c.65.29,1.18.79,1.52,1.41.61.95.98,2.23.98,3.64,0,1.5-.42,2.86-1.1,3.82"/>
    <path class="st2" d="M91.59,64.89h-.91v1.87c-.03,1.12-.91,2.02-2.01,2.02h-3.82v-10.52h1.75v-.94h-6.3v.94h1.75v10.52h-1.75v.94h11.29v-3.06h0v-1.77Z"/>
    <path class="st2" d="M105.37,57.34h-11.87v.94h1.71v10.52h-1.71v.94h11.93v-4.46h-.91v1.48h0c-.01,1.13-.91,2.05-2.01,2.05h-4.5v-5.22h1.44c.81,0,1.47.69,1.47,1.53v.03h0v.68h.83v-2.25h0v-.76h0v-2.17h-.83v.6h0v.03c0,.84-.66,1.44-1.47,1.45h-1.44v-4.44h4.51c1.1,0,1.99.92,2,2.05h0v1.27h.91v-4.25h-.06v-.02Z"/>
    <path class="st2" d="M120.94,68.83c-.87-.02-1.08-.3-1.75-1.1l-3.98-5.11,2.63-3.24h0c.71-.83.9-1.12,1.81-1.13h.68v-.91h-4.84v.91h1.06c.23,0,.41.19.41.42,0,.09-.03.18-.08.25l-2.33,2.87-1.83-2.35-.38-.5c-.06-.07-.09-.16-.09-.26,0-.24.18-.43.41-.43h1.04v-.91h-6.06v.91h.29c.77.04,1,.31,1.6,1.03l3.52,4.52-3.17,3.9h0c-.71.83-.9,1.11-1.81,1.13h-.74v.9h5.18v-.9h-1.27c-.23,0-.41-.19-.41-.43,0-.1.04-.19.09-.26l2.81-3.47,2.34,3,.35.46c.06.07.09.16.09.26,0,.24-.18.43-.41.43h-1.12v.9h6.53v-.9h-.58.01Z"/>
    <path class="st2" d="M63.57,68.78l-.79-2.38c-.37-1.06-.63-1.54-1.22-2.08-.38-.35-.92-.52-1.31-.64,1.48-.24,2.6-1.57,2.6-3.16,0-1.76-1.39-3.19-3.1-3.19h-9.21v.93h1.69v10.53h-1.72v.94h6.25v-.94h-1.73v-5.06h1.73c.43.02.8.08,1.13.18.31.08.64.19.86.34.3.2.61.47.89.96.07.13.14.26.2.39.51.99.82,2.36,1.16,4.11h3.92v-.94h-1.36.01ZM57.97,62.78h-2.92v-4.53h2.92c1.26.05,2.26.95,2.26,2.27s-1,2.21-2.26,2.27"/>
  </g>
  <g>
    <g>
      <path class="st2" d="M476.93,59.73h-.72c-.53,0-.83-.39-.65-1.07.2-.76,1.27-5.4,1.27-5.4.15-.62.93-.84,1.77-.84.71,0,1.53.23,2.15.69l1.04-1.53c-1.04-.65-2.22-.98-3.37-.98-3.97,0-7.32,2.14-7.32,6.5,0,2.11,1.18,4.3,4,4.3h6.2l1.26-5.45h-4.71l-.9,3.78h-.02Z"/>
      <path class="st2" d="M521.01,54.8c0-2.01-1.12-3.96-4.09-3.96h-6.17l-2.5,10.56h6.77c3.82,0,5.99-3.31,5.99-6.6h0ZM516.57,53.32l-1.37,5.73c-.15.68-.5.68-1.49.68h-.35l1.72-7.25h.36c1.09,0,1.27.12,1.12.84h.01Z"/>
      <path class="st2" d="M503.14,50.59c-3.88,0-6.7,2.6-6.7,6.44,0,3.1,2.33,4.58,5.27,4.58,4.28,0,6.48-3.13,6.48-6.38s-2.11-4.64-5.06-4.64h.01ZM503.85,53.32l-1.36,5.64c-.19.74-.4,1.02-1.02,1.02s-.78-.37-.62-1.08l1.3-5.48c.22-.9.4-1.18,1.09-1.18.56,0,.78.34.62,1.08h-.01Z"/>
      <path class="st2" d="M490.32,50.59c-3.91,0-6.7,2.6-6.7,6.44,0,3.1,2.33,4.58,5.27,4.58,4.25,0,6.48-3.13,6.48-6.38s-2.11-4.64-5.06-4.64h.01ZM491.01,53.32l-1.33,5.64c-.19.74-.4,1.02-1.06,1.02s-.75-.37-.59-1.08l1.3-5.48c.22-.9.4-1.18,1.06-1.18.59,0,.81.34.62,1.08Z"/>
      <polygon class="st2" points="548.97 56.87 551.43 56.87 551.87 55.01 549.38 55.01 549.92 52.69 553.73 52.69 554.17 50.83 545.51 50.83 543.02 61.39 551.64 61.39 552.12 59.5 548.31 59.5 548.97 56.87"/>
      <polygon class="st2" points="542.08 50.83 539.21 54.39 538.1 50.83 533.11 50.83 534.96 56.81 533.89 61.39 538.74 61.39 539.8 56.87 544.78 50.83 542.08 50.83"/>
      <path class="st2" d="M558.77,50.8l-6.41,10.59h2.14l1.02-1.67h3.64l.19,1.67h4.75l-1.12-10.59h-4.21ZM556.74,57.83l1.84-3.12.33,3.12h-2.17Z"/>
      <path class="st2" d="M578.12,53.71c0-1.52-.93-2.88-3.78-2.88h-6.88l-2.5,10.56h4.74l1.03-4.42.91,4.42h4.71l-.83-3.61s.34-.22.37-.23c1.58-1.01,2.23-2.67,2.23-3.84h0ZM573.16,53.31c-.14.59-.62,2.6-.62,2.6-.11.46-.39.68-.87.68h-.84l.99-4.12h.78c.48,0,.7.25.56.84Z"/>
      <path class="st2" d="M578.64,59.5c-.53,0-.96.43-.96.93,0,.53.43.96.96.96s.93-.43.93-.96c0-.5-.41-.93-.93-.93ZM578.64,61.17c-.4,0-.75-.31-.75-.74,0-.4.34-.71.75-.71s.72.31.72.71c0,.43-.31.74-.72.74Z"/>
      <path class="st2" d="M579.05,60.22c0-.25-.22-.28-.4-.28h-.4v1.05h.22v-.46h.12l.25.46h.25l-.31-.46c.19-.03.28-.12.28-.31h0ZM578.46,60.37v-.28h.22c.15,0,.15.06.15.12,0,.15-.06.15-.15.15h-.22Z"/>
    </g>
    <g>
      <path class="st2" d="M541.96,47.65c-.25.13-.59.26-1.01.34-.32.06-.66.07-.99.05-2.48-.14-2.65-.82-6.05-2.23-3.61-1.5-7.29.07-6.7,2.49-1.35.65-1.33,1.98-.81,2.98v.04c-.17,1.86.97,3.01,1.58,3.34.56-.38.78-1.41.78-1.42.42.58,1.05.65,1.05.65.22-.22.3-.78.32-1.08v-.18s.1.11.13.14c.13.13.28.23.41.31.09.06.39.18.52.22.03-.26.04-.55.02-.8h0c-.04-.61-.2-1.13-.35-1.51-.4-.24-.53-.58-.53-.58.65.69,1.61.69,2.18.31-.16-.52-.79-.86-.8-.87,1.39.55,2.29-.13,2.29-.13-.17-.09-.4-.34-.47-.52,1.03.56,2.29.29,2.75-.08-.42-.36-.69-.85-.69-.85h0s1.18,1.23,3.41,1.37c2.2.16,3.39-.9,3.59-2.29,0-.05.01-.11.02-.17-.21.22-.45.38-.65.49v-.02ZM527.67,51.82s-.17-.44-.48-.52c-.19.06-.33,0-.33,0,.51-.33.36-.95.36-.95,0,0,.29.27.15.71.11.08.4.46.3.76ZM528.24,48.62c.22-.14.47-.55.41-.85-.09-.09-.15-.21-.17-.36,0,0,.25.3.6.25.23-.04.33-.17.37-.26-.08-.1-.1-.21-.1-.21.45.23.93,0,.88-.5h0c.06.03.13.06.21.07.49.1.77-.08.97-.31-.06.45-.61.72-1.04.62-.03.16-.12.34-.36.43-.14.05-.25.06-.33.04-.13.26-.43.45-.74.38-.1.35-.34.65-.7.71h0ZM530.06,49.58c-.14.02-.25,0-.33-.02-.2.16-.44.24-.71.16,0,0,.38-.04.53-.29-.1-.13-.1-.29-.1-.29.4.3,1,.2,1.23-.21,0,0,0,.55-.61.65h-.01ZM532.19,48.17c-.14.02-.26,0-.35,0-.23.3-.69.41-1.04.22-.2.2-.47.32-.74.22.18-.02.46-.17.57-.36-.06-.07-.1-.16-.11-.27.19.15.71.31,1.06,0-.14-.17-.14-.4-.14-.4.49.43,1.22.28,1.51-.3,0,0-.02.77-.75.88v.02Z"/>
      <path class="st2" d="M540.93,47.62c.18-.03.34-.07.49-.12.1-.21.16-.84-.04-1.3-.31.71-1.32,1.26-2.46,1.37.3.05.64.09,1.03.11.33.02.66,0,.99-.05h-.01Z"/>
      <path class="st2" d="M531.71,56.44c-.14-.16-.25-.19-.25-.19-1.6,1.31-3.54,2.25-5.26,3.66-.43.35-.84.74-1.24,1.12-2.54,2.51-2.73,1.85-5.85,1.94-.05,0-.09.03-.11.08-.02.05-.03.13-.03.23,0,.12.02.21.04.26.01.04.05.07.1.07h2.71c1.71,0,3.05-1.67,4.34-2.82.18-.16.35-.31.53-.45,1.69-1.36,3.54-2.26,5.13-3.55.04-.03.05-.09.04-.13-.02-.06-.06-.13-.14-.22h-.01Z"/>
      <path class="st2" d="M519.3,62.62c.07.02.15.02.24.02h2.16c1.34,0,2.67-1.62,3.92-2.72l-2.07-4.41c-.42.95-.95,2.11-1.58,3.48-.52,1.12-.87,1.54-2.07,1.95-.53.18-.91.68-.91,1.17v.08c0,.19.09.36.33.43h-.02Z"/>
      <path class="st2" d="M530.41,56.57c1.23-.85.54-2.04.26-2.5-.08-.13-.21-.38-.3-.5-.09.73-.28.89-.28.89-.03,0-.06,0-.09-.02-.29-.07-.73-.31-1.1-.73-.19,1.17-.81,1.58-.81,1.58l-.19-.1c-.07-.04-.55-.31-1-.89-.13-.17-.27-.4-.39-.67l-2.42.34,2.22,5.4c1.33-1.01,2.82-1.91,4.11-2.79h0Z"/>
      <path class="st2" d="M523.76,55.12l2.02,4.68c.09-.08.18-.15.27-.22l-2.1-4.95-.19.5h0Z"/>
      <path class="st2" d="M523.98,53.11l.02.42.94-.1,1.42-.12c-.04-.1-.08-.22-.11-.33l-2.28.13h.01Z"/>
      <path class="st2" d="M525.93,51.06l-2.07,1.13c.07.24.08.42.1.65l2.24-.1c-.11-.43-.14-.75-.15-1.1v-.28c-.05-.1-.09-.2-.13-.3h.01Z"/>
      <path class="st2" d="M523.34,51.1l2.39-1.08c0-.21,0-.42.03-.6.01-.05.02-.1.04-.15.16-.52.55-.85,1.08-1.16-.03-.14-.06-.39-.02-.67l-4.36,2.22s.4.72.71,1.24c.04.07.08.14.12.21h0Z"/>
      <path class="st2" d="M525.74,50.29l-2.23,1.14c.08.14.15.27.2.37l2.1-1.13c-.03-.13-.06-.26-.07-.39h0Z"/>
    </g>
  </g>
  <g>
    <path class="st2" d="M636.12,59.51v-.22l-1.84-1.6h-.21c-.51.56-1.29.99-2.16.99-1.36,0-2.44-1.05-2.44-2.49s1.07-2.49,2.44-2.49c.88,0,1.66.42,2.16.99h.21l1.84-1.6v-.22c-.97-1.19-2.49-1.95-4.2-1.95-3.16,0-5.55,2.25-5.55,5.27,0,.12.03.22.03.34,1.29.89,2.43,1.59,3.42,2.24,1.42.9,2.56,1.73,3.5,2.51,1.17-.3,2.13-.95,2.8-1.77"/>
    <path class="st2" d="M643.01,54.67c0,.67-.49,1-1.06,1h-1.41v-2.07h1.41c.57,0,1.06.38,1.06,1.06M646.79,60.79l-.46-2-.17-.11c-.09.05-.17.11-.4.11-.35,0-.57-.38-.75-.67-.31-.47-.55-.72-.77-.83,1.12-.5,1.87-1.44,1.87-2.79,0-2.08-1.41-3.4-4.04-3.4h-4.57v10.17h3.04v-3.57h.28c.68,0,1.53,1.47,1.93,2.13.83,1.33,1.49,1.63,2.67,1.63.55,0,1.01-.2,1.29-.45l.08-.22h0,0Z"/>
    <path class="st2" d="M655.43,56.19c0,1.45-1.11,2.49-2.47,2.49s-2.47-1.03-2.47-2.49,1.11-2.49,2.47-2.49,2.47,1.03,2.47,2.49M658.53,56.19c0-3.02-2.39-5.27-5.57-5.27s-5.57,2.25-5.57,5.27,2.39,5.27,5.57,5.27,5.57-2.27,5.57-5.27"/>
    <polygon class="st2" points="673.74 51.1 670.84 51.1 669.04 56.73 667.14 51.1 665.3 51.1 663.41 56.7 661.61 51.1 658.71 51.1 658.58 51.33 662.29 61.28 664.13 61.28 666.22 55.73 668.32 61.28 670.16 61.28 673.88 51.33 673.74 51.1"/>
    <path class="st2" d="M681.9,56.19c0,1.66-.97,2.58-2.3,2.58h-1.49v-5.16h1.49c1.34,0,2.3.92,2.3,2.58M685,56.17c0-3.04-2.01-5.07-5.28-5.07h-4.65v10.17h4.65c3.27,0,5.28-2.04,5.28-5.1"/>
    <polygon class="st2" points="701.1 53.61 704.14 53.61 704.14 51.1 695.02 51.1 695.02 53.61 698.06 53.61 698.06 61.28 701.1 61.28 701.1 53.61"/>
    <path class="st2" d="M710.75,54.67c0,.67-.49,1-1.06,1h-1.41v-2.07h1.41c.57,0,1.06.38,1.06,1.06M713.85,54.5c0-2.08-1.41-3.4-4.04-3.4h-4.57v10.17h3.04v-3.57h.72l1.89,3.57h3.02l.14-.24-2.03-3.77c1.09-.52,1.83-1.44,1.83-2.77"/>
    <rect class="st2" x="715.69" y="51.1" width="3.04" height="10.17"/>
    <polygon class="st2" points="726.43 55.66 729.87 51.33 729.73 51.1 726.5 51.1 723.69 54.72 723.69 51.1 720.65 51.1 720.65 61.27 723.69 61.27 723.69 58.14 724.24 57.49 726.82 61.27 729.99 61.27 730.13 61.04 726.43 55.66"/>
    <polygon class="st2" points="738.56 53.61 738.56 51.1 730.96 51.1 730.96 61.28 738.6 61.28 738.6 58.77 734 58.77 734 57.36 737.47 57.36 737.47 55.01 734 55.01 734 53.61 738.56 53.61"/>
    <path class="st2" d="M690.14,61.4c2.23,0,4.16-1.09,4.16-3.21,0-2.3-1.95-2.9-3.67-3.4-.68-.2-1.37-.44-1.37-.94,0-.36.38-.58.97-.58,1,0,1.84.63,2.27,1.03h.21l1.43-1.72v-.22c-.75-.86-2.29-1.52-3.97-1.52-2.36,0-4.01,1.28-4.01,3.14,0,2.01,1.81,2.88,3.34,3.32,1,.28,1.67.33,1.67.88,0,.39-.48.63-1.21.63-.94,0-2.07-.61-2.62-1.16h-.21l-1.41,1.79v.22c.91,1.02,2.53,1.74,4.42,1.74"/>
    <path class="st2" d="M637.75,70.75c-.74-1.7-2.21-3.87-8.01-6.98-2.67-1.5-7.24-3.8-11.34-8.17.37,1.58,2.28,5.05,10.48,9.39,2.27,1.25,6.11,2.42,8.87,5.77"/>
    <path class="st2" d="M637.38,67.84c-.7-2.01-1.96-4.57-7.94-8.39-2.91-1.92-7.19-4.34-12.82-10.49.4,1.66,2.18,5.97,11.14,11.57,2.94,2.01,6.74,3.25,9.61,7.3"/>
  </g>
</svg>