<svg xmlns="http://www.w3.org/2000/svg" viewBox="0 0 64 64">
  <g>
    <path d="M14 18 h30 a4 4 0 0 1 4 4 v2 h4 a8 8 0 0 1 0 16 h-5.2
             a16 16 0 0 1 -15.8 13 h-6 a16 16 0 0 1 -16 -16 v-15
             a4 4 0 0 1 5 -4 z" fill="#ffffff" stroke="#17181c"
             stroke-width="5" stroke-linejoin="round"/>
    <path d="M48 28 h3 a4.5 4.5 0 0 1 0 9 h-3 z" fill="#ffffff"
          stroke="#17181c" stroke-width="4.5" stroke-linejoin="round"/>
    <path d="M29 27 c-2.8 -3 -7.6 -1.4 -7.6 2.3 c0 3.4 4.4 6 7.6 8.4
             c3.2 -2.4 7.6 -5 7.6 -8.4 c0 -3.7 -4.8 -5.3 -7.6 -2.3 z"
          fill="#ff5a2e"/>
  </g>
</svg>