<?xml version="1.0" encoding="UTF-8"?>
<svg version="1.1" xmlns="http://www.w3.org/2000/svg" width="500" height="240">
<path d="M0 0 C0.78349823 -0.00687836 1.56699646 -0.01375671 2.37423706 -0.02084351 C4.89667461 -0.03793475 7.41891383 -0.04430014 9.94140625 -0.046875 C10.80108002 -0.04854675 11.66075378 -0.05021851 12.54647827 -0.05194092 C43.56580161 -0.05554828 43.56580161 -0.05554828 56.50390625 3.203125 C57.16390625 3.863125 57.82390625 4.523125 58.50390625 5.203125 C57.96612549 5.48397949 57.42834473 5.76483398 56.87426758 6.05419922 C46.68250913 11.41484887 37.17103959 16.86140192 28.20703125 24.1015625 C21.75511212 29.11764992 15.44371457 31.2774441 7.30566406 31.39257812 C6.29401184 31.40929565 5.28235962 31.42601318 4.24005127 31.4432373 C3.15665466 31.45681274 2.07325806 31.47038818 0.95703125 31.484375 C-0.16874329 31.50278442 -1.29451782 31.52119385 -2.45440674 31.54016113 C-6.05158344 31.59881583 -9.64880775 31.65163896 -13.24609375 31.703125 C-17.97014415 31.7711381 -22.69405708 31.84488812 -27.41796875 31.921875 C-28.49326843 31.93545044 -29.56856812 31.94902588 -30.67645264 31.9630127 C-36.68452879 32.06107384 -42.53550197 32.43531996 -48.49609375 33.203125 C-48.49609375 32.543125 -48.49609375 31.883125 -48.49609375 31.203125 C-36.27978511 24.14232276 -23.99654889 19.27254507 -10.49609375 15.203125 C-38.19292175 17.72101845 -63.67071674 31.48475988 -84.49609375 49.203125 C-85.61061416 50.14200179 -86.72520036 51.08080047 -87.83984375 52.01953125 C-94.93125113 58.02094109 -101.81683773 64.21140912 -108.62109375 70.53515625 C-112.18346462 73.8409977 -115.77643549 77.07552307 -119.49609375 80.203125 C-120.00301758 80.63592773 -120.50994141 81.06873047 -121.03222656 81.51464844 C-145.00016699 101.86632559 -171.53698552 111.41010804 -203.05859375 111.390625 C-203.72506927 111.39068542 -204.3915448 111.39074585 -205.07821655 111.39080811 C-225.5585256 111.36427801 -225.5585256 111.36427801 -233.49609375 109.203125 C-233.82609375 108.543125 -234.15609375 107.883125 -234.49609375 107.203125 C-233.59943033 104.96002487 -232.60462692 102.75558179 -231.55859375 100.578125 C-230.99269531 99.38960938 -230.42679687 98.20109375 -229.84375 96.9765625 C-229.39902344 96.06132813 -228.95429688 95.14609375 -228.49609375 94.203125 C-229.52605469 94.72261719 -230.55601562 95.24210937 -231.6171875 95.77734375 C-253.13018075 106.39997382 -274.59674011 110.40436755 -298.55859375 110.390625 C-300.31683472 110.3915918 -300.31683472 110.3915918 -302.1105957 110.39257812 C-311.68259044 110.33489576 -321.03109832 109.58884982 -330.49609375 108.203125 C-328.77438647 86.97730094 -321.93855419 69.19982373 -307.49609375 53.203125 C-306.75875 52.37167969 -306.02140625 51.54023437 -305.26171875 50.68359375 C-285.17389547 29.28129881 -255.26172797 17.30333122 -226.2265625 15.94921875 C-219.64812971 15.8508374 -213.76358343 16.15659776 -207.49609375 18.203125 C-210.14101003 20.84804128 -212.53816184 21.24947392 -216.12109375 22.328125 C-235.27247986 28.4309312 -252.31563989 39.04386763 -266.49609375 53.203125 C-267.16253906 53.85796875 -267.82898438 54.5128125 -268.515625 55.1875 C-275.96419889 63.0564223 -280.90042128 73.08197287 -284.49609375 83.203125 C-249.88630942 81.27358095 -221.74041343 71.36429637 -192.49609375 53.203125 C-191.60019531 52.64882812 -190.70429688 52.09453125 -189.78125 51.5234375 C-188.0147025 50.42439038 -186.2543035 49.31546178 -184.49609375 48.203125 C-185.15242215 52.50651065 -186.64281116 56.07987113 -188.4375 60.03515625 C-188.72463364 60.67176682 -189.01176727 61.30837738 -189.30760193 61.96427917 C-190.21974166 63.98363498 -191.13904083 65.99963578 -192.05859375 68.015625 C-192.68081525 69.3897582 -193.30256515 70.76410505 -193.92382812 72.13867188 C-195.4424657 75.4959799 -196.96753862 78.85031871 -198.49609375 82.203125 C-164.23558392 77.93023535 -137.22039435 66.99649874 -110.5859375 44.9765625 C-78.95589631 18.82786368 -41.85676951 0.25319763 0 0 Z M-7.49609375 13.203125 C-3.49609375 14.203125 -3.49609375 14.203125 -3.49609375 14.203125 Z " fill="#FFFFFF" transform="translate(339.49609375,23.796875)"/>
<path d="M0 0 C0.9892749 0.03456299 1.9785498 0.06912598 2.99780273 0.10473633 C3.92536377 0.14880615 4.8529248 0.19287598 5.80859375 0.23828125 C7.04113892 0.29495972 7.04113892 0.29495972 8.29858398 0.3527832 C10.73338886 0.71276568 12.4358967 1.47373545 14.5625 2.6875 C6.86742126 19.76168687 6.86742126 19.76168687 -1.60400391 23.69287109 C-4.94423822 24.86537795 -8.02579748 25.2458061 -11.546875 25.6171875 C-12.94747218 25.77157587 -14.34802399 25.92637627 -15.74853516 26.08154297 C-16.8370578 26.19873688 -16.8370578 26.19873688 -17.9475708 26.31829834 C-53.25577777 30.00689002 -53.25577777 30.00689002 -82.375 48.80078125 C-87.79644285 55.72094028 -89.43156941 61.92161521 -88.4375 70.6875 C-85.88793167 76.67344304 -81.23917425 79.26250998 -75.4375 81.6875 C-59.99346694 86.63882621 -42.18200123 83.38807678 -27.4765625 77.45703125 C-25.4375 76.6875 -25.4375 76.6875 -23.4375 76.6875 C-24.19146188 84.72976006 -29.8723872 90.85562826 -35.78515625 95.86328125 C-40.6157671 99.18566014 -45.86148345 100.98925575 -51.4375 102.6875 C-52.22511719 102.93371094 -53.01273437 103.17992187 -53.82421875 103.43359375 C-70.81745854 107.73380277 -89.97727316 104.851858 -105.23046875 96.703125 C-113.95582427 91.21922311 -119.12266445 84.56109031 -122.01171875 74.734375 C-124.59084483 62.33564043 -120.09219761 50.11599956 -113.59765625 39.6640625 C-95.95144076 15.34866249 -66.80802091 6.01536017 -38.3125 1.4375 C-25.54184006 -0.13819835 -12.85204151 -0.4906904 0 0 Z " fill="#FFFFFF" transform="translate(476.4375,28.3125)"/>
<path d="M0 0 C1.25952484 -0.00021904 1.25952484 -0.00021904 2.54449463 -0.0004425 C5.3039412 0.00025094 8.06331921 0.00801665 10.82275391 0.01586914 C12.74231937 0.01773534 14.66188531 0.01915829 16.58145142 0.02015686 C21.62186001 0.02396614 26.66223956 0.03378282 31.70263672 0.04486084 C36.8507447 0.05510916 41.9988574 0.0596618 47.14697266 0.06469727 C57.2394333 0.07540655 67.33187243 0.09246385 77.42431641 0.11352539 C76.95586617 1.54403609 76.48522397 2.9738291 76.01367188 4.40332031 C75.62089554 5.59776009 75.62089554 5.59776009 75.22018433 6.81632996 C74.18914694 9.7923192 72.93486612 12.59875503 71.54931641 15.42602539 C71.07751953 16.4121582 70.60572266 17.39829102 70.11962891 18.41430664 C67.61014748 22.4098174 64.89208756 24.62426834 60.42431641 26.11352539 C58.91414467 26.20256158 57.40032062 26.23550487 55.88752747 26.23377991 C54.95784653 26.23515457 54.02816559 26.23652924 53.0703125 26.23794556 C52.05251709 26.23435028 51.03472168 26.230755 49.98608398 26.22705078 C48.91275314 26.22719681 47.8394223 26.22734283 46.73356628 26.22749329 C43.17863966 26.22679549 39.62376515 26.21900925 36.06884766 26.21118164 C33.60690845 26.20931699 31.14496888 26.20789331 28.68302917 26.20689392 C22.19750955 26.20307245 15.71201226 26.1932453 9.22650146 26.18218994 C2.61080223 26.17196788 -4.00490061 26.16739459 -10.62060547 26.16235352 C-23.60564105 26.15162273 -36.59066113 26.13474245 -49.57568359 26.11352539 C-35.16136135 11.6481334 -21.35701338 -0.09811545 0 0 Z " fill="#FFFFFF" transform="translate(257.57568359375,103.886474609375)"/>
<path d="M0 0 C0.64461182 -0.00014603 1.28922363 -0.00029205 1.95336914 -0.0004425 C4.06351196 0.00024878 6.17356419 0.00800406 8.28369141 0.01586914 C9.7548518 0.01773611 11.22601283 0.0191587 12.69717407 0.02015686 C16.55391175 0.02396006 20.41061129 0.03377141 24.26733398 0.04486084 C28.20897913 0.05512237 32.15063048 0.05966461 36.09228516 0.06469727 C43.81495872 0.0753958 51.53760095 0.09244562 59.26025391 0.11352539 C58.04462122 2.84945304 56.81358335 5.57654711 55.57275391 8.30102539 C55.23308594 9.06995117 54.89341797 9.83887695 54.54345703 10.63110352 C52.39968553 15.29931623 50.2875743 18.76284688 46.26025391 22.11352539 C42.48233272 23.37283245 38.95974944 23.24488086 35.02514648 23.22705078 C33.76627876 23.22726982 33.76627876 23.22726982 32.48197937 23.22749329 C29.70622173 23.22679627 26.93053108 23.21901368 24.15478516 23.21118164 C22.23093197 23.20931671 20.30707832 23.20789316 18.38322449 23.20689392 C13.31811208 23.20307463 8.25302833 23.19324933 3.18792725 23.18218994 C-1.98001722 23.17196321 -7.14796631 23.16739359 -12.31591797 23.16235352 C-22.4572066 23.15162656 -32.59847397 23.13455716 -42.73974609 23.11352539 C-40.08370588 15.14540474 -27.78259449 8.42595169 -20.73974609 4.11352539 C-14.03626589 0.86335317 -7.38079354 -0.01413945 0 0 Z " fill="#FFFFFF" transform="translate(291.73974609375,67.886474609375)"/>
<path d="M0 0 C1.98 0 3.96 0 6 0 C7.65 3.63 9.3 7.26 11 11 C12.32 7.37 13.64 3.74 15 0 C16.98 0 18.96 0 21 0 C22.32 3.96 23.64 7.92 25 12 C26.32 8.04 27.64 4.08 29 0 C31.31 0 33.62 0 36 0 C33.81659819 7.86379677 31.00714974 15.41675284 28 23 C26.02 23 24.04 23 22 23 C20.68 19.37 19.36 15.74 18 12 C16.68 15.63 15.36 19.26 14 23 C12.02 23 10.04 23 8 23 C0 4.02766798 0 4.02766798 0 0 Z " fill="#FFFFFF" transform="translate(79,164)"/>
<path d="M0 0 C1.98 0 3.96 0 6 0 C7.8984375 1.96875 7.8984375 1.96875 9.375 4.5 C9.87773438 5.3353125 10.38046875 6.170625 10.8984375 7.03125 C11.26195313 7.6809375 11.62546875 8.330625 12 9 C12.67095703 8.02546875 12.67095703 8.02546875 13.35546875 7.03125 C13.96003906 6.1959375 14.56460938 5.360625 15.1875 4.5 C15.77917969 3.6646875 16.37085937 2.829375 16.98046875 1.96875 C19 0 19 0 24 0 C24 7.26 24 14.52 24 22 C22.35 22 20.7 22 19 22 C18.67 19.36 18.34 16.72 18 14 C17.01 15.485 17.01 15.485 16 17 C12.5 17.375 12.5 17.375 9 17 C8.34 16.01 7.68 15.02 7 14 C6.67 16.64 6.34 19.28 6 22 C4.02 22 2.04 22 0 22 C0 14.74 0 7.48 0 0 Z " fill="#FFFFFF" transform="translate(88,196)"/>
<path d="M0 0 C6 0 6 0 8.3359375 2.1875 C9.00882812 3.115625 9.68171875 4.04375 10.375 5 C11.06335938 5.928125 11.75171875 6.85625 12.4609375 7.8125 C12.96882813 8.534375 13.47671875 9.25625 14 10 C14.33 6.7 14.66 3.4 15 0 C16.98 0 18.96 0 21 0 C21 7.59 21 15.18 21 23 C15 23 15 23 12.6640625 20.8125 C11.99117188 19.884375 11.31828125 18.95625 10.625 18 C9.93664062 17.071875 9.24828125 16.14375 8.5390625 15.1875 C8.03117187 14.465625 7.52328125 13.74375 7 13 C6.67 16.3 6.34 19.6 6 23 C4.02 23 2.04 23 0 23 C0 15.41 0 7.82 0 0 Z " fill="#FFFFFF" transform="translate(250,164)"/>
<path d="M0 0 C7 0 7 0 9.21484375 2.1875 C9.78332031 3.115625 10.35179687 4.04375 10.9375 5 C11.52402344 5.928125 12.11054688 6.85625 12.71484375 7.8125 C13.13894531 8.534375 13.56304687 9.25625 14 10 C14.33 6.7 14.66 3.4 15 0 C16.98 0 18.96 0 21 0 C21 7.26 21 14.52 21 22 C14 22 14 22 11.78515625 19.8125 C11.21667969 18.884375 10.64820313 17.95625 10.0625 17 C9.47597656 16.071875 8.88945312 15.14375 8.28515625 14.1875 C7.86105469 13.465625 7.43695313 12.74375 7 12 C6.67 15.3 6.34 18.6 6 22 C4.02 22 2.04 22 0 22 C0 14.74 0 7.48 0 0 Z " fill="#FFFFFF" transform="translate(184,196)"/>
<path d="M0 0 C1.98 0 3.96 0 6 0 C8.1171875 2.1875 8.1171875 2.1875 9.875 5 C10.47054688 5.928125 11.06609375 6.85625 11.6796875 7.8125 C12.11539062 8.534375 12.55109375 9.25625 13 10 C13.33 6.7 13.66 3.4 14 0 C15.98 0 17.96 0 20 0 C20 7.59 20 15.18 20 23 C18.02 23 16.04 23 14 23 C11.6640625 20.59375 11.6640625 20.59375 9.625 17.5 C8.93664062 16.4790625 8.24828125 15.458125 7.5390625 14.40625 C6.77722656 13.21515625 6.77722656 13.21515625 6 12 C5.67 15.63 5.34 19.26 5 23 C3.35 23 1.7 23 0 23 C0 15.41 0 7.82 0 0 Z " fill="#FFFFFF" transform="translate(383,164)"/>
<path d="M0 0 C2.625 1.875 2.625 1.875 3.5 5.0625 C3.54125 5.990625 3.5825 6.91875 3.625 7.875 C2.635 8.205 1.645 8.535 0.625 8.875 C1.615 9.535 2.605 10.195 3.625 10.875 C4.24150485 16.42354369 4.24150485 16.42354369 3.625 18.875 C1.46421817 21.08579993 0.06081822 21.80290489 -2.99609375 22.30859375 C-7.47534073 22.3148063 -10.54695222 22.31337824 -14.5625 20.1875 C-16.375 17.875 -16.375 17.875 -16.6875 15.125 C-16.584375 14.3825 -16.48125 13.64 -16.375 12.875 C-15.385 12.545 -14.395 12.215 -13.375 11.875 C-13.890625 11.33875 -14.40625 10.8025 -14.9375 10.25 C-16.375 7.875 -16.375 7.875 -16.375 4.8125 C-15.375 1.875 -15.375 1.875 -13.25 0 C-8.4580681 -1.87510379 -4.84354619 -1.6145154 0 0 Z M-9.125 5.3125 C-9.5375 5.828125 -9.95 6.34375 -10.375 6.875 C-7.66620665 8.22939668 -5.36566732 7.94001451 -2.375 7.875 C-2.705 6.885 -3.035 5.895 -3.375 4.875 C-6.01142987 3.64466606 -6.82674397 3.42464683 -9.125 5.3125 Z M-10.375 12.875 C-10.375 13.865 -10.375 14.855 -10.375 15.875 C-8.065 16.205 -5.755 16.535 -3.375 16.875 C-3.045 15.885 -2.715 14.895 -2.375 13.875 C-5.015 13.545 -7.655 13.215 -10.375 12.875 Z " fill="#FFFFFF" transform="translate(227.375,196.125)"/>
<path d="M0 0 C2.206875 -0.061875 4.41375 -0.12375 6.6875 -0.1875 C8.54955078 -0.23970703 8.54955078 -0.23970703 10.44921875 -0.29296875 C14.21666932 0.01787701 16.02794917 0.7227143 19 3 C20.38550197 5.77100394 20.1877467 7.9334706 20 11 C19.01 12.485 19.01 12.485 18 14 C17.34 14 16.68 14 16 14 C16.639375 14.928125 17.27875 15.85625 17.9375 16.8125 C20 20 20 20 21 23 C15.88176543 23.60724817 15.88176543 23.60724817 13 23 C9.74066822 20.25937422 8.13510692 17.27000508 7.6875 13.0625 C7.790625 12.381875 7.89375 11.70125 8 11 C9.65 10.34 11.3 9.68 13 9 C13 8.34 13 7.68 13 7 C10.69 6.34 8.38 5.68 6 5 C6 10.94 6 16.88 6 23 C4.02 23 2.04 23 0 23 C0 15.41 0 7.82 0 0 Z " fill="#FFFFFF" transform="translate(330,164)"/>
<path d="M0 0 C2.206875 -0.061875 4.41375 -0.12375 6.6875 -0.1875 C8.54955078 -0.23970703 8.54955078 -0.23970703 10.44921875 -0.29296875 C14.49607131 0.04092998 17.11242948 1.11242948 20 4 C20.18020629 6.47562082 20.27795445 8.8969328 20.3125 11.375 C20.34150391 12.06078125 20.37050781 12.7465625 20.40039062 13.453125 C20.46418642 18.4978999 20.46418642 18.4978999 18.23046875 20.9140625 C12.33562514 23.78405641 6.45979555 23.07021517 0 23 C0 15.41 0 7.82 0 0 Z M6 5 C6 8.96 6 12.92 6 17 C8.33294775 17.04241723 10.66702567 17.04092937 13 17 C14.25949049 15.96593327 14.25949049 15.96593327 14.09765625 13.71484375 C14.08605469 12.79832031 14.07445312 11.88179687 14.0625 10.9375 C14.04896484 9.55884766 14.04896484 9.55884766 14.03515625 8.15234375 C14.02355469 7.44207031 14.01195312 6.73179687 14 6 C11.36 5.67 8.72 5.34 6 5 Z " fill="#FFFFFF" transform="translate(277,164)"/>
<path d="M0 0 C2.206875 -0.061875 4.41375 -0.12375 6.6875 -0.1875 C8.54955078 -0.23970703 8.54955078 -0.23970703 10.44921875 -0.29296875 C14.49607131 0.04092998 17.11242948 1.11242948 20 4 C20.17883149 6.26617608 20.26802736 8.53971385 20.3125 10.8125 C20.34988281 12.05644531 20.38726562 13.30039063 20.42578125 14.58203125 C20 18 20 18 18.23046875 20.38671875 C12.84664252 24.28079972 6.38421729 23.06939367 0 23 C0 15.41 0 7.82 0 0 Z M6 5 C6 8.96 6 12.92 6 17 C8.33294775 17.04241723 10.66702567 17.04092937 13 17 C14.58867866 15.41132134 14.20794039 13.75310484 14.25 11.5625 C14.27578125 10.75941406 14.3015625 9.95632812 14.328125 9.12890625 C14.21984375 8.42636719 14.1115625 7.72382813 14 7 C10.90754997 4.53774984 10.90754997 4.53774984 6 5 Z " fill="#FFFFFF" transform="translate(193,164)"/>
<path d="M0 0 C2.206875 -0.061875 4.41375 -0.12375 6.6875 -0.1875 C8.54955078 -0.23970703 8.54955078 -0.23970703 10.44921875 -0.29296875 C14.21666932 0.01787701 16.02794917 0.7227143 19 3 C20.38550197 5.77100394 20.1877467 7.9334706 20 11 C19.01 12.485 19.01 12.485 18 14 C17.34 14 16.68 14 16 14 C16.3609375 14.48210937 16.721875 14.96421875 17.09375 15.4609375 C17.5578125 16.09257812 18.021875 16.72421875 18.5 17.375 C18.9640625 18.00148437 19.428125 18.62796875 19.90625 19.2734375 C21 21 21 21 21 23 C17.875 23.4375 17.875 23.4375 14 23 C11.42877854 21.02556964 9.61632766 18.80395193 8 16 C7.625 13.0625 7.625 13.0625 8 11 C9.98 10.67 11.96 10.34 14 10 C14 8.68 14 7.36 14 6 C11.36 5.67 8.72 5.34 6 5 C6 10.94 6 16.88 6 23 C4.02 23 2.04 23 0 23 C0 15.41 0 7.82 0 0 Z " fill="#FFFFFF" transform="translate(145,164)"/>
<path d="M0 0 C2.1875 1.1875 2.1875 1.1875 4.1875 4.1875 C4.91147248 9.96403829 5.20617999 15.32577451 2.375 20.5 C-2.37721752 23.01587986 -6.55692307 23.10939281 -11.8125 22.1875 C-15 20.5 -15 20.5 -16.8125 17.1875 C-17.42707209 12.77375499 -17.62565922 8.57855977 -16.8125 4.1875 C-12.39169748 -1.41093701 -6.68201596 -1.93036017 0 0 Z M-10.8125 6.1875 C-11.25182865 8.32238276 -11.25182865 8.32238276 -11.125 10.6875 C-11.12113281 11.4815625 -11.11726562 12.275625 -11.11328125 13.09375 C-10.99475165 15.40483036 -10.99475165 15.40483036 -8.8125 17.1875 C-6.3125 17.52083333 -6.3125 17.52083333 -3.8125 17.1875 C-1.38727793 14.76227793 -1.51620746 14.0154321 -1.5 10.6875 C-1.48324219 9.8934375 -1.46648437 9.099375 -1.44921875 8.28125 C-1.56910156 7.5903125 -1.68898437 6.899375 -1.8125 6.1875 C-5.82259099 3.51410601 -6.80240901 3.51410601 -10.8125 6.1875 Z " fill="#FFFFFF" transform="translate(173.8125,195.8125)"/>
<path d="M0 0 C2 1.625 2 1.625 3 3.625 C3.12257461 5.58049256 3.17552388 7.54070618 3.1875 9.5 C3.20167969 10.54929688 3.21585938 11.59859375 3.23046875 12.6796875 C2.99904978 15.63714353 2.70776145 17.222282 1 19.625 C-3.05187597 22.3233952 -7.29794431 22.18656458 -12 21.625 C-16.54054054 19.54391892 -16.54054054 19.54391892 -18 16.625 C-18.14867166 14.50356978 -18.2213289 12.37644008 -18.25 10.25 C-18.27578125 9.10789063 -18.3015625 7.96578125 -18.328125 6.7890625 C-17.97173219 3.35241754 -17.43493674 2.02580211 -15 -0.375 C-9.91602433 -2.06965856 -4.90689304 -2.24899264 0 0 Z M-12 5.625 C-12.35609192 7.76318461 -12.35609192 7.76318461 -12.3125 10.125 C-12.32925781 10.9190625 -12.34601563 11.713125 -12.36328125 12.53125 C-12.24339844 13.2221875 -12.12351562 13.913125 -12 14.625 C-9.23011924 16.94043207 -9.23011924 16.94043207 -6.375 16.3125 C-4.06498035 15.8508486 -4.06498035 15.8508486 -3 14.625 C-2.80058132 12.55727266 -2.80058132 12.55727266 -2.8125 10.1875 C-2.79832031 9.38441406 -2.78414062 8.58132812 -2.76953125 7.75390625 C-2.79837644 5.40869367 -2.79837644 5.40869367 -5 3.625 C-8.9674509 3.19030472 -8.9674509 3.19030472 -12 5.625 Z " fill="#FFFFFF" transform="translate(136,165.375)"/>
<path d="M0 0 C5.61 0 11.22 0 17 0 C17 1.65 17 3.3 17 5 C13.37 5 9.74 5 6 5 C6 6.32 6 7.64 6 9 C8.97 9 11.94 9 15 9 C15 10.65 15 12.3 15 14 C12.03 14 9.06 14 6 14 C6 14.99 6 15.98 6 17 C9.96 17 13.92 17 18 17 C18 18.98 18 20.96 18 23 C12.06 23 6.12 23 0 23 C0 15.41 0 7.82 0 0 Z " fill="#FFFFFF" transform="translate(227,164)"/>
<path d="M0 0 C1.98 0 3.96 0 6 0 C6 2.64 6 5.28 6 8 C8.64 8 11.28 8 14 8 C14 5.36 14 2.72 14 0 C15.98 0 17.96 0 20 0 C20 7.26 20 14.52 20 22 C18.02 22 16.04 22 14 22 C14 19.03 14 16.06 14 13 C11.36 13 8.72 13 6 13 C6 15.97 6 18.94 6 22 C4.02 22 2.04 22 0 22 C0 14.74 0 7.48 0 0 Z " fill="#FFFFFF" transform="translate(237,196)"/>
<path d="M0 0 C5.61 0 11.22 0 17 0 C17 1.65 17 3.3 17 5 C13.04 5 9.08 5 5 5 C5 6.32 5 7.64 5 9 C8.3 9 11.6 9 15 9 C15 10.65 15 12.3 15 14 C11.7 14 8.4 14 5 14 C5 14.99 5 15.98 5 17 C8.96 17 12.92 17 17 17 C17 18.98 17 20.96 17 23 C11.39 23 5.78 23 0 23 C0 15.41 0 7.82 0 0 Z " fill="#FFFFFF" transform="translate(436,164)"/>
<path d="M0 0 C1.98 0 3.96 0 6 0 C7.5091441 3.26669046 9.00571701 6.53898816 10.5 9.8125 C10.92925781 10.74126953 11.35851562 11.67003906 11.80078125 12.62695312 C12.40986328 13.9659668 12.40986328 13.9659668 13.03125 15.33203125 C13.40830078 16.15421143 13.78535156 16.9763916 14.17382812 17.82348633 C15 20 15 20 15 23 C13.02 23 11.04 23 9 23 C8.34 21.68 7.68 20.36 7 19 C4.36 19 1.72 19 -1 19 C-1.66 20.32 -2.32 21.64 -3 23 C-4.98 23 -6.96 23 -9 23 C-8.33673121 17.8307147 -6.08075343 13.37748635 -3.9375 8.6875 C-3.37192383 7.43356445 -3.37192383 7.43356445 -2.79492188 6.15429688 C-1.86788193 4.10072738 -0.93613122 2.04943713 0 0 Z M2 10 C1.67 10.99 1.34 11.98 1 13 C2.32 12.67 3.64 12.34 5 12 C4.67 11.34 4.34 10.68 4 10 C3.34 10 2.68 10 2 10 Z " fill="#FFFFFF" transform="translate(363,164)"/>
<path d="M0 0 C1.98 0 3.96 0 6 0 C6.48210938 1.03640625 6.96421875 2.0728125 7.4609375 3.140625 C8.09892902 4.51043032 8.73695148 5.88022123 9.375 7.25 C9.69210938 7.93191406 10.00921875 8.61382812 10.3359375 9.31640625 C10.8 10.31220703 10.8 10.31220703 11.2734375 11.328125 C11.72154785 12.29395508 11.72154785 12.29395508 12.17871094 13.27929688 C12.81820031 14.61910694 13.51215414 15.9329687 14.2265625 17.234375 C15 19 15 19 15 23 C13.02 23 11.04 23 9 23 C8.835 22.360625 8.67 21.72125 8.5 21.0625 C7.218214 18.83880759 7.218214 18.83880759 5.0859375 18.51171875 C3.06424845 18.2724022 1.03158061 18.13106972 -1 18 C-1.99 20.475 -1.99 20.475 -3 23 C-4.98 23 -6.96 23 -9 23 C-6.54234965 15.08090444 -3.33181427 7.58014704 0 0 Z M3 9 C2.67 10.32 2.34 11.64 2 13 C2.99 13 3.98 13 5 13 C4.34 11.68 3.68 10.36 3 9 Z " fill="#FFFFFF" transform="translate(51,164)"/>
<path d="M0 0 C3.83625 -0.12375 3.83625 -0.12375 7.75 -0.25 C8.54889648 -0.28641602 9.34779297 -0.32283203 10.17089844 -0.36035156 C13.63386259 -0.41443312 15.63181731 -0.26207649 18.48046875 1.765625 C20.51494966 4.75720104 20.6482049 6.56444297 20.4375 10.09375 C20 12 20 12 18.0625 14.5 C13.94895266 16.5147987 10.49692378 16.3526999 6 16 C6 17.98 6 19.96 6 22 C4.02 22 2.04 22 0 22 C0 14.74 0 7.48 0 0 Z M6 5 C6 6.98 6 8.96 6 11 C10.14093698 11.20970559 10.14093698 11.20970559 14 10 C13.67 8.35 13.34 6.7 13 5 C10.69 5 8.38 5 6 5 Z " fill="#FFFFFF" transform="translate(276,196)"/>
<path d="M0 0 C3.83625 -0.12375 3.83625 -0.12375 7.75 -0.25 C8.54889648 -0.28641602 9.34779297 -0.32283203 10.17089844 -0.36035156 C13.65826173 -0.41481416 15.62952641 -0.26895799 18.48046875 1.80078125 C20.73140304 5.05856019 20.61048933 7.13356756 20 11 C18.0625 13.9375 18.0625 13.9375 15 16 C11.9508912 16.39770984 9.0546741 16.29947785 6 16 C6 17.98 6 19.96 6 22 C4.02 22 2.04 22 0 22 C0 14.74 0 7.48 0 0 Z M6 5 C6 6.98 6 8.96 6 11 C10.14093698 11.20970559 10.14093698 11.20970559 14 10 C13.67 8.35 13.34 6.7 13 5 C10.69 5 8.38 5 6 5 Z " fill="#FFFFFF" transform="translate(119,196)"/>
<path d="M0 0 C1.9375 1.875 1.9375 1.875 2.25 5.0625 C2.146875 5.990625 2.04375 6.91875 1.9375 7.875 C-0.0425 7.875 -2.0225 7.875 -4.0625 7.875 C-4.3925 6.885 -4.7225 5.895 -5.0625 4.875 C-6.72861905 4.832279 -8.39632885 4.83436168 -10.0625 4.875 C-11.32199049 5.90906673 -11.32199049 5.90906673 -11.16015625 8.16015625 C-11.14855469 9.07667969 -11.13695312 9.99320313 -11.125 10.9375 C-11.11146484 12.31615234 -11.11146484 12.31615234 -11.09765625 13.72265625 C-11.08605469 14.43292969 -11.07445312 15.14320313 -11.0625 15.875 C-8.7525 15.875 -6.4425 15.875 -4.0625 15.875 C-4.0625 14.555 -4.0625 13.235 -4.0625 11.875 C-2.0825 11.875 -0.1025 11.875 1.9375 11.875 C2.25 14.625 2.25 14.625 1.9375 17.875 C-0.20991855 20.50731951 -1.8528105 21.66062464 -5.22265625 22.2578125 C-9.29305513 22.46167221 -11.51883275 22.20346563 -15.0625 20.0625 C-18.45153678 16.35574102 -18.28457203 12.86242191 -18.21484375 8.09765625 C-18.02268967 5.2941775 -17.52356568 3.28575837 -16.0625 0.875 C-11.01864152 -2.23227941 -5.43892081 -1.99797091 0 0 Z " fill="#FFFFFF" transform="translate(427.0625,165.125)"/>
<path d="M0 0 C2.31279611 1.15639806 4.17409828 2.17409828 6 4 C6.04063832 5.66617115 6.042721 7.33388095 6 9 C4.02 9 2.04 9 0 9 C0 8.01 0 7.02 0 6 C-2.31 6.33 -4.62 6.66 -7 7 C-7.02689216 8.47906892 -7.04634621 9.95827483 -7.0625 11.4375 C-7.07410156 12.26121094 -7.08570313 13.08492187 -7.09765625 13.93359375 C-7.23267348 15.99163938 -7.23267348 15.99163938 -6 17 C-4.33382885 17.04063832 -2.66611905 17.042721 -1 17 C-0.67 16.01 -0.34 15.02 0 14 C1.98 14 3.96 14 6 14 C6.3125 16.8125 6.3125 16.8125 6 20 C2.398784 23.601216 -1.78910388 23.35398247 -6.59765625 23.3984375 C-9.50724247 22.91587198 -10.87235293 22.01865846 -13 20 C-14.53937625 15.38187125 -14.52175897 10.82274505 -14 6 C-10.52054788 0.00094463 -6.64633959 -0.45836825 0 0 Z " fill="#FFFFFF" transform="translate(23,195)"/>
<path d="M0 0 C1.4540625 0.0309375 1.4540625 0.0309375 2.9375 0.0625 C4.44355402 3.35143003 5.94130532 6.64407446 7.4375 9.9375 C7.86675781 10.87464844 8.29601562 11.81179687 8.73828125 12.77734375 C9.34736328 14.12119141 9.34736328 14.12119141 9.96875 15.4921875 C10.34580078 16.31960449 10.72285156 17.14702148 11.11132812 17.99951172 C11.9375 20.0625 11.9375 20.0625 11.9375 22.0625 C9.9575 22.0625 7.9775 22.0625 5.9375 22.0625 C5.2775 20.4125 4.6175 18.7625 3.9375 17.0625 C-0.11335679 17.30881557 -0.11335679 17.30881557 -4.0625 18.0625 C-5.6524433 19.98314793 -5.6524433 19.98314793 -6.0625 22.0625 C-8.0425 22.0625 -10.0225 22.0625 -12.0625 22.0625 C-11.38373256 17.27341862 -9.52156236 13.1869525 -7.5625 8.8125 C-7.08103516 7.71421875 -7.08103516 7.71421875 -6.58984375 6.59375 C-3.70496394 0.07561151 -3.70496394 0.07561151 0 0 Z M-1.0625 9.0625 C-1.3925 10.3825 -1.7225 11.7025 -2.0625 13.0625 C-0.7425 12.7325 0.5775 12.4025 1.9375 12.0625 C1.6075 11.0725 1.2775 10.0825 0.9375 9.0625 C0.2775 9.0625 -0.3825 9.0625 -1.0625 9.0625 Z " fill="#FFFFFF" transform="translate(72.0625,195.9375)"/>
<path d="M0 0 C1.65 0 3.3 0 5 0 C5 2.64 5 5.28 5 8 C7.97 8 10.94 8 14 8 C14 5.36 14 2.72 14 0 C15.65 0 17.3 0 19 0 C19 7.26 19 14.52 19 22 C17.35 22 15.7 22 14 22 C14 19.03 14 16.06 14 13 C11.03 13 8.06 13 5 13 C5 15.97 5 18.94 5 22 C3.35 22 1.7 22 0 22 C0 14.74 0 7.48 0 0 Z " fill="#FFFFFF" transform="translate(36,196)"/>
<path d="M0 0 C1.65 0 3.3 0 5 0 C5.33 5.61 5.66 11.22 6 17 C8.31 17 10.62 17 13 17 C13.33 11.39 13.66 5.78 14 0 C15.65 0 17.3 0 19 0 C19.14554346 3.08283443 19.23413821 6.16478439 19.3125 9.25 C19.35439453 10.12269531 19.39628906 10.99539062 19.43945312 11.89453125 C19.5626271 18.34884765 19.5626271 18.34884765 16.765625 21.5859375 C13.99906228 23.00047946 12.50315077 23.49229446 9.4375 23.375 C8.69371094 23.36210937 7.94992187 23.34921875 7.18359375 23.3359375 C4.75437349 22.96221131 3.08756827 22.28817123 1 21 C-0.17426264 18.65147472 -0.11508173 17.26225935 -0.09765625 14.6484375 C-0.09443359 13.79765625 -0.09121094 12.946875 -0.08789062 12.0703125 C-0.07951172 11.18085938 -0.07113281 10.29140625 -0.0625 9.375 C-0.05798828 8.4778125 -0.05347656 7.580625 -0.04882812 6.65625 C-0.03702591 4.43743352 -0.02056155 2.21874982 0 0 Z " fill="#FFFFFF" transform="translate(304,164)"/>
<path d="M0 0 C5.94 0 11.88 0 18 0 C18 1.65 18 3.3 18 5 C14.04 5 10.08 5 6 5 C6 6.32 6 7.64 6 9 C9.3 9 12.6 9 16 9 C16 10.98 16 12.96 16 15 C12.7 15 9.4 15 6 15 C6 17.64 6 20.28 6 23 C4.02 23 2.04 23 0 23 C0 15.41 0 7.82 0 0 Z " fill="#FFFFFF" transform="translate(9,164)"/>
<path d="M0 0 C1.98 0 3.96 0 6 0 C6 5.61 6 11.22 6 17 C9.63 17 13.26 17 17 17 C17 18.98 17 20.96 17 23 C11.39 23 5.78 23 0 23 C0 15.41 0 7.82 0 0 Z " fill="#FFFFFF" transform="translate(171,164)"/>
<path d="M0 0 C1.98 0 3.96 0 6 0 C6 7.59 6 15.18 6 23 C4.02 23 2.04 23 0 23 C0 15.41 0 7.82 0 0 Z " fill="#FFFFFF" transform="translate(32,164)"/>
<path d="M0 0 C1.98 0 3.96 0 6 0 C6 7.26 6 14.52 6 22 C4.02 22 2.04 22 0 22 C0 14.74 0 7.48 0 0 Z " fill="#FFFFFF" transform="translate(264,196)"/>
<path d="M0 0 C1.98 0 3.96 0 6 0 C6 7.26 6 14.52 6 22 C4.02 22 2.04 22 0 22 C0 14.74 0 7.48 0 0 Z " fill="#FFFFFF" transform="translate(145,196)"/>
</svg>
