<?xml version="1.0" encoding="utf-8"?>
<!-- Track map generated with TinyPedal -->
<svg viewBox="-216.8551 -2377.1423 2632.9962 5476.9394" version="1.1" xmlns="http://www.w3.org/2000/svg">
	<title>24 Heures du Mans 2022</title>
	<!-- Sector coordinates index -->
	<desc>200,670</desc>
	<!-- Raw global coordinates -->
	<polyline id="map" fill="none" stroke="black" stroke-width="10" points="-186.9743,-1062.4446 -185.4459,-1085.3181 -184.873,-1094.491 -184.1553,-1105.8639 -183.5494,-1115.2975 -182.8823,-1125.9139 -182.1903,-1136.6682 -181.3536,-1147.5507 -180.3816,-1158.5695 -179.4188,-1169.7283 -178.4944,-1181.0248 -177.5901,-1192.4528 -176.6227,-1205.1708 -175.8461,-1215.687 -174.9854,-1227.4833 -174.1342,-1239.3546 -173.2115,-1252.5195 -172.4761,-1263.3854 -171.6928,-1275.5579 -170.8623,-1289.0658 -170.189,-1300.2079 -169.3206,-1313.9304 -168.4592,-1326.502 -167.608,-1337.8911 -166.5748,-1350.627 -165.4332,-1363.4445 -164.0961,-1376.3318 -162.2968,-1390.5687 -160.5955,-1402.2634 -158.3245,-1416.6211 -156.3439,-1428.4233 -154.0229,-1441.5919 -151.5643,-1454.8138 -148.9352,-1468.0765 -146.1225,-1481.3733 -143.0966,-1494.6927 -139.4922,-1509.3556 -136.2908,-1521.3442 -132.0733,-1535.9813 -128.3688,-1547.9347 -123.9862,-1561.1847 -119.3204,-1574.3821 -114.354,-1587.491 -109.1154,-1600.4142 -103.5468,-1613.0427 -97.575,-1625.3235 -91.171,-1637.2167 -84.2594,-1648.6438 -76.8383,-1659.5614 -68.9999,-1670.0057 -59.8705,-1680.8662 -51.9878,-1689.1932 -42.8187,-1697.8253 -32.2895,-1706.5571 -23.38,-1713.1289 -13.2071,-1719.8685 -2.9923,-1726.0286 6.9574,-1731.723 17.3313,-1737.5668 26.1537,-1742.5167 33.5961,-1746.6853 41.3064,-1751.0148 48.4221,-1755.0386 54.948,-1758.7687 60.8965,-1762.2301 66.2931,-1765.4496 71.1832,-1768.4661 75.6645,-1771.3523 80.2122,-1774.4454 83.6627,-1776.9653 87.2039,-1779.8225 90.419,-1782.817 93.5766,-1786.3346 96.1018,-1789.7612 98.0897,-1793.025 100.0077,-1796.8419 101.6246,-1800.868 102.9388,-1805.1149 104.0141,-1810.0615 104.6389,-1814.3054 105.1125,-1819.2423 105.3512,-1824.3962 105.3774,-1829.6588 105.2814,-1834.786 105.2605,-1840.1555 105.5207,-1844.8312 106.0809,-1848.9078 107.1108,-1853.3033 108.5365,-1857.6101 110.377,-1861.8558 112.6316,-1866.0582 115.2815,-1870.1589 118.254,-1873.9884 121.5124,-1877.4557 125.4909,-1880.9728 129.4942,-1883.995 133.4184,-1886.6274 138.5816,-1889.8511 143.0728,-1892.5667 148.3382,-1895.6718 153.7972,-1898.8326 159.3623,-1902.0024 165.1455,-1905.2766 171.7675,-1909.0433 177.3837,-1912.251 183.8339,-1915.9368 190.4946,-1919.7573 197.3452,-1923.713 205.0186,-1928.1692 211.3365,-1931.866 218.4476,-1936.0645 225.7137,-1940.4193 233.1017,-1944.976 241.3003,-1950.3187 248.0318,-1954.9768 255.4754,-1960.5179 262.8577,-1966.4462 270.8563,-1973.4358 277.9493,-1980.2167 284.8359,-1987.3452 290.9064,-1993.9563 297.6535,-2001.4823 304.5407,-2009.1093 312.3816,-2017.5139 319.0752,-2024.3226 326.864,-2031.7424 335.0321,-2038.9834 343.58,-2046.0217 353.4388,-2053.4287 361.8499,-2059.0972 371.5186,-2064.926 381.5007,-2070.1882 391.7664,-2074.7649 402.2704,-2078.5278 414.0282,-2081.668 423.757,-2083.5459 434.6788,-2085.002 445.7091,-2085.8643 457.7013,-2086.2937 467.1788,-2086.3567 477.2742,-2086.3184 486.8972,-2086.272 496.0437,-2086.3137 504.7445,-2086.5007 513.0523,-2086.8618 521.7634,-2087.4705 528.5543,-2088.21 535.782,-2089.3511 542.7424,-2090.8582 550.1462,-2092.9927 556.0037,-2095.1555 562.2905,-2098.0283 568.3713,-2101.4246 574.2767,-2105.3108 579.9612,-2109.6936 585.9125,-2115.0496 590.5352,-2119.7932 595.5995,-2126.1279 599.5401,-2132.3188 602.8365,-2138.8677 605.5439,-2145.7649 607.5727,-2152.2302 609.5305,-2159.6538 611.3027,-2167.3003 613.0097,-2175.1174 614.9561,-2183.844 616.7637,-2191.0879 619.1842,-2199.1338 622.203,-2207.0564 626.2303,-2215.5608 629.9761,-2222.3701 635.1951,-2230.3989 639.9193,-2236.7478 645.6422,-2243.5239 651.8223,-2250.0408 658.3737,-2256.3914 665.3193,-2262.5684 672.6254,-2268.6057 680.2818,-2274.4949 688.2925,-2280.1738 696.5931,-2285.5972 705.1779,-2290.7395 714.0928,-2295.644 724.2123,-2300.8567 732.693,-2305.0408 742.3216,-2309.6033 752.1459,-2314.1052 762.1506,-2318.5669 772.3433,-2322.9641 783.7715,-2327.7134 794.3282,-2331.925 803.7593,-2335.5115 813.9535,-2339.1438 824.7704,-2342.6294 833.2941,-2345.1379 842.3995,-2347.7292 851.1271,-2350.1841 859.5573,-2352.4089 868.6076,-2354.4763 875.9187,-2355.79 884.0124,-2356.7671 892.059,-2357.1423 900.0205,-2356.8213 907.9135,-2355.8242 915.8253,-2354.186 923.776,-2351.9658 931.7305,-2349.1716 939.7124,-2345.8936 947.7497,-2342.2356 955.8259,-2338.1907 963.9551,-2333.8184 972.9455,-2328.6362 980.332,-2324.1187 988.5479,-2318.8008 996.7194,-2313.2129 1005.6507,-2306.7307 1013.7618,-2300.5359 1021.0537,-2294.7212 1029.1603,-2288.0242 1037.2513,-2281.0579 1045.3387,-2273.8459 1054.2334,-2265.6421 1062.3071,-2257.9363 1069.5494,-2250.7949 1077.5521,-2242.6199 1085.5177,-2234.2144 1093.423,-2225.5649 1101.2081,-2216.634 1108.8324,-2207.438 1116.2493,-2198.0068 1124.2281,-2187.3401 1130.635,-2178.3904 1137.6525,-2168.2393 1144.576,-2157.884 1152.1102,-2146.2808 1158.2563,-2136.6536 1165.0706,-2125.8215 1171.8274,-2114.8235 1178.5677,-2103.6882 1185.3727,-2092.4666 1192.9141,-2080.0156 1199.0969,-2069.7302 1205.9873,-2058.2073 1212.9075,-2046.594 1219.8177,-2034.8728 1226.7329,-2023.0571 1233.6666,-2011.1602 1240.6007,-1999.1741 1247.4948,-1987.0784 1254.9857,-1973.6326 1261.7374,-1961.3429 1267.7765,-1950.2086 1274.4132,-1937.7305 1280.9884,-1925.1501 1287.5155,-1912.4768 1293.9578,-1899.6947 1300.9321,-1885.5055 1306.5585,-1873.8011 1312.6802,-1860.679 1318.619,-1847.4155 1324.9492,-1832.6714 1329.9812,-1820.4962 1335.412,-1806.8517 1341.1976,-1791.7078 1345.7889,-1779.2174 1350.7435,-1765.2382 1356.0521,-1749.7529 1360.33,-1737.0157 1365.0229,-1722.7959 1370.0977,-1707.0688 1374.1821,-1694.1365 1378.6478,-1679.7003 1383.0311,-1665.1937 1387.3324,-1650.6184 1391.5658,-1635.98 1396.1742,-1619.8152 1399.8948,-1606.5377 1403.9501,-1591.7231 1407.9821,-1576.8605 1412.0629,-1561.9698 1416.1644,-1547.0436 1420.707,-1530.5851 1424.4794,-1517.098 1428.7284,-1502.0903 1433.0034,-1487.0504 1437.2885,-1471.9744 1441.601,-1456.8682 1445.9426,-1441.7332 1450.3098,-1426.5691 1455.1274,-1409.8513 1459.4927,-1394.6115 1463.3954,-1380.8588 1467.723,-1365.5433 1472.0441,-1350.1931 1476.3503,-1334.8068 1480.6415,-1319.3845 1484.9426,-1303.9348 1489.2677,-1288.4611 1493.6058,-1272.9607 1497.9628,-1257.436 1502.3496,-1241.8901 1506.7648,-1226.3239 1511.1884,-1210.7311 1515.5992,-1195.1069 1520.0269,-1179.4603 1524.473,-1163.7928 1528.9524,-1148.1082 1533.4517,-1132.4039 1537.9698,-1116.6799 1542.4952,-1100.9338 1547.0063,-1085.1602 1551.4945,-1069.3574 1555.9747,-1053.5308 1560.4417,-1037.6791 1564.8898,-1021.8046 1569.7682,-1004.3229 1573.7332,-990.004 1578.1377,-974.0875 1583.0109,-956.5823 1586.9965,-942.2546 1591.866,-924.7402 1595.8632,-910.4114 1600.7745,-892.9028 1604.8247,-878.5845 1609.3645,-862.6854 1613.9495,-846.7983 1618.568,-830.9203 1623.2045,-815.0471 1627.8563,-799.178 1632.5355,-783.3168 1637.2386,-767.463 1641.8918,-751.5935 1646.4716,-735.7026 1651.0002,-719.7974 1655.5011,-703.8841 1659.9712,-687.9628 1664.4133,-672.0348 1668.8268,-656.0999 1673.2324,-640.2469 1677.5509,-624.8176 1681.6417,-610.1017 1685.4486,-596.1975 1688.9313,-583.064 1692.4294,-569.4602 1695.1323,-558.9733 1698.019,-547.9968 1700.7882,-537.702 1703.6559,-527.1289 1705.8212,-519.0302 1708.0273,-510.5732 1710.021,-502.661 1711.8029,-495.2528 1713.376,-488.2881 1714.8462,-481.0426 1715.7935,-475.3392 1716.501,-469.085 1716.7853,-462.8216 1716.6384,-456.4987 1715.9348,-449.5305 1714.8627,-443.9044 1713.1104,-437.6908 1710.7886,-431.524 1708.0358,-425.4719 1704.8909,-419.1472 1702.4871,-414.1893 1699.9967,-408.2513 1698.3701,-403.4273 1697.0316,-398.0339 1696.1799,-392.6149 1695.8057,-386.6673 1695.9666,-381.8084 1696.6392,-376.4037 1697.8169,-370.9672 1699.5365,-365.4945 1702.1001,-359.4871 1704.6937,-354.6202 1708.0529,-349.2654 1711.89,-343.9513 1716.6591,-338.1607 1721.4594,-332.9377 1726.0979,-328.2336 1731.4973,-322.9114 1737.0266,-317.3951 1742.5393,-311.629 1747.9658,-305.4977 1753.2335,-298.9652 1758.2762,-292.0145 1763.4943,-283.876 1767.4886,-276.8552 1771.6571,-268.705 1775.5464,-260.2138 1779.2043,-251.4218 1783.042,-241.4555 1786.0695,-233.118 1789.2952,-223.7138 1792.3376,-214.1856 1795.2227,-204.4554 1798.0234,-194.5374 1801.1195,-183.4463 1803.7004,-174.243 1806.6071,-163.8804 1809.5443,-153.3735 1812.5073,-142.7237 1815.4943,-131.9337 1818.5045,-121.0082 1821.5298,-109.9494 1824.5743,-98.7627 1827.6416,-87.4534 1830.7393,-76.028 1833.8649,-64.5076 1836.9956,-52.9369 1840.1417,-41.2732 1843.6377,-28.3265 1846.5302,-17.6455 1850.1105,-4.486 1853.0739,6.3661 1856.4004,18.5133 1860.1152,31.9781 1863.2032,43.0726 1866.666,55.4861 1870.1663,67.9877 1873.7153,80.573 1877.6721,94.5124 1881.3191,107.2679 1884.6528,118.8107 1888.7928,132.9966 1892.2004,144.6747 1895.9485,157.7411 1899.6493,170.902 1903.676,185.4828 1906.9458,197.4891 1910.5634,210.9056 1914.5623,225.7432 1917.8619,237.9295 1921.5391,251.5046 1925.2295,265.0898 1928.9565,278.7261 1933.1133,293.7809 1936.5909,306.1308 1940.9296,321.265 1944.5129,333.6899 1948.5093,347.5458 1952.5298,361.451 1956.5742,375.405 1960.6371,389.4083 1964.7188,403.4602 1968.7979,417.566 1972.8685,431.7266 1976.924,445.9427 1980.95,460.2173 1984.9628,474.545 1988.9836,488.9188 1993.0083,503.3385 1997.0424,517.8022 2001.0768,532.3121 2005.5062,548.326 2009.1276,561.4699 2013.1486,576.1175 2017.1971,590.8026 2021.3157,605.5121 2025.4945,620.2494 2030.13,636.5007 2033.9402,649.8323 2038.1886,664.683 2042.8729,681.0664 2046.7117,694.5079 2051.0005,709.4766 2055.7429,725.9826 2059.6406,739.5189 2064.4221,756.1017 2068.3506,769.7001 2073.6091,787.8737 2077.1267,800.0163 2081.5356,815.2246 2085.9666,830.4631 2090.4253,845.7288 2094.9055,861.022 2099.4045,876.3414 2103.9341,891.682 2108.9399,908.5828 2112.9761,922.452 2117.3547,937.9167 2122.0676,954.9855 2126.2739,970.5494 2130.0015,984.5927 2134.1055,1000.2294 2138.2095,1015.8899 2142.3555,1031.5626 2146.5776,1047.2371 2150.8818,1062.9098 2155.2566,1078.5835 2159.6995,1094.2582 2164.1592,1109.9484 2169.0471,1127.2365 2173.0427,1141.4006 2177.4685,1157.1621 2181.8804,1172.948 2186.3076,1188.7501 2190.7502,1204.5638 2195.1687,1220.2269 2199.4717,1235.3806 2204.0027,1251.2728 2207.9119,1264.9645 2211.2542,1276.6167 2215.1416,1290.0198 2218.175,1300.3496 2221.3816,1311.2174 2224.3972,1321.4888 2227.2332,1331.1733 2229.9099,1340.2843 2232.4543,1348.8354 2234.8977,1356.8557 2237.2693,1364.3695 2239.6062,1371.3899 2241.978,1377.9285 2244.4836,1384.0071 2247.2241,1389.6815 2250.2805,1395.0417 2254.0151,1400.6354 2257.7935,1405.4321 2261.4932,1409.5741 2265.9573,1414.0309 2270.7864,1418.3351 2275.9846,1422.4227 2281.4148,1426.2242 2287.25,1430.0543 2291.7556,1433.0244 2296.4038,1436.3414 2301.1038,1440.1537 2304.6643,1443.4742 2308.3289,1447.4194 2311.6384,1451.644 2314.5586,1456.1133 2317.0457,1460.8165 2319.0803,1465.7543 2320.6252,1470.9381 2321.6877,1476.364 2322.2522,1482.0239 2322.3052,1488.4872 2321.9255,1493.9402 2321.1382,1500.1965 2319.9067,1507.3348 2318.4932,1514.0522 2316.8479,1520.9867 2315.0474,1528.1473 2313.4153,1534.741 2311.7168,1542.2986 2310.2424,1550.1151 2309.0234,1558.1793 2308.0315,1567.3191 2307.5295,1574.9857 2307.4211,1583.6781 2307.7285,1592.5291 2308.6167,1602.4235 2309.6836,1610.6479 2311.1763,1619.917 2312.9473,1629.3203 2315.1885,1639.8097 2317.4587,1649.4203 2319.7085,1658.1248 2322.427,1667.8914 2325.623,1678.7618 2328.3096,1687.7787 2331.3035,1697.9454 2334.5779,1709.3145 2337.2302,1718.7628 2340.1526,1729.4121 2343.3406,1741.3065 2346.2058,1752.2812 2348.7451,1762.2896 2351.521,1773.5519 2354.2368,1784.9622 2357.0991,1797.6678 2359.5261,1809.3501 2361.5476,1819.9935 2363.6182,1831.9569 2365.5112,1844.0585 2367.2334,1856.2915 2368.7852,1868.6516 2370.1667,1881.1337 2371.3923,1893.7327 2372.4915,1906.4429 2373.4878,1919.2604 2374.3816,1932.1826 2375.166,1945.208 2375.9229,1959.6505 2376.4858,1971.5524 2377.0735,1984.8629 2377.6963,1999.6049 2378.2383,2013.0952 2378.7415,2026.6681 2379.1633,2038.9521 2379.6016,2052.6755 2379.9995,2066.4749 2380.3481,2080.3455 2380.6401,2094.2466 2380.9084,2108.2107 2381.176,2122.2371 2381.4443,2136.3252 2381.769,2151.8914 2382.0615,2164.6799 2382.3967,2178.9438 2382.7708,2194.6982 2383.0542,2207.6375 2383.375,2222.0647 2383.6802,2236.5439 2384.0007,2251.073 2384.3779,2265.6511 2384.7937,2280.2776 2385.2502,2294.95 2385.7852,2311.1443 2386.2292,2324.4355 2386.7104,2339.2458 2387.2576,2355.5876 2387.7061,2370.489 2388.0774,2383.9341 2388.4514,2398.9124 2388.7444,2413.9294 2388.9761,2428.9858 2389.1609,2444.0803 2389.3452,2459.2148 2389.5203,2474.3887 2389.7107,2491.125 2389.8789,2504.853 2390.0811,2520.1445 2390.3057,2535.4746 2390.5479,2550.8459 2390.8376,2567.7988 2391.1106,2581.7056 2391.4487,2597.1938 2391.8101,2612.7214 2392.1809,2628.2878 2392.5613,2643.8923 2392.9592,2659.5359 2393.4084,2676.7871 2393.7729,2690.936 2394.1829,2706.6926 2394.6086,2722.4851 2395.0571,2738.311 2395.5012,2755.7583 2395.7981,2770.0627 2396.0269,2785.9868 2396.1326,2803.5376 2396.1411,2817.9209 2396.0972,2833.9268 2395.9014,2849.9526 2395.3826,2867.5061 2394.6963,2881.5083 2393.7456,2896.5137 2392.5527,2910.8914 2390.9133,2924.5911 2388.9338,2937.6199 2386.8909,2949.9607 2384.8188,2961.5356 2382.6682,2972.3562 2380.4824,2982.3804 2378.3362,2991.6677 2376.2881,3000.2737 2374.323,3008.2144 2372.3994,3015.5554 2370.5203,3022.3503 2368.679,3028.6265 2366.9038,3034.425 2365.2231,3039.7893 2363.6157,3044.7788 2362.0354,3049.4465 2360.4182,3053.8242 2358.6892,3057.9102 2356.5635,3062.0867 2354.5771,3065.2588 2352.0613,3068.4814 2349.2126,3071.3103 2346.0566,3073.7114 2342.6025,3075.7004 2338.8435,3077.283 2334.782,3078.4805 2330.3894,3079.2996 2325.7024,3079.7302 2320.7622,3079.7971 2315.5935,3079.4768 2310.2341,3078.7476 2304.1313,3077.5042 2298.9805,3076.1956 2292.5361,3074.3035 2287.0801,3072.4971 2280.1882,3070.0208 2274.3467,3067.8242 2266.9053,3065.1277 2259.8086,3062.783 2253.1826,3060.6973 2245.6025,3058.3403 2237.873,3055.9568 2229.9312,3053.5308 2221.7798,3051.0574 2213.4297,3048.5122 2204.8857,3045.8965 2196.1514,3043.2063 2186.3384,3040.1406 2178.1501,3037.572 2168.8889,3034.6599 2159.4844,3031.7002 2149.9827,3028.7302 2140.3198,3025.7449 2130.4995,3022.7373 2119.5193,3019.3992 2110.4111,3016.6052 2100.1704,3013.4072 2089.7986,3010.1331 2079.2903,3006.8071 2068.6436,3003.4478 2057.8687,3000.0337 2046.9753,2996.5476 2035.954,2993.033 2024.8005,2989.5159 2012.3854,2985.6401 2002.1493,2982.467 1990.6952,2978.9192 1979.1396,2975.3325 1966.3104,2971.354 1955.7296,2968.051 1943.8864,2964.3323 1930.7494,2960.1975 1919.9143,2956.7917 1907.7733,2953.0181 1895.5273,2949.2581 1883.1886,2945.4753 1870.7654,2941.6462 1858.2521,2937.7932 1844.3898,2933.5156 1831.705,2929.5801 1818.941,2925.6072 1807.3883,2921.9998 1793.1912,2917.5347 1780.2212,2913.3979 1768.4967,2909.6206 1755.4113,2905.3684 1740.9755,2900.5442 1729.1359,2896.4763 1715.9497,2891.8413 1702.745,2887.0867 1688.2449,2881.7173 1676.3711,2877.1941 1663.1753,2872.0066 1648.6519,2866.1216 1636.7566,2861.187 1623.5435,2855.5396 1610.3507,2849.697 1597.1906,2843.6331 1584.0503,2837.3809 1570.9115,2830.9888 1557.7574,2824.4919 1544.5878,2817.8962 1531.4166,2811.177 1518.2457,2804.3289 1505.0636,2797.3787 1491.8667,2790.3369 1478.6688,2783.1821 1465.4783,2775.9041 1452.2777,2768.5378 1439.0374,2761.1389 1425.7596,2753.7063 1412.4836,2746.1729 1399.1956,2738.5693 1385.8524,2730.969 1372.432,2723.4155 1358.963,2715.8574 1345.4506,2708.2898 1330.5284,2699.9707 1316.9177,2692.4048 1303.2782,2684.8125 1290.9913,2677.9341 1277.3491,2670.2085 1263.7133,2662.4041 1250.0663,2654.554 1236.4297,2646.6267 1222.8424,2638.5586 1207.9691,2629.4971 1194.5066,2621.1084 1182.4323,2613.4409 1169.0635,2604.8 1155.7493,2596.02 1142.4905,2587.1047 1127.9408,2577.1833 1114.7631,2568.0425 1101.6521,2558.7554 1089.8895,2550.3047 1076.83,2540.855 1063.7665,2531.3618 1050.6976,2521.8274 1037.632,2512.2385 1024.5668,2502.6006 1011.5314,2492.8774 998.5893,2482.9832 985.7338,2472.9346 972.881,2462.8374 960.0217,2452.7095 947.1876,2442.5139 934.392,2432.2319 921.6088,2421.8999 908.8032,2411.5623 895.972,2401.2261 883.1496,2390.8511 869.0707,2379.3833 857.5366,2370.0044 843.4344,2358.5349 831.9216,2349.1074 819.1788,2338.595 806.5927,2328.1929 794.3784,2318.0486 782.6464,2308.248 771.4433,2298.7881 760.8038,2289.5874 750.7163,2280.6108 741.1074,2271.8542 731.089,2262.4133 723.3239,2254.7939 715.1284,2246.4275 707.3455,2238.189 699.9785,2230.0508 693.1132,2221.8948 686.8166,2213.5122 681.1333,2204.7322 675.9808,2195.5457 671.3908,2185.9543 667.3469,2176.0054 663.7798,2165.7622 660.5814,2155.4028 657.7012,2145.2966 655.0109,2135.6423 652.4621,2126.4727 650.067,2117.7656 647.5904,2108.6799 645.6715,2101.6221 643.638,2094.1833 641.6904,2087.1587 639.8123,2080.5293 637.9567,2074.2715 635.8232,2067.8267 633.9083,2062.8901 631.5355,2057.7163 628.8353,2052.8364 625.7532,2048.2617 621.8873,2043.6443 618.3335,2040.2596 613.9843,2037.0002 609.2841,2034.2051 604.2641,2031.7837 598.3782,2029.6512 592.7692,2028.4089 587.5699,2027.8489 581.6525,2027.8202 575.5966,2028.307 569.3842,2029.2363 563.0026,2030.5394 555.7629,2032.3761 549.661,2034.1427 542.6999,2036.3845 534.8231,2039.1403 528.2204,2041.5845 520.7665,2044.4504 513.1347,2047.4718 505.3214,2050.627 497.3174,2053.8806 489.1135,2057.1995 480.7039,2060.5549 472.0894,2063.9351 463.2963,2067.3486 454.3745,2070.7896 444.3675,2074.615 436.0309,2077.7742 426.633,2081.3103 417.3878,2084.7532 408.6116,2087.998 400.3909,2091.0413 392.7283,2093.8767 385.5908,2096.4983 378.9464,2098.9241 372.7806,2101.1719 367.0484,2103.248 361.6728,2105.1721 356.6013,2106.9653 351.7838,2108.646 347.2069,2110.2061 342.8642,2111.6211 338.735,2112.8745 334.4246,2114.0286 331.0667,2114.7498 327.4951,2115.2664 324.0625,2115.4492 320.729,2115.2822 317.4897,2114.7356 314.3636,2113.7964 311.3325,2112.4707 308.3636,2110.7688 305.4759,2108.6487 302.7223,2106.0364 300.1148,2102.9573 297.4343,2099.0964 295.3692,2095.6145 293.0372,2090.9456 291.2948,2086.7798 289.531,2081.7893 287.9639,2076.439 286.5599,2070.7412 285.2261,2064.7266 283.9335,2058.5281 282.6747,2052.1177 281.2924,2044.7448 280.151,2038.4678 278.6888,2030.5139 277.4612,2023.7789 276.0811,2016.0649 274.559,2007.3643 273.1493,1999.3624 271.8012,1992.0323 270.2132,1983.7012 268.553,1975.1731 266.8433,1966.4471 265.0946,1957.5245 263.1267,1947.488 261.4882,1939.1083 259.6276,1929.6288 257.5304,1919.0266 255.7857,1910.26 253.829,1900.3694 251.8432,1890.3254 249.8144,1880.1331 247.5349,1868.7517 245.4434,1858.2482 243.5381,1848.6703 241.3906,1837.8928 239.2162,1826.973 237.0079,1815.9165 234.5219,1803.6051 232.4467,1793.4188 230.1322,1781.9781 227.8535,1770.403 225.6065,1758.7074 223.3372,1746.9382 221.0636,1735.132 218.7971,1723.241 216.5103,1711.2458 213.9432,1697.9373 211.7846,1686.9647 209.3452,1674.682 206.6464,1661.0569 204.4279,1649.8196 201.6939,1635.9802 199.3982,1624.578 196.4362,1610.5652 193.8392,1599.051 190.8187,1586.1981 187.2561,1572.0096 183.7433,1559.0874 180.325,1547.454 175.8311,1533.2369 171.895,1521.611 167.2604,1508.7054 162.3833,1495.8055 157.2586,1482.9204 151.92,1470.0417 146.4042,1457.1636 140.1927,1443.0175 135.0263,1431.4369 129.2146,1418.5344 122.759,1404.2883 116.8633,1391.2766 110.9533,1378.204 105.6318,1366.3815 99.7199,1353.182 93.8038,1339.9177 87.2733,1325.262 81.9024,1313.2256 75.3067,1298.4595 69.8814,1286.3356 63.8209,1272.8226 57.6999,1259.2802 50.8856,1244.3564 45.2534,1232.1226 38.9086,1218.5227 31.7224,1203.6041 24.9533,1190.1062 18.065,1176.6156 11.8572,1164.4336 4.9547,1150.8503 -2.0578,1137.2723 -9.234,1123.7281 -16.5831,1110.2277 -24.9289,1095.4703 -32.034,1083.5186 -40.1856,1070.3666 -48.4648,1057.5144 -57.4016,1043.9506 -65.1969,1032.1782 -71.918,1022.0272 -79.041,1011.1832 -85.7726,1000.7209 -92.0866,990.5983 -98.0357,980.81 -104.1875,970.4186 -108.904,962.1774 -113.81,953.2671 -118.3611,944.5975 -122.518,936.1229 -126.2352,927.8043 -129.4586,919.6052 -132.4243,910.6601 -134.4802,903.3033 -136.5497,894.1653 -137.8854,886.5487 -138.9486,877.9305 -139.5567,868.2836 -139.6027,860.2911 -139.1535,851.3482 -138.0413,841.4896 -136.6725,833.44 -134.6802,824.5496 -131.8807,814.8806 -128.7946,806.2211 -125.5717,798.5621 -121.5119,790.2109 -116.9335,782.0372 -111.3353,773.257 -106.3239,766.2662 -100.3211,758.7163 -93.8957,751.362 -87.1237,744.1734 -80.0783,737.1227 -72.802,730.0858 -64.6802,722.2137 -58.0295,715.5903 -49.9735,707.2078 -42.7638,699.297 -36.4232,691.9382 -29.6423,683.4721 -23.2562,674.6654 -17.3605,665.4945 -12.0043,655.9816 -6.7652,645.1884 -3.0104,636.1271 0.9288,624.7756 3.8949,614.1896 6.1037,604.4734 8.0368,593.4915 9.4258,582.3325 10.397,571.025 11.0792,559.5881 11.4702,548.0369 11.5112,536.3947 11.1939,524.7344 10.5215,513.2269 9.4378,501.9474 7.838,490.8597 5.6903,479.9753 2.9807,469.3391 -0.3948,459.0246 -4.8182,448.0807 -9.0059,439.4405 -14.2144,430.1008 -20.0236,421.0471 -26.3341,412.2334 -33.159,403.706 -40.4209,395.4358 -48.7981,386.6264 -55.6757,379.6925 -63.7564,371.4737 -69.9956,364.8656 -76.5439,357.6093 -82.6667,350.3991 -88.8503,342.3797 -93.4992,335.6519 -98.6454,327.1964 -102.3514,320.0566 -105.9299,311.8611 -109.2863,302.552 -111.6153,294.7411 -113.7209,285.877 -115.4081,275.9355 -116.3043,267.6867 -116.7893,258.4332 -116.6964,249.119 -115.9065,238.8511 -114.7072,230.472 -112.8195,221.2211 -110.3321,212.0772 -107.2138,203.0757 -103.4829,194.2393 -99.1772,185.5959 -93.7801,176.3646 -88.2703,168.2784 -82.8597,161.2661 -75.7119,153.0972 -69.5693,146.8839 -62.6572,140.5229 -55.8678,134.5978 -49.3599,128.8934 -43.1636,123.2612 -37.2571,117.587 -31.6486,111.7498 -25.9029,105.0683 -21.5701,99.3691 -16.7313,92.0548 -13.1143,85.769 -9.4271,78.4899 -5.8068,70.1448 -3.166,63.0867 -0.6077,55.0186 1.7574,45.8963 3.3081,38.247 4.5923,29.5543 5.4171,20.6761 5.8029,11.62 5.7625,1.4393 5.4324,-7.051 4.8031,-16.6423 3.9782,-26.3912 2.9231,-37.2434 1.9658,-46.1742 0.822,-56.1216 -0.5139,-67.1943 -1.653,-76.388 -2.9471,-86.7456 -4.225,-97.2567 -5.4328,-107.925 -6.6212,-119.8436 -7.4519,-129.7371 -8.1901,-140.8766 -8.7298,-153.3015 -8.9185,-163.5921 -8.8402,-175.1454 -8.3712,-187.9842 -7.6726,-198.5775 -6.631,-210.4318 -5.4159,-222.3489 -4.1578,-234.3103 -3.0191,-246.316 -2.1299,-258.4398 -1.5738,-270.6806 -1.442,-284.263 -1.81,-295.4478 -2.669,-307.9408 -4.0768,-321.7521 -5.7234,-334.3644 -7.6658,-347.0301 -9.8443,-359.7529 -11.9973,-371.2498 -14.5756,-384.0775 -17.5912,-398.2581 -20.4348,-411.2231 -23.0635,-422.9525 -26.084,-436.0445 -29.2135,-449.1952 -32.4134,-462.412 -35.6552,-475.6996 -39.23,-490.4038 -42.417,-503.8671 -45.2593,-516.0536 -48.455,-529.6528 -51.6645,-543.3104 -55.1213,-558.3613 -57.8572,-570.4742 -60.8027,-583.4103 -63.6628,-595.684 -66.4126,-607.3 -69.0317,-618.2911 -71.5156,-628.6694 -73.8708,-638.4579 -76.1064,-647.6665 -78.2289,-656.3181 -80.4325,-665.2392 -82.1418,-672.106 -83.9594,-679.2999 -85.697,-686.0574 -87.3802,-692.3923 -89.0734,-698.3167 -90.8759,-703.8474 -93.0753,-709.5572 -95.0994,-714.0536 -97.647,-718.8884 -100.8634,-724.0291 -103.8374,-728.1567 -107.4562,-732.7136 -111.4042,-737.2078 -115.7055,-741.6296 -120.6308,-746.4245 -124.5958,-750.3508 -128.782,-754.8367 -132.6249,-759.5433 -136.1143,-764.5203 -139.2922,-769.7938 -142.1828,-775.3635 -144.8718,-781.8712 -146.8705,-788.0867 -148.3378,-793.8812 -149.6272,-800.5087 -150.5785,-807.2484 -151.2961,-814.4115 -151.7768,-820.5051 -152.2365,-826.17 -152.7664,-831.4169 -153.354,-835.8023 -154.1794,-840.334 -155.2377,-844.5692 -156.7142,-848.9598 -158.3712,-852.7357 -160.1337,-855.9547 -162.4034,-859.318 -164.9896,-862.4828 -167.814,-865.5564 -170.8524,-868.5593 -174.1206,-871.4807 -177.5,-874.3409 -180.8019,-877.298 -184.1386,-880.8444 -186.834,-884.3835 -189.0408,-887.7922 -191.1584,-891.8989 -193.0817,-896.7793 -194.3656,-900.9967 -195.4749,-905.8944 -196.2356,-911.0103 -196.6866,-916.3863 -196.8551,-922.0477 -196.7765,-927.9711 -196.4731,-934.1057 -195.9755,-940.371 -195.3447,-946.6875 -194.6463,-953.208 -193.9846,-960.0096 -193.375,-967.0845 -192.7968,-974.4258 -192.2262,-982.0228 -191.6001,-990.6562 -191.0373,-998.6851 -190.5539,-1005.9836 -190.0369,-1014.1577 -189.4564,-1023.3809 -188.9039,-1031.9817 -188.3918,-1039.896 -187.7532,-1049.7892 -187.2232,-1058.0605"/>
	<!-- Raw distance reference points -->
	<polyline id="dist" fill="none" stroke="none" stroke-width="0" points="13614.0605,6.7098 19.9184,6.9243 30.1245,7.01 40.4641,7.1123 50.9733,7.2063 61.6155,7.2973 72.3749,7.391 83.2942,7.4882 94.3611,7.6023 105.566,7.6958 116.9001,7.815 128.3542,7.9488 139.9398,8.1099 151.648,8.2529 163.4823,8.4348 175.3977,8.6102 187.3986,8.8221 199.4962,9.007 211.6947,9.2073 223.9731,9.418 236.3519,9.5881 248.8216,9.8037 261.4059,10.0087 274.0839,10.206 286.8484,10.4444 299.6789,10.6856 312.6051,10.9197 325.6104,11.1632 338.6393,11.3626 351.7635,11.628 364.9281,11.8499 378.1769,12.1226 391.5389,12.4071 405.0008,12.7416 418.5858,13.1072 432.2174,13.4981 445.9261,13.9249 459.6715,14.3223 473.4313,14.8126 487.2249,15.2419 501.1187,15.7452 515.0289,16.2571 528.9777,16.8128 542.8354,17.3577 556.5777,17.8991 570.1555,18.4535 583.56,18.9892 596.854,19.5363 610.012,20.0978 623.1044,20.633 636.1273,21.2352 649.2807,21.7169 662.3193,22.2439 675.13,22.8084 687.7328,23.2446 699.957,23.7065 711.8806,24.1617 723.3617,24.5846 734.2601,25.035 744.4753,25.4356 754.028,25.7818 762.9066,26.1426 771.0946,26.49 778.6246,26.815 785.5093,27.1209 791.7916,27.418 797.5316,27.6809 802.8503,27.9265 807.8396,28.1909 812.5529,28.4042 817.02,28.6362 821.3021,28.859 825.6346,29.0968 830.262,29.3313 835.3116,29.5681 840.891,29.8275 846.5294,30.0879 851.6715,30.3472 856.5378,30.6322 861.3393,30.861 866.1714,31.1215 871.1796,31.4045 876.3475,31.7044 881.5317,32.0011 886.6395,32.3173 891.643,32.6019 896.6767,32.8481 901.7676,33.1248 906.8881,33.3858 912.5622,33.6449 917.3419,33.8955 921.9772,34.1321 926.5676,34.3488 931.1191,34.5587 935.8008,34.7799 940.6954,34.959 945.9094,35.1227 951.4451,35.3364 957.2968,35.4872 963.4208,35.6535 969.7314,35.8097 976.1318,35.9419 982.7649,36.0498 989.6664,36.1772 996.8293,36.241 1004.2598,36.2777 1011.9368,36.3218 1019.8314,36.3522 1027.8929,36.3407 1036.0306,36.3112 1044.3132,36.262 1052.8123,36.1938 1061.5334,36.0668 1070.5784,35.9265 1079.8633,35.766 1089.3854,35.5669 1099.1222,35.3427 1109.0023,35.0547 1118.9929,34.759 1129.0535,34.4575 1139.1464,34.1553 1149.2954,33.7651 1159.5039,33.3336 1169.8818,32.7929 1180.4976,32.2764 1191.3721,31.6335 1202.6338,30.9508 1213.9824,30.2599 1225.5331,29.4739 1237.1062,28.8377 1248.6213,28.1149 1260.0459,27.3864 1271.3931,26.6966 1282.7308,26.1046 1293.9542,25.5811 1305.2307,25.1788 1316.5964,24.7247 1328.0647,24.3216 1339.2042,23.9191 1349.8594,23.6774 1359.9718,23.4386 1369.5892,23.2969 1378.7075,23.2124 1387.3795,23.1304 1395.6769,23.0824 1403.5958,23.0274 1411.1465,22.9852 1418.3917,22.9364 1425.4739,22.8684 1432.7084,22.7689 1439.85,22.6832 1447.1813,22.5777 1454.3602,22.4772 1461.7303,22.3711 1469.514,22.3059 1476.9961,22.296 1484.8789,22.2431 1492.7633,22.2288 1500.3076,22.2643 1507.954,22.348 1515.4955,22.5174 1523.3634,22.7741 1531.2163,23.127 1539.2469,23.4898 1547.1713,23.8156 1555.1584,24.1518 1563.4948,24.3894 1571.9956,24.644 1581.0813,24.9218 1590.5471,25.2789 1599.9292,25.5745 1608.9001,25.9794 1617.9155,26.2821 1626.8502,26.5767 1635.9005,26.8003 1644.9952,26.8585 1654.2421,26.8001 1663.6815,26.6367 1673.3312,26.3876 1683.1298,26.0893 1693.0222,25.7151 1702.9999,25.3221 1713.1414,25.0082 1723.4532,24.7842 1733.9414,24.6247 1744.5908,24.4959 1755.3752,24.4325 1766.2866,24.3261 1777.3414,24.2198 1788.5663,24.0914 1799.9131,23.9465 1811.1251,23.8059 1821.9343,23.6827 1832.2756,23.5618 1842.1758,23.4546 1851.6395,23.3449 1860.7008,23.2322 1869.3784,23.1134 1877.7771,22.9927 1885.9734,22.8956 1894.077,22.7668 1902.1155,22.6174 1910.5884,22.5046 1919.4709,22.4081 1928.0408,22.3316 1936.3411,22.2621 1944.8057,22.2185 1953.364,22.1715 1962.1285,22.0637 1971.1127,21.9595 1980.3191,21.8001 1989.7051,21.5981 1999.2849,21.4032 2009.0387,21.1653 2018.9011,20.8775 2028.8845,20.5355 2039.0336,20.1929 2049.3457,19.8998 2059.8154,19.5145 2070.4573,19.1375 2081.2654,18.7491 2092.2278,18.3367 2103.3628,17.9504 2114.6553,17.5801 2126.0967,17.1784 2137.6768,16.7333 2149.3953,16.2814 2161.2437,15.8467 2173.1848,15.3907 2185.1819,14.9502 2197.2803,14.4305 2209.5034,14.0147 2221.8433,13.5421 2234.2903,13.0573 2246.854,12.5112 2259.5212,12.0727 2272.313,11.5544 2285.2368,11.0732 2298.2834,10.5797 2311.4243,10.1179 2324.6633,9.6501 2338.001,9.3046 2351.4312,8.9617 2364.9321,8.6956 2378.5422,8.5272 2392.2563,8.4267 2406.0332,8.368 2419.8804,8.3151 2433.7878,8.2378 2447.7639,8.154 2461.7749,8.0849 2475.8379,8.0502 2489.9695,8.0189 2504.1711,7.9884 2518.4421,7.9653 2532.7778,7.9647 2547.1643,8.0185 2561.6233,8.0752 2576.1465,8.1302 2590.7283,8.2007 2605.3716,8.2851 2620.0684,8.3547 2634.802,8.4385 2649.5676,8.5302 2664.3594,8.615 2679.1797,8.7257 2694.0447,8.8322 2708.9614,8.9131 2723.9226,8.9872 2738.9282,9.0595 2753.9868,9.1245 2769.092,9.2076 2784.2388,9.3052 2799.4402,9.4031 2814.686,9.5068 2829.9697,9.6398 2845.2893,9.7604 2860.6418,9.8681 2876.0327,9.9484 2891.4692,10.0039 2906.9426,10.0312 2922.4419,10.0305 2937.9932,10.0073 2953.5801,9.9669 2969.2129,9.9235 2984.8923,9.8852 3000.6172,9.854 3016.3862,9.812 3032.1812,9.7435 3047.9978,9.6538 3063.8828,9.5559 3079.803,9.4496 3095.7173,9.3427 3111.6448,9.2455 3127.5984,9.1354 3143.5808,9.0176 3159.5925,8.8929 3175.6404,8.7652 3191.7341,8.6222 3207.8613,8.465 3224.0195,8.2852 3240.2188,8.1051 3256.4363,7.9269 3272.6841,7.7258 3288.9607,7.5194 3305.2695,7.3189 3321.6033,7.1163 3337.9473,6.9111 3354.2974,6.7059 3370.6753,6.502 3387.0752,6.3073 3403.4836,6.1195 3419.9224,5.9608 3436.3894,5.8115 3452.8794,5.6882 3469.3855,5.5689 3485.897,5.4859 3502.4148,5.4089 3518.9409,5.3535 3535.4717,5.2827 3552.0007,5.2201 3568.5234,5.1671 3585.0522,5.1027 3601.5833,5.0349 3618.1118,4.9527 3634.6436,4.8572 3651.1758,4.7618 3667.717,4.6616 3684.259,4.5675 3700.8025,4.4532 3717.354,4.338 3733.8875,4.2114 3750.4255,4.0863 3766.9746,3.9621 3783.5229,3.8331 3800.0547,3.7118 3816.5798,3.5963 3833.1108,3.4731 3849.5688,3.378 3865.5969,3.3092 3880.8608,3.269 3895.2554,3.2671 3908.8364,3.2535 3921.6328,3.2415 3933.6956,3.2221 3945.0469,3.1907 3955.7134,3.15 3965.71,3.1106 3975.0586,3.0845 3983.8003,3.0617 3991.957,3.0468 3999.5681,3.0372 4006.6973,3.0364 4013.4202,3.036 4019.8403,3.0303 4026.1218,3.0128 4032.54,2.9926 4039.0269,2.964 4045.6345,2.9285 4052.7051,2.9065 4059.5513,2.9053 4066.4692,2.9508 4073.3806,3.0327 4079.6521,3.0842 4085.6655,3.1007 4091.4827,3.1169 4097.7642,3.0986 4103.8887,3.0712 4110.0005,3.065 4116.0977,3.0721 4122.6084,3.0656 4128.5444,3.0509 4134.5674,3.0374 4140.6167,3.0272 4146.7275,3.0333 4153.0161,3.0458 4159.166,3.0617 4165.5073,3.0774 4172.1284,3.1131 4179.1538,3.1738 4186.5078,3.2508 4194.2856,3.2902 4202.4609,3.3081 4210.5981,3.2901 4219.1533,3.2665 4227.9683,3.2531 4236.7417,3.241 4245.8525,3.2636 4255.082,3.2882 4264.4326,3.2953 4273.8506,3.2832 4283.3389,3.2638 4292.9688,3.2299 4302.7808,3.193 4312.7222,3.1461 4322.7412,3.0996 4332.8906,3.06 4343.1924,3.0234 4353.6626,2.9978 4364.2788,2.9874 4375.043,2.9832 4385.9634,2.982 4397.0176,2.998 4408.1997,3.0314 4419.5288,3.0692 4430.9995,3.1214 4442.5933,3.1838 4454.3086,3.2602 4466.1436,3.3418 4478.0771,3.418 4490.0649,3.4899 4502.144,3.5675 4514.3257,3.6554 4526.6147,3.727 4539.0083,3.8106 4551.5034,3.8746 4564.0972,3.9421 4576.7891,4.0095 4589.5811,4.0576 4602.4688,4.1066 4615.4512,4.1496 4628.5269,4.1889 4641.6948,4.2239 4654.9521,4.2518 4668.2969,4.2816 4681.7266,4.3135 4695.2393,4.3402 4708.8325,4.374 4722.5034,4.4061 4736.2495,4.4407 4750.0747,4.4726 4763.9731,4.5002 4777.9385,4.5342 4791.9648,4.5655 4806.0342,4.596 4820.1123,4.6463 4834.249,4.7195 4848.4434,4.8292 4862.6924,4.9223 4876.999,5.0372 4891.3633,5.135 4905.7832,5.2412 4920.2598,5.3472 4934.7935,5.4541 4949.376,5.5681 4964.0078,5.6747 4978.6909,5.7791 4993.4238,5.8784 5008.2065,5.9957 5023.0381,6.1153 5037.917,6.2436 5052.8418,6.387 5067.811,6.5364 5082.8271,6.7029 5097.8892,6.8652 5112.9922,7.0387 5128.1387,7.1706 5143.3276,7.2898 5158.5596,7.3838 5173.833,7.4535 5189.1494,7.4962 5204.5117,7.5173 5219.9189,7.5061 5235.3672,7.4719 5250.8584,7.4042 5266.3921,7.3445 5281.9639,7.2771 5297.5693,7.1995 5313.2124,7.1416 5328.8975,7.0601 5344.6226,6.9677 5360.3857,6.8121 5376.1895,6.6887 5392.0293,6.5192 5407.9019,6.3587 5423.8042,6.2239 5439.7373,6.1193 5455.7017,6.042 5471.6968,5.9932 5487.7217,5.9707 5503.7729,5.9781 5519.8467,6.0091 5535.9429,6.0591 5552.061,6.1033 5568.2007,6.1441 5584.3662,6.1815 5600.5537,6.2263 5616.7622,6.2688 5632.9956,6.3249 5649.25,6.4201 5665.5259,6.5252 5681.8174,6.6355 5698.1216,6.7245 5714.4468,6.7827 5730.7959,6.8008 5747.1675,6.7913 5763.5659,6.7568 5779.9839,6.7115 5796.4092,6.68 5812.6978,6.6833 5828.4492,6.7065 5843.4995,6.7727 5857.8096,6.8454 5871.3096,6.916 5884.0283,6.9963 5896.0322,7.0582 5907.3721,7.1274 5918.082,7.1887 5928.1768,7.2508 5937.6719,7.3184 5946.5923,7.3962 5954.9741,7.4774 5962.8486,7.5597 5970.2388,7.6433 5977.1792,7.7305 5983.7305,7.8186 5990.0176,7.8881 5996.2197,7.9437 6002.7559,7.9766 6009.2158,8.019 6015.833,8.0685 6023.1445,8.1507 6030.0449,8.2457 6036.939,8.3881 6043.7808,8.5759 6050.0518,8.7158 6055.939,8.7954 6061.5405,8.8595 6067.2646,8.9198 6072.9712,8.9732 6078.8301,9.0395 6084.7749,9.13 6090.6968,9.2176 6096.5342,9.2999 6102.562,9.3775 6108.2075,9.4732 6113.9438,9.5708 6119.748,9.6764 6125.6172,9.7891 6131.6084,9.8872 6137.7446,9.9902 6144.1665,10.0888 6150.874,10.1681 6158.0112,10.2421 6165.4614,10.3164 6173.3286,10.3835 6181.2979,10.4737 6189.7397,10.5821 6198.3115,10.6741 6206.8174,10.7978 6215.6484,10.9213 6224.562,11.1171 6233.5498,11.2487 6242.6309,11.3944 6251.8135,11.4907 6261.1636,11.5786 6270.6816,11.6285 6280.3862,11.6844 6290.2275,11.7236 6300.1963,11.7548 6310.3447,11.7783 6320.6519,11.7956 6331.105,11.8043 6341.707,11.8008 6352.4697,11.7796 6363.3799,11.7518 6374.4385,11.7033 6385.6489,11.6268 6396.9927,11.538 6408.4619,11.4512 6420.0645,11.3542 6431.8311,11.2578 6443.7666,11.1568 6455.7676,11.0696 6467.939,10.9989 6480.1597,10.9601 6492.5,10.9381 6504.8838,10.9391 6517.3677,10.9621 6529.9238,10.9898 6542.5718,11.0168 6555.3174,11.0339 6568.166,11.036 6581.1108,11.0302 6594.1484,11.0216 6607.2686,11.0193 6620.4873,11.0298 6633.8086,11.0534 6647.2256,11.0924 6660.7285,11.1413 6674.3281,11.194 6687.9854,11.2328 6701.7173,11.2958 6715.5215,11.349 6729.3804,11.4193 6743.271,11.474 6757.2246,11.5297 6771.2485,11.5845 6785.3325,11.6353 6799.4805,11.7033 6813.6982,11.7705 6827.9795,11.8522 6842.3159,11.9965 6856.6973,12.1275 6871.123,12.2924 6885.5991,12.4751 6900.1372,12.6903 6914.7251,12.9109 6929.3579,13.1106 6944.0381,13.3345 6958.7656,13.5779 6973.5366,13.7651 6988.3638,13.9883 7003.231,14.2405 7018.145,14.4906 7033.0981,14.7748 7048.0864,15.0973 7063.106,15.4549 7078.1616,15.8124 7093.2563,16.172 7108.3857,16.4816 7123.5654,16.7589 7138.7861,17.0592 7154.0352,17.2967 7169.3203,17.5262 7184.646,17.7188 7200.0156,17.8559 7215.4292,17.9727 7230.8838,18.049 7246.3784,18.0991 7261.9077,18.1385 7277.4673,18.1309 7293.0776,18.126 7308.7261,18.0735 7324.4146,17.9419 7340.1416,17.8334 7355.9072,17.6702 7371.7114,17.4714 7387.543,17.3161 7403.4043,17.2133 7419.3081,17.1742 7435.2441,17.1295 7451.2036,17.0976 7467.1826,17.1637 7483.167,17.2656 7499.1709,17.4296 7515.1196,17.652 7530.6987,17.8552 7545.7114,18.1171 7560.1245,18.306 7573.9536,18.4802 7587.2324,18.6417 7599.8398,18.7586 7611.7065,18.9247 7622.8149,19.0847 7633.0605,19.252 7642.5591,19.3984 7651.3696,19.5085 7659.522,19.6156 7667.0986,19.721 7674.1567,19.8041 7680.709,19.873 7686.7915,19.9293 7692.4277,19.9888 7697.6719,20.0377 7702.6006,20.0736 7707.2642,20.0922 7711.6758,20.1059 7715.876,20.1106 7719.8979,20.1048 7723.8525,20.0834 7728.0835,20.0513 7732.9072,20.0044 7738.063,19.9334 7743.1812,19.8612 7748.0615,19.7933 7752.7104,19.7341 7757.2661,19.6747 7761.981,19.5866 7766.9604,19.4751 7772.2085,19.358 7777.7842,19.2412 7783.6392,19.1574 7789.7246,19.0717 7796.1123,19.0291 7802.8267,18.9357 7809.7861,18.8607 7817.0078,18.7802 7824.5181,18.6816 7832.2529,18.5687 7840.1987,18.4644 7848.3032,18.3828 7856.6128,18.3027 7865.1265,18.225 7873.8413,18.1531 7882.7891,18.0745 7891.9355,18.0097 7901.2803,17.9482 7910.8052,17.9217 7920.4922,17.8796 7930.3359,17.866 7940.2979,17.8594 7950.4121,17.855 7960.6772,17.8396 7971.0898,17.8182 7981.6523,17.8079 7992.3623,17.797 8003.2271,17.7864 8014.2441,17.7942 8025.4141,17.8183 8036.73,17.8316 8048.1899,17.8314 8059.77,17.849 8071.4702,17.8924 8083.2764,17.9137 8095.1699,17.9493 8107.1528,17.9825 8119.25,18.0276 8131.4565,18.1103 8143.7642,18.1569 8156.1782,18.2272 8168.7012,18.3208 8181.3203,18.3776 8194.0518,18.4622 8206.8711,18.5612 8219.7773,18.6644 8232.7676,18.7536 8245.8525,18.8083 8259.0322,18.8729 8272.3145,18.9666 8285.6777,19.043 8299.124,19.1063 8312.6504,19.1973 8326.2607,19.2545 8339.958,19.3434 8353.7207,19.4221 8367.5469,19.4707 8381.4385,19.497 8395.3945,19.5102 8409.4082,19.4927 8423.4424,19.4265 8437.5469,19.3089 8451.7227,19.1648 8465.9854,18.9714 8480.3418,18.8007 8494.7812,18.6161 8509.3008,18.3473 8523.8613,18.0996 8538.4336,17.8944 8553.0508,17.6784 8567.7031,17.4647 8582.4111,17.1978 8597.1963,16.8868 8612.041,16.5839 8626.9307,16.2993 8641.8877,16.0197 8656.9043,15.8166 8671.958,15.6295 8687.0811,15.4528 8702.252,15.2699 8717.4795,15.1268 8732.7441,15.0238 8748.0557,14.9624 8763.4141,14.8594 8778.8203,14.7644 8794.2715,14.6659 8809.7539,14.5999 8825.2725,14.5498 8840.8359,14.548 8856.4395,14.5892 8872.0977,14.6091 8887.8096,14.6537 8903.543,14.7586 8919.2842,14.8789 8935.0469,15.0521 8950.8262,15.2084 8966.6348,15.3306 8982.4883,15.4177 8998.377,15.4488 9014.3184,15.4081 9030.2891,15.3721 9046.2861,15.343 9062.3633,15.2782 9078.4727,15.2305 9094.5732,15.1565 9110.668,15.0266 9126.7725,14.8813 9142.9014,14.6789 9159.083,14.4009 9175.292,14.0965 9191.5254,13.7457 9207.7715,13.3831 9224.0518,13.0684 9240.373,12.8296 9256.7139,12.6232 9273.0879,12.3683 9289.4912,12.1597 9305.9004,11.9928 9322.332,11.8373 9338.7979,11.6896 9355.2822,11.582 9371.7705,11.4517 9388.2676,11.3133 9404.7773,11.2008 9421.292,11.09 9437.8184,10.9144 9454.334,10.7053 9470.6543,10.4264 9486.5244,10.1807 9501.8096,9.9503 9516.4727,9.6827 9530.5322,9.4477 9544.0215,9.2483 9557.0078,9.0497 9569.5273,8.8555 9581.6289,8.6749 9593.3271,8.4614 9604.6465,8.2257 9615.623,7.9469 9626.3291,7.6053 9636.9404,7.2441 9647.7314,6.9939 9658.5068,6.8164 9669.3887,6.7096 9680.3467,6.6415 9691.3682,6.6052 9702.4375,6.5386 9713.0547,6.4891 9723.1299,6.4391 9732.6318,6.3759 9741.6445,6.3414 9750.2012,6.3244 9758.3252,6.3099 9766.0283,6.3045 9773.3047,6.2896 9780.1875,6.2788 9786.7051,6.2713 9792.8682,6.2442 9798.7334,6.1948 9804.3721,6.1045 9809.8916,5.9876 9815.4121,5.8639 9821.0898,5.7191 9827.4326,5.6127 9833.3623,5.5431 9839.3877,5.544 9845.4531,5.5471 9851.4854,5.5591 9857.7793,5.6331 9863.7041,5.7139 9869.6406,5.8207 9875.6836,5.9059 9881.9209,5.9656 9888.3574,5.98 9895.0889,5.9674 9902.1035,5.9153 9909.4014,5.8463 9916.9668,5.7474 9924.7793,5.6571 9932.7676,5.5468 9940.9746,5.4314 9949.3975,5.3196 9958.0322,5.2172 9966.873,5.1426 9975.917,5.0904 9985.1631,5.0292 9994.5889,4.9653 10004.1445,4.9103 10013.8711,4.8479 10023.7715,4.7882 10033.8145,4.7083 10043.6807,4.6257 10053.041,4.5615 10061.8096,4.5142 10069.9795,4.4685 10077.582,4.4207 10084.6572,4.3956 10091.2246,4.3748 10097.3291,4.3716 10103.0391,4.3526 10108.416,4.3399 10113.5088,4.3408 10118.3271,4.3452 10122.875,4.3272 10127.1689,4.3122 10131.2324,4.3032 10135.0215,4.2922 10138.5635,4.2637 10141.9209,4.232 10145.1719,4.1976 10148.5957,4.1591 10151.7119,4.1323 10155.6826,4.1316 10160.0898,4.1396 10164.6768,4.1514 10169.166,4.1977 10173.4727,4.2548 10177.7188,4.306 10182.0566,4.3119 10186.6016,4.2991 10191.3799,4.2915 10196.5,4.2694 10201.9971,4.2254 10207.9209,4.1834 10214.1367,4.1506 10220.5615,4.147 10227.2969,4.1608 10234.1318,4.2056 10241.2129,4.2406 10248.5352,4.2772 10256.1084,4.3024 10263.8994,4.3419 10271.9072,4.3698 10280.0137,4.3952 10288.2861,4.4201 10296.7627,4.4525 10305.4326,4.4909 10314.333,4.5197 10323.4424,4.5599 10332.7285,4.5828 10342.2061,4.5992 10351.8682,4.6324 10361.6885,4.6796 10371.6133,4.7061 10381.6885,4.7443 10391.9092,4.7859 10402.292,4.8063 10412.8369,4.8261 10423.541,4.8355 10434.3955,4.8309 10445.3994,4.8245 10456.5527,4.8012 10467.8164,4.7796 10479.1875,4.7622 10490.6992,4.7415 10502.3652,4.7332 10514.168,4.7198 10526.085,4.7085 10538.0791,4.7181 10550.0977,4.7495 10562.1963,4.765 10574.4043,4.8022 10586.7207,4.8552 10599.1641,4.8767 10611.7129,4.9165 10624.3516,5.0226 10637.084,5.0922 10649.9287,5.0466 10662.8828,5.0122 10675.917,4.9619 10689.0713,4.931 10702.3242,4.8104 10715.6514,4.6829 10729.1416,4.5432 10742.7773,4.4211 10756.4463,4.2411 10770.2188,4.1255 10784.0703,4.0412 10797.9229,3.9303 10811.8018,3.8378 10825.7432,3.7267 10839.7559,3.6048 10853.8037,3.4791 10867.8887,3.3289 10882.0371,3.1791 10896.249,3.0214 10910.5254,2.8551 10924.8652,2.7135 10939.2686,2.5804 10953.7305,2.4073 10968.248,2.24 10982.8291,2.067 10997.4873,1.9042 11012.2139,1.7724 11026.9883,1.6851 11041.8145,1.6281 11056.6709,1.5908 11071.5752,1.5854 11086.5303,1.605 11101.5283,1.6292 11116.5664,1.7311 11131.6543,1.7975 11146.793,1.8042 11161.9961,1.7112 11177.3232,1.6217 11192.6621,1.515 11208.0293,1.4197 11223.4395,1.372 11238.8848,1.3462 11254.4121,1.3439 11270.002,1.342 11285.4141,1.3939 11300.3135,1.4787 11314.5449,1.53 11328.0693,1.6251 11340.9941,1.7937 11353.3594,1.953 11365.2305,2.1018 11376.6475,2.2578 11387.6143,2.4475 11398.1436,2.6158 11408.2676,2.8252 11418.0078,3.0066 11427.4014,3.1939 11436.4775,3.384 11445.1816,3.5661 11453.6445,3.7686 11462.084,3.9064 11470.543,4.0724 11479.1113,4.191 11487.8125,4.3057 11496.6113,4.4165 11505.542,4.4975 11514.6016,4.589 11523.8018,4.7158 11533.0918,4.8405 11542.4287,4.9802 11551.7119,5.1591 11561.167,5.3231 11570.6094,5.4711 11580.1348,5.6053 11589.7598,5.7469 11599.4688,5.8954 11609.2627,6.0061 11619.1074,6.1237 11628.9922,6.2383 11638.9404,6.3397 11648.9424,6.4281 11659.0723,6.5178 11669.3438,6.6122 11679.7422,6.6822 11690.2783,6.7653 11700.9473,6.8347 11711.708,6.9003 11722.5098,6.9721 11733.3799,7.0099 11744.3477,7.0159 11755.4297,6.9995 11766.6309,6.9641 11778.1123,6.9379 11789.377,6.9133 11800.6279,6.9151 11811.9248,6.8948 11823.3662,6.8551 11834.7227,6.8347 11846.0762,6.7959 11857.4375,6.7427 11868.9463,6.6707 11880.6016,6.5695 11892.3008,6.4587 11903.8311,6.3298 11915.1201,6.1513 11926.2529,5.9964 11937.2461,5.8528 11948.1953,5.6467 11959.1211,5.456 11970.0479,5.2086 11980.9521,5.0074 11991.9424,4.7713 12003.2236,4.5928 12014.2939,4.3688 12025.332,4.1709 12036.3809,3.9493 12047.4326,3.6917 12058.2627,3.4585 12068.7412,3.1343 12078.875,2.8799 12088.7422,2.6268 12098.4414,2.3891 12108.0186,2.1345 12117.4824,1.9044 12126.6279,1.5833 12135.7393,1.3322 12144.8662,1.0861 12154.1191,0.821 12163.4521,0.5836 12172.835,0.3326 12182.127,0.0983 12191.5088,-0.085 12200.8838,-0.3013 12210.3945,-0.4972 12219.9883,-0.6778 12229.6719,-0.7863 12239.4307,-0.9105 12249.1494,-1.035 12258.8633,-1.1218 12268.6748,-1.1773 12278.5615,-1.2389 12288.5078,-1.2975 12298.5068,-1.3044 12308.5547,-1.2988 12318.6592,-1.2754 12328.5674,-1.2295 12338.0312,-1.1799 12347.0625,-1.1241 12355.7051,-1.0599 12364.0498,-0.9892 12372.208,-0.9196 12380.2744,-0.8462 12388.2949,-0.763 12396.2607,-0.7109 12404.4561,-0.6389 12412.8662,-0.5628 12421.2471,-0.5042 12430.1016,-0.4276 12439.1074,-0.373 12448.0234,-0.308 12456.7227,-0.2722 12465.7432,-0.2628 12474.8154,-0.2434 12483.834,-0.2183 12492.8701,-0.1976 12502.0459,-0.1661 12511.4287,-0.143 12521.0137,-0.0942 12530.8145,-0.0454 12540.7432,0.0021 12550.7393,0.0463 12560.7539,0.125 12570.877,0.2165 12581.1602,0.2833 12591.6377,0.3514 12602.208,0.4151 12612.9336,0.4772 12623.8008,0.5542 12634.8145,0.6096 12645.9863,0.6555 12657.3701,0.7011 12668.9912,0.7663 12680.8096,0.8445 12692.9346,0.9262 12704.8252,1.0134 12716.707,1.1159 12728.6416,1.209 12740.6006,1.3371 12752.6387,1.4321 12764.876,1.5474 12777.3545,1.6537 12789.9434,1.7065 12802.8711,1.7568 12815.5693,1.7981 12828.2998,1.8435 12840.9531,1.8836 12853.6885,1.955 12866.5586,2.0026 12879.5547,2.0569 12892.6445,2.1229 12905.835,2.2044 12919.0947,2.2773 12932.4561,2.3506 12945.9014,2.4201 12959.4033,2.5098 12973.0049,2.5871 12986.6826,2.6609 13000.4365,2.7676 13014.2725,2.841 13028.1719,2.9095 13042.1201,3.0117 13056.1436,3.0648 13070.1914,3.1689 13084.0146,3.2305 13097.2754,3.3092 13109.8691,3.3818 13121.7998,3.4576 13133.0986,3.5234 13143.7793,3.6065 13153.8574,3.6714 13163.3369,3.7323 13172.249,3.7889 13180.6299,3.8496 13188.5107,3.8964 13195.9209,3.945 13202.8848,3.9863 13209.4385,4.0317 13215.5996,4.075 13221.4111,4.119 13226.9229,4.1835 13232.3096,4.2449 13237.708,4.3136 13243.3008,4.3759 13249.2705,4.4326 13255.667,4.5004 13263.0205,4.5362 13269.5381,4.5445 13275.7607,4.5663 13281.7119,4.557 13287.8037,4.5376 13294.0498,4.529 13300.501,4.5318 13307.5625,4.5455 13314.208,4.5703 13320.9336,4.6305 13327.7939,4.696 13334.498,4.7501 13341.3027,4.7848 13348.1133,4.8108 13354.6758,4.8345 13360.8174,4.8358 13366.5303,4.8364 13371.8379,4.8561 13376.7666,4.901 13381.3682,4.946 13385.7051,4.9901 13389.8467,5.054 13393.8252,5.123 13397.71,5.176 13401.8398,5.2278 13406.8096,5.2904 13412.6484,5.3285 13418.1523,5.3183 13422.6143,5.3114 13426.6348,5.3064 13430.6807,5.2861 13435.1523,5.2744 13440.417,5.3173 13446.7295,5.3627 13451.3701,5.432 13455.835,5.5159 13460.4072,5.5687 13465.166,5.6055 13470.2197,5.6317 13475.5283,5.643 13481.1602,5.6556 13487.124,5.6745 13493.2832,5.7026 13499.5859,5.7535 13505.9355,5.7976 13512.499,5.8386 13519.3389,5.89 13526.4561,5.9425 13533.8193,5.9979 13541.4277,6.0619 13549.2666,6.1319 13557.2588,6.1745 13565.3594,6.2277 13573.4844,6.2871 13581.8281,6.3697 13590.4238,6.4448 13599.25,6.511 13608.2842,6.606 13617.499,6.671"/>
</svg>
