<?xml version="1.0" encoding="utf-8"?>
<!-- Track map generated with TinyPedal -->
<svg viewBox="-292.8257 -557.5416 716.8234 1186.9146" version="1.1" xmlns="http://www.w3.org/2000/svg">
	<title>Algarve International Circuit</title>
	<!-- Sector coordinates index -->
	<desc>117,313</desc>
	<!-- Raw global coordinates -->
	<polyline id="map" fill="none" stroke="black" stroke-width="10" points="-171.1383,-53.1434 -176.5614,-71.6962 -180.4663,-84.9867 -184.7811,-99.6463 -188.3224,-111.6718 -192.6617,-126.4072 -196.228,-138.4921 -200.2039,-151.9503 -204.1856,-165.4427 -208.1708,-178.9692 -212.1702,-192.5262 -216.1846,-206.1129 -220.2238,-219.7266 -224.2861,-233.3678 -228.7815,-248.4075 -232.4699,-260.7419 -236.5763,-274.4813 -240.679,-288.2123 -244.6867,-301.6003 -248.5013,-314.341 -252.0785,-326.2947 -255.4068,-337.4788 -258.4922,-347.9651 -261.3438,-357.8217 -263.9579,-367.1167 -266.2993,-375.8857 -268.3395,-384.1525 -270.045,-391.9469 -271.3751,-399.3102 -272.3195,-406.3244 -272.8257,-413.0774 -272.824,-419.6232 -272.2642,-426.0226 -271.1336,-432.3616 -269.3883,-438.6414 -266.9835,-444.7741 -264.0853,-450.8146 -260.7201,-456.7417 -256.8457,-462.4808 -252.4572,-467.9965 -247.5933,-473.3334 -242.4369,-478.6681 -237.0495,-484.0331 -231.3662,-489.3448 -224.7776,-495.1053 -219.1601,-499.721 -212.6631,-504.7335 -205.1662,-510.0792 -198.721,-514.2268 -191.2228,-518.548 -182.613,-522.9841 -175.2983,-526.3419 -166.8836,-529.7017 -158.1562,-532.5243 -149.1474,-534.7079 -139.9239,-536.27 -130.568,-537.2032 -121.0747,-537.5416 -111.4784,-537.287 -101.8024,-536.5126 -91.0747,-535.1572 -82.2505,-533.7428 -72.7539,-531.9883 -63.0795,-529.9785 -55.8108,-528.3566 -48.3997,-526.5663 -41.6414,-524.7507 -35.4897,-522.8923 -29.9119,-520.9796 -24.3374,-518.7889 -20.1522,-516.8998 -15.8818,-514.6699 -12.0656,-512.273 -8.7491,-509.6774 -5.6936,-506.6092 -3.6533,-503.9695 -1.8568,-500.8942 -0.4518,-497.3357 0.2284,-494.3411 0.4945,-490.6707 0.2625,-487.6749 -0.5305,-483.9695 -1.6222,-480.9504 -3.3195,-477.6867 -5.7423,-474.2822 -8.1323,-471.6696 -11.1952,-468.9613 -14.6619,-466.4597 -18.5284,-464.1517 -22.8005,-461.9864 -27.4696,-459.9232 -32.4873,-457.9104 -37.7858,-455.8376 -43.2727,-453.5545 -48.8039,-450.9812 -54.4043,-448.0626 -60.5603,-444.3714 -65.4652,-440.9707 -71.0179,-436.3536 -75.109,-432.2153 -79.1806,-427.1915 -83.2143,-421.1589 -86.5526,-415.2619 -89.5246,-408.9954 -91.8502,-403.0815 -94.0217,-396.2513 -95.7449,-389.1834 -96.9697,-381.9431 -97.7991,-373.7366 -98.0969,-366.8496 -98.0008,-358.2457 -97.5858,-351.0683 -96.8165,-342.9607 -95.7232,-334.7288 -94.3185,-326.3833 -92.5929,-317.9409 -90.5613,-309.4128 -88.2315,-300.8097 -85.647,-292.129 -82.8483,-283.3661 -79.5763,-273.6206 -76.8266,-265.5418 -73.755,-256.4402 -70.6775,-247.2069 -67.6027,-237.8447 -64.5244,-228.3593 -61.449,-218.79 -58.3653,-209.1222 -54.959,-198.3542 -52.1509,-189.4453 -49.0061,-179.4447 -45.8382,-169.3379 -42.3212,-158.1021 -39.1579,-147.7654 -36.0865,-137.2981 -35.1801,-134.1338 -33.382,-127.7733 -30.1363,-116.0049 -27.528,-106.274 -24.3578,-94.2679 -21.732,-84.3655 -18.7791,-73.2812 -15.7773,-62.1151 -12.7106,-50.8894 -9.5887,-39.6204 -6.4178,-28.2731 -3.1654,-16.8558 0.2025,-5.3807 3.6617,6.1502 7.1155,17.5452 10.4231,28.4872 13.5258,38.9299 16.451,48.855 19.2113,58.2353 21.7798,67.0528 24.4306,76.1257 26.5077,83.0714 28.704,90.3059 30.792,97.0442 32.8178,103.3237 34.8205,109.2118 36.8625,114.6693 39.0228,119.6294 41.3503,124.0707 44.1309,128.3595 46.5809,131.4038 49.4781,134.2873 52.5256,136.6275 55.6803,138.404 59.2322,139.6983 62.5183,140.2668 65.7704,140.2464 68.5808,139.7305 71.5583,138.6345 74.3543,137.0275 76.9245,134.9417 79.2337,132.418 81.2894,129.4876 83.1802,126.1636 84.9878,122.4471 86.6612,118.3282 88.1287,113.8174 89.3472,108.9385 90.333,103.7262 91.1744,98.2242 91.924,92.4649 92.5939,86.513 93.2193,80.3815 93.8447,74.0346 94.4781,67.4823 95.1005,60.73 95.7721,53.0765 96.2959,46.6423 96.8491,39.3174 97.3454,31.8139 97.7768,24.1368 98.1606,15.5031 98.403,8.3233 98.6052,-0.5804 98.6961,-8.0015 98.7088,-17.2327 98.628,-24.9116 98.4324,-33.5755 98.0874,-42.37 97.4755,-52.1835 96.7375,-60.3096 95.6002,-69.4205 94.1287,-78.6049 92.2773,-87.8371 90.0182,-97.0905 87.0539,-107.2169 84.2546,-115.4747 80.7396,-124.6118 76.8356,-133.7074 72.1166,-143.6571 67.9536,-151.7583 62.5406,-161.6243 57.9024,-169.6953 52.5959,-178.6965 47.1825,-187.7584 41.812,-196.7261 36.6938,-205.3151 31.8957,-213.4635 27.4806,-221.2368 23.5021,-228.735 20.0139,-236.0541 17.0675,-243.3397 14.666,-250.709 12.8074,-258.191 11.5238,-265.7814 10.803,-273.5248 10.652,-281.4519 11.1101,-289.5177 12.3376,-298.4898 13.8957,-305.8651 16.2431,-314.0428 19.1941,-322.153 23.1083,-330.8756 26.8095,-337.8435 31.4506,-345.3629 36.5947,-352.5119 41.9719,-359.1656 47.2736,-365.3098 52.3888,-370.8959 57.3099,-375.8586 62.039,-380.1925 66.6228,-383.9191 71.1452,-387.0464 75.6456,-389.5718 80.1332,-391.4746 85.0982,-392.8257 89.18,-393.3392 93.7303,-393.3367 98.7749,-392.6616 102.8502,-391.5703 107.2323,-389.8276 111.3779,-387.5641 115.216,-384.7876 118.734,-381.5503 121.9344,-377.9146 125.0188,-373.4948 127.1772,-369.5782 129.2307,-364.9224 131.0549,-359.9253 132.8854,-354.0739 134.2438,-349.0298 135.5686,-343.1672 136.6724,-337.1632 137.6181,-331.0027 138.4781,-324.6094 139.2701,-317.992 140.0072,-311.1551 140.6901,-304.1035 141.3444,-296.8449 141.9957,-289.3867 142.6476,-281.7359 143.2951,-273.9002 143.9328,-265.9157 144.5603,-257.7922 145.2436,-248.6535 145.7925,-241.0193 146.3959,-232.3727 146.9906,-223.5546 147.6288,-213.6604 148.1488,-205.4161 148.7514,-196.0912 149.4205,-186.5923 149.4924,-185.6327 150.1833,-176.9159 151.0676,-167.0747 152.1288,-157.1173 153.4477,-147.024 155.015,-136.8157 156.9018,-126.5196 159.1701,-116.1706 162.2677,-104.8141 165.3174,-95.5874 169.231,-85.4351 173.7285,-75.4368 178.8492,-65.6601 184.6531,-56.2009 191.802,-46.2317 198.2413,-38.4802 206.7885,-29.5602 215.1383,-21.9993 223.9623,-15.0083 232.2811,-9.2127 241.8775,-3.2464 252.7734,2.8557 261.8898,7.5734 272.1196,12.7306 282.3676,17.9709 292.5917,23.3784 302.7872,28.9709 312.9454,34.742 322.8148,40.5408 328.4922,43.9584 332.171,46.1882 341.8423,52.0861 349.2985,56.6702 357.82,62.0616 364.2857,66.3791 370.9,71.154 376.9092,75.9871 382.8409,81.4045 387.1471,85.9117 391.3672,91.0105 394.985,96.2512 397.9964,101.6336 400.4018,107.1323 402.2035,112.7135 403.3995,118.3382 403.9977,123.9435 403.995,129.4432 403.4039,134.7564 402.0888,140.3127 400.5071,144.6101 397.9938,149.5399 395.4765,153.3895 392.194,157.5041 388.02,161.7598 384.1899,164.9739 379.5308,168.2423 374.4822,171.1855 369.0745,173.8018 363.325,176.0939 357.2354,178.1083 350.8187,179.927 344.1343,181.725 337.194,183.499 329.2634,185.3895 322.5454,186.8911 314.8618,188.5182 306.9795,190.1302 298.8661,191.7787 290.5502,193.5356 282.0781,195.5359 272.6526,198.1831 264.9089,200.7766 255.4772,204.5384 247.8624,208.1613 238.8092,213.2892 231.698,218.0941 224.1503,224.0667 217.0301,230.6677 210.3902,237.8494 203.6581,246.2942 198.5837,253.5538 193.4127,261.9822 188.7276,270.7785 184.1445,280.8341 180.8584,289.3309 177.7088,299.0267 175.0495,308.9533 172.8634,319.0825 170.8981,330.4134 169.5433,339.6266 168.2337,349.5118 166.9571,359.74 166.03,367.5388 165.0963,376.3781 164.4734,383.7918 164.1089,390.0112 163.9934,396.4436 164.1967,402.41 164.7623,407.9324 165.8339,413.4889 167.0459,417.6282 168.734,421.7848 170.776,425.473 173.1507,428.7144 175.8606,431.5224 178.8662,433.8694 182.1342,435.755 185.6597,437.1876 189.4258,438.1816 193.3819,438.7154 197.4732,438.7675 202.064,438.2421 205.8548,437.3575 210.5394,435.7494 214.8675,433.8027 218.789,431.6562 223.0997,428.8207 227.3107,425.5105 231.4051,421.7389 235.4008,417.5266 239.2835,412.985 243.1454,408.1227 246.9616,402.9347 251.0917,396.8615 254.7961,391.0329 258.4852,384.9434 261.8343,379.2726 265.6592,372.8098 269.6524,366.2218 273.7957,359.6304 277.9326,353.369 282.0364,347.6165 286.5614,341.9055 290.3145,337.6788 294.5629,333.4115 298.9352,329.6115 303.4789,326.3042 308.2332,323.4932 313.1974,321.1971 318.3943,319.3753 323.7119,318.0712 329.0734,317.309 334.4217,317.1094 339.6944,317.484 344.8225,318.4381 349.7484,319.9296 354.4233,321.9501 358.843,324.5009 363.4514,327.9033 367.0525,331.1371 370.8046,335.1899 374.2293,339.6999 377.3003,344.6344 379.9797,349.9722 382.2236,355.6956 384.0165,361.7829 385.4639,368.8767 386.1899,374.96 386.4927,382.6791 386.2578,389.1879 385.4175,397.3325 384.3116,404.124 382.6505,411.7691 380.258,420.199 377.5034,427.8369 374.5764,434.691 370.8748,442.2728 366.6953,449.7816 362.0174,457.1696 356.9,464.4452 350.8122,472.319 344.9322,479.3983 339.4499,485.7743 333.2272,492.9196 326.8763,500.1198 320.4231,507.404 313.8692,514.766 307.2192,522.18 300.4664,529.6128 293.5492,537.0565 286.4154,544.4543 279.0248,551.7562 271.3162,558.8813 263.2436,565.7497 253.9469,572.8934 246.0651,578.3016 236.1579,584.2831 227.8578,588.6402 218.4986,592.9909 209.0313,596.8459 199.485,600.2421 189.8603,603.1136 180.17,605.4721 170.3303,607.3349 160.2826,608.6213 149.0196,609.3454 139.6754,609.373 129.2025,608.7597 118.683,607.4536 108.1704,605.431 97.7139,602.708 87.3985,599.283 77.3363,595.1304 66.602,589.7482 58.0745,584.7392 48.8932,578.5662 40.0792,571.7704 31.6996,564.3796 23.1483,555.6671 16.0844,547.2798 10.3327,539.3798 4.5397,530.1671 -0.6905,520.5422 -5.4755,510.586 -9.7928,500.3324 -13.6557,489.8117 -17.2263,479.09 -20.8978,467.1095 -23.7402,457.1934 -26.773,446.091 -29.7738,434.8921 -32.8288,423.6245 -35.9242,412.2944 -39.3587,399.7602 -42.1897,389.4574 -45.3565,377.9659 -48.5618,366.4272 -51.8212,354.8423 -55.139,343.2097 -58.5159,331.5291 -61.9497,319.7986 -65.4427,308.0179 -68.9868,296.1835 -72.5453,284.2839 -76.1073,272.3157 -79.6797,260.281 -83.2643,248.182 -86.8632,236.0205 -90.8374,222.5723 -94.0815,211.5094 -98.0419,197.9178 -101.6474,185.4994 -105.2553,173.0217 -108.5086,161.7435 -112.1292,149.1594 -115.7602,136.5221 -119.3884,123.8288 -123.0315,111.0864 -126.6948,98.2972 -130.3672,85.4592 -134.0536,72.5762 -138.1379,58.3565 -141.8728,45.3868 -145.25,33.6788 -149.0154,20.6314 -152.7884,7.5677 -156.5742,-5.5183 -160.3771,-18.6431 -164.196,-31.8059 -168.0266,-45.0075"/>
	<!-- Raw distance reference points -->
	<polyline id="dist" fill="none" stroke="none" stroke-width="0" points="4624.7998,-8.7376 17.0749,-8.7641 30.9189,-8.7507 44.7842,-8.7472 58.6992,-8.7527 72.6635,-8.7396 86.6749,-8.7559 100.7185,-8.7602 114.7917,-8.7572 128.9149,-8.7626 143.063,-8.774 157.2496,-8.8136 171.4644,-8.9556 185.7024,-9.2089 199.9529,-9.5984 214.2315,-10.0542 228.5552,-10.6561 242.8974,-11.3803 256.9032,-12.1975 270.2305,-13.056 282.7358,-13.8153 294.4262,-14.3727 305.3661,-14.6941 315.6357,-14.8294 325.3084,-14.8343 334.408,-14.7249 342.9273,-14.5036 350.9113,-14.2133 358.3524,-13.8885 365.3278,-13.5855 371.9267,-13.3184 378.2274,-13.1009 384.5344,-12.9153 391.0766,-12.747 398.7614,-12.5443 406.2741,-12.2344 414.9423,-11.9565 422.023,-11.7432 428.8974,-11.5487 435.7509,-11.3544 442.8215,-11.1635 450.1343,-10.9788 457.648,-10.8233 465.3388,-10.681 473.237,-10.5253 481.2899,-10.4106 489.5288,-10.2911 497.9191,-10.1585 506.4353,-10.0459 515.0379,-9.9033 523.7192,-9.7973 532.4768,-9.7801 541.259,-9.815 550.2255,-9.8122 560.2902,-9.7226 570.8903,-9.5882 580.725,-9.4272 590.2866,-9.2573 599.825,-9.068 609.3982,-8.8951 619.1576,-8.7305 629.0652,-8.591 638.7189,-8.4471 647.7354,-8.3145 656.0469,-8.2189 663.6594,-8.1171 670.6511,-8.0297 677.0703,-7.9688 682.9423,-7.9127 688.3541,-7.8605 693.3563,-7.8308 698.0543,-7.8174 702.379,-7.8185 706.4725,-7.8248 710.5712,-7.8361 714.954,-7.85 719.7419,-7.8723 724.6685,-7.9015 729.3773,-7.9185 732.7226,-7.9416 737.201,-7.9584 741.7224,-7.9861 746.0777,-8.0123 749.9788,-8.0383 753.5707,-8.0759 757.3372,-8.1215 761.3696,-8.1941 765.6157,-8.2961 770.104,-8.4194 774.8836,-8.5538 779.9578,-8.6741 785.3028,-8.7586 790.913,-8.7962 796.7868,-8.7606 802.8453,-8.6349 809.1331,-8.4215 815.6469,-8.0747 822.2766,-7.7572 828.8033,-7.3118 835.1417,-6.8969 841.4113,-6.3483 847.8991,-5.6728 855.3875,-5.0596 862.7547,-4.4555 870.7405,-3.9431 878.6809,-3.4273 886.3856,-2.9759 894.5234,-2.5754 902.3195,-2.207 910.4127,-1.9738 918.1066,-1.7539 925.8837,-1.6095 933.9019,-1.4691 942.1412,-1.343 950.531,-1.2416 959.0417,-1.1162 967.7761,-1.0112 976.7034,-0.8911 985.7842,-0.7881 995.0029,-0.7084 1004.3471,-0.5924 1013.8195,-0.5248 1023.4151,-0.3969 1033.1372,-0.3198 1042.9866,-0.1874 1052.9563,-0.0769 1063.0071,0.0477 1073.1528,0.1361 1083.4119,0.2731 1093.782,0.3958 1104.2651,0.4857 1114.8561,0.5553 1125.5531,0.6398 1136.3517,0.7793 1147.2473,0.9141 1149.6187,0.9568 1158.2328,1.0333 1169.3148,1.0904 1180.4919,1.0934 1191.7675,1.0536 1203.1403,0.9703 1214.6221,0.839 1226.1926,0.6739 1237.8311,0.4869 1249.5273,0.242 1261.3217,-0.0734 1273.2089,-0.4127 1285.1829,-0.8108 1297.2379,-1.2664 1309.14,-1.737 1320.5717,-2.2576 1331.4838,-2.8091 1341.8434,-3.3307 1351.6338,-3.883 1360.8311,-4.4319 1369.4591,-5.0139 1377.5536,-5.4702 1385.1185,-5.9723 1392.1791,-6.4615 1398.7664,-6.8871 1404.978,-7.243 1410.79,-7.5411 1416.1616,-7.8022 1421.0974,-8.0268 1425.6073,-8.2479 1429.839,-8.4113 1434.1029,-8.5709 1437.8085,-8.7051 1442.1222,-8.804 1446.6047,-8.8738 1451.1167,-8.9016 1455.5447,-8.8985 1459.8302,-8.8693 1463.9091,-8.8126 1467.0494,-8.7364 1470.8191,-8.6424 1474.3497,-8.5358 1477.7896,-8.4156 1481.3295,-8.2706 1485.178,-8.0924 1489.4885,-7.8832 1494.1616,-7.6514 1499.1339,-7.4011 1504.3959,-7.1174 1509.9437,-6.7894 1515.7495,-6.4373 1521.7429,-6.0616 1527.9219,-5.6844 1534.3296,-5.3068 1540.9349,-4.8952 1547.7358,-4.4589 1554.7147,-3.9889 1561.8788,-3.6046 1569.2157,-3.1709 1576.7271,-2.7127 1584.3854,-2.2529 1592.2244,-1.7245 1600.1892,-1.2932 1608.2693,-0.7724 1616.4976,-0.3486 1624.8635,0.1757 1633.3572,0.6284 1641.9767,1.1085 1650.7395,1.5909 1659.7301,2.1208 1668.9377,2.5351 1678.2031,3.0111 1687.8228,3.4663 1697.5975,3.9145 1707.4172,4.3315 1717.2594,4.7667 1727.135,5.0596 1737.0447,5.3726 1746.9962,5.6515 1757.0353,5.9229 1767.1621,6.1004 1777.3925,6.2437 1787.7603,6.3286 1798.2373,6.3901 1808.8107,6.3564 1819.2501,6.3617 1829.2295,6.3397 1838.6693,6.2613 1847.5935,6.1529 1856.0343,6.0211 1864.1067,5.8692 1871.9199,5.7086 1879.5289,5.5274 1887.0305,5.3146 1894.4663,5.0872 1902.1837,4.8525 1910.4772,4.6239 1919.007,4.4157 1927.5027,4.2174 1936.3778,4.0674 1945.2015,3.9512 1953.8584,3.8545 1962.3137,3.7644 1970.8018,3.6841 1979.4556,3.5976 1988.225,3.5581 1996.798,3.5566 2004.9261,3.5887 2012.5145,3.6524 2019.517,3.7419 2025.8799,3.8534 2031.6644,3.963 2036.9326,4.0683 2041.7882,4.1751 2046.4146,4.3039 2051.04,4.4879 2055.8354,4.6815 2060.8721,4.9212 2066.1514,5.2398 2071.5952,5.5562 2077.1331,5.9387 2082.7241,6.3398 2089.0964,6.7874 2094.4026,7.2623 2099.4124,7.7291 2104.3076,8.2493 2109.2178,8.6843 2114.1895,9.1804 2119.3953,9.6936 2124.9092,10.2948 2130.6897,10.7785 2136.7039,11.2691 2142.812,11.6979 2149.0203,12.0668 2155.4609,12.4005 2162.1169,12.6869 2169.0068,12.8818 2176.1064,13.0011 2183.4097,13.0745 2190.8828,13.0983 2198.5413,13.0995 2206.3833,13.1003 2214.3669,13.1045 2222.491,13.0576 2230.7896,12.8358 2239.2651,12.5154 2247.9216,11.996 2256.7549,11.2947 2265.7751,10.2802 2274.9917,9.2568 2284.4038,8.014 2294.0137,6.7097 2294.7078,6.5793 2303.8096,5.4368 2313.749,4.3451 2323.793,3.3837 2333.9578,2.5963 2344.2607,1.9347 2354.7158,1.424 2365.3086,1.098 2375.9534,0.9187 2386.6072,0.8327 2397.2634,0.7275 2408.3179,0.649 2419.7664,0.636 2431.3127,0.7545 2442.7837,1.0213 2454.5105,1.3898 2466.1248,2.0404 2477.6978,2.7791 2489.2554,3.6457 2500.5132,4.5209 2511.8423,5.5365 2523.229,6.6554 2534.675,7.5765 2546.1782,8.609 2557.7336,9.6322 2569.3369,10.6087 2580.9878,11.4621 2592.678,12.1856 2604.1182,12.7658 2609.3975,13.0232 2615.0278,13.1545 2625.3613,13.4067 2635.2183,13.4961 2644.7966,13.5328 2653.8838,13.5374 2662.1277,13.5026 2670.0393,13.4596 2677.4651,13.4149 2684.5713,13.3887 2691.1357,13.3518 2697.4006,13.3202 2703.4751,13.2862 2709.4465,13.2401 2715.2664,13.1786 2720.9316,13.101 2726.4485,13.003 2731.8442,12.8971 2737.2322,12.7909 2742.7104,12.6847 2749.0674,12.609 2754.9604,12.5293 2760.8408,12.4648 2766.5669,12.3797 2772.1975,12.2509 2777.8376,12.1122 2783.3821,11.903 2789.0073,11.614 2794.9619,11.2272 2801.1895,10.7415 2807.6582,10.1439 2814.3557,9.4332 2821.3132,8.607 2828.5098,7.6499 2835.9756,6.4487 2843.6936,5.401 2851.6135,4.2324 2859.7112,3.1321 2868.0159,2.1258 2876.5359,1.2137 2885.2659,0.4011 2894.1895,-0.3909 2903.2749,-0.9355 2912.4858,-1.4574 2921.8149,-1.7858 2931.3618,-2.0551 2941.0576,-2.1335 2950.97,-2.0696 2960.9822,-1.8334 2971.1492,-1.4342 2981.3354,-0.9141 2991.4563,-0.4856 3001.6101,0.0072 3011.7729,0.5101 3021.937,1.0703 3032.0286,1.5409 3042.0979,2.074 3052.2515,2.5808 3062.6384,3.0765 3073.1846,3.602 3083.5056,4.0174 3093.4543,4.4392 3102.855,4.8841 3111.6096,5.2371 3119.7034,5.6442 3127.1897,5.985 3134.1289,6.2322 3140.5378,6.4855 3146.4309,6.7146 3151.8516,6.9217 3156.9426,7.1322 3161.9436,7.2895 3166.9441,7.4617 3171.8362,7.6414 3176.5396,7.8099 3181.113,7.9719 3185.5928,8.1331 3190.032,8.2866 3194.5254,8.4492 3199.1658,8.6136 3203.9941,8.7755 3208.9341,8.9287 3213.9014,9.0909 3218.8843,9.2233 3223.7876,9.3843 3228.5066,9.5355 3233.2524,9.6649 3238.2693,9.7969 3243.4795,9.9131 3248.9709,10.0097 3254.7458,10.0855 3260.709,10.1387 3266.9172,10.173 3273.3533,10.1938 3279.9932,10.2142 3286.8291,10.2192 3293.8545,10.2072 3301.071,10.1719 3308.4946,10.1106 3316.127,10.0458 3323.8669,9.9674 3331.3508,9.8838 3338.4495,9.7774 3345.1016,9.6386 3351.3567,9.5196 3357.2852,9.3723 3362.9561,9.194 3368.3086,8.9889 3373.5796,8.7637 3378.9424,8.5296 3384.5938,8.2749 3390.4304,7.9996 3396.3125,7.7105 3402.1396,7.4167 3408.4426,7.1206 3414.1934,6.8282 3419.8879,6.5175 3425.5552,6.1974 3431.2261,5.8813 3436.8931,5.5402 3442.5413,5.2412 3448.3545,4.8874 3454.156,4.5105 3460.1157,4.0995 3466.2517,3.6612 3472.5852,3.214 3479.3369,2.7647 3486.1475,2.2661 3493.5054,1.8801 3500.8279,1.4334 3508.6479,1.0905 3516.3445,0.6992 3524.4229,0.4075 3532.3508,0.1005 3540.4114,-0.2111 3548.3701,-0.4293 3556.3894,-0.5848 3564.5005,-0.7326 3572.9382,-0.8693 3581.5872,-0.9763 3590.4248,-1.0828 3599.4917,-1.1406 3608.697,-1.1979 3618.0361,-1.2033 3627.5088,-1.1751 3637.084,-1.1293 3646.8027,-1.0726 3656.6687,-1.0246 3666.666,-1.001 3676.677,-0.9687 3686.772,-0.9458 3697.011,-0.9282 3707.3459,-0.9393 3717.73,-0.9474 3728.1868,-0.9463 3738.7288,-0.9277 3749.3662,-0.8912 3759.9373,-0.8632 3770.4136,-0.8762 3780.8423,-1.0384 3791.2195,-1.3847 3801.51,-1.9359 3811.7314,-2.6187 3821.9382,-3.452 3832.1948,-4.4336 3842.5652,-5.4653 3853.0425,-6.5971 3863.637,-7.4936 3874.2166,-8.4441 3884.8738,-9.3451 3895.616,-10.167 3906.4355,-10.9265 3917.2883,-11.6187 3928.115,-12.22 3938.8611,-12.8068 3949.7036,-13.2363 3960.6013,-13.654 3971.562,-13.99 3982.4934,-14.2426 3993.1282,-14.4326 4003.7725,-14.5406 4014.2651,-14.5841 4024.7256,-14.5719 4035.1968,-14.5167 4045.7576,-14.4341 4056.6492,-14.3533 4067.7314,-14.2906 4078.8792,-14.2469 4090.2234,-14.2009 4101.6895,-14.1681 4113.1938,-14.1654 4124.8462,-14.1247 4136.5469,-13.9973 4148.292,-13.6719 4160.0845,-13.1612 4171.9775,-12.6084 4183.9517,-11.8614 4195.9717,-11.1033 4208.0029,-10.4219 4220.0547,-9.8639 4232.1753,-9.4194 4244.4521,-9.091 4256.7769,-8.8729 4269.1694,-8.7632 4281.5845,-8.7399 4294.0376,-8.7511 4306.5679,-8.7454 4319.2002,-8.7182 4331.8779,-8.7149 4344.5703,-8.7149 4357.3486,-8.7062 4370.2056,-8.7053 4383.1426,-8.6895 4396.1558,-8.6812 4409.2139,-8.6904 4422.3252,-8.708 4435.4941,-8.7077 4448.7358,-8.7172 4461.9888,-8.7198 4475.27,-8.7184 4488.6055,-8.7351 4501.998,-8.755 4515.4258,-8.7428 4528.9136,-8.7595 4542.4482,-8.7655 4556.0249,-8.771 4569.6265,-8.7615 4583.2524,-8.7693 4596.9326,-8.7682 4610.6396,-8.7557 4624.376,-8.7509"/>
</svg>
