<?xml version="1.0" encoding="utf-8"?>
<!-- Track map generated with TinyPedal -->
<svg viewBox="-174.0580 -607.7755 695.3617 1078.8781" version="1.1" xmlns="http://www.w3.org/2000/svg">
	<title>Autódromo José Carlos Pace</title>
	<!-- Sector coordinates index -->
	<desc>139,395</desc>
	<!-- Raw global coordinates -->
	<polyline id="map" fill="none" stroke="black" stroke-width="10" points="-111.6824,102.5063 -105.7277,126.0117 -102.3453,139.0884 -98.5685,153.4863 -95.448,165.2799 -91.9793,178.405 -88.5365,191.5601 -85.1068,204.7424 -81.3503,219.2766 -78.2909,231.1943 -74.897,244.4627 -71.513,257.7601 -67.7896,272.4175 -64.7372,284.4113 -61.3964,297.4649 -58.1309,309.9467 -54.9224,321.7374 -51.5122,333.904 -48.5115,344.2899 -45.8671,353.142 -42.7018,363.3592 -40.1557,371.2536 -37.3515,379.5754 -34.2404,388.2163 -31.6377,394.9284 -28.6625,402.0368 -25.5435,408.7712 -22.222,415.1261 -18.267,421.6349 -14.7823,426.5564 -10.6411,431.5565 -6.2326,436.0429 -1.5744,439.9931 3.3172,443.4146 8.4523,446.2639 13.7575,448.4463 19.6421,450.0677 24.4319,450.8211 29.6471,451.1026 35.1884,450.7647 39.5378,450.025 44.1972,448.7233 48.679,446.9466 52.9451,444.7326 56.9856,442.0725 60.8886,438.9892 64.7064,435.5578 68.386,431.7672 71.9001,427.6159 75.1877,423.2422 78.7885,418.4961 81.9871,414.9085 85.9204,411.3589 90.1979,408.3089 94.7706,405.8311 100.0191,403.7665 104.4272,402.6139 109.385,401.9047 114.8632,401.7918 119.8247,402.2738 124.7327,403.248 129.1033,404.4644 133.9141,406.2113 138.6422,408.4328 143.3379,411.0628 148.5647,414.2997 153.0035,417.0554 158.1666,420.1062 163.6211,423.0301 169.9901,425.9358 175.4862,427.9799 181.8838,429.8346 188.54,431.2797 195.4486,432.269 202.5874,432.8449 209.9276,433.014 217.4378,432.7624 225.0877,432.0669 232.8445,430.9217 240.6777,429.3253 249.3355,427.0028 256.42,424.6587 264.2363,421.5775 272.727,417.5928 279.5827,413.8836 287.0608,409.2784 294.3653,404.1776 301.4583,398.5898 308.3036,392.5235 314.873,385.9965 321.1469,379.0337 327.1035,371.6581 332.7175,363.8857 337.9706,355.7401 342.8569,347.2503 347.3635,338.4387 351.8722,328.4017 355.2274,319.9484 358.9585,309.3746 362.0379,299.558 364.6059,290.5664 367.2919,280.4245 369.8983,270.1529 372.4942,259.7719 375.1007,249.289 377.7343,238.7113 380.4138,228.0461 383.1414,217.2966 385.9095,206.4635 388.7119,195.5467 391.5319,184.5446 394.3275,173.4487 397.0889,162.2588 399.8263,150.9795 402.5377,139.6122 405.2307,128.1604 407.9393,116.6331 410.9783,103.8772 413.5266,93.3872 416.4149,81.6995 419.3612,69.948 422.3616,58.1331 425.4218,46.2575 428.5406,34.3219 431.7042,22.3244 434.9135,10.2669 438.466,-3.0723 441.3857,-14.0449 444.9666,-27.528 447.9079,-38.6166 451.1797,-50.9981 454.4426,-63.4449 457.6956,-75.9565 461.3067,-89.7799 464.6214,-102.3991 467.6285,-113.7982 471.0022,-126.5052 474.395,-139.2431 477.7211,-151.7565 480.9147,-163.7681 483.9472,-175.208 487.093,-187.1305 489.5306,-196.3987 492.0897,-206.2317 494.4679,-215.595 496.6183,-224.5167 498.4608,-233.0377 499.8876,-241.1964 500.8436,-249.0197 501.3037,-256.5082 501.2437,-264.3647 500.7582,-270.4933 499.7552,-276.9841 498.0997,-283.717 496.3137,-288.9056 493.8712,-294.3575 490.9038,-299.5985 487.4052,-304.7031 483.3923,-309.6254 478.8551,-314.3029 473.3761,-318.95 468.5872,-322.31 462.8654,-325.6399 456.8292,-328.6737 450.5381,-331.3877 443.9951,-333.6925 437.2109,-335.5299 430.1953,-336.9098 422.9405,-337.9307 415.4571,-338.6593 407.7656,-339.0745 399.8921,-339.1941 391.8577,-339.0034 382.8589,-338.3566 375.3869,-337.4795 366.1785,-335.9339 358.608,-334.2734 350.1581,-332.0325 341.6981,-329.3615 333.2673,-326.2296 324.9052,-322.6149 315.8405,-318.0556 307.7438,-313.4053 300.6012,-308.8115 292.845,-303.2711 285.3023,-297.2815 277.9995,-290.8532 270.9384,-284.0201 264.1211,-276.8096 257.5113,-269.2771 250.4244,-260.6847 244.7682,-253.4502 238.6078,-245.2154 232.5523,-236.7837 226.592,-228.1719 220.6966,-219.4069 214.8625,-210.4974 208.5148,-200.5393 203.3688,-192.2835 197.6884,-183.0087 192.0512,-173.6304 186.4146,-164.1802 180.6734,-154.7204 174.7258,-145.3175 168.5335,-136.0081 162.142,-126.7639 155.5745,-117.5748 148.8625,-108.4214 141.357,-98.3623 135.1388,-90.13 128.1144,-81.0081 120.9096,-71.9648 113.6367,-63.0968 106.5363,-54.6242 99.0274,-45.823 93.0839,-39.0437 86.6245,-31.9752 80.2834,-25.3937 74.0103,-19.2932 67.737,-13.6688 61.3629,-8.63 54.8873,-4.1714 48.2882,-0.3462 41.5411,2.8256 34.6467,5.3697 27.5697,7.3147 19.6503,8.7705 13.1756,9.3767 6.0666,9.425 -1.6029,8.7205 -7.8277,7.588 -14.7125,5.7741 -21.5267,3.3841 -28.2087,0.4183 -35.3479,-3.5072 -41.6063,-7.6664 -47.0105,-11.8752 -52.7225,-17.0478 -58.088,-22.7164 -63.5947,-29.4678 -67.7831,-35.3668 -72.155,-42.2551 -76.2203,-49.4672 -80.294,-57.7617 -83.2983,-64.8154 -86.5963,-73.732 -89.2444,-82.0969 -91.3588,-89.8 -93.4012,-98.2629 -95.1803,-106.3575 -96.774,-113.9736 -98.3304,-121.8098 -99.4148,-127.8387 -100.4118,-134.1767 -101.2076,-140.2107 -101.8143,-146.5928 -102.0279,-151.6491 -101.8913,-157.1215 -101.315,-162.4416 -100.2935,-167.5538 -98.6898,-172.8176 -97.0219,-176.7706 -94.8307,-180.7722 -92.3064,-184.358 -89.4459,-187.5397 -86.2584,-190.317 -82.7837,-192.6423 -79.0578,-194.5102 -75.0305,-195.9753 -70.7318,-197.0154 -65.7515,-197.6335 -61.5251,-197.7095 -56.7165,-197.3214 -51.8834,-196.4516 -47.2046,-195.1096 -42.7472,-193.345 -38.1265,-190.9273 -34.1114,-188.3334 -30.5747,-185.6817 -26.3772,-182.3515 -22.929,-179.8023 -18.9771,-177.3219 -14.3751,-175.1674 -10.4035,-173.8116 -5.8912,-172.7396 -0.8625,-172.1591 3.6994,-172.2026 7.7408,-172.7083 12.1015,-173.7713 16.2677,-175.3387 20.1989,-177.4119 23.9407,-179.989 27.5063,-183.0748 30.8225,-186.6662 33.8164,-190.738 36.6547,-195.7395 38.5743,-200.2002 40.2157,-205.4917 41.2873,-211.0644 41.7543,-216.8262 41.5888,-222.6322 40.7949,-228.2771 39.4151,-233.6529 37.4887,-238.7123 35.0449,-243.4524 32.0862,-247.9645 28.2586,-252.6362 24.785,-256.2674 20.5806,-260.0874 16.1298,-263.8483 11.7331,-268.0833 7.481,-272.7368 3.142,-277.5714 -1.3456,-282.5248 -5.9529,-287.6126 -11.1615,-293.3487 -15.503,-298.1722 -20.7855,-304.3093 -25.0012,-309.5514 -29.9577,-316.2993 -33.8255,-322.1001 -37.8898,-328.8394 -41.6963,-335.8794 -45.4107,-343.1237 -49.0128,-350.4352 -52.5914,-358.1964 -55.1687,-364.2246 -57.6825,-370.5508 -59.88,-376.4703 -61.7314,-382.0001 -63.1509,-387.1744 -64.1173,-392.0442 -64.6528,-396.6457 -64.7242,-401.0104 -64.3101,-405.1502 -63.3789,-409.0701 -61.9232,-412.7424 -59.9834,-416.1161 -57.6033,-419.1237 -54.8448,-421.7132 -51.4381,-423.998 -48.4032,-425.4061 -44.7565,-426.5312 -40.4764,-427.1874 -36.8218,-427.2713 -32.6639,-426.8694 -28.4688,-425.9319 -24.2892,-424.454 -20.1457,-422.4756 -16.0873,-420.0259 -12.1187,-417.1568 -7.8498,-413.5376 -4.0262,-409.8255 -0.6039,-406.1726 3.1679,-401.7787 6.8828,-397.0356 10.5341,-391.9554 14.5447,-386.0476 17.8985,-381.0255 22.2347,-374.7866 26.0688,-369.7191 30.7318,-364.2011 35.8282,-358.8634 41.3621,-353.7621 47.3162,-348.955 54.3129,-344.1213 60.313,-340.5977 67.198,-337.2121 74.9856,-334.1593 81.4863,-332.2014 88.8013,-330.6042 96.176,-329.6081 103.7063,-329.1833 112.1945,-329.3487 119.2685,-329.973 127.2233,-331.2329 135.2266,-333.1218 143.2333,-335.615 151.2031,-338.6965 159.0892,-342.3685 167.6241,-347.0684 174.4565,-351.4333 181.8301,-356.8524 188.9352,-362.8423 195.7262,-369.3795 202.1991,-376.4054 208.3739,-383.8544 214.2667,-391.6465 219.9351,-399.7374 225.9649,-408.9347 231.3118,-417.5152 236.606,-426.2462 241.3533,-434.1816 246.461,-442.8179 251.2829,-451.0483 255.7768,-458.8026 259.9016,-466.0788 264.0132,-473.5821 267.0735,-479.3781 270.186,-485.5092 273.2843,-491.9346 275.5602,-497.017 277.7699,-502.5624 279.5741,-508.051 280.9054,-513.5186 281.7459,-518.9792 282.0561,-524.9631 281.7893,-530.3235 281.111,-535.033 279.8072,-540.0609 277.938,-544.7994 275.5533,-549.2279 272.6583,-553.449 269.2697,-557.4282 265.0102,-561.4737 260.6928,-564.828 255.9791,-567.9231 251.4127,-570.4957 246.0176,-573.1259 240.3391,-575.571 234.3951,-577.835 228.198,-579.9171 221.7581,-581.7825 215.0966,-583.4535 208.2158,-584.8926 200.4059,-586.1573 193.8419,-586.9301 185.6268,-587.5425 177.9958,-587.7755 171.0138,-587.723 163.1458,-587.3854 155.1985,-586.7593 147.1846,-585.8422 138.2827,-584.5125 130.119,-583.0283 122.7171,-581.4852 114.4278,-579.5875 106.0648,-577.5391 97.6319,-575.3517 89.1364,-573.0143 80.5876,-570.499 71.1429,-567.4838 63.3919,-564.8085 54.7569,-561.6244 46.091,-558.2454 37.399,-554.6716 28.697,-550.8814 19.1291,-546.442 11.3122,-542.597 1.7702,-537.6522 -6.0053,-533.3793 -14.5648,-528.3334 -23.8151,-522.3913 -31.256,-517.2228 -39.3666,-511.1335 -47.2674,-504.6516 -54.9075,-497.7535 -62.2415,-490.4297 -69.9446,-481.9123 -75.9364,-474.5909 -82.2506,-466.1036 -88.1734,-457.2543 -93.7024,-448.0703 -99.329,-437.6136 -103.5741,-428.8015 -107.8996,-418.756 -111.7924,-408.4573 -115.2603,-397.9311 -118.5618,-386.107 -120.9378,-376.2758 -123.5138,-364.0944 -125.6829,-352.8963 -127.7798,-341.601 -129.6716,-331.3665 -131.7792,-319.9192 -133.8933,-308.3941 -136.2195,-295.6279 -138.11,-285.1123 -140.1948,-273.3548 -142.2493,-261.5452 -144.263,-249.6584 -146.4046,-236.4896 -148.0518,-225.6379 -149.7178,-213.4956 -151.1822,-201.2648 -152.3876,-188.9463 -153.352,-175.2986 -153.8313,-164.0627 -154.058,-151.5132 -153.9348,-137.6402 -153.5647,-126.2423 -152.8035,-112.2639 -151.7997,-99.5195 -150.6529,-88.0259 -149.1092,-75.2352 -147.2872,-62.4286 -145.222,-49.607 -142.9402,-36.7715 -140.4449,-23.9277 -137.7577,-11.0767 -134.9327,1.79 -132.0323,14.683 -128.8001,28.903 -126.1305,40.5664 -123.134,53.5529 -120.0954,66.5628 -117.0171,79.5947 -113.9193,92.6511"/>
	<!-- Raw distance reference points -->
	<polyline id="dist" fill="none" stroke="none" stroke-width="0" points="4269.7329,39.2182 23.5025,39.8791 36.9732,40.261 50.5038,40.7164 64.0628,41.1099 77.6493,41.5625 91.2574,42.0222 104.8879,42.4539 118.5412,42.8669 132.2135,43.1769 145.9089,43.4752 159.626,43.729 173.3647,43.9816 187.1104,44.1396 200.5805,44.2789 213.485,44.372 225.709,44.4324 237.2309,44.4882 248.103,44.5791 258.3927,44.6654 268.1323,44.7598 277.347,44.8418 286.0891,44.9377 294.4299,45.0319 302.4066,45.0855 310.0881,45.098 317.5046,45.0817 324.6776,45.0574 331.6623,45.0283 338.4188,44.9649 345.1099,44.8212 351.5505,44.5913 357.8967,44.2828 364.2918,43.8864 371.6869,43.4343 378.0629,42.9869 384.0867,42.4957 389.8152,42.0764 395.2823,41.5798 400.1334,41.0055 404.8921,40.5042 409.3424,39.9172 413.6656,39.3097 418.0141,38.6735 422.4939,38.0217 427.1756,37.3543 432.1485,36.6377 437.5212,35.9127 443.3078,35.2125 449.2066,34.5237 455.4379,33.8283 461.1324,33.264 466.7546,32.7078 472.1815,32.1994 477.3672,31.77 482.2827,31.3509 486.979,31.0576 491.5265,30.7839 496.0,30.5276 500.5176,30.3258 505.1514,30.1161 510.1626,29.8783 514.9722,29.5833 519.9056,29.3319 525.1105,29.0974 530.7047,28.9092 536.6086,28.7428 542.7784,28.5591 549.1708,28.3808 556.0052,28.1907 562.7466,28.0316 569.613,27.9066 576.7847,27.7662 583.9221,27.6269 591.403,27.469 598.9063,27.3112 606.7585,27.1494 614.6138,26.9979 622.7488,26.8558 630.9969,26.6986 639.2745,26.5431 647.8004,26.4177 656.4418,26.2817 665.1906,26.1422 673.9548,26.019 682.9265,25.8944 691.9781,25.7799 701.1483,25.67 710.4186,25.5598 719.7272,25.4499 729.1711,25.3319 738.6802,25.1996 748.2502,25.0612 757.8866,24.9175 767.5984,24.751 777.3976,24.5633 787.2806,24.3345 797.2418,24.1293 807.3092,23.8626 817.5375,23.6144 827.9095,23.387 838.3974,23.1578 848.9944,22.9258 859.6934,22.6902 870.4866,22.4657 881.3815,22.2509 892.3718,22.0412 903.4564,21.8269 914.6328,21.5958 925.8961,21.3816 937.2518,21.1613 948.6951,20.9354 960.2252,20.712 971.8384,20.4803 983.5281,20.2438 995.2979,19.9817 1007.1417,19.6971 1019.0616,19.3465 1031.0583,19.029 1043.1039,18.6803 1055.2262,18.327 1067.4219,17.9623 1079.691,17.5793 1092.0331,17.2023 1104.4481,16.8233 1116.9354,16.4533 1129.4905,16.0344 1142.1155,15.6857 1154.8042,15.2667 1167.5574,14.9332 1180.3683,14.5621 1193.2386,14.1871 1206.1699,13.8333 1219.1606,13.4571 1232.2042,13.1656 1245.2999,12.9631 1258.4526,12.7491 1271.6431,12.5843 1284.5947,12.4677 1297.0341,12.347 1308.8724,12.2678 1320.1127,12.1617 1330.7888,12.0848 1340.9497,11.9746 1350.6047,11.845 1359.7736,11.7036 1368.4724,11.5625 1376.7194,11.404 1384.5664,11.2167 1392.1027,11.0133 1399.3325,10.7638 1406.4684,10.5397 1413.2112,10.276 1419.6902,9.9783 1426.0453,9.7291 1432.1232,9.4348 1438.2264,9.1196 1444.4487,8.7786 1450.7085,8.4114 1457.0504,8.0457 1463.3484,7.6769 1469.5747,7.3843 1475.7191,7.0753 1482.2164,6.6685 1488.7985,6.1756 1495.5061,5.6725 1502.2783,5.188 1509.3856,4.7211 1516.6088,4.2673 1524.0513,3.8499 1531.5601,3.4978 1539.2849,3.1642 1547.074,2.8259 1555.0289,2.5158 1563.2458,2.293 1571.5654,2.1147 1580.0912,2.0459 1588.8135,2.0245 1597.7338,2.0517 1606.8263,2.1075 1616.0862,2.1763 1625.4906,2.2796 1635.0179,2.3702 1644.5468,2.4533 1654.2629,2.5294 1664.0758,2.5948 1673.9727,2.6653 1683.9388,2.732 1693.9614,2.8057 1704.0232,2.8782 1714.1432,2.9311 1724.3379,2.9846 1734.619,3.062 1744.9961,3.155 1755.4703,3.3247 1766.0353,3.5365 1776.6881,3.786 1787.4219,4.1262 1798.2292,4.5232 1809.1027,5.047 1820.0402,5.6383 1831.0382,6.3126 1842.105,6.9951 1853.2428,7.6548 1864.4458,8.3481 1875.71,9.0312 1887.0304,9.7117 1898.3965,10.3961 1909.8086,11.1312 1921.2698,11.7435 1932.7827,12.4188 1944.3401,13.0914 1955.7948,13.756 1966.8328,14.3818 1977.36,15.0235 1987.4076,15.4931 1997.0522,15.9541 2006.3833,16.3494 2015.5231,16.7122 2024.2153,17.0198 2032.8925,17.3685 2041.26,17.6981 2049.1038,18.0303 2056.9043,18.3802 2064.3333,18.7363 2071.759,19.1233 2079.0632,19.5851 2086.2144,19.9941 2093.26,20.4601 2100.1428,20.9825 2107.1204,21.4132 2114.1877,21.889 2121.2876,22.3586 2128.5474,22.8247 2135.8889,23.3366 2143.3845,23.8003 2151.0569,24.217 2158.825,24.6762 2166.8369,25.128 2175.05,25.5862 2183.2651,25.9557 2191.8269,26.3586 2200.5,26.7296 2209.05,27.0692 2217.7598,27.2919 2226.4343,27.4856 2235.1521,27.5921 2243.991,27.6369 2252.6868,27.6746 2260.9758,27.7072 2268.7507,27.743 2276.0144,27.76 2282.8308,27.7877 2289.2322,27.8256 2295.2705,27.8519 2301.0825,27.8687 2306.6755,27.8792 2312.0923,27.8933 2317.3943,27.9105 2322.613,27.9087 2327.7217,27.8714 2332.6772,27.8304 2337.4573,27.7633 2342.0801,27.6768 2346.6238,27.5824 2351.1399,27.4805 2355.6057,27.3842 2359.7688,27.2864 2364.2664,27.1903 2368.7764,27.0934 2373.2563,26.9823 2377.7241,26.8861 2382.2395,26.7746 2386.7642,26.6292 2391.2153,26.452 2395.6536,26.2324 2400.1836,25.9585 2404.9553,25.6702 2409.8145,25.3987 2414.7852,25.0828 2419.7937,24.7999 2424.7893,24.4669 2430.3066,24.0873 2435.5022,23.7634 2440.6492,23.3899 2445.6902,22.9875 2450.5813,22.624 2455.3376,22.2984 2459.8247,21.9347 2464.4756,21.5664 2469.1067,21.2106 2473.8313,20.8551 2478.7183,20.51 2483.7485,20.1997 2488.8967,19.9315 2494.1606,19.7015 2499.5413,19.5642 2505.0193,19.472 2510.4197,19.4423 2515.9543,19.468 2521.4519,19.5469 2526.7866,19.6637 2531.9307,19.8013 2536.9292,19.9494 2541.885,20.0997 2546.9465,20.2496 2552.1646,20.435 2557.5627,20.5798 2563.1252,20.7607 2568.8826,20.9452 2574.9722,21.2007 2581.2239,21.4843 2587.6802,21.7832 2594.3369,22.0662 2601.2317,22.3714 2608.3379,22.7238 2615.8289,23.0081 2623.3857,23.3663 2631.218,23.6686 2638.9778,24.0501 2647.0007,24.3615 2655.2036,24.7305 2663.4026,25.117 2671.9304,25.4872 2680.3347,25.902 2688.146,26.3522 2695.5054,26.6887 2702.3413,27.0484 2708.6887,27.3703 2714.5713,27.6557 2719.9976,27.9102 2725.0261,28.1223 2729.7324,28.268 2734.197,28.3658 2738.5042,28.4238 2742.7502,28.458 2746.9873,28.4832 2751.2107,28.4953 2755.4272,28.4968 2759.2019,28.4799 2763.3989,28.4598 2767.6516,28.4504 2772.0933,28.4479 2776.7256,28.4686 2781.4768,28.49 2786.2734,28.5147 2791.0303,28.5445 2795.6765,28.5886 2800.28,28.6176 2804.9487,28.609 2809.793,28.5232 2814.7939,28.3452 2820.0271,28.1393 2825.4758,27.9231 2831.2346,27.6634 2837.2617,27.3849 2843.5388,27.1329 2850.0334,26.8599 2856.7522,26.6523 2863.6509,26.4167 2870.7161,26.2229 2877.9465,25.9884 2885.3411,25.7014 2892.8818,25.3556 2900.5623,24.9496 2908.3171,24.4631 2916.1033,24.0313 2923.821,23.5194 2931.5562,22.9092 2939.197,22.375 2946.9187,21.7474 2954.5078,21.0768 2962.3782,20.3558 2970.4565,19.4934 2978.5571,18.7422 2987.0491,17.913 2995.7129,17.1098 3004.3313,16.3023 3013.2827,15.4817 3022.3535,14.6566 3031.4927,13.7346 3040.6755,12.9989 3049.8701,12.2752 3059.2097,11.6592 3068.6404,11.1578 3078.147,10.7407 3087.7393,10.3837 3097.457,10.0991 3107.3169,9.8976 3117.2886,9.7938 3127.3752,9.8257 3137.574,9.9814 3147.8486,10.1682 3157.8821,10.4211 3167.4202,10.7158 3176.3855,11.0048 3184.7507,11.2799 3192.5515,11.5611 3199.8455,11.7699 3206.7004,11.9817 3213.1685,12.1846 3219.3198,12.3216 3225.2915,12.4391 3231.1572,12.5222 3237.0425,12.5876 3243.0337,12.6284 3249.1641,12.6741 3256.2427,12.7153 3262.301,12.7488 3268.0955,12.8295 3273.6189,12.9489 3278.9197,13.0938 3284.1597,13.2644 3289.3943,13.4671 3294.6738,13.7198 3300.0415,13.9777 3305.4651,14.263 3311.1719,14.5588 3317.1008,14.941 3323.2385,15.3665 3329.5642,15.8268 3336.0408,16.2836 3342.7344,16.7603 3349.5911,17.2606 3356.5784,17.759 3363.7039,18.3184 3370.9456,18.7759 3378.385,19.3469 3386.0435,19.9064 3393.8433,20.4618 3401.8933,21.136 3410.0713,21.8694 3418.2598,22.6476 3426.6763,23.5438 3435.2058,24.3787 3443.7263,25.1339 3452.363,25.9804 3461.0852,26.8302 3469.8784,27.703 3478.8115,28.5955 3487.8997,29.4715 3497.1218,30.4218 3506.4695,31.1694 3515.9333,31.9638 3525.469,32.7129 3534.9839,33.418 3544.6648,34.0985 3554.4424,34.8052 3564.2712,35.3701 3574.1934,36.0154 3584.2258,36.5229 3594.3679,37.0845 3604.6121,37.7308 3614.9463,38.2375 3625.4402,38.7795 3635.8845,39.2918 3646.3884,39.7843 3656.9272,40.2811 3667.4922,40.7896 3678.083,41.1833 3688.6995,41.575 3699.3396,41.9199 3710.0073,42.2007 3720.6592,42.4162 3731.3691,42.5135 3742.1284,42.5572 3753.019,42.5535 3764.0234,42.4865 3775.1133,42.3943 3786.3147,42.2573 3797.594,42.089 3808.9543,41.9265 3820.3872,41.7683 3831.9226,41.5936 3843.5476,41.401 3855.2527,41.2311 3867.0369,41.0098 3878.8955,40.8171 3890.8274,40.6102 3902.8052,40.4215 3914.8499,40.279 3926.9663,40.1435 3939.1567,40.0472 3951.4329,39.9923 3963.7744,39.9363 3976.1995,39.8517 3988.666,39.6956 4001.2166,39.5344 4013.8176,39.3158 4026.5068,39.0835 4039.2292,38.9292 4052.0461,38.7571 4064.8728,38.6138 4077.7656,38.4559 4090.7009,38.2385 4103.6602,38.038 4116.6665,37.8688 4129.7051,37.7186 4142.7881,37.6241 4155.9126,37.5997 4169.0801,37.6168 4182.2861,37.6542 4195.5337,37.743 4208.8203,37.8695 4222.145,38.06 4235.5054,38.3029 4248.8955,38.6007 4262.3203,38.943"/>
</svg>
