<?xml version="1.0" encoding="utf-8"?>
<!-- Track map generated with TinyPedal -->
<svg viewBox="-1161.0035 -157.1524 1851.7836 1046.7831" version="1.1" xmlns="http://www.w3.org/2000/svg">
	<title>Autodromo Enzo e Dino Ferrari</title>
	<!-- Sector coordinates index -->
	<desc>159,358</desc>
	<!-- Raw global coordinates -->
	<polyline id="map" fill="none" stroke="black" stroke-width="10" points="1.286,-9.0195 -21.6315,-10.7 -34.4056,-11.8326 -47.2133,-13.0827 -60.0526,-14.452 -72.9219,-15.9451 -85.8176,-17.5734 -98.7409,-19.3209 -112.989,-21.3577 -124.6743,-23.1018 -137.6868,-25.1098 -152.0433,-27.3631 -165.1392,-29.4149 -176.9602,-31.2655 -190.1339,-33.3281 -203.3521,-35.3692 -217.9509,-37.5316 -229.9463,-39.1921 -244.6728,-41.0522 -256.7747,-42.4083 -270.2751,-43.7525 -283.8285,-44.9071 -298.7965,-45.9525 -312.453,-46.6882 -324.7812,-47.2047 -338.5185,-47.6041 -352.2915,-47.7141 -366.0961,-47.5149 -379.9179,-46.9419 -393.7506,-46.0061 -407.5939,-44.7917 -421.4592,-43.4381 -436.7474,-41.916 -449.2794,-40.6159 -463.2258,-39.0808 -477.1903,-37.4426 -491.1741,-35.7093 -505.175,-33.8763 -519.1612,-31.9241 -532.8211,-29.8802 -545.8076,-27.7977 -558.0549,-25.7375 -569.5993,-23.7524 -580.4857,-21.7591 -590.7545,-19.7158 -600.4492,-17.6732 -609.5851,-15.6529 -618.1392,-13.628 -626.0775,-11.5419 -633.4286,-9.3805 -640.2665,-7.1873 -646.6593,-4.9872 -652.6328,-2.742 -658.2101,-0.3511 -663.8983,2.5949 -668.2234,5.3275 -672.676,8.7465 -676.7878,12.6216 -680.5768,16.9484 -684.3508,22.1649 -687.0253,26.7909 -689.5634,32.2569 -691.8521,38.6061 -693.6039,44.0065 -696.1618,50.6868 -698.6841,56.1385 -701.974,62.1108 -705.7543,67.9604 -710.0184,73.6495 -715.2693,79.6935 -719.9951,84.4278 -725.6261,89.438 -731.6752,94.1685 -738.7836,99.0372 -744.9256,102.7599 -752.098,106.5623 -759.6,110.0457 -767.3253,113.4329 -775.8593,117.4983 -782.7614,121.2419 -791.0357,126.3562 -798.3149,131.5647 -804.6414,136.6899 -812.028,143.4798 -817.7496,149.4633 -823.741,156.5549 -829.3147,164.0913 -834.9553,172.848 -839.1467,180.3612 -843.3763,189.033 -847.1789,198.0069 -850.5687,207.254 -853.6194,216.7383 -856.521,226.3969 -859.8326,237.1279 -862.6794,245.9723 -866.2915,256.8661 -869.3614,265.8411 -872.8943,275.8735 -876.5393,285.9701 -880.6627,297.1508 -884.0923,306.3652 -887.9299,316.6826 -891.7863,327.0734 -895.6566,337.5298 -899.5387,348.0724 -903.4351,358.7 -907.3725,369.4025 -911.3564,380.1767 -915.366,391.0301 -919.796,403.0623 -923.8414,414.0851 -927.4988,424.0714 -931.5841,435.2394 -936.1006,447.6096 -939.7977,457.8011 -943.8754,469.2004 -947.8005,480.4383 -951.7342,492.2115 -954.5521,501.3503 -957.2613,511.0469 -959.5224,520.3105 -961.3069,529.2062 -962.5861,537.7656 -963.2877,546.0184 -963.3491,554.8687 -962.8553,562.0158 -961.7309,569.8851 -960.125,577.5539 -958.142,585.5339 -956.5836,591.7263 -955.071,598.316 -953.9131,604.6697 -953.2072,610.8891 -953.0037,617.0546 -953.3318,623.1479 -954.3386,629.7722 -955.5852,635.1441 -957.6288,641.6296 -959.8074,646.8281 -962.7444,652.4734 -966.1849,658.0031 -970.1154,663.4063 -974.5123,668.6217 -979.3636,673.628 -984.6353,678.4724 -990.2077,683.2725 -995.9612,688.1442 -1001.862,693.0569 -1007.9249,698.0258 -1014.1435,703.0573 -1020.5115,708.1594 -1027.017,713.3464 -1033.6445,718.6345 -1040.3853,724.032 -1047.2322,729.5365 -1054.1881,735.1346 -1061.2443,740.8224 -1068.3574,746.6234 -1075.505,752.5349 -1082.7001,758.5343 -1090.3356,764.9749 -1096.14,769.9451 -1102.6766,775.6523 -1107.6053,780.0463 -1112.6454,784.6752 -1117.2443,789.098 -1121.4631,793.403 -1125.7178,798.0719 -1128.9149,801.88 -1132.1637,806.1577 -1135.0125,810.5128 -1137.3467,814.9273 -1139.1204,819.3656 -1140.323,823.8065 -1140.9537,828.2392 -1141.0035,832.6201 -1140.4854,836.8776 -1139.4309,840.9556 -1137.8618,844.8552 -1135.8176,848.5737 -1133.3048,852.1404 -1130.3241,855.531 -1126.896,858.6841 -1123.0488,861.5192 -1118.8236,863.9759 -1114.2657,866.0059 -1109.4211,867.5986 -1104.3223,868.7153 -1098.4663,869.4242 -1093.4956,869.6307 -1087.1689,869.4813 -1081.8119,869.0504 -1075.7573,868.2867 -1069.6738,867.3147 -1063.481,866.1557 -1057.1104,864.8672 -1050.5552,863.486 -1043.8098,862.0374 -1036.8743,860.54 -1029.7531,859.0084 -1021.7183,857.2957 -1014.9965,855.8807 -1007.4092,854.3016 -999.674,852.7131 -991.7878,851.1177 -982.9362,849.3571 -975.5546,847.9119 -967.2071,846.3032 -958.7085,844.6922 -950.0638,843.0855 -941.2793,841.4848 -931.4602,839.7341 -923.3103,838.3133 -914.138,836.7487 -904.8657,835.2015 -895.4906,833.6673 -885.0475,831.9855 -876.4043,830.6161 -865.7228,828.9637 -856.8906,827.6346 -845.9821,826.0515 -836.9645,824.8028 -826.848,823.4771 -816.6297,822.2385 -805.2704,821.0327 -795.8856,820.2373 -785.369,819.5751 -773.6978,819.0816 -764.0751,818.8698 -753.3123,818.8475 -742.481,819.0434 -730.5038,819.519 -720.669,820.1217 -708.5837,821.1169 -698.6481,822.1642 -687.5634,823.5892 -676.4307,825.2649 -665.2367,827.0972 -652.8517,829.1531 -641.8303,830.9365 -632.3715,832.4236 -621.4509,834.0743 -612.9912,835.2888 -604.0223,836.4885 -595.4515,837.4926 -587.238,838.2089 -579.3351,838.5005 -571.6633,838.2885 -564.1404,837.5193 -556.7883,836.1796 -549.6804,834.2203 -542.8815,831.6462 -536.4435,828.5016 -529.7271,824.3942 -524.4714,820.5568 -518.9182,815.7968 -513.6747,810.5159 -508.7523,804.7401 -503.7448,797.8477 -499.9853,791.8176 -495.8202,783.9999 -492.366,776.5295 -489.4453,769.5593 -486.3646,761.5709 -483.5022,753.3281 -480.9425,744.8229 -478.7088,736.0737 -476.8029,727.1059 -475.2601,717.9608 -474.0931,708.6348 -473.2162,698.1786 -472.8036,689.4806 -472.6649,679.6764 -472.8587,669.7358 -473.3945,659.6712 -474.2721,649.4944 -475.5182,639.2225 -477.3108,627.8311 -479.1159,618.4499 -481.462,607.9727 -484.1097,597.4576 -487.3373,585.8488 -490.2192,576.3142 -493.9142,564.5832 -496.9406,554.8824 -500.5406,542.8745 -503.347,533.0717 -506.1952,522.524 -508.6632,512.4073 -510.7334,502.6927 -512.3495,493.3394 -513.4595,484.3157 -514.0367,475.5872 -514.0558,467.1148 -513.4902,458.8398 -512.2984,450.6925 -510.408,442.5817 -507.9081,434.4736 -504.9419,426.3542 -501.5708,418.3771 -498.078,410.8982 -494.6255,403.9961 -491.2338,397.6241 -487.8774,391.7395 -484.5303,386.2739 -481.1408,381.183 -477.6402,376.5033 -473.9525,372.3337 -470.0955,368.6948 -465.6667,365.3324 -461.8725,363.1129 -457.4688,361.2096 -452.7937,359.867 -447.8775,359.0061 -442.7753,358.5847 -437.0045,358.64 -432.2063,359.1393 -426.827,360.1717 -421.3524,361.5808 -415.7303,363.1626 -409.9424,364.8275 -403.9815,366.5157 -397.8271,368.1498 -391.4751,369.6945 -384.9247,371.1437 -378.1538,372.3745 -371.1655,373.3863 -363.9782,374.1499 -356.6071,374.692 -349.0699,374.9734 -340.6288,375.0138 -333.6037,374.8688 -324.862,374.541 -317.5828,374.1741 -309.3586,373.6798 -300.1432,373.075 -292.4693,372.5588 -283.8023,371.9892 -274.9914,371.4348 -266.0425,370.8902 -256.0471,370.2899 -247.759,369.7682 -238.4443,369.1373 -229.0457,368.4553 -219.5356,367.7154 -208.9479,366.8359 -200.1828,366.0928 -189.3446,365.1897 -180.3761,364.4628 -170.3043,363.6718 -160.1206,362.9223 -149.8278,362.2527 -139.4303,361.6597 -128.9346,361.0866 -117.2799,360.4552 -107.6586,359.9697 -96.8846,359.4937 -86.1125,359.0797 -75.6286,358.6945 -65.597,358.319 -56.0617,357.9448 -47.0108,357.5818 -37.5286,357.2068 -30.082,356.9253 -22.1315,356.6435 -14.6053,356.4064 -7.5512,356.2374 -0.9589,356.1428 5.1509,356.1306 10.802,356.227 16.0179,356.4607 20.8106,356.8869 25.2303,357.5626 29.3384,358.5625 33.2054,359.9391 37.1909,361.8856 40.5717,364.0472 43.8217,366.5595 47.0438,369.3635 49.97,372.0288 53.2124,374.8673 56.5507,377.3943 60.0731,379.5134 63.8131,381.2227 67.8354,382.6208 72.5699,383.7476 76.658,384.3309 81.384,384.5869 86.2703,384.388 91.2791,383.7269 96.3726,382.6762 102.0136,381.1606 106.5966,379.6787 111.5804,377.8713 116.3983,375.8525 121.0477,373.5926 125.9965,370.9192 129.9917,368.6938 134.5713,366.2025 139.3713,363.6628 144.337,361.0667 149.4662,358.4164 154.8082,355.6431 160.3077,352.7617 165.9388,349.8094 171.7671,346.7614 177.7872,343.6027 183.9994,340.3366 191.0448,336.6206 196.9642,333.4882 203.6902,329.9081 210.5449,326.2203 217.5067,322.4174 224.592,318.483 231.79,314.3983 239.0879,310.1434 246.4771,305.7098 253.948,301.0968 262.2468,295.815 269.0843,291.3232 276.705,286.1275 284.32,280.6924 291.8734,275.001 300.1305,268.4326 306.8712,262.8497 314.37,256.4613 321.9016,249.9084 329.499,243.2318 337.1786,236.4535 344.9292,229.5698 352.7346,222.5702 360.5859,215.4534 368.4497,208.1915 376.2819,200.7467 384.0599,193.1043 391.7958,185.2847 399.5162,177.3191 407.2455,169.2379 415.7382,160.2582 422.6541,152.8842 430.3245,144.679 437.9931,136.4811 446.4542,127.4809 453.4298,120.1285 461.3113,111.9531 470.1696,103.0122 477.5953,95.8275 486.8617,87.3503 494.5457,80.7936 503.9496,73.2316 511.598,67.3615 520.1218,61.3089 528.6821,55.8142 537.2052,50.7939 545.5927,46.0926 553.7621,41.6072 561.6934,37.3932 569.3875,33.496 576.9046,29.8096 584.2896,26.2717 591.4926,22.9083 598.4782,19.7126 605.2227,16.6724 611.7032,13.788 618.4182,10.8166 623.5356,8.5468 628.8665,6.1741 633.8761,3.9272 638.6252,1.7546 643.126,-0.4022 647.7756,-2.8528 651.3325,-4.9963 655.0349,-7.6119 658.444,-10.535 661.4893,-13.7838 664.3596,-17.6936 666.3156,-21.1326 668.2188,-25.6136 669.403,-29.5112 670.3154,-34.1049 670.7801,-38.9599 670.764,-44.0187 670.2631,-49.2302 669.2772,-54.5519 667.8248,-59.9761 665.9547,-65.5023 663.7424,-71.141 661.3083,-76.9297 658.3926,-83.4709 655.8226,-88.9556 652.7876,-95.1546 649.6566,-101.1255 646.3812,-106.6681 642.9187,-111.7766 639.235,-116.4867 635.2552,-120.7876 630.9623,-124.6522 626.3699,-128.0219 621.0335,-131.1114 616.4989,-133.1432 611.2742,-134.88 605.2938,-136.2099 599.6397,-136.9185 594.4695,-137.1524 588.2254,-136.8768 583.1321,-136.1908 576.8726,-134.7948 571.7621,-133.178 565.5007,-130.7057 560.2424,-128.4936 553.5991,-125.6862 547.9919,-123.2902 541.581,-120.5236 534.3197,-117.3503 528.2242,-114.6589 520.5895,-111.279 513.484,-108.1384 507.0438,-105.2951 499.8918,-102.1305 492.7439,-98.9606 484.8422,-95.4993 477.5077,-92.3209 470.7806,-89.3944 463.1703,-86.0617 455.4391,-82.5983 447.5944,-78.9956 439.6248,-75.2935 431.528,-71.5148 423.2991,-67.686 414.9326,-63.8342 406.4447,-59.9906 396.9492,-55.7948 388.1547,-52.0283 380.1016,-48.6948 371.0013,-45.0546 360.807,-41.1335 352.3227,-37.9987 342.7444,-34.6025 333.0001,-31.3359 323.089,-28.2271 311.9982,-25.0133 302.7743,-22.5904 292.3669,-20.1688 281.8047,-18.0358 270.0164,-16.0715 260.2523,-14.7438 249.2964,-13.4787 238.2426,-12.3519 227.0995,-11.3255 215.9044,-10.4136 204.6928,-9.6162 193.4744,-8.9115 182.2511,-8.2831 169.8263,-7.6833 158.44,-7.2233 148.1196,-6.884 136.5719,-6.585 124.9414,-6.3604 112.0537,-6.172 101.4371,-6.0519 89.566,-5.9497 77.618,-5.8683 64.3898,-5.7892 53.5015,-5.7276 40.1171,-5.689 29.1062,-5.7391 16.8124,-5.9489 3.2266,-6.4267"/>
	<!-- Raw distance reference points -->
	<polyline id="dist" fill="none" stroke="none" stroke-width="0" points="4896.3872,0.7785 21.3622,0.8249 34.3282,0.8794 47.4522,0.9437 60.5218,1.0461 73.4398,1.1193 86.4335,1.1997 99.4628,1.2804 112.5285,1.4027 125.6435,1.4996 138.8076,1.5908 152.0097,1.7 165.2562,1.7629 178.5441,1.8279 191.8791,1.9019 205.2542,1.9697 218.6582,2.0724 232.1645,2.1656 245.717,2.2341 259.293,2.3108 272.9222,2.3913 286.6224,2.4936 300.3203,2.5709 314.081,2.6943 327.8767,2.8125 341.7263,2.8641 355.4957,2.9352 369.3023,2.9598 383.1595,3.0083 397.035,3.0501 410.9286,3.0704 424.8566,3.0841 438.8157,3.0786 452.8079,3.1039 466.8402,3.1054 480.9,3.124 494.9826,3.1537 509.0934,3.1575 523.2103,3.1516 537.0157,3.1522 550.1611,3.1575 562.5633,3.1453 574.2479,3.1596 585.2704,3.171 595.7112,3.1921 605.5995,3.2014 614.9359,3.2086 623.7035,3.2064 631.8885,3.2025 639.5404,3.2008 646.7097,3.1956 653.4597,3.1899 659.8151,3.1816 665.8275,3.1677 671.5733,3.149 677.2719,3.1202 683.1296,3.0822 689.2062,3.0612 695.4197,3.0624 702.1095,3.0496 708.2065,3.074 714.1754,3.0984 720.2292,3.1134 726.5402,3.1077 733.058,3.093 739.8093,3.0672 747.2132,3.0509 754.6395,3.0388 762.5259,3.0358 769.9631,3.0575 777.4064,3.1093 784.7664,3.156 792.3481,3.2198 800.1301,3.2952 808.0766,3.3251 816.1762,3.3779 824.4159,3.4358 832.8291,3.4889 841.4181,3.5512 850.1401,3.6063 858.9793,3.6331 868.0348,3.6694 877.7424,3.6972 887.5073,3.7206 897.0212,3.7518 906.319,3.8032 915.5891,3.877 924.8483,3.9492 934.3175,4.0179 943.8853,4.0633 953.5643,4.0686 963.4064,4.0663 973.3515,4.0753 983.4125,4.1103 993.5978,4.1173 1003.9135,4.139 1014.3421,4.1758 1024.8743,4.2078 1035.5071,4.2404 1046.2385,4.2742 1057.0648,4.3125 1067.9821,4.3309 1078.9871,4.3438 1090.0693,4.3787 1101.2134,4.4106 1112.4478,4.4308 1123.7782,4.446 1135.2002,4.463 1146.6952,4.4914 1158.2716,4.5091 1169.9283,4.5436 1181.6621,4.5576 1193.4622,4.5873 1205.3307,4.6245 1217.2798,4.6621 1229.344,4.6975 1241.4716,4.7337 1253.3724,4.7631 1264.6857,4.7873 1275.3301,4.8242 1285.3663,4.8508 1294.8362,4.8894 1303.8424,4.9293 1312.5502,4.9536 1320.9884,5.0014 1329.7321,5.0774 1338.0371,5.126 1346.0625,5.1893 1353.9965,5.2434 1361.5212,5.2914 1368.619,5.3388 1375.3596,5.389 1381.7869,5.4255 1387.9789,5.454 1394.0588,5.4837 1400.205,5.5177 1407.5372,5.5981 1414.3759,5.6448 1421.8485,5.677 1428.3851,5.735 1434.7025,5.8153 1441.074,5.8927 1447.5887,5.9666 1454.3651,6.0286 1461.3314,6.0852 1468.4904,6.1332 1475.8297,6.1943 1483.3459,6.2687 1491.0209,6.3457 1498.8495,6.431 1506.8419,6.5302 1514.9933,6.6374 1523.3048,6.7589 1531.7732,6.9036 1540.3988,7.0252 1549.1774,7.1833 1558.1011,7.3289 1567.1615,7.5262 1576.3369,7.7488 1585.6084,8.0002 1594.9703,8.2653 1604.0719,8.5899 1612.5923,8.843 1620.5088,9.1494 1627.868,9.3763 1634.7137,9.6223 1641.0916,9.8445 1647.0992,10.0414 1652.8076,10.2528 1658.2749,10.4287 1663.5823,10.613 1668.745,10.784 1673.7181,10.9579 1678.4923,11.1365 1683.1113,11.3119 1687.6589,11.4776 1692.2024,11.6451 1696.7721,11.8176 1700.9615,11.9935 1705.5494,12.1767 1710.2191,12.3602 1715.0549,12.5602 1720.0509,12.7836 1725.1497,13.0171 1730.295,13.2612 1735.4507,13.5132 1740.601,13.7752 1745.7408,14.0327 1750.8375,14.3112 1755.9248,14.616 1761.28,14.8596 1766.9854,15.1496 1772.9385,15.3767 1779.0197,15.6432 1785.1515,15.9004 1791.4154,16.1576 1797.9009,16.4142 1804.5986,16.6886 1811.5137,16.9816 1818.6151,17.2981 1825.905,17.6017 1833.3624,17.94 1840.9838,18.2335 1848.7358,18.5614 1856.6343,18.8883 1864.682,19.2244 1872.8789,19.5838 1881.2306,19.8497 1889.735,20.1455 1898.3871,20.4348 1907.1813,20.7279 1916.1141,21.0303 1925.1785,21.3245 1934.3705,21.5647 1943.6807,21.8453 1953.0856,22.1435 1962.5901,22.4465 1972.2068,22.8224 1981.9343,23.1912 1991.7694,23.7335 2001.707,24.2621 2011.7461,24.9642 2021.8857,25.57 2032.1151,26.2583 2042.4445,26.9427 2052.8657,27.677 2063.3728,28.2869 2073.9709,28.9942 2084.6602,29.7383 2095.4207,30.3291 2106.3125,30.9753 2117.2559,31.6105 2128.2913,32.2777 2139.3525,32.7513 2150.4565,33.1575 2161.5732,33.37 2172.7615,33.4744 2184.0444,33.48 2195.4048,33.4204 2206.8372,33.3487 2218.0337,33.2777 2228.7065,33.1998 2238.7754,33.1177 2248.2893,33.056 2257.3235,32.9938 2265.9419,32.9414 2274.167,32.8887 2282.0295,32.8604 2289.6028,32.8306 2297.1104,32.7942 2304.696,32.7363 2312.7483,32.7002 2320.4663,32.6831 2328.6301,32.6615 2336.1592,32.6102 2343.9883,32.5166 2351.6731,32.375 2359.1313,32.2148 2366.614,32.0429 2374.229,31.845 2382.0168,31.664 2390.0151,31.4265 2398.1946,31.1593 2406.5598,30.9041 2415.1113,30.6123 2423.8105,30.2851 2432.6069,29.9803 2441.5457,29.6881 2450.675,29.3587 2459.9395,28.9835 2469.3882,28.5563 2479.0049,28.009 2488.7883,27.5128 2498.7178,26.9012 2508.8691,26.2149 2519.1716,25.4507 2529.5667,24.6097 2540.0298,23.7169 2550.5833,22.6741 2561.262,21.8288 2572.061,20.9432 2582.9429,20.1282 2593.939,19.255 2605.0391,18.5813 2616.2375,17.8145 2627.5144,17.2045 2638.9255,16.5555 2650.2783,16.0757 2661.2061,15.5404 2671.6001,15.0592 2681.5049,14.5861 2690.9802,14.1165 2700.0212,13.6539 2708.6597,13.1981 2717.1499,12.7499 2725.5977,12.3089 2734.5188,11.8888 2743.353,11.5798 2751.938,11.3697 2760.5278,11.1717 2769.1304,11.0252 2777.3362,10.9141 2785.0195,10.8336 2792.198,10.8032 2798.9644,10.8262 2805.3733,10.8603 2811.49,10.9254 2817.3164,11.0032 2822.7905,11.1288 2827.9348,11.2587 2832.9805,11.4034 2838.1511,11.5565 2843.4338,11.7696 2848.8193,12.082 2854.158,12.4466 2859.2605,12.8071 2864.2126,13.1837 2869.3682,13.5147 2874.8098,13.9305 2880.4648,14.3944 2886.3174,14.8941 2892.521,15.4249 2898.9082,16.0302 2905.5603,16.6894 2912.9155,17.3993 2919.9377,18.0012 2926.873,18.6083 2933.8542,19.1896 2941.0427,19.7848 2948.4128,20.3239 2955.9485,20.8502 2963.6138,21.3975 2971.4336,21.831 2979.3909,22.3215 2987.4897,22.7121 2995.7358,23.1217 3004.1287,23.5447 3012.667,23.8495 3021.3542,24.1576 3030.1812,24.4274 3039.1501,24.6729 3048.2522,24.9254 3057.4788,25.1459 3066.8174,25.4239 3076.2397,25.6763 3085.7761,25.9232 3095.4238,26.2283 3105.1863,26.4586 3115.0657,26.7541 3125.0571,27.0373 3135.1575,27.3391 3145.3672,27.6241 3155.6851,27.9276 3166.1057,28.2428 3176.6272,28.5568 3187.2329,28.8692 3197.9412,29.0717 3208.7217,29.2434 3219.489,29.4308 3229.9629,29.5344 3240.0129,29.5762 3249.5728,29.6427 3258.6294,29.7124 3267.2429,29.7856 3275.5327,29.839 3283.4973,29.9015 3291.0352,29.9585 3298.1001,30.0184 3304.6917,30.0852 3310.7991,30.1458 3316.4441,30.2121 3321.6331,30.2651 3326.397,30.3207 3330.7983,30.3846 3334.8977,30.4618 3338.9202,30.5566 3343.3242,30.6583 3348.5056,30.7631 3353.8457,30.8632 3358.2625,30.9315 3362.2959,30.9439 3366.5044,30.9416 3370.417,30.9194 3375.3508,30.8902 3382.4429,30.875 3387.5979,30.8412 3392.0674,30.7902 3396.2021,30.7283 3400.501,30.6377 3405.0256,30.5433 3409.887,30.4517 3414.9907,30.3202 3420.2217,30.1513 3425.5127,30.0542 3430.793,29.9321 3436.0137,29.8035 3441.1748,29.6906 3446.2654,29.589 3451.3118,29.519 3456.5037,29.3967 3461.8997,29.2541 3467.4766,29.133 3473.2402,29.0135 3479.2505,28.9127 3485.4492,28.8103 3491.8115,28.6952 3498.3853,28.5873 3505.1736,28.5052 3512.1765,28.3945 3519.3882,28.2638 3526.7991,28.152 3534.4016,28.0147 3542.1628,27.895 3550.0754,27.7597 3558.1567,27.6194 3566.4258,27.4707 3574.8789,27.2952 3583.5181,27.1272 3592.322,26.9753 3601.2695,26.7983 3610.3647,26.6321 3619.5952,26.4548 3628.9622,26.2499 3638.4373,26.0155 3648.0403,25.7459 3657.7664,25.538 3667.6133,25.2996 3677.614,25.0451 3687.7939,24.768 3698.1245,24.5308 3708.5486,24.2969 3719.071,24.0987 3729.677,23.9078 3740.3657,23.7185 3751.1663,23.5077 3762.0725,23.2799 3773.0698,23.0304 3784.1614,22.7622 3795.3486,22.4135 3806.5996,21.9686 3817.8401,21.618 3829.0735,21.1965 3840.3064,20.6929 3851.5481,20.086 3862.8188,19.5662 3874.1946,18.9661 3885.6565,18.2565 3897.1772,17.642 3908.6833,16.8051 3920.0132,16.0922 3931.083,15.2291 3942.0051,14.5301 3952.6536,13.8014 3963.0078,13.0994 3973.0417,12.3861 3982.7769,11.699 3992.1394,11.0691 4001.1382,10.4553 4009.7808,9.8633 4018.1709,9.273 4026.3792,8.7082 4034.3469,8.1689 4042.0474,7.6285 4049.4624,7.1048 4056.5659,6.6144 4063.2744,6.105 4069.5261,5.7185 4075.3691,5.3322 4080.8669,4.9791 4086.0957,4.6527 4091.092,4.3568 4095.8838,4.055 4100.4976,3.8134 4104.9766,3.5417 4109.3384,3.2688 4113.6924,3.0157 4118.3516,2.7531 4123.396,2.5383 4128.5713,2.271 4133.8521,2.0463 4139.2222,1.8229 4144.6021,1.6349 4149.9038,1.4891 4155.0747,1.3639 4160.3721,1.2478 4165.9204,1.1317 4171.6929,0.999 4177.728,0.8813 4183.9839,0.7768 4190.4673,0.6651 4197.1743,0.6024 4204.0669,0.5392 4210.7964,0.4571 4217.2026,0.3981 4223.3071,0.3583 4229.165,0.2954 4234.874,0.2313 4240.6895,0.1609 4247.126,0.1031 4253.124,0.0513 4259.0151,0.0099 4264.8765,-0.025 4270.8066,-0.0655 4277.002,-0.0786 4282.7471,-0.0835 4288.2549,-0.0983 4293.7622,-0.1294 4299.5073,-0.2026 4305.4541,-0.2694 4311.5229,-0.3433 4317.8271,-0.3891 4324.3618,-0.4663 4331.1206,-0.5137 4338.0977,-0.5626 4345.2896,-0.6044 4352.7036,-0.6656 4360.2915,-0.7456 4368.0288,-0.818 4375.835,-0.8346 4383.6343,-0.8075 4391.4458,-0.8258 4399.2808,-0.8429 4407.2598,-0.846 4415.4053,-0.844 4423.7231,-0.8329 4432.2026,-0.8107 4440.8369,-0.7931 4449.6221,-0.7645 4458.5488,-0.7251 4467.6172,-0.6906 4476.8218,-0.6812 4486.1367,-0.652 4495.5664,-0.615 4505.1216,-0.5941 4514.7988,-0.5654 4524.5991,-0.55 4534.5244,-0.5337 4544.5752,-0.5013 4554.7544,-0.4862 4565.0625,-0.4704 4575.4741,-0.4383 4585.9912,-0.3986 4596.6182,-0.3807 4607.3218,-0.3314 4618.1172,-0.3148 4628.9805,-0.286 4639.8867,-0.2529 4650.8662,-0.2294 4661.978,-0.1835 4673.1514,-0.1527 4684.3745,-0.1266 4695.6099,-0.0922 4706.8472,-0.0402 4718.0674,0.0054 4729.3657,0.0551 4740.7456,0.1001 4752.2119,0.1517 4763.7632,0.1909 4775.3926,0.2365 4787.1074,0.2909 4798.894,0.341 4810.7568,0.3844 4822.6865,0.4351 4834.7002,0.4995 4846.7979,0.5571 4858.9678,0.6052 4871.189,0.6646 4883.4658,0.7064 4895.7998,0.7801"/>
</svg>
