<?xml version="1.0" encoding="utf-8"?>
<!-- Track map generated with TinyPedal -->
<svg viewBox="-337.5606 -1248.7314 1298.9356 2207.2562" version="1.1" xmlns="http://www.w3.org/2000/svg">
	<title>Autodromo Nazionale Monza</title>
	<!-- Sector coordinates index -->
	<desc>189,391</desc>
	<!-- Raw global coordinates -->
	<polyline id="map" fill="none" stroke="black" stroke-width="10" points="-306.7827,460.0361 -305.3592,438.5991 -304.5712,427.1871 -303.5788,413.1803 -302.6539,400.3915 -301.8061,388.8371 -300.8458,375.9503 -299.8654,363.0135 -298.865,350.0274 -297.847,336.9934 -296.8143,323.9115 -295.7702,310.7827 -294.7096,297.6088 -293.6261,284.3901 -292.4131,269.7997 -291.4041,257.8231 -290.2624,244.4771 -289.0938,231.0905 -287.7781,216.32 -286.6879,204.1997 -285.4594,190.6975 -284.0477,175.8051 -282.8862,163.5858 -281.4571,148.6106 -280.2718,136.326 -278.813,121.2732 -277.6107,108.9265 -276.2923,95.1728 -274.9839,81.3841 -273.6693,67.5629 -272.3589,53.7232 -271.0511,39.8607 -269.7393,25.9731 -268.42,12.0616 -267.1067,-1.875 -265.8278,-15.8388 -264.5845,-29.8299 -263.3667,-43.8472 -262.1707,-57.8887 -260.9859,-71.9544 -259.794,-86.0419 -258.4821,-101.5618 -257.4195,-114.2806 -256.1346,-129.8486 -255.0872,-142.6059 -253.9213,-156.7999 -252.6307,-172.435 -251.566,-185.2436 -250.2523,-200.9179 -249.1466,-213.7563 -247.8844,-228.0357 -246.6118,-242.3326 -245.338,-256.6483 -244.0777,-270.9829 -242.831,-285.3354 -241.4539,-301.1276 -240.343,-313.7604 -239.1662,-327.0299 -238.0508,-339.4666 -236.9755,-351.1205 -236.0235,-361.9943 -235.0428,-373.1157 -234.311,-381.5882 -233.6362,-390.367 -233.086,-398.5519 -232.5854,-406.1372 -232.0731,-413.127 -231.5846,-419.5438 -231.0858,-425.4469 -230.4693,-431.364 -229.9267,-435.8019 -229.2305,-440.3538 -228.381,-444.5921 -227.212,-448.9991 -226.0018,-452.4538 -224.3243,-456.0954 -222.2658,-459.4578 -219.8361,-462.4727 -217.0608,-465.0602 -214.0077,-467.1912 -210.7501,-468.8578 -207.3063,-470.1008 -203.9644,-470.9302 -200.8568,-471.5608 -197.8931,-472.2222 -194.97,-473.0091 -191.9014,-474.1556 -189.5658,-475.3685 -187.2105,-477.0049 -185.1211,-478.9571 -183.2396,-481.2695 -181.4456,-484.2245 -180.238,-486.9229 -179.1288,-490.4921 -178.5539,-493.64 -178.3207,-497.3419 -178.4883,-501.2477 -179.0627,-505.3257 -180.0591,-509.5298 -181.4636,-513.847 -183.1639,-518.361 -184.9053,-523.1745 -186.6321,-528.2881 -188.3785,-533.6756 -190.145,-539.3287 -191.9216,-545.2335 -193.7005,-551.3698 -195.6361,-558.4024 -197.1906,-564.359 -199.0332,-571.8824 -200.4853,-578.2333 -202.0256,-585.4935 -203.4693,-592.9668 -204.7879,-600.6516 -206.0577,-609.3448 -206.9446,-616.6376 -207.76,-624.9186 -208.378,-633.3075 -208.7897,-641.8688 -209.0078,-650.5838 -209.0397,-659.446 -208.9091,-668.4504 -208.6039,-678.5146 -208.2522,-686.8705 -207.7031,-697.2289 -207.0804,-706.7794 -206.3433,-716.454 -205.5847,-725.2646 -204.6661,-735.1689 -203.7043,-745.1945 -202.669,-755.3218 -201.5407,-765.5497 -200.2872,-775.8694 -198.8525,-786.2692 -197.1936,-796.738 -195.257,-807.2585 -193.0103,-817.8149 -190.4339,-828.3917 -187.4918,-838.967 -184.1675,-849.5214 -180.4425,-860.0334 -175.8897,-871.5317 -171.3332,-881.9056 -166.8962,-891.1647 -161.5968,-901.3536 -155.8906,-911.4094 -149.7857,-921.3187 -143.29,-931.0661 -136.3848,-940.6156 -129.0411,-949.9157 -120.4417,-959.807 -112.1624,-968.4666 -104.3622,-975.9604 -95.3033,-983.9363 -85.8569,-991.5323 -76.055,-998.7526 -65.9161,-1005.5842 -55.4694,-1012.0367 -44.7371,-1018.11 -33.7388,-1023.801 -22.494,-1029.1133 -11.0279,-1034.0636 0.6416,-1038.6572 12.5009,-1042.891 25.7444,-1047.1472 36.7159,-1050.3436 49.0332,-1053.6215 61.4706,-1056.6301 75.2773,-1059.6512 87.9325,-1062.1527 99.4017,-1064.2034 112.2279,-1066.2626 125.1338,-1068.1057 138.1132,-1069.7562 152.4686,-1071.3596 164.2722,-1072.5048 177.4441,-1073.6262 190.6703,-1074.6301 205.2762,-1075.6636 217.2664,-1076.4972 230.6305,-1077.4255 244.0366,-1078.3595 257.4843,-1079.2865 270.9761,-1080.1628 285.8683,-1081.0405 298.0924,-1081.6775 311.7133,-1082.3525 325.373,-1083.0193 339.0726,-1083.6487 354.1858,-1084.2893 366.5718,-1084.8004 380.1122,-1085.3724 395.6129,-1086.0697 405.3461,-1086.5431 416.8234,-1087.16 428.6474,-1087.8328 437.7649,-1088.3539 447.3258,-1088.8994 456.2697,-1089.4216 465.3635,-1090.0134 472.2729,-1090.5486 479.3722,-1091.2032 485.8915,-1091.9385 491.8846,-1092.8096 497.3583,-1093.8978 502.3447,-1095.2783 506.8902,-1096.9545 511.0241,-1098.9557 514.7816,-1101.3092 518.4747,-1104.3146 521.1705,-1107.047 523.8073,-1110.3224 526.0422,-1113.8125 527.8587,-1117.4739 529.3514,-1121.2292 530.8098,-1124.9521 532.4906,-1128.5215 534.4501,-1131.8921 536.7662,-1135.0868 539.6152,-1138.0327 542.9145,-1140.7546 547.026,-1143.3878 550.7304,-1145.1797 555.1537,-1146.7632 559.8542,-1147.9625 564.8726,-1148.9362 570.1871,-1149.8931 576.333,-1151.0332 581.5922,-1152.0321 588.2865,-1153.3467 593.921,-1154.4965 600.3336,-1155.8652 606.9542,-1157.348 614.4523,-1159.1156 621.4532,-1160.8615 627.8998,-1162.546 635.2178,-1164.5513 642.6885,-1166.7164 651.075,-1169.2863 658.0641,-1171.5288 666.744,-1174.4486 674.7409,-1177.2688 682.0347,-1179.946 690.2442,-1183.0499 698.5617,-1186.2871 707.8383,-1189.9858 715.5384,-1193.0859 724.2401,-1196.5273 733.1146,-1199.9062 743.0735,-1203.5457 751.3596,-1206.4958 760.7094,-1209.7426 770.2017,-1212.9338 779.8279,-1216.0605 789.4526,-1219.0615 799.6024,-1222.0281 807.473,-1224.103 815.8178,-1226.006 823.8033,-1227.4448 831.4811,-1228.3666 838.8828,-1228.7314 846.0472,-1228.5148 853.0131,-1227.6711 859.801,-1226.2421 866.3755,-1224.2714 872.689,-1221.7708 878.7987,-1218.7205 885.3653,-1214.7175 890.5858,-1210.9557 896.6427,-1205.8551 901.1772,-1201.3469 905.7231,-1196.0062 909.7545,-1190.3466 913.697,-1183.6583 916.5748,-1177.837 919.3839,-1171.0348 921.7369,-1163.9012 923.6504,-1156.4774 925.2075,-1148.8154 926.3847,-1140.929 927.3548,-1132.0294 927.9134,-1124.5842 928.3521,-1116.151 928.6053,-1107.5568 928.7908,-1098.808 929.0125,-1089.911 929.3418,-1080.8708 929.7949,-1071.6925 930.3746,-1062.3799 931.0866,-1052.9377 932.0173,-1042.4086 932.8884,-1033.7078 934.0546,-1022.9459 935.0532,-1014.0407 936.2766,-1003.0316 937.3754,-992.9211 938.3294,-983.975 939.2969,-974.5779 940.1227,-965.8267 940.8227,-957.6899 941.3001,-950.0977 941.375,-942.2876 941.0738,-936.2496 940.3004,-929.8488 938.9952,-923.5949 937.0931,-917.3378 934.5925,-911.121 931.4811,-905.0145 927.7528,-899.0883 922.986,-892.8306 918.1009,-887.4038 913.293,-882.7488 906.9639,-877.324 901.4922,-873.0693 895.2215,-868.7231 888.8411,-864.6489 882.3771,-860.8454 875.8112,-857.3258 869.0925,-854.0065 861.5584,-850.5724 855.3184,-847.7442 848.2567,-844.4872 841.0367,-841.1788 833.6616,-837.8036 825.3925,-833.988 818.5103,-830.7749 810.7546,-827.0927 802.8936,-823.283 794.9331,-819.3414 786.0614,-814.8616 777.8881,-810.6715 770.4408,-806.8136 762.0672,-802.4323 752.7352,-797.5048 745.0081,-793.3906 736.326,-788.7363 727.5435,-783.9993 718.6609,-779.183 708.7928,-773.8033 700.6435,-769.3295 691.5201,-764.2761 682.3214,-759.1439 673.0552,-753.9232 663.7345,-748.5948 654.3652,-743.1529 644.9503,-737.5952 635.4926,-731.9222 625.0414,-725.5516 616.4693,-720.217 606.9542,-714.1157 597.4651,-707.813 588.0145,-701.2993 577.682,-693.8749 569.2743,-687.6077 559.9838,-680.4469 549.827,-672.335 541.5549,-665.533 532.3817,-657.8314 523.1914,-650.0231 513.9734,-642.1295 504.742,-634.1562 494.5604,-625.285 486.2072,-617.954 476.8907,-609.7453 467.5263,-601.4849 458.1137,-593.173 447.6967,-583.9826 439.1223,-576.43 429.5398,-568.0063 419.894,-559.5565 410.1896,-551.0773 400.444,-542.5511 390.6625,-533.973 380.8387,-525.3568 370.9487,-516.7302 360.9975,-508.093 349.9935,-498.5694 340.9505,-490.7573 330.867,-482.0519 320.7584,-473.312 310.6311,-464.5313 300.4859,-455.7119 290.3221,-446.8565 280.1332,-437.9739 269.9094,-429.0762 259.664,-420.1512 249.4078,-411.1878 238.1072,-401.2894 228.8443,-393.1641 217.4983,-383.2046 208.1933,-375.0367 196.7899,-365.0332 187.4315,-356.8435 177.1904,-347.8971 167.4675,-339.3989 158.3736,-331.4328 149.8732,-323.948 141.9409,-316.9284 134.5409,-310.3997 127.6197,-304.2629 121.221,-298.4712 114.7925,-292.5041 110.0286,-287.8583 105.2945,-282.8385 101.1332,-277.8896 97.5418,-272.9421 94.5041,-267.8848 91.9575,-262.5693 89.815,-256.882 88.1147,-250.8475 86.8902,-244.5052 86.0582,-237.225 85.7709,-231.0605 85.847,-223.3014 86.1647,-216.7783 86.5155,-209.3934 86.6267,-201.9316 86.3494,-194.4136 85.591,-186.8781 84.1904,-178.6208 82.6085,-171.9238 80.3157,-164.5755 77.4659,-157.3535 74.0735,-150.2804 69.7469,-142.667 65.751,-136.6112 60.836,-130.0832 55.4265,-123.8141 49.6095,-117.7416 43.7129,-111.547 38.0425,-104.966 32.6825,-97.9677 27.2259,-89.8995 23.2658,-83.0844 19.0668,-74.5121 16.1088,-67.2572 12.9908,-58.06 10.8449,-50.2913 8.9171,-41.4235 7.3926,-32.346 6.2011,-23.082 5.2548,-13.655 4.4109,-4.0838 3.6007,5.6256 2.7194,16.4587 1.9247,26.4427 1.1378,36.5532 0.4061,45.7483 -0.4323,56.065 -1.2871,66.4911 -2.1652,77.0215 -3.0685,87.6539 -3.9948,98.3873 -5.0317,110.3091 -5.8914,120.153 -6.97,132.2897 -7.8628,142.3069 -8.8559,153.5276 -9.8594,164.8413 -10.8818,176.246 -12.0149,188.894 -12.9535,199.3214 -14.0154,210.9877 -15.1012,222.7373 -16.3175,235.7561 -17.4335,247.6765 -18.4379,258.4732 -19.6741,271.7546 -20.7029,282.6738 -21.8655,294.8686 -23.0543,307.1273 -24.3764,320.6864 -25.4671,331.8371 -26.6833,344.2866 -27.9003,356.7987 -29.1182,369.3729 -30.3372,382.0071 -31.5615,394.7012 -32.7946,407.4529 -34.0235,420.263 -35.3634,434.4209 -36.4524,446.0555 -37.6513,459.0354 -38.8405,472.0703 -40.0314,485.1579 -41.2244,498.2972 -42.4196,511.4872 -43.6212,524.7263 -44.8204,538.0142 -46.013,551.3508 -47.2025,564.7341 -48.3954,578.1637 -49.5925,591.6379 -50.7986,605.1554 -52.1493,620.073 -53.2752,632.3147 -54.5392,645.9548 -55.815,659.6353 -57.1196,673.3524 -58.4541,687.0909 -59.8092,700.8564 -61.1626,714.6523 -62.4885,728.4803 -63.7994,742.3388 -65.0945,756.2261 -66.4905,771.3599 -67.5812,783.1682 -68.8632,796.6657 -69.8977,806.9605 -71.013,817.6688 -72.246,828.6406 -73.3505,837.0447 -74.7085,845.8428 -76.3631,854.9288 -77.8531,861.9282 -79.7212,869.2733 -81.9015,876.1791 -84.4684,882.7734 -87.5089,889.2136 -91.0156,895.5138 -95.0339,901.6142 -100.0347,908.007 -104.5211,912.8871 -110.4027,918.3209 -115.531,922.2603 -121.5437,926.1049 -127.9539,929.4899 -134.7526,932.3644 -141.8931,934.7203 -149.3277,936.5493 -157.0157,937.8094 -164.8469,938.479 -172.6462,938.5248 -180.3867,937.9167 -188.151,936.6935 -195.9201,934.8553 -203.6473,932.4033 -211.2973,929.3548 -218.8448,925.7384 -226.2692,921.5914 -234.2517,916.4356 -240.5879,911.7383 -248.0713,905.4419 -253.9633,899.8609 -260.8462,892.5318 -266.1989,886.1383 -271.8233,878.6302 -277.1089,870.7321 -282.5274,861.6297 -287.073,853.0005 -291.2362,844.0526 -294.6569,835.7493 -298.0966,826.2683 -301.1854,816.5488 -303.9212,806.6334 -306.3178,796.5212 -308.3937,786.2385 -310.1688,775.8009 -311.6658,765.2228 -312.9434,754.5182 -314.1531,742.6101 -315.0017,732.7679 -315.7836,721.731 -316.4203,710.5921 -316.9188,699.3557 -317.2788,688.0255 -317.5027,676.6053 -317.5606,665.0991 -317.4605,653.5099 -317.2392,641.8407 -316.9138,630.0935 -316.4778,618.2707 -315.9404,606.3742 -315.3111,594.4056 -314.6043,582.38 -313.7457,569.0838 -312.9914,558.1509 -312.1197,545.946 -311.218,533.6812 -310.197,520.1214 -309.3398,508.9741 -308.3694,496.5334 -307.2863,482.782 -306.3931,471.4791"/>
	<!-- Raw distance reference points -->
	<polyline id="dist" fill="none" stroke="none" stroke-width="0" points="5775.5933,-2.0341 20.1855,-1.9338 32.8853,-1.8818 45.6434,-1.8155 58.4562,-1.7548 71.3229,-1.7069 84.2412,-1.6468 97.2115,-1.5853 110.2334,-1.5249 123.3063,-1.4582 136.4301,-1.3958 149.6005,-1.3396 162.8162,-1.2706 176.0787,-1.2114 189.3844,-1.1364 202.7266,-1.0821 216.1181,-1.0067 229.555,-0.9245 243.0361,-0.8428 256.5528,-0.7883 270.1079,-0.7143 283.7007,-0.6304 297.3421,-0.5743 311.0269,-0.4869 324.7454,-0.4334 338.5001,-0.3395 352.2811,-0.2831 366.0893,-0.207 379.9352,-0.1349 393.8206,-0.065 407.7346,-0.0012 421.6667,0.0844 435.6135,0.1689 449.5846,0.2301 463.58,0.3023 477.6013,0.3762 491.6528,0.4447 505.7319,0.5021 519.8369,0.5751 533.9576,0.6498 548.0954,0.7217 562.2543,0.7968 576.438,0.8416 590.6473,0.9214 604.879,0.9825 619.1245,1.0434 633.3876,1.1411 647.6703,1.2054 661.9667,1.3121 676.2836,1.3839 690.6196,1.4712 704.9728,1.5613 719.3358,1.625 733.7208,1.6895 748.1293,1.7823 762.5403,1.868 776.6475,1.9432 789.9698,2.0154 802.4557,2.0919 814.1632,2.1414 825.0841,2.1839 835.2719,2.2534 844.7546,2.2926 853.5438,2.3422 861.7381,2.386 869.3382,2.4317 876.3459,2.4831 882.7782,2.5435 888.7014,2.5803 894.1329,2.6212 899.1217,2.6602 903.7189,2.6999 908.0109,2.7309 912.0706,2.7587 916.0226,2.7799 919.938,2.798 923.8973,2.808 928.072,2.8124 932.5308,2.8424 937.195,2.8892 941.623,2.9312 945.2111,2.9655 948.9052,2.9815 951.9449,2.9861 954.7477,2.989 957.9081,2.9996 961.9036,3.025 964.7903,3.0488 969.3105,3.0684 973.5897,3.0916 977.3,3.1242 980.1223,3.1601 983.0386,3.1827 985.947,3.1932 989.2377,3.1986 992.8129,3.2184 996.5197,3.2373 1000.623,3.2673 1004.7996,3.2858 1009.2965,3.3074 1014.1025,3.3199 1019.1981,3.3366 1024.5704,3.3713 1030.2119,3.4021 1036.114,3.4327 1042.2819,3.4698 1048.6831,3.5031 1055.3167,3.5293 1062.1709,3.5502 1069.2211,3.5981 1076.517,3.6373 1083.9788,3.6875 1091.6874,3.7291 1099.5533,3.7599 1107.7092,3.8015 1116.0105,3.842 1124.3773,3.8896 1132.899,3.9445 1141.5933,3.9985 1150.3571,4.0484 1159.2695,4.0972 1168.2723,4.137 1177.4193,4.1861 1186.7079,4.2328 1196.1294,4.2758 1205.684,4.3135 1215.3727,4.3501 1225.1924,4.3644 1235.14,4.3966 1245.2108,4.4125 1255.3898,4.4366 1265.6775,4.4544 1276.0693,4.4685 1286.5803,4.4806 1297.2234,4.4596 1307.9731,4.4618 1318.8514,4.4909 1329.8761,4.5102 1341.0167,4.5312 1352.1697,4.5358 1363.4059,4.5506 1374.7174,4.5668 1386.1115,4.5973 1397.5306,4.6258 1409.0254,4.6335 1420.595,4.6553 1432.2266,4.6863 1443.915,4.7126 1455.6476,4.7533 1467.3925,4.8011 1479.2179,4.8429 1491.0652,4.8757 1502.9807,4.9014 1514.9463,4.9369 1526.9302,4.981 1539.0038,5.0183 1551.1205,5.0647 1563.3145,5.1021 1575.5579,5.1263 1587.8434,5.1482 1600.2043,5.1878 1612.6165,5.2386 1625.1249,5.2863 1637.6884,5.3423 1650.3204,5.4102 1663.0117,5.4719 1675.7688,5.5642 1688.577,5.6684 1701.4385,5.7973 1714.3458,5.9225 1727.2996,6.0359 1740.2936,6.1675 1753.3225,6.3056 1766.3871,6.4264 1779.5146,6.5478 1792.6958,6.6489 1805.9169,6.7458 1819.1769,6.8409 1832.4817,6.9313 1845.8372,7.0136 1859.2306,7.0912 1872.665,7.1535 1886.1437,7.2372 1899.663,7.3234 1913.2207,7.4104 1926.8157,7.4935 1940.4459,7.5653 1954.1129,7.6272 1967.8251,7.6616 1981.5746,7.7245 1995.3669,7.732 2008.9352,7.7314 2021.9484,7.7274 2034.2256,7.7074 2045.7288,7.68 2056.5396,7.6556 2066.738,7.6306 2076.3171,7.6063 2085.2656,7.5868 2093.5496,7.5632 2101.2576,7.5272 2108.3716,7.5004 2114.9185,7.4714 2120.9446,7.4277 2126.4753,7.3955 2131.5945,7.3733 2136.5435,7.3367 2141.6377,7.3003 2146.6543,7.2715 2150.8389,7.2717 2154.8882,7.2646 2158.7583,7.2338 2162.7051,7.1845 2166.7651,7.1394 2170.7991,7.1163 2175.01,7.1071 2179.5872,7.0987 2184.5537,7.1006 2189.3494,7.0528 2193.5005,7.0786 2197.4072,7.0865 2201.5432,7.078 2205.9758,7.0739 2210.6372,7.0648 2215.4541,7.0364 2220.5315,7.0014 2225.9165,6.9914 2231.6267,6.9411 2237.6021,6.9136 2243.8242,6.8555 2250.2393,6.809 2256.9072,6.7568 2263.7151,6.7138 2270.7126,6.6609 2277.9487,6.6126 2285.3477,6.5857 2292.9282,6.5656 2300.699,6.5159 2308.6592,6.4569 2316.8037,6.3971 2325.1233,6.351 2333.5847,6.3002 2342.209,6.2608 2350.9822,6.2127 2359.9011,6.1639 2368.9624,6.1243 2378.1636,6.0979 2387.509,6.0576 2396.9961,6.0031 2406.6162,5.9514 2416.3721,5.9229 2426.2598,5.8754 2436.2651,5.8404 2446.3799,5.7997 2456.4587,5.7532 2466.0928,5.6786 2475.1523,5.6061 2483.668,5.5137 2491.6919,5.4154 2499.373,5.3217 2506.8794,5.2299 2514.1184,5.1377 2521.2261,5.0814 2528.209,5.0326 2535.116,4.9719 2541.9712,4.9037 2548.8372,4.8402 2555.8616,4.7823 2563.116,4.7512 2570.3748,4.7195 2577.52,4.704 2584.5088,4.6964 2591.3621,4.6826 2598.3044,4.678 2605.3789,4.6724 2612.4358,4.6658 2619.7393,4.6835 2627.0813,4.7091 2634.7759,4.7046 2642.627,4.6847 2650.7285,4.6156 2659.0593,4.5798 2667.5339,4.4966 2676.0959,4.4448 2684.8472,4.3843 2693.7483,4.3282 2702.7861,4.2857 2711.9751,4.2626 2721.3159,4.2404 2730.7852,4.2345 2740.3857,4.2111 2750.0889,4.2027 2759.9197,4.1975 2769.873,4.1917 2779.9363,4.1919 2790.1018,4.1781 2800.1167,4.1895 2809.5542,4.1901 2818.3408,4.1817 2826.5151,4.1927 2834.1106,4.1844 2841.1707,4.1683 2847.8237,4.1101 2854.1731,4.0103 2860.4709,3.8871 2867.2122,3.7777 2874.259,3.6999 2881.8911,3.6865 2888.9485,3.7504 2895.938,3.87 2902.8357,3.9835 2910.0122,4.0597 2917.3386,4.0908 2924.9238,4.0312 2932.4749,4.0354 2940.0212,3.9478 2947.531,3.8663 2954.9763,3.8239 2962.4497,3.7399 2969.9512,3.668 2977.5439,3.567 2985.3057,3.5425 2993.2117,3.5064 3001.2937,3.4492 3009.5461,3.4016 3017.9629,3.4019 3026.5273,3.394 3035.2485,3.3972 3044.1211,3.4098 3053.1489,3.424 3062.3237,3.4373 3071.6333,3.4288 3081.0791,3.4243 3090.6628,3.4183 3100.3813,3.4245 3110.2292,3.4291 3120.2051,3.4301 3130.3076,3.4248 3140.519,3.4221 3150.8425,3.4144 3161.2715,3.4293 3171.8042,3.4359 3182.4402,3.4243 3193.1755,3.4352 3204.0103,3.4422 3214.9419,3.4522 3225.9707,3.4758 3237.0945,3.5221 3248.3101,3.5699 3259.6138,3.622 3271.0032,3.6451 3282.479,3.6351 3294.0374,3.6361 3305.676,3.6162 3317.3948,3.5689 3329.1992,3.4755 3341.0818,3.3686 3353.0481,3.2276 3365.1047,3.0276 3377.2444,2.7715 3389.4448,2.4884 3401.7175,2.148 3414.0613,1.8665 3426.4824,1.5492 3438.9758,1.2281 3451.5391,0.9047 3464.1716,0.5677 3476.8716,0.2893 3489.6367,-0.0021 3502.4636,-0.2954 3515.3523,-0.5962 3528.3,-0.881 3541.3113,-1.1522 3554.3796,-1.3478 3567.5015,-1.4789 3580.6775,-1.5679 3593.9031,-1.6035 3607.1746,-1.6069 3620.4939,-1.5783 3633.8523,-1.4614 3647.2688,-1.3054 3660.7253,-1.0959 3674.2085,-0.8683 3687.7334,-0.6371 3701.2947,-0.4216 3714.8804,-0.1784 3728.4924,0.0928 3742.1501,0.3657 3755.8376,0.5745 3769.5596,0.7953 3783.3145,0.967 3797.1123,1.1527 3810.947,1.2801 3824.5542,1.418 3837.4692,1.5303 3849.5603,1.6173 3860.8796,1.6844 3871.4685,1.7242 3881.3198,1.7938 3890.5635,1.8201 3899.189,1.8374 3907.1877,1.8406 3914.595,1.8346 3921.4417,1.831 3927.8489,1.8108 3933.9055,1.7784 3939.8167,1.7386 3946.093,1.7029 3952.3115,1.6807 3958.5413,1.6795 3964.8345,1.699 3971.2588,1.696 3977.9749,1.674 3984.9634,1.6128 3992.2859,1.5554 3999.8196,1.4952 4007.7698,1.4288 4015.5369,1.3712 4023.5635,1.3377 4031.4927,1.288 4039.3047,1.2112 4047.3506,1.1552 4055.2612,1.1167 4063.3386,1.0892 4071.4724,1.0397 4079.5911,0.9908 4087.8503,0.9322 4096.1489,0.8848 4104.5171,0.8493 4112.9814,0.8091 4121.8096,0.7842 4131.4219,0.7625 4140.6626,0.7281 4149.7803,0.7197 4158.3091,0.7124 4166.792,0.7002 4175.4517,0.669 4184.248,0.6355 4193.2139,0.6148 4202.4082,0.5797 4211.7388,0.5189 4221.2148,0.5063 4230.8242,0.4331 4240.5605,0.3691 4250.4219,0.3078 4260.4175,0.2422 4270.5371,0.1546 4280.7651,0.0957 4291.0894,0.0476 4301.6094,-0.0096 4312.0503,-0.0608 4322.7144,-0.1185 4333.4966,-0.1866 4344.3818,-0.2589 4355.3789,-0.3289 4366.4536,-0.4142 4377.6182,-0.4724 4388.874,-0.5488 4400.2324,-0.6172 4411.686,-0.6961 4423.2295,-0.7808 4434.8574,-0.8522 4446.5703,-0.921 4458.3672,-0.9986 4470.2471,-1.0739 4482.2109,-1.1412 4494.2549,-1.2038 4506.377,-1.28 4518.5615,-1.3352 4530.812,-1.4072 4543.1289,-1.4688 4555.5098,-1.5468 4567.9561,-1.6073 4580.4668,-1.6793 4593.0415,-1.7443 4605.6748,-1.8208 4618.3672,-1.8785 4631.1191,-1.9443 4643.9302,-2.0151 4656.7974,-2.0883 4669.7207,-2.171 4682.7012,-2.2389 4695.7354,-2.2954 4708.8242,-2.3721 4721.9692,-2.4421 4735.1685,-2.5373 4748.4185,-2.6091 4761.7168,-2.6857 4775.0615,-2.7562 4788.4536,-2.8211 4801.8916,-2.8859 4815.376,-2.96 4828.9072,-3.0398 4842.4834,-3.1217 4856.0991,-3.1983 4869.7407,-3.2719 4883.4126,-3.3469 4897.1802,-3.4237 4910.9648,-3.5047 4924.751,-3.5732 4938.584,-3.6496 4952.436,-3.7322 4966.3223,-3.7869 4980.2437,-3.8919 4994.1968,-3.9479 5008.04,-4.0099 5021.2603,-4.0639 5033.6348,-4.1241 5045.1675,-4.1557 5055.9229,-4.1853 5065.9688,-4.2068 5075.3818,-4.2247 5084.2744,-4.2665 5092.6904,-4.3098 5100.6294,-4.3316 5108.1387,-4.3871 5115.3276,-4.4491 5122.4375,-4.5196 5129.603,-4.5812 5137.123,-4.6593 5144.6001,-4.7215 5152.4204,-4.7718 5160.0557,-4.8003 5167.7969,-4.8517 5175.1978,-4.8804 5182.835,-4.905 5190.3594,-4.9384 5198.1812,-4.9478 5205.8696,-4.9457 5213.8906,-4.9401 5221.9663,-4.9062 5229.9028,-4.8636 5237.8496,-4.8257 5245.627,-4.7727 5253.4541,-4.7271 5261.3779,-4.6885 5269.3564,-4.6551 5277.4175,-4.6258 5285.6885,-4.5916 5294.0283,-4.5565 5302.46,-4.5307 5311.0835,-4.4952 5319.71,-4.4455 5328.5044,-4.4112 5337.3799,-4.3752 5346.3521,-4.3509 5355.6147,-4.3095 5364.9014,-4.26 5374.3242,-4.2061 5383.8833,-4.1614 5393.5762,-4.1169 5403.3916,-4.0819 5413.2944,-4.0337 5423.3228,-3.9925 5433.4771,-3.9461 5443.7471,-3.8947 5454.1304,-3.8463 5464.6211,-3.8018 5475.2236,-3.7365 5485.9219,-3.6758 5496.6958,-3.6176 5507.6357,-3.5883 5518.6636,-3.5331 5529.7832,-3.4856 5541.0093,-3.4464 5552.3276,-3.378 5563.7271,-3.3216 5575.2085,-3.2319 5586.7676,-3.1434 5598.4487,-3.0551 5610.1992,-2.9826 5621.9922,-2.9093 5633.8799,-2.8324 5645.8496,-2.7608 5657.8745,-2.688 5669.9609,-2.6131 5682.123,-2.5477 5694.3804,-2.4784 5706.7354,-2.3992 5719.1074,-2.3196 5731.5811,-2.2667 5744.0903,-2.1999 5756.6436,-2.1285 5769.2603,-2.0693"/>
</svg>
