<?xml version="1.0" encoding="utf-8"?>
<!-- Track map generated with TinyPedal -->
<svg viewBox="-256.1005 -479.9059 765.1345 1225.1419" version="1.1" xmlns="http://www.w3.org/2000/svg">
	<title>Bahrain Paddock Circuit</title>
	<!-- Sector coordinates index -->
	<desc>156,285</desc>
	<!-- Raw global coordinates -->
	<polyline id="map" fill="none" stroke="black" stroke-width="10" points="-220.0287,270.0856 -219.2655,253.2869 -218.7043,241.2126 -218.138,229.1007 -217.5707,216.9155 -216.9472,203.4285 -216.3741,191.0939 -215.803,178.69 -215.2943,167.4682 -214.6786,153.6792 -214.1809,142.3385 -213.5766,128.4074 -213.0825,116.9528 -212.5291,104.1678 -211.9673,91.3231 -211.3351,77.1273 -210.8048,65.4613 -210.204,52.4462 -209.5925,39.3769 -208.9699,26.2544 -208.2788,11.7596 -207.7193,-0.1458 -207.0524,-14.7528 -206.518,-26.7485 -205.9357,-40.1229 -205.3705,-53.5446 -204.82,-67.0123 -204.2324,-81.8784 -203.7637,-94.0804 -203.2015,-109.0394 -202.7528,-121.3147 -202.2025,-136.3591 -201.7365,-148.7003 -201.2127,-162.4454 -200.6869,-176.2243 -200.151,-190.0357 -199.6022,-203.8785 -199.0369,-217.7523 -198.3932,-233.0469 -197.8593,-245.5866 -197.2607,-259.5467 -196.597,-274.9234 -196.0605,-287.3942 -195.4966,-300.8212 -194.978,-313.4901 -194.449,-326.4626 -194.0031,-337.4199 -193.6131,-346.6405 -193.1911,-356.2191 -192.7909,-365.1756 -192.3642,-374.3965 -192.0158,-381.5122 -191.6225,-389.0202 -191.2198,-396.1345 -190.7992,-402.8582 -190.3524,-409.1899 -189.8167,-415.7201 -189.2812,-421.2841 -188.7437,-426.0057 -188.0663,-430.9265 -187.2907,-435.4779 -186.3607,-439.643 -185.2245,-443.4414 -183.8447,-446.8494 -182.0618,-450.1235 -180.414,-452.4409 -178.3957,-454.64 -176.1815,-456.4502 -173.4961,-458.0154 -171.1083,-458.9624 -168.2875,-459.6439 -165.3088,-459.9059 -161.8889,-459.6822 -159.0266,-459.0975 -155.8205,-458.028 -152.6246,-456.5145 -149.4544,-454.5769 -146.2848,-452.2467 -142.7378,-449.2371 -139.8024,-446.4273 -136.5043,-442.9353 -132.7506,-438.7086 -129.485,-435.0672 -125.6257,-431.0052 -121.407,-427.0092 -116.8171,-423.2246 -111.8856,-419.7774 -106.132,-416.5045 -101.2295,-414.2993 -95.6164,-412.4393 -89.8654,-411.2206 -83.9544,-410.5594 -77.8837,-410.3789 -71.683,-410.687 -65.37,-411.4951 -58.9275,-412.7553 -52.3329,-414.3394 -45.5782,-416.1325 -37.9841,-418.367 -30.9316,-420.5992 -24.4584,-422.7137 -17.17,-425.1024 -9.6996,-427.4693 -2.0147,-429.6835 5.8957,-431.6136 13.8552,-433.1847 21.4705,-434.3995 29.2593,-435.3429 35.1904,-435.8386 41.2764,-436.1212 46.8064,-436.1847 51.7828,-436.0564 56.2646,-435.726 60.2918,-435.1841 64.2428,-434.3159 67.4377,-433.2547 70.0155,-432.0834 72.5585,-430.5626 74.9657,-428.6519 76.6632,-426.9144 78.2827,-424.8072 79.6239,-422.5302 80.6676,-420.1319 81.4317,-417.5886 81.936,-414.8455 82.1319,-411.9159 81.9873,-408.8183 81.5063,-405.5683 80.6958,-402.1729 79.4406,-398.2592 77.9962,-394.4957 76.4477,-390.9396 74.4619,-386.779 71.9849,-381.9298 69.765,-377.7457 66.8704,-372.3587 64.3952,-367.7202 61.2813,-361.777 58.7215,-356.8029 55.8846,-351.2181 52.9791,-345.4251 49.7007,-338.7869 46.9668,-333.1501 43.8949,-326.6693 40.8008,-319.9618 37.3868,-312.326 34.6214,-305.8727 31.6045,-298.4948 28.7051,-290.9345 25.9598,-283.1278 23.1136,-274.2751 20.8983,-266.8428 18.5723,-258.3925 16.4003,-249.7456 14.1684,-240.0219 12.4207,-231.9176 10.5452,-222.7644 8.7407,-213.4586 7.0161,-204.0037 5.3633,-194.4064 3.777,-184.6718 2.2604,-174.8118 0.6907,-163.8652 -0.526,-154.7925 -1.9136,-143.5615 -2.9713,-134.2599 -4.0582,-123.8087 -5.0431,-113.2374 -5.8973,-102.5479 -6.6189,-91.7438 -7.2195,-80.8298 -7.7093,-69.81 -8.1233,-58.6891 -8.508,-47.471 -8.8979,-36.1591 -9.2946,-24.7559 -9.6872,-13.2636 -10.0667,-1.6846 -10.4364,9.9786 -10.7994,21.7226 -11.1597,33.5463 -11.59,46.6399 -11.9767,57.4186 -12.4306,69.4371 -12.9076,81.5109 -13.4104,93.6578 -14.0075,107.1016 -14.537,118.1633 -15.1568,130.5188 -15.7997,142.9416 -16.4582,155.4306 -17.1244,167.9853 -17.7944,180.6044 -18.4547,193.287 -19.1056,206.0319 -19.7518,218.8379 -20.3884,231.703 -21.0092,244.6273 -21.6076,257.6096 -22.1752,270.5886 -22.7004,283.2565 -23.1649,295.2733 -23.5739,306.5175 -23.9303,316.9781 -24.2191,326.7122 -24.4373,335.7964 -24.5689,344.3205 -24.5924,352.338 -24.5117,359.8938 -24.3014,367.7374 -24.0336,373.8589 -23.5828,380.3773 -22.9084,386.6091 -21.8469,393.131 -20.6683,398.1787 -18.9856,403.4381 -16.651,408.7989 -14.3092,412.8854 -11.2301,417.1353 -7.3086,421.486 -3.7096,424.7843 1.1669,428.4403 5.521,431.0983 10.7065,433.6542 16.2114,435.7686 22.0019,437.4099 28.0433,438.5803 34.9503,439.3096 40.7837,439.4702 47.443,439.1935 54.2739,438.4734 61.2523,437.3633 68.3329,435.8133 75.4338,433.7557 82.4684,431.2088 89.3633,428.1422 96.1054,424.5612 103.3314,420.0295 109.0781,415.8602 115.7745,410.2541 121.0318,405.2666 126.7044,399.3612 132.2514,393.144 137.6431,386.614 142.8506,379.77 147.8318,372.6119 152.5558,365.1421 157.0116,357.3766 161.213,349.3405 165.1891,341.0633 168.9612,332.5721 172.5509,323.9699 175.9946,315.6039 179.6185,306.9402 182.4563,300.3039 185.5047,293.3708 188.4826,286.8752 191.8261,280.1868 194.72,274.963 198.2078,269.3514 202.4696,263.4004 206.3072,258.6877 210.9584,253.6275 216.0273,248.7766 221.4915,244.1296 227.3151,239.6713 234.1518,235.0668 240.061,231.5634 246.9164,228.0221 254.0694,224.8802 262.2701,221.8898 269.2155,219.822 277.9655,217.7889 285.3155,216.5504 293.6547,215.636 302.1479,215.2358 310.7646,215.3511 319.4827,215.9664 328.2785,217.0806 337.1325,218.6714 346.0156,220.7435 354.9055,223.2822 363.7896,226.2642 373.546,230.0186 381.5016,233.425 391.1794,237.8983 399.141,241.7056 407.8505,245.9807 416.1103,250.1204 423.7648,254.0375 430.7872,257.7726 437.1917,261.3899 443.0722,264.9339 448.5426,268.3941 454.1602,272.1638 458.4753,275.2762 463.0083,278.8158 467.2788,282.5174 471.2785,286.4452 474.9755,290.6546 478.3407,295.1684 481.3573,299.9975 484.2065,305.6344 486.0842,310.4096 487.6407,315.8166 488.692,321.8291 489.034,326.8052 488.908,332.4214 488.2109,338.1078 486.9631,343.823 485.172,349.5113 482.8695,355.0543 480.0915,360.3629 476.8266,365.4281 473.0671,370.291 468.3609,375.4069 463.5756,379.8324 458.8963,383.6778 452.8088,388.305 447.535,392.015 441.3832,396.0503 434.9561,400.0176 427.5861,404.3021 421.3625,407.7993 413.5391,412.0131 407.067,415.3976 399.6866,419.0885 392.1334,422.8167 384.4313,426.6176 376.6113,430.544 368.687,434.6107 360.6602,438.8105 352.5266,443.1236 344.2794,447.5272 335.0817,452.4747 327.474,456.623 318.9391,461.3354 310.3211,466.1528 301.6168,471.0609 291.9694,476.5388 283.1234,481.5883 275.0786,486.1895 266.0381,491.346 256.8754,496.5185 246.663,502.2359 238.2088,506.9423 227.7574,512.7281 219.1159,517.4991 209.4253,522.8468 199.6458,528.2488 189.777,533.7007 179.8215,539.2039 169.7895,544.7714 159.6807,550.3989 148.4706,556.6494 139.2249,561.8042 127.8358,568.1465 118.4453,573.3713 107.9372,579.2133 96.3142,585.664 85.6772,591.5528 76.0344,596.8759 65.2407,602.807 54.3696,608.7612 42.3308,615.3473 32.4241,620.7708 20.2532,627.4473 10.2501,632.9561 -0.9075,639.129 -12.1076,645.3557 -23.3485,651.634 -34.6136,657.9379 -45.725,664.1578 -56.3836,670.1246 -66.3935,675.7195 -76.6474,681.4553 -84.5037,685.8499 -93.5214,690.8859 -100.4519,694.751 -107.7056,698.7802 -115.1804,702.9039 -120.9573,706.0656 -127.0769,709.375 -132.9485,712.4976 -138.6356,715.4328 -144.7564,718.3771 -149.7049,720.4839 -155.717,722.595 -160.6129,723.8948 -166.0146,724.8369 -171.3433,725.236 -176.6262,725.0872 -181.891,724.409 -187.0997,723.2324 -192.6652,721.3111 -196.9754,719.24 -201.4516,716.4431 -205.6479,713.1707 -209.5635,709.447 -213.5094,704.8511 -216.453,700.7114 -219.4649,695.7223 -222.2444,690.3286 -224.8377,684.5756 -227.2302,678.4846 -229.6081,671.4154 -231.3223,665.3571 -232.9316,658.3466 -234.328,650.3244 -235.1613,643.5389 -235.7819,635.789 -236.1005,627.0458 -236.0819,619.778 -235.8029,610.7045 -235.3946,602.2791 -234.9431,594.5558 -234.3881,585.8209 -233.819,576.925 -233.2268,566.9567 -232.7343,557.7303 -232.3308,549.2974 -231.9227,539.7888 -231.5406,530.1392 -231.1396,520.3557 -230.66,509.4485 -230.2453,500.4349 -229.7821,490.3365 -229.3241,480.1168 -228.8647,469.7791 -228.401,459.3264 -227.9245,448.7617 -227.4217,438.0889 -226.9015,427.3102 -226.3778,416.4276 -225.8539,405.4433 -225.3273,394.3597 -224.7938,383.1794 -224.255,371.9048 -223.7165,360.5377 -223.1274,347.9301 -222.6487,337.5362 -222.1208,325.9068 -221.5396,313.0192 -221.0592,302.4033 -220.4631,289.3442 -219.9765,278.5917"/>
	<!-- Raw distance reference points -->
	<polyline id="dist" fill="none" stroke="none" stroke-width="0" points="3801.9429,7.3818 15.0842,7.379 27.1751,7.3818 39.2974,7.3839 51.5111,7.3911 63.7903,7.3882 76.1302,7.3889 88.537,7.3922 100.9924,7.3936 113.4796,7.3898 126.1316,7.3887 138.8253,7.3887 151.586,7.3902 164.416,7.3932 177.289,7.3914 190.2068,7.3858 203.1762,7.3862 216.1711,7.3879 229.2373,7.3933 242.3798,7.3955 255.5578,7.4063 268.7914,7.4036 282.071,7.408 295.4203,7.4106 308.8122,7.4057 322.2516,7.4042 335.7352,7.4043 349.2544,7.4039 362.7959,7.4252 376.394,7.4793 390.0432,7.5445 403.7269,7.6544 417.4469,7.7566 431.2005,7.877 444.9865,8.0051 458.8062,8.1298 472.6587,8.252 486.5502,8.3632 500.4859,8.4953 514.4857,8.6291 528.4999,8.7525 542.5165,8.8977 556.3881,9.012 569.8105,9.1426 582.4656,9.2826 594.2761,9.4593 605.2629,9.6195 615.5198,9.7563 625.1125,9.8905 634.0847,9.991 642.5213,10.0824 650.4888,10.1443 658.0276,10.2114 665.1716,10.2707 671.9094,10.3306 678.2562,10.381 684.2283,10.4334 689.8391,10.4809 695.1121,10.5212 700.0433,10.56 704.5883,10.5848 708.8005,10.6021 712.6064,10.5925 716.0969,10.5654 719.3179,10.526 722.4056,10.4814 725.7227,10.4228 728.3909,10.3635 732.3255,10.3017 736.8629,10.2483 741.7387,10.1779 746.1932,10.1156 749.7852,10.0829 752.6878,10.0667 755.8594,10.0383 759.2104,9.9974 762.8218,9.934 766.7575,9.8483 770.9914,9.7374 775.5098,9.6297 780.3027,9.5044 785.3964,9.3848 790.7897,9.2966 796.3773,9.2123 802.1819,9.138 808.1162,9.0783 814.1036,9.0118 820.438,8.9404 827.1262,8.8876 835.2043,8.8906 841.5474,8.9718 847.4011,9.0889 853.2537,9.1849 859.283,9.2656 865.5286,9.3532 872.0045,9.4478 878.7209,9.5766 885.6902,9.739 892.9081,9.944 900.3533,10.157 907.9445,10.3668 915.7169,10.6205 923.6274,10.8703 931.8002,11.1521 940.2324,11.4399 948.5059,11.7412 956.4863,12.0366 963.6276,12.3365 970.1691,12.5595 976.1317,12.7894 981.5254,12.9954 986.3992,13.1772 990.8156,13.3377 994.7256,13.4788 998.4195,13.6046 1001.2346,13.6976 1004.3893,13.7657 1006.2778,13.8246 1009.0773,13.8705 1010.4077,13.8936 1013.063,13.9042 1014.2466,13.8982 1016.8443,13.8762 1019.5001,13.8412 1020.8997,13.7878 1023.8333,13.7209 1025.6697,13.6559 1028.9498,13.5832 1031.5958,13.4891 1034.9821,13.3635 1038.984,13.2311 1043.1562,13.0972 1047.7301,12.9336 1052.6466,12.7347 1057.8779,12.5605 1063.3984,12.3539 1069.1998,12.1688 1075.2589,11.9302 1081.4683,11.741 1087.7321,11.5402 1094.2172,11.3255 1100.9418,11.0802 1107.8928,10.8732 1115.0662,10.6366 1122.458,10.3952 1130.0886,10.1224 1137.9182,9.8896 1146.0299,9.6348 1154.2625,9.339 1162.8556,9.0855 1171.5188,9.0862 1180.2048,9.1282 1188.978,9.1554 1197.9247,9.1937 1206.9967,9.2685 1216.2155,9.3405 1225.5651,9.4124 1235.0356,9.4651 1244.6405,9.4983 1254.3755,9.5155 1264.2335,9.5226 1274.196,9.5319 1284.2255,9.5425 1294.363,9.5463 1304.6064,9.5562 1314.9747,9.561 1325.4635,9.5638 1336.0692,9.5686 1346.7839,9.5844 1357.6036,9.5891 1368.5137,9.5893 1379.5099,9.5943 1390.6482,9.5921 1401.8744,9.5836 1413.1921,9.579 1424.6122,9.5775 1436.116,9.5796 1447.7045,9.5733 1459.3656,9.5845 1471.1112,9.5532 1482.9331,9.5547 1494.8335,9.556 1506.8182,9.5606 1518.8521,9.5579 1530.9446,9.5493 1543.0995,9.5454 1555.3217,9.5515 1567.6221,9.5541 1579.9908,9.5593 1592.4281,9.5522 1604.9297,9.5599 1617.5027,9.563 1630.1464,9.5682 1642.8499,9.5695 1655.6119,9.575 1668.4314,9.575 1681.311,9.5729 1694.25,9.5745 1707.2396,9.5796 1720.2239,9.5787 1732.8981,9.5848 1744.9362,9.5794 1756.1917,9.5751 1766.6641,9.5776 1776.4115,9.5757 1785.4996,9.5708 1794.0179,9.5633 1802.0212,9.5576 1809.5614,9.5506 1816.6937,9.5388 1823.4912,9.5246 1829.983,9.508 1836.1986,9.4815 1842.2267,9.4537 1848.1517,9.428 1853.9382,9.4057 1859.8926,9.3846 1865.4799,9.3814 1871.0938,9.4065 1876.8046,9.4588 1882.5933,9.52 1888.3505,9.638 1894.0983,9.7523 1899.8948,9.8939 1905.6833,10.0348 1911.5779,10.1836 1917.6276,10.3223 1923.8483,10.4666 1930.1132,10.576 1936.6598,10.6938 1943.3937,10.8199 1950.1307,10.9508 1957.2205,11.0849 1964.3256,11.2458 1971.687,11.399 1979.1249,11.5735 1986.536,11.7577 1994.1611,11.9755 2001.8005,12.1626 2009.5535,12.4141 2017.5192,12.6247 2025.5908,12.8752 2033.8867,13.1402 2042.3157,13.4096 2050.8916,13.6981 2059.5906,13.9876 2068.4194,14.2887 2077.3499,14.5937 2086.3865,14.897 2095.5215,15.1946 2104.7451,15.4912 2114.0359,15.8087 2123.1001,16.1093 2131.7322,16.4083 2139.8301,16.6342 2147.4312,16.8771 2154.6833,17.1053 2161.6062,17.3455 2168.4109,17.5506 2175.3733,17.7848 2182.2253,18.0437 2189.186,18.2547 2196.4009,18.4859 2203.5571,18.7273 2211.0088,18.9835 2218.4885,19.2223 2226.3057,19.5055 2234.1292,19.7337 2242.2339,19.9783 2250.4021,20.2185 2258.4922,20.4775 2266.8254,20.6862 2275.344,20.936 2283.8174,21.1347 2292.5752,21.3375 2301.427,21.5375 2310.3689,21.7339 2319.4255,21.9169 2328.4146,22.0967 2337.5906,22.2654 2346.7334,22.4441 2355.8628,22.6094 2365.1775,22.7545 2374.6709,22.8945 2384.2808,22.9781 2393.9656,23.0578 2403.7532,23.107 2413.4375,23.1421 2422.6331,23.1589 2431.1768,23.1505 2439.1086,23.1286 2446.4187,23.1007 2453.2534,23.06 2459.6638,23.009 2465.7773,22.9504 2471.6399,22.9111 2477.3254,22.8648 2482.9116,22.8165 2488.4558,22.76 2494.0042,22.6981 2499.5728,22.6231 2505.2551,22.5335 2511.0034,22.4202 2516.7368,22.3187 2522.4106,22.1936 2528.0398,22.036 2533.7358,21.9029 2540.2297,21.7347 2546.6182,21.5914 2553.1721,21.473 2560.0981,21.3906 2566.167,21.3233 2572.0352,21.2404 2577.8477,21.1497 2583.7966,21.0491 2589.8577,20.9268 2596.2036,20.8147 2602.7825,20.7122 2609.5122,20.5913 2616.5798,20.4868 2623.8818,20.3515 2631.3572,20.2011 2639.0493,20.0813 2646.8875,19.9671 2654.936,19.8454 2663.0444,19.7513 2671.2856,19.6737 2679.6992,19.5837 2688.29,19.5093 2697.075,19.4481 2706.0027,19.4011 2715.0581,19.3672 2724.251,19.3517 2733.5947,19.3486 2743.0815,19.3615 2752.7041,19.3952 2762.4529,19.4387 2772.3274,19.4789 2782.3271,19.5082 2792.4167,19.5025 2802.5916,19.4986 2812.8762,19.457 2823.2764,19.4024 2833.7927,19.3223 2844.4309,19.2023 2855.1833,19.0883 2866.0427,18.9097 2877.0056,18.7469 2888.071,18.5414 2899.238,18.3048 2910.5139,18.0414 2921.8918,17.763 2933.3713,17.4505 2944.9536,17.1031 2956.6304,16.6685 2968.3909,16.3137 2980.2288,15.8378 2992.1611,15.4473 3004.1936,15.0275 3016.2888,14.5919 3028.4434,14.2347 3040.6885,13.9391 3053.0166,13.6418 3065.417,13.3746 3077.8831,13.1223 3090.4075,12.9487 3103.0166,12.7619 3115.6929,12.6479 3128.4338,12.5574 3141.2546,12.5072 3154.1497,12.4959 3167.0896,12.5185 3179.8328,12.5773 3192.0388,12.6443 3203.4985,12.7124 3214.1877,12.7769 3224.2056,12.8135 3233.6189,12.8273 3242.4604,12.8338 3250.7603,12.8244 3258.5449,12.806 3265.886,12.7838 3272.844,12.7488 3279.4946,12.7029 3285.8906,12.6614 3292.0669,12.5942 3298.0251,12.5291 3303.7537,12.4418 3309.2041,12.3556 3314.418,12.2542 3319.4878,12.1421 3324.8193,12.0168 3330.8992,11.8717 3337.6106,11.696 3345.6338,11.5531 3351.5544,11.501 3356.7637,11.4808 3361.6421,11.4496 3366.6672,11.3921 3371.9082,11.3051 3377.3689,11.2234 3383.073,11.1169 3389.0442,11.0016 3395.2251,10.857 3401.7112,10.7121 3408.4082,10.5567 3415.1421,10.4193 3422.0535,10.2735 3429.0852,10.1044 3435.8213,9.9739 3443.2581,9.8256 3450.9395,9.6592 3459.0298,9.5179 3467.3179,9.3425 3475.7446,9.1823 3484.3179,9.0403 3493.0627,8.8885 3501.9617,8.7089 3511.0278,8.497 3520.2537,8.3203 3529.6213,8.1741 3539.1313,7.9995 3548.781,7.8534 3558.5598,7.7572 3568.4546,7.6674 3578.4629,7.5992 3588.5676,7.5361 3598.8074,7.4815 3609.1748,7.4385 3619.6631,7.3982 3630.2317,7.3811 3640.8867,7.373 3651.668,7.3779 3662.5527,7.3751 3673.5417,7.3803 3684.6653,7.3771 3695.8784,7.3764 3707.1914,7.3806 3718.5896,7.3807 3730.0647,7.3843 3741.6145,7.3843 3753.2512,7.3793 3764.7585,7.3858 3776.822,7.3974 3788.6851,7.3896 3800.6094,7.3967"/>
</svg>
