<?xml version="1.0" encoding="utf-8"?>
<!-- Track map generated with TinyPedal -->
<svg viewBox="-256.0228 -482.6946 885.9392 1228.4015" version="1.1" xmlns="http://www.w3.org/2000/svg">
	<title>Bahrain Outer Circuit</title>
	<!-- Sector coordinates index -->
	<desc>197,281</desc>
	<!-- Raw global coordinates -->
	<polyline id="map" fill="none" stroke="black" stroke-width="10" points="-219.1642,270.3735 -218.2703,249.6476 -217.7211,236.1197 -217.2783,224.9854 -216.7297,211.2984 -216.2713,200.0372 -215.7539,187.4598 -215.2264,174.8157 -214.6911,162.1062 -214.1473,149.333 -213.5921,136.4975 -212.9613,122.3086 -212.4337,110.6462 -211.8443,97.6329 -211.2581,84.5624 -210.68,71.4361 -210.1094,58.255 -209.5447,45.0207 -208.9808,31.7348 -208.4126,18.399 -207.8423,5.0324 -207.2198,-9.6976 -206.7127,-21.7918 -206.1529,-35.274 -205.5971,-48.8013 -205.0507,-62.3736 -204.4988,-75.9891 -203.9394,-89.6463 -203.3242,-104.7166 -202.8241,-117.083 -202.2206,-132.2398 -201.7327,-144.6744 -201.1887,-158.5246 -200.6443,-172.4095 -200.0943,-186.3283 -199.4695,-201.6765 -198.89,-215.6635 -198.3724,-228.2793 -197.7994,-242.3264 -197.1639,-257.8134 -196.63,-270.5107 -195.9643,-286.0616 -195.3658,-300.217 -194.8563,-312.7263 -194.3254,-325.9679 -193.8378,-338.3582 -193.3803,-349.91 -192.9564,-360.6888 -192.5364,-370.7308 -192.1541,-380.0583 -191.8078,-388.721 -191.454,-396.7683 -191.0852,-404.2816 -190.6851,-411.3182 -190.2299,-417.9038 -189.6814,-424.0374 -188.8953,-430.2401 -188.078,-434.9523 -186.957,-439.8064 -185.7558,-443.7985 -184.0099,-448.1582 -182.1615,-451.6288 -180.1014,-454.627 -177.8481,-457.1481 -175.369,-459.1946 -172.3829,-460.9188 -169.7953,-461.8951 -166.7585,-462.534 -163.558,-462.6946 -160.2279,-462.3776 -156.8123,-461.5893 -153.0201,-460.185 -149.9239,-458.6151 -146.5192,-456.4363 -143.1963,-453.8099 -140.0446,-450.7594 -137.2449,-447.417 -134.9037,-443.9274 -132.862,-440.3831 -130.7415,-436.8761 -129.0244,-433.3919 -127.0271,-430.1156 -124.6091,-427.208 -121.8889,-424.6728 -118.7002,-422.2095 -115.9954,-420.409 -112.8949,-418.6607 -109.7065,-417.2011 -106.4202,-416.0417 -102.9004,-415.1238 -99.0849,-414.4827 -94.9954,-414.1886 -90.682,-414.2509 -86.1587,-414.6763 -80.943,-415.513 -76.538,-416.4892 -71.5245,-417.8334 -66.3766,-419.3895 -61.0589,-421.0845 -55.4902,-422.8358 -49.657,-424.5767 -43.5628,-426.2808 -37.214,-427.9348 -30.6183,-429.5244 -23.7851,-431.0469 -16.0078,-432.6299 -9.509,-433.8137 -2.0874,-434.969 6.3221,-435.9633 13.3835,-436.541 22.2183,-436.9256 30.4288,-436.9801 37.9493,-436.7668 46.4361,-436.2069 55.051,-435.3445 63.7904,-434.2436 72.6537,-432.955 81.585,-431.5217 90.6197,-429.9567 99.764,-428.2483 109.0118,-426.382 119.3029,-424.1671 127.8189,-422.257 137.3888,-420.0726 147.0822,-417.8768 156.9075,-415.7238 167.8699,-413.4291 176.9523,-411.5859 187.1565,-409.5552 197.4751,-407.5342 207.9023,-405.5083 218.4344,-403.4707 229.0686,-401.4213 240.882,-399.1562 251.71,-397.0895 261.5009,-395.2374 272.4691,-393.1875 283.5313,-391.1556 294.6851,-389.1415 305.9263,-387.1328 318.3875,-384.9127 328.6545,-383.0796 340.1346,-381.016 351.6893,-378.9246 363.3153,-376.7974 375.0103,-374.6304 386.7742,-372.431 398.6099,-370.2262 410.5157,-368.012 423.6887,-365.5524 434.5258,-363.5249 446.533,-361.2795 458.1237,-359.1133 470.1001,-356.8582 479.2505,-355.1088 488.7906,-353.2438 497.7487,-351.4518 506.1875,-349.7053 514.1438,-347.9794 521.6464,-346.2328 529.4007,-344.2011 535.9699,-342.1553 541.4494,-340.1085 547.038,-337.6028 552.0785,-334.877 556.1537,-332.2445 560.9284,-328.4808 564.0244,-325.4428 566.9954,-321.791 569.4426,-317.8663 571.5482,-313.311 572.9885,-308.9354 573.9291,-304.8136 574.5775,-300.0518 574.8016,-294.6316 574.5708,-290.0955 573.8674,-284.9866 572.5691,-279.3138 571.1474,-274.6278 569.217,-269.3541 566.8946,-264.0175 563.8776,-258.0647 561.0516,-253.1279 557.6501,-247.5144 554.1539,-241.671 550.7043,-235.5407 547.4844,-229.1501 544.5849,-222.4953 542.104,-215.6176 540.1187,-208.542 538.6301,-201.296 537.6429,-193.9053 537.2296,-186.455 537.4086,-179.0723 538.1791,-171.7625 539.5577,-164.4895 541.5236,-157.2184 544.0472,-149.951 547.1499,-142.7398 550.7778,-135.6007 554.8366,-128.5143 559.6917,-120.743 563.8911,-114.3629 568.7005,-107.1918 573.5374,-99.9052 578.3328,-92.4567 583.0791,-84.8106 587.7076,-76.9346 592.1041,-68.7819 596.1587,-60.3659 600.1079,-50.8757 603.1089,-42.0871 605.3238,-34.105 607.2336,-25.1352 608.7173,-15.1222 609.5067,-6.8165 609.9164,2.5238 609.8214,11.9811 609.2292,21.5452 608.1262,31.1893 606.261,41.8441 604.1866,50.5491 601.3395,60.1661 597.9124,69.6558 593.921,78.8546 589.4384,87.6699 584.7683,96.0031 580.3313,103.7957 576.1912,111.0088 572.4171,117.6588 568.7407,124.3966 566.1438,129.4739 563.72,134.7345 561.829,139.7312 560.4526,144.5974 559.6,149.4294 559.3316,154.224 559.6262,159.3803 560.3273,163.4694 561.5452,167.9584 563.3879,172.8487 565.2521,176.8551 567.2563,181.4764 569.092,186.7963 570.2539,191.301 571.1818,196.4477 571.6857,201.729 571.7512,207.1212 571.3275,212.6057 570.4156,218.1691 569.0402,223.7942 566.9694,230.028 564.9012,235.1909 562.2769,241.0484 559.509,247.1102 558.9229,248.3384 556.436,253.2792 553.0021,259.5125 549.3386,265.8662 545.4429,272.2707 541.3339,278.7703 537.0333,285.3922 532.5591,292.1337 527.8928,298.9807 523.0412,305.932 517.9965,312.9732 512.7352,320.0769 506.6889,327.9447 501.5293,334.403 495.5666,341.5766 489.3497,348.6583 482.168,356.3628 476.0117,362.5696 468.0976,369.9658 460.5434,376.4949 452.6633,382.8318 445.3105,388.3742 436.8766,394.3666 427.3068,400.7784 419.2718,405.906 410.1528,411.5106 400.8683,417.0629 391.4547,422.6167 381.9129,428.1652 372.238,433.6919 361.4434,439.7396 352.498,444.6646 342.4818,450.1183 331.3721,456.1172 322.2063,461.0517 311.9583,466.5887 301.6534,472.1979 290.2565,478.4559 280.8851,483.6451 270.417,489.4689 259.8782,495.3315 249.269,501.2314 237.5183,507.7635 227.8374,513.1317 217.0119,519.1231 205.0196,525.7434 195.1444,531.1859 184.1054,537.2592 172.9994,543.3635 161.8332,549.5093 150.6077,555.696 139.3234,561.9254 127.9787,568.1899 115.4319,575.1264 105.1161,580.8394 93.627,587.2051 82.0967,593.5995 70.5201,600.037 58.9004,606.5181 47.2419,613.0447 35.5399,619.6046 23.7906,626.1861 11.9944,632.7851 0.1505,639.3963 -11.7427,646.0117 -23.6793,652.6378 -35.6568,659.2744 -47.6089,665.8929 -59.1973,672.3137 -70.2286,678.4179 -80.6285,684.1591 -90.3816,689.5333 -100.3679,695.0361 -107.983,699.209 -116.6355,703.8881 -123.2005,707.3797 -130.0228,710.8987 -136.4963,714.09 -142.7073,716.9963 -148.7136,719.5807 -154.5782,721.7791 -160.3553,723.5452 -166.6226,724.903 -171.6463,725.5347 -177.6053,725.7069 -182.8195,725.3088 -187.3114,724.5028 -192.034,723.0645 -196.8791,720.8284 -200.6392,718.5085 -204.652,715.4453 -208.8478,711.5211 -212.0732,707.9086 -215.3644,703.4778 -218.5937,698.1215 -220.9063,693.3898 -223.1325,687.7822 -225.1014,681.813 -226.9768,675.5435 -228.7592,668.9958 -230.387,662.1682 -231.9695,654.3466 -233.0742,647.7155 -234.1761,639.4062 -234.8768,632.426 -235.4707,624.47 -235.8769,615.488 -236.0228,607.9702 -235.997,599.4506 -235.8147,590.7646 -235.48,581.9149 -234.9885,571.9974 -234.4714,562.8176 -233.8895,554.4367 -233.2193,545.961 -232.2767,534.5264 -231.5927,525.8131 -230.8913,515.9962 -230.2592,506.0413 -229.6916,495.9526 -229.1913,485.7339 -228.7543,475.3889 -228.3737,464.9212 -228.0351,454.335 -227.6956,443.6346 -227.3116,432.8251 -226.8578,421.9106 -226.2952,409.7858 -225.808,399.7746 -225.2386,388.558 -224.5814,376.1093 -224.0206,365.8404 -223.3812,354.3654 -222.7373,342.8324 -222.0967,331.2115 -221.402,318.3287 -220.8456,307.7121 -220.1969,294.644 -219.6948,283.8783 -219.1534,271.8405"/>
	<!-- Raw distance reference points -->
	<polyline id="dist" fill="none" stroke="none" stroke-width="0" points="3505.5059,7.4014 18.7609,7.3986 31.0754,7.3989 43.462,7.401 55.9461,7.4014 68.4655,7.3985 81.0165,7.4 93.6349,7.4005 106.3383,7.3984 119.1324,7.3947 132.0021,7.3973 144.9346,7.3964 157.9082,7.4017 170.933,7.409 184.0086,7.3907 197.1451,7.3933 210.3455,7.396 223.5928,7.3988 236.8231,7.4001 250.2226,7.4088 263.6093,7.4024 277.002,7.4066 290.4587,7.4089 303.9474,7.4064 317.4958,7.4016 331.0875,7.4014 344.6928,7.4012 358.359,7.4112 372.0745,7.4588 385.8383,7.5199 399.6686,7.6205 413.5068,7.7252 427.3428,7.8453 441.2296,7.9729 455.1577,8.1002 469.1278,8.2358 483.1317,8.3507 497.1597,8.4577 511.218,8.5977 525.3159,8.7379 539.4504,8.8576 553.6171,8.9992 567.7897,9.1322 581.7038,9.2688 594.9181,9.4497 607.2879,9.6282 618.817,9.7995 629.6105,9.9408 639.7127,10.0484 649.0773,10.1351 657.7709,10.2147 665.8041,10.2845 673.3115,10.3533 680.3378,10.411 686.9242,10.4691 693.0661,10.5247 698.7433,10.5788 704.0091,10.6041 708.8569,10.6219 713.2419,10.6103 717.2156,10.5772 720.9336,10.534 724.4746,10.4767 727.8494,10.4163 731.1334,10.3701 734.2689,10.3214 737.4078,10.2738 740.3586,10.2223 743.5067,10.1921 746.3486,10.1786 749.17,10.1622 752.6908,10.1202 755.8774,10.0692 759.6642,9.9864 763.8688,9.8787 768.3025,9.7565 772.7155,9.6236 776.8546,9.5114 780.8121,9.4221 784.7816,9.3355 788.4258,9.284 792.131,9.2422 795.8873,9.1989 799.6074,9.1661 803.2605,9.1315 806.8627,9.0959 810.4596,9.0552 813.8889,9.008 817.5603,8.957 821.561,8.905 825.9774,8.8619 830.8384,8.8648 835.9653,8.903 841.097,8.9813 846.1347,9.0758 851.2326,9.1512 856.4706,9.2505 861.8514,9.3759 867.4296,9.5145 873.283,9.6753 879.3985,9.8618 885.7745,10.0674 892.3485,10.2704 899.1241,10.4816 906.0832,10.6922 913.2397,10.9277 920.4313,11.1218 927.8529,11.3413 935.3732,11.6064 943.177,11.8318 951.0745,12.1283 959.1742,12.4138 967.2769,12.6749 975.5878,12.9721 984.2157,13.2723 993.0577,13.5766 1002.0192,13.8775 1011.0524,14.1742 1020.1829,14.4685 1029.4774,14.7522 1038.9312,15.0085 1048.5205,15.294 1058.2079,15.5062 1068.0221,15.7336 1077.9541,15.9392 1087.9688,16.1486 1098.1028,16.3568 1108.3838,16.5218 1118.7902,16.7133 1129.3195,16.91 1139.9852,17.1265 1150.7441,17.3297 1161.568,17.5458 1172.4839,17.781 1183.4978,17.9778 1194.5864,18.1528 1205.7534,18.3575 1216.999,18.5662 1228.3224,18.7847 1239.734,19.0088 1251.2449,19.2522 1262.8467,19.4541 1274.5364,19.6765 1286.286,19.8999 1298.1053,20.1247 1310.0009,20.3548 1321.9636,20.5763 1333.9882,20.8107 1346.0747,21.0402 1358.2545,21.2943 1370.5166,21.4958 1382.7377,21.7361 1394.5353,21.962 1405.657,22.1954 1416.0483,22.3785 1425.7687,22.5654 1434.9015,22.7359 1443.5225,22.9031 1451.672,23.0512 1459.3678,23.1859 1466.6501,23.3191 1473.5167,23.4306 1479.9177,23.5186 1485.8984,23.5963 1491.448,23.661 1496.7236,23.7061 1502.1007,23.7379 1507.8087,23.7517 1513.5385,23.7737 1519.9905,23.8248 1525.2802,23.8864 1530.3798,23.9487 1535.3661,24.0115 1540.3203,24.0815 1545.307,24.1336 1550.3456,24.1611 1555.4413,24.1685 1560.6145,24.1348 1565.9233,24.0578 1571.4415,23.9193 1577.1964,23.751 1583.2118,23.5299 1589.4856,23.3269 1596.0072,23.0676 1602.8221,22.7835 1609.8984,22.5326 1617.1367,22.3554 1624.8346,22.2076 1632.5352,22.0567 1640.5765,21.9171 1648.1852,21.7801 1656.0664,21.6448 1663.6591,21.5524 1671.2651,21.4988 1678.6041,21.4665 1685.8743,21.4875 1693.2703,21.5653 1700.8478,21.6902 1708.6672,21.911 1716.6541,22.2121 1724.8031,22.5806 1733.1075,23.0236 1741.5483,23.3643 1750.1338,23.7167 1758.8438,24.0347 1767.6796,24.3191 1776.6632,24.5606 1785.7816,24.7538 1795.0184,24.9049 1804.3435,25.0083 1813.6467,25.0509 1822.8822,25.075 1832.0657,25.0393 1841.2618,24.9541 1850.5468,24.8146 1859.9319,24.6626 1869.4847,24.46 1879.0649,24.2117 1888.8973,23.9128 1898.8344,23.5911 1908.8999,23.2723 1919.0756,23.0721 1929.5187,22.8696 1939.9065,22.7189 1950.1625,22.6446 1960.1633,22.628 1969.792,22.6776 1978.7239,22.7841 1986.9221,22.858 1994.4006,22.9264 2001.2689,22.9925 2007.6979,23.0674 2015.3229,23.2071 2021.9291,23.4184 2027.8467,23.6412 2033.1991,23.8507 2038.038,24.0905 2042.4119,24.3252 2046.7411,24.5125 2051.2837,24.6967 2056.0007,24.8849 2060.9297,25.0633 2066.0518,25.2775 2071.459,25.5111 2077.3403,25.7132 2083.6587,25.9355 2090.7605,26.1458 2096.4353,26.3204 2101.865,26.4723 2107.2849,26.5941 2112.8093,26.6618 2118.5657,26.705 2124.6531,26.6752 2131.0652,26.6124 2137.7017,26.503 2137.8787,26.4748 2144.5378,26.3258 2151.6233,26.0946 2158.9363,25.7765 2166.4094,25.4385 2174.0955,25.0666 2181.9885,24.6766 2190.0771,24.2882 2198.356,23.8971 2206.8083,23.5184 2215.4512,23.1512 2224.2693,22.8099 2233.2476,22.468 2242.3311,22.1888 2251.541,21.8555 2260.8481,21.5675 2270.3223,21.2954 2279.9714,21.072 2289.7646,20.8196 2299.6699,20.6197 2309.6467,20.4485 2319.7639,20.3167 2330.0386,20.1662 2340.439,19.9985 2350.9565,19.8752 2361.6409,19.7567 2372.4846,19.651 2383.4287,19.5586 2394.4617,19.4892 2405.5894,19.4345 2416.8337,19.3934 2428.1814,19.3819 2439.5977,19.3853 2451.071,19.4135 2462.6292,19.451 2474.2749,19.4983 2486.0098,19.5308 2497.8257,19.5163 2509.7319,19.506 2521.7202,19.4453 2533.7905,19.3522 2545.9446,19.2387 2558.1719,19.0809 2570.4666,18.9143 2582.8242,18.7061 2595.2456,18.4386 2607.751,18.1903 2620.3254,17.8875 2632.998,17.5513 2645.7449,17.1772 2658.5669,16.7497 2671.4607,16.3148 2684.4229,15.8404 2697.4587,15.3233 2710.5696,14.9142 2723.7178,14.4954 2736.9163,14.1184 2750.1848,13.7768 2763.5222,13.4817 2776.8955,13.2186 2790.3147,13.0031 2803.7786,12.8185 2817.2947,12.675 2830.855,12.5767 2844.4651,12.5214 2858.1189,12.5099 2871.8003,12.5354 2885.4541,12.599 2898.6973,12.6719 2911.2935,12.7465 2923.1584,12.8048 2934.2744,12.8333 2944.6843,12.841 2954.3669,12.83 2963.3438,12.8063 2971.6382,12.775 2979.3086,12.7271 2986.5193,12.6763 2993.3625,12.6112 2999.8689,12.536 3006.0723,12.4528 3011.9841,12.3574 3017.5935,12.2433 3022.9668,12.1406 3028.3738,12.0074 3033.9529,11.8689 3040.3181,11.7378 3045.9253,11.6291 3051.0977,11.56 3055.8491,11.5273 3060.3613,11.4957 3065.0261,11.4466 3070.1296,11.3786 3075.5273,11.2917 3081.1311,11.1783 3086.9248,11.0716 3092.9246,10.937 3099.1519,10.7775 3105.4858,10.6261 3111.9719,10.475 3118.5759,10.3202 3125.0928,10.1502 3132.3208,10.0162 3139.5393,9.8625 3147.187,9.7353 3154.97,9.5922 3163.1143,9.4324 3171.4092,9.2959 3179.7961,9.1404 3188.4238,8.9928 3197.2239,8.84 3206.2744,8.6145 3215.4941,8.4185 3224.7898,8.2618 3234.2209,8.1084 3243.7661,7.9008 3253.4609,7.7976 3263.2971,7.7213 3273.2625,7.6448 3283.3472,7.5737 3293.5505,7.5189 3303.8921,7.4637 3314.3535,7.4256 3324.9404,7.3911 3335.6287,7.3718 3346.4236,7.3716 3357.3342,7.3682 3368.375,7.3714 3379.5415,7.3747 3390.7944,7.3754 3402.1606,7.3756 3413.5684,7.3772 3424.7878,7.3797 3436.5974,7.3852 3448.2192,7.3826 3459.969,7.3945 3471.7832,7.4022 3483.665,7.3995 3495.636,7.4052 3507.6787,7.4037"/>
</svg>
