<?xml version="1.0" encoding="utf-8"?>
<!-- Track map generated with TinyPedal -->
<svg viewBox="-253.4376 -479.1993 882.4639 1226.1153" version="1.1" xmlns="http://www.w3.org/2000/svg">
	<title>Bahrain Endurance Circuit</title>
	<!-- Sector coordinates index -->
	<desc>276,464</desc>
	<!-- Raw global coordinates -->
	<polyline id="map" fill="none" stroke="black" stroke-width="10" points="-218.7282,270.0466 -218.0639,251.7982 -217.5594,237.6453 -217.0598,223.3942 -216.5672,209.0467 -216.0575,193.8801 -215.5755,179.3409 -215.1118,165.4451 -214.6068,150.7325 -214.0529,135.1922 -213.5298,121.0528 -212.8919,104.5894 -212.2893,90.2948 -211.6115,75.1744 -210.9389,59.9765 -210.3076,45.4689 -209.6507,30.1264 -208.9695,13.9405 -208.2659,-3.0974 -207.7306,-16.3194 -207.1068,-31.9347 -206.4626,-48.3994 -205.8476,-64.1433 -205.2375,-79.1533 -204.5999,-95.0035 -203.9445,-111.6722 -203.3285,-127.5995 -202.6253,-144.3744 -201.766,-159.4898 -200.6841,-174.8129 -199.7084,-188.7663 -198.7661,-202.9014 -197.7918,-217.8078 -197.0425,-229.5191 -196.2355,-242.7317 -195.5786,-254.3485 -194.9293,-267.4662 -194.4626,-278.5633 -194.0793,-289.4878 -193.764,-300.8072 -193.5965,-312.4841 -193.5359,-323.2961 -193.4646,-333.0739 -193.353,-342.8211 -193.1683,-352.5011 -192.9343,-360.8811 -192.6077,-370.1466 -192.3161,-377.7693 -192.0011,-385.4888 -191.6967,-392.5236 -191.3422,-400.1453 -190.9994,-406.456 -190.6362,-411.9195 -190.2467,-416.9015 -189.8197,-421.6538 -189.3603,-425.9113 -188.7648,-430.1688 -188.122,-433.921 -187.4212,-437.4166 -186.5907,-441.0221 -185.5358,-444.6938 -184.2454,-447.8222 -182.4583,-450.7945 -180.2482,-453.3699 -177.8074,-455.4528 -174.6881,-457.3475 -171.5018,-458.566 -168.6962,-459.1212 -165.6811,-459.1993 -162.3713,-458.6565 -159.3391,-457.554 -156.3286,-455.8242 -153.8394,-453.7763 -151.6383,-451.3138 -149.4046,-448.2264 -147.1096,-445.327 -144.1248,-442.1805 -140.8737,-439.195 -137.3841,-436.4366 -132.8547,-433.4126 -128.5886,-430.7238 -124.0399,-427.8532 -118.9275,-424.6233 -113.2144,-421.0102 -107.6307,-417.5917 -102.1926,-414.7988 -95.9309,-412.3607 -90.579,-410.9463 -85.2126,-410.1215 -79.5268,-409.8475 -73.8148,-410.1498 -67.802,-411.1048 -62.0859,-412.6131 -56.2451,-414.5443 -50.3853,-416.5288 -43.2579,-418.9297 -36.8394,-421.0782 -30.1513,-423.261 -22.4068,-425.5763 -14.6775,-427.645 -7.0148,-429.4585 1.3257,-431.1899 10.4014,-432.7552 19.3426,-433.7658 28.0477,-434.1394 37.4136,-433.9455 47.9841,-433.3965 57.8188,-432.6274 67.3346,-431.6443 76.9761,-430.4153 87.8063,-428.7826 97.7662,-427.1156 108.9674,-425.1797 119.2733,-423.36 130.29,-421.3463 142.0489,-419.1827 153.4245,-417.079 164.968,-414.9296 176.6648,-412.7336 189.071,-410.3838 201.0335,-408.1032 213.1382,-405.7823 224.7671,-403.5484 236.5209,-401.2885 249.0266,-398.8817 261.6642,-396.4468 275.0726,-393.8596 287.9718,-391.367 300.9929,-388.8477 313.4733,-386.4302 327.3893,-383.7307 340.7578,-381.1346 353.5652,-378.6791 367.149,-376.1593 381.3282,-373.5761 393.5296,-371.3457 405.7396,-369.1044 417.3212,-366.9698 429.342,-364.743 439.1349,-362.9188 448.8845,-361.0922 457.7002,-359.4316 466.805,-357.7093 476.7126,-355.828 484.6784,-354.3102 493.3011,-352.6614 501.614,-351.0669 510.359,-349.3813 517.8958,-347.9217 525.2311,-346.4956 530.9822,-345.374 537.0326,-344.1861 541.9385,-343.2112 546.5099,-342.2214 550.3104,-341.204 553.9329,-339.8676 557.0287,-338.1243 559.423,-336.2173 561.4158,-334.0021 563.1313,-331.266 564.6493,-328.616 566.048,-326.1008 567.5052,-323.0693 568.7072,-320.3611 570.1382,-316.9814 571.1807,-313.6655 571.8565,-309.5511 571.905,-305.8483 571.445,-302.0697 570.4449,-297.7827 569.0221,-293.3212 567.3712,-289.1403 565.2382,-284.6328 562.6893,-280.0898 560.1215,-275.9505 557.6206,-271.8102 555.0891,-266.9969 552.9125,-262.4684 550.8224,-257.5836 548.7642,-252.06 546.5043,-245.5328 544.4302,-239.5322 542.1692,-232.9243 540.0593,-226.3198 538.1093,-218.5353 537.0377,-211.7794 536.5427,-204.6849 536.7061,-197.2812 537.4001,-190.8757 538.8077,-183.2981 540.7097,-175.9561 543.0003,-168.848 545.7501,-161.1577 548.8868,-152.8457 552.0977,-144.7625 555.3433,-136.9042 558.9591,-128.4581 562.7131,-120.0552 567.0253,-111.0333 570.9484,-103.4557 575.0449,-96.0727 579.8908,-87.5764 584.124,-80.1591 589.0491,-71.5057 592.7244,-64.8016 596.5549,-56.7798 599.8323,-48.1802 602.2361,-39.8631 604.1454,-31.4855 605.8002,-23.4396 607.3618,-14.8623 608.5306,-5.7156 609.0263,3.9949 608.8998,11.4894 608.1873,20.1982 606.9448,29.2025 605.4553,37.6532 603.7602,45.5554 601.6895,53.7305 599.2245,62.1488 596.5275,69.9648 593.36,77.5078 589.4902,85.0706 585.3757,91.9381 581.5206,97.9442 577.2336,104.4949 572.9397,111.0543 569.3995,116.7062 566.2294,122.451 563.6644,128.2982 561.7375,134.5806 560.728,140.2797 560.3317,146.2265 560.6477,152.0428 561.6497,157.9497 563.087,163.0649 565.0889,168.1856 567.4589,173.3949 569.4064,177.7579 571.1408,182.1214 572.4902,186.7685 573.2034,191.432 573.2747,196.0324 572.888,200.7596 572.3849,205.1725 571.6321,209.4689 570.6712,213.3266 569.6193,217.3313 568.6585,220.9372 567.748,224.1885 566.6597,227.7873 565.6467,230.7607 564.2361,233.9576 562.9019,236.1058 561.0757,238.2087 558.8706,239.9145 556.7285,241.2267 554.4932,242.6278 552.0414,244.1653 549.8798,245.4301 547.4323,246.5891 544.9253,247.379 541.8805,248.1014 539.1627,248.7361 536.3414,249.2298 533.2003,249.334 530.2612,248.8813 527.5082,247.9773 524.6752,246.5418 521.8512,244.551 519.4097,242.5577 516.8954,240.3915 514.5151,238.082 512.1277,235.3223 510.131,232.8825 508.0199,230.3221 505.8008,227.6354 503.8963,225.3347 501.6586,222.6635 499.507,220.1367 497.4133,217.6875 494.7372,214.5896 492.1461,211.6919 489.2643,208.6251 485.9069,205.2299 481.8191,201.3271 477.9311,197.8354 473.4649,194.0809 468.6025,190.2352 463.6079,186.4748 457.7912,182.3148 451.9565,178.3534 447.0391,175.1162 441.6801,171.6 436.8838,168.4058 433.2789,165.7483 429.6356,162.4027 426.6796,158.9121 424.3619,155.3717 422.4687,151.4902 421.0512,147.0934 420.4069,143.4543 420.2158,139.3438 420.5078,135.1841 421.2788,130.8344 422.4512,126.7552 424.0779,122.6005 425.617,119.0884 427.5208,115.0146 429.3842,111.3788 431.8618,107.3958 434.49,103.9977 437.3088,100.8905 440.3606,97.802 444.0057,94.0807 447.0161,90.7108 449.7757,86.9013 452.0706,83.0508 454.7216,78.5857 457.2885,75.0022 460.3366,71.6169 463.6055,68.534 466.6587,65.615 469.6216,62.3255 472.3666,58.3024 474.1607,54.7248 475.7346,50.2463 476.6628,45.7262 477.04,41.2517 477.0258,36.3972 476.8523,31.3066 476.6437,25.5793 476.2739,19.7649 475.6037,13.9877 474.689,7.5902 473.784,0.4755 473.0457,-6.2711 472.3194,-13.7297 471.7125,-21.9486 471.3253,-29.5138 470.944,-37.7927 470.6397,-44.784 470.3723,-51.0072 470.118,-56.9161 469.8604,-62.8432 469.6069,-68.555 469.3285,-74.6434 469.0515,-80.2341 468.7738,-84.5878 468.2399,-89.4982 467.3445,-94.1948 465.9239,-99.1472 464.3488,-103.2297 462.3463,-107.3016 459.8173,-111.2413 457.2794,-114.2562 453.9297,-117.2797 450.6098,-119.527 446.6793,-121.4859 442.4478,-123.1325 438.6169,-124.3793 433.8049,-125.4704 429.6378,-125.8738 425.515,-125.7388 421.289,-125.018 416.9239,-123.7152 412.6078,-122.267 408.2923,-120.7772 403.7459,-118.9516 399.4521,-116.6842 395.3572,-113.8318 392.0751,-110.8701 389.0988,-107.4151 386.6048,-103.7069 384.4776,-99.6281 382.9948,-95.823 381.8723,-91.7375 380.9791,-87.414 379.9963,-82.5298 378.7838,-77.0829 377.4712,-72.9419 375.4093,-68.3741 372.5482,-63.8069 369.804,-60.471 366.3046,-57.1454 362.1135,-54.0406 357.6755,-51.4562 353.0739,-49.2825 347.8441,-47.2732 341.6514,-45.4045 335.9644,-44.0861 329.9831,-43.089 323.3973,-42.412 316.57,-42.144 309.3476,-42.3599 301.6643,-43.1263 295.6953,-43.8741 288.7182,-44.5133 281.7763,-44.7249 274.4274,-44.6851 267.3469,-44.3949 260.2419,-43.643 252.8367,-42.2478 246.3382,-40.399 240.0822,-38.0112 233.4659,-34.7442 227.7268,-31.253 221.6108,-26.9017 216.0542,-22.266 210.7582,-17.099 205.9223,-11.6609 200.2955,-4.8765 195.649,1.0195 190.4903,7.8857 185.1759,14.9913 179.3211,22.631 173.5308,30.1046 167.4586,37.7007 161.4617,45.0413 155.2614,52.6643 148.9646,60.4163 143.4451,67.1801 139.2944,72.2493 134.753,77.7792 130.3315,83.1563 126.5388,87.767 122.519,92.6419 119.0394,96.8579 115.3752,101.2939 112.2159,105.1136 109.0593,108.9201 105.743,112.8292 102.7029,116.1203 99.7832,118.8105 96.2728,121.3624 92.5126,123.3609 88.408,124.9669 84.6383,126.1048 80.6447,126.9542 76.2637,127.2039 72.7805,126.8191 68.9511,125.719 65.65,124.0709 62.7169,121.9022 60.2612,119.4037 58.0907,116.3658 56.2889,112.7738 54.9433,109.0195 53.8579,105.1852 52.7761,100.3932 52.0353,95.9302 51.4763,90.9146 51.2167,85.8636 51.3216,79.6926 51.789,74.1069 52.6125,67.9628 53.7936,61.1731 55.0304,55.1191 56.6109,47.7594 58.1891,40.4177 59.8346,32.7679 61.5408,24.8201 63.2137,16.9998 65.1014,8.1229 67.092,-1.4871 68.7083,-9.5888 70.3952,-18.3698 72.1466,-27.8604 74.0531,-38.5819 75.7192,-48.056 77.4035,-57.6853 79.212,-68.0192 81.2596,-79.615 83.0758,-89.8191 84.9317,-100.1709 86.9098,-111.1654 88.8845,-122.192 90.8743,-133.4162 92.6136,-143.6653 94.0324,-153.4584 95.0398,-162.8097 95.6461,-171.3137 95.9534,-180.3281 95.8987,-188.1756 95.4737,-196.1282 94.5224,-204.4966 93.3089,-211.3658 91.6602,-218.2238 89.646,-225.0301 87.7452,-230.5513 85.3347,-236.6558 82.9651,-241.8715 80.3076,-247.0213 77.6014,-251.8951 74.9337,-256.543 72.1846,-261.1879 69.7555,-265.1687 67.235,-269.1026 64.6973,-272.7627 62.0115,-276.0434 58.9354,-278.9552 55.4663,-281.4157 52.6859,-283.0183 49.3532,-284.6582 45.6021,-286.0813 42.2915,-286.8845 38.9551,-287.2694 35.1226,-287.2094 32.0615,-286.7574 28.7929,-285.8528 25.3641,-284.1945 23.1828,-282.535 21.0646,-280.1965 19.3305,-277.2346 18.2215,-274.284 17.3132,-271.4782 16.1689,-267.9062 15.1258,-264.3445 14.065,-260.0331 12.9631,-255.0784 12.1083,-250.9514 11.1298,-245.7562 10.2171,-240.1938 9.2683,-233.6465 8.4771,-227.6208 7.6975,-220.9199 7.0199,-214.2653 6.256,-206.5511 5.5541,-198.8553 4.8947,-190.8282 4.2492,-182.913 3.5522,-174.3355 2.815,-165.0457 2.0616,-154.992 1.5114,-147.0026 0.7988,-136.39 0.2025,-126.9842 -0.4206,-116.8808 -1.0501,-106.582 -1.652,-96.6021 -2.3574,-84.8114 -2.9722,-74.4309 -3.5895,-63.8709 -4.241,-52.5666 -4.9292,-40.4952 -5.5543,-29.4005 -6.2135,-17.5513 -6.9375,-4.3642 -7.592,7.7824 -8.2143,19.4654 -8.8364,31.2854 -9.5205,44.5056 -10.1671,57.2452 -10.7786,69.4797 -11.4192,82.4938 -12.118,96.9651 -12.715,109.5922 -13.3072,122.3352 -13.9219,135.8703 -14.5612,150.2128 -15.1633,163.9923 -15.7412,177.1807 -16.4481,192.5366 -17.1084,205.8939 -17.8679,220.0446 -18.6437,233.3191 -19.5395,247.4291 -20.4014,260.8462 -21.1026,271.8148 -21.8417,283.5128 -22.549,294.7581 -23.29,306.6135 -23.867,315.9244 -24.542,326.8692 -25.099,335.9468 -25.6334,344.6784 -26.1463,353.4957 -26.5975,362.3311 -26.8201,371.0825 -26.6204,377.8413 -25.9783,384.636 -24.7875,391.4678 -22.8563,398.5462 -20.5506,404.5421 -18.0601,409.535 -14.818,414.5868 -11.0442,419.1174 -6.7751,423.132 -1.8127,426.766 3.3133,429.6566 8.4504,432.0968 14.1195,434.3649 20.3758,436.3073 26.5712,437.6735 32.5223,438.38 39.4545,438.4353 45.5049,437.8597 51.9698,436.7199 58.2383,435.2236 65.6426,432.9865 72.19,430.6528 78.9196,428.0501 86.1167,424.8657 93.3745,421.1392 100.9869,416.6073 108.0132,411.6725 114.7125,406.1107 121.3374,399.6124 126.9655,393.1638 132.2912,386.2009 137.6759,378.4148 142.8436,370.2076 148.299,360.7362 153.0509,352.3574 158.0495,343.3395 162.5835,334.4554 167.6508,323.8321 171.8553,314.9767 176.6085,305.0084 181.6593,294.6867 186.2357,285.741 191.1788,276.9018 196.7234,268.2401 202.4805,260.6103 208.7261,253.6308 215.1135,247.5881 222.2679,241.791 230.1925,236.3281 237.6944,231.9722 245.8869,227.9977 255.2055,224.3321 263.4364,221.6279 272.2545,219.2497 280.7703,217.4457 289.8534,215.9525 299.0492,215.1203 308.6801,215.0256 317.7155,215.6931 327.0087,217.1298 334.8083,218.828 343.6868,221.3154 351.5571,223.8427 359.7176,226.6273 368.0894,229.843 375.9027,233.0791 383.2387,236.1554 390.8656,239.4086 398.752,242.8811 406.1376,246.2646 413.7607,249.8984 420.1805,253.0814 427.8296,257.0626 433.8913,260.476 441.0259,264.9198 446.647,268.7618 453.2341,273.6808 458.3588,277.8618 463.7075,282.6328 468.5948,287.5302 472.9694,292.552 477.0185,297.927 480.3408,303.1298 482.9715,308.184 485.147,313.643 486.7621,319.5114 487.7133,325.7286 487.938,330.5262 487.6796,336.1049 486.8157,341.8308 485.3857,347.0629 483.5228,351.7866 481.1845,356.5563 478.3452,361.3892 475.2758,365.7918 471.8539,369.9854 468.2899,373.7587 463.8042,377.8877 459.6197,381.3576 455.1319,384.8513 450.0153,388.5804 444.1845,392.514 437.6516,396.637 432.3154,399.9112 425.4191,404.1161 418.8737,408.0229 411.3025,412.4104 403.8135,416.6075 396.471,420.6329 388.5236,424.9783 379.9378,429.668 371.5461,434.2481 363.3929,438.6964 354.6198,443.4788 345.2397,448.5936 336.6331,453.33 327.4314,458.4088 317.596,463.8371 308.0461,469.1048 298.8115,474.1965 288.9283,479.6532 277.8845,485.7975 268.1907,491.1907 258.3578,496.6627 246.8433,503.0689 237.2967,508.3828 226.0175,514.6631 215.1335,520.7222 204.6666,526.5463 192.9566,533.0594 181.6657,539.3281 169.6698,545.9844 159.2752,551.7485 147.0212,558.5414 135.8174,564.7501 122.7102,572.0096 111.277,578.3392 99.1408,585.0661 87.5515,591.5138 74.0364,599.0707 62.2893,605.6823 48.5983,613.4236 36.6742,620.1322 23.9841,627.1431 11.8487,633.8406 -0.9998,640.938 -13.0853,647.5883 -25.1809,654.2066 -36.5644,660.4084 -47.7769,666.5053 -57.7844,671.9394 -66.7437,676.7977 -75.7336,681.6669 -85.2478,686.8141 -93.5835,691.3156 -101.2086,695.4249 -108.8753,699.5541 -115.7422,703.2483 -122.4973,706.8736 -129.1085,710.408 -134.9661,713.5141 -140.1555,716.2136 -145.7904,719.0629 -150.4355,721.3287 -155.1738,723.4972 -159.5682,725.1669 -164.3079,726.3893 -168.4329,726.916 -172.5656,726.8909 -176.5329,726.2766 -180.5941,725.0168 -184.2041,723.3704 -188.1795,720.8951 -191.4615,718.3663 -195.21,715.0536 -198.409,711.8545 -201.3827,708.5529 -204.7595,704.3343 -207.9505,699.8997 -211.2391,694.791 -214.2793,689.4928 -216.903,684.3494 -219.6552,678.2214 -222.1492,671.7615 -224.6974,663.8525 -226.3568,657.6393 -228.0654,649.9496 -229.5261,641.8796 -230.7828,633.0576 -231.7053,624.3539 -232.383,615.8087 -232.916,606.5355 -233.2946,596.0206 -233.4376,587.184 -233.414,576.6238 -233.1754,565.8611 -232.7492,555.3921 -232.2587,545.249 -231.7512,534.3663 -231.2534,523.2776 -230.7831,512.5585 -230.2888,501.0878 -229.7965,489.4313 -229.2968,476.9979 -228.8668,465.6143 -228.4234,452.8773 -228.0432,441.2039 -227.6533,428.7662 -227.229,414.9133 -226.8884,402.8161 -226.5682,390.6049 -226.0056,376.3621 -225.0673,363.9821 -224.0737,351.4853 -223.0525,338.199 -222.0513,322.0732 -221.3757,310.5406 -220.6229,297.5481 -219.757,282.4027"/>
	<!-- Raw distance reference points -->
	<polyline id="dist" fill="none" stroke="none" stroke-width="0" points="6245.5356,7.3298 16.6477,7.3228 30.8265,7.3214 45.0877,7.3224 59.4343,7.3204 73.8669,7.3148 88.381,7.3142 102.9979,7.3104 117.7263,7.3023 132.5485,7.3012 147.48,7.2979 162.4816,7.2998 177.5466,7.2941 192.6763,7.293 207.8646,7.2947 223.1136,7.2968 238.4496,7.2982 253.8797,7.3083 269.3743,7.3048 284.9352,7.3031 300.5597,7.3061 316.2521,7.2971 332.0077,7.2953 347.8212,7.2945 363.6878,7.3234 379.586,7.3889 395.5322,7.4799 411.5202,7.6202 427.4788,7.7579 442.8737,7.9126 457.6156,8.0515 471.7774,8.1861 485.3754,8.317 498.4345,8.424 511.0452,8.5681 523.2997,8.6777 535.2577,8.8043 546.9665,8.9055 558.4816,9.0076 569.8082,9.1081 580.9377,9.2251 591.7621,9.3513 602.0456,9.4717 611.7548,9.6101 620.9597,9.7533 629.7855,9.8603 638.2512,9.9616 646.3439,10.0342 654.1029,10.1026 661.5607,10.167 668.5412,10.2351 674.9241,10.2894 680.7141,10.3333 685.9737,10.3769 690.73,10.4194 695.0019,10.4575 698.887,10.4908 702.6473,10.5111 706.3165,10.5271 709.9674,10.5351 713.4656,10.5228 716.801,10.4979 720.0138,10.4561 723.123,10.3954 726.7449,10.3246 731.1597,10.2464 736.291,10.1736 741.5735,10.0987 746.3298,10.0208 749.4726,9.9698 753.7495,9.9331 757.6018,9.8846 761.1021,9.8277 764.5771,9.7563 768.1639,9.6651 771.9943,9.5834 776.0532,9.4947 780.4026,9.4036 785.0533,9.332 789.894,9.2546 795.0626,9.1848 800.6116,9.1034 806.5625,9.0298 812.903,8.9435 819.4075,8.8732 826.6703,8.815 833.8815,8.8168 841.8858,8.8898 847.5907,8.9943 852.9609,9.0896 858.501,9.1598 864.2451,9.2418 870.1591,9.3277 876.28,9.4361 882.7638,9.5778 889.5844,9.7804 896.7045,9.9783 904.1152,10.1925 911.8288,10.4439 919.8329,10.6869 928.2124,10.9303 936.9016,11.2171 945.9036,11.535 955.1955,11.859 964.429,12.1743 973.8148,12.504 983.3663,12.8826 993.1374,13.2329 1003.1383,13.5619 1013.34,13.8939 1023.7741,14.2534 1034.394,14.5704 1045.1917,14.8924 1056.2301,15.1902 1067.4672,15.4748 1078.8431,15.7581 1090.3832,16.0065 1102.1122,16.233 1114.011,16.4596 1126.0238,16.6971 1138.192,16.9299 1150.5262,17.1729 1163.0011,17.4068 1175.6218,17.647 1188.3694,17.8805 1201.2421,18.1029 1214.2424,18.353 1227.3806,18.5942 1240.6438,18.8464 1254.0284,19.0899 1267.5319,19.3571 1281.139,19.6113 1294.8699,19.8543 1308.6958,20.1202 1322.4397,20.3947 1335.5104,20.6336 1347.9136,20.8764 1359.682,21.1019 1370.8223,21.3296 1381.3544,21.5212 1391.2971,21.7106 1400.7435,21.8828 1410.0039,22.0576 1419.176,22.2526 1428.192,22.4099 1436.9664,22.5764 1445.4277,22.74 1453.5424,22.9129 1461.2716,23.0555 1468.4672,23.1945 1475.0287,23.3015 1480.9308,23.421 1486.208,23.5173 1490.8632,23.6047 1495.0149,23.6685 1498.6085,23.7254 1501.8074,23.7633 1504.7775,23.7763 1507.3842,23.7741 1509.7258,23.7622 1512.3204,23.7448 1515.7236,23.725 1518.3627,23.7149 1523.3002,23.7268 1528.6748,23.7606 1533.8276,23.7962 1538.9238,23.8379 1543.981,23.8749 1549.0197,23.9076 1554.0765,23.9192 1559.1876,23.9142 1564.4381,23.8959 1570.2384,23.8476 1575.6794,23.7789 1580.9718,23.6923 1585.9402,23.5878 1590.9558,23.4592 1596.2336,23.3345 1601.7587,23.1803 1607.5339,22.9835 1613.6481,22.7622 1620.1375,22.5733 1626.9214,22.4258 1634.0109,22.2716 1641.0669,22.0894 1648.2092,21.9334 1655.3325,21.7783 1662.4146,21.6241 1669.6212,21.5234 1677.2816,21.456 1685.3579,21.4392 1693.4358,21.47 1701.8481,21.5764 1710.3264,21.7238 1718.9739,21.9758 1727.8909,22.2836 1737.0647,22.6822 1746.2566,23.0905 1755.3416,23.4925 1764.3347,23.7974 1773.2329,24.0755 1782.123,24.3511 1791.1044,24.5423 1800.1498,24.7277 1809.1469,24.8387 1818.0344,24.9141 1826.7941,24.9414 1835.4486,24.9501 1844.0415,24.9039 1852.9022,24.8158 1861.8658,24.7027 1870.8761,24.5408 1879.8481,24.3286 1888.9891,24.1252 1898.0353,23.8503 1907.0491,23.5429 1916.0024,23.2697 1924.6965,23.0646 1933.5288,22.8758 1942.2794,22.7437 1950.9233,22.6136 1959.2843,22.5513 1967.7129,22.5311 1976.0021,22.5555 1984.0393,22.6357 1991.99,22.7199 1999.4465,22.8131 2006.3983,22.9021 2012.8066,22.9793 2019.1078,23.0454 2026.265,23.1817 2033.3044,23.3828 2040.8741,23.6169 2047.1141,23.9019 2053.0098,24.1961 2058.5964,24.4435 2064.051,24.6796 2069.2505,24.9214 2074.2878,25.1319 2079.2454,25.3433 2084.1189,25.5321 2088.998,25.709 2094.033,25.8749 2099.2056,26.0427 2104.3191,26.1856 2109.219,26.3108 2113.7144,26.4022 2117.6838,26.4853 2121.333,26.5391 2124.8,26.5719 2128.1321,26.5993 2131.3342,26.5986 2134.4956,26.5808 2137.4241,26.5595 2140.1846,26.5168 2142.6685,26.4616 2145.0994,26.409 2147.6016,26.3502 2150.092,26.2737 2152.897,26.2007 2156.0378,26.1205 2158.7012,26.0447 2162.3003,25.962 2166.2681,25.8878 2169.2825,25.7979 2173.4302,25.7005 2177.5598,25.6269 2181.5852,25.5659 2184.7341,25.5189 2188.6145,25.4954 2192.1609,25.4846 2195.4724,25.4775 2198.7166,25.4741 2202.0081,25.4844 2205.3093,25.4981 2208.6089,25.5115 2211.9226,25.5239 2215.2515,25.5314 2218.5588,25.5381 2221.9048,25.5429 2225.3347,25.5506 2229.0332,25.5582 2233.1575,25.5637 2237.6533,25.5733 2242.5134,25.5891 2247.7273,25.5989 2253.3062,25.6181 2259.2424,25.6271 2265.6848,25.6398 2272.3608,25.6539 2279.2598,25.6632 2286.0981,25.6599 2292.6797,25.6457 2298.8152,25.6378 2304.3291,25.6328 2309.2236,25.6256 2313.7214,25.6324 2317.9983,25.6472 2322.1553,25.6668 2326.2524,25.6863 2330.3713,25.7108 2334.4441,25.7265 2338.615,25.7347 2342.9434,25.7365 2347.3918,25.7253 2351.8784,25.7075 2356.3557,25.6912 2360.8169,25.6691 2365.0662,25.6449 2369.4033,25.6233 2373.5928,25.6191 2377.8057,25.6231 2382.2205,25.6383 2386.8301,25.6724 2391.5903,25.7111 2396.3591,25.7251 2401.0383,25.7254 2405.6584,25.6951 2410.2795,25.6537 2414.8894,25.6009 2419.4646,25.5155 2424.0005,25.4118 2428.5615,25.3031 2433.229,25.1674 2438.0222,25.0199 2442.9182,24.8946 2447.895,24.7458 2452.8384,24.634 2457.6565,24.5533 2462.4597,24.4311 2467.4856,24.2775 2472.8679,24.0699 2478.6465,23.8475 2484.7744,23.6001 2491.27,23.3042 2498.1099,22.9738 2505.3137,22.6551 2512.866,22.3356 2520.905,22.0324 2528.9854,21.7735 2536.7307,21.5295 2543.8501,21.3462 2550.5261,21.2064 2556.7803,21.1172 2562.7241,21.0299 2568.4421,20.9565 2573.9832,20.8857 2579.3252,20.8286 2584.4385,20.7911 2589.2964,20.7609 2593.9534,20.727 2598.5146,20.6934 2603.0527,20.658 2607.6333,20.6303 2612.248,20.6139 2616.8594,20.6022 2621.4419,20.5974 2625.9929,20.6001 2630.5859,20.6025 2634.865,20.613 2640.5093,20.6374 2645.5222,20.6704 2649.9333,20.6927 2654.7986,20.7148 2659.6592,20.74 2664.5603,20.7663 2669.5049,20.7969 2674.4204,20.8042 2679.1089,20.8066 2683.4641,20.7898 2687.4617,20.7334 2691.2559,20.6597 2695.1912,20.5756 2699.543,20.494 2703.832,20.4188 2708.283,20.3587 2712.6917,20.2993 2717.2388,20.2483 2722.0781,20.1858 2727.2039,20.0994 2732.4312,20.0546 2737.6035,20.0082 2742.6829,19.9494 2747.6648,19.8875 2752.6985,19.8204 2757.9075,19.7437 2763.2834,19.6691 2768.8633,19.5959 2774.7063,19.5089 2781.1162,19.4159 2787.4863,19.3194 2794.0784,19.2286 2801.0679,19.1339 2807.9724,19.0304 2814.843,18.9013 2821.8127,18.7396 2828.8865,18.5949 2835.9155,18.4155 2842.8662,18.2273 2849.8738,17.9993 2857.0615,17.756 2864.3154,17.4953 2872.2922,17.2002 2880.4373,16.9265 2887.9509,16.6369 2895.8315,16.3189 2903.1938,16.0248 2910.9194,15.6752 2918.4331,15.345 2926.3098,14.9881 2934.1196,14.6595 2942.2874,14.2451 2950.6995,13.8853 2959.2944,13.4659 2968.1743,13.0187 2977.3474,12.5149 2986.8323,12.0303 2996.585,11.5904 3006.5576,11.189 3016.3718,10.7897 3025.4819,10.3983 3033.8801,10.0814 3041.6399,9.8575 3048.8003,9.6153 3055.447,9.4006 3061.7366,9.2282 3067.7576,9.0538 3073.5122,8.917 3078.9934,8.7815 3084.2158,8.6771 3089.1565,8.5783 3093.8179,8.4872 3098.2817,8.4005 3102.6204,8.3277 3106.771,8.2446 3110.7761,8.1599 3114.7061,8.0684 3118.9905,7.9845 3123.5828,7.9028 3128.3037,7.8336 3133.2014,7.8045 3138.3071,7.8066 3143.2334,7.844 3147.6587,7.8951 3151.7527,7.9384 3155.6265,7.9808 3159.3669,8.0275 3163.3054,8.0707 3167.3987,8.1201 3171.7122,8.1828 3176.259,8.254 3181.095,8.3379 3186.2415,8.4312 3191.7065,8.5517 3197.4995,8.6668 3203.6223,8.7928 3210.1267,8.9485 3216.9875,9.0875 3224.1477,9.2684 3231.6355,9.4621 3239.4363,9.6716 3247.5242,9.9264 3255.9272,10.1996 3264.5635,10.513 3273.4614,10.8391 3282.6169,11.0937 3292.0249,11.3493 3301.6772,11.6136 3311.5686,11.8783 3321.6812,12.088 3331.9656,12.2677 3342.4563,12.4412 3353.1504,12.6102 3364.0452,12.7277 3375.1121,12.8194 3386.2805,12.8839 3397.4797,12.9189 3408.3438,12.9179 3418.7617,12.8965 3428.6802,12.8384 3438.1003,12.7466 3447.0554,12.6302 3455.6177,12.4753 3463.8875,12.3266 3472.1516,12.1522 3480.2283,11.963 3487.822,11.793 3495.4441,11.62 3502.5593,11.4304 3509.3826,11.2707 3516.2136,11.0938 3522.4553,10.9341 3528.3762,10.7711 3534.0071,10.6262 3539.3508,10.4982 3544.4016,10.3925 3549.1487,10.319 3553.604,10.252 3557.8228,10.1901 3561.9033,10.123 3565.8899,10.0406 3569.7659,9.9403 3573.4951,9.8564 3577.1223,9.7559 3580.5728,9.6435 3583.8745,9.5405 3586.9939,9.4343 3590.6282,9.2974 3593.7385,9.1931 3598.9387,9.0995 3606.3445,9.0693 3609.323,9.0952 3612.8948,9.1309 3615.9138,9.1583 3618.9978,9.1688 3622.2314,9.1818 3625.7622,9.1928 3629.6355,9.191 3633.8367,9.1944 3638.3953,9.2091 3643.3096,9.2228 3648.5884,9.2524 3654.2256,9.2885 3660.2229,9.3374 3666.5862,9.3723 3673.3081,9.4077 3680.3201,9.433 3687.6777,9.4428 3695.3635,9.4476 3703.387,9.4444 3711.7246,9.4296 3720.3215,9.4237 3729.1853,9.4167 3738.3208,9.4083 3747.7227,9.4037 3757.3826,9.3995 3767.2913,9.3978 3777.4114,9.3912 3787.7251,9.3932 3798.2485,9.3949 3808.9763,9.397 3819.9053,9.4022 3831.0334,9.4023 3842.3569,9.4046 3853.8677,9.4058 3865.5579,9.4098 3877.4236,9.411 3889.4214,9.4185 3901.5686,9.4333 3913.8728,9.413 3926.3308,9.419 3938.9363,9.423 3951.6863,9.4327 3964.5784,9.4356 3977.6069,9.4281 3990.7659,9.4291 4004.0588,9.4347 4017.4834,9.4341 4031.0344,9.4355 4044.707,9.4337 4058.4951,9.4338 4072.3865,9.4365 4086.355,9.4346 4100.4263,9.4416 4114.5933,9.4368 4128.5981,9.4433 4142.0757,9.4526 4154.9199,9.4621 4167.1597,9.471 4178.8813,9.4777 4190.1523,9.4816 4200.9751,9.4843 4211.3613,9.4932 4221.3481,9.5 4230.9478,9.5046 4240.1665,9.5069 4249.0034,9.5144 4257.4404,9.5205 4265.4385,9.5187 4272.9678,9.5057 4280.0669,9.4778 4286.8257,9.447 4293.3062,9.4093 4299.6987,9.3832 4306.4863,9.3604 4312.8823,9.3566 4319.2021,9.3859 4325.8604,9.4325 4332.019,9.5044 4338.1074,9.6077 4344.2129,9.7252 4350.4507,9.8621 4356.6309,10.0236 4362.8799,10.1702 4369.124,10.2985 4375.3315,10.4161 4381.6768,10.5035 4388.1709,10.5927 4394.8779,10.685 4401.8823,10.7936 4409.2012,10.9194 4416.9609,11.068 4424.9331,11.2462 4433.2622,11.4533 4441.8535,11.7041 4450.5518,11.9583 4459.3037,12.2221 4468.2417,12.5129 4477.3843,12.7861 4486.8203,13.0651 4496.5181,13.3885 4506.5303,13.7503 4516.9243,14.1836 4527.5557,14.5912 4538.1636,14.9941 4548.7227,15.3468 4559.394,15.7525 4570.2153,16.0936 4581.2266,16.449 4592.1411,16.8078 4602.7051,17.1174 4612.8447,17.4317 4622.7715,17.7763 4632.54,18.1079 4642.1206,18.4178 4651.5884,18.708 4661.0161,19.0183 4670.4224,19.3299 4679.6636,19.6068 4688.9805,19.884 4698.3164,20.1778 4707.7124,20.4269 4717.1567,20.685 4726.7485,20.9257 4736.4321,21.1644 4746.0571,21.3913 4755.5508,21.6162 4764.7427,21.805 4773.9351,21.9851 4783.0498,22.1217 4792.0342,22.284 4800.8252,22.4188 4809.4126,22.5563 4817.9253,22.6797 4826.3677,22.7803 4834.7275,22.8561 4843.0063,22.9241 4851.209,22.9828 4859.3423,23.0171 4867.4028,23.0379 4875.3389,23.0447 4883.1621,23.0282 4890.8623,22.9941 4898.478,22.9462 4905.9917,22.8858 4913.4126,22.7988 4920.7881,22.7363 4928.0361,22.6648 4935.0796,22.5904 4941.9907,22.5116 4948.5161,22.4202 4954.8052,22.3232 4961.0303,22.2282 4967.0337,22.1099 4972.9893,21.97 4978.9814,21.8121 4986.0493,21.6864 4992.4663,21.5465 4998.646,21.4118 5004.52,21.3168 5010.3706,21.249 5015.7358,21.1788 5021.0581,21.0932 5026.3608,21.0083 5031.6714,20.9135 5037.0229,20.8189 5042.4492,20.7086 5048.0425,20.6116 5053.9062,20.5178 5060.1333,20.4154 5066.7188,20.2967 5073.6792,20.1597 5081.0112,20.0523 5088.7065,19.9344 5096.7461,19.8317 5105.0596,19.7272 5113.6172,19.6349 5122.3555,19.552 5131.3877,19.4736 5140.7051,19.4098 5150.2583,19.3605 5160.0337,19.3241 5170.0483,19.3069 5180.2559,19.3056 5190.624,19.3198 5201.1548,19.3596 5211.8496,19.4105 5222.7412,19.4469 5233.8369,19.4663 5245.1357,19.4502 5256.624,19.4142 5268.2925,19.361 5280.1309,19.2707 5292.0996,19.1382 5304.2305,19.0066 5316.5171,18.8088 5328.9585,18.5968 5341.5508,18.3586 5354.3086,18.0596 5367.2168,17.7443 5380.2705,17.3737 5393.478,17.0134 5406.8325,16.5392 5420.3164,16.0894 5433.9346,15.546 5447.688,15.0843 5461.5732,14.6178 5475.5415,14.223 5489.6191,13.8108 5503.8101,13.4992 5518.1099,13.1845 5532.5039,12.9615 5546.978,12.762 5561.542,12.6114 5576.2012,12.5066 5590.7266,12.4583 5604.5166,12.4526 5617.4893,12.4827 5629.6699,12.5398 5641.0923,12.5971 5651.8232,12.6546 5662.0332,12.7061 5671.8696,12.747 5681.3652,12.754 5690.5015,12.7559 5699.2275,12.7421 5707.4424,12.7217 5715.1079,12.6925 5722.2671,12.6506 5728.938,12.6091 5735.1226,12.5658 5740.8813,12.5062 5746.3286,12.4494 5751.5132,12.3889 5756.3657,12.3194 5760.8223,12.2318 5765.0244,12.1469 5768.833,12.0567 5772.6426,11.959 5776.8389,11.8392 5781.7661,11.6997 5787.2749,11.5275 5792.9375,11.3824 5798.5781,11.2754 5804.3281,11.2231 5810.479,11.1668 5815.603,11.0956 5820.9868,11.0081 5826.6797,10.9068 5832.7061,10.7878 5839.0811,10.6718 5845.7881,10.5258 5852.7046,10.3765 5859.8994,10.1948 5867.4092,10.0536 5875.2388,9.8877 5883.4009,9.7329 5891.7812,9.5671 5900.373,9.4217 5909.2964,9.2683 5918.5186,9.1075 5928.0908,8.9393 5937.8735,8.8034 5947.9102,8.6117 5958.1533,8.3946 5968.6011,8.1971 5979.2686,8.0162 5990.1392,7.8281 6001.2168,7.6988 6012.4912,7.6118 6023.9561,7.5215 6035.5898,7.4477 6047.4297,7.3795 6059.4189,7.3382 6071.5664,7.3005 6083.8203,7.2813 6096.3101,7.283 6108.8789,7.2781 6121.5854,7.2749 6134.4268,7.263 6147.4414,7.262 6160.4839,7.264 6173.6665,7.28 6186.9785,7.2914 6200.4424,7.2993 6214.0503,7.3065 6227.731,7.3166 6241.5186,7.3199"/>
</svg>
