<?xml version="1.0" encoding="utf-8"?>
<!-- Track map generated with TinyPedal -->
<svg viewBox="-255.0328 -486.1544 847.7240 1233.8434" version="1.1" xmlns="http://www.w3.org/2000/svg">
	<title>Bahrain International Circuit</title>
	<!-- Sector coordinates index -->
	<desc>180,441</desc>
	<!-- Raw global coordinates -->
	<polyline id="map" fill="none" stroke="black" stroke-width="10" points="-219.4925,268.4249 -218.6427,249.8682 -218.0662,236.4978 -217.4939,223.0347 -216.8639,208.121 -216.3506,195.8395 -215.7746,182.1118 -215.129,166.9146 -214.5875,154.4071 -213.9762,140.4343 -213.3513,126.3938 -212.7174,112.3096 -212.0775,98.1993 -211.4251,84.0721 -210.6945,68.5219 -210.0958,55.7931 -209.4204,41.647 -208.6712,26.0997 -208.0636,13.3395 -207.4028,-0.9007 -206.7687,-15.206 -206.1547,-29.5747 -205.5506,-44.0052 -204.9582,-58.4962 -204.3647,-73.0461 -203.7647,-87.6527 -203.1537,-102.314 -202.5299,-117.0279 -201.8439,-133.273 -201.2852,-146.6099 -200.6009,-162.9637 -200.0455,-176.3871 -199.3771,-192.8451 -198.8356,-206.3517 -198.2385,-221.4011 -197.6516,-236.4926 -197.0818,-251.6265 -196.5309,-266.8016 -195.9961,-282.0177 -195.48,-297.2715 -194.9368,-313.8238 -194.5142,-326.7274 -194.0349,-340.1508 -193.4908,-353.7691 -192.9722,-365.1753 -192.508,-374.7376 -192.0019,-384.6404 -191.442,-394.6837 -190.9782,-402.262 -190.3978,-410.7772 -189.8887,-417.1689 -189.1846,-424.3467 -188.5008,-429.7574 -187.4679,-435.8376 -186.4048,-440.3866 -184.975,-444.9928 -183.2589,-449.1198 -181.2676,-452.7762 -178.996,-455.9947 -176.4379,-458.7997 -173.612,-461.2144 -170.5535,-463.2126 -167.3026,-464.7213 -163.9283,-465.699 -160.1742,-466.1544 -157.1421,-466.0569 -153.8847,-465.4832 -150.5078,-464.3347 -147.9445,-463.0421 -145.2713,-461.3064 -142.4369,-459.0892 -140.1221,-457.0551 -137.488,-454.5381 -134.7334,-451.6881 -131.6024,-448.1377 -128.934,-444.9052 -125.834,-440.9868 -122.2086,-436.2857 -118.9556,-432.2434 -115.0182,-427.8754 -110.7839,-423.9018 -106.2526,-420.4168 -100.9694,-417.19 -95.8191,-414.8051 -90.8905,-413.0132 -85.0514,-411.4502 -78.8679,-410.283 -72.4081,-409.6013 -65.1611,-409.5589 -59.2416,-410.0999 -52.7125,-411.3377 -46.0753,-413.1792 -38.5887,-415.6901 -32.2468,-417.8625 -24.9384,-420.2761 -17.3351,-422.6013 -9.4194,-424.7366 -1.201,-426.6499 7.3059,-428.3016 16.9921,-429.6971 25.1103,-430.5452 35.1482,-431.2035 44.4215,-431.4259 53.8893,-431.3214 62.5654,-430.9458 72.3663,-430.2282 82.33,-429.2437 93.473,-427.9073 102.7295,-426.6419 113.1552,-425.0695 124.7433,-423.168 134.2536,-421.4768 144.896,-419.4768 156.7576,-417.16 166.5821,-415.1756 177.6297,-412.917 188.8215,-410.6451 201.2997,-408.1552 211.6355,-406.118 223.2472,-403.8443 234.9885,-401.5523 248.0524,-399.0167 258.8573,-396.9592 270.9583,-394.7061 283.1162,-392.4873 295.3163,-390.2958 307.6194,-388.0867 320.0187,-385.8298 333.7655,-383.2865 346.3576,-380.9139 357.7668,-378.7307 370.5289,-376.2689 383.3822,-373.7829 397.6276,-371.0426 409.3676,-368.8118 423.8179,-366.1013 435.7155,-363.8898 448.7162,-361.4679 461.0001,-359.1543 473.4748,-356.7469 482.9034,-354.8553 492.6678,-352.8397 502.6177,-350.701 510.1743,-348.972 517.9917,-347.0193 525.2899,-344.9985 532.1235,-342.888 539.086,-340.4177 544.3275,-338.2225 550.1417,-335.2791 554.392,-332.6496 558.5891,-329.5274 562.2198,-326.1718 565.2769,-322.5452 567.7591,-318.6228 569.7015,-314.4565 571.1754,-310.0067 572.2407,-304.8116 572.6855,-299.8698 572.6912,-295.2748 572.2194,-289.4625 571.4312,-284.5565 570.0753,-278.9961 567.9922,-272.8102 565.4927,-267.2258 562.7552,-262.3606 559.1766,-257.2452 555.0724,-252.4444 549.9437,-247.3682 545.2736,-243.3329 539.7834,-238.7799 533.9861,-234.1573 527.266,-228.9924 520.86,-224.2186 514.8686,-219.8446 508.0048,-214.8482 500.9612,-209.6679 493.0395,-203.7429 486.511,-198.7324 479.2806,-192.9935 472.0001,-186.9891 464.6822,-180.7041 457.3422,-174.1327 450.0045,-167.2615 442.6973,-160.0765 435.4861,-152.5333 428.5009,-144.5769 421.2761,-135.3153 415.097,-126.4056 409.8012,-118.0549 404.1589,-108.7806 398.7584,-99.9137 393.0132,-90.79 387.8199,-83.0849 383.0486,-76.6453 376.924,-69.511 371.6299,-64.2751 365.4467,-59.0582 358.9065,-54.5005 351.3487,-50.2665 344.8741,-47.3659 336.6261,-44.455 329.64,-42.6442 321.671,-41.25 312.6806,-40.4289 305.1674,-40.2698 296.6665,-40.5427 288.0027,-41.1533 279.2676,-41.8512 269.7176,-42.2632 261.9804,-42.0745 253.5161,-41.2984 244.4377,-39.6572 237.2418,-37.726 229.5123,-34.9128 221.2794,-31.051 214.7694,-27.2971 207.0767,-21.9732 201.0129,-17.0076 194.511,-10.9117 188.1845,-4.3197 182.035,2.732 176.0598,10.2164 170.2483,18.1006 164.5645,26.3449 158.448,35.7109 153.5242,43.6123 147.5816,53.3827 142.9462,61.1081 138.0791,69.1705 133.5114,76.6404 129.1909,83.5547 125.0591,89.969 120.6771,96.4685 117.1965,101.3742 113.388,106.4461 109.5837,111.1372 105.7247,115.3932 101.7606,119.1485 97.2671,122.6317 93.5002,124.9465 89.2514,126.9416 84.5676,128.424 80.3726,129.1311 76.6758,129.2366 72.6843,128.7661 68.8967,127.7156 65.072,125.9322 61.973,123.812 59.4499,121.5216 56.9069,118.5728 54.6354,115.2076 52.6669,111.4198 51.0642,107.2363 49.9118,102.7142 49.2616,97.9207 49.109,92.8764 49.3516,87.5539 49.8196,81.8742 50.4363,75.8464 51.2383,69.4873 52.2328,62.8117 53.3891,55.8906 54.6572,48.8832 56.1857,40.9702 57.5363,34.2718 59.127,26.5954 60.9523,17.8669 62.488,10.5057 64.4132,1.2457 66.0414,-6.5369 68.1172,-16.2535 69.8946,-24.3071 72.0017,-33.4218 74.2836,-42.6985 76.7356,-52.1345 79.3285,-61.7328 82.0015,-71.5061 84.9226,-82.4825 87.1934,-91.6605 89.4672,-102.0342 91.3818,-112.5981 92.9904,-123.3722 94.3213,-134.3405 95.419,-146.6222 96.0529,-156.8284 96.352,-168.2734 96.1382,-179.3985 95.4605,-189.9213 94.409,-199.8261 92.8151,-210.0209 91.0009,-218.699 88.8665,-226.8648 86.6212,-233.7812 83.7725,-240.9928 80.2556,-248.3597 77.1225,-253.9694 73.4259,-259.7607 69.5576,-265.0745 65.5682,-269.8801 61.4788,-274.1538 57.2925,-277.8629 53.027,-280.9926 48.2796,-283.7447 44.387,-285.449 40.1005,-286.7592 35.9168,-287.4727 31.9121,-287.5865 27.7664,-286.9933 24.6295,-285.9562 21.4725,-284.2831 18.7245,-282.1628 16.1586,-279.3725 14.3235,-276.7177 12.499,-273.0733 11.3762,-269.8215 10.4152,-265.9014 9.6352,-261.6265 8.9557,-256.9986 8.3505,-252.0193 7.7903,-246.6726 7.2493,-240.9449 6.7118,-234.8488 6.1441,-228.4001 5.4603,-220.9162 4.8668,-214.6006 4.1661,-207.3409 3.4178,-199.8084 2.6199,-192.0089 1.789,-183.9451 0.8443,-174.7752 -0.0398,-166.1734 -0.846,-158.2212 -1.7481,-149.1912 -2.6441,-140.0645 -3.4801,-130.7924 -4.2268,-121.3031 -4.9434,-110.6199 -5.4516,-101.6928 -5.9459,-91.5834 -6.3876,-81.2797 -6.8057,-70.7885 -7.2232,-60.1421 -7.6428,-49.4177 -8.0689,-38.603 -8.5028,-27.6291 -8.944,-16.4991 -9.4012,-5.2158 -9.8962,6.2158 -10.4201,17.7945 -11.0046,30.6969 -11.4827,41.3798 -12.0265,53.3794 -12.6014,65.5112 -13.2804,78.993 -13.9379,91.3157 -14.5446,102.455 -15.2974,116.1921 -15.9839,128.796 -16.602,140.2322 -17.269,153.0407 -17.9082,165.9552 -18.5381,178.9724 -19.1757,192.0893 -19.8163,205.3042 -20.4578,218.6156 -21.0949,232.0206 -21.7262,245.5174 -22.3526,259.104 -22.9703,272.7781 -23.5822,286.5306 -24.1528,300.0466 -24.6208,312.8874 -24.9784,324.9352 -25.2187,337.305 -25.2753,346.7971 -25.1628,356.7604 -24.8285,366.1776 -24.2117,375.0851 -23.2059,383.4799 -21.7511,391.347 -19.864,398.6947 -17.5105,405.5112 -14.6611,411.7985 -10.9007,418.0886 -7.3663,422.7505 -3.0069,427.3892 2.2463,431.7798 6.8315,434.817 12.7049,437.8314 17.6661,439.719 23.9206,441.3563 29.2962,442.2091 35.4746,442.5969 41.7628,442.3455 48.1575,441.4602 54.7039,439.973 62.1057,437.8322 68.3166,435.7578 75.3211,433.0085 82.3839,429.7478 89.4413,425.9206 97.1719,421.093 104.1394,416.1622 110.3235,411.2802 117.0452,405.3931 123.5151,399.0422 129.7411,392.1926 136.2969,384.1202 141.9418,376.297 146.7547,368.8865 151.7889,360.2617 156.5036,351.2614 160.9444,341.9309 165.2109,332.3342 169.8169,321.6211 173.6294,312.7294 178.4897,301.7726 182.7643,292.8052 188.565,281.9775 193.9017,273.3373 200.4574,264.1223 208.3195,254.6962 215.2247,247.5983 223.3503,240.4032 231.8858,233.9538 241.6722,227.7412 249.9327,223.3597 259.3178,219.24 268.86,215.9094 278.4991,213.3712 288.2614,211.6012 298.1853,210.514 308.1957,210.1445 319.1649,210.6 328.0965,211.6462 338.0298,213.483 347.9493,216.0277 358.8074,219.601 368.6362,223.4286 377.4804,227.2207 387.2985,231.808 397.1008,236.6996 406.7079,241.8028 415.8618,246.935 424.4444,251.8876 433.2402,257.0979 439.9218,261.3038 446.8976,265.92 453.4195,270.5579 459.4528,275.2993 465.0178,280.193 470.1426,285.3224 475.1908,291.2804 478.795,296.3792 482.5208,302.8517 484.978,308.3081 487.0678,314.4819 488.4703,320.7284 489.175,327.0058 489.2346,333.3526 488.6229,339.7776 487.328,346.2233 485.3531,352.6036 482.7571,358.7368 479.5946,364.4908 475.8871,369.8166 471.1799,375.2915 466.321,379.9934 461.4767,383.9984 455.6184,388.2222 449.335,392.3159 442.7037,396.3813 435.7308,400.3969 427.6647,404.7378 420.8065,408.2982 412.9495,412.3071 404.9373,416.4489 396.8266,420.6612 388.5779,424.9457 380.1565,429.3589 371.5836,433.93 362.8651,438.6593 353.9992,443.5318 344.9832,448.5292 335.8217,453.6476 326.5376,458.8639 317.1987,464.1327 307.7384,469.4528 298.1221,474.8176 287.3646,480.7654 278.4299,485.6778 268.3733,491.1989 258.1835,496.7872 247.863,502.4416 237.4159,508.1638 225.7809,514.5346 216.1517,519.8052 204.2744,526.2968 194.5161,531.6277 183.576,537.6064 172.5343,543.6475 161.389,549.7456 150.1425,555.9012 137.6621,562.7512 127.3758,568.4312 115.8651,574.8161 103.1039,581.9235 92.5828,587.7939 80.8094,594.3706 67.7564,601.6597 55.802,608.3367 44.9728,614.3831 32.8641,621.1401 20.678,627.9366 8.4218,634.7694 -3.884,641.6238 -16.2207,648.4877 -28.5783,655.3516 -40.8881,662.1813 -52.7389,668.7475 -63.8171,674.8721 -74.043,680.5141 -83.4365,685.6914 -92.0574,690.4603 -100.0199,694.8771 -108.1548,699.4053 -114.3907,702.8878 -120.9542,706.5588 -127.7878,710.384 -133.1244,713.3621 -138.8282,716.4747 -144.3536,719.3745 -150.2735,722.2802 -155.0771,724.3096 -160.3966,726.0427 -165.6242,727.1662 -171.2263,727.689 -175.677,727.5703 -180.9351,726.7924 -185.065,725.6648 -189.8563,723.671 -194.0858,721.2365 -198.1654,718.1891 -201.6574,714.9453 -205.3436,710.85 -208.8823,706.2689 -212.2874,701.2308 -215.9177,695.2313 -218.7487,689.9603 -221.7082,683.7137 -224.4147,677.0505 -226.8177,669.9772 -228.9064,662.5209 -230.679,654.7057 -232.2572,645.7227 -233.2756,638.0938 -234.1204,629.3438 -234.6893,620.3481 -234.9699,611.2035 -235.0328,601.8383 -234.9169,591.2896 -234.6761,582.473 -234.2347,572.4876 -233.6573,562.3066 -233.0439,551.9302 -232.4794,541.3646 -231.9975,530.6826 -231.5438,519.89 -231.0802,508.9338 -230.5539,496.6983 -230.1052,486.5475 -229.6183,475.1238 -229.0716,462.3868 -228.6084,451.8364 -228.0338,439.9826 -227.3288,426.7882 -226.7644,415.8716 -226.1282,402.3949 -225.6333,391.2971 -225.1005,378.9327 -224.5586,366.504 -223.9476,352.7043 -223.4243,341.3158 -222.8098,328.5611 -222.1878,315.701 -221.5688,302.7372 -220.9021,288.359 -220.3701,276.5053"/>
	<!-- Raw distance reference points -->
	<polyline id="dist" fill="none" stroke="none" stroke-width="0" points="5378.8584,7.2811 18.5431,7.2787 31.8661,7.2802 45.3777,7.2833 58.9516,7.2833 72.6677,7.2807 86.3828,7.2832 100.1694,7.2836 114.061,7.2797 128.0683,7.2782 142.1761,7.2797 156.3059,7.2838 170.4311,7.2922 184.5381,7.2747 198.6451,7.2786 212.7836,7.2823 226.9561,7.2868 241.1122,7.2902 255.3196,7.3006 269.5836,7.299 283.9009,7.3023 298.2856,7.3039 312.7349,7.2983 327.2408,7.2971 341.7979,7.2995 356.4143,7.3045 371.0745,7.3423 385.7816,7.416 400.5513,7.5273 415.3824,7.6396 430.2693,7.7825 445.2109,7.9088 460.1874,8.0576 475.2027,8.1739 490.2545,8.2955 505.358,8.434 520.502,8.5778 535.6935,8.7164 550.9442,8.8538 566.2124,8.9931 581.3129,9.1635 595.6951,9.3361 609.0526,9.5338 621.4557,9.7405 632.9929,9.8781 643.7029,9.9729 653.642,10.06 662.8351,10.1489 671.3016,10.2163 679.0712,10.2858 686.2123,10.3397 692.7793,10.4028 698.8423,10.4495 704.4265,10.4835 709.5477,10.4993 714.2056,10.4813 718.4824,10.4478 722.6938,10.3995 727.2261,10.3364 730.9749,10.2858 735.894,10.2501 740.674,10.2141 744.4393,10.1958 747.1396,10.1952 750.0139,10.2013 751.9116,10.2065 754.8087,10.2007 757.0885,10.168 760.1274,10.1226 763.3213,10.0537 766.5698,9.95 770.0573,9.8571 773.7416,9.74 777.7025,9.6005 781.9383,9.4467 786.4662,9.3373 791.4182,9.2111 796.6232,9.0802 802.3715,8.9843 808.3176,8.903 814.2296,8.8336 820.1674,8.7836 827.9095,8.7308 835.2314,8.7541 842.8362,8.8057 848.4639,8.9451 854.2449,9.0643 860.2948,9.1544 866.5352,9.2444 872.8723,9.3154 879.4175,9.4235 886.2646,9.559 893.5066,9.7418 901.0577,9.9276 908.9751,10.1614 916.9628,10.4171 925.1849,10.6759 933.7673,10.9598 942.9039,11.2674 952.5947,11.6293 962.4749,11.9399 971.6078,12.3242 980.739,12.6722 990.0687,13.0259 999.6117,13.3407 1009.3672,13.6908 1019.3332,14.0342 1029.4915,14.4074 1039.848,14.6951 1050.4015,14.9983 1061.0941,15.3244 1071.8381,15.5681 1082.6393,15.8122 1093.5804,16.0711 1104.667,16.2564 1115.9484,16.4626 1127.4053,16.6706 1138.9897,16.9108 1150.7362,17.1173 1162.6293,17.3476 1174.59,17.5875 1186.6411,17.8342 1198.8096,18.0233 1211.0973,18.2497 1223.5227,18.4798 1235.9467,18.7184 1248.459,18.9622 1261.0669,19.2021 1273.7938,19.4702 1286.613,19.713 1299.5227,19.9246 1312.5087,20.175 1325.5887,20.4186 1338.7683,20.6957 1352.0455,20.9214 1365.3894,21.1997 1378.8077,21.4222 1392.0374,21.677 1404.5204,21.9198 1416.0819,22.1613 1426.8505,22.3466 1436.839,22.5335 1446.1228,22.725 1454.7513,22.868 1462.7826,23.0069 1470.3325,23.1327 1477.447,23.245 1484.1058,23.3547 1490.3113,23.4378 1496.0588,23.5107 1501.3318,23.5635 1506.1681,23.5951 1510.7322,23.6134 1515.608,23.6348 1524.0481,23.6807 1533.2599,23.7341 1539.7239,23.7921 1547.2955,23.8653 1553.0767,23.9284 1558.6964,23.9657 1564.3044,23.9943 1569.9655,23.9903 1575.6146,23.9514 1581.2435,23.8259 1586.7491,23.6675 1592.354,23.4913 1598.1151,23.2883 1604.1525,23.0726 1610.6086,22.8147 1617.6201,22.6593 1624.8485,22.5636 1632.3235,22.5073 1640.0183,22.4424 1648.0129,22.3825 1656.2467,22.3212 1664.7745,22.2522 1673.6361,22.1797 1682.8379,22.093 1692.2041,22.0294 1701.4615,21.9507 1710.906,21.8513 1720.5516,21.7572 1730.4657,21.647 1740.6332,21.5317 1750.9609,21.4064 1761.4828,21.2704 1772.1422,21.119 1782.906,20.9424 1793.9261,20.798 1805.4376,20.7251 1817.1377,20.6767 1827.4976,20.5858 1837.2251,20.4369 1846.4087,20.302 1855.1324,20.1636 1863.5917,20.0063 1872.4502,19.8918 1881.084,19.7474 1890.1075,19.6222 1898.9374,19.5043 1907.5027,19.4153 1915.6841,19.2936 1923.9871,19.2028 1932.0769,19.1064 1940.0792,18.9787 1948.2837,18.8435 1956.754,18.6402 1965.4496,18.3986 1974.2266,18.1267 1983.0076,17.7902 1992.2745,17.5178 2002.0343,17.1739 2010.9998,16.8088 2020.0093,16.5039 2028.7147,16.1911 2037.3326,15.8444 2045.6799,15.556 2054.0615,15.1979 2062.5608,14.8968 2071.3962,14.5203 2080.5242,14.0819 2089.8606,13.6056 2099.4019,13.0758 2109.1917,12.5062 2119.1848,11.9472 2129.3315,11.357 2139.6274,10.9206 2149.9761,10.4446 2159.9517,10.122 2169.3066,9.8124 2178.0134,9.544 2186.1279,9.3236 2193.7239,9.1276 2200.8499,8.9437 2207.5115,8.8129 2213.8252,8.6857 2219.8252,8.5698 2225.5122,8.4622 2230.8872,8.3583 2235.9275,8.2502 2240.6021,8.165 2244.9263,8.0742 2249.1282,7.9819 2253.6824,7.9019 2258.7883,7.8484 2264.0603,7.8241 2269.189,7.8252 2273.9985,7.8583 2278.2197,7.9029 2281.9854,7.9436 2285.6719,7.9894 2289.4668,8.0394 2293.3884,8.0929 2297.4663,8.1493 2301.7341,8.2082 2306.5371,8.2694 2311.1929,8.3394 2316.2207,8.4148 2321.717,8.5149 2327.7964,8.6303 2334.2073,8.7601 2340.9573,8.9114 2347.9729,9.0745 2355.073,9.248 2362.2856,9.4389 2369.8379,9.6098 2377.6755,9.8332 2385.7754,10.1133 2394.1309,10.362 2402.7241,10.6692 2411.5354,10.9135 2420.5315,11.1973 2429.6716,11.4325 2439.0208,11.6845 2448.5496,11.929 2458.2566,12.1534 2468.144,12.3594 2478.2112,12.5477 2488.4468,12.7346 2498.8655,12.8554 2509.4465,12.9587 2520.2236,13.014 2531.1533,13.035 2542.2075,13.0016 2553.3784,12.9335 2564.6907,12.8295 2576.05,12.6693 2587.0061,12.4614 2597.4697,12.2465 2607.7197,12.017 2617.6274,11.7812 2627.0859,11.5672 2635.8845,11.3412 2644.564,11.1484 2652.6692,10.9478 2660.1838,10.731 2667.425,10.5667 2674.1721,10.408 2680.6101,10.2794 2686.7058,10.1606 2692.5276,10.0437 2698.0479,9.929 2703.2815,9.8104 2708.208,9.675 2712.8052,9.5636 2717.0408,9.4375 2720.9644,9.3042 2725.0896,9.1826 2730.2617,9.101 2735.6113,9.0997 2739.7332,9.1485 2742.771,9.2069 2745.8159,9.2587 2748.6865,9.2833 2752.197,9.2983 2755.9385,9.2984 2760.0176,9.2886 2764.4094,9.2782 2769.1001,9.2722 2774.113,9.2773 2779.489,9.2977 2785.2327,9.3298 2791.3213,9.3677 2797.7153,9.3995 2804.5012,9.4314 2811.5181,9.456 2818.7864,9.4657 2826.3484,9.4732 2834.1833,9.4738 2842.2668,9.4662 2850.6226,9.4607 2859.2041,9.4607 2868.0298,9.4599 2877.0723,9.4601 2886.2268,9.464 2895.5234,9.4613 2905.021,9.4563 2914.6978,9.4586 2924.5862,9.4637 2934.6985,9.4637 2945.0203,9.4595 2955.5215,9.4627 2966.1792,9.4607 2976.9143,9.4558 2987.7373,9.4515 2998.7205,9.4504 3009.8586,9.4512 3021.1462,9.4506 3032.5715,9.466 3044.1682,9.4423 3055.9221,9.4454 3067.8235,9.4486 3079.8271,9.4566 3091.9448,9.4575 3104.1902,9.4553 3116.5046,9.4519 3128.8848,9.4589 3141.407,9.4671 3154.0232,9.4734 3166.7695,9.4706 3179.6172,9.4734 3192.5581,9.4761 3205.6001,9.4812 3218.7305,9.4811 3231.9341,9.4852 3245.2268,9.4812 3258.6289,9.4803 3272.1521,9.4824 3285.7622,9.4864 3299.4719,9.4859 3313.272,9.4806 3326.8271,9.4802 3339.6763,9.4792 3351.6902,9.4777 3362.9541,9.4724 3373.5305,9.4637 3383.4727,9.4543 3392.8594,9.4388 3401.7317,9.4147 3410.0825,9.3803 3417.9321,9.3411 3425.4783,9.2944 3433.5928,9.2659 3441.0688,9.2597 3448.6436,9.3191 3455.4548,9.4008 3462.1965,9.5201 3468.2712,9.6931 3474.0237,9.8424 3479.5906,10.0283 3485.1809,10.1737 3490.8787,10.3303 3496.5168,10.4462 3502.5188,10.5546 3508.6228,10.6445 3514.8074,10.7221 3521.1768,10.8003 3527.6531,10.891 3534.7161,10.9766 3541.9429,11.1043 3549.6094,11.2354 3557.4863,11.3999 3565.6907,11.6106 3574.1167,11.8233 3582.8242,12.0396 3591.7822,12.3047 3600.8711,12.5931 3610.1843,12.901 3619.6975,13.2414 3629.4653,13.5822 3639.5037,13.9009 3649.7209,14.2723 3660.1113,14.6554 3670.5234,15.0319 3681.0264,15.3951 3691.6235,15.8069 3702.373,16.1367 3713.252,16.5253 3724.2737,16.8381 3735.4497,17.2038 3746.8015,17.5215 3758.3079,17.9084 3769.8313,18.3301 3781.1077,18.6734 3792.3538,19.0584 3803.3062,19.4315 3814.0303,19.8214 3824.573,20.1268 3834.9382,20.4487 3845.1045,20.7449 3855.1101,21.019 3865.0405,21.2863 3874.9775,21.5283 3884.9053,21.7636 3894.7273,21.9964 3904.5105,22.1764 3914.3652,22.36 3924.2673,22.5344 3934.2595,22.7128 3944.6646,22.875 3955.3506,22.9714 3966.1697,23.0618 3977.095,23.1206 3987.949,23.1534 3998.4106,23.1588 4008.2654,23.1189 4017.5532,23.0772 4026.3105,23.0334 4034.5808,22.9664 4042.3633,22.8877 4049.8835,22.8168 4057.072,22.744 4064.24,22.666 4071.2844,22.5737 4078.1536,22.4858 4084.9109,22.3591 4091.6194,22.2483 4098.2349,22.1098 4104.813,21.9541 4111.9448,21.793 4118.8521,21.6178 4125.6802,21.4781 4132.5225,21.3775 4139.0532,21.3086 4145.4541,21.2387 4151.6904,21.1529 4157.6138,21.0589 4163.8252,20.9391 4170.2935,20.8228 4176.9849,20.7152 4184.0601,20.5838 4191.4448,20.4532 4199.0601,20.305 4206.936,20.1319 4215.1548,19.9824 4223.6357,19.8583 4232.5439,19.7252 4241.5874,19.6236 4250.707,19.5307 4259.9795,19.4453 4269.4712,19.3778 4279.1797,19.3248 4289.1182,19.2861 4299.2661,19.2709 4309.5894,19.2714 4320.084,19.2895 4330.73,19.3319 4341.4536,19.3848 4352.313,19.4229 4363.3042,19.4403 4374.4561,19.4258 4385.7686,19.3921 4397.2349,19.3337 4408.8569,19.2415 4420.6279,19.1217 4432.5488,18.9759 4444.6123,18.7715 4456.8223,18.583 4469.1362,18.3148 4481.4888,18.0662 4493.9443,17.7639 4506.5112,17.4285 4519.1816,17.0543 4532.0044,16.6237 4544.9727,16.1307 4558.0767,15.7054 4571.2563,15.2318 4584.5391,14.7284 4597.9253,14.3511 4611.3931,13.9708 4624.9629,13.5969 4638.6465,13.3006 4652.4229,13.066 4666.2856,12.8514 4680.2354,12.6664 4694.2876,12.5321 4708.3857,12.4428 4722.5293,12.401 4736.6816,12.4078 4750.7495,12.4512 4764.2764,12.5207 4776.9175,12.5901 4788.5962,12.6563 4799.3291,12.7047 4809.1924,12.7215 4818.2983,12.7297 4826.7734,12.7207 4834.728,12.7069 4842.2285,12.6835 4849.3477,12.6472 4856.1328,12.6099 4862.5884,12.5694 4868.8105,12.514 4874.7974,12.4427 4880.5703,12.3776 4886.0815,12.2874 4891.231,12.1857 4896.001,12.0685 4900.481,11.9714 4905.1304,11.8404 4910.6255,11.7127 4918.1167,11.5614 4923.8218,11.4509 4929.2285,11.3791 4934.5264,11.3344 4939.9365,11.27 4945.5684,11.179 4951.5332,11.0728 4957.8311,10.9459 4964.418,10.8294 4971.2808,10.6835 4978.3662,10.5229 4985.7715,10.3633 4993.2505,10.1962 5001.022,10.0264 5008.8643,9.8467 5017.0249,9.7028 5025.6851,9.5469 5034.6328,9.3834 5043.7339,9.2202 5053.0503,9.0565 5062.6201,8.8795 5072.4009,8.7267 5082.4312,8.5119 5092.605,8.301 5102.9546,8.1085 5113.5293,7.9117 5124.2515,7.7424 5135.0645,7.6351 5146.0249,7.543 5157.1367,7.4497 5168.3989,7.3952 5179.8047,7.3382 5191.3848,7.2848 5203.1499,7.2661 5215.0269,7.2523 5227.0068,7.2565 5239.145,7.2544 5251.4028,7.2599 5263.7451,7.2567 5276.1226,7.2552 5288.5571,7.255 5301.0869,7.2552 5313.7031,7.2578 5326.4565,7.2509 5339.3438,7.2612 5352.3491,7.2735 5365.4351,7.2703 5378.6504,7.2722"/>
</svg>
