<?xml version="1.0" encoding="utf-8"?>
<!-- Track map generated with TinyPedal -->
<svg viewBox="-582.9996 -990.4901 1305.2434 2069.1933" version="1.1" xmlns="http://www.w3.org/2000/svg">
	<title>Circuit de Spa-Francorchamps Endurance</title>
	<!-- Sector coordinates index -->
	<desc>176,491</desc>
	<!-- Raw global coordinates -->
	<polyline id="map" fill="none" stroke="black" stroke-width="10" points="-227.0682,-737.4056 -239.5593,-756.1245 -246.6367,-766.5905 -253.841,-777.1506 -261.1718,-787.8097 -269.3736,-799.6451 -276.1906,-809.4105 -283.7686,-820.2137 -291.0613,-830.6038 -297.9492,-840.4235 -304.9608,-850.4836 -310.2707,-858.173 -315.7502,-866.1716 -320.8216,-873.6501 -325.5333,-880.6741 -330.3519,-887.9322 -334.0243,-893.5165 -337.8516,-899.3818 -341.44,-904.9328 -344.8016,-910.1938 -347.9244,-915.1696 -350.7832,-919.8687 -353.3684,-924.3175 -355.649,-928.5577 -357.5673,-932.6332 -359.0836,-936.5786 -360.185,-940.4254 -360.886,-944.2147 -361.1916,-947.9831 -361.034,-951.692 -360.3536,-955.2692 -359.1491,-958.6301 -357.4455,-961.6794 -355.3092,-964.3406 -352.5346,-966.7315 -350.0096,-968.2291 -347.0328,-969.3908 -343.916,-970.082 -340.6149,-970.4271 -337.0818,-970.4901 -332.8391,-970.2101 -329.092,-969.6644 -324.6565,-968.7049 -319.9278,-967.3985 -314.8929,-965.7561 -309.561,-963.7781 -303.9369,-961.4462 -298.0264,-958.7631 -291.2144,-955.586 -285.3875,-952.8442 -278.5977,-949.5941 -271.4878,-946.1316 -264.0772,-942.4667 -256.3925,-938.6155 -248.4703,-934.5921 -239.5458,-930.0009 -232.0605,-926.1034 -223.5105,-921.6043 -214.7357,-916.9199 -205.7623,-912.0345 -196.6294,-906.9398 -187.36,-901.6342 -177.9794,-896.0977 -168.5384,-890.3087 -158.1144,-883.6611 -148.5322,-877.3372 -139.8213,-871.434 -130.0775,-864.618 -120.2786,-857.538 -110.4399,-850.2116 -100.6124,-842.6016 -90.8203,-834.6939 -81.097,-826.4651 -71.4662,-817.9135 -61.9951,-809.0231 -51.7445,-798.8724 -43.3839,-790.332 -34.1149,-780.6127 -24.8421,-770.6824 -15.5334,-760.5809 -6.1765,-750.3301 3.234,-739.9521 12.7005,-729.4617 22.2299,-718.8762 31.8328,-708.2117 42.4978,-696.4073 51.3051,-686.6979 61.1774,-675.8624 72.1474,-663.895 81.2141,-654.0787 91.4054,-643.1699 101.7462,-632.2903 112.3188,-621.5327 123.2249,-611.1041 134.5291,-601.2328 146.281,-592.0479 159.6543,-582.8488 170.7732,-575.8508 182.9686,-568.1213 194.6267,-559.9597 205.4874,-551.1652 215.32,-541.6231 224.0932,-531.4302 232.6217,-519.4696 239.0292,-509.2445 245.4674,-497.4514 251.1361,-485.2251 256.2578,-472.6677 261.2895,-458.5298 265.095,-446.7525 269.2539,-433.5282 274.0425,-418.9326 278.2505,-407.0186 283.3782,-393.8912 289.0744,-380.9379 295.4113,-368.2207 302.2471,-355.6836 309.4756,-343.2909 317.0982,-331.0581 325.0563,-318.9593 334.1281,-305.7754 341.7695,-295.0717 350.4468,-283.2441 359.2295,-271.4161 367.9939,-259.5033 376.7065,-247.4808 385.3589,-235.3496 393.9611,-223.1198 402.5059,-210.8229 411.0,-198.4328 420.2417,-184.627 427.652,-173.1503 436.3828,-158.8304 443.2128,-146.8601 450.4764,-133.3078 457.3643,-119.4953 463.9318,-105.4598 470.1478,-91.2041 476.0445,-76.7517 481.6331,-62.1168 487.0316,-47.3498 492.3002,-32.4779 497.4794,-17.5207 503.106,-0.9874 507.6598,12.5973 512.6663,27.7501 517.6527,42.9486 522.6699,58.1743 528.2704,74.9348 532.9103,88.6579 538.119,103.917 543.3635,119.194 549.1553,136.0228 553.8928,149.8161 559.6602,166.7099 564.3721,180.5555 569.6083,195.9606 574.8335,211.3932 580.0336,226.8556 585.2074,242.3485 590.3598,257.8697 595.4907,273.4186 600.5997,288.9948 605.7133,304.589 611.3675,321.7559 616.028,335.8065 621.2462,351.4224 626.4969,367.0451 631.7589,382.6809 637.0229,398.3323 642.262,413.9578 647.3455,429.1926 652.2075,443.8027 656.8362,457.761 661.2169,471.0444 665.7285,484.8209 669.2065,495.4858 672.884,506.8006 676.3961,517.6409 679.7575,528.0514 682.9699,538.0566 686.0258,547.6721 689.1995,557.7905 691.6496,565.7217 694.1965,574.1775 696.7085,583.0404 698.4621,589.9339 700.0517,597.2274 701.3226,604.8325 701.9691,610.7549 702.2438,617.0537 701.9952,623.0951 701.187,628.937 699.8032,634.5676 697.8368,639.9893 695.2866,645.3311 692.1717,650.5906 688.507,655.6301 684.3771,660.4371 680.0522,665.1563 675.6425,669.6764 671.3255,674.0453 667.3131,678.5139 663.7029,683.2399 660.4763,688.2991 657.2897,694.2454 654.9929,699.4045 652.8686,705.428 651.3,711.7277 650.3259,718.2333 649.9461,724.9103 650.1173,731.7543 650.8049,738.7394 652.0028,745.8437 653.7065,753.0596 656.1678,761.141 658.6837,767.8544 662.0305,775.3707 665.7272,782.952 669.1027,790.5717 671.9407,798.1171 674.1611,805.5267 675.9011,813.4521 676.7858,819.7297 677.2112,827.1309 676.9689,833.5956 676.2435,839.2192 674.7201,845.8436 672.9807,851.0461 670.5554,856.5839 667.6115,861.9681 664.1633,867.245 659.7941,872.9515 655.3002,878.0236 650.8506,882.4844 645.4824,887.3184 639.7087,892.0627 633.5656,896.7885 627.054,901.5823 619.5069,906.9686 613.0851,911.4743 604.994,917.1471 598.2346,921.8869 590.5338,927.3054 582.6165,932.9113 574.5041,938.7146 566.2119,944.7081 557.7592,950.8753 549.1614,957.2041 540.4317,963.6929 531.6261,970.32 522.6736,977.1277 513.5763,984.1124 503.399,991.9783 495.0676,998.4249 486.087,1005.3622 477.5177,1011.9633 469.3697,1018.2026 461.6094,1024.0817 453.4745,1030.1383 446.4067,1035.2545 440.2582,1039.5104 433.6164,1043.8147 427.1281,1047.6127 420.1448,1051.188 414.5345,1053.6128 408.3909,1055.7755 402.3212,1057.3712 396.3391,1058.3577 390.4746,1058.7032 384.748,1058.3966 379.1767,1057.4226 373.8286,1055.8083 368.2929,1053.3315 364.0978,1050.7981 359.8489,1047.4973 355.7185,1043.328 352.7307,1039.509 349.5602,1034.3992 347.4137,1029.91 345.5825,1024.7025 344.3741,1019.3776 343.8166,1014.0029 343.9087,1008.6406 344.7067,1002.7762 345.8722,997.9778 347.6621,992.5968 349.9654,987.147 352.7982,981.7343 356.1725,976.5065 360.0308,971.5967 364.3945,967.0171 369.285,962.6735 374.674,958.5526 380.5239,954.6038 386.8011,950.7228 393.5418,946.8953 400.6652,943.1382 408.0409,939.2941 415.6035,935.3025 423.1349,931.204 430.3952,927.0427 437.2671,922.8016 443.7071,918.4237 449.7174,913.8884 455.3308,909.1743 460.5143,904.2172 465.2028,898.9575 469.7302,892.7869 472.9095,887.4669 476.104,880.687 478.1542,874.9733 479.8653,868.5242 480.9725,862.0076 481.3878,855.326 481.2393,848.4102 480.4698,840.5264 479.4485,833.8706 477.9252,826.2704 475.9713,818.4714 473.2614,809.6916 470.6266,802.3693 467.3995,794.1209 463.9587,785.6586 460.3651,776.9229 456.3195,766.9787 452.9821,758.5778 449.2678,748.9774 445.5684,739.1208 441.5569,728.0029 438.3656,718.713 434.8686,708.1315 431.4246,697.2852 428.049,686.182 424.7661,674.8234 421.5813,663.2228 418.5091,651.3991 415.5498,639.3716 412.3975,625.9304 409.8761,614.8091 407.0702,602.271 404.2456,589.5512 401.3992,576.6577 398.5282,563.596 395.3552,549.0389 392.7391,536.986 389.8073,523.4612 386.9037,510.0511 384.0894,497.0578 381.1296,483.3517 378.7981,472.6083 376.2689,461.1562 373.7189,450.2173 371.0708,439.7925 368.2621,429.862 365.1796,420.421 361.6827,411.4528 357.6781,402.8856 352.6048,393.9313 347.3603,386.3037 342.1142,379.8233 335.6797,372.9703 328.6089,366.4835 320.8961,360.4469 312.5634,354.9507 303.6645,350.0715 294.2568,345.8965 284.4045,342.4131 274.1926,339.6453 263.6984,337.6368 252.9624,336.3887 242.0371,335.885 230.9528,336.0968 219.7263,336.9996 208.3851,338.5426 196.964,340.7625 185.5105,343.6974 174.0949,347.3882 161.6957,352.3868 151.7623,357.2433 141.0113,363.4339 130.6512,370.4058 120.7457,378.2014 111.3268,386.7924 102.4405,396.1283 93.3633,407.2124 86.5512,416.8887 79.0097,429.3894 73.4595,440.0998 67.3144,453.6661 62.7816,465.1051 58.1917,478.1167 53.9713,491.3871 49.9313,504.8433 45.4819,519.7782 41.7668,532.0716 37.5102,545.7874 33.1361,559.5625 28.6785,573.4028 24.1286,587.2985 19.5701,601.0151 15.1433,614.2386 10.4945,628.0547 6.8711,638.7665 3.007,650.0959 -0.6903,660.8654 -4.2337,671.1236 -7.9803,681.8546 -10.9576,690.2623 -14.1983,699.258 -17.4221,707.8714 -21.0784,716.8055 -24.2402,723.6591 -28.0066,730.7643 -32.0744,737.3584 -36.4729,743.491 -41.2501,749.1752 -46.4035,754.3786 -51.9081,759.0482 -57.7367,763.1173 -64.4651,766.8448 -70.1585,769.2955 -76.6976,771.4451 -83.5292,773.0916 -90.5947,774.2856 -97.7515,774.9156 -105.5386,774.8528 -111.817,774.1921 -118.7618,772.8522 -125.7591,770.9532 -132.8624,768.4972 -140.0155,765.4586 -147.1511,761.8688 -154.3596,758.3007 -161.6332,755.2269 -169.66,752.5082 -176.2448,750.846 -184.3054,749.535 -191.6036,749.034 -198.8165,749.1878 -205.1874,749.8801 -212.1189,751.2533 -219.0017,753.2426 -225.8342,755.8182 -232.5563,758.9672 -239.7633,763.1121 -245.4707,767.0244 -251.5787,771.9082 -257.422,777.3342 -263.5161,783.9017 -268.1835,789.6784 -272.9956,796.4378 -277.4399,803.6035 -281.7364,811.1236 -285.9754,818.9761 -290.5429,827.9304 -294.2708,835.4976 -298.4724,844.1754 -303.2179,854.0098 -307.2243,862.2558 -311.8044,871.6027 -316.4966,881.0811 -321.1506,890.3292 -325.6504,899.1265 -329.9644,907.3879 -334.1175,915.0747 -338.1668,922.1839 -342.1602,928.7412 -346.531,935.3713 -350.1276,940.3835 -354.2111,945.5247 -358.4444,950.1945 -362.8564,954.3458 -367.9287,958.2823 -372.2625,960.993 -377.2731,963.4667 -382.9763,965.5189 -387.8356,966.718 -394.0745,967.6749 -399.4141,968.0402 -405.5612,967.9727 -411.897,967.3475 -418.3603,966.1115 -424.9057,964.265 -432.0548,961.5666 -437.8948,958.9174 -444.534,955.5878 -451.3128,951.7598 -458.2188,947.462 -466.1087,942.4731 -472.7903,938.2751 -480.3956,933.5095 -488.0603,928.6138 -495.6449,923.5678 -503.0246,918.3592 -510.165,912.9373 -517.0625,907.1934 -523.6808,901.0049 -530.0319,894.3453 -536.6516,886.4742 -541.7213,879.6071 -546.8489,871.533 -551.743,862.2465 -555.0499,854.4219 -558.2354,844.5359 -560.2256,836.1654 -561.9663,825.6079 -562.7724,816.7031 -562.9996,806.5891 -562.5364,796.304 -561.2416,784.8537 -559.6534,775.3992 -557.3647,764.8561 -554.4688,754.3324 -550.9872,743.7795 -547.0122,733.1927 -542.5703,722.5886 -537.6793,711.9835 -531.887,700.2872 -526.83,690.7106 -520.2506,679.0378 -514.5507,669.5292 -507.847,659.0521 -500.7632,648.676 -492.5534,637.3904 -485.5189,628.2679 -476.5613,617.2841 -468.9327,608.4384 -460.1719,598.6844 -451.1433,588.9914 -440.9471,578.3683 -432.4386,569.6781 -422.8217,560.0143 -412.05,549.3813 -402.0708,539.7368 -392.876,531.152 -382.319,521.8673 -371.3907,512.892 -360.0692,504.2976 -348.3897,496.0655 -336.3498,488.2389 -322.7377,480.0608 -311.3826,473.6075 -298.5765,466.6342 -284.3417,459.0606 -272.6332,452.8478 -259.5808,445.8879 -246.5542,438.7536 -233.6293,431.3937 -220.6853,423.8923 -207.7334,416.2298 -194.8347,408.3169 -182.0757,400.0336 -169.5264,391.3027 -157.2475,382.0795 -145.2803,372.347 -133.6855,362.0831 -122.5484,351.251 -111.9008,339.8695 -101.7491,327.9781 -92.1048,315.6149 -82.9837,302.8084 -74.3749,289.5999 -66.2636,276.0342 -58.6302,262.1472 -51.3616,248.014 -44.4233,233.6684 -37.7332,219.157 -31.1767,204.5383 -24.7717,189.9127 -18.6807,175.5027 -13.0063,161.2384 -7.8826,146.9592 -3.5462,132.611 -0.1455,118.2037 2.3175,103.7851 3.8737,89.4065 4.4779,74.9802 4.2132,60.4719 3.0406,45.9403 0.9989,31.4363 -1.9337,17.0203 -5.6839,2.7183 -10.1497,-11.4574 -15.2383,-25.5074 -20.8132,-39.4539 -26.8607,-53.2809 -33.3089,-67.0198 -39.9533,-80.7653 -47.3039,-95.971 -53.272,-108.5161 -59.7467,-122.6087 -65.9948,-136.8831 -71.9592,-151.3506 -77.6513,-165.997 -83.0015,-180.8318 -87.9732,-195.8511 -92.5803,-211.0365 -96.767,-226.3861 -100.9748,-243.4239 -104.1696,-257.4594 -107.4455,-273.006 -110.41,-288.0928 -113.1409,-302.4644 -115.6381,-316.0127 -117.9147,-328.7716 -120.0031,-340.7853 -121.908,-352.0797 -123.6142,-362.6443 -125.2652,-373.4377 -126.4571,-381.6492 -127.6153,-390.1627 -128.5951,-398.0597 -129.4062,-405.3633 -130.0775,-412.7428 -130.4378,-418.3044 -130.6726,-424.0339 -130.7468,-429.3605 -130.5943,-434.3187 -130.0735,-439.3312 -129.3337,-443.0584 -128.1945,-446.781 -126.6947,-450.0131 -124.8281,-452.743 -122.6585,-455.076 -120.275,-457.0655 -117.7351,-458.7201 -115.0753,-460.0456 -112.265,-461.0974 -109.221,-461.9397 -105.5304,-462.6056 -102.2288,-462.9301 -98.0627,-463.1582 -94.7707,-463.5018 -91.265,-464.1932 -87.9583,-465.3176 -84.9379,-466.9088 -82.2758,-468.9149 -80.0255,-471.2622 -78.0294,-474.1136 -76.7557,-476.5745 -75.7917,-479.4447 -75.2249,-482.5321 -74.9705,-485.8347 -75.0773,-489.6815 -75.5471,-493.3822 -76.2741,-496.9272 -77.4756,-501.0719 -79.2798,-505.8245 -81.3344,-510.3296 -83.5089,-514.5648 -86.2661,-519.4879 -89.376,-524.6517 -93.1783,-530.6217 -96.5152,-535.7499 -100.3666,-541.6363 -104.8266,-548.4016 -108.6717,-554.1932 -113.6019,-561.5688 -117.8146,-567.8325 -122.6577,-575.0099 -127.658,-582.3925 -132.7801,-589.9228 -138.0436,-597.6361 -143.4689,-605.5683 -149.0477,-613.71 -154.7659,-622.0581 -161.1981,-631.4614 -166.5572,-639.3077 -173.2146,-649.0765 -179.3346,-658.0739 -184.9375,-666.3191 -191.2686,-675.6475 -197.7038,-685.1483 -204.2318,-694.8184 -210.8526,-704.6508 -218.239,-715.6407 -224.3394,-724.7651"/>
	<!-- Raw distance reference points -->
	<polyline id="dist" fill="none" stroke="none" stroke-width="0" points="6977.1577,22.0143 20.5142,22.4309 33.1366,22.6648 45.9186,22.907 58.8568,23.1565 71.934,23.4483 85.1513,23.6879 98.3387,23.9543 111.0282,24.2174 123.0142,24.4996 134.1808,24.7958 144.5868,25.0688 154.2811,25.4003 163.3262,25.7348 171.7976,26.0767 179.7542,26.4584 187.2144,26.76 194.2187,27.0705 200.812,27.3814 207.0296,27.6717 212.8868,27.9323 218.3846,28.1614 223.5315,28.3587 228.3402,28.5188 232.8182,28.6522 236.974,28.7508 240.8142,28.8063 244.4053,28.8314 247.8831,28.8263 251.3946,28.7764 255.3615,28.692 260.1009,28.5664 265.4603,28.4127 271.3084,28.3059 277.4383,28.2878 285.187,28.3013 288.0892,28.2998 292.227,28.2524 295.6313,28.1589 298.8345,28.0347 302.4355,27.8664 306.4483,27.7021 310.8885,27.4875 315.739,27.2365 320.9969,26.9505 326.6707,26.6256 332.766,26.2629 339.282,25.8693 346.127,25.4115 353.2778,25.0162 360.8136,24.5465 368.7321,24.0485 377.0012,23.5243 385.6007,22.9811 394.4921,22.4043 403.6166,21.736 412.9817,21.1723 422.6389,20.5358 432.577,19.8713 442.7964,19.1859 453.2604,18.4903 463.9393,17.8102 474.8243,17.1065 485.9081,16.3983 497.1546,15.5753 508.6365,14.8474 520.346,14.1785 532.2639,13.4461 544.3867,12.7549 556.6874,12.0785 569.18,11.4192 581.8253,10.7599 594.6201,10.1488 607.5363,9.5323 620.5952,8.9168 633.752,8.2236 647.092,7.6496 660.5779,6.9848 674.1896,6.2991 687.933,5.5984 701.8265,4.8908 715.8656,4.1766 730.0171,3.4473 744.2755,2.7184 758.6417,1.9799 773.1102,1.1966 787.691,0.5705 802.3512,-0.1101 817.1226,-0.8128 831.9902,-1.3762 846.9261,-1.9781 861.9464,-2.5795 877.0311,-3.2096 892.1044,-3.844 907.0802,-4.4107 922.1663,-4.8562 937.0655,-5.013 951.7404,-4.8516 966.215,-4.3654 980.4337,-3.5559 994.3575,-2.2908 1008.06,-0.7049 1021.6689,1.0463 1035.3466,3.2834 1049.342,5.1819 1063.175,7.2965 1076.9618,9.3988 1090.7643,11.3545 1104.5482,13.3931 1118.3403,14.8239 1132.2247,16.1379 1146.332,17.3767 1160.6511,18.3513 1175.0253,19.2688 1189.3065,20.0354 1203.4368,20.7625 1217.6742,21.4457 1231.9822,22.1134 1246.3605,22.7604 1260.8213,23.3731 1275.3893,24.0725 1290.0208,24.6279 1304.7015,25.2969 1319.4446,25.9575 1334.2405,26.6503 1349.0978,27.3136 1364.0116,27.9914 1378.9799,28.6674 1393.9779,29.3418 1409.0386,29.9878 1424.201,30.6959 1439.4207,31.2692 1454.7354,31.9778 1470.1835,32.5924 1485.693,33.2925 1501.3051,34.0396 1516.8627,34.8254 1532.4221,35.6496 1548.0449,36.4591 1563.7174,37.2281 1579.4193,37.945 1595.2054,38.6348 1611.0514,39.3201 1626.9479,40.0799 1642.9099,40.7191 1658.8909,41.4328 1674.8846,42.1591 1690.9294,42.883 1707.0232,43.6938 1723.1473,44.3563 1739.2946,45.0949 1755.4631,45.8263 1771.6556,46.6347 1787.8762,47.2902 1804.1082,48.0952 1820.3749,48.7658 1836.6626,49.5235 1852.976,50.2616 1869.3093,51.0149 1885.6561,51.7686 1902.0203,52.5193 1918.4117,53.2683 1934.8221,54.0179 1951.2494,54.7692 1967.6993,55.581 1984.1741,56.2541 2000.6516,56.9999 2017.1497,57.751 2033.6705,58.5085 2050.2009,59.2718 2066.6921,60.0417 2082.7612,60.7816 2098.1709,61.5009 2112.8914,62.1959 2126.9006,62.8511 2140.1287,63.5332 2152.636,64.0583 2164.5391,64.6105 2175.9407,65.1263 2186.8892,65.6253 2197.4099,66.1067 2207.5247,66.5718 2217.1992,67.0519 2226.447,67.4097 2235.2781,67.7822 2243.6716,68.1707 2251.5667,68.4576 2258.9946,68.7529 2265.9631,69.05 2272.5652,69.2808 2278.8772,69.5209 2285.1267,69.7526 2291.2087,69.9769 2297.207,70.1943 2303.1826,70.414 2309.6277,70.6657 2315.9907,70.9374 2322.4351,71.2104 2328.9468,71.476 2335.4211,71.7009 2341.6267,71.8979 2347.7256,72.0633 2353.7524,72.1959 2360.2185,72.3231 2366.636,72.4625 2373.2581,72.6181 2380.458,72.749 2387.1567,72.9051 2394.198,73.0849 2400.9304,73.2628 2407.7397,73.4458 2414.5994,73.6203 2421.5452,73.7649 2428.718,73.8838 2436.0898,73.9804 2443.7444,74.0554 2451.6655,74.1103 2459.8325,74.1684 2468.1772,74.243 2476.4551,74.3264 2484.4653,74.4003 2492.1628,74.4476 2499.4058,74.4529 2506.2908,74.4346 2512.8274,74.4013 2519.1187,74.3718 2525.0977,74.3434 2531.1025,74.307 2536.9807,74.271 2542.7627,74.228 2548.6433,74.1826 2554.4409,74.1472 2560.7039,74.1031 2567.251,74.0543 2574.0845,74.0026 2581.1436,73.9323 2588.5388,73.834 2596.178,73.6831 2604.2493,73.5048 2612.6594,73.2785 2621.374,73.069 2630.3413,72.8019 2639.4915,72.5756 2648.8953,72.2964 2658.5823,71.9778 2668.5544,71.6443 2678.7922,71.2838 2689.2578,70.8944 2699.9363,70.4767 2710.8176,70.0437 2721.8479,69.6003 2733.1079,69.1161 2744.5923,68.6034 2756.2896,68.0045 2768.0066,67.4914 2779.3496,66.9136 2790.1714,66.3557 2800.4468,65.7943 2810.2231,65.2376 2819.5195,64.6423 2828.3059,64.0941 2836.6238,63.6117 2844.5088,63.0673 2851.9905,62.5287 2859.0745,61.9378 2865.8418,61.4789 2872.4128,60.9965 2878.8811,60.5272 2885.3733,60.0762 2891.3975,59.6379 2897.2534,59.2025 2903.0449,58.779 2908.7908,58.3617 2914.5574,57.9085 2920.1384,57.5392 2925.6907,57.131 2931.269,56.6866 2936.9778,56.3179 2942.8047,55.8568 2948.6963,55.479 2954.8398,55.0668 2960.5508,54.6493 2966.1577,54.2359 2971.6963,53.8351 2977.2214,53.3818 2982.8225,53.0016 2988.6196,52.5743 2994.8,52.1507 3001.0244,51.7423 3007.2925,51.3588 3013.5032,50.9806 3019.6323,50.5903 3026.0752,50.1656 3032.8699,49.6969 3039.9585,49.1858 3047.3516,48.6387 3055.1038,48.0688 3063.1411,47.4933 3071.4375,46.9111 3079.9685,46.3336 3088.5266,45.7546 3096.8843,45.1892 3104.9607,44.6581 3112.7603,44.139 3120.2861,43.6208 3127.6006,43.0944 3134.7168,42.559 3141.6855,41.9994 3148.6196,41.3701 3156.116,40.854 3163.4565,40.2493 3171.439,39.789 3178.6521,39.2822 3185.989,38.7661 3192.866,38.3059 3199.9089,37.8496 3207.0139,37.3759 3214.3813,36.97 3222.0408,36.4872 3230.0288,35.9502 3238.3936,35.3082 3247.0615,34.74 3255.8989,34.0821 3265.0364,33.4027 3274.4934,32.7028 3284.2632,31.9256 3294.3301,31.2791 3304.645,30.5456 3315.2014,29.8027 3325.9814,28.9756 3336.9343,28.2942 3348.1516,27.5157 3359.6387,26.722 3371.3328,25.8891 3383.2517,25.0505 3395.3809,24.2077 3407.6299,23.3472 3420.0403,22.4573 3432.6162,21.5016 3445.3188,20.7188 3458.2134,19.857 3471.293,18.977 3484.5522,18.0861 3497.9736,17.1739 3511.5554,16.1278 3525.2766,15.2676 3539.1428,14.2972 3552.8862,13.3623 3566.2168,12.4323 3579.0288,11.4586 3591.3018,10.6991 3603.0427,9.8827 3614.2654,9.0968 3625.033,8.329 3635.3645,7.5846 3645.2864,6.8524 3654.9072,6.1398 3664.4202,5.4363 3673.8547,4.6733 3683.2727,3.9926 3692.7334,3.3684 3702.4631,2.666 3712.373,1.9588 3722.4714,1.2545 3732.6345,0.5522 3742.8511,-0.1572 3753.2292,-0.8504 3763.7007,-1.5434 3774.2039,-2.2254 3784.7649,-2.9201 3795.5327,-3.6458 3806.4087,-4.4045 3817.4714,-5.2035 3828.7034,-6.0224 3840.0845,-6.8565 3851.679,-7.6947 3863.5442,-8.5333 3875.7961,-9.3516 3888.1919,-10.2087 3900.8137,-10.878 3913.3687,-11.5975 3926.1248,-12.2936 3938.8225,-12.9493 3951.7156,-13.5665 3964.7312,-14.1445 3977.8516,-14.7407 3991.0583,-15.1882 4004.2688,-15.6819 4017.5928,-16.038 4031.0464,-16.4797 4044.6531,-16.8347 4058.4521,-17.2312 4072.342,-17.6085 4086.4014,-17.9375 4100.5508,-18.2672 4114.8047,-18.4857 4129.1689,-18.6491 4143.626,-18.7708 4158.1597,-18.8673 4172.7798,-18.9399 4187.2329,-18.9589 4201.1675,-18.9191 4214.4614,-18.8444 4227.0693,-18.7779 4239.0439,-18.6809 4250.4258,-18.5481 4261.2778,-18.4301 4271.627,-18.2925 4281.5386,-18.1937 4291.1011,-18.0878 4300.292,-18.0018 4309.0737,-17.9265 4317.4341,-17.8922 4325.4141,-17.8628 4333.1426,-17.8399 4340.688,-17.8103 4348.1255,-17.7533 4355.5054,-17.6822 4362.7715,-17.619 4370.1016,-17.5611 4377.2485,-17.4956 4384.5874,-17.4407 4391.7368,-17.3958 4399.0049,-17.3569 4406.52,-17.3049 4413.8398,-17.2413 4421.1328,-17.184 4428.2402,-17.1339 4435.5146,-17.0634 4442.894,-16.9956 4450.6621,-16.9338 4458.4912,-16.896 4466.4854,-16.8762 4474.5112,-16.8627 4482.3901,-16.8754 4490.1362,-16.9093 4497.7329,-16.9459 4505.4839,-16.9938 4513.1118,-17.044 4520.9102,-17.0986 4528.2505,-17.1462 4535.918,-17.1976 4543.3882,-17.2531 4551.0718,-17.3053 4558.6006,-17.3659 4566.2271,-17.4333 4573.9023,-17.487 4581.6816,-17.5331 4589.5093,-17.5649 4597.5073,-17.5848 4605.5249,-17.6121 4613.7334,-17.7318 4622.1201,-17.8749 4630.7842,-18.0214 4639.708,-18.1783 4648.8301,-18.3604 4658.1743,-18.5154 4667.8013,-18.7324 4677.6968,-18.992 4687.8486,-19.1902 4698.2363,-19.4161 4708.792,-19.6439 4719.127,-19.8714 4728.9951,-20.0937 4738.3062,-20.3122 4747.0381,-20.5174 4755.2207,-20.7254 4762.8999,-20.9512 4770.1221,-21.2075 4776.9561,-21.4234 4783.458,-21.6655 4789.6982,-21.9063 4795.7695,-22.1412 4801.6992,-22.3986 4807.5464,-22.6083 4813.3369,-22.8466 4819.2441,-23.1026 4825.022,-23.3105 4831.0298,-23.5649 4837.2866,-23.7687 4843.7397,-23.9991 4850.5181,-24.2265 4857.1626,-24.4355 4863.9331,-24.6399 4870.7617,-24.8753 4877.7847,-25.084 4885.0898,-25.3398 4892.8516,-25.5988 4900.9829,-25.8671 4909.4487,-26.1299 4918.1987,-26.3346 4927.1704,-26.5588 4936.2705,-26.7534 4945.395,-26.9078 4954.4473,-27.0809 4963.3887,-27.2605 4972.2783,-27.4256 4981.1655,-27.5776 4990.1836,-27.7166 4999.4775,-27.8369 5008.9688,-27.9041 5018.6309,-27.9091 5028.3467,-27.8986 5037.9829,-27.8757 5047.6338,-27.812 5057.4014,-27.7212 5067.3159,-27.5652 5077.3979,-27.3884 5087.6606,-27.1624 5098.022,-26.9166 5108.415,-26.5876 5118.9243,-26.2847 5129.5986,-25.9467 5140.395,-25.6123 5151.4556,-25.2742 5162.7231,-24.9509 5174.1455,-24.6511 5185.7129,-24.3043 5197.5352,-23.8931 5209.4536,-23.5678 5221.5449,-23.1427 5233.7588,-22.787 5246.0713,-22.407 5258.5996,-22.0528 5271.2354,-21.605 5284.002,-21.2206 5296.8413,-20.7464 5309.7861,-20.3708 5322.8892,-19.9536 5336.1162,-19.5317 5349.4893,-19.0781 5363.0005,-18.6997 5376.6372,-18.2886 5390.3892,-17.8351 5404.2734,-17.4196 5418.271,-17.0759 5432.3989,-16.6529 5446.6665,-16.2676 5460.9844,-15.873 5475.3491,-15.5236 5489.7842,-15.2146 5504.2461,-14.8426 5518.7778,-14.5566 5533.3682,-14.2384 5548.0107,-13.893 5562.7285,-13.5943 5577.5137,-13.2606 5592.3799,-12.9235 5607.2441,-12.591 5622.1885,-12.2696 5637.2324,-11.9496 5652.354,-11.6348 5667.5498,-11.3373 5682.7891,-11.0436 5698.1147,-10.7578 5713.5503,-10.449 5729.0835,-10.1511 5744.7168,-9.8309 5760.4404,-9.5001 5776.2695,-9.1587 5792.1313,-8.7929 5808.0,-8.4196 5823.8506,-7.9997 5839.6831,-7.5618 5855.543,-7.1058 5871.4292,-6.6327 5887.3354,-6.1472 5903.2905,-5.6709 5919.3027,-5.1762 5935.2666,-4.6873 5950.8994,-4.2317 5966.2388,-3.8057 5981.396,-3.4035 5996.3457,-3.0896 6011.0205,-2.8259 6025.5762,-2.5536 6040.415,-2.2449 6055.3428,-1.8808 6070.3252,-1.5328 6085.0981,-1.1134 6099.8901,-0.7032 6114.6797,-0.2924 6129.2671,0.0958 6144.2041,0.4028 6159.0977,0.6151 6174.0454,0.781 6189.1582,0.9251 6204.3535,1.0619 6219.6064,1.1771 6234.9404,1.367 6250.3677,1.5625 6265.8706,1.8249 6281.4678,2.1101 6297.126,2.4355 6312.8696,2.782 6328.6973,3.1352 6344.6143,3.5609 6360.582,4.0246 6376.6499,4.5247 6392.6865,5.1323 6408.7432,5.6531 6424.6406,6.2168 6440.0229,6.8036 6454.6494,7.3675 6468.418,7.8974 6481.3726,8.4047 6493.5488,8.8853 6505.0024,9.3259 6515.7012,9.7384 6525.6548,10.1548 6534.9121,10.4701 6543.5298,10.7832 6551.5288,11.0583 6558.877,11.3192 6565.6357,11.5627 6571.8291,11.7379 6577.5308,11.9208 6582.8164,12.07 6587.7168,12.1991 6592.2231,12.3149 6596.4409,12.3999 6600.2075,12.4632 6604.1558,12.5271 6608.2314,12.6378 6612.4702,12.8242 6616.7334,13.0467 6619.7539,13.2418 6623.6084,13.3997 6626.9731,13.5281 6630.0386,13.6502 6633.4443,13.7842 6637.0688,13.8938 6640.8462,14.0215 6644.4795,14.1077 6648.1768,14.1723 6652.1152,14.223 6656.2539,14.2956 6659.5356,14.394 6663.8062,14.5386 6668.3311,14.7277 6672.8809,14.8798 6677.1045,15.0248 6680.2144,15.181 6684.3291,15.3652 6688.2871,15.5648 6691.9399,15.7374 6695.7007,15.9049 6699.8525,16.0994 6704.3394,16.2957 6709.1777,16.4584 6714.416,16.6053 6720.0659,16.7694 6726.0952,16.9389 6732.5049,17.1276 6739.2866,17.2911 6746.3374,17.4674 6753.6978,17.6684 6761.4258,17.8352 6769.4883,18.0436 6777.8799,18.2066 6786.5522,18.3833 6795.4678,18.576 6804.5693,18.763 6813.9009,18.9449 6823.499,19.1293 6833.3516,19.3184 6843.4531,19.4896 6853.7852,19.6896 6864.3306,19.8646 6875.0708,20.0655 6885.9399,20.26 6897.0029,20.4348 6908.2715,20.6553 6919.7417,20.869 6931.4082,21.0829 6943.2568,21.3122 6955.2788,21.5672 6967.457,21.7849"/>
</svg>
