<?xml version="1.0" encoding="utf-8"?>
<!-- Track map generated with TinyPedal -->
<svg viewBox="-215.5676 -2377.2466 2631.2055 5478.0664" version="1.1" xmlns="http://www.w3.org/2000/svg">
	<title>Circuit de la Sarthe</title>
	<!-- Sector coordinates index -->
	<desc>215,712</desc>
	<!-- Raw global coordinates -->
	<polyline id="map" fill="none" stroke="black" stroke-width="10" points="-185.9438,-1062.9229 -184.9748,-1077.6049 -184.4127,-1086.0206 -183.7672,-1095.4999 -183.1077,-1105.1102 -182.4375,-1114.8474 -181.7578,-1124.7069 -181.002,-1135.6895 -180.3845,-1144.7454 -179.6327,-1155.923 -178.9467,-1166.2054 -178.3344,-1175.5563 -177.6578,-1186.0509 -176.9882,-1196.6536 -176.3261,-1207.3615 -175.6657,-1218.1715 -175.0073,-1229.0808 -174.3513,-1240.0872 -173.621,-1252.3024 -173.0003,-1262.3774 -172.2723,-1273.6539 -171.418,-1286.1549 -170.6718,-1296.4556 -169.7894,-1307.9747 -168.7557,-1320.7325 -167.7503,-1332.4059 -166.7899,-1342.9702 -165.6577,-1354.7706 -164.4459,-1366.5927 -163.0077,-1379.6608 -161.5938,-1391.6029 -160.2338,-1402.3994 -158.6143,-1414.4457 -156.8522,-1426.5377 -154.9089,-1438.6652 -152.7639,-1450.8207 -150.4053,-1462.9962 -147.8524,-1475.1907 -144.8336,-1488.6233 -142.1915,-1499.6237 -139.0506,-1511.8451 -135.6991,-1524.0623 -132.1436,-1536.2726 -127.9685,-1549.6801 -124.3491,-1560.6272 -120.1252,-1572.7671 -115.6809,-1584.8485 -111.0729,-1596.6727 -106.2863,-1608.0912 -100.789,-1620.1335 -95.5745,-1630.6489 -90.6561,-1639.7089 -84.9247,-1649.3192 -78.2918,-1659.3638 -72.6109,-1667.188 -65.9911,-1675.4893 -58.3274,-1684.1259 -51.7547,-1690.7659 -44.1538,-1697.6748 -36.2654,-1704.077 -28.1235,-1709.9832 -18.8829,-1716.0211 -11.1218,-1720.7135 -2.3753,-1725.7085 7.1088,-1730.8875 15.3754,-1735.3193 22.4335,-1739.1018 29.815,-1743.0564 37.3771,-1747.1093 43.8029,-1750.552 49.2655,-1753.4847 55.5824,-1756.9067 60.4623,-1759.6018 66.03,-1762.7935 70.6938,-1765.595 74.5759,-1768.0338 78.9578,-1770.9324 82.2721,-1773.2837 85.7051,-1775.9333 88.9027,-1778.6945 91.8413,-1781.6141 94.4622,-1784.7151 96.7356,-1787.9808 98.8753,-1791.7542 100.5931,-1795.4028 101.9668,-1798.8812 103.2822,-1802.952 104.3396,-1807.2362 105.1308,-1811.7316 105.662,-1816.4277 105.9185,-1821.306 105.8837,-1826.7316 105.697,-1831.0372 105.5374,-1835.6475 105.6063,-1840.1339 106.0575,-1844.9453 106.7414,-1848.7601 107.8365,-1852.842 109.2702,-1856.8326 111.041,-1860.7963 113.1599,-1864.7418 115.6433,-1868.6577 118.4473,-1872.4999 121.5699,-1876.246 125.0224,-1879.895 128.783,-1883.4277 133.2546,-1887.0883 137.1308,-1889.9436 141.6783,-1892.9791 146.9838,-1896.1968 151.5693,-1898.84 157.4608,-1902.0649 162.3746,-1904.6781 167.9331,-1907.5592 173.6864,-1910.548 179.6249,-1913.676 185.7429,-1916.936 192.032,-1920.3257 198.4841,-1923.85 205.096,-1927.4991 211.8569,-1931.2767 218.7386,-1935.2131 225.6589,-1939.3473 232.5992,-1943.7356 240.2586,-1948.8868 247.2273,-1953.8728 253.4635,-1958.6404 260.3327,-1964.2587 267.128,-1970.2065 274.5027,-1977.1228 281.1018,-1983.7435 286.9656,-1989.951 293.4411,-1997.0725 300.6125,-2005.0835 306.6182,-2011.6605 313.4866,-2018.905 320.6186,-2026.0795 328.0475,-2033.1381 335.8098,-2040.0239 343.9135,-2046.6537 353.1942,-2053.5032 361.0855,-2058.6812 370.1499,-2063.9602 380.4592,-2069.196 389.1472,-2073.0254 399.0539,-2076.7268 409.2074,-2079.762 419.5753,-2082.1863 430.1219,-2084.0813 441.9122,-2085.5569 451.68,-2086.3018 462.5222,-2086.7271 473.1089,-2086.8811 483.2527,-2086.9404 492.883,-2086.999 501.9994,-2087.1125 510.6214,-2087.3433 518.7775,-2087.7349 526.4926,-2088.3665 534.468,-2089.407 540.6168,-2090.5291 547.7165,-2092.2627 553.2443,-2094.0283 559.1595,-2096.3831 564.8332,-2099.1636 570.8605,-2102.7505 575.671,-2106.0952 580.8683,-2110.2256 585.8143,-2114.7742 590.9076,-2120.1838 594.6832,-2124.9756 598.3979,-2130.676 601.6141,-2136.7349 604.3609,-2143.1128 606.6855,-2149.7722 608.7004,-2156.6819 610.4996,-2163.8372 612.1824,-2171.21 613.9921,-2179.5383 615.7618,-2187.2361 617.5925,-2194.2092 619.9906,-2202.0037 622.8744,-2209.78 626.2769,-2217.4771 630.1707,-2224.9573 634.5663,-2232.0334 639.4077,-2238.7324 644.7041,-2245.0667 650.9902,-2251.7434 656.4633,-2257.0671 663.5914,-2263.3479 669.7559,-2268.3147 676.8971,-2273.7017 684.3537,-2278.9182 692.8846,-2284.4854 700.1266,-2288.8804 709.2866,-2294.0542 717.0139,-2298.1321 725.8264,-2302.509 734.8167,-2306.7329 743.9875,-2310.8203 753.3271,-2314.8374 762.8171,-2318.8125 772.4521,-2322.7507 782.223,-2326.666 792.1417,-2330.5193 802.2056,-2334.3074 812.4045,-2338.0491 822.5923,-2341.6758 832.4462,-2345.012 841.9016,-2347.9937 851.0016,-2350.6189 859.8113,-2352.8694 868.3837,-2354.7153 876.7439,-2356.0876 885.7095,-2357.0037 892.885,-2357.2466 900.7424,-2356.927 908.5466,-2356.0117 916.4221,-2354.54 924.3609,-2352.5693 932.34,-2350.1353 940.3453,-2347.2639 948.3545,-2343.979 956.3232,-2340.2224 965.0593,-2335.637 972.1835,-2331.5684 980.8659,-2326.251 987.9148,-2321.5757 996.4742,-2315.5061 1003.4622,-2310.3062 1011.1982,-2304.2983 1018.8687,-2298.0681 1027.2754,-2290.9316 1034.1189,-2284.8701 1041.689,-2277.9126 1049.2218,-2270.7263 1056.7135,-2263.3193 1064.1694,-2255.7058 1071.5763,-2247.877 1078.9602,-2239.865 1086.3167,-2231.6736 1093.6403,-2223.3018 1100.9163,-2214.7422 1108.8293,-2205.093 1115.2345,-2197.0212 1122.2764,-2187.8738 1129.2122,-2178.5237 1136.0314,-2168.9719 1142.7366,-2159.2285 1149.3466,-2149.3123 1155.8921,-2139.2834 1162.3729,-2129.1292 1168.8025,-2118.8386 1175.2086,-2108.4292 1181.6272,-2097.929 1188.0607,-2087.3398 1194.5205,-2076.6709 1201.0183,-2065.9326 1207.5647,-2055.135 1214.1387,-2044.2684 1220.7413,-2033.3378 1227.3484,-2022.3334 1233.9249,-2011.2386 1241.1161,-1998.9292 1246.962,-1988.7755 1253.4211,-1977.4115 1259.8416,-1965.9612 1266.2019,-1954.4163 1272.5107,-1942.783 1279.3983,-1929.8909 1284.9916,-1919.2698 1291.1481,-1907.3861 1297.2185,-1895.406 1303.7787,-1882.1115 1309.0264,-1871.1329 1315.2352,-1857.5692 1320.1594,-1846.3618 1325.4772,-1833.8022 1330.6344,-1821.1345 1335.6213,-1808.3589 1340.9203,-1794.1893 1345.1189,-1782.512 1349.6394,-1769.4515 1354.4437,-1754.9869 1358.246,-1743.0796 1362.3528,-1729.7799 1366.7711,-1715.0814 1370.3239,-1703.0078 1374.2225,-1689.5486 1378.0978,-1676.0522 1381.9639,-1662.5242 1385.8263,-1648.9667 1389.6899,-1635.3822 1393.5586,-1621.7727 1397.4263,-1608.137 1401.2823,-1594.501 1405.5184,-1579.4824 1408.9816,-1567.1683 1412.8197,-1553.4563 1416.6564,-1539.7153 1420.4941,-1525.9463 1424.3281,-1512.1481 1428.1656,-1498.3226 1432.3912,-1483.0836 1435.8561,-1470.5929 1439.7092,-1456.6896 1443.5721,-1442.7626 1447.4513,-1428.814 1451.3534,-1414.8457 1455.2812,-1400.8588 1459.2385,-1386.8542 1463.238,-1372.8359 1467.6852,-1357.4003 1471.3541,-1344.7576 1475.4551,-1330.6941 1479.5759,-1316.6125 1483.719,-1302.514 1487.8829,-1288.3983 1492.0667,-1274.2654 1496.2705,-1260.1156 1500.488,-1245.9471 1504.7151,-1231.759 1508.9417,-1217.5481 1513.5718,-1201.8846 1517.3273,-1189.0398 1521.449,-1174.7321 1525.9055,-1158.9468 1529.4919,-1145.9957 1533.4347,-1131.5745 1537.7532,-1115.6825 1541.2932,-1102.6641 1545.2506,-1088.1876 1549.2451,-1073.7026 1553.2769,-1059.2098 1557.348,-1044.7106 1561.4529,-1030.2042 1565.5857,-1015.6898 1569.726,-1001.162 1573.8613,-986.6183 1577.993,-972.0597 1582.1237,-957.4872 1586.2555,-942.9026 1590.3921,-928.3068 1594.5336,-913.7 1598.6816,-899.0831 1603.2543,-882.994 1607.0072,-869.823 1611.1838,-855.1797 1615.3627,-840.5256 1619.5436,-825.8605 1623.7278,-811.1854 1627.9165,-796.5004 1632.1115,-781.8062 1636.3071,-767.1013 1640.5005,-752.3851 1645.1133,-736.1847 1648.8853,-722.9199 1653.4924,-706.6952 1657.26,-693.4106 1661.444,-678.6401 1665.6306,-663.8603 1669.8231,-649.0729 1674.4441,-632.8068 1678.1791,-619.6741 1682.1827,-605.6185 1686.3356,-591.043 1689.5139,-579.8429 1692.7732,-568.1005 1695.8378,-557.0364 1699.0413,-545.5646 1701.5328,-536.6721 1704.163,-527.2847 1706.6462,-518.3755 1708.9847,-509.9034 1711.1595,-501.8525 1713.1318,-494.2187 1714.8193,-486.9964 1716.1396,-480.1801 1717.1315,-473.1203 1717.5668,-467.6329 1717.6382,-461.7592 1717.2057,-455.4288 1716.4453,-450.351 1715.1552,-444.7643 1713.3942,-439.1432 1710.901,-432.8826 1708.4617,-427.7059 1705.2859,-421.3778 1702.785,-416.2721 1700.2917,-410.6493 1698.193,-405.0248 1696.5626,-399.3527 1695.3859,-393.0615 1694.9558,-387.9175 1695.0074,-381.6959 1695.559,-376.7153 1696.6991,-371.3341 1698.5684,-365.513 1700.5703,-360.8022 1703.5469,-355.0918 1706.71,-349.9114 1709.9351,-345.2589 1713.9581,-340.1481 1718.4111,-335.1064 1723.1974,-330.0738 1728.2571,-325.0122 1733.5249,-319.8679 1739.4153,-313.9819 1744.1921,-308.9064 1749.849,-302.3737 1754.3315,-296.7125 1759.1222,-290.0796 1763.7092,-283.1065 1768.0635,-275.8038 1772.1892,-268.1913 1776.0714,-260.282 1779.7146,-252.0972 1783.1353,-243.6592 1786.666,-234.1073 1789.4247,-226.1093 1792.6626,-216.1295 1795.2087,-207.8062 1797.9417,-198.4015 1800.5946,-188.8659 1803.1958,-179.224 1805.7837,-169.451 1808.6492,-158.5623 1811.0172,-149.5503 1813.686,-139.4344 1816.6682,-128.1861 1819.1315,-118.888 1821.9104,-108.4638 1824.7427,-97.9469 1827.9113,-86.2722 1830.8363,-75.5645 1833.4919,-65.8492 1836.4602,-54.9676 1839.4552,-43.9989 1842.4728,-32.9453 1845.5082,-21.8076 1848.2551,-11.7139 1851.6289,0.7105 1855.0247,13.2275 1857.8225,23.5346 1860.9573,35.053 1864.1193,46.6162 1867.3143,58.222 1870.5497,69.893 1874.1652,82.8023 1877.1708,93.4178 1880.561,105.2674 1883.9944,117.1758 1887.4418,129.1505 1890.8629,141.2013 1894.2534,153.3281 1897.9594,166.7501 1900.9819,177.7925 1904.3438,190.1212 1908.0472,203.7528 1911.0909,214.9566 1914.8301,228.7102 1917.9104,240.0096 1921.7041,253.8745 1924.8324,265.2614 1928.3286,277.9588 1931.8353,290.705 1935.351,303.4993 1938.8777,316.3395 1942.4424,329.217 1946.0536,342.1282 1949.7092,355.0725 1953.4078,368.0491 1957.5247,382.3596 1960.921,394.0984 1964.7134,407.1754 1968.5117,420.2915 1972.3093,433.4472 1976.1049,446.642 1979.9044,459.8727 1983.7219,473.1342 1987.9344,487.7583 1991.39,499.7512 1995.2419,513.1038 1999.1039,526.4851 2002.9757,539.894 2006.8578,553.3299 2010.7529,566.7919 2014.6404,580.2853 2018.8715,595.1744 2022.6929,608.7202 2026.1207,620.9274 2029.9277,634.5212 2033.7406,648.1447 2037.5609,661.7975 2041.387,675.4801 2045.2198,689.1918 2049.0657,702.9308 2052.9229,716.6971 2057.1772,731.8712 2061.0461,745.6964 2064.5237,758.165 2068.772,773.4364 2072.2502,785.9562 2076.1182,799.8932 2079.9883,813.8576 2084.2573,829.2466 2087.7583,841.8575 2091.6538,855.8874 2095.5547,869.9346 2099.4619,884.0034 2103.7778,899.5013 2107.3293,912.1964 2111.6907,927.7304 2115.2773,940.4535 2119.2864,954.6022 2123.7249,970.1797 2127.3784,982.9357 2131.8792,998.537 2135.5964,1011.3087 2139.7656,1025.5063 2143.9768,1039.7103 2148.2131,1053.925 2152.4346,1068.1619 2156.627,1082.424 2161.2197,1098.1365 2164.9683,1111.0089 2169.1145,1125.3317 2173.231,1139.6785 2177.3044,1154.0531 2181.3389,1168.4543 2185.7546,1184.3202 2188.9585,1195.873 2193.7583,1213.2223 2197.3596,1226.2477 2201.376,1240.7291 2205.4033,1255.1908 2209.3586,1269.3164 2213.1382,1282.7233 2216.7273,1295.2921 2220.1021,1307.0684 2223.564,1319.1949 2226.2402,1328.5142 2229.3342,1339.202 2231.7405,1347.3848 2234.5818,1356.6819 2236.8743,1363.7188 2239.4114,1370.9534 2241.9473,1377.5945 2244.4963,1383.6945 2247.1138,1389.2866 2249.8777,1394.4326 2253.1624,1399.7625 2256.1423,1403.9481 2260.2097,1408.9113 2263.9551,1412.8661 2269.0293,1417.5454 2273.6008,1421.1797 2279.052,1425.0646 2285.2205,1429.2678 2290.1973,1432.5118 2295.9221,1436.3842 2300.2129,1439.624 2304.5483,1443.3815 2308.4124,1447.34 2311.7861,1451.5221 2314.6958,1455.9355 2317.1182,1460.5449 2319.0466,1465.3253 2320.5159,1470.3162 2321.5896,1475.5291 2322.3328,1481.593 2322.5508,1486.7849 2322.3206,1492.7196 2321.572,1498.7316 2320.4761,1504.8092 2319.2886,1511.1007 2317.8518,1517.5719 2316.2056,1524.222 2314.4177,1531.059 2312.6252,1538.1078 2310.8403,1546.1184 2309.6172,1552.832 2308.5076,1560.5029 2307.623,1569.1805 2307.1675,1576.4537 2306.9509,1584.6995 2307.0325,1593.9559 2307.3975,1601.6605 2308.1724,1611.22 2309.1189,1619.145 2310.5171,1628.0405 2312.2617,1637.0206 2314.3315,1646.0729 2316.7173,1655.1864 2319.3958,1664.3552 2322.6304,1674.509 2325.4128,1682.894 2328.5552,1692.3185 2331.6746,1701.8354 2335.0559,1712.449 2338.0713,1722.2479 2340.7217,1731.191 2343.5972,1741.2631 2346.3984,1751.4746 2349.0989,1761.8285 2351.6738,1772.3271 2354.106,1782.9698 2356.387,1793.7527 2358.5237,1804.6693 2360.5176,1815.7134 2362.3699,1826.8799 2364.2659,1839.2952 2365.6958,1849.5526 2367.1421,1861.0519 2368.4463,1872.6523 2369.6179,1884.3483 2370.666,1896.1348 2371.5994,1907.9805 2372.4949,1921.0872 2373.1277,1931.8864 2373.7915,1945.1744 2374.269,1956.1165 2374.801,1969.5719 2375.2031,1980.646 2375.6345,1993.0165 2376.1013,2006.702 2376.479,2017.9586 2376.8982,2030.527 2377.3708,2044.4246 2377.7617,2055.8506 2378.2039,2068.6035 2378.6497,2081.4153 2379.1013,2094.2849 2379.5544,2107.2114 2380.0476,2121.4954 2380.4475,2133.2314 2380.8853,2146.3225 2381.312,2159.4661 2381.7649,2173.9834 2382.1633,2187.2322 2382.5012,2199.1968 2382.8914,2213.8711 2383.1633,2225.918 2383.4121,2239.3445 2383.6448,2252.8123 2383.8694,2266.3201 2384.0986,2279.8667 2384.3403,2293.4507 2384.5913,2307.0713 2384.8408,2320.7283 2385.0925,2334.4189 2385.3484,2348.1443 2385.6089,2361.9014 2385.8943,2377.0701 2386.158,2390.8904 2386.4055,2403.3523 2386.6877,2417.2244 2386.9744,2431.1226 2387.2764,2445.0461 2387.6023,2458.9917 2387.9712,2474.321 2388.2793,2486.8857 2388.6252,2500.8723 2388.9692,2514.8857 2389.3503,2530.3318 2389.6646,2542.9941 2390.0229,2557.0896 2390.4004,2571.2122 2390.7732,2585.3633 2391.1409,2599.5425 2391.5054,2613.7498 2391.895,2629.4102 2392.2104,2642.2483 2392.5483,2656.5403 2392.9036,2672.2935 2393.178,2685.208 2393.5095,2701.0247 2393.7808,2713.991 2394.0898,2728.4248 2394.4053,2742.887 2394.7195,2757.3762 2395.0566,2773.3445 2395.3083,2786.4314 2395.5303,2800.9956 2395.6379,2815.5818 2395.6169,2830.1887 2395.3838,2846.2739 2394.998,2859.4441 2394.3438,2874.071 2393.4453,2888.4722 2392.2776,2902.3718 2390.9082,2915.6941 2389.4114,2928.4578 2387.8203,2940.6846 2385.928,2953.5293 2384.2551,2963.5757 2382.2993,2974.2571 2379.9626,2985.3503 2377.9849,2993.9275 2375.7456,3002.8992 2373.4836,3011.2473 2371.271,3018.9768 2369.1128,3026.106 2367.0093,3032.6511 2364.9507,3038.6379 2362.7402,3044.6482 2360.9756,3049.1455 2359.0439,3053.7334 2356.9263,3058.3311 2355.1558,3061.7837 2353.0845,3065.3132 2350.8079,3068.5364 2348.2517,3071.4475 2345.4224,3073.9968 2342.3528,3076.1372 2338.7529,3077.9839 2335.6404,3079.1272 2331.9565,3080.0535 2328.0251,3080.6204 2323.8684,3080.8198 2319.0664,3080.5647 2314.5486,3079.8516 2310.3823,3078.8081 2305.605,3077.2842 2300.0408,3075.3862 2294.6851,3073.5828 2289.6462,3071.8762 2283.8367,3069.9094 2277.9146,3067.9187 2271.1465,3065.6479 2265.4082,3063.7241 2258.8191,3061.5439 2252.0066,3059.3369 2244.2629,3056.8865 2237.7444,3054.8511 2230.3179,3052.5591 2222.7078,3050.2319 2214.9502,3047.875 2207.0574,3045.4963 2198.9934,3043.0894 2189.9338,3040.3979 2182.3867,3038.1379 2173.8655,3035.5554 2165.2048,3032.906 2156.4036,3030.2075 2147.4648,3027.4653 2138.397,3024.6687 2128.2778,3021.5354 2119.8894,3018.9304 2110.4568,3015.9958 2099.9609,3012.7207 2091.3083,3010.0181 2081.5854,3006.9805 2070.7622,3003.5942 2061.8157,3000.769 2051.7783,2997.5776 2041.6375,2994.3474 2031.394,2991.0828 2020.0132,2987.4475 2010.615,2984.4407 2000.0862,2981.0571 1989.4705,2977.6245 1977.6837,2973.8308 1967.9537,2970.7258 1957.0559,2967.2668 1946.0702,2963.7969 1935.0065,2960.2935 1923.864,2956.7681 1912.6432,2953.2275 1901.3484,2949.667 1889.9832,2946.0825 1878.5603,2942.4771 1867.0992,2938.8706 1855.567,2935.2456 1842.7981,2931.2461 1832.2865,2927.9663 1820.5414,2924.3118 1808.7302,2920.6401 1796.8547,2916.9504 1783.7216,2912.8616 1772.9227,2909.4949 1760.8701,2905.7256 1748.766,2901.9133 1736.6085,2898.0684 1724.4034,2894.1755 1712.1578,2890.2148 1699.8795,2886.167 1687.5807,2881.9998 1675.283,2877.657 1662.9955,2873.1206 1649.4861,2867.9299 1638.4465,2863.5115 1624.9768,2857.8967 1613.9766,2853.134 1601.7927,2847.6309 1588.429,2841.3464 1577.5178,2836.0488 1565.4252,2829.9922 1553.345,2823.7996 1540.0604,2816.8596 1529.1948,2811.0828 1517.1189,2804.5723 1505.0354,2797.9775 1491.7336,2790.6326 1480.8435,2784.5549 1468.7316,2777.7427 1456.5927,2770.8984 1444.4167,2764.0425 1432.2098,2757.1675 1419.9829,2750.2566 1407.7334,2743.321 1395.4612,2736.3679 1383.1627,2729.4067 1370.8376,2722.4319 1357.2521,2714.7393 1346.1145,2708.4351 1333.7412,2701.4446 1321.337,2694.4546 1308.9009,2687.4624 1295.1947,2679.7507 1283.9674,2673.4148 1271.4789,2666.3474 1258.9756,2659.2529 1246.4674,2652.1179 1232.7234,2644.1885 1221.5038,2637.6169 1209.0752,2630.2102 1196.6953,2622.6804 1184.3578,2615.0376 1172.0685,2607.2783 1159.8358,2599.387 1147.6504,2591.3809 1134.3105,2582.4302 1123.4435,2575.0012 1110.2208,2565.7937 1098.2439,2557.3208 1087.5004,2549.6138 1074.4034,2540.1045 1062.5188,2531.3889 1051.8444,2523.4827 1040.007,2514.6284 1028.1772,2505.7246 1016.3629,2496.7622 1004.5837,2487.7112 992.8367,2478.5801 979.9412,2468.4592 969.4062,2460.1279 957.717,2450.821 946.0465,2441.458 934.3857,2432.0508 921.5648,2421.6621 911.0712,2413.1421 899.3784,2403.6926 886.4731,2393.3223 874.725,2383.8887 864.1452,2375.3865 852.3912,2365.9163 840.6479,2356.408 828.9307,2346.8462 817.2289,2337.2407 805.5515,2327.583 791.5708,2315.9207 782.274,2308.1042 770.8323,2298.4033 759.8428,2288.9502 749.3921,2279.8105 739.47,2270.9729 730.1072,2262.3411 721.3406,2253.8115 713.1534,2245.3201 705.4136,2236.884 697.3593,2227.6143 691.2277,2219.9106 684.9282,2211.1064 679.142,2202.0 673.793,2192.5491 668.9211,2182.7712 664.62,2172.7961 660.5066,2161.6868 657.5566,2152.5479 654.6605,2142.4893 652.0653,2132.7166 649.7415,2123.3501 647.5923,2114.4646 645.2756,2105.1794 643.3356,2097.929 641.2343,2090.3721 639.09,2082.6313 637.3863,2076.7664 635.5036,2070.7412 633.6098,2065.2156 631.8355,2060.6699 629.5294,2055.6174 627.2133,2051.3281 624.6125,2047.2664 621.6815,2043.502 618.7653,2040.4111 614.8728,2037.0662 611.0626,2034.4773 607.0397,2032.3512 602.7886,2030.6674 598.2746,2029.3929 593.4872,2028.524 587.9008,2028.0181 583.0954,2027.9277 577.5297,2028.131 571.8061,2028.7004 565.9684,2029.6746 559.9959,2031.0615 553.8779,2032.8434 547.6089,2034.9352 541.1752,2037.2601 533.8871,2039.9913 527.0546,2042.567 520.7391,2044.9478 513.587,2047.6382 506.2734,2050.3633 498.0154,2053.4016 491.0968,2055.9165 483.2476,2058.7505 475.2357,2061.6331 467.0741,2064.5864 458.7773,2067.6348 450.3528,2070.7874 441.8083,2074.0493 433.1566,2077.4167 424.571,2080.8188 416.2785,2084.1575 408.3627,2087.3762 400.8647,2090.428 393.7584,2093.301 387.0036,2095.9897 380.5783,2098.5039 374.426,2100.875 368.5027,2103.116 362.8163,2105.2263 357.3929,2107.1887 352.212,2109.0168 347.2701,2110.7175 342.5737,2112.2935 338.1319,2113.7214 333.9544,2114.9167 330.0094,2115.7886 326.2177,2116.3215 322.5329,2116.5068 318.6429,2116.2742 315.5999,2115.7231 312.3677,2114.7378 309.0381,2113.2427 306.2538,2111.5486 303.9047,2109.7507 301.4086,2107.4363 299.0338,2104.8008 296.7946,2101.8352 294.7079,2098.5466 292.7926,2094.9561 291.0701,2091.072 289.5132,2086.9131 287.9753,2082.0117 286.872,2077.7451 285.8776,2072.709 284.9551,2066.7996 284.192,2061.7173 283.2318,2055.842 282.2008,2049.8311 281.1367,2043.6459 280.0287,2037.2284 278.8852,2030.5852 277.7302,2023.7207 276.5823,2016.6392 275.4224,2009.3507 274.21,2001.8698 272.9375,1994.207 271.6071,1986.3712 270.2263,1978.4034 268.7967,1970.3048 267.318,1962.0441 265.8026,1953.6226 264.2409,1945.0463 262.4765,1935.4376 260.9993,1927.4438 259.3273,1918.4248 257.6163,1909.2675 255.6875,1899.0405 254.0786,1890.556 252.259,1881.009 250.4156,1871.3381 248.5526,1861.5758 246.4805,1850.7286 244.7644,1841.7466 242.6344,1830.6417 240.6717,1820.4271 238.8867,1811.1379 236.6782,1799.6646 234.638,1789.1235 232.7751,1779.5487 230.6781,1768.8145 228.5347,1757.9856 226.3513,1747.0635 224.129,1736.0508 221.8689,1724.9498 219.572,1713.7634 217.0025,1701.3632 214.8679,1691.1455 212.4515,1679.7214 209.987,1668.2255 207.4696,1656.6616 204.8966,1645.032 202.2529,1633.3431 199.2761,1620.4576 196.7772,1609.8656 193.6255,1596.8584 190.9504,1586.1721 187.5137,1573.0714 184.5375,1562.3304 181.022,1550.3861 177.2975,1538.4337 173.3194,1526.4913 169.1177,1514.5559 164.7036,1502.6278 159.6432,1489.5063 155.3657,1478.7637 149.9797,1465.6255 145.446,1454.8707 140.2797,1442.9147 134.9961,1430.9464 129.0679,1417.76 124.1691,1406.9365 118.6988,1394.864 112.6793,1381.5172 107.7525,1370.545 101.7156,1357.0792 96.7681,1346.0153 91.25,1333.6801 85.7045,1321.3036 80.1367,1308.8861 74.5459,1296.4286 68.3669,1282.6832 62.7225,1270.1516 57.6159,1258.8484 51.9222,1246.2588 46.2145,1233.6351 39.9006,1219.7219 34.694,1208.3245 28.8231,1195.6666 22.8404,1183.027 16.7198,1170.4188 10.424,1157.8638 3.979,1145.3783 -3.3127,1131.7268 -9.4449,1120.614 -16.455,1108.3428 -23.6687,1096.155 -31.087,1084.0565 -38.6875,1072.0374 -46.4439,1060.0852 -54.3011,1048.1715 -62.8406,1035.2786 -69.532,1025.1042 -77.2837,1013.1895 -83.2486,1003.8133 -89.4649,993.7344 -95.2763,984.0003 -101.2456,973.683 -106.2798,964.6093 -110.5217,956.6739 -114.9478,948.0884 -119.0539,939.7044 -123.2177,930.6629 -126.3478,923.3742 -129.5158,915.3595 -132.3178,907.3905 -134.7411,899.4091 -136.7128,891.3949 -138.204,883.3666 -139.1763,875.3458 -139.6435,866.4359 -139.6056,858.9965 -139.168,850.5933 -138.2383,841.2114 -137.0935,833.5241 -135.3517,825.0989 -133.0599,816.8494 -129.9118,807.9598 -126.5386,799.9487 -123.164,792.7554 -118.9871,784.8374 -114.3565,777.0229 -109.2985,769.3202 -103.8303,761.7427 -97.9817,754.3148 -91.7722,747.0855 -85.2047,740.0117 -78.3086,733.0885 -71.1319,726.2794 -63.7442,719.5195 -56.2561,712.7563 -48.1688,705.3389 -41.831,699.2985 -34.5615,691.8722 -29.0341,685.7026 -23.2799,678.6786 -17.9388,671.4487 -13.0424,664.0192 -8.6358,656.396 -4.7487,648.553 -1.3163,640.4255 1.773,632.0089 4.5806,623.3413 7.3015,613.5296 9.2079,605.3012 10.9154,596.0044 12.0862,586.6784 12.7116,577.337 12.8128,567.8792 12.6972,558.328 12.4741,548.645 12.1012,538.8359 11.5549,528.9075 10.7754,518.0043 9.8498,508.3918 8.8364,500.0371 7.5125,491.0459 5.9374,482.2601 3.8146,472.7722 1.6964,465.166 -1.0563,456.8086 -4.2088,448.5052 -7.7908,440.2681 -11.8032,432.1039 -16.7264,423.2333 -21.1355,416.0671 -26.4485,408.2528 -32.1839,400.6655 -38.3641,393.3093 -44.9368,386.1673 -51.8225,379.2387 -58.8165,372.6207 -65.6206,366.2444 -72.6649,359.3206 -78.0382,353.6479 -83.5446,347.2698 -88.5731,340.7431 -93.1992,334.0175 -97.4532,327.049 -101.7078,319.0646 -104.8451,312.3032 -107.9143,304.5865 -110.5182,296.6916 -112.6067,288.6407 -114.3148,279.6271 -115.2943,272.158 -115.9611,263.8028 -116.1553,254.592 -115.8167,246.235 -115.0956,238.7477 -113.8665,230.4556 -112.2686,222.1586 -110.2642,213.8794 -107.529,204.8319 -104.5445,196.6933 -101.4589,189.571 -97.5662,181.9627 -93.1403,174.6818 -88.1749,167.6758 -82.7289,160.8494 -76.8579,154.186 -69.9464,147.048 -64.0032,141.3177 -57.2236,135.1161 -50.4842,129.1943 -44.0027,123.4279 -37.8625,117.6838 -32.078,111.8193 -26.6515,105.7391 -21.6256,99.4303 -16.6291,92.2221 -12.9525,86.0882 -9.2029,78.9898 -5.411,70.8341 -2.5566,63.9146 0.2279,56.0627 2.5407,48.0597 4.3705,39.9194 5.7079,31.6654 6.5783,23.2676 7.0419,13.8279 7.0864,5.9566 6.8493,-2.9306 6.2644,-12.8632 5.5835,-21.1069 4.5826,-31.3237 3.6695,-39.799 2.5794,-49.3339 1.3117,-59.9646 0.231,-68.7696 -0.9907,-78.6437 -2.2139,-88.6037 -3.4148,-98.6866 -4.5631,-108.8934 -5.6109,-119.2253 -6.5211,-129.6813 -7.2769,-140.2591 -7.9083,-152.0306 -8.2233,-161.7631 -8.3409,-172.6635 -8.1521,-183.6543 -7.6509,-194.7307 -6.8215,-207.0073 -5.8462,-218.2472 -4.8428,-228.4287 -3.7366,-239.8258 -2.7859,-251.32 -2.0998,-262.9088 -1.6686,-274.5864 -1.5443,-286.3386 -1.8025,-298.157 -2.4401,-309.9893 -3.6199,-323.0401 -5.0925,-334.9355 -6.7644,-345.6493 -8.9401,-357.568 -11.4179,-369.4966 -14.0444,-381.4668 -17.0123,-394.6978 -19.4763,-405.5774 -22.2295,-417.7263 -24.9962,-429.9391 -28.0697,-443.4413 -30.613,-454.5394 -33.473,-466.9224 -36.3589,-479.3609 -39.5319,-493.1125 -42.1272,-504.4171 -45.0228,-517.0293 -47.9323,-529.6942 -50.8403,-542.4147 -53.7347,-555.1913 -56.6368,-568.0193 -59.5592,-580.8945 -62.8117,-595.0972 -65.7728,-607.8322 -68.3961,-618.8926 -71.2289,-630.618 -73.9581,-641.7247 -76.5906,-652.2117 -79.1164,-662.1128 -81.5711,-671.4635 -84.2125,-681.1469 -86.576,-689.4114 -88.7048,-696.4186 -91.1438,-703.7331 -94.0103,-711.2096 -96.5236,-716.9301 -99.5423,-722.9203 -102.8722,-728.554 -106.9303,-734.3769 -110.5428,-738.8339 -115.2801,-743.9168 -119.8884,-748.3102 -124.0787,-752.2384 -128.9832,-757.1594 -132.69,-761.3818 -136.445,-766.2801 -139.8601,-771.3663 -143.2106,-777.3115 -145.5571,-782.5004 -147.8638,-788.5641 -149.8043,-794.9097 -151.3111,-801.4313 -152.3774,-808.1313 -153.0435,-814.8925 -153.4172,-821.4552 -153.7517,-828.2175 -154.1606,-833.335 -154.9235,-839.0933 -155.7948,-843.4338 -157.0553,-847.9072 -158.6327,-852.1 -160.5512,-856.0551 -162.8284,-859.722 -165.4403,-863.0585 -168.3044,-866.093 -171.7646,-869.1299 -175.0887,-871.7836 -178.0772,-874.3 -181.2541,-877.3485 -184.132,-880.7121 -186.6826,-884.4061 -188.9655,-888.3953 -190.9279,-892.6868 -192.5327,-897.2596 -193.8206,-902.0771 -194.7617,-907.1343 -195.3288,-912.4329 -195.5676,-918.5703 -195.5446,-923.8405 -195.3978,-929.9249 -195.128,-936.0928 -194.746,-942.3822 -194.2151,-949.5636 -193.7356,-955.641 -193.2027,-962.6027 -192.6295,-970.507 -192.157,-977.1581 -191.613,-984.7337 -190.9974,-993.2836 -190.4969,-1000.4403 -189.8901,-1009.3334 -189.3373,-1017.5666 -188.7794,-1025.9664 -188.2675,-1033.6652 -187.6788,-1042.3687 -187.0695,-1051.2252 -186.4402,-1060.2316"/>
	<!-- Raw distance reference points -->
	<polyline id="dist" fill="none" stroke="none" stroke-width="0" points="13617.9277,6.8628 12.327,6.9953 21.7021,7.0767 31.205,7.1679 40.8274,7.2617 50.5982,7.3604 60.4849,7.4459 70.4758,7.5409 80.5581,7.6125 90.7432,7.7194 101.0437,7.8075 111.4548,7.895 121.969,8.0073 132.5855,8.1318 143.3113,8.2684 154.141,8.417 165.0769,8.5831 176.1168,8.7442 187.2463,8.9385 198.4594,9.1081 209.7599,9.2955 221.136,9.4881 232.5762,9.654 244.1105,9.8326 255.7325,10.0462 267.4345,10.2396 279.2096,10.4325 291.0454,10.6554 302.8963,10.8833 314.8271,11.1047 326.8164,11.308 338.8211,11.4923 350.8965,11.7143 362.9845,11.9431 375.1784,12.1929 387.3805,12.454 399.7234,12.7414 412.1775,13.068 424.6762,13.4576 437.2167,13.7682 449.8167,14.1372 462.4313,14.5434 475.086,14.9532 487.738,15.4359 500.4821,15.8532 513.2452,16.3222 526.0743,16.8313 538.6786,17.3341 550.9957,17.8189 562.9582,18.3603 574.6598,18.8266 586.0373,19.2498 597.1339,19.7134 608.045,20.2204 618.7638,20.6148 629.3957,21.0606 640.0066,21.5396 650.5969,21.9304 661.0882,22.3536 671.5351,22.7645 681.8945,23.1634 692.103,23.5781 702.1829,23.9058 712.2424,24.2909 722.1069,24.685 731.5597,25.0341 740.5204,25.3405 748.942,25.6796 756.797,26.0305 764.1819,26.3235 771.1107,26.5884 777.6813,26.898 783.8994,27.1384 789.7546,27.4441 795.23,27.6979 800.3365,27.9061 805.1171,28.1531 809.6165,28.3495 813.8929,28.563 817.9995,28.7805 821.9821,28.9971 825.9128,29.2008 830.0055,29.4016 834.4459,29.6501 839.4517,29.8895 844.6685,30.108 849.5347,30.3508 854.1578,30.5885 858.7247,30.8338 863.3066,31.0829 868.0406,31.3424 872.8986,31.6507 877.7657,31.9039 882.5999,32.1745 887.405,32.4358 891.7913,32.7207 896.6084,32.9402 901.5065,33.1952 906.4659,33.4552 911.5732,33.7257 916.5818,33.9729 921.327,34.2068 925.898,34.4294 930.527,34.6454 935.3335,34.8614 940.3099,35.0582 945.4778,35.2688 950.809,35.431 956.2889,35.5877 961.9404,35.7597 967.8219,35.8949 973.9141,36.0308 980.0841,36.1231 986.3282,36.2462 992.7788,36.3332 999.4825,36.3877 1006.4133,36.4192 1013.5438,36.4681 1020.886,36.4926 1028.4351,36.4861 1036.1842,36.4587 1044.1315,36.4176 1052.2145,36.3544 1060.4575,36.2383 1068.9727,36.0942 1077.6993,35.9368 1086.5181,35.7609 1095.6453,35.5565 1104.9341,35.3185 1114.3363,35.0239 1123.8539,34.7392 1133.4858,34.4754 1143.2148,34.1302 1152.973,33.6993 1162.7804,33.3143 1172.7242,32.8312 1182.891,32.2719 1193.2987,31.6531 1203.9043,31.0055 1214.6317,30.3535 1225.4417,29.6177 1236.2267,29.0229 1246.8894,28.347 1257.6215,27.5883 1268.2948,26.9828 1279.0175,26.3801 1289.776,25.889 1300.681,25.4583 1311.7599,25.0287 1323.0514,24.5758 1334.1565,24.2397 1345.1541,23.9259 1355.7814,23.6772 1365.9226,23.4849 1375.5399,23.3729 1384.6279,23.2768 1393.2377,23.2157 1401.3838,23.1705 1409.0844,23.1148 1416.3628,23.0662 1423.3278,23.0181 1430.0463,22.9343 1436.6527,22.8591 1443.4558,22.7729 1449.9648,22.6825 1456.5376,22.5774 1463.6564,22.4985 1470.5496,22.4395 1477.7,22.4336 1484.7399,22.3756 1491.7966,22.3494 1499.0514,22.3659 1506.097,22.4228 1513.3462,22.5461 1520.5702,22.7899 1528.1475,23.0994 1535.6379,23.4608 1543.2438,23.7844 1550.8524,24.1302 1558.6803,24.3932 1566.6945,24.6205 1575.2634,24.8776 1584.2969,25.1867 1593.5142,25.5531 1602.267,25.9217 1610.6249,26.3033 1618.9751,26.6234 1627.2323,26.8953 1635.4977,27.0881 1643.8793,27.1178 1652.4225,27.0568 1661.1694,26.9406 1670.1034,26.7221 1679.1803,26.4664 1688.3954,26.0823 1697.7521,25.7392 1707.2542,25.36 1716.9209,25.1177 1726.7035,24.9416 1736.5925,24.7748 1746.6031,24.6449 1756.7408,24.5607 1766.9952,24.4449 1777.3728,24.3337 1787.8888,24.2207 1798.5198,24.0922 1809.2628,23.9345 1820.114,23.8146 1830.9175,23.7056 1841.3231,23.5968 1851.2527,23.4923 1860.7231,23.3774 1869.764,23.2512 1878.4637,23.1341 1886.8485,23.0205 1894.9839,22.867 1903.1473,22.7382 1911.3108,22.6284 1920.0449,22.5391 1928.4624,22.4698 1936.6226,22.4121 1944.8751,22.3799 1953.198,22.3527 1961.7346,22.2618 1970.4611,22.1705 1979.3867,21.9942 1988.434,21.8376 1997.6318,21.6254 2006.999,21.4022 2016.4714,21.1051 2026.0787,20.8258 2035.8053,20.5026 2045.6183,20.1853 2055.5627,19.7892 2065.6453,19.457 2075.8699,19.0814 2086.2314,18.7171 2096.73,18.3551 2107.3677,17.9599 2118.1499,17.5716 2129.0605,17.1744 2140.093,16.7416 2151.2427,16.3064 2162.5051,15.8922 2173.8672,15.4145 2185.3337,15.0324 2196.9031,14.5861 2208.5725,14.1471 2220.3257,13.7042 2232.1643,13.2506 2244.0835,12.8037 2256.054,12.3248 2268.0903,11.8491 2280.2314,11.3668 2292.4763,10.929 2304.8005,10.4816 2317.2056,10.0532 2329.6843,9.668 2342.2444,9.3171 2354.8699,9.0147 2367.5557,8.7811 2380.3325,8.6359 2393.1938,8.5441 2406.1008,8.4901 2419.0603,8.4377 2432.0645,8.3813 2445.1201,8.2961 2458.2397,8.2429 2471.4121,8.2103 2484.6379,8.1849 2497.9211,8.1625 2511.2585,8.149 2524.6494,8.1417 2538.0918,8.1646 2551.5764,8.2259 2565.113,8.278 2578.6963,8.3421 2592.3274,8.395 2605.9917,8.462 2619.708,8.5295 2633.4536,8.6009 2647.2236,8.679 2661.012,8.7475 2674.8269,8.8389 2688.6724,8.9333 2702.5566,9.0004 2716.4739,9.0649 2730.4202,9.1281 2744.3979,9.1823 2758.4106,9.2542 2772.4504,9.3422 2786.5193,9.4479 2800.6189,9.5518 2814.7458,9.6627 2828.8967,9.7809 2843.071,9.9002 2857.239,10.009 2871.4211,10.0935 2885.6304,10.1416 2899.8679,10.1743 2914.1274,10.1887 2928.415,10.1808 2942.7319,10.1533 2957.0762,10.1138 2971.4504,10.0744 2985.8552,10.0465 3000.291,10.0183 3014.7559,9.9841 3029.2407,9.9281 3043.7432,9.8551 3058.281,9.7711 3072.8518,9.6699 3087.4341,9.5686 3102.0317,9.4633 3116.6519,9.3746 3131.2954,9.272 3145.9585,9.161 3160.6409,9.0425 3175.3445,8.9198 3190.0771,8.7844 3204.8352,8.6374 3219.6138,8.4774 3234.4285,8.3061 3249.2637,8.1411 3264.1162,7.9417 3278.9954,7.7704 3293.9028,7.5806 3308.8372,7.3847 3323.7861,7.2155 3338.7363,7.0327 3353.6946,6.8321 3368.6768,6.6699 3383.678,6.4949 3398.6929,6.3202 3413.7271,6.1675 3428.7844,6.0303 3443.8611,5.9033 3458.957,5.793 3474.0676,5.6931 3489.1897,5.6132 3504.3259,5.5444 3519.4788,5.4951 3534.6436,5.4232 3549.8176,5.3672 3564.9968,5.313 3580.1877,5.2592 3595.3918,5.1877 3610.604,5.123 3625.8276,5.0427 3641.0625,4.9563 3656.3105,4.8659 3671.575,4.7792 3686.8503,4.6951 3702.1375,4.5897 3717.4407,4.4812 3732.7395,4.3696 3748.0522,4.2425 3763.3828,4.1401 3778.7214,4.0087 3794.0637,3.9059 3809.4092,3.7893 3824.7659,3.682 3840.1379,3.5733 3855.5176,3.4881 3870.7085,3.4376 3885.3113,3.4121 3899.1201,3.3998 3912.0955,3.3872 3924.2708,3.3717 3935.749,3.3448 3946.6079,3.3067 3956.9038,3.2692 3966.6587,3.2328 3975.9116,3.2017 3984.7058,3.1757 3993.0449,3.1584 4000.9233,3.1493 4008.3203,3.1525 4015.2371,3.1607 4021.6917,3.1634 4027.7908,3.1579 4033.6838,3.1416 4039.5425,3.1076 4045.4182,3.0734 4051.4233,3.041 4058.0986,3.0277 4064.603,3.0608 4071.2146,3.124 4077.6768,3.2038 4083.8416,3.2289 4089.9089,3.2529 4095.9802,3.2486 4102.7559,3.2144 4109.1108,3.1825 4115.4194,3.1973 4121.5864,3.1871 4127.9448,3.1824 4133.7979,3.1795 4139.582,3.1698 4145.3838,3.171 4151.2568,3.1819 4157.1943,3.1905 4163.1709,3.1964 4169.4771,3.2177 4176.0967,3.2641 4183.1055,3.3334 4190.3311,3.3939 4198.042,3.4135 4205.8091,3.4286 4213.9058,3.4129 4221.9746,3.4079 4230.4482,3.3851 4239.0229,3.3673 4247.6807,3.3849 4256.2754,3.418 4265.0957,3.4303 4273.9326,3.4206 4282.8096,3.3978 4291.8242,3.3614 4301.0332,3.3101 4310.4277,3.2682 4319.9849,3.2188 4329.667,3.1808 4339.4517,3.1464 4349.3545,3.1173 4359.3521,3.1018 4369.459,3.1015 4379.6963,3.1006 4390.0493,3.1021 4400.5029,3.1306 4411.063,3.1674 4421.7402,3.204 4432.5352,3.2566 4443.4248,3.3165 4454.4146,3.3955 4465.502,3.4723 4476.6855,3.5366 4487.9663,3.6034 4499.3364,3.6758 4510.791,3.7517 4522.332,3.8262 4533.96,3.8925 4545.6685,3.9691 4557.4556,4.0416 4569.3164,4.0939 4581.2529,4.1507 4593.2407,4.1979 4605.2783,4.2424 4617.3901,4.2811 4629.5728,4.3214 4641.8271,4.3465 4654.1514,4.3723 4666.5439,4.4029 4679.0029,4.4321 4691.5298,4.455 4704.1206,4.4892 4716.7749,4.5178 4729.4907,4.5402 4742.2725,4.5728 4755.1162,4.6038 4768.0161,4.6283 4780.9688,4.6594 4793.9834,4.687 4807.0537,4.7194 4820.1729,4.7638 4833.3428,4.8314 4846.5625,4.9236 4859.8267,5.0162 4873.1357,5.1139 4886.4956,5.2077 4899.9014,5.3047 4913.3521,5.4006 4926.8516,5.4981 4940.3955,5.6109 4953.9731,5.7052 4967.5884,5.805 4981.2417,5.9 4994.9316,5.9935 5008.6597,6.1021 5022.4238,6.217 5036.2227,6.3389 5050.0537,6.4842 5063.917,6.6073 5077.814,6.7618 5091.7437,6.9162 5105.7026,7.0627 5119.689,7.2148 5133.7036,7.3434 5147.7461,7.4545 5161.8159,7.5417 5175.8901,7.6029 5189.9746,7.6329 5204.0918,7.6505 5218.2412,7.64 5232.4199,7.611 5246.6284,7.5588 5260.8691,7.4933 5275.1387,7.4289 5289.4331,7.3673 5303.752,7.2964 5318.0986,7.2317 5332.4771,7.1658 5346.8848,7.0543 5361.3223,6.9429 5375.7925,6.801 5390.2915,6.6437 5404.8135,6.4781 5419.3545,6.3592 5433.9092,6.2502 5448.4819,6.1632 5463.0796,6.1045 5477.7085,6.067 5492.3672,6.0565 5507.0498,6.0693 5521.7393,6.0984 5536.4404,6.1425 5551.1582,6.1872 5565.8926,6.2266 5580.6553,6.271 5595.438,6.3125 5610.2314,6.3581 5625.0454,6.4106 5639.8779,6.4823 5654.728,6.5812 5669.5947,6.6833 5684.4727,6.7925 5699.3633,6.8649 5714.269,6.9149 5729.1934,6.9379 5744.1338,6.9343 5759.0923,6.9055 5774.0698,6.8603 5789.0557,6.8295 5804.0615,6.8112 5819.085,6.8193 5834.1084,6.8514 5849.1147,6.9197 5863.7749,7.0006 5877.6948,7.0817 5890.7686,7.1569 5903.0293,7.2308 5914.5352,7.3023 5925.3481,7.3594 5935.4971,7.4358 5945.0044,7.5081 5953.8716,7.6029 5962.1172,7.6818 5969.7676,7.7711 5976.8477,7.8603 5983.437,7.9481 5989.6099,8.0176 5995.5073,8.0723 6001.3394,8.1071 6007.6694,8.1388 6013.9087,8.1754 6020.396,8.2407 6027.5112,8.3306 6034.2529,8.4493 6041.0571,8.6461 6047.8237,8.8058 6054.3032,8.9071 6060.5195,8.9841 6066.5308,9.0389 6072.8247,9.1037 6078.8335,9.1745 6084.7681,9.2609 6090.6108,9.3449 6096.3125,9.4268 6101.8413,9.5029 6107.5791,9.5925 6113.1104,9.686 6118.7554,9.8003 6124.4907,9.8937 6130.3306,9.9982 6136.2778,10.1007 6142.2637,10.186 6148.5259,10.2636 6155.0986,10.3344 6162.1201,10.4028 6169.3276,10.4716 6176.7871,10.5515 6184.7075,10.6569 6192.7402,10.7415 6200.6655,10.8244 6208.896,10.9526 6217.1035,11.0858 6225.5293,11.2738 6234.002,11.4122 6242.5288,11.527 6251.1372,11.6186 6259.877,11.6667 6268.7734,11.7046 6277.8584,11.7523 6287.1108,11.7984 6296.5171,11.836 6306.0771,11.8633 6315.7812,11.8862 6325.6016,11.8956 6335.5352,11.9079 6345.5503,11.9054 6355.6797,11.8902 6365.9321,11.8628 6376.3042,11.8245 6386.7993,11.7643 6397.4038,11.6872 6408.104,11.6004 6418.9165,11.5083 6429.8652,11.4158 6440.9409,11.3189 6452.1787,11.2295 6463.499,11.1414 6474.915,11.0798 6486.415,11.0449 6498.0127,11.0309 6509.6411,11.0363 6521.3394,11.0547 6533.1147,11.0779 6544.9419,11.1005 6556.8149,11.1179 6568.7495,11.1196 6580.7651,11.1165 6592.8564,11.1116 6605.021,11.1116 6617.2549,11.1273 6629.561,11.1539 6641.9395,11.1904 6654.3882,11.2479 6666.9053,11.2967 6679.4883,11.3537 6692.127,11.4173 6704.8281,11.4729 6717.5859,11.5246 6730.4014,11.5835 6743.2725,11.6344 6756.2017,11.6817 6769.1855,11.7315 6782.2246,11.7711 6795.3184,11.8217 6808.4702,11.8773 6821.6772,11.9585 6834.9395,12.0569 6848.2451,12.1762 6861.5894,12.3297 6874.9688,12.4698 6888.396,12.6468 6901.8706,12.8514 6915.3843,13.0563 6928.9331,13.2459 6942.5205,13.4538 6956.145,13.6719 6969.8018,13.8617 6983.5005,14.0692 6997.2329,14.2784 7010.9961,14.512 7024.7949,14.7937 7038.6196,15.1006 7052.4712,15.3822 7066.3481,15.7116 7080.2505,16.031 7094.1787,16.357 7108.1265,16.6402 7122.0684,16.9195 7136.0366,17.1389 7150.0288,17.3796 7164.043,17.605 7178.0835,17.801 7192.1519,17.9426 7206.251,18.0351 7220.3794,18.1327 7234.5356,18.1957 7248.7212,18.2421 7262.9272,18.273 7277.1597,18.2642 7291.4272,18.2597 7305.7241,18.2249 7320.0474,18.115 7334.4023,18.0133 7348.7847,17.8713 7363.1987,17.7277 7377.6396,17.5582 7392.1035,17.4327 7406.5957,17.36 7421.1201,17.3159 7435.6714,17.2756 7450.2432,17.2436 7464.8315,17.2912 7479.4248,17.3792 7494.0298,17.5288 7508.644,17.6832 7523.2651,17.8751 7537.6738,18.1125 7551.5977,18.3284 7565.0146,18.4744 7577.9819,18.6399 7590.4224,18.7963 7602.436,18.9213 7613.8682,19.0874 7624.7446,19.2396 7635.0503,19.4317 7644.8174,19.5642 7654.0308,19.6756 7662.6704,19.7933 7670.71,19.8935 7678.1772,19.9767 7685.0684,20.0382 7691.4062,20.0996 7697.2471,20.1554 7702.623,20.1863 7707.5767,20.1995 7712.1523,20.2112 7716.4102,20.2138 7720.4243,20.2082 7724.3999,20.1922 7728.7407,20.1689 7733.5776,20.1259 7738.4614,20.0664 7743.0186,20.0044 7746.6196,19.9562 7750.7891,19.9108 7754.7529,19.8641 7758.708,19.7936 7762.8813,19.6889 7767.3345,19.5859 7772.0757,19.4922 7777.0596,19.3917 7782.3677,19.3063 7787.9937,19.23 7793.9043,19.1673 7800.0596,19.1033 7806.3374,19.0279 7812.8828,18.9611 7819.6255,18.9032 7826.5874,18.8149 7833.7705,18.6988 7841.1504,18.5971 7848.7407,18.5296 7856.5171,18.459 7864.4712,18.3855 7872.5679,18.3164 7880.8149,18.2499 7889.2427,18.188 7897.834,18.1242 7906.5815,18.0854 7915.478,18.05 7924.5156,18.0185 7933.7207,18.0089 7943.0747,18.0042 7952.562,17.99 7962.1826,17.9802 7971.9243,17.9644 7981.7905,17.953 7991.7739,17.9415 8001.8301,17.9311 8012.0078,17.9397 8022.3154,17.9526 8032.7456,17.9662 8043.292,17.9736 8053.9463,17.9754 8064.7061,18.0085 8075.561,18.0506 8086.5107,18.0641 8097.5576,18.1006 8108.7114,18.1368 8119.9614,18.1951 8131.3062,18.2546 8142.7378,18.3119 8154.2588,18.3669 8165.8682,18.4459 8177.5596,18.5123 8189.3335,18.5962 8201.1836,18.6773 8213.1045,18.7695 8225.0801,18.8676 8237.0908,18.9423 8249.1719,18.9886 8261.333,19.062 8273.5693,19.14 8285.8721,19.2108 8298.2422,19.2687 8310.6787,19.3312 8323.1826,19.3853 8335.7539,19.4574 8348.3877,19.5167 8361.0771,19.5681 8373.8252,19.6029 8386.6309,19.6199 8399.4941,19.6296 8412.416,19.6148 8425.3955,19.5733 8438.4307,19.4794 8451.5264,19.3727 8464.6855,19.2079 8477.9121,19.0748 8491.1924,18.9094 8504.5371,18.6942 8517.9307,18.4539 8531.3525,18.2316 8544.8154,18.0304 8558.3184,17.8105 8571.873,17.565 8585.4873,17.2516 8599.1777,16.9856 8612.9014,16.6926 8626.6592,16.4224 8640.4727,16.1403 8654.334,15.9673 8668.2197,15.7998 8682.1572,15.6348 8696.1367,15.473 8710.1523,15.3214 8724.2061,15.2106 8738.2812,15.1221 8752.3896,15.0659 8766.5234,14.964 8780.6914,14.8779 8794.8887,14.7819 8809.1025,14.7319 8823.3047,14.6878 8837.5381,14.6747 8851.8037,14.709 8866.1016,14.7423 8880.4424,14.7607 8894.8232,14.831 8909.21,14.9333 8923.6074,15.056 8938.0205,15.2208 8952.4502,15.3465 8966.9053,15.4496 8981.3926,15.5324 8995.9033,15.593 9010.4502,15.5553 9025.0283,15.5431 9039.6211,15.5146 9054.25,15.4772 9068.9219,15.4227 9083.6104,15.3908 9098.2871,15.2931 9112.9648,15.1593 9127.6562,14.9993 9142.3809,14.7978 9157.1494,14.5647 9171.9482,14.2837 9186.7549,13.9773 9201.5781,13.6278 9216.4189,13.3387 9231.2939,13.0711 9246.2002,12.8621 9261.1172,12.6828 9276.0654,12.4477 9291.0391,12.2702 9306.0166,12.1201 9321.0117,11.9663 9336.0342,11.8472 9351.0762,11.7418 9366.127,11.6051 9381.1836,11.4797 9396.2588,11.3964 9411.3447,11.2973 9426.4453,11.1798 9441.5635,10.9951 9456.6992,10.7936 9471.8428,10.5365 9487.0049,10.251 9502.1846,10.0675 9517.1855,9.7946 9531.6748,9.5536 9545.543,9.3564 9558.8047,9.1578 9571.5273,8.9843 9583.749,8.802 9595.5244,8.5837 9606.9434,8.3324 9618.1143,7.9969 9629.1201,7.6589 9640.0996,7.2957 9651.1035,7.0757 9662.2871,6.9385 9673.3955,6.8737 9684.3848,6.8584 9695.2461,6.8198 9705.9922,6.7562 9716.502,6.6747 9726.6318,6.5801 9736.2803,6.5029 9745.416,6.4525 9754.1172,6.4217 9762.4766,6.3905 9770.3174,6.3669 9777.6416,6.3504 9784.4502,6.3325 9790.7578,6.3048 9796.5908,6.2594 9801.9756,6.2029 9806.9912,6.1055 9811.874,6.019 9816.7949,5.9292 9821.8545,5.8402 9827.4785,5.7717 9832.5918,5.7197 9837.6729,5.7058 9842.6436,5.7028 9847.5303,5.7015 9852.5068,5.7119 9857.6309,5.7515 9862.877,5.8219 9868.2402,5.908 9873.7607,6.0099 9879.4424,6.0867 9885.3008,6.1242 9891.3809,6.1232 9897.6934,6.088 9904.2939,6.0196 9911.1289,5.9414 9918.1836,5.8412 9925.4678,5.7468 9932.958,5.6571 9940.6016,5.5558 9948.4111,5.4582 9956.4023,5.3583 9964.5791,5.2911 9972.9238,5.2411 9981.4365,5.1796 9990.1152,5.128 9998.9531,5.0746 10007.9453,5.0218 10017.0869,4.9724 10026.3643,4.915 10035.5928,4.8351 10044.5254,4.7642 10053.0654,4.7053 10061.1562,4.6572 10068.8145,4.6123 10076.0801,4.5611 10082.9785,4.5301 10089.5752,4.5022 10095.915,4.496 10101.9834,4.479 10107.748,4.4658 10113.2314,4.4695 10118.4365,4.4812 10123.3652,4.4634 10128.0059,4.4496 10132.3135,4.4453 10136.3389,4.4337 10140.0752,4.4037 10143.627,4.3752 10147.0732,4.3434 10150.4961,4.318 10154.1367,4.3049 10157.9443,4.3091 10161.208,4.3221 10164.9863,4.3435 10168.6484,4.3767 10172.1709,4.4145 10175.7598,4.4498 10179.4219,4.468 10183.1992,4.4572 10187.1738,4.4488 10191.5234,4.4294 10196.0127,4.3906 10200.8428,4.3551 10206.0117,4.3153 10211.4971,4.2711 10217.377,4.2643 10223.4531,4.2703 10229.6328,4.3103 10235.9346,4.3415 10242.4482,4.3746 10249.1709,4.4089 10256.1094,4.4404 10263.2363,4.4777 10270.5977,4.503 10278.1641,4.5308 10285.9297,4.5617 10293.8711,4.5904 10301.9473,4.6281 10310.1641,4.6579 10318.5664,4.6929 10327.127,4.7269 10335.8408,4.7457 10344.7129,4.7744 10353.7383,4.8105 10362.9092,4.856 10372.2236,4.8852 10381.6738,4.9266 10391.2549,4.9672 10400.9697,4.9932 10410.8135,5.005 10420.7539,5.016 10430.791,5.0153 10440.9502,5.0085 10451.2295,5.0035 10461.6221,4.9815 10472.1221,4.9643 10482.7227,4.9462 10493.4434,4.9251 10504.2754,4.9243 10515.2148,4.9183 10526.2549,4.9267 10537.3955,4.9192 10548.6279,4.9286 10559.9531,4.9486 10571.3711,4.9688 10582.876,5.0313 10594.4727,5.0541 10606.1621,5.0737 10617.9346,5.1246 10629.7686,5.2117 10641.6836,5.2156 10653.6934,5.185 10665.7305,5.1464 10677.8438,5.0978 10690.0342,5.0455 10702.3184,4.9419 10714.6572,4.8215 10727.1025,4.7 10739.7061,4.5787 10752.4121,4.4131 10765.0967,4.294 10777.8984,4.185 10790.6914,4.1071 10803.5283,4.0064 10816.373,3.9204 10829.2734,3.8073 10842.2412,3.7127 10855.2627,3.6056 10868.3428,3.4512 10881.4795,3.2985 10894.6748,3.1774 10907.9268,3.033 10921.2344,2.871 10934.5967,2.7576 10948.0107,2.5822 10961.4697,2.4467 10974.9766,2.2839 10988.543,2.137 11002.166,1.9827 11015.8516,1.8796 11029.5791,1.7909 11043.3271,1.7357 11057.1016,1.7127 11070.9121,1.7035 11084.7617,1.7285 11098.6484,1.745 11112.5654,1.8373 11126.5156,1.9293 11140.501,1.9962 11154.5156,1.9583 11168.583,1.8798 11182.668,1.7855 11196.7549,1.6854 11210.8789,1.6063 11225.0342,1.5494 11239.2168,1.5154 11253.4717,1.4988 11267.793,1.4896 11282.1162,1.5178 11296.498,1.5821 11310.6445,1.6499 11324.1973,1.7197 11337.1084,1.8759 11349.417,2.0388 11361.21,2.1542 11372.4932,2.3044 11383.3359,2.4726 11393.7324,2.6345 11403.7168,2.8156 11413.3457,2.9986 11422.6543,3.1758 11431.7021,3.3814 11440.4961,3.548 11449.085,3.7316 11457.5205,3.9244 11465.8613,4.0792 11474.1211,4.2335 11482.3096,4.3602 11490.4062,4.4646 11498.5586,4.5684 11506.8369,4.6372 11515.3584,4.7288 11524.1035,4.8558 11532.9395,4.979 11541.6387,5.1157 11550.4141,5.2667 11559.2119,5.4307 11568.0791,5.5848 11577.0039,5.6996 11586.1895,5.8374 11595.4961,5.9722 11604.9219,6.0944 11614.4414,6.2111 11623.9941,6.3304 11633.5654,6.4455 11643.2354,6.5335 11653.0107,6.6266 11662.9043,6.7129 11672.9111,6.7858 11682.9814,6.8537 11692.9463,6.909 11702.6729,6.956 11712.1191,7.0234 11721.3096,7.0877 11730.3242,7.1575 11739.25,7.2178 11748.1113,7.2318 11756.9062,7.2131 11765.7021,7.1916 11774.624,7.1639 11783.709,7.1445 11792.9131,7.1329 11802.1904,7.1311 11811.6045,7.1085 11821.0547,7.089 11830.4082,7.0785 11839.6807,7.0223 11849.0488,6.9755 11858.5664,6.9056 11868.2695,6.8297 11878.1309,6.7333 11888.1055,6.6378 11898.0645,6.5104 11907.7295,6.377 11917.042,6.2479 11926.0879,6.1237 11934.9531,6.0155 11943.7646,5.8401 11952.5859,5.7044 11961.4307,5.5445 11970.5049,5.3647 11979.6943,5.1872 11989.0166,5.0028 11998.46,4.8313 12007.9258,4.6848 12017.3662,4.5136 12026.8135,4.3179 12036.3223,4.1035 12045.9238,3.8609 12055.6211,3.6024 12065.2539,3.3353 12074.6514,3.079 12083.7861,2.8163 12092.749,2.6211 12101.374,2.4123 12110.0938,2.2018 12118.7344,1.967 12127.209,1.7002 12135.5244,1.4175 12144.0371,1.2123 12152.6533,0.9985 12161.1299,0.7609 12169.7627,0.5265 12178.4033,0.2987 12186.8906,0.1299 12195.4062,-0.0634 12203.96,-0.2722 12212.5928,-0.4368 12221.0947,-0.5678 12229.8223,-0.6761 12238.6553,-0.7907 12247.4561,-0.9023 12256.1455,-0.9928 12265.0176,-1.0356 12273.8711,-1.0718 12282.6201,-1.122 12291.2432,-1.1594 12300.0283,-1.1659 12308.957,-1.1645 12318.0625,-1.1495 12327.1895,-1.1005 12336.46,-1.0521 12345.6709,-0.9906 12354.6367,-0.9223 12363.293,-0.852 12371.6826,-0.7832 12379.9072,-0.7115 12388.083,-0.6373 12396.1787,-0.5809 12404.3955,-0.515 12412.6875,-0.4443 12420.9277,-0.3903 12429.6367,-0.326 12438.4971,-0.2758 12447.1797,-0.2248 12455.5986,-0.1928 12464.1797,-0.179 12472.7061,-0.1591 12481.1387,-0.1377 12489.6787,-0.1149 12498.3291,-0.0902 12507.1621,-0.065 12516.1572,-0.0194 12525.3467,0.0221 12534.7129,0.076 12544.2021,0.109 12553.8184,0.168 12563.5342,0.2575 12573.3779,0.3309 12583.3623,0.402 12593.415,0.4631 12603.5449,0.5211 12613.8018,0.5829 12624.166,0.6516 12634.6494,0.7094 12645.2715,0.756 12656.0957,0.8013 12667.1396,0.8682 12678.3398,0.9554 12689.665,1.0156 12701.043,1.0927 12712.1787,1.2096 12723.4082,1.2997 12734.709,1.4096 12746.1016,1.5138 12757.6641,1.61 12769.3965,1.7197 12781.3584,1.807 12793.4326,1.8448 12805.5654,1.8901 12817.6172,1.9212 12829.5234,1.955 12841.4238,1.9903 12853.4043,2.0539 12865.499,2.105 12877.7158,2.1673 12889.9756,2.237 12902.3232,2.3144 12914.7119,2.3751 12927.1709,2.4571 12939.7041,2.5231 12952.2832,2.6031 12964.9248,2.6741 12977.6396,2.7386 12990.4092,2.8017 13003.2412,2.903 13016.1357,2.9586 13029.0723,3.0296 13042.043,3.1236 13055.083,3.1693 13068.1885,3.2558 13081.3486,3.3199 13094.5479,3.3996 13107.7793,3.4759 13120.8809,3.5597 13133.5361,3.6255 13145.6104,3.7202 13157.0635,3.7957 13167.877,3.869 13178.0986,3.9382 13187.7568,4.0093 13196.8828,4.0801 13205.5156,4.1403 13213.6689,4.1978 13221.3594,4.258 13228.584,4.3438 13235.4434,4.4167 13242.333,4.4822 13249.1768,4.5354 13256.5996,4.5787 13263.3545,4.6106 13269.7617,4.631 13275.9512,4.639 13282.2334,4.6345 13288.7236,4.6209 13295.3398,4.6319 13302.6396,4.6888 13309.2188,4.7081 13315.7773,4.7039 13322.585,4.7831 13329.1064,4.8597 13335.7393,4.9289 13342.4248,4.9703 13349.2051,5.0025 13355.9971,5.026 13362.5527,5.0261 13368.7119,5.0171 13374.4297,5.0435 13379.7266,5.0946 13384.6533,5.1321 13389.2539,5.1869 13393.623,5.2556 13397.8857,5.3165 13402.3564,5.3698 13407.5371,5.4285 13413.3672,5.4443 13418.8096,5.4426 13423.2344,5.4556 13427.1729,5.447 13431.1279,5.4237 13435.4971,5.407 13441.8799,5.437 13447.3096,5.4947 13452.1533,5.5563 13456.7607,5.6375 13461.4756,5.7017 13466.4561,5.7411 13471.6865,5.7669 13477.2188,5.785 13483.0693,5.8049 13489.166,5.8315 13495.3525,5.8695 13501.6748,5.9119 13508.2129,5.9573 13514.9814,5.9957 13521.9834,6.046 13529.1826,6.1051 13536.583,6.155 13544.1689,6.2204 13551.9141,6.2804 13559.8564,6.3237 13567.9062,6.3882 13576.0801,6.4562 13584.4678,6.5309 13593.04,6.5952 13601.7949,6.6693 13610.6846,6.7573 13619.7266,6.8311"/>
</svg>
