<?xml version="1.0" encoding="utf-8"?>
<!-- Track map generated with TinyPedal -->
<svg viewBox="-773.6270 -446.6934 1847.5177 1091.8837" version="1.1" xmlns="http://www.w3.org/2000/svg">
	<title>Circuit of the Americas</title>
	<!-- Sector coordinates index -->
	<desc>189,444</desc>
	<!-- Raw global coordinates -->
	<polyline id="map" fill="none" stroke="black" stroke-width="10" points="-649.9396,254.5653 -641.8674,260.7451 -635.0114,265.9963 -628.0414,271.3361 -620.9576,276.7583 -613.7635,282.2623 -606.4623,287.8477 -599.0565,293.5114 -591.5443,299.2466 -583.9346,305.0601 -576.2408,310.9526 -568.4665,316.8993 -559.804,323.511 -552.6285,328.9714 -544.5639,335.0909 -536.4045,341.2653 -528.1526,347.4936 -519.817,353.7829 -510.5557,360.7735 -502.9063,366.5462 -493.4726,373.6671 -485.6958,379.5579 -476.1348,386.8524 -468.265,392.893 -459.4668,399.6736 -450.6052,406.5152 -441.6599,413.3885 -431.7321,420.9937 -423.535,427.2397 -413.4269,434.9016 -405.0887,441.1971 -394.835,448.9457 -386.4069,455.316 -376.0605,463.1394 -366.6185,470.3061 -358.0835,476.7924 -347.6098,484.7602 -339.0013,491.3055 -329.413,498.6185 -319.8024,505.9724 -309.2095,514.1079 -300.5312,520.8044 -289.921,529.04 -281.2352,535.8088 -271.5499,543.3257 -260.8405,551.5703 -252.0574,558.3077 -242.3942,565.6689 -233.1207,572.6653 -224.3885,579.1878 -216.2104,585.213 -208.5704,590.7277 -201.4587,595.742 -194.8329,600.295 -188.0488,604.7976 -182.8219,608.1428 -176.7495,611.8372 -171.4914,614.8054 -166.9394,617.1572 -162.0597,619.437 -157.3416,621.3758 -152.7527,622.9535 -148.273,624.137 -143.8913,624.8931 -139.6199,625.1903 -135.4942,625.004 -131.215,624.2332 -127.9878,623.1826 -124.7509,621.5753 -121.6614,619.3182 -119.5295,617.1311 -117.5817,614.4341 -116.0483,611.4554 -114.8926,608.1752 -114.0666,604.2457 -113.7078,600.7756 -113.6368,596.6819 -113.9202,592.3688 -114.5548,587.8314 -115.632,582.5497 -116.8336,578.0365 -118.7002,572.3893 -120.5873,567.662 -123.0194,562.2882 -125.7559,556.7772 -129.0941,550.5543 -132.0556,545.3256 -135.5306,539.3521 -139.1729,533.2058 -142.9138,526.85 -146.6291,520.2513 -150.2269,513.3617 -153.9497,505.4145 -156.7466,498.6148 -159.7994,489.9497 -161.9571,482.5861 -163.9527,474.1385 -165.5114,465.4442 -166.6184,455.64 -167.0323,447.5207 -166.9415,438.4493 -166.246,429.373 -164.7823,419.4479 -163.0149,411.3437 -160.1541,401.4767 -157.2305,393.4814 -153.4018,384.732 -148.4707,375.3316 -143.8941,367.8431 -138.2438,359.7865 -132.0281,352.0416 -125.2727,344.6454 -118.0021,337.6386 -110.2527,331.0433 -102.073,324.8548 -93.4796,319.1205 -83.5751,313.3806 -74.2306,308.6044 -65.6536,304.4692 -56.0515,299.8293 -46.4498,294.9956 -36.9208,289.9145 -26.665,284.1324 -18.5319,279.2564 -9.6892,273.7246 -1.1092,267.9366 7.1268,261.8018 14.9723,255.3094 22.3546,248.4274 29.2622,241.1915 35.7033,233.5376 41.8461,225.5183 48.1891,216.2695 53.5106,207.6056 57.9846,199.7359 62.7385,191.0785 67.4553,182.6344 72.4338,174.4702 77.8058,166.6481 83.562,159.1993 89.662,152.1269 96.1636,145.4902 103.0588,139.2967 110.3291,133.5666 117.8446,128.2558 126.2541,122.9645 132.9869,118.8422 140.0019,114.0076 146.3821,108.75 152.187,103.0983 157.4618,97.0688 162.2511,90.7453 166.4889,84.1378 170.1609,77.2943 173.3272,70.2471 176.0783,62.9443 178.4147,55.3643 180.5143,46.8041 182.1164,39.7928 184.0538,32.1408 186.3217,24.7086 188.9763,17.4755 192.0786,10.495 195.996,3.1092 199.5975,-2.6427 203.9629,-8.7102 208.7262,-14.3877 214.4767,-20.247 219.5051,-24.8963 225.4336,-29.7941 231.6001,-34.2988 237.987,-38.3596 244.5696,-41.9521 252.0052,-45.3264 258.1907,-47.6797 265.1652,-49.7263 272.1976,-51.2073 279.2594,-52.1012 287.0208,-52.4264 293.3074,-52.2454 300.1859,-51.5529 307.6715,-50.1772 313.8261,-48.6202 320.6985,-46.4719 328.2711,-43.6057 334.4778,-40.9167 341.4097,-37.6454 349.1431,-33.8533 355.5816,-30.6586 362.8764,-27.0699 370.2163,-23.6217 377.5422,-20.5678 384.9094,-18.0138 392.357,-15.9867 400.613,-14.3832 407.3831,-13.572 414.88,-13.2427 423.0435,-13.5618 429.6042,-14.4104 436.7369,-15.9627 443.6808,-18.1131 450.4742,-20.8476 457.8427,-24.4816 463.7505,-27.9413 470.1434,-32.293 476.913,-37.6877 482.2065,-42.5561 487.7001,-48.3598 493.0706,-55.0346 496.8896,-60.5982 500.6409,-66.76 504.3448,-72.5892 508.1966,-77.981 512.2509,-83.0083 516.6069,-87.6582 521.283,-91.8575 526.2488,-95.5537 531.4147,-98.6943 536.6807,-101.2423 542.0133,-103.1814 547.399,-104.523 552.8038,-105.291 558.7039,-105.4972 563.4455,-105.1737 568.5651,-104.2956 573.4855,-102.8886 578.7453,-100.7342 582.9697,-98.5382 587.5343,-95.6454 591.9068,-92.2728 596.064,-88.4548 600.507,-83.9233 604.6924,-79.7802 608.691,-76.1749 613.3821,-72.5546 618.8626,-69.2103 624.1279,-66.7599 629.5811,-64.7568 635.2297,-63.2222 640.4558,-62.1245 646.4904,-61.2573 652.7634,-60.7426 659.2493,-60.616 665.9175,-60.9306 672.7506,-61.6087 679.7362,-62.5773 687.5654,-63.9598 694.069,-65.3081 701.4122,-66.994 708.8862,-68.8319 716.5031,-70.7688 724.2704,-72.7734 732.1832,-74.8602 740.2348,-77.049 748.411,-79.3786 756.7015,-81.8761 765.0986,-84.5465 773.574,-87.4463 782.915,-91.0054 790.5397,-94.2535 798.9653,-98.2582 807.3442,-102.6408 816.4929,-107.8924 823.903,-112.5332 831.9779,-118.1638 840.6898,-124.8445 848.4403,-131.3427 856.0153,-138.2354 862.7007,-144.7344 869.9845,-152.2607 877.1099,-160.0982 884.0924,-168.2122 890.9435,-176.5789 897.618,-185.216 904.1252,-194.117 910.6537,-203.133 917.9384,-213.0879 924.6987,-222.1502 930.8945,-230.3194 937.939,-239.3764 945.1565,-248.4039 952.4967,-257.4405 959.9225,-266.5104 967.4474,-275.5975 975.0549,-284.7098 982.7216,-293.8632 990.3602,-303.0172 997.7297,-311.95 1004.6621,-320.4534 1011.7032,-329.1869 1017.0399,-335.8565 1023.0894,-343.4948 1027.6017,-349.2989 1032.1638,-355.3188 1036.2341,-360.8985 1039.7959,-366.0665 1042.8712,-370.856 1045.5046,-375.3176 1047.9746,-379.9663 1049.8784,-384.0967 1051.3179,-387.8034 1052.5935,-391.9228 1053.533,-396.3801 1053.8907,-399.886 1053.8486,-403.5888 1053.3438,-407.0565 1052.2919,-410.5484 1051.072,-413.1416 1049.1558,-415.9843 1047.2589,-418.1226 1044.7887,-420.3205 1041.9194,-422.2722 1038.7029,-423.9236 1035.1876,-425.1999 1031.391,-426.1061 1026.9272,-426.6244 1023.0719,-426.6934 1018.1701,-426.3145 1014.0037,-425.6211 1008.6913,-424.3661 1004.1502,-423.0565 998.9078,-421.3468 993.4903,-419.4241 987.339,-417.0749 982.1258,-415.0088 976.1361,-412.5938 969.294,-409.8417 963.4901,-407.5635 956.8204,-405.016 949.9464,-402.4139 942.8771,-399.7558 935.6299,-397.0533 927.4642,-394.0404 920.6237,-391.5498 912.8602,-388.7541 904.9273,-385.9341 896.0098,-382.8082 888.5668,-380.2417 880.1465,-377.3839 871.5731,-374.5239 862.8406,-371.6977 853.9527,-368.9121 844.011,-365.8705 834.835,-363.1064 826.4694,-360.6146 816.1395,-357.5707 807.5917,-355.0669 797.9946,-352.2663 788.3018,-349.4281 778.5111,-346.5699 767.6302,-343.4131 758.6451,-340.8152 748.5719,-337.9288 738.4033,-335.05 728.1409,-332.1794 717.7869,-329.3111 707.3439,-326.4403 696.8096,-323.5824 686.1822,-320.7495 675.4617,-317.9449 663.5698,-314.8651 653.7688,-312.3302 642.7982,-309.5185 631.7386,-306.7365 620.5941,-303.9676 609.3629,-301.2249 598.0436,-298.5198 585.4954,-295.5879 575.1734,-293.2195 562.465,-290.3575 551.9918,-288.0436 539.1018,-285.2453 527.3017,-282.7188 516.6113,-280.4776 504.654,-278.0309 492.6183,-275.6093 480.5098,-273.1937 468.3278,-270.7869 454.846,-268.1458 443.7542,-265.9873 431.3663,-263.5976 418.9124,-261.2223 405.1408,-258.619 393.8254,-256.4619 379.9346,-253.8178 368.5186,-251.6648 355.7814,-249.2851 342.9843,-246.9571 330.1256,-244.7008 317.206,-242.5199 302.9214,-240.2418 291.1827,-238.4429 278.0897,-236.495 264.9456,-234.5962 251.7496,-232.7548 238.5241,-230.9612 225.2623,-229.1868 211.9601,-227.4156 197.2795,-225.4874 185.2312,-223.9293 171.803,-222.2326 158.3309,-220.5793 144.8162,-218.9639 131.2634,-217.3597 117.6743,-215.7499 102.6842,-213.9802 90.3861,-212.5424 76.6878,-210.9443 62.9561,-209.327 49.2806,-207.6854 35.9289,-206.0503 23.1398,-204.4601 11.057,-202.9415 -0.3138,-201.4963 -10.9746,-200.115 -20.9386,-198.7733 -31.1516,-197.3062 -39.7307,-195.9733 -47.6235,-194.6276 -54.8545,-193.2557 -60.8322,-191.9901 -66.8995,-190.5278 -72.4172,-189.0304 -77.4288,-187.4905 -81.9281,-185.8519 -85.9233,-184.08 -89.7849,-181.9185 -92.5468,-179.9452 -95.1897,-177.5387 -97.3945,-174.9512 -99.1481,-172.1874 -100.3674,-169.2169 -101.0483,-166.1334 -101.2289,-162.9694 -100.9451,-159.6601 -100.1859,-156.2171 -98.9409,-152.6992 -97.0651,-148.7424 -94.9578,-144.9836 -92.7385,-141.4795 -89.9333,-137.4701 -86.8154,-133.3459 -83.4234,-129.176 -79.7446,-124.9436 -75.8027,-120.639 -71.606,-116.268 -67.1775,-111.8178 -62.5388,-107.2757 -57.7218,-102.6193 -52.2658,-97.3304 -47.7406,-92.8655 -42.6749,-87.7259 -37.6051,-82.369 -32.5499,-76.7865 -27.5141,-70.9828 -22.022,-64.3312 -17.6223,-58.7119 -13.1098,-52.5522 -9.1367,-46.6018 -5.6682,-40.8722 -2.6754,-35.3561 0.0505,-29.5367 1.8153,-24.9874 3.302,-20.1807 4.388,-15.2058 4.8571,-11.3711 4.9325,-6.9566 4.6039,-3.5065 3.8269,0.2001 2.6099,3.7202 0.8141,7.3226 -0.9752,10.0324 -3.5752,13.1228 -6.3664,15.7698 -9.5569,18.2108 -12.7666,20.2076 -17.0971,22.3294 -20.9442,23.7571 -25.9712,25.0807 -30.3218,25.8163 -35.3824,26.2604 -40.6347,26.2835 -46.0072,25.864 -52.0129,24.8702 -56.9754,23.6391 -62.5002,21.8537 -68.5232,19.3398 -73.3812,16.8067 -78.6728,13.5242 -83.8228,9.7449 -88.7992,5.4966 -93.5447,0.7788 -98.0095,-4.3859 -102.5727,-10.504 -106.0005,-15.8016 -109.7956,-22.5992 -112.9551,-29.0257 -115.7848,-34.9196 -119.1099,-41.5036 -123.0917,-48.6459 -126.5901,-54.1707 -130.6115,-59.8859 -134.7114,-65.1304 -138.8953,-69.8912 -143.1793,-74.2028 -147.6318,-78.0745 -152.2699,-81.5489 -157.0257,-84.6143 -161.8692,-87.2479 -167.2449,-89.723 -171.6254,-91.3832 -176.4119,-92.8275 -181.0452,-93.793 -185.4873,-94.2748 -189.7319,-94.2769 -193.815,-93.8097 -197.7173,-92.8943 -201.7643,-91.3694 -204.8365,-89.7327 -207.9368,-87.5287 -210.6406,-84.9585 -212.8886,-82.0992 -214.6475,-78.9999 -215.9161,-75.7431 -216.6947,-72.4053 -216.9875,-68.7235 -216.7632,-65.3803 -216.1954,-62.2721 -215.171,-58.7146 -213.7627,-55.064 -212.0372,-51.2846 -209.7801,-46.9135 -207.6583,-43.1749 -204.7588,-38.4456 -202.164,-34.492 -199.0602,-29.9792 -195.3829,-24.8761 -192.1697,-20.601 -188.3945,-15.7427 -184.4316,-10.7541 -180.2996,-5.6265 -176.0099,-0.3604 -171.5823,5.0511 -167.0512,10.6075 -162.4562,16.3146 -157.849,22.2229 -152.8723,29.0208 -148.9429,34.8514 -144.7832,41.6291 -140.8932,48.7262 -136.992,56.9029 -134.1155,63.8595 -131.3327,71.794 -129.079,79.8278 -127.4187,87.916 -126.3661,96.0418 -125.9044,104.2481 -126.0408,112.4823 -126.7559,120.7415 -128.0155,129.0367 -129.7865,137.3167 -132.0723,145.4993 -135.211,154.241 -138.6266,161.9032 -142.1519,168.5464 -146.5562,175.6026 -151.4401,182.2278 -156.7575,188.3828 -162.4929,194.0471 -168.6544,199.2851 -175.2239,204.2064 -182.9008,209.2361 -189.5128,213.0284 -197.1857,216.8845 -205.1777,220.347 -214.3118,223.6604 -222.8417,226.1552 -230.6227,227.9124 -240.2483,229.4041 -248.1796,230.0965 -257.0261,230.3087 -265.8841,229.9359 -274.7095,228.985 -283.5469,227.4817 -293.2842,225.2119 -301.2258,222.8524 -310.849,219.3612 -318.6508,216.0577 -327.2191,211.9071 -336.4438,206.7513 -343.8278,202.0699 -351.8024,196.3517 -359.4766,190.0808 -366.7941,183.2591 -373.739,175.9274 -380.2896,168.1185 -387.0338,159.0246 -392.1809,151.2157 -397.571,142.212 -402.8596,133.0213 -408.2582,123.7732 -413.858,114.5291 -419.6757,105.3108 -425.6266,96.2212 -431.5537,87.5064 -437.3995,79.3288 -443.1506,71.7469 -448.7864,64.7516 -454.3572,58.3658 -459.924,52.6109 -465.5403,47.4947 -471.2346,43.0032 -477.0132,39.1254 -483.4519,35.5181 -488.7578,33.0856 -495.2747,30.7425 -500.6064,29.3465 -506.5342,28.3491 -512.5836,27.877 -518.8258,27.8714 -525.2279,28.3258 -531.7546,29.2516 -539.0345,30.8496 -545.041,32.6072 -551.7725,34.9328 -558.5287,37.6953 -565.3408,40.7917 -572.9432,44.4481 -579.2983,47.525 -586.4987,51.0228 -593.849,54.6 -601.3622,58.2234 -609.0454,61.866 -616.8831,65.5447 -624.8728,69.2583 -633.0076,73.0066 -642.0789,77.1742 -649.5954,80.6394 -658.0522,84.5386 -666.6215,88.4761 -675.2769,92.4761 -683.8163,96.4728 -691.987,100.3477 -699.5844,103.9723 -707.2551,107.6498 -713.0289,110.4412 -719.4958,113.6012 -724.2858,115.9902 -729.073,118.4679 -733.6869,121.0165 -736.9594,122.9981 -740.1139,125.1768 -742.8632,127.4378 -745.2839,129.8561 -747.4232,132.4978 -749.3345,135.4552 -751.012,138.78 -752.2954,142.2974 -753.1924,146.3043 -753.5883,149.7771 -753.627,153.7812 -753.2064,157.7713 -752.3289,161.7278 -750.9919,165.7353 -749.2158,169.7834 -747.0462,173.9188 -744.4594,178.1349 -741.432,182.372 -738.0,186.5516 -734.1284,190.6117 -729.8603,194.5879 -725.2581,198.52 -720.3634,202.4409 -715.2147,206.3864 -709.8583,210.4062 -704.3197,214.521 -698.0211,219.1487 -692.7162,223.0169 -686.6858,227.3924 -679.8977,232.3031 -673.5902,236.8716 -667.8109,241.0766 -661.2858,245.8629 -653.9818,251.262"/>
	<!-- Raw distance reference points -->
	<polyline id="dist" fill="none" stroke="none" stroke-width="0" points="5490.0503,-5.8167 9.5148,-5.8189 18.1568,-5.818 26.9397,-5.7951 35.8616,-5.7849 44.9211,-5.8221 54.115,-5.8171 63.4416,-5.8159 72.8972,-5.8145 82.4778,-5.8113 92.177,-5.8205 101.9647,-5.8139 111.8618,-5.8086 121.8734,-5.8164 131.9921,-5.8186 142.2245,-5.824 152.5527,-5.8224 162.9738,-5.8054 173.5072,-5.8115 184.1505,-5.8095 194.8992,-5.8224 205.7434,-5.8236 216.6722,-5.8161 227.6929,-5.8104 238.8045,-5.8145 250.009,-5.8326 261.2911,-5.826 272.6607,-5.8441 284.1093,-5.8289 295.6444,-5.833 307.2561,-5.8099 318.9444,-5.7186 330.6897,-5.5562 342.4859,-5.2894 354.3418,-4.9363 366.2522,-4.6238 378.2125,-4.1118 390.224,-3.6581 402.2934,-3.0552 414.4062,-2.3733 426.5624,-1.5369 438.7614,-0.795 451.0042,0.2071 463.2818,1.1253 475.5922,2.2105 487.9324,3.4398 500.2956,4.548 512.5099,5.855 524.2006,7.2245 535.1776,8.5344 545.3958,9.7703 554.8719,10.958 563.5998,12.0919 571.6855,13.143 579.1737,14.2219 586.1202,15.0495 592.6297,15.9855 598.7183,16.736 604.4156,17.3246 609.7551,17.9004 614.7623,18.389 619.4709,18.8055 623.9348,19.1568 628.2848,19.4478 632.77,19.6925 637.5624,19.9108 642.6993,20.1189 648.1671,20.2551 656.4123,20.3937 662.4337,20.5464 668.2559,20.6812 673.4085,20.803 677.5877,20.8827 681.0345,20.9291 684.2,20.9421 687.6863,20.9184 691.4811,20.8421 695.6494,20.6971 700.1768,20.4859 705.0336,20.1601 710.1831,19.8123 715.5688,19.2862 721.2128,18.7674 727.1168,18.1042 733.2729,17.356 739.6683,16.4555 746.2855,15.7238 753.1393,14.8976 760.2253,14.0262 767.5464,13.1494 775.0763,12.296 782.8266,11.4572 790.7761,10.5581 798.9507,9.8568 807.2988,9.0421 815.8064,8.4036 824.4623,7.7167 833.2034,7.0186 842.029,6.3002 851.0277,5.7246 860.3167,5.1174 869.5967,4.5484 879.0947,3.9318 888.6408,3.4653 898.2253,2.9799 907.9239,2.6519 917.7773,2.3292 927.7699,2.0648 937.8986,1.9033 948.0248,1.7967 958.1829,1.7452 968.3691,1.7494 978.4916,1.8154 988.6133,1.9249 998.8304,2.0577 1009.152,2.2456 1019.5485,2.5235 1030.002,2.8034 1040.5228,3.0648 1051.1345,3.3372 1061.8527,3.5982 1072.6385,3.9046 1083.3468,4.1003 1093.8933,4.2688 1104.3236,4.4033 1114.6624,4.4466 1124.8674,4.4745 1134.9352,4.4516 1144.9297,4.4036 1155.0327,4.2996 1165.2985,4.1978 1175.71,4.018 1186.1263,3.8589 1196.3612,3.7186 1206.3895,3.6058 1216.2008,3.4802 1225.8123,3.3546 1235.4115,3.2501 1245.2538,3.1463 1255.4194,3.0183 1265.5963,2.8462 1275.6715,2.6824 1285.2943,2.5189 1294.399,2.3874 1303.413,2.2177 1312.3577,2.018 1321.3038,1.9877 1330.3151,1.8999 1338.9047,1.8985 1347.7006,1.9263 1356.3479,1.9749 1364.5222,2.015 1372.7633,2.0867 1380.7029,2.1527 1388.3303,2.1591 1395.8625,2.0902 1403.6379,2.0233 1411.7534,1.9898 1420.0045,1.8592 1428.0944,1.774 1436.3893,1.7348 1444.3772,1.6752 1452.5767,1.637 1460.6658,1.6027 1468.4177,1.6079 1476.2579,1.5948 1483.8236,1.6038 1491.5266,1.6945 1499.1864,1.6919 1507.007,1.7175 1514.7036,1.7828 1522.3822,1.8783 1529.989,1.9921 1537.4703,2.1591 1544.885,2.2501 1552.3247,2.4128 1559.6163,2.5867 1567.0519,2.7849 1574.349,3.0351 1582.0192,3.2089 1589.3069,3.3801 1596.8107,3.5721 1604.0292,3.7082 1611.3712,3.8387 1618.7496,4.0037 1626.2792,4.1229 1633.9358,4.2488 1641.7434,4.3706 1649.7156,4.4463 1657.8353,4.5134 1665.9408,4.5418 1673.874,4.5474 1681.6382,4.5121 1689.2664,4.4369 1696.7386,4.3136 1704.1277,4.1777 1712.0339,4.024 1720.767,3.8393 1728.8759,3.7368 1736.8005,3.6726 1743.9436,3.6166 1751.1365,3.586 1758.4779,3.5853 1765.8812,3.6203 1773.4766,3.6908 1781.1332,3.823 1789.0316,3.9786 1796.7975,4.1896 1804.491,4.4429 1811.8251,4.6718 1818.9489,4.9756 1825.788,5.3005 1832.42,5.6339 1838.9147,5.9525 1845.5687,6.2706 1852.1583,6.6024 1858.7314,6.9496 1865.4834,7.2982 1871.6118,7.633 1877.5573,7.9599 1883.376,8.2784 1889.1003,8.5898 1894.7278,8.923 1900.4795,9.1875 1905.92,9.4781 1911.3127,9.7653 1916.7889,10.0953 1922.4137,10.3655 1928.1255,10.6728 1933.8998,10.998 1939.7424,11.3319 1945.6843,11.6934 1951.4073,12.0076 1957.2316,12.2543 1963.1995,12.4963 1969.3466,12.802 1976.8722,13.1882 1983.8713,13.5501 1991.8724,13.9164 1997.9628,14.1551 2003.749,14.3971 2009.7504,14.6029 2016.0829,14.7704 2022.6758,14.9392 2029.4974,15.0972 2036.516,15.2176 2043.714,15.3271 2051.071,15.4042 2058.6094,15.4849 2066.3074,15.4766 2074.1597,15.4329 2082.1724,15.3547 2090.3369,15.2449 2098.6597,15.1043 2107.1384,14.889 2115.7749,14.6548 2124.5591,14.4071 2133.4751,14.0678 2142.4829,13.644 2151.5635,13.2624 2160.791,12.7905 2170.6553,12.2149 2181.4355,11.5089 2192.1746,10.8414 2202.0947,10.1927 2212.0293,9.4698 2221.9978,8.7992 2232.1484,8.1655 2242.4326,7.5993 2252.8579,6.9784 2263.4536,6.4069 2274.1604,5.8747 2284.9194,5.338 2295.8457,4.7549 2306.8879,4.3093 2318.0254,3.9012 2329.2412,3.4807 2340.5493,3.1904 2351.9426,2.97 2363.4243,2.7258 2374.9937,2.4926 2386.6477,2.3354 2398.3875,2.2394 2410.1904,2.2064 2422.0579,2.2381 2433.9905,2.3041 2445.8914,2.4271 2457.4509,2.6166 2468.4058,2.8176 2478.6277,3.0882 2488.1328,3.3416 2496.998,3.6113 2505.1655,3.8624 2512.6943,4.1316 2519.5747,4.386 2525.8137,4.626 2531.4973,4.8454 2536.6589,5.0499 2541.4211,5.2459 2545.9104,5.3925 2550.1931,5.5043 2554.2947,5.6051 2558.1436,5.6874 2561.8613,5.7364 2565.916,5.7753 2569.0334,5.8141 2573.7759,5.8545 2581.4382,5.8738 2587.001,5.8992 2592.5176,5.8994 2597.4895,5.8699 2601.4138,5.8342 2604.3884,5.7903 2607.6311,5.7458 2610.9546,5.6809 2614.6753,5.5948 2618.6389,5.4968 2622.9492,5.3344 2627.592,5.1722 2632.5417,4.9217 2637.7939,4.6778 2643.3206,4.3624 2649.0845,3.9946 2655.1094,3.5564 2661.3396,3.1906 2667.782,2.7675 2674.4456,2.2949 2681.3376,1.8549 2688.4717,1.4285 2695.7976,1.0173 2703.3433,0.6121 2711.0696,0.2418 2718.981,-0.1371 2727.0725,-0.4173 2735.3293,-0.713 2743.7542,-0.9994 2752.3494,-1.2857 2761.1011,-1.489 2770.0107,-1.6853 2779.0574,-1.8494 2788.2476,-1.975 2797.574,-2.0702 2807.0327,-2.0994 2816.6184,-2.0967 2826.3269,-2.0671 2836.126,-1.9892 2846.0276,-1.8667 2856.0347,-1.6923 2866.1487,-1.4644 2876.3604,-1.2074 2886.6663,-0.8749 2897.0669,-0.5748 2907.5652,-0.2375 2918.1567,0.0871 2928.8359,0.4002 2939.5969,0.6798 2950.4224,0.9364 2961.3411,1.1773 2972.3491,1.4045 2983.4377,1.6081 2994.6106,1.795 3005.865,1.9391 3017.1917,2.0555 3028.5972,2.1582 3040.0811,2.2264 3051.6453,2.2726 3063.292,2.3167 3075.0205,2.3104 3086.7881,2.2601 3098.6338,2.1445 3110.5664,2.0437 3122.5703,1.927 3134.6501,1.7515 3146.8142,1.5544 3159.032,1.3162 3171.3286,1.063 3183.6951,0.7718 3196.1306,0.5019 3208.6248,0.2224 3221.1794,0.0269 3233.7979,-0.1691 3246.4885,-0.3444 3259.2363,-0.4907 3272.0396,-0.5828 3284.9077,-0.6776 3297.8213,-0.6985 3310.7913,-0.7212 3323.8118,-0.7141 3336.8999,-0.671 3350.0334,-0.6434 3363.1941,-0.5877 3376.4038,-0.543 3389.6538,-0.4893 3402.9539,-0.4326 3416.2974,-0.4095 3429.6614,-0.3643 3443.0725,-0.3005 3456.509,-0.2342 3469.981,-0.1696 3483.4885,-0.1009 3497.0408,-0.0773 3510.6257,-0.0803 3524.2427,-0.1003 3537.8901,-0.0873 3551.5725,-0.0952 3565.2832,-0.1186 3579.0354,-0.1488 3592.8254,-0.1927 3606.6545,-0.2786 3620.4316,-0.3789 3633.8782,-0.4894 3646.7561,-0.656 3658.927,-0.7858 3670.3691,-0.934 3681.1133,-1.07 3691.1626,-1.2138 3700.5752,-1.3824 3709.3293,-1.5363 3717.4089,-1.676 3724.824,-1.8005 3731.6257,-1.915 3737.8335,-2.0264 3743.4985,-2.1286 3748.6646,-2.2197 3753.3328,-2.3113 3757.5256,-2.3971 3761.3711,-2.4817 3764.7856,-2.5528 3768.4111,-2.6363 3772.9028,-2.7435 3781.5879,-2.8734 3787.7244,-2.953 3792.8916,-2.974 3796.4641,-2.9849 3799.1814,-2.9961 3802.2781,-3.0115 3805.7578,-3.0346 3809.5632,-3.071 3813.8555,-3.1128 3818.4973,-3.1544 3823.4219,-3.187 3828.5989,-3.2067 3833.9856,-3.2343 3839.6118,-3.2572 3845.4827,-3.2619 3851.5122,-3.2514 3857.7368,-3.2258 3864.1562,-3.1891 3870.7722,-3.1268 3877.5811,-3.0275 3884.5537,-2.9081 3891.686,-2.7438 3898.9919,-2.5437 3906.4487,-2.3277 3914.083,-2.1039 3921.8499,-1.8591 3929.7366,-1.658 3937.2939,-1.4591 3944.4138,-1.2718 3951.0464,-1.1073 3957.2729,-0.9627 3963.0435,-0.8182 3968.3171,-0.7099 3973.0874,-0.6067 3977.4302,-0.5187 3981.4597,-0.4732 3985.3325,-0.4346 3988.9878,-0.408 3992.9875,-0.379 3997.2856,-0.3294 4001.8108,-0.2601 4006.5198,-0.2073 4011.4153,-0.142 4016.4541,-0.0812 4021.4338,-0.0191 4026.085,0.037 4030.3362,0.0989 4034.5645,0.1382 4039.0198,0.1728 4043.7607,0.1836 4048.8064,0.1724 4054.0669,0.1416 4059.4436,0.0829 4064.8591,-0.0265 4070.4021,-0.1356 4076.0364,-0.2981 4081.7715,-0.4965 4087.7554,-0.6266 4094.1582,-0.7634 4101.4551,-0.8723 4108.2471,-0.9755 4114.7314,-1.0512 4121.0693,-1.0954 4127.7866,-1.1674 4134.7119,-1.2599 4141.9209,-1.4216 4149.2651,-1.6036 4157.3032,-1.7833 4165.4873,-1.9581 4173.0439,-2.138 4180.3052,-2.2147 4187.2598,-2.2528 4193.9111,-2.288 4200.2754,-2.3053 4206.3867,-2.3356 4212.3682,-2.3759 4218.4082,-2.3913 4224.5547,-2.4036 4230.9673,-2.3462 4236.5117,-2.2768 4241.7378,-2.2248 4246.7227,-2.1755 4251.4604,-2.1159 4255.9395,-2.0733 4260.1865,-2.0587 4264.2114,-2.0701 4268.2095,-2.1002 4272.4248,-2.1272 4277.2144,-2.1407 4282.7368,-2.143 4288.5615,-2.1286 4293.7983,-2.1001 4298.084,-2.05 4301.582,-1.9909 4304.6089,-1.9321 4307.3296,-1.8686 4310.0869,-1.812 4313.3647,-1.7632 4316.8286,-1.722 4320.6602,-1.6911 4324.7817,-1.6606 4329.3003,-1.6255 4334.1357,-1.6015 4339.1865,-1.5764 4344.4258,-1.5603 4349.877,-1.5445 4355.5703,-1.5282 4361.4751,-1.5156 4367.5811,-1.5048 4373.8887,-1.5025 4380.3994,-1.5007 4387.1133,-1.493 4394.0239,-1.4936 4401.1143,-1.4803 4408.3696,-1.4537 4415.8076,-1.4092 4423.4253,-1.3379 4431.208,-1.2487 4439.1528,-1.1112 4447.2271,-0.9709 4455.4082,-0.8118 4463.6963,-0.6903 4471.9956,-0.5659 4480.3491,-0.478 4488.6768,-0.4005 4497.2266,-0.3212 4505.7676,-0.2178 4514.1245,-0.0775 4522.7529,0.0801 4531.6826,0.246 4540.5713,0.4021 4549.1318,0.5403 4557.606,0.6851 4566.0303,0.7965 4574.4229,0.8899 4583.2441,1.0069 4592.4438,1.1468 4601.3271,1.2922 4609.5273,1.4428 4617.687,1.5975 4625.8257,1.7172 4634.1172,1.8265 4642.5576,1.89 4651.1304,1.926 4659.8237,1.9233 4668.6045,1.8825 4677.4482,1.8091 4686.4507,1.7244 4695.6357,1.6096 4704.6187,1.4948 4713.6475,1.3504 4722.6143,1.1908 4731.5869,1.0081 4740.6484,0.788 4749.8169,0.5046 4759.0591,0.2673 4768.46,-0.0443 4777.9771,-0.3643 4787.6133,-0.7541 4797.3584,-1.2212 4807.2397,-1.6363 4817.2344,-2.0688 4827.23,-2.4717 4837.1812,-2.8313 4847.1621,-3.1659 4857.2847,-3.4832 4867.5732,-3.8347 4877.9829,-4.112 4888.4722,-4.3833 4899.043,-4.6028 4909.7046,-4.7491 4920.4644,-4.8601 4931.3203,-4.912 4942.1533,-4.9169 4952.6719,-4.8892 4962.7144,-4.8629 4972.2104,-4.8111 4981.1206,-4.7588 4989.5493,-4.6963 4997.4736,-4.6718 5004.9932,-4.6823 5012.1294,-4.7212 5018.9111,-4.7775 5025.8628,-4.8813 5032.8037,-4.9832 5039.6118,-5.1237 5046.3018,-5.2463 5052.1748,-5.3832 5057.9761,-5.5406 5063.915,-5.7176 5069.8931,-5.9132 5076.2432,-6.1472 5082.8516,-6.4338 5089.7021,-6.6783 5096.7031,-7.0053 5103.9854,-7.3088 5111.4336,-7.5949 5119.0776,-7.9324 5126.8926,-8.1785 5134.8828,-8.4128 5143.042,-8.6735 5151.3691,-8.8757 5159.8599,-9.0362 5168.5049,-9.2125 5177.2974,-9.3633 5186.2183,-9.4617 5195.2622,-9.5397 5204.4521,-9.5691 5213.772,-9.5711 5223.2075,-9.5402 5232.7471,-9.4501 5242.1807,-9.3439 5251.2222,-9.2172 5259.6411,-9.0751 5267.4185,-8.8873 5274.5786,-8.7328 5281.1611,-8.5253 5287.1372,-8.3574 5292.52,-8.1879 5297.3247,-8.0293 5301.5654,-7.9144 5305.312,-7.7986 5308.7622,-7.6998 5311.9824,-7.6188 5315.2139,-7.5545 5318.4097,-7.488 5322.1245,-7.3879 5326.3184,-7.263 5331.3291,-7.1148 5337.3325,-6.9858 5346.4502,-6.829 5352.5547,-6.6685 5357.9731,-6.5225 5362.4053,-6.3843 5366.3799,-6.2578 5370.5918,-6.1466 5375.1895,-6.0449 5380.1699,-5.9494 5385.4575,-5.8759 5391.0195,-5.8217 5396.8286,-5.7959 5402.8633,-5.7869 5409.1206,-5.7865 5415.5825,-5.7875 5422.2759,-5.7872 5429.1719,-5.7919 5436.2622,-5.7987 5443.5454,-5.8023 5450.9932,-5.8051 5458.603,-5.8058 5466.4404,-5.8106 5474.3662,-5.8107 5482.4082,-5.8067 5490.6548,-5.8057"/>
</svg>
