<?xml version="1.0" encoding="utf-8"?>
<!-- Track map generated with TinyPedal -->
<svg viewBox="-582.5291 -992.4670 1303.4838 2070.2186" version="1.1" xmlns="http://www.w3.org/2000/svg">
	<title>Circuit de Spa-Francorchamps</title>
	<!-- Sector coordinates index -->
	<desc>200,556</desc>
	<!-- Raw global coordinates -->
	<polyline id="map" fill="none" stroke="black" stroke-width="10" points="-230.7913,-734.8506 -240.1329,-749.0129 -246.0335,-757.9827 -251.9731,-767.0397 -257.9352,-776.1611 -263.9312,-785.3655 -270.5686,-795.5805 -276.0384,-804.0038 -282.1584,-813.4304 -288.3255,-822.9238 -294.5375,-832.4775 -300.6898,-841.912 -306.6135,-850.9411 -312.1912,-859.4506 -317.9018,-868.1956 -322.2395,-874.8792 -326.7127,-881.8406 -330.8749,-888.3723 -335.1697,-895.1485 -338.4858,-900.4179 -341.935,-905.9858 -345.419,-911.7752 -347.9872,-916.2488 -350.5538,-920.9781 -352.8535,-925.4903 -354.8595,-929.8025 -356.5493,-933.9319 -357.9181,-937.9065 -358.9518,-941.7433 -359.6259,-945.4288 -359.9292,-948.9332 -359.8575,-952.223 -359.4211,-955.2685 -358.5701,-958.3283 -357.5885,-960.6123 -356.1957,-962.9485 -354.5203,-965.0516 -352.4227,-967.0734 -350.3353,-968.6297 -348.3417,-969.7914 -346.0324,-970.8155 -343.5602,-971.5989 -340.8026,-972.167 -337.7536,-972.467 -334.4346,-972.4446 -330.509,-972.0127 -327.0817,-971.3554 -323.0369,-970.3151 -318.7387,-968.9562 -314.1867,-967.2842 -309.3839,-965.3309 -304.334,-963.1515 -299.0949,-960.7766 -293.6476,-958.2078 -287.9944,-955.457 -281.542,-952.2252 -276.0858,-949.4249 -269.2094,-945.8129 -263.4194,-942.7071 -256.166,-938.7575 -250.0915,-935.4167 -243.1825,-931.5897 -236.1101,-927.6391 -228.1419,-923.1583 -221.4633,-919.4173 -213.8653,-915.2089 -206.0685,-910.9768 -198.0867,-906.7369 -189.1269,-902.0517 -181.6728,-898.1436 -172.4418,-893.2349 -164.8083,-889.0769 -156.2723,-884.2629 -147.6966,-879.2215 -139.0971,-873.9396 -130.4999,-868.3922 -121.925,-862.5613 -112.5632,-855.7789 -104.9679,-849.9489 -95.7801,-842.4785 -88.3499,-836.0931 -80.1944,-828.7153 -71.3599,-820.3032 -64.2324,-813.1835 -56.3731,-805.0714 -48.5576,-796.77 -40.7492,-788.3173 -32.9168,-779.7456 -25.0438,-771.072 -17.1262,-762.3039 -8.3691,-752.548 -1.1652,-744.4851 6.887,-735.4474 14.9916,-726.3327 23.1566,-717.1495 31.3997,-707.9177 39.7369,-698.652 48.9976,-688.4081 56.6355,-679.9818 65.1912,-670.5805 73.8156,-661.138 82.517,-651.6771 91.3145,-642.2381 100.2786,-632.8687 109.4958,-623.662 119.9787,-613.7935 128.8582,-605.9771 139.086,-597.6443 150.8008,-588.9877 160.6969,-582.2712 171.8209,-574.9252 182.8954,-567.465 193.6471,-559.6143 203.8425,-551.2289 213.3454,-542.2861 222.1154,-532.824 230.7469,-521.8384 237.1406,-512.5116 243.6665,-501.8922 249.5538,-491.0377 254.8651,-479.9854 259.7284,-468.7766 264.1917,-457.4011 268.4948,-445.9048 272.6623,-434.3182 276.5276,-422.6191 280.422,-410.8899 284.4774,-399.1648 288.8224,-387.5131 293.5499,-375.9806 298.6839,-364.5879 304.247,-353.3631 310.2361,-342.3232 316.6385,-331.4801 323.4152,-320.8235 330.5336,-310.35 338.6771,-298.9952 345.5273,-289.7987 353.298,-279.6598 361.8812,-268.4784 368.8466,-259.2484 376.5298,-248.9064 384.9125,-237.4294 392.4668,-226.9019 399.1951,-217.3408 406.5783,-206.6141 413.8563,-195.773 421.0062,-184.808 427.9909,-173.7013 434.7796,-162.4391 441.979,-149.8572 447.641,-139.408 453.6886,-127.6425 459.4889,-115.7242 465.6023,-102.459 470.3977,-91.4889 475.5363,-79.1916 480.4841,-66.7876 485.2435,-54.28 490.2985,-40.4161 494.3298,-29.0053 499.16,-14.9893 503.0517,-3.4723 507.3583,9.3591 511.6602,22.2222 515.9638,35.114 520.2693,48.0333 524.5832,60.9772 528.9019,73.946 533.2216,86.9409 537.5399,99.9614 541.8521,113.0083 546.1643,126.08 550.4859,139.1714 554.8197,152.282 560.0165,168.0449 563.4729,178.573 567.7861,191.7535 572.0816,204.9604 576.3682,218.1888 580.6559,231.4367 584.9564,244.6992 589.2779,257.9732 593.6334,271.2537 598.0345,284.5369 602.4717,297.825 607.377,312.4542 611.399,324.4358 616.325,339.0941 620.8105,352.4347 624.8514,364.4532 629.3467,377.8197 634.2963,392.5388 638.3461,404.5949 643.2853,419.3491 647.3171,431.437 651.7947,444.8807 656.2283,458.2464 660.5315,471.2456 664.6603,483.7048 668.6026,495.577 672.7227,507.9947 675.9415,517.7014 679.3689,528.0494 682.9611,538.9596 685.762,547.5473 688.7134,556.7258 691.4306,565.4759 693.8478,573.7758 695.9277,581.6086 697.6516,588.9904 698.9779,595.9357 699.9288,602.4636 700.5738,608.653 700.9382,614.603 700.9547,620.3745 700.5838,626.0309 699.7786,631.5628 698.5049,636.9196 696.7512,642.0459 694.0244,647.819 691.5644,651.8726 688.7576,655.7726 685.2357,660.0031 681.3127,664.1713 677.0179,668.2974 672.2236,672.9334 668.5135,676.8571 664.7327,681.4246 661.0726,686.7154 658.5001,691.2301 656.064,696.4293 654.0397,701.8392 652.417,707.4331 651.1437,713.7845 650.4541,719.7039 650.2316,725.1194 650.3889,731.2759 650.9377,737.6219 651.8871,744.1212 653.2263,750.7448 654.9444,757.4916 657.0388,764.3135 659.499,771.1967 662.1987,778.1427 664.9549,784.9774 667.5767,791.5793 670.1187,798.608 671.8369,804.2259 673.4081,810.9562 674.2347,816.3683 674.6494,822.301 674.5154,828.1572 673.7645,834.4794 672.6945,839.5486 671.0367,845.1614 668.9189,850.8088 666.3395,856.4736 663.3122,862.1255 659.8282,867.7288 655.9155,873.2529 651.5742,878.6594 646.7958,883.9293 641.598,889.0286 635.9919,893.926 630.0046,898.6596 623.7584,903.3715 617.3152,908.1352 610.6807,912.9523 603.8661,917.8282 596.877,922.7686 589.7376,927.801 581.7421,933.4794 575.1072,938.2536 567.6417,943.6889 560.1046,949.251 552.4959,954.9474 544.8018,960.7722 537.0153,966.712 528.3318,973.3596 521.123,978.8672 512.9973,985.0485 504.7498,991.2922 495.5401,998.2311 487.9132,1003.9471 479.5668,1010.1688 470.7717,1016.6927 463.9557,1021.7231 456.7878,1026.9323 449.994,1031.7063 443.5357,1036.0648 437.3886,1040.0262 430.9478,1043.9592 425.8817,1046.8721 420.4312,1049.7759 415.1422,1052.2759 409.5074,1054.5032 405.0667,1055.9004 400.3242,1056.9863 395.3443,1057.6329 391.3878,1057.7516 387.024,1057.5237 382.6263,1056.9404 377.7492,1055.8611 373.4293,1054.447 369.6954,1052.8265 365.7552,1050.6544 361.717,1047.8422 358.6812,1045.2286 355.6173,1042.0247 352.8625,1038.5068 350.4216,1034.6885 348.3193,1030.5992 346.6115,1026.3245 345.2262,1021.486 344.4969,1017.4567 344.1325,1012.9462 344.2284,1008.4443 344.7656,1003.9385 345.8683,998.9053 347.1495,994.7042 348.95,989.9457 351.168,985.1205 353.8187,980.2881 356.9272,975.5159 360.8323,970.4451 364.4024,966.5038 368.7608,962.3247 373.5314,958.3254 378.706,954.4901 384.8246,950.426 390.0941,947.1724 396.2275,943.6451 402.6423,940.1772 409.3168,936.7448 416.2086,933.2739 423.2129,929.6975 430.0138,926.0803 436.4225,922.434 442.3755,918.7368 447.8702,914.9482 452.9283,911.0338 457.5707,906.9493 461.8679,902.6496 465.8291,898.0911 469.411,893.2783 472.559,888.22 475.2255,882.9314 477.4373,877.36 479.3244,871.5239 480.912,865.4321 482.089,859.1232 482.7774,852.0718 482.8278,846.32 482.3411,839.9976 481.2243,833.0125 479.9347,827.1453 478.2024,820.4533 476.2068,813.5829 473.9352,806.5557 471.3627,799.4005 468.5345,792.15 465.4922,784.7616 462.0034,776.4394 459.0726,769.4678 455.4363,760.7375 452.4453,753.4171 449.1573,745.0797 445.9064,736.5377 442.3751,726.9161 439.5301,718.8923 436.4135,709.8144 433.3463,700.5564 430.33,691.1227 427.3768,681.5148 424.1888,670.7498 421.6505,661.7884 418.9223,651.6682 416.2869,641.3829 413.723,630.9395 411.205,620.3492 408.7278,609.6202 406.2768,598.7603 403.8397,587.7897 401.1593,575.6064 398.7047,564.4136 396.4809,554.2474 393.9861,542.8515 391.4664,531.3502 388.9436,519.7424 386.4205,508.0272 383.8928,496.2108 381.1039,483.1515 378.8372,472.6858 376.3354,461.4774 373.828,450.7587 371.2583,440.5103 368.5471,430.7058 365.582,421.3526 362.249,412.4639 358.496,404.0304 354.3303,396.0759 349.7689,388.6103 344.8515,381.6392 339.6147,375.1756 334.0603,369.2279 327.5713,363.2976 321.3458,358.4563 315.4794,354.5338 308.6195,350.5607 301.4586,346.9743 293.2824,343.5507 286.3687,341.1797 278.4315,338.981 269.3722,337.0032 261.7302,335.6942 253.0194,334.5706 244.1444,333.8261 234.3322,333.5432 226.2632,333.7854 217.2175,334.4943 208.0577,335.6186 197.8632,337.3114 189.4866,339.0902 180.1816,341.5515 170.0467,344.8553 161.8857,348.0521 153.0125,352.1186 143.5341,357.2327 135.9704,361.9055 127.7427,367.5923 119.7242,373.7721 112.06,380.3917 104.8758,387.4489 98.137,395.002 91.7867,403.0332 85.7856,411.4814 79.5788,421.2038 74.8602,429.4942 69.9882,439.0101 65.2608,448.6923 60.3551,459.6125 56.7263,468.806 52.9438,479.2254 49.3468,489.8097 45.9793,500.5485 42.7527,511.4333 39.6002,522.4327 36.5508,533.5573 33.2203,545.9097 30.4788,556.0949 27.3855,567.4821 24.2148,578.9327 20.9566,590.4425 17.6067,602.0061 14.158,613.6185 10.606,625.2714 6.9866,636.7729 3.0201,648.9633 -0.1647,658.501 -3.6278,668.6309 -7.0142,678.2845 -10.326,687.4692 -13.5692,696.1604 -17.0569,705.1473 -19.8741,712.0438 -23.0259,719.225 -26.2481,725.8906 -29.5656,732.0637 -33.3753,738.3457 -36.6593,743.1166 -40.5104,748.0354 -44.5744,752.5386 -48.8709,756.6285 -53.4238,760.3139 -58.23,763.576 -63.3368,766.4719 -68.7543,769.0541 -74.4159,771.3231 -80.1785,773.1516 -86.5848,774.596 -92.4298,775.3708 -97.71,775.6534 -104.2786,775.504 -110.353,774.9269 -115.8587,774.0468 -121.9852,772.6643 -128.7019,770.6396 -134.1987,768.6119 -140.3425,766.0116 -146.5943,763.1638 -152.9924,760.2234 -159.4202,757.4388 -165.8222,755.0292 -172.1954,753.089 -179.1623,751.5363 -184.8244,750.7274 -191.7069,750.2824 -197.2909,750.3451 -204.0213,750.9265 -209.4216,751.8016 -215.8533,753.3513 -220.9477,755.0129 -226.5072,757.2977 -232.0824,760.0284 -237.6879,763.1992 -243.284,766.8113 -248.8131,770.8387 -254.1705,775.2314 -259.6553,780.4262 -263.8266,785.0013 -268.2773,790.4713 -273.0511,796.8972 -277.2809,803.0775 -281.0084,808.8752 -285.0432,815.5663 -288.9667,822.5394 -292.8433,829.743 -296.6767,837.1718 -300.4838,844.8107 -304.298,852.6411 -308.1526,860.6409 -312.0467,868.8027 -316.3662,877.9218 -319.9599,885.4988 -323.9996,893.9354 -327.9592,902.0682 -331.7915,909.7427 -335.8975,917.5535 -339.2187,923.4533 -342.8877,929.5191 -346.5591,935.129 -350.2762,940.3479 -354.4709,945.623 -358.4218,949.9696 -362.5283,953.882 -366.3617,957.0179 -370.7783,960.0621 -375.3707,962.645 -380.1391,964.7645 -385.0444,966.408 -390.5414,967.6664 -395.1097,968.2697 -400.3375,968.5238 -406.2813,968.3447 -411.2735,967.8363 -416.903,966.8617 -422.5631,965.4445 -428.2638,963.5792 -434.0396,961.2913 -439.8968,958.5746 -445.8177,955.4414 -452.44,951.6143 -457.9812,948.2798 -464.9046,943.9907 -470.6334,940.2952 -477.0751,935.9698 -483.6284,931.4681 -490.3095,926.8225 -497.1166,922.0399 -504.0316,917.1047 -510.9245,912.0004 -517.5118,906.617 -523.6932,900.889 -529.434,894.8265 -534.7252,888.4536 -539.6203,881.7375 -544.1693,874.7136 -548.7276,866.6606 -552.0351,859.8286 -555.1852,852.0714 -557.9359,843.3351 -559.6686,835.9805 -561.1071,827.5745 -562.0408,818.951 -562.5291,809.2578 -562.5089,801.1944 -562.0103,792.1293 -560.9804,782.9895 -559.4422,773.8347 -557.39,764.6707 -554.8563,755.5093 -551.6141,745.4275 -548.6439,737.177 -544.6462,727.0982 -541.0988,718.8577 -536.8804,709.7109 -532.3934,700.5733 -527.6552,691.4425 -522.1648,681.4125 -517.464,673.2188 -512.0114,664.1398 -505.7259,654.1974 -500.3655,646.1014 -494.1676,637.1687 -487.7007,628.3225 -480.2559,618.7208 -473.92,610.9672 -466.6299,602.4666 -458.3411,593.235 -451.3636,585.7729 -442.6186,576.7496 -434.4752,568.663 -426.9781,561.4781 -418.4884,553.5638 -409.9294,545.6175 -401.3119,537.632 -391.6829,528.9019 -383.6276,521.8775 -374.4603,514.2323 -365.0392,506.803 -355.3414,499.6369 -345.3656,492.7593 -335.1125,486.1936 -324.5912,479.9519 -313.8491,473.9716 -302.932,468.1872 -291.8906,462.5055 -280.7705,456.8437 -268.4881,450.5638 -258.4322,445.3267 -247.2996,439.3228 -235.11,432.4874 -225.1649,426.7502 -214.141,420.2342 -203.1591,413.5548 -192.2486,406.6736 -180.3687,398.8241 -170.7772,392.1471 -160.2949,384.4236 -150.0268,376.3603 -139.9849,367.9803 -130.2156,359.2581 -120.7322,350.1786 -110.6626,339.7769 -102.7404,330.937 -94.308,320.7651 -86.2945,310.2289 -78.7253,299.3412 -70.9063,286.9932 -64.1986,275.4874 -58.3802,264.9761 -52.099,253.1606 -45.4703,239.9835 -40.2671,229.0648 -34.7248,216.8645 -29.5419,204.7602 -24.7225,192.8342 -20.1593,181.1165 -15.8543,169.5785 -11.8408,158.1606 -8.0576,146.7993 -4.5712,135.4551 -1.5364,124.0981 0.9129,112.7157 2.7408,101.2746 3.9424,89.7913 4.4692,78.2955 4.3226,65.5998 3.6983,55.1848 2.4789,43.6123 0.4546,30.9098 -1.7125,20.5571 -4.6201,9.1108 -8.3565,-3.4078 -11.7909,-13.5929 -15.9408,-24.8602 -20.3961,-36.0832 -25.1036,-47.2772 -30.0139,-58.4583 -35.0572,-69.6567 -40.1913,-80.8883 -45.3648,-92.1735 -50.5464,-103.525 -55.698,-114.9568 -60.7933,-126.4788 -65.8018,-138.1018 -70.6929,-149.8297 -75.4599,-161.6644 -80.062,-173.6144 -84.4621,-185.6878 -88.6085,-197.8922 -92.8509,-211.4496 -96.0317,-222.6517 -99.6358,-236.4614 -102.3909,-247.8429 -105.261,-260.5676 -107.9788,-273.3654 -110.5562,-286.1426 -113.1836,-299.7518 -115.166,-310.3743 -117.3681,-322.6353 -118.9805,-332.0832 -120.7262,-342.9525 -122.0131,-351.3116 -123.4531,-360.907 -124.5407,-368.2825 -125.6644,-376.0014 -126.7926,-383.9402 -127.6337,-390.03 -128.4764,-396.3827 -129.2151,-402.3375 -129.85,-407.9546 -130.3609,-413.2339 -130.7298,-418.1654 -130.9465,-422.7354 -131.0213,-427.3461 -130.9606,-430.8266 -130.7689,-434.4151 -130.4434,-437.7708 -129.9958,-440.9642 -129.5022,-444.1118 -128.8186,-447.1124 -128.0076,-449.861 -126.9239,-452.5602 -125.8924,-454.499 -124.6279,-456.3712 -123.2877,-457.9701 -121.7631,-459.4514 -120.4797,-460.4869 -119.0014,-461.488 -117.3866,-462.4007 -115.4651,-463.2855 -113.2026,-464.0555 -110.6248,-464.6507 -107.7604,-465.0351 -104.6244,-465.232 -101.2125,-465.303 -97.6832,-465.3962 -94.2288,-465.6248 -90.9082,-466.0692 -87.748,-466.7964 -84.4738,-467.9727 -81.9927,-469.2437 -79.5127,-470.9817 -77.3876,-473.0311 -75.6519,-475.3297 -74.3399,-477.8133 -73.4488,-480.4361 -72.8971,-483.2623 -72.6667,-486.3441 -72.7632,-489.6814 -73.2579,-493.2077 -74.2284,-496.8084 -75.6741,-500.4158 -77.4735,-504.0871 -79.4481,-508.0147 -81.6214,-512.1954 -84.0069,-516.6133 -86.6119,-521.2516 -89.4423,-526.0908 -92.7976,-531.6098 -95.7164,-536.2433 -99.1362,-541.543 -103.094,-547.5623 -106.4693,-552.6391 -110.3677,-558.4302 -114.4233,-564.3718 -118.6183,-570.4667 -122.9299,-576.7126 -127.3397,-583.0934 -131.8322,-589.607 -136.8804,-596.9402 -141.5634,-603.7573 -145.8483,-610.0157 -150.6847,-617.105 -155.5966,-624.3342 -161.0953,-632.4374 -165.668,-639.1802 -170.8254,-646.7861 -176.0588,-654.5038 -181.3487,-662.3056 -186.7083,-670.2125 -192.6805,-679.0311 -198.1756,-687.1586 -203.1713,-694.5618 -208.7711,-702.8891 -214.4237,-711.3194 -220.7027,-720.7086 -225.8795,-728.4825"/>
	<!-- Raw distance reference points -->
	<polyline id="dist" fill="none" stroke="none" stroke-width="0" points="6975.2339,22.0351 14.8148,22.3477 25.5729,22.5704 36.4255,22.7793 47.3185,23.0068 58.2847,23.2261 69.3505,23.4769 80.5141,23.6798 91.7557,23.8984 103.0837,24.1303 114.487,24.3717 125.7444,24.6237 136.5284,24.8808 146.6921,25.1855 156.2298,25.5434 165.1301,25.8418 173.4169,26.1774 181.1754,26.5138 188.4982,26.8698 195.4353,27.1396 201.9689,27.4451 208.1072,27.7457 213.8412,27.9584 219.212,28.1652 224.2654,28.3386 228.9925,28.4773 233.3987,28.5939 237.505,28.6811 241.3208,28.7303 244.8929,28.7507 248.1358,28.7419 251.462,28.7002 255.1991,28.641 257.8192,28.5422 262.2169,28.4382 267.1017,28.3403 272.3585,28.2989 277.781,28.3259 282.6843,28.3633 286.7568,28.3902 289.9841,28.3983 292.1215,28.3687 294.7444,28.305 297.408,28.2133 300.4088,28.0931 303.7865,27.9299 307.5463,27.7691 311.6764,27.5594 316.1606,27.318 320.9883,27.0433 326.17,26.7386 331.6799,26.4075 337.4464,26.0566 343.4936,25.6875 349.8089,25.2974 356.3612,24.8491 363.1676,24.4601 370.2109,23.9628 377.4951,23.5359 384.9843,23.0026 392.6727,22.5433 400.5639,22.0103 408.6607,21.4549 416.9492,20.8393 425.4333,20.3238 434.1175,19.735 443.0015,19.1412 452.0532,18.5498 461.2488,17.9149 470.597,17.4064 480.0981,16.7514 489.7454,16.2057 499.5339,15.5857 509.469,14.9819 519.5543,14.3641 529.7837,13.7473 540.1487,13.139 550.6383,12.499 561.2518,11.9846 571.9822,11.3628 582.8385,10.8451 593.8255,10.2972 604.9048,9.6991 616.0948,9.2129 627.4045,8.6527 638.8304,8.0982 650.3815,7.5294 662.0266,6.9414 673.7639,6.344 685.5828,5.7339 697.5042,5.0683 709.5399,4.5076 721.6653,3.891 733.8791,3.2615 746.1785,2.6334 758.5662,1.9979 771.0374,1.3826 783.6054,0.7208 796.2426,0.183 808.9561,-0.3762 821.7693,-0.9236 834.6398,-1.4557 847.5494,-1.9729 860.5248,-2.4916 873.5494,-3.031 886.6119,-3.6481 899.7079,-4.1298 912.8932,-4.5957 926.3813,-4.9582 939.7383,-5.0052 953.1243,-4.8079 966.5077,-4.3443 979.8036,-3.6159 992.9839,-2.4649 1006.1078,-0.9816 1019.2703,0.6733 1032.2526,2.8023 1045.3802,4.6106 1058.2423,6.5692 1070.8838,8.5476 1083.2782,10.4135 1095.549,12.1146 1107.7483,13.7047 1119.9041,14.9814 1132.2131,16.0383 1144.8843,17.1716 1157.6807,18.2175 1170.562,18.9845 1183.3978,19.6677 1195.9124,20.3273 1208.27,20.9729 1220.7125,21.5881 1233.2118,22.1832 1245.752,22.7565 1258.3561,23.2926 1271.0288,23.8435 1283.7539,24.4479 1296.5007,24.9306 1309.281,25.521 1322.0929,26.1608 1334.9403,26.7093 1347.8307,27.2897 1360.7584,27.941 1373.7251,28.5377 1386.7302,29.0659 1399.7759,29.6525 1412.8612,30.2122 1425.9872,30.7689 1439.1406,31.3138 1452.3234,31.8585 1465.6078,32.4924 1478.8907,33.0288 1492.2494,33.6468 1505.646,34.2893 1518.9388,35.043 1532.2438,35.6795 1545.577,36.3759 1558.9293,37.0451 1572.2787,37.6722 1585.6702,38.3238 1599.1373,38.845 1612.6248,39.4824 1626.1543,40.0064 1639.739,40.6049 1653.3281,41.2167 1666.9186,41.8231 1680.5323,42.4421 1694.1957,43.0611 1707.8926,43.6895 1721.618,44.3133 1735.3578,44.9388 1749.1149,45.5706 1762.8901,46.1797 1776.6906,46.8086 1790.5098,47.4286 1804.3441,48.1748 1818.2085,48.6803 1832.0912,49.324 1845.9938,49.956 1859.9178,50.594 1873.8556,51.233 1887.8087,51.8737 1901.7777,52.5121 1915.7694,53.1524 1929.7776,53.7933 1943.8014,54.438 1957.8418,55.1362 1971.9027,55.7043 1985.9802,56.4093 2000.0646,57.0453 2014.1665,57.6251 2028.2863,58.2693 2042.4219,58.9835 2056.5635,59.5734 2070.7168,60.2974 2084.8835,60.8836 2099.0662,61.5437 2113.1624,62.206 2126.8752,62.8435 2140.0129,63.4597 2152.5332,64.05 2164.4614,64.6576 2175.8574,65.1219 2186.7671,65.6209 2197.2424,66.15 2207.3235,66.5695 2216.9785,67.0102 2226.1448,67.4076 2234.7871,67.767 2242.8804,68.103 2250.4229,68.3997 2257.4475,68.6679 2263.9875,68.9127 2270.2231,69.1471 2276.2712,69.3784 2282.207,69.6038 2288.1143,69.8365 2294.29,70.0698 2300.0593,70.2973 2305.7588,70.5242 2311.3589,70.8064 2316.8574,71.0208 2322.3767,71.2313 2328.0232,71.461 2333.8013,71.667 2339.7092,71.8608 2345.7449,72.0478 2351.7747,72.1756 2357.8491,72.3029 2364.4143,72.4421 2370.6494,72.5615 2376.8782,72.6968 2383.0652,72.8331 2389.5359,72.9723 2395.6716,73.151 2401.8101,73.3099 2407.9834,73.4578 2414.1965,73.6165 2420.4944,73.7542 2427.022,73.8702 2433.7524,73.9693 2440.6794,74.0448 2447.8064,74.1036 2455.095,74.1517 2462.5271,74.1985 2469.8735,74.2469 2476.9587,74.2974 2483.7568,74.3499 2490.2812,74.3807 2496.5605,74.3894 2502.626,74.372 2508.5698,74.331 2514.5562,74.2876 2520.4009,74.2354 2526.2107,74.1943 2532.1257,74.1463 2538.2444,74.0908 2544.6409,74.0397 2551.0669,73.9897 2557.6208,73.9691 2564.2825,73.9505 2571.0076,73.9255 2578.0154,73.8852 2585.166,73.8143 2592.5452,73.7093 2600.1296,73.5676 2607.9524,73.4052 2615.9749,73.2121 2624.1851,73.0017 2632.5608,72.7841 2641.1055,72.5448 2649.8203,72.2844 2658.7222,71.9604 2667.7942,71.6884 2677.0352,71.3677 2686.406,71.0223 2695.9136,70.6581 2705.5654,70.2774 2715.3638,69.8907 2725.3083,69.4436 2735.3945,69.0478 2745.6177,68.5872 2755.9746,68.1048 2766.4541,67.5401 2777.0403,67.0483 2787.4565,66.5065 2797.4468,65.9121 2806.9102,65.4259 2815.8208,64.9027 2824.1438,64.3952 2831.9321,63.8881 2839.2241,63.3948 2846.0869,62.8636 2852.5732,62.4411 2858.7275,61.9763 2864.6624,61.537 2870.3398,61.0889 2875.8206,60.7385 2881.0215,60.3747 2885.8835,59.9925 2890.5149,59.6873 2895.0823,59.3426 2899.7524,58.9969 2904.5742,58.6094 2909.373,58.266 2913.9094,57.9584 2918.6143,57.6146 2923.3022,57.2318 2928.0134,56.9258 2932.7908,56.5915 2937.6831,56.2505 2942.6609,55.9007 2947.6946,55.5491 2952.6941,55.2008 2957.6177,54.8219 2962.4602,54.5058 2967.2212,54.162 2971.9253,53.8269 2976.6309,53.4786 2981.4426,53.0803 2986.4543,52.7453 2991.698,52.3668 2997.1611,51.9981 3002.7971,51.6396 3008.5356,51.2998 3014.2241,50.922 3019.927,50.606 3025.821,50.2252 3032.0327,49.8039 3038.5017,49.3403 3045.176,48.7995 3052.0601,48.3346 3059.1416,47.8118 3066.4268,47.285 3073.9094,46.7561 3081.5962,46.2293 3089.4309,45.6934 3097.1086,45.1758 3104.4702,44.6918 3111.4824,44.2338 3118.1672,43.7786 3124.5564,43.3249 3130.718,42.8817 3136.7444,42.4118 3142.7178,41.9293 3148.7234,41.4375 3155.2974,40.9426 3161.7356,40.4549 3168.3667,39.9965 3175.5957,39.5269 3182.2676,39.0536 3188.822,38.6239 3195.3237,38.1955 3201.5281,37.8537 3207.7346,37.4932 3214.0586,37.0724 3220.5317,36.6876 3227.3853,36.2154 3234.5667,35.7172 3241.9927,35.1775 3249.5774,34.6224 3257.3508,34.0368 3265.3298,33.4318 3273.5312,32.7424 3281.9385,32.1667 3290.5623,31.4797 3299.3589,30.9069 3308.3389,30.2704 3317.5049,29.6227 3326.8584,28.9083 3336.3701,28.3219 3346.0552,27.6508 3355.9006,26.9769 3365.8977,26.2792 3376.0537,25.5545 3386.3523,24.7659 3396.7622,24.1173 3407.2705,23.3824 3417.9053,22.6194 3428.6853,21.8701 3439.6006,21.1259 3450.6521,20.3807 3461.8274,19.6344 3473.1035,18.8733 3484.4893,18.0319 3495.9805,17.251 3507.5767,16.5244 3519.2673,15.704 3531.0635,14.8818 3542.9644,14.052 3554.9692,13.2345 3567.0872,12.3869 3579.2739,11.4595 3591.2166,10.72 3602.7129,9.9186 3613.7241,9.15 3624.2883,8.3948 3634.4729,7.6663 3644.2886,6.9446 3653.7634,6.2432 3663.0098,5.5616 3672.0789,4.904 3680.946,4.2704 3689.6138,3.6554 3698.0366,3.0555 3706.3413,2.4694 3714.4465,1.8512 3722.3792,1.3004 3730.2229,0.8157 3738.1497,0.266 3746.0994,-0.2766 3754.1079,-0.8588 3762.0913,-1.3398 3770.1721,-1.8701 3778.4883,-2.4703 3786.8479,-2.9771 3795.5466,-3.5645 3804.311,-4.1776 3813.1965,-4.8648 3822.1042,-5.4194 3831.0989,-6.0716 3840.217,-6.7274 3849.4412,-7.4441 3858.8582,-8.0295 3868.3386,-8.6744 3877.9143,-9.3659 3887.5654,-9.9062 3897.2478,-10.4947 3906.9658,-11.108 3916.7649,-11.6012 3926.6458,-12.1333 3936.6904,-12.6485 3946.7119,-13.1289 3956.6416,-13.5869 3966.6335,-14.0264 3976.6658,-14.4604 3986.8247,-14.8533 3997.009,-15.2709 4007.3955,-15.5868 4017.9019,-15.8408 4028.5303,-16.1615 4039.2568,-16.5167 4050.1541,-16.8114 4061.2039,-17.1278 4072.3167,-17.4288 4083.5923,-17.694 4094.9583,-17.9535 4106.3677,-18.3229 4117.8672,-18.482 4129.5322,-18.6395 4141.2573,-18.7537 4153.0205,-18.8519 4164.8555,-18.9127 4176.7915,-18.973 4188.8164,-18.9749 4200.9204,-18.9287 4213.0879,-18.8623 4225.147,-18.7871 4236.8262,-18.6874 4248.0205,-18.5689 4258.7246,-18.4501 4268.9536,-18.3343 4278.7056,-18.2241 4287.9756,-18.1277 4296.7637,-18.0382 4305.0532,-17.9812 4312.8828,-17.9375 4320.2739,-17.9015 4327.29,-17.8714 4334.0,-17.8422 4340.4927,-17.8111 4346.7739,-17.7573 4352.8735,-17.6915 4358.8384,-17.6321 4364.8438,-17.5819 4370.769,-17.5311 4376.7808,-17.4806 4382.9673,-17.4217 4389.5117,-17.3704 4395.7358,-17.3206 4401.8398,-17.2765 4407.8472,-17.2273 4413.8135,-17.1883 4419.9238,-17.1511 4426.0791,-17.109 4432.3369,-17.0569 4438.6943,-17.0022 4445.2471,-16.9377 4451.8203,-16.9003 4458.5122,-16.8727 4465.3604,-16.8589 4472.3877,-16.8502 4479.4214,-16.8629 4486.2964,-16.8948 4493.0195,-16.9365 4499.8472,-16.9838 4506.4912,-17.0204 4513.1895,-17.0686 4520.1719,-17.1122 4526.604,-17.1603 4533.04,-17.1981 4539.896,-17.248 4546.1401,-17.2901 4552.3799,-17.3334 4558.7798,-17.3881 4565.4014,-17.4448 4572.0903,-17.492 4578.9556,-17.5304 4585.8633,-17.5586 4592.6416,-17.5768 4599.3228,-17.5845 4606.252,-17.6129 4613.4233,-17.7176 4620.8276,-17.845 4628.4697,-17.9679 4636.2822,-18.1048 4644.2856,-18.2437 4652.4663,-18.3975 4660.8223,-18.5523 4669.3579,-18.744 4678.0527,-18.9608 4686.9131,-19.1634 4695.9326,-19.3621 4705.0718,-19.5865 4714.353,-19.7727 4723.6787,-19.9786 4732.7002,-20.1838 4741.2607,-20.3818 4749.2998,-20.588 4756.8481,-20.7654 4763.939,-20.9753 4770.6289,-21.1917 4777.0029,-21.4147 4783.0859,-21.6637 4788.9263,-21.8883 4794.6494,-22.1091 4800.2573,-22.3052 4805.7935,-22.5204 4811.269,-22.7392 4816.6812,-22.9559 4822.0371,-23.1621 4827.3613,-23.3848 4832.7158,-23.5631 4838.2183,-23.7613 4843.873,-23.9831 4849.7798,-24.1622 4855.5293,-24.3463 4861.3076,-24.5217 4867.1958,-24.6974 4873.3086,-24.8928 4879.604,-25.1076 4886.2383,-25.344 4893.1616,-25.5986 4900.3281,-25.8014 4907.7188,-26.0213 4915.2783,-26.2052 4923.0381,-26.4243 4930.9961,-26.6231 4939.1377,-26.8088 4947.4688,-26.9581 4955.9805,-27.1221 4964.5225,-27.2734 4972.9741,-27.4265 4981.2441,-27.5659 4989.4165,-27.6938 4997.6289,-27.8054 5005.9893,-27.8829 5014.4951,-27.9178 5023.0098,-27.9195 5031.7007,-27.9017 5040.3438,-27.8766 5048.8101,-27.8097 5057.4712,-27.7275 5066.2485,-27.6129 5075.1284,-27.4438 5084.041,-27.2227 5093.147,-27.0304 5102.23,-26.7938 5111.2974,-26.5115 5120.4653,-26.2136 5129.7671,-25.9204 5139.2065,-25.6299 5148.7407,-25.3099 5158.4448,-25.0521 5168.2368,-24.7551 5178.1104,-24.5131 5188.1162,-24.2059 5198.2607,-23.8793 5208.4814,-23.5677 5218.7764,-23.2088 5229.1064,-22.898 5239.5684,-22.5618 5250.1846,-22.2099 5260.9146,-21.9377 5271.7363,-21.5735 5282.6377,-21.212 5293.6152,-20.7973 5304.6558,-20.4683 5315.8296,-20.0999 5327.0703,-19.7089 5338.3623,-19.3818 5349.7231,-18.9987 5361.1855,-18.6508 5372.7056,-18.3441 5384.3032,-18.0023 5395.9629,-17.6601 5407.6982,-17.32 5419.522,-16.9669 5431.4185,-16.6437 5443.4014,-16.3108 5455.4688,-15.9806 5467.5571,-15.6581 5479.7026,-15.3722 5491.8979,-15.1122 5504.1445,-14.8359 5516.4453,-14.5694 5528.8037,-14.3072 5541.2124,-14.0463 5553.6792,-13.781 5566.2041,-13.4703 5578.79,-13.2137 5591.4512,-12.9259 5604.1431,-12.6068 5616.8828,-12.3596 5629.6846,-12.0906 5642.5273,-11.8179 5655.4175,-11.5568 5668.3413,-11.279 5681.2812,-11.0541 5694.2734,-10.8157 5707.332,-10.5552 5720.4497,-10.2947 5733.5703,-10.0284 5746.7725,-9.7493 5760.0371,-9.4332 5773.3062,-9.1582 5786.6338,-8.8504 5799.9365,-8.5391 5813.2144,-8.2052 5826.4946,-7.8217 5839.7954,-7.4566 5853.1167,-7.1055 5866.4526,-6.7037 5879.7852,-6.2402 5893.167,-5.8649 5906.5312,-5.4646 5919.7056,-5.0791 5932.5781,-4.7055 5945.1396,-4.3415 5957.4438,-4.0165 5969.5264,-3.689 5981.4829,-3.3967 5993.3232,-3.1424 6005.0146,-2.9277 6016.5537,-2.7043 6028.1084,-2.4788 6040.0425,-2.2306 6051.8853,-1.9398 6063.7437,-1.6408 6075.7305,-1.3776 6087.4893,-1.0502 6099.3638,-0.6961 6111.2271,-0.4116 6123.0474,-0.0818 6134.7656,0.2217 6146.7881,0.4268 6158.7759,0.6074 6170.7939,0.7519 6182.9546,0.8785 6195.1694,0.9884 6207.4688,1.0961 6219.8135,1.1992 6232.2236,1.3329 6244.7061,1.4911 6257.2412,1.6807 6269.8379,1.8904 6282.5161,2.1233 6295.2319,2.3887 6308.0151,2.6651 6320.8813,2.9655 6333.7852,3.2705 6346.79,3.6395 6359.7632,4.0647 6372.8047,4.4305 6385.8711,4.9192 6398.9238,5.3344 6412.0,5.8136 6425.082,6.2741 6438.1157,6.7696 6450.7397,7.3093 6462.7671,7.7066 6474.1191,8.2068 6484.7988,8.5807 6494.8218,9.0074 6504.2534,9.3271 6513.1021,9.696 6521.4043,9.98 6529.2061,10.2718 6536.5308,10.5769 6543.4009,10.8004 6549.835,11.0234 6555.855,11.2413 6561.5029,11.4348 6566.8018,11.6099 6571.7295,11.768 6576.2759,11.9167 6580.4639,12.0484 6584.2988,12.1406 6587.832,12.2303 6591.1235,12.3062 6594.2773,12.3831 6597.4878,12.4615 6600.5146,12.5225 6603.6826,12.5841 6606.7886,12.6783 6609.2393,12.7741 6611.9595,12.8894 6614.0376,13.0021 6616.3208,13.1092 6618.1187,13.1824 6619.8926,13.2634 6621.813,13.3399 6623.874,13.4165 6626.1045,13.5005 6628.6973,13.5916 6631.4258,13.6873 6634.5469,13.7824 6637.8638,13.8801 6641.4429,13.9754 6644.875,14.0586 6648.6157,14.1189 6652.6733,14.1814 6656.834,14.2978 6659.937,14.4207 6664.0151,14.5807 6668.0996,14.7505 6672.0137,14.9038 6674.7749,15.0395 6678.188,15.1737 6681.4121,15.3181 6684.3994,15.4811 6687.6992,15.6437 6690.9722,15.8043 6694.5615,15.9665 6698.3389,16.1232 6702.3711,16.2698 6706.7148,16.4111 6711.3994,16.5557 6716.4243,16.7056 6721.749,16.8593 6727.3403,17.0209 6733.1934,17.1984 6739.2656,17.351 6745.5791,17.5078 6752.1431,17.6882 6758.9165,17.8303 6765.9282,17.9996 6773.1338,18.1568 6780.54,18.2999 6788.1436,18.4564 6795.8979,18.6203 6803.8027,18.7826 6811.8804,18.9561 6820.126,19.1142 6828.5288,19.2587 6837.0918,19.4155 6845.8203,19.5646 6854.6968,19.736 6863.7388,19.8857 6872.9341,20.0405 6882.2646,20.2051 6891.6924,20.3707 6901.2437,20.5456 6910.9155,20.7527 6920.71,20.9284 6930.625,21.0925 6940.6519,21.284 6950.8027,21.4809 6961.0596,21.6951 6971.4292,21.8871"/>
</svg>
