<?xml version="1.0" encoding="utf-8"?>
<!-- Track map generated with TinyPedal -->
<svg viewBox="-785.2700 -239.2100 1048.1600 903.8100" version="1.1" xmlns="http://www.w3.org/2000/svg">
	<title>Circuit of the Americas National</title>
	<!-- Sector coordinates index -->
	<desc>4,317</desc>
	<!-- Raw global coordinates -->
	<polyline id="map" fill="none" stroke="black" stroke-width="10" points="-646.3000,254.4800 -642.8300,257.0000 -638.9300,259.8200 -635.3700,262.3900 -631.3800,265.2900 -627.7400,267.9100 -624.0700,270.5700 -619.9600,273.5300 -616.2400,276.2400 -612.4800,278.9800 -608.2800,282.0700 -604.4800,284.8800 -600.2100,288.0400 -596.3500,290.9200 -592.4600,293.8300 -588.1100,297.1100 -584.1600,300.0800 -580.1900,303.0800 -575.7400,306.4500 -571.7000,309.5000 -567.6400,312.5900 -563.0900,316.0400 -560.8100,317.7700 -556.6700,320.9200 -554.3600,322.6800 -550.1900,325.8600 -547.8600,327.6400 -543.6400,330.8600 -541.2900,332.6600 -537.0400,335.9000 -534.6800,337.7100 -530.4000,340.9800 -528.0100,342.8100 -525.6200,344.6500 -521.2900,347.9600 -518.8800,349.8100 -516.4600,351.6700 -512.0900,355.0300 -507.6900,358.4100 -505.2400,360.2900 -502.7800,362.1800 -498.3400,365.6000 -495.8600,367.5100 -491.3800,370.9600 -488.8900,372.8900 -484.3800,376.3700 -481.8600,378.3100 -479.3400,380.2500 -476.8200,382.2100 -472.2500,385.7400 -467.6700,389.2900 -465.1200,391.2700 -460.5000,394.8500 -457.9300,396.8400 -453.2900,400.4500 -450.7000,402.4700 -448.1100,404.4900 -443.4300,408.1400 -438.7400,411.8100 -436.1200,413.8500 -431.4000,417.5500 -428.7700,419.6100 -426.1300,421.6800 -421.3700,425.4100 -418.7200,427.4900 -413.9400,431.2500 -411.2700,433.3400 -408.6000,435.4400 -403.7800,439.2200 -398.9400,443.0200 -396.2400,445.1300 -391.3800,448.9400 -388.6700,451.0600 -385.9600,453.1800 -381.0700,457.0000 -378.3500,459.1200 -375.6200,461.2400 -370.7100,465.0800 -365.7700,468.9200 -363.0200,471.0600 -358.0700,474.9100 -355.3100,477.0600 -350.3400,480.9200 -347.5700,483.0700 -344.7900,485.2200 -339.7900,489.1100 -337.0100,491.2700 -331.9900,495.1700 -329.2000,497.3300 -324.1600,501.2400 -321.3600,503.4100 -316.3000,507.3300 -313.4900,509.5000 -308.4200,513.4300 -305.5900,515.6100 -302.7700,517.7900 -299.9400,519.9800 -297.6700,521.7200 -294.8300,523.9000 -292.5500,525.6500 -289.7100,527.8200 -286.8900,529.9800 -281.9100,533.7900 -279.2000,535.8500 -274.4400,539.4900 -271.8500,541.4700 -267.3000,544.9500 -264.8300,546.8300 -262.4000,548.6900 -260.0200,550.5100 -255.8400,553.7100 -251.8000,556.8000 -247.9000,559.7900 -243.6900,563.0000 -240.0000,565.8100 -236.4100,568.5600 -232.5100,571.5300 -229.0900,574.1400 -225.3800,576.9600 -222.1200,579.4500 -218.9500,581.8700 -215.5000,584.4900 -212.4600,586.8100 -209.4700,589.0900 -206.1800,591.6000 -203.2400,593.8400 -199.9900,596.3100 -197.1000,598.5200 -194.2200,600.7000 -191.0400,603.1100 -188.2000,605.2500 -185.3700,607.3800 -182.2400,609.7100 -179.4400,611.7700 -176.3400,614.0000 -173.5700,615.9300 -170.8500,617.7600 -167.9000,619.6800 -165.3200,621.3200 -162.5200,623.0400 -159.0000,625.1700 -156.3800,626.7300 -152.8400,628.8000 -149.4600,630.7300 -146.2500,632.5100 -143.2000,634.1400 -140.2100,635.6300 -137.0100,637.0000 -133.2500,638.2700 -129.4700,639.1300 -125.2300,639.6000 -121.2100,639.4500 -117.7300,638.6800 -114.4600,637.2000 -111.7400,635.1800 -109.5000,632.6300 -107.7100,629.4500 -106.4900,626.0000 -105.6800,622.0300 -105.3700,617.9100 -105.6100,613.3400 -106.2300,609.7800 -107.2900,605.9700 -108.7800,602.1600 -110.1000,599.3000 -111.5100,596.3200 -113.0000,593.2000 -114.6700,589.6900 -116.1900,586.5200 -117.8900,582.9500 -119.6600,579.2400 -120.9600,576.5000 -122.8500,572.5300 -124.8300,568.4400 -126.1600,565.7400 -127.5400,562.9900 -129.1200,559.9000 -130.5900,557.0600 -132.2700,553.8300 -133.8200,550.8500 -135.4000,547.8100 -137.2000,544.3500 -138.8500,541.1800 -140.7200,537.5800 -142.4300,534.2700 -144.3600,530.5200 -146.1000,527.0900 -147.8500,523.6000 -149.5900,520.0400 -151.4900,516.0500 -153.1300,512.4500 -154.8500,508.4400 -156.2900,504.8100 -157.6200,501.1600 -158.9500,497.0800 -160.0400,493.4000 -161.0300,489.7000 -162.0100,485.5900 -162.8100,481.8800 -163.6100,477.7800 -164.2700,474.1000 -164.8600,470.4400 -165.4500,466.3900 -165.9100,462.7700 -166.3100,459.1600 -166.6700,455.1800 -167.0600,449.6300 -167.2800,444.1300 -167.2800,438.6800 -167.0600,433.2800 -166.6200,427.9300 -166.1700,424.1200 -165.4200,419.2000 -164.7300,415.4400 -164.0000,412.0700 -163.1000,408.3300 -162.1900,404.9600 -161.1800,401.5900 -159.9500,397.8500 -158.7400,394.4800 -157.2600,390.7600 -155.8100,387.4400 -154.2300,384.1600 -152.3200,380.5600 -150.4700,377.3500 -148.2600,373.8300 -146.1400,370.6900 -143.9000,367.5700 -141.5500,364.4700 -138.8300,361.0300 -136.2600,357.9500 -133.2900,354.5600 -130.5000,351.5400 -127.2700,348.2200 -124.2400,345.2900 -121.0900,342.4200 -117.8300,339.6000 -114.0800,336.5300 -110.6100,333.8200 -106.6400,330.8600 -102.9800,328.2300 -99.2500,325.6300 -95.0300,322.8200 -91.1500,320.3200 -87.2000,317.8600 -82.7400,315.1600 -78.6500,312.7700 -74.0500,310.1200 -69.8700,307.7500 -65.6600,305.3600 -60.9700,302.7000 -56.7500,300.3000 -52.5700,297.9300 -48.0400,295.3500 -44.0600,293.0800 -39.7800,290.6000 -36.0400,288.4200 -32.4000,286.2800 -28.4700,283.9400 -25.0600,281.8500 -21.3800,279.5600 -18.1400,277.5200 -14.9800,275.4900 -11.5300,273.2300 -8.4800,271.1900 -5.4900,269.1400 -2.2200,266.8500 0.6700,264.7700 3.8300,262.4300 6.6300,260.3100 9.3900,258.1600 12.3900,255.7300 15.0200,253.5000 17.5900,251.2200 20.3600,248.6300 22.7800,246.2300 25.1200,243.7800 27.6400,240.9700 29.8400,238.3600 32.2500,235.3700 34.3600,232.6000 36.6900,229.4500 38.7600,226.5500 40.7800,223.5700 43.0300,220.1900 45.0500,217.0900 47.0700,213.9400 49.3000,210.3800 51.2800,207.1400 53.3900,203.4800 55.2200,200.1300 56.9900,196.7500 58.7500,193.3300 60.7300,189.5200 62.5500,186.0900 64.6600,182.3100 66.6700,178.9500 68.7800,175.6300 71.2200,172.0300 73.5000,168.8700 76.1400,165.4300 78.5900,162.4000 81.1100,159.4600 84.0000,156.2900 86.6700,153.5400 89.4200,150.8700 92.5600,148.0200 95.4500,145.5600 98.4100,143.1900 101.7700,140.6800 105.2000,138.3000 108.3500,136.2400 111.5400,134.2600 114.7600,132.2900 118.3400,130.1000 121.5700,128.1300 125.1600,125.9200 128.3200,123.9100 131.7600,121.6500 134.7400,119.5900 137.6000,117.5100 140.3400,115.3900 143.2200,112.9800 145.6800,110.7500 148.2800,108.2000 150.5100,105.8100 152.6600,103.3600 154.9300,100.5300 156.8800,97.9200 158.7300,95.2400 160.7000,92.2000 162.3600,89.3900 164.0900,86.2000 165.5400,83.2700 166.9000,80.2800 168.2900,76.9000 169.4600,73.8000 170.5400,70.6600 171.6500,67.1100 172.6000,63.8600 173.5300,60.5500 174.5600,56.8100 175.5100,53.4000 176.6000,49.5400 177.6100,46.0400 178.7700,42.1100 179.8500,38.6200 180.9800,35.1800 182.1400,31.7800 183.4900,28.0600 184.7600,24.7700 186.2400,21.2000 187.6300,18.0500 189.2300,14.6400 190.7300,11.6400 192.2600,8.7300 193.8400,5.9200 195.6300,2.8900 197.2900,0.2800 199.1600,-2.5200 200.8700,-4.9400 202.8000,-7.5200 205.3500,-10.7000 207.3300,-13.0200 210.0900,-16.1100 212.7900,-19.0800 215.3900,-21.9400 217.9000,-24.7100 220.3400,-27.3900 222.7100,-30.0100 225.1800,-32.7500 227.2300,-35.0900 229.2600,-37.6300 231.0600,-40.2200 232.7200,-43.0600 234.0100,-45.7700 235.3200,-49.3000 236.3200,-53.0500 237.0300,-56.7700 237.6000,-61.2100 237.8900,-65.8100 237.8700,-70.2800 237.6800,-74.1400 237.4100,-78.2300 237.1100,-82.3400 236.7200,-86.9000 236.1300,-91.6800 235.5300,-95.3200 234.8000,-99.0600 233.9500,-102.9200 232.9800,-106.8900 231.9000,-110.9800 230.7100,-115.1800 229.3900,-119.4900 228.3600,-122.6000 226.7500,-126.8900 224.9500,-131.0200 222.9600,-134.9500 220.8100,-138.6600 218.5200,-142.1300 216.1200,-145.3500 213.6200,-148.2900 211.0900,-150.9800 208.6400,-153.4400 206.3500,-155.7000 204.2100,-157.8000 201.5600,-160.5200 199.1700,-163.2900 196.9500,-166.2300 195.0300,-169.1700 193.3000,-172.4000 191.9200,-175.7700 190.8300,-179.3100 189.8300,-182.7900 188.6600,-186.5900 187.1600,-190.3900 185.8000,-193.0700 184.2600,-195.5900 182.5500,-197.9100 180.0100,-200.7200 177.3100,-203.1100 174.6000,-204.9600 171.4700,-206.5700 168.1200,-207.9300 164.5400,-209.1100 160.9000,-210.1400 156.7600,-211.1600 152.3100,-212.1400 148.8300,-212.7900 145.2000,-213.3400 141.4300,-213.7600 137.2200,-214.0600 131.9500,-214.2100 127.6900,-214.2000 123.2600,-214.1100 118.6700,-213.9400 113.9200,-213.6800 109.0500,-213.3500 104.0400,-212.9800 98.8600,-212.5900 95.0700,-212.3000 89.6200,-211.8700 84.0200,-211.4100 78.2700,-210.9300 74.5000,-210.6100 70.2600,-210.2300 66.3900,-209.8800 62.4700,-209.5100 58.0600,-209.0900 54.0300,-208.7000 49.9400,-208.2900 45.3500,-207.8100 41.1600,-207.3600 36.4500,-206.8400 32.1500,-206.3500 27.8100,-205.8400 22.9400,-205.2500 18.5000,-204.6900 14.0200,-204.1000 9.0100,-203.4200 4.0000,-202.7300 0.0700,-202.1800 -4.7300,-201.5000 -8.9400,-200.9000 -13.4900,-200.2400 -17.4800,-199.6600 -21.7900,-199.0100 -25.5800,-198.4400 -29.2800,-197.8600 -33.2900,-197.2300 -36.8200,-196.6700 -40.3100,-196.1000 -44.1400,-195.4700 -49.4200,-194.5900 -54.5800,-193.6900 -59.5700,-192.7500 -64.3700,-191.7200 -68.9300,-190.5800 -73.2500,-189.3200 -77.3300,-187.9300 -81.1700,-186.4400 -84.7900,-184.8000 -88.1800,-183.0100 -91.3300,-181.0900 -94.2200,-179.0600 -96.8600,-176.9200 -99.4000,-174.5400 -101.5000,-172.2500 -103.3000,-169.9000 -105.1700,-166.8000 -106.6200,-163.4800 -107.5500,-160.1800 -108.0200,-156.3800 -107.8100,-152.2500 -106.8400,-148.6100 -105.1700,-145.5900 -102.7500,-143.1800 -100.2900,-141.4300 -97.4500,-139.3600 -94.9800,-137.5500 -92.4300,-135.6900 -89.5600,-133.5800 -86.4900,-131.2800 -84.1000,-129.4500 -81.5900,-127.5000 -78.9800,-125.4300 -76.2700,-123.2300 -73.4600,-120.9000 -70.5700,-118.4200 -67.5900,-115.8000 -64.5300,-113.0300 -62.2900,-110.9600 -59.0900,-107.9300 -57.0000,-105.9100 -54.6200,-103.5800 -52.4600,-101.4100 -50.2800,-99.2000 -47.8300,-96.6600 -45.5900,-94.3200 -43.3300,-91.9000 -40.7800,-89.1500 -38.4700,-86.6000 -36.1300,-83.9900 -33.5100,-81.0200 -31.2000,-78.3500 -28.7500,-75.4200 -26.6600,-72.7900 -24.4400,-69.9000 -22.5100,-67.3200 -20.6400,-64.7700 -18.6200,-61.9800 -16.8600,-59.5100 -15.1600,-57.0700 -13.3200,-54.3900 -10.8400,-50.7300 -8.4800,-47.1400 -6.2300,-43.6300 -4.1400,-40.1700 -2.2500,-36.7500 -0.5900,-33.3500 0.8700,-29.9900 2.1300,-26.6600 3.2100,-23.3300 4.1000,-20.0100 4.8000,-16.4700 5.2600,-12.2600 5.2500,-7.8800 4.7300,-3.6000 3.8000,0.2900 2.3300,4.1800 0.9600,6.8700 -0.6300,9.3900 -2.4600,11.7900 -4.5100,14.0400 -6.7700,16.1600 -9.2500,18.1300 -12.1200,20.0800 -14.7900,21.6100 -18.0500,23.1900 -21.2700,24.4800 -24.5900,25.5300 -27.9700,26.3300 -32.6000,27.0000 -36.9600,27.1600 -41.5600,26.8400 -46.2300,26.0500 -49.7100,25.1800 -53.2100,24.0700 -56.7500,22.7500 -60.3600,21.2800 -64.0400,19.6600 -67.7100,17.7900 -71.3900,15.6600 -73.9900,13.9900 -77.5700,11.4200 -79.8500,9.6300 -82.0900,7.7200 -84.5500,5.4800 -86.7200,3.3500 -89.0400,0.8800 -91.0500,-1.4300 -92.9800,-3.8300 -95.0200,-6.5700 -96.7600,-9.1100 -98.4200,-11.7000 -100.1600,-14.6500 -101.6800,-17.3600 -103.3300,-20.3800 -104.8000,-23.0800 -106.2400,-25.7300 -107.8300,-28.6300 -109.9900,-32.6100 -112.1100,-36.4300 -114.1600,-40.0800 -116.1600,-43.5700 -118.1200,-46.9100 -120.0600,-50.1600 -121.9900,-53.3300 -123.9600,-56.4300 -126.0100,-59.4300 -128.1900,-62.2900 -130.5100,-64.9900 -132.9300,-67.5400 -135.5900,-70.1700 -138.0900,-72.5600 -140.4300,-74.7100 -143.1600,-77.1000 -145.7900,-79.1900 -148.4800,-81.1400 -151.2200,-82.9700 -153.9900,-84.6900 -156.7900,-86.2800 -159.6300,-87.7400 -162.5300,-89.0100 -165.4900,-90.1000 -169.5800,-91.2700 -173.7600,-92.1000 -177.8100,-92.5600 -182.1500,-92.7400 -186.5000,-92.6300 -190.7800,-92.2100 -194.6400,-91.5700 -198.3500,-90.6900 -201.6400,-89.6300 -204.6400,-88.3200 -207.2900,-86.8200 -209.8800,-84.9900 -212.2100,-82.9300 -214.1600,-80.5900 -215.9000,-77.4600 -217.0500,-73.8400 -217.4800,-70.0900 -217.2300,-66.1900 -216.2200,-62.0900 -215.0200,-59.0200 -213.4600,-55.7400 -211.6000,-52.3900 -210.0300,-49.8800 -208.2700,-47.3500 -206.3600,-44.7500 -204.3600,-42.0200 -202.1000,-38.9600 -199.8900,-35.9700 -197.5900,-32.8500 -195.1800,-29.5800 -192.6900,-26.1800 -190.0900,-22.6500 -188.3700,-20.3000 -186.6000,-17.9000 -184.6000,-15.1600 -182.7700,-12.6700 -180.6800,-9.8300 -178.7700,-7.2200 -176.5900,-4.2500 -174.5900,-1.5200 -172.5500,1.2500 -170.4800,4.0800 -168.1200,7.2900 -165.9700,10.2300 -163.5300,13.5500 -161.3000,16.5900 -159.0300,19.6800 -156.5100,23.1200 -154.2500,26.1900 -152.0200,29.2200 -149.5900,32.5400 -147.4300,35.4900 -145.0900,38.7200 -143.0300,41.6200 -141.0500,44.5000 -138.9400,47.7000 -137.1600,50.5900 -135.4800,53.4800 -133.7200,56.6900 -132.2300,59.5700 -130.7000,62.7800 -129.4300,65.6600 -128.2500,68.5300 -127.0500,71.7200 -125.5500,76.1800 -124.2800,80.6600 -123.2500,85.2000 -122.4400,89.7800 -121.8600,94.4200 -121.4900,99.1100 -121.3600,103.8700 -121.4400,108.6900 -121.7600,113.5600 -122.2800,118.4800 -122.7500,122.0200 -123.4900,127.0200 -124.3500,132.0700 -125.3100,137.1700 -126.3900,142.2600 -127.1700,145.4800 -128.1300,149.0200 -129.0900,152.1500 -130.2600,155.5700 -131.4000,158.6000 -132.6400,161.5700 -134.1300,164.7900 -135.5800,167.6100 -137.1300,170.3500 -139.0000,173.3300 -140.8000,175.9500 -142.7000,178.5100 -144.9600,181.2800 -147.1000,183.7000 -149.6000,186.3100 -151.9500,188.5800 -154.4000,190.7700 -157.2200,193.1300 -159.8500,195.1700 -162.8700,197.3800 -165.6600,199.3200 -168.5300,201.2100 -171.4600,203.0600 -174.8000,205.0700 -178.2200,207.0400 -181.3600,208.7800 -184.5600,210.5000 -187.8200,212.2000 -191.5000,214.0600 -194.8600,215.7200 -198.6500,217.5000 -202.0700,219.0200 -205.5100,220.4400 -209.3600,221.8800 -212.8400,223.0600 -216.3300,224.1400 -220.2300,225.2100 -223.7400,226.0600 -227.6500,226.8700 -231.1700,227.4900 -234.6800,228.0000 -238.5900,228.4400 -244.0800,228.8400 -249.6600,229.0400 -255.3200,229.0500 -261.0800,228.8600 -266.9200,228.5000 -270.7300,228.1900 -274.9900,227.7900 -278.8600,227.4000 -283.1800,226.9100 -287.1100,226.4000 -291.0500,225.7900 -295.4500,225.0100 -299.4100,224.2000 -303.3200,223.2800 -307.6100,222.1200 -311.4200,220.9600 -315.1800,219.6900 -319.2800,218.1400 -322.9100,216.6400 -326.8900,214.8300 -330.4300,213.0800 -334.3600,210.9900 -337.8700,208.9900 -341.3600,206.8600 -345.1900,204.3500 -348.5900,201.9400 -351.9500,199.4100 -355.6400,196.4400 -358.9000,193.6300 -362.4600,190.3600 -365.5900,187.2800 -368.6600,184.0600 -371.6600,180.7300 -374.9000,176.9000 -377.7500,173.3500 -380.8600,169.3000 -383.6200,165.5600 -386.6300,161.3000 -389.2900,157.3800 -391.9000,153.3800 -394.7600,148.8400 -397.3000,144.6900 -399.8300,140.4800 -402.6500,135.7500 -405.2000,131.4500 -407.7400,127.1700 -410.5300,122.5000 -413.0100,118.4000 -415.7400,113.9800 -418.1700,110.1200 -420.8300,105.9700 -423.1700,102.3400 -425.4700,98.8100 -427.7200,95.3900 -430.1700,91.6900 -432.3200,88.4600 -434.4400,85.3100 -436.7400,81.9100 -438.7800,78.9400 -441.0300,75.7400 -443.0400,72.9600 -445.0300,70.2800 -447.2400,67.4000 -449.2300,64.9100 -451.4300,62.2400 -453.4100,59.9300 -455.4000,57.7200 -457.6300,55.4000 -460.7900,52.3900 -463.9900,49.6600 -467.2300,47.1800 -470.4700,44.9100 -473.6800,42.8700 -476.8500,41.0400 -479.9700,39.4100 -483.0800,37.9600 -486.1800,36.6700 -489.3100,35.5500 -492.4500,34.5800 -496.7500,33.5900 -501.1200,33.0400 -505.6400,32.9200 -510.1000,33.0700 -513.9700,33.3700 -518.7700,34.0100 -522.6300,34.7100 -526.6100,35.5900 -530.7100,36.6200 -535.2600,37.8500 -539.3400,39.0200 -542.5600,40.0000 -547.1600,41.4700 -550.1900,42.4600 -553.6200,43.6000 -556.7900,44.6500 -560.0100,45.7300 -563.6700,46.9600 -567.0300,48.1000 -570.8200,49.4100 -574.3000,50.6100 -578.2400,51.9900 -581.8200,53.2800 -585.4400,54.6200 -589.5000,56.1600 -593.2000,57.6000 -596.9300,59.0800 -600.7100,60.6200 -604.9600,62.3700 -609.2500,64.1900 -613.1500,65.8700 -617.0900,67.6000 -621.5200,69.5500 -625.5500,71.3300 -629.6300,73.1300 -634.2000,75.1500 -638.3700,77.0000 -642.5500,78.8500 -647.2400,80.9400 -651.5100,82.8300 -655.8000,84.7500 -660.5300,86.8500 -664.7100,88.7100 -669.2400,90.7300 -673.2100,92.5000 -677.0900,94.2300 -681.3000,96.1100 -684.9700,97.7500 -688.5600,99.3600 -692.4300,101.0900 -695.8200,102.6100 -699.4700,104.2400 -702.6600,105.6700 -705.7600,107.0600 -709.1000,108.5600 -712.0100,109.8700 -715.1400,111.2800 -719.3900,113.1800 -723.5000,115.0300 -727.5000,116.8500 -731.3700,118.6600 -735.0600,120.5400 -738.5300,122.5500 -741.7800,124.7100 -744.8100,127.0200 -747.6200,129.4900 -750.1900,132.1100 -752.4900,134.8600 -754.5100,137.7300 -756.2300,140.6800 -757.6400,143.7000 -758.7500,146.7300 -759.7700,150.8500 -760.2700,154.8900 -760.1800,159.8200 -759.6000,163.3100 -758.5300,166.8500 -756.9900,170.3000 -755.1200,173.4200 -753.3900,175.7200 -751.4200,177.8800 -749.2400,179.9000 -746.6800,181.9100 -744.1100,183.6800 -741.3700,185.4800 -738.5200,187.3900 -735.5800,189.4500 -732.5800,191.6700 -729.4700,194.0200 -726.2200,196.4600 -722.8300,199.0000 -719.2900,201.6400 -716.6800,203.5800 -714.2600,205.3700 -711.7900,207.2000 -709.2800,209.0500 -706.4200,211.1600 -703.8000,213.1000 -700.8200,215.3000 -698.0800,217.3300 -694.9700,219.6200 -692.1200,221.7300 -689.2200,223.8700 -685.9300,226.2900 -682.9200,228.5100 -679.8700,230.7700 -676.4300,233.3000 -673.2900,235.6100 -670.1100,237.9500 -666.5300,240.5900 -663.2600,242.9900 -659.9500,245.4300 -656.2300,248.1900 -652.4800,251.0100"/>
</svg>
