<?xml version="1.0" encoding="utf-8"?>
<!-- Track map generated with TinyPedal -->
<svg viewBox="-674.1295 -686.1254 1018.2052 1195.4800" version="1.1" xmlns="http://www.w3.org/2000/svg">
	<title>Circuit de Barcelona</title>
	<!-- Sector coordinates index -->
	<desc>162,374</desc>
	<!-- Raw global coordinates -->
	<polyline id="map" fill="none" stroke="black" stroke-width="10" points="184.0134,-251.4921 176.4063,-239.976 170.5616,-231.1438 164.3526,-221.7751 157.773,-211.862 151.7685,-202.8288 145.3961,-193.2573 138.3318,-182.6579 132.2006,-173.4556 126.032,-164.1904 119.5017,-154.3687 112.607,-143.9798 105.6776,-133.5124 99.7192,-124.4732 93.1057,-114.3411 86.197,-103.5861 79.9816,-93.7523 73.4474,-83.315 66.8727,-72.8213 59.5908,-61.2166 53.2607,-51.1429 46.8899,-41.0258 39.4578,-29.2596 32.9998,-19.0501 25.4861,-7.168 19.6535,2.0568 12.758,12.9538 5.1316,24.9939 -1.4891,35.4365 -8.14,45.9189 -15.8806,58.1042 -22.5991,68.668 -29.7026,79.8279 -36.8378,91.0283 -43.645,101.7054 -51.561,114.1116 -58.426,124.8626 -65.317,135.6469 -72.5886,147.0188 -79.8889,158.4286 -87.5876,170.4516 -94.9527,181.9421 -101.9751,192.8952 -109.3919,204.4645 -116.8283,216.0776 -124.274,227.7402 -131.7233,239.4545 -139.5391,251.8151 -147.0051,263.6268 -154.1246,274.877 -161.6441,286.7497 -169.9453,299.8452 -177.8965,312.3792 -184.3513,322.5496 -191.9653,334.5378 -199.3489,346.1628 -206.2749,357.0697 -213.0606,367.7415 -219.088,377.2173 -224.4473,385.6185 -230.2127,394.6079 -234.8548,401.692 -239.2973,408.2073 -243.842,414.4465 -248.5446,420.3404 -253.5396,425.6996 -258.3883,430.133 -263.5422,434.111 -269.2792,437.731 -275.9046,440.9748 -281.8208,443.1415 -287.8562,444.6971 -294.2699,445.6693 -301.3016,445.9418 -306.9693,445.5585 -313.1244,444.5301 -319.6973,442.709 -325.2002,440.5989 -330.5631,438.0488 -336.7472,434.7483 -342.2567,432.0563 -347.9946,429.7206 -354.1949,427.7502 -360.4583,426.3521 -367.3576,425.4707 -372.9688,425.2336 -379.1493,425.4629 -385.6031,426.2566 -391.7867,427.5183 -397.6644,429.1781 -404.5516,431.495 -410.5764,433.8234 -416.9229,436.7147 -422.9212,439.896 -429.1743,443.692 -435.9554,448.3676 -441.3955,452.5554 -447.4123,457.4596 -454.2554,462.8553 -460.1687,467.0482 -467.8294,471.7622 -474.4316,475.2625 -482.0932,478.7625 -490.4742,481.9875 -498.324,484.4641 -506.6994,486.513 -515.9307,488.1002 -523.8732,488.9418 -532.1771,489.3546 -539.9855,489.254 -548.9294,488.5903 -556.5247,487.5449 -563.9902,486.0223 -571.7049,483.897 -580.0314,480.9603 -586.6105,478.1115 -593.6113,474.4563 -600.6415,470.0552 -607.1022,465.3432 -612.9927,460.4327 -618.859,454.8665 -624.5977,448.6088 -629.3517,442.613 -633.8713,436.0024 -638.3131,428.335 -641.7319,421.3717 -644.7446,414.1036 -647.4638,406.1487 -649.8242,397.4961 -651.6042,389.0015 -652.8707,380.7291 -653.8046,370.9379 -654.1295,362.3287 -653.9734,353.1459 -653.2992,343.8726 -652.1733,335.0099 -650.2826,324.7443 -648.0315,315.4094 -645.4888,306.5369 -642.6498,297.6455 -639.354,288.2734 -635.7356,278.9019 -631.5864,269.077 -627.5289,260.2101 -622.9581,250.9051 -618.1139,241.6216 -612.7939,231.8724 -607.8001,223.0409 -602.3623,213.7361 -596.4415,203.97 -590.0274,193.7357 -584.3045,184.907 -578.1276,175.6088 -572.1965,166.7192 -566.2206,157.7672 -559.2533,147.3225 -553.2126,138.2256 -547.174,129.0455 -540.8667,119.292 -533.9395,108.4568 -527.9517,99.1024 -521.9672,89.7701 -516.6284,81.5704 -511.2604,73.6646 -505.5744,65.756 -500.7889,59.5718 -496.0625,53.9635 -490.8644,48.6086 -484.944,43.3953 -479.822,39.5617 -474.6566,36.345 -469.044,33.5699 -463.4432,31.3875 -457.8421,29.698 -452.4929,28.735 -447.3835,28.3333 -441.4256,28.4851 -436.5482,29.1312 -431.1374,30.3909 -425.2634,32.4341 -420.5536,34.5962 -415.2244,37.6712 -410.6284,40.9391 -405.6151,45.2523 -401.6094,49.405 -397.7906,54.1541 -394.5616,59.0099 -391.5459,64.4849 -388.839,70.6124 -386.7773,76.4609 -384.8121,83.5864 -383.4812,89.6767 -382.2367,97.41 -381.5806,103.9514 -381.2925,111.4049 -381.5333,118.9804 -382.362,127.053 -383.6312,134.4336 -385.5655,142.654 -387.7458,150.1368 -390.6675,158.4123 -393.7634,165.8832 -397.4226,173.7364 -401.4789,181.5658 -406.1212,189.7686 -410.8364,197.5905 -415.5586,205.0318 -420.7635,212.8771 -426.473,221.1268 -432.119,228.9708 -437.6794,236.4242 -443.7307,244.2769 -449.9161,252.1868 -456.7942,261.0085 -462.2196,268.1546 -468.2196,276.4712 -472.8928,283.219 -477.5979,290.1759 -481.2411,295.7353 -484.9908,301.809 -487.8949,306.9978 -490.4763,312.1762 -492.5944,317.0582 -494.2361,321.6452 -495.3913,326.3348 -495.9215,330.5111 -495.911,335.0649 -495.371,339.0961 -494.2596,343.2154 -492.5127,347.4201 -490.3314,351.2123 -487.6876,354.7187 -484.4333,358.0753 -481.2471,360.7046 -477.1087,363.402 -473.013,365.4678 -468.3579,367.2397 -462.8676,368.6726 -457.5731,369.5027 -452.3083,369.8523 -446.8792,369.7194 -440.7649,369.0264 -434.8699,367.8332 -428.9411,366.1129 -422.9312,363.9543 -417.0517,361.7035 -410.3913,358.9514 -403.9018,356.0701 -397.5715,353.185 -390.7178,350.0535 -382.9733,346.52 -376.1203,343.4228 -369.1075,340.2591 -361.561,336.8464 -353.4604,333.1711 -345.9799,329.7632 -337.9648,326.0733 -329.8441,322.2122 -320.8894,317.5971 -313.5892,313.4843 -305.5179,308.5756 -296.7228,302.7671 -289.6178,297.7057 -281.0397,291.1376 -274.1224,285.4523 -266.5566,278.8127 -258.7397,271.5069 -251.7495,264.6468 -244.1209,256.7986 -237.0124,249.0224 -230.4367,241.348 -223.7793,232.9286 -217.1555,223.6882 -211.285,214.6783 -206.1929,206.5984 -200.8205,197.9977 -196.3648,190.8498 -192.3472,184.2862 -189.1721,178.792 -186.1458,173.0339 -183.4493,167.0294 -181.7077,161.8719 -180.4697,156.3559 -179.827,150.9977 -179.7295,145.2875 -180.298,139.2592 -181.4714,133.5534 -183.2425,127.9202 -185.4773,122.6842 -188.7248,116.883 -192.021,112.1098 -195.7281,107.5405 -200.0699,102.9777 -205.0515,98.3425 -210.5949,93.4848 -215.8834,89.0376 -220.4978,85.166 -226.2747,80.1958 -231.8066,75.2327 -237.0427,70.2731 -242.8709,64.1212 -247.5755,58.3833 -251.9816,52.2827 -256.3892,45.5332 -261.0947,37.8239 -264.9956,30.9148 -269.1292,23.0183 -272.5488,16.0537 -276.4944,7.7539 -280.0752,0.1106 -283.8457,-8.0722 -287.6052,-16.3922 -291.338,-24.855 -295.6717,-35.2375 -298.6394,-42.7357 -301.8797,-51.2322 -305.5224,-61.2037 -308.9436,-70.8458 -311.6938,-78.8396 -314.2912,-86.7077 -316.6914,-94.4861 -318.903,-102.4736 -320.6473,-109.6953 -322.1379,-117.2979 -323.1905,-125.6607 -323.5706,-132.8537 -323.423,-139.9808 -322.7262,-147.3752 -321.463,-154.6133 -319.4205,-162.3468 -317.2509,-168.5493 -314.1618,-175.7148 -310.8935,-182.1137 -306.9656,-188.7441 -302.3605,-195.6011 -297.811,-201.7186 -292.0971,-208.6727 -286.7739,-214.5239 -281.0721,-220.0996 -274.6283,-225.6676 -267.0536,-231.4422 -259.3983,-236.6337 -252.9009,-240.5735 -244.9537,-244.9257 -236.3028,-249.234 -228.2608,-252.9927 -219.5773,-256.7731 -210.2593,-260.622 -201.2725,-264.2961 -192.6337,-267.8522 -183.4406,-271.6753 -174.15,-275.5854 -164.2999,-279.8014 -155.3109,-283.7239 -145.7797,-287.9794 -135.2281,-292.8316 -126.0405,-297.1203 -116.764,-301.4537 -106.9044,-306.0618 -95.9485,-311.184 -86.9014,-315.4153 -75.7456,-320.6342 -65.5143,-325.423 -54.6834,-330.4967 -45.8521,-334.637 -34.3407,-340.0357 -24.8731,-344.477 -13.752,-349.6997 -3.6256,-354.4767 7.0951,-359.563 18.4186,-364.9675 29.2638,-370.1777 39.6202,-375.1847 50.5778,-380.5127 62.1508,-386.1559 73.2397,-391.5681 83.5567,-396.6079 94.6364,-402.0275 103.4938,-406.3658 112.1414,-410.6098 119.7475,-414.36 127.1216,-418.0611 134.1628,-421.7671 140.218,-425.2162 145.3856,-428.4431 150.2331,-431.7701 154.5,-435.149 158.4388,-438.9648 161.6992,-442.9101 164.3671,-446.9331 166.7666,-451.5073 168.8052,-456.6464 170.2318,-461.74 171.1485,-466.8892 171.4809,-471.7626 171.219,-477.054 170.3081,-482.1793 168.9936,-486.4164 166.794,-491.2887 164.423,-495.1538 161.1907,-499.2462 158.3358,-502.1658 153.6119,-505.9979 150.2736,-508.1648 145.7685,-510.5397 141.1641,-512.4263 135.7452,-514.0915 130.5749,-515.2024 124.8615,-516.0355 118.8953,-516.6133 112.6934,-516.8923 105.9478,-516.821 99.6664,-516.3864 92.9063,-515.4954 86.0243,-514.1501 78.7107,-512.2255 72.057,-510.0242 64.3784,-506.9162 57.8293,-503.7611 51.0436,-499.94 44.7075,-495.8683 38.0235,-491.3319 30.5907,-486.3039 24.2339,-482.1528 18.1312,-478.4484 11.4523,-474.8096 5.7584,-472.149 0.4779,-470.1534 -4.8998,-468.653 -10.6803,-467.6195 -17.1091,-467.1231 -22.6549,-467.2521 -29.0295,-468.0396 -33.9002,-469.1012 -39.5163,-470.8347 -45.4651,-473.3151 -50.0765,-475.7463 -54.8786,-478.8478 -59.7152,-482.7212 -63.2756,-486.2324 -66.7605,-490.4616 -69.8772,-495.2491 -72.3157,-500.1175 -74.1852,-505.0165 -75.6828,-510.4265 -76.7086,-516.3392 -77.1348,-522.1456 -77.0347,-527.7803 -76.3804,-533.7999 -75.1661,-539.8607 -73.3813,-545.9144 -70.9031,-552.2309 -67.9981,-558.1796 -64.7543,-563.702 -60.4195,-569.9059 -56.1969,-575.0597 -51.3191,-580.2393 -46.2757,-584.8688 -40.5924,-589.4747 -34.61,-593.9503 -28.1502,-598.7551 -21.8692,-603.42 -15.7761,-607.9482 -8.5795,-613.3279 -1.8998,-618.3347 4.5715,-623.1843 11.1644,-628.1235 18.2662,-633.3724 25.6091,-638.5576 34.8249,-644.5355 41.6184,-648.5447 50.2114,-653.0498 57.7548,-656.4014 67.159,-659.827 74.9677,-662.0853 83.7353,-664.0068 92.5881,-665.3262 101.9181,-666.0462 110.3852,-666.1254 119.3632,-665.5867 128.4028,-664.413 138.3717,-662.4183 146.8933,-660.0728 155.6357,-656.9928 163.7409,-653.5327 172.5389,-649.1559 181.1842,-644.2132 188.8463,-639.2626 196.4008,-633.9365 204.4648,-628.2449 213.078,-622.2136 222.2253,-615.7895 229.385,-610.7635 238.8088,-604.2378 246.622,-598.8411 256.1835,-592.2229 264.3231,-586.5355 272.672,-580.4116 280.9368,-573.5311 287.5158,-567.2484 294.5576,-559.4945 300.3158,-552.1295 306.2033,-543.2435 310.5797,-535.4066 314.6489,-526.6906 317.5028,-519.2357 319.9919,-511.0259 321.9469,-502.1619 323.0253,-494.6623 323.6701,-487.4321 323.9886,-479.8826 324.0757,-473.4796 323.9124,-467.1616 323.7028,-461.312 323.3419,-455.3325 322.7501,-449.9936 321.8031,-443.908 320.6205,-438.5105 319.3074,-433.4916 317.6396,-428.3963 315.6248,-423.215 313.6526,-418.928 311.1349,-414.0367 308.5461,-409.5257 305.9404,-405.3372 302.7924,-400.867 299.4555,-396.5377 295.7283,-392.1507 292.6428,-388.8882 288.899,-385.0966 285.2562,-381.4669 281.3542,-377.5708 276.9208,-373.2145 272.9961,-369.3936 268.9851,-365.4813 264.6831,-361.2641 260.3062,-356.9113 255.6451,-352.2041 251.1441,-347.5495 246.8675,-342.9637 242.3589,-337.9048 237.8316,-332.5744 233.0161,-326.7284 228.3677,-320.9382 223.9648,-315.1987 218.867,-308.3219 214.154,-301.9129 209.6212,-295.6647 205.0813,-289.2331 200.3634,-282.2249 195.4033,-274.6589 190.6344,-267.2874 185.7784,-259.7867"/>
	<!-- Raw distance reference points -->
	<polyline id="dist" fill="none" stroke="none" stroke-width="0" points="4645.5005,0.9921 12.4062,0.9531 23.5537,0.9375 34.7964,0.9328 46.1248,0.93 57.5512,0.9364 69.0601,0.9442 80.6302,0.93 92.2631,0.9133 103.9586,0.9197 115.7377,0.9147 127.6136,0.9093 139.5812,0.9123 151.6155,0.9126 163.7135,0.9179 175.8834,0.909 188.1245,0.899 200.4351,0.9196 212.8172,0.9291 225.2664,0.9202 237.7887,0.8925 250.3825,0.9193 263.0362,0.9231 275.7445,0.9231 288.5177,0.8812 301.355,0.8324 314.2504,0.7699 327.2045,0.7054 340.211,0.6084 353.2688,0.4921 366.3782,0.3836 379.5477,0.2434 392.7729,0.0441 406.0522,-0.1363 419.3792,-0.3044 432.751,-0.5385 446.1771,-0.758 459.6524,-0.9964 473.1533,-1.2726 486.713,-1.5805 500.3321,-1.9235 513.9788,-2.2173 527.6813,-2.521 541.4346,-2.842 555.2328,-3.1632 569.0705,-3.4724 582.9442,-3.8213 596.8538,-4.1269 610.8263,-4.3814 624.8365,-4.621 638.8903,-4.8488 652.9904,-5.0717 667.1284,-5.2528 681.3047,-5.4089 695.5255,-5.5848 709.2952,-5.7683 722.2115,-5.9292 734.2746,-6.0679 745.5312,-6.2032 756.0241,-6.3307 765.7595,-6.4477 774.7285,-6.4969 783.0388,-6.5579 790.7447,-6.6298 797.9008,-6.723 804.7277,-6.8484 811.4058,-6.9857 818.0319,-7.1325 824.8813,-7.264 831.7766,-7.3608 838.6759,-7.4128 845.8011,-7.4217 852.5094,-7.389 859.0559,-7.3022 865.3679,-7.2019 871.3337,-7.0782 877.1838,-6.9431 883.2106,-6.8374 889.4874,-6.7579 895.9299,-6.675 902.4567,-6.5937 909.1685,-6.5067 916.8687,-6.394 923.9921,-6.245 931.457,-6.0416 938.1418,-5.8589 945.0941,-5.638 951.6327,-5.3691 958.2824,-5.1055 965.4135,-4.8325 972.1078,-4.4439 978.8152,-4.0997 985.6649,-3.738 992.7377,-3.4068 1000.0255,-3.0745 1007.5084,-2.7338 1015.1335,-2.4529 1022.8996,-2.1268 1030.8424,-1.7445 1038.9095,-1.4245 1047.1083,-1.0206 1055.4585,-0.6976 1063.9393,-0.3449 1072.8408,0.0268 1082.0342,0.3888 1091.1122,0.7885 1100.0151,1.2021 1108.6304,1.5898 1117.4302,1.9478 1126.2738,2.2977 1134.9893,2.6854 1143.3121,3.0223 1151.755,3.3406 1160.1544,3.6432 1168.3746,3.969 1176.6652,4.222 1184.8124,4.493 1192.8353,4.7724 1201.0679,5.0272 1209.2489,5.2707 1217.55,5.5093 1225.7672,5.7348 1233.8187,5.9297 1241.7782,6.122 1249.7693,6.324 1257.8099,6.4793 1265.9543,6.6267 1274.2896,6.7774 1282.6461,6.9245 1291.1342,7.0573 1299.8345,7.1768 1308.5314,7.3103 1317.3568,7.4271 1326.328,7.5531 1335.4427,7.6801 1344.6864,7.7984 1354.0975,7.928 1363.5527,8.0378 1373.1056,8.1509 1382.7843,8.2742 1392.6169,8.4005 1402.587,8.5226 1412.6556,8.659 1422.7704,8.7896 1432.9707,8.9314 1443.3204,9.0836 1453.8469,9.2477 1464.511,9.3835 1475.2601,9.5112 1486.127,9.6794 1497.1011,9.8396 1508.1748,9.9862 1519.3353,10.1477 1530.5903,10.2779 1541.9303,10.3982 1553.3385,10.5383 1564.8151,10.6781 1576.3718,10.8191 1587.9891,10.9825 1599.6909,11.1924 1611.4073,11.3791 1622.5409,11.532 1632.8629,11.6701 1642.4147,11.8128 1651.2798,11.9407 1659.5148,12.0292 1667.1501,12.0949 1674.4572,12.14 1681.5277,12.1845 1688.2958,12.2374 1694.7742,12.3069 1701.3673,12.3768 1707.6298,12.4368 1713.5039,12.5076 1719.2186,12.5791 1725.0868,12.6534 1730.7574,12.734 1736.507,12.809 1742.3823,12.8974 1748.3776,12.9974 1754.4788,13.07 1760.8739,13.1569 1766.995,13.2369 1773.1655,13.3245 1779.3893,13.4009 1785.769,13.4788 1792.054,13.557 1798.4669,13.6275 1805.2322,13.698 1811.9561,13.7406 1818.8855,13.7892 1826.2966,13.8289 1833.6318,13.8852 1841.2983,13.9128 1848.9281,13.9172 1856.8193,13.9131 1864.8115,13.8922 1872.8208,13.8701 1881.1202,13.8319 1889.4208,13.7696 1897.9047,13.7148 1906.3984,13.667 1915.0094,13.5723 1923.7897,13.4435 1932.7358,13.2996 1941.8507,13.1471 1951.1193,12.9914 1960.5297,12.7932 1970.0802,12.5691 1979.7334,12.3691 1989.5046,12.1752 1999.391,11.9775 2009.395,11.7926 2019.5121,11.5784 2029.459,11.3783 2038.7833,11.124 2047.4921,10.9096 2055.5684,10.6715 2063.002,10.4728 2069.8281,10.2569 2076.0632,10.0735 2081.7483,9.8774 2086.9058,9.6743 2091.6121,9.4734 2096.0815,9.2615 2100.4321,9.0722 2104.7751,8.8598 2109.0259,8.6555 2113.4133,8.431 2117.95,8.18 2122.6167,7.9376 2127.4121,7.6892 2132.3435,7.4101 2137.439,7.1559 2142.6082,6.8592 2147.9592,6.5959 2153.541,6.3229 2159.2344,6.0272 2165.2339,5.7523 2170.687,5.4867 2176.1829,5.2335 2181.886,4.9293 2187.791,4.5965 2193.8757,4.2296 2200.1462,3.8349 2206.7422,3.4504 2213.5886,3.022 2220.6714,2.5836 2228.0037,2.1539 2235.5618,1.6953 2243.3115,1.1955 2251.2292,0.759 2259.3259,0.3163 2267.6001,-0.1504 2276.0713,-0.6305 2284.7297,-1.034 2293.5537,-1.4327 2302.5344,-1.8281 2311.6567,-2.2465 2320.9116,-2.5691 2330.2493,-2.91 2339.7478,-3.2367 2349.3433,-3.4881 2359.1279,-3.7884 2369.0481,-4.0059 2379.0957,-4.2044 2389.2676,-4.385 2399.5398,-4.5164 2409.864,-4.618 2420.2886,-4.6686 2430.8162,-4.7193 2441.5115,-4.723 2452.2939,-4.7163 2463.0127,-4.6444 2473.0747,-4.564 2482.332,-4.4377 2490.8337,-4.3045 2498.5977,-4.1578 2505.6467,-4.0129 2512.1055,-3.8686 2518.0217,-3.745 2523.6143,-3.6574 2529.1484,-3.5572 2534.9736,-3.4531 2540.8765,-3.3377 2546.929,-3.176 2553.1069,-2.9786 2559.3787,-2.7462 2566.0256,-2.49 2572.3101,-2.1419 2578.5178,-1.8451 2584.6375,-1.5772 2590.7915,-1.2968 2597.186,-0.9904 2603.7937,-0.6591 2610.6921,-0.362 2617.8914,-0.0599 2625.5654,0.3667 2633.2598,0.8317 2641.3777,1.2818 2649.3186,1.8481 2657.5024,2.3561 2665.5115,2.8503 2673.4771,3.3722 2681.6023,3.9515 2689.9016,4.4587 2698.3608,5.016 2706.9744,5.4901 2715.7214,6.0433 2724.6082,6.5377 2733.6128,7.0626 2742.7427,7.6037 2751.9939,8.1544 2761.364,8.8077 2770.8525,9.2842 2780.4431,9.8318 2790.114,10.4802 2799.8794,11.0885 2809.3352,11.5844 2818.0496,12.067 2826.157,12.5287 2834.0078,12.9835 2841.7542,13.378 2849.4136,13.7748 2857.061,14.1838 2864.696,14.4828 2872.6768,14.782 2880.6802,15.0699 2888.2727,15.3445 2896.0903,15.6417 2903.6516,15.8778 2911.5754,16.1437 2919.3608,16.3413 2927.5093,16.5499 2935.8137,16.7503 2944.0334,16.9165 2952.5137,17.1111 2960.895,17.2454 2969.1113,17.372 2977.3691,17.4925 2985.8296,17.5687 2994.5518,17.5588 3003.4353,17.5396 3012.4641,17.4969 3021.6521,17.4194 3031.0107,17.3223 3040.4939,17.2029 3050.0762,17.0903 3059.7256,16.9659 3069.5171,16.8475 3079.4407,16.736 3089.4951,16.6182 3099.6836,16.474 3109.9934,16.3429 3120.425,16.2164 3130.9736,16.1048 3141.636,16.0022 3152.4097,15.8879 3163.2922,15.7652 3174.2795,15.6211 3185.3667,15.5028 3196.5469,15.3637 3207.8269,15.2436 3219.2017,15.1063 3230.6667,14.9932 3242.2185,14.8244 3253.8374,14.682 3265.5674,14.532 3277.3569,14.3968 3289.2239,14.2769 3301.1851,14.1352 3313.219,13.9879 3325.3096,13.8427 3337.4912,13.6965 3349.7388,13.5356 3362.0674,13.3788 3374.1641,13.2293 3385.4109,13.0834 3395.8323,12.9766 3405.4788,12.8803 3414.4155,12.7923 3422.6504,12.7031 3430.2449,12.6156 3437.2434,12.5321 3443.6489,12.4586 3449.4763,12.3864 3454.793,12.3166 3459.8137,12.2565 3464.6436,12.2004 3469.4529,12.1306 3475.4053,12.055 3481.4951,11.9794 3487.8972,11.9205 3495.5142,11.8557 3501.6536,11.8221 3507.5269,11.8172 3513.1973,11.8423 3518.707,11.9057 3523.9194,12.0247 3528.8516,12.1598 3533.6292,12.3142 3538.4255,12.4226 3543.2612,12.5718 3548.1792,12.6602 3553.2178,12.7737 3558.4019,12.8903 3563.7522,13.0088 3569.2781,13.1201 3575.0269,13.2469 3581.0127,13.3722 3587.2288,13.5048 3593.6921,13.6569 3600.6226,13.8008 3607.6487,13.9525 3615.1206,14.0916 3622.5317,14.2662 3630.3606,14.4801 3638.1257,14.7991 3646.2522,15.0912 3654.2834,15.419 3662.6372,15.7635 3670.9673,16.1599 3679.1245,16.5723 3687.1138,16.8911 3694.5681,17.156 3701.3767,17.4155 3707.6733,17.6593 3713.6868,17.8729 3719.6831,18.0794 3725.9001,18.3048 3731.9841,18.5531 3738.0549,18.7762 3744.1279,19.0403 3750.5259,19.2495 3756.6995,19.498 3762.8596,19.7703 3768.9534,19.9778 3775.4319,20.1906 3781.5491,20.4112 3787.6384,20.585 3793.6692,20.7698 3800.061,20.9494 3805.8325,21.1128 3811.6326,21.2617 3817.5288,21.4042 3823.5168,21.5432 3829.6248,21.6745 3836.2556,21.7911 3842.7131,21.9155 3849.2732,22.0295 3856.2112,22.1436 3862.7485,22.2714 3869.1765,22.3816 3875.512,22.4738 3882.1838,22.556 3889.0776,22.5932 3896.0791,22.5987 3903.2239,22.5814 3910.436,22.5319 3917.8784,22.4779 3925.4941,22.3967 3933.3037,22.3091 3941.2915,22.2143 3949.4519,22.0873 3957.7974,21.9483 3966.2878,21.7821 3974.9358,21.6004 3983.7595,21.3846 3992.728,21.1619 4001.8267,20.8384 4011.0139,20.5546 4020.125,20.1591 4029.1648,19.8038 4038.4902,19.3444 4048.0881,18.9392 4057.7764,18.4828 4067.4854,18.0255 4077.0281,17.534 4086.4238,17.0732 4095.8655,16.6086 4105.3452,16.1577 4114.5757,15.6734 4123.6519,15.2909 4132.6064,14.8909 4141.8125,14.4713 4151.1514,13.9598 4160.6606,13.4357 4170.2183,12.9445 4179.9131,12.4545 4189.749,11.9266 4199.7612,11.3698 4209.8809,10.7834 4220.1694,10.3282 4230.5947,9.7453 4241.1523,9.2866 4251.7427,8.7746 4262.2188,8.3607 4272.5791,7.9288 4282.7734,7.4904 4292.6992,7.1239 4302.5,6.7169 4312.3647,6.362 4322.1968,5.9972 4331.7158,5.7241 4340.856,5.4565 4349.6162,5.2511 4358.0796,5.0583 4366.0889,4.8804 4373.8804,4.7534 4380.876,4.634 4387.5654,4.5277 4393.7627,4.4409 4399.4639,4.3327 4404.5444,4.2503 4409.353,4.1777 4413.9883,4.1561 4418.481,4.0511 4423.0356,4.0366 4427.8911,3.9382 4433.0049,3.9078 4438.1777,3.8328 4443.356,3.7924 4448.5518,3.6965 4453.7217,3.6579 4458.8135,3.5426 4463.9893,3.5 4469.1602,3.4138 4474.3491,3.2864 4479.5698,3.2462 4484.8472,3.1293 4490.2197,3.0735 4495.6875,2.9731 4501.2188,2.8605 4506.8179,2.7738 4512.5439,2.708 4518.3779,2.5964 4524.3765,2.5131 4530.5269,2.3834 4536.8462,2.2886 4543.3198,2.1853 4550.0166,2.0438 4556.9619,1.9323 4564.1299,1.7996 4571.5088,1.6767 4579.0991,1.5648 4586.8667,1.4488 4594.7852,1.3435 4602.8721,1.255 4611.1235,1.1678 4619.5723,1.0998 4628.1948,1.0389 4636.9604,0.9887 4645.8901,0.9509"/>
</svg>
