<?xml version="1.0" encoding="utf-8"?>
<!-- Track map generated with TinyPedal -->
<svg viewBox="-215.9264 -2376.9749 2631.4159 5476.9976" version="1.1" xmlns="http://www.w3.org/2000/svg">
	<title>Circuit de la Sarthe Mulsanne</title>
	<!-- Sector coordinates index -->
	<desc>209,615</desc>
	<!-- Raw global coordinates -->
	<polyline id="map" fill="none" stroke="black" stroke-width="10" points="-186.1891,-1063.5541 -185.2929,-1077.3701 -184.659,-1086.6951 -184.069,-1095.1986 -183.4044,-1104.7701 -182.7381,-1114.4698 -182.0727,-1124.2957 -181.3988,-1134.2452 -180.7112,-1144.3153 -179.949,-1155.5294 -179.2534,-1165.8458 -178.6355,-1175.2281 -177.9597,-1185.7587 -177.2907,-1196.3975 -176.6242,-1207.1415 -175.8861,-1219.0775 -175.2748,-1228.9324 -174.5742,-1239.9728 -173.8271,-1251.1042 -172.9474,-1263.4496 -172.1927,-1273.6267 -171.3312,-1284.9684 -170.4526,-1296.3842 -169.5472,-1307.8801 -168.5094,-1320.6152 -167.6171,-1331.1024 -166.4675,-1343.9993 -165.4718,-1354.6139 -164.2828,-1366.4694 -162.8418,-1379.5796 -161.5281,-1390.3539 -159.9066,-1402.3699 -158.0873,-1414.4248 -156.0707,-1426.5145 -153.8531,-1438.6328 -151.468,-1450.7832 -148.9984,-1462.9786 -146.4738,-1475.2225 -143.8619,-1487.5045 -141.0997,-1499.809 -138.1092,-1512.1128 -134.5641,-1525.6417 -131.4628,-1536.7013 -127.7886,-1548.9691 -123.8674,-1561.2065 -119.6886,-1573.4041 -115.2495,-1585.521 -110.5696,-1597.4404 -105.5782,-1609.0891 -100.2611,-1620.4004 -94.1294,-1632.4302 -88.8512,-1641.8584 -82.6624,-1651.8729 -76.1013,-1661.4077 -69.1809,-1670.5338 -61.9142,-1679.2384 -54.3066,-1687.4882 -46.3438,-1695.2255 -37.1849,-1703.0913 -29.4048,-1709.0081 -20.4642,-1715.1218 -10.3774,-1721.4232 -2.1605,-1726.2522 6.7539,-1731.277 15.3238,-1735.9839 23.4661,-1740.4103 31.1287,-1744.5654 38.2697,-1748.4481 45.5136,-1752.4104 50.9805,-1755.4401 56.6339,-1758.6228 61.9653,-1761.667 67.0147,-1764.5985 71.7782,-1767.4374 76.281,-1770.2505 80.5129,-1773.1119 84.8617,-1776.3837 88.1758,-1779.2139 91.5502,-1782.5594 94.5509,-1786.1388 97.3507,-1790.3341 99.2368,-1793.9244 100.9203,-1798.0233 102.1764,-1802.191 103.0204,-1806.4001 103.4902,-1810.7147 103.7421,-1815.1895 103.8404,-1819.8694 103.811,-1824.6913 103.7636,-1829.4713 103.8331,-1834.1763 104.1565,-1838.7965 104.7991,-1843.3114 105.7861,-1847.6908 107.1215,-1851.9011 108.9672,-1856.3459 110.7803,-1859.9325 113.3715,-1864.3011 115.8324,-1867.843 118.9225,-1871.7184 122.7347,-1875.8878 126.1912,-1879.2167 130.3997,-1882.8328 135.4789,-1886.6912 139.9726,-1889.7653 145.2538,-1893.1365 150.7594,-1896.4233 156.5219,-1899.7124 162.5066,-1903.0591 168.6807,-1906.5052 175.0311,-1910.064 181.5512,-1913.7344 188.9054,-1917.9081 195.053,-1921.4318 202.0073,-1925.4595 209.0176,-1929.568 216.8681,-1934.2362 223.3862,-1938.1991 231.441,-1943.2529 238.0672,-1947.6053 245.4402,-1952.699 252.7629,-1958.1232 259.9692,-1963.937 267.0519,-1970.1193 273.983,-1976.6707 281.3364,-1984.2399 287.1953,-1990.7228 293.7318,-1998.0835 301.1256,-2006.2094 308.1293,-2013.5273 314.6322,-2020.0791 322.8237,-2028.0468 329.7499,-2034.4844 337.6671,-2041.3792 345.8455,-2047.8597 354.2884,-2053.8777 363.8701,-2059.925 372.819,-2064.886 381.0537,-2068.8784 390.4036,-2072.7625 399.96,-2076.0635 409.6794,-2078.8721 420.4962,-2081.5085 429.4676,-2083.2651 440.6406,-2084.9194 449.9172,-2085.9172 460.1622,-2086.6414 470.0968,-2086.981 479.5928,-2087.1201 488.6069,-2087.1558 497.1472,-2087.1992 505.2324,-2087.313 512.9384,-2087.5193 521.0823,-2087.905 527.5231,-2088.4385 534.5084,-2089.3318 541.3653,-2090.6069 548.7269,-2092.5178 554.5736,-2094.5022 560.8859,-2097.1545 567.577,-2100.6396 572.8416,-2103.9268 578.4384,-2108.05 584.2487,-2113.1318 588.7118,-2117.6775 593.3221,-2123.1113 597.8205,-2129.5981 601.0381,-2135.2561 604.134,-2141.8899 606.9913,-2149.6042 609.1953,-2156.9343 610.9166,-2163.7502 612.6517,-2171.5298 614.262,-2179.5034 616.1997,-2188.4187 618.1196,-2195.7366 620.7122,-2203.8203 623.8805,-2211.7683 628.048,-2220.2607 631.9517,-2227.0149 636.8182,-2234.2781 642.1243,-2241.3271 647.8676,-2248.0544 654.5754,-2255.1399 660.3777,-2260.6995 667.1916,-2266.6218 674.3456,-2272.3337 682.6274,-2278.3076 689.6994,-2282.9651 697.8366,-2287.8484 706.2617,-2292.5315 714.9121,-2297.1072 723.7773,-2301.5681 732.8279,-2305.9541 742.0494,-2310.2815 751.4356,-2314.5471 760.9919,-2318.72 770.7301,-2322.7634 780.6364,-2326.6992 790.6991,-2330.5452 801.947,-2334.6533 811.1454,-2337.9014 821.0692,-2341.3416 830.5767,-2344.5496 839.6611,-2347.481 849.2366,-2350.3159 856.8163,-2352.3157 865.0365,-2354.1873 873.0916,-2355.6328 881.7744,-2356.6235 889.5554,-2356.9749 896.5026,-2356.7854 904.1889,-2356.0657 911.9712,-2354.8545 919.8471,-2353.1782 927.7859,-2351.033 935.7505,-2348.3987 943.753,-2345.3762 951.7291,-2341.884 959.6671,-2337.9368 968.3688,-2333.1528 975.4703,-2328.9312 983.3564,-2323.9775 991.2245,-2318.7622 998.9839,-2313.3015 1007.4849,-2307.0134 1015.259,-2301.1184 1022.2305,-2295.5869 1029.9226,-2289.1731 1037.5631,-2282.491 1045.1433,-2275.5461 1052.6487,-2268.334 1060.0939,-2260.8813 1068.2137,-2252.4194 1075.5339,-2244.4939 1082.8086,-2236.3679 1089.3229,-2228.8923 1096.5361,-2220.4209 1103.7201,-2211.7793 1110.8525,-2202.9583 1117.9232,-2193.9568 1124.9286,-2184.7788 1131.8737,-2175.4338 1138.7461,-2165.9209 1145.5259,-2156.2659 1152.1968,-2146.5032 1158.7886,-2136.5847 1165.3134,-2126.5125 1171.7555,-2116.2815 1178.776,-2104.8669 1184.4772,-2095.4102 1190.787,-2084.793 1197.0968,-2074.0791 1203.4354,-2063.2898 1210.4551,-2051.3452 1216.2183,-2041.5074 1222.6489,-2030.5159 1229.7528,-2018.3551 1235.58,-2008.3485 1242.0587,-1997.1654 1248.516,-1985.9012 1254.928,-1974.5457 1261.2788,-1963.0913 1267.5453,-1951.5286 1273.7267,-1939.8601 1280.4197,-1926.9019 1285.7936,-1916.1974 1292.2145,-1902.9828 1297.35,-1892.0682 1303.5068,-1878.619 1308.4585,-1867.5337 1313.8573,-1855.1284 1319.6833,-1841.3842 1324.3508,-1830.0597 1329.4073,-1817.4257 1334.3312,-1804.7094 1339.1377,-1791.9098 1343.8202,-1779.0272 1348.375,-1766.0627 1353.2461,-1751.7128 1357.139,-1739.9095 1361.7911,-1725.4106 1365.9429,-1712.1688 1369.6439,-1700.2113 1373.7363,-1686.887 1377.8157,-1673.5261 1381.8838,-1660.1301 1386.3488,-1645.3556 1389.9888,-1633.2362 1394.0125,-1619.7358 1397.9982,-1606.1951 1401.9438,-1592.6139 1406.2539,-1577.6324 1409.765,-1565.3445 1413.6479,-1551.6586 1417.9058,-1536.5668 1421.7802,-1522.8176 1425.2782,-1510.4218 1429.1758,-1496.6246 1433.0829,-1482.802 1437.0034,-1468.9554 1440.9272,-1455.0829 1444.8594,-1441.1862 1448.7994,-1427.2651 1452.7456,-1413.3198 1456.7045,-1399.3518 1461.0878,-1383.9652 1464.6954,-1371.3593 1469.1144,-1355.927 1472.7363,-1343.2804 1477.1687,-1327.7985 1480.7948,-1315.11 1484.8307,-1300.9915 1488.8688,-1286.8501 1492.9055,-1272.6854 1497.3428,-1257.077 1500.9689,-1244.2847 1504.9988,-1230.0499 1509.027,-1215.7924 1513.4534,-1200.0824 1517.4899,-1185.7815 1521.1361,-1172.8961 1525.2019,-1158.5632 1529.2877,-1144.2155 1533.3937,-1129.853 1537.5063,-1115.4727 1541.6198,-1101.073 1545.7394,-1086.6559 1549.8632,-1072.2217 1553.9866,-1057.7693 1558.5043,-1041.8468 1562.5902,-1027.349 1566.2582,-1014.2849 1570.3326,-999.7546 1574.4203,-985.2139 1578.923,-969.2053 1582.5939,-956.0918 1586.6515,-941.5038 1590.6936,-926.8994 1595.1134,-910.8134 1598.7245,-897.6404 1603.1447,-881.5292 1607.1593,-866.8696 1610.7773,-853.6677 1614.8511,-839.0032 1619.4026,-822.8788 1623.1514,-809.6833 1627.3207,-795.0123 1631.4939,-780.3318 1635.6768,-765.6432 1639.8706,-750.947 1644.0688,-736.2413 1648.689,-720.0536 1652.4663,-706.799 1657.0724,-690.5849 1660.8333,-677.3077 1665.0115,-662.546 1669.6184,-646.3008 1673.4073,-633.007 1677.6364,-618.2339 1681.8894,-603.4606 1686.5951,-587.2101 1690.4607,-573.9131 1694.7661,-559.1355 1699.0737,-544.3519 1703.3812,-529.5617 1707.6816,-514.7628 1712.3967,-498.4723 1716.2295,-485.1316 1720.4672,-470.2976 1725.1172,-453.9727 1728.9222,-440.6129 1733.1697,-425.7713 1737.4198,-410.9276 1741.6533,-396.0771 1746.2694,-379.7271 1750.4413,-364.8535 1754.2062,-351.4679 1758.8065,-335.1038 1762.563,-321.7103 1766.7465,-306.828 1771.3624,-290.4565 1775.1356,-277.0561 1779.3142,-262.1588 1783.5122,-247.2614 1787.7274,-232.364 1791.9553,-217.4651 1796.1941,-202.5644 1800.444,-187.6621 1804.7074,-172.7596 1808.9617,-157.8509 1813.2115,-142.9383 1817.4784,-128.0281 1821.7483,-113.1173 1826.4388,-96.7125 1830.2906,-83.2938 1834.9994,-66.8931 1838.8077,-53.4613 1842.994,-38.5242 1847.1635,-23.582 1851.745,-7.1437 1855.4901,6.3072 1860.056,22.7513 1864.2136,37.6995 1868.3792,52.6467 1872.1354,66.0983 1876.3372,81.0381 1880.5834,95.967 1884.8844,110.8819 1889.6674,127.2757 1893.5983,140.6854 1897.9768,155.5836 1902.3625,170.4816 1906.7513,185.3801 1911.1383,200.2809 1915.5267,215.1828 1919.9188,230.0851 1924.2803,244.9982 1928.6139,259.9198 1932.9197,274.8501 1937.1965,289.7885 1941.4561,304.7316 1945.6864,319.6826 1949.9041,334.6366 1954.1311,349.5879 1958.7999,366.0283 1962.632,379.4758 1966.8964,394.4152 1971.1685,409.3522 1975.4401,424.2891 1979.7045,439.2276 1984.3831,455.663 1988.208,469.1105 1992.453,484.0525 1996.681,498.9981 2000.8948,513.9463 2005.1011,528.8945 2009.3065,543.8394 2013.5132,558.7827 2017.7227,573.7247 2021.9312,588.6674 2026.142,603.6097 2030.3474,618.5552 2034.5482,633.5037 2038.7518,648.4539 2042.9564,663.4069 2047.1582,678.3644 2051.3601,693.3257 2055.5632,708.291 2060.1948,724.7549 2063.991,738.2272 2068.2224,753.1964 2072.4651,768.1666 2076.72,783.1378 2080.9885,798.1104 2085.6997,814.5819 2089.5593,828.0624 2093.8594,843.0426 2098.1658,858.0259 2102.9067,874.5109 2106.79,888.0001 2111.1018,902.9913 2115.4192,917.9824 2120.1653,934.4747 2124.4824,949.4675 2128.3696,962.9606 2133.1287,979.4506 2137.0178,992.9438 2141.334,1007.9385 2145.6465,1022.9346 2149.9573,1037.9314 2154.2656,1052.9287 2158.5686,1067.9272 2162.8728,1082.9241 2167.1775,1097.9199 2171.4475,1112.9252 2175.6689,1127.9443 2180.2544,1144.4822 2183.9824,1158.0209 2188.1484,1173.059 2192.7605,1189.5951 2196.9656,1204.6262 2200.7524,1218.1549 2204.9551,1233.1886 2209.1692,1248.2188 2213.7908,1264.7548 2217.5774,1278.2817 2221.8054,1293.3049 2226.0403,1308.3245 2230.2842,1323.3406 2234.5303,1338.3545 2238.7695,1353.368 2243.001,1368.3811 2247.2266,1383.392 2251.4431,1398.4019 2255.6558,1413.4054 2259.8696,1428.4038 2264.0847,1443.3955 2268.7354,1459.8751 2272.4995,1473.3641 2277.0686,1489.8538 2280.8057,1503.342 2284.9329,1518.3323 2289.0586,1533.3158 2293.2363,1548.2803 2297.4316,1563.2332 2301.6428,1578.1788 2305.8547,1593.1196 2310.0618,1608.0531 2314.3079,1622.9747 2318.564,1637.8931 2323.2578,1654.3009 2327.0835,1667.7306 2331.6997,1684.1633 2335.4153,1697.6272 2339.8533,1714.1136 2343.7329,1729.1447 2347.0449,1742.7197 2350.4949,1757.8604 2353.7278,1773.0532 2357.1038,1789.8051 2360.0166,1805.0583 2362.4614,1818.8142 2364.9233,1834.1429 2367.0908,1849.5168 2369.0923,1866.4773 2370.4646,1880.3833 2371.7258,1895.8586 2372.7629,1911.353 2373.6472,1926.8611 2374.4768,1943.933 2375.074,1957.9097 2375.696,1973.4459 2376.3054,1988.9874 2376.9043,2004.5328 2377.5442,2021.6372 2378.0984,2037.1903 2378.5757,2051.1904 2379.0769,2066.7483 2379.5403,2082.3086 2379.999,2099.427 2380.3755,2114.9912 2380.6892,2129.0 2381.0146,2144.5664 2381.3154,2160.1335 2381.6204,2177.2576 2381.853,2191.2668 2382.0898,2206.8315 2382.3738,2222.3926 2382.7429,2237.9482 2383.1567,2253.499 2383.6445,2270.6003 2384.0522,2284.5886 2384.5012,2300.1274 2384.9365,2315.6638 2385.3867,2332.7502 2385.7417,2346.7273 2386.1169,2362.2534 2386.4565,2377.7751 2386.7917,2393.291 2387.1685,2410.3511 2387.4788,2424.304 2387.8235,2439.801 2388.1748,2455.2935 2388.5259,2470.782 2388.8738,2486.2668 2389.2627,2503.2964 2389.5823,2517.2275 2389.936,2532.7051 2390.2754,2548.1826 2390.6123,2563.6604 2390.9563,2579.1394 2391.3296,2596.168 2391.6326,2610.1025 2391.9626,2625.5884 2392.3198,2642.6257 2392.6096,2656.5691 2392.9255,2672.0657 2393.2593,2689.1179 2393.5342,2703.0752 2393.8391,2718.5889 2394.1777,2735.6614 2394.4407,2749.6357 2394.7329,2765.1672 2395.0068,2780.7029 2395.2439,2796.2422 2395.4185,2811.7837 2395.4895,2827.3257 2395.3999,2842.7666 2395.0447,2859.3325 2394.5554,2872.4512 2393.8096,2886.5361 2392.6938,2901.4558 2391.4927,2913.2219 2389.9075,2925.8101 2388.292,2937.8909 2386.5837,2949.4412 2384.7451,2960.4331 2382.6707,2971.8518 2380.876,2980.6311 2378.8137,2989.793 2376.7485,2998.312 2374.6763,3006.1641 2372.6267,3013.3533 2370.6628,3019.9243 2368.6357,3026.5054 2367.0754,3031.521 2365.4246,3036.7927 2363.8379,3041.7759 2362.134,3046.9524 2360.7451,3050.9749 2359.1636,3055.2148 2357.469,3059.1804 2355.5876,3062.8354 2353.2476,3066.4744 2350.8384,3069.4329 2348.4336,3071.8127 2345.5244,3074.1213 2342.4031,3076.0469 2339.1121,3077.5657 2335.699,3078.679 2332.1079,3079.4346 2328.2771,3079.8811 2324.2039,3080.0227 2319.9265,3079.8303 2315.4407,3079.3171 2310.7212,3078.4993 2305.792,3077.3569 2300.6401,3075.8984 2294.707,3074.0027 2289.6504,3072.2588 2283.8416,3070.2258 2277.8391,3068.1738 2271.5906,3066.1001 2265.1108,3063.9802 2258.4119,3061.802 2251.502,3059.5613 2244.3872,3057.2654 2237.0754,3054.9194 2229.5891,3052.5486 2221.9714,3050.1633 2214.1733,3047.7432 2206.199,3045.2908 2198.0549,3042.8027 2189.7502,3040.2661 2181.2939,3037.6707 2172.6904,3035.0156 2163.9453,3032.3049 2155.0623,3029.5457 2146.063,3026.7502 2136.9824,3023.9158 2127.7783,3021.0337 2118.4504,3018.1079 2109.0017,3015.1387 2098.47,3011.8264 2088.7725,3008.7781 2079.9465,3006.0046 2070.03,3002.9028 2060.0029,2999.7705 2048.8484,2996.2886 2039.6246,2993.4202 2029.2739,2990.2183 2018.8225,2986.9895 2008.274,2983.7302 1996.564,2980.1016 1986.903,2977.0984 1976.0825,2973.7415 1965.1788,2970.3535 1954.1981,2966.9216 1943.1696,2963.4561 1932.0919,2959.9482 1920.9379,2956.4092 1909.7065,2952.8462 1898.4015,2949.2539 1887.0273,2945.625 1875.5818,2941.97 1864.0618,2938.3025 1852.47,2934.6182 1840.8064,2930.9224 1829.074,2927.2104 1817.2758,2923.479 1805.4149,2919.7207 1793.4952,2915.9285 1781.5223,2912.0889 1769.496,2908.2078 1757.4225,2904.2712 1744.0919,2899.865 1731.9269,2895.7971 1720.9412,2892.0864 1708.6942,2887.9092 1696.4086,2883.6648 1682.8622,2878.8848 1671.7704,2874.8469 1659.4508,2870.1951 1647.1541,2865.3337 1633.6729,2859.7131 1622.6782,2854.9097 1610.5348,2849.3696 1598.4659,2843.5957 1586.4319,2837.6387 1574.4109,2831.5513 1562.3817,2825.377 1550.3175,2819.1743 1538.2238,2812.9307 1526.1135,2806.6223 1513.9867,2800.2495 1501.8448,2793.8096 1489.6887,2787.3042 1476.3066,2780.0647 1465.3438,2774.0911 1451.9204,2766.7451 1440.9169,2760.7012 1428.6754,2753.9399 1416.4246,2747.1204 1404.1604,2740.2542 1391.88,2733.3472 1379.5802,2726.4084 1367.2714,2719.4187 1354.9589,2712.3713 1342.6293,2705.2915 1330.2719,2698.2 1317.8926,2691.0896 1305.4929,2683.9602 1293.0834,2676.7937 1280.6649,2669.5918 1268.2375,2662.3574 1255.8007,2655.0925 1243.3634,2647.7859 1229.6823,2639.6982 1218.4962,2633.031 1206.0651,2625.5864 1193.6365,2618.0967 1181.2129,2610.5552 1168.8173,2602.9277 1156.472,2595.1777 1144.1848,2587.3003 1131.9561,2579.3015 1119.8254,2571.1221 1107.7921,2562.7632 1094.6252,2553.4275 1083.9032,2545.6843 1072.0068,2537.0195 1058.934,2527.4263 1048.2493,2519.5271 1036.3756,2510.7131 1024.4948,2501.8696 1012.6378,2492.9543 1000.8213,2483.9438 989.0317,2474.8608 977.2497,2465.7322 965.4728,2456.5647 952.5322,2446.4265 940.7748,2437.1677 930.2044,2428.7961 918.4694,2419.4558 906.7406,2410.0808 893.8455,2399.731 883.3151,2391.2166 871.639,2381.7041 858.8054,2371.2029 847.1372,2361.6343 836.6455,2352.9919 824.9866,2343.3696 813.3288,2333.7217 801.7021,2324.0127 788.9626,2313.2812 778.7615,2304.6099 767.8674,2295.2446 757.4946,2286.2239 746.6589,2276.7095 738.2481,2269.1794 729.4209,2260.999 721.1169,2252.9614 712.4675,2244.2153 705.759,2237.0559 698.6821,2228.9749 691.9919,2220.6711 685.7975,2212.0889 679.6254,2202.2151 674.9705,2193.8032 669.7712,2183.1521 665.9388,2174.157 662.09,2163.9067 658.6766,2153.5696 655.7922,2143.4404 653.0644,2132.7595 651.0579,2124.4775 649.0057,2115.7903 647.0861,2107.6489 645.2653,2100.0354 643.5172,2092.9065 641.8054,2086.1814 640.0855,2079.7449 638.3135,2073.5818 636.4128,2067.7197 634.2867,2062.1672 631.8709,2056.9395 628.816,2051.5569 625.9874,2047.4141 622.4784,2043.1478 618.5698,2039.3259 614.2848,2036.0317 609.6861,2033.3148 604.8411,2031.1823 599.7524,2029.6022 594.452,2028.5668 588.9323,2028.04 582.6157,2028.0112 577.2572,2028.3058 571.1101,2028.9608 564.7825,2029.9954 558.312,2031.46 551.7246,2033.3594 545.0284,2035.6467 538.1873,2038.1803 531.2358,2040.8969 523.457,2044.0479 516.2084,2047.0099 509.5259,2049.7124 501.9188,2052.73 494.1218,2055.7517 485.3353,2059.084 477.1774,2062.1404 469.7635,2064.9214 461.4029,2068.0654 452.0527,2071.5815 444.2824,2074.4985 435.5239,2077.7834 426.6341,2081.1108 416.8198,2084.7717 409.0157,2087.688 400.7204,2090.7905 392.859,2093.7239 385.4557,2096.4573 378.5111,2098.9788 371.9573,2101.3137 365.1107,2103.7017 359.7567,2105.5244 354.0808,2107.4075 348.1668,2109.2944 343.0964,2110.811 338.3148,2112.0979 334.2304,2113.0688 329.8885,2113.9456 325.721,2114.5518 321.7277,2114.8052 317.5695,2114.6152 314.3719,2114.0779 310.9928,2113.0957 307.7977,2111.739 304.8291,2110.0354 302.112,2108.0293 299.6203,2105.7302 297.3122,2103.1206 294.9788,2099.8782 293.224,2096.9333 291.4555,2093.3503 289.7287,2089.0444 288.4501,2085.2852 287.2434,2080.875 286.2921,2076.2 285.3897,2070.7351 284.6652,2065.9963 283.8285,2060.4663 282.9064,2054.7249 281.8951,2048.7786 280.7391,2042.0449 279.773,2036.3225 278.6898,2029.7423 277.5898,2022.9363 276.3527,2015.1991 275.2942,2008.6837 274.0503,2001.2599 272.5912,1992.8817 271.3266,1985.8972 269.6961,1977.2257 268.2979,1969.9805 266.6922,1961.7733 264.8857,1952.5553 263.3853,1944.8672 261.7003,1936.174 260.0005,1927.326 258.2835,1918.3292 256.3678,1908.2686 254.7792,1899.9152 252.9921,1890.5334 251.1798,1881.0637 249.3469,1871.4661 247.497,1861.7415 245.6329,1851.8915 243.7561,1841.9189 241.6659,1830.8123 239.9319,1821.6212 237.9932,1811.3 236.0339,1800.8674 234.0286,1790.3308 231.9748,1779.6932 229.8833,1768.9556 227.7483,1758.1217 225.5825,1747.1919 223.3935,1736.1678 220.9587,1723.9363 218.9415,1713.8511 216.6647,1702.5682 214.1208,1690.0658 212.0086,1679.7678 209.6357,1668.2726 207.2428,1656.734 204.8217,1645.1191 202.3415,1633.4379 199.7573,1621.6984 196.7575,1608.7289 193.8891,1596.8896 191.2055,1586.1937 188.0849,1574.2734 184.7814,1562.3281 180.8796,1549.1808 177.4664,1538.4285 173.4133,1526.4988 169.112,1514.5861 164.5704,1502.6936 159.8298,1490.8107 154.9351,1478.9213 149.9234,1467.0133 144.8246,1455.0759 139.6443,1443.1082 134.3948,1431.1067 129.0774,1419.0728 123.1504,1405.7985 118.2461,1394.9092 112.7587,1382.7737 107.2524,1370.5891 101.7348,1358.355 96.2192,1346.0677 90.1517,1332.4916 85.1736,1321.3436 79.0819,1307.7164 74.0799,1296.5381 68.4936,1284.0874 62.8685,1271.6099 56.6337,1257.8572 51.4977,1246.5841 45.1827,1232.7795 39.9598,1221.4777 34.0893,1208.9163 28.1428,1196.3536 21.495,1182.5438 15.9796,1171.2484 9.765,1158.7061 3.4363,1146.1819 -3.7052,1132.4552 -9.7151,1121.2794 -16.5922,1108.9374 -23.6834,1096.683 -31.0098,1084.5359 -39.3441,1071.3057 -46.3514,1060.5723 -54.2209,1048.6698 -62.0393,1036.7837 -69.5973,1025.1664 -77.5141,1012.8735 -83.6639,1003.1714 -90.1397,992.697 -96.243,982.5038 -102.0225,972.567 -107.4334,962.8376 -112.4742,953.3251 -117.1167,944.0399 -121.3068,934.9526 -125.0622,926.0544 -128.3849,917.3364 -131.2686,908.7989 -133.7241,900.4371 -135.6954,892.1827 -137.2078,883.9399 -138.2444,875.7004 -138.8313,866.6292 -138.9086,859.152 -138.5858,850.7917 -137.7311,841.5579 -136.6276,833.9984 -134.9713,825.6193 -132.8389,817.2947 -130.235,809.0552 -127.1598,800.9567 -123.6383,793.1 -119.2161,784.8121 -115.1722,778.2628 -110.282,771.1473 -105.0025,764.1757 -99.3441,757.3527 -93.3428,750.6677 -86.4238,743.4199 -80.5784,737.5599 -73.9447,731.0896 -66.5451,723.9246 -60.4779,718.0119 -53.8877,711.4742 -47.551,705.0125 -41.4928,698.5704 -35.7055,692.0192 -30.2338,685.2892 -25.1244,678.3498 -20.3858,671.1456 -15.5688,662.9035 -11.9014,655.9113 -8.0842,647.8951 -4.5498,639.608 -1.3038,631.0565 1.6288,622.2522 4.1882,613.1974 6.3966,603.9172 8.3961,593.4673 9.6989,584.7449 10.8973,573.8992 11.512,564.8839 11.8367,554.736 11.8006,543.4294 11.521,534.0763 10.9699,523.5981 10.0578,512.2441 9.0428,503.227 7.5856,493.4789 5.7973,483.8993 3.6341,474.4715 0.68,464.3435 -2.2031,456.2149 -5.8593,447.2324 -9.9713,438.3076 -14.5227,429.5447 -19.5642,421.1096 -25.6345,412.1945 -31.0042,405.1618 -37.3026,397.5795 -43.8873,390.3348 -50.6812,383.5008 -57.4158,376.9532 -64.501,369.8518 -70.0491,364.0465 -75.9519,357.5658 -82.1685,350.3366 -87.5596,343.6293 -92.1386,337.4459 -96.8446,330.3811 -101.4735,322.3586 -104.8034,315.6153 -108.0075,307.9638 -110.9613,299.3684 -112.9605,292.133 -114.7786,283.8421 -116.2909,274.4517 -117.1388,266.6153 -117.6379,257.8297 -117.5872,249.0763 -116.9452,240.424 -115.6963,231.8964 -113.8826,223.4707 -111.5706,215.1007 -108.4744,205.9486 -105.4884,198.5405 -101.327,189.6124 -97.5097,182.4355 -92.83,174.6723 -87.6696,167.1567 -81.484,159.1767 -76.0401,152.8953 -69.6086,146.2092 -62.8992,139.9146 -56.1455,134.0384 -49.5846,128.4463 -42.6927,122.4738 -37.326,117.5924 -31.6642,112.015 -26.3523,106.2 -20.9656,99.5227 -16.5464,93.1947 -12.6007,86.6051 -9.3585,80.4236 -6.0491,73.2632 -3.0584,65.8042 -0.4184,58.0709 2.0422,49.2976 3.8735,41.0984 5.177,33.5316 6.3108,24.0587 6.8565,16.1409 7.0529,7.186 6.8361,-2.8341 6.4112,-11.1531 5.6739,-21.4599 4.94,-29.9932 4.0404,-39.5411 2.9758,-50.1855 2.0504,-59.0036 0.9728,-68.9148 -0.1921,-78.9376 -1.4903,-89.0628 -2.9018,-99.2909 -4.3544,-109.6293 -5.8515,-121.1432 -6.8791,-130.6825 -7.815,-142.4852 -8.3382,-153.3422 -8.5385,-163.2064 -8.4677,-175.3606 -8.0516,-186.496 -7.3948,-196.5797 -6.4542,-207.8545 -5.3541,-219.1714 -4.2103,-230.5495 -3.1802,-242.0213 -2.3629,-253.5902 -1.773,-265.2523 -1.4447,-277.0013 -1.4258,-288.828 -1.7741,-300.7228 -2.4577,-312.6763 -3.5859,-325.8817 -4.8121,-336.7189 -6.4928,-348.7856 -8.5058,-360.8681 -11.1062,-374.1655 -13.494,-385.0525 -16.3371,-397.1714 -19.2812,-409.3341 -22.2554,-421.5557 -25.233,-433.8418 -28.2324,-446.1866 -31.2643,-458.5857 -34.3135,-471.042 -37.3504,-483.5613 -40.3423,-496.1499 -43.3087,-508.8013 -46.5633,-522.7847 -49.2099,-534.2785 -52.4003,-548.3933 -54.9967,-559.9914 -57.916,-572.9179 -60.8823,-585.804 -63.8349,-598.3773 -66.7192,-610.4789 -69.4948,-622.0495 -72.1521,-633.1013 -74.6964,-643.6111 -77.3628,-654.4805 -79.4411,-662.853 -81.8643,-672.4415 -83.7737,-679.7451 -85.8436,-687.308 -87.8926,-694.3317 -90.1973,-701.4481 -92.1993,-706.8223 -94.5858,-712.4486 -97.1913,-717.8611 -100.0855,-723.0577 -103.6263,-728.4781 -107.115,-733.1529 -110.4767,-737.1938 -114.4895,-741.5267 -118.7223,-745.7949 -122.9319,-750.0754 -127.0118,-754.4141 -131.2278,-759.3511 -134.4063,-763.5464 -137.6853,-768.3713 -140.6566,-773.437 -143.2953,-778.7256 -145.4866,-784.2744 -147.3075,-790.0626 -148.8848,-796.6764 -149.8518,-802.255 -150.6494,-808.5826 -151.257,-814.8417 -151.7699,-820.7661 -152.2935,-826.2443 -152.9526,-831.7663 -153.6544,-836.3935 -154.3848,-840.3083 -155.3483,-844.4742 -156.5306,-848.5058 -157.9999,-852.3809 -159.7937,-856.0538 -162.152,-859.8039 -164.3603,-862.6154 -167.0656,-865.4761 -170.3321,-868.4044 -173.1966,-870.6986 -176.4406,-873.3052 -179.5913,-876.0908 -182.4973,-879.1516 -185.3623,-882.8777 -187.4973,-886.1615 -189.6201,-890.0532 -191.3322,-894.2552 -192.7247,-898.7336 -193.8781,-903.48 -194.7446,-908.504 -195.3484,-913.8145 -195.7478,-919.4297 -195.9264,-925.3297 -195.887,-932.1199 -195.6789,-938.502 -195.3734,-944.3904 -194.9249,-951.1419 -194.4027,-958.1093 -193.8163,-965.2856 -193.1775,-972.665 -192.4505,-981.0121 -191.8376,-988.0105 -191.1531,-995.9575 -190.4326,-1004.8391 -189.8688,-1012.2524 -189.2625,-1020.6522 -188.6699,-1029.2184 -188.0622,-1037.9447 -187.4312,-1046.8254 -186.7272,-1056.7695"/>
	<!-- Raw distance reference points -->
	<polyline id="dist" fill="none" stroke="none" stroke-width="0" points="13554.5586,6.8576 12.0591,6.9814 21.4183,7.0728 30.8846,7.1552 40.468,7.2458 50.2017,7.3464 60.054,7.431 70.0149,7.5184 80.107,7.5985 90.3261,7.7062 100.6613,7.7942 111.1079,7.8801 121.6577,7.9934 132.3098,8.1182 143.0717,8.255 153.9377,8.4194 164.9109,8.5701 175.9883,8.733 187.1546,8.9108 198.4031,9.1203 209.7377,9.2915 221.1008,9.4675 232.5205,9.6531 244.0342,9.8319 255.6364,10.0447 267.3205,10.2158 279.0806,10.4525 290.905,10.6522 302.7885,10.8777 314.7583,11.1001 326.7861,11.2823 338.8321,11.4865 350.9515,11.7038 363.0988,11.9303 375.3524,12.1703 387.6328,12.4241 400.0341,12.71 412.5305,13.0347 425.0736,13.3988 437.6605,13.7495 450.3075,14.1226 462.9744,14.5775 475.6809,14.9521 488.3875,15.3973 501.1797,15.8652 513.9885,16.3395 526.8517,16.8526 539.574,17.3585 552.1537,17.8519 564.5969,18.3604 576.822,18.8951 588.7322,19.3397 600.4578,19.8244 611.9885,20.3164 623.4544,20.7857 634.8857,21.2654 646.3253,21.7361 657.8124,22.2007 669.108,22.6965 680.2861,23.0936 691.2658,23.5042 702.1111,23.9442 712.707,24.3125 722.9636,24.6898 732.7828,25.0542 742.0831,25.4128 750.8262,25.7649 759.0009,26.0968 766.5587,26.4349 773.5557,26.7076 780.0525,26.9862 786.1965,27.2591 792.0366,27.5367 797.5818,27.7898 802.8884,28.0314 807.9761,28.2766 812.8722,28.547 817.6094,28.7735 822.1792,29.0187 826.7608,29.2502 831.5715,29.5262 837.933,29.7745 843.6008,30.0401 848.7105,30.3006 853.3924,30.5505 857.947,30.807 862.4441,31.0606 867.0327,31.3184 871.7903,31.5959 876.4937,31.8781 881.1684,32.1485 885.8667,32.4061 890.5934,32.6572 895.4393,32.9038 900.4153,33.1458 905.4576,33.4147 910.7068,33.6588 915.946,33.9493 920.9651,34.1691 925.8529,34.4033 930.8127,34.6555 935.9837,34.8569 941.4088,35.0687 947.1413,35.2975 953.1908,35.4874 959.4688,35.6666 965.8907,35.8338 972.5228,35.993 979.374,36.1229 986.4372,36.2437 993.6965,36.3419 1001.1761,36.3997 1008.8552,36.4428 1016.7117,36.4857 1024.7393,36.4938 1032.8707,36.4675 1041.1749,36.4235 1049.6598,36.3668 1058.3445,36.2448 1067.2847,36.1196 1076.3344,35.9749 1085.6471,35.773 1095.16,35.5623 1104.8191,35.3162 1114.5765,35.0379 1124.3594,34.7134 1134.2329,34.4397 1144.205,34.0831 1154.1742,33.6415 1164.1724,33.1992 1174.3561,32.7415 1184.7825,32.0925 1195.454,31.5112 1206.1945,30.8549 1216.8979,30.2006 1227.7759,29.5359 1238.3322,28.8155 1248.7361,28.147 1259.0883,27.5411 1269.3563,26.8881 1279.6382,26.3061 1289.9532,25.8297 1300.3937,25.3927 1310.9753,25.0337 1321.6437,24.6034 1332.3866,24.2906 1342.7958,23.9829 1352.7668,23.7492 1362.2583,23.5409 1371.2659,23.4114 1379.7856,23.3233 1387.8518,23.2461 1395.5515,23.1974 1402.9552,23.1466 1410.1147,23.1036 1417.1073,23.0627 1424.0803,23.0075 1431.0488,22.9164 1438.2891,22.8353 1445.3447,22.7389 1452.6017,22.6369 1459.7767,22.5449 1467.2892,22.4692 1474.4983,22.4275 1481.8009,22.4034 1489.4886,22.3478 1496.8967,22.3589 1504.514,22.4073 1512.1194,22.5265 1519.7427,22.7961 1527.7112,23.1199 1535.5985,23.4554 1543.5768,23.7863 1551.5911,24.1145 1559.8459,24.4191 1568.4753,24.6585 1577.551,24.9311 1586.519,25.2528 1595.9535,25.6582 1604.9862,25.979 1613.8833,26.3728 1622.7827,26.6924 1631.5806,26.9772 1640.3474,27.1075 1649.166,27.0895 1658.0977,27.0089 1667.228,26.8231 1676.4978,26.5596 1685.8584,26.261 1695.2942,25.8596 1704.8676,25.4722 1714.5901,25.1686 1724.4542,24.9802 1734.4642,24.8114 1744.6112,24.6811 1754.8739,24.6155 1765.2477,24.5028 1775.754,24.3849 1786.4008,24.2627 1797.1649,24.1281 1808.0377,23.9412 1818.8743,23.8322 1829.3673,23.7241 1839.4038,23.6177 1848.9668,23.5171 1858.0693,23.4037 1866.766,23.295 1875.1245,23.1784 1883.2239,23.0672 1891.0651,22.9391 1898.8627,22.7816 1906.6814,22.6699 1915.2898,22.5631 1923.972,22.4813 1932.1486,22.4193 1940.4152,22.3658 1948.6842,22.3577 1957.0917,22.2869 1965.6903,22.1986 1974.5051,22.0801 1983.4811,21.8959 1992.6019,21.7302 2001.8939,21.5124 2011.2858,21.27 2020.7192,20.9841 2030.2645,20.6486 2039.9501,20.3265 2049.77,20.0434 2059.7122,19.6801 2069.801,19.3136 2080.0239,18.9401 2090.377,18.5803 2100.8638,18.22 2111.4922,17.7796 2122.2561,17.3956 2133.1553,16.9771 2144.1812,16.5879 2155.325,16.1596 2166.5791,15.7348 2177.947,15.3107 2189.4126,14.8721 2200.9771,14.4345 2212.6353,13.9998 2224.3728,13.5625 2236.1624,13.1072 2247.9592,12.6406 2259.845,12.1763 2271.8308,11.6967 2283.937,11.2322 2296.1409,10.7301 2308.4351,10.3365 2320.7976,9.9242 2333.2378,9.5555 2345.7585,9.2086 2358.3362,8.9074 2370.9905,8.7246 2383.7419,8.5998 2396.5588,8.5142 2409.4329,8.4738 2422.3528,8.4244 2435.3232,8.3498 2448.3513,8.2805 2461.4409,8.2246 2474.5818,8.1912 2487.7793,8.1622 2501.0317,8.1287 2514.344,8.1023 2527.7104,8.0755 2541.1204,8.0897 2554.5928,8.1326 2568.1274,8.157 2581.6965,8.2023 2595.3445,8.2648 2609.0508,8.3224 2622.761,8.387 2636.4568,8.4617 2650.2041,8.5339 2663.9602,8.6166 2677.717,8.7127 2691.4846,8.8282 2705.2842,8.9127 2719.1228,9.0059 2732.9961,9.0822 2746.9001,9.1551 2760.8367,9.2438 2774.804,9.3458 2788.8015,9.4608 2802.8318,9.5796 2816.8914,9.6805 2830.9797,9.797 2845.0952,9.9118 2859.2351,10.0154 2873.4016,10.0941 2887.5981,10.1376 2901.8228,10.1674 2916.0679,10.1782 2930.3413,10.1642 2944.6455,10.1354 2958.9758,10.0942 2973.3406,10.057 2987.7371,10.0241 3002.1616,9.9946 3016.6208,9.9577 3031.0986,9.898 3045.5908,9.8232 3060.1245,9.7378 3074.6963,9.6238 3089.2725,9.5329 3103.8535,9.4294 3118.4587,9.3398 3133.0847,9.2281 3147.7297,9.1286 3162.397,9.0115 3177.094,8.8915 3191.8196,8.7573 3206.5715,8.5977 3221.3442,8.4532 3236.1521,8.2863 3250.9792,8.1247 3265.8223,7.93 3280.6899,7.7427 3295.5835,7.5726 3310.5017,7.3944 3325.4358,7.2054 3340.3757,7.0191 3355.3247,6.8328 3370.2959,6.6484 3385.2854,6.4699 3400.2866,6.2941 3415.3059,6.1414 3430.3481,5.991 3445.4099,5.8689 3460.4912,5.7736 3475.5869,5.6752 3490.6934,5.5981 3505.8135,5.5269 3520.9497,5.4833 3536.0974,5.4128 3551.2537,5.3589 3566.4143,5.3023 3581.5867,5.2559 3596.772,5.1874 3611.9661,5.1181 3627.1721,5.0475 3642.3887,4.9628 3657.6199,4.8653 3672.865,4.7872 3688.1196,4.7027 3703.3867,4.5997 3718.665,4.489 3733.946,4.3785 3749.2397,4.2615 3764.5481,4.1371 3779.8652,4.0283 3795.1885,3.9002 3810.5171,3.7964 3825.8562,3.6882 3841.2078,3.5716 3856.5688,3.5044 3871.937,3.446 3887.302,3.4164 3902.6782,3.3957 3918.0571,3.3758 3933.4429,3.3412 3948.843,3.2867 3964.2554,3.22 3979.6724,3.1641 3995.0925,3.1183 4010.4895,3.1071 4025.9456,3.0975 4041.3655,3.1312 4056.8088,3.1616 4072.2603,3.1956 4087.6858,3.2701 4103.1284,3.3665 4118.5806,3.4715 4134.0278,3.5203 4149.4688,3.5412 4164.9224,3.5649 4180.3774,3.5735 4195.835,3.5407 4211.2993,3.5024 4226.7661,3.434 4242.2412,3.385 4257.709,3.3294 4273.1938,3.2719 4288.6846,3.2121 4304.1782,3.153 4319.6753,3.1041 4335.1772,3.0839 4350.6821,3.0791 4366.1899,3.0891 4381.6968,3.1349 4397.2261,3.1957 4412.7397,3.2879 4428.248,3.378 4443.7529,3.494 4459.272,3.5758 4474.7837,3.676 4490.2812,3.7779 4505.7988,3.883 4521.3262,3.966 4536.8462,4.0547 4552.3423,4.1307 4567.8564,4.1941 4583.3677,4.2391 4598.8921,4.2886 4614.4189,4.3256 4629.9502,4.3562 4645.4883,4.3948 4661.0176,4.4209 4676.543,4.456 4692.0713,4.4882 4707.5996,4.5249 4723.1167,4.5681 4738.645,4.586 4754.1812,4.6207 4769.707,4.6569 4785.2402,4.7007 4800.7793,4.7888 4816.3193,4.8965 4831.8701,5.0081 4847.418,5.1263 4862.9575,5.2414 4878.498,5.3455 4894.0254,5.4694 4909.5479,5.5723 4925.0806,5.6882 4940.6152,5.8 4956.1553,5.9006 4971.6997,6.0229 4987.2393,6.1532 5002.7817,6.2698 5018.3267,6.4222 5033.8726,6.5781 5049.4072,6.7463 5064.9297,6.9238 5080.4531,7.0822 5095.9756,7.2429 5111.4985,7.3712 5127.0215,7.4725 5142.5483,7.5416 5158.0767,7.596 5173.6006,7.615 5189.1235,7.6045 5204.6523,7.57 5220.1836,7.509 5235.7178,7.4405 5251.2607,7.3684 5266.8198,7.2899 5282.3838,7.2287 5297.9448,7.1619 5313.5049,7.0612 5329.0669,6.9369 5344.6279,6.7814 5360.1948,6.5966 5375.771,6.4493 5391.3584,6.3079 5406.9585,6.2047 5422.5591,6.1107 5438.1572,6.0678 5453.7495,6.0368 5469.3364,6.036 5484.9258,6.0641 5500.5293,6.1065 5516.1377,6.1476 5531.7529,6.1955 5547.3525,6.2326 5562.9492,6.2694 5578.5571,6.3103 5594.1606,6.3621 5609.7637,6.4416 5625.3628,6.5353 5640.96,6.6403 5656.5703,6.738 5672.189,6.8079 5687.8003,6.8522 5703.4019,6.8718 5719.0005,6.8614 5734.5903,6.8384 5750.1826,6.7874 5765.793,6.7625 5781.3838,6.7684 5796.9878,6.785 5812.6187,6.8558 5828.249,6.9475 5843.8896,7.023 5859.4937,7.1074 5875.0747,7.2012 5890.6597,7.288 5906.252,7.3937 5921.8564,7.5281 5937.4595,7.6843 5953.0962,7.8807 5968.6943,8.0883 5984.2925,8.3302 5999.8936,8.5691 6015.4727,8.8239 6031.0254,9.1334 6046.5674,9.4269 6062.1143,9.7285 6077.6543,9.9427 6093.2012,10.1849 6108.751,10.4846 6124.293,10.7749 6139.8301,11.0448 6155.3608,11.2389 6170.8877,11.3961 6186.4043,11.5613 6201.917,11.7053 6217.4468,11.7933 6232.9668,11.8765 6248.4751,11.9358 6263.9829,11.98 6279.4971,11.9881 6295.0117,11.9682 6310.5288,11.9209 6326.0479,11.8406 6341.5693,11.7128 6357.0879,11.5654 6372.6367,11.406 6388.2236,11.2786 6403.8364,11.1719 6419.4785,11.1129 6435.0576,11.0874 6450.6089,11.0983 6466.1411,11.119 6481.6611,11.1396 6497.1865,11.1463 6512.7168,11.1332 6528.251,11.1187 6543.7847,11.115 6559.3198,11.1336 6574.875,11.1712 6590.437,11.2265 6606.0137,11.2983 6621.5845,11.3572 6637.1499,11.4238 6652.7153,11.4861 6668.2715,11.5602 6683.8301,11.6274 6699.3862,11.6854 6714.9507,11.7384 6730.5161,11.7993 6746.0894,11.8694 6761.6689,11.9715 6777.2485,12.0911 6792.8203,12.2547 6808.3804,12.4304 6823.937,12.6283 6839.499,12.8602 6855.0552,13.1133 6870.6045,13.3067 6886.1519,13.5536 6901.6924,13.7813 6917.2339,14.0242 6932.7759,14.2455 6948.312,14.4998 6963.8472,14.7885 6979.3735,15.1347 6994.8901,15.5262 7010.397,15.8537 7025.8999,16.2209 7041.3945,16.5476 7056.8877,16.8336 7072.3843,17.1063 7087.8711,17.3996 7103.3491,17.6172 7118.8252,17.8101 7134.3008,17.9662 7149.7832,18.0619 7165.2676,18.1601 7180.7539,18.2147 7196.2378,18.2547 7211.7178,18.2577 7227.2085,18.2494 7242.7056,18.2178 7258.2056,18.1104 7273.7139,17.9765 7289.2285,17.8434 7304.7505,17.6645 7320.2754,17.482 7335.8027,17.3885 7351.3408,17.3353 7366.8867,17.2898 7382.4336,17.2487 7397.9805,17.2647 7413.5151,17.3568 7428.9409,17.4831 7444.0063,17.6765 7458.5972,17.8469 7472.686,18.0732 7486.2915,18.3143 7499.4683,18.4445 7512.2036,18.6042 7524.542,18.7564 7536.3364,18.8733 7547.603,19.0221 7558.2354,19.2054 7568.2227,19.3413 7577.5835,19.4971 7586.3164,19.6131 7594.4189,19.7122 7601.8911,19.8157 7608.752,19.896 7615.0527,19.9706 7620.9219,20.0173 7626.4551,20.0711 7631.687,20.1251 7636.6533,20.1718 7641.3916,20.196 7645.9111,20.212 7650.1948,20.2251 7654.2314,20.2287 7658.0557,20.2183 7661.8042,20.1958 7665.8901,20.1692 7670.5293,20.1247 7675.3315,20.0618 7679.9067,19.9999 7683.4473,19.9434 7687.626,19.8895 7691.6089,19.8423 7695.5669,19.7792 7699.6855,19.6953 7704.0801,19.5947 7708.8086,19.4908 7713.8105,19.3878 7719.1309,19.3067 7724.7788,19.22 7730.7231,19.1573 7736.9019,19.0982 7743.2778,19.0131 7749.9336,18.9518 7756.7832,18.8884 7763.8521,18.7953 7771.1406,18.6766 7778.6226,18.5852 7786.3145,18.5126 7794.1709,18.4433 7802.1479,18.3698 7810.3018,18.3023 7818.6475,18.2357 7827.1758,18.1754 7835.8667,18.1196 7844.7124,18.0803 7853.7095,18.0442 7862.8467,18.0158 7872.1479,18.009 7881.5752,18.0069 7891.0859,17.9903 7900.7231,17.9836 7910.4878,17.9665 7920.3823,17.9564 7930.4038,17.9452 7940.5488,17.9385 7950.8188,17.9466 7961.2129,17.9596 7971.7275,17.9722 7982.3569,17.9749 7993.0952,17.9814 8003.938,18.0161 8014.873,18.0505 8025.9033,18.0639 8037.0366,18.1025 8048.2695,18.1329 8059.5977,18.1863 8071.0156,18.2556 8082.5181,18.3054 8094.0786,18.3698 8105.7051,18.45 8117.4111,18.5122 8129.208,18.5957 8141.0762,18.683 8153.0161,18.781 8165.0254,18.8758 8177.1089,18.9412 8189.2661,18.9879 8201.5049,19.0642 8213.8145,19.1489 8226.1904,19.2197 8238.6338,19.28 8251.1416,19.3427 8263.7178,19.3929 8276.3613,19.4758 8289.0596,19.5307 8301.8154,19.5748 8314.6279,19.5951 8327.501,19.6023 8340.4346,19.5906 8353.4287,19.5536 8366.4863,19.4569 8379.6152,19.3482 8392.7969,19.2146 8406.0596,19.0595 8419.3984,18.8708 8432.7764,18.7002 8446.2256,18.4378 8459.6953,18.187 8473.1523,17.9851 8486.6592,17.7782 8500.1982,17.6003 8513.7568,17.373 8527.3535,17.1037 8541.0029,16.8491 8554.7002,16.5863 8568.4395,16.3471 8582.2285,16.1086 8596.0557,15.9114 8609.9209,15.7707 8623.832,15.5983 8637.7803,15.4507 8651.7715,15.2974 8665.7949,15.1945 8679.8516,15.1176 8693.9424,15.0521 8708.0664,14.9494 8722.2275,14.8595 8736.415,14.7798 8750.627,14.7385 8764.8691,14.6979 8779.1436,14.7047 8793.4453,14.7415 8807.7773,14.764 8822.1406,14.7908 8836.5234,14.8857 8850.917,14.9905 8865.3271,15.1189 8879.7627,15.2438 8894.2344,15.3464 8908.7461,15.42 8923.29,15.4896 8937.8477,15.4904 8952.4658,15.4508 8967.085,15.4448 8981.7119,15.442 8996.3848,15.402 9011.0996,15.3398 9025.8086,15.3186 9040.4971,15.1943 9055.1855,15.0673 9069.8848,14.9285 9084.6123,14.7025 9099.3818,14.4626 9114.1699,14.1864 9128.9795,13.8664 9143.8066,13.5286 9158.6572,13.2414 9173.541,13.0029 9188.4453,12.821 9203.3662,12.6074 9218.3203,12.3569 9233.29,12.1973 9248.2646,12.0667 9263.2617,11.9254 9278.2861,11.785 9293.3252,11.6759 9308.3652,11.5701 9323.417,11.4481 9338.4844,11.3361 9353.5625,11.2529 9368.6553,11.1154 9383.7695,10.9267 9398.8955,10.6943 9414.0352,10.4447 9429.1797,10.1877 9444.0762,9.9707 9458.4414,9.7158 9472.1816,9.4873 9485.3057,9.287 9497.8662,9.12 9509.8906,8.9472 9521.4434,8.7627 9532.6299,8.5392 9543.5264,8.3285 9554.2695,8.0414 9564.9961,7.6814 9575.7441,7.314 9586.5518,7.0538 9597.4707,6.9142 9608.4805,6.8283 9619.6084,6.8009 9630.6768,6.7813 9641.6611,6.7175 9652.2617,6.6501 9662.3467,6.5619 9671.8408,6.5 9680.752,6.4595 9689.0967,6.4445 9696.9141,6.4367 9704.2393,6.4398 9711.1719,6.4317 9717.8262,6.4278 9724.2158,6.429 9730.3604,6.4137 9736.2676,6.367 9741.957,6.281 9747.499,6.1565 9753.0352,6.0476 9758.6865,5.927 9764.832,5.8266 9770.6133,5.761 9776.375,5.7296 9782.0547,5.7143 9787.6787,5.7131 9793.3516,5.744 9799.3213,5.8003 9805.1006,5.9018 9811.0176,5.9923 9817.1348,6.0732 9823.4814,6.1136 9830.0234,6.1154 9836.8486,6.0679 9843.916,5.9926 9851.1982,5.9028 9858.6562,5.8041 9866.2754,5.6849 9874.0801,5.5728 9882.0771,5.4782 9890.2568,5.3787 9898.6152,5.2946 9907.1484,5.2391 9915.8438,5.1828 9924.6348,5.136 9933.5635,5.0765 9942.6338,5.0178 9951.8467,4.9716 9961.2041,4.9112 9970.6982,4.8346 9980.2305,4.7481 9989.5078,4.6921 9998.3662,4.6431 10006.7559,4.5983 10014.6475,4.5489 10022.0371,4.5235 10028.999,4.5034 10035.6133,4.4976 10041.9111,4.4797 10047.8877,4.4686 10053.5361,4.473 10058.8457,4.4522 10063.8086,4.4286 10068.4619,4.415 10072.8594,4.3951 10077.0342,4.3562 10081.0537,4.3213 10085.1006,4.2836 10088.6592,4.2679 10092.8154,4.2713 10097.0498,4.2886 10101.0889,4.32 10104.7295,4.361 10107.9863,4.4014 10111.3262,4.4365 10114.665,4.4645 10118.3359,4.4647 10121.9941,4.4511 10125.9121,4.433 10130.1309,4.4053 10134.6436,4.3717 10139.4482,4.3328 10144.5332,4.2901 10149.9238,4.2584 10155.624,4.2558 10161.5645,4.2604 10167.6777,4.3077 10173.9033,4.3419 10180.3398,4.3711 10186.9883,4.4041 10193.8574,4.4379 10200.9229,4.4785 10208.2285,4.4993 10215.7451,4.526 10223.4668,4.5569 10231.3428,4.5829 10239.3398,4.6203 10247.5303,4.6443 10255.9072,4.6774 10264.4453,4.7124 10273.1387,4.7244 10281.9922,4.7479 10291.0039,4.7852 10300.1611,4.8283 10309.4639,4.86 10318.8994,4.8953 10328.4375,4.9384 10338.0732,4.9635 10347.8418,4.9782 10357.7441,4.9888 10367.7764,4.9924 10377.9316,4.9855 10388.209,4.9766 10398.6025,4.9604 10409.084,4.9439 10419.6797,4.9293 10430.3965,4.9059 10441.2305,4.9061 10452.1729,4.897 10463.2188,4.9024 10474.3643,4.8991 10485.6016,4.9113 10496.9307,4.9339 10508.3525,4.9516 10519.8604,5.0093 10531.46,5.0407 10543.1523,5.0594 10554.9092,5.1131 10566.6943,5.2037 10578.5645,5.2129 10590.5342,5.1795 10602.5732,5.148 10614.6953,5.0946 10626.8955,5.0444 10639.1895,4.9466 10651.54,4.8395 10664.0361,4.7048 10676.6035,4.567 10689.3145,4.4155 10702.0098,4.2919 10714.8252,4.1779 10727.6348,4.0969 10740.4951,3.9975 10753.3623,3.9024 10766.2832,3.8001 10779.2725,3.694 10792.3135,3.5898 10805.4111,3.4412 10818.5625,3.3018 10831.7695,3.1578 10845.0332,3.0277 10858.3506,2.8764 10871.7207,2.7531 10885.1426,2.5967 10898.6084,2.4456 10912.1191,2.2702 10925.6846,2.1396 10939.2715,1.9725 10952.8926,1.8848 10966.5615,1.802 10980.2539,1.749 10993.9746,1.7131 11007.7305,1.7064 11021.5234,1.7285 11035.3506,1.7281 11049.21,1.8175 11063.1084,1.8959 11077.0488,1.9531 11091.0205,1.9175 11105.0605,1.8311 11119.1475,1.7436 11133.2402,1.6485 11147.3691,1.572 11161.5293,1.5222 11175.7148,1.4946 11189.9707,1.4822 11204.29,1.475 11218.6084,1.4995 11232.9922,1.565 11247.2861,1.634 11261.1367,1.7081 11274.3906,1.8747 11287.1338,2.0385 11299.375,2.1616 11311.2256,2.3211 11322.7051,2.4888 11333.8145,2.6706 11344.5293,2.8915 11354.877,3.0826 11364.8545,3.2771 11374.4746,3.4718 11383.7812,3.6641 11392.79,3.8621 11401.5312,4.0254 11410.0684,4.1845 11418.4834,4.3106 11426.8799,4.42 11435.2451,4.5244 11443.5986,4.5971 11452.1201,4.6954 11460.7744,4.8273 11469.5029,4.9504 11478.1572,5.0859 11486.998,5.2427 11495.8857,5.4018 11504.7354,5.5665 11513.4434,5.6999 11522.2002,5.8403 11530.9639,5.9495 11539.8203,6.057 11548.6748,6.1626 11557.7285,6.2702 11566.8291,6.3735 11576.0049,6.4717 11585.2324,6.5462 11594.5049,6.6302 11603.8652,6.7165 11613.2637,6.78 11622.5225,6.8554 11631.5508,6.9062 11640.3809,6.9621 11649.0996,7.0226 11657.7334,7.0887 11666.2998,7.1361 11674.915,7.1597 11683.584,7.146 11692.4971,7.1253 11701.6611,7.0971 11711.0625,7.0647 11720.5967,7.0496 11730.1865,7.0352 11739.834,7.0397 11749.5771,7.0212 11759.3975,6.9898 11769.209,6.9849 11779.1426,6.9467 11789.082,6.9163 11799.1748,6.8511 11809.46,6.7614 11819.8828,6.6745 11830.3965,6.5639 11840.7607,6.4283 11850.8135,6.2817 11860.6074,6.135 11870.2871,6.0208 11879.9385,5.8491 11889.6113,5.6574 11899.3848,5.4948 11909.3613,5.284 11919.4844,5.0864 11929.707,4.883 11939.8467,4.7314 11949.833,4.5203 11959.7314,4.3597 11969.5859,4.1698 11979.3379,3.9586 11988.9453,3.74 11998.3135,3.4876 12007.4443,3.2013 12016.416,2.9783 12025.3018,2.7494 12034.2461,2.5093 12043.0498,2.2971 12052.0059,2.0939 12060.8125,1.8298 12069.3926,1.5376 12077.8252,1.3234 12086.3184,1.1139 12094.8076,0.8623 12103.2588,0.6445 12111.9688,0.4184 12120.79,0.2041 12129.6279,0.0324 12138.4746,-0.1683 12147.373,-0.3467 12156.2227,-0.5011 12165.0576,-0.6216 12173.8086,-0.736 12182.7383,-0.8587 12191.708,-0.9751 12200.7676,-1.0259 12209.9463,-1.0829 12219.1953,-1.1369 12228.3711,-1.1757 12237.6992,-1.1761 12247.0684,-1.1639 12256.5059,-1.1413 12265.9326,-1.0902 12275.1797,-1.035 12284.1377,-0.9785 12292.7588,-0.918 12301.0488,-0.8485 12309.1055,-0.793 12317.04,-0.7277 12324.9297,-0.6574 12332.751,-0.5982 12340.6631,-0.5437 12348.458,-0.4665 12356.5615,-0.4162 12364.9336,-0.3617 12373.2373,-0.2988 12381.875,-0.2426 12390.4111,-0.1962 12398.918,-0.1778 12407.6875,-0.1645 12416.4434,-0.14 12425.208,-0.1212 12434.0781,-0.0984 12443.1064,-0.0709 12452.3057,-0.0352 12461.6914,0.0147 12471.2412,0.0568 12480.8555,0.0934 12490.5947,0.1525 12500.4277,0.2239 12510.3896,0.3014 12520.5234,0.3729 12530.752,0.4386 12541.043,0.5021 12551.4619,0.5732 12561.9902,0.6581 12572.6377,0.717 12583.4365,0.7708 12594.377,0.8109 12605.5459,0.8771 12616.877,0.9706 12628.5088,1.0254 12639.8604,1.1003 12651.1484,1.2046 12662.4902,1.2928 12673.8672,1.4124 12685.3154,1.5153 12696.9258,1.6187 12708.7959,1.7281 12720.7334,1.8128 12732.8701,1.8436 12745.168,1.8889 12757.2129,1.9198 12769.2285,1.947 12781.2256,1.9773 12793.3262,2.0364 12805.5605,2.0836 12817.9014,2.146 12830.2988,2.2109 12842.7705,2.2861 12855.2783,2.3607 12867.8604,2.4477 12880.5176,2.5187 12893.2041,2.6021 12905.9688,2.6824 12918.7949,2.7531 12931.6787,2.8227 12944.623,2.919 12957.624,2.9795 12970.6631,3.0642 12983.7441,3.1462 12996.8945,3.2117 13010.1055,3.2819 13023.3604,3.3528 13036.5771,3.4299 13049.4785,3.5068 13061.915,3.582 13073.8193,3.6556 13085.1982,3.7465 13096.0195,3.8142 13106.2266,3.8867 13115.8457,3.9442 13124.8594,4.0144 13133.2559,4.066 13141.0879,4.1167 13148.4033,4.1722 13155.2148,4.231 13161.5576,4.2837 13167.5713,4.3565 13173.5469,4.4296 13179.6104,4.4896 13185.8301,4.5469 13192.2012,4.5979 13199.2373,4.6274 13205.4023,4.646 13211.3271,4.6612 13217.0312,4.6579 13222.8193,4.638 13229.2607,4.6218 13235.6035,4.6493 13242.0195,4.6849 13248.7959,4.7053 13255.0586,4.7026 13261.2461,4.7734 13267.4258,4.8379 13273.7227,4.8913 13280.0166,4.9146 13286.3994,4.9375 13292.6846,4.9591 13298.6123,4.9638 13304.1133,4.9677 13309.1855,4.9921 13313.8906,5.0414 13318.3223,5.0797 13322.5791,5.1194 13326.7305,5.1729 13330.7646,5.2401 13334.7002,5.2991 13338.7959,5.3528 13342.5322,5.3939 13347.4014,5.4332 13354.1787,5.4277 13358.4639,5.4392 13362.2998,5.4411 13366.1133,5.423 13370.2666,5.4003 13375.2812,5.4085 13380.7666,5.4682 13386.0117,5.5015 13390.6836,5.5724 13395.1768,5.6504 13399.8232,5.7064 13404.7754,5.7419 13410.0146,5.7641 13415.584,5.7793 13421.4814,5.7986 13427.6475,5.8289 13434.0479,5.871 13440.5938,5.9067 13447.3652,5.9465 13454.3721,5.9931 13461.582,6.045 13468.9951,6.1063 13476.5986,6.1707 13484.3623,6.235 13492.3135,6.2824 13500.3623,6.3458 13508.5527,6.3993 13516.9453,6.4746 13525.5176,6.5519 13534.2891,6.6244 13543.2217,6.7058 13552.2842,6.7957"/>
</svg>
