<?xml version="1.0" encoding="utf-8"?>
<!-- Track map generated with TinyPedal -->
<svg viewBox="-110.0000 -110.0000 1220.0000 716.9837" version="1.1" xmlns="http://www.w3.org/2000/svg">
	<title>Daytona International Speedway</title>
	<!-- Sector coordinates index -->
	<desc>140,280</desc>
	<!-- Raw global coordinates -->
	<polyline id="map" fill="none" stroke="black" stroke-width="10" points="787.5650,1.6008 781.4976,1.5634 777.3551,1.5519 772.6649,1.5502 767.4529,1.5576 761.7454,1.5735 755.5682,1.5971 748.9475,1.6278 741.9093,1.6649 734.4796,1.7076 726.6845,1.7553 718.5500,1.8073 710.1022,1.8628 701.3671,1.9214 692.3708,1.9821 683.1393,2.0443 673.6986,2.1074 664.0748,2.1707 654.2940,2.2334 644.3821,2.2949 634.3653,2.3544 624.2696,2.4113 614.1209,2.4650 603.9455,2.5146 593.7692,2.5596 583.6182,2.5992 573.5185,2.6327 563.4961,2.6595 553.5771,2.6788 543.7875,2.6900 534.1534,2.6924 524.7009,2.6852 515.4558,2.6679 506.4444,2.6396 497.6927,2.5998 489.2266,2.5477 481.0723,2.4826 473.2557,2.4038 465.8030,2.3107 458.7402,2.2026 449.3680,2.1564 439.7557,2.7152 431.8005,3.9101 425.2499,5.6724 417.5883,9.2112 411.0641,14.2627 405.7103,19.9268 399.5820,25.3109 393.5395,28.1493 386.0878,29.8265 375.6637,30.5341 363.5479,30.1627 354.4084,29.0421 347.7856,27.3464 342.3262,24.8446 336.0593,20.0658 329.3987,14.6611 323.9566,11.3083 316.8568,8.1624 307.5952,5.3686 298.8272,3.5737 292.9422,2.6765 286.4021,1.8924 279.1557,1.2309 271.1517,0.7014 262.3390,0.3134 252.6663,0.0764 242.0824,0.0000 230.5363,0.0936 222.0789,0.2290 213.6900,0.4069 205.2808,0.6802 196.8604,1.0999 188.4380,1.7174 180.0918,2.5634 171.8356,3.5014 163.5069,4.6117 155.1749,6.0325 146.9088,7.9021 138.7887,10.3533 130.9049,13.2256 123.0977,16.3898 115.3815,19.8182 107.7708,23.4827 100.2802,27.3556 92.9242,31.4088 85.7384,35.6016 78.6643,39.9776 71.6682,44.6667 64.8776,49.7211 58.4201,55.1931 52.4234,61.1350 46.9535,67.4496 41.7476,74.0407 36.7918,80.8834 32.0992,87.9365 27.6830,95.1588 23.5563,102.5092 19.7322,109.9465 16.2229,117.5446 13.1056,125.3745 10.3667,133.3719 7.9788,141.4847 5.9146,149.6610 4.1468,157.8487 2.6502,166.0222 1.4450,174.3125 0.5746,182.7045 0.0794,191.1489 0.0000,199.5964 0.3767,207.9979 1.2522,216.3397 2.6231,224.6565 4.4237,232.9163 6.5863,241.0917 9.0430,249.1553 11.7261,257.0797 14.5946,264.8713 17.7513,272.6359 21.2349,280.3218 25.0690,287.8590 29.2776,295.1774 33.8844,302.2070 38.7362,308.8965 43.9157,315.5010 49.4469,321.9022 55.3535,327.9813 61.6591,333.6192 68.3738,338.6955 75.2991,343.3818 82.3837,347.8795 89.6083,352.1981 96.9535,356.3470 104.4000,360.3355 111.9286,364.1731 119.5199,367.8690 127.1546,371.4326 134.8134,374.8734 142.4670,378.2089 150.1104,381.5431 157.7597,384.9005 165.4152,388.2776 173.0774,391.6711 180.7466,395.0776 188.4232,398.4937 196.1075,401.9161 203.8000,405.3413 211.5011,408.7661 219.2111,412.1869 226.9305,415.6005 234.6595,419.0035 242.3986,422.3924 250.1482,425.7639 257.9087,429.1147 265.6804,432.4413 273.4637,435.7404 281.2590,439.0085 289.0668,442.2424 296.8873,445.4386 304.7209,448.5938 312.5682,451.7046 320.4293,454.7675 328.3048,457.7793 336.1949,460.7366 344.1001,463.6359 352.0209,466.4739 359.9574,469.2472 367.9102,471.9525 375.8796,474.5863 383.8660,477.1453 391.8698,479.6262 399.8914,482.0254 407.9311,484.3397 416.6507,486.7507 425.1761,488.9902 433.3926,490.9852 441.3936,492.7208 449.2723,494.1821 457.1220,495.3539 465.0358,496.2215 473.1070,496.7697 481.4289,496.9837 490.0947,496.8485 499.0753,496.3597 507.0497,496.0072 515.5574,495.8329 524.2724,495.6380 532.8682,495.2242 541.1333,494.3958 549.4557,493.2255 557.7597,491.8190 566.0324,490.1916 574.2609,488.3591 582.4323,486.3369 590.5336,484.1405 598.6520,481.7259 606.7031,479.1027 614.6853,476.3250 622.6131,473.4437 630.5007,470.5092 638.3625,467.5721 646.2129,464.6832 654.0661,461.8930 659.7657,459.8468 665.9721,457.3051 673.1244,454.0284 680.9685,450.0237 689.2503,445.2977 697.7157,439.8573 705.6472,434.0719 712.1158,428.7122 718.2557,422.8952 723.9188,416.6235 728.9568,409.9000 733.2216,402.7274 736.5649,395.1085 738.8385,387.0461 739.8923,378.5440 738.6882,370.3044 734.8754,362.9927 729.0827,356.7006 722.6688,351.8859 715.4090,347.7124 707.5342,344.0951 698.6265,340.7391 689.0135,337.7458 679.6690,335.3314 670.9772,333.4654 663.3223,332.1174 657.0886,331.2568 649.9666,330.2631 642.0606,327.6824 634.7735,323.9966 627.7509,319.9497 620.9600,316.3762 613.3361,313.3604 604.5819,311.4184 595.0829,310.8692 585.8847,310.7002 576.7252,310.6559 567.6464,310.7014 558.6908,310.8019 549.9006,310.9224 541.3179,311.0281 532.9850,311.0842 524.9442,311.0557 517.2376,310.9079 509.9076,310.6058 502.8719,310.1033 492.8974,308.8326 484.3222,306.9139 477.3368,304.3147 471.3350,300.3624 467.1800,294.1333 466.4993,285.1770 469.9874,278.4363 477.0619,274.1891 484.7668,271.4257 493.9037,269.1702 500.5518,267.9445 507.7777,266.8784 515.5417,265.9634 523.8037,265.1912 532.5236,264.5532 541.6615,264.0411 551.1775,263.6466 561.0314,263.3611 568.9927,263.2065 577.0135,263.1076 585.1807,263.0572 593.4775,263.0503 601.8867,263.0820 610.3914,263.1474 618.9744,263.2416 627.6189,263.3598 636.3078,263.4969 645.0240,263.6482 653.7505,263.8087 662.4703,263.9734 671.1665,264.1376 679.8219,264.2963 688.4195,264.4446 696.9424,264.5776 705.3735,264.6904 713.6958,264.7781 721.8922,264.8358 729.9458,264.8585 737.8395,264.8415 745.1547,262.9636 752.6836,258.1440 758.8068,253.6265 765.6330,248.2030 772.3461,242.6393 778.1726,237.7035 784.2675,232.4813 790.5925,227.0342 797.1096,221.4237 803.7804,215.7112 810.5667,209.9584 817.4304,204.2267 824.5183,198.4285 831.6351,192.7607 838.7020,187.3178 845.6703,182.1696 852.4910,177.3859 859.1152,173.0364 865.4942,169.1909 873.1205,165.1651 881.1459,161.8325 888.4488,160.0059 897.0107,160.7327 903.5624,166.3383 907.0220,173.4794 907.1627,180.7965 904.8687,188.4750 900.4624,196.7435 896.6018,202.3403 892.0178,208.1291 886.7889,214.0848 880.9936,220.1827 874.7104,226.3976 868.0176,232.7047 860.9938,239.0791 853.9360,245.3056 847.4846,250.8940 840.9519,256.4944 834.3879,262.0966 827.8423,267.6903 821.3649,273.2653 815.0056,278.8114 808.8142,284.3184 802.8405,289.7759 796.7889,295.5066 789.6668,302.5913 783.2128,309.5356 777.5641,316.3569 772.8583,323.0728 769.2328,329.7007 766.8248,336.2582 765.7379,343.8516 766.9831,352.2160 770.6383,359.4893 776.2668,365.5266 782.8509,369.9543 790.1586,373.3508 798.2204,375.9839 806.8532,377.9324 815.9461,379.2843 825.3056,380.0877 834.6750,380.3544 843.8723,380.1067 852.7155,379.3666 861.0227,378.1561 868.6119,376.4974 875.3012,374.4124 881.5202,371.6605 889.0017,367.9728 896.4720,364.1253 903.8652,360.0615 911.1155,355.7243 918.1571,351.0571 924.9194,346.0078 931.3756,340.6166 937.6045,334.9178 943.6111,328.9638 949.3999,322.8073 954.9756,316.5008 960.3432,310.0969 965.5088,303.3972 970.0301,296.1900 973.9872,288.7438 977.5997,281.2712 981.1291,273.8276 984.6539,266.2441 988.0368,258.5277 991.1511,250.6654 993.8703,242.6444 996.0567,234.4864 997.6713,226.1966 998.7884,217.8262 999.4810,209.4511 999.8297,201.1455 1000.0000,192.8074 999.9705,184.3950 999.6542,175.9528 998.9639,167.5253 997.8128,159.1569 996.1260,150.9076 993.9156,142.7602 991.2603,134.7343 988.2411,126.8593 984.9390,119.1649 981.4227,111.6411 977.6680,104.1509 973.6413,96.7396 969.3128,89.4768 964.6531,82.4320 959.6324,75.6747 954.3043,69.2623 948.6268,63.0523 942.6199,57.1003 936.3083,51.4689 929.7166,46.2205 922.8820,41.4089 915.8449,36.8770 908.6090,32.5664 901.2009,28.4976 893.6474,24.6907 885.9752,21.1661 878.2110,17.9441 870.3344,15.0384 862.2524,12.5341 854.0614,10.4242 845.8013,8.6307 837.5119,7.0754 829.2330,5.6802 821.0044,4.3670 812.7208,3.1206 804.3199,2.2780 795.9233,1.8077"/>
</svg>
