<?xml version="1.0" encoding="utf-8"?>
<!-- Track map generated with TinyPedal -->
<svg viewBox="-670.7152 -475.2935 1316.3913 1299.7759" version="1.1" xmlns="http://www.w3.org/2000/svg">
	<title>Fuji Speedway</title>
	<!-- Sector coordinates index -->
	<desc>186,332</desc>
	<!-- Raw global coordinates -->
	<polyline id="map" fill="none" stroke="black" stroke-width="10" points="-7.3163,-8.5697 10.1597,-21.9169 21.1226,-30.2902 33.1675,-39.4897 43.0424,-47.0366 55.1456,-56.2857 65.0802,-63.8664 76.1489,-72.3076 88.3654,-81.6074 99.5067,-90.0753 109.5603,-97.7102 120.7505,-106.2194 131.9632,-114.7529 143.1996,-123.3068 155.5828,-132.7448 165.7323,-140.4879 177.0303,-149.1104 188.3477,-157.7544 200.8151,-167.2918 211.0253,-175.1221 222.3635,-183.8728 233.6918,-192.6788 245.0216,-201.5251 256.3588,-210.4039 268.8416,-220.2026 277.9344,-227.3414 290.4603,-237.1696 303.0263,-246.9948 313.3409,-255.026 325.9729,-264.8516 336.3281,-272.8989 349.0016,-282.7532 359.386,-290.829 370.934,-299.8231 382.4856,-308.8473 394.036,-317.9063 406.7439,-327.9056 417.1443,-336.1117 428.7059,-345.252 440.2791,-354.4077 451.8376,-363.5334 463.2147,-372.4887 474.248,-381.1249 484.8145,-389.295 494.8704,-396.9595 504.4064,-404.1424 514.2745,-411.4831 521.8817,-417.0476 529.8543,-422.7682 537.3541,-428.0291 544.3871,-432.8399 550.9805,-437.1836 557.1685,-441.0276 562.9808,-444.3827 568.9666,-447.5286 573.5718,-449.6868 578.3878,-451.6657 582.9363,-453.2311 587.735,-454.4777 591.566,-455.0989 595.7776,-455.2935 599.9145,-454.9443 604.293,-453.9417 607.6806,-452.6619 611.5082,-450.5762 614.3333,-448.4828 617.0991,-445.7957 619.437,-442.778 621.3746,-439.4336 622.9684,-435.7548 624.3444,-431.296 625.1498,-427.3459 625.6248,-422.739 625.6761,-417.495 625.4237,-413.0281 625.2966,-411.4881 624.9733,-407.7965 624.3224,-401.6834 623.5532,-396.4283 622.2708,-389.8204 620.9188,-383.7407 619.447,-377.4973 618.0314,-371.6867 616.2692,-365.0502 614.267,-358.2023 611.7635,-350.4514 609.4663,-343.9634 606.624,-336.6252 603.4702,-329.1692 600.0251,-321.6587 596.2949,-314.2134 591.8156,-305.9648 587.8762,-299.1634 583.2188,-291.5616 578.2764,-283.9235 572.5428,-275.4752 567.6337,-268.5279 561.958,-260.7761 556.0607,-252.9915 549.9492,-245.1776 543.0018,-236.5445 537.1776,-229.4915 530.5488,-221.6705 523.7475,-213.8217 516.7819,-205.9452 509.6573,-198.0434 502.3931,-190.1054 495.0274,-182.1022 487.5763,-174.0248 480.0583,-165.862 472.4852,-157.6078 464.8782,-149.2486 457.2681,-140.7615 449.657,-132.1503 442.0463,-123.419 433.6738,-113.6833 426.8179,-105.6226 419.192,-96.5738 410.9141,-86.6705 404.3903,-78.7904 397.4592,-70.2967 390.8853,-62.0392 384.665,-53.9791 378.8507,-46.0624 373.0398,-37.4045 368.39,-29.4951 364.7367,-22.3245 361.2802,-14.2831 358.4744,-6.1714 356.3608,2.001 354.9671,10.2163 354.2315,18.4171 354.1316,26.5512 354.7794,35.3629 355.8671,42.5025 357.6418,50.4723 359.9865,58.4456 362.8515,66.3441 366.1628,74.1854 369.8102,82.0507 373.7222,89.9673 377.909,97.9235 382.4271,105.8895 387.0471,113.9868 391.443,122.3852 395.9799,131.9855 399.5168,140.0595 403.0325,149.257 406.0404,158.766 408.4804,168.5144 410.424,179.3481 411.3801,188.2508 411.7919,198.1587 411.5363,208.0825 410.6394,218.0004 409.0849,227.8696 406.8782,237.6482 404.0343,247.2915 400.1964,257.599 396.5169,265.7228 391.8911,274.3906 386.7338,282.6464 381.04,290.4192 374.8223,297.6368 367.4186,304.8636 360.9673,310.1795 353.4334,315.4269 344.6859,320.4781 337.1743,324.1177 328.4892,327.6697 319.4821,330.6642 310.1919,333.0924 300.659,334.9238 290.9677,336.0874 281.2531,336.5018 271.651,336.1246 262.261,334.948 253.1397,332.9724 244.2011,330.2451 235.4585,326.7638 226.1342,322.0979 217.9721,317.1295 210.1007,311.5553 203.2559,306.0909 195.2441,298.8528 189.0029,292.4896 182.3965,284.9915 176.161,277.0626 170.3057,268.7316 164.8081,260.0501 159.2102,250.382 154.9545,242.6151 150.4273,234.294 146.0202,226.3683 141.6776,218.8944 137.3266,211.8982 132.8975,205.404 128.3458,199.4082 123.6339,193.9317 118.2444,188.5595 113.6884,184.6914 108.5006,180.9729 102.7065,177.6503 97.9602,175.5789 92.7359,173.945 87.5953,172.9774 82.5944,172.6278 77.7917,172.8911 73.6571,173.6552 68.4718,175.4058 64.8831,177.2378 61.233,179.7767 57.9467,182.8208 54.6953,186.711 52.2817,190.2283 49.5381,194.2488 46.5937,198.4279 43.3069,203.3634 40.6221,207.6872 37.3982,213.3434 34.576,218.8544 32.1876,224.1261 29.7827,230.3409 27.68,236.9176 25.8899,243.8282 24.2994,251.777 23.3387,258.4764 22.6038,266.0714 22.2225,273.8659 22.2889,281.8522 22.7097,290.0252 23.4186,298.3528 24.4137,306.8171 25.5946,315.4322 26.8212,324.2264 28.0344,333.1919 29.3234,342.3012 30.8593,352.4931 32.1732,360.8973 33.73,370.3492 35.2773,379.9549 36.6734,389.7301 37.8446,400.6869 38.4293,409.7987 38.6035,420.0557 38.2076,430.4193 37.241,440.858 35.7073,451.3381 33.3327,462.8687 30.8839,472.2845 27.3418,483.7625 24.0662,493.1339 19.6745,504.5739 15.7873,513.9216 11.1576,524.2838 5.6689,535.6299 0.3369,545.8909 -4.6974,555.0291 -10.5732,565.1208 -17.3408,576.1741 -23.0845,585.1939 -29.6893,595.1804 -36.5986,605.0709 -44.6006,615.7876 -52.244,625.361 -59.4287,633.8201 -67.7449,643.0321 -76.4149,652.0274 -85.4336,660.7894 -95.7504,670.1403 -104.4721,677.5762 -114.4326,685.6255 -124.619,693.507 -134.9877,701.2659 -145.4987,708.9467 -156.123,716.5801 -167.8258,724.9062 -177.2231,731.5612 -187.3708,738.72 -198.0951,746.3217 -206.4935,752.3695 -215.3974,758.8778 -223.8343,765.0193 -231.7901,770.6904 -239.2754,775.8483 -246.3183,780.4547 -253.561,784.9315 -259.0803,788.2373 -264.7835,791.569 -270.0424,794.5194 -274.868,797.095 -279.7426,799.5215 -283.4482,801.1664 -287.3135,802.641 -290.9262,803.7388 -294.294,804.3751 -297.3873,804.4824 -300.1882,804.0751 -302.7606,803.2336 -305.0903,802.0083 -307.135,800.4602 -308.8413,798.6305 -310.3763,796.3096 -311.4284,794.1432 -312.3961,791.4498 -313.1757,788.1183 -313.5474,785.1313 -313.7082,781.1624 -313.7331,777.7332 -313.8965,773.9508 -314.4212,769.8893 -315.1734,766.6796 -316.3655,763.2128 -317.9463,759.8568 -320.1652,756.275 -322.6507,753.1189 -325.2908,750.4185 -328.6465,747.7411 -332.384,745.4769 -336.88,743.4272 -341.2555,741.908 -345.4008,740.8258 -350.7482,739.9186 -355.3379,739.5844 -361.0863,739.7875 -365.8489,740.4808 -371.1743,741.5035 -376.7333,742.3724 -383.1198,742.9673 -389.0746,743.0377 -395.1028,742.6104 -400.5663,741.7907 -407.3043,740.2839 -412.9926,738.909 -419.4816,737.2084 -426.1025,735.2054 -433.5051,732.6203 -439.6183,730.1858 -446.3322,727.1439 -453.684,723.3203 -459.6599,719.826 -466.7292,715.2164 -472.1228,711.2968 -477.6735,706.8331 -483.2804,701.8282 -487.4932,697.6519 -491.7303,692.8987 -495.4123,687.9977 -498.5471,682.9456 -501.1585,677.7347 -503.213,672.3818 -504.6787,666.9369 -505.5572,661.4555 -505.893,655.8974 -505.7217,650.22 -505.0374,644.4563 -503.6805,638.1224 -502.1129,633.1198 -499.9341,627.8002 -497.3198,622.7699 -494.3024,618.0477 -490.5071,613.1402 -486.9944,609.2418 -482.6732,605.1381 -477.9844,601.3723 -473.0852,598.0048 -468.0701,594.7828 -462.8311,591.4714 -457.2834,588.1752 -451.5134,584.774 -445.0345,580.7008 -439.6532,577.1571 -433.6671,573.0624 -427.2445,568.2555 -422.17,564.0337 -416.8428,558.9521 -411.5737,552.8389 -407.8123,547.5001 -404.2539,541.2861 -401.1059,534.1556 -399.0473,528.0179 -397.2901,520.8862 -396.1275,513.5342 -395.5996,506.2268 -395.6966,499.1265 -396.3624,492.2948 -397.664,485.1192 -399.1362,479.5359 -401.1895,473.6649 -403.672,468.17 -406.8645,462.6031 -410.1522,458.0164 -413.3947,454.3008 -417.2796,450.6491 -421.4355,447.5766 -425.7971,445.1154 -430.285,443.264 -434.839,441.9898 -439.4076,441.2875 -444.3843,441.1465 -448.3717,441.4938 -452.6631,442.3513 -457.203,443.8572 -460.8115,445.5176 -464.7325,447.7882 -468.6198,450.4908 -472.4368,453.5905 -476.4577,457.4494 -479.4901,461.0106 -482.7,465.3243 -486.0208,469.8776 -489.9156,475.0918 -493.2268,479.5677 -497.0823,484.7226 -501.1456,490.0444 -505.4319,495.5102 -510.4103,501.5894 -515.2219,507.0564 -520.3613,512.4896 -525.3046,517.2905 -531.8264,522.9194 -537.5665,527.2719 -544.3517,531.8112 -551.5314,536.0333 -559.0355,539.9242 -566.587,543.3266 -574.0198,546.1093 -581.2839,548.2512 -588.3606,549.7731 -595.2018,550.7086 -601.7592,551.0711 -607.9826,550.8696 -613.8436,550.1234 -619.3253,548.8473 -624.4198,547.0823 -629.5612,544.6289 -633.3956,542.2532 -637.2573,539.2329 -640.6842,535.8509 -643.6412,532.1599 -646.0791,528.2073 -647.9799,524.0622 -649.3475,519.7621 -650.2597,515.2455 -650.7152,510.511 -650.6734,505.6006 -650.1019,500.5851 -648.9661,495.5726 -647.2773,490.5888 -645.0524,485.6296 -641.9954,480.2329 -639.0277,475.9207 -635.2991,471.2522 -631.0841,466.7285 -626.3817,462.3591 -621.2845,458.0486 -615.9656,453.6147 -609.8588,448.6142 -604.6578,444.4474 -598.6696,439.7437 -592.5319,435.0052 -585.5916,429.7513 -579.7382,425.396 -573.054,420.4966 -566.1923,415.525 -559.1705,410.465 -552.0012,405.3086 -543.9558,399.5207 -537.262,394.6848 -529.7164,389.2016 -522.0621,383.6033 -513.5714,377.3548 -506.5697,372.1623 -498.7025,366.2864 -489.9513,359.6871 -482.7162,354.1855 -473.7808,347.3443 -466.3886,341.6631 -458.0839,335.2744 -449.6838,328.8094 -440.3336,321.6165 -432.5952,315.6763 -423.9082,309.0162 -415.1226,302.3055 -406.2464,295.5379 -397.2845,288.7115 -388.2369,281.8307 -379.1035,274.9001 -369.8859,267.9214 -360.5834,260.8996 -350.2598,253.1207 -340.7916,246.0044 -332.2039,239.5645 -322.5917,232.3697 -311.9933,224.446 -303.2725,217.9283 -293.5217,210.6405 -282.7247,202.5685 -272.8526,195.1729 -263.9247,188.4684 -253.9581,180.9668 -242.9409,172.6511 -233.8894,165.7945 -223.8016,158.1107 -213.687,150.3539 -203.5407,142.5337 -193.3584,134.6579 -182.1158,125.9338 -172.8835,118.7523 -161.5552,109.9282 -152.2489,102.6735 -140.8291,93.7661 -131.448,86.4473 -120.9866,78.2828 -109.4331,69.264 -99.9445,61.8574 -89.3607,53.6045 -78.7302,45.3337 -68.0539,37.0455 -57.3339,28.739 -46.5725,20.4126 -35.7739,12.0633 -24.9401,3.6902 -14.0721,-4.7066"/>
	<!-- Raw distance reference points -->
	<polyline id="dist" fill="none" stroke="none" stroke-width="0" points="4529.8628,0.1444 21.5232,0.1399 35.314,0.1336 49.089,0.1297 62.899,0.1305 76.7509,0.1283 90.6397,0.1274 104.5571,0.1234 118.5121,0.1088 132.4973,0.0997 146.5176,0.0946 160.5742,0.0898 174.6663,0.0844 188.7957,0.1027 202.9608,0.0939 217.1413,0.0928 231.3559,0.0888 245.5976,0.0867 259.8639,0.0933 274.1599,0.0971 288.4732,0.0938 302.8117,0.0754 317.183,0.0497 331.5829,0.0045 346.0124,-0.053 360.4735,-0.1096 374.9464,-0.1984 389.448,-0.2912 403.9712,-0.3677 418.5155,-0.474 433.0877,-0.5689 447.6845,-0.6791 462.3069,-0.7809 476.9461,-0.889 491.6008,-0.9921 506.2752,-1.0943 520.9702,-1.215 535.6873,-1.3126 550.4327,-1.418 565.2163,-1.5188 579.9592,-1.6184 594.4424,-1.7203 608.4554,-1.8219 621.8143,-1.9206 634.4717,-2.0168 646.4153,-2.1105 657.6428,-2.2026 668.1556,-2.2737 677.9631,-2.3598 687.0999,-2.4338 695.5882,-2.5068 703.4492,-2.5817 710.6814,-2.6507 717.3179,-2.7195 723.4411,-2.802 729.1754,-2.8696 734.6006,-2.9465 739.7787,-3.0469 744.798,-3.187 749.6528,-3.3231 754.3057,-3.4938 758.7598,-3.6846 763.0275,-3.9145 767.0037,-4.1147 770.9772,-4.3685 774.7061,-4.5847 778.1574,-4.8323 781.8972,-5.0869 785.1034,-5.3531 788.3677,-5.6392 792.507,-5.9712 796.1736,-6.2765 800.1956,-6.6713 804.703,-7.2006 809.6656,-7.629 810.9589,-7.7706 814.9539,-8.1318 820.5545,-8.7319 826.4852,-9.2555 832.6779,-9.9033 838.9238,-10.4889 845.3187,-11.1026 851.9453,-11.6264 858.7682,-12.2214 865.8304,-12.8358 873.0752,-13.501 880.5809,-14.0545 888.2752,-14.6708 896.2532,-15.268 904.5405,-15.8668 913.0603,-16.4378 921.717,-17.0443 930.6256,-17.4903 939.6392,-17.9373 948.7169,-18.3559 957.9785,-18.8055 967.4207,-19.1538 977.027,-19.5271 986.798,-19.8782 996.7215,-20.1843 1006.7844,-20.5 1016.9374,-20.7109 1027.1857,-20.9131 1037.5751,-21.0903 1048.0819,-21.2373 1058.7085,-21.3583 1069.4589,-21.4494 1080.3231,-21.5129 1091.2931,-21.5386 1102.3647,-21.5375 1113.5127,-21.5011 1124.8002,-21.4327 1136.223,-21.3407 1147.7468,-21.2105 1159.3561,-21.0468 1171.035,-20.8215 1182.776,-20.6219 1194.6125,-20.3962 1206.3715,-20.1459 1217.77,-19.9539 1228.7349,-19.7458 1239.2906,-19.5585 1249.4806,-19.4232 1259.2881,-19.3208 1268.7209,-19.2706 1277.7821,-19.2607 1286.516,-19.2887 1295.1256,-19.3574 1304.3474,-19.4537 1314.358,-19.5429 1323.5092,-19.5964 1331.6193,-19.6624 1339.5363,-19.7514 1347.2809,-19.844 1354.7994,-19.9407 1362.64,-20.0825 1370.8014,-20.2808 1379.0482,-20.4853 1387.5905,-20.7851 1396.2794,-21.122 1405.1201,-21.5003 1414.1382,-21.9113 1423.3188,-22.3974 1432.6498,-22.9052 1442.2145,-23.3949 1452.0525,-23.9438 1462.1602,-24.4165 1472.7288,-24.9125 1483.0505,-25.4114 1493.2363,-25.9055 1503.3392,-26.4502 1513.3988,-26.8846 1523.4727,-27.3797 1533.5695,-27.877 1543.6984,-28.3655 1553.8649,-28.8169 1564.0667,-29.2342 1574.2985,-29.6152 1584.4818,-29.9835 1594.6317,-30.2513 1604.724,-30.5033 1614.7933,-30.6985 1624.8363,-30.8378 1634.7778,-30.9341 1644.5648,-30.9876 1654.1536,-30.9919 1663.4788,-30.9546 1672.7408,-30.8731 1682.0465,-30.7831 1691.5413,-30.671 1701.1678,-30.5244 1710.9138,-30.3503 1720.7678,-30.1446 1730.7061,-29.8985 1740.7328,-29.5986 1750.881,-29.2459 1761.0817,-28.8458 1771.0692,-28.3955 1780.9219,-27.9052 1790.7197,-27.3472 1800.5754,-26.6806 1810.433,-26.0189 1820.2628,-25.3231 1830.0935,-24.706 1839.9407,-23.9836 1849.7764,-23.4277 1859.7231,-22.8641 1869.8002,-22.3413 1879.9862,-21.8611 1890.2607,-21.4258 1900.3995,-20.9712 1910.2043,-20.6132 1919.625,-20.2321 1928.6517,-19.8745 1937.2791,-19.5478 1945.5442,-19.2562 1953.4288,-18.9986 1960.9445,-18.7927 1968.1171,-18.6351 1974.9214,-18.5267 1981.3616,-18.4957 1987.8091,-18.5218 1994.3955,-18.5822 2001.2119,-18.6186 2008.7391,-18.6441 2014.5751,-18.6616 2019.8842,-18.6825 2024.7235,-18.6952 2029.245,-18.6918 2033.5712,-18.6814 2037.7935,-18.6737 2042.2086,-18.6683 2046.4792,-18.681 2050.8494,-18.7329 2055.3945,-18.7939 2060.137,-18.8515 2065.1252,-18.8969 2070.3743,-18.9431 2075.8831,-18.9859 2081.6453,-19.0404 2087.6423,-19.0903 2093.6074,-19.1502 2100.0701,-19.2297 2106.7983,-19.3181 2113.5078,-19.4118 2120.6531,-19.5399 2127.6699,-19.6424 2135.0327,-19.7627 2142.3303,-19.8889 2150.1379,-20.0059 2158.2036,-20.1413 2166.5125,-20.3444 2174.8672,-20.5538 2183.4871,-20.7959 2192.3547,-21.0368 2201.3696,-21.2583 2210.5969,-21.5161 2219.96,-21.7725 2229.3835,-21.975 2238.9592,-22.2082 2248.7263,-22.4398 2258.6497,-22.6516 2268.7075,-22.8517 2278.9404,-23.0315 2289.4287,-23.2427 2300.2244,-23.4488 2311.1802,-23.6668 2322.1482,-23.902 2333.1079,-24.1579 2343.9568,-24.3757 2354.8928,-24.6337 2365.9014,-24.8607 2376.9893,-25.1771 2388.1836,-25.4588 2399.5239,-25.7991 2410.9773,-26.2014 2422.543,-26.6015 2434.1204,-26.9816 2445.7852,-27.4329 2457.5413,-27.9621 2469.3896,-28.4183 2481.3411,-28.9505 2493.4126,-29.5129 2505.6545,-30.1548 2518.0964,-30.7634 2530.5334,-31.3277 2543.0813,-31.9814 2555.6738,-32.6297 2568.4028,-33.2553 2581.1428,-33.8716 2593.9812,-34.3359 2606.8105,-34.7825 2619.6978,-35.1806 2632.6521,-35.5204 2645.6743,-35.8205 2658.761,-36.0642 2671.8279,-36.2788 2684.6392,-36.3971 2697.0576,-36.4876 2709.03,-36.4974 2720.5505,-36.4685 2731.5833,-36.4035 2742.0203,-36.3049 2751.7886,-36.2049 2760.8765,-36.1155 2769.2871,-36.0344 2777.0476,-35.9499 2784.21,-35.8977 2790.7976,-35.845 2796.8044,-35.8013 2802.2432,-35.7618 2807.1714,-35.727 2811.623,-35.7046 2815.7041,-35.6834 2819.6636,-35.6596 2823.9719,-35.6309 2828.9219,-35.5693 2834.1187,-35.4341 2839.146,-35.2927 2843.6121,-35.1791 2845.9705,-35.1068 2849.4785,-35.0494 2851.8357,-34.9907 2854.748,-34.9488 2857.5059,-34.9072 2860.4895,-34.8679 2863.7664,-34.8436 2867.3489,-34.815 2871.1714,-34.7795 2875.0173,-34.7149 2878.897,-34.6184 2882.8735,-34.5313 2886.5188,-34.4271 2890.749,-34.3109 2895.2036,-34.1635 2899.8306,-34.0007 2904.5559,-33.8234 2909.324,-33.5898 2914.1006,-33.3355 2918.8103,-33.0298 2923.3508,-32.7309 2927.6328,-32.4541 2932.187,-32.1035 2936.7122,-31.7823 2941.7349,-31.3426 2947.1948,-30.9265 2953.4502,-30.4598 2959.7043,-29.9871 2966.2568,-29.4791 2973.4287,-29.0055 2979.8611,-28.5211 2986.2163,-28.0802 2992.7498,-27.5276 2999.311,-27.0589 3006.0342,-26.5114 3012.9473,-25.9328 3019.9587,-25.2782 3027.1455,-24.7326 3034.3665,-24.1288 3041.7988,-23.4553 3049.2883,-22.8953 3056.8892,-22.2102 3064.2256,-21.6724 3071.2776,-21.1072 3077.8691,-20.5128 3084.3262,-20.0392 3090.5276,-19.5507 3096.4583,-19.0888 3102.179,-18.6752 3107.5615,-18.3222 3112.9968,-18.0008 3118.4233,-17.6919 3123.9314,-17.3962 3129.5669,-17.1162 3135.3523,-16.8458 3141.2922,-16.5858 3147.3613,-16.3159 3153.7471,-16.1108 3159.8149,-15.9185 3165.7368,-15.7612 3171.4714,-15.6403 3177.0945,-15.5448 3182.6716,-15.4975 3188.269,-15.4852 3193.8188,-15.5175 3199.3394,-15.5923 3205.1116,-15.709 3211.3599,-15.8301 3218.6101,-15.9534 3225.9067,-16.0853 3233.7336,-16.1955 3241.2056,-16.311 3248.9341,-16.4231 3256.4905,-16.5161 3264.4285,-16.5373 3272.0652,-16.5051 3280.0527,-16.4028 3288.1033,-16.2829 3295.762,-16.1185 3303.7798,-15.8999 3311.366,-15.6866 3319.356,-15.4029 3327.0244,-15.0654 3334.7224,-14.6911 3342.0427,-14.2826 3349.4082,-13.8446 3356.3135,-13.3476 3363.1296,-12.931 3369.4873,-12.4626 3375.6309,-11.9903 3381.584,-11.4727 3387.3477,-11.0197 3393.0718,-10.6442 3398.6445,-10.277 3404.251,-9.93 3410.0684,-9.5985 3415.9197,-9.295 3421.2791,-9.0409 3426.1929,-8.8308 3430.801,-8.6468 3435.0652,-8.5269 3438.9534,-8.4197 3442.6179,-8.3358 3446.7917,-8.2933 3450.7456,-8.2744 3455.1985,-8.2971 3460.0452,-8.3808 3465.1702,-8.4921 3470.4365,-8.5823 3475.8428,-8.7132 3481.488,-8.8465 3487.3918,-8.9895 3493.616,-9.1026 3500.0386,-9.2154 3506.7046,-9.3237 3513.6589,-9.3958 3520.7808,-9.4292 3528.0635,-9.4076 3535.4954,-9.3502 3543.1045,-9.268 3550.8813,-9.1273 3558.7998,-8.979 3566.9192,-8.7733 3575.167,-8.5263 3583.5247,-8.2405 3591.7517,-7.9067 3599.5457,-7.5354 3607.0369,-7.1426 3614.0764,-6.7278 3620.8782,-6.2953 3627.3435,-5.8563 3633.3391,-5.4197 3639.1423,-4.9916 3644.6514,-4.5659 3649.925,-4.1477 3655.0171,-3.6959 3659.9622,-3.3424 3664.8169,-2.9672 3669.6277,-2.6172 3674.4414,-2.2962 3679.3242,-1.9864 3684.2883,-1.6864 3689.3184,-1.3896 3694.5208,-1.1031 3699.8635,-0.8215 3705.2769,-0.5447 3710.7961,-0.2867 3716.4297,-0.0522 3722.1382,0.1594 3728.147,0.3529 3733.6604,0.5387 3739.1833,0.661 3744.9272,0.7256 3750.9893,0.7476 3757.3792,0.7496 3764.0667,0.7375 3770.978,0.7166 3778.1477,0.6899 3785.5388,0.6616 3793.127,0.6327 3800.8796,0.5985 3808.7812,0.5731 3816.8867,0.5567 3825.218,0.5361 3833.6853,0.5109 3842.3259,0.4866 3851.1375,0.4606 3860.1851,0.4359 3869.3765,0.4094 3878.6938,0.3802 3888.1821,0.3574 3897.7656,0.3281 3907.4438,0.3084 3917.2593,0.2915 3927.1697,0.2641 3937.3818,0.246 3947.6208,0.2311 3957.9893,0.2214 3968.4353,0.2124 3979.0273,0.2017 3989.739,0.1961 4000.5527,0.1969 4011.4802,0.1994 4022.5188,0.1973 4033.6682,0.1963 4044.9424,0.1956 4056.3237,0.1932 4067.8066,0.192 4079.377,0.1908 4091.0266,0.1906 4102.7617,0.1912 4114.5757,0.1872 4126.4844,0.1837 4138.4819,0.1803 4150.5083,0.1742 4162.6045,0.1698 4174.8071,0.1602 4187.0566,0.1525 4199.375,0.1526 4211.7734,0.1554 4224.2549,0.1506 4236.812,0.1456 4249.4424,0.143 4262.1343,0.1482 4274.8882,0.1462 4287.6968,0.148 4300.5684,0.1454 4313.4985,0.152 4326.4844,0.1511 4339.5215,0.1556 4352.6221,0.1505 4365.7788,0.1506 4378.9824,0.1567 4392.2441,0.1512 4405.5659,0.1579 4418.9507,0.1594 4432.3843,0.1704 4445.8491,0.1731 4459.3638,0.1759 4472.9253,0.1735 4486.5312,0.1722 4500.186,0.1734 4513.8901,0.1761 4527.6323,0.175"/>
</svg>
