<?xml version="1.0" encoding="utf-8"?>
<!-- Track map generated with TinyPedal -->
<svg viewBox="-668.4281 -475.5472 1309.8104 1301.0535" version="1.1" xmlns="http://www.w3.org/2000/svg">
	<title>Fuji Speedway Classic</title>
	<!-- Sector coordinates index -->
	<desc>188,310</desc>
	<!-- Raw global coordinates -->
	<polyline id="map" fill="none" stroke="black" stroke-width="10" points="-7.5019,-8.6667 7.5657,-20.1289 16.9605,-27.2687 28.4882,-36.0177 37.9558,-43.1937 49.5697,-51.9858 59.6369,-59.5965 70.2699,-67.6248 80.9393,-75.6697 91.645,-83.7292 102.3841,-91.8054 112.6115,-99.4995 123.3976,-107.6278 134.1912,-115.7816 146.6257,-125.192 156.3871,-132.573 166.7216,-140.3763 177.6333,-148.604 189.1248,-157.2606 199.5426,-165.1197 210.5226,-173.4287 222.6035,-182.6286 234.1189,-191.4925 243.9257,-199.2162 254.2232,-207.4824 266.1769,-217.0739 275.9851,-224.9332 287.4579,-234.1175 297.865,-242.4417 308.8474,-251.2186 320.9622,-260.8879 332.5793,-270.1064 342.0529,-277.5197 354.3662,-287.0976 365.5862,-295.8216 377.3976,-304.9935 386.9803,-312.4286 398.2757,-321.1907 410.1509,-330.4196 421.4726,-339.2394 432.232,-347.6535 443.5637,-356.5444 456.0569,-366.3357 466.5755,-374.5701 476.9949,-382.7149 486.2664,-389.9574 495.3779,-397.0769 504.281,-404.0298 512.2881,-410.2761 519.9272,-416.2109 527.5974,-422.1173 534.2794,-427.1986 541.0771,-432.2607 547.2287,-436.6815 553.2742,-440.8435 558.8781,-444.5235 564.5718,-448.032 569.2294,-450.5446 574.0224,-452.6268 578.6694,-454.136 582.9306,-455.0626 587.6438,-455.5472 591.4948,-455.4767 595.2932,-454.9349 598.6797,-453.9694 602.2434,-452.3956 605.8171,-450.1974 608.452,-448.1314 611.6005,-444.9998 613.8898,-442.0802 616.1987,-438.2675 617.9868,-434.2775 619.2977,-430.1597 620.2744,-425.5071 620.9074,-420.5281 621.2853,-414.953 621.3823,-408.7639 621.2104,-403.4723 620.7505,-397.7066 619.9216,-391.1118 618.9033,-384.613 617.7761,-378.2436 616.4335,-371.341 614.8442,-363.8817 613.1357,-356.5988 611.1291,-349.1854 608.7871,-341.7047 606.2015,-334.542 603.0755,-326.9726 599.3403,-319.0227 595.1312,-311.1009 590.5344,-303.1822 586.6016,-296.7406 581.7649,-289.1193 576.7036,-281.4611 571.1249,-273.4112 565.5279,-265.7744 559.3601,-257.8004 553.848,-251.0327 546.8154,-242.8315 540.5244,-235.7824 534.139,-228.6733 527.3495,-221.1001 520.4888,-213.4394 513.2115,-205.3033 506.5643,-197.8625 499.4868,-189.9662 491.5487,-181.2627 484.5989,-173.703 477.6058,-166.0671 469.8365,-157.5332 462.0291,-148.9027 455.3094,-141.4302 447.8211,-133.0449 439.9651,-124.1246 432.8975,-115.9279 425.5017,-107.1734 418.1609,-98.2859 410.1807,-88.3367 403.4185,-79.6931 396.7986,-71.0546 391.0069,-63.3888 384.8305,-55.0945 379.9925,-48.4013 375.3995,-41.6815 371.5065,-35.197 367.7812,-27.7877 364.764,-20.4777 362.3246,-13.3473 360.2439,-5.7184 358.7355,1.9981 357.866,10.1613 357.5811,18.0016 357.851,25.5668 358.6958,33.6236 360.1493,42.1535 362.0623,50.3072 364.3671,58.051 367.2829,66.1803 370.6834,74.2696 374.7459,82.7113 378.6969,90.3724 382.9446,98.5547 387.231,106.8777 391.5132,115.3599 395.8971,124.4689 399.8043,133.3907 403.1254,142.1226 406.0864,151.506 408.4246,161.0444 410.2062,171.1944 411.2806,181.4249 411.6494,190.7348 411.4806,200.0775 410.8052,209.9307 409.5344,220.2628 407.6816,230.0329 405.3354,239.2107 402.2795,248.7321 398.6712,258.0881 394.086,268.079 389.7946,275.9048 384.4615,284.1711 377.9499,292.6902 371.8246,299.5241 364.9062,306.1649 357.491,312.2602 349.6139,317.7989 341.7836,322.5167 333.2597,326.8679 324.0548,330.7104 315.5338,333.5059 305.9468,335.8493 297.1632,337.3032 287.8648,338.1464 278.1143,338.2408 268.9124,337.5633 260.3216,336.2219 250.6228,333.8556 242.0839,330.9783 233.8292,327.4374 226.2829,323.496 219.0638,319.0203 211.847,313.7689 205.0064,308.0185 198.1681,301.4889 191.9775,294.8381 186.3974,288.1525 180.3285,279.9836 175.4534,272.5715 170.6471,264.4588 166.1772,256.5887 161.3952,248.2371 156.2173,239.438 151.1349,231.0889 145.6262,222.2684 141.6155,215.9511 137.1562,209.1055 132.8721,202.9098 128.4742,197.0782 123.9253,191.7164 120.3858,188.0825 116.1328,184.3403 111.7059,181.1281 106.5949,178.2322 101.987,176.3258 97.2405,175.007 92.166,174.2601 86.5358,174.1788 81.6197,174.6826 76.4982,175.8024 71.5415,177.5433 66.7584,179.8953 62.419,182.6864 57.8872,186.3443 53.8503,190.3485 50.1147,194.8441 46.8601,199.5521 43.7671,204.9451 40.8844,211.0448 38.204,217.8504 36.2994,223.3536 34.1895,230.0678 32.1419,237.3884 30.4175,244.6172 29.022,252.093 28.0661,259.3919 27.4694,267.2592 27.2744,275.711 27.436,283.9228 27.8768,292.2807 28.5385,300.3466 29.5458,309.8364 30.497,318.1713 31.4681,326.6388 32.6146,336.6054 33.6752,345.8125 34.6956,354.6833 35.7254,363.6705 36.9252,374.2084 37.8927,382.9257 38.9122,393.2296 39.6603,404.1843 39.9192,412.7549 39.8533,422.9415 39.3385,433.2175 38.2444,444.0694 36.6427,454.4316 34.612,464.2722 31.9377,474.5974 28.7113,484.8583 24.7511,495.5377 20.4778,505.6098 15.6014,516.1275 10.5064,526.6609 5.9721,535.7002 1.0172,545.2468 -4.672,555.7925 -10.6285,566.2983 -16.2964,575.7295 -22.2244,585.0645 -28.7545,594.8001 -35.5736,604.4385 -42.6847,613.9674 -50.4651,623.8442 -58.1712,633.1187 -65.7557,641.8026 -74.0263,650.7914 -82.5975,659.6042 -91.9276,668.6449 -100.6533,676.6262 -111.0664,685.6429 -120.76,693.6879 -130.1109,701.2589 -139.579,708.78 -150.1834,717.0228 -159.9013,724.4146 -170.2533,732.1248 -181.7771,740.5265 -191.7535,747.6494 -201.4468,754.4229 -211.0582,761.0111 -219.9781,767.0623 -229.0515,773.1758 -236.2911,778.0352 -243.3754,782.7634 -249.6908,786.909 -256.1326,790.9591 -262.8179,794.7926 -269.1882,797.9802 -275.5552,800.6628 -282.3138,802.8795 -288.9306,804.4264 -295.2959,805.3233 -301.6541,805.5063 -308.3732,805.0459 -316.1515,803.9205 -322.1969,802.4745 -328.4481,800.3258 -334.9152,797.4991 -341.6001,793.9799 -347.9666,790.3198 -354.4388,786.5641 -360.6922,782.9266 -367.3796,779.0247 -374.8587,774.6486 -381.7675,770.5986 -388.0778,766.8945 -395.1833,762.7074 -403.0997,757.9966 -410.0145,753.8265 -417.3553,749.3281 -424.3896,744.9507 -431.8503,740.2231 -439.3264,735.3164 -447.1305,729.8931 -454.1202,724.7218 -461.3981,719.0166 -468.7799,712.8627 -475.1563,707.2 -480.5702,702.051 -485.6683,696.634 -490.5314,690.6773 -494.1113,685.4609 -497.3613,679.7401 -499.9323,674.12 -502.2461,667.4562 -503.6441,661.6218 -504.5748,654.8461 -504.7931,649.6422 -504.4997,643.6071 -503.514,637.1378 -502.1328,631.7647 -500.3199,626.6389 -497.7054,621.0819 -494.8725,616.402 -491.7827,612.2695 -488.2896,608.3535 -483.7649,604.1099 -479.4695,600.7493 -474.5885,597.544 -469.0845,594.5366 -463.4786,591.9782 -457.9196,589.5699 -451.9005,586.8983 -446.0427,584.2017 -439.8067,581.0676 -433.3366,577.2476 -426.7675,572.5835 -421.9022,568.5094 -416.4801,563.2223 -411.2177,557.098 -406.6564,550.7505 -402.0087,542.9083 -399.2269,537.1995 -396.0444,529.0574 -394.0168,522.2022 -392.3504,514.0708 -391.4243,505.9993 -391.075,499.5484 -391.0747,492.9539 -391.532,486.6334 -392.5083,480.8148 -393.9078,475.7068 -395.823,470.7224 -398.3847,465.7748 -401.4637,461.1721 -405.1654,456.7998 -409.0949,453.154 -413.3344,450.0179 -417.5997,447.55 -422.5253,445.4583 -427.347,444.109 -432.0211,443.3842 -437.0132,443.1419 -442.0276,443.4253 -447.53,444.283 -452.2253,445.4804 -457.3121,447.2815 -461.8047,449.3518 -466.3984,451.9782 -470.8373,455.0293 -474.8889,458.3376 -478.9591,462.2854 -482.7984,466.6758 -486.7069,471.6832 -490.558,476.6402 -494.3534,481.497 -498.5142,486.7418 -503.1203,492.3416 -507.7917,497.6998 -512.7706,503.0364 -517.7882,508.0621 -523.3495,513.3019 -529.7596,518.9939 -535.5804,523.7761 -542.0827,528.54 -548.9919,532.9334 -556.6505,537.1328 -563.4805,540.3627 -571.602,543.6452 -577.8567,545.7625 -584.5782,547.7532 -590.0901,549.162 -595.7532,550.2146 -600.8946,550.6498 -606.3419,550.5486 -611.7513,549.8641 -617.5732,548.4263 -622.1705,546.7316 -627.4997,544.0421 -631.5457,541.3729 -635.8054,537.7976 -639.3441,533.9868 -642.1775,530.0383 -644.6874,525.3245 -646.4678,520.5643 -647.6246,515.8536 -648.2928,510.7697 -648.4281,505.6521 -648.0267,500.2903 -647.0959,495.2552 -645.6413,490.3858 -643.7819,485.8991 -641.0482,480.8798 -638.1949,476.7457 -634.9261,472.8028 -631.0374,468.8905 -626.6921,465.2363 -621.7337,461.527 -616.8239,457.8753 -612.0137,454.274 -606.7842,450.364 -601.3861,446.3365 -595.5408,441.9839 -589.2276,437.2911 -583.9214,433.3533 -578.1882,429.1053 -571.3886,424.0762 -565.4022,419.6554 -559.3018,415.158 -552.7535,410.3376 -546.0768,405.4307 -538.2451,399.6799 -532.3557,395.3521 -525.3204,390.1772 -517.446,384.3899 -510.5312,379.3167 -503.5168,374.1698 -496.0601,368.6347 -488.5538,362.9546 -480.5985,356.8717 -473.3169,351.3091 -465.573,345.4019 -457.3403,339.1319 -449.0046,332.7947 -441.7798,327.3096 -433.6671,321.1582 -425.0533,314.6371 -416.7598,308.3685 -408.8026,302.3603 -399.5161,295.3127 -391.8727,289.4598 -382.4568,282.2283 -373.8124,275.6006 -365.0898,268.9219 -356.7327,262.5316 -348.3084,256.0985 -338.9213,248.9409 -329.9089,242.0798 -321.2885,235.5177 -311.7341,228.1675 -302.6161,221.0677 -293.9056,214.286 -283.7641,206.4019 -275.4108,199.9163 -266.0713,192.6739 -255.7285,184.664 -246.7382,177.7103 -237.6953,170.7237 -228.1202,163.3348 -217.5215,155.1676 -208.3133,148.0812 -199.0551,140.9651 -188.7651,133.0659 -178.4157,125.1317 -169.4978,118.3045 -159.0503,110.2953 -149.5833,102.976 -139.0884,94.8276 -129.0413,87.0389 -119.4517,79.6133 -109.3105,71.7704 -98.6116,63.5076 -88.3753,55.6128 -78.6094,48.0902 -68.286,40.1505 -57.3993,31.7912 -46.4672,23.4078 -36.5377,15.8032 -26.573,8.1801 -16.0459,0.1374"/>
	<!-- Raw distance reference points -->
	<polyline id="dist" fill="none" stroke="none" stroke-width="0" points="4492.9976,0.1631 17.0713,0.1573 30.1739,0.1554 43.3244,0.1432 56.5221,0.1431 69.7664,0.1411 83.0569,0.1367 96.3765,0.1357 109.7352,0.1256 123.1318,0.1079 136.5621,0.1014 150.0281,0.0922 163.5332,0.087 177.0616,0.0798 190.6249,0.0984 204.2287,0.088 217.8564,0.0848 231.5237,0.0767 245.2249,0.0746 258.9579,0.0786 272.7272,0.0802 286.5265,0.0766 300.3552,0.055 314.218,0.0353 328.1132,0.0062 342.0421,-0.0415 356.0113,-0.0994 370.0064,-0.1734 384.0312,-0.2485 398.0888,-0.3253 412.1743,-0.4194 426.2916,-0.5187 440.442,-0.6022 454.6304,-0.7155 468.845,-0.8282 483.0817,-0.9313 497.3451,-1.0184 511.6371,-1.1227 525.9572,-1.2375 540.3069,-1.3461 554.6984,-1.4418 569.1292,-1.5428 583.5669,-1.6507 597.6882,-1.7485 610.9573,-1.8444 623.3683,-1.9304 634.9426,-2.0151 645.7253,-2.0966 655.9172,-2.1687 665.6254,-2.2328 674.8944,-2.3102 683.7504,-2.3722 692.2347,-2.4381 700.2051,-2.4996 707.521,-2.5648 714.1813,-2.6213 720.2336,-2.6892 725.7335,-2.7494 730.857,-2.8214 735.7051,-2.9075 740.3675,-3.0088 744.9197,-3.154 749.3838,-3.2995 753.7029,-3.4716 757.9279,-3.6534 761.6353,-3.8891 766.0389,-4.1768 770.6508,-4.4313 775.3828,-4.7857 780.1379,-5.0959 784.7717,-5.4753 789.2136,-5.8529 793.6031,-6.2169 798.0923,-6.6236 802.8937,-7.075 808.1072,-7.5909 813.6658,-8.1764 819.516,-8.6829 825.6229,-9.2324 831.9954,-9.868 838.624,-10.4841 845.4554,-11.0717 852.503,-11.71 859.7581,-12.3567 867.2057,-12.9904 874.7874,-13.6054 882.5355,-14.2274 890.4056,-14.8141 898.4882,-15.4106 906.8387,-16.0361 915.5118,-16.6343 924.4057,-17.2112 933.4113,-17.6171 942.4623,-18.058 951.626,-18.4733 960.9467,-18.9017 970.4104,-19.2803 980.0073,-19.6637 989.7061,-19.9536 999.5165,-20.2709 1009.4423,-20.5102 1019.4926,-20.7064 1029.655,-20.8958 1039.9219,-21.0586 1050.2983,-21.2063 1060.8035,-21.3119 1071.4187,-21.4025 1082.115,-21.4614 1092.8887,-21.4826 1103.7456,-21.4741 1114.6761,-21.4324 1125.7441,-21.3565 1136.9452,-21.2726 1148.2314,-21.1412 1159.5861,-20.9643 1170.9896,-20.7733 1182.4323,-20.5536 1193.9624,-20.3365 1205.5624,-20.0976 1217.1351,-19.9053 1228.0568,-19.7105 1238.181,-19.5454 1247.6208,-19.4098 1256.3451,-19.3177 1264.4636,-19.2628 1272.3186,-19.248 1279.9869,-19.2586 1287.5527,-19.3057 1295.2827,-19.3797 1304.048,-19.4768 1314.127,-19.5851 1323.4565,-19.6341 1331.4569,-19.7362 1339.5878,-19.8394 1347.7313,-19.9425 1355.7816,-20.0632 1363.9546,-20.2203 1372.3367,-20.4014 1380.8708,-20.6363 1389.656,-20.9274 1398.5875,-21.2852 1407.6715,-21.648 1416.901,-22.0569 1426.2867,-22.5283 1435.8251,-23.0141 1445.5316,-23.5304 1455.4128,-24.0267 1465.4858,-24.4973 1475.6312,-24.9933 1485.684,-25.4841 1495.6141,-26.0055 1505.5001,-26.5238 1515.4045,-26.9939 1525.3951,-27.4764 1535.4636,-27.9841 1545.5869,-28.4988 1555.755,-28.9469 1565.9598,-29.3437 1576.2003,-29.7247 1586.4734,-30.0602 1596.7909,-30.3806 1607.0591,-30.5935 1617.319,-30.7757 1627.8414,-30.9157 1637.9965,-30.9871 1647.9984,-31.0138 1657.8331,-30.9889 1667.5361,-30.9124 1677.1722,-30.806 1686.7932,-30.6759 1696.3569,-30.5223 1705.8531,-30.3576 1715.3077,-30.1602 1724.7429,-29.9582 1734.1876,-29.7116 1743.7131,-29.3979 1753.3744,-29.0532 1763.0404,-28.6792 1772.3439,-28.2031 1781.7207,-27.7301 1790.9806,-27.2102 1800.2139,-26.6779 1809.3773,-26.1091 1818.4506,-25.4833 1827.4459,-24.8608 1836.5354,-24.231 1845.6577,-23.6607 1854.8176,-23.157 1864.071,-22.6206 1873.4082,-22.185 1882.8143,-21.755 1892.3024,-21.3551 1901.8933,-20.9349 1911.6008,-20.4958 1921.3649,-20.0844 1930.8689,-19.6765 1939.7563,-19.3964 1947.9746,-19.1074 1955.5173,-18.8608 1962.4769,-18.6577 1968.8781,-18.4977 1974.7745,-18.4149 1980.2413,-18.3593 1985.4453,-18.3705 1990.6184,-18.4429 1996.1085,-18.5197 2003.1897,-18.5925 2009.2958,-18.6659 2015.2667,-18.7453 2021.1351,-18.8204 2026.8297,-18.8796 2032.3414,-18.9026 2037.8922,-18.901 2043.2677,-18.8761 2048.7227,-18.8585 2054.2869,-18.8692 2060.0234,-18.9014 2065.9534,-18.9538 2072.0901,-19.029 2078.3652,-19.1366 2084.9204,-19.2621 2091.6785,-19.365 2098.5957,-19.4885 2105.7869,-19.6132 2113.0972,-19.7254 2120.6355,-19.8513 2128.2397,-19.9724 2136.0522,-20.1073 2143.9456,-20.2519 2152.092,-20.3907 2160.4136,-20.5294 2168.8843,-20.6827 2177.501,-20.8817 2186.3154,-21.0664 2195.2739,-21.245 2204.3872,-21.4605 2213.6533,-21.6565 2223.0378,-21.8492 2232.5535,-22.0375 2242.196,-22.2709 2251.9614,-22.4572 2261.8525,-22.6641 2271.8523,-22.8745 2281.9883,-23.0503 2292.3364,-23.2626 2303.1194,-23.4615 2313.8232,-23.6895 2324.4705,-23.9151 2335.0901,-24.1276 2345.7383,-24.3577 2356.4548,-24.5894 2367.2385,-24.8586 2378.1057,-25.1549 2389.1199,-25.4874 2400.2573,-25.8497 2411.4875,-26.1783 2422.8145,-26.5506 2434.2119,-26.984 2445.6978,-27.4499 2457.2554,-27.8978 2468.8569,-28.3693 2480.5491,-28.8893 2492.3232,-29.4369 2504.2859,-30.0061 2516.3804,-30.6257 2528.5715,-31.2331 2540.7915,-31.8375 2553.1047,-32.4658 2565.4744,-33.079 2577.8989,-33.6588 2590.3538,-34.138 2602.843,-34.6255 2615.4031,-35.0161 2628.0408,-35.339 2640.7473,-35.6208 2653.4932,-35.886 2666.3081,-36.0758 2679.2083,-36.2308 2692.1624,-36.3471 2705.0823,-36.3763 2717.5513,-36.3609 2729.239,-36.3112 2740.0288,-36.2236 2750.0044,-36.118 2759.2283,-36.0347 2767.7678,-35.9489 2775.7273,-35.8733 2783.3215,-35.8065 2790.6394,-35.7452 2797.7031,-35.6992 2804.4907,-35.6635 2811.0125,-35.6464 2817.6111,-35.6321 2824.894,-35.5912 2834.8943,-35.3833 2841.8826,-35.062 2848.2415,-34.7787 2854.7871,-34.5284 2861.5947,-34.1582 2868.5859,-33.7597 2875.7734,-33.3454 2883.1221,-32.9261 2890.6008,-32.471 2898.2734,-32.0013 2906.0325,-31.4475 2913.9539,-30.7941 2921.9854,-30.146 2930.0935,-29.5798 2938.3831,-28.9336 2946.7493,-28.2036 2955.2908,-27.5956 2963.9104,-26.8969 2972.6409,-26.2271 2981.4858,-25.5386 2990.3459,-24.8541 2999.2224,-24.1265 3008.3076,-23.4474 3017.3662,-22.7274 3026.4333,-21.9707 3034.8958,-21.3034 3042.6948,-20.7156 3049.9248,-20.132 3056.8184,-19.5412 3063.3472,-19.0691 3069.7068,-18.63 3076.0732,-18.2497 3082.4365,-17.8287 3089.2205,-17.475 3095.7388,-17.0969 3102.1113,-16.8298 3108.374,-16.5435 3114.8013,-16.2619 3120.9114,-16.0428 3126.8452,-15.8673 3132.5242,-15.7049 3137.9497,-15.596 3143.2046,-15.5235 3148.4612,-15.4782 3153.7351,-15.4698 3158.5869,-15.4973 3163.9744,-15.5671 3169.8281,-15.6899 3176.1494,-15.8006 3182.8105,-15.8935 3190.3909,-15.9988 3197.5295,-16.0806 3204.9478,-16.1661 3212.2188,-16.2515 3219.7954,-16.3198 3227.4221,-16.3478 3235.3208,-16.3525 3243.1873,-16.2893 3251.4094,-16.1724 3259.8848,-15.9776 3268.0957,-15.8021 3276.4602,-15.5037 3284.6267,-15.2204 3292.5562,-14.8332 3300.3467,-14.4079 3307.5244,-14.0354 3313.9558,-13.6238 3319.8123,-13.2121 3325.24,-12.8171 3330.5964,-12.4617 3336.0222,-12.1018 3341.4329,-11.7189 3346.8096,-11.3415 3352.0952,-10.9686 3357.2595,-10.6117 3362.3025,-10.2967 3367.2908,-10.0294 3372.3843,-9.7415 3377.8674,-9.4656 3384.6055,-9.2048 3390.2307,-8.963 3395.7979,-8.7526 3401.2239,-8.5772 3406.3672,-8.4514 3411.1641,-8.3661 3415.8674,-8.3307 3420.7917,-8.3322 3426.002,-8.3871 3431.4956,-8.474 3437.2183,-8.5859 3443.0999,-8.7215 3449.2017,-8.8759 3455.4805,-9.0088 3461.9812,-9.1272 3468.6785,-9.2444 3475.605,-9.3525 3482.7166,-9.4119 3490.0862,-9.4406 3497.5947,-9.4142 3505.3167,-9.3485 3513.1162,-9.2305 3521.0488,-9.0868 3529.0894,-8.8978 3537.2583,-8.6665 3545.5466,-8.3868 3553.9109,-8.1036 3561.8948,-7.7195 3569.2346,-7.3872 3575.9126,-7.0 3581.8794,-6.6504 3587.3054,-6.2695 3592.6616,-5.9181 3598.0273,-5.5403 3603.3975,-5.1565 3608.7678,-4.7187 3614.0991,-4.355 3619.52,-3.9014 3624.9392,-3.5313 3630.3179,-3.1193 3635.6802,-2.7546 3641.1011,-2.4203 3646.74,-2.0423 3652.6106,-1.6757 3659.6309,-1.3294 3665.6921,-0.9737 3671.5918,-0.6475 3677.4236,-0.3517 3683.27,-0.0953 3689.5862,0.1286 3695.0115,0.3121 3700.2102,0.4898 3705.29,0.6095 3710.5088,0.6677 3715.9514,0.6822 3721.6243,0.6769 3727.5273,0.6528 3733.6389,0.6287 3739.9602,0.6062 3746.4941,0.5818 3753.2305,0.5583 3760.1558,0.5356 3767.2876,0.5066 3774.6101,0.4887 3782.1204,0.4703 3789.8191,0.4521 3797.6445,0.4322 3805.6091,0.4187 3813.7319,0.3934 3822.0291,0.3743 3830.4824,0.3517 3839.0725,0.3306 3847.8018,0.3047 3856.6802,0.2839 3865.6978,0.2601 3874.8508,0.2392 3884.1353,0.2196 3893.5337,0.198 3903.1077,0.1789 3912.7551,0.1661 3922.498,0.1547 3932.3435,0.1423 3942.3037,0.1341 3952.375,0.1267 3962.5537,0.1235 3972.8369,0.1269 3983.2256,0.1177 3993.7166,0.1183 4004.3093,0.116 4015.0027,0.117 4025.7935,0.1187 4036.679,0.1174 4047.656,0.1157 4058.7227,0.1191 4069.8755,0.1166 4081.114,0.1122 4092.4348,0.1106 4103.8359,0.1101 4115.313,0.1103 4126.8643,0.112 4138.4878,0.1073 4150.1631,0.1075 4161.9077,0.1121 4173.7231,0.1222 4185.6118,0.1241 4197.5757,0.1183 4209.6123,0.1167 4221.7124,0.1209 4233.8789,0.1245 4246.106,0.1219 4258.395,0.1251 4270.7471,0.124 4283.1602,0.1247 4295.6309,0.121 4308.1626,0.122 4320.7534,0.1143 4333.4043,0.117 4346.1069,0.1179 4358.8687,0.1146 4371.6885,0.1178 4384.5645,0.1185 4397.499,0.1292 4410.4717,0.1286 4423.4946,0.1294 4436.5659,0.1263 4449.6831,0.1247 4462.8462,0.1259 4476.0562,0.1242 4489.3086,0.1196"/>
</svg>
