<?xml version="1.0" encoding="utf-8"?>
<!-- Track map generated with TinyPedal -->
<svg viewBox="-1011.7456 -93.0643 1878.9282 990.8824" version="1.1" xmlns="http://www.w3.org/2000/svg">
	<title>Imola 2018</title>
	<!-- Sector coordinates index -->
	<desc>139,326</desc>
	<!-- Raw global coordinates -->
	<polyline id="map" fill="none" stroke="black" stroke-width="10" points="-38.8252,-4.4338 -61.8793,-8.4112 -74.1633,-10.2971 -89.2522,-12.3432 -101.6571,-13.7873 -116.8871,-15.2226 -130.7933,-16.1874 -143.3493,-16.7326 -157.3414,-16.9843 -172.7668,-16.8549 -186.8165,-16.422 -200.8887,-15.7367 -213.5722,-14.9436 -227.6913,-13.9811 -243.2632,-12.9485 -256.0302,-12.0427 -271.6615,-10.808 -285.8945,-9.5682 -298.7244,-8.3836 -314.426,-6.8053 -327.2827,-5.3627 -342.915,-3.4441 -355.3943,-1.8204 -368.7455,0.0186 -382.722,2.0956 -393.591,3.8636 -405.0601,5.8774 -416.9491,8.11 -427.1051,10.1431 -436.6188,12.2219 -445.5034,14.3305 -452.9854,16.2093 -461.5463,18.4221 -468.8097,20.4009 -475.6164,22.4219 -481.9839,24.5653 -487.8976,26.9382 -492.8094,29.3347 -498.2653,32.6492 -502.2711,35.6964 -506.6079,39.8461 -509.7227,43.6231 -512.8129,48.2005 -515.5685,53.1551 -518.2556,59.0174 -520.2217,64.12 -522.3468,70.0516 -524.7155,76.1194 -527.8167,82.8062 -531.1956,88.7674 -535.093,94.5582 -539.5827,100.0579 -544.0831,104.6857 -550.1266,109.8855 -556.0782,114.1492 -561.7227,117.748 -568.2624,121.618 -575.1445,125.209 -582.3647,128.4895 -590.6157,131.8945 -597.5129,134.7343 -606.0284,138.4671 -613.7473,142.2855 -620.5912,146.1589 -627.9823,150.9968 -635.772,156.9492 -641.8152,162.2781 -648.7172,169.3158 -653.9716,175.451 -659.8771,183.3921 -664.7529,191.0117 -669.1688,198.9881 -673.1183,207.3091 -676.2986,215.0752 -679.9232,224.8271 -683.1618,233.8613 -686.4293,243.0234 -689.7656,252.299 -692.8421,260.735 -696.705,271.1548 -699.9468,279.7671 -703.9917,290.4048 -707.7482,300.178 -711.584,310.0457 -715.0964,319.0056 -719.8547,331.0739 -723.4946,340.2068 -727.2102,349.4016 -731.4124,359.6956 -736.1052,371.118 -739.9917,380.5345 -744.3498,391.0518 -748.7506,401.6492 -753.1906,412.3267 -758.1365,424.1553 -762.2234,433.8998 -767.2503,445.8928 -771.3455,455.7033 -775.7741,466.3793 -780.4435,477.6834 -784.5009,487.533 -788.3706,497.0026 -791.6851,505.2086 -795.1452,513.9791 -798.5694,523.2535 -801.2672,531.4037 -803.5334,539.3118 -805.3043,547.0052 -806.4294,553.7689 -807.1392,561.9056 -807.1785,568.5527 -806.651,576.7499 -805.7022,584.3047 -804.5067,591.1322 -802.7501,599.2005 -801.127,606.2068 -799.7023,612.9452 -798.5927,619.4656 -797.9207,625.1776 -797.6152,631.9882 -797.8975,638.0624 -798.6766,644.0854 -799.75,649.4758 -801.6536,655.9673 -803.6719,661.1594 -806.7946,667.3019 -809.7957,672.1813 -813.9579,677.9526 -817.7479,682.5092 -822.764,687.9401 -827.6619,692.7531 -832.2363,697.0466 -838.0123,702.2729 -843.5215,706.9464 -848.6667,711.071 -855.1354,716.0105 -861.1702,720.4156 -866.792,724.2921 -873.2698,728.4769 -880.5265,733.1917 -886.5583,737.1855 -893.3499,741.7806 -900.9279,747.0197 -907.2181,751.4341 -915.0053,756.9889 -921.4473,761.6721 -928.659,767.0381 -935.8663,772.5599 -943.4797,778.6152 -949.3141,783.3928 -955.9395,788.9742 -961.4963,793.8345 -966.1198,798.0626 -971.2958,803.0897 -975.1533,807.1346 -978.9999,811.6099 -982.7063,816.5541 -985.3373,820.6308 -987.793,825.1965 -989.7056,829.7645 -991.1144,834.7458 -991.696,838.7416 -991.7456,843.0431 -991.1786,847.1841 -989.8524,851.5692 -988.2717,855.0303 -985.7667,859.0867 -983.2634,862.2155 -979.6816,865.7552 -975.5591,868.9269 -971.7968,871.1735 -967.2543,873.262 -961.8748,875.0231 -957.2134,876.0723 -951.7796,876.9092 -946.0978,877.5052 -940.7822,877.7948 -934.6644,877.8181 -928.3436,877.475 -921.833,876.7961 -914.4541,875.7687 -907.5442,874.6793 -900.4404,873.5026 -893.1462,872.2581 -885.705,870.9646 -878.8718,869.7606 -870.3421,868.2499 -863.2177,866.9972 -854.3299,865.4688 -846.08,864.0889 -837.6699,862.7173 -829.9666,861.4883 -821.2593,860.1279 -812.4004,858.7742 -803.395,857.4208 -793.3416,855.9228 -784.0847,854.5673 -774.704,853.2184 -765.1998,851.8812 -756.5409,850.6919 -745.8251,849.2582 -735.9599,847.9785 -726.9861,846.8458 -715.8995,845.5004 -706.7368,844.4374 -696.4612,843.3085 -685.0403,842.1616 -675.6031,841.3173 -663.9615,840.4228 -654.3493,839.8179 -642.4978,839.2725 -632.728,838.9969 -621.8218,838.9186 -609.7419,839.1437 -598.7001,839.6801 -586.4949,840.6073 -577.5792,841.4788 -565.2609,842.9052 -555.1346,844.2817 -542.6933,846.1639 -532.4578,847.8503 -519.919,850.0596 -509.8586,851.8743 -499.133,853.7866 -488.9743,855.5622 -479.3654,857.2242 -469.3814,858.9333 -461.6125,860.2213 -452.5345,861.6611 -445.4109,862.7153 -437.0279,863.786 -429.6861,864.4209 -422.5931,864.6172 -416.3972,864.3839 -409.0261,863.5143 -403.1485,862.2674 -396.7837,860.2982 -389.9752,857.4619 -383.9665,854.3184 -378.1676,850.6732 -373.1642,846.9896 -367.3669,841.9767 -362.9048,837.4708 -358.3092,832.0171 -354.0557,826.1417 -349.7374,819.2097 -346.1097,812.508 -343.0222,806.2017 -339.7258,798.9335 -336.3041,790.6198 -333.4066,782.7747 -330.9804,775.4897 -328.5043,767.1536 -326.0749,757.6997 -324.3235,749.7554 -322.4859,739.804 -321.1189,730.5433 -320.1566,722.0718 -319.382,711.5218 -319.0589,701.7568 -319.1086,690.8394 -319.4223,681.7841 -319.9886,672.6329 -321.0031,662.3577 -322.4752,650.9251 -323.9851,641.4846 -326.1665,629.843 -328.4591,619.1837 -330.7903,609.5665 -334.0017,597.7687 -337.1481,586.9748 -340.3757,576.0886 -343.4962,565.2163 -346.3382,554.6435 -348.5751,545.4682 -350.8924,534.6914 -352.4464,526.2064 -353.859,516.2047 -354.5691,508.2988 -354.8438,499.7619 -354.4703,491.4794 -353.4581,483.4316 -351.725,475.5614 -349.2713,467.7849 -345.9171,459.2903 -342.521,451.654 -339.2835,445.084 -335.5934,438.2384 -331.9524,431.8744 -328.4197,425.9459 -324.9799,420.4128 -321.2745,414.7773 -318.2624,410.5248 -314.8617,406.2159 -310.9914,402.0309 -306.9543,398.493 -303.5295,396.1174 -299.9786,394.2084 -295.398,392.4456 -291.0211,391.3233 -286.4451,390.6264 -281.6734,390.4181 -277.2289,390.5733 -271.6106,391.1078 -266.326,391.9275 -261.4442,392.9548 -255.3294,394.5686 -250.1866,396.0857 -243.695,398.0057 -238.1828,399.5179 -231.215,401.297 -224.6632,402.8298 -217.871,404.1398 -210.8611,405.2227 -203.6867,406.1617 -195.5945,407.0391 -188.8192,407.6318 -181.1298,408.1308 -173.2742,408.4585 -166.0657,408.6197 -157.0802,408.6675 -148.7471,408.5843 -141.1172,408.4205 -131.6232,408.1295 -122.8348,407.7916 -114.8331,407.4403 -104.9181,406.9568 -96.6929,406.5298 -86.502,405.993 -77.1064,405.5023 -68.5443,405.0611 -57.9443,404.5282 -48.1803,404.0619 -39.2889,403.6624 -29.2972,403.2534 -18.1716,402.8549 -8.9658,402.5544 2.4081,402.2088 11.7787,401.9426 23.3269,401.6246 32.8548,401.3571 43.5269,401.0734 55.3726,400.8051 66.2389,400.6551 76.0975,400.63 88.2345,400.6683 98.0317,400.7031 108.4612,400.7367 118.2932,400.7689 128.4241,400.7954 136.2181,400.8025 144.4078,400.8094 152.1331,400.8249 160.1084,400.8662 166.2242,400.9331 172.5868,401.0732 179.0486,401.4389 183.9153,401.9888 189.4001,403.0471 193.5508,404.2351 197.8162,405.8734 202.1096,408.0748 205.3809,410.1808 208.8176,412.8605 211.995,415.8641 215.129,419.1917 217.5793,421.7318 220.637,424.4034 223.532,426.3531 226.2406,427.7879 229.7629,429.1291 233.5508,430.0346 236.4786,430.4497 240.3658,430.636 244.9411,430.4421 249.3612,429.885 253.9835,428.8736 258.7683,427.3713 263.1641,425.5833 268.6001,422.9622 273.7999,420.5187 279.2637,418.0278 284.9578,415.5058 290.2868,413.1803 296.4252,410.5207 302.7845,407.777 310.0259,404.6619 316.825,401.7425 323.0824,399.0611 330.2003,396.0164 338.2277,392.5815 345.6982,389.3727 352.5592,386.4126 360.3271,383.033 368.2265,379.5205 377.0589,375.4937 385.201,371.6632 392.5961,368.0879 400.866,363.9382 410.0255,359.1336 417.5155,354.9415 426.648,349.4798 434.9831,344.2942 442.51,339.4535 451.7351,333.3079 460.1454,327.5087 468.5789,321.5152 477.0206,315.3146 484.616,309.5521 493.8473,302.2268 501.3324,295.9837 510.3512,288.0595 518.4145,280.5565 525.5969,273.5983 533.5148,265.6696 542.2017,256.7644 550.0887,248.5152 557.2006,240.99 565.1403,232.536 573.2014,224.0655 582.2663,214.7868 590.6767,206.3792 598.3911,198.8436 607.1106,190.4956 615.9799,182.1676 624.9846,173.8529 634.1376,165.5616 644.3622,156.4966 652.9,149.185 662.6176,141.2741 672.6128,133.7314 683.9473,125.9642 694.5229,119.4014 704.1809,113.912 716.0103,107.7595 726.5641,102.6038 736.806,97.8457 745.7205,93.8988 755.2725,89.8307 764.3831,86.0145 773.8504,82.0758 781.1556,79.0672 789.5533,75.6098 796.704,72.6618 802.749,70.1642 809.028,67.5354 814.8499,65.0252 820.7298,62.3154 825.5594,59.7804 829.47,57.3511 833.6896,54.144 837.0076,50.9829 839.597,47.9558 842.2634,43.9928 844.2111,40.1075 845.6943,35.9923 846.6766,31.6494 847.1663,27.1311 847.1826,22.9473 846.7441,18.1696 845.737,12.7598 844.5296,8.2212 842.647,2.5243 840.6013,-2.8115 838.5427,-7.7533 836.0587,-13.4133 833.1465,-19.8639 830.1233,-26.4236 827.9327,-31.0653 824.9351,-37.1617 822.4586,-41.8996 819.302,-47.3695 816.202,-51.9857 813.1722,-55.8198 809.1263,-60.056 805.5428,-63.1248 800.8612,-66.3313 796.8205,-68.472 792.117,-70.329 787.1543,-71.6798 781.3747,-72.6459 775.8582,-73.0643 770.1232,-73.0394 764.1871,-72.5855 758.6872,-71.8175 751.7971,-70.3963 745.4107,-68.6216 739.5724,-66.6581 732.9517,-64.2009 726.1921,-61.5848 719.2944,-58.8233 710.8082,-55.3666 704.2805,-52.7114 696.8544,-49.7276 690.0133,-47.0234 681.4548,-43.6909 673.4918,-40.6331 664.5394,-37.232 657.9167,-34.7333 649.5316,-31.5886 640.1522,-28.0898 631.4876,-24.8672 622.6959,-21.5972 614.6766,-18.6129 605.6479,-15.2572 596.493,-11.8651 586.2781,-8.098 576.8619,-4.6401 568.2827,-1.5031 557.666,2.363 548.8688,5.5393 538.969,9.0515 527.9169,12.8481 518.7313,15.8407 508.3665,19.003 496.7968,22.2856 487.2111,24.7919 475.33,27.6026 464.3694,29.8536 453.2621,31.8178 442.0216,33.5042 430.6581,34.9308 420.3328,35.9857 408.759,36.922 395.9137,37.6893 385.3205,38.1164 371.0857,38.4441 360.3309,38.5292 349.511,38.5031 337.4146,38.3907 324.0197,38.1772 312.9923,37.9817 299.4317,37.7451 288.2707,37.5381 274.5512,37.2665 262.0075,36.9993 250.6893,36.7291 236.7946,36.3483 222.8334,35.9136 212.6391,35.5562 198.5677,34.9913 185.7244,34.362 172.8368,33.5774 159.9122,32.5841 148.2557,31.4761 135.2832,30.0019 120.9953,28.0889 107.9937,26.0991 94.9853,23.8696 83.2729,21.6675 70.2503,19.0387 57.203,16.2989 42.8089,13.2278 30.9907,10.7125 17.8077,7.9567 3.2435,4.9834 -8.7218,2.5979 -23.4054,-0.2565 -36.8125,-2.7792"/>
	<!-- Raw distance reference points -->
	<polyline id="dist" fill="none" stroke="none" stroke-width="0" points="4903.332,-13.9601 21.7466,-13.7712 35.5039,-13.6646 49.2956,-13.5357 63.1441,-13.4458 77.0339,-13.3241 90.945,-13.2276 104.8878,-13.1586 118.8678,-13.1154 132.8816,-13.0403 146.9328,-12.9719 161.0184,-12.964 175.1403,-12.997 189.2895,-12.9168 203.4688,-12.9108 217.6826,-12.9408 231.9336,-12.9957 246.218,-12.962 260.5287,-12.9391 274.8668,-12.9371 289.2443,-12.9439 303.5658,-12.9069 317.5398,-12.8847 330.9771,-12.8793 343.8128,-12.9305 356.0456,-12.9432 367.6683,-12.9299 378.6462,-12.904 389.0182,-12.9029 398.7774,-12.9054 407.9392,-12.9062 416.515,-12.9015 424.562,-12.9189 432.1113,-12.9247 439.2243,-12.9158 445.9384,-12.9032 452.2773,-12.8966 458.3276,-12.8933 464.2653,-12.8911 470.2197,-12.8913 476.3152,-12.8895 483.1271,-12.8684 488.9734,-12.8465 494.6478,-12.8266 500.3901,-12.825 506.3763,-12.8445 512.6489,-12.8732 519.2443,-12.912 526.231,-12.9445 534.0044,-12.9301 541.4439,-12.9311 549.1712,-12.8985 556.4086,-12.8581 563.5619,-12.8067 570.77,-12.7534 578.1497,-12.7151 585.7359,-12.6702 593.5082,-12.6152 601.4407,-12.5527 609.5427,-12.4809 617.8125,-12.4317 626.2573,-12.381 634.8612,-12.3402 643.5979,-12.3127 652.6466,-12.2731 661.8011,-12.2293 671.423,-12.1988 680.9642,-12.1452 690.2055,-12.1138 699.0978,-12.0601 707.9608,-12.0104 716.9883,-11.9849 726.1898,-11.9735 735.5262,-11.9539 744.9776,-11.9262 754.5632,-11.8946 764.2763,-11.8708 774.1229,-11.86 784.0859,-11.8391 794.1805,-11.8002 804.4122,-11.7791 814.7626,-11.7546 825.2283,-11.7314 835.8058,-11.7103 846.4949,-11.6654 857.3023,-11.6248 868.2151,-11.5923 879.2326,-11.5498 890.3552,-11.5244 901.5829,-11.4991 912.9033,-11.475 924.2916,-11.4519 935.7702,-11.439 947.3354,-11.4247 958.9899,-11.3974 970.7319,-11.3705 982.5583,-11.3531 994.3643,-11.3221 1005.903,-11.2726 1017.0212,-11.2048 1027.6923,-11.1655 1037.9408,-11.1395 1047.7722,-11.1067 1057.1785,-11.0891 1066.1682,-11.071 1074.7615,-11.0511 1082.9584,-11.0255 1090.7765,-10.9885 1098.4048,-10.9597 1105.9338,-10.9133 1113.8289,-10.8679 1121.5968,-10.8047 1129.4646,-10.7495 1137.1558,-10.7161 1144.6539,-10.6738 1151.8553,-10.6395 1158.7466,-10.5926 1165.3455,-10.5394 1171.6669,-10.5103 1177.8557,-10.4857 1184.2072,-10.4209 1190.9165,-10.3303 1198.6584,-10.2785 1205.4547,-10.1923 1211.9489,-10.1581 1218.1766,-10.0683 1224.2258,-10.0015 1230.5054,-9.9277 1236.9843,-9.8715 1243.6306,-9.8208 1250.4575,-9.7766 1257.4056,-9.7467 1264.4764,-9.6965 1271.6963,-9.6362 1279.0385,-9.57 1286.4297,-9.4674 1293.8867,-9.3525 1301.4498,-9.2743 1309.1122,-9.1756 1316.92,-9.0588 1324.9082,-8.9421 1333.0746,-8.7973 1341.4167,-8.6331 1349.9279,-8.4787 1358.6007,-8.255 1367.4344,-8.0424 1376.423,-7.7792 1385.4984,-7.4715 1394.3461,-7.1019 1402.7354,-6.8191 1410.6193,-6.5005 1418.0339,-6.2471 1424.9939,-6.0455 1431.5295,-5.8123 1437.6567,-5.6493 1443.5054,-5.4836 1449.1136,-5.304 1454.5295,-5.1598 1459.7896,-4.9943 1464.9199,-4.8277 1469.9185,-4.6276 1474.7893,-4.4508 1479.5591,-4.256 1484.3005,-4.0696 1489.1079,-3.8564 1493.9199,-3.6867 1498.7906,-3.476 1503.861,-3.2884 1509.115,-3.0458 1514.5476,-2.7984 1520.1096,-2.5733 1525.7135,-2.3153 1531.2312,-2.0184 1536.6229,-1.772 1542.041,-1.4629 1547.5826,-1.1346 1553.4055,-0.8297 1559.4994,-0.5108 1565.8411,-0.2026 1572.4022,0.0915 1579.1777,0.3996 1586.1625,0.6771 1593.3513,0.9593 1600.7396,1.2424 1608.2843,1.535 1615.9908,1.8056 1623.863,2.1547 1631.9008,2.4634 1640.1019,2.852 1648.4585,3.2069 1656.9723,3.5434 1665.6401,3.8378 1674.4611,4.1337 1683.4325,4.4157 1692.5487,4.702 1701.7915,5.0081 1711.1433,5.2875 1720.619,5.5909 1730.2162,5.9155 1739.9329,6.207 1749.767,6.5742 1759.7179,6.9254 1769.7793,7.3158 1779.947,7.8798 1790.2147,8.4236 1800.5779,9.1045 1811.0322,9.8794 1821.5743,10.5038 1832.2084,11.3094 1842.9489,11.9749 1853.7935,12.7949 1864.7272,13.4521 1875.7318,14.1662 1886.8092,14.8742 1897.9651,15.5138 1909.1979,16.2365 1920.4758,16.7159 1931.8191,17.177 1943.2421,17.4429 1954.7213,17.5976 1966.2721,17.5689 1977.8538,17.4911 1989.2109,17.4181 2000.0854,17.3157 2010.3751,17.2013 2020.1096,17.1095 2029.3203,17.0645 2038.0704,17.0425 2046.4243,17.0388 2054.4221,17.0423 2062.0925,17.04 2069.4399,17.0192 2076.4709,16.9763 2083.3455,16.9118 2090.1658,16.828 2097.3889,16.7803 2104.4531,16.7507 2111.6096,16.7247 2119.2236,16.6862 2126.4246,16.6167 2133.8325,16.5142 2140.8645,16.3445 2147.8809,16.1619 2154.8738,15.9686 2162.0188,15.7487 2169.3831,15.482 2176.97,15.2376 2184.7473,15.0317 2192.7368,14.8018 2200.9058,14.5339 2209.2307,14.2849 2217.6736,14.0508 2226.3013,13.7754 2235.1353,13.4555 2244.1865,13.1592 2253.4231,12.725 2262.8411,12.2572 2272.4431,11.761 2282.1519,11.0808 2292.0691,10.4265 2302.2163,9.6932 2312.5012,9.0092 2322.8325,8.2076 2333.1912,7.3125 2343.6841,6.2933 2354.3313,5.4864 2365.125,4.5677 2376.0527,3.7823 2387.0767,3.0639 2398.2053,2.2475 2409.438,1.5594 2420.7725,0.9153 2432.0786,0.353 2443.0671,-0.1917 2453.5813,-0.6498 2463.616,-1.1769 2473.2092,-1.6029 2482.3657,-2.1168 2491.1228,-2.5344 2499.5281,-2.9994 2507.9666,-3.4031 2516.3901,-3.7899 2525.3589,-4.1153 2533.9751,-4.3705 2542.2068,-4.589 2550.4712,-4.757 2558.5579,-4.8859 2566.293,-4.9895 2573.5952,-5.0616 2580.4741,-5.1111 2586.9685,-5.1113 2593.1025,-5.0654 2598.8921,-5.0072 2604.3386,-4.9164 2609.4409,-4.8017 2614.1821,-4.675 2618.709,-4.5544 2623.4612,-4.4181 2628.7063,-4.2103 2634.3499,-3.9583 2640.1001,-3.6894 2645.4893,-3.3581 2650.4265,-3.0301 2655.3398,-2.6145 2660.512,-2.2133 2665.9617,-1.83 2671.6726,-1.3152 2677.6931,-0.8628 2684.0493,-0.2579 2690.7556,0.2979 2698.1204,1.0541 2705.1401,1.7318 2712.1963,2.3614 2719.3647,2.9663 2726.5598,3.5399 2733.9133,4.1496 2741.4324,4.6287 2749.1213,5.145 2756.9783,5.6409 2764.9973,6.0724 2773.1768,6.5751 2781.5137,6.9895 2789.9995,7.3554 2798.6348,7.7386 2807.4243,8.0563 2816.3257,8.3055 2825.3481,8.5949 2834.4983,8.8383 2843.7727,9.1336 2853.1716,9.4028 2862.6953,9.6397 2872.3403,9.9337 2882.1091,10.2031 2891.9971,10.4395 2902.0029,10.715 2912.1221,11.0408 2922.3564,11.299 2932.7104,11.6283 2943.1274,11.9237 2953.6201,12.3087 2964.2144,12.6031 2974.9021,12.9114 2985.6716,13.1806 2996.5332,13.3617 3007.4878,13.4996 3018.5212,13.5795 3029.4043,13.6547 3039.8032,13.7218 3049.6042,13.7989 3058.813,13.8888 3067.4756,13.9629 3075.6443,14.0187 3083.3494,14.0959 3090.5989,14.1736 3097.3926,14.2283 3103.7292,14.2809 3109.6001,14.3291 3115.0022,14.366 3119.978,14.4196 3124.5886,14.4673 3129.0547,14.5273 3134.1069,14.619 3140.2007,14.6948 3145.7935,14.7505 3150.1108,14.8275 3153.8975,14.8939 3157.697,14.9212 3162.1843,14.93 3167.5112,14.9563 3173.0305,14.9371 3177.9277,14.8746 3181.6921,14.8459 3184.9514,14.8205 3188.5486,14.7943 3192.4634,14.7512 3196.7395,14.6733 3201.3748,14.5788 3206.3496,14.468 3211.6206,14.3571 3217.1011,14.2143 3222.8303,14.0861 3228.8252,13.9541 3235.0417,13.8146 3241.5071,13.678 3248.208,13.544 3255.1399,13.4007 3262.2964,13.2282 3269.686,13.0722 3277.2588,12.9453 3285.0168,12.8131 3292.9634,12.6713 3301.0864,12.5514 3309.3899,12.4457 3317.8677,12.3066 3326.5166,12.1741 3335.3357,11.9863 3344.3083,11.7916 3353.4062,11.6113 3362.6472,11.4062 3372.0383,11.2298 3381.5735,11.08 3391.2473,10.9359 3401.0593,10.7598 3411.0027,10.5595 3421.0774,10.2773 3431.2881,10.0012 3441.6326,9.7021 3452.1025,9.4358 3462.6938,9.2076 3473.4082,8.9325 3484.2651,8.6943 3495.2214,8.4055 3506.2786,8.1601 3517.4045,7.9783 3528.6174,7.8022 3539.9268,7.5586 3551.3286,7.3357 3562.832,7.0768 3574.4343,6.789 3586.1345,6.4397 3597.9358,5.9935 3609.833,5.536 3621.8208,5.0964 3633.9053,4.5634 3646.0806,4.0182 3658.3474,3.3644 3670.7063,2.6906 3683.1245,1.8703 3695.5969,1.1693 3708.2429,0.3342 3720.9114,-0.5361 3733.6035,-1.4762 3746.2329,-2.3202 3758.873,-3.0985 3771.1458,-4.0111 3783.001,-4.8328 3794.3528,-5.6072 3805.2161,-6.2915 3815.6042,-7.0394 3825.4807,-7.7306 3834.8208,-8.4427 3843.6162,-8.9888 3851.8865,-9.6049 3859.6614,-10.1185 3866.946,-10.5515 3873.7451,-10.9885 3880.0752,-11.3765 3885.9683,-11.7506 3891.4307,-12.0653 3896.4609,-12.331 3901.1851,-12.6289 3905.6765,-12.8826 3910.2126,-13.1217 3914.8962,-13.4239 3919.7261,-13.6874 3924.6006,-13.9448 3929.4597,-14.1578 3934.2297,-14.3358 3938.8445,-14.475 3943.4565,-14.6144 3948.3101,-14.7598 3953.4629,-14.8718 3958.8855,-15.0109 3964.5774,-15.1228 3970.5298,-15.2153 3976.7366,-15.3044 3983.1748,-15.3819 3989.749,-15.4555 3996.1733,-15.5161 4002.3264,-15.5956 4008.2439,-15.6457 4013.9453,-15.7067 4019.4126,-15.7677 4024.6868,-15.8239 4029.936,-15.8754 4035.2354,-15.9124 4040.5857,-15.9575 4045.9712,-15.9972 4051.856,-16.0367 4057.4277,-16.0659 4063.135,-16.0943 4068.9836,-16.1209 4074.8809,-16.1415 4080.7849,-16.1545 4086.8127,-16.1703 4093.1206,-16.2099 4099.7134,-16.2701 4106.5591,-16.3426 4113.6313,-16.4287 4120.8853,-16.5103 4128.3174,-16.5995 4135.9414,-16.6979 4143.752,-16.7443 4151.7446,-16.7839 4159.918,-16.8155 4168.2671,-16.8502 4176.7852,-16.8655 4185.4702,-16.8528 4194.3037,-16.8519 4203.2622,-16.8444 4212.3657,-16.8335 4221.6055,-16.8355 4230.9766,-16.8106 4240.481,-16.8034 4250.1201,-16.768 4259.8926,-16.7386 4269.7905,-16.7178 4279.8091,-16.7008 4289.9624,-16.683 4300.23,-16.6467 4310.6138,-16.6289 4321.1157,-16.6093 4331.7974,-16.5989 4342.625,-16.5834 4353.6001,-16.5742 4364.6558,-16.5614 4375.8008,-16.559 4387.2173,-16.5611 4398.6792,-16.5345 4410.1831,-16.504 4421.7598,-16.4588 4433.3154,-16.4114 4444.8755,-16.3563 4456.4985,-16.2908 4468.1768,-16.229 4479.9453,-16.1736 4491.8018,-16.1362 4503.7432,-16.1046 4515.7646,-16.0646 4527.8657,-16.0389 4540.0444,-15.9903 4552.2983,-15.9473 4564.6284,-15.8948 4577.0312,-15.8651 4589.5054,-15.8106 4602.0479,-15.7713 4614.6274,-15.7351 4627.2632,-15.6669 4639.9531,-15.6015 4652.6904,-15.5368 4665.481,-15.5026 4678.3237,-15.4458 4691.2168,-15.4081 4704.1411,-15.3834 4717.4907,-15.3491 4731.0073,-15.278 4744.291,-15.1455 4757.5083,-15.0104 4770.7012,-14.895 4783.9351,-14.8198 4797.2148,-14.7148 4810.5493,-14.6329 4823.939,-14.5428 4837.3662,-14.4508 4850.8408,-14.3725 4864.3555,-14.2496 4877.9014,-14.1629 4891.498,-14.0623 4905.1328,-13.9755"/>
</svg>
