<?xml version="1.0" encoding="utf-8"?>
<!-- Track map generated with TinyPedal -->
<svg viewBox="-110.0000 -110.0000 1220.0000 687.4088" version="1.1" xmlns="http://www.w3.org/2000/svg">
	<title>Indianapolis Motor Speedway</title>
	<!-- Sector coordinates index -->
	<desc>140,280</desc>
	<!-- Raw global coordinates -->
	<polyline id="map" fill="none" stroke="black" stroke-width="10" points="585.1929,465.1821 591.6390,465.1119 598.0852,465.0416 604.5314,464.9714 610.9776,464.9012 617.4238,464.8310 623.8700,464.7608 630.3162,464.6905 636.7624,464.6203 643.2086,464.5501 649.6547,464.4799 656.1009,464.4097 662.5471,464.3394 668.9933,464.2692 675.4395,464.1990 681.8857,464.1288 688.3319,464.0586 694.7781,463.9883 701.2242,463.9181 707.6704,463.8479 714.1166,463.7777 720.5628,463.7075 727.0090,463.6372 733.4552,463.5670 739.9014,463.4968 746.3476,463.4266 752.7937,463.3564 759.2399,463.2861 765.6861,463.2159 772.1323,463.1457 778.5785,463.0755 785.0247,463.0053 789.3986,462.9543 792.7747,462.8528 799.0199,462.5819 806.9733,462.0824 815.4740,461.2955 823.3610,460.1620 829.8777,458.5830 836.1064,456.5132 842.1731,454.0798 848.0703,451.3881 853.7903,448.5429 859.3254,445.6495 865.1751,442.4989 870.9548,439.2135 876.4982,435.8000 881.7283,432.2183 886.5684,428.4283 891.4850,423.9091 896.1444,418.9574 900.3027,413.8966 903.8885,408.9003 907.1680,403.5482 910.1038,397.5540 912.1633,391.8320 913.7933,385.8111 915.0553,379.4936 915.8516,373.0889 916.1798,366.6490 915.9947,360.2192 915.1249,353.8284 913.7467,347.5284 911.4773,340.2517 908.7125,332.9985 907.2470,329.3338 904.9149,323.3238 902.5828,317.3139 900.2506,311.3039 897.9185,305.2940 895.5864,299.2840 893.2543,293.2741 890.9222,287.2641 888.5900,281.2542 887.7190,276.8512 889.9632,268.7405 894.0487,263.6152 899.0627,259.9932 904.0390,257.6507 909.6812,256.3229 917.7703,255.9096 924.3487,255.7668 930.6814,255.6461 936.9884,255.5624 943.3767,255.5067 949.1105,255.3831 955.0398,255.2508 962.3813,255.1929 968.7981,254.9963 974.3929,254.6282 980.6480,254.1297 988.5993,253.4931 994.7480,250.9655 998.2980,246.1228 999.5613,242.6831 999.6718,240.4070 999.7684,236.6731 999.8500,231.6580 999.9151,225.5380 999.9627,218.4897 999.9914,210.6893 1000.0000,202.3134 999.9872,193.5384 999.9518,184.5407 999.8926,175.4968 999.8082,166.5831 999.6974,157.9760 999.5590,149.8521 999.3917,142.3876 999.1943,135.7591 998.9655,130.1431 998.7040,125.7158 998.4087,122.6538 997.4827,117.7464 996.0013,111.5676 994.1947,105.3481 992.0922,99.1551 989.7229,93.0555 987.1163,87.1165 984.2844,81.3337 981.1985,75.6615 977.8357,70.1479 974.1736,64.8416 970.1897,59.7914 965.8095,55.0572 960.9724,50.6780 955.8545,46.5841 950.6427,42.6985 945.5235,38.9440 940.4716,35.1312 935.2928,31.3829 930.0246,27.9206 924.5115,24.7627 918.5980,21.9273 912.2594,19.5830 904.4694,17.5616 896.1263,15.8279 888.6064,14.4838 883.2860,13.6310 880.8621,13.2569 874.5062,12.1797 868.1502,11.1024 861.7943,10.0251 855.4384,8.9478 849.0825,7.8706 842.7265,6.7933 836.3706,5.7160 830.0147,4.6387 823.6588,3.5615 817.3029,2.4842 810.9469,1.4069 804.5910,0.3296 800.9741,0.0145 794.0724,0.0000 785.6476,0.1950 778.7529,0.7938 772.5532,1.6690 766.3978,3.0810 760.1947,5.1938 753.7361,7.9726 747.5817,11.1378 742.9820,14.1924 738.6557,19.1311 737.4227,26.0798 737.6298,31.6136 738.0151,38.0486 738.4004,44.4837 738.7858,50.9187 739.1711,57.3538 739.5564,63.7888 739.9418,70.2238 740.3271,76.6589 740.7124,83.0939 741.0978,89.5290 741.4831,95.9640 741.8684,102.3991 741.6702,108.3345 737.1114,113.6521 734.1271,113.8063 726.5879,114.0554 718.1797,114.7204 712.3857,116.1576 706.3487,118.7756 700.5676,121.9719 695.5084,125.9990 691.5679,130.8319 688.5109,136.6112 687.0285,142.6745 686.1379,149.5991 686.2827,157.7425 686.4950,162.0207 686.5454,168.3500 686.5808,174.7142 686.5953,181.1135 686.5832,187.5482 686.5387,194.0186 686.4561,200.5248 686.3296,207.0672 686.1291,213.6197 686.0407,220.7273 685.5171,227.5578 683.4818,232.3025 678.7399,234.0755 671.8092,234.2406 664.4971,233.9245 658.4880,233.9410 652.5159,233.8843 646.2567,233.7551 639.7524,233.6171 633.0451,233.5342 626.1768,233.5701 619.3164,233.7235 612.8699,233.7322 606.4233,233.7409 599.9767,233.7495 593.5302,233.7582 587.0836,233.7668 580.6370,233.7755 574.1905,233.7842 567.7439,233.7928 561.2974,233.8015 554.8508,233.8102 548.4042,233.8188 541.9577,233.8275 535.5111,233.8362 529.0645,233.8448 522.6180,233.8535 516.1714,233.8622 509.7248,233.8708 503.2783,233.8795 496.8317,233.8882 490.3851,233.8968 483.9386,233.9055 477.4920,233.9141 471.0455,233.9228 464.5989,233.9315 458.1523,233.9401 451.7058,233.9488 445.2592,233.9575 438.8126,233.9661 432.3661,233.9748 425.9195,233.9835 419.4729,233.9921 413.0264,234.0008 406.5798,234.0095 400.1333,234.0181 393.6867,234.0268 387.2401,234.0355 380.7936,234.0441 374.3470,234.0528 367.9004,234.0614 361.4539,234.0701 355.0073,234.0788 348.5607,234.0874 342.1142,234.0961 335.6676,234.1048 329.2210,234.1134 322.7745,234.1221 316.3279,234.1308 309.8814,234.1394 303.4348,234.1481 296.9882,234.1568 290.5417,234.1654 289.3735,234.1605 286.8209,234.1441 282.7362,234.1181 277.3131,234.0842 270.7453,234.0439 263.2265,233.9986 254.9502,233.9499 246.1103,233.8993 236.9002,233.8484 227.5138,233.7987 218.1447,233.7517 208.9866,233.7089 200.2331,233.6719 192.0779,233.6422 184.7146,233.6213 178.3371,233.6108 173.1388,233.6122 169.3135,233.6270 167.0549,233.6567 160.3009,234.7774 156.1128,237.7037 152.9561,242.1249 149.5514,248.4569 145.9999,253.9184 140.7617,257.7340 136.5608,259.0407 130.8752,259.5861 123.5584,259.6895 115.7105,259.4762 111.6698,259.3993 105.8113,259.3676 98.5448,259.3739 90.2802,259.4108 81.4276,259.4711 72.3967,259.5474 63.5977,259.6324 55.4403,259.7189 48.3346,259.7995 42.6904,259.8669 38.9177,259.9138 37.4264,259.9329 34.1133,261.0458 26.5506,263.9116 20.0961,267.2070 14.8149,270.8157 10.0530,275.1585 6.0479,280.2426 2.6908,285.9834 0.5603,291.8477 0.0000,298.1264 0.9403,304.3630 2.8777,311.1512 6.0925,318.9498 8.6430,324.5219 9.2463,325.8339 10.8641,329.4364 13.6402,335.4082 17.2021,342.7078 21.1774,350.2937 25.1937,357.1244 29.1573,362.5228 34.0102,367.7554 39.0115,372.2770 44.0188,376.1632 48.8896,379.4900 54.3324,382.8006 60.2391,385.7036 65.8517,387.7544 71.8443,389.5253 77.5771,390.9302 83.5506,391.9409 90.5579,392.6369 97.0866,392.8610 103.7856,392.6022 110.7515,392.1603 117.4716,391.8104 123.4331,391.8272 130.6607,392.6267 137.0631,393.9607 142.2365,395.7825 147.6501,398.7511 152.6731,402.8633 156.4059,407.7713 158.6728,413.4205 160.2605,420.1927 160.9201,427.6628 160.8216,435.9000 160.5752,440.8078 160.4518,443.9562 160.0986,452.1089 159.3207,458.9923 159.7202,464.3716 164.2504,466.6429 167.4411,466.9512 172.3579,467.1723 178.7162,467.3158 186.2319,467.3914 194.6204,467.4088 203.5975,467.3777 212.8788,467.3078 222.1800,467.2089 231.2166,467.0905 239.7043,466.9624 247.3587,466.8343 253.8956,466.7159 259.0304,466.6168 262.4789,466.5469 263.9567,466.5156 269.3137,466.4928 275.7602,466.4661 282.2067,466.4393 288.6532,466.4126 295.0997,466.3858 301.5462,466.3591 307.9927,466.3323 314.4393,466.3056 320.8858,466.2788 327.3323,466.2521 333.7788,466.2253 340.2253,466.1986 346.6718,466.1718 353.1183,466.1451 359.5649,466.1183 366.0114,466.0916 372.4579,466.0648 378.9044,466.0381 385.3509,466.0113 391.7974,465.9846 398.2439,465.9578 404.6905,465.9311 411.1370,465.9043 417.5835,465.8776 424.0300,465.8508 430.4765,465.8241 436.9230,465.7973 443.3695,465.7706 449.8161,465.7438 456.2626,465.7171 462.7091,465.6903 469.1556,465.6636 475.6021,465.6368 482.0486,465.6101 488.4951,465.5833 494.9417,465.5566 501.3882,465.5298 507.8347,465.5031 514.2812,465.4763 520.7277,465.4496 527.1742,465.4228 533.6207,465.3961 540.0673,465.3693 546.5138,465.3426 552.9603,465.3158 559.4068,465.2891 565.8533,465.2623 572.2998,465.2356 578.7463,465.2088"/>
</svg>
