<?xml version="1.0" encoding="utf-8"?>
<!-- Track map generated with TinyPedal -->
<svg viewBox="-110.0000 -110.0000 1220.0000 886.3998" version="1.1" xmlns="http://www.w3.org/2000/svg">
	<title>Long Beach Street Circuit</title>
	<!-- Sector coordinates index -->
	<desc>140,280</desc>
	<!-- Raw global coordinates -->
	<polyline id="map" fill="none" stroke="black" stroke-width="10" points="132.2656,659.8507 137.7203,664.4247 144.3348,666.3998 151.5246,665.5902 157.6892,662.1310 161.9460,656.6834 163.8156,649.9547 163.0116,640.9949 165.1345,635.0907 169.6239,631.9878 174.8893,628.3927 180.7095,624.3566 186.6858,619.8338 192.4195,614.7785 197.4205,609.3713 201.8734,603.8390 205.9765,598.0546 209.7123,592.0286 213.0636,585.7717 216.0131,579.2946 218.4295,572.6349 220.0929,565.7103 221.3958,558.6508 222.7736,551.6545 224.6595,544.9378 227.9714,538.4310 232.9323,533.3550 239.1216,531.2408 245.9793,530.3797 253.1976,530.2253 260.5433,530.4093 267.7836,530.5629 274.8848,530.5437 281.9882,530.5506 289.0921,530.5832 296.1964,530.6379 303.3011,530.7111 310.4062,530.7992 317.5114,530.8986 324.6169,531.0056 331.7224,531.1167 338.8281,531.2282 345.9336,531.3365 353.0391,531.4380 360.1444,531.5290 367.2495,531.6061 374.3543,531.6655 381.4587,531.7036 388.5627,531.7168 395.6662,531.7015 402.7691,531.6541 409.8714,531.5710 416.9730,531.4485 424.0743,531.3018 431.1768,531.1497 438.2802,530.9916 445.3843,530.8269 452.4891,530.6552 459.5944,530.4759 466.7001,530.2886 473.8059,530.0927 480.9118,529.8876 488.0176,529.6729 495.1231,529.4481 502.2282,529.2125 509.3328,528.9658 516.4366,528.7074 523.5396,528.4367 530.6416,528.1533 537.7425,527.8566 544.8420,527.5461 551.9401,527.2213 559.0365,526.8817 566.1313,526.5268 573.2241,526.1559 580.3148,525.7687 587.4034,525.3646 594.4896,524.9430 601.5733,524.5035 608.6544,524.0455 615.7326,523.5686 622.8026,523.0143 629.8740,522.2775 636.9362,521.3568 643.9765,520.2528 650.9821,518.9662 657.9401,517.4977 664.8380,515.8479 671.6628,514.0176 678.4123,511.9560 685.0953,509.6043 691.7103,507.0009 698.2559,504.1852 704.7305,501.1967 711.1328,498.0749 717.4612,494.8593 723.7191,491.5399 729.9034,488.0661 736.0225,484.4611 742.0860,480.7492 748.1038,476.9545 754.0855,473.1013 760.0409,469.2138 765.9796,465.3164 771.9357,461.4374 777.9120,457.5502 783.8508,453.6003 789.6941,449.5331 795.3841,445.2943 800.8627,440.8293 806.0824,436.0883 811.0784,431.0758 815.8807,425.8376 820.5120,420.4214 824.9950,414.8748 829.3526,409.2455 833.6054,403.5750 837.7159,397.7981 841.6724,391.8995 845.4886,385.8988 849.1781,379.8152 852.7548,373.6682 856.2349,367.4769 859.6883,361.2710 863.1405,355.0633 866.5906,348.8536 870.0378,342.6414 873.4811,336.4263 876.9197,330.2081 880.3526,323.9862 883.7791,317.7605 887.1981,311.5304 890.6088,305.2956 894.0103,299.0558 897.4018,292.8106 900.7823,286.5596 904.1509,280.3024 907.5067,274.0387 910.8489,267.7681 914.1765,261.4903 917.4887,255.2048 920.7846,248.9112 924.0633,242.6094 927.3238,236.2987 930.5654,229.9790 933.7870,223.6498 936.9879,217.3107 940.1704,210.9607 943.3371,204.5980 946.4874,198.2232 949.6205,191.8368 952.7358,185.4391 955.8327,179.0307 958.9105,172.6121 961.9686,166.1838 965.0062,159.7461 968.0227,153.2997 971.0175,146.8449 973.9899,140.3823 976.9393,133.9123 979.8649,127.4354 982.7662,120.9521 985.6424,114.4628 988.4929,107.9681 991.3171,101.4684 994.1143,94.9642 996.8838,88.4560 999.5281,81.6189 1000.0000,73.6599 998.0439,66.0629 994.3096,60.2703 989.4471,57.7243 984.2755,59.5968 980.6594,65.0714 978.1994,72.5814 976.4369,80.1404 974.3529,86.8901 971.2198,93.8586 967.0855,99.7935 961.7577,103.6953 955.3218,106.2489 948.5213,107.7870 941.4582,108.6878 934.2343,109.3296 927.0408,110.0460 919.9563,110.4141 912.7605,110.2234 905.6141,109.4633 898.6777,108.1231 892.0405,106.1589 885.3687,103.2314 879.3642,99.2001 874.9536,93.9917 871.3977,87.5242 868.0899,81.2001 864.9781,74.9723 862.0072,68.7884 859.1222,62.5962 856.2681,56.3433 853.3900,49.9774 850.4327,43.4462 847.3414,36.6975 844.2605,30.0565 841.1314,23.3408 837.6267,16.5368 833.6987,10.3466 829.2996,5.4728 823.9847,2.2234 816.8985,0.0000 809.7176,0.0609 802.9513,2.6789 796.1300,5.4130 789.3520,8.1241 782.6144,10.8147 775.9143,13.4872 769.2488,16.1437 762.6149,18.7867 756.0098,21.4186 749.4305,24.0416 742.8741,26.6581 736.3377,29.2705 729.8184,31.8810 723.3132,34.4921 716.8193,37.1060 710.3336,39.7251 703.8534,42.3518 697.3756,44.9884 690.8974,47.6372 684.4159,50.3006 677.9281,52.9808 671.4310,55.6804 664.9219,58.4015 658.3977,61.1465 651.8556,63.9178 645.2926,66.7178 638.7058,69.5487 632.1452,72.3886 625.6322,75.2209 619.1228,78.0641 612.6173,80.9187 606.1162,83.7854 599.6198,86.6646 593.1286,89.5570 586.6430,92.4631 580.1635,95.3834 573.6904,98.3186 567.2242,101.2691 560.7653,104.2356 554.3142,107.2186 547.8712,110.2186 541.4368,113.2362 535.0114,116.2721 528.5955,119.3266 522.1894,122.4005 515.7936,125.4942 509.4085,128.6083 503.0346,131.7434 496.6722,134.9000 490.3217,138.0788 483.9837,141.2801 477.6585,144.5047 471.2242,147.8152 464.7064,151.1931 458.2287,154.5731 451.7889,157.9551 445.3847,161.3392 439.0142,164.7254 432.6751,168.1136 426.3654,171.5039 420.0828,174.8962 413.8254,178.2905 407.5908,181.6869 401.3771,185.0852 395.1821,188.4855 389.0035,191.8878 382.8394,195.2921 376.6876,198.6984 370.5459,202.1066 364.4122,205.5167 358.2844,208.9288 352.1603,212.3428 346.0379,215.7587 339.9149,219.1765 333.7892,222.5963 327.6588,226.0179 321.5215,229.4414 315.3751,232.8668 309.2175,236.2940 303.5291,240.5844 299.7350,246.9406 297.9983,254.1708 298.4024,261.0091 301.1100,267.0500 304.5221,273.4582 307.9255,279.8295 311.3196,286.1675 314.7039,292.4759 318.0782,298.7585 321.4418,305.0190 324.7943,311.2610 328.1352,317.4883 331.4641,323.7046 334.7806,329.9136 338.0842,336.1190 341.3743,342.3246 344.6506,348.5339 347.9126,354.7508 351.1598,360.9789 354.3918,367.2219 357.6081,373.4836 360.8082,379.7677 363.9917,386.0778 367.1581,392.4177 370.3070,398.7912 373.4379,405.2018 376.5504,411.6533 379.6439,418.1494 382.7199,424.6982 385.6425,431.3975 388.1936,438.0779 390.4162,444.7641 392.3535,451.4807 394.0486,458.2523 395.5448,465.1036 396.8851,472.0593 398.1128,479.1439 398.8770,486.1686 398.1798,493.7969 396.0276,500.8034 392.2575,505.7775 386.4893,508.9784 379.6376,510.4237 371.9396,510.6665 364.7372,510.4831 357.5808,510.2921 350.4313,510.0933 343.2885,509.8869 336.1519,509.6730 329.0213,509.4519 321.8964,509.2238 314.7768,508.9888 307.6623,508.7473 300.5525,508.4993 293.4472,508.2451 286.3459,507.9849 279.2485,507.7189 272.1545,507.4472 265.0637,507.1702 257.9758,506.8879 250.8904,506.6006 243.8073,506.3084 236.7261,506.0117 229.6465,505.7106 222.5682,505.4052 215.4909,505.0958 208.4143,504.7826 201.3380,504.4658 194.2618,504.1456 187.1853,503.8221 180.1082,503.4957 173.0303,503.1664 165.9512,502.8345 158.8705,502.5003 151.7881,502.1638 144.7035,501.8252 137.6164,501.4849 130.5266,501.1430 123.4338,500.7996 116.3375,500.4551 109.2393,500.1004 102.1135,499.6842 94.9584,499.2226 87.7848,498.7446 80.6036,498.2792 73.4256,497.8554 66.2618,497.5023 59.1229,497.2489 52.0200,497.1241 44.9638,497.1571 37.9653,497.3769 31.0353,497.8124 24.3407,498.6004 18.2416,501.7630 12.7247,506.9517 8.2725,512.7063 5.0968,518.4287 3.0328,525.0947 1.8160,532.2818 1.0956,539.5621 0.5576,546.6194 0.1920,553.6768 0.0094,560.7642 0.0000,567.8734 0.1541,574.9960 0.4619,582.1240 0.9137,589.2488 1.4997,596.3625 2.2102,603.4565 3.0353,610.5228 3.9655,617.5529 4.9908,624.5388 6.6412,631.3399 10.2711,638.3198 15.3558,642.2694 21.9424,642.6967 28.7570,643.0043 35.6558,643.2638 42.6291,643.4967 49.6674,643.7243 56.7609,643.9680 63.8999,644.2491 71.0749,644.5891 78.2762,645.0092 85.4942,645.5310 92.7191,646.1756 99.9414,646.9646 107.1514,647.9193 114.3031,649.0574 120.9244,651.2528 127.1981,655.0294"/>
</svg>
