<?xml version="1.0" encoding="utf-8"?>
<!-- Track map generated with TinyPedal -->
<svg viewBox="-366.4742 -1154.6432 1288.5949 1505.4507" version="1.1" xmlns="http://www.w3.org/2000/svg">
	<title>Lusail International Circuit</title>
	<!-- Sector coordinates index -->
	<desc>163,439</desc>
	<!-- Raw global coordinates -->
	<polyline id="map" fill="none" stroke="black" stroke-width="10" points="2.5705,0.1749 -7.1626,-17.261 -12.3575,-26.5748 -18.1639,-36.988 -23.9866,-47.4334 -30.4363,-58.9921 -35.755,-68.5045 -41.6989,-79.1358 -48.2686,-90.9094 -53.6636,-100.6053 -59.68,-111.4426 -65.7198,-122.3454 -72.3864,-134.4148 -77.8573,-144.3486 -84.5707,-156.5561 -90.1,-166.589 -96.9094,-178.9006 -103.1445,-190.1407 -108.7894,-200.2962 -115.0932,-211.6252 -121.4225,-223.0047 -127.7727,-234.436 -134.1409,-245.9187 -140.5235,-257.4537 -146.9161,-269.0417 -153.3548,-280.6614 -160.5112,-293.4664 -166.4145,-303.9655 -173.6764,-316.8302 -179.6527,-327.3827 -186.3282,-339.1361 -193.0315,-350.923 -199.7473,-362.7508 -206.4715,-374.6205 -213.2039,-386.5311 -219.9403,-398.473 -227.3441,-411.6229 -234.0849,-423.619 -240.1604,-434.4484 -246.9247,-446.5145 -253.7218,-458.6049 -260.5539,-470.7175 -267.4102,-482.8576 -274.263,-494.9945 -280.9575,-506.8636 -287.4107,-518.3113 -294.2186,-530.4115 -299.5664,-539.9548 -305.2553,-550.177 -311.1786,-560.9357 -315.7711,-569.3923 -320.6027,-578.463 -325.5684,-588.0698 -329.3174,-595.643 -333.1023,-603.7608 -336.4602,-611.607 -339.6429,-619.9944 -342.0535,-627.4604 -343.7967,-634.0469 -345.3418,-641.8723 -346.1222,-648.0884 -346.4742,-654.78 -346.2874,-661.2191 -345.545,-667.4101 -344.2473,-673.357 -342.4175,-679.0609 -340.0959,-684.4997 -337.3103,-689.6271 -334.0826,-694.3918 -330.0548,-699.1517 -326.4115,-702.6523 -321.9921,-706.1673 -317.263,-709.274 -311.7757,-712.1606 -306.5087,-714.3098 -301.5735,-715.8568 -295.3197,-717.2439 -289.5072,-717.989 -284.2396,-718.2084 -278.3346,-717.9423 -272.3082,-717.158 -266.1671,-715.8761 -259.2818,-713.918 -253.5633,-711.9255 -246.4743,-709.0867 -240.6203,-706.4202 -234.0891,-703.0779 -227.5689,-699.3618 -221.1081,-695.2879 -214.6606,-690.8608 -208.2163,-686.1193 -201.7643,-681.0964 -194.6272,-675.3016 -188.0578,-669.8542 -182.0154,-664.8909 -175.1007,-659.3884 -167.9555,-653.9355 -160.623,-648.6061 -152.5909,-643.1763 -146.1068,-639.1546 -139.0117,-635.1263 -132.0154,-631.571 -124.4164,-628.2414 -118.2747,-625.9781 -111.5317,-623.9572 -104.1871,-622.3421 -98.2374,-621.4902 -91.7702,-621.0403 -85.533,-621.1055 -79.5124,-621.6977 -73.6677,-622.8195 -68.0193,-624.437 -62.6016,-626.514 -56.9499,-629.2952 -52.5938,-631.9284 -48.0743,-635.2123 -43.9188,-638.847 -40.0587,-642.8643 -36.4705,-647.228 -33.2407,-651.8826 -30.0818,-657.3934 -27.8056,-662.1816 -25.5756,-667.7991 -23.6861,-673.7138 -22.163,-679.8876 -21.0207,-686.2781 -20.2707,-692.8426 -19.8795,-700.2422 -19.8011,-706.4671 -19.9482,-713.5794 -20.316,-721.6317 -20.8396,-729.147 -21.5782,-736.8336 -22.5156,-744.6266 -23.4724,-751.7643 -24.571,-759.8577 -25.6072,-768.1291 -26.4706,-776.5828 -27.0598,-785.1857 -27.2409,-793.7602 -26.9245,-802.2458 -26.1131,-810.6446 -24.6236,-819.8327 -22.9431,-827.3842 -20.3802,-836.6573 -17.8862,-844.2618 -14.3264,-853.5376 -10.9968,-861.0878 -6.854,-869.4004 -2.2485,-877.5447 2.819,-885.5515 8.295,-893.4367 14.1551,-901.1943 20.3796,-908.8218 26.8931,-916.3713 33.597,-923.9207 40.4369,-931.514 47.3696,-939.1859 54.3817,-946.9451 61.464,-954.7966 68.6171,-962.7353 76.5748,-971.5571 83.8847,-979.658 90.5275,-987.0094 97.978,-995.243 106.2425,-1004.3773 113.783,-1012.7308 120.6021,-1020.3244 128.2117,-1028.8468 135.8677,-1037.4457 143.5923,-1046.0989 151.3929,-1054.7969 159.2565,-1063.5045 167.7715,-1072.843 174.5261,-1080.1362 181.8162,-1087.7802 188.9326,-1094.9105 195.8915,-1101.5122 202.7135,-1107.5289 209.4356,-1112.9536 216.0916,-1117.8038 223.3204,-1122.4424 229.1471,-1125.6825 236.157,-1128.9679 241.8097,-1131.1042 248.007,-1132.8911 254.7149,-1134.1569 260.1456,-1134.6432 266.1053,-1134.6093 272.5233,-1133.8967 277.657,-1132.8273 283.3054,-1131.1868 289.5933,-1128.826 294.7577,-1126.4296 300.4634,-1123.2587 306.1302,-1119.5991 311.8506,-1115.6201 317.632,-1111.3684 323.4268,-1106.8041 329.1906,-1101.9016 334.8511,-1096.6583 340.3433,-1091.0546 345.6234,-1085.0836 350.5011,-1078.8481 354.9008,-1072.3807 358.8047,-1065.7236 362.2183,-1058.9425 365.1263,-1052.0608 367.6845,-1044.4059 369.2422,-1038.0985 370.3892,-1031.1166 370.9267,-1023.5343 370.8055,-1017.4133 370.1024,-1010.7325 368.8381,-1004.2177 367.0435,-997.8231 364.7166,-991.4235 361.8499,-985.0511 358.0811,-978.12 354.5398,-972.532 350.1591,-966.4185 345.3684,-960.3899 340.2328,-954.4161 334.2295,-947.8912 329.071,-942.574 323.1092,-936.6698 316.3051,-930.1553 310.5626,-924.8009 304.024,-918.8033 297.3526,-912.7252 290.5928,-906.5591 283.0926,-899.669 276.8954,-893.9171 269.9844,-887.3695 263.0767,-880.6526 256.3407,-873.926 249.9621,-867.3588 244.0228,-861.0246 238.5552,-854.9229 233.574,-849.0455 229.1077,-843.356 224.8417,-837.2631 221.8546,-832.3922 218.8191,-826.5714 216.8661,-821.9064 215.2616,-816.8143 214.2622,-811.8441 213.8651,-807.0353 214.0414,-802.4207 214.7579,-798.0536 215.9636,-794.021 217.6145,-790.3546 219.6869,-787.0516 222.4003,-783.8304 225.1856,-781.2894 227.8972,-779.3274 231.4168,-777.3622 234.7954,-775.9817 238.0311,-775.0252 241.8845,-774.2746 246.339,-773.8994 250.1468,-773.9653 254.9935,-774.5343 259.0889,-775.4054 263.7552,-776.7925 268.5731,-778.5004 273.5997,-780.3504 278.8276,-782.3837 284.2539,-784.6093 289.8752,-787.0183 295.6883,-789.5906 301.6997,-792.2927 307.9074,-795.1089 314.3064,-798.0312 320.8939,-801.049 328.3504,-804.4721 334.5807,-807.3469 342.3242,-810.9535 348.7939,-814.0023 356.1163,-817.4991 363.5744,-821.1097 371.1663,-824.8289 378.8904,-828.6498 387.5359,-832.9662 394.7275,-836.5739 402.8507,-840.6369 411.1152,-844.7441 419.4948,-848.8776 427.979,-853.0251 436.6064,-857.1792 446.289,-861.6835 454.3369,-865.2624 463.2189,-869.0267 471.8864,-872.4832 480.2846,-875.5981 489.1817,-878.5852 496.1849,-880.6522 504.4053,-882.6897 510.865,-883.9543 517.8007,-884.9648 524.5092,-885.5937 530.9675,-885.8143 537.7573,-885.5528 543.0494,-884.9386 548.6471,-883.8289 553.9796,-882.2656 559.0692,-880.2416 564.3445,-877.5017 568.3723,-874.888 572.905,-871.2739 576.3096,-867.9751 579.8105,-863.9651 583.3219,-859.1749 585.9058,-854.9936 588.376,-850.1639 590.3688,-845.1894 591.8932,-840.1042 592.9741,-834.8776 593.6071,-829.5593 593.7717,-824.2439 593.4573,-818.9494 592.6761,-813.64 591.4241,-808.2462 589.6718,-802.804 587.141,-796.8357 584.5967,-791.999 581.2722,-786.7175 577.442,-781.5314 573.1212,-776.4598 568.4176,-771.4261 563.5652,-766.2311 558.1028,-760.3018 553.5729,-755.26 548.5278,-749.4677 543.5129,-743.4578 538.5265,-737.1922 533.5894,-730.666 528.2399,-723.1844 523.4677,-716.1097 519.2662,-709.5182 514.7132,-701.9502 510.2915,-694.1309 505.6296,-685.2311 502.0343,-677.7022 498.327,-669.1088 494.9195,-660.2821 491.4149,-650.3259 488.688,-642.0129 485.6998,-632.6713 482.6962,-623.531 479.6123,-614.8076 476.3917,-606.546 472.6457,-598.0504 469.4238,-591.6083 465.7018,-585.0175 461.8281,-579.0275 457.8065,-573.6244 453.2201,-568.3477 449.3093,-564.5224 444.6702,-560.675 439.5926,-557.0776 434.082,-553.7409 428.1604,-550.7029 421.8537,-547.7979 415.2422,-544.9432 408.3694,-542.1996 401.2257,-539.6319 393.8145,-537.291 386.2033,-535.2288 378.3563,-533.4149 369.4724,-531.6357 362.0211,-530.3246 353.5616,-528.9991 345.0866,-527.7968 336.9422,-526.6895 329.286,-525.6367 322.1663,-524.613 315.5813,-523.5631 308.9402,-522.2873 303.9518,-521.0992 298.8279,-519.6199 293.6309,-517.7639 289.7193,-516.0232 285.7314,-513.8392 282.0368,-511.3819 278.6308,-508.6463 275.2511,-505.3404 272.7812,-502.4393 270.3568,-499.0415 268.0906,-495.1334 266.5497,-491.8343 265.0499,-487.6956 264.0401,-483.8151 263.3726,-480.1584 262.8894,-475.9041 262.6863,-471.4648 262.7995,-466.846 263.3279,-461.6036 264.1038,-457.2117 265.346,-452.2685 267.0005,-447.3308 269.0771,-442.4208 271.5951,-437.4935 274.5856,-432.5515 278.0318,-427.7118 282.208,-422.5153 285.8373,-418.2008 290.1709,-413.3797 294.8648,-408.5923 299.922,-403.8679 305.3256,-399.2161 311.644,-394.1841 317.0897,-390.1377 323.4204,-385.7279 330.0376,-381.4256 336.9184,-377.2575 344.0045,-373.276 351.3476,-369.4205 358.9336,-365.6799 366.7551,-362.0612 375.6216,-358.2281 383.0755,-355.2162 391.5623,-352.0085 401.1375,-348.6553 409.1496,-346.0486 418.2348,-343.3102 428.4422,-340.5005 437.9078,-338.1445 446.575,-336.2083 456.3362,-334.3004 466.2407,-332.6776 476.2992,-331.2999 486.502,-330.1602 496.8391,-329.239 507.3023,-328.5419 517.8848,-328.0801 528.5786,-327.8683 539.3752,-327.9132 550.2652,-328.2329 561.2373,-328.8516 572.2817,-329.7731 583.3917,-330.9754 594.5612,-332.4431 605.7874,-334.1463 617.0809,-336.0061 628.457,-337.9097 641.0782,-339.9571 652.6475,-341.7666 663.0112,-343.3212 674.1841,-344.917 684.8829,-346.4107 695.0858,-347.8001 704.8007,-349.0534 714.0386,-350.143 722.8361,-351.0233 731.2646,-351.6627 740.2305,-352.0586 747.4092,-352.0994 755.267,-351.8039 762.9832,-351.1289 770.5985,-350.0508 778.1766,-348.5491 785.712,-346.6066 793.1746,-344.201 800.4667,-341.3255 807.5128,-337.958 814.3256,-334.0692 820.9958,-329.6653 828.1967,-324.2895 833.9924,-319.5283 840.9144,-313.2595 847.0242,-307.1349 852.373,-301.3011 858.1412,-294.4817 863.6959,-287.3072 869.0214,-279.7909 874.6007,-271.1707 878.9064,-263.8686 883.4249,-255.4835 887.5229,-247.0083 891.085,-238.6364 894.4291,-229.6478 896.9977,-221.7215 898.8909,-214.7737 900.6161,-206.4469 901.567,-199.6786 902.1207,-192.1811 902.1131,-184.6654 901.552,-177.0236 900.4285,-169.2835 898.7698,-161.4744 896.6492,-153.6082 893.8486,-144.9014 891.2082,-137.7498 887.5637,-128.993 883.8572,-121.0349 880.2301,-113.8749 875.96,-105.9005 871.0355,-97.0821 866.8512,-89.8338 862.0265,-81.7571 856.4875,-72.9282 851.742,-65.9359 846.2417,-58.4749 840.5055,-51.4232 834.6475,-44.7586 828.687,-38.5343 822.5817,-32.7854 815.6138,-26.9882 809.6873,-22.6886 802.1749,-18.0189 795.8289,-14.7183 788.6086,-11.6201 780.517,-8.9079 773.7673,-7.2086 766.0232,-5.7926 757.2366,-4.7747 749.869,-4.3145 741.52,-4.1762 733.0226,-4.4514 724.3967,-5.1164 714.7766,-6.1414 706.8085,-7.2165 697.854,-8.5903 688.7938,-10.1234 679.6961,-11.8554 670.6835,-13.8801 660.7285,-16.3148 652.5113,-18.2888 642.3626,-20.8627 634.0082,-23.222 623.7271,-26.3579 615.2493,-29.0971 605.7387,-32.2483 596.2395,-35.3921 587.0938,-38.3451 578.3999,-41.0433 569.3492,-43.7109 562.3146,-45.6591 554.882,-47.5743 547.8186,-49.2003 541.0076,-50.5332 534.262,-51.6365 527.5302,-52.4268 520.8257,-52.7782 514.1789,-52.6408 507.606,-51.9986 500.4538,-50.7001 494.6997,-49.1693 488.4423,-46.9733 482.3108,-44.2508 476.248,-40.9905 470.284,-37.1986 464.467,-32.876 458.2786,-27.534 453.4123,-22.7203 448.2162,-16.9456 442.7534,-10.1201 438.4699,-4.2027 433.9046,2.697 429.5526,9.9225 425.0049,18.2202 421.4403,25.2518 417.5779,33.2783 413.7248,41.4791 409.8213,49.8206 405.8663,58.2972 401.861,66.9049 397.3867,76.5142 393.6759,84.4831 389.5121,93.4282 384.8884,103.3618 381.0627,111.5916 376.3438,121.7763 372.4509,130.2113 368.0908,139.6883 363.2472,150.2344 359.2451,158.9541 354.2961,169.7147 350.1861,178.5942 345.5529,188.5361 340.8728,198.5656 335.6832,209.701 331.4001,218.887 326.6338,229.0924 322.0067,238.973 317.588,248.3638 313.3668,257.2395 309.3072,265.582 305.3781,273.3478 301.5291,280.5251 297.3485,287.7834 293.9461,293.2589 290.149,298.8842 286.2758,304.0177 281.9022,309.0675 278.218,312.7557 273.993,316.4622 269.5931,319.8061 265.0118,322.7435 260.2711,325.2407 255.406,327.2783 250.4566,328.8488 245.4657,329.9534 240.4748,330.6024 235.5081,330.8075 230.4993,330.5927 225.3671,329.9828 220.0876,328.9787 214.1441,327.4078 209.2146,325.7386 203.7048,323.4643 198.2872,320.7727 193.1213,317.7012 188.1554,314.2308 183.333,310.3437 178.6139,305.9969 173.5858,300.6945 169.1937,295.4187 165.3858,290.3286 161.2717,284.3482 157.2444,278.072 153.2861,271.5276 149.3867,264.7367 145.1395,257.0122 141.6844,250.562 137.4071,242.514 133.8242,235.8038 129.7343,228.2305 125.5253,220.5408 121.2086,212.7321 116.3464,204.0048 112.2844,196.7584 107.6889,188.5958 103.0203,180.3133 98.2909,171.9084 93.5024,163.3874 88.195,153.9315 83.804,146.0948 78.3799,136.3903 73.8954,128.3493 68.3508,118.405 63.7612,110.1768 58.5988,100.9438 53.3668,91.6202 48.0679,82.2075 42.7098,72.7044 36.7597,62.1439 31.8553,53.419 26.37,43.6376 20.8527,33.7648 15.3052,23.8024 9.1642,12.7462 3.5481,2.609"/>
	<!-- Raw distance reference points -->
	<polyline id="dist" fill="none" stroke="none" stroke-width="0" points="5398.9385,13.5007 16.9727,13.4402 28.8179,13.4114 40.7384,13.3719 52.6942,13.3356 64.7202,13.2961 76.8204,13.264 88.9945,13.225 101.2336,13.1834 113.5482,13.1511 125.9379,13.1124 138.4,13.0736 150.9358,13.0339 163.5428,12.9953 176.2265,12.9512 188.9716,12.9188 201.7746,12.8732 214.618,12.8379 227.4937,12.802 240.445,12.7611 253.4728,12.72 266.4847,12.6808 279.6748,12.6439 292.8799,12.5952 306.1174,12.5645 319.4022,12.5221 332.7194,12.4752 346.1073,12.4413 359.5516,12.3936 373.0335,12.3609 386.5502,12.3249 400.1101,12.2813 413.7112,12.2432 427.3415,12.2069 441.0129,12.1643 454.7117,12.1197 468.4218,12.0811 482.1816,12.0401 495.9767,12.0002 509.8111,11.96 523.6955,11.9157 537.6114,11.8809 551.5694,11.8365 565.5156,11.7947 579.1337,11.7648 592.2717,11.7523 604.9152,11.7737 617.0914,11.8116 628.7897,11.8608 639.9779,11.9135 650.6886,11.9521 660.9578,11.9864 670.7988,12.0143 680.1918,12.032 689.1161,12.0356 697.5726,12.0162 705.6657,11.9628 713.4102,11.8872 720.9186,11.8114 728.2672,11.7407 735.3033,11.7017 742.1735,11.6754 748.7184,11.6573 755.0682,11.645 761.4304,11.6381 767.5867,11.637 773.6841,11.6373 779.7109,11.6387 785.6655,11.641 791.7629,11.643 797.5756,11.641 803.4116,11.6375 809.2639,11.6359 815.1044,11.6343 821.0007,11.6364 827.1626,11.6408 833.1763,11.6526 839.2103,11.6694 845.2207,11.684 851.3586,11.7029 857.4814,11.7298 863.7499,11.7638 870.1912,11.8136 876.7221,11.8671 883.5137,11.9235 890.5941,11.9482 897.8702,11.956 905.3467,11.9351 912.9721,11.8916 920.7845,11.8378 928.7732,11.7732 936.9282,11.7152 945.2213,11.6519 953.6631,11.605 962.2612,11.5696 971.033,11.5455 979.9797,11.5478 989.0204,11.5618 997.8424,11.5827 1006.3376,11.5966 1014.4897,11.6106 1022.2946,11.6091 1029.7719,11.5877 1036.89,11.5694 1043.8774,11.5532 1050.7446,11.5425 1057.5389,11.5381 1064.0948,11.5421 1070.4381,11.5516 1076.7504,11.5644 1082.8191,11.578 1088.8031,11.5946 1094.7144,11.6126 1100.5542,11.6377 1106.4401,11.6579 1112.1354,11.6809 1117.7622,11.7006 1123.433,11.7221 1129.1536,11.7508 1134.8444,11.7809 1140.5895,11.8135 1146.3018,11.8468 1152.1439,11.8881 1158.1042,11.9393 1164.2396,11.9953 1170.5812,12.0429 1176.9674,12.0753 1183.608,12.1118 1190.4836,12.1126 1197.5792,12.1205 1204.8915,12.1238 1212.4022,12.1257 1220.0851,12.122 1227.8802,12.1192 1235.8162,12.1183 1243.9233,12.1323 1252.2084,12.1529 1260.6753,12.174 1269.2875,12.1917 1277.8635,12.1894 1286.3458,12.1618 1294.7532,12.1085 1303.3169,12.0416 1312.2289,11.9898 1321.1355,11.9426 1330.3311,11.9127 1339.5792,11.8957 1348.858,11.8948 1358.1757,11.9055 1367.4227,11.935 1376.787,11.9534 1386.3212,11.9582 1396.0093,11.9523 1405.7635,11.9325 1415.6565,11.9043 1425.7847,11.8556 1436.067,11.7932 1446.4182,11.7193 1456.8783,11.6334 1467.4535,11.5563 1478.1364,11.4953 1488.9301,11.4544 1499.8331,11.4308 1510.8364,11.4131 1521.9346,11.3932 1533.1288,11.366 1544.3711,11.3428 1555.705,11.3248 1567.1337,11.306 1578.6449,11.2853 1590.2402,11.2621 1601.9202,11.2413 1613.6572,11.2484 1625.179,11.2867 1636.2611,11.3269 1646.8182,11.3647 1656.8641,11.3833 1666.4102,11.3796 1675.4449,11.3526 1683.9735,11.3081 1692.0952,11.2586 1699.9175,11.2204 1707.575,11.2016 1714.8145,11.1933 1721.9479,11.1941 1728.5745,11.2044 1734.9307,11.215 1741.0925,11.2251 1747.1698,11.2365 1753.0706,11.2466 1758.9114,11.2561 1764.7876,11.2674 1770.8516,11.2836 1777.0093,11.3033 1783.3749,11.3358 1789.9962,11.3709 1796.9222,11.405 1804.0511,11.4408 1811.3805,11.4738 1818.9344,11.5028 1826.6163,11.525 1834.4364,11.5424 1842.3367,11.5529 1850.1383,11.5543 1857.7627,11.5406 1865.314,11.5283 1873.1487,11.5304 1880.8441,11.5483 1888.8435,11.578 1896.8083,11.6158 1904.2538,11.6616 1911.8165,11.7214 1918.8756,11.777 1925.8223,11.8392 1932.8615,11.9066 1939.6016,11.9799 1946.4204,12.0607 1953.1761,12.1505 1960.1254,12.2524 1967.3179,12.3259 1974.7559,12.3905 1982.4258,12.4409 1990.2943,12.4769 1998.3414,12.504 2006.5631,12.5152 2014.9452,12.5198 2023.4987,12.5221 2032.1864,12.5201 2041.024,12.5193 2050.0149,12.5189 2059.1272,12.5235 2068.3389,12.5444 2077.6919,12.5635 2087.1829,12.5884 2096.7966,12.6196 2106.3035,12.6508 2115.4521,12.6769 2124.1335,12.698 2132.3264,12.7053 2140.0288,12.7071 2147.2483,12.6952 2153.98,12.6686 2160.2434,12.6306 2166.2747,12.5657 2172.1108,12.5259 2177.7954,12.5019 2183.312,12.5042 2188.6997,12.5297 2193.8513,12.5635 2198.6387,12.5996 2203.0737,12.6391 2207.1748,12.6791 2211.0254,12.7201 2214.7832,12.7648 2218.3828,12.8047 2221.832,12.84 2225.4753,12.8794 2228.7314,12.9145 2231.9966,12.9473 2235.8989,12.9896 2239.3545,13.0396 2242.9146,13.0848 2246.8022,13.143 2251.1738,13.1834 2256.0308,13.2147 2261.0583,13.2306 2266.3481,13.2493 2271.9624,13.2623 2277.8381,13.2754 2283.9602,13.2848 2290.3201,13.2922 2296.9006,13.2988 2303.6946,13.3068 2310.7007,13.3157 2317.8999,13.3213 2325.3376,13.3342 2332.9836,13.3398 2340.751,13.3401 2348.6758,13.3379 2356.7622,13.3344 2365.0237,13.3196 2373.45,13.308 2382.041,13.2924 2390.7913,13.2768 2399.6965,13.2634 2408.7537,13.2613 2417.958,13.2625 2427.2739,13.2707 2436.6824,13.2881 2446.2273,13.3076 2455.9121,13.3351 2465.6782,13.3643 2475.3125,13.3903 2484.6428,13.4151 2493.5981,13.4368 2502.1365,13.4497 2510.239,13.4496 2517.8745,13.4227 2525.0784,13.3818 2531.9004,13.3234 2538.583,13.2764 2545.0615,13.2464 2551.4624,13.2184 2557.5625,13.1982 2563.4775,13.1812 2569.2612,13.1638 2574.9795,13.1452 2580.645,13.1283 2586.5591,13.1145 2592.1533,13.0955 2597.7668,13.082 2603.4658,13.0644 2609.2622,13.0503 2615.1357,13.0416 2621.4041,13.0295 2627.1843,13.0226 2632.9072,13.0142 2638.6357,13.0085 2644.3567,13.0084 2650.0315,13.0073 2655.7009,13.0085 2661.7808,13.0114 2667.6497,13.0165 2673.675,13.0235 2679.8228,13.0337 2686.2529,13.0408 2692.4709,13.0474 2698.8062,13.043 2705.3794,13.0302 2712.2349,13.0089 2719.3157,12.9735 2726.717,12.9232 2734.3413,12.8775 2742.259,12.8182 2750.2136,12.7561 2758.4238,12.6877 2766.7512,12.6213 2775.1851,12.5738 2783.8906,12.5507 2792.7715,12.5376 2801.8027,12.5214 2810.8845,12.5072 2820.197,12.4953 2829.6763,12.4855 2839.259,12.5003 2848.9209,12.5548 2858.7117,12.6433 2868.6089,12.7114 2878.5823,12.7819 2888.321,12.8322 2897.5764,12.8246 2906.2883,12.7626 2914.5542,12.684 2922.6765,12.6342 2930.4863,12.5989 2938.2656,12.5832 2945.2715,12.5771 2952.0269,12.5785 2958.2256,12.5828 2964.3328,12.5864 2970.5964,12.5961 2977.0247,12.6106 2983.5771,12.6319 2990.3843,12.6571 2997.4673,12.6784 3004.7861,12.694 3012.2483,12.6984 3019.9766,12.6784 3027.8728,12.6377 3035.9448,12.5828 3044.2036,12.5195 3052.5894,12.4709 3061.1365,12.4193 3069.6599,12.3802 3077.835,12.3535 3085.5217,12.3353 3092.6819,12.3327 3099.3257,12.3399 3105.4868,12.3528 3111.2075,12.3617 3116.5437,12.3658 3121.5808,12.3656 3126.3799,12.3611 3130.8738,12.357 3135.4102,12.3537 3140.0334,12.3505 3144.7393,12.3493 3149.4534,12.3484 3154.1079,12.3501 3158.71,12.3546 3163.2708,12.3588 3167.8066,12.3668 3172.3845,12.378 3177.116,12.3866 3182.0435,12.4038 3187.1443,12.4287 3192.3735,12.4614 3197.6733,12.5018 3203.0286,12.5414 3208.4282,12.5901 3213.8152,12.6416 3219.1748,12.6947 3224.6282,12.7451 3230.3362,12.7924 3236.2361,12.8303 3242.2283,12.866 3248.4341,12.8925 3254.8657,12.9217 3261.4543,12.9481 3268.3181,12.9734 3275.3933,12.995 3282.6311,13.0161 3290.1252,13.0352 3297.7866,13.0567 3305.6416,13.0763 3313.6206,13.0979 3321.6921,13.1146 3329.9548,13.1317 3338.3865,13.147 3346.9978,13.1646 3355.7673,13.1847 3364.7197,13.2056 3373.8396,13.2241 3383.1208,13.2472 3392.5588,13.269 3402.1497,13.2922 3411.8867,13.3201 3421.7529,13.3491 3431.7493,13.3744 3441.8262,13.4035 3451.9817,13.4328 3462.2393,13.4603 3472.6013,13.491 3483.0986,13.5244 3493.7244,13.5646 3504.4575,13.6014 3515.2891,13.6439 3526.2454,13.6829 3537.2021,13.7234 3548.2249,13.7601 3559.3357,13.7933 3570.5088,13.8138 3581.7764,13.8265 3593.1287,13.8326 3604.5667,13.8329 3616.0891,13.8328 3627.6965,13.8314 3639.3914,13.8315 3651.0393,13.8363 3662.3162,13.8476 3673.1045,13.8567 3683.385,13.8663 3693.1646,13.8818 3702.4529,13.8871 3711.2908,13.8746 3719.7473,13.8445 3727.9175,13.79 3735.8582,13.7318 3743.5977,13.6608 3751.1514,13.5801 3758.7551,13.5082 3766.5334,13.4401 3774.386,13.3758 3782.478,13.3234 3790.4556,13.2794 3798.5249,13.2339 3806.6475,13.1935 3814.8054,13.1565 3823.2983,13.1287 3831.8784,13.1186 3840.4111,13.1228 3849.0369,13.14 3857.6392,13.161 3866.4434,13.178 3875.4514,13.1828 3884.614,13.1815 3893.9023,13.1783 3903.2834,13.176 3912.7788,13.1726 3922.1423,13.1778 3931.1516,13.1781 3939.782,13.1793 3948.0015,13.1761 3955.8647,13.1631 3963.561,13.1576 3971.437,13.1601 3979.187,13.177 3987.3022,13.2113 3995.2703,13.258 4003.5945,13.3215 4011.8931,13.4019 4019.9927,13.5025 4028.1072,13.6256 4036.4128,13.7224 4044.9163,13.8273 4053.6116,13.9058 4062.4631,13.9646 4071.4661,14.0033 4080.6174,14.0695 4089.8796,14.1263 4099.2573,14.183 4108.6997,14.2189 4118.0596,14.2896 4127.3027,14.3324 4136.3379,14.3663 4145.1182,14.3885 4153.5806,14.3897 4161.6968,14.3787 4169.7046,14.3657 4177.9409,14.3713 4186.4111,14.3921 4194.6274,14.4225 4203.0474,14.4676 4211.3369,14.5296 4219.272,14.5933 4227.418,14.6791 4235.3418,14.7941 4243.228,14.8954 4251.4121,14.9964 4259.7988,15.078 4268.3706,15.1408 4277.0981,15.1729 4285.981,15.1911 4295.022,15.1669 4304.1997,15.1311 4313.458,15.0255 4322.6973,14.9588 4332.0244,14.8724 4341.4229,14.8044 4350.9331,14.7261 4360.5615,14.6696 4370.2891,14.6006 4380.1177,14.5472 4390.061,14.5032 4399.9917,14.4652 4409.5381,14.4398 4418.5913,14.4248 4427.1577,14.4173 4435.2695,14.4151 4442.9326,14.4107 4450.1743,14.3941 4457.0986,14.3715 4463.9238,14.3392 4470.6826,14.3026 4477.3389,14.2537 4483.918,14.1925 4490.5024,14.1298 4497.4346,14.0663 4504.2363,14.0215 4511.4019,13.9779 4518.4497,13.9451 4525.6689,13.9244 4533.355,13.9084 4540.876,13.9068 4548.7759,13.9132 4556.6235,13.9372 4564.2476,13.9685 4572.0283,13.9995 4580.043,14.0128 4588.251,14.0154 4596.647,14.0096 4605.2358,13.9857 4614.0015,13.9623 4622.918,13.9294 4631.9658,13.8971 4641.1646,13.8666 4650.5078,13.8332 4659.9956,13.8006 4669.6196,13.7622 4679.3755,13.7297 4689.2373,13.6971 4699.187,13.6674 4709.2598,13.6525 4719.4546,13.6313 4729.7642,13.6162 4740.187,13.605 4750.7222,13.5963 4761.3682,13.6013 4772.1216,13.6154 4782.98,13.6352 4793.9414,13.6637 4805.0015,13.7117 4816.1577,13.7823 4827.4048,13.852 4838.6587,13.9434 4849.5625,14.0329 4859.9346,14.1201 4869.7593,14.2022 4879.043,14.2879 4887.7554,14.3667 4895.9028,14.4377 4903.5366,14.4974 4910.6875,14.531 4917.3447,14.5593 4923.6226,14.5714 4929.5625,14.5803 4935.2578,14.584 4940.8164,14.5952 4946.4009,14.6088 4951.9395,14.624 4957.4644,14.6389 4962.9541,14.654 4968.3784,14.6692 4973.7124,14.6869 4978.9521,14.703 4984.1401,14.7185 4989.3926,14.7318 4994.8208,14.7493 5000.4751,14.772 5006.666,14.7985 5012.7661,14.8246 5019.0684,14.8593 5025.4658,14.9007 5032.1504,14.946 5038.3711,14.9916 5044.5508,15.0417 5050.7925,15.0956 5057.1982,15.1531 5063.9312,15.2015 5070.9238,15.2389 5078.1455,15.2769 5085.5835,15.3125 5093.2109,15.3447 5101.0273,15.3753 5109.0127,15.4094 5117.1455,15.438 5125.4258,15.4506 5133.8726,15.4589 5142.48,15.4563 5151.2466,15.4418 5160.1689,15.4072 5169.2422,15.3583 5178.4648,15.304 5187.8359,15.2271 5197.3506,15.1346 5207.002,15.0317 5216.7817,14.9224 5226.6357,14.8019 5236.6094,14.7096 5246.709,14.5842 5256.9316,14.4826 5267.2754,14.3564 5277.7363,14.2573 5288.313,14.1449 5299.0034,14.0308 5309.8052,13.921 5320.7144,13.8309 5331.7275,13.7493 5342.8423,13.6996 5354.0557,13.6568 5365.3643,13.6157 5376.7666,13.58 5388.2578,13.5475 5399.8384,13.5126"/>
</svg>
