<?xml version="1.0" encoding="utf-8"?>
<!-- Track map generated with TinyPedal -->
<svg viewBox="-336.8828 -1248.3672 1298.4414 2208.6563" version="1.1" xmlns="http://www.w3.org/2000/svg">
	<title>Monza</title>
	<!-- Sector coordinates index -->
	<desc>187,376</desc>
	<!-- Raw global coordinates -->
	<polyline id="map" fill="none" stroke="black" stroke-width="10" points="-307.5331,460.0428 -306.2579,443.4538 -305.2362,430.6336 -304.0655,416.4734 -303.0677,404.8434 -301.8047,390.5745 -300.7347,378.8559 -299.5087,365.7893 -298.2524,352.6748 -296.8752,338.1904 -295.6299,324.9699 -294.5122,313.0296 -293.2854,299.7169 -292.068,286.3558 -290.8591,272.9478 -289.688,259.4917 -288.5617,245.9886 -287.4861,232.4375 -286.451,218.8402 -285.4277,205.2006 -284.3964,191.5209 -283.3386,177.8027 -282.2415,164.047 -281.1245,150.2533 -279.8666,135.0377 -278.8032,122.5574 -277.5948,108.6589 -276.3659,94.725 -275.1094,80.7577 -273.6945,65.356 -272.5248,52.7242 -271.2056,38.6586 -269.8642,24.561 -268.357,9.0182 -267.109,-3.7271 -265.73,-17.9201 -264.3466,-32.1444 -262.9799,-46.4016 -261.6685,-60.6935 -260.4205,-75.021 -259.217,-89.3818 -258.0561,-103.7733 -256.9297,-118.1938 -255.8163,-132.6413 -254.5614,-148.5627 -253.5035,-161.6104 -252.1661,-177.5817 -251.0372,-190.666 -249.7466,-205.2239 -248.4331,-219.8027 -247.1125,-234.4047 -245.7851,-249.0296 -244.4571,-263.6779 -243.1455,-278.3496 -241.8418,-293.0318 -240.4348,-308.8916 -239.2235,-322.6379 -238.1914,-334.3277 -237.1042,-346.5619 -236.0862,-358.0143 -235.1837,-368.7311 -234.3978,-378.7563 -233.7071,-388.1241 -233.0906,-396.8651 -232.5244,-404.9933 -231.9819,-412.5208 -231.379,-420.1434 -230.8776,-425.9121 -230.222,-432.4247 -229.6353,-437.3529 -228.8127,-442.9425 -227.9776,-447.1732 -226.7906,-451.4781 -225.2907,-455.3463 -223.2863,-459.0858 -221.156,-462.0177 -219.0158,-464.3012 -216.1631,-466.6999 -213.6781,-468.3691 -210.7422,-469.9408 -207.1756,-471.3958 -203.7,-472.3813 -200.6126,-472.9892 -197.3429,-473.5626 -194.2929,-474.2523 -191.4443,-475.1057 -188.8183,-476.2227 -186.4594,-477.6877 -184.3691,-479.4729 -182.5228,-481.5818 -180.9291,-484.0118 -179.596,-486.766 -178.5006,-490.17 -177.9907,-493.204 -177.873,-496.8056 -178.1644,-500.6181 -178.8163,-504.653 -179.8905,-509.371 -181.0664,-513.4163 -182.6349,-518.1462 -184.3424,-523.1586 -186.0925,-528.4485 -187.8533,-533.9869 -189.6468,-539.7722 -191.4583,-545.8036 -193.2718,-552.0833 -195.0718,-558.6097 -197.0278,-566.0688 -198.5904,-572.386 -200.2767,-579.602 -202.0271,-587.767 -203.3709,-594.6332 -204.7517,-602.4583 -205.997,-610.4869 -207.1054,-618.7134 -208.0698,-627.1318 -208.8859,-635.7357 -209.5557,-644.5181 -210.0784,-653.4723 -210.4422,-662.5588 -210.6217,-671.7809 -210.5986,-682.083 -210.4104,-690.63 -210.0245,-700.2471 -209.4526,-709.9866 -208.6972,-719.8439 -207.7531,-729.8132 -206.6611,-739.8949 -205.4641,-750.0902 -204.1518,-760.3948 -202.7239,-770.8052 -201.1473,-781.313 -199.2125,-792.9745 -197.4494,-802.5616 -195.252,-813.2526 -192.7591,-823.9747 -189.887,-834.694 -186.5842,-845.3793 -182.4119,-857.056 -178.5779,-866.5306 -173.8854,-876.9582 -168.7403,-887.261 -162.5772,-898.4341 -157.1372,-907.4274 -150.6704,-917.2399 -143.0531,-927.7903 -136.4276,-936.2083 -128.6578,-945.3153 -120.4823,-954.157 -111.0387,-963.5607 -102.9606,-970.9766 -92.6892,-979.7028 -83.9722,-986.555 -73.9853,-993.8758 -63.6886,-1000.8704 -52.0427,-1008.1682 -41.1767,-1014.4203 -30.0552,-1020.3156 -19.8458,-1025.3252 -8.2963,-1030.5681 4.637,-1035.9541 16.5839,-1040.5184 27.4822,-1044.348 39.7408,-1048.303 53.3929,-1052.2948 64.6852,-1055.2789 78.6214,-1058.6021 90.1208,-1061.0845 102.995,-1063.5865 115.9627,-1065.8328 129.0153,-1067.8416 142.147,-1069.62 155.3535,-1071.1628 169.9575,-1072.6447 181.9583,-1073.7463 195.3405,-1074.9265 208.7724,-1076.0564 222.2549,-1077.1101 235.7838,-1078.1427 249.3562,-1079.1746 262.9716,-1080.2031 276.6307,-1081.2097 290.3341,-1082.1663 304.0816,-1083.0726 319.2543,-1084.0067 331.7068,-1084.725 346.9721,-1085.5626 359.4959,-1086.2225 373.2762,-1086.9327 386.5073,-1087.6074 399.0955,-1088.2478 410.9545,-1088.8401 423.1799,-1089.4315 432.5545,-1089.8801 442.3297,-1090.3733 451.4476,-1090.8583 459.9334,-1091.3177 467.7967,-1091.787 475.0648,-1092.3096 481.7784,-1092.9092 487.9961,-1093.5892 493.7395,-1094.4507 498.9954,-1095.6191 503.7759,-1097.1497 508.0795,-1099.0476 512.2555,-1101.6005 515.2329,-1104.0714 518.3799,-1107.553 520.6947,-1110.7792 523.017,-1114.7742 525.3633,-1119.599 527.7781,-1124.0812 530.3423,-1127.9994 533.6138,-1132.1434 537.3365,-1135.9553 541.4576,-1139.3801 545.8706,-1142.373 550.5569,-1144.9009 555.6081,-1147.0603 560.9879,-1148.9496 566.594,-1150.5614 572.9056,-1152.0944 578.2098,-1153.2639 584.3432,-1154.5361 590.7111,-1155.8331 597.315,-1157.1858 604.1338,-1158.636 611.1451,-1160.2507 618.329,-1162.014 625.6604,-1163.9071 633.9012,-1166.1654 640.7759,-1168.1583 648.5477,-1170.5331 656.4579,-1173.0708 664.4996,-1175.7767 673.5024,-1178.9136 680.9931,-1181.5861 689.4529,-1184.642 698.0261,-1187.7468 706.7388,-1190.8762 715.5964,-1194.0165 725.5054,-1197.4828 733.7305,-1200.3549 742.9867,-1203.6018 752.3691,-1206.8926 761.8908,-1210.1805 771.5619,-1213.4268 781.363,-1216.6143 792.002,-1219.9261 800.3767,-1222.3568 809.3062,-1224.6591 817.8634,-1226.4878 826.0836,-1227.7419 834.0166,-1228.3672 842.4257,-1228.2816 849.8049,-1227.442 856.275,-1226.02 863.3202,-1223.7961 870.2142,-1220.9401 877.5815,-1217.1956 883.3937,-1213.6884 889.5584,-1209.2693 895.3655,-1204.3113 900.761,-1198.8018 905.7399,-1192.7433 910.2844,-1186.1774 914.6843,-1178.4008 917.7748,-1171.6793 920.5996,-1163.8704 922.7761,-1155.748 924.4697,-1146.5465 925.4536,-1138.8302 926.3406,-1130.0947 927.0706,-1121.2025 927.6519,-1112.157 928.1663,-1102.035 928.5657,-1093.6254 929.0791,-1084.1531 929.7186,-1074.5516 930.4971,-1064.8254 931.4056,-1054.9775 932.4237,-1045.0092 933.6439,-1033.9061 934.6794,-1024.7113 935.8243,-1014.3758 937.0627,-1002.864 938.0367,-993.3991 939.0225,-983.1704 939.9072,-973.4824 940.6539,-964.3754 941.2414,-955.7991 941.5586,-947.7214 941.4305,-940.0803 940.8051,-932.7972 939.421,-925.1757 937.6743,-919.2029 935.0271,-912.8141 931.2482,-906.1583 927.5125,-901.0431 922.1923,-895.2183 917.3435,-890.7278 911.5952,-885.8814 905.507,-881.1733 899.0786,-876.6256 892.3355,-872.2183 884.6208,-867.4485 878.0846,-863.6091 870.6098,-859.3777 862.1661,-854.7119 855.1093,-850.8488 847.146,-846.4798 838.2485,-841.6286 830.841,-837.6312 822.5006,-833.1193 814.0565,-828.512 804.6566,-823.3243 796.886,-818.9785 788.1544,-814.071 779.3085,-809.1067 770.338,-804.1064 761.2441,-799.0756 752.033,-794.0092 742.7061,-788.9083 733.2682,-783.7678 723.7308,-778.6012 713.1414,-772.8992 703.4245,-767.6668 694.6223,-762.8899 684.7925,-757.4833 674.9232,-751.9533 665.0322,-746.2739 655.1038,-740.4785 645.1343,-734.5759 635.1314,-728.5588 624.0994,-721.8003 615.0545,-716.158 604.9929,-709.7612 593.9633,-702.496 584.9754,-696.3695 575.0401,-689.3591 565.1396,-682.1655 555.2899,-674.7745 545.4992,-667.1838 535.7736,-659.3895 526.0999,-651.4122 515.5281,-642.4678 505.961,-634.188 497.3689,-626.6301 487.8198,-618.1393 477.2621,-608.7446 468.576,-601.0233 458.8822,-592.3984 449.141,-583.7322 439.3541,-575.0239 429.5219,-566.274 419.6415,-557.4881 409.7031,-548.6783 399.6891,-539.8663 389.6125,-531.0407 379.4833,-522.1933 369.2976,-513.3313 359.0629,-504.45 348.7798,-495.5523 338.4515,-486.6384 328.0782,-477.7135 317.6638,-468.7755 307.2238,-459.8097 296.7556,-450.8205 286.2536,-441.817 275.7103,-432.8081 265.1223,-423.8003 254.5106,-414.7703 243.8962,-405.6931 232.2127,-395.659 221.5725,-386.5064 211.9809,-378.2462 201.3106,-369.037 189.5525,-358.8768 180.0102,-350.6235 169.7728,-341.7446 160.0697,-333.3012 150.939,-325.3239 141.528,-317.0733 134.3023,-310.6978 126.7206,-303.9225 119.0034,-296.779 113.173,-291.1733 107.2741,-285.1021 102.0462,-279.0321 97.488,-272.8521 93.6025,-266.4827 90.409,-259.8836 87.7084,-252.3943 86.1478,-246.1268 84.9387,-238.319 84.4985,-231.8019 84.5433,-224.4194 85.117,-216.9008 86.0811,-209.2489 86.8315,-201.471 86.9449,-193.6302 86.4121,-185.7833 85.3188,-177.9772 83.7055,-170.2755 81.5243,-162.7546 78.4485,-154.7746 75.0671,-147.8188 71.5735,-141.7753 67.1923,-135.2578 62.3016,-128.9496 56.3577,-122.2794 51.1233,-116.9825 44.5933,-110.3955 39.4307,-104.6807 34.0491,-97.9477 29.0254,-90.8914 24.4493,-83.5206 20.5746,-75.7665 16.9607,-66.8949 14.2621,-58.5085 12.257,-50.7309 10.5101,-41.8558 9.1642,-32.7743 8.0961,-23.5176 7.247,-14.1001 6.4746,-4.5378 5.7287,5.1635 4.9742,15.0 4.2059,24.9694 3.428,35.0691 2.5617,46.3267 1.8455,55.6507 0.9664,67.1828 0.2175,76.7251 -0.6661,87.4358 -1.6039,98.2583 -2.5936,109.1543 -3.6322,120.1438 -4.8214,132.3421 -5.8219,142.4082 -6.9339,153.6843 -8.0415,165.0567 -9.1542,176.5234 -10.2701,188.0822 -11.3894,199.7321 -12.5095,211.4717 -13.7341,224.4882 -14.8467,236.4123 -15.8555,247.2157 -16.9903,259.2976 -18.2453,272.6811 -19.2698,283.7035 -20.4094,296.0076 -21.6695,309.6029 -22.7027,320.7839 -23.8299,333.2688 -25.057,347.075 -26.1809,359.6902 -27.213,371.0941 -28.382,383.8194 -29.6889,397.8836 -30.7743,409.442 -31.9982,422.3379 -33.2425,435.2894 -34.6341,449.5983 -35.7884,461.3543 -37.0841,474.4674 -38.3922,487.6338 -39.7094,500.8519 -41.0341,514.1222 -42.491,528.7789 -43.6943,540.8154 -45.0504,554.234 -46.4217,567.6997 -47.9503,582.5656 -49.329,596.1313 -50.5584,608.3804 -51.9162,622.0348 -53.2561,635.7358 -54.7068,650.8607 -55.8877,663.275 -57.2007,677.1089 -58.6479,692.3748 -59.8446,704.9012 -61.3167,720.254 -62.5321,732.8495 -63.9139,746.8768 -65.3206,760.9404 -66.7439,774.9883 -68.1501,788.6846 -69.6616,803.0284 -71.0139,815.3444 -72.2399,825.85 -73.6672,836.9095 -75.2419,847.3569 -77.0924,857.201 -79.4939,867.3917 -82.0201,876.0992 -84.6415,883.4832 -87.9811,891.181 -91.7674,898.3514 -96.0489,904.9459 -100.8383,910.9846 -106.1308,916.477 -111.9059,921.4404 -118.1581,925.8455 -125.5167,930.0541 -131.8789,932.9915 -139.2619,935.7073 -146.8986,937.835 -154.7091,939.31 -162.6171,940.1271 -170.5655,940.2891 -178.5137,939.7759 -187.2512,938.4764 -194.3869,936.827 -202.2647,934.3668 -210.0192,931.2328 -218.2956,927.0077 -224.808,922.9689 -231.756,917.8969 -238.3966,912.2504 -244.9102,906.2435 -251.426,900.0365 -257.7747,893.4774 -263.8702,886.5134 -269.6938,879.1583 -275.2302,871.4308 -280.4661,863.3492 -285.376,854.9251 -290.3657,845.2762 -294.1266,837.1061 -297.9503,827.7539 -301.4021,818.1356 -304.4718,808.2701 -307.166,798.1794 -309.4941,787.8845 -311.4696,777.4048 -313.244,765.6838 -314.4056,755.9577 -315.4137,745.0214 -316.1313,733.9584 -316.5776,722.7979 -316.81,711.5522 -316.8828,700.2126 -316.852,688.7838 -316.7533,677.2673 -316.582,665.6642 -316.379,653.9755 -316.1653,641.0205 -315.9988,630.3464 -315.841,618.4077 -315.7288,606.3881 -315.6562,594.2886 -315.6366,582.111 -315.649,569.8558 -315.6205,557.5255 -315.5261,545.1223 -315.3606,532.6476 -315.132,520.104 -314.8006,506.2275 -314.4525,494.8163 -313.9763,482.0771 -313.3472,469.2821"/>
	<!-- Raw distance reference points -->
	<polyline id="dist" fill="none" stroke="none" stroke-width="0" points="5771.6216,-2.0263 16.5324,-1.9487 29.3903,-1.8906 42.3033,-1.8168 55.2696,-1.7578 68.289,-1.6966 81.3605,-1.6396 94.4843,-1.5745 107.659,-1.5097 120.8843,-1.4331 134.1596,-1.3669 147.483,-1.3118 160.8522,-1.2435 174.2689,-1.1826 187.7311,-1.1086 201.2345,-1.0462 214.7822,-0.9699 228.3737,-0.8932 242.0083,-0.8189 255.6816,-0.7542 269.3944,-0.6847 283.1466,-0.6085 296.9473,-0.547 310.7935,-0.467 324.6767,-0.4026 338.5991,-0.323 352.5491,-0.2647 366.5281,-0.1893 380.5468,-0.1164 394.6071,-0.0415 408.714,0.0166 422.85,0.1071 437.0074,0.188 451.1985,0.2611 465.424,0.3265 479.6827,0.4035 493.9796,0.4748 508.3157,0.5333 522.6768,0.6157 537.061,0.691 551.4731,0.7516 565.9115,0.8341 580.3785,0.8796 594.8821,0.9578 609.407,1.0264 623.9543,1.0871 638.5253,1.181 653.1169,1.2667 667.7296,1.3559 682.3668,1.4442 697.0291,1.532 711.7095,1.6135 726.4088,1.6797 741.1401,1.7632 755.8798,1.8481 770.3713,1.9494 784.2454,2.0006 797.3248,2.0828 809.6074,2.1417 821.1124,2.1871 831.8705,2.24 841.925,2.2916 851.3035,2.3415 860.0592,2.3892 868.2047,2.4361 875.7515,2.4905 882.7259,2.5597 889.184,2.5932 895.1584,2.6404 900.693,2.6825 905.8327,2.7292 910.6189,2.7559 914.9869,2.7852 919.0002,2.8089 922.8211,2.8233 926.6257,2.8311 930.0546,2.8418 933.9642,2.8817 937.9846,2.9162 941.7884,2.9503 945.1752,2.9725 948.7128,2.98 951.9362,2.9811 955.0556,2.9894 958.5554,3.0379 962.9206,3.086 967.5806,3.096 971.8558,3.0984 974.3875,3.1141 977.6832,3.1424 980.2617,3.1736 982.7946,3.1951 985.705,3.2002 988.7007,3.2061 992.199,3.2252 995.8337,3.2409 999.9122,3.2738 1004.1504,3.2919 1008.7796,3.3151 1013.7619,3.3316 1019.0413,3.3403 1024.5889,3.38 1030.3779,3.4093 1036.4124,3.4411 1042.7122,3.4779 1049.2631,3.5057 1056.0619,3.531 1063.0764,3.5544 1070.3177,3.6037 1077.8057,3.6491 1085.4335,3.7048 1093.3071,3.7426 1101.4197,3.7723 1109.6434,3.817 1118.0925,3.865 1126.6577,3.9168 1135.3418,3.9785 1144.2333,4.0396 1153.2305,4.0973 1162.2917,4.152 1171.4814,4.2007 1180.8101,4.2634 1190.278,4.3196 1199.8815,4.3595 1209.6487,4.3997 1219.5311,4.4321 1229.5293,4.4717 1239.6697,4.5007 1249.933,4.5283 1260.3151,4.5547 1270.8123,4.5698 1281.4135,4.5809 1292.1375,4.5625 1302.9711,4.5425 1313.9121,4.5579 1324.9785,4.5806 1336.1882,4.6012 1347.4244,4.604 1358.7485,4.6049 1370.1544,4.6091 1381.6628,4.615 1393.2094,4.626 1404.8297,4.6168 1416.5569,4.6102 1428.3538,4.6077 1440.223,4.6013 1452.2184,4.5978 1464.2493,4.6124 1476.3641,4.6279 1488.516,4.6279 1500.7351,4.6385 1513.0437,4.6535 1525.3927,4.6859 1537.8363,4.7113 1550.3153,4.7486 1562.8667,4.7913 1575.4536,4.8325 1588.1206,4.8828 1600.8483,4.9351 1613.6886,5.0025 1626.5571,5.0855 1639.4226,5.161 1652.3639,5.245 1665.3093,5.3458 1678.3562,5.4743 1691.4227,5.5919 1704.4847,5.7489 1717.6152,5.8753 1730.7551,6.0245 1743.9542,6.1741 1757.1615,6.3305 1770.3973,6.4532 1783.6919,6.5763 1797.0347,6.6975 1810.4238,6.7912 1823.8533,6.8889 1837.3339,6.974 1850.8608,7.0724 1864.4266,7.1356 1878.0326,7.2088 1891.6862,7.3009 1905.3826,7.39 1919.1189,7.4808 1932.8951,7.5613 1946.7112,7.6415 1960.5648,7.6731 1974.4589,7.7068 1988.3936,7.7392 2002.2015,7.7146 2015.4515,7.7359 2028.0643,7.6772 2039.943,7.6784 2051.1106,7.6358 2061.5796,7.6289 2071.3743,7.5904 2080.5027,7.5784 2088.9917,7.5568 2096.8613,7.5325 2104.1443,7.4969 2110.8787,7.4789 2117.1252,7.444 2122.9165,7.4012 2128.2659,7.3793 2133.2998,7.3542 2138.3064,7.3102 2143.6909,7.268 2149.1504,7.2567 2153.8225,7.2702 2158.1543,7.2534 2162.6816,7.2113 2167.5059,7.1656 2172.6074,7.1466 2178.0999,7.1273 2184.1689,7.0866 2190.2781,7.0745 2195.6729,7.0902 2200.6606,7.0863 2205.7502,7.0793 2211.113,7.0743 2216.7292,7.05 2222.5276,7.0105 2228.4377,6.9932 2234.5088,6.9562 2240.8342,6.9225 2247.4373,6.8844 2254.2593,6.8362 2261.3696,6.7786 2268.5784,6.747 2276.0615,6.6968 2283.6602,6.655 2291.4211,6.6337 2299.3633,6.5855 2307.4917,6.5315 2315.7986,6.4482 2324.2834,6.4114 2332.9397,6.3495 2341.7639,6.3129 2350.7566,6.2586 2359.8721,6.2048 2369.127,6.1608 2378.5203,6.1235 2388.0542,6.0678 2397.7234,6.016 2407.5222,5.9657 2417.4551,5.9345 2427.5188,5.8815 2437.7112,5.852 2448.011,5.8095 2458.1575,5.7543 2467.8628,5.6896 2477.0662,5.6066 2485.7644,5.5026 2493.9744,5.3989 2501.9175,5.2897 2509.666,5.169 2517.2983,5.0678 2524.7444,5.0091 2532.3672,4.9167 2539.9414,4.8153 2547.7146,4.7297 2555.4043,4.6634 2563.3733,4.6326 2571.4023,4.5994 2579.2566,4.5799 2587.2725,4.5807 2595.2966,4.5805 2603.3921,4.6016 2611.4275,4.6096 2619.5566,4.6325 2627.7026,4.6614 2636.0549,4.668 2644.6453,4.6303 2653.4089,4.5821 2662.386,4.5275 2671.4358,4.4581 2680.6335,4.3989 2690.0056,4.3539 2699.4888,4.3063 2709.1172,4.2822 2718.8855,4.2628 2728.7898,4.2578 2738.8064,4.2412 2748.9451,4.233 2759.2141,4.2309 2769.6165,4.2191 2780.1357,4.2259 2790.7092,4.211 2800.98,4.2292 2810.7036,4.2174 2819.8362,4.2099 2828.438,4.2158 2836.4841,4.1995 2844.0623,4.1714 2851.229,4.0752 2858.1895,3.9346 2865.0532,3.8162 2872.5244,3.7076 2879.9939,3.6469 2887.7737,3.6461 2895.0918,3.7177 2902.4368,3.7911 2909.8613,3.8444 2917.4585,3.8881 2925.283,3.8885 2933.3015,3.8782 2941.5273,3.8151 2949.9409,3.7619 2958.5249,3.7219 2967.2832,3.6387 2976.2205,3.5932 2985.3079,3.5474 2994.5051,3.5027 3003.8462,3.4655 3013.335,3.4202 3022.9539,3.4014 3032.7026,3.3844 3042.5864,3.3878 3052.6128,3.3971 3062.7764,3.4082 3073.0532,3.3972 3083.4451,3.4107 3093.9617,3.3904 3104.5955,3.3951 3115.3352,3.4015 3126.1643,3.4153 3137.0959,3.4025 3148.1292,3.4074 3159.2532,3.4049 3170.4707,3.4069 3181.7861,3.3736 3193.1948,3.3821 3204.6951,3.3697 3216.3018,3.367 3228.0044,3.3993 3239.8022,3.4492 3251.7014,3.5178 3263.668,3.55 3275.7095,3.5768 3287.8335,3.561 3300.0337,3.5767 3312.2976,3.5296 3324.616,3.4797 3337.0061,3.385 3349.467,3.2525 3362.0007,3.0634 3374.5874,2.7962 3387.2358,2.5109 3399.9502,2.2203 3412.7295,1.898 3425.5774,1.5429 3438.4924,1.2446 3451.4719,0.9174 3464.5144,0.6046 3477.6182,0.2865 3490.7817,-0.0063 3504.0056,-0.315 3517.2905,-0.6198 3530.635,-0.9081 3544.0364,-1.1892 3557.4893,-1.352 3570.9932,-1.4847 3584.5439,-1.5588 3598.1421,-1.5861 3611.7837,-1.5711 3625.4663,-1.5097 3639.1885,-1.383 3652.9575,-1.1915 3666.759,-0.969 3680.5933,-0.7345 3694.4678,-0.5047 3708.3701,-0.2678 3722.2974,-0.0096 3736.2622,0.2485 3750.262,0.5199 3764.29,0.7445 3778.3508,0.9155 3792.449,1.1 3806.5935,1.2694 3820.634,1.4059 3834.1909,1.5232 3847.0559,1.6228 3859.176,1.6931 3870.584,1.742 3881.3022,1.8139 3891.4595,1.8377 3901.0422,1.8552 3910.0488,1.852 3918.4729,1.8446 3926.3953,1.8267 3934.0083,1.7873 3941.6467,1.7414 3949.1294,1.7117 3956.3142,1.7093 3963.1921,1.7367 3970.1311,1.7387 3977.103,1.7164 3984.4214,1.6576 3992.0676,1.5792 3999.9365,1.5113 4008.2236,1.4333 4016.4695,1.3895 4024.4937,1.3608 4032.5916,1.3156 4040.554,1.2519 4048.5562,1.2009 4056.4263,1.1659 4064.1721,1.1342 4071.928,1.09 4079.7585,1.0308 4087.667,0.9626 4095.7192,0.8916 4103.8433,0.8445 4112.1714,0.7944 4120.7241,0.7784 4130.0947,0.8016 4139.8359,0.7883 4149.0225,0.7032 4157.6372,0.7218 4166.1431,0.6987 4174.8101,0.672 4183.6177,0.6293 4192.5879,0.6035 4201.7646,0.5717 4211.0757,0.5031 4220.5269,0.4847 4230.1157,0.4111 4239.8384,0.3507 4249.6904,0.2824 4259.6802,0.2165 4269.7993,0.1449 4280.0454,0.0757 4290.4165,0.0144 4300.9243,-0.0434 4311.5479,-0.0922 4322.2954,-0.1457 4333.1577,-0.2164 4344.0981,-0.2873 4355.1343,-0.3435 4366.2705,-0.4143 4377.5059,-0.4697 4388.8398,-0.5486 4400.2661,-0.6033 4411.7847,-0.6863 4423.3945,-0.7629 4435.0967,-0.8438 4446.8896,-0.9098 4458.7739,-1.0039 4470.7476,-1.0669 4482.8032,-1.13 4494.9414,-1.2042 4507.1587,-1.2789 4519.4536,-1.3381 4531.8086,-1.4081 4544.2178,-1.482 4556.6934,-1.554 4569.2271,-1.6283 4581.8164,-1.7063 4594.4668,-1.776 4607.1792,-1.8482 4619.9585,-1.9001 4632.7998,-1.9768 4645.6934,-2.0412 4658.6372,-2.1162 4671.6445,-2.1916 4684.7129,-2.2728 4697.8394,-2.3302 4711.0195,-2.4027 4724.2622,-2.4779 4737.5659,-2.565 4750.9087,-2.6409 4764.3057,-2.7194 4777.75,-2.7746 4791.2383,-2.8359 4804.7754,-2.8977 4818.3623,-2.9852 4831.998,-3.0609 4845.6772,-3.1257 4859.397,-3.2 4873.1318,-3.2814 4886.9297,-3.3571 4900.8105,-3.4327 4914.7056,-3.5113 4928.6333,-3.5887 4942.6108,-3.6648 4956.6147,-3.7324 4970.6714,-3.8103 4984.7695,-3.9034 4998.9106,-3.9492 5013.0342,-4.0119 5026.812,-4.0746 5039.958,-4.1299 5052.4028,-4.1637 5064.167,-4.1886 5075.2876,-4.2144 5085.8447,-4.2679 5095.8506,-4.3081 5105.3296,-4.3633 5114.3901,-4.4445 5123.167,-4.5108 5131.7314,-4.5656 5139.979,-4.6328 5148.1055,-4.6713 5155.9761,-4.7023 5163.9238,-4.7306 5171.7988,-4.7721 5179.5884,-4.7988 5187.6167,-4.8258 5195.5347,-4.8368 5203.5894,-4.8287 5211.6738,-4.8215 5219.6655,-4.7934 5227.6416,-4.7592 5235.5679,-4.7272 5243.4238,-4.6789 5251.3555,-4.638 5259.2793,-4.609 5267.3032,-4.5858 5275.5327,-4.5673 5283.7339,-4.542 5292.0542,-4.5278 5300.5581,-4.5316 5309.0479,-4.5394 5317.731,-4.5196 5326.6045,-4.494 5335.6641,-4.4616 5344.7456,-4.422 5353.9604,-4.3732 5363.3105,-4.3153 5372.7817,-4.2533 5382.377,-4.1934 5392.0977,-4.1238 5401.9351,-4.0722 5411.8496,-4.0089 5421.8745,-3.952 5432.0435,-3.8916 5442.3252,-3.8293 5452.7285,-3.7663 5463.248,-3.7135 5473.895,-3.6533 5484.6445,-3.6016 5495.5107,-3.5626 5506.5186,-3.5356 5517.6396,-3.4985 5528.8398,-3.4698 5540.1519,-3.438 5551.5566,-3.3671 5563.0469,-3.3225 5574.6265,-3.2363 5586.2944,-3.1448 5598.0723,-3.0519 5609.9307,-2.9806 5621.8521,-2.8983 5633.8662,-2.8172 5645.9668,-2.7426 5658.1445,-2.6689 5670.3975,-2.607 5682.7207,-2.5403 5695.1084,-2.4748 5707.5527,-2.4076 5720.0815,-2.3453 5732.6514,-2.287 5745.2939,-2.2322 5758.0107,-2.1801 5770.7808,-2.1335"/>
</svg>
