<?xml version="1.0" encoding="utf-8"?>
<!-- Track map generated with TinyPedal -->
<svg viewBox="-337.5782 -1248.6824 1298.9096 2208.7234" version="1.1" xmlns="http://www.w3.org/2000/svg">
	<title>Monza Curva Grande Circuit</title>
	<!-- Sector coordinates index -->
	<desc>136,337</desc>
	<!-- Raw global coordinates -->
	<polyline id="map" fill="none" stroke="black" stroke-width="10" points="-308.1631,461.4908 -306.9066,438.7902 -306.1327,426.0985 -305.3058,413.351 -304.3497,399.265 -303.4461,386.4025 -302.6038,374.7809 -301.6084,361.8213 -300.5067,348.8173 -299.3391,335.7671 -298.136,322.6691 -296.9123,309.5231 -295.6764,296.3298 -294.4288,283.0895 -293.1782,269.8033 -291.9243,256.4717 -290.6658,243.0962 -289.4039,229.6775 -288.1424,216.2168 -286.742,201.3638 -285.447,187.8212 -284.2658,175.6008 -282.9517,161.9866 -281.5013,146.9683 -280.3074,134.6491 -278.9749,120.9276 -277.6263,107.1741 -276.1279,92.008 -274.8793,79.5724 -273.3353,64.3403 -272.0671,51.8506 -270.6977,37.9408 -269.389,23.9958 -268.0076,8.6186 -266.9099,-3.9907 -265.6074,-19.4355 -264.5703,-32.0985 -263.4279,-46.194 -262.2809,-60.3143 -261.1187,-74.4572 -259.8179,-90.0012 -258.737,-102.7378 -257.5184,-116.9129 -256.2823,-131.1118 -255.0319,-145.335 -253.773,-159.582 -252.5033,-173.8522 -251.232,-188.145 -249.951,-202.4602 -248.6545,-216.7961 -247.3344,-231.1522 -246.0095,-245.5301 -244.6876,-259.9298 -243.2434,-275.7947 -242.0646,-288.7945 -240.747,-303.2571 -239.4302,-317.74 -238.1035,-332.24 -236.646,-348.2134 -235.3454,-362.7565 -234.1828,-375.8617 -232.7688,-391.8995 -231.622,-405.0382 -230.3611,-419.6535 -228.9911,-435.7511 -227.9012,-448.9387 -226.7238,-463.6089 -225.6071,-478.2993 -224.5751,-493.0102 -223.4787,-509.2123 -222.5808,-522.4808 -221.586,-537.2377 -220.5907,-552.0081 -219.5005,-568.2723 -218.6106,-581.5917 -217.6342,-596.4044 -216.6528,-611.2291 -215.5564,-627.5493 -214.6251,-640.9109 -213.5315,-655.7668 -212.4029,-670.6324 -211.2447,-685.5085 -210.0513,-700.395 -208.6781,-716.7792 -207.3505,-731.6795 -206.0536,-745.0906 -204.4118,-759.98 -202.2359,-776.3214 -199.795,-791.1099 -197.1771,-804.3406 -193.7165,-818.9191 -189.6845,-833.3076 -185.0512,-847.4301 -179.7934,-861.2449 -173.9205,-874.7214 -167.4373,-887.8281 -160.3853,-900.5653 -151.9671,-914.108 -144.5659,-924.7925 -135.8432,-936.2459 -125.6397,-948.3037 -116.8446,-957.7532 -105.5889,-968.8139 -95.9726,-977.437 -84.8766,-986.5443 -73.3823,-995.1505 -60.2987,-1004.0093 -49.285,-1010.7925 -35.4734,-1018.5015 -22.6105,-1024.9517 -10.8146,-1030.3217 2.4957,-1035.8519 15.9912,-1040.9583 29.6565,-1045.6477 43.4679,-1049.939 58.8159,-1054.1887 71.4809,-1057.3071 85.6484,-1060.4233 99.9099,-1063.1456 115.6936,-1065.6824 130.1128,-1067.6134 143.1369,-1069.0693 157.6524,-1070.3846 172.2038,-1071.4688 186.7794,-1072.455 201.3726,-1073.4459 215.9835,-1074.4254 232.0752,-1075.5116 246.7209,-1076.5084 259.9161,-1077.4093 274.5932,-1078.4049 289.2862,-1079.3999 303.9945,-1080.4041 320.1291,-1081.5166 333.0763,-1082.4211 346.9991,-1083.4062 360.3727,-1084.3452 373.2058,-1085.2299 386.7065,-1086.1525 397.2819,-1086.8641 409.615,-1087.6642 419.2284,-1088.2655 429.4085,-1088.8861 439.9626,-1089.5111 448.069,-1089.981 456.5138,-1090.484 465.1183,-1091.0648 472.3333,-1091.6488 478.3294,-1092.223 484.4724,-1092.8833 490.0906,-1093.6091 495.1886,-1094.5201 499.7948,-1095.687 504.3465,-1097.3003 507.7007,-1098.8954 511.3627,-1101.2212 514.0219,-1103.4371 516.599,-1106.2023 519.0883,-1109.5356 520.9694,-1112.5125 522.9778,-1116.0459 525.0521,-1119.7458 527.5639,-1123.923 529.869,-1127.3152 532.7343,-1130.8839 535.9483,-1134.1539 539.5078,-1137.0876 543.3841,-1139.7301 547.6025,-1142.1104 552.1812,-1144.212 557.6276,-1146.2504 562.3813,-1147.7544 567.9731,-1149.2681 573.82,-1150.6691 579.8866,-1151.9901 586.1956,-1153.3368 592.7285,-1154.7528 599.4728,-1156.2582 606.4147,-1157.8751 613.5449,-1159.6079 621.5887,-1161.67 628.3116,-1163.4973 635.9066,-1165.6736 643.5865,-1167.9995 651.4051,-1170.4728 659.3568,-1173.0896 668.258,-1176.1155 675.6599,-1178.6948 684.855,-1181.9507 693.3591,-1184.9865 701.1346,-1187.7578 709.9017,-1190.8909 718.7996,-1194.0769 727.8305,-1197.2975 736.9541,-1200.5355 746.1876,-1203.7948 755.5514,-1207.0663 764.9672,-1210.3066 774.0957,-1213.4191 782.7574,-1216.349 791.7208,-1219.2942 798.6679,-1221.4525 806.037,-1223.5819 813.1172,-1225.4104 820.0129,-1226.88 826.8129,-1227.9319 833.5892,-1228.5504 840.3289,-1228.6824 847.6525,-1228.2198 853.5296,-1227.3351 859.8997,-1225.8542 866.0552,-1223.86 871.9473,-1221.3484 877.5804,-1218.3143 882.9727,-1214.7974 888.1157,-1210.8347 892.9923,-1206.469 897.5724,-1201.7 901.8583,-1196.5236 905.8814,-1190.9424 909.6187,-1184.9429 913.0279,-1178.54 916.3649,-1171.0646 918.9683,-1163.9 920.9419,-1157.1776 922.7633,-1149.4415 924.2663,-1141.4619 925.6089,-1132.4352 926.5159,-1124.8713 927.415,-1116.2971 928.2681,-1106.6671 928.8765,-1098.6396 929.5469,-1088.6544 930.0677,-1080.3496 930.7281,-1070.0518 931.4062,-1060.6047 932.0864,-1051.9949 932.9197,-1042.3109 933.828,-1032.5057 934.7956,-1022.5808 935.8092,-1012.5373 936.9275,-1001.433 937.8036,-992.6049 938.8008,-982.364 939.5644,-974.4808 940.3269,-966.243 940.964,-957.7761 941.2812,-951.2608 941.3314,-944.3995 941.0287,-937.8741 940.2999,-931.6279 938.9576,-924.9592 937.434,-919.6163 935.0239,-913.2034 932.2914,-907.5417 929.3651,-902.6432 925.6265,-897.4149 921.4042,-892.4158 916.7488,-887.6436 911.6874,-883.1249 906.2424,-878.8748 900.4882,-874.8309 894.4417,-870.9935 887.5245,-866.8628 881.6387,-863.5592 874.8486,-859.9907 867.8192,-856.4868 860.5833,-852.9958 852.4482,-849.055 844.9132,-845.3473 838.0201,-841.9131 830.2507,-837.9749 822.3719,-833.9077 814.3806,-829.7241 805.4592,-825.0049 798.0524,-821.0711 789.7092,-816.6338 781.2509,-812.1274 771.8185,-807.0923 763.1279,-802.4543 754.3506,-797.7733 746.391,-793.5145 736.5517,-788.2385 728.4154,-783.8597 719.2923,-778.9177 709.1647,-773.381 700.8104,-768.7668 691.4609,-763.5485 682.0411,-758.2382 672.5591,-752.8279 663.0179,-747.3168 653.4247,-741.6989 642.8286,-735.3757 634.1379,-730.0749 624.4672,-724.0461 614.7911,-717.8628 605.1208,-711.5156 595.4727,-704.9883 585.8491,-698.283 576.2612,-691.3922 566.7033,-684.3307 557.2065,-677.1116 547.7533,-669.7386 538.3266,-662.2077 528.9194,-654.53 519.5168,-646.7269 509.1573,-638.0259 500.6548,-630.832 490.2164,-621.9647 481.6202,-614.6705 472.0176,-606.5184 462.4118,-598.2576 451.8495,-589.0413 443.1864,-581.4286 433.5304,-572.9075 423.839,-564.3262 414.1111,-555.6883 404.3459,-546.998 393.5611,-537.3798 384.6983,-529.4739 374.7896,-520.675 364.832,-511.85 353.8238,-502.1148 343.7612,-493.2497 334.6548,-485.2692 324.4849,-476.3997 314.2788,-467.5082 304.0413,-458.595 292.739,-448.7739 282.4285,-439.8307 273.1218,-431.7685 262.7518,-422.7982 252.3731,-413.7904 241.9914,-404.7388 230.5677,-394.7333 221.1989,-386.5316 210.8426,-377.4804 199.7791,-367.8188 191.1036,-360.2566 181.9171,-352.2656 172.3636,-343.9691 164.9698,-337.5344 157.1897,-330.7282 149.1256,-323.6608 142.9081,-318.2035 136.4095,-312.4695 130.333,-307.0383 124.683,-301.8921 119.432,-297.0164 114.5674,-292.3519 110.101,-287.8123 106.0311,-283.3042 102.3215,-278.7108 98.6587,-273.4485 96.0351,-268.9712 93.2788,-263.2421 91.3696,-258.3254 89.5715,-252.6364 88.0701,-246.1076 87.0957,-239.9523 86.5444,-234.2449 86.2542,-227.0684 86.2833,-221.0367 86.4917,-213.5665 86.6586,-207.5021 86.6587,-200.824 86.3033,-194.2265 85.4111,-187.0857 84.2915,-181.2625 82.6893,-174.736 80.6243,-168.1902 78.1056,-161.6501 75.1021,-155.1629 71.6394,-148.7407 67.2759,-141.7834 63.2724,-136.1939 58.4261,-130.0719 53.2535,-124.0463 47.3678,-117.3532 42.0523,-111.007 37.4338,-104.9963 32.6031,-97.997 28.1701,-90.6946 24.1729,-83.1261 20.3252,-74.4652 17.558,-67.1199 14.8654,-58.6821 12.5545,-49.9855 10.6148,-41.0513 8.9508,-31.9163 7.5175,-22.6015 6.194,-12.1634 5.2276,-3.4906 4.2053,7.2634 3.4112,16.1801 2.5212,26.1986 1.6203,36.2883 0.7077,46.4962 -0.2136,56.8219 -1.1354,67.2636 -2.0636,77.8184 -2.9957,88.4839 -3.9434,99.2566 -4.8912,110.1356 -5.847,121.1179 -6.8171,132.2002 -7.7953,143.3811 -8.768,154.6588 -9.7564,166.0291 -10.7654,177.489 -11.7952,189.0354 -12.9511,201.8333 -14.022,213.5532 -15.0013,224.1689 -16.1081,236.0365 -17.2283,247.9387 -18.3656,259.9131 -19.635,273.1715 -20.8099,285.3018 -21.8854,296.2811 -23.0998,308.5474 -24.3263,320.8841 -25.6874,334.534 -26.8155,345.7622 -28.2082,359.5588 -29.4952,372.1683 -30.6597,383.5716 -31.9434,396.303 -33.2106,409.0982 -34.5906,423.2445 -35.7126,434.8731 -36.9484,447.8501 -38.1676,460.8858 -39.3854,473.9772 -40.6047,487.1225 -41.8278,500.3202 -43.055,513.5701 -44.4211,528.2019 -45.669,541.5548 -46.7961,553.613 -48.1779,568.4021 -49.3093,580.5433 -50.5697,594.076 -51.8435,607.6509 -53.1324,621.2673 -54.4299,634.9245 -55.7227,648.6225 -57.1369,663.7361 -58.4181,677.5162 -59.5691,689.9503 -60.8503,703.7998 -62.2576,719.0747 -63.4109,731.6033 -64.7171,745.5524 -66.0463,759.4995 -67.3643,773.1115 -68.6517,786.0992 -70.0214,799.5483 -71.1144,809.8884 -72.3475,820.7106 -73.6344,830.8525 -75.0404,840.3408 -76.5941,849.2399 -78.4909,858.3995 -80.1954,865.4447 -82.2741,872.8428 -84.5803,879.8477 -87.144,886.5178 -90.046,892.877 -93.7009,899.5239 -97.4545,905.2067 -101.178,909.983 -105.6798,914.8721 -111.0692,919.7465 -115.8641,923.3865 -122.1768,927.4661 -127.6787,930.485 -134.0679,933.4285 -140.6226,935.8556 -147.2677,937.722 -154.0162,939.0084 -160.9107,939.7624 -167.9841,940.041 -175.1792,939.8229 -182.3966,939.0906 -189.6365,937.8516 -197.5963,935.9169 -204.7904,933.6486 -211.1992,931.1888 -218.2042,927.9811 -225.7466,923.8917 -231.7538,920.13 -238.2195,915.4977 -244.4712,910.3818 -250.5423,904.8184 -256.4188,898.827 -262.0726,892.4185 -267.4991,885.6213 -272.6865,878.4557 -278.1108,870.1785 -282.3212,863.1149 -286.75,854.9764 -290.9024,846.546 -295.1494,836.9609 -298.3541,828.886 -301.6396,819.6886 -304.612,810.2662 -307.2592,800.6628 -309.5662,790.8833 -311.7601,779.9171 -313.4467,769.7734 -314.7081,760.5112 -315.8484,750.0851 -316.7422,738.4625 -317.2543,727.7693 -317.501,718.0491 -317.5782,707.1475 -317.4838,696.1467 -317.2577,685.0505 -316.9202,673.8622 -316.4998,662.5845 -316.0061,651.2201 -315.442,639.7715 -314.7429,627.0844 -314.124,616.6322 -313.4472,604.9422 -312.8582,593.1703 -312.3327,581.3201 -311.8379,569.3953 -311.3009,556.1954 -310.832,545.3348 -310.2566,533.2449 -309.6355,521.0922 -308.9818,508.8711 -308.2355,495.3501 -307.6034,484.2281 -306.8754,471.8091"/>
	<!-- Raw distance reference points -->
	<polyline id="dist" fill="none" stroke="none" stroke-width="0" points="5740.9624,-2.0087 21.1074,-1.9025 33.8163,-1.8467 46.5862,-1.7886 59.4124,-1.7252 72.2964,-1.6744 85.2331,-1.6149 98.2268,-1.5567 111.2771,-1.4983 124.3821,-1.4306 137.5409,-1.3652 150.7464,-1.3078 163.9983,-1.2307 177.2978,-1.1729 190.6414,-1.1007 204.0206,-1.0396 217.4525,-0.9587 230.9316,-0.8761 244.4535,-0.8015 258.0115,-0.7294 271.6069,-0.6544 285.2441,-0.5856 298.9272,-0.5214 312.6536,-0.4366 326.4148,-0.3774 340.2061,-0.2942 354.0247,-0.2285 367.8686,-0.1451 381.7477,-0.0774 395.6672,-0.0007 409.6265,0.0594 423.611,0.1498 437.6138,0.2264 451.6451,0.2989 465.7052,0.3606 479.7928,0.4399 493.9134,0.5011 508.0697,0.5539 522.2469,0.6296 536.4404,0.7052 550.6197,0.7757 564.822,0.8459 579.0531,0.8953 593.3204,0.972 607.6058,1.0376 621.9113,1.1042 636.2392,1.195 650.5891,1.2782 664.9586,1.3727 679.3525,1.4544 693.7693,1.5417 708.2054,1.627 722.6554,1.6933 737.1358,1.7757 751.6391,1.8567 766.1512,1.9341 780.6912,2.0023 795.2531,2.0903 809.8331,2.1733 824.4386,2.2294 839.0591,2.3037 853.6829,2.3865 868.3464,2.462 883.016,2.5725 897.7029,2.6862 912.4051,2.7847 927.1228,2.8796 941.86,2.978 956.6111,3.0806 971.373,3.2035 986.149,3.3094 1000.939,3.4139 1015.7488,3.5304 1030.567,3.6631 1045.3984,3.7464 1060.2441,3.8516 1075.0999,3.992 1089.9695,4.0682 1104.8522,4.1586 1119.7472,4.2091 1134.656,4.2548 1149.5775,4.3215 1164.4774,4.3839 1179.4391,4.4381 1194.3787,4.4932 1209.3506,4.5368 1224.3292,4.5869 1239.3036,4.614 1254.2495,4.6092 1269.2207,4.5666 1284.2449,4.5792 1299.3279,4.5899 1314.3099,4.5822 1329.2224,4.5813 1344.0571,4.5832 1358.7717,4.6002 1373.4009,4.5909 1388.0027,4.5921 1402.5432,4.5972 1417.069,4.5961 1431.5353,4.6282 1445.9517,4.6467 1460.3334,4.6677 1474.7341,4.6943 1489.1252,4.7401 1503.5203,4.7813 1517.9109,4.8406 1532.3231,4.8802 1546.7506,4.9364 1561.2255,4.9972 1575.7382,5.0622 1590.2222,5.137 1604.749,5.2199 1619.2853,5.3199 1633.8323,5.4386 1648.4082,5.5794 1662.9657,5.7138 1677.5304,5.8672 1692.089,6.0215 1706.6671,6.1925 1721.23,6.3519 1735.7914,6.4666 1750.3652,6.5956 1764.9556,6.7117 1779.5613,6.8204 1794.1895,6.914 1808.8262,7.0069 1823.4816,7.1047 1838.1709,7.1753 1852.8719,7.2584 1867.5812,7.3521 1882.3094,7.4444 1897.0502,7.5473 1911.752,7.6413 1926.1987,7.69 1940.1606,7.741 1953.5883,7.7897 1966.48,7.7783 1978.8125,7.795 1990.6323,7.7521 2001.903,7.7314 2012.6353,7.7009 2022.8395,7.686 2032.4939,7.6494 2041.5463,7.6349 2049.9985,7.616 2057.8481,7.5922 2065.1375,7.5549 2071.8438,7.5342 2078.0134,7.5115 2083.666,7.4716 2088.8167,7.4391 2093.5181,7.4183 2097.9233,7.3891 2102.3489,7.3522 2107.2354,7.3123 2112.3743,7.2882 2116.741,7.2961 2120.5273,7.2991 2124.3308,7.2784 2128.3293,7.2402 2132.4944,7.2085 2136.9001,7.1859 2141.7234,7.169 2147.0981,7.1347 2152.6235,7.106 2157.5518,7.1107 2162.0728,7.1097 2166.709,7.094 2171.6328,7.0873 2176.8308,7.0777 2182.3027,7.0514 2188.072,7.041 2194.0916,7.0081 2200.3782,6.9753 2206.8677,6.9282 2213.5911,6.8765 2220.634,6.8239 2227.7949,6.7791 2235.1436,6.7327 2242.7422,6.6791 2250.5,6.6532 2258.3936,6.6307 2266.4204,6.5804 2274.6187,6.5219 2282.9907,6.4532 2291.5278,6.4062 2300.2275,6.3585 2309.0864,6.3083 2318.0991,6.2512 2327.2627,6.2069 2336.5708,6.1664 2346.0183,6.1288 2355.605,6.0694 2365.2834,6.0179 2375.0679,5.9772 2384.9795,5.935 2394.9302,5.8847 2404.5676,5.8529 2413.7058,5.822 2422.3064,5.7729 2430.4092,5.7238 2438.0754,5.6623 2445.3618,5.5965 2452.3608,5.5142 2459.178,5.4327 2465.9641,5.3436 2472.7744,5.2566 2479.5271,5.1597 2486.2471,5.1129 2492.8528,5.0583 2499.3916,4.9903 2505.9204,4.9131 2512.3965,4.8358 2518.9233,4.7603 2525.7173,4.706 2532.4678,4.6493 2539.2686,4.5989 2546.3271,4.5719 2553.3296,4.5469 2560.658,4.5365 2567.9575,4.5474 2575.3943,4.5611 2582.9082,4.58 2590.5171,4.6092 2598.3606,4.637 2606.3777,4.6385 2614.6277,4.6076 2623.1082,4.5784 2631.7556,4.5214 2640.5171,4.4692 2649.4722,4.4318 2658.5818,4.3791 2667.8232,4.345 2677.207,4.3217 2686.6846,4.3015 2696.2761,4.2999 2705.9861,4.2732 2715.8259,4.2662 2725.7952,4.2596 2735.8965,4.2506 2746.0476,4.2529 2755.9287,4.2409 2765.3088,4.254 2774.1267,4.249 2782.3958,4.2399 2790.1418,4.249 2797.4011,4.2377 2804.2224,4.222 2810.6487,4.1683 2816.8438,4.0721 2822.9546,3.9382 2829.1194,3.8317 2835.9875,3.734 2842.7886,3.686 2849.5171,3.7153 2856.2007,3.7848 2862.563,3.8841 2869.0208,3.9709 2875.5957,4.03 2882.4043,4.0554 2889.3845,4.0288 2896.5042,4.0195 2903.8093,3.9432 2911.3081,3.8728 2918.9746,3.8161 2926.8132,3.7426 2934.834,3.6753 2943.0383,3.6068 2951.4097,3.5794 2959.9453,3.5387 2968.6465,3.4964 2977.5154,3.4678 2986.5327,3.4601 2995.6953,3.4538 3005.0046,3.4533 3014.4551,3.4619 3024.0479,3.4742 3033.7666,3.4728 3043.604,3.4673 3053.543,3.461 3063.5669,3.4674 3073.7078,3.4734 3083.9631,3.476 3094.3354,3.4726 3104.8235,3.4708 3115.4238,3.4598 3126.1311,3.4708 3136.9438,3.4725 3147.8618,3.4591 3158.8801,3.4616 3169.998,3.4681 3181.2158,3.4751 3192.5308,3.4969 3203.9409,3.5375 3215.4478,3.5969 3227.0347,3.6369 3238.7017,3.6481 3250.4521,3.6368 3262.2798,3.6431 3274.1709,3.6024 3286.1023,3.5565 3298.0864,3.4693 3310.1455,3.3469 3322.2751,3.1846 3334.4905,2.9727 3346.7874,2.682 3359.1597,2.4097 3371.6023,2.0636 3384.1213,1.7821 3396.7236,1.4475 3409.3989,1.1293 3422.1489,0.7627 3434.9685,0.486 3447.8577,0.1757 3460.8093,-0.1235 3473.8193,-0.4164 3486.8867,-0.7189 3500.0171,-1.0171 3513.2117,-1.238 3526.4612,-1.3812 3539.7649,-1.4926 3553.1226,-1.5544 3566.5261,-1.5653 3579.9751,-1.545 3593.4673,-1.4564 3607.0088,-1.3208 3620.6025,-1.1171 3634.2156,-0.8703 3647.8647,-0.6395 3661.5557,-0.4472 3675.2668,-0.2025 3689.0012,0.0665 3702.7739,0.3207 3716.5779,0.5844 3730.4089,0.7808 3744.1621,0.9717 3757.5459,1.1602 3770.3821,1.2859 3782.5688,1.4179 3794.1091,1.5313 3805.0298,1.6105 3815.3665,1.6818 3825.1396,1.7463 3834.3557,1.7745 3843.0122,1.8264 3851.1436,1.8726 3858.7822,1.8833 3865.9421,1.8894 3872.6748,1.8902 3879.0229,1.8821 3885.0542,1.8759 3890.8792,1.8536 3896.6609,1.816 3902.4854,1.7798 3908.5417,1.7436 3914.7571,1.7376 3921.1494,1.6991 3927.1165,1.7162 3933.1746,1.7279 3939.3875,1.7218 3945.7722,1.6846 3952.4478,1.6368 3959.2888,1.5752 3966.3948,1.5273 3973.3267,1.4684 3980.178,1.4208 3987.188,1.391 3993.9636,1.3706 4001.0452,1.2796 4008.1375,1.2168 4015.5637,1.1559 4022.8965,1.1322 4030.5256,1.096 4038.1289,1.0401 4046.0493,0.9991 4053.9646,0.9475 4062.0657,0.9336 4070.1277,0.9049 4078.2505,0.8682 4086.678,0.8407 4095.8918,0.8093 4104.8525,0.7904 4113.9307,0.7528 4122.5645,0.7458 4131.1313,0.7257 4139.8745,0.6986 4148.7656,0.6558 4157.8242,0.6311 4167.0933,0.6003 4176.5063,0.5383 4186.0679,0.5323 4195.7627,0.4616 4205.5708,0.4015 4215.5059,0.3371 4225.5596,0.2714 4235.6846,0.1977 4245.9214,0.1349 4256.2666,0.0838 4266.7305,0.0307 4277.3389,-0.0219 4287.9731,-0.0795 4298.7954,-0.1488 4309.7271,-0.2127 4320.772,-0.2921 4331.8984,-0.3657 4343.1172,-0.4331 4354.4287,-0.5093 4365.8418,-0.5747 4377.3481,-0.6584 4388.9434,-0.7327 4400.6201,-0.8199 4412.3789,-0.8874 4424.2183,-0.9602 4436.1362,-1.028 4448.0908,-1.0944 4460.1196,-1.1616 4472.2241,-1.2396 4484.4038,-1.3037 4496.6582,-1.3659 4508.9844,-1.4283 4521.3813,-1.5009 4533.8491,-1.5782 4546.3872,-1.6385 4558.9922,-1.7103 4571.6626,-1.7857 4584.395,-1.8359 4597.1904,-1.9057 4610.0479,-1.9748 4622.9658,-2.0549 4635.9419,-2.1252 4648.9771,-2.1992 4662.0688,-2.2546 4675.2163,-2.3312 4688.4204,-2.4039 4701.6812,-2.4919 4714.9902,-2.568 4728.3511,-2.6493 4741.7598,-2.7127 4755.2148,-2.7767 4768.7168,-2.8478 4782.2651,-2.9153 4795.8579,-2.9961 4809.4946,-3.0688 4823.1714,-3.1439 4836.8794,-3.2262 4850.6313,-3.2967 4864.4424,-3.3848 4878.2778,-3.4632 4892.146,-3.5265 4906.0532,-3.61 4919.9907,-3.6823 4933.9644,-3.7549 4947.9756,-3.854 4961.9902,-3.8992 4975.667,-3.9564 4988.7246,-4.0155 5001.0527,-4.0693 5012.6362,-4.1022 5023.519,-4.1368 5033.7222,-4.1656 5043.2974,-4.1935 5052.3262,-4.2515 5060.8286,-4.2896 5068.8638,-4.3348 5076.5737,-4.416 5084.0098,-4.4835 5091.3862,-4.5435 5098.5615,-4.6044 5105.6792,-4.6575 5112.8887,-4.6891 5119.8516,-4.7104 5126.9365,-4.732 5133.7197,-4.7721 5140.5747,-4.7939 5147.7983,-4.8161 5154.9697,-4.8306 5162.2993,-4.8234 5169.3794,-4.8068 5176.4604,-4.7952 5183.3882,-4.7723 5190.355,-4.7446 5197.4512,-4.7166 5204.6143,-4.6794 5211.7432,-4.6355 5218.979,-4.599 5226.1973,-4.5627 5233.5869,-4.5354 5240.9106,-4.5135 5248.4561,-4.4763 5255.9966,-4.4358 5263.7354,-4.4161 5271.3301,-4.395 5279.2168,-4.3547 5287.147,-4.3199 5295.3994,-4.2968 5303.623,-4.277 5311.981,-4.2614 5320.6909,-4.2276 5329.4341,-4.1777 5338.3374,-4.1347 5347.3965,-4.0918 5356.605,-4.0412 5365.9448,-3.9921 5375.4819,-3.943 5385.0117,-3.8912 5394.6895,-3.8335 5404.457,-3.7756 5414.3271,-3.7132 5424.3101,-3.6518 5434.4312,-3.6076 5444.6631,-3.5531 5454.999,-3.5218 5465.4854,-3.4777 5476.1045,-3.4544 5486.8394,-3.4442 5497.6953,-3.4132 5508.6685,-3.3651 5519.7388,-3.3222 5530.8936,-3.2614 5542.1333,-3.1784 5553.4829,-3.1011 5564.9312,-3.0262 5576.4521,-2.9377 5588.0566,-2.8721 5599.751,-2.7978 5611.5186,-2.7241 5623.3706,-2.6489 5635.3027,-2.5747 5647.3311,-2.4897 5659.4658,-2.4235 5671.6592,-2.3441 5683.8477,-2.2741 5696.1489,-2.2156 5708.4849,-2.1444 5720.8638,-2.0909 5733.3237,-2.0273"/>
</svg>
