<?xml version="1.0" encoding="utf-8"?>
<!-- Track map generated with TinyPedal -->
<svg viewBox="-332.9482 -341.5993 1325.5736 849.0991" version="1.1" xmlns="http://www.w3.org/2000/svg">
	<title>Paul Ricard - 3A</title>
	<!-- Sector coordinates index -->
	<desc>100,258</desc>
	<!-- Raw global coordinates -->
	<polyline id="map" fill="none" stroke="black" stroke-width="10" points="93.6046,61.8784 75.6599,49.5419 65.2384,42.3755 55.2266,35.4949 44.5781,28.1698 32.7373,20.0174 22.4085,12.8963 11.9823,5.7088 0.9074,-1.9298 -11.3803,-10.4329 -22.6372,-18.2574 -32.8356,-25.3738 -44.7777,-33.7502 -55.6456,-41.4142 -67.1535,-49.5635 -79.3099,-58.2081 -90.9634,-66.5187 -102.1035,-74.4756 -113.9033,-82.9149 -126.3731,-91.8429 -137.7289,-99.9713 -150.3873,-108.9196 -161.6638,-116.7777 -173.7118,-125.1809 -184.7344,-132.8735 -194.7896,-139.8921 -204.9256,-146.9723 -214.4846,-153.6496 -224.6565,-160.7657 -232.4057,-166.2103 -239.2273,-171.0175 -246.9769,-176.4865 -253.2298,-180.9095 -259.409,-185.29 -265.5061,-189.6149 -270.7285,-193.324 -275.6387,-196.8166 -280.4043,-200.2065 -285.1499,-203.5898 -289.0499,-206.3923 -292.4369,-208.8499 -295.7405,-211.2836 -298.7013,-213.5903 -301.5709,-216.1669 -304.1326,-218.9637 -306.518,-222.0809 -308.4765,-224.9861 -310.316,-228.1222 -311.8625,-231.7251 -312.672,-234.9313 -312.9482,-238.3103 -312.6423,-241.5963 -311.8614,-244.5751 -310.4454,-247.9738 -309.0479,-250.8878 -307.2487,-254.5597 -305.2943,-258.2742 -303.093,-261.8723 -300.2202,-265.784 -297.2647,-269.1531 -293.6228,-272.652 -289.643,-275.9354 -285.9755,-278.6929 -281.401,-281.9426 -276.8002,-285.1863 -272.2185,-288.4329 -266.7775,-292.2886 -262.136,-295.5739 -257.5578,-298.8188 -252.7915,-302.1714 -247.9633,-305.2829 -242.9143,-308.2622 -238.4814,-310.8355 -234.609,-313.0525 -230.8601,-315.1866 -227.2369,-317.1418 -223.6171,-318.7963 -220.6191,-319.8031 -217.3344,-320.5111 -213.7683,-320.9682 -209.8874,-321.3588 -205.8644,-321.5993 -202.0587,-321.5857 -198.0446,-321.3758 -193.5295,-321.0341 -188.2789,-320.3498 -183.7411,-319.6087 -178.4019,-318.6806 -172.1639,-317.5231 -166.4732,-316.3862 -160.1888,-314.996 -153.9571,-313.4519 -147.2107,-311.5654 -139.8509,-309.2845 -132.5546,-306.8887 -125.3446,-304.5067 -117.4721,-301.8969 -108.9527,-299.0412 -101.0292,-296.3474 -91.5761,-293.1182 -83.1737,-290.2479 -74.0992,-287.1455 -64.3263,-283.7984 -54.8071,-280.5325 -45.6093,-277.3712 -35.7359,-273.9764 -26.1784,-270.6864 -15.9328,-267.1589 -4.4486,-263.2034 5.6459,-259.7241 15.898,-256.1891 26.8569,-252.4128 38.5435,-248.3855 49.2483,-244.6987 61.7902,-240.3861 72.1824,-236.8158 84.4478,-232.5946 95.6757,-228.7246 107.6291,-224.6176 120.9329,-220.06 133.1653,-215.873 144.9025,-211.8587 157.3786,-207.595 169.3425,-203.5099 183.3268,-198.7386 196.1599,-194.3639 208.4527,-190.1768 222.1539,-185.5143 233.9618,-181.5014 247.1667,-177.016 260.4633,-172.4941 274.5191,-167.7039 287.326,-163.347 302.2569,-158.2758 314.5506,-154.0987 328.985,-149.2027 342.8159,-144.5141 356.0339,-140.0381 370.729,-135.0793 384.8363,-130.4365 399.7839,-125.7006 413.3811,-121.4078 427.0426,-117.093 441.4908,-112.5301 457.4565,-107.488 472.0333,-102.8749 485.1918,-98.6584 499.8684,-93.9472 516.0773,-88.7485 530.8679,-84.0031 544.97,-79.4768 559.119,-74.9304 574.0529,-70.1018 589.7674,-65.0058 604.7537,-60.1365 619.0227,-55.4704 634.0828,-50.5277 649.1736,-45.5505 665.0468,-40.2591 680.204,-35.2019 694.6396,-30.3851 709.8649,-25.3026 726.5416,-19.7213 740.6497,-14.9774 755.1326,-10.0865 769.2278,-5.3157 783.5796,-0.4485 796.1508,3.8245 808.3043,7.968 821.2227,12.4076 832.4207,16.383 844.8153,21.1212 855.071,25.455 865.8634,30.6253 875.642,36.0703 884.6526,41.8564 893.4342,48.217 903.2894,56.2651 911.9022,64.2157 920.1389,72.7516 927.0673,80.9004 934.0762,90.4222 940.9278,101.318 946.3738,111.525 950.7977,121.437 954.6093,131.5746 957.9817,142.6009 960.9512,155.1013 962.7508,165.5901 964.1446,177.4871 965.3806,190.8007 966.4195,202.461 967.4853,214.8923 968.4031,226.8539 969.2469,239.6021 969.9473,252.4948 970.4983,265.9274 970.845,277.6793 971.1336,289.665 971.3895,301.205 971.6507,313.3025 971.8588,323.2337 972.0527,332.7483 972.241,342.3725 972.4216,352.111 972.5645,361.0249 972.6254,369.1349 972.5615,377.3102 972.2725,385.175 971.5502,393.9179 970.7176,400.228 969.3398,407.5216 967.2466,415.3665 965.0204,421.6658 961.9666,428.5358 958.3171,435.2715 953.8663,442.2507 949.0378,448.8047 943.9266,454.8723 937.7409,461.2533 930.7501,467.2604 925.0185,471.3691 917.9785,475.6072 910.6924,479.208 903.1967,482.1411 895.0729,484.5413 887.1488,486.1858 879.4614,487.1375 870.3775,487.4998 862.8412,487.2228 853.7549,486.0919 846.1395,484.4091 838.3857,481.9702 831.2529,479.0533 823.7638,475.2345 817.4015,471.2639 811.1588,466.611 804.8722,460.9777 799.9656,455.7283 795.5831,450.1547 791.0897,443.0052 788.387,437.4871 785.8365,430.4718 784.1957,423.6801 783.2811,417.217 782.9603,409.8088 783.3044,403.5332 784.2568,397.1042 785.6739,391.2065 787.9364,384.6608 790.5107,378.9315 793.395,373.6154 797.0426,367.832 800.4937,362.9109 805.1203,356.9312 809.3001,352.1366 814.375,346.9035 819.9821,341.1938 825.532,335.5076 830.9614,329.8655 836.7661,323.6634 842.5481,317.1238 848.8668,309.5078 854.1637,302.508 859.1725,295.2691 864.1749,287.6374 868.9228,280.2393 873.3891,273.1779 877.6802,266.1136 881.1589,260.0267 884.7017,253.2758 887.2285,247.8893 889.8108,241.2783 891.5641,235.168 892.6964,229.2201 893.4771,223.1457 893.9549,216.6535 893.9823,209.7264 893.571,203.0093 892.7663,196.5514 891.4441,189.7684 889.3511,182.5692 887.1299,176.953 883.8414,170.3713 880.7031,165.2566 876.5847,159.7068 872.2444,154.9099 867.7968,150.8476 862.8668,147.127 857.4651,143.872 851.9215,141.2807 847.0995,139.5895 841.7214,138.2687 836.3874,137.5183 830.8977,137.3804 826.0912,137.8173 821.2186,138.8248 816.5936,140.3851 812.0772,142.5911 808.1676,145.1887 804.5331,148.3778 801.5823,151.5354 798.2307,155.2312 795.5745,158.0546 792.3358,161.3058 788.9713,164.4523 785.1042,167.7124 781.5774,170.3211 777.398,172.8918 773.6129,174.8803 768.7902,177.2025 764.6649,179.1594 759.6154,181.4795 754.5249,183.6243 749.4087,185.5694 743.7034,187.4858 737.0398,189.448 730.9681,191.0944 724.2651,192.6892 716.8986,194.1003 709.9229,195.1574 702.2746,196.0666 694.73,196.7809 685.6596,197.4142 677.5689,197.7835 669.2759,198.0368 660.316,198.1348 650.6622,197.8188 641.7399,197.0088 632.17,195.6204 621.9216,193.751 612.5707,191.6056 602.6804,188.7531 592.7889,185.2458 582.4622,180.9014 572.8766,176.1683 562.7242,170.3517 554.8054,165.2159 546.8445,159.6953 538.0998,153.4399 530.9485,148.1988 524.1595,143.1403 516.771,137.5518 510.4895,132.7721 504.3242,128.0798 499.3738,124.3128 493.9725,120.2261 489.3312,116.8582 484.4323,113.6811 479.3296,110.8373 473.9873,108.1603 468.7003,105.7374 462.3014,103.4018 456.8324,101.9629 450.5327,100.8699 444.041,100.2935 437.0798,100.23 430.686,100.6285 423.209,101.683 417.1696,103.014 410.3865,105.1565 403.9646,107.9414 398.8074,110.8289 393.2466,114.742 388.608,118.7962 384.0857,123.5999 379.7488,129.1988 376.1175,135.0163 373.2341,140.8817 370.5761,147.9521 368.8556,154.2818 367.4931,161.8515 366.9021,167.8424 366.7539,175.2237 367.0707,182.4545 367.5271,187.9141 368.27,193.2822 369.0587,198.5871 369.3547,203.9769 369.0685,208.6442 368.1947,213.3724 366.7749,218.0421 364.8823,222.3589 363.0879,225.2814 360.5943,228.2877 357.3315,231.1304 354.117,233.128 350.416,234.7302 346.4909,235.7844 342.7353,236.2183 338.6737,236.0481 335.0063,235.2809 331.7643,234.0329 328.3134,232.0318 325.2394,230.031 321.9573,227.8243 318.3459,225.2511 314.3307,222.3501 309.8716,219.0867 306.2664,216.3489 301.7857,212.9091 296.7368,209.0646 291.3533,204.989 286.4613,201.3552 280.4902,196.9666 274.832,192.8005 267.9769,187.7384 261.4712,182.9238 255.4009,178.4265 248.4696,173.2878 240.9598,167.7148 233.2097,161.9622 226.3828,156.8933 218.607,151.113 210.6396,145.1805 202.1027,138.8152 194.2273,132.9454 184.9181,126.0066 177.1548,120.2159 167.9355,113.3336 158.9946,106.6565 149.8609,99.9173 140.994,93.4824 131.4616,86.6836 121.2901,79.4638 111.459,72.5603 102.001,65.9202"/>
	<!-- Raw distance reference points -->
	<polyline id="dist" fill="none" stroke="none" stroke-width="0" points="3747.7124,0.4346 20.1614,0.4302 32.7991,0.4218 45.5845,0.4042 58.5076,0.3816 71.555,0.3654 84.7455,0.3557 98.0862,0.3423 111.5507,0.3003 125.2499,0.2347 138.8182,0.1715 152.6417,0.0878 166.5428,-0.0329 180.4809,-0.1616 194.581,-0.3869 208.8049,-0.6511 223.1396,-0.8886 237.548,-1.1203 252.0555,-1.3457 266.6557,-1.609 281.3639,-1.8449 296.1205,-2.0837 310.6071,-2.3164 324.6063,-2.5411 338.0898,-2.7744 351.0478,-3.0009 363.4266,-3.2151 375.106,-3.389 386.007,-3.5408 396.0644,-3.658 405.3456,-3.7607 413.9312,-3.8695 422.0154,-3.9475 429.6348,-4.0213 436.8474,-4.0865 443.6331,-4.1282 449.99,-4.1738 455.8272,-4.227 461.0971,-4.2639 465.9436,-4.2875 470.3555,-4.3047 474.4715,-4.3168 478.4454,-4.3274 482.2818,-4.346 485.9854,-4.3726 489.5327,-4.4021 492.9659,-4.4279 496.4618,-4.4563 499.8289,-4.4911 503.7307,-4.5214 508.187,-4.5298 512.9565,-4.5161 517.579,-4.5025 521.669,-4.4772 525.0439,-4.448 528.7771,-4.4084 532.5786,-4.3651 536.6581,-4.3214 541.0428,-4.2795 545.6414,-4.2469 550.3962,-4.2055 555.2901,-4.1738 560.386,-4.1672 565.7342,-4.1724 571.3259,-4.187 577.1282,-4.2004 582.9905,-4.2388 588.7319,-4.2882 594.4927,-4.3232 600.4258,-4.3641 606.9082,-4.4358 612.8574,-4.5095 618.3893,-4.5828 623.3588,-4.6437 627.5553,-4.7157 631.0419,-4.7776 634.4362,-4.8172 637.9095,-4.8375 641.8315,-4.8226 645.3631,-4.7595 649.7228,-4.6939 654.0232,-4.6624 658.2231,-4.605 662.4912,-4.5361 666.9812,-4.4607 671.7248,-4.3886 676.7544,-4.3297 682.1113,-4.2573 687.8088,-4.1713 693.8537,-4.0983 700.2473,-4.0102 706.9793,-3.9308 713.9804,-3.8325 721.3013,-3.7191 728.9598,-3.6028 736.9584,-3.495 745.2615,-3.3676 753.8087,-3.2376 762.5939,-3.1224 771.649,-2.9845 780.9768,-2.8694 790.5609,-2.7259 800.3943,-2.5741 810.4485,-2.4158 820.6818,-2.2591 831.124,-2.1359 841.759,-2.004 852.5774,-1.8886 863.5807,-1.7595 874.7962,-1.6656 886.2133,-1.5726 897.8018,-1.4726 909.5573,-1.369 921.4676,-1.2832 933.5245,-1.1801 945.7361,-1.0571 958.0837,-0.9019 970.5731,-0.7989 983.2047,-0.7335 995.985,-0.5757 1008.9085,-0.4208 1021.9686,-0.2716 1035.1506,-0.1186 1048.4519,0.032 1061.8768,0.2094 1075.4325,0.3727 1089.106,0.5313 1102.8859,0.6789 1116.7401,0.8123 1130.6823,0.9346 1144.7266,1.0475 1158.8672,1.1739 1173.0977,1.298 1187.424,1.3785 1201.8452,1.4486 1216.3608,1.5126 1230.9641,1.6109 1245.65,1.7266 1260.4186,1.8813 1275.2667,2.045 1290.1917,2.2196 1305.1943,2.3863 1320.2679,2.5652 1335.415,2.7447 1350.6318,2.9975 1365.9094,3.3394 1381.2654,3.6298 1396.6903,3.9128 1412.1763,4.2543 1427.7107,4.6478 1443.2971,5.0034 1458.9395,5.3357 1474.6342,5.6814 1490.3713,6.0531 1506.1218,6.4257 1521.9144,6.808 1537.7501,7.1983 1553.641,7.6203 1569.6116,8.0679 1585.6422,8.501 1601.7098,8.919 1617.7637,9.4269 1633.7654,10.0509 1649.4514,10.5896 1664.764,11.1249 1679.6814,11.6256 1694.149,12.1127 1708.157,12.5252 1721.6719,12.8894 1734.6827,13.2674 1747.1725,13.5969 1759.2042,13.9791 1770.86,14.2815 1782.0554,14.535 1793.1003,14.7346 1804.2449,14.8966 1815.5492,15.0336 1827.0112,15.1473 1838.6901,15.2035 1850.5381,15.2238 1862.4374,15.2535 1874.2761,15.2944 1886.0519,15.2771 1897.7096,15.2007 1909.2097,15.1256 1920.6407,14.981 1932.1523,14.8039 1943.7875,14.5344 1955.5779,14.2817 1967.5063,14.0079 1979.6133,13.7335 1991.8428,13.4953 2004.2598,13.2421 2016.8596,12.9919 2029.6327,12.7147 2042.5448,12.4648 2055.3665,12.1804 2067.7739,11.9419 2079.7847,11.6991 2091.3638,11.4448 2102.4153,11.1638 2112.9355,10.9148 2122.9875,10.6846 2132.6282,10.4437 2141.8997,10.179 2150.8086,9.9384 2159.2891,9.6918 2167.4053,9.4322 2175.2461,9.1634 2182.7905,8.8573 2190.2063,8.622 2197.4663,8.3256 2204.7725,7.9852 2212.1267,7.6864 2219.6357,7.3465 2227.386,6.9912 2235.3379,6.5823 2243.7068,6.1647 2252.3289,5.7468 2260.9409,5.2953 2269.6426,4.8694 2278.2747,4.5848 2286.8494,4.2879 2295.1631,3.9862 2303.5889,3.6926 2312.1006,3.3937 2320.4312,3.1132 2329.0603,2.8685 2337.812,2.6325 2346.7249,2.4643 2355.3235,2.3314 2364.0151,2.2627 2372.5657,2.2079 2381.0559,2.171 2389.179,2.1359 2397.2258,2.1079 2405.1089,2.0708 2413.0977,2.0292 2421.0969,1.9814 2428.8086,1.9298 2436.6631,1.9281 2444.0813,1.9855 2451.3303,2.1563 2458.1282,2.3914 2464.6519,2.627 2470.9346,2.8905 2476.8782,3.1135 2483.0564,3.3413 2489.198,3.5383 2495.2722,3.7666 2501.3337,3.9703 2507.3491,4.1691 2513.6858,4.3984 2520.1909,4.6088 2526.813,4.8705 2533.7012,5.0518 2540.771,5.2853 2548.1597,5.5444 2555.9434,5.7958 2564.0745,6.0601 2572.4983,6.363 2581.1748,6.6847 2590.1345,7.0558 2599.3713,7.3633 2608.6694,7.6363 2617.8179,7.9227 2626.5942,8.1919 2634.9187,8.454 2642.7344,8.7091 2650.0769,8.9243 2656.9319,9.1879 2663.5234,9.4 2669.9507,9.6707 2676.2849,9.9029 2682.6416,10.1172 2689.145,10.3168 2695.8186,10.4921 2702.7585,10.6901 2709.6077,10.8705 2716.7483,11.031 2723.8591,11.1971 2731.3313,11.368 2738.4822,11.4877 2745.6365,11.5949 2753.2502,11.6452 2760.3413,11.6839 2767.7068,11.7128 2774.3547,11.7171 2780.676,11.6842 2786.4497,11.6358 2791.6467,11.5606 2796.449,11.4751 2800.8696,11.3497 2805.9004,11.1911 2809.9297,11.0359 2813.959,10.8991 2818.1604,10.7275 2823.0046,10.5474 2827.2612,10.3527 2831.5332,10.1618 2835.7866,9.9595 2840.0442,9.7561 2844.3818,9.5185 2848.8792,9.3477 2853.5217,9.1625 2858.2146,8.9764 2862.8918,8.7617 2867.5701,8.573 2872.3081,8.3722 2877.1487,8.1952 2882.1135,7.9694 2887.2717,7.7812 2892.6372,7.5675 2898.2214,7.3506 2904.0486,7.1181 2910.1311,6.8863 2916.5269,6.6539 2923.1602,6.4479 2930.071,6.2224 2937.269,5.9822 2944.7209,5.7676 2952.5042,5.5476 2960.5229,5.3494 2968.8528,5.1102 2977.4192,4.9149 2986.1899,4.747 2995.158,4.5678 3004.3623,4.3984 3013.7917,4.2418 3023.4629,4.1158 3033.3728,4.001 3043.4539,3.9473 3053.7288,3.8544 3064.2061,3.7586 3074.8621,3.7141 3085.5457,3.6839 3096.2083,3.64 3106.7366,3.6135 3116.9863,3.5896 3126.8486,3.5675 3136.2808,3.5564 3145.2202,3.5371 3153.6614,3.5122 3161.5547,3.4993 3168.9507,3.4748 3175.8975,3.4576 3182.5029,3.4416 3188.6619,3.4232 3194.6042,3.3785 3200.542,3.309 3206.8848,3.2473 3213.2898,3.1907 3219.8035,3.1382 3226.7881,3.0919 3233.5449,3.0345 3240.4026,2.9784 3247.7249,2.9244 3254.7947,2.8666 3262.2148,2.8341 3269.3799,2.822 3276.7546,2.801 3283.769,2.7492 3290.7019,2.7005 3297.9094,2.6434 3304.7812,2.5906 3312.1799,2.5443 3319.2852,2.4905 3326.7471,2.4502 3333.844,2.4421 3340.8604,2.4325 3347.9114,2.4216 3354.9121,2.3926 3362.0032,2.3512 3369.0393,2.2896 3375.6628,2.2173 3381.7876,2.1597 3387.4971,2.1083 3392.8579,2.0584 3398.0034,2.0238 3402.9314,1.995 3407.8169,1.971 3412.7703,1.9372 3417.6282,1.8889 3422.3442,1.8644 3427.0576,1.8447 3431.9355,1.8255 3436.6533,1.8228 3440.4749,1.8266 3444.4287,1.8346 3447.7666,1.8411 3450.8103,1.8404 3454.3318,1.8279 3457.4741,1.8074 3461.0752,1.7713 3464.9377,1.7333 3469.23,1.6903 3473.7014,1.6347 3478.3867,1.5876 3483.344,1.5325 3488.6179,1.4758 3494.2603,1.3889 3500.3054,1.3324 3506.7068,1.252 3513.4507,1.1446 3520.4856,1.0248 3527.8516,0.9001 3535.5725,0.776 3543.6211,0.6494 3551.9822,0.5322 3560.6064,0.4048 3569.5125,0.3116 3578.7012,0.2593 3588.1387,0.2376 3597.8206,0.2379 3607.7476,0.2339 3617.8813,0.237 3628.2273,0.2478 3638.7815,0.2745 3649.5276,0.3015 3660.4709,0.348 3671.6118,0.3699 3682.9502,0.3692 3694.4766,0.3638 3706.1848,0.3638 3718.0598,0.3597 3730.0623,0.3611 3742.2197,0.3865"/>
</svg>
