<?xml version="1.0" encoding="utf-8"?>
<!-- Track map generated with TinyPedal -->
<svg viewBox="-1160.2808 -749.2578 2150.5171 1026.5593" version="1.1" xmlns="http://www.w3.org/2000/svg">
	<title>Paul Ricard - 1A-V2-Short</title>
	<!-- Sector coordinates index -->
	<desc>195,340</desc>
	<!-- Raw global coordinates -->
	<polyline id="map" fill="none" stroke="black" stroke-width="10" points="96.2467,59.3931 83.6046,50.1572 73.3537,42.6694 64.0276,35.8804 53.5688,28.2867 42.3612,20.387 31.5483,12.8263 20.0846,4.808 9.6163,-2.5197 -0.9436,-9.9087 -12.1613,-17.749 -23.4704,-25.6633 -36.0197,-34.4498 -46.9568,-42.0916 -57.9799,-49.7881 -69.6704,-57.9527 -82.633,-67.003 -94.5091,-75.2938 -105.8459,-83.2581 -118.3654,-92.2535 -128.9389,-100.3112 -141.2695,-109.8737 -153.1409,-118.9135 -165.182,-127.87 -176.6786,-136.4249 -188.9127,-145.3865 -202.4846,-155.2398 -214.3148,-163.728 -226.8908,-172.6146 -238.9063,-181.0765 -252.2378,-190.461 -264.1122,-198.8256 -277.2084,-208.0641 -287.3481,-215.2248 -298.519,-223.1287 -308.0194,-229.8662 -317.4208,-236.5398 -327.0626,-243.3842 -334.8147,-248.8822 -342.1151,-254.0673 -349.4718,-259.299 -356.5897,-264.3651 -364.4908,-269.9865 -370.4958,-274.2415 -377.347,-279.0062 -383.4755,-283.041 -390.0032,-286.9867 -396.6856,-290.4896 -403.1907,-293.2835 -410.1369,-295.6272 -417.0657,-297.3837 -423.8546,-298.5644 -430.717,-299.2228 -436.9004,-299.3579 -442.4468,-299.0847 -447.8647,-298.4231 -453.0286,-297.4111 -457.7195,-296.08 -461.6136,-294.5733 -465.1562,-292.6935 -468.4722,-290.2818 -471.4578,-287.3293 -473.9624,-284.1513 -476.4662,-280.9115 -479.4849,-277.4913 -483.2641,-273.7515 -486.6411,-270.5733 -490.7411,-266.9888 -495.263,-263.5349 -500.4705,-260.2215 -505.5653,-257.6498 -511.8424,-255.2044 -517.2094,-253.6235 -523.6981,-252.2801 -530.0876,-251.5433 -536.3543,-251.3356 -543.7651,-251.7138 -550.1276,-252.668 -556.7515,-254.225 -563.4105,-256.2509 -570.2575,-258.654 -576.9485,-261.2307 -584.1838,-264.2995 -592.3177,-268.1482 -599.0748,-271.6779 -606.6931,-275.8593 -614.4821,-280.2763 -622.7747,-285.2686 -630.7177,-290.4356 -638.2255,-295.7995 -646.0592,-301.927 -653.8116,-308.5218 -662.42,-316.0959 -670.0155,-322.7547 -677.7548,-329.489 -686.0817,-336.6567 -694.6006,-343.8964 -703.791,-351.5182 -712.8105,-358.7462 -721.6471,-365.5393 -731.2431,-372.5811 -741.6393,-379.8401 -751.8449,-386.6078 -762.3402,-393.2259 -773.126,-399.6667 -784.7839,-406.1615 -796.2112,-411.9661 -807.3688,-417.1417 -819.4009,-422.2624 -830.8887,-426.879 -842.4029,-431.4357 -853.1505,-435.7002 -863.6688,-439.9033 -873.9615,-444.1205 -881.5312,-447.3271 -890.1298,-451.0674 -898.4935,-454.749 -907.5724,-458.7841 -916.1492,-462.6375 -923.0254,-465.7536 -931.8269,-469.8033 -938.933,-473.1619 -947.4948,-477.3386 -954.7612,-481.0223 -962.1462,-485.038 -968.8546,-489.0038 -975.5811,-493.1797 -982.1982,-497.493 -987.9152,-501.5769 -992.7515,-505.4283 -997.4542,-509.6526 -1001.6717,-514.2006 -1004.4641,-517.7081 -1007.3463,-521.6091 -1009.949,-525.4396 -1011.9296,-528.6626 -1013.6631,-531.7495 -1015.2692,-534.5589 -1016.5779,-536.8709 -1017.5287,-539.1406 -1018.0135,-541.3747 -1018.043,-543.7587 -1017.608,-546.175 -1016.8801,-548.829 -1016.1979,-551.4521 -1015.3273,-554.8029 -1014.5042,-558.0046 -1013.6879,-561.5233 -1012.8998,-565.7708 -1012.3134,-569.9383 -1011.9346,-574.6428 -1012.0547,-579.7673 -1012.754,-584.6694 -1013.9451,-589.275 -1015.7538,-593.921 -1018.2402,-598.479 -1021.1003,-602.4205 -1024.3761,-605.9224 -1027.8738,-608.8427 -1032.1753,-611.644 -1036.6527,-613.9851 -1041.2279,-615.9318 -1046.3821,-617.5615 -1052.106,-618.7244 -1058.1003,-619.293 -1063.4042,-619.2867 -1069.2826,-618.7352 -1075.0159,-617.7885 -1080.8522,-616.7905 -1086.3186,-615.9998 -1091.4623,-615.4121 -1097.0864,-614.9708 -1102.1113,-614.9138 -1107.293,-615.3461 -1112.5861,-616.4235 -1117.4539,-618.0245 -1121.8268,-620.0236 -1126.0779,-622.6099 -1130.2277,-625.9744 -1133.2531,-629.228 -1135.7534,-632.7054 -1137.8031,-636.4926 -1139.2874,-640.4821 -1140.1047,-644.3676 -1140.2808,-647.8477 -1139.974,-651.2896 -1139.2617,-655.0012 -1138.3544,-659.1558 -1137.4163,-663.4159 -1136.3179,-667.9492 -1135.0623,-672.5034 -1133.4609,-677.5239 -1131.4105,-683.0117 -1129.1925,-688.1249 -1126.1471,-694.1735 -1123.2065,-699.0975 -1119.2223,-704.6806 -1115.1401,-709.5195 -1110.3899,-714.2171 -1105.2648,-718.3546 -1099.8519,-721.874 -1093.9253,-724.864 -1088.4153,-726.9274 -1082.5306,-728.3945 -1076.3517,-729.1809 -1070.5457,-729.2578 -1065.0636,-728.7676 -1059.235,-727.667 -1053.074,-725.8665 -1047.4537,-723.7084 -1041.4156,-720.9752 -1035.0242,-717.6346 -1028.6776,-713.8973 -1023.1221,-710.3283 -1016.1974,-705.5057 -1009.8681,-700.6226 -1003.953,-695.4752 -997.5578,-689.233 -991.9901,-683.1364 -985.7992,-675.4897 -981.2849,-669.2223 -976.4093,-661.5997 -971.8632,-653.3746 -968.0721,-645.3738 -964.8108,-637.7065 -961.3979,-629.7168 -957.715,-621.9507 -953.6156,-614.4827 -948.7615,-606.381 -943.7891,-598.7772 -938.9115,-592.2439 -933.9279,-586.4628 -927.7023,-580.27 -921.7227,-575.2117 -915.1267,-570.4084 -908.1133,-566.0638 -900.6689,-562.1421 -892.8316,-558.6282 -884.2552,-555.0708 -876.2696,-551.7638 -866.7354,-547.8906 -858.6885,-544.7408 -849.0301,-541.0826 -840.0458,-537.7982 -829.3773,-533.9776 -819.9652,-530.6052 -809.3748,-526.8409 -800.1241,-523.6497 -789.6729,-520.0671 -779.0306,-516.4741 -767.6721,-512.6438 -756.6835,-508.9373 -746.0923,-505.3653 -734.2188,-501.3598 -722.7523,-497.486 -711.7186,-493.7573 -699.9594,-489.7836 -687.4567,-485.5589 -676.0129,-481.6904 -662.6435,-477.1753 -651.6006,-473.4496 -637.9698,-468.8493 -626.712,-465.0429 -613.4597,-460.5591 -600.72,-456.2472 -588.5141,-452.1124 -575.5593,-447.7232 -562.4945,-443.2998 -548.0007,-438.3938 -534.0507,-433.6662 -522.6791,-429.8052 -507.8191,-424.8911 -494.8758,-420.6691 -481.1617,-416.1927 -468.05,-411.9116 -454.1612,-407.3816 -440.1868,-402.8203 -424.7526,-397.7794 -412.0665,-393.636 -397.9031,-389.0033 -383.6725,-384.3426 -368.6563,-379.4229 -354.2871,-374.7122 -339.13,-369.7331 -325.3547,-365.2029 -310.7919,-360.4181 -296.8958,-355.8626 -280.7337,-350.5675 -265.2387,-345.4909 -252.6479,-341.3622 -237.783,-336.4869 -222.1111,-331.3557 -207.1296,-326.4464 -192.8514,-321.7626 -177.7669,-316.8202 -161.1151,-311.3635 -146.6888,-306.6298 -132.221,-301.8763 -116.9474,-296.8546 -100.861,-291.5649 -85.4925,-286.5182 -70.8523,-281.7133 -55.4006,-276.6386 -39.1316,-271.2909 -23.5958,-266.1852 -6.4569,-260.5549 6.8204,-256.1933 24.0429,-250.5395 39.7438,-245.3922 55.4847,-240.2403 70.4693,-235.3438 86.276,-230.1797 101.3208,-225.2677 118.7771,-219.5906 134.6848,-214.4268 149.8261,-209.5185 165.7965,-204.3472 180.9973,-199.4298 197.0287,-194.2499 213.8938,-188.8073 231.5977,-183.1026 245.3039,-178.6927 262.2599,-173.2319 279.239,-167.7532 294.5978,-162.785 310.7735,-157.5443 326.1608,-152.5513 342.3489,-147.202 358.5542,-141.8245 375.5902,-136.1729 391.8362,-130.7853 407.2859,-125.657 423.5672,-120.2533 441.4995,-114.3047 457.8107,-108.895 472.4988,-104.0229 489.6553,-98.336 505.1938,-93.1897 522.3749,-87.5059 537.9312,-82.3514 554.3151,-76.9091 570.7021,-71.4368 588.7111,-65.3311 604.259,-60.0169 620.6341,-54.4211 636.2014,-49.0977 655.0521,-42.6488 670.6274,-37.3246 686.0185,-32.0602 701.6167,-26.7188 716.4869,-21.6116 729.8911,-16.9935 743.2542,-12.3818 755.9061,-8.0132 768.5486,-3.6487 779.4267,0.1164 790.2996,3.8877 800.5991,7.471 810.8632,11.0484 819.8644,14.1888 829.2173,17.4593 838.4435,20.6983 848.4127,24.3026 856.79,27.6532 864.877,31.3883 873.011,35.8388 881.618,41.1328 888.9098,45.7852 896.0803,50.4962 903.4354,55.5891 910.4767,60.957 917.1675,66.616 923.7505,72.902 929.5583,79.2132 934.6539,85.4671 940.0391,92.9817 944.4805,100.0179 948.308,106.8504 951.9114,114.1805 954.9321,121.2518 957.6983,128.7825 960.03,136.3842 962.0658,144.5248 963.7738,152.5014 965.2936,160.2255 966.8156,168.4844 968.198,176.8301 969.2388,185.4585 969.916,193.3315 970.2363,200.3649 970.2295,207.2968 970.0175,214.2523 969.7288,219.6678 969.319,224.8435 968.8091,229.2587 968.1478,233.3902 967.3391,237.2054 966.5076,240.3068 965.2974,243.6783 963.9095,246.3883 962.0638,248.9529 959.9754,251.0547 957.4953,252.8936 954.7042,254.4977 951.9128,255.7115 949.1716,256.5724 946.2252,257.1545 943.1082,257.3015 940.3267,256.9516 937.4784,256.0851 934.5872,254.9407 931.5298,253.5914 928.206,251.8284 925.2212,249.8178 922.1622,247.2759 918.86,244.0016 916.1553,240.9582 913.1605,236.972 910.4894,232.7278 908.1045,228.3276 905.8115,223.3157 903.8187,217.9061 901.9799,211.5192 900.6776,205.667 899.3862,199.6731 897.7708,193.1407 895.8894,187.4145 893.441,181.6504 890.5365,176.2397 887.3206,171.1441 884.1091,166.8273 880.8282,163.0186 877.1046,159.3627 872.7238,155.9121 868.1982,153.1335 863.6717,151.0046 858.5476,149.2192 853.6107,148.1082 848.9237,147.6545 844.0195,147.8193 838.5563,148.6687 833.7746,149.9029 828.8903,151.4939 823.5674,153.446 817.466,156.0291 812.0388,158.6645 806.3589,161.5339 800.1037,164.6883 793.5248,167.9991 786.2729,171.6354 779.0394,175.2245 771.8462,178.6591 763.9586,182.1581 755.7078,185.4972 746.6171,188.6553 737.5415,191.2395 728.5753,193.2978 718.8007,195.026 708.7209,196.3995 697.8449,197.5209 687.2368,198.098 676.985,198.155 666.0104,197.7205 654.3209,196.6644 643.6259,195.1735 631.1453,192.773 620.3121,190.1436 608.8705,186.8462 597.957,183.3131 585.2841,178.7559 574.4521,174.3263 563.0423,168.9061 553.733,163.8014 543.4606,157.3963 534.4438,151.0328 526.5931,144.8231 518.7184,137.9258 512.2845,131.9689 505.4778,125.6142 500.0703,120.656 494.1779,115.5971 489.5879,111.9786 484.3495,108.2258 479.2092,105.1329 474.394,102.8568 468.8295,100.8814 462.7659,99.3818 456.5372,98.4283 451.106,97.9553 444.9992,97.7542 438.2276,97.8665 432.6882,98.2035 426.3107,98.9742 420.1448,100.3843 415.115,102.1522 409.5862,104.8215 404.8258,107.703 399.6746,111.2048 395.0775,114.6236 390.3177,118.502 385.3667,123.2458 381.6651,127.5699 377.6455,133.3805 374.5356,139.1134 372.0293,145.1127 370.3368,150.6198 369.115,156.7947 368.5469,163.5998 368.6617,169.5141 369.2757,175.5146 370.2004,182.6717 370.8772,188.5031 371.2934,195.0372 371.2072,200.8372 370.639,206.0804 369.5229,211.2888 367.8761,216.1358 365.5951,220.8751 362.889,224.9605 359.8805,228.3649 356.3653,231.4409 352.1719,234.1857 348.3383,235.973 344.3869,237.1943 340.1933,237.8623 335.8578,237.9116 331.4757,237.3903 328.3073,236.5325 324.8917,235.0787 321.5947,232.9826 319.1147,230.8212 316.5826,228.4305 313.983,225.9762 311.015,223.1302 307.7928,220.0358 304.3474,216.7281 300.5077,213.0489 296.5633,209.356 292.5215,205.7328 287.9144,201.7881 282.3916,197.3126 277.2512,193.365 271.488,189.1752 265.706,185.0688 259.3491,180.5527 252.3888,175.601 245.5035,170.6996 238.7859,165.9142 230.7647,160.2025 224.0129,155.3938 215.5356,149.3503 208.0212,143.9851 200.3304,138.4915 191.2081,131.9794 183.1497,126.2268 174.9342,120.3592 165.719,113.7722 156.333,107.0618 147.6961,100.8843 138.4614,94.2692 129.5506,87.8863 119.0684,80.3783 109.8786,73.7924 100.0685,66.7671"/>
	<!-- Raw distance reference points -->
	<polyline id="dist" fill="none" stroke="none" stroke-width="0" points="5149.6836,0.3705 12.7041,0.3519 25.38,0.3554 38.1893,0.3455 51.1157,0.3079 64.1738,0.2836 77.3588,0.2427 90.672,0.2386 104.1112,0.2267 117.6673,0.1904 131.3475,0.1124 145.1526,0.0421 159.0741,-0.063 173.0955,-0.1884 187.2753,-0.3554 201.5422,-0.604 215.9083,-0.8615 230.3855,-1.1088 244.9627,-1.3262 259.6367,-1.6037 274.3924,-1.8361 289.2452,-2.0915 304.1698,-2.3368 319.16,-2.6286 334.252,-2.8828 349.3922,-3.1534 364.6046,-3.4379 379.9434,-3.6612 395.3487,-3.8718 410.8294,-4.0292 426.3577,-4.1999 441.6578,-4.3023 456.2761,-4.3957 470.1212,-4.4868 483.2001,-4.5284 495.4875,-4.5314 506.9838,-4.489 517.75,-4.4717 527.7984,-4.468 537.2294,-4.4756 546.249,-4.4818 554.971,-4.4992 563.4114,-4.4947 571.6005,-4.4649 579.5336,-4.4279 587.2023,-4.4087 594.7817,-4.3829 602.2123,-4.3547 609.5293,-4.3529 616.679,-4.3763 623.5677,-4.4403 630.3651,-4.5304 636.8277,-4.6414 642.574,-4.7377 647.9263,-4.8271 652.6845,-4.9096 656.8948,-4.9852 661.3521,-5.0565 665.1492,-5.095 669.1034,-5.1117 673.1007,-5.0862 677.0063,-5.0182 680.9415,-4.9448 685.0814,-4.8754 689.5594,-4.7975 694.3529,-4.7185 699.5109,-4.6497 705.0469,-4.5598 710.9413,-4.4914 717.5966,-4.4543 724.0474,-4.4277 730.5623,-4.4403 737.4009,-4.5126 743.9873,-4.6552 750.6915,-4.8386 757.7453,-5.0657 764.6249,-5.3957 771.4821,-5.6697 778.3412,-5.9308 785.2413,-6.1268 792.3936,-6.2667 799.8734,-6.3611 807.6697,-6.4212 815.7988,-6.5092 824.2001,-6.5674 832.8496,-6.6424 841.7162,-6.7263 850.8479,-6.8094 860.1087,-6.889 869.629,-6.9502 879.4324,-7.0024 889.5261,-7.0546 899.9241,-7.1585 910.5856,-7.3024 921.4155,-7.3603 932.4482,-7.4331 943.656,-7.5045 955.0582,-7.5643 966.637,-7.5889 978.3975,-7.6305 990.3289,-7.6879 1002.4737,-7.7502 1014.7598,-7.8014 1027.2104,-7.8727 1039.7931,-7.9604 1052.5323,-8.0551 1065.374,-8.1434 1078.4233,-8.2503 1091.5908,-8.3603 1104.7478,-8.4693 1117.1399,-8.5665 1128.6887,-8.6237 1139.484,-8.7148 1149.6383,-8.8056 1159.3185,-8.8802 1168.6558,-8.9996 1177.7375,-9.1436 1186.7468,-9.2674 1195.6614,-9.432 1204.5084,-9.5701 1213.2729,-9.7466 1221.9579,-9.9014 1230.5894,-10.118 1239.0978,-10.3107 1247.447,-10.5346 1255.6241,-10.7285 1263.4805,-10.9083 1270.9774,-11.0571 1277.9078,-11.1707 1284.2883,-11.2694 1290.1143,-11.3644 1295.5497,-11.4623 1300.6414,-11.5363 1305.2808,-11.6138 1309.3831,-11.6738 1312.8715,-11.711 1316.2919,-11.7418 1318.5159,-11.7642 1320.9561,-11.7792 1322.4442,-11.8009 1324.7794,-11.826 1327.162,-11.8564 1329.1534,-11.89 1331.7257,-11.9311 1334.5022,-11.9752 1337.6841,-12.0401 1341.0842,-12.0992 1344.9199,-12.16 1349.0782,-12.239 1353.6161,-12.3216 1358.5616,-12.4255 1363.7462,-12.5151 1368.9991,-12.5799 1374.2574,-12.6422 1379.4188,-12.7062 1384.4835,-12.7724 1389.4572,-12.8329 1394.3694,-12.8984 1399.3154,-12.9621 1404.3895,-13.0351 1409.629,-13.1076 1415.0519,-13.1721 1420.6705,-13.2413 1426.4363,-13.3199 1432.4844,-13.3994 1438.5028,-13.466 1444.5117,-13.5554 1450.391,-13.6599 1456.0741,-13.7257 1461.6075,-13.7715 1467.0005,-13.8062 1472.324,-13.8259 1477.5355,-13.8294 1482.6061,-13.8739 1487.5914,-13.9267 1492.62,-13.9734 1497.8345,-14.0143 1503.3588,-14.0368 1509.0396,-14.0049 1514.4227,-13.9242 1519.286,-13.8395 1523.4917,-13.7661 1527.0067,-13.6952 1530.5073,-13.6345 1533.6808,-13.5913 1537.1466,-13.5676 1540.905,-13.5631 1544.8978,-13.5679 1549.2212,-13.5901 1553.8647,-13.6047 1558.8279,-13.6282 1564.0917,-13.6633 1569.6342,-13.7196 1575.4257,-13.7788 1581.45,-13.8368 1587.4838,-13.9066 1593.7114,-13.9841 1600.0939,-14.0607 1606.6283,-14.1371 1613.4418,-14.2081 1620.0543,-14.2814 1626.5358,-14.3438 1633.087,-14.3783 1639.3644,-14.3637 1645.5356,-14.3233 1651.5679,-14.2967 1657.6522,-14.3016 1663.6373,-14.3222 1669.7812,-14.3495 1676.1475,-14.3633 1682.8669,-14.3642 1689.7871,-14.3641 1696.8733,-14.3549 1704.2178,-14.3443 1711.8773,-14.3222 1719.8342,-14.3053 1728.0464,-14.2753 1736.5323,-14.2417 1745.1798,-14.2005 1754.073,-14.1219 1763.1382,-14.0562 1772.1823,-13.9835 1781.1354,-13.9085 1790.0118,-13.842 1798.8026,-13.7551 1807.4896,-13.6619 1816.0828,-13.5617 1824.5891,-13.4523 1833.1346,-13.3019 1841.7329,-13.1572 1850.3279,-13.0099 1859.0089,-12.8798 1867.7355,-12.7514 1876.156,-12.6385 1884.6226,-12.5517 1893.1124,-12.4691 1901.6027,-12.403 1910.2708,-12.3556 1919.1289,-12.293 1928.2167,-12.2149 1937.5498,-12.1092 1947.1322,-12.0168 1956.9574,-11.8989 1967.0172,-11.7901 1977.3032,-11.6371 1987.8079,-11.5115 1998.4968,-11.3489 2009.3601,-11.2299 2020.4103,-11.0615 2031.6422,-10.8985 2043.0527,-10.7229 2054.6428,-10.5585 2066.4065,-10.4084 2078.3403,-10.2568 2090.4382,-10.1087 2102.698,-9.9826 2115.115,-9.8494 2127.6912,-9.7389 2140.4089,-9.6279 2153.2295,-9.452 2166.168,-9.3296 2179.2393,-9.1984 2192.4299,-9.0992 2205.7515,-8.9444 2219.1975,-8.8102 2232.7659,-8.69 2246.4441,-8.5548 2260.2341,-8.424 2274.1274,-8.2968 2288.1343,-8.1798 2302.2556,-8.0816 2316.4871,-7.935 2330.8206,-7.7866 2345.2473,-7.6057 2359.7654,-7.4407 2374.3704,-7.2968 2389.0706,-7.1467 2403.8269,-6.9864 2418.6514,-6.8331 2433.5537,-6.6946 2448.5293,-6.5417 2463.5774,-6.3715 2478.6963,-6.2294 2493.8877,-6.0644 2509.1489,-5.9202 2524.4746,-5.7653 2539.8638,-5.6044 2555.3206,-5.4417 2570.842,-5.2796 2586.4268,-5.1612 2602.0718,-4.9908 2617.7769,-4.8054 2633.5405,-4.629 2649.3577,-4.445 2665.2317,-4.285 2681.1602,-4.0929 2697.1404,-3.9095 2713.1709,-3.6981 2729.25,-3.4563 2745.3782,-3.2125 2761.5532,-2.9633 2777.7727,-2.7319 2794.0374,-2.4966 2810.3469,-2.2508 2826.6992,-2.0417 2843.0979,-1.8416 2859.5359,-1.7157 2876.0127,-1.5453 2892.532,-1.3953 2909.0913,-1.2668 2925.6836,-1.087 2942.3091,-0.9111 2958.9692,-0.7646 2975.6587,-0.6043 2992.3789,-0.4034 3009.1331,-0.209 3025.9172,-0.0112 3042.7314,0.1743 3059.5767,0.3807 3076.4531,0.5927 3093.3601,0.7816 3110.2974,0.9155 3127.2605,1.0679 3144.2498,1.242 3161.2412,1.3672 3178.2422,1.4669 3195.2649,1.5523 3212.3149,1.6586 3229.3875,1.8002 3246.4792,1.9714 3263.5906,2.1637 3280.7346,2.3388 3297.897,2.552 3315.0784,2.7725 3332.2729,3.0218 3349.4758,3.3683 3366.6946,3.7318 3383.9363,4.018 3401.1824,4.4241 3418.4404,4.8327 3435.7036,5.2281 3452.9805,5.601 3470.2681,6.0301 3487.5627,6.4113 3504.8679,6.8501 3522.189,7.2466 3539.5183,7.7753 3556.8562,8.213 3574.0139,8.6616 3590.5444,9.1384 3606.3127,9.6571 3621.2617,10.1701 3635.4031,10.68 3648.792,11.1417 3661.5496,11.5921 3673.6841,11.9648 3685.1953,12.3218 3696.1038,12.6404 3706.47,12.9446 3716.5105,13.2057 3726.4092,13.4777 3736.1536,13.7594 3745.7249,14.0607 3755.1321,14.299 3764.3828,14.4915 3773.5439,14.6586 3782.6536,14.8145 3791.7263,14.9403 3800.6968,15.0731 3809.5654,15.1839 3818.3289,15.2699 3826.9971,15.3334 3835.6147,15.3844 3844.0835,15.4298 3852.4556,15.4621 3860.8003,15.4736 3868.9866,15.4418 3877.0986,15.3974 3885.2043,15.345 3893.1362,15.279 3901.0623,15.1648 3908.7983,15.0303 3916.6853,14.8682 3924.6479,14.69 3932.7773,14.5123 3941.0723,14.3373 3949.3042,14.1615 3957.4792,13.9836 3965.3989,13.808 3972.8481,13.6576 3979.7952,13.4946 3986.1545,13.3244 3991.8784,13.2127 3996.9751,13.0817 4001.6196,12.9658 4005.5969,12.852 4009.0769,12.7431 4012.2166,12.651 4015.4368,12.5443 4018.4255,12.4464 4021.4434,12.338 4024.4373,12.2388 4027.7153,12.1478 4030.5786,12.05 4034.7754,11.9496 4039.3125,11.8597 4043.5078,11.7689 4046.6929,11.6671 4049.4785,11.5682 4052.3801,11.4606 4055.3975,11.3391 4058.7019,11.1941 4062.1619,11.0324 4065.9456,10.8889 4069.8313,10.7323 4074.0198,10.5867 4078.406,10.5079 4083.0461,10.4458 4087.9575,10.4637 4093.2368,10.5073 4099.0884,10.5581 4105.0474,10.6517 4111.2822,10.7903 4117.7388,10.9379 4124.2554,11.0869 4130.6157,11.2482 4136.8779,11.3797 4143.0566,11.4918 4149.2832,11.5798 4155.1582,11.6423 4160.77,11.6741 4166.4219,11.6902 4172.1172,11.7036 4177.9199,11.6993 4183.6484,11.6697 4189.8379,11.6227 4195.624,11.5381 4201.3242,11.4329 4206.9189,11.3259 4212.4219,11.2065 4217.9189,11.0431 4223.4014,10.863 4228.9399,10.6722 4234.6631,10.4596 4240.6387,10.2016 4246.9487,9.956 4253.6309,9.6988 4260.6465,9.4053 4268.0249,9.1048 4275.7759,8.7751 4283.8643,8.4403 4292.3154,8.1113 4300.9961,7.7649 4309.9175,7.4271 4319.0874,7.0339 4328.5269,6.6929 4338.2178,6.3775 4348.1636,6.0594 4358.3696,5.7511 4368.8135,5.451 4379.4756,5.1656 4390.2935,4.9099 4401.311,4.6712 4412.5283,4.432 4423.959,4.2259 4435.6567,4.0489 4447.4946,3.9351 4459.5562,3.848 4471.7773,3.7433 4484.2046,3.6696 4496.6226,3.649 4508.7456,3.6151 4520.6182,3.6038 4532.1787,3.5837 4543.2505,3.5641 4553.8032,3.545 4563.791,3.517 4573.0396,3.5073 4581.5361,3.4843 4589.2959,3.475 4596.3882,3.471 4602.894,3.4629 4608.9829,3.4407 4614.8286,3.3978 4620.6821,3.3613 4626.519,3.3164 4632.396,3.2592 4638.3301,3.1975 4644.4512,3.1414 4650.645,3.0751 4656.9229,3.0157 4663.2349,2.9713 4669.6699,2.9293 4675.8804,2.8994 4681.9897,2.8724 4688.0137,2.8187 4694.4087,2.7532 4700.6675,2.6796 4707.0337,2.6168 4713.5117,2.567 4720.4375,2.524 4727.1123,2.488 4734.231,2.4502 4741.063,2.4367 4747.8682,2.4373 4754.7749,2.4244 4761.2388,2.4077 4767.5732,2.3763 4773.873,2.328 4780.2832,2.2723 4786.8438,2.1909 4793.3589,2.1346 4799.5596,2.0844 4805.335,2.0446 4810.8037,2.0191 4816.0298,1.993 4821.1665,1.9645 4826.5654,1.9058 4832.1108,1.8572 4837.4502,1.834 4842.687,1.8204 4847.7148,1.828 4852.0571,1.845 4855.498,1.8645 4859.2842,1.8774 4862.2603,1.8685 4865.5088,1.7991 4869.2354,1.7685 4872.5312,1.7211 4875.7754,1.6729 4879.2207,1.6411 4882.4438,1.6131 4886.0088,1.5875 4890.0459,1.5548 4894.5234,1.5231 4899.3086,1.4742 4904.3389,1.4006 4909.6802,1.3434 4915.3467,1.2702 4921.3911,1.1633 4927.8281,1.0419 4934.6455,0.9242 4941.7627,0.8193 4949.2368,0.711 4957.0405,0.5942 4965.1797,0.463 4973.6221,0.3523 4982.3003,0.2963 4991.2427,0.2522 5000.4502,0.2449 5009.9082,0.2498 5019.6064,0.2494 5029.5454,0.2585 5039.7222,0.2771 5050.1274,0.3005 5060.7505,0.333 5071.5312,0.3862 5082.5029,0.41 5093.6685,0.4175 5105.022,0.4201 5116.5591,0.4118 5128.2739,0.4113 5140.1548,0.4091 5152.2012,0.427"/>
</svg>
