<?xml version="1.0" encoding="utf-8"?>
<!-- Track map generated with TinyPedal -->
<svg viewBox="-1156.3406 -747.5172 2147.6694 1259.2628" version="1.1" xmlns="http://www.w3.org/2000/svg">
	<title>Paul Ricard - ELMS</title>
	<!-- Sector coordinates index -->
	<desc>177,384</desc>
	<!-- Raw global coordinates -->
	<polyline id="map" fill="none" stroke="black" stroke-width="10" points="-57.721,-48.9755 -67.7592,-56.3046 -77.8632,-63.6809 -88.0442,-71.0874 -98.3096,-78.5114 -108.6512,-85.9623 -120.1132,-94.1891 -129.5474,-100.9582 -140.0826,-108.5265 -151.7362,-116.9045 -161.3156,-123.8065 -171.9927,-131.5423 -182.6917,-139.3646 -193.4309,-147.2438 -205.3135,-155.9428 -216.1782,-163.8772 -226.0069,-171.0363 -236.9925,-178.9959 -248.0322,-186.9715 -259.0216,-194.9007 -269.7968,-202.6702 -280.1668,-210.1318 -290.9828,-217.8852 -300.2812,-224.5232 -308.2423,-230.1798 -316.6624,-236.1244 -325.4245,-242.2454 -332.2234,-246.945 -339.4066,-251.8541 -346.2049,-256.4458 -352.6576,-260.7515 -359.4215,-265.2203 -365.2992,-269.0634 -370.3555,-272.3258 -375.7328,-275.7107 -381.4138,-279.1175 -385.9317,-281.668 -390.8846,-284.2923 -395.8326,-286.6788 -400.8055,-288.7657 -405.8202,-290.4963 -410.8766,-291.8365 -415.9731,-292.7536 -421.1173,-293.2316 -426.8336,-293.2184 -431.5505,-292.8008 -436.8459,-291.8885 -442.2054,-290.5519 -448.175,-288.5522 -453.1052,-286.5206 -458.6007,-283.8568 -464.098,-280.8061 -469.5714,-277.402 -474.988,-273.7436 -480.7763,-269.6935 -485.4479,-266.5899 -490.6685,-263.4667 -496.0175,-260.6537 -501.5814,-258.1694 -507.9573,-255.8984 -513.3527,-254.4093 -519.5262,-253.1688 -525.8728,-252.326 -532.3749,-251.9199 -539.0159,-252.007 -545.7913,-252.5915 -552.7235,-253.6471 -559.8193,-255.0881 -567.0521,-256.949 -574.3716,-259.2799 -581.7295,-262.0922 -589.76,-265.7419 -596.2679,-269.1361 -603.4811,-273.2961 -610.6587,-277.8581 -618.5347,-283.274 -624.9873,-287.9663 -632.9323,-293.9417 -639.4941,-299.0015 -646.8571,-304.7853 -654.293,-310.7324 -661.8013,-316.832 -670.1244,-323.6465 -677.033,-329.2935 -685.6459,-336.2182 -692.8488,-341.8756 -701.8438,-348.7731 -709.357,-354.4006 -718.7198,-361.2625 -726.5369,-366.8468 -735.3962,-373.0025 -744.442,-379.0947 -753.6761,-385.1122 -764.0648,-391.6139 -772.7448,-396.8312 -782.5411,-402.4829 -792.5255,-407.9811 -802.6982,-413.3241 -814.1089,-419.0008 -823.6107,-423.4894 -834.3406,-428.3012 -846.3348,-433.3972 -856.1858,-437.4496 -866.975,-441.8412 -877.4729,-446.1545 -887.5964,-450.4408 -897.2936,-454.6876 -906.5284,-458.8622 -915.3298,-462.9533 -923.7372,-466.9631 -932.5685,-471.2701 -939.4726,-474.7137 -946.8169,-478.4527 -954.4711,-482.4553 -960.361,-485.6628 -966.472,-489.2039 -972.1442,-492.7578 -977.3928,-496.3417 -982.6324,-500.3637 -986.506,-503.726 -990.4221,-507.5328 -993.9434,-511.4296 -997.0543,-515.4373 -999.7984,-519.6003 -1002.2089,-523.9957 -1004.2515,-528.6303 -1006.0875,-534.0373 -1007.3813,-538.7298 -1008.5929,-544.2405 -1009.5977,-550.0455 -1010.4984,-556.1185 -1011.3874,-562.4265 -1012.3319,-568.8468 -1013.4241,-575.1199 -1014.7928,-581.0826 -1016.4926,-586.676 -1018.5426,-591.8702 -1021.0101,-596.615 -1023.9151,-600.878 -1027.2345,-604.6825 -1031.3336,-608.3495 -1035.0237,-610.9235 -1039.4838,-613.3429 -1044.3065,-615.3026 -1049.9905,-616.8935 -1054.9082,-617.7617 -1060.6436,-618.2707 -1067.2482,-618.3645 -1072.8545,-618.1464 -1079.2596,-617.6666 -1086.282,-617.0538 -1091.7482,-616.6458 -1097.4146,-616.3907 -1103.1404,-616.384 -1107.4484,-616.6566 -1111.8339,-617.2933 -1115.8488,-618.2202 -1119.5697,-619.3965 -1122.9827,-620.8749 -1126.0769,-622.6688 -1129.0334,-624.9903 -1131.2379,-627.3816 -1132.8439,-629.7451 -1134.2446,-632.6144 -1135.285,-635.7188 -1135.9611,-639.0706 -1136.3137,-642.7052 -1136.3406,-646.62 -1136.0518,-650.814 -1135.5096,-655.3111 -1134.7966,-660.1105 -1133.8994,-665.1949 -1132.8102,-670.5008 -1131.4805,-675.9756 -1129.828,-681.5797 -1127.8154,-687.0858 -1125.5024,-692.2998 -1122.9569,-697.139 -1120.1831,-701.5986 -1116.8473,-706.1187 -1113.8646,-709.5215 -1110.2504,-713.0485 -1106.2887,-716.3091 -1101.9863,-719.2687 -1097.3757,-721.898 -1092.0104,-724.3259 -1086.9435,-725.976 -1082.3087,-726.9655 -1077.1733,-727.5172 -1072.1089,-727.5129 -1067.0752,-727.0128 -1061.4719,-725.9637 -1056.7977,-724.7397 -1051.4957,-722.9921 -1046.0909,-720.8397 -1040.0591,-718.0162 -1035.1177,-715.2985 -1029.6532,-711.8483 -1024.1963,-707.9929 -1018.7529,-703.7563 -1012.8048,-698.6741 -1007.4919,-693.7158 -1002.7655,-688.9632 -997.072,-682.7923 -992.0239,-676.8188 -987.6122,-671.1451 -982.8749,-664.5201 -978.3065,-657.5842 -973.3976,-649.6591 -969.4224,-642.9808 -965.0413,-635.3998 -960.6276,-627.7012 -956.0453,-619.9409 -951.1523,-612.2172 -945.9019,-604.586 -939.7307,-596.3209 -934.2898,-589.7948 -927.7911,-582.9457 -920.1072,-575.9268 -913.4571,-570.5306 -905.6461,-564.9787 -897.434,-559.8449 -888.8624,-555.0749 -879.9884,-550.606 -869.9258,-545.9847 -861.4921,-542.3838 -851.9362,-538.5291 -842.1962,-534.8174 -832.2786,-531.2491 -822.2021,-527.7831 -811.9774,-524.4026 -801.6169,-521.075 -790.0805,-517.4357 -780.5544,-514.4087 -769.8891,-510.964 -759.1366,-507.4505 -747.2071,-503.5207 -737.3629,-500.2747 -726.3321,-496.6569 -714.1024,-492.6222 -704.027,-489.2687 -692.7556,-485.5151 -681.4332,-481.7722 -670.0407,-478.0292 -658.5726,-474.2693 -647.0374,-470.4685 -635.4401,-466.612 -622.6173,-462.2948 -610.8948,-458.3237 -600.2901,-454.7162 -588.4507,-450.6627 -575.3549,-446.1644 -564.5786,-442.4707 -552.5372,-438.3629 -539.2076,-433.8485 -528.2357,-430.1616 -515.9772,-426.0714 -503.6482,-421.9894 -490.0121,-417.4951 -478.8017,-413.8047 -466.2947,-409.6785 -453.737,-405.5182 -441.137,-401.3038 -427.2248,-396.6208 -415.8002,-392.762 -403.0615,-388.4478 -390.2762,-384.1108 -377.4403,-379.7675 -364.5542,-375.4195 -351.6201,-371.0637 -338.6414,-366.6943 -325.6194,-362.3112 -311.2451,-357.4806 -299.4712,-353.5479 -285.0385,-348.7587 -273.1975,-344.8386 -260.0131,-340.4629 -246.8041,-336.0544 -232.2411,-331.1858 -220.2947,-327.2037 -205.6626,-322.3181 -193.6722,-318.2936 -180.4054,-313.8284 -167.3342,-309.4351 -153.1783,-304.6714 -141.7264,-300.8135 -129.2616,-296.6137 -117.1982,-292.556 -105.5687,-288.6512 -94.3432,-284.8868 -83.4664,-281.231 -72.8651,-277.6513 -62.5846,-274.1598 -52.6656,-270.7777 -43.1382,-267.5236 -34.0333,-264.4344 -25.3438,-261.5047 -17.0411,-258.7264 -9.1097,-256.0913 -1.5441,-253.589 5.6643,-251.2122 12.5263,-248.9618 19.0423,-246.8373 25.2302,-244.8341 31.1078,-242.9497 37.2275,-241.043 41.9944,-239.6374 47.0753,-238.2569 51.9698,-237.0663 57.1994,-235.9979 61.3912,-235.3626 66.0195,-234.9319 70.6877,-234.823 75.3853,-235.1195 80.0853,-235.8787 85.2365,-237.2223 89.4413,-238.7022 94.0519,-240.8355 98.6128,-243.3803 103.5433,-246.6574 107.4941,-249.6605 111.7633,-253.1903 115.8429,-256.7386 119.7342,-260.1287 123.4827,-263.2352 127.4981,-266.2415 130.7625,-268.3823 134.4195,-270.4281 138.4827,-272.1956 141.8553,-273.2552 145.7322,-274.0778 150.1601,-274.5205 153.8601,-274.4538 158.0114,-273.9087 162.5993,-272.7694 166.3231,-271.3904 170.3813,-269.3774 174.3488,-266.8613 178.6618,-263.5594 182.1741,-260.4911 186.0856,-256.7438 190.4575,-252.282 194.1225,-248.4015 198.3275,-243.8858 202.7361,-239.2204 207.4082,-234.4699 212.3666,-229.6774 217.5948,-224.942 223.1005,-220.221 229.4618,-215.0362 234.9031,-210.8076 241.191,-206.125 248.3978,-200.9994 255.2091,-196.3689 262.26,-191.7673 268.8003,-187.6434 276.2777,-183.081 283.9689,-178.5398 291.8706,-174.0236 299.9793,-169.5373 308.287,-165.0849 316.7702,-160.6777 326.2968,-155.9401 334.2704,-152.1589 343.3142,-148.0593 352.5475,-144.0721 361.9652,-140.2011 371.561,-136.4453 381.3236,-132.7898 391.2444,-129.2225 402.3336,-125.3944 411.5378,-122.3276 422.9376,-118.6398 432.3806,-115.6569 442.9721,-112.311 453.6502,-108.8848 464.4108,-105.3854 475.2511,-101.8159 486.1742,-98.1918 497.185,-94.5351 508.2867,-90.8626 519.468,-87.186 530.7015,-83.5228 542.0151,-79.8604 553.4055,-76.19 564.8609,-72.4797 577.5328,-68.3456 589.1177,-64.5452 600.7634,-60.7062 611.2957,-57.2197 623.0531,-53.3094 634.8704,-49.3664 647.9366,-44.9954 659.8782,-40.999 671.8822,-36.991 682.7373,-33.3724 694.8562,-29.3431 708.256,-24.9082 719.2702,-21.2735 731.5593,-17.227 743.9019,-13.1703 756.2618,-9.0984 768.4684,-5.0593 780.3513,-1.0884 791.8497,2.8058 802.9734,6.6227 813.7055,10.391 825.0253,14.5471 834.8581,18.4198 843.3497,22.0432 852.4016,26.2729 861.0725,30.7418 870.1837,35.9811 877.3564,40.5404 885.0566,45.9393 892.4892,51.686 899.6901,57.758 906.6671,64.1619 913.4219,70.8796 919.9326,77.9138 926.1632,85.2662 932.6147,93.7234 937.9636,101.7591 942.3591,109.219 947.1351,118.6148 950.579,126.4877 953.8853,135.4306 957.0826,145.5211 959.4481,153.9762 961.8163,163.5744 963.9126,173.3751 965.7195,183.3686 967.3823,194.5676 968.4899,203.8809 969.4446,214.3787 970.1348,225.0231 970.6365,235.8011 970.9747,246.7078 971.1741,257.7375 971.2678,268.8899 971.3058,280.1608 971.3236,291.5089 971.3288,302.7532 971.3229,313.7438 971.2953,324.3421 971.2418,334.4921 971.1702,344.2166 971.0385,353.5363 970.8189,362.4921 970.4673,371.1344 969.9442,379.4958 969.1457,388.3677 968.3099,395.3634 967.1763,402.8593 965.7971,410.0539 964.1385,416.9547 961.9443,424.2415 959.825,429.9935 957.0895,436.1891 953.9352,442.1787 950.3568,447.9478 946.3688,453.4773 941.5136,459.2401 937.194,463.673 932.0441,468.265 926.5599,472.4866 920.18,476.68 914.723,479.7248 908.4881,482.6985 902.1843,485.2669 895.8776,487.418 889.5466,489.1585 882.5338,490.5666 876.7818,491.3176 869.783,491.7456 863.4917,491.6751 857.9093,491.2383 851.2193,490.2193 845.8638,489.005 840.0649,487.2468 834.4437,485.0874 828.9783,482.5507 823.6078,479.6196 818.3914,476.3092 813.4462,472.6862 808.8237,468.79 804.5416,464.6382 800.3286,459.7615 797.3084,455.533 794.3918,450.6119 792.0217,445.4666 790.2161,440.1431 788.9631,434.6462 788.2435,428.9586 788.0738,422.5322 788.485,416.5649 789.2742,411.0876 790.5887,404.8698 792.2982,398.51 794.3234,392.0099 796.691,385.3964 799.4215,378.692 802.4912,371.9042 805.8648,365.0338 809.5211,358.1573 813.8928,350.5669 817.7428,344.341 822.2919,337.4067 827.1201,330.4615 832.2186,323.5104 837.5819,316.559 843.1786,309.5913 848.9192,302.5746 854.6049,295.575 860.0482,288.69 865.1344,282.0038 869.8299,275.5642 874.1531,269.3645 878.1327,263.3784 881.7628,257.5691 885.3501,251.3302 888.2238,245.758 890.4756,240.8047 892.576,235.3425 894.2181,229.9004 895.4205,224.4388 896.193,218.9233 896.5367,213.3571 896.4606,207.1723 895.9935,201.5068 895.2596,196.4021 893.9064,190.2872 892.2787,184.9342 890.5441,180.2739 888.2643,175.3186 885.5944,170.6313 882.5256,166.2539 879.0474,162.2562 875.1761,158.7006 870.5284,155.2614 866.4261,152.7982 861.597,150.4499 856.5252,148.5754 851.2642,147.2533 845.8674,146.5038 840.3398,146.3499 834.6906,146.7256 828.4203,147.8128 822.6595,149.3854 817.4203,151.2868 811.5521,153.9127 804.9866,157.2668 799.4761,160.2276 793.1824,163.6855 786.645,167.2033 779.8627,170.6362 772.7932,173.902 764.6876,177.3111 757.0424,180.2823 749.9476,182.8528 741.8179,185.5396 733.4249,188.0199 724.7755,190.2318 715.8752,192.1487 705.8015,193.8406 697.3773,194.8707 686.9103,195.7195 677.2225,196.0798 668.3782,196.0676 658.4305,195.6819 647.3654,194.7751 638.2506,193.5612 627.062,191.5156 616.8839,189.0833 607.7352,186.4586 597.6067,183.0576 587.5316,179.1699 576.5515,174.3127 567.6627,169.9055 557.9175,164.5397 548.3165,158.7553 538.9797,152.6654 530.0078,146.4583 521.4459,140.3006 513.3169,134.2967 505.588,128.5506 498.2062,123.1983 490.4364,117.8558 484.3033,113.9485 477.033,109.7557 471.2307,106.7978 464.2905,103.7813 458.7233,101.8386 452.0575,100.094 446.7173,99.201 440.8661,98.7489 435.013,98.8407 429.1418,99.4786 423.2894,100.6278 417.4954,102.202 411.8888,104.2821 406.4841,106.849 401.2782,109.8672 396.295,113.3316 391.5658,117.2315 386.7172,122.0098 382.7157,126.7833 379.5287,131.3947 376.5587,136.8528 374.2249,142.6199 372.475,148.6176 371.2729,154.8018 370.5044,161.8195 370.2402,167.713 370.2872,174.3398 370.6317,181.4852 371.0074,187.048 371.3637,192.8149 371.5482,198.1439 371.5193,203.0839 371.2297,207.6728 370.6114,211.913 369.6498,215.8023 368.3618,219.3336 366.7726,222.5157 364.6819,225.5977 362.7637,227.7686 360.4306,229.8233 357.8893,231.5265 355.1436,232.8972 352.1854,233.9406 348.9946,234.6478 345.6119,234.9704 342.0557,234.8831 337.9947,234.2608 334.6074,233.3159 330.7583,231.8339 326.3335,229.7427 322.142,227.428 318.2397,225.0232 313.2935,221.7224 309.098,218.7584 304.2797,215.2051 298.8019,211.0575 294.2095,207.5442 288.923,203.4953 283.4304,199.3181 277.7245,195.0263 271.2056,190.1795 265.6908,186.1151 259.3864,181.4929 252.9259,176.7687 245.7274,171.5085 239.763,167.1418 233.0044,162.1756 226.1119,157.0889 219.0888,151.8835 211.9332,146.5673 203.9102,140.5959 197.2276,135.6188 189.6789,129.9999 181.9967,124.3011 173.3793,117.968 165.4066,112.1663 157.352,106.3565 150.0017,101.0889 140.8934,94.5806 132.5128,88.5756 124.894,83.0946 116.345,76.9202 107.7032,70.6671 98.9576,64.3547 90.1102,57.9837 81.173,51.539 72.1541,45.0121 63.0477,38.4165 53.85,31.7621 44.5601,25.0548 35.1772,18.3011 25.7237,11.5078 16.2186,4.6746 6.638,-2.2022 -3.9864,-9.8179 -13.7207,-16.7892 -22.5408,-23.1046 -32.4052,-30.1663 -42.3413,-37.2692"/>
	<!-- Raw distance reference points -->
	<polyline id="dist" fill="none" stroke="none" stroke-width="0" points="11.1446,-0.3361 23.5728,-0.5495 36.0814,-0.7684 48.6707,-0.9808 61.3409,-1.1961 74.0882,-1.4033 86.9156,-1.6601 99.8168,-1.8554 112.7917,-2.0584 125.8423,-2.283 138.9543,-2.4984 152.1342,-2.7502 165.3866,-2.9709 178.7115,-3.2227 192.0996,-3.4608 205.5504,-3.6607 219.0538,-3.8344 232.6064,-3.9906 246.2291,-4.1393 259.7858,-4.2613 273.0794,-4.3385 285.8529,-4.422 297.9794,-4.5188 309.4587,-4.5347 320.3398,-4.5355 330.6367,-4.4931 340.3769,-4.477 349.5813,-4.4684 358.2766,-4.4718 366.4647,-4.4727 374.2124,-4.4789 381.5862,-4.4866 388.635,-4.4748 395.3249,-4.4455 401.6557,-4.4135 407.689,-4.3892 413.4607,-4.3739 419.0445,-4.3608 424.4837,-4.3519 429.7928,-4.3576 435.009,-4.3783 440.136,-4.4138 445.249,-4.4667 451.254,-4.5459 457.2498,-4.638 463.3532,-4.7321 469.6069,-4.8334 476.7787,-4.9398 482.9763,-5.057 489.1495,-5.1162 495.2947,-5.1098 501.517,-5.0338 507.8853,-4.8937 514.3854,-4.7305 520.8209,-4.588 527.0735,-4.5014 533.1861,-4.429 539.2943,-4.394 545.7518,-4.3903 552.1802,-4.4008 558.7236,-4.4557 565.7954,-4.5612 572.5833,-4.7141 579.444,-4.9392 586.6661,-5.204 593.7029,-5.5154 601.0306,-5.7977 608.2475,-6.0332 615.6196,-6.2007 623.1903,-6.3093 630.9734,-6.3912 638.9438,-6.4624 647.0604,-6.5304 655.3883,-6.6044 663.8447,-6.6807 672.4346,-6.7862 681.2008,-6.8583 690.1832,-6.953 699.3018,-7.0027 708.5766,-7.0507 718.0359,-7.0925 727.7297,-7.1716 737.5551,-7.3187 747.5374,-7.3552 757.6683,-7.4376 767.9025,-7.4795 778.2346,-7.539 788.6858,-7.5582 799.2725,-7.5859 809.9687,-7.627 820.795,-7.6837 831.7423,-7.7243 842.8254,-7.7828 854.0256,-7.8494 865.343,-7.9124 876.7684,-7.9899 888.237,-8.0692 899.7819,-8.1772 911.4545,-8.2949 923.2088,-8.3843 935.0544,-8.508 947.002,-8.6008 958.8714,-8.6594 970.4987,-8.7624 981.8088,-8.8559 992.7501,-8.9774 1003.2878,-9.1378 1013.3809,-9.2725 1023.0557,-9.4321 1032.359,-9.6093 1041.3019,-9.7916 1049.8887,-9.9484 1058.0884,-10.1387 1065.9243,-10.35 1073.3846,-10.5253 1080.4149,-10.7052 1087.088,-10.8642 1093.4133,-11.0046 1099.3798,-11.1345 1105.0051,-11.2268 1110.3492,-11.3205 1115.4712,-11.4087 1120.4757,-11.5051 1126.0638,-11.6047 1131.666,-11.7042 1137.516,-11.806 1143.5167,-11.9057 1149.6971,-11.9487 1156.2782,-11.9828 1161.9758,-12.0323 1167.8491,-12.0972 1174.0387,-12.1863 1180.6696,-12.2994 1187.3269,-12.4534 1193.8757,-12.5873 1200.1602,-12.6821 1206.5084,-12.7646 1212.21,-12.8397 1217.6888,-12.9061 1223.0032,-12.9783 1228.2319,-13.0513 1233.4385,-13.113 1238.7255,-13.1774 1244.177,-13.2449 1249.7819,-13.3192 1255.6526,-13.3872 1261.4921,-13.4553 1267.5372,-13.5359 1273.7972,-13.6268 1280.2633,-13.7062 1286.7921,-13.7634 1292.9156,-13.8 1298.5669,-13.8243 1303.7539,-13.8335 1308.5065,-13.8755 1312.8622,-13.92 1316.938,-13.9621 1320.9043,-13.9944 1324.4695,-14.0248 1328.3009,-14.0368 1332.4424,-14.0214 1337.3784,-13.984 1343.0165,-13.9393 1348.386,-13.8762 1353.2395,-13.8157 1357.6479,-13.771 1361.5453,-13.7257 1365.2952,-13.6789 1369.4446,-13.646 1373.901,-13.6295 1378.6854,-13.6292 1383.7976,-13.65 1389.1858,-13.659 1394.8164,-13.6974 1400.6694,-13.7409 1406.5093,-13.8014 1412.16,-13.8521 1417.5723,-13.9127 1422.8011,-13.9697 1427.9531,-14.0315 1433.0953,-14.0871 1438.354,-14.1465 1443.8243,-14.2073 1449.4305,-14.2679 1455.0851,-14.3283 1461.2408,-14.3857 1467.1166,-14.4141 1472.9376,-14.4015 1478.5928,-14.3686 1484.1106,-14.345 1489.5558,-14.3486 1495.0308,-14.3745 1500.9015,-14.4022 1506.7291,-14.4275 1512.7787,-14.4302 1519.0154,-14.4282 1525.4192,-14.4241 1532.1418,-14.4139 1538.9625,-14.4039 1546.1304,-14.4031 1553.3656,-14.3929 1560.8629,-14.3832 1568.4155,-14.3647 1576.2676,-14.3099 1584.2023,-14.2559 1592.4536,-14.2031 1600.8921,-14.1278 1609.3457,-14.0498 1618.0642,-13.9548 1626.9341,-13.8844 1635.9153,-13.759 1644.8142,-13.6443 1653.8102,-13.5225 1662.8634,-13.3963 1671.9835,-13.2314 1681.196,-13.0597 1690.7719,-12.9014 1700.447,-12.7527 1711.1212,-12.5982 1721.3848,-12.5199 1731.3807,-12.4441 1740.9832,-12.4041 1750.6237,-12.3626 1760.444,-12.2921 1770.4583,-12.1984 1780.6217,-12.1006 1790.9056,-11.9872 1801.3145,-11.8769 1811.8595,-11.7245 1822.5222,-11.6092 1833.2959,-11.4216 1844.1709,-11.3126 1855.1592,-11.1114 1866.2567,-10.9595 1877.4625,-10.7925 1888.771,-10.6302 1900.1841,-10.4565 1911.686,-10.3308 1923.2908,-10.1894 1934.9934,-10.0476 1946.7944,-9.9295 1958.679,-9.8243 1970.6078,-9.7198 1982.5933,-9.5897 1994.6633,-9.4264 2006.8132,-9.3042 2019.0459,-9.2021 2031.3505,-9.087 2043.7217,-8.9404 2056.1653,-8.8396 2068.6804,-8.7231 2081.27,-8.5875 2093.9229,-8.4735 2106.6406,-8.3662 2119.4319,-8.2552 2132.2852,-8.1706 2145.2024,-8.0582 2158.187,-7.9372 2171.2329,-7.764 2184.3452,-7.6166 2197.5186,-7.4599 2210.7542,-7.3255 2224.0459,-7.1945 2237.3896,-7.0513 2250.7825,-6.9134 2264.2324,-6.7951 2277.7336,-6.6665 2291.2773,-6.5252 2304.8755,-6.3964 2318.5283,-6.2743 2332.2258,-6.1405 2345.9758,-5.9961 2359.7654,-5.8238 2373.5549,-5.6691 2387.3735,-5.5309 2401.2329,-5.4002 2415.1257,-5.2853 2429.052,-5.1567 2443.0066,-4.962 2456.999,-4.8283 2471.0232,-4.6675 2485.0693,-4.5322 2499.0452,-4.365 2512.8445,-4.2251 2526.4402,-4.0713 2539.884,-3.9217 2553.0466,-3.7352 2565.7847,-3.5443 2578.0564,-3.3556 2589.8889,-3.1554 2601.3528,-2.9793 2612.5415,-2.8256 2623.4104,-2.6758 2633.9009,-2.5232 2643.9683,-2.3704 2653.5686,-2.2537 2662.75,-2.1301 2671.5276,-2.0015 2679.8953,-1.9149 2687.8611,-1.8527 2695.4565,-1.7923 2702.6799,-1.7214 2709.5337,-1.6477 2716.0356,-1.58 2722.2063,-1.5209 2728.0479,-1.4556 2733.5776,-1.4116 2738.8284,-1.3578 2743.8423,-1.3101 2748.6602,-1.2529 2753.2969,-1.206 2757.8188,-1.1424 2762.4224,-1.067 2767.251,-1.0158 2772.3977,-0.9355 2777.7832,-0.7958 2783.2087,-0.719 2788.615,-0.5671 2793.9888,-0.4073 2799.385,-0.2077 2804.8813,-0.0138 2810.4119,0.2094 2815.8193,0.427 2820.9883,0.655 2825.8752,0.8687 2830.4358,1.0768 2834.8123,1.2277 2839.0845,1.382 2843.3499,1.534 2847.7202,1.6461 2852.3079,1.7672 2857.0679,1.9023 2861.8931,2.0063 2866.8445,2.1268 2871.9648,2.2621 2877.0959,2.3616 2882.0938,2.4503 2887.021,2.5256 2892.0454,2.5951 2897.208,2.643 2902.5107,2.6839 2908.0417,2.6936 2913.8706,2.6849 2920.0083,2.6354 2926.8098,2.5942 2933.8149,2.5521 2941.1675,2.4662 2948.3645,2.3649 2955.8665,2.2818 2963.3809,2.1791 2971.0781,2.1075 2978.9114,2.0232 2986.9438,1.9298 2995.1567,1.8411 3003.5598,1.7436 3012.1462,1.6649 3020.9053,1.6273 3029.8345,1.5916 3038.9348,1.5645 3048.2065,1.5799 3057.6787,1.6057 3067.3367,1.6279 3077.0762,1.6414 3086.9399,1.6539 3097.002,1.7021 3107.2551,1.7664 3117.5112,1.8276 3127.8169,1.9227 3138.2368,2.0289 3148.7754,2.1371 3159.4333,2.2647 3170.207,2.3754 3181.0945,2.5276 3192.095,2.6434 3203.2031,2.7724 3214.4187,2.9314 3225.7378,3.1649 3237.1523,3.421 3248.6619,3.6563 3260.2659,3.8689 3271.9548,4.0793 3283.7256,4.3456 3295.5481,4.6475 3307.446,4.9338 3319.4199,5.2023 3331.4622,5.4619 3343.5781,5.7614 3355.7722,6.0361 3368.0374,6.3232 3380.376,6.5967 3392.7705,6.9181 3405.228,7.2162 3417.7507,7.5815 3430.3401,7.9177 3442.9939,8.254 3455.7017,8.5706 3468.4768,8.924 3481.312,9.368 3494.1978,9.7666 3507.1384,10.2407 3520.1372,10.7107 3533.1609,11.1622 3546.03,11.5951 3558.5762,12.0085 3570.7422,12.3838 3582.5137,12.7299 3593.8862,13.0392 3604.8511,13.3713 3615.4172,13.6605 3625.6421,13.9105 3635.5796,14.164 3645.2749,14.3723 3654.7747,14.5553 3664.2351,14.6727 3673.7644,14.7875 3683.4182,14.8931 3693.1558,14.9611 3702.9675,15.0018 3712.842,15.0176 3722.8164,15.0136 3732.8457,15.0808 3742.9111,15.1449 3752.9253,15.1622 3762.9272,15.1165 3772.8655,15.0744 3782.6333,15.0008 3792.3967,14.8698 3802.196,14.7015 3812.0312,14.5285 3821.9224,14.3152 3831.8992,14.1105 3841.9685,13.9235 3852.1589,13.7139 3862.5364,13.529 3873.0742,13.3091 3883.7322,13.088 3894.5161,12.8388 3905.4407,12.613 3916.4805,12.3712 3927.635,12.14 3938.8994,11.8972 3950.2422,11.6637 3961.4885,11.406 3972.4768,11.1466 3983.0786,10.8794 3993.2239,10.6267 4002.9377,10.3752 4012.2444,10.1117 4021.1909,9.8496 4029.825,9.5698 4038.1755,9.2819 4046.2769,8.9642 4054.1431,8.7053 4061.947,8.4049 4069.4197,8.1036 4076.9126,7.801 4084.0908,7.4673 4091.5295,7.2049 4098.541,6.9077 4105.6963,6.5886 4112.686,6.2571 4119.728,5.9123 4127.0479,5.5404 4134.1738,5.2408 4141.5078,4.937 4148.6289,4.6589 4155.9365,4.3763 4163.0796,4.1442 4170.1821,3.9043 4177.3184,3.667 4184.1328,3.4484 4190.9844,3.2354 4197.6025,3.0262 4204.1538,2.8717 4210.7412,2.7047 4217.1328,2.5851 4223.4429,2.4967 4229.6807,2.4054 4235.9082,2.347 4241.9907,2.2975 4248.0273,2.26 4254.0649,2.2294 4260.1924,2.2012 4266.3877,2.1777 4272.5317,2.1468 4278.5918,2.1167 4284.5688,2.0973 4290.5962,2.044 4296.5371,2.006 4302.4741,1.9581 4308.4023,1.9325 4314.3667,1.9378 4321.0186,1.9902 4327.4038,2.1212 4333.8115,2.335 4340.147,2.5671 4346.6899,2.7929 4353.1592,3.0367 4359.8184,3.2817 4366.728,3.5372 4373.7695,3.7903 4381.0352,4.0464 4388.4834,4.3039 4396.1274,4.5653 4403.9043,4.8437 4411.853,5.1445 4419.9863,5.4098 4428.2754,5.6956 4436.7236,5.9874 4445.3359,6.2885 4454.1104,6.5968 4463.0444,6.9188 4472.0928,7.2331 4481.0869,7.5149 4489.8516,7.8023 4498.2446,8.0621 4506.209,8.3135 4513.7627,8.5513 4520.9014,8.7743 4527.6895,8.9983 4534.1616,9.2565 4540.3696,9.49 4546.248,9.7047 4551.9805,9.9268 4557.5469,10.1428 4563.0352,10.3353 4568.5166,10.4928 4574.0312,10.6448 4579.6172,10.8222 4585.2896,10.9706 4591.0796,11.101 4596.8169,11.2484 4602.4829,11.3683 4608.1143,11.4644 4613.7178,11.5516 4619.3247,11.6115 4624.9468,11.6466 4631.1089,11.6652 4636.9185,11.6878 4642.7017,11.691 4648.4902,11.665 4654.3003,11.592 4660.6968,11.4924 4666.46,11.3985 4672.0508,11.2763 4677.5806,11.1503 4683.1343,10.9736 4688.7314,10.7471 4694.4507,10.5087 4700.3857,10.2755 4706.5078,9.9962 4713.1567,9.6833 4720.1611,9.4002 4727.6465,9.1184 4735.2314,8.8175 4743.1372,8.4855 4751.2192,8.153 4759.3384,7.7624 4767.7744,7.4257 4776.3706,7.1064 4785.0205,6.7578 4793.9751,6.5005 4803.1372,6.2133 4812.5015,5.9155 4822.0425,5.6061 4831.7261,5.3805 4841.458,5.1023 4851.2817,4.8612 4861.252,4.6747 4871.3628,4.4712 4881.6411,4.2724 4892.0562,4.1285 4902.5747,3.9818 4913.1606,3.9086 4923.8516,3.8354 4934.6641,3.7367 4945.7529,3.6689 4956.9604,3.6352 4968.1968,3.5989 4979.4985,3.5783 4990.9614,3.5699 5002.2842,3.5528 5013.3413,3.5463 5023.9634,3.523 5034.0347,3.5018 5043.6055,3.4802 5052.6548,3.4508 5061.2993,3.4251 5069.4766,3.3743 5077.4658,3.2756 5084.9595,3.2197 5092.4092,3.1581 5099.2319,3.1268 5106.0039,3.0826 5112.3013,3.0486 5118.438,3.0017 5124.5596,2.9586 5130.9595,2.9095 5137.1489,2.8735 5143.4033,2.8508 5149.6528,2.8219 5156.2031,2.7677 5162.4771,2.7086 5168.79,2.6467 5175.1743,2.5886 5182.0078,2.5263 5188.5825,2.4795 5195.1758,2.4349 5202.0786,2.4117 5208.6387,2.419 5215.1621,2.4125 5221.8237,2.3914 5228.332,2.3644 5234.9438,2.3317 5241.6797,2.2733 5248.248,2.1995 5254.4863,2.1451 5260.2544,2.0995 5265.5342,2.0607 5270.4653,2.0335 5275.0254,2.0152 5279.2515,2.0025 5283.1875,1.9962 5287.0156,1.9723 5291.0366,1.9373 5294.3169,1.9059 5298.5186,1.8861 5302.8677,1.8613 5307.3555,1.8412 5311.917,1.8299 5316.4155,1.8233 5319.5933,1.8174 5323.8369,1.8134 5327.7124,1.8116 5331.377,1.8061 5335.0967,1.7898 5339.0576,1.7628 5343.3892,1.7232 5348.1104,1.6783 5353.1812,1.6262 5358.5728,1.5739 5364.269,1.5246 5370.2598,1.4463 5376.5029,1.3601 5382.915,1.3086 5389.5747,1.2126 5396.4766,1.085 5403.6172,0.9624 5410.9902,0.8398 5418.5918,0.7341 5426.4111,0.6126 5434.4165,0.4877 5442.5249,0.3661 5450.7324,0.3075 5459.1196,0.2638 5467.6851,0.243 5476.4253,0.2444 5485.3384,0.2437 5494.4224,0.2424 5503.6724,0.2501 5513.0815,0.2709 5522.6431,0.2917 5532.356,0.3267 5542.2031,0.3671 5552.126,0.3865 5562.1665,0.3902 5572.3364,0.3892 5582.6338,0.3842 5593.0562,0.3802 5603.6011,0.38 5614.2681,0.3802 5625.0542,0.4082 5635.9556,0.4173 5646.9746,0.4 5658.1069,0.4046 5669.3511,0.3913 5680.7031,0.3637 5692.1616,0.334 5703.7222,0.3141 5715.3638,0.2852 5727.0703,0.2874 5738.8623,0.2615 5750.7407,0.2117 5762.7056,0.1352 5774.7554,0.086 5786.8862,0.0098 5799.1079,-0.1023"/>
</svg>
