<?xml version="1.0" encoding="utf-8"?>
<!-- Track map generated with TinyPedal -->
<svg viewBox="-508.7794 -375.7235 1171.9866 609.8448" version="1.1" xmlns="http://www.w3.org/2000/svg">
	<title>Sebring School Circuit</title>
	<!-- Sector coordinates index -->
	<desc>130,204</desc>
	<!-- Raw global coordinates -->
	<polyline id="map" fill="none" stroke="black" stroke-width="10" points="-106.5953,-1.8402 -87.9276,-1.5636 -76.1562,-1.3896 -64.3114,-1.214 -51.1976,-1.0223 -40.4056,-0.8753 -28.3498,-0.7247 -16.2301,-0.5829 -4.1034,-0.4667 8.0864,-0.3875 21.5809,-0.3399 32.6858,-0.3351 45.0903,-0.3606 58.8119,-0.3974 71.3558,-0.4121 82.7008,-0.4021 95.3651,-0.366 108.0888,-0.3117 120.8734,-0.2493 135.0041,-0.1677 146.6181,-0.1001 159.5763,-0.0347 172.4941,0.0041 185.1085,-0.0109 197.3519,-0.0887 210.3988,-0.233 220.759,-0.3959 231.9486,-0.6386 242.8258,-0.9525 254.441,-1.4116 264.6761,-1.9737 273.6197,-2.6485 283.2762,-3.5992 292.6186,-4.8329 301.6517,-6.3655 310.3704,-8.2713 318.7671,-10.5812 326.8333,-13.3793 334.6179,-16.6144 342.1295,-20.2605 349.3214,-24.3314 356.8036,-29.3144 362.5499,-33.7739 368.5331,-39.0842 374.128,-44.6822 379.6925,-51.2287 383.7627,-56.8547 387.7909,-63.3387 391.327,-70.0986 394.4312,-77.1679 397.1335,-84.5508 399.4016,-92.2306 401.2363,-100.1803 402.6671,-108.3818 403.8476,-116.7987 404.8653,-126.2859 405.4587,-135.1075 405.7326,-143.1941 405.7338,-152.3246 405.427,-161.5955 404.6595,-171.9279 403.7384,-180.4783 402.3827,-190.0543 400.5979,-200.6095 398.9252,-209.3266 396.6438,-220.0795 394.5922,-228.9454 392.1753,-238.6731 389.7151,-248.0668 387.1045,-257.9597 385.1023,-265.7134 383.0496,-273.9657 381.2247,-281.8045 379.6705,-289.2177 378.3413,-296.8855 377.5229,-302.7813 376.9409,-308.9299 376.717,-314.6693 376.8564,-320.5069 377.255,-324.9174 377.9677,-329.4296 378.9598,-333.5044 380.2878,-337.0866 381.8854,-340.1989 383.6953,-342.8678 385.7408,-345.1055 388.0196,-346.9915 390.6664,-348.8017 392.9075,-350.0891 395.4542,-351.3167 398.0492,-352.3333 400.6715,-353.1502 403.5633,-353.851 406.2109,-354.3541 408.9316,-354.7777 411.7765,-355.1463 414.4843,-355.4282 417.6511,-355.6426 421.0413,-355.7235 424.6064,-355.6337 428.267,-355.311 431.9107,-354.7306 435.4551,-353.8774 438.8772,-352.7505 442.4745,-351.2101 445.2696,-349.7324 448.1923,-347.8654 450.9021,-345.7761 453.4114,-343.4631 456.0676,-340.5768 458.1968,-337.9079 460.663,-334.1885 462.5328,-330.7789 464.4367,-326.644 466.052,-322.1701 467.3924,-317.3611 468.6841,-312.2128 470.1733,-306.8017 471.8499,-301.149 473.697,-295.275 475.706,-289.2029 477.8295,-283.0396 480.0981,-276.6899 482.5101,-270.141 485.0629,-263.4013 487.7516,-256.48 490.8654,-248.67 493.5348,-242.1375 496.6236,-234.7365 499.8366,-227.1945 503.1754,-219.5282 506.6303,-211.8264 510.2881,-204.0377 514.2378,-196.2067 519.0527,-187.6423 523.4102,-180.7289 528.6708,-173.1614 534.3469,-165.7252 540.4377,-158.4468 546.8781,-151.2922 553.5879,-144.2049 560.534,-137.1666 567.6943,-130.1829 574.8879,-123.3682 581.911,-116.8089 588.6498,-110.4694 595.0896,-104.3273 601.2109,-98.3602 607.01,-92.538 613.0341,-86.2673 618.151,-80.6535 622.399,-75.617 626.6617,-69.9931 630.3911,-64.3168 633.581,-58.5842 636.5667,-52.205 638.8372,-46.3142 640.5171,-40.9466 642.0322,-34.3261 642.811,-28.8902 643.2072,-22.2712 643.0883,-16.8955 642.5105,-10.8502 641.4731,-4.666 639.9277,1.6315 637.5988,8.5186 635.3256,13.9751 632.742,20.0764 629.9437,26.3147 626.4714,33.2805 623.3672,39.0698 619.4138,46.3297 616.2084,52.4478 612.5483,60.1642 609.8451,66.6961 606.9769,74.9711 605.001,82.01 603.2354,90.1017 601.8766,98.4431 600.8556,106.9358 600.1221,115.2901 599.52,123.3722 598.883,131.1551 598.1032,138.6507 597.1386,145.8564 595.908,152.7674 594.1714,159.99 592.4065,165.5558 589.8639,171.9377 587.4581,176.8037 584.4635,181.8295 580.7689,186.8844 577.4572,190.6902 573.5055,194.5842 569.2919,198.1014 564.8458,201.2161 560.2028,203.9286 555.3137,206.2928 550.1435,208.3734 544.6907,210.1668 538.9661,211.6368 532.3859,212.854 526.8043,213.5324 520.4156,213.9707 513.1725,214.1213 507.0694,214.0968 500.0705,213.9927 492.8475,213.8343 484.6541,213.6504 477.7654,213.5047 469.924,213.3548 461.8949,213.2174 453.688,213.098 445.3245,212.9987 436.8828,212.9168 428.2722,212.8503 419.4924,212.8072 410.5482,212.7825 400.5255,212.7708 392.187,212.7622 382.7824,212.7464 373.2359,212.7187 363.553,212.6719 352.7498,212.6078 343.797,212.5681 333.7343,212.5414 322.532,212.5295 313.2681,212.5248 302.8765,212.5225 292.3961,212.5217 281.878,212.5166 271.2474,212.5109 259.4237,212.5078 249.6512,212.5009 238.6917,212.4834 227.6287,212.4622 216.4655,212.4313 205.2058,212.3947 192.7117,212.3788 182.4072,212.3897 170.8739,212.4262 159.255,212.4804 147.5528,212.5372 134.5879,212.5891 123.9107,212.6079 111.9762,212.6192 99.9701,212.6326 87.9206,212.6465 75.8429,212.6715 63.6886,212.7118 51.4589,212.7545 39.1555,212.8012 26.7798,212.8517 14.334,212.8983 1.8197,212.948 -10.7618,212.9961 -23.4087,213.0399 -36.1198,213.0832 -48.8933,213.1193 -61.7276,213.1536 -74.6216,213.1955 -88.8722,213.2425 -100.5827,213.2803 -114.9559,213.3248 -126.7642,213.3604 -139.9338,213.3965 -154.4791,213.4305 -166.4241,213.4522 -179.7414,213.4639 -193.1052,213.4641 -207.8003,213.4583 -219.6699,213.4612 -232.5747,213.4698 -245.1421,213.4722 -257.3843,213.4683 -270.511,213.4557 -281.0083,213.4273 -292.4199,213.3627 -303.589,213.2533 -314.517,213.0521 -325.1838,212.6449 -335.5779,211.9278 -346.6954,210.7285 -355.5331,209.4014 -365.0662,207.5593 -374.3001,205.3403 -384.1331,202.5011 -391.9388,199.8763 -400.3826,196.7298 -408.5623,193.3426 -416.4337,189.7085 -423.9621,185.8617 -431.0656,181.7516 -437.7836,177.4425 -444.1269,172.9156 -450.1463,168.2022 -455.8316,163.3146 -461.122,158.2203 -466.0621,152.9741 -470.6071,147.5501 -475.0834,141.3674 -478.3042,136.1577 -481.3919,130.2497 -483.9529,124.2683 -485.9244,118.224 -487.3708,112.1398 -488.3818,105.4219 -488.7794,99.9382 -488.7229,93.8983 -488.1617,87.2658 -487.3229,81.7941 -485.9706,75.6693 -484.2265,69.4906 -481.8447,62.6638 -479.5253,57.0816 -476.5472,50.9434 -473.1334,44.9736 -469.3137,39.2057 -465.1013,33.6771 -460.5182,28.4267 -455.5558,23.4661 -449.6594,18.3277 -444.5038,14.3754 -438.4305,10.3147 -432.0436,6.562 -425.3182,3.1829 -418.2732,0.1458 -410.9081,-2.5573 -403.2401,-4.8869 -395.3453,-6.8647 -387.2657,-8.4107 -378.9552,-9.5627 -369.5728,-10.4249 -361.7271,-10.8405 -352.8461,-11.0459 -342.8915,-11.0586 -334.6092,-10.9983 -325.2648,-10.8982 -315.7764,-10.7572 -306.1497,-10.5629 -295.4083,-10.2651 -286.507,-9.9483 -276.5029,-9.5258 -266.3981,-9.0438 -256.2459,-8.5278 -245.9722,-7.9913 -235.578,-7.4318 -225.0669,-6.8591 -214.4425,-6.2832 -203.708,-5.7059 -192.8668,-5.1266 -181.92,-4.5519 -170.8703,-3.9979 -159.7195,-3.4821 -148.4703,-3.0098 -137.1262,-2.5726 -125.6907,-2.1698 -114.1657,-1.8082"/>
	<!-- Raw distance reference points -->
	<polyline id="dist" fill="none" stroke="none" stroke-width="0" points="3077.3386,-1.241 17.3378,-1.22 29.1136,-1.2062 40.9511,-1.2084 52.8633,-1.1915 64.8444,-1.1741 76.9053,-1.1902 89.0388,-1.1608 101.1761,-1.1453 113.3729,-1.1395 125.6519,-1.1539 137.9921,-1.1339 150.3941,-1.1259 162.8543,-1.1146 175.3682,-1.0852 187.954,-1.0771 200.5992,-1.0577 213.3228,-1.0324 226.1089,-1.0424 238.9607,-1.0068 251.9035,-0.9938 264.8751,-0.985 277.809,-0.9962 290.4237,-0.9882 302.6602,-0.9889 314.5282,-0.9818 326.0465,-0.9809 337.2258,-0.9504 348.1018,-0.9377 358.6783,-0.9138 368.9453,-0.9027 378.8959,-0.8883 388.5483,-0.9184 397.8853,-0.9017 406.9698,-0.8975 415.8577,-0.9018 424.5291,-0.9389 433.2805,-0.9326 442.1563,-0.9305 451.0451,-0.9375 459.6303,-0.9504 468.6048,-0.9531 477.6315,-0.9227 486.6341,-0.881 495.4544,-0.9152 503.6486,-0.9113 512.0321,-0.8955 520.3029,-0.8871 528.2714,-0.8669 536.6758,-0.8376 544.8822,-0.8079 553.4655,-0.7802 562.0317,-0.7716 570.6843,-0.7226 579.3175,-0.6759 588.1962,-0.6622 597.1477,-0.6378 606.1542,-0.6212 615.2802,-0.6208 624.5035,-0.6651 633.8448,-0.6653 643.3453,-0.7106 652.9959,-0.7406 662.7207,-0.7646 672.5799,-0.7565 682.5745,-0.7339 692.6903,-0.7213 702.705,-0.7358 712.3894,-0.7744 721.6877,-0.8107 730.5885,-0.8215 739.0767,-0.784 747.1136,-0.727 754.6836,-0.7081 761.7851,-0.6961 768.4191,-0.7174 774.5695,-0.721 780.2748,-0.7095 785.7301,-0.6981 791.1603,-0.6927 796.2325,-0.7095 800.5541,-0.727 804.1403,-0.6929 807.2027,-0.6538 810.2567,-0.6499 812.6828,-0.6603 815.1279,-0.6631 817.9829,-0.6865 820.4772,-0.7224 823.2852,-0.7223 825.7536,-0.7238 828.4996,-0.7153 831.0015,-0.7073 833.6898,-0.7056 836.3005,-0.6983 839.1419,-0.6777 842.09,-0.6758 845.2292,-0.7007 848.5524,-0.7061 851.9693,-0.7253 855.3762,-0.7514 858.8983,-0.7791 862.3109,-0.8177 865.9259,-0.8693 869.372,-0.8993 873.2883,-0.9002 877.3372,-0.9007 881.4011,-0.9037 884.8139,-0.9117 888.9592,-0.8992 893.1725,-0.9001 897.3859,-0.8737 901.5449,-0.8405 905.7924,-0.8375 910.4355,-0.8479 915.5746,-0.8516 921.1188,-0.8429 927.0061,-0.811 933.175,-0.7539 939.4661,-0.7081 945.8847,-0.6823 952.4337,-0.6751 959.2307,-0.6605 966.2699,-0.6514 973.4697,-0.6571 980.893,-0.6751 988.5241,-0.6777 996.3407,-0.6657 1004.3525,-0.675 1012.5349,-0.6962 1020.8868,-0.7218 1029.3315,-0.7582 1037.9401,-0.7924 1046.6969,-0.8232 1055.6162,-0.887 1064.7866,-0.9295 1075.6041,-0.9703 1084.9377,-1.028 1094.4742,-1.0679 1104.1472,-1.1011 1113.9401,-1.154 1123.8333,-1.2083 1133.8384,-1.2241 1143.746,-1.2478 1153.3396,-1.2498 1162.5798,-1.2222 1171.4766,-1.2308 1180.0247,-1.2839 1188.2367,-1.331 1196.1437,-1.3578 1203.7563,-1.3868 1211.0483,-1.4136 1218.0336,-1.4472 1224.7122,-1.4706 1231.2461,-1.4639 1237.7389,-1.4497 1244.2188,-1.4014 1250.9375,-1.3437 1257.3647,-1.2763 1263.7174,-1.2193 1270.0223,-1.1543 1276.6096,-1.1085 1282.9684,-1.0685 1289.4659,-1.0479 1296.2294,-1.0376 1302.8622,-1.0387 1309.4022,-1.0431 1315.921,-1.057 1322.6509,-1.0669 1329.6582,-1.0862 1336.9652,-1.1088 1344.4866,-1.1437 1352.3718,-1.1819 1360.5626,-1.2069 1368.676,-1.2457 1377.2842,-1.2917 1385.7797,-1.3313 1394.1412,-1.3611 1402.6447,-1.4024 1411.2462,-1.4709 1419.6348,-1.5159 1427.7223,-1.5734 1435.4799,-1.5841 1442.994,-1.5603 1450.2528,-1.5276 1457.2549,-1.4664 1463.9849,-1.4198 1470.3235,-1.3953 1476.3898,-1.4098 1482.255,-1.4356 1488.0804,-1.4792 1493.9133,-1.5038 1499.7543,-1.5183 1505.9271,-1.5447 1511.7136,-1.576 1517.3884,-1.5983 1522.9395,-1.6072 1528.4523,-1.6019 1534.015,-1.5909 1539.6492,-1.5857 1545.2369,-1.5853 1551.1531,-1.5707 1557.3706,-1.5483 1563.7957,-1.5351 1570.4087,-1.5143 1577.1801,-1.4697 1584.1807,-1.453 1591.4067,-1.4162 1598.8331,-1.3774 1606.4739,-1.3581 1614.3134,-1.3498 1622.3322,-1.3576 1630.5298,-1.3661 1638.8881,-1.3478 1647.3153,-1.3376 1655.9187,-1.3254 1664.6964,-1.3047 1673.6382,-1.3016 1682.7423,-1.3029 1692.001,-1.2799 1701.4143,-1.2608 1710.9822,-1.2404 1720.7126,-1.2155 1730.4418,-1.2006 1740.4335,-1.1841 1750.5371,-1.1974 1760.7034,-1.1749 1770.9674,-1.1727 1781.3514,-1.1671 1791.8281,-1.1449 1802.3475,-1.1349 1812.9827,-1.1282 1823.7371,-1.1288 1834.5996,-1.1118 1845.5667,-1.1191 1856.6362,-1.1213 1867.8075,-1.1283 1879.0707,-1.1073 1890.4235,-1.1065 1901.8633,-1.1229 1913.3857,-1.1141 1924.984,-1.1147 1936.6771,-1.1413 1948.4567,-1.1342 1960.3152,-1.1476 1972.2511,-1.1565 1984.2693,-1.1736 1996.3219,-1.1801 2008.4004,-1.2003 2020.5586,-1.1973 2032.7908,-1.212 2045.0897,-1.2506 2057.4631,-1.2762 2069.9045,-1.2738 2082.4167,-1.2945 2094.9983,-1.337 2107.6477,-1.3493 2120.3599,-1.3811 2133.1328,-1.396 2145.97,-1.4158 2158.875,-1.4402 2171.8347,-1.4791 2184.8459,-1.4854 2197.9038,-1.5178 2211.0161,-1.5362 2224.1763,-1.5596 2237.3896,-1.6042 2250.6523,-1.6136 2263.9614,-1.6316 2277.3174,-1.6504 2290.6833,-1.6793 2303.8845,-1.6948 2316.792,-1.7177 2329.3669,-1.7268 2341.6155,-1.7344 2353.5784,-1.7394 2365.2686,-1.7574 2376.6902,-1.7448 2387.8591,-1.7579 2398.7764,-1.7648 2409.4321,-1.7721 2419.8164,-1.7725 2429.9231,-1.7738 2439.769,-1.7709 2449.4114,-1.7662 2459.0076,-1.7501 2468.5005,-1.7752 2477.7314,-1.7766 2486.9226,-1.7887 2495.9744,-1.758 2504.9202,-1.688 2513.7258,-1.667 2522.0718,-1.6283 2530.3472,-1.6378 2538.3357,-1.6283 2546.5181,-1.5992 2554.7124,-1.6204 2562.4094,-1.6357 2570.239,-1.6762 2577.5823,-1.7167 2585.0405,-1.7557 2592.1025,-1.789 2599.2825,-1.8366 2606.085,-1.9088 2612.7759,-1.9309 2619.8416,-1.9374 2626.5295,-1.9217 2633.1958,-1.9106 2640.2034,-1.8479 2646.5405,-1.8145 2652.8604,-1.811 2659.355,-1.7832 2665.873,-1.7664 2672.543,-1.758 2679.5867,-1.7436 2686.6199,-1.7373 2693.9734,-1.7159 2701.239,-1.7035 2709.4021,-1.6935 2717.0542,-1.7025 2725.2358,-1.7153 2732.7488,-1.7121 2740.5588,-1.7036 2747.9458,-1.6474 2755.4233,-1.6318 2762.8186,-1.5898 2770.2917,-1.5611 2777.9556,-1.5513 2785.7144,-1.5154 2793.6499,-1.5173 2801.7891,-1.5159 2810.0549,-1.5073 2818.4775,-1.4868 2827.147,-1.4737 2835.9644,-1.4571 2844.9299,-1.4175 2854.0579,-1.3967 2863.3743,-1.4007 2872.7905,-1.4084 2882.3889,-1.403 2892.1543,-1.3718 2902.0959,-1.3674 2912.1167,-1.3829 2922.2175,-1.3557 2932.3662,-1.3428 2942.6238,-1.3248 2953.0132,-1.3448 2963.5232,-1.3363 2974.1462,-1.3504 2984.8787,-1.299 2995.7202,-1.3169 3006.6655,-1.2829 3017.7102,-1.2783 3028.8569,-1.2906 3040.1035,-1.2797 3051.4456,-1.2763 3062.8792,-1.2579 3074.4016,-1.2612"/>
</svg>
