<?xml version="1.0" encoding="utf-8"?>
<!-- Track map generated with TinyPedal -->
<svg viewBox="-487.9971 -894.2981 1056.2204 1756.3484" version="1.1" xmlns="http://www.w3.org/2000/svg">
	<title>Silverstone Grand Prix Circuit - ELMS</title>
	<!-- Sector coordinates index -->
	<desc>172,366</desc>
	<!-- Raw global coordinates -->
	<polyline id="map" fill="none" stroke="black" stroke-width="10" points="-2.2594,-846.8056 19.9094,-849.1486 33.5807,-850.5828 44.8374,-851.7416 57.4239,-852.9697 70.0903,-854.1411 82.8294,-855.3069 95.6382,-856.5018 108.5161,-857.7128 122.7608,-859.0728 134.4748,-860.2137 147.5442,-861.5203 160.6307,-862.8338 173.6071,-864.1317 186.2278,-865.3809 198.4196,-866.571 211.2873,-867.8184 221.3931,-868.7812 232.2117,-869.7686 242.6304,-870.6664 252.6659,-871.4891 263.2819,-872.3288 272.5742,-873.018 280.6469,-873.5378 289.2898,-873.9666 297.604,-874.2291 305.6381,-874.2981 313.4656,-874.1154 321.9333,-873.5241 328.7522,-872.6541 336.181,-871.2397 343.4329,-869.3372 350.5086,-866.9307 357.3857,-864.0123 364.0418,-860.591 370.4631,-856.6978 376.6232,-852.358 383.0859,-847.1118 388.1582,-842.5079 393.5695,-837.0911 398.7465,-831.3284 403.7169,-825.1892 408.5722,-818.7192 413.3268,-811.9437 417.9467,-804.8553 422.397,-797.4492 426.6213,-789.7108 430.5934,-781.6461 434.6559,-772.4189 437.705,-764.6555 440.8137,-755.7856 443.9519,-745.7632 446.3111,-737.3688 448.7326,-727.8508 450.963,-718.1463 453.0316,-708.2687 454.9887,-698.2343 456.8752,-688.054 458.699,-677.7321 460.4533,-667.2701 462.1384,-656.6708 463.9151,-644.8568 465.3035,-635.1028 466.7644,-624.1738 468.1241,-613.1312 469.354,-601.9741 470.448,-590.706 471.4087,-579.3294 472.2965,-566.6927 472.8828,-556.2604 473.4085,-544.5748 473.8756,-531.6113 474.2256,-520.9224 474.6162,-508.9612 475.0172,-496.9214 475.4178,-485.0319 475.8399,-473.5136 476.2924,-462.4219 476.8303,-451.7486 477.5061,-441.4709 478.3303,-431.5586 479.4445,-421.0247 480.5622,-412.6442 482.0743,-403.5494 483.9236,-394.6309 486.1609,-385.8638 488.8336,-377.1646 491.8665,-368.4311 495.153,-359.6961 498.6094,-351.1499 502.0998,-342.8858 505.5417,-334.9125 508.8941,-327.2146 512.3945,-319.0211 515.0695,-312.5041 517.8428,-305.4436 520.6564,-297.8503 522.7219,-291.7316 524.6979,-285.0047 526.2977,-278.31 527.5956,-270.9236 528.3334,-264.1386 528.6297,-257.9078 528.5739,-250.805 528.1316,-243.5179 527.3091,-236.0626 526.0873,-228.463 524.4919,-220.7334 522.5731,-212.8792 520.367,-204.9041 517.9344,-196.8527 515.3529,-188.7027 512.7507,-180.3976 510.2297,-171.9082 507.894,-163.211 505.847,-154.341 504.2499,-145.515 503.088,-136.8511 502.3692,-128.4219 502.1286,-120.2632 502.4655,-111.6182 503.2084,-104.8179 504.501,-97.5656 506.2701,-90.6421 508.501,-84.0231 511.4622,-77.0431 514.2496,-71.5161 517.6999,-65.4172 521.42,-59.2465 525.2399,-53.0931 529.3251,-46.4965 532.4818,-41.2152 535.7407,-35.4257 538.698,-29.6784 541.3198,-23.931 543.797,-17.5471 545.4664,-12.2607 546.8728,-6.3298 547.7967,-0.371 548.2233,5.5779 548.1511,11.4779 547.5054,17.8797 546.5559,23.0879 545.0925,28.9039 543.2029,34.6641 540.8677,40.2029 538.0914,45.4832 534.8969,50.5413 530.8265,55.9677 527.0658,60.3386 522.4399,65.1106 516.8671,70.2817 512.0009,74.5044 506.2919,79.1657 500.3133,83.752 493.4545,88.8205 487.6648,93.0355 480.4209,98.3323 474.3861,102.817 467.592,107.9848 460.7467,113.3921 453.2634,119.681 447.2753,125.1492 440.0978,132.2235 434.3598,138.3293 428.1407,145.4427 422.1068,152.8986 416.2301,160.6596 409.887,169.4899 404.7446,176.9024 399.0547,185.3136 393.4015,193.9114 387.8104,202.707 381.7632,212.6191 376.9386,220.8802 371.7066,230.2491 366.6029,239.8094 361.6241,249.5544 356.254,260.4619 351.8986,269.5088 347.0582,279.6689 342.1743,289.9212 337.2272,300.2547 332.2077,310.6648 327.104,321.1415 321.394,332.7402 316.6735,342.3003 311.3921,353.0018 305.5502,364.8734 300.7385,374.6606 295.3616,385.6134 289.956,396.6491 284.5132,407.7617 279.0204,418.9447 273.4992,430.1579 267.9527,441.4241 261.8257,453.8874 256.7932,464.1387 251.1815,475.5849 245.5508,487.09 239.8887,498.6469 233.6223,511.4171 228.4508,521.9017 222.6501,533.5856 216.7962,545.3057 210.8858,557.0606 204.909,568.8452 198.859,580.6554 192.7502,592.4974 186.5818,604.3699 179.7234,617.4614 174.0615,628.1998 167.7005,640.1496 160.6619,653.2328 154.9955,663.688 148.8686,674.9547 142.9184,685.8328 137.1197,696.3367 130.9138,707.4728 125.9482,716.2512 120.5099,725.6331 115.1477,734.6284 109.3445,744.1055 104.6453,751.5388 99.4719,759.4575 94.3456,767.0156 89.2718,774.2477 83.7274,781.8668 79.2081,787.8531 73.7084,794.8736 69.2261,800.3766 64.2293,806.2167 59.1501,811.7216 53.929,816.8431 48.5363,821.5458 42.9358,825.8083 37.0982,829.5862 31.0389,832.8334 24.1689,835.7796 18.3862,837.738 11.0583,839.6503 4.864,840.8187 -2.1817,841.6752 -10.0497,842.0503 -16.4925,841.8971 -23.5515,841.2301 -31.1567,839.9285 -37.2614,838.4451 -44.6201,836.1181 -50.5523,833.8011 -57.0269,830.7927 -64.0082,826.9899 -69.6382,823.5073 -75.7766,819.2441 -81.6776,814.5685 -87.3179,809.4676 -92.75,803.9387 -97.9884,798.0057 -103.0452,791.6862 -107.9321,784.9967 -112.6442,777.9529 -117.2002,770.5831 -122.0732,762.1496 -125.9354,755.0525 -130.1929,746.9753 -134.5137,738.7502 -138.9827,730.424 -143.6478,722.0259 -149.0519,712.7372 -153.6998,705.1104 -159.1057,696.616 -164.7632,688.1091 -170.6729,679.5988 -176.822,671.0946 -183.1653,662.6312 -189.6893,654.1653 -196.3547,645.6703 -203.1411,637.1341 -210.0604,628.5696 -217.0853,620.0279 -224.0831,611.6732 -231.6678,602.7908 -237.757,595.7693 -244.3777,588.2174 -251.4409,580.2455 -257.0055,574.0287 -262.9261,567.4826 -268.5294,561.3534 -273.7931,555.6664 -278.7346,550.4225 -283.3799,545.6145 -287.764,541.2148 -291.9324,537.213 -295.923,533.623 -299.7725,530.4623 -303.5041,527.7402 -307.1479,525.4573 -310.7275,523.6277 -314.2523,522.2552 -318.1066,521.2516 -321.2737,520.8007 -324.7775,520.6843 -328.5821,521.0129 -331.7679,521.5985 -335.4609,522.5834 -339.2946,523.9392 -343.2416,525.6612 -347.3271,527.749 -351.5343,530.1832 -355.6811,532.8193 -360.0337,535.7552 -363.4771,538.0532 -367.6533,540.5899 -371.1257,542.3221 -375.0931,543.7974 -379.1497,544.7277 -383.2271,545.096 -387.2574,544.9184 -391.305,544.2479 -395.4459,543.1265 -400.1093,541.3954 -404.0338,539.642 -408.5272,537.3516 -413.1352,534.6583 -417.7538,531.5565 -422.3336,528.045 -427.3423,523.6696 -431.4004,519.7057 -435.8404,514.9036 -440.1647,509.6841 -444.3379,504.0609 -448.3267,498.0659 -452.0389,491.7419 -455.4435,485.1167 -458.5027,478.2212 -461.4504,470.3405 -463.5167,463.6788 -465.4186,456.0798 -466.9442,447.6335 -467.747,439.9537 -467.9971,433.0728 -467.7296,424.7346 -467.0219,417.9152 -465.7121,410.2476 -463.8995,402.4842 -461.601,394.6518 -458.4958,385.9986 -455.1755,378.12 -451.7881,371.0391 -447.6166,363.188 -443.0212,355.3725 -438.0424,347.5894 -432.7482,339.8523 -427.1536,332.1777 -421.3253,324.4958 -415.3562,316.7426 -408.6898,308.0874 -403.1821,300.8915 -397.0234,292.7654 -390.821,284.5071 -384.5577,276.1324 -378.2327,267.6446 -371.2046,258.1801 -365.4008,250.3386 -358.8882,241.531 -352.2935,232.6373 -345.6044,223.6702 -338.8842,214.6468 -331.4662,204.6109 -325.3644,196.3179 -318.5335,187.0314 -311.6442,177.6747 -304.6971,168.2493 -297.6912,158.7581 -290.6225,149.2066 -283.4982,139.5908 -276.3249,129.9082 -269.1099,120.1568 -261.9198,110.4175 -254.9285,100.9005 -248.1996,91.6922 -241.7267,82.8257 -235.4844,74.2916 -229.4505,66.0881 -223.6044,58.2135 -217.9046,50.658 -212.2933,43.4193 -206.7192,36.5144 -201.1413,29.9563 -195.5298,23.7362 -189.8364,17.8626 -184.0113,12.3746 -177.4129,6.8599 -171.8338,2.7722 -165.4054,-1.2841 -158.7491,-4.7763 -151.9004,-7.7093 -144.7813,-10.1606 -137.3403,-12.1916 -129.606,-13.814 -121.6079,-15.0338 -113.3735,-15.8603 -104.0723,-16.3822 -96.2894,-16.5359 -87.5276,-16.4224 -78.6386,-16.0205 -69.6112,-15.4076 -59.5245,-14.5662 -50.2092,-13.7224 -41.7046,-12.9452 -32.1194,-12.093 -21.4319,-11.2541 -12.6995,-10.7745 -3.1625,-10.5312 7.0829,-10.6032 15.314,-10.8998 24.3637,-11.5086 34.2311,-12.5773 42.2463,-13.7954 51.1186,-15.5489 59.9916,-17.7252 68.8356,-20.3618 77.6223,-23.5039 86.4002,-27.0597 95.1824,-30.9591 103.9351,-35.237 112.673,-39.8425 122.2422,-45.3 129.9838,-50.1298 139.2964,-56.5091 146.7785,-62.0823 155.6979,-69.3144 162.8332,-75.5704 170.5913,-82.8557 178.1953,-90.4125 186.2197,-98.6171 192.4639,-104.9733 199.6875,-112.2439 205.2962,-117.7944 211.2442,-123.5313 217.4577,-129.3013 222.3236,-133.5979 227.5378,-137.925 232.5819,-141.7843 237.4972,-145.1626 242.7799,-148.3207 247.5102,-150.706 251.7363,-152.4453 256.4094,-153.9038 261.0656,-154.8383 265.7137,-155.2173 270.306,-154.9858 274.7533,-154.1239 279.3655,-152.469 282.8402,-150.5947 286.3258,-148.0188 289.4793,-144.9693 292.4106,-141.4799 295.19,-137.5719 297.8143,-133.2697 300.4508,-128.1058 302.3596,-123.5642 304.2215,-118.1942 305.8518,-112.4831 307.2815,-106.4566 308.6982,-99.5216 309.753,-93.8043 310.8618,-87.6475 311.9757,-81.7959 313.1457,-76.2969 314.5734,-70.7064 315.9013,-66.5096 317.5616,-62.2333 319.4238,-58.3497 321.5048,-54.8506 323.819,-51.7098 326.6724,-48.6257 329.2444,-46.4161 332.3217,-44.3286 335.5945,-42.6396 339.0103,-41.3825 342.5089,-40.5792 346.3893,-40.2157 349.6079,-40.3108 353.2653,-40.8351 356.9977,-41.8234 360.7411,-43.3052 364.4552,-45.2931 368.0917,-47.785 371.5608,-50.7606 374.7912,-54.2039 378.0703,-58.5053 380.9033,-62.8651 383.3913,-67.1467 386.0717,-72.2907 388.8876,-78.3881 391.0276,-83.6353 393.1678,-89.7274 395.1151,-96.1507 396.8686,-102.8857 398.4175,-109.9198 399.9218,-117.9794 401.0101,-124.8071 402.0638,-132.606 402.9749,-141.3915 403.5348,-148.7466 403.9026,-156.9023 403.9855,-164.8174 403.7827,-172.4235 403.2866,-179.7231 402.492,-186.7505 401.3537,-193.5142 399.8287,-200.0015 397.8592,-206.1899 395.4056,-212.0797 392.4587,-217.7103 389.0045,-223.2481 385.1065,-228.7735 380.531,-235.001 376.5826,-240.2161 371.9652,-246.1166 366.6114,-252.7218 362.0255,-258.1901 356.7387,-264.2523 351.2155,-270.3559 345.455,-276.4984 339.4568,-282.6714 332.5751,-289.4775 326.7186,-295.0464 319.9754,-301.2261 312.2917,-308.0225 305.8126,-313.5891 298.4683,-319.7742 290.9794,-325.9847 283.3531,-332.2523 275.6068,-338.5943 267.748,-345.0163 259.7897,-351.5282 251.7324,-358.1276 243.5842,-364.8209 235.3502,-371.6118 226.1984,-379.1964 218.639,-385.4909 209.3128,-393.2897 200.7535,-400.4775 192.9894,-407.028 183.4524,-415.114 175.6129,-421.8007 166.8619,-429.326 158.1171,-437.0055 149.4279,-444.8869 140.7774,-452.9439 131.2513,-461.9455 123.4249,-469.3922 114.6741,-477.7293 105.8584,-486.1221 96.9691,-494.5607 87.9904,-503.027 78.9044,-511.5008 68.7798,-520.821 59.4665,-529.3011 50.9848,-536.9252 41.4511,-545.3871 31.8185,-553.8542 21.3376,-563.0566 13.0864,-570.293 4.3523,-577.9424 -4.6749,-585.8248 -11.606,-591.8691 -18.8469,-598.1631 -25.6235,-604.0211 -31.9723,-609.4758 -37.9544,-614.6025 -43.618,-619.4311 -48.9669,-623.9396 -54.0155,-628.1325 -59.2843,-632.4206 -63.8653,-636.047 -67.8597,-639.1199 -72.2103,-642.3641 -76.5435,-645.46 -80.9286,-648.3895 -85.4066,-651.0847 -90.0047,-653.5114 -94.7657,-655.693 -99.7493,-657.6498 -105.5574,-659.5538 -111.0417,-660.9693 -116.0111,-661.8783 -121.5363,-662.4919 -127.0348,-662.7785 -132.4829,-662.7756 -137.7769,-662.4807 -143.3638,-661.8831 -147.7736,-661.1832 -152.5268,-660.1448 -157.1357,-658.7746 -161.5572,-657.0181 -165.749,-654.8753 -169.6734,-652.3666 -173.2921,-649.514 -176.5848,-646.3455 -179.6539,-642.806 -182.5644,-638.8452 -185.2797,-634.4579 -187.7862,-629.6581 -190.0397,-624.4599 -192.0245,-618.876 -193.7706,-612.9405 -195.3112,-606.7104 -196.7842,-599.604 -198.021,-592.9025 -199.118,-586.6895 -200.332,-579.7405 -201.5354,-573.0204 -202.7819,-566.6033 -204.3616,-559.9365 -206.0842,-554.2487 -208.1115,-548.8984 -210.2482,-544.3776 -212.9908,-539.6956 -216.4573,-534.9837 -219.6218,-531.4754 -223.4544,-527.9813 -227.5836,-524.9515 -231.9572,-522.41 -236.5211,-520.3746 -241.2185,-518.853 -245.9942,-517.8492 -250.793,-517.3582 -255.5622,-517.3704 -260.252,-517.8705 -264.8776,-518.8361 -270.0205,-520.428 -274.2858,-522.1462 -279.0686,-524.4878 -283.8088,-527.2758 -288.2471,-530.484 -292.2782,-534.0917 -295.8353,-538.0736 -298.8594,-542.3875 -301.3157,-546.9695 -303.1976,-551.7704 -304.6152,-556.8702 -305.5958,-562.285 -306.1308,-567.9631 -306.2055,-573.8673 -305.731,-580.5793 -304.9172,-586.2358 -303.5699,-592.6851 -301.5415,-599.9384 -299.4797,-605.9774 -296.8111,-612.7099 -293.5016,-620.2162 -290.5374,-626.4427 -287.0074,-633.4615 -283.3004,-640.6183 -279.4874,-647.9457 -275.227,-656.2253 -271.2841,-663.941 -267.6474,-671.0206 -263.4642,-679.0077 -258.6441,-687.8517 -254.4617,-695.0923 -249.5319,-703.1322 -243.7667,-711.9587 -238.7755,-719.1513 -232.3249,-727.8812 -226.7218,-734.9271 -220.1496,-742.6335 -213.2181,-750.1912 -205.9526,-757.6077 -198.361,-764.8725 -190.446,-771.9692 -182.2013,-778.8708 -173.63,-785.5524 -164.7615,-791.9397 -155.5561,-798.0062 -146.0299,-803.7431 -135.2045,-809.6714 -126.0918,-814.2145 -115.706,-818.918 -105.0642,-823.2571 -94.185,-827.2291 -83.0849,-830.8329 -71.7864,-834.0896 -60.3137,-837.0449 -48.6743,-839.6701 -36.8768,-841.9395 -24.9373,-843.8729 -11.6595,-845.6537"/>
	<!-- Raw distance reference points -->
	<polyline id="dist" fill="none" stroke="none" stroke-width="0" points="5864.8384,0.2856 20.3578,0.4295 32.8476,0.5357 45.4186,0.6397 58.0617,0.7631 70.7661,0.8829 83.5489,0.9995 96.3809,1.1026 109.3067,1.1937 122.3029,1.2985 135.4287,1.3579 148.5452,1.4537 161.6569,1.5257 174.6856,1.6116 187.3622,1.6948 199.6074,1.771 211.3767,1.8421 222.6691,1.9113 233.5384,1.9896 244.0036,2.0674 254.0793,2.1215 263.7754,2.1789 273.1148,2.2253 282.0958,2.2546 290.7345,2.2832 299.0361,2.3153 307.0284,2.3474 314.7821,2.3876 322.4278,2.433 329.9924,2.4734 337.5186,2.5114 345.1014,2.5434 352.676,2.5746 360.4799,2.6102 368.1209,2.6531 375.9939,2.697 383.7337,2.7442 391.8145,2.796 400.0,2.8347 407.9481,2.8829 416.2422,2.9255 424.6623,2.9708 432.978,3.0122 441.5186,3.0547 449.9732,3.0961 458.4976,3.1334 467.2112,3.1757 476.1252,3.2272 485.2227,3.2909 494.3969,3.348 503.7498,3.4177 513.2189,3.4939 522.8504,3.5556 532.6331,3.6309 542.5707,3.7057 552.6458,3.7834 562.8434,3.8598 573.153,3.9456 583.592,4.0305 594.1635,4.113 604.8633,4.1938 615.7081,4.2896 626.6412,4.3651 637.66,4.4501 648.7811,4.5327 660.0052,4.6177 671.3273,4.7005 682.7432,4.7739 694.2518,4.8391 705.8647,4.8789 717.5681,4.9117 729.3789,4.9293 741.2783,4.9301 753.265,4.9192 765.3228,4.8818 777.2268,4.824 788.7527,4.7693 799.8347,4.7208 810.4954,4.6744 820.7802,4.6237 830.7164,4.5692 840.343,4.5268 849.7197,4.4967 858.8925,4.4639 867.9128,4.4188 876.8387,4.3445 885.8281,4.2468 895.233,4.1363 904.9052,4.0206 914.2404,3.9088 923.4662,3.808 932.4438,3.6899 941.0795,3.5924 949.2911,3.5053 957.0979,3.4478 964.6179,3.3945 971.8704,3.3575 978.9182,3.3313 985.8784,3.2994 992.8009,3.2631 1000.2263,3.2325 1007.4345,3.2075 1015.0398,3.1957 1022.466,3.1936 1030.2739,3.1907 1037.9244,3.1922 1045.8331,3.2143 1053.7773,3.2547 1061.8945,3.3083 1070.0936,3.3758 1078.475,3.4478 1087.0671,3.5161 1095.8165,3.5739 1104.7137,3.6232 1113.7372,3.6708 1122.8965,3.7049 1132.0138,3.7358 1141.0403,3.755 1149.8398,3.759 1158.1559,3.7375 1166.3357,3.7132 1174.1106,3.6877 1181.8242,3.65 1189.1394,3.6007 1196.432,3.5343 1203.4564,3.4413 1210.5367,3.3549 1217.587,3.2582 1224.7866,3.1831 1231.9873,3.1138 1239.0033,3.0343 1245.8175,2.9628 1252.4453,2.8833 1258.9222,2.797 1265.6304,2.71 1272.2324,2.616 1278.8313,2.5322 1285.8159,2.4462 1292.217,2.3521 1298.5754,2.2494 1305.3402,2.1386 1311.6786,2.0099 1318.0704,1.9201 1325.0892,1.8327 1331.6271,1.7563 1338.063,1.6746 1344.7321,1.6118 1351.0222,1.5425 1357.458,1.4827 1364.1062,1.4382 1371.1094,1.3809 1378.0817,1.3128 1385.3934,1.2471 1392.8126,1.1473 1400.3938,1.0429 1408.1188,0.9337 1416.0391,0.8342 1424.1487,0.7221 1432.4613,0.6336 1441.0096,0.5384 1449.8329,0.4511 1458.8,0.367 1468.0625,0.3069 1477.4872,0.2459 1487.0525,0.2152 1496.7622,0.1871 1506.5692,0.1628 1516.405,0.1622 1526.2678,0.1399 1536.2183,0.1079 1546.325,0.0556 1556.5787,0.0021 1566.9624,-0.0317 1577.4902,-0.0488 1588.1033,-0.056 1598.8184,-0.0583 1609.6378,-0.0733 1620.572,-0.1062 1631.6113,-0.1542 1642.7584,-0.197 1654.0039,-0.2449 1665.3481,-0.3004 1676.796,-0.3638 1688.3473,-0.4321 1699.9961,-0.4988 1711.7423,-0.571 1723.5829,-0.6315 1735.5149,-0.701 1747.5363,-0.7833 1759.6462,-0.8591 1771.8459,-0.9504 1784.1343,-1.039 1796.5084,-1.1352 1808.9673,-1.2119 1821.4658,-1.2932 1834.0232,-1.3782 1846.6465,-1.467 1859.332,-1.5332 1872.0789,-1.6108 1884.8862,-1.684 1897.7529,-1.7513 1910.6771,-1.8252 1923.6593,-1.8885 1936.6981,-1.9546 1949.7931,-2.03 1962.9469,-2.1476 1976.1567,-2.2822 1989.4226,-2.4283 2002.7455,-2.5781 2016.125,-2.7326 2029.5665,-2.8958 2043.0555,-3.0167 2056.5869,-3.1196 2070.0847,-3.2 2083.2922,-3.228 2096.0825,-3.2278 2108.4573,-3.2005 2120.4089,-3.1454 2131.9888,-3.0543 2143.189,-2.9583 2154.0002,-2.8234 2164.4409,-2.6615 2174.5288,-2.4511 2184.3035,-2.2702 2193.7507,-2.076 2202.8713,-1.9077 2211.679,-1.7392 2220.2007,-1.5525 2228.5012,-1.4149 2236.54,-1.2614 2244.3599,-1.1454 2251.9956,-1.0195 2259.3733,-0.894 2266.6091,-0.7684 2273.6873,-0.6427 2280.647,-0.5199 2287.5852,-0.4018 2294.5259,-0.2857 2301.3862,-0.162 2308.248,-0.0591 2315.3604,0.0656 2322.4854,0.17 2329.8923,0.2824 2337.2419,0.3969 2344.8831,0.4812 2352.2268,0.5585 2359.7742,0.6172 2367.0254,0.6512 2374.6335,0.6896 2381.9973,0.709 2389.7258,0.7274 2397.2161,0.7278 2405.0078,0.7116 2412.6023,0.6836 2420.3091,0.6503 2427.9248,0.6009 2435.6777,0.5351 2443.4968,0.4557 2451.3743,0.3602 2459.4568,0.243 2467.793,0.1016 2476.3623,-0.071 2485.2986,-0.305 2494.426,-0.5326 2503.6514,-0.808 2513.1877,-1.0943 2522.8572,-1.4164 2532.5955,-1.7909 2542.4207,-2.243 2552.4121,-2.6151 2562.5352,-3.0038 2572.8198,-3.361 2583.2385,-3.6341 2593.7844,-3.8135 2604.4175,-3.9124 2615.0957,-3.9815 2625.8818,-4.0224 2636.7676,-4.0295 2647.7432,-3.9908 2658.762,-3.9226 2669.6475,-3.8626 2680.2957,-3.8442 2690.6682,-3.8644 2700.7549,-3.9241 2710.4893,-4.0258 2719.7869,-4.1238 2728.6101,-4.2341 2736.907,-4.3424 2744.6423,-4.4425 2751.8428,-4.533 2758.519,-4.6176 2764.7168,-4.6924 2770.4775,-4.7606 2775.8115,-4.8222 2780.7292,-4.8766 2785.2708,-4.9186 2789.6328,-4.9495 2793.531,-4.9691 2797.874,-4.9764 2802.4329,-4.9702 2806.978,-4.9566 2811.3311,-4.9462 2815.3674,-4.9295 2818.9126,-4.9086 2823.0195,-4.8821 2827.1877,-4.8413 2831.447,-4.7871 2835.8862,-4.7301 2840.5679,-4.6728 2845.4519,-4.6124 2850.3828,-4.5506 2855.2639,-4.5082 2860.1909,-4.4711 2865.1362,-4.4531 2870.0325,-4.4462 2874.8882,-4.444 2878.9822,-4.4475 2883.7339,-4.4573 2888.542,-4.4731 2893.4546,-4.4888 2898.4197,-4.5041 2903.3945,-4.5242 2908.4453,-4.5601 2913.7021,-4.6108 2919.137,-4.6768 2924.7002,-4.7535 2930.6318,-4.836 2936.8474,-4.8935 2943.3137,-4.9524 2949.9268,-5.0036 2956.8325,-5.0449 2963.9165,-5.0737 2970.9932,-5.087 2978.2917,-5.1056 2985.5613,-5.1459 2993.082,-5.2219 3000.6206,-5.3049 3008.363,-5.4155 3016.0396,-5.5377 3023.6716,-5.6411 3031.2522,-5.7293 3038.8081,-5.8287 3046.7385,-5.8973 3055.1846,-5.9543 3063.4521,-6.0186 3072.0645,-6.0983 3080.5566,-6.1574 3089.0068,-6.2051 3097.6118,-6.2289 3106.3945,-6.2631 3115.3645,-6.2977 3124.5273,-6.3278 3133.8738,-6.3586 3143.3767,-6.3656 3153.0271,-6.3382 3162.8481,-6.2984 3172.8164,-6.2486 3182.8945,-6.2035 3193.0554,-6.1497 3203.3638,-6.0933 3213.8176,-6.0386 3224.4221,-5.9635 3235.1489,-5.8809 3245.9832,-5.7961 3256.9365,-5.6895 3268.0144,-5.5715 3279.2046,-5.4675 3290.4565,-5.3502 3301.7891,-5.2052 3313.2202,-5.0776 3324.7556,-4.9223 3336.3794,-4.7666 3348.0906,-4.6114 3359.8916,-4.447 3371.7791,-4.2784 3383.7524,-4.1074 3395.8198,-3.9397 3407.96,-3.7651 3420.0781,-3.5885 3431.8938,-3.4053 3443.3042,-3.2285 3454.2883,-3.0666 3464.8679,-2.914 3475.0557,-2.7653 3484.8667,-2.6135 3494.3342,-2.4623 3503.4905,-2.3177 3512.3452,-2.1747 3520.8796,-2.0317 3529.1897,-1.8936 3537.2627,-1.7468 3545.155,-1.6146 3552.8953,-1.5181 3560.5613,-1.4742 3568.1631,-1.426 3575.8721,-1.3698 3583.4839,-1.318 3591.5383,-1.2751 3599.8862,-1.2266 3608.1316,-1.1767 3616.8835,-1.1292 3625.6648,-1.0757 3634.2893,-1.0077 3643.145,-0.9414 3652.0911,-0.8465 3661.0798,-0.7378 3670.1104,-0.6157 3679.3076,-0.4739 3688.6658,-0.3329 3698.1526,-0.205 3707.7571,-0.0689 3717.4707,0.0539 3727.1592,0.13 3736.6804,0.1916 3746.0264,0.2589 3755.3169,0.3452 3764.6335,0.4593 3773.8015,0.5997 3783.1372,0.7015 3792.4871,0.8221 3801.9448,0.9446 3811.5378,1.0757 3821.292,1.2055 3831.0667,1.3363 3840.8325,1.4729 3850.6499,1.6193 3860.5359,1.7768 3870.4739,1.9541 3880.5112,2.0877 3890.7034,2.2359 3901.0291,2.3317 3911.4563,2.3996 3921.9958,2.4365 3932.6233,2.4723 3943.3113,2.5097 3953.7273,2.5504 3963.6179,2.582 3972.929,2.6178 3981.6907,2.658 3989.9243,2.7221 3997.6399,2.7873 4004.8589,2.8235 4011.6279,2.8493 4017.9697,2.8621 4023.9075,2.8625 4029.4207,2.8527 4034.6465,2.8415 4039.6699,2.831 4044.6458,2.8149 4049.6597,2.8014 4054.7581,2.7861 4059.9385,2.7775 4065.1768,2.7795 4070.4368,2.7911 4075.6802,2.812 4080.8457,2.8526 4085.9294,2.9081 4090.9185,2.9769 4095.8823,3.0641 4100.9321,3.1532 4106.1387,3.2442 4111.5552,3.3081 4117.2192,3.3743 4123.1553,3.4353 4129.3521,3.4969 4135.7725,3.5721 4142.2163,3.6427 4148.4385,3.7245 4154.3398,3.8043 4159.9175,3.8765 4165.1494,3.9357 4170.0327,3.9705 4174.5874,3.9953 4178.873,4.0084 4182.8491,4.0078 4186.6079,3.9934 4190.3862,3.968 4194.0039,3.9392 4198.0083,3.9042 4202.2417,3.8719 4206.5923,3.842 4211.0005,3.816 4215.4854,3.7902 4220.0776,3.7717 4224.7651,3.758 4228.5908,3.7515 4233.3838,3.7548 4238.0083,3.7737 4242.5107,3.8057 4246.9873,3.8349 4251.521,3.8557 4256.2651,3.87 4261.3091,3.8789 4266.6694,3.8827 4272.3604,3.8875 4278.3696,3.8936 4284.5151,3.8872 4290.896,3.8697 4297.5293,3.8597 4304.3291,3.85 4311.4546,3.8398 4318.8232,3.8243 4326.3789,3.8116 4334.1836,3.7978 4342.0977,3.7826 4350.1973,3.7682 4358.3066,3.7581 4366.1616,3.748 4373.73,3.7352 4381.0391,3.7219 4388.1147,3.7082 4395.1514,3.6961 4401.9829,3.685 4408.709,3.6808 4415.7212,3.674 4422.4717,3.6785 4429.9004,3.6887 4436.9463,3.6973 4444.082,3.6904 4451.4121,3.6849 4458.8667,3.6975 4466.5464,3.7177 4474.4053,3.7287 4482.4023,3.7439 4490.5928,3.7587 4498.9824,3.7679 4507.5664,3.7781 4516.3433,3.7884 4525.2949,3.7922 4534.417,3.8013 4543.7236,3.8123 4553.189,3.8272 4562.7847,3.8471 4572.5107,3.8518 4582.3779,3.8331 4592.3857,3.8136 4602.5347,3.8158 4612.8184,3.8297 4623.2329,3.8536 4633.7739,3.8765 4644.4375,3.8893 4655.229,3.8898 4666.147,3.8729 4677.1919,3.8548 4688.3555,3.8317 4699.6333,3.8141 4710.9932,3.7957 4722.4375,3.7863 4733.9814,3.7713 4745.6201,3.7634 4757.3472,3.77 4769.1631,3.7836 4781.0679,3.8009 4793.0571,3.8089 4805.1328,3.8169 4817.2964,3.8166 4829.5493,3.7969 4841.8896,3.7695 4854.3071,3.7256 4866.811,3.6644 4879.3945,3.5964 4892.0542,3.5173 4904.7939,3.4103 4917.6177,3.2759 4930.3159,3.111 4942.5381,2.9699 4954.1499,2.8259 4965.0811,2.6823 4975.3311,2.5651 4984.9253,2.4524 4993.8843,2.3471 5002.2578,2.2406 5010.1348,2.1475 5017.5728,2.0608 5024.5596,1.9774 5031.1162,1.9 5037.3008,1.8214 5043.1616,1.7522 5048.7583,1.6922 5054.1646,1.6329 5059.4473,1.5746 5064.6846,1.5136 5069.8662,1.4513 5075.0396,1.386 5080.2949,1.3206 5085.7173,1.2561 5091.375,1.1799 5097.1772,1.1136 5102.9482,1.0529 5108.6787,0.9894 5114.5737,0.9362 5120.2451,0.8877 5125.8027,0.8436 5131.1851,0.8001 5136.4175,0.7688 5141.5586,0.7384 5146.666,0.7096 5151.7632,0.6824 5156.8672,0.6606 5161.9424,0.6436 5166.9829,0.6329 5172.0146,0.6303 5177.1685,0.6346 5182.5425,0.6416 5188.1367,0.6621 5193.9062,0.6882 5199.9717,0.7175 5205.9111,0.7554 5212.0117,0.7865 5218.3237,0.8127 5224.8369,0.8368 5231.5835,0.8594 5238.5503,0.8781 5245.6143,0.9011 5252.4585,0.9251 5259.0571,0.9516 5265.7393,0.986 5272.0791,1.0308 5278.3228,1.0819 5285.4136,1.1356 5291.708,1.1947 5297.8267,1.2527 5303.7612,1.2943 5310.0078,1.3324 5315.5039,1.3653 5320.897,1.3886 5326.207,1.4057 5331.4341,1.4167 5336.5688,1.4235 5341.6035,1.4248 5346.5532,1.421 5351.4224,1.4124 5356.2705,1.3918 5361.2539,1.3632 5366.4277,1.3398 5371.8013,1.3109 5377.3086,1.2798 5382.7534,1.251 5388.0913,1.2202 5393.3213,1.1859 5398.4478,1.1498 5403.4785,1.1071 5408.4458,1.0635 5413.5352,1.0143 5418.8198,0.9652 5424.2944,0.9168 5429.729,0.8668 5435.5977,0.8141 5441.7163,0.7747 5448.0938,0.7334 5454.5356,0.6846 5461.5015,0.6224 5468.6948,0.5419 5476.062,0.4302 5483.6719,0.3243 5491.4355,0.194 5499.4116,0.0465 5507.6382,-0.0765 5516.0508,-0.1984 5524.6733,-0.2582 5533.5068,-0.3049 5542.5151,-0.3538 5551.6646,-0.3945 5560.937,-0.4167 5570.3096,-0.4424 5579.7925,-0.4705 5589.4473,-0.4876 5599.2109,-0.4993 5609.1338,-0.4895 5619.228,-0.4683 5629.4966,-0.4252 5639.9048,-0.3642 5650.4521,-0.2942 5661.1279,-0.2468 5671.9307,-0.2225 5682.8564,-0.2142 5693.8579,-0.209 5704.9976,-0.2045 5716.2007,-0.1925 5727.5078,-0.1731 5738.9121,-0.163 5750.4336,-0.1502 5761.9658,-0.1292 5773.5557,-0.1079 5785.1768,-0.0921 5796.8252,-0.0731 5808.5269,-0.0508 5820.3296,-0.0046 5832.3057,0.0602 5844.4077,0.1343 5856.6016,0.2223"/>
</svg>
