<?xml version="1.0" encoding="utf-8"?>
<!-- Track map generated with TinyPedal -->
<svg viewBox="-319.7230 -894.8623 872.9244 712.3784" version="1.1" xmlns="http://www.w3.org/2000/svg">
	<title>Silverstone National Circuit</title>
	<!-- Sector coordinates index -->
	<desc>64,184</desc>
	<!-- Raw global coordinates -->
	<polyline id="map" fill="none" stroke="black" stroke-width="10" points="-0.6213,-844.3201 15.0186,-846.4818 28.0386,-848.1455 43.2347,-850.0203 55.7593,-851.5866 69.7708,-853.3525 83.8824,-855.1307 99.518,-857.097 112.4023,-858.6696 127.5405,-860.4112 141.3308,-861.9037 156.679,-863.4644 170.6521,-864.8451 186.185,-866.3774 200.1747,-867.7358 214.9926,-869.1172 228.4497,-870.3196 241.2601,-871.4203 252.8801,-872.3788 265.665,-873.3962 276.0645,-874.139 286.3692,-874.665 296.5637,-874.8623 305.3103,-874.7313 314.0757,-874.2202 322.9893,-873.2812 331.3321,-871.9499 339.0723,-870.2021 347.736,-867.54 354.2085,-865.0132 361.52,-861.5596 369.1509,-857.1918 375.7547,-852.6897 381.4788,-848.1941 388.1386,-842.1627 393.2572,-836.8267 398.8647,-830.1823 403.6339,-823.7884 408.3535,-816.6882 412.738,-809.1913 417.0721,-800.8912 421.5673,-791.8048 424.9683,-784.5076 428.9554,-775.1216 432.466,-766.3305 436.192,-756.8862 440.1218,-746.7303 443.832,-736.808 447.2227,-727.1272 450.586,-716.6561 453.9743,-704.8054 456.6298,-693.7166 458.774,-682.9232 460.8774,-670.1492 462.4658,-659.5389 464.1538,-648.2129 466.0486,-635.529 467.8596,-623.2875 469.4229,-611.4957 470.7609,-598.9011 471.8541,-584.8431 472.4479,-573.1932 472.7895,-560.1038 473.0073,-546.9362 473.4036,-533.5748 474.0391,-521.051 474.684,-510.3004 475.3021,-499.9922 475.9376,-489.3596 476.5681,-478.847 477.2145,-468.0872 477.8126,-458.182 478.4247,-448.5765 479.1285,-439.5881 480.135,-430.2354 481.5031,-420.5448 483.0959,-411.4472 484.8622,-402.9294 487.0179,-393.6438 489.0732,-385.3415 491.4512,-376.2737 493.7045,-368.1696 496.345,-359.3359 498.9125,-351.4711 502.1145,-342.5289 505.082,-334.9562 508.4053,-327.1562 511.7194,-319.8208 514.674,-313.4183 517.5508,-307.2207 520.3701,-301.1663 522.7432,-296.0748 525.008,-291.2003 527.1144,-286.5973 528.814,-282.6411 530.1135,-278.9771 531.0168,-275.5965 531.7195,-271.8956 532.1747,-268.3702 532.539,-264.9613 532.8991,-261.0882 533.1581,-257.1203 533.2014,-253.5232 533.0055,-249.3552 532.6686,-246.156 531.9612,-242.101 531.0052,-238.543 529.6675,-235.1793 527.8751,-232.0154 525.9194,-229.3279 523.2375,-226.1304 520.5194,-223.2458 517.7195,-220.5791 514.2269,-217.634 511.3493,-215.4827 507.57,-212.9903 503.4869,-210.7341 499.3132,-208.7984 495.3221,-207.2583 490.1117,-205.611 485.5693,-204.4661 480.242,-203.4737 474.0612,-202.7523 468.4679,-202.4839 462.3633,-202.572 456.3599,-203.0226 449.1334,-203.9214 442.3755,-205.091 436.231,-206.5229 429.3169,-208.5831 421.6354,-211.432 415.0229,-214.4194 408.5269,-217.9121 401.8312,-222.0702 395.3643,-226.777 388.7877,-232.2428 382.3506,-237.6515 376.0283,-242.9095 369.215,-248.6882 361.8423,-254.9636 354.9767,-260.8087 346.8588,-267.8314 339.3221,-274.4284 332.0342,-280.8132 324.2091,-287.6888 316.6205,-294.3524 308.4729,-301.5023 299.7449,-309.1534 291.277,-316.5793 282.2612,-324.5563 274.4075,-331.5044 265.1386,-339.7065 256.1858,-347.623 247.6108,-355.2943 238.016,-363.8976 228.7472,-372.1892 219.8401,-380.1689 210.3778,-388.6939 199.838,-398.1822 190.6294,-406.469 181.3221,-414.8363 170.4256,-424.6218 160.4117,-433.6058 150.806,-442.2151 141.1132,-450.8946 129.8057,-461.0214 119.4715,-470.31 109.5976,-479.2201 99.1489,-488.6922 89.184,-497.7917 78.1371,-507.9731 67.5855,-517.7885 56.9977,-527.7108 46.979,-537.1069 35.9338,-547.4698 26.5293,-556.301 18.5786,-563.7708 10.2984,-571.5502 2.1206,-579.2372 -6.0034,-586.8699 -11.9865,-592.496 -18.7076,-598.82 -25.1661,-604.8972 -31.7158,-611.0518 -37.4564,-616.3905 -43.3182,-621.7577 -49.5599,-627.345 -54.8079,-631.8521 -60.4878,-636.4312 -65.4961,-640.2034 -70.6598,-643.8192 -76.0987,-647.3209 -80.8174,-650.0814 -86.4211,-652.9493 -91.9027,-655.2789 -97.5972,-657.2669 -103.1692,-658.8871 -109.671,-660.3834 -115.2893,-661.3402 -120.9016,-661.9155 -126.8817,-662.0255 -133.6087,-661.6089 -139.5526,-660.8576 -145.555,-659.7755 -151.772,-658.2608 -158.3751,-656.095 -163.8251,-653.7759 -168.9873,-651.0377 -174.5682,-647.4434 -178.8622,-644.1123 -182.6736,-640.654 -186.1723,-636.8585 -189.1314,-632.9057 -191.668,-628.5648 -193.5303,-624.3832 -195.0647,-619.7361 -196.1477,-614.8655 -196.76,-609.546 -196.9118,-604.5373 -196.9608,-598.424 -197.0546,-592.5826 -197.1754,-586.4476 -197.3413,-580.4374 -197.7913,-574.1004 -198.7173,-568.1346 -200.3622,-561.707 -202.4069,-556.1002 -205.2401,-550.2203 -208.4757,-544.9891 -212.0337,-540.2836 -216.1872,-535.6408 -220.6868,-531.4979 -225.7132,-527.767 -230.4842,-524.9502 -235.674,-522.5574 -241.4963,-520.6218 -246.5673,-519.5541 -251.6221,-519.0406 -256.8618,-519.093 -262.2064,-519.7878 -267.0919,-521.0367 -271.8487,-522.8572 -276.2535,-525.1027 -281.009,-528.2613 -284.4991,-531.2236 -287.9506,-534.9109 -291.0182,-539.0411 -293.8011,-543.821 -295.8874,-548.4918 -297.611,-553.7256 -298.892,-559.8036 -299.4685,-564.9948 -299.723,-571.6293 -299.5807,-577.2876 -298.9445,-584.1144 -297.8507,-590.7777 -296.3969,-597.0987 -294.5183,-603.7894 -292.1101,-611.426 -289.7487,-618.2888 -286.8373,-626.1502 -284.1001,-633.1078 -280.6882,-641.4265 -277.2421,-649.5569 -273.7784,-657.4716 -269.9269,-666.0095 -265.4479,-675.6305 -261.3742,-684.1201 -256.3381,-694.0441 -252.0858,-701.7184 -246.1658,-711.6845 -240.6907,-720.3161 -234.841,-728.9266 -228.234,-737.9136 -220.4295,-747.671 -212.7527,-756.2873 -204.8858,-764.107 -196.4898,-771.4958 -187.1904,-778.8912 -177.4843,-785.9874 -166.313,-793.4015 -156.8014,-799.1437 -145.9087,-805.2625 -133.586,-811.7352 -122.6002,-816.9463 -110.6494,-821.8792 -98.9518,-826.0042 -84.3955,-830.2802 -73.3936,-832.9592 -59.5549,-835.7335 -46.8432,-837.8723 -33.3191,-840.0109 -18.2987,-842.2579 -4.5268,-844.0817"/>
	<!-- Raw distance reference points -->
	<polyline id="dist" fill="none" stroke="none" stroke-width="0" points="2620.7305,0.3102 14.5037,0.4111 28.3144,0.5103 42.2351,0.6377 56.2415,0.7536 70.3536,0.8804 84.5873,1.002 98.8918,1.1222 113.2379,1.2074 127.7248,1.3059 142.3071,1.3944 157.0157,1.502 171.82,1.5926 186.6776,1.6896 201.4812,1.7772 215.6653,1.86 229.2051,1.959 242.1095,2.0551 254.3986,2.1105 266.0905,2.1777 277.0939,2.2247 287.4121,2.264 297.1193,2.3012 306.2905,2.3363 315.0002,2.3853 323.4154,2.4364 331.7889,2.4858 340.1192,2.5238 348.6567,2.5618 357.2546,2.5932 365.8556,2.6384 374.1068,2.6893 382.5647,2.7395 391.2063,2.786 399.6984,2.8406 408.6076,2.8924 417.5244,2.9395 426.5438,2.9743 435.3512,3.0335 444.453,3.0831 453.5279,3.1404 462.7681,3.202 472.2202,3.2509 481.9228,3.3154 491.8701,3.381 501.9973,3.4463 512.3283,3.5165 522.8781,3.5803 533.633,3.6485 544.5934,3.7178 555.7295,3.8023 567.0823,3.8847 578.6149,3.9707 590.3234,4.0732 602.187,4.1556 614.213,4.2486 626.4052,4.3447 638.7632,4.4388 651.272,4.5262 663.9318,4.6218 676.7381,4.7219 689.6815,4.7927 702.7634,4.8586 715.9305,4.9035 728.6967,4.9275 740.7154,4.9296 752.0988,4.9192 762.9885,4.8895 773.6396,4.8432 784.1727,4.7827 794.4486,4.7351 804.3849,4.6864 814.0154,4.6396 823.4982,4.5937 832.8837,4.5446 842.1797,4.5036 851.3638,4.4664 860.4416,4.4254 869.4264,4.3666 878.3517,4.2988 887.3315,4.2108 896.5936,4.1118 905.84,4.0014 914.7554,3.9069 923.7495,3.8008 932.5985,3.6926 941.3099,3.5965 949.4546,3.5154 956.9745,3.4544 963.8104,3.4004 970.1703,3.3587 976.0583,3.3301 981.3819,3.3062 986.1741,3.2803 990.4966,3.2583 994.3831,3.2407 998.1139,3.2271 1001.8118,3.2129 1005.5191,3.1997 1009.1235,3.1893 1012.9826,3.1792 1016.893,3.1667 1020.7996,3.1616 1024.5876,3.1606 1028.473,3.1614 1032.2947,3.1645 1036.0547,3.1699 1039.6722,3.1813 1043.391,3.1975 1047.3048,3.2163 1051.4878,3.249 1055.8403,3.2854 1059.9039,3.3246 1064.3878,3.3745 1068.8914,3.4113 1073.4099,3.4162 1078.0066,3.4372 1082.7365,3.4572 1087.583,3.4702 1092.5695,3.4771 1097.72,3.4687 1103.0427,3.471 1108.5344,3.4806 1114.2308,3.5012 1120.1829,3.5267 1126.3669,3.5567 1132.9037,3.5985 1139.686,3.6421 1146.5886,3.6845 1153.7604,3.7328 1161.0123,3.7855 1168.4194,3.8124 1175.8566,3.8189 1183.6484,3.7713 1191.5477,3.7533 1199.6587,3.7346 1208.0389,3.7125 1216.6785,3.6961 1225.6058,3.6979 1234.814,3.6985 1244.2903,3.7045 1254.0297,3.708 1264.0242,3.7061 1274.2047,3.7121 1284.6187,3.7192 1295.2488,3.7224 1306.0911,3.7265 1317.1403,3.7421 1328.3978,3.7538 1339.8538,3.7574 1351.4985,3.7482 1363.2808,3.7657 1375.2246,3.7691 1387.3359,3.7842 1399.6042,3.7995 1412.0283,3.8119 1424.6097,3.8133 1437.344,3.7986 1450.2296,3.7817 1463.2584,3.7674 1476.4286,3.756 1489.7366,3.7503 1503.1796,3.7385 1516.7491,3.7399 1530.4414,3.7511 1544.2372,3.7633 1558.1212,3.7621 1572.1141,3.7659 1586.2115,3.7533 1600.4108,3.7276 1614.7124,3.681 1629.1129,3.6201 1643.6113,3.5401 1658.0676,3.4453 1671.8712,3.3162 1684.8492,3.1873 1697.0089,3.0589 1708.3651,2.9214 1719.0603,2.788 1729.2297,2.6561 1738.9126,2.5564 1748.1267,2.4518 1756.9768,2.3513 1765.5243,2.2403 1773.7711,2.1531 1781.7036,2.0643 1789.3285,1.9677 1796.6281,1.8875 1803.5947,1.8028 1810.2021,1.7271 1816.4526,1.6503 1822.5303,1.5708 1828.4879,1.5052 1834.3376,1.4305 1840.1284,1.356 1846.0297,1.281 1852.1375,1.2089 1858.3131,1.1256 1864.4746,1.0548 1870.788,0.9885 1877.0264,0.9284 1883.4622,0.8645 1890.109,0.8112 1897.2706,0.76 1904.0248,0.7101 1911.0551,0.6625 1917.5461,0.6416 1924.0591,0.6433 1931.1852,0.6182 1937.4413,0.6334 1943.2903,0.6468 1948.7506,0.6668 1953.8516,0.6906 1958.6768,0.7161 1963.4462,0.7369 1968.2615,0.7516 1973.1691,0.7633 1978.204,0.7805 1983.4414,0.804 1988.9874,0.8397 1994.8151,0.8801 2000.9397,0.923 2007.2531,0.9697 2013.6042,1.0147 2019.955,1.0516 2026.27,1.081 2032.5594,1.1019 2038.9009,1.1251 2045.8618,1.1557 2052.6135,1.195 2059.4158,1.2369 2066.6179,1.2768 2073.1213,1.3101 2079.498,1.3331 2086.281,1.3484 2092.354,1.3597 2098.2803,1.368 2104.0823,1.3691 2109.7517,1.3633 2115.2942,1.3497 2121.095,1.3265 2126.5466,1.2955 2132.1033,1.2608 2137.6499,1.2123 2143.0945,1.1677 2148.5002,1.1141 2154.0081,1.0564 2159.6516,0.992 2165.8333,0.9328 2171.7568,0.8661 2177.8201,0.7942 2184.0469,0.7377 2190.8984,0.6791 2197.4822,0.6412 2204.199,0.6111 2211.1409,0.583 2217.9253,0.5481 2224.8101,0.4966 2232.0012,0.4202 2239.5547,0.3464 2247.4968,0.2438 2255.782,0.1444 2264.3179,0.0129 2273.0981,-0.1117 2282.1646,-0.2144 2291.5208,-0.2721 2301.1243,-0.3369 2311.0156,-0.388 2321.1123,-0.4261 2331.3889,-0.4574 2341.8157,-0.4953 2352.3867,-0.5228 2363.1882,-0.5418 2374.1895,-0.5307 2385.4126,-0.5078 2396.8157,-0.4598 2408.4028,-0.3903 2420.0908,-0.3097 2431.8872,-0.2577 2443.8799,-0.2386 2456.0496,-0.2243 2468.3989,-0.2196 2480.9895,-0.2092 2493.7749,-0.1865 2506.7935,-0.1744 2519.8296,-0.1555 2532.9475,-0.1282 2546.1152,-0.0998 2559.356,-0.0741 2572.7341,-0.0343 2586.2717,0.0225 2599.9514,0.1002 2613.7451,0.1921 2627.6704,0.2796"/>
</svg>
