<?xml version="1.0" encoding="utf-8"?>
<!-- Track map generated with TinyPedal -->
<svg viewBox="-487.4032 -173.4684 968.7951 1034.7471" version="1.1" xmlns="http://www.w3.org/2000/svg">
	<title>Silverstone International Circuit</title>
	<!-- Sector coordinates index -->
	<desc>102,260</desc>
	<!-- Raw global coordinates -->
	<polyline id="map" fill="none" stroke="black" stroke-width="10" points="-332.0111,206.419 -325.2321,197.124 -317.2789,186.2181 -309.9537,176.173 -302.9113,166.5193 -295.7895,156.7598 -288.211,146.3737 -279.3967,134.2882 -272.8151,125.2616 -265.003,114.5411 -256.7273,103.1677 -248.8147,92.2722 -241.515,82.2176 -234.2137,72.178 -226.6659,61.8846 -220.2323,53.2297 -213.7515,44.8513 -207.7484,37.5164 -202.7975,31.7277 -196.8729,25.1035 -191.6004,19.5425 -185.9156,14.1 -179.6385,8.9076 -173.7019,4.6998 -166.8774,0.6297 -159.7348,-2.853 -153.051,-5.5049 -145.8478,-7.8479 -138.4992,-9.7678 -131.4148,-11.287 -123.8213,-12.5171 -115.2673,-13.4461 -108.0709,-14.0102 -98.996,-14.4359 -90.9139,-14.5518 -81.2945,-14.3879 -73.68,-14.0349 -64.5253,-13.3813 -54.3374,-12.5678 -45.1721,-11.8362 -36.1024,-11.1545 -28.015,-10.701 -18.2238,-10.461 -9.4021,-10.3855 -1.0353,-10.3859 7.3336,-10.4635 17.0214,-10.727 25.756,-11.3717 33.526,-12.413 42.5008,-14.0935 50.5214,-16.024 58.873,-18.4514 67.2137,-21.184 75.9807,-24.3532 85.1348,-28.098 92.0702,-31.3939 100.0162,-35.7789 108.5466,-41.1253 115.7745,-46.1055 123.6394,-51.9557 131.0113,-57.8522 137.5616,-63.4045 145.5456,-70.4051 152.472,-76.5854 159.8585,-83.1906 166.9743,-89.5551 174.3549,-96.1558 181.9731,-102.9502 187.8019,-108.0464 193.9564,-113.191 200.3499,-118.3041 205.4964,-122.3684 210.2903,-126.1255 215.539,-130.185 219.9504,-133.5445 224.3039,-136.8312 228.8645,-140.2161 233.7088,-143.5717 238.9549,-146.6667 243.1127,-148.6868 248.0182,-150.6092 253.2161,-152.1134 257.9492,-153.0182 262.919,-153.4684 268.2972,-153.3304 272.789,-152.6631 277.3125,-151.4291 281.5579,-149.6782 285.6396,-147.3167 289.0121,-144.7439 292.129,-141.806 295.1387,-138.3512 297.8553,-134.5458 300.3676,-130.1895 302.327,-125.9485 304.1969,-120.9571 305.7803,-116.2105 307.6154,-110.6921 309.3648,-105.4245 311.496,-99.0023 313.4292,-93.1803 315.5572,-86.7855 317.7389,-80.3893 319.8438,-74.6544 322.2224,-68.7498 324.4176,-63.8306 326.8019,-59.1644 329.3153,-54.9701 332.3957,-50.6219 335.4219,-46.9324 338.8251,-43.3122 342.8134,-39.5849 347.2018,-35.905 352.2154,-32.0166 357.6219,-28.1474 362.5779,-24.8511 368.6494,-21.0666 374.3407,-17.8487 380.2993,-14.8686 386.0368,-12.1926 391.76,-9.4031 396.2025,-7.0282 400.2331,-4.5173 404.0567,-1.7958 407.7028,0.8101 411.2125,3.3141 414.2875,5.2818 417.7673,7.2752 421.4685,9.1776 424.959,10.9651 428.297,12.6903 432.2825,14.7798 435.6327,16.5991 439.5531,18.9772 443.1862,21.6077 446.6676,24.6162 449.8104,27.8165 453.0462,31.7186 455.6963,35.6047 457.72,39.2347 459.4325,43.2868 460.5473,46.9803 461.2239,50.9864 461.3919,55.1591 461.0188,59.6716 460.2168,64.0942 459.1336,68.4643 457.5371,73.7393 455.8327,78.4569 453.8429,83.3364 451.506,88.6917 448.7158,94.899 446.2626,100.2218 443.3642,106.3834 440.3359,112.7777 436.8284,120.155 433.6214,126.7986 430.085,134.0811 426.2201,142.0259 422.6177,149.4317 418.705,157.4804 414.6611,165.7781 410.6748,173.871 405.7546,183.4169 401.2665,191.8055 396.6998,200.3463 391.8221,209.5465 386.3414,219.8939 381.261,229.5041 376.617,238.3185 371.373,248.287 365.5018,259.4578 360.6201,268.751 355.1186,279.2353 349.5594,289.8415 343.6448,301.1356 337.3712,313.1452 332.4652,322.5445 326.3354,334.2954 320.427,345.6273 314.1528,357.6704 308.7211,368.1099 302.326,380.4226 296.4865,391.6831 289.6696,404.8632 284.0475,415.7539 277.4371,428.5783 271.1008,440.8878 265.0517,452.6622 258.6443,465.1554 252.1931,477.7473 245.3784,491.0744 239.1767,503.2235 232.2798,516.7487 226.002,529.071 219.0243,542.7842 211.6697,557.2543 205.9555,568.5059 198.5249,583.1582 192.4187,595.223 184.2203,611.4039 178.3568,622.9173 171.6824,635.8002 164.4478,649.2856 156.5662,663.5172 150.356,674.5098 143.7343,686.0247 137.4094,696.807 131.042,707.4855 125.1027,717.3801 119.607,726.5107 113.7195,736.2692 108.5245,744.8367 103.1761,753.5871 97.5788,762.3859 92.3777,769.921 86.8817,777.5256 80.8728,785.5662 75.7322,792.2261 70.5772,798.5084 65.0223,804.6433 58.9761,810.6572 53.2883,815.7393 46.4602,821.1796 40.3476,825.4368 32.9983,829.7335 26.4502,832.872 20.1049,835.3527 12.5288,837.6555 5.1177,839.3204 -2.0704,840.453 -9.7568,841.1348 -17.5261,841.2787 -25.7057,840.8182 -33.4673,839.7782 -40.7717,838.2353 -48.6678,835.9138 -56.2363,832.9597 -62.8806,829.7402 -69.7553,825.7823 -76.4744,821.2429 -82.6585,816.3938 -88.9086,810.7394 -95.1453,804.2141 -100.7293,797.4532 -105.9492,790.1807 -111.0441,782.0259 -115.352,774.2055 -119.79,765.6172 -124.1189,757.2414 -129.0217,747.7924 -133.854,738.6229 -138.6971,729.8065 -144.1464,720.4731 -150.2819,710.6469 -156.1893,701.7397 -162.6566,692.2791 -169.3394,682.7213 -176.6023,672.6316 -184.1503,662.545 -191.9869,652.4468 -198.9266,643.7861 -206.3987,634.5839 -214.2666,624.8944 -222.396,614.8691 -228.584,607.226 -235.6002,598.5419 -241.4846,591.2543 -246.6734,584.8419 -251.5166,578.8652 -256.5634,572.6415 -260.9353,567.2581 -265.3438,561.835 -269.9391,556.1696 -273.7146,551.5411 -277.3241,547.2328 -280.9642,543.1825 -284.5388,539.565 -288.7127,535.7826 -291.9023,533.2039 -295.7575,530.404 -299.9091,527.7404 -303.952,525.4832 -307.8656,523.6528 -311.9439,522.2194 -316.2274,521.3177 -320.3598,521.0283 -324.3351,521.2209 -328.5301,521.8818 -332.8695,523.1145 -336.7185,524.6954 -340.7581,526.8037 -344.9153,529.2553 -349.7872,532.1577 -354.0278,534.6491 -358.0141,536.9208 -362.1622,539.1102 -366.1044,540.7927 -369.6992,541.8276 -373.5368,542.4764 -377.1949,542.9462 -381.0693,543.262 -385.1782,543.162 -388.8857,542.6287 -392.7635,541.5851 -396.6537,540.0739 -401.0724,538.0046 -404.9953,535.8526 -408.9963,533.3619 -413.3412,530.4183 -417.96,526.8998 -422.1506,523.3204 -426.5979,519.1656 -431.3159,514.3787 -435.785,509.3821 -440.0821,504.0346 -444.0393,498.5146 -447.2998,493.3838 -450.3863,487.9031 -452.8677,483.1221 -455.4112,477.6574 -457.3987,472.7807 -459.2505,467.5831 -461.0543,461.7628 -462.7894,455.5803 -464.5414,448.6916 -465.9039,442.0222 -466.8625,435.2075 -467.3305,429.1378 -467.4032,423.1374 -467.0022,416.9301 -466.0231,410.4821 -464.582,404.2404 -462.7844,398.2088 -460.4837,391.7496 -457.7728,385.2472 -454.448,378.3075 -451.0079,371.9328 -446.9359,365.1478 -442.3835,358.3103 -437.4138,351.4254 -432.22,344.379 -426.5784,336.7378 -421.3148,329.6144 -415.6172,321.9077 -409.2205,313.158 -403.2973,304.9889 -397.5722,297.0778 -391.7378,289.0012 -385.4709,280.3302 -378.7603,271.0412 -372.2492,262.0215 -365.6251,252.8387 -359.2248,243.9727 -352.0284,234.0207 -345.0323,224.4195"/>
	<!-- Raw distance reference points -->
	<polyline id="dist" fill="none" stroke="none" stroke-width="0" points="10.3397,-5.2398 22.4715,-5.0987 34.7552,-4.9161 47.1683,-4.7494 59.737,-4.5897 72.457,-4.4195 85.3238,-4.2343 98.319,-4.0229 111.4316,-3.8628 124.7021,-3.6705 138.0879,-3.4586 151.5441,-3.2506 164.6286,-3.0664 177.0508,-2.8862 188.7127,-2.6951 199.5829,-2.5229 209.7461,-2.3535 219.2862,-2.2002 228.222,-2.0738 236.637,-1.9283 244.6667,-1.7922 252.4365,-1.6561 260.0607,-1.5517 267.6289,-1.5019 275.416,-1.4607 283.1799,-1.4069 291.3542,-1.3563 299.2274,-1.3203 307.4818,-1.2819 315.8243,-1.2215 323.8633,-1.1839 332.2395,-1.1247 340.6629,-1.0716 349.0093,-0.9953 357.6906,-0.9143 366.6,-0.7996 375.6495,-0.6968 384.8298,-0.5686 394.1331,-0.4181 403.3296,-0.2743 412.4131,-0.1363 421.3738,-0.024 430.2273,0.0847 439.0226,0.1538 447.8466,0.202 456.7032,0.2613 465.5986,0.3669 474.4287,0.48 483.2587,0.5888 492.0702,0.7006 501.0012,0.8105 509.8676,0.9291 519.0511,1.0579 528.3382,1.1775 537.689,1.3101 547.0247,1.4148 556.3027,1.5429 565.5986,1.6799 574.9866,1.7959 584.4042,1.9189 593.9937,2.021 603.5794,2.1044 613.2179,2.189 622.9659,2.2548 632.8522,2.3255 642.8865,2.3981 652.772,2.4762 662.0699,2.5551 670.6827,2.6153 678.6967,2.6705 686.1474,2.7222 693.0835,2.7648 699.5035,2.8035 705.5297,2.8405 711.3679,2.8623 717.1105,2.8761 722.7874,2.886 728.3738,2.8871 733.8232,2.8719 739.1076,2.8532 744.195,2.8295 749.2022,2.8011 754.2435,2.7725 759.407,2.747 765.3343,2.7279 770.7417,2.7253 776.1257,2.7344 781.4557,2.7616 786.6566,2.8217 791.7559,2.8911 796.7805,2.9676 801.7267,3.0615 806.5942,3.1506 811.4303,3.2319 816.3121,3.2922 821.3486,3.3508 826.5997,3.4009 832.1248,3.4506 837.9511,3.4924 844.0742,3.5391 850.5021,3.5727 857.215,3.6076 863.9547,3.6554 870.3224,3.7099 876.4861,3.7595 882.4512,3.7874 888.1775,3.805 893.722,3.8105 899.2398,3.8083 905.2427,3.8003 910.8277,3.8045 916.5298,3.8297 922.3773,3.8845 928.4335,3.9801 934.7425,4.0631 941.3544,4.1309 948.1675,4.1353 955.0499,4.1344 961.6974,4.1195 967.998,4.0837 973.7908,4.0248 979.1329,3.961 984.1523,3.8836 988.8187,3.7846 993.0552,3.6833 997.1337,3.5886 1001.184,3.5004 1005.1942,3.3885 1009.1545,3.2599 1013.0768,3.1292 1017.032,2.9978 1021.1116,2.837 1025.3246,2.6983 1029.6913,2.5348 1034.1317,2.378 1038.646,2.215 1043.2615,2.0453 1048.0476,1.8462 1052.8546,1.6713 1057.4396,1.5292 1061.943,1.3793 1066.4319,1.2405 1070.9497,1.108 1075.5385,1.006 1080.2053,0.9267 1084.6864,0.8652 1089.676,0.8321 1094.8167,0.7998 1100.1403,0.7742 1105.6595,0.7372 1111.4894,0.6962 1117.6512,0.6638 1124.1416,0.6388 1130.9475,0.5941 1138.0205,0.5377 1145.4287,0.4678 1153.1688,0.4026 1161.2461,0.3395 1169.6389,0.269 1178.2773,0.2077 1187.2009,0.1611 1196.4041,0.112 1205.8881,0.0643 1215.644,0.0156 1225.6471,-0.0302 1235.8376,-0.0632 1246.2507,-0.0931 1256.8848,-0.1198 1267.734,-0.1409 1278.793,-0.1646 1290.0557,-0.1976 1301.5177,-0.2344 1313.1722,-0.2765 1325.0149,-0.3269 1336.9921,-0.378 1349.1328,-0.4515 1361.437,-0.5302 1373.9012,-0.583 1386.522,-0.6468 1399.2955,-0.7117 1412.22,-0.7921 1425.2903,-0.8681 1438.5016,-0.9585 1451.8512,-1.0491 1465.3329,-1.1551 1478.9435,-1.2338 1492.6791,-1.3228 1506.5182,-1.4143 1520.4484,-1.4993 1534.488,-1.5761 1548.6365,-1.6591 1562.8905,-1.737 1577.2468,-1.802 1591.7032,-1.8772 1606.257,-1.9497 1620.9054,-2.0261 1635.6444,-2.1641 1650.4746,-2.2894 1665.3927,-2.4753 1680.4011,-2.6304 1695.4999,-2.8435 1710.6843,-2.9849 1725.9467,-3.1103 1741.2383,-3.2058 1756.0463,-3.2493 1770.0914,-3.249 1783.3503,-3.2157 1795.7963,-3.1537 1807.6156,-3.06 1819.1654,-2.9436 1830.3705,-2.8041 1841.1909,-2.6197 1851.6987,-2.43 1861.9275,-2.2216 1871.8379,-2.0177 1881.4476,-1.842 1890.7666,-1.6619 1899.8701,-1.4709 1908.6868,-1.3222 1917.1978,-1.1905 1925.394,-1.0588 1933.4236,-0.9195 1941.3257,-0.7879 1949.2078,-0.6389 1957.0907,-0.5125 1964.8761,-0.3683 1972.7493,-0.2467 1980.6602,-0.1284 1988.4045,0.004 1996.472,0.1349 2004.3779,0.2572 2012.5508,0.377 2020.7295,0.4837 2028.7382,0.5733 2037.0203,0.6321 2045.3464,0.6794 2053.4065,0.7197 2061.5554,0.7471 2069.4917,0.7527 2077.7085,0.7443 2085.9768,0.718 2094.2388,0.6815 2102.585,0.6269 2110.9949,0.5469 2119.6311,0.4569 2128.3892,0.3465 2137.3875,0.1924 2146.7302,0.0169 2156.4111,-0.2118 2166.3997,-0.4613 2176.6099,-0.7824 2186.9807,-1.1018 2197.5977,-1.4469 2208.5068,-1.8689 2219.615,-2.351 2230.9377,-2.7789 2242.4438,-3.2008 2254.1528,-3.5508 2266.0591,-3.7953 2278.0984,-3.9166 2290.2849,-3.9915 2302.5894,-4.0206 2315.04,-4.0129 2327.4907,-3.9456 2339.2307,-3.8681 2350.1714,-3.8381 2360.3362,-3.8516 2369.7568,-3.8991 2378.54,-3.9689 2386.7253,-4.0542 2394.3865,-4.1518 2401.7297,-4.2383 2408.738,-4.3319 2415.4209,-4.4353 2421.7417,-4.5122 2427.6709,-4.5847 2433.1003,-4.6529 2438.1436,-4.7219 2442.9836,-4.7874 2447.7183,-4.8378 2452.3276,-4.8906 2456.7786,-4.9334 2461.1777,-4.961 2465.6638,-4.9789 2470.1716,-4.9902 2474.2834,-4.9843 2478.8518,-4.9587 2483.5928,-4.9346 2488.4414,-4.9156 2493.2798,-4.8752 2498.0439,-4.8348 2502.77,-4.778 2507.585,-4.7124 2512.6189,-4.6408 2517.7417,-4.5769 2522.6431,-4.5287 2527.3418,-4.4905 2531.7646,-4.4676 2536.1006,-4.4585 2540.4846,-4.4636 2544.3462,-4.4745 2548.8503,-4.4757 2553.4263,-4.4764 2558.1221,-4.4962 2562.9519,-4.5265 2567.8909,-4.5452 2572.9236,-4.5631 2577.9958,-4.5812 2583.1343,-4.6053 2588.4424,-4.6437 2593.9839,-4.6974 2599.8237,-4.7556 2605.9045,-4.8215 2612.2854,-4.8884 2618.9607,-4.9443 2625.7944,-4.9879 2632.5793,-5.0217 2638.9705,-5.039 2644.9248,-5.047 2650.5845,-5.0723 2656.054,-5.11 2661.5684,-5.1541 2667.3594,-5.2121 2673.4475,-5.2907 2679.8994,-5.3862 2686.6897,-5.4954 2693.5391,-5.596 2700.2131,-5.6942 2706.7231,-5.7752 2713.1704,-5.8456 2719.5605,-5.9063 2726.2676,-5.9554 2732.9084,-6.0043 2739.7698,-6.0646 2747.0996,-6.1202 2754.282,-6.16 2761.6194,-6.1984 2769.1675,-6.2211 2777.0374,-6.2518 2785.2332,-6.2846 2793.7192,-6.3239 2802.468,-6.3869 2811.5081,-6.422 2820.8372,-6.4112 2830.4351,-6.3678 2840.2756,-6.314 2850.3262,-6.2417 2860.5623,-6.1739 2871.0417,-6.1143 2881.7607,-6.0669 2892.6851,-5.9848 2903.8108,-5.9096 2915.1316,-5.8146 2926.637,-5.712 2938.3142,-5.594 2950.1602,-5.4888"/>
</svg>
