<?xml version="1.0" encoding="utf-8"?>
<!-- Track map generated with TinyPedal -->
<svg viewBox="-110.0000 -110.0000 1220.0000 664.4538" version="1.1" xmlns="http://www.w3.org/2000/svg">
	<title>Watkins Glen International</title>
	<!-- Sector coordinates index -->
	<desc>140,280</desc>
	<!-- Raw global coordinates -->
	<polyline id="map" fill="none" stroke="black" stroke-width="10" points="998.7673,62.2051 997.5493,56.3888 995.8721,50.7147 993.7395,45.2053 991.1557,39.8832 988.1245,34.7712 984.6753,29.9075 980.9107,25.3229 976.8326,21.0195 972.4477,17.0282 967.7675,13.3750 962.8261,10.0961 957.6323,7.2553 952.1962,4.9003 946.5365,3.0806 940.7472,1.8002 934.8716,0.9418 928.9708,0.3917 923.0530,0.0849 917.1109,0.0079 911.1781,0.0030 905.2452,0.0030 899.3123,0.0030 893.3794,0.0030 887.4465,0.0030 881.5136,0.0030 875.5807,0.0030 869.6478,0.0030 863.7812,0.5687 858.3816,2.9995 853.8312,6.7960 849.5629,10.9186 845.2386,14.9723 840.8422,18.9713 835.6087,21.5804 829.6952,22.0354 823.7624,22.0354 817.8295,22.0354 811.8966,22.0354 805.9637,22.0354 799.9889,21.9896 794.2079,20.8403 788.9941,18.2039 784.4116,14.3846 780.0914,10.3042 775.8196,6.1612 771.1290,2.5813 765.6647,0.3467 759.7524,0.0000 753.8176,0.0030 747.8847,0.0030 741.9518,0.0030 736.0189,0.0030 730.0860,0.0030 724.1531,0.0030 718.2202,0.0030 712.2874,0.0030 706.3545,0.0030 700.4216,0.0030 694.4887,0.0030 688.5558,0.0030 682.6229,0.0030 676.6900,0.0030 670.7571,0.0030 664.8242,0.0030 658.8913,0.0030 652.9585,0.0030 647.0256,0.0030 641.0927,0.0030 635.1598,0.0030 629.2269,0.0030 623.2940,0.0030 617.3611,0.0030 611.4282,0.0030 605.4953,0.0030 599.5624,0.0030 593.6296,0.0030 587.6967,0.0030 581.7638,0.0030 575.8309,0.0030 569.8980,0.0030 563.9651,0.0030 558.0322,0.0030 552.0993,0.0030 546.1664,0.0030 540.2335,0.0030 534.3007,0.0030 528.3678,0.0030 522.4349,0.0030 516.5020,0.0030 510.5691,0.0030 504.6362,0.0030 498.7033,0.0030 492.7704,0.0030 486.8375,0.0030 480.9047,0.0030 474.9718,0.0030 469.0389,0.0030 463.1060,0.0030 457.1731,0.0030 451.2402,0.0030 445.3073,0.0030 439.3744,0.0030 433.4445,0.0030 427.5057,0.0030 421.5761,0.0041 415.6472,0.0925 409.7186,0.3159 403.7964,0.6879 397.8870,1.2220 391.9966,1.9318 386.1314,2.8308 380.3032,3.9349 374.5210,5.2465 368.7848,6.7494 363.0946,8.4271 357.4504,10.2632 351.8522,12.2413 346.3039,14.3609 340.8152,16.6211 335.3897,19.0215 330.0311,21.5623 324.7430,24.2433 319.5276,27.0635 314.4037,30.0498 309.3944,33.2236 304.4995,36.5735 299.7192,40.0884 295.0534,43.7569 290.5043,47.5709 286.0937,51.5317 281.8089,55.6218 277.6273,59.8212 273.5266,64.1101 269.4843,68.4683 265.4897,72.8711 261.5547,77.3193 257.6499,81.7900 253.7425,86.2539 249.7999,90.6814 245.7892,95.0430 241.6580,99.3044 237.3663,103.4058 232.9213,107.3352 228.3287,111.0870 223.5942,114.6555 218.7189,118.0377 213.6744,121.1851 208.4789,124.0390 203.1392,126.5940 197.6622,128.8447 192.0545,130.7857 186.3438,132.4060 180.5679,133.7484 174.7355,134.8511 168.8630,135.7395 162.9665,136.4393 157.0623,136.9759 151.1577,137.4195 145.2451,137.9530 139.3385,138.6159 133.4534,139.4344 127.6049,140.4347 121.8085,141.6431 116.0823,143.1158 110.4304,144.9021 104.8612,146.9706 99.3858,149.2905 94.0153,151.8310 88.7609,154.5611 83.6251,157.5223 78.6546,160.7676 73.8650,164.2789 69.2704,168.0379 64.8846,172.0265 60.7092,176.2428 56.7734,180.6910 53.1185,185.3477 49.7564,190.2128 46.6988,195.2863 43.9577,200.5682 41.5727,205.9933 39.4782,211.5409 37.6128,217.1794 35.9163,222.8756 34.3288,228.5964 32.7872,234.3160 31.2388,240.0408 29.6905,245.7659 28.1451,251.4927 26.6004,257.2264 25.0557,262.9551 23.5122,268.6776 21.9689,274.4106 20.4257,280.1424 18.8826,285.8722 17.3398,291.6099 15.7970,297.3384 14.2541,303.0523 12.7107,308.7804 11.1673,314.5147 9.6232,320.2339 8.0773,325.9525 6.5356,331.6950 5.7090,334.7747 4.8456,337.9764 3.4998,343.4529 2.0148,350.4251 0.7338,358.1134 0.0000,365.7387 0.1565,372.5216 1.3746,378.3122 3.6236,383.7985 6.8556,388.7874 11.0149,392.9924 16.0365,396.1177 21.6764,397.9459 27.5338,398.8034 33.4203,399.5192 39.3070,400.2381 45.1940,400.9593 51.0815,401.6816 56.9695,402.4041 62.8582,403.1257 68.7478,403.8454 74.6382,404.5622 80.5298,405.2750 86.4226,405.9828 92.3167,406.6847 98.2106,407.3819 104.0990,408.0819 109.9891,408.7753 115.8806,409.4629 121.7734,410.1452 127.6674,410.8229 133.5623,411.4967 139.4581,412.1671 145.3546,412.8348 151.2515,413.5005 157.1489,414.1648 163.0464,414.8283 168.9475,415.4766 174.8450,416.1211 180.7398,416.7656 186.6345,417.4102 192.5317,418.0547 198.4323,418.7002 204.3268,419.3502 210.2248,419.9968 216.1246,420.6414 222.0249,421.2857 227.9241,421.9309 233.8210,422.5786 239.7156,423.2289 245.6135,423.8770 251.5115,424.5244 257.4094,425.1706 263.3074,425.8148 269.2053,426.4567 275.1032,427.0956 281.0012,427.7309 286.9020,428.3764 292.8007,429.0248 298.6971,429.6721 304.5925,430.3179 310.4880,430.9615 316.3847,431.6024 322.2837,432.2400 328.1842,432.8759 334.0820,433.5176 339.9799,434.1623 345.8777,434.8087 351.7756,435.4552 357.6734,436.1004 363.5713,436.7427 369.4718,437.3868 375.3709,438.0352 381.2664,438.6817 387.1611,439.3249 393.0576,439.9635 398.9584,440.5962 404.8569,441.2417 410.7542,441.8901 416.6516,442.5385 422.5483,443.1875 428.4533,443.8280 434.3628,444.3099 440.2936,444.4538 446.1961,443.9701 451.9851,442.7402 457.6025,440.8413 462.9965,438.3474 468.1153,435.3328 472.9389,431.8457 477.4154,427.8928 481.3638,423.5207 484.6933,418.7092 487.3132,413.4383 489.1292,407.7063 490.2113,401.8788 490.8924,395.9910 491.4176,390.0773 492.0132,384.1706 492.6428,378.2701 493.2696,372.3696 493.8938,366.4691 494.5153,360.5686 495.1341,354.6681 495.7501,348.7676 496.3635,342.8672 496.9741,336.9667 497.5821,331.0662 498.1776,325.1664 498.7677,319.2657 499.3478,313.3630 499.9129,307.4573 500.4579,301.5476 500.9776,295.6328 501.4739,289.6190 502.0057,283.6484 502.6764,277.7660 503.5904,271.9893 504.8521,266.3356 506.5660,260.8223 508.8366,255.4668 511.7684,250.2866 515.4659,245.2991 519.5633,240.9584 524.1059,237.1076 529.0258,233.7856 534.2439,231.0240 539.7118,228.7925 545.3810,227.0608 551.2031,225.7998 557.0503,224.7329 562.8786,223.6916 568.7183,222.6443 574.5580,221.5969 580.3977,220.5496 586.2374,219.5022 592.0771,218.4548 597.9168,217.4075 603.7566,216.3601 609.5963,215.3127 615.4360,214.2654 621.2757,213.2180 627.1154,212.1706 632.9551,211.1233 638.7948,210.0759 644.6345,209.0286 650.4742,207.9812 656.3139,206.9338 662.1537,205.8865 667.9934,204.8391 673.8331,203.7917 679.6728,202.7444 685.5125,201.6970 691.3522,200.6497 697.1919,199.6023 703.0316,198.5549 708.8713,197.5076 714.7110,196.4602 720.5508,195.4128 726.3905,194.3655 732.2302,193.3181 738.0699,192.2707 743.9096,191.2234 749.7493,190.1760 755.5890,189.1287 761.4287,188.0813 767.2684,187.0339 773.1081,185.9866 778.9479,184.9392 784.7876,183.8918 790.6273,182.8445 796.4670,181.7971 802.3067,180.7498 808.1464,179.7024 813.9861,178.6550 819.8258,177.6077 825.6655,176.5603 831.5052,175.5129 837.3450,174.4656 843.1847,173.4182 849.0244,172.3708 854.8641,171.3235 860.7038,170.2761 866.5435,169.2288 872.3832,168.1814 878.2229,167.1340 884.0626,166.0867 889.9023,165.0393 895.7421,163.9919 901.5818,162.9446 907.4215,161.8972 913.2612,160.8499 919.1009,159.8025 924.9406,158.7551 930.7777,157.6691 936.5583,156.3489 942.2528,154.7158 947.8410,152.7096 953.2916,150.3569 958.5789,147.6582 963.5482,144.4596 968.3243,140.9247 972.9556,137.2230 977.2959,133.1658 981.3382,128.8083 984.9983,124.1677 988.2922,119.2490 991.2276,114.0827 993.7748,108.7078 995.9040,103.1636 997.5855,97.4892 998.8057,91.7186 999.6071,85.8388 1000.0000,79.8940 999.9916,73.9339 999.5892,68.0083"/>
</svg>
