<?xml version="1.0" encoding="utf-8"?>
<!-- Track map generated with TinyPedal -->
<svg viewBox="-110.0000 -110.0000 1220.0000 1199.9252" version="1.1" xmlns="http://www.w3.org/2000/svg">
	<title>WeatherTech Raceway Laguna Seca</title>
	<!-- Sector coordinates index -->
	<desc>140,280</desc>
	<!-- Raw global coordinates -->
	<polyline id="map" fill="none" stroke="black" stroke-width="10" points="383.7218,977.4811 393.5735,978.9688 403.4545,979.7057 413.3863,979.9252 423.3600,979.8645 433.2892,979.7690 443.2344,979.6823 453.1929,979.5976 463.1619,979.5077 473.1389,979.4058 483.1210,979.2849 493.1057,979.1381 503.0901,978.9583 513.0715,978.7387 523.0473,978.4722 533.0147,978.1519 542.9711,977.7708 552.9138,977.3220 562.8399,976.7985 572.7469,976.1933 582.6320,975.4995 592.4925,974.7101 602.3257,973.8181 612.1495,972.7580 621.9175,971.1007 631.5740,968.8202 641.1090,965.9880 650.5128,962.6759 659.7756,958.9555 668.9167,954.8916 678.0631,950.6705 687.1462,946.4219 696.1722,942.1454 705.1468,937.8405 714.0761,933.5067 722.9661,929.1434 731.8227,924.7502 740.6520,920.3265 749.4597,915.8719 758.2520,911.3857 767.0348,906.8676 775.8140,902.3169 784.5957,897.7333 793.3858,893.1161 802.1902,888.4648 811.0149,883.7791 819.8660,879.0582 828.7493,874.3018 837.0676,868.7939 844.4060,861.6519 849.1124,853.4932 851.7234,843.6140 851.4320,833.9010 849.1437,824.2673 845.4338,815.0128 839.8909,806.8510 832.8346,799.5508 824.6956,793.4620 816.1118,789.8776 806.1265,788.9067 795.7837,790.2512 786.9695,793.8642 779.1006,799.4543 771.8439,805.9658 764.9191,813.0513 758.0459,820.3632 750.9439,827.5541 743.3329,834.2765 735.2928,840.2222 727.1454,845.8964 718.8355,851.3988 710.3739,856.7025 701.7713,861.7805 693.0383,866.6059 684.1858,871.1518 675.2244,875.3913 666.1156,879.3173 656.8320,882.9331 647.4313,886.2462 637.9328,889.2850 628.3557,892.0778 618.7192,894.6528 609.0427,897.0385 599.3453,899.2629 589.6463,901.3546 579.9649,903.3416 570.3404,904.8877 560.3063,904.3974 550.3899,902.1329 541.5258,898.6526 533.8365,892.9912 526.7587,884.9612 521.5915,876.1631 518.8071,867.0084 516.2820,857.2488 513.8520,847.5225 511.5105,837.8252 509.2509,828.1522 507.0666,818.4991 504.9508,808.8613 502.8969,799.2344 500.8983,789.6139 498.9484,779.9952 497.0404,770.3738 495.1677,760.7451 493.3236,751.1048 491.5016,741.4483 489.6949,731.7710 487.8969,722.0684 486.1010,712.3362 484.3005,702.5696 482.4886,692.7642 480.6589,682.9156 478.8047,673.0191 476.9192,663.0704 474.9958,653.0648 473.0279,642.9978 471.9490,633.1588 472.5081,623.0973 474.3896,613.1894 477.2807,603.8420 481.5547,595.2047 487.8372,587.3203 495.4600,580.7868 503.9370,575.3025 512.4663,569.8939 520.9683,564.5705 529.4510,559.3284 537.9229,554.1632 546.3922,549.0708 554.8671,544.0471 563.3558,539.0879 571.8668,534.1891 580.4082,529.3464 588.9882,524.5558 597.6153,519.8131 606.2975,515.1140 615.0433,510.4545 623.8608,505.8304 632.7583,501.2376 641.7441,496.6718 650.8265,492.1289 659.1540,488.2315 668.1363,484.6649 677.8321,481.3100 687.9479,478.2059 698.1902,475.3917 708.2654,472.9066 717.8799,470.7895 726.8241,469.0644 736.8851,467.2776 746.8691,465.5390 756.7842,463.8445 766.6382,462.1901 776.4391,460.5714 786.1949,458.9844 795.9135,457.4248 805.6029,455.8885 815.2711,454.3714 824.9259,452.8692 834.5754,451.3778 844.2276,449.8931 853.8902,448.4109 863.5715,446.9269 873.2792,445.4371 883.0213,443.9373 892.8059,442.4232 902.6408,440.8908 912.5340,439.3359 922.4935,437.7543 932.5273,436.1418 942.6432,434.4943 952.5982,432.7420 961.7667,429.3292 970.4680,424.1040 978.4944,417.7100 985.6386,410.7909 991.6894,403.5122 995.9804,394.5672 998.5480,384.7473 999.6250,376.1187 1000.0000,367.1664 999.3370,356.7598 996.8793,346.1033 992.0776,336.4598 986.7328,327.6010 981.3906,318.8133 976.0502,310.0935 970.7107,301.4383 965.3711,292.8443 960.0306,284.3082 954.6883,275.8268 949.3433,267.3968 943.9946,259.0147 938.6413,250.6774 933.2826,242.3814 927.9176,234.1236 922.5452,225.9005 917.1647,217.7090 911.7751,209.5455 906.3755,201.4070 900.9651,193.2900 895.5428,185.1912 890.1078,177.1074 884.6592,169.0352 879.1961,160.9713 873.7176,152.9125 868.2228,144.8553 862.7107,136.7965 857.1805,128.7328 851.6313,120.6609 846.0621,112.5774 840.4720,104.4791 834.8602,96.3627 829.2258,88.2248 823.5677,80.0621 817.8852,71.8713 812.1773,63.6492 806.4432,55.3923 800.6818,47.0975 794.8923,38.7613 789.0739,30.3805 783.2255,21.9518 777.5145,13.8734 769.6191,7.7605 759.7694,3.3996 750.5415,2.0800 740.6468,1.4524 730.7245,0.9650 720.7810,0.6003 710.8229,0.3406 700.8568,0.1683 690.8890,0.0658 680.9263,0.0156 670.9750,0.0000 661.6420,0.0224 651.5244,0.2255 640.8896,0.8025 630.4824,1.9463 621.0478,3.8495 611.8756,6.8940 602.3382,10.3483 592.9588,13.9087 583.7150,17.5649 574.5841,21.3070 565.5436,25.1249 556.5708,29.0083 547.6432,32.9473 538.7382,36.9318 529.8331,40.9516 520.9053,44.9966 511.9324,49.0568 502.8916,53.1221 493.7604,57.1823 484.5162,61.2274 475.1364,65.2472 465.6542,69.2080 456.4199,72.9164 447.1317,76.5127 437.8110,80.0397 428.4786,83.5404 419.1556,87.0574 409.8631,90.6337 400.6222,94.3120 391.4539,98.1352 382.3792,102.1461 373.4228,106.3873 364.6921,111.0967 356.1362,116.2999 347.6767,121.7633 339.2352,127.2533 330.7334,132.5363 322.0929,137.3788 313.2352,141.5472 303.8886,144.9037 294.1131,147.6131 284.3481,149.7212 274.5869,151.3641 264.8231,152.6777 255.0500,153.7980 245.2611,154.8612 235.4499,156.0031 225.6098,157.3598 215.7342,159.0673 207.9754,162.6575 201.9709,170.9108 201.7206,181.3810 204.7865,190.8465 207.8127,200.5341 208.0740,209.8996 205.6935,219.8528 201.2100,229.4589 194.9791,236.6242 186.5978,242.7804 178.4108,248.3478 170.2520,253.4612 161.9557,258.2555 153.3561,262.8654 144.2871,267.4258 135.0049,271.7362 125.6928,275.2859 116.2318,278.3923 106.7285,281.3452 97.2895,284.4343 88.0214,287.9495 79.0394,292.1746 70.4302,297.1821 62.1639,302.8993 54.3442,309.2323 47.0750,316.0873 40.4603,323.3704 34.5220,331.0821 29.0769,339.4115 24.2932,348.2276 20.3381,357.4345 17.3788,366.9360 15.5823,376.6361 15.2403,386.0021 16.7096,395.8309 19.7098,405.8971 23.9248,415.3108 29.1122,423.2941 35.2687,431.2273 41.4851,439.0556 47.7572,446.7892 54.0808,454.4381 60.4518,462.0125 66.8661,469.5224 73.3195,476.9781 79.8078,484.3895 86.3270,491.7668 92.8730,499.1201 99.4415,506.4595 106.0284,513.7951 112.6296,521.1370 119.2410,528.4953 125.8584,535.8801 132.4777,543.3015 139.0947,550.7696 145.7053,558.2946 152.3054,565.8865 158.8909,573.5554 165.4575,581.3115 171.8756,589.0987 177.9015,597.4919 182.9871,606.4763 186.3505,615.6363 187.1969,624.6074 185.0461,633.7801 180.6934,643.0011 175.1503,651.8334 169.2841,660.0577 163.2825,668.2511 157.2570,676.3738 151.2094,684.4313 145.1417,692.4288 139.0558,700.3717 132.9535,708.2652 126.8369,716.1148 120.7078,723.9257 114.5682,731.7033 108.4199,739.4528 102.2650,747.1796 96.1053,754.8891 89.9427,762.5865 83.7791,770.2772 77.6166,777.9665 71.4569,785.6597 65.3020,793.3621 59.1539,801.0791 53.0145,808.8161 46.8856,816.5782 40.7692,824.3709 34.6672,832.1994 28.5816,840.0692 22.5142,847.9854 16.4670,855.9535 10.4419,863.9787 3.9279,873.3421 0.0000,883.3840 0.1213,892.3010 4.1056,899.7939 10.2445,903.2067 19.7416,905.1002 30.9809,906.2383 42.3463,907.3847 52.6682,909.2744 62.9460,911.4742 73.1093,913.6461 83.1657,915.7914 93.1228,917.9116 102.9885,920.0085 112.7702,922.0834 122.4758,924.1378 132.1128,926.1734 141.6889,928.1917 151.2118,930.1941 160.6891,932.1822 170.1285,934.1576 179.5377,936.1217 188.9244,938.0761 198.2961,940.0224 207.6607,941.9620 217.0256,943.8964 226.3986,945.8273 235.7874,947.7561 245.1996,949.6844 254.6429,951.6137 264.1250,953.5456 273.6534,955.4814 283.2360,957.4229 292.8803,959.3715 302.5940,961.3287 312.3847,963.2961 322.2602,965.2752 332.2281,967.2675 342.2961,969.2746 352.4718,971.2979 362.7628,973.3391 373.1770,975.3996"/>
</svg>
