<?xml version="1.0" encoding="utf-8"?>
<!-- Mappa registrata da LMU Telemetry Pro (coordinate vere di gioco) -->
<svg viewBox="-319.3272 -893.7904 867.3149 710.7268" version="1.1" xmlns="http://www.w3.org/2000/svg">
	<title>Silverstone National Circuit</title>
	<desc></desc>
	<polyline id="map" fill="none" stroke="black" stroke-width="10" points="1.3,-844.7 7.4,-844.2 9.4,-844.5 11.5,-844.8 13.5,-845.1 15.6,-845.5 17.7,-845.8 19.8,-846.1 22.5,-846.5 24.6,-846.9 26.7,-847.2 28.8,-847.5 30.9,-847.8 32.9,-848.2 35.0,-848.5 37.8,-848.9 39.9,-849.2 42.0,-849.5 44.1,-849.8 46.2,-850.1 48.4,-850.4 50.5,-850.7 53.3,-851.0 55.4,-851.3 65.4,-852.5 73.2,-853.5 75.3,-853.7 78.9,-854.2 94.0,-855.9 96.9,-856.3 99.1,-856.5 101.2,-856.8 103.4,-857.1 105.6,-857.3 107.7,-857.6 110.6,-857.9 112.1,-858.1 114.9,-858.4 117.1,-858.6 119.2,-858.9 121.3,-859.1 123.4,-859.3 125.6,-859.5 131.9,-860.1 135.4,-860.5 137.5,-860.7 148.5,-861.7 154.7,-862.3 156.7,-862.5 158.8,-862.7 160.8,-862.9 163.5,-863.1 165.6,-863.3 167.6,-863.5 169.6,-863.7 171.6,-863.9 173.6,-864.1 175.6,-864.3 177.6,-864.5 179.6,-864.7 182.3,-864.9 184.3,-865.1 186.2,-865.3 188.2,-865.5 190.1,-865.7 192.7,-865.9 200.4,-866.7 202.3,-866.8 204.2,-867.0 211.0,-867.7 220.1,-868.5 221.9,-868.7 223.7,-868.9 225.5,-869.0 227.2,-869.2 229.0,-869.4 230.8,-869.5 233.1,-869.8 234.8,-869.9 236.6,-870.1 238.3,-870.2 240.0,-870.4 241.7,-870.5 243.4,-870.7 245.7,-870.9 246.8,-871.0 249.0,-871.2 250.7,-871.3 252.4,-871.4 254.0,-871.6 255.6,-871.7 257.3,-871.8 258.9,-871.9 261.0,-872.1 262.6,-872.2 264.2,-872.3 265.8,-872.4 267.4,-872.5 269.0,-872.6 270.5,-872.7 272.1,-872.8 273.6,-872.9 275.7,-873.0 277.2,-873.1 278.7,-873.2 280.2,-873.2 281.7,-873.3 283.7,-873.4 285.2,-873.5 286.7,-873.5 288.1,-873.6 289.6,-873.6 291.0,-873.7 292.5,-873.7 293.9,-873.8 295.3,-873.8 297.2,-873.8 298.6,-873.8 300.0,-873.8 301.4,-873.8 302.8,-873.7 304.2,-873.7 305.6,-873.6 307.5,-873.5 308.8,-873.4 310.2,-873.3 311.6,-873.2 313.0,-873.1 314.4,-872.9 315.7,-872.8 317.6,-872.5 318.9,-872.4 320.3,-872.2 321.6,-872.0 323.0,-871.8 324.3,-871.6 325.7,-871.3 327.5,-871.0 328.4,-870.8 330.1,-870.5 330.1,-870.5 331.9,-870.1 332.8,-869.9 334.1,-869.6 335.4,-869.2 336.7,-868.9 338.0,-868.5 339.3,-868.1 340.6,-867.8 342.3,-867.2 343.6,-866.8 344.8,-866.4 346.1,-865.9 347.3,-865.5 347.3,-865.5 349.4,-864.7 350.6,-864.2 351.8,-863.7 353.1,-863.2 354.7,-862.5 355.5,-862.1 357.1,-861.4 358.3,-860.8 358.7,-860.6 360.6,-859.7 361.4,-859.3 363.0,-858.5 364.5,-857.7 365.7,-857.1 366.8,-856.4 367.9,-855.8 369.1,-855.2 370.2,-854.5 371.3,-853.9 372.4,-853.2 373.9,-852.4 375.0,-851.7 375.4,-851.5 377.2,-850.3 378.3,-849.6 379.4,-848.9 380.4,-848.2 381.8,-847.3 382.5,-846.8 383.2,-846.3 384.3,-845.5 389.0,-841.9 390.6,-840.5 392.3,-839.1 394.5,-837.1 397.7,-834.2 398.9,-833.0 399.8,-832.1 400.7,-831.1 401.9,-829.9 402.8,-828.9 403.7,-827.9 404.6,-827.0 405.5,-826.0 405.5,-826.0 406.9,-824.3 407.8,-823.3 408.6,-822.2 409.5,-821.2 410.6,-819.8 411.2,-819.1 412.3,-817.6 413.1,-816.6 413.9,-815.4 414.7,-814.3 415.5,-813.2 416.3,-812.1 417.1,-810.9 418.2,-809.4 418.7,-808.6 419.7,-807.1 420.5,-805.9 421.2,-804.7 422.0,-803.5 422.7,-802.3 423.7,-800.6 424.2,-799.8 425.2,-798.1 425.9,-796.9 426.6,-795.6 427.3,-794.3 428.0,-793.0 428.7,-791.7 429.4,-790.4 430.2,-788.7 430.7,-787.8 431.6,-786.0 432.2,-784.7 432.8,-783.3 433.5,-781.9 434.1,-780.6 434.7,-779.2 435.3,-777.8 436.1,-775.9 436.6,-774.5 437.2,-773.1 437.8,-771.6 438.3,-770.2 438.9,-768.7 439.0,-768.3 439.7,-766.3 440.3,-764.8 440.8,-763.4 441.3,-761.9 441.8,-760.4 442.4,-758.4 442.9,-756.9 443.3,-755.3 443.8,-753.8 444.1,-752.8 444.7,-750.7 445.1,-749.2 445.7,-747.1 446.1,-745.6 446.5,-744.0 446.9,-742.4 447.3,-740.8 447.7,-739.3 448.1,-737.7 448.5,-736.1 448.8,-734.5 449.3,-732.3 449.6,-731.2 450.1,-729.1 450.4,-727.4 450.8,-725.8 451.1,-724.2 451.4,-722.5 451.8,-720.9 452.1,-719.2 452.6,-716.4 453.8,-710.3 454.1,-708.6 455.2,-702.4 455.8,-698.9 456.6,-694.4 456.9,-692.6 457.2,-690.9 457.5,-688.6 457.8,-686.8 458.1,-685.1 458.4,-683.3 458.7,-681.6 459.0,-679.8 459.2,-678.1 459.5,-676.3 459.8,-674.6 460.1,-672.3 460.4,-670.5 460.7,-668.8 460.9,-667.1 461.2,-665.3 461.5,-663.6 461.7,-661.9 462.2,-659.0 462.9,-653.8 463.2,-651.5 463.6,-649.2 465.1,-637.8 465.4,-635.6 465.6,-633.9 465.8,-632.2 466.0,-630.5 466.2,-628.8 466.4,-627.1 466.6,-625.4 466.7,-623.6 466.9,-621.9 467.2,-619.6 467.3,-618.5 467.5,-616.2 467.7,-614.5 467.8,-612.8 468.0,-611.0 468.1,-609.3 468.3,-607.1 468.4,-605.3 468.6,-603.6 468.7,-601.9 468.8,-600.2 468.9,-598.5 469.0,-596.8 469.1,-595.1 469.2,-593.4 469.4,-591.2 469.5,-589.5 469.6,-587.8 469.7,-586.1 469.8,-584.4 469.9,-582.7 469.9,-581.0 470.0,-579.4 470.1,-577.7 470.2,-575.4 470.3,-573.8 470.4,-572.1 470.5,-570.4 470.6,-568.8 470.7,-567.1 470.8,-565.4 470.9,-563.8 471.0,-562.1 471.1,-560.5 471.1,-558.8 471.3,-556.6 471.3,-554.9 471.4,-553.3 471.5,-551.6 471.6,-550.0 471.7,-547.8 471.8,-546.1 471.9,-544.5 472.0,-542.8 472.1,-541.1 472.2,-539.5 472.3,-537.8 472.4,-535.5 472.5,-534.4 472.6,-532.2 472.7,-530.5 472.8,-528.8 472.9,-527.1 472.9,-525.4 473.0,-523.7 473.1,-522.0 473.3,-519.8 473.3,-518.6 473.4,-516.4 473.5,-514.7 473.6,-512.9 473.7,-511.2 473.8,-509.5 473.9,-507.8 474.0,-506.1 474.1,-503.8 474.2,-502.1 474.3,-500.3 474.4,-498.6 474.5,-496.9 474.6,-495.1 474.7,-493.4 474.9,-491.1 475.0,-489.3 475.1,-487.6 475.2,-485.8 475.3,-484.1 475.4,-482.3 475.5,-480.6 475.6,-478.2 475.7,-476.5 475.8,-474.7 475.9,-472.9 476.0,-471.2 476.1,-469.4 476.2,-467.7 476.3,-465.9 476.4,-464.2 476.6,-461.8 476.7,-460.1 476.8,-458.3 476.9,-456.6 477.0,-454.8 477.1,-453.1 477.3,-451.4 477.4,-449.0 477.6,-447.3 477.7,-445.6 477.8,-443.8 478.0,-442.1 478.1,-440.4 478.3,-438.7 478.5,-436.4 478.6,-434.7 478.8,-433.0 479.6,-426.1 479.9,-423.9 480.2,-421.6 481.9,-410.5 482.3,-408.2 482.7,-406.6 483.0,-404.9 483.3,-403.3 483.7,-401.6 484.1,-399.5 484.4,-398.4 484.9,-396.2 485.3,-394.6 485.7,-393.0 486.1,-391.3 486.5,-389.7 486.9,-388.1 487.5,-386.0 487.9,-384.4 488.3,-382.8 488.8,-381.2 489.4,-379.1 489.9,-377.5 490.4,-375.9 490.9,-374.4 491.3,-372.8 491.8,-371.2 492.3,-369.7 493.0,-367.6 493.5,-366.0 494.1,-364.5 494.6,-362.9 495.1,-361.4 495.6,-359.9 496.2,-358.3 496.7,-356.8 497.2,-355.3 497.8,-353.7 498.3,-352.2 499.1,-350.2 499.6,-348.7 500.2,-347.2 500.8,-345.7 501.3,-344.2 501.9,-342.7 502.5,-341.2 503.0,-339.8 503.6,-338.3 504.4,-336.4 504.9,-335.0 505.5,-333.5 506.1,-332.1 506.6,-330.7 507.2,-329.3 507.8,-328.0 508.1,-327.1 508.7,-325.7 508.7,-325.7 509.6,-323.5 510.1,-322.1 510.1,-322.1 510.8,-320.4 511.3,-319.1 512.0,-317.4 512.5,-316.2 513.0,-314.9 513.5,-313.7 513.8,-312.9 514.5,-311.3 514.9,-310.2 515.6,-308.6 515.9,-307.9 516.5,-306.4 516.9,-305.3 517.3,-304.2 517.8,-303.1 518.2,-302.1 518.6,-301.0 519.0,-300.0 519.6,-298.7 520.0,-297.6 520.3,-296.7 520.7,-295.7 521.1,-294.7 521.5,-293.7 521.8,-292.8 522.3,-291.5 522.6,-290.8 523.4,-288.6 524.5,-285.2 524.5,-285.2 524.8,-284.0 525.8,-280.7 526.7,-276.5 526.9,-275.6 527.1,-274.4 527.2,-273.5 527.3,-272.5 527.5,-271.6 527.6,-270.7 527.7,-269.8 527.7,-268.9 527.8,-268.0 527.9,-267.1 527.9,-266.0 528.0,-265.1 528.0,-264.2 528.0,-263.3 528.0,-262.4 528.0,-261.5 527.9,-260.3 527.9,-259.1 527.7,-256.5 527.5,-255.3 527.4,-254.1 526.5,-248.4 526.3,-247.2 526.1,-246.4 525.9,-245.5 525.7,-244.7 525.5,-243.8 525.3,-243.0 525.1,-242.2 524.8,-241.3 524.6,-240.5 524.2,-239.4 524.0,-238.6 523.7,-237.8 523.4,-237.0 523.1,-236.2 522.8,-235.4 522.5,-234.6 522.0,-233.6 521.8,-233.1 521.3,-232.1 520.9,-231.3 520.5,-230.6 520.1,-229.9 519.7,-229.2 519.3,-228.4 518.8,-227.7 518.2,-226.8 517.8,-226.1 517.3,-225.5 516.8,-224.8 516.4,-224.1 515.9,-223.5 515.4,-222.8 514.8,-222.2 514.3,-221.6 513.6,-220.8 513.0,-220.2 512.5,-219.6 511.9,-219.1 511.3,-218.5 510.7,-218.0 510.1,-217.4 509.3,-216.7 508.7,-216.2 508.1,-215.7 507.5,-215.2 506.8,-214.8 506.2,-214.3 505.5,-213.8 504.8,-213.4 504.1,-213.0 503.2,-212.4 502.5,-212.0 501.8,-211.6 501.1,-211.2 500.4,-210.8 499.6,-210.5 498.9,-210.1 497.9,-209.7 497.2,-209.3 496.4,-209.0 495.6,-208.7 494.8,-208.4 494.0,-208.1 493.3,-207.8 492.2,-207.4 491.4,-207.2 490.6,-206.9 489.7,-206.6 488.9,-206.4 488.1,-206.1 487.2,-205.9 486.3,-205.7 485.5,-205.4 484.3,-205.2 483.4,-204.9 482.5,-204.7 481.6,-204.6 480.7,-204.4 479.8,-204.2 478.9,-204.0 478.0,-203.9 477.0,-203.8 475.8,-203.6 475.1,-203.5 473.9,-203.4 472.9,-203.3 472.0,-203.2 471.0,-203.2 470.0,-203.1 469.0,-203.1 468.0,-203.1 466.7,-203.1 466.1,-203.1 464.7,-203.1 463.7,-203.1 462.7,-203.2 461.7,-203.2 460.7,-203.3 459.3,-203.4 458.3,-203.5 457.2,-203.6 456.2,-203.7 455.1,-203.9 454.1,-204.0 453.0,-204.2 451.6,-204.4 450.9,-204.5 449.5,-204.8 448.4,-205.0 447.4,-205.2 446.3,-205.5 445.2,-205.7 444.1,-206.0 443.1,-206.3 441.6,-206.7 438.0,-207.8 436.5,-208.3 435.4,-208.6 430.3,-210.5 425.5,-212.5 424.3,-213.0 423.2,-213.5 422.1,-214.0 421.0,-214.6 419.5,-215.3 418.7,-215.7 417.3,-216.4 416.1,-217.0 415.0,-217.6 413.9,-218.2 412.8,-218.8 411.6,-219.4 410.5,-220.0 409.0,-220.9 407.9,-221.6 406.8,-222.2 405.6,-222.9 404.5,-223.6 403.4,-224.3 402.2,-225.0 400.7,-225.9 399.6,-226.7 398.5,-227.4 397.3,-228.2 396.2,-228.9 394.7,-229.9 393.5,-230.7 392.4,-231.5 391.3,-232.3 390.1,-233.1 388.6,-234.2 387.9,-234.8 386.3,-235.9 385.2,-236.7 384.0,-237.6 382.9,-238.4 381.8,-239.3 380.6,-240.2 379.4,-241.1 378.3,-242.0 377.1,-242.8 375.6,-244.0 374.4,-244.9 373.3,-245.9 372.1,-246.8 370.9,-247.7 369.8,-248.6 368.6,-249.6 367.4,-250.5 366.2,-251.4 364.7,-252.7 363.5,-253.7 362.3,-254.6 361.2,-255.6 360.0,-256.6 358.8,-257.5 357.6,-258.5 356.0,-259.9 354.8,-260.9 353.7,-261.9 352.5,-262.9 351.3,-263.9 350.1,-264.9 348.9,-265.9 347.7,-267.0 346.5,-268.0 344.9,-269.4 343.7,-270.4 342.5,-271.5 341.3,-272.6 340.1,-273.6 338.9,-274.7 337.7,-275.8 336.1,-277.2 334.9,-278.3 333.7,-279.4 332.4,-280.5 331.2,-281.6 330.0,-282.7 328.7,-283.8 327.1,-285.2 325.4,-286.7 320.9,-290.8 318.8,-292.7 317.5,-293.8 315.4,-295.7 307.7,-302.5 305.6,-304.4 304.3,-305.5 303.0,-306.7 301.7,-307.9 300.4,-309.0 298.6,-310.6 297.3,-311.7 296.0,-312.9 294.7,-314.1 293.3,-315.2 292.0,-316.4 290.7,-317.6 289.4,-318.8 287.6,-320.3 286.3,-321.5 284.9,-322.7 283.6,-323.9 278.2,-328.7 276.8,-329.9 275.0,-331.5 265.0,-340.3 263.2,-342.0 261.8,-343.2 260.4,-344.4 258.5,-346.0 258.1,-346.5 255.7,-348.5 254.3,-349.7 253.4,-350.6 252.0,-351.8 250.6,-353.0 249.2,-354.3 247.8,-355.5 246.4,-356.8 246.4,-356.8 244.0,-358.9 242.6,-360.1 241.2,-361.4 239.7,-362.6 238.3,-363.9 236.9,-365.1 235.4,-366.4 234.0,-367.7 232.1,-369.3 230.6,-370.6 229.2,-371.9 227.7,-373.1 226.3,-374.4 224.8,-375.7 223.4,-377.0 221.4,-378.7 220.4,-379.5 218.5,-381.2 217.0,-382.5 215.5,-383.8 214.1,-385.1 212.6,-386.4 211.1,-387.7 209.6,-389.0 207.7,-390.7 206.7,-391.6 204.7,-393.3 203.2,-394.6 201.7,-395.9 200.2,-397.2 198.7,-398.5 196.7,-400.3 196.7,-400.3 194.7,-402.0 193.2,-403.3 191.7,-404.7 189.7,-406.4 188.1,-407.7 186.6,-409.1 185.1,-410.4 183.6,-411.7 182.1,-413.0 180.5,-414.4 178.5,-416.1 177.0,-417.5 175.4,-418.8 173.9,-420.2 172.4,-421.5 170.8,-422.8 169.3,-424.2 167.2,-426.0 166.7,-426.4 164.2,-428.7 162.6,-430.0 161.1,-431.4 159.5,-432.7 159.5,-432.7 156.9,-435.0 155.4,-436.3 153.8,-437.7 152.3,-439.1 150.7,-440.4 149.2,-441.8 147.6,-443.2 145.5,-445.0 144.0,-446.4 142.4,-447.7 140.8,-449.1 139.3,-450.5 137.7,-451.9 136.1,-453.3 134.0,-455.1 132.5,-456.5 130.9,-457.9 129.3,-459.3 127.7,-460.7 126.1,-462.1 124.6,-463.5 123.0,-464.9 121.4,-466.3 119.3,-468.2 117.7,-469.6 116.1,-471.0 114.5,-472.4 112.9,-473.8 110.8,-475.7 109.2,-477.1 107.6,-478.5 106.0,-480.0 104.4,-481.4 102.8,-482.8 101.2,-484.2 99.6,-485.7 98.0,-487.1 95.9,-489.0 94.8,-490.0 92.7,-491.9 91.0,-493.3 89.4,-494.8 88.9,-495.3 86.2,-497.7 84.6,-499.1 83.0,-500.6 78.7,-504.4 76.5,-506.4 74.3,-508.3 71.6,-510.7 66.8,-515.1 60.4,-520.8 58.8,-522.3 57.2,-523.7 55.0,-525.6 53.4,-527.0 51.8,-528.4 50.3,-529.9 48.7,-531.3 47.1,-532.7 45.5,-534.1 43.9,-535.5 42.3,-536.9 40.2,-538.8 38.7,-540.2 37.1,-541.7 35.5,-543.1 34.0,-544.5 32.4,-545.9 30.8,-547.3 28.8,-549.2 27.8,-550.1 25.7,-552.0 24.2,-553.4 22.7,-554.8 21.1,-556.2 19.6,-557.6 17.6,-559.5 16.2,-560.9 14.7,-562.3 13.2,-563.6 12.3,-564.5 10.3,-566.4 8.9,-567.7 7.5,-569.1 6.1,-570.4 4.3,-572.2 2.9,-573.5 1.6,-574.8 0.2,-576.1 -1.1,-577.4 -2.4,-578.7 -3.7,-580.0 -5.4,-581.7 -6.7,-582.9 -7.9,-584.2 -9.1,-585.4 -10.4,-586.6 -11.6,-587.8 -12.8,-589.0 -14.0,-590.2 -15.2,-591.4 -16.7,-593.0 -17.9,-594.1 -19.0,-595.2 -20.2,-596.4 -21.3,-597.5 -22.4,-598.6 -23.5,-599.7 -25.0,-601.1 -26.1,-602.2 -27.1,-603.3 -28.2,-604.3 -28.9,-605.0 -30.3,-606.4 -31.3,-607.4 -32.7,-608.8 -33.7,-609.8 -34.7,-610.7 -35.7,-611.7 -36.7,-612.7 -38.0,-614.0 -38.9,-614.9 -39.9,-615.8 -40.8,-616.8 -41.8,-617.7 -42.8,-618.6 -43.7,-619.6 -44.6,-620.5 -45.6,-621.4 -46.8,-622.6 -47.8,-623.5 -48.7,-624.4 -49.6,-625.3 -53.0,-628.5 -54.2,-629.6 -54.8,-630.2 -58.5,-633.5 -62.7,-637.1 -63.3,-637.6 -64.5,-638.5 -65.7,-639.5 -66.6,-640.2 -67.5,-640.9 -68.4,-641.6 -69.3,-642.2 -70.2,-642.9 -71.2,-643.6 -72.4,-644.5 -73.3,-645.1 -74.2,-645.8 -75.1,-646.4 -76.0,-647.0 -76.7,-647.4 -77.6,-648.0 -78.5,-648.6 -79.4,-649.2 -80.3,-649.8 -83.7,-651.7 -84.6,-652.2 -85.8,-652.8 -87.0,-653.4 -93.5,-656.3 -94.7,-656.7 -95.7,-657.0 -96.6,-657.4 -97.5,-657.7 -98.8,-658.1 -99.4,-658.2 -100.7,-658.6 -101.3,-658.8 -102.6,-659.1 -103.5,-659.3 -104.5,-659.6 -105.4,-659.8 -106.4,-660.0 -107.4,-660.2 -108.3,-660.3 -109.6,-660.5 -110.5,-660.7 -111.5,-660.8 -112.5,-661.0 -113.4,-661.1 -114.4,-661.2 -115.3,-661.3 -116.3,-661.4 -117.3,-661.5 -118.5,-661.5 -119.5,-661.6 -120.5,-661.7 -121.4,-661.7 -122.4,-661.8 -123.3,-661.8 -124.3,-661.9 -125.6,-661.9 -126.2,-661.9 -127.5,-661.9 -128.5,-661.9 -129.4,-661.9 -130.4,-661.8 -131.4,-661.8 -132.3,-661.8 -133.3,-661.7 -134.2,-661.6 -135.2,-661.5 -136.5,-661.4 -137.4,-661.3 -138.4,-661.1 -139.3,-661.0 -140.3,-660.8 -141.2,-660.7 -142.1,-660.5 -143.4,-660.3 -144.3,-660.1 -145.3,-659.8 -146.2,-659.6 -147.1,-659.4 -148.1,-659.2 -149.0,-658.9 -150.2,-658.6 -151.1,-658.3 -152.0,-658.0 -153.0,-657.7 -153.9,-657.4 -154.8,-657.1 -155.7,-656.8 -156.9,-656.4 -157.5,-656.2 -158.7,-655.7 -159.6,-655.3 -160.4,-655.0 -161.3,-654.6 -162.2,-654.2 -163.1,-653.8 -163.9,-653.4 -165.0,-652.8 -165.9,-652.4 -166.7,-651.9 -167.5,-651.4 -168.3,-651.0 -169.1,-650.5 -169.9,-650.0 -171.0,-649.3 -171.7,-648.8 -172.5,-648.3 -173.3,-647.8 -174.0,-647.3 -174.8,-646.7 -175.5,-646.2 -176.4,-645.4 -177.1,-644.8 -177.8,-644.2 -178.5,-643.6 -179.1,-643.0 -179.8,-642.4 -180.4,-641.8 -181.3,-640.9 -181.7,-640.5 -182.5,-639.6 -183.1,-639.0 -183.7,-638.3 -184.2,-637.6 -184.8,-636.9 -185.4,-636.2 -185.9,-635.5 -186.6,-634.5 -187.1,-633.8 -187.6,-633.1 -188.0,-632.3 -188.5,-631.6 -188.9,-630.8 -189.4,-630.1 -189.8,-629.3 -190.2,-628.5 -190.7,-627.5 -191.1,-626.7 -191.4,-625.9 -192.6,-622.9 -192.9,-622.0 -193.2,-621.2 -193.7,-619.8 -195.2,-613.6 -195.5,-612.4 -195.6,-611.5 -195.8,-610.6 -196.0,-609.7 -196.2,-608.4 -196.4,-607.4 -196.5,-606.5 -196.7,-605.5 -196.9,-604.5 -197.0,-603.6 -197.2,-602.6 -197.4,-601.2 -197.6,-600.2 -197.8,-599.2 -198.0,-598.2 -198.2,-597.1 -198.3,-596.1 -198.5,-595.1 -198.8,-593.6 -198.9,-592.6 -199.1,-591.5 -199.3,-590.4 -199.5,-589.3 -199.6,-588.2 -199.8,-587.1 -200.0,-586.0 -200.1,-584.9 -200.3,-583.4 -200.5,-582.2 -200.7,-581.1 -200.8,-580.0 -201.0,-578.9 -201.2,-577.8 -201.3,-576.7 -201.5,-575.3 -201.7,-574.3 -201.8,-573.3 -202.0,-572.2 -202.1,-571.2 -202.3,-570.2 -202.4,-569.3 -202.5,-568.6 -202.7,-567.7 -202.9,-566.1 -203.0,-565.2 -203.2,-564.3 -203.3,-563.4 -203.5,-562.5 -203.6,-561.6 -203.8,-560.7 -204.0,-559.6 -204.0,-559.3 -204.4,-557.9 -204.6,-557.0 -204.8,-556.2 -205.0,-555.4 -205.2,-554.5 -205.5,-553.7 -205.7,-552.9 -206.1,-551.8 -206.3,-551.3 -206.7,-550.2 -207.0,-549.4 -207.4,-548.6 -207.7,-547.9 -208.1,-547.1 -208.5,-546.3 -208.8,-545.6 -209.4,-544.6 -209.8,-543.8 -210.2,-543.1 -210.6,-542.4 -211.1,-541.7 -211.5,-541.0 -212.0,-540.2 -212.5,-539.5 -212.9,-538.9 -213.6,-537.9 -214.1,-537.3 -214.6,-536.6 -215.2,-536.0 -215.7,-535.3 -217.8,-533.1 -218.4,-532.5 -219.2,-531.8 -221.9,-529.4 -224.3,-527.6 -224.8,-527.3 -225.5,-526.8 -225.5,-526.8 -226.6,-526.0 -227.3,-525.6 -228.1,-525.2 -228.8,-524.7 -229.5,-524.3 -230.2,-523.9 -231.0,-523.6 -232.0,-523.1 -232.5,-522.8 -233.5,-522.4 -234.3,-522.0 -235.1,-521.7 -235.8,-521.4 -236.6,-521.2 -237.4,-520.9 -238.2,-520.6 -239.6,-520.2 -242.0,-519.6 -243.1,-519.4 -244.2,-519.2 -249.8,-518.6 -250.9,-518.5 -251.7,-518.5 -252.6,-518.5 -253.4,-518.5 -254.3,-518.6 -255.1,-518.6 -255.9,-518.7 -257.1,-518.8 -257.9,-518.9 -258.7,-519.0 -259.5,-519.1 -260.4,-519.2 -261.2,-519.4 -262.0,-519.6 -262.8,-519.8 -263.6,-520.0 -264.7,-520.3 -265.5,-520.5 -266.3,-520.7 -267.1,-521.0 -267.8,-521.3 -268.6,-521.6 -269.4,-521.9 -270.4,-522.3 -271.1,-522.7 -271.8,-523.0 -272.6,-523.4 -273.3,-523.8 -274.0,-524.2 -274.7,-524.6 -275.4,-525.0 -276.1,-525.5 -277.0,-526.1 -277.7,-526.5 -278.4,-527.0 -279.0,-527.5 -279.7,-528.0 -280.3,-528.6 -281.0,-529.1 -281.6,-529.6 -282.2,-530.2 -283.0,-530.9 -283.6,-531.5 -284.2,-532.1 -284.8,-532.7 -285.4,-533.4 -285.9,-534.0 -286.5,-534.6 -287.0,-535.3 -287.5,-535.9 -288.2,-536.8 -288.6,-537.3 -289.2,-538.2 -289.7,-538.9 -290.2,-539.7 -290.7,-540.4 -291.1,-541.1 -291.7,-542.1 -292.0,-542.7 -292.5,-543.7 -292.9,-544.5 -293.3,-545.3 -293.7,-546.1 -294.1,-546.9 -294.4,-547.7 -294.8,-548.5 -295.2,-549.7 -295.5,-550.5 -295.8,-551.4 -296.1,-552.2 -296.4,-553.1 -296.7,-554.0 -296.9,-554.9 -297.2,-555.8 -297.4,-556.7 -297.7,-557.9 -297.9,-558.8 -298.0,-559.7 -298.2,-560.7 -298.4,-561.6 -298.5,-562.5 -298.7,-563.5 -298.8,-564.5 -298.9,-565.4 -299.0,-566.7 -299.1,-567.7 -299.2,-568.7 -299.2,-569.7 -299.3,-570.7 -299.3,-571.7 -299.3,-572.7 -299.3,-574.1 -299.3,-575.1 -299.3,-576.1 -299.2,-577.1 -299.2,-578.2 -299.1,-579.2 -299.0,-580.2 -298.9,-581.6 -298.8,-582.3 -298.6,-583.7 -298.5,-584.5 -298.3,-585.9 -298.2,-586.9 -298.0,-588.0 -297.8,-589.1 -297.6,-590.1 -297.3,-591.2 -297.1,-592.3 -296.8,-593.8 -296.5,-594.9 -296.3,-596.0 -296.0,-597.1 -295.7,-598.2 -295.4,-599.3 -294.9,-601.2 -294.0,-604.2 -293.5,-605.7 -293.0,-607.2 -291.7,-611.1 -289.7,-616.5 -289.1,-618.1 -288.8,-618.9 -288.2,-620.5 -287.7,-621.6 -287.2,-622.8 -286.8,-624.1 -286.3,-625.3 -285.8,-626.5 -285.4,-627.7 -284.7,-629.3 -284.2,-630.6 -283.7,-631.8 -283.2,-633.0 -283.0,-633.4 -282.2,-635.5 -282.0,-635.9 -281.1,-638.0 -280.6,-639.3 -280.1,-640.6 -279.5,-641.8 -278.8,-643.5 -278.2,-644.8 -277.6,-646.1 -277.1,-647.3 -276.5,-648.6 -275.9,-649.9 -275.3,-651.2 -274.6,-652.5 -274.0,-653.8 -273.2,-655.5 -272.5,-656.8 -271.9,-658.1 -271.2,-659.4 -270.5,-660.6 -269.8,-661.9 -269.6,-662.4 -268.7,-664.1 -268.0,-665.4 -267.3,-666.7 -266.3,-668.5 -265.8,-669.3 -264.8,-671.1 -264.0,-672.4 -263.3,-673.7 -262.5,-675.0 -261.8,-676.3 -261.0,-677.6 -260.2,-678.9 -259.2,-680.7 -258.4,-682.0 -257.6,-683.3 -256.8,-684.6 -256.0,-686.0 -255.2,-687.3 -254.4,-688.6 -253.3,-690.4 -252.4,-691.8 -252.2,-692.2 -250.8,-694.5 -250.0,-695.8 -249.1,-697.2 -248.3,-698.5 -247.4,-699.9 -246.5,-701.2 -245.4,-703.0 -244.5,-704.4 -243.6,-705.7 -242.7,-707.1 -241.8,-708.5 -240.9,-709.8 -240.0,-711.2 -238.8,-713.0 -237.8,-714.4 -236.9,-715.7 -235.9,-717.1 -235.0,-718.4 -234.4,-719.3 -233.1,-721.1 -232.1,-722.5 -231.1,-723.8 -229.8,-725.6 -228.9,-726.9 -227.6,-728.6 -223.3,-734.2 -222.3,-735.5 -218.3,-740.6 -214.7,-745.3 -213.4,-747.0 -212.4,-748.3 -211.4,-749.5 -210.4,-750.8 -209.4,-752.0 -208.4,-753.3 -207.4,-754.5 -206.0,-756.2 -205.0,-757.4 -204.0,-758.6 -203.0,-759.8 -201.9,-761.0 -200.9,-762.2 -199.8,-763.4 -198.3,-764.9 -197.3,-766.1 -196.1,-767.3 -195.0,-768.5 -193.9,-769.6 -189.3,-774.2 -187.3,-776.1 -186.1,-777.2 -184.5,-778.7 -182.8,-780.2 -172.0,-789.1 -170.7,-790.1 -169.3,-791.1 -167.9,-792.1 -166.1,-793.4 -164.7,-794.4 -163.2,-795.4 -161.8,-796.3 -160.4,-797.3 -158.9,-798.2 -158.9,-798.2 -156.5,-799.8 -155.0,-800.7 -153.5,-801.6 -152.0,-802.4 -150.5,-803.3 -148.5,-804.5 -147.4,-805.0 -145.4,-806.1 -144.9,-806.4 -142.2,-807.8 -140.7,-808.5 -139.1,-809.3 -137.5,-810.1 -135.9,-810.9 -133.7,-811.8 -132.1,-812.6 -130.5,-813.3 -128.8,-814.0 -127.2,-814.7 -125.5,-815.4 -123.8,-816.1 -122.2,-816.8 -120.5,-817.4 -118.8,-818.1 -117.1,-818.7 -114.8,-819.6 -113.1,-820.2 -111.4,-820.8 -109.7,-821.4 -108.0,-822.0 -106.2,-822.6 -104.5,-823.2 -102.1,-824.0 -100.4,-824.6 -98.6,-825.1 -96.9,-825.7 -95.1,-826.2 -93.3,-826.8 -91.5,-827.3 -89.1,-828.0 -87.9,-828.4 -85.5,-829.0 -83.7,-829.5 -81.9,-830.0 -80.1,-830.5 -78.2,-831.0 -76.4,-831.4 -74.6,-831.9 -72.1,-832.5 -70.9,-832.8 -68.4,-833.4 -66.5,-833.8 -64.7,-834.2 -62.8,-834.6 -60.9,-835.0 -59.7,-835.2 -57.8,-835.6 -57.8,-835.6 -54.6,-836.2 -52.7,-836.6 -50.8,-836.9 -48.9,-837.3 -47.0,-837.6 -44.5,-838.0 -42.5,-838.4 -40.6,-838.7 -40.0,-838.8 -36.7,-839.3 -34.8,-839.6 -32.9,-839.9 -30.9,-840.2 -29.0,-840.5 -26.4,-840.9 -24.4,-841.2 -22.5,-841.4 -20.5,-841.7 -18.5,-842.0 -16.6,-842.3 -14.6,-842.6 -12.0,-842.9 -10.6,-843.1 -8.0,-843.5 -6.0,-843.7 -4.0,-844.0 -2.0,-844.2 -0.0,-844.5"/>
</svg>
