<?xml version="1.0" encoding="UTF-8"?>
<svg version="1.1" xmlns="http://www.w3.org/2000/svg" width="500" height="500">
<path d="M0 0 C1.20264842 -0.00155999 2.40529684 -0.00311998 3.64438915 -0.00472724 C6.93780522 -0.00799397 10.23118356 -0.00686154 13.5245986 -0.00374103 C17.0938444 -0.00145868 20.66308549 -0.00498052 24.23233032 -0.00772095 C31.20683421 -0.01214752 38.18132728 -0.01121608 45.15583158 -0.00830831 C50.82852851 -0.006042 56.50122242 -0.00574706 62.17391968 -0.00683212 C63.38894552 -0.00706197 63.38894552 -0.00706197 64.62851733 -0.00729647 C66.27449362 -0.00761622 67.9204699 -0.00794043 69.56644619 -0.00826906 C84.96962481 -0.01111473 100.37279746 -0.00785116 115.77597511 -0.00246869 C128.96792194 0.00199852 142.15985997 0.00122233 155.35180664 -0.00338745 C170.70311407 -0.00874935 186.05441629 -0.01084012 201.40572453 -0.00777519 C203.04535484 -0.00745667 204.68498516 -0.0071423 206.32461548 -0.00683212 C207.53443841 -0.00660071 207.53443841 -0.00660071 208.76870221 -0.00636462 C214.42892247 -0.00550431 220.08913939 -0.00695185 225.74935913 -0.00931168 C232.65536086 -0.01212784 239.56135123 -0.01133328 246.46735168 -0.00603093 C249.98505258 -0.00341833 253.50273461 -0.00234706 257.02043533 -0.00568008 C260.84648716 -0.00843076 264.67248662 -0.00496288 268.49853516 0 C269.5921445 -0.00223072 270.68575384 -0.00446144 271.81250286 -0.00675976 C279.65845907 0.01285023 287.43058178 0.48609455 295.24926758 1.12698364 C295.24926758 1.78698364 295.24926758 2.44698364 295.24926758 3.12698364 C296.08458008 3.1095813 296.08458008 3.1095813 296.93676758 3.09182739 C302.147051 3.03021931 307.09306267 3.3769902 312.24926758 4.12698364 C312.24926758 4.78698364 312.24926758 5.44698364 312.24926758 6.12698364 C315.21926758 6.45698364 318.18926758 6.78698364 321.24926758 7.12698364 C321.24926758 7.78698364 321.24926758 8.44698364 321.24926758 9.12698364 C323.55926758 9.45698364 325.86926758 9.78698364 328.24926758 10.12698364 C328.24926758 10.78698364 328.24926758 11.44698364 328.24926758 12.12698364 C329.89926758 12.45698364 331.54926758 12.78698364 333.24926758 13.12698364 C333.24926758 13.78698364 333.24926758 14.44698364 333.24926758 15.12698364 C335.22926758 15.62198364 335.22926758 15.62198364 337.24926758 16.12698364 C337.24926758 16.78698364 337.24926758 17.44698364 337.24926758 18.12698364 C338.11551758 18.21979614 338.11551758 18.21979614 338.99926758 18.31448364 C342.13184329 19.44569154 343.28387608 21.50646165 345.24926758 24.12698364 C345.90926758 24.45698364 346.56926758 24.78698364 347.24926758 25.12698364 C347.87426758 27.68948364 347.87426758 27.68948364 348.24926758 30.12698364 C348.90926758 30.12698364 349.56926758 30.12698364 350.24926758 30.12698364 C351.16054512 32.86081628 351.37448316 34.44131602 351.37510872 37.25153351 C351.37902034 38.51696558 351.37902034 38.51696558 351.38301098 39.80796194 C351.3796649 41.19836242 351.3796649 41.19836242 351.37625122 42.61685181 C351.37781121 43.6014345 351.3793712 44.5860172 351.38097847 45.60043573 C351.38498161 48.9146386 351.38180144 52.22879602 351.37866211 55.54299927 C351.38001645 57.91292854 351.38179657 60.2828576 351.38397217 62.65278625 C351.38806743 68.43062406 351.38745588 74.20844731 351.38455953 79.98628557 C351.3823033 84.68107928 351.38199393 89.37586935 351.38308334 94.07066345 C351.38323658 94.73825287 351.38338981 95.40584229 351.38354769 96.0936617 C351.3838674 97.4497569 351.38419162 98.80585211 351.38452028 100.16194731 C351.38737343 112.88508271 351.38409063 125.60821092 351.37871991 138.33134514 C351.37425202 149.2539509 351.375028 160.17654604 351.37963867 171.09915161 C351.38498734 183.77603184 351.38709875 196.45290576 351.38402641 209.12978697 C351.38370785 210.48095926 351.38339348 211.83213154 351.38308334 213.18330383 C351.38292907 213.84814731 351.38277479 214.51299078 351.38261584 215.19798103 C351.38175157 219.88841284 351.38321165 224.57884066 351.3855629 229.26927185 C351.38844404 235.57945296 351.38646139 241.88961393 351.38066864 248.19979286 C351.37934236 250.52061746 351.37973294 252.84144375 351.3819313 255.16226768 C351.38464794 258.32057344 351.38125529 261.47881392 351.37625122 264.63711548 C351.37848194 265.56404913 351.38071266 266.49098279 351.38301098 267.44600534 C351.38040324 268.28962673 351.37779549 269.13324811 351.37510872 270.00243378 C351.37494637 270.73176919 351.37478401 271.46110461 351.37461674 272.2125411 C351.24926758 274.12698364 351.24926758 274.12698364 350.24926758 277.12698364 C349.58926758 277.12698364 348.92926758 277.12698364 348.24926758 277.12698364 C347.91926758 278.77698364 347.58926758 280.42698364 347.24926758 282.12698364 C346.58926758 282.12698364 345.92926758 282.12698364 345.24926758 282.12698364 C345.18739258 282.86948364 345.12551758 283.61198364 345.06176758 284.37698364 C343.99776846 287.97821142 342.33556086 289.0945466 339.24926758 291.12698364 C338.58926758 291.12698364 337.92926758 291.12698364 337.24926758 291.12698364 C336.91926758 292.11698364 336.58926758 293.10698364 336.24926758 294.12698364 C335.58926758 294.12698364 334.92926758 294.12698364 334.24926758 294.12698364 C334.24926758 294.78698364 334.24926758 295.44698364 334.24926758 296.12698364 C333.25926758 296.45698364 332.26926758 296.78698364 331.24926758 297.12698364 C330.91926758 297.78698364 330.58926758 298.44698364 330.24926758 299.12698364 C327.18676758 299.75198364 327.18676758 299.75198364 324.24926758 300.12698364 C324.24926758 300.78698364 324.24926758 301.44698364 324.24926758 302.12698364 C321.27926758 302.45698364 318.30926758 302.78698364 315.24926758 303.12698364 C315.24926758 303.78698364 315.24926758 304.44698364 315.24926758 305.12698364 C311.61926758 305.45698364 307.98926758 305.78698364 304.24926758 306.12698364 C304.24926758 306.78698364 304.24926758 307.44698364 304.24926758 308.12698364 C289.06926758 308.12698364 273.88926758 308.12698364 258.24926758 308.12698364 C258.24926758 307.46698364 258.24926758 306.80698364 258.24926758 306.12698364 C256.67145508 306.15792114 256.67145508 306.15792114 255.06176758 306.18948364 C251.92221854 306.13801563 249.28043362 305.86181177 246.24926758 305.12698364 C246.24926758 304.46698364 246.24926758 303.80698364 246.24926758 303.12698364 C242.94926758 302.79698364 239.64926758 302.46698364 236.24926758 302.12698364 C236.24926758 301.46698364 236.24926758 300.80698364 236.24926758 300.12698364 C234.26926758 299.79698364 232.28926758 299.46698364 230.24926758 299.12698364 C230.24926758 298.46698364 230.24926758 297.80698364 230.24926758 297.12698364 C229.44489258 297.00323364 228.64051758 296.87948364 227.81176758 296.75198364 C226.96614258 296.54573364 226.12051758 296.33948364 225.24926758 296.12698364 C224.91926758 295.46698364 224.58926758 294.80698364 224.24926758 294.12698364 C223.65114258 294.02385864 223.05301758 293.92073364 222.43676758 293.81448364 C219.26717401 292.81832566 218.18836037 290.75414162 216.24926758 288.12698364 C215.38301758 287.32260864 215.38301758 287.32260864 214.49926758 286.50198364 C213.24926758 285.12698364 213.24926758 285.12698364 213.24926758 282.12698364 C212.25926758 281.79698364 211.26926758 281.46698364 210.24926758 281.12698364 C210.24926758 279.80698364 210.24926758 278.48698364 210.24926758 277.12698364 C209.25926758 276.79698364 208.26926758 276.46698364 207.24926758 276.12698364 C207.24926758 274.47698364 207.24926758 272.82698364 207.24926758 271.12698364 C206.58926758 271.12698364 205.92926758 271.12698364 205.24926758 271.12698364 C204.91926758 268.81698364 204.58926758 266.50698364 204.24926758 264.12698364 C203.58926758 264.12698364 202.92926758 264.12698364 202.24926758 264.12698364 C202.1280957 263.26975708 202.00692383 262.41253052 201.88208008 261.52932739 C201.71450195 260.38592896 201.54692383 259.24253052 201.37426758 258.06448364 C201.2118457 256.93913208 201.04942383 255.81378052 200.88208008 254.65432739 C200.24334616 251.09397724 199.2429865 247.60499988 198.24926758 244.12698364 C198.24926758 234.88698364 198.24926758 225.64698364 198.24926758 216.12698364 C137.19926758 215.79698364 76.14926758 215.46698364 13.24926758 215.12698364 C13.24926758 215.78698364 13.24926758 216.44698364 13.24926758 217.12698364 C12.60989258 217.25073364 11.97051758 217.37448364 11.31176758 217.50198364 C10.63114258 217.70823364 9.95051758 217.91448364 9.24926758 218.12698364 C8.91926758 218.78698364 8.58926758 219.44698364 8.24926758 220.12698364 C7.58926758 220.12698364 6.92926758 220.12698364 6.24926758 220.12698364 C5.91926758 222.43698364 5.58926758 224.74698364 5.24926758 227.12698364 C4.58926758 227.12698364 3.92926758 227.12698364 3.24926758 227.12698364 C2.91926758 230.09698364 2.58926758 233.06698364 2.24926758 236.12698364 C1.58926758 236.12698364 0.92926758 236.12698364 0.24926758 236.12698364 C-0.08073242 239.42698364 -0.41073242 242.72698364 -0.75073242 246.12698364 C-1.41073242 246.12698364 -2.07073242 246.12698364 -2.75073242 246.12698364 C-3.08073242 248.43698364 -3.41073242 250.74698364 -3.75073242 253.12698364 C-4.41073242 253.12698364 -5.07073242 253.12698364 -5.75073242 253.12698364 C-6.08073242 255.10698364 -6.41073242 257.08698364 -6.75073242 259.12698364 C-7.41073242 259.12698364 -8.07073242 259.12698364 -8.75073242 259.12698364 C-9.08073242 261.76698364 -9.41073242 264.40698364 -9.75073242 267.12698364 C-10.41073242 267.12698364 -11.07073242 267.12698364 -11.75073242 267.12698364 C-12.08073242 268.44698364 -12.41073242 269.76698364 -12.75073242 271.12698364 C-13.41073242 271.12698364 -14.07073242 271.12698364 -14.75073242 271.12698364 C-15.08073242 272.77698364 -15.41073242 274.42698364 -15.75073242 276.12698364 C-16.41073242 276.12698364 -17.07073242 276.12698364 -17.75073242 276.12698364 C-17.81260742 276.86948364 -17.87448242 277.61198364 -17.93823242 278.37698364 C-19.00782919 281.99715731 -20.75932855 282.90082262 -23.75073242 285.12698364 C-25.11318038 286.76993559 -26.44938117 288.43522702 -27.75073242 290.12698364 C-30.15924036 293.05908026 -32.00258091 293.62047668 -35.75073242 294.12698364 C-35.75073242 294.78698364 -35.75073242 295.44698364 -35.75073242 296.12698364 C-37.40073242 296.45698364 -39.05073242 296.78698364 -40.75073242 297.12698364 C-40.75073242 297.78698364 -40.75073242 298.44698364 -40.75073242 299.12698364 C-43.06073242 299.45698364 -45.37073242 299.78698364 -47.75073242 300.12698364 C-47.75073242 300.78698364 -47.75073242 301.44698364 -47.75073242 302.12698364 C-50.39073242 302.45698364 -53.03073242 302.78698364 -55.75073242 303.12698364 C-55.75073242 303.78698364 -55.75073242 304.44698364 -55.75073242 305.12698364 C-59.71073242 305.45698364 -63.67073242 305.78698364 -67.75073242 306.12698364 C-67.75073242 306.78698364 -67.75073242 307.44698364 -67.75073242 308.12698364 C-81.94073242 308.12698364 -96.13073242 308.12698364 -110.75073242 308.12698364 C-110.75073242 307.46698364 -110.75073242 306.80698364 -110.75073242 306.12698364 C-114.05073242 305.79698364 -117.35073242 305.46698364 -120.75073242 305.12698364 C-120.75073242 304.46698364 -120.75073242 303.80698364 -120.75073242 303.12698364 C-123.39073242 302.79698364 -126.03073242 302.46698364 -128.75073242 302.12698364 C-128.75073242 301.46698364 -128.75073242 300.80698364 -128.75073242 300.12698364 C-130.73073242 299.79698364 -132.71073242 299.46698364 -134.75073242 299.12698364 C-134.75073242 298.46698364 -134.75073242 297.80698364 -134.75073242 297.12698364 C-136.07073242 296.79698364 -137.39073242 296.46698364 -138.75073242 296.12698364 C-138.75073242 295.46698364 -138.75073242 294.80698364 -138.75073242 294.12698364 C-139.47260742 294.08573364 -140.19448242 294.04448364 -140.93823242 294.00198364 C-144.78855998 292.80410396 -146.79316677 290.54387309 -148.75073242 287.12698364 C-149.43403764 284.21021807 -149.40569582 281.40399082 -149.35009766 278.41873169 C-149.35404037 277.56424438 -149.35798309 276.70975708 -149.36204529 275.82937622 C-149.36873707 273.01521439 -149.33962427 270.20268975 -149.30932617 267.38870239 C-149.30507243 265.42343968 -149.30274709 263.45817192 -149.30226135 261.49290466 C-149.29610092 257.37631406 -149.27343082 253.2602686 -149.23779297 249.14382935 C-149.19261085 243.88503682 -149.17777097 238.6267389 -149.17405605 233.3677702 C-149.16961077 229.30894658 -149.15427614 225.25022527 -149.13517952 221.1914463 C-149.12634063 219.25350595 -149.11958982 217.31555484 -149.11501884 215.37759972 C-149.10590141 212.6593566 -149.08344412 209.94154376 -149.05712891 207.22341919 C-149.05646423 206.43298721 -149.05579956 205.64255524 -149.05511475 204.82817078 C-148.98296745 199.38511101 -148.11353341 194.39308774 -146.75073242 189.12698364 C-146.09073242 189.12698364 -145.43073242 189.12698364 -144.75073242 189.12698364 C-144.42073242 186.81698364 -144.09073242 184.50698364 -143.75073242 182.12698364 C-143.09073242 182.12698364 -142.43073242 182.12698364 -141.75073242 182.12698364 C-141.25573242 178.16698364 -141.25573242 178.16698364 -140.75073242 174.12698364 C-140.09073242 174.12698364 -139.43073242 174.12698364 -138.75073242 174.12698364 C-138.42073242 171.15698364 -138.09073242 168.18698364 -137.75073242 165.12698364 C-137.09073242 165.12698364 -136.43073242 165.12698364 -135.75073242 165.12698364 C-135.25573242 161.16698364 -135.25573242 161.16698364 -134.75073242 157.12698364 C-134.09073242 157.12698364 -133.43073242 157.12698364 -132.75073242 157.12698364 C-132.42073242 154.81698364 -132.09073242 152.50698364 -131.75073242 150.12698364 C-131.09073242 150.12698364 -130.43073242 150.12698364 -129.75073242 150.12698364 C-129.42073242 147.15698364 -129.09073242 144.18698364 -128.75073242 141.12698364 C-128.09073242 141.12698364 -127.43073242 141.12698364 -126.75073242 141.12698364 C-126.42073242 138.48698364 -126.09073242 135.84698364 -125.75073242 133.12698364 C-125.09073242 133.12698364 -124.43073242 133.12698364 -123.75073242 133.12698364 C-123.25573242 130.15698364 -123.25573242 130.15698364 -122.75073242 127.12698364 C-122.09073242 127.12698364 -121.43073242 127.12698364 -120.75073242 127.12698364 C-120.42073242 124.15698364 -120.09073242 121.18698364 -119.75073242 118.12698364 C-119.09073242 118.12698364 -118.43073242 118.12698364 -117.75073242 118.12698364 C-117.42073242 115.48698364 -117.09073242 112.84698364 -116.75073242 110.12698364 C-116.09073242 110.12698364 -115.43073242 110.12698364 -114.75073242 110.12698364 C-114.42073242 107.81698364 -114.09073242 105.50698364 -113.75073242 103.12698364 C-113.09073242 103.12698364 -112.43073242 103.12698364 -111.75073242 103.12698364 C-111.42073242 100.15698364 -111.09073242 97.18698364 -110.75073242 94.12698364 C-110.09073242 94.12698364 -109.43073242 94.12698364 -108.75073242 94.12698364 C-108.75073242 92.47698364 -108.75073242 90.82698364 -108.75073242 89.12698364 C-108.09073242 89.12698364 -107.43073242 89.12698364 -106.75073242 89.12698364 C-106.42073242 86.81698364 -106.09073242 84.50698364 -105.75073242 82.12698364 C-105.09073242 82.12698364 -104.43073242 82.12698364 -103.75073242 82.12698364 C-103.42073242 79.48698364 -103.09073242 76.84698364 -102.75073242 74.12698364 C-102.09073242 74.12698364 -101.43073242 74.12698364 -100.75073242 74.12698364 C-100.42073242 71.48698364 -100.09073242 68.84698364 -99.75073242 66.12698364 C-99.09073242 66.12698364 -98.43073242 66.12698364 -97.75073242 66.12698364 C-97.42073242 63.81698364 -97.09073242 61.50698364 -96.75073242 59.12698364 C-96.09073242 59.12698364 -95.43073242 59.12698364 -94.75073242 59.12698364 C-94.42073242 56.48698364 -94.09073242 53.84698364 -93.75073242 51.12698364 C-93.09073242 51.12698364 -92.43073242 51.12698364 -91.75073242 51.12698364 C-91.42073242 49.14698364 -91.09073242 47.16698364 -90.75073242 45.12698364 C-90.09073242 45.12698364 -89.43073242 45.12698364 -88.75073242 45.12698364 C-88.42073242 43.14698364 -88.09073242 41.16698364 -87.75073242 39.12698364 C-87.09073242 39.12698364 -86.43073242 39.12698364 -85.75073242 39.12698364 C-85.64760742 38.36385864 -85.54448242 37.60073364 -85.43823242 36.81448364 C-84.70362049 33.9428188 -84.07912593 32.89656271 -81.75073242 31.12698364 C-81.09073242 31.12698364 -80.43073242 31.12698364 -79.75073242 31.12698364 C-79.42073242 29.80698364 -79.09073242 28.48698364 -78.75073242 27.12698364 C-78.09073242 27.12698364 -77.43073242 27.12698364 -76.75073242 27.12698364 C-76.25573242 25.64198364 -76.25573242 25.64198364 -75.75073242 24.12698364 C-75.09073242 24.12698364 -74.43073242 24.12698364 -73.75073242 24.12698364 C-73.25573242 22.64198364 -73.25573242 22.64198364 -72.75073242 21.12698364 C-71.76073242 21.12698364 -70.77073242 21.12698364 -69.75073242 21.12698364 C-69.75073242 20.46698364 -69.75073242 19.80698364 -69.75073242 19.12698364 C-69.11135742 19.02385864 -68.47198242 18.92073364 -67.81323242 18.81448364 C-67.13260742 18.58760864 -66.45198242 18.36073364 -65.75073242 18.12698364 C-65.25573242 16.64198364 -65.25573242 16.64198364 -64.75073242 15.12698364 C-63.76073242 15.12698364 -62.77073242 15.12698364 -61.75073242 15.12698364 C-61.75073242 14.46698364 -61.75073242 13.80698364 -61.75073242 13.12698364 C-58.78073242 12.63198364 -58.78073242 12.63198364 -55.75073242 12.12698364 C-55.75073242 11.46698364 -55.75073242 10.80698364 -55.75073242 10.12698364 C-52.78073242 9.63198364 -52.78073242 9.63198364 -49.75073242 9.12698364 C-49.75073242 8.46698364 -49.75073242 7.80698364 -49.75073242 7.12698364 C-45.29573242 6.63198364 -45.29573242 6.63198364 -40.75073242 6.12698364 C-40.75073242 5.46698364 -40.75073242 4.80698364 -40.75073242 4.12698364 C-35.98765805 3.17436877 -31.58407962 3.04365007 -26.75073242 3.12698364 C-26.75073242 2.46698364 -26.75073242 1.80698364 -26.75073242 1.12698364 C-17.81746831 0.39473379 -8.96200933 -0.01828052 0 0 Z " fill="#FCFCFC" transform="translate(148.750732421875,83.87301635742188)"/>
<path d="M0 0 C1.20264842 -0.00155999 2.40529684 -0.00311998 3.64438915 -0.00472724 C6.93780522 -0.00799397 10.23118356 -0.00686154 13.5245986 -0.00374103 C17.0938444 -0.00145868 20.66308549 -0.00498052 24.23233032 -0.00772095 C31.20683421 -0.01214752 38.18132728 -0.01121608 45.15583158 -0.00830831 C50.82852851 -0.006042 56.50122242 -0.00574706 62.17391968 -0.00683212 C63.38894552 -0.00706197 63.38894552 -0.00706197 64.62851733 -0.00729647 C66.27449362 -0.00761622 67.9204699 -0.00794043 69.56644619 -0.00826906 C84.96962481 -0.01111473 100.37279746 -0.00785116 115.77597511 -0.00246869 C128.96792194 0.00199852 142.15985997 0.00122233 155.35180664 -0.00338745 C170.70311407 -0.00874935 186.05441629 -0.01084012 201.40572453 -0.00777519 C203.04535484 -0.00745667 204.68498516 -0.0071423 206.32461548 -0.00683212 C207.53443841 -0.00660071 207.53443841 -0.00660071 208.76870221 -0.00636462 C214.42892247 -0.00550431 220.08913939 -0.00695185 225.74935913 -0.00931168 C232.65536086 -0.01212784 239.56135123 -0.01133328 246.46735168 -0.00603093 C249.98505258 -0.00341833 253.50273461 -0.00234706 257.02043533 -0.00568008 C260.84648716 -0.00843076 264.67248662 -0.00496288 268.49853516 0 C269.5921445 -0.00223072 270.68575384 -0.00446144 271.81250286 -0.00675976 C279.65845907 0.01285023 287.43058178 0.48609455 295.24926758 1.12698364 C295.24926758 1.78698364 295.24926758 2.44698364 295.24926758 3.12698364 C296.08458008 3.1095813 296.08458008 3.1095813 296.93676758 3.09182739 C302.147051 3.03021931 307.09306267 3.3769902 312.24926758 4.12698364 C312.24926758 4.78698364 312.24926758 5.44698364 312.24926758 6.12698364 C315.21926758 6.45698364 318.18926758 6.78698364 321.24926758 7.12698364 C321.24926758 7.78698364 321.24926758 8.44698364 321.24926758 9.12698364 C323.55926758 9.45698364 325.86926758 9.78698364 328.24926758 10.12698364 C328.24926758 10.78698364 328.24926758 11.44698364 328.24926758 12.12698364 C329.89926758 12.45698364 331.54926758 12.78698364 333.24926758 13.12698364 C333.24926758 13.78698364 333.24926758 14.44698364 333.24926758 15.12698364 C335.22926758 15.62198364 335.22926758 15.62198364 337.24926758 16.12698364 C337.24926758 16.78698364 337.24926758 17.44698364 337.24926758 18.12698364 C338.11551758 18.21979614 338.11551758 18.21979614 338.99926758 18.31448364 C342.13184329 19.44569154 343.28387608 21.50646165 345.24926758 24.12698364 C345.90926758 24.45698364 346.56926758 24.78698364 347.24926758 25.12698364 C347.87426758 27.68948364 347.87426758 27.68948364 348.24926758 30.12698364 C348.90926758 30.12698364 349.56926758 30.12698364 350.24926758 30.12698364 C351.16054512 32.86081628 351.37448316 34.44131602 351.37510872 37.25153351 C351.37902034 38.51696558 351.37902034 38.51696558 351.38301098 39.80796194 C351.3796649 41.19836242 351.3796649 41.19836242 351.37625122 42.61685181 C351.37781121 43.6014345 351.3793712 44.5860172 351.38097847 45.60043573 C351.38498161 48.9146386 351.38180144 52.22879602 351.37866211 55.54299927 C351.38001645 57.91292854 351.38179657 60.2828576 351.38397217 62.65278625 C351.38806743 68.43062406 351.38745588 74.20844731 351.38455953 79.98628557 C351.3823033 84.68107928 351.38199393 89.37586935 351.38308334 94.07066345 C351.38323658 94.73825287 351.38338981 95.40584229 351.38354769 96.0936617 C351.3838674 97.4497569 351.38419162 98.80585211 351.38452028 100.16194731 C351.38737343 112.88508271 351.38409063 125.60821092 351.37871991 138.33134514 C351.37425202 149.2539509 351.375028 160.17654604 351.37963867 171.09915161 C351.38498734 183.77603184 351.38709875 196.45290576 351.38402641 209.12978697 C351.38370785 210.48095926 351.38339348 211.83213154 351.38308334 213.18330383 C351.38292907 213.84814731 351.38277479 214.51299078 351.38261584 215.19798103 C351.38175157 219.88841284 351.38321165 224.57884066 351.3855629 229.26927185 C351.38844404 235.57945296 351.38646139 241.88961393 351.38066864 248.19979286 C351.37934236 250.52061746 351.37973294 252.84144375 351.3819313 255.16226768 C351.38464794 258.32057344 351.38125529 261.47881392 351.37625122 264.63711548 C351.37848194 265.56404913 351.38071266 266.49098279 351.38301098 267.44600534 C351.38040324 268.28962673 351.37779549 269.13324811 351.37510872 270.00243378 C351.37494637 270.73176919 351.37478401 271.46110461 351.37461674 272.2125411 C351.24926758 274.12698364 351.24926758 274.12698364 350.24926758 277.12698364 C349.58926758 277.12698364 348.92926758 277.12698364 348.24926758 277.12698364 C347.91926758 278.77698364 347.58926758 280.42698364 347.24926758 282.12698364 C346.58926758 282.12698364 345.92926758 282.12698364 345.24926758 282.12698364 C345.18739258 282.86948364 345.12551758 283.61198364 345.06176758 284.37698364 C343.99776846 287.97821142 342.33556086 289.0945466 339.24926758 291.12698364 C338.58926758 291.12698364 337.92926758 291.12698364 337.24926758 291.12698364 C336.91926758 292.11698364 336.58926758 293.10698364 336.24926758 294.12698364 C335.58926758 294.12698364 334.92926758 294.12698364 334.24926758 294.12698364 C334.24926758 294.78698364 334.24926758 295.44698364 334.24926758 296.12698364 C333.25926758 296.45698364 332.26926758 296.78698364 331.24926758 297.12698364 C330.91926758 297.78698364 330.58926758 298.44698364 330.24926758 299.12698364 C327.18676758 299.75198364 327.18676758 299.75198364 324.24926758 300.12698364 C324.24926758 300.78698364 324.24926758 301.44698364 324.24926758 302.12698364 C321.27926758 302.45698364 318.30926758 302.78698364 315.24926758 303.12698364 C315.24926758 303.78698364 315.24926758 304.44698364 315.24926758 305.12698364 C311.61926758 305.45698364 307.98926758 305.78698364 304.24926758 306.12698364 C304.24926758 306.78698364 304.24926758 307.44698364 304.24926758 308.12698364 C289.06926758 308.12698364 273.88926758 308.12698364 258.24926758 308.12698364 C258.24926758 307.46698364 258.24926758 306.80698364 258.24926758 306.12698364 C256.67145508 306.15792114 256.67145508 306.15792114 255.06176758 306.18948364 C251.92221854 306.13801563 249.28043362 305.86181177 246.24926758 305.12698364 C246.24926758 304.46698364 246.24926758 303.80698364 246.24926758 303.12698364 C242.94926758 302.79698364 239.64926758 302.46698364 236.24926758 302.12698364 C236.24926758 301.46698364 236.24926758 300.80698364 236.24926758 300.12698364 C234.26926758 299.79698364 232.28926758 299.46698364 230.24926758 299.12698364 C230.24926758 298.46698364 230.24926758 297.80698364 230.24926758 297.12698364 C229.44489258 297.00323364 228.64051758 296.87948364 227.81176758 296.75198364 C226.96614258 296.54573364 226.12051758 296.33948364 225.24926758 296.12698364 C224.91926758 295.46698364 224.58926758 294.80698364 224.24926758 294.12698364 C223.65114258 294.02385864 223.05301758 293.92073364 222.43676758 293.81448364 C219.26717401 292.81832566 218.18836037 290.75414162 216.24926758 288.12698364 C215.38301758 287.32260864 215.38301758 287.32260864 214.49926758 286.50198364 C213.24926758 285.12698364 213.24926758 285.12698364 213.24926758 282.12698364 C212.25926758 281.79698364 211.26926758 281.46698364 210.24926758 281.12698364 C210.24926758 279.80698364 210.24926758 278.48698364 210.24926758 277.12698364 C209.25926758 276.79698364 208.26926758 276.46698364 207.24926758 276.12698364 C207.24926758 274.47698364 207.24926758 272.82698364 207.24926758 271.12698364 C206.58926758 271.12698364 205.92926758 271.12698364 205.24926758 271.12698364 C204.91926758 268.81698364 204.58926758 266.50698364 204.24926758 264.12698364 C203.58926758 264.12698364 202.92926758 264.12698364 202.24926758 264.12698364 C202.1280957 263.26975708 202.00692383 262.41253052 201.88208008 261.52932739 C201.71450195 260.38592896 201.54692383 259.24253052 201.37426758 258.06448364 C201.2118457 256.93913208 201.04942383 255.81378052 200.88208008 254.65432739 C200.24334616 251.09397724 199.2429865 247.60499988 198.24926758 244.12698364 C198.24926758 234.88698364 198.24926758 225.64698364 198.24926758 216.12698364 C137.19926758 215.79698364 76.14926758 215.46698364 13.24926758 215.12698364 C13.24926758 215.78698364 13.24926758 216.44698364 13.24926758 217.12698364 C12.60989258 217.25073364 11.97051758 217.37448364 11.31176758 217.50198364 C10.63114258 217.70823364 9.95051758 217.91448364 9.24926758 218.12698364 C8.91926758 218.78698364 8.58926758 219.44698364 8.24926758 220.12698364 C7.58926758 220.12698364 6.92926758 220.12698364 6.24926758 220.12698364 C5.91926758 222.43698364 5.58926758 224.74698364 5.24926758 227.12698364 C4.58926758 227.12698364 3.92926758 227.12698364 3.24926758 227.12698364 C2.91926758 230.09698364 2.58926758 233.06698364 2.24926758 236.12698364 C1.58926758 236.12698364 0.92926758 236.12698364 0.24926758 236.12698364 C-0.08073242 239.42698364 -0.41073242 242.72698364 -0.75073242 246.12698364 C-1.41073242 246.12698364 -2.07073242 246.12698364 -2.75073242 246.12698364 C-3.08073242 248.43698364 -3.41073242 250.74698364 -3.75073242 253.12698364 C-4.41073242 253.12698364 -5.07073242 253.12698364 -5.75073242 253.12698364 C-6.08073242 255.10698364 -6.41073242 257.08698364 -6.75073242 259.12698364 C-7.41073242 259.12698364 -8.07073242 259.12698364 -8.75073242 259.12698364 C-9.08073242 261.76698364 -9.41073242 264.40698364 -9.75073242 267.12698364 C-10.41073242 267.12698364 -11.07073242 267.12698364 -11.75073242 267.12698364 C-12.08073242 268.44698364 -12.41073242 269.76698364 -12.75073242 271.12698364 C-13.41073242 271.12698364 -14.07073242 271.12698364 -14.75073242 271.12698364 C-15.08073242 272.77698364 -15.41073242 274.42698364 -15.75073242 276.12698364 C-16.41073242 276.12698364 -17.07073242 276.12698364 -17.75073242 276.12698364 C-17.81260742 276.86948364 -17.87448242 277.61198364 -17.93823242 278.37698364 C-19.00782919 281.99715731 -20.75932855 282.90082262 -23.75073242 285.12698364 C-25.11318038 286.76993559 -26.44938117 288.43522702 -27.75073242 290.12698364 C-30.15924036 293.05908026 -32.00258091 293.62047668 -35.75073242 294.12698364 C-35.75073242 294.78698364 -35.75073242 295.44698364 -35.75073242 296.12698364 C-37.40073242 296.45698364 -39.05073242 296.78698364 -40.75073242 297.12698364 C-40.75073242 297.78698364 -40.75073242 298.44698364 -40.75073242 299.12698364 C-43.06073242 299.45698364 -45.37073242 299.78698364 -47.75073242 300.12698364 C-47.75073242 300.78698364 -47.75073242 301.44698364 -47.75073242 302.12698364 C-50.39073242 302.45698364 -53.03073242 302.78698364 -55.75073242 303.12698364 C-55.75073242 303.78698364 -55.75073242 304.44698364 -55.75073242 305.12698364 C-59.71073242 305.45698364 -63.67073242 305.78698364 -67.75073242 306.12698364 C-67.75073242 306.78698364 -67.75073242 307.44698364 -67.75073242 308.12698364 C-81.94073242 308.12698364 -96.13073242 308.12698364 -110.75073242 308.12698364 C-110.75073242 307.46698364 -110.75073242 306.80698364 -110.75073242 306.12698364 C-114.05073242 305.79698364 -117.35073242 305.46698364 -120.75073242 305.12698364 C-120.75073242 304.46698364 -120.75073242 303.80698364 -120.75073242 303.12698364 C-123.39073242 302.79698364 -126.03073242 302.46698364 -128.75073242 302.12698364 C-128.75073242 301.46698364 -128.75073242 300.80698364 -128.75073242 300.12698364 C-130.73073242 299.79698364 -132.71073242 299.46698364 -134.75073242 299.12698364 C-134.75073242 298.46698364 -134.75073242 297.80698364 -134.75073242 297.12698364 C-136.07073242 296.79698364 -137.39073242 296.46698364 -138.75073242 296.12698364 C-138.75073242 295.46698364 -138.75073242 294.80698364 -138.75073242 294.12698364 C-139.47260742 294.08573364 -140.19448242 294.04448364 -140.93823242 294.00198364 C-144.78855998 292.80410396 -146.79316677 290.54387309 -148.75073242 287.12698364 C-149.43403764 284.21021807 -149.40569582 281.40399082 -149.35009766 278.41873169 C-149.35404037 277.56424438 -149.35798309 276.70975708 -149.36204529 275.82937622 C-149.36873707 273.01521439 -149.33962427 270.20268975 -149.30932617 267.38870239 C-149.30507243 265.42343968 -149.30274709 263.45817192 -149.30226135 261.49290466 C-149.29610092 257.37631406 -149.27343082 253.2602686 -149.23779297 249.14382935 C-149.19261085 243.88503682 -149.17777097 238.6267389 -149.17405605 233.3677702 C-149.16961077 229.30894658 -149.15427614 225.25022527 -149.13517952 221.1914463 C-149.12634063 219.25350595 -149.11958982 217.31555484 -149.11501884 215.37759972 C-149.10590141 212.6593566 -149.08344412 209.94154376 -149.05712891 207.22341919 C-149.05646423 206.43298721 -149.05579956 205.64255524 -149.05511475 204.82817078 C-148.98296745 199.38511101 -148.11353341 194.39308774 -146.75073242 189.12698364 C-146.09073242 189.12698364 -145.43073242 189.12698364 -144.75073242 189.12698364 C-144.42073242 186.81698364 -144.09073242 184.50698364 -143.75073242 182.12698364 C-143.09073242 182.12698364 -142.43073242 182.12698364 -141.75073242 182.12698364 C-141.25573242 178.16698364 -141.25573242 178.16698364 -140.75073242 174.12698364 C-140.09073242 174.12698364 -139.43073242 174.12698364 -138.75073242 174.12698364 C-138.42073242 171.15698364 -138.09073242 168.18698364 -137.75073242 165.12698364 C-137.09073242 165.12698364 -136.43073242 165.12698364 -135.75073242 165.12698364 C-135.25573242 161.16698364 -135.25573242 161.16698364 -134.75073242 157.12698364 C-134.09073242 157.12698364 -133.43073242 157.12698364 -132.75073242 157.12698364 C-132.42073242 154.81698364 -132.09073242 152.50698364 -131.75073242 150.12698364 C-131.09073242 150.12698364 -130.43073242 150.12698364 -129.75073242 150.12698364 C-129.42073242 147.15698364 -129.09073242 144.18698364 -128.75073242 141.12698364 C-128.09073242 141.12698364 -127.43073242 141.12698364 -126.75073242 141.12698364 C-126.42073242 138.48698364 -126.09073242 135.84698364 -125.75073242 133.12698364 C-125.09073242 133.12698364 -124.43073242 133.12698364 -123.75073242 133.12698364 C-123.25573242 130.15698364 -123.25573242 130.15698364 -122.75073242 127.12698364 C-122.09073242 127.12698364 -121.43073242 127.12698364 -120.75073242 127.12698364 C-120.42073242 124.15698364 -120.09073242 121.18698364 -119.75073242 118.12698364 C-119.09073242 118.12698364 -118.43073242 118.12698364 -117.75073242 118.12698364 C-117.42073242 115.48698364 -117.09073242 112.84698364 -116.75073242 110.12698364 C-116.09073242 110.12698364 -115.43073242 110.12698364 -114.75073242 110.12698364 C-114.42073242 107.81698364 -114.09073242 105.50698364 -113.75073242 103.12698364 C-113.09073242 103.12698364 -112.43073242 103.12698364 -111.75073242 103.12698364 C-111.42073242 100.15698364 -111.09073242 97.18698364 -110.75073242 94.12698364 C-110.09073242 94.12698364 -109.43073242 94.12698364 -108.75073242 94.12698364 C-108.75073242 92.47698364 -108.75073242 90.82698364 -108.75073242 89.12698364 C-108.09073242 89.12698364 -107.43073242 89.12698364 -106.75073242 89.12698364 C-106.42073242 86.81698364 -106.09073242 84.50698364 -105.75073242 82.12698364 C-105.09073242 82.12698364 -104.43073242 82.12698364 -103.75073242 82.12698364 C-103.42073242 79.48698364 -103.09073242 76.84698364 -102.75073242 74.12698364 C-102.09073242 74.12698364 -101.43073242 74.12698364 -100.75073242 74.12698364 C-100.42073242 71.48698364 -100.09073242 68.84698364 -99.75073242 66.12698364 C-99.09073242 66.12698364 -98.43073242 66.12698364 -97.75073242 66.12698364 C-97.42073242 63.81698364 -97.09073242 61.50698364 -96.75073242 59.12698364 C-96.09073242 59.12698364 -95.43073242 59.12698364 -94.75073242 59.12698364 C-94.42073242 56.48698364 -94.09073242 53.84698364 -93.75073242 51.12698364 C-93.09073242 51.12698364 -92.43073242 51.12698364 -91.75073242 51.12698364 C-91.42073242 49.14698364 -91.09073242 47.16698364 -90.75073242 45.12698364 C-90.09073242 45.12698364 -89.43073242 45.12698364 -88.75073242 45.12698364 C-88.42073242 43.14698364 -88.09073242 41.16698364 -87.75073242 39.12698364 C-87.09073242 39.12698364 -86.43073242 39.12698364 -85.75073242 39.12698364 C-85.64760742 38.36385864 -85.54448242 37.60073364 -85.43823242 36.81448364 C-84.70362049 33.9428188 -84.07912593 32.89656271 -81.75073242 31.12698364 C-81.09073242 31.12698364 -80.43073242 31.12698364 -79.75073242 31.12698364 C-79.42073242 29.80698364 -79.09073242 28.48698364 -78.75073242 27.12698364 C-78.09073242 27.12698364 -77.43073242 27.12698364 -76.75073242 27.12698364 C-76.25573242 25.64198364 -76.25573242 25.64198364 -75.75073242 24.12698364 C-75.09073242 24.12698364 -74.43073242 24.12698364 -73.75073242 24.12698364 C-73.25573242 22.64198364 -73.25573242 22.64198364 -72.75073242 21.12698364 C-71.76073242 21.12698364 -70.77073242 21.12698364 -69.75073242 21.12698364 C-69.75073242 20.46698364 -69.75073242 19.80698364 -69.75073242 19.12698364 C-69.11135742 19.02385864 -68.47198242 18.92073364 -67.81323242 18.81448364 C-67.13260742 18.58760864 -66.45198242 18.36073364 -65.75073242 18.12698364 C-65.25573242 16.64198364 -65.25573242 16.64198364 -64.75073242 15.12698364 C-63.76073242 15.12698364 -62.77073242 15.12698364 -61.75073242 15.12698364 C-61.75073242 14.46698364 -61.75073242 13.80698364 -61.75073242 13.12698364 C-58.78073242 12.63198364 -58.78073242 12.63198364 -55.75073242 12.12698364 C-55.75073242 11.46698364 -55.75073242 10.80698364 -55.75073242 10.12698364 C-52.78073242 9.63198364 -52.78073242 9.63198364 -49.75073242 9.12698364 C-49.75073242 8.46698364 -49.75073242 7.80698364 -49.75073242 7.12698364 C-45.29573242 6.63198364 -45.29573242 6.63198364 -40.75073242 6.12698364 C-40.75073242 5.46698364 -40.75073242 4.80698364 -40.75073242 4.12698364 C-35.98765805 3.17436877 -31.58407962 3.04365007 -26.75073242 3.12698364 C-26.75073242 2.46698364 -26.75073242 1.80698364 -26.75073242 1.12698364 C-17.81746831 0.39473379 -8.96200933 -0.01828052 0 0 Z M-21.75073242 41.12698364 C-21.75073242 41.78698364 -21.75073242 42.44698364 -21.75073242 43.12698364 C-22.86448242 43.06510864 -23.97823242 43.00323364 -25.12573242 42.93948364 C-30.21536336 42.93948364 -35.10741 44.02972091 -39.75073242 46.12698364 C-40.41073242 47.11698364 -41.07073242 48.10698364 -41.75073242 49.12698364 C-43.39436376 49.84857789 -45.06123628 50.52049785 -46.75073242 51.12698364 C-48.04706863 52.19343479 -48.04706863 52.19343479 -47.81323242 54.68948364 C-47.79260742 55.49385864 -47.77198242 56.29823364 -47.75073242 57.12698364 C-49.07073242 57.45698364 -50.39073242 57.78698364 -51.75073242 58.12698364 C-51.75073242 59.11698364 -51.75073242 60.10698364 -51.75073242 61.12698364 C-52.74073242 61.12698364 -53.73073242 61.12698364 -54.75073242 61.12698364 C-54.93635742 62.82854614 -54.93635742 62.82854614 -55.12573242 64.56448364 C-55.33198242 65.74010864 -55.53823242 66.91573364 -55.75073242 68.12698364 C-56.41073242 68.45698364 -57.07073242 68.78698364 -57.75073242 69.12698364 C-58.2182503 71.48297599 -58.2182503 71.48297599 -58.37573242 74.18948364 C-58.45049805 75.10858521 -58.52526367 76.02768677 -58.60229492 76.97463989 C-58.67577148 78.04005005 -58.67577148 78.04005005 -58.75073242 79.12698364 C-60.07073242 79.45698364 -61.39073242 79.78698364 -62.75073242 80.12698364 C-62.88350586 80.76506958 -63.0162793 81.40315552 -63.15307617 82.06057739 C-63.32967773 82.88686646 -63.5062793 83.71315552 -63.68823242 84.56448364 C-63.86225586 85.38819458 -64.0362793 86.21190552 -64.21557617 87.06057739 C-64.75073242 89.12698364 -64.75073242 89.12698364 -65.75073242 90.12698364 C-65.93635742 91.82854614 -65.93635742 91.82854614 -66.12573242 93.56448364 C-66.33198242 94.74010864 -66.53823242 95.91573364 -66.75073242 97.12698364 C-67.74073242 97.78698364 -68.73073242 98.44698364 -69.75073242 99.12698364 C-70.11533696 101.79352269 -70.11533696 101.79352269 -69.93823242 104.75198364 C-69.91116211 105.75487427 -69.8840918 106.75776489 -69.85620117 107.79104614 C-69.80399414 108.94733521 -69.80399414 108.94733521 -69.75073242 110.12698364 C-70.74073242 110.12698364 -71.73073242 110.12698364 -72.75073242 110.12698364 C-72.93249023 111.17499146 -72.93249023 111.17499146 -73.11791992 112.24417114 C-73.28549805 113.15424927 -73.45307617 114.06432739 -73.62573242 115.00198364 C-73.7881543 115.90690552 -73.95057617 116.81182739 -74.11791992 117.74417114 C-74.75073242 120.12698364 -74.75073242 120.12698364 -76.75073242 122.12698364 C-76.91754351 125.2104619 -76.91754351 125.2104619 -76.75073242 128.12698364 C-78.07073242 128.12698364 -79.39073242 128.12698364 -80.75073242 128.12698364 C-80.78811523 128.81405396 -80.82549805 129.50112427 -80.86401367 130.20901489 C-80.96262695 131.56059692 -80.96262695 131.56059692 -81.06323242 132.93948364 C-81.12124023 133.83280396 -81.17924805 134.72612427 -81.23901367 135.64651489 C-81.82737959 138.49851762 -82.63519894 139.22787302 -84.75073242 141.12698364 C-85.46481576 143.11054847 -86.13690984 145.11013802 -86.75073242 147.12698364 C-87.08073242 147.45698364 -87.41073242 147.78698364 -87.75073242 148.12698364 C-87.98266107 149.64167813 -88.16288481 151.16452926 -88.31323242 152.68948364 C-88.39702148 153.51577271 -88.48081055 154.34206177 -88.56713867 155.19338989 C-88.62772461 155.83147583 -88.68831055 156.46956177 -88.75073242 157.12698364 C-89.74073242 157.45698364 -90.73073242 157.78698364 -91.75073242 158.12698364 C-91.75073242 161.75698364 -91.75073242 165.38698364 -91.75073242 169.12698364 C-93.07073242 169.12698364 -94.39073242 169.12698364 -95.75073242 169.12698364 C-95.75073242 171.43698364 -95.75073242 173.74698364 -95.75073242 176.12698364 C-96.74073242 176.12698364 -97.73073242 176.12698364 -98.75073242 176.12698364 C-98.75073242 179.75698364 -98.75073242 183.38698364 -98.75073242 187.12698364 C-99.74073242 187.45698364 -100.73073242 187.78698364 -101.75073242 188.12698364 C-102.08073242 191.42698364 -102.41073242 194.72698364 -102.75073242 198.12698364 C-104.07073242 198.12698364 -105.39073242 198.12698364 -106.75073242 198.12698364 C-106.75073242 200.76698364 -106.75073242 203.40698364 -106.75073242 206.12698364 C-108.07073242 206.45698364 -109.39073242 206.78698364 -110.75073242 207.12698364 C-110.75073242 210.42698364 -110.75073242 213.72698364 -110.75073242 217.12698364 C-111.74073242 217.12698364 -112.73073242 217.12698364 -113.75073242 217.12698364 C-113.75073242 219.76698364 -113.75073242 222.40698364 -113.75073242 225.12698364 C-114.74073242 225.12698364 -115.73073242 225.12698364 -116.75073242 225.12698364 C-117.41073242 228.42698364 -118.07073242 231.72698364 -118.75073242 235.12698364 C-119.74073242 235.45698364 -120.73073242 235.78698364 -121.75073242 236.12698364 C-121.75073242 239.42698364 -121.75073242 242.72698364 -121.75073242 246.12698364 C-122.74073242 246.12698364 -123.73073242 246.12698364 -124.75073242 246.12698364 C-124.43750214 247.79754513 -124.097388 249.46303689 -123.75073242 251.12698364 C-123.62827148 251.78956177 -123.50581055 252.45213989 -123.37963867 253.13479614 C-122.46792429 257.55960229 -122.46792429 257.55960229 -119.81323242 261.12698364 C-117.68284872 262.3451204 -117.68284872 262.3451204 -114.75073242 262.12698364 C-114.42073242 263.11698364 -114.09073242 264.10698364 -113.75073242 265.12698364 C-111.77073242 265.45698364 -109.79073242 265.78698364 -107.75073242 266.12698364 C-107.42073242 267.11698364 -107.09073242 268.10698364 -106.75073242 269.12698364 C-102.26674458 269.22601837 -97.78333951 269.29852847 -93.29858398 269.34671021 C-91.77373157 269.36679963 -90.24895595 269.3940768 -88.72436523 269.42874146 C-86.52983644 269.4773816 -84.33632773 269.4999776 -82.14135742 269.51760864 C-80.82167969 269.53855591 -79.50200195 269.55950317 -78.14233398 269.58108521 C-74.19972351 269.05320906 -73.24221393 268.10348125 -70.75073242 265.12698364 C-68.39135742 264.51760864 -68.39135742 264.51760864 -66.00073242 264.37698364 C-65.20151367 264.32026489 -64.40229492 264.26354614 -63.57885742 264.20510864 C-62.97557617 264.17932739 -62.37229492 264.15354614 -61.75073242 264.12698364 C-61.75073242 263.46698364 -61.75073242 262.80698364 -61.75073242 262.12698364 C-61.09073242 262.12698364 -60.43073242 262.12698364 -59.75073242 262.12698364 C-59.75073242 261.46698364 -59.75073242 260.80698364 -59.75073242 260.12698364 C-58.76073242 260.12698364 -57.77073242 260.12698364 -56.75073242 260.12698364 C-56.42073242 259.13698364 -56.09073242 258.14698364 -55.75073242 257.12698364 C-53.45905596 254.14780424 -51.41537297 253.62220534 -47.75073242 253.12698364 C-47.75073242 251.14698364 -47.75073242 249.16698364 -47.75073242 247.12698364 C-46.43073242 246.79698364 -45.11073242 246.46698364 -43.75073242 246.12698364 C-43.75073242 244.47698364 -43.75073242 242.82698364 -43.75073242 241.12698364 C-43.09073242 241.12698364 -42.43073242 241.12698364 -41.75073242 241.12698364 C-40.42844053 238.48239985 -40.65396048 236.44937063 -40.68823242 233.50198364 C-40.69725586 232.49909302 -40.7062793 231.49620239 -40.71557617 230.46292114 C-40.72717773 229.69206177 -40.7387793 228.92120239 -40.75073242 228.12698364 C-39.43073242 228.12698364 -38.11073242 228.12698364 -36.75073242 228.12698364 C-36.70174805 227.34452271 -36.65276367 226.56206177 -36.60229492 225.75588989 C-36.5275293 224.74397583 -36.45276367 223.73206177 -36.37573242 222.68948364 C-36.30612305 221.68014771 -36.23651367 220.67081177 -36.16479492 219.63088989 C-36.0281543 218.80460083 -35.89151367 217.97831177 -35.75073242 217.12698364 C-35.09073242 216.79698364 -34.43073242 216.46698364 -33.75073242 216.12698364 C-33.75073242 213.48698364 -33.75073242 210.84698364 -33.75073242 208.12698364 C-32.76073242 208.12698364 -31.77073242 208.12698364 -30.75073242 208.12698364 C-30.75073242 204.82698364 -30.75073242 201.52698364 -30.75073242 198.12698364 C-29.76073242 197.79698364 -28.77073242 197.46698364 -27.75073242 197.12698364 C-27.42073242 193.82698364 -27.09073242 190.52698364 -26.75073242 187.12698364 C-25.43073242 187.12698364 -24.11073242 187.12698364 -22.75073242 187.12698364 C-22.75073242 184.81698364 -22.75073242 182.50698364 -22.75073242 180.12698364 C-21.76073242 179.79698364 -20.77073242 179.46698364 -19.75073242 179.12698364 C-19.09073242 178.13698364 -18.43073242 177.14698364 -17.75073242 176.12698364 C-15.85444391 175.74797612 -15.85444391 175.74797612 -13.49097252 175.74222279 C-12.59175776 175.73276625 -11.692543 175.7233097 -10.76607931 175.7135666 C-9.77193128 175.71841418 -8.77778325 175.72326175 -7.75350952 175.72825623 C-6.70232772 175.7216094 -5.65114591 175.71496257 -4.56811011 175.70811433 C-1.02260507 175.68936423 2.52256606 175.6920977 6.06811523 175.6946106 C8.60040264 175.68560078 11.13268567 175.67527551 13.66496277 175.66372681 C19.1286885 175.64178435 24.59231403 175.62904803 30.05607986 175.62459755 C37.95579809 175.6181471 45.85540051 175.59522934 53.75507216 175.56825425 C66.57082937 175.52494109 79.38658171 175.49500025 92.20239258 175.47341919 C104.6539143 175.45242304 117.10539621 175.42515991 129.55688477 175.38943481 C130.32401718 175.38723599 131.0911496 175.38503716 131.88152845 175.38277171 C135.7298938 175.3717024 139.57825877 175.36050952 143.42662358 175.3492552 C175.36747172 175.256006 207.3083343 175.1844378 239.24926758 175.12698364 C239.24482635 176.02012268 239.24038513 176.91326172 239.23580933 177.83346558 C239.19573771 186.2498425 239.16528575 194.6661874 239.14564323 203.08263779 C239.13520536 207.40963561 239.12104608 211.73655462 239.09838867 216.06350708 C239.07666044 220.239136 239.06469898 224.41468909 239.05951309 228.59037018 C239.0558173 230.18357792 239.04860038 231.7767815 239.03780746 233.36995697 C239.02329272 235.60123162 239.02128961 237.83219282 239.0222168 240.06350708 C239.01777557 241.3336969 239.01333435 242.60388672 239.00875854 243.91256714 C239.23971387 246.99929787 239.72748014 248.511175 241.24926758 251.12698364 C241.63217219 253.11808765 241.97531373 255.11798877 242.24926758 257.12698364 C243.23926758 257.45698364 244.22926758 257.78698364 245.24926758 258.12698364 C245.57926758 259.11698364 245.90926758 260.10698364 246.24926758 261.12698364 C247.63820626 263.43781733 247.63820626 263.43781733 250.24926758 265.12698364 C252.85140159 265.52634185 255.3758263 265.68952296 258.00708008 265.75588989 C258.74700195 265.87835083 259.48692383 266.00081177 260.24926758 266.12698364 C260.90926758 267.11698364 261.56926758 268.10698364 262.24926758 269.12698364 C264.83906235 269.41912337 267.18636225 269.52321568 269.77661133 269.49026489 C270.52133194 269.4907634 271.26605255 269.4912619 272.03334045 269.49177551 C273.60949366 269.48943359 275.18565051 269.47969803 276.76171875 269.46316528 C279.17392472 269.43960906 281.585023 269.44259841 283.99731445 269.44924927 C285.52792 269.44367127 287.05852089 269.43656062 288.58911133 269.42776489 C289.67203712 269.429132 289.67203712 269.429132 290.77684021 269.43052673 C294.47710865 269.37819769 296.08870125 269.23402786 299.24926758 267.12698364 C300.71642096 266.76222175 302.19810705 266.45307446 303.68676758 266.18948364 C308.51094044 265.19553516 308.51094044 265.19553516 312.24926758 262.12698364 C312.58352493 259.50073226 312.58352493 259.50073226 312.24926758 257.12698364 C313.56926758 257.12698364 314.88926758 257.12698364 316.24926758 257.12698364 C316.55864258 256.32260864 316.86801758 255.51823364 317.18676758 254.68948364 C318.24926758 252.12698364 318.24926758 252.12698364 319.24926758 251.12698364 C319.34696635 248.67327744 319.37922998 246.24775194 319.36952209 243.79359436 C319.37037652 243.01686499 319.37123094 242.24013561 319.37211126 241.43986899 C319.37376842 238.81724042 319.36824087 236.19467475 319.36279297 233.572052 C319.36251112 231.70000714 319.36266878 229.82796216 319.36323547 227.95591736 C319.36352355 222.85695604 319.35762527 217.75801803 319.35066152 212.65906215 C319.34442957 207.33656732 319.34382431 202.01407201 319.34263611 196.6915741 C319.33952232 186.60513473 319.33130829 176.51870615 319.32128662 166.43227154 C319.31012695 154.95241985 319.3046154 143.47256766 319.29959118 131.9927119 C319.28912572 108.37079649 319.27152536 84.74889067 319.24926758 61.12698364 C318.25926758 61.12698364 317.26926758 61.12698364 316.24926758 61.12698364 C315.91926758 57.82698364 315.58926758 54.52698364 315.24926758 51.12698364 C314.25926758 50.79698364 313.26926758 50.46698364 312.24926758 50.12698364 C312.24926758 48.80698364 312.24926758 47.48698364 312.24926758 46.12698364 C311.13551758 46.00323364 310.02176758 45.87948364 308.87426758 45.75198364 C305.24926758 45.12698364 305.24926758 45.12698364 303.24926758 43.12698364 C300.12112244 42.88338291 300.12112244 42.88338291 296.62426758 43.00198364 C294.84149414 43.02905396 294.84149414 43.02905396 293.02270508 43.05667114 C291.64985352 43.09147583 291.64985352 43.09147583 290.24926758 43.12698364 C289.91926758 42.13698364 289.58926758 41.14698364 289.24926758 40.12698364 C285.80720615 39.34944816 282.63328397 39.00179404 279.10727596 39.0011425 C277.57771642 38.99723088 277.57771642 38.99723088 276.01725668 38.99324024 C274.34714579 38.99658632 274.34714579 38.99658632 272.64329529 39 C271.45509266 38.99844001 270.26689004 38.99688002 269.04268128 38.99527276 C265.74786571 38.99197382 262.45310714 38.99316184 259.15829504 38.99625897 C255.6032443 38.99852053 252.04819855 38.99502957 248.4931488 38.99227905 C241.52810888 38.98782953 234.56307973 38.98879448 227.59803938 38.99169169 C221.93369123 38.99395019 216.2693461 38.9942563 210.60499763 38.99316788 C209.79873428 38.99301464 208.99247092 38.99286141 208.16177534 38.99270353 C206.52376778 38.9923838 204.88576023 38.99205959 203.24775267 38.99173094 C187.88091828 38.98887822 172.51408985 38.99215927 157.14725644 38.99753131 C143.9767487 39.00199322 130.80624977 39.00122808 117.63574219 38.99661255 C102.33469356 38.99125288 87.03365018 38.98915915 71.73260075 38.99222481 C70.09848313 38.99254335 68.4643655 38.99285772 66.83024788 38.99316788 C66.02629117 38.99332215 65.22233445 38.99347643 64.39401541 38.99363538 C58.74347947 38.9944968 53.09294685 38.99304561 47.44241142 38.99068832 C40.54564976 38.9878744 33.64889946 38.98866184 26.75213908 38.99396907 C23.2367738 38.99658556 19.72142743 38.99764625 16.20606232 38.99431992 C12.38539798 38.99157569 8.56478637 38.99502954 4.74412537 39 C3.64633316 38.99776928 2.54854095 38.99553856 1.41748232 38.99324024 C-10.48748147 38.45543187 -10.48748147 38.45543187 -21.75073242 41.12698364 Z " fill="#020202" transform="translate(148.750732421875,83.87301635742188)"/>
<path d="M0 0 C2.95612195 -0.29632999 5.70305009 -0.39529745 8.66175842 -0.36749268 C9.56931033 -0.37076152 10.47686224 -0.37403036 11.41191572 -0.37739825 C14.47147334 -0.38471652 17.53055907 -0.37048605 20.59008789 -0.35644531 C22.77592552 -0.35723565 24.961763 -0.35933125 27.14759827 -0.36264038 C33.09783701 -0.36778896 39.04790378 -0.35421034 44.99811482 -0.33711338 C51.21166529 -0.32211831 57.42521315 -0.32325239 63.63877869 -0.32244873 C74.07407464 -0.31875226 84.50930905 -0.30385598 94.94458008 -0.28125 C105.69165592 -0.25798531 116.4386902 -0.24382465 127.18579102 -0.24023438 C128.17882427 -0.23990022 128.17882427 -0.23990022 129.1919188 -0.23955932 C129.85277375 -0.23934 130.5136287 -0.23912067 131.19450957 -0.2388947 C144.03259676 -0.2346271 156.87066651 -0.22269454 169.70874476 -0.20722103 C173.41979811 -0.20311433 177.13085103 -0.20019263 180.84190559 -0.19742584 C186.66207271 -0.19254646 192.48220746 -0.1823662 198.30235863 -0.16798782 C200.44502597 -0.16345021 202.58769768 -0.16062273 204.73036957 -0.15958023 C207.64202106 -0.1578451 210.55359044 -0.14999035 213.46522522 -0.14044189 C214.32473866 -0.14130838 215.1842521 -0.14217486 216.0698114 -0.1430676 C221.88579282 -0.11420718 221.88579282 -0.11420718 223 1 C223 16.84 223 32.68 223 49 C143.14 49 63.28 49 -19 49 C-19 39.5 -19 39.5 -18 37 C-17.01 36.505 -17.01 36.505 -16 36 C-15.2986716 33.67684969 -14.63514826 31.34210921 -14 29 C-13.33333333 27.66666667 -12.66666667 26.33333333 -12 25 C-11.30269194 22.6756398 -10.63087848 20.34326294 -10 18 C-9.34 18 -8.68 18 -8 18 C-8 16.02 -8 14.04 -8 12 C-7.38125 11.814375 -6.7625 11.62875 -6.125 11.4375 C-2.94966268 9.2894777 -2.88956051 6.62178209 -2 3 C-1.34 2.01 -0.68 1.02 0 0 Z " fill="#040404" transform="translate(164,167)"/>
<path d="M0 0 C1.19841699 -0.00226556 2.39683398 -0.00453111 3.63156664 -0.00686532 C6.92214095 -0.01206082 10.21268046 -0.01285711 13.50325751 -0.01167095 C17.06557075 -0.01146539 20.62787608 -0.01700002 24.19018555 -0.02172852 C31.15291884 -0.02999948 38.11564366 -0.03278165 45.07838146 -0.03334089 C50.73689323 -0.03381731 56.39540223 -0.0358783 62.05391312 -0.03904152 C78.11118106 -0.04783481 94.16844234 -0.05246244 110.2257127 -0.05171105 C111.08955423 -0.05167109 111.95339576 -0.05163113 112.84341431 -0.05158997 C113.70831394 -0.05154909 114.57321357 -0.0515082 115.46432228 -0.05146609 C129.50481295 -0.05105897 143.54527688 -0.06064851 157.5857598 -0.07472833 C172.01642894 -0.08908503 186.44708502 -0.09599905 200.87776148 -0.09513456 C208.97420739 -0.09480257 217.0706252 -0.09755121 225.16706467 -0.10831261 C232.0535891 -0.11740782 238.94007265 -0.11960057 245.82660048 -0.11280318 C249.33926802 -0.10953434 252.85185709 -0.10949467 256.36451721 -0.11815643 C260.17159618 -0.12744791 263.97856002 -0.12125579 267.78564453 -0.11352539 C268.89613895 -0.11866895 270.00663337 -0.12381252 271.15077913 -0.12911195 C276.33080598 -0.10579596 280.67275409 0.03220926 285.51187134 2.13371277 C285.51187134 2.46371277 285.51187134 2.79371277 285.51187134 3.13371277 C283.51232388 3.17625633 281.51145497 3.1745206 279.51187134 3.13371277 C279.18187134 2.80371277 278.85187134 2.47371277 278.51187134 2.13371277 C276.97080676 2.03500542 275.42521204 2.00631945 273.88099003 2.00507832 C272.87353106 2.00185387 271.86607208 1.99862942 270.82808405 1.99530727 C269.70787708 1.99685587 268.5876701 1.99840447 267.43351746 2 C266.25392753 1.99773444 265.07433761 1.99546889 263.85900253 1.99313468 C260.57005027 1.98787632 257.28115242 1.98715372 253.99219978 1.98832905 C250.45090136 1.98853232 246.90961124 1.98302144 243.36831665 1.97827148 C236.42480233 1.96994824 229.4812965 1.96721589 222.53777761 1.96665911 C216.89660756 1.96618474 211.25544032 1.964134 205.61427116 1.96095848 C189.63776351 1.95214739 173.66126258 1.94753982 157.68475247 1.94828895 C156.8226016 1.94832891 155.96045073 1.94836887 155.07217407 1.94841003 C153.77737775 1.94847136 153.77737775 1.94847136 152.45642393 1.94853391 C138.46103057 1.94894053 124.46566409 1.9393683 110.47027851 1.92527167 C96.11681776 1.91092788 81.76337014 1.90400038 67.40990204 1.90486544 C59.34471912 1.9051981 51.27956438 1.90242096 43.21438789 1.89168739 C36.34834315 1.88260861 29.48233936 1.88038543 22.61629123 1.88719682 C19.11027151 1.89047535 15.60433048 1.89047107 12.0983181 1.88184357 C8.30457798 1.87260369 4.51095448 1.87871973 0.71720886 1.88647461 C-0.40076739 1.88133105 -1.51874365 1.87618748 -2.67059797 1.87088805 C-4.18569805 1.87778625 -4.18569805 1.87778625 -5.73140621 1.8848238 C-7.04632405 1.88449775 -7.04632405 1.88449775 -8.38780588 1.88416511 C-10.70697423 1.94006459 -10.70697423 1.94006459 -12.48812866 4.13371277 C-14.65536499 4.63615417 -14.65536499 4.63615417 -17.32015991 4.98527527 C-18.76552124 5.17863464 -18.76552124 5.17863464 -20.24008179 5.37590027 C-21.25006226 5.50222839 -22.26004272 5.62855652 -23.30062866 5.75871277 C-24.29900757 5.89277527 -25.29738647 6.02683777 -26.32601929 6.16496277 C-30.75127647 6.74281114 -35.01903332 7.20902614 -39.48812866 7.13371277 C-37.22250193 4.86808604 -35.64652161 4.18908528 -32.44515991 4.03605652 C-31.7374646 4.04765808 -31.02976929 4.05925964 -30.30062866 4.07121277 C-28.41344116 4.10215027 -28.41344116 4.10215027 -26.48812866 4.13371277 C-26.48812866 3.47371277 -26.48812866 2.81371277 -26.48812866 2.13371277 C-19.21146006 -1.50462153 -7.99109389 -0.01127966 0 0 Z " fill="#7E7E7E" transform="translate(153.48812866210938,122.86628723144531)"/>
<path d="M0 0 C36.69773345 -0.04577387 73.39546259 -0.0810174 110.09321881 -0.10213066 C114.42534579 -0.10463208 118.75747271 -0.10722073 123.08959961 -0.10986328 C123.95205111 -0.1103879 124.8145026 -0.11091252 125.70308899 -0.11145304 C139.66929918 -0.12015656 153.63549291 -0.13592626 167.60169334 -0.15430559 C181.93141336 -0.17300609 196.26112477 -0.18411704 210.59085649 -0.18817699 C219.43364699 -0.19092173 228.27639096 -0.19959207 237.11916714 -0.21583293 C243.18230328 -0.22640166 249.24541534 -0.22960087 255.30856002 -0.22700275 C258.80709447 -0.22572129 262.3055476 -0.22769116 265.80406761 -0.23841095 C269.59833051 -0.24834195 273.39239337 -0.24597542 277.18666077 -0.24050903 C278.84280202 -0.24924756 278.84280202 -0.24924756 280.53240067 -0.25816262 C286.12265891 -0.23635181 290.70666343 0.21088856 296 2 C299.40535383 2.33861145 302.78917753 2.49892647 306.20703125 2.65625 C309 3 309 3 311 5 C313.32275177 5.40047444 315.65739357 5.7397104 318 6 C317.67 7.32 317.34 8.64 317 10 C316.48050781 9.72285156 315.96101563 9.44570312 315.42578125 9.16015625 C314.37970703 8.61681641 314.37970703 8.61681641 313.3125 8.0625 C312.62800781 7.70285156 311.94351562 7.34320313 311.23828125 6.97265625 C305.82471219 4.62016289 300.08752483 4.71004625 294.26367188 4.48242188 C289.21623884 4.21623884 289.21623884 4.21623884 287 2 C284.82533624 1.69283182 284.82533624 1.69283182 282.27171898 1.73828697 C280.76614404 1.72708873 280.76614404 1.72708873 279.23015344 1.71566427 C278.11927696 1.717599 277.00840049 1.71953374 275.86386108 1.7215271 C274.69017271 1.7157347 273.51648433 1.7099423 272.30722964 1.70397437 C269.03946369 1.68986462 265.77182242 1.68474051 262.5040307 1.68332577 C258.98389881 1.67964183 255.46381456 1.66449147 251.94371033 1.65071106 C245.84158193 1.62840262 239.73947042 1.61341094 233.63731003 1.60334396 C224.81454218 1.58877818 215.99183309 1.56324735 207.16909964 1.53501268 C192.85591269 1.48950639 178.5427173 1.45290748 164.22949219 1.421875 C150.32290158 1.39170514 136.41633164 1.3573621 122.50976562 1.31738281 C121.2246522 1.31369049 121.2246522 1.31369049 119.91357689 1.30992357 C115.6156895 1.29754928 111.31780237 1.28509269 107.01991534 1.27259517 C71.34663858 1.16896994 35.67333774 1.07978568 0 1 C0 0.67 0 0.34 0 0 Z " fill="#EBEBEB" transform="translate(143,124)"/>
<path d="M0 0 C1.88856977 0.00186882 3.77714002 0.00329053 5.66571045 0.00428772 C10.59752784 0.00807637 15.52931502 0.01787478 20.46112061 0.0289917 C25.5092325 0.03928502 30.55734935 0.04380219 35.60546875 0.04882812 C45.48178399 0.0595009 55.35807697 0.07653258 65.234375 0.09765625 C65.234375 0.42765625 65.234375 0.75765625 65.234375 1.09765625 C64.1989859 1.1057431 63.1635968 1.11382996 62.09683228 1.12216187 C52.35525659 1.19953361 42.61382212 1.28724986 32.8724308 1.38518333 C27.86387545 1.43520111 22.85534177 1.4815305 17.84667969 1.51953125 C13.01608807 1.55631502 8.18567531 1.60265577 3.35523605 1.65571976 C1.50922141 1.67430056 -0.33683162 1.68939479 -2.18290329 1.70100021 C-4.7619344 1.71779988 -7.34055257 1.74681892 -9.91943359 1.77880859 C-11.07281471 1.78204887 -11.07281471 1.78204887 -12.24949646 1.78535461 C-16.46644268 1.71175414 -16.46644268 1.71175414 -19.765625 4.09765625 C-21.93286133 4.60009766 -21.93286133 4.60009766 -24.59765625 4.94921875 C-26.04301758 5.14257812 -26.04301758 5.14257812 -27.51757812 5.33984375 C-28.52755859 5.46617187 -29.53753906 5.5925 -30.578125 5.72265625 C-31.57650391 5.85671875 -32.57488281 5.99078125 -33.60351562 6.12890625 C-38.02877281 6.70675462 -42.29652966 7.17296962 -46.765625 7.09765625 C-44.49999827 4.83202952 -42.92401795 4.15302876 -39.72265625 4 C-39.01496094 4.01160156 -38.30726562 4.02320312 -37.578125 4.03515625 C-35.6909375 4.06609375 -35.6909375 4.06609375 -33.765625 4.09765625 C-33.765625 3.43765625 -33.765625 2.77765625 -33.765625 2.09765625 C-24.78327751 -2.39351749 -9.92291808 -0.02907789 0 0 Z " fill="#818181" transform="translate(160.765625,122.90234375)"/>
<path d="M0 0 C8.8755701 -0.04643505 17.75109807 -0.08192582 26.62676334 -0.10362434 C30.74853381 -0.11404097 34.87022088 -0.12816123 38.99194336 -0.15087891 C42.9730708 -0.17268319 46.95411826 -0.18458457 50.93530083 -0.18975449 C52.45067033 -0.19343666 53.96603568 -0.20062694 55.48137093 -0.21146011 C57.61145456 -0.22607614 59.74121181 -0.22797377 61.87133789 -0.22705078 C63.0815712 -0.231492 64.2918045 -0.23593323 65.53871155 -0.24050903 C69.26399106 0.01834353 72.44008198 0.90357508 76 2 C79.40535383 2.33861145 82.78917753 2.49892647 86.20703125 2.65625 C89 3 89 3 91 5 C93.32275177 5.40047444 95.65739357 5.7397104 98 6 C97.67 7.32 97.34 8.64 97 10 C96.48050781 9.72285156 95.96101563 9.44570312 95.42578125 9.16015625 C94.72839844 8.79792969 94.03101563 8.43570313 93.3125 8.0625 C92.28576172 7.52302734 92.28576172 7.52302734 91.23828125 6.97265625 C85.82471219 4.62016289 80.08752483 4.71004625 74.26367188 4.48242188 C69.21623884 4.21623884 69.21623884 4.21623884 67 2 C64.08625621 1.66715709 64.08625621 1.66715709 60.62255859 1.68115234 C59.96877731 1.67110672 59.31499603 1.6610611 58.6414032 1.65071106 C56.47709038 1.61978211 54.31290177 1.60281746 52.1484375 1.5859375 C50.64912846 1.5672336 49.14983002 1.54766078 47.65054321 1.5272522 C43.70176438 1.47584247 39.75295137 1.43626432 35.80401611 1.39910889 C31.77550749 1.35912444 27.74714206 1.30800683 23.71875 1.2578125 C15.81259767 1.16094864 7.90637471 1.0765776 0 1 C0 0.67 0 0.34 0 0 Z " fill="#E8E8E8" transform="translate(363,124)"/>
<path d="M0 0 C0.33 0 0.66 0 1 0 C1.00808685 0.88283157 1.01617371 1.76566315 1.02450562 2.67524719 C1.1023982 10.98906081 1.18967265 19.30271131 1.28752708 27.61631489 C1.33750482 31.89057981 1.38383465 36.16481983 1.421875 40.43920898 C1.45870926 44.56308282 1.50506399 48.68674913 1.55806351 52.81044579 C1.57661738 54.38489332 1.59172168 55.95938535 1.60334396 57.53389931 C1.62018966 59.73676498 1.64921977 61.93915434 1.68115234 64.1418457 C1.69447601 65.39649124 1.70779968 66.65113678 1.7215271 67.94380188 C1.77081277 71.17287194 1.77081277 71.17287194 4 74 C4.07905064 76.33199388 4.08798769 78.66832622 4 81 C4.5775 81.0825 5.155 81.165 5.75 81.25 C8.67794601 82.225982 10.05244537 83.63511223 12 86 C12 86.99 12 87.98 12 89 C15.3 89 18.6 89 22 89 C21.67 89.66 21.34 90.32 21 91 C11.89154362 90.65234899 11.89154362 90.65234899 8.4375 88.125 C7 86 7 86 6 83 C5.01 82.67 4.02 82.34 3 82 C2.3046875 79.96875 2.3046875 79.96875 1.875 77.5 C1.52112584 74.46069634 1.52112584 74.46069634 0 72 C-0.09436529 69.76070114 -0.11742327 67.5183825 -0.11352539 65.27709961 C-0.11367142 64.5746965 -0.11381744 63.8722934 -0.1139679 63.14860535 C-0.11326872 60.81648722 -0.10547617 58.484448 -0.09765625 56.15234375 C-0.09579208 54.53951562 -0.09436818 52.92668693 -0.09336853 51.31385803 C-0.08954323 47.06084643 -0.07971285 42.80786876 -0.06866455 38.55487061 C-0.05845069 34.2182257 -0.05387096 29.88157533 -0.04882812 25.54492188 C-0.03809059 17.02993231 -0.02101403 8.51497037 0 0 Z " fill="#D8D8D8" transform="translate(388,259)"/>
<path d="M0 0 C-0.98872458 2.69652159 -1.59212453 3.79023547 -4.1875 5.125 C-7.44359346 6.13800685 -10.71893453 7.07139657 -14 8 C-14.66 8.33 -15.32 8.66 -16 9 C-18.55362604 9.08658569 -21.0795442 9.11562516 -23.6328125 9.09765625 C-24.76056595 9.09553383 -24.76056595 9.09553383 -25.91110229 9.09336853 C-28.3157751 9.08776465 -30.72035527 9.07521157 -33.125 9.0625 C-34.75390491 9.0574855 -36.38281127 9.0529225 -38.01171875 9.04882812 C-42.00784827 9.03779397 -46.00390842 9.02052679 -50 9 C-50.33 8.34 -50.66 7.68 -51 7 C-49.94611084 6.98018066 -48.89222168 6.96036133 -47.80639648 6.93994141 C-43.87192111 6.86349313 -39.93779677 6.77483823 -36.00366211 6.68261719 C-34.30549076 6.64448871 -32.60724308 6.60960854 -30.90893555 6.578125 C-28.45854533 6.53212178 -26.00867333 6.47418849 -23.55859375 6.4140625 C-22.80726669 6.40251129 -22.05593964 6.39096008 -21.28184509 6.37905884 C-16.55439925 6.24863605 -12.55018351 5.40596548 -8 4 C-7.01 4 -6.02 4 -5 4 C-5 3.01 -5 2.02 -5 1 C-3 0 -3 0 0 0 Z " fill="#A9A9A9" transform="translate(461,344)"/>
<path d="M0 0 C1.28132813 0.00902344 2.56265625 0.01804687 3.8828125 0.02734375 C4.87023437 0.03894531 5.85765625 0.05054687 6.875 0.0625 C4.875 3.0625 4.875 3.0625 2.70776367 3.6784668 C1.82838135 3.78843994 0.94899902 3.89841309 0.04296875 4.01171875 C-1.40239258 4.20024414 -1.40239258 4.20024414 -2.87695312 4.39257812 C-3.88693359 4.51052734 -4.89691406 4.62847656 -5.9375 4.75 C-6.93587891 4.87955078 -7.93425781 5.00910156 -8.96289062 5.14257812 C-13.38410982 5.69928061 -17.66362202 6.13317232 -22.125 6.0625 C-19.85937327 3.79687327 -18.28339295 3.11787251 -15.08203125 2.96484375 C-14.37433594 2.97644531 -13.66664062 2.98804687 -12.9375 3 C-11.0503125 3.0309375 -11.0503125 3.0309375 -9.125 3.0625 C-9.125 2.4025 -9.125 1.7425 -9.125 1.0625 C-6.12186252 -0.43906874 -3.33432478 -0.03031204 0 0 Z " fill="#A7A7A7" transform="translate(136.125,123.9375)"/>
<path d="M0 0 C1.32 0.33 2.64 0.66 4 1 C3.01 1 2.02 1 1 1 C1 1.99 1 2.98 1 4 C0.01 4 -0.98 4 -2 4 C-2.33 5.65 -2.66 7.3 -3 9 C-3.99 9 -4.98 9 -6 9 C-6.33 9.99 -6.66 10.98 -7 12 C-14.5 13.5 -14.5 13.5 -22 15 C-20.5625 13 -20.5625 13 -18 11 C-14.97175582 10.64557555 -12.03514061 10.76652765 -9 11 C-9 10.34 -9 9.68 -9 9 C-8.34 9 -7.68 9 -7 9 C-7 8.34 -7 7.68 -7 7 C-6.01 7 -5.02 7 -4 7 C-3.67 5.68 -3.34 4.36 -3 3 C-2.34 3 -1.68 3 -1 3 C-0.67 2.01 -0.34 1.02 0 0 Z " fill="#717171" transform="translate(96,337)"/>
<path d="M0 0 C1.051875 0.309375 2.10375 0.61875 3.1875 0.9375 C8.15942135 2.21395377 13.13013485 2.41903178 18.2421875 2.65625 C21 3 21 3 23 5 C25.32275177 5.40047444 27.65739357 5.7397104 30 6 C29.67 7.32 29.34 8.64 29 10 C28.48050781 9.72285156 27.96101563 9.44570312 27.42578125 9.16015625 C26.72839844 8.79792969 26.03101563 8.43570313 25.3125 8.0625 C24.62800781 7.70285156 23.94351562 7.34320313 23.23828125 6.97265625 C18.41973622 4.87873354 13.37320829 4.74020642 8.1875 4.4375 C7.14819336 4.37272461 7.14819336 4.37272461 6.08789062 4.30664062 C4.39211314 4.20138547 2.69607948 4.10027137 1 4 C0.67 2.68 0.34 1.36 0 0 Z " fill="#C1C1C1" transform="translate(431,124)"/>
<path d="M0 0 C0.99 0.33 1.98 0.66 3 1 C2.34 4.3 1.68 7.6 1 11 C-0.32 11 -1.64 11 -3 11 C-3 13.64 -3 16.28 -3 19 C-3.66 19 -4.32 19 -5 19 C-5.3152595 13.01006953 -4.68219822 9.36439644 -2 4 C-1.34 4 -0.68 4 0 4 C0 2.68 0 1.36 0 0 Z " fill="#5A5A5A" transform="translate(45,271)"/>
<path d="M0 0 C0.33 0 0.66 0 1 0 C1.19393328 4.8483321 0.76729585 8.48357727 -1 13 C-1.4640625 14.3921875 -1.4640625 14.3921875 -1.9375 15.8125 C-2.288125 16.534375 -2.63875 17.25625 -3 18 C-3.99 18.33 -4.98 18.66 -6 19 C-6 20.65 -6 22.3 -6 24 C-6.33 24 -6.66 24 -7 24 C-7.25 17.375 -7.25 17.375 -5 14 C-4.60612212 11.67612053 -4.26513915 9.34206251 -4 7 C-2.68 6.67 -1.36 6.34 0 6 C0 4.02 0 2.04 0 0 Z " fill="#B2B2B2" transform="translate(90,157)"/>
<path d="M0 0 C0.33 0.99 0.66 1.98 1 3 C-0.32 3 -1.64 3 -3 3 C-3.33 3.99 -3.66 4.98 -4 6 C-4.66 6 -5.32 6 -6 6 C-6.1546875 7.1446875 -6.1546875 7.1446875 -6.3125 8.3125 C-7.04711194 11.18416484 -7.6716065 12.23042094 -10 14 C-10.66 14 -11.32 14 -12 14 C-12.33 16.31 -12.66 18.62 -13 21 C-13.66 20.67 -14.32 20.34 -15 20 C-14.67 17.69 -14.34 15.38 -14 13 C-13.01 13 -12.02 13 -11 13 C-11 12.01 -11 11.02 -11 10 C-9.68 9.67 -8.36 9.34 -7 9 C-7.04125 8.21625 -7.0825 7.4325 -7.125 6.625 C-7 4 -7 4 -5 2 C-3.35008418 1.29289322 -1.68437744 0.62056011 0 0 Z " fill="#ADADAD" transform="translate(108,132)"/>
<path d="M0 0 C3 1 3 1 4 3 C4.04022391 5.3329866 4.04320247 7.66706666 4 10 C4.86625 10.12375 4.86625 10.12375 5.75 10.25 C8.67794601 11.225982 10.05244537 12.63511223 12 15 C12 15.99 12 16.98 12 18 C15.3 18 18.6 18 22 18 C21.67 18.66 21.34 19.32 21 20 C11.89154362 19.65234899 11.89154362 19.65234899 8.4375 17.125 C7 15 7 15 6 12 C5.01 11.67 4.02 11.34 3 11 C2.3046875 9.00390625 2.3046875 9.00390625 1.875 6.5625 C1.26876383 3.1726922 1.26876383 3.1726922 0 0 Z " fill="#A6A6A6" transform="translate(388,330)"/>
<path d="M0 0 C0.99 0 1.98 0 3 0 C3.15855469 0.83144531 3.31710938 1.66289062 3.48046875 2.51953125 C3.71378906 3.60621094 3.94710938 4.69289063 4.1875 5.8125 C4.40792969 6.89144531 4.62835937 7.97039062 4.85546875 9.08203125 C6.2421505 12.61735982 7.62212068 13.42439344 11 15 C10.67 15.99 10.34 16.98 10 18 C10 17.34 10 16.68 10 16 C9.401875 15.87625 8.80375 15.7525 8.1875 15.625 C6 15 6 15 3 13 C2.204869 10.30538938 1.54510461 7.74124722 1 5 C0.79375 4.01 0.5875 3.02 0.375 2 C0.25125 1.34 0.1275 0.68 0 0 Z " fill="#939393" transform="translate(24,330)"/>
<path d="M0 0 C0.33 0 0.66 0 1 0 C1.02696365 1.79158489 1.04637917 3.58328473 1.0625 5.375 C1.07410156 6.37273437 1.08570312 7.37046875 1.09765625 8.3984375 C1 11 1 11 0 13 C-0.66 13 -1.32 13 -2 13 C-2 14.65 -2 16.3 -2 18 C-3.32 18.33 -4.64 18.66 -6 19 C-6 20.98 -6 22.96 -6 25 C-6.33 25 -6.66 25 -7 25 C-7 22.69 -7 20.38 -7 18 C-6.01 18 -5.02 18 -4 18 C-4 15.69 -4 13.38 -4 11 C-2.68 10.67 -1.36 10.34 0 10 C0 6.7 0 3.4 0 0 Z " fill="#838383" transform="translate(107,312)"/>
<path d="M0 0 C0.66 0 1.32 0 2 0 C1.67 2.64 1.34 5.28 1 8 C0.01 8 -0.98 8 -2 8 C-2.33 11.3 -2.66 14.6 -3 18 C-3.99 17.67 -4.98 17.34 -6 17 C-5.34 13.7 -4.68 10.4 -4 7 C-2.68 7 -1.36 7 0 7 C0 4.69 0 2.38 0 0 Z " fill="#6D6D6D" transform="translate(126,264)"/>
<path d="M0 0 C0.33 0 0.66 0 1 0 C1 3.63 1 7.26 1 11 C-0.32 11 -1.64 11 -3 11 C-3 13.31 -3 15.62 -3 18 C-3.66 18 -4.32 18 -5 18 C-4.51030705 11.38914524 -2.66557258 6.05022986 0 0 Z " fill="#545454" transform="translate(56,242)"/>
<path d="M0 0 C0.66 0 1.32 0 2 0 C1.67 3.96 1.34 7.92 1 12 C0.34 12 -0.32 12 -1 12 C-1 13.98 -1 15.96 -1 18 C-1.66 18 -2.32 18 -3 18 C-3 15.36 -3 12.72 -3 10 C-2.01 10 -1.02 10 0 10 C0 6.7 0 3.4 0 0 Z " fill="#787878" transform="translate(118,282)"/>
<path d="M0 0 C0.33 0 0.66 0 1 0 C0.125 6.875 0.125 6.875 -1 8 C-1.36760731 10.32817964 -1.70241581 12.6618385 -2 15 C-2.66 15 -3.32 15 -4 15 C-4.125 7.25 -4.125 7.25 -3 5 C-2.34 5 -1.68 5 -1 5 C-0.67 3.35 -0.34 1.7 0 0 Z " fill="#303030" transform="translate(85,166)"/>
<path d="M0 0 C-0.97288089 2.65331153 -1.58952739 3.78269097 -4.125 5.125 C-7.72518605 6.2207088 -11.33810253 7.13107518 -15 8 C-14.67 7.01 -14.34 6.02 -14 5 C-9.545 4.505 -9.545 4.505 -5 4 C-5 3.01 -5 2.02 -5 1 C-3 0 -3 0 0 0 Z " fill="#999999" transform="translate(461,344)"/>
<path d="M0 0 C0.33 0 0.66 0 1 0 C1 3.63 1 7.26 1 11 C0.01 11 -0.98 11 -2 11 C-2.33 12.98 -2.66 14.96 -3 17 C-3.33 17 -3.66 17 -4 17 C-4.33503046 12.19789671 -3.510669 10.0170704 -1 6 C-0.28598768 2.80604974 -0.28598768 2.80604974 0 0 Z " fill="#424242" transform="translate(153,186)"/>
<path d="M0 0 C1.99954746 -0.04254356 4.00041636 -0.04080783 6 0 C6.33 0.33 6.66 0.66 7 1 C9.32817964 1.36760731 11.6618385 1.70241581 14 2 C13.67 3.32 13.34 4.64 13 6 C12.48050781 5.72285156 11.96101563 5.44570312 11.42578125 5.16015625 C7.63783995 3.19266733 4.29300887 1.53662611 0 1 C0 0.67 0 0.34 0 0 Z " fill="#D8D8D8" transform="translate(447,128)"/>
<path d="M0 0 C0.33 0.99 0.66 1.98 1 3 C-0.32 3 -1.64 3 -3 3 C-3.33 3.99 -3.66 4.98 -4 6 C-4.66 6 -5.32 6 -6 6 C-6.33 6.66 -6.66 7.32 -7 8 C-6.875 5.6875 -6.875 5.6875 -6 3 C-2.9375 1.1875 -2.9375 1.1875 0 0 Z " fill="#7C7C7C" transform="translate(108,132)"/>
<path d="M0 0 C0.33 0.66 0.66 1.32 1 2 C0.06027344 2.19916016 0.06027344 2.19916016 -0.8984375 2.40234375 C-2.12433594 2.66724609 -2.12433594 2.66724609 -3.375 2.9375 C-4.18710938 3.11152344 -4.99921875 3.28554687 -5.8359375 3.46484375 C-8.029463 3.92330693 -8.029463 3.92330693 -10 5 C-10 3.68 -10 2.36 -10 1 C-6.7 0.67 -3.4 0.34 0 0 Z " fill="#E2E2E2" transform="translate(119,129)"/>
<path d="M0 0 C1.32 0 2.64 0 4 0 C2.25 5.75 2.25 5.75 0 8 C0 5.36 0 2.72 0 0 Z " fill="#2F2F2F" transform="translate(108,312)"/>
<path d="M0 0 C0.66 0.33 1.32 0.66 2 1 C0.515 4.96 0.515 4.96 -1 9 C-1.66 9 -2.32 9 -3 9 C-2.25 2.25 -2.25 2.25 0 0 Z " fill="#C1C1C1" transform="translate(149,195)"/>
</svg>
