<svg version="1.1" id="Layer_1" xmlns:x="ns_extend;" xmlns:i="ns_ai;" xmlns:graph="ns_graphs;" xmlns="http://www.w3.org/2000/svg" xmlns:xlink="http://www.w3.org/1999/xlink" x="0px" y="0px" viewBox="0 0 546.7 123.9" style="enable-background:new 0 0 546.7 123.9;" xml:space="preserve">
 <style type="text/css">
  .st0{fill:#FFFFFF;}
 </style>
 <metadata>
  <sfw xmlns="ns_sfw;">
   <slices>
   </slices>
   <sliceSourceBounds bottomLeftOrigin="true" height="123.9" width="546.7" x="-543.6" y="-381.6">
   </sliceSourceBounds>
  </sfw>
 </metadata>
 <g>
  <g>
   <path class="st0" d="M165.8,44.5h6.4l-3.3-8.5L165.8,44.5z M159.2,52.7l9.5-22.4h2.6l9.5,22.4h-4.9l-2.1-5.7h-8.5l-2.3,5.7H159.2
			L159.2,52.7z M181.5,51.7l-0.3-4.1c2.1,1.8,4.4,2.8,6.7,2.8c1.3,0,2.3-0.3,3.1-0.8c1.1-0.9,1.3-2.5,0.5-3.6
			c-0.1-0.1-0.1-0.2-0.2-0.2c-0.8-1-2.3-1.5-5.7-3.1c-3.1-1.5-4.6-3.6-4.6-6.4c0-1.8,0.8-3.3,2.1-4.6c2.8-2.6,7.7-1.5,8.2-1.5
			c1,0.3,1.8,0.5,2.6,0.8l0.3,3.9c-0.9-0.7-1.8-1.2-2.8-1.5c-3.1-1-6.4-0.3-6.4,2.3c0,1.3,0.8,2.1,2.6,3.1c3.9,2.1,5.9,2.8,7.2,4.6
			c1.8,2.1,1.8,6.4-1,8.5c-1.5,1-3.3,1.8-5.9,1.8C184.9,53.2,182.6,52.2,181.5,51.7L181.5,51.7z M202.9,52.7V32.9
			c-1.8,0-3.9,0.3-6.7,0.5l0.3-3.3h17.2l0.3,3.3c-3.6-0.5-5.7-0.5-6.7-0.5v19.5h-4.4L202.9,52.7L202.9,52.7z M225.2,50.4
			c3.6,0,6.7-2.8,6.7-9c0-0.5,0-5.4-3.1-8c-1-0.8-2.1-1-3.6-1c-4.6,0-6.7,4.4-6.7,9C218.8,47.6,221.9,50.4,225.2,50.4L225.2,50.4z
			 M225.2,53.2c-6.7,0-11.3-4.9-11.3-11.6c0-6.9,4.6-11.6,11.3-11.6c6.7,0,11.3,4.6,11.3,11.6C236.6,48.3,231.9,53.2,225.2,53.2
			L225.2,53.2z M240.2,52.7V30.3h2.3l13.4,15.2V30.3h3.1v22.4h-2.3l-13.4-15.2v15.2H240.2z M271,52.7l2.6-22.4h2.3l8,15.7l7.7-15.7
			h2.3l2.6,22.4h-4.6l-1.3-13.9l-6.2,12.9h-2.1l-6.4-12.9l-1.3,13.6H271L271,52.7L271,52.7z M304.7,44.5h6.4l-3.3-8.5L304.7,44.5
			L304.7,44.5z M298,52.7l9.5-22.4h2.6l9.5,22.4h-4.9l-2.1-5.7h-8.5l-2.3,5.7H298L298,52.7z M325.5,40.4c0.5,0,1.3,0.3,1.8,0.3
			c3.6,0,4.6-2.1,4.6-3.9c0-2.8-2.1-3.9-4.6-3.9h-1.5v7.5L325.5,40.4L325.5,40.4z M321.4,53V30.6c1.3-0.3,2.8-0.3,5.1-0.3
			c2.1,0,3.9,0.3,5.1,0.8c2.1,0.8,4.6,2.3,4.6,5.7c0,1.3-0.5,2.6-1.3,3.9c-0.8,1-2.1,1.8-3.6,2.3l8,10h-5.1l-6.9-9.5h-1.5V53H321.4
			L321.4,53z M344.6,52.7V32.9c-1.8,0-3.9,0.3-6.7,0.5l0.3-3.3h17.2l0.3,3.3c-3.6-0.5-5.7-0.5-6.7-0.5v19.5h-4.4L344.6,52.7
			L344.6,52.7z M358.4,30.3h4.4v22.4h-4.4V30.3z M367.2,52.7V30.3h2.3l13.4,15.2V30.3h3.1v22.4h-2.3l-13.4-15.2v15.2H367.2z">
   </path>
   <path class="st0" d="M545.7,4.1c-1.5-2.6-4.4-4.1-7.7-4.1H317.6c-3.6,0-9.3,0-15.2,5.9c-1.6,1.6-2.9,3.4-3.9,5.4
			c-1.8,3.3-3.1,5.7-9.3,5.7h-32.1c-5.9,0-7.5-2.3-9.3-5.7c-1-1.8-2.1-3.6-3.9-5.4C238.1,0,232.4,0,228.8,0H8.7C5.1,0,2.3,1.5,1,4.1
			c-1.5,2.6-1.3,5.9,0.5,8.7l3.9,6.7c2.1,3.6,4.9,4.1,6.9,4.6c1.8,0.3,3.1,0.5,4.4,3.1l3.6,6.2c2.8,5.1,5.9,5.7,8.2,6.2
			c1.8,0.3,3.6,0.5,5.9,4.6c2.3,4.1,5.7,10.3,14.1,12.9c0.8,0.3,82,23.9,82.3,23.9c8.5,2.8,10.8,5.9,13.4,9.8
			c1.5,2.3,5.9,8.5,16.2,11.3l78.2,21.1c8.5,2.3,13.6-1.8,16.2-4.1l14.1-13.4c2.1-1.8,3.1-2.6,4.4-2.6c1.3,0,2.3,0.8,4.4,2.6
			l14.1,13.4c2.6,2.1,7.7,6.2,16.2,4.1l78.2-21.1c10.5-2.8,14.7-9,16.2-11.3c2.6-3.9,4.9-7.2,13.4-9.8c0,0,81.3-23.7,82.3-23.9
			c8.2-2.6,11.8-8.7,14.1-12.9c2.3-4.1,3.9-4.4,5.7-4.6c2.3-0.5,5.7-1,8.5-6.2l3.6-6.2c1.5-2.6,2.6-2.8,4.4-3.1
			c2.1-0.5,4.9-1,6.9-4.6l3.9-6.7C546.9,9.8,547.2,6.7,545.7,4.1L545.7,4.1z M395.2,22.1v38.6H151.4V22.1L395.2,22.1L395.2,22.1z
			 M307.8,117.5c-5.9,0-8-5.1-9.5-9.3c-1.8-4.6-11.3-35-14.1-43.2h12.1c6.4,11.1,18.3,30.6,23.4,38.8c1,1.5,3.6,5.9,8.2,8.7
			C309.3,117.5,309.8,117.5,307.8,117.5z M336.3,109.8c-6.7,0-10.3-5.1-12.3-8.5c-4.4-6.9-14.4-23.7-21.9-36.3h13.4
			c8.5,9,26.2,27.8,33.2,35c1,1,3.3,3.3,6.7,5.4C338.9,109.5,338.9,109.8,336.3,109.8L336.3,109.8z M363.6,102.3
			c-5.1,0-9-3.6-11.6-6.2c-6.2-6.2-20.8-21.6-29.8-31.4h14.7c9.3,6.9,30.6,22.6,39.1,28.3c2.6,1.7,5.3,3.1,8.2,4.1
			C365.1,102.3,365.6,102.3,363.6,102.3L363.6,102.3z M398,87.9c-2.3,3.6-4.1,5.4-8.2,5.4c-3.9,0-7.7-1.8-11.1-4.1
			c-6.9-4.9-23.1-16.5-33.4-24.2h17.5c21.3,10.5,30.3,15.4,36.3,17.2l3.1,0.8C400.4,84.3,399.3,86.1,398,87.9z M404.5,77.9
			c-4.9,0-11.3-3.3-30.9-13.1h19l26.7,6.7c1.8,0.5,3.6,0.8,5.1,1.3C409.4,77.4,407,77.9,404.5,77.9z M456.4,63.5
			c-15.7,4.6-18.3,5.7-22.6,5.7c-3.1,0-6.9-0.5-13.4-2.3l-21.1-5.4V54L456.4,63.5L456.4,63.5z M472.9,58.9c-5.1,1.3-9.8,0.8-17-0.5
			l-56.1-9.3v-5.9l91.8,10.3L472.9,58.9L472.9,58.9z M507.3,41.7c-0.8,1.3-1.5,2.6-2.3,3.6c-3.1,4.4-5.1,4.1-14.9,3.1l-90.8-10.3
			v-5.7L504,38.6c0.8,0,2.8,0.3,5.1,0.3C508.6,39.6,507.8,40.6,507.3,41.7L507.3,41.7z M525.1,24.4c0,0-2.1,3.3-2.8,5.1
			c-3.1,4.9-4.6,4.9-13.4,4.1l-109.3-6.4v-4.6h126.8C525.9,23.4,525.6,23.9,525.1,24.4z M540.8,10l-2.8,4.9
			c-2.1,3.1-2.8,3.1-9.5,3.1H300.8c2.3-2.8,3.1-5.7,5.7-8.2c4.4-4.4,8-4.4,11.3-4.4h220.4c1.5,0,2.6,0.5,3.1,1.3
			C541.5,7.5,541.5,8.7,540.8,10L540.8,10z M250.2,116.2c1-1.3,1.8-3.1,3.1-6.2c1.8-4.6,11.8-36.3,14.7-45H279
			c2.8,9,12.9,40.4,14.7,45c1,3.1,2.1,4.9,3.1,6.2c-0.3-0.3-0.8-0.5-1-0.8l-14.1-13.4c-2.3-2.1-4.6-4.1-8-4.1c-3.3,0-5.9,2.1-8,4.1
			l-14.1,13.4C251,115.7,250.4,116,250.2,116.2L250.2,116.2z M218.8,112.4c4.6-2.8,7.5-7.2,8.2-8.7c5.1-8,17-27.8,23.4-38.8h12.1
			c-2.6,8.2-12.3,38.6-14.1,43.2c-1.5,4.1-3.6,9.3-9.5,9.3C236.8,117.5,237.3,117.5,218.8,112.4L218.8,112.4z M191.6,105.2
			c3.3-1.8,5.7-4.1,6.7-5.4c6.9-6.9,24.9-26,33.2-35h13.4c-7.5,12.6-17.5,29.3-21.9,36.3c-2.1,3.3-5.7,8.5-12.3,8.5
			C208,109.8,207.8,109.5,191.6,105.2L191.6,105.2z M162.8,97.2c3.6-1,6.7-3.1,8.2-4.1c8.5-5.7,29.8-21.3,39.1-28.3h14.7
			c-9,9.8-23.7,25.2-29.8,31.4c-2.6,2.6-6.2,6.2-11.6,6.2C181.3,102.3,181.5,102.3,162.8,97.2L162.8,97.2z M144.8,82.8
			c1-0.3,2.1-0.3,3.1-0.8c6.2-1.8,15.2-6.4,36.3-17.2h17.5C191,72.5,175.1,84.1,168.2,89c-3.1,2.3-7.2,4.1-11.1,4.1
			c-4.1,0-5.9-1.8-8.2-5.4C147.6,86.1,146.3,84.3,144.8,82.8L144.8,82.8z M122.4,73c1.5-0.3,3.3-0.8,5.1-1.3l26.7-6.7h19
			c-19.5,9.8-26,13.1-30.9,13.1C139.6,77.9,137.3,77.4,122.4,73z M147.3,54v7.5l-21.1,5.4c-6.4,1.5-10.3,2.3-13.4,2.3
			c-4.4,0-6.9-1-22.6-5.7L147.3,54L147.3,54z M55.5,53.5l91.8-10.3v5.9l-56.1,9.3c-7.5,1.3-12.1,1.8-17,0.5L55.5,53.5L55.5,53.5z
			 M37.5,38.8c2.1-0.3,4.4-0.3,5.1-0.3l104.7-6.2v5.7L56.6,48.3c-9.8,1-11.8,1.3-14.9-3.1c-0.8-1-1.5-2.3-2.3-3.6
			C38.8,40.6,38.3,39.6,37.5,38.8L37.5,38.8z M20.6,22.9h126.8v4.6L38,33.9c-8.7,0.5-10.3,0.8-13.4-4.1c-1-1.7-1.9-3.4-2.8-5.1
			C21.3,23.9,20.8,23.4,20.6,22.9z M5.6,6.7c0.5-0.8,1.5-1.3,3.1-1.3h220.4c3.3,0,7.2,0,11.3,4.4c2.6,2.6,3.3,5.4,5.7,8.2H18.5
			c-6.7,0-7.5,0-9.5-3.1L6.2,10C5.4,8.7,5.1,7.5,5.6,6.7L5.6,6.7z">
   </path>
  </g>
 </g>
</svg>