<svg version="1.1" id="Layer_1" xmlns:x="ns_extend;" xmlns:i="ns_ai;" xmlns:graph="ns_graphs;" xmlns="http://www.w3.org/2000/svg" xmlns:xlink="http://www.w3.org/1999/xlink" x="0px" y="0px" viewBox="0 0 111.5 42" style="enable-background:new 0 0 111.5 42;" xml:space="preserve">
 <style type="text/css">
  .st0{fill:#FFFFFF;}
 </style>
 <metadata>
  <sfw xmlns="ns_sfw;">
   <slices>
   </slices>
   <sliceSourceBounds bottomLeftOrigin="true" height="42" width="111.5" x="-10.5" y="15">
   </sliceSourceBounds>
  </sfw>
 </metadata>
 <g id="CADILLAC_2DCREST">
  <g id="CADILLAC_2DCREST_POS_RGB" transform="translate(0.000000, 15.957231)">
   <path id="Shape" class="st0" d="M24.4,3.1h-9.6l-0.7-4.4h41.1v4.4H54v-3.4H24L24.4,3.1z M13.9-2.3h41.3v-3.2H13.4L13.9-2.3z
			 M39.7,8.5h15.5V6.2H39.7L39.7,8.5z M12.9-6.5h9.8l-1.8-3.2H54v3.2h1.1v-4.3H9.9L12.9-6.5z M72-10.9H56.4v6.5H72L72-10.9z
			 M17,14.1c0.3,0.4,0.7,0.8,2.3,1.3c0.8,0.2,1.6,0.4,2.8,0.6h16.6v-2.3H16.8C16.9,13.8,16.9,13.9,17,14.1L17,14.1z M16.1,10.6h22.5
			V4.1H15L16.1,10.6z M39.7,19.6c5.8,1.1,11.4,2.2,15.5,2.8V11.6H39.7V19.6z M73,3.1h23.7l1.1-6.5H73V3.1z M73-8.8v2.3l25.5,0
			l1.6-2.3H73z M111.5-16L104-5.4c-0.8,4.5-3,16.1-3.2,17.2c-0.7,3.2-1,5.2-7.4,6.7c-8.5,2-27.9,5.9-37.6,7.4
			c-9.7-1.5-29.1-5.4-37.6-7.4c-6.4-1.5-6.7-3.5-7.4-6.7C10.5,10.7,8.3-0.9,7.5-5.4L0-16H111.5z M105.6-14H5.9l5.9,8.5
			c1.5,8.8,2.4,14.4,2.8,16.4c0.7,3.4,0.8,4.9,4.3,5.9c7,1.7,27.4,5.9,36.8,7.3c9.4-1.4,29.8-5.6,36.8-7.3c3.5-1,3.7-2.4,4.3-5.9
			c0.4-2,1.3-7.6,2.8-16.4L105.6-14z M56.4,8.5h1.1V5.2H87c0,0.3-0.3,2.5-0.5,3.3h9.3l0.7-4.4H56.4V8.5z M56.4,12.7H95l0.6-3.2H56.4
			V12.7z M72-1.3H56.4V1H72V-1.3z M56.4,13.7h38.4c-0.1,0.1-0.1,0.3-0.2,0.4c-0.3,0.4-0.7,0.9-2.3,1.2c-6.9,1.7-26,5.5-35.9,7.1
			V13.7z M57.5,21.1c1.8-0.3,6.1-1.1,7.6-1.4c15.7-3,18.4-3.5,19.7-5H57.5V21.1z">
   </path>
  </g>
 </g>
</svg>