<?xml version="1.0" encoding="UTF-8"?>
<svg version="1.1" xmlns="http://www.w3.org/2000/svg" width="139" height="139">
<path d="M0 0 C3.57927555 3.45390688 4.15092639 6.01652564 4.49609375 10.9453125 C4.50481795 12.41013953 4.49879971 13.87510544 4.48046875 15.33984375 C4.47370117 16.12721924 4.46693359 16.91459473 4.45996094 17.72583008 C4.03602273 42.53853928 -1.72703621 68.90165288 -16.76953125 89.15234375 C-17.15931152 89.67908691 -17.5490918 90.20583008 -17.95068359 90.74853516 C-20.82092865 94.60684301 -23.77656221 98.38861011 -26.76953125 102.15234375 C-27.29289062 102.83296875 -27.81625 103.51359375 -28.35546875 104.21484375 C-35.53868141 113.18347922 -46.27088557 121.39035857 -56.76953125 126.15234375 C-69.76434077 125.59853147 -82.36242386 109.9377252 -90.70703125 100.90234375 C-97.38434953 93.51779598 -102.21076423 86.00307972 -106.76953125 77.15234375 C-107.26582031 76.22035156 -107.76210937 75.28835937 -108.2734375 74.328125 C-117.29388288 56.31078632 -120.70691258 36.11840327 -121.26953125 16.15234375 C-121.33406494 14.82481079 -121.33406494 14.82481079 -121.39990234 13.47045898 C-121.44719462 8.7773702 -121.03696919 5.86718554 -118.015625 2.171875 C-115.66347905 -0.20114181 -113.47879977 -1.94186605 -110.33203125 -3.16015625 C-109.63207031 -3.44503906 -108.93210937 -3.72992188 -108.2109375 -4.0234375 C-80.02252926 -13.53984412 -25.88985928 -17.27207819 0 0 Z " fill="#242524" transform="translate(126.76953125,11.84765625)"/>
<path d="M0 0 C3.57927555 3.45390688 4.15092639 6.01652564 4.49609375 10.9453125 C4.50481795 12.41013953 4.49879971 13.87510544 4.48046875 15.33984375 C4.47370117 16.12721924 4.46693359 16.91459473 4.45996094 17.72583008 C4.03602273 42.53853928 -1.72703621 68.90165288 -16.76953125 89.15234375 C-17.15931152 89.67908691 -17.5490918 90.20583008 -17.95068359 90.74853516 C-20.82092865 94.60684301 -23.77656221 98.38861011 -26.76953125 102.15234375 C-27.29289062 102.83296875 -27.81625 103.51359375 -28.35546875 104.21484375 C-35.53868141 113.18347922 -46.27088557 121.39035857 -56.76953125 126.15234375 C-69.76434077 125.59853147 -82.36242386 109.9377252 -90.70703125 100.90234375 C-97.38434953 93.51779598 -102.21076423 86.00307972 -106.76953125 77.15234375 C-107.26582031 76.22035156 -107.76210937 75.28835937 -108.2734375 74.328125 C-117.29388288 56.31078632 -120.70691258 36.11840327 -121.26953125 16.15234375 C-121.33406494 14.82481079 -121.33406494 14.82481079 -121.39990234 13.47045898 C-121.44719462 8.7773702 -121.03696919 5.86718554 -118.015625 2.171875 C-115.66347905 -0.20114181 -113.47879977 -1.94186605 -110.33203125 -3.16015625 C-109.63207031 -3.44503906 -108.93210937 -3.72992188 -108.2109375 -4.0234375 C-80.02252926 -13.53984412 -25.88985928 -17.27207819 0 0 Z M-112.453125 7.83984375 C-114.27922606 11.04771268 -114.09604019 13.4799147 -114.01953125 17.15234375 C-114.00712402 17.81443848 -113.9947168 18.4765332 -113.98193359 19.15869141 C-113.20408166 51.86775792 -100.44559209 81.42641665 -77.36035156 104.640625 C-71.52296683 110.18775304 -65.04043709 114.69919968 -57.76953125 118.15234375 C-33.81633436 103.47831322 -14.17466589 80.15092938 -7.18457031 52.46020508 C-7.02698242 51.80173584 -6.86939453 51.1432666 -6.70703125 50.46484375 C-6.45324707 49.40849731 -6.45324707 49.40849731 -6.19433594 48.33081055 C-5.7087489 46.27361497 -5.23748065 44.2136114 -4.76953125 42.15234375 C-4.42341797 40.6828125 -4.42341797 40.6828125 -4.0703125 39.18359375 C-2.73282646 32.58153497 -2.44602462 25.93247949 -2.26953125 19.21484375 C-2.22666992 18.3019458 -2.18380859 17.38904785 -2.13964844 16.44848633 C-2.02545401 11.68823171 -2.02545401 11.68823171 -3.96044922 7.48828125 C-15.84764106 -2.92876319 -38.73285417 -3.20091745 -53.76953125 -3.84765625 C-54.66671875 -3.88890625 -55.56390625 -3.93015625 -56.48828125 -3.97265625 C-72.57649752 -4.3341892 -100.27065963 -4.3708872 -112.453125 7.83984375 Z " fill="#31C331" transform="translate(126.76953125,11.84765625)"/>
<path d="M0 0 C6.1851961 4.20886125 11.62660503 9.74341307 14 17 C13.6171875 19.265625 13.6171875 19.265625 13 21 C12.236875 20.835 11.47375 20.67 10.6875 20.5 C7.96403764 19.90854604 7.96403764 19.90854604 5 20 C5.28875 20.51046875 5.5775 21.0209375 5.875 21.546875 C9.14193614 27.94462495 10.27941277 33.86630457 9 41 C6.88650412 45.51651175 4.11779341 48.25480439 0 51 C-3.22278211 52.0742607 -5.62636523 52.30669407 -9 52 C-9.66 51.67 -10.32 51.34 -11 51 C-11.37890625 48.05078125 -11.37890625 48.05078125 -11.5625 44.3125 C-11.79617282 39.79641508 -12.17321072 35.44826299 -13 31 C-12.01 31 -11.02 31 -10 31 C-10.061875 30.0925 -10.12375 29.185 -10.1875 28.25 C-10.1999963 22.13931007 -8.69910949 15.26252621 -5.875 9.83984375 C-4.55981649 7.07443557 -5.34042662 4.90212287 -6 2 C-6.969375 1.855625 -7.93875 1.71125 -8.9375 1.5625 C-12 1 -12 1 -13 0 C-20.85691003 -1.53722153 -29.15998166 -1.6951391 -37 0 C-36 -2 -36 -2 -34.171875 -2.8515625 C-22.10725816 -6.70445627 -11.24088226 -5.99902007 0 0 Z " fill="#F7F7F7" transform="translate(80,46)"/>
<path d="M0 0 C3.57927555 3.45390688 4.15092639 6.01652564 4.49609375 10.9453125 C4.50481795 12.41013953 4.49879971 13.87510544 4.48046875 15.33984375 C4.47370117 16.12721924 4.46693359 16.91459473 4.45996094 17.72583008 C4.03602273 42.53853928 -1.72703621 68.90165288 -16.76953125 89.15234375 C-17.15931152 89.67908691 -17.5490918 90.20583008 -17.95068359 90.74853516 C-20.82092865 94.60684301 -23.77656221 98.38861011 -26.76953125 102.15234375 C-27.29289062 102.83296875 -27.81625 103.51359375 -28.35546875 104.21484375 C-35.53868141 113.18347922 -46.27088557 121.39035857 -56.76953125 126.15234375 C-69.76434077 125.59853147 -82.36242386 109.9377252 -90.70703125 100.90234375 C-97.38434953 93.51779598 -102.21076423 86.00307972 -106.76953125 77.15234375 C-107.26582031 76.22035156 -107.76210937 75.28835937 -108.2734375 74.328125 C-117.29388288 56.31078632 -120.70691258 36.11840327 -121.26953125 16.15234375 C-121.33406494 14.82481079 -121.33406494 14.82481079 -121.39990234 13.47045898 C-121.44719462 8.7773702 -121.03696919 5.86718554 -118.015625 2.171875 C-115.66347905 -0.20114181 -113.47879977 -1.94186605 -110.33203125 -3.16015625 C-109.63207031 -3.44503906 -108.93210937 -3.72992188 -108.2109375 -4.0234375 C-80.02252926 -13.53984412 -25.88985928 -17.27207819 0 0 Z M-117.76953125 5.15234375 C-124.50703137 18.627344 -117.16234565 44.30187409 -112.95849609 57.74609375 C-111.21670385 62.70923229 -109.09426591 67.4387615 -106.76953125 72.15234375 C-106.24746094 73.2609375 -105.72539063 74.36953125 -105.1875 75.51171875 C-95.31259925 95.21346721 -79.61013615 112.99165703 -60.1484375 123.578125 C-57.75316321 124.38697624 -57.75316321 124.38697624 -55.4453125 123.31640625 C-28.57290649 105.81602944 -8.52532373 80.1363375 -0.890625 48.51171875 C1.32962251 37.91459538 2.30339381 27.63924247 2.48046875 16.83984375 C2.50197998 16.07438232 2.52349121 15.3089209 2.5456543 14.52026367 C2.57382312 9.66300159 1.95378941 6.3415818 -0.76953125 2.15234375 C-16.4240868 -8.28402662 -39.31996238 -8.20847359 -57.484375 -8.16333008 C-60.13453313 -8.16016818 -62.78357225 -8.18373907 -65.43359375 -8.20898438 C-82.39762827 -8.27154266 -105.3755197 -7.80503196 -117.76953125 5.15234375 Z " fill="#222E22" transform="translate(126.76953125,11.84765625)"/>
<path d="M0 0 C4.04479118 3.73187037 6.38298572 8.34683858 7.625 13.6875 C6.62062962 17.40367042 4.06106028 18.76797688 1 21 C1.2165625 21.845625 1.433125 22.69125 1.65625 23.5625 C5.79124946 40.40879408 5.79124946 40.40879408 1 49 C-3.76458751 53.41595916 -7.00777597 54.45880086 -13.38671875 54.421875 C-17.70559085 53.72465798 -20.22282122 51.24267181 -23 48 C-25.84729032 43.72906451 -25.99694498 40.00687924 -25 35 C-22.69858215 31.31052073 -19.93275497 27.96637748 -16 26 C-14.48154798 25.90527088 -12.95889616 25.8701159 -11.4375 25.875 C-10.22900391 25.87113281 -10.22900391 25.87113281 -8.99609375 25.8671875 C-7 26 -7 26 -6 27 C-5.92741054 29.18639453 -5.91626217 31.37500389 -5.9375 33.5625 C-5.94652344 34.76003906 -5.95554687 35.95757812 -5.96484375 37.19140625 C-5.97644531 38.11824219 -5.98804687 39.04507813 -6 40 C-7.98 40 -9.96 40 -12 40 C-11.67 41.65 -11.34 43.3 -11 45 C-8.52733235 44.65555119 -8.52733235 44.65555119 -6 44 C-4.8517315 41.703463 -4.88438825 40.41686833 -4.90234375 37.8671875 C-4.90717773 36.65869141 -4.90717773 36.65869141 -4.91210938 35.42578125 C-4.92048828 34.58402344 -4.92886719 33.74226563 -4.9375 32.875 C-4.94201172 32.02550781 -4.94652344 31.17601563 -4.95117188 30.30078125 C-4.96297126 28.20049091 -4.98090694 26.1002367 -5 24 C-6.03060547 24.05220703 -6.03060547 24.05220703 -7.08203125 24.10546875 C-7.98308594 24.13253906 -8.88414063 24.15960938 -9.8125 24.1875 C-11.15248047 24.23970703 -11.15248047 24.23970703 -12.51953125 24.29296875 C-15 24 -15 24 -16.71484375 22.8046875 C-18.29421985 20.58684021 -18.99552064 18.55123208 -19.75 15.9375 C-20.14445312 14.62072266 -20.14445312 14.62072266 -20.546875 13.27734375 C-21 11 -21 11 -20 9 C-16.09665428 14.72490706 -16.09665428 14.72490706 -15.1875 17.3125 C-13.98171761 19.434878 -13.98171761 19.434878 -10.375 19.75 C-9.26125 19.8325 -8.1475 19.915 -7 20 C-7.34224609 18.87851563 -7.34224609 18.87851563 -7.69140625 17.734375 C-7.97886719 16.74953125 -8.26632813 15.7646875 -8.5625 14.75 C-8.85253906 13.77546875 -9.14257812 12.8009375 -9.44140625 11.796875 C-9.99249836 9.03756068 -9.93789609 7.6087176 -9 5 C-7.99466333 6.62170379 -6.99588093 8.24747237 -6 9.875 C-5.443125 10.77992187 -4.88625 11.68484375 -4.3125 12.6171875 C-3 15 -3 15 -3 17 C-1.35 16.01 0.3 15.02 2 14 C1.43393721 9.30976546 0.81462495 4.65499974 0 0 Z " fill="#F4F4F4" transform="translate(63,52)"/>
<path d="M0 0 C3.5 0.5 3.5 0.5 5.5 2.1875 C6.75678203 5.09380843 6.44153336 6.51847768 5.5 9.5 C5.17 10.16 4.84 10.82 4.5 11.5 C5.16 11.83 5.82 12.16 6.5 12.5 C5.84 13.16 5.18 13.82 4.5 14.5 C0.56720237 14.18112452 -2.43132743 12.97198624 -5.5 10.5 C-6.64121708 7.14767483 -6.88081215 5.40442884 -5.5 2.125 C-3.5 0.5 -3.5 0.5 0 0 Z " fill="#E2E2E2" transform="translate(53.5,22.5)"/>
<path d="M0 0 C-3.40589365 3.03086267 -3.40589365 3.03086267 -6.10546875 2.890625 C-6.79253906 2.67921875 -7.47960937 2.4678125 -8.1875 2.25 C-8.88230469 2.04890625 -9.57710937 1.8478125 -10.29296875 1.640625 C-12 1 -12 1 -13 0 C-20.85691003 -1.53722153 -29.15998166 -1.6951391 -37 0 C-36 -2 -36 -2 -34.171875 -2.8515625 C-21.70424548 -6.83316032 -11.79480632 -5.40514856 0 0 Z " fill="#E9E9E9" transform="translate(80,46)"/>
<path d="M0 0 C6.28388747 -0.48337596 6.28388747 -0.48337596 9.5 1.6875 C11 4 11 4 10.9375 6.5625 C9.44067797 10.45423729 9.44067797 10.45423729 7 12 C3.3125 12.1875 3.3125 12.1875 0 12 C0 8.04 0 4.08 0 0 Z " fill="#D6D6D6" transform="translate(19,23)"/>
<path d="M0 0 C-0.33 2.97 -0.66 5.94 -1 9 C-1.99 9 -2.98 9 -4 9 C-3.50886719 10.25683594 -3.50886719 10.25683594 -3.0078125 11.5390625 C-1.90352864 15.3312931 -1.80067048 18.43553543 -1.875 22.375 C-1.89304687 23.62023437 -1.91109375 24.86546875 -1.9296875 26.1484375 C-1.95289062 27.08945313 -1.97609375 28.03046875 -2 29 C-3.98 29.99 -3.98 29.99 -6 31 C-5.835 30.34 -5.67 29.68 -5.5 29 C-4.08435194 20.50611164 -5.8881397 13.24631163 -8 5 C-2.25 0 -2.25 0 0 0 Z " fill="#313131" transform="translate(71,68)"/>
<path d="M0 0 C2.97 0 5.94 0 9 0 C10.56474126 3.12948252 10.22569951 6.44255602 10.25 9.875 C10.270625 10.59558594 10.29125 11.31617187 10.3125 12.05859375 C10.33717261 15.40790073 10.23691554 17.60799026 8.484375 20.5078125 C7.99453125 21.00023438 7.5046875 21.49265625 7 22 C5.35 21.67 3.7 21.34 2 21 C1.61781233 19.34385343 1.28604898 17.67542976 1 16 C1.33 15.67 1.66 15.34 2 15 C3.65 15 5.3 15 7 15 C7 11.04 7 7.08 7 3 C4.69 2.34 2.38 1.68 0 1 C0 0.67 0 0.34 0 0 Z " fill="#343434" transform="translate(49,76)"/>
<path d="M0 0 C3.23475448 1.61737724 4.70572021 2.47629223 7 5 C7.33 3.35 7.66 1.7 8 0 C8.99 0 9.98 0 11 0 C11 3.96 11 7.92 11 12 C6.40962044 10.85240511 5.66330818 9.70960782 3 6 C2.67 7.98 2.34 9.96 2 12 C1.34 12 0.68 12 0 12 C0 8.04 0 4.08 0 0 Z " fill="#D7D7D7" transform="translate(96,23)"/>
<path d="M0 0 C0.99 0 1.98 0 3 0 C3 2.97 3 5.94 3 9 C4.65 9 6.3 9 8 9 C8 6.03 8 3.06 8 0 C8.99 0 9.98 0 11 0 C11.08131463 1.43655854 11.13933559 2.8744483 11.1875 4.3125 C11.22230469 5.11300781 11.25710937 5.91351563 11.29296875 6.73828125 C11 9 11 9 9.64453125 10.76953125 C8 12 8 12 5.5 12.375 C2.51253225 11.92687984 1.8123877 11.36602774 0 9 C-0.29296875 6.73828125 -0.29296875 6.73828125 -0.1875 4.3125 C-0.16042969 3.50425781 -0.13335937 2.69601563 -0.10546875 1.86328125 C-0.07066406 1.24839844 -0.03585938 0.63351563 0 0 Z " fill="#D1D1D1" transform="translate(63,23)"/>
<path d="M0 0 C0.66 0 1.32 0 2 0 C2 2.97 2 5.94 2 9 C3.65 9 5.3 9 7 9 C7 6.03 7 3.06 7 0 C7.99 0 8.98 0 10 0 C10.08131463 1.43655854 10.13933559 2.8744483 10.1875 4.3125 C10.22230469 5.11300781 10.25710937 5.91351563 10.29296875 6.73828125 C10 9 10 9 8.6484375 10.7734375 C6.34292696 12.48891217 4.80243693 12.35928679 2 12 C0 10 0 10 -0.1953125 7.6171875 C-0.17210937 6.71226563 -0.14890625 5.80734375 -0.125 4.875 C-0.10695312 3.96492188 -0.08890625 3.05484375 -0.0703125 2.1171875 C-0.04710937 1.41851563 -0.02390625 0.71984375 0 0 Z " fill="#CFCFCF" transform="translate(34,23)"/>
<path d="M0 0 C2.31 0 4.62 0 7 0 C7 2.31 7 4.62 7 7 C5.68 7 4.36 7 3 7 C3 7.66 3 8.32 3 9 C4.32 9 5.64 9 7 9 C7 9.66 7 10.32 7 11 C4.69 11 2.38 11 0 11 C0 7.37 0 3.74 0 0 Z " fill="#D9D9D9" transform="translate(111,23)"/>
<path d="M0 0 C2.31 0 4.62 0 7 0 C7 2.31 7 4.62 7 7 C5.35 7 3.7 7 2 7 C2 7.66 2 8.32 2 9 C3.65 9 5.3 9 7 9 C7 9.66 7 10.32 7 11 C4.69 11 2.38 11 0 11 C0 7.37 0 3.74 0 0 Z " fill="#F2F2F2" transform="translate(78,23)"/>
<path d="M0 0 C2.46313739 1.82748903 3.83428618 3.22976216 4.48828125 6.26953125 C4.72518293 8.51479346 4.90361349 10.74455578 5 13 C3.68 13 2.36 13 1 13 C0.01 9.37 -0.98 5.74 -2 2 C-1.34 1.34 -0.68 0.68 0 0 Z " fill="#E3E3E3" transform="translate(90,90)"/>
<path d="M0 0 C3.42106076 0.25341191 4.30782184 1.30782184 6.8125 3.8125 C9 7 9 7 8.8125 9.375 C8.544375 9.91125 8.27625 10.4475 8 11 C7.01 11 6.02 11 5 11 C3.95107762 9.36368108 2.95093297 7.69514137 2 6 C1.34 5.67 0.68 5.34 0 5 C0 3.35 0 1.7 0 0 Z " fill="#E6E6E6" transform="translate(91,84)"/>
<path d="M0 0 C0 0.33 0 0.66 0 1 C-1.65 1.33 -3.3 1.66 -5 2 C-5 2.66 -5 3.32 -5 4 C-5.86882813 3.98839844 -6.73765625 3.97679687 -7.6328125 3.96484375 C-8.78523438 3.95582031 -9.93765625 3.94679687 -11.125 3.9375 C-12.83042969 3.92009766 -12.83042969 3.92009766 -14.5703125 3.90234375 C-17.8129156 3.994673 -20.81932612 4.38610094 -24 5 C-23 3 -23 3 -21.171875 2.1484375 C-14.03458511 -0.13089056 -7.45380976 -0.31544336 0 0 Z " fill="#C6C6C6" transform="translate(67,41)"/>
<path d="M0 0 C2.125 0.375 2.125 0.375 4 1 C4.38218767 2.65614657 4.71395102 4.32457024 5 6 C4 7 4 7 1.4375 7.0625 C0.2309375 7.0315625 0.2309375 7.0315625 -1 7 C-1.625 4.625 -1.625 4.625 -2 2 C-1.34 1.34 -0.68 0.68 0 0 Z " fill="#333333" transform="translate(52,25)"/>
<path d="M0 0 C1.875 0.171875 1.875 0.171875 4 0.75 C4.70125 0.93046875 5.4025 1.1109375 6.125 1.296875 C8 2 8 2 10 4 C9.34 4.66 8.68 5.32 8 6 C4.02867481 5.67800066 1.29334787 4.16420003 -2 2 C-1.34 1.34 -0.68 0.68 0 0 Z " fill="#D4D4D4" transform="translate(50,31)"/>
<path d="M0 0 C0.99 0 1.98 0 3 0 C3.05399736 1.45792884 3.09279177 2.91642712 3.125 4.375 C3.14820312 5.18710937 3.17140625 5.99921875 3.1953125 6.8359375 C3 9 3 9 1 11 C-1.125 10.625 -1.125 10.625 -3 10 C-2.34 9.67 -1.68 9.34 -1 9 C-0.53348793 6.87423218 -0.53348793 6.87423218 -0.375 4.4375 C-0.30023438 3.61121094 -0.22546875 2.78492188 -0.1484375 1.93359375 C-0.09945312 1.29550781 -0.05046875 0.65742188 0 0 Z " fill="#DEDEDE" transform="translate(71,23)"/>
<path d="M0 0 C2.97 0 5.94 0 9 0 C10.0161692 4.62921525 9.83796731 8.34462607 9 13 C8.67 13 8.34 13 8 13 C7.67 9.7 7.34 6.4 7 3 C4.69 2.34 2.38 1.68 0 1 C0 0.67 0 0.34 0 0 Z " fill="#535353" transform="translate(49,76)"/>
<path d="M0 0 C2.49118953 3.7367843 2.2065226 5.74451819 2.125 10.1875 C2.10695313 11.45980469 2.08890625 12.73210937 2.0703125 14.04296875 C2.03550781 15.50669922 2.03550781 15.50669922 2 17 C0.02 17.99 0.02 17.99 -2 19 C-1.855625 18.38253906 -1.71125 17.76507813 -1.5625 17.12890625 C-0.2802401 11.27859545 0.19308096 5.98550963 0 0 Z " fill="#434343" transform="translate(67,80)"/>
<path d="M0 0 C1.65 0 3.3 0 5 0 C5 1.65 5 3.3 5 5 C3.35 5 1.7 5 0 5 C0 5.66 0 6.32 0 7 C1.65 7 3.3 7 5 7 C5 7.33 5 7.66 5 8 C3.02 8 1.04 8 -1 8 C-0.67 5.36 -0.34 2.72 0 0 Z " fill="#C5C5C5" transform="translate(80,25)"/>
<path d="M0 0 C5.49152542 0.61016949 5.49152542 0.61016949 7.875 2.4375 C9 4 9 4 9 6 C6.13275314 5.42655063 5.1385485 5.1385485 3 3 C0.89179203 3.3185177 0.89179203 3.3185177 -1 4 C-0.67 2.68 -0.34 1.36 0 0 Z " fill="#3F3F3F" transform="translate(87,88)"/>
<path d="M0 0 C1.134375 0.020625 2.26875 0.04125 3.4375 0.0625 C2.81875 0.26875 2.2 0.475 1.5625 0.6875 C-1.40903645 2.61025888 -1.69274659 4.72844527 -2.5625 8.0625 C-3.5525 7.7325 -4.5425 7.4025 -5.5625 7.0625 C-4.52245509 0.07934132 -4.52245509 0.07934132 0 0 Z " fill="#EAEAEA" transform="translate(52.5625,23.9375)"/>
<path d="M0 0 C2.475 0.495 2.475 0.495 5 1 C4.67 2.65 4.34 4.3 4 6 C2.68 6 1.36 6 0 6 C0 4.02 0 2.04 0 0 Z " fill="#2C2C2C" transform="translate(22,26)"/>
<path d="M0 0 C0.66 0 1.32 0 2 0 C2.04898438 0.62648438 2.09796875 1.25296875 2.1484375 1.8984375 C2.22320312 2.71570313 2.29796875 3.53296875 2.375 4.375 C2.44460937 5.18710937 2.51421875 5.99921875 2.5859375 6.8359375 C2.82892588 9.20334191 2.82892588 9.20334191 5 11 C3.35 10.67 1.7 10.34 0 10 C0 6.7 0 3.4 0 0 Z " fill="#FBFBFB" transform="translate(34,23)"/>
<path d="M0 0 C2.79872437 2.52788007 4.45773019 4.20411134 5 8 C4.01 8.33 3.02 8.66 2 9 C1.34 6.03 0.68 3.06 0 0 Z " fill="#D3D3D3" transform="translate(42,61)"/>
<path d="M0 0 C2.83328987 2.83328987 3.7191375 4.35446828 5 8 C4.01 8.33 3.02 8.66 2 9 C1.34 6.03 0.68 3.06 0 0 Z " fill="#CFCFCF" transform="translate(63,52)"/>
<path d="M0 0 C1.98 0 3.96 0 6 0 C5.67 0.99 5.34 1.98 5 3 C3.35 3 1.7 3 0 3 C0 2.01 0 1.02 0 0 Z " fill="#F7F7F7" transform="translate(62,42)"/>
<path d="M0 0 C0.99 0 1.98 0 3 0 C3.33 1.98 3.66 3.96 4 6 C3.01 6 2.02 6 1 6 C0.67 4.02 0.34 2.04 0 0 Z " fill="#DFDFDF" transform="translate(26,25)"/>
<path d="M0 0 C0.33 0 0.66 0 1 0 C1 3.3 1 6.6 1 10 C0.01 10 -0.98 10 -2 10 C-1.34 6.7 -0.68 3.4 0 0 Z " fill="#F7F7F7" transform="translate(105,24)"/>
</svg>
