<?xml version="1.0" encoding="UTF-8"?>
<svg version="1.1" xmlns="http://www.w3.org/2000/svg" width="2000" height="1413">
<path d="M0 0 C1.7938916 0.43578369 1.7938916 0.43578369 3.62402344 0.88037109 C33.6622528 8.26546063 63.07870055 17.87061803 92.57977295 27.12268066 C99.55474864 29.31012525 106.53202228 31.48990335 113.51275635 33.65890503 C116.68390692 34.64741501 119.85148539 35.64677803 123.01904297 36.64672852 C133.53952842 39.93606786 144.09052827 42.87832829 154.82421875 45.39453125 C155.87873734 45.64426193 156.93325592 45.89399261 158.01972961 46.15129089 C159.03246445 46.38084976 160.04519928 46.61040863 161.08862305 46.84692383 C161.96632858 47.04651199 162.84403412 47.24610016 163.74833679 47.45173645 C173.44280294 49.08632223 182.9740418 49.04926994 192.77539062 48.74584961 C194.21757663 48.70588571 195.65977688 48.66643337 197.10198975 48.62745094 C200.97775678 48.52076923 204.85321936 48.40543191 208.72867012 48.28787732 C211.17995952 48.21413045 213.63130636 48.14272788 216.08268738 48.07209587 C247.75491814 47.15896269 279.41738373 46.02274395 311.07679749 44.74127579 C314.86088649 44.58815065 318.64502544 44.43629791 322.42917991 44.28480011 C419.55988245 40.39574362 516.67322738 36.06582249 810.9874326 22.52993321 C814.68237868 22.355378 818.37732881 22.18090868 822.07227993 22.00646019 C832.34515905 21.52136742 842.61802053 21.03593233 852.89074266 20.54752475 C856.9573953 20.35432288 861.02408164 20.1618375 865.09077597 19.9695152 C866.95823632 19.88102025 868.82568081 19.79218997 870.69310808 19.70299971 C873.21970787 19.58234579 875.74635885 19.46282604 878.27302551 19.34358215 C879.00586165 19.30828667 879.7386978 19.27299119 880.4937411 19.23662615 C883.66904422 19.08784765 886.8199042 19 890 19 C887.99082295 24.56163502 884.7457447 28.48937995 881 33 C879.95585937 34.26650391 879.95585937 34.26650391 878.890625 35.55859375 C861.97319994 55.26559422 838.78831384 59.03648827 814.30151367 61.92822266 C812.1819312 62.18539076 810.06236726 62.44271165 807.94282055 62.70017433 C785.23056247 65.42791435 762.47000922 67.66068264 739.69735503 69.8146863 C736.08789693 70.15676659 732.47869994 70.50149276 728.86956215 70.84693527 C669.09012536 76.56589029 609.26948516 81.82444392 549.44751196 87.07548065 C525.2079687 89.20317852 500.96872308 91.33422587 476.73046875 93.4765625 C476.06259472 93.53558246 475.39472069 93.59460241 474.70660806 93.65541086 C438.17768881 96.88380913 401.65795308 100.19353909 365.15702271 103.72553587 C362.259881 104.00584936 359.36266509 104.28538661 356.46544456 104.56488419 C267.54900414 108.87951021 267.54900414 108.87951021 191 147 C190.45214844 147.52231201 189.90429688 148.04462402 189.33984375 148.58276367 C185.25791091 152.54741876 181.75800039 156.65114184 178.5 161.3125 C177.99500977 162.03195801 177.49001953 162.75141602 176.96972656 163.49267578 C170.36489968 173.1195414 164.75700624 183.34995008 159.00146484 193.49609375 C155.91896918 198.90910872 152.75999927 204.2771206 149.58874512 209.63848877 C148.59948612 211.31241571 147.6145983 212.98892358 146.62988281 214.66552734 C124.79240878 251.57097214 96.82299563 287.19563463 64 315 C63.00871094 315.86882812 62.01742188 316.73765625 60.99609375 317.6328125 C26.9228626 347.4214453 -11.72518438 370.65736119 -52 391 C-53.02061523 391.57379395 -54.04123047 392.14758789 -55.09277344 392.73876953 C-58 394 -58 394 -60.15478516 393.83666992 C-60.81784668 393.57474854 -61.4809082 393.31282715 -62.1640625 393.04296875 C-62.9365332 392.7392334 -63.70900391 392.43549805 -64.50488281 392.12255859 C-69.21298369 390.00437388 -73.80734774 387.71826831 -78.375 385.3125 C-79.45644287 384.7450708 -80.53788574 384.1776416 -81.65209961 383.59301758 C-108.72603988 369.22268896 -134.83598925 352.88435506 -159 334 C-159.90363281 333.29746094 -160.80726563 332.59492187 -161.73828125 331.87109375 C-176.94974996 319.86203951 -191.15003059 306.91946694 -204.875 293.25 C-205.67180176 292.45787109 -206.46860352 291.66574219 -207.28955078 290.84960938 C-212.06486767 286.06126981 -216.62508867 281.15609922 -221 276 C-221.54285645 275.36384766 -222.08571289 274.72769531 -222.64501953 274.07226562 C-244.07976254 248.78601697 -261.44121658 221.02312349 -277.8359375 192.28515625 C-287.2296037 175.69954323 -287.2296037 175.69954323 -298 160 C-298.66128906 159.11828125 -299.32257812 158.2365625 -300.00390625 157.328125 C-327.02834576 122.42376085 -370.45859629 116.99170784 -411.62426758 111.58740234 C-412.44088037 111.47990496 -413.25749316 111.37240758 -414.0988518 111.26165271 C-431.5704802 108.97305685 -449.07416694 107.11633377 -466.61056733 105.40504026 C-469.14291872 105.15734273 -471.67503362 104.90734037 -474.20709801 104.65672684 C-512.26081226 100.89246296 -550.34525002 97.47748118 -588.43624479 94.11530757 C-599.01028048 93.18161293 -609.58362904 92.24021242 -620.15698242 91.29882812 C-624.11707816 90.94632171 -628.07717729 90.59385339 -632.03727722 90.24139404 C-633.02093531 90.15384094 -634.0045934 90.06628784 -635.01805931 89.97608161 C-643.949064 89.18124103 -652.88019137 88.38778377 -661.81132984 87.59444809 C-841.82148708 71.60444997 -841.82148708 71.60444997 -892.8125 66.375 C-893.93891088 66.26008713 -893.93891088 66.26008713 -895.08807755 66.14285278 C-910.21835233 64.59895307 -925.32277379 62.89338518 -940.40234375 60.9140625 C-942.25977959 60.67252945 -942.25977959 60.67252945 -944.15473938 60.42611694 C-952.67987489 59.2785572 -960.83140158 57.76678334 -969 55 C-970.34578125 54.57460938 -970.34578125 54.57460938 -971.71875 54.140625 C-987.03979252 48.74988782 -999.44405649 35.47105999 -1008 22 C-1008 21.01 -1008 20.02 -1008 19 C-953.44262664 21.47110386 -898.88583145 23.95390577 -844.33065224 26.47301102 C-724.15899953 32.03599479 -724.15899953 32.03599479 -384.5625 46.4375 C-383.49409252 46.47724945 -382.42568504 46.5169989 -381.32490158 46.55795288 C-369.0500413 47.01437695 -356.77480427 47.44400531 -344.49737549 47.82537842 C-340.66806377 47.94496787 -336.83922459 48.07445958 -333.01043701 48.20977783 C-327.92941547 48.3885417 -322.84808336 48.54824758 -317.7660656 48.69587898 C-315.86098713 48.75400178 -313.95607545 48.81798348 -312.05142403 48.888731 C-294.95132569 49.51596016 -278.97001682 47.53886953 -262.5 42.8125 C-261.32171631 42.48137207 -260.14343262 42.15024414 -258.92944336 41.80908203 C-243.05190461 37.29411347 -227.34007414 32.20053315 -211.6007843 27.23123169 C-70.5008302 -17.31715741 -70.5008302 -17.31715741 0 0 Z " fill="#FEFEFE" transform="translate(1059,383)"/>
<path d="M0 0 C1.6848755 0.50006851 3.36977026 1.00007215 5.0546875 1.5 C9.1187395 2.70939312 13.1785631 3.93228455 17.23632812 5.16259766 C19.2345351 5.76806143 21.23330506 6.37166822 23.23242188 6.97412109 C26.69808465 8.01962555 30.16171533 9.07164737 33.625 10.125 C35.24317627 10.61214478 35.24317627 10.61214478 36.89404297 11.10913086 C42.62194144 12.8596926 48.18412199 14.79743594 53.72119141 17.08007812 C56.41881479 18.16906944 59.14943151 19.10494068 61.9074707 20.02709961 C105.05971718 34.5111332 105.05971718 34.5111332 114.9375 51.6875 C122.88761598 69.19355009 110.4948625 93.01955378 104.34228516 109.47412109 C83.55227053 164.08477793 52.84177105 214.76399307 8.109375 253.16796875 C5.82370454 255.15311587 3.60298622 257.2003983 1.375 259.25 C-4.22336473 264.29449303 -10.10669645 268.91667072 -16.07421875 273.51123047 C-18.03752028 275.02900591 -19.98796363 276.56225273 -21.9375 278.09765625 C-38.38714627 290.97086409 -55.85532112 302.27634949 -73.90527344 312.77050781 C-75.26396225 313.5679853 -76.61193999 314.38411286 -77.94628906 315.22167969 C-83.88841081 318.87664514 -83.88841081 318.87664514 -88 318 C-91.01494394 316.59496192 -93.8038215 314.88190158 -96.625 313.125 C-97.48383789 312.5990625 -98.34267578 312.073125 -99.22753906 311.53125 C-117.00394957 300.5300945 -134.59823122 288.97641262 -151 276 C-151.67063477 275.47067871 -152.34126953 274.94135742 -153.03222656 274.39599609 C-160.70772888 268.31018986 -168.20353897 262.09012655 -175.375 255.4140625 C-177.45842311 253.49805732 -179.56947082 251.64543341 -181.71484375 249.80078125 C-186.53828244 245.59399142 -191.04929655 241.09731496 -195.5625 236.5625 C-196.37396484 235.75490234 -197.18542969 234.94730469 -198.02148438 234.11523438 C-202.88838556 229.24047701 -207.55264793 224.26012774 -212 219 C-212.5168335 218.38987061 -213.03366699 217.77974121 -213.56616211 217.15112305 C-244.70957951 180.03093561 -289.94703283 111.95382712 -287.29296875 60.37890625 C-286.19095543 51.43055806 -280.82124957 44.58534373 -274 39 C-246.60901511 19.78542851 -207.66139281 10.37217673 -175.75 1.5625 C-169.2875172 -0.23058921 -162.83042378 -2.02875643 -156.40991211 -3.96728516 C-141.48962475 -8.46978059 -126.33798323 -12.22726105 -111.0625 -15.3125 C-110.27705811 -15.47177979 -109.49161621 -15.63105957 -108.68237305 -15.79516602 C-71.98648339 -22.95139678 -34.94753817 -10.43067919 0 0 Z " fill="#000000" transform="translate(1085,425)"/>
<path d="M0 0 C20.00003716 1.32802235 39.94988463 3.01552656 59.90648842 4.8705132 C63.14461702 5.17106659 66.38293538 5.4695489 69.6212517 5.76807183 C79.20925513 6.65199929 88.79672174 7.54165007 98.38403702 8.43300629 C103.84768245 8.94092989 109.31145635 9.44746311 114.77523804 9.95391846 C169.64780649 15.04179951 224.49715789 20.32557457 279.32919312 25.83440208 C300.55257502 27.96631563 321.78273614 30.02494829 343.0149231 32.06704712 C360.01084749 33.70204689 377.00551733 35.35009157 394 37 C394.97565163 37.09467812 395.95130325 37.18935623 396.95652008 37.28690338 C595.64011619 56.57125841 595.64011619 56.57125841 627.62597656 94.328125 C636.43101354 105.0418587 644.2439864 116.5185434 652 128 C652.78936061 129.16815003 653.57875086 130.33628004 654.36816406 131.50439453 C655.0092939 132.45314705 655.0092939 132.45314705 655.66337585 133.42106628 C657.03177757 135.4456125 658.40075316 137.46976983 659.76977539 139.49389648 C661.58676469 142.18040121 663.40075404 144.8688936 665.21264648 147.55883789 C679.80379682 169.18422782 695.04905138 190.47057144 712.8125 209.62890625 C714.71821218 211.69456213 716.5543201 213.79732579 718.375 215.9375 C725.59545895 224.23334645 733.58029873 231.93399629 742 239 C743.68052926 240.41698932 745.36018266 241.83500779 747.03930664 243.25366211 C748.19829949 244.23169697 749.35888026 245.20785401 750.52124023 246.18188477 C753.11958418 248.36677587 755.62285317 250.57762019 758 253 C746.25477276 252.49726154 734.78074504 250.14585935 723.25 248 C722.16766083 247.79959106 721.08532166 247.59918213 719.97018433 247.3927002 C667.55785284 237.65493725 616.14430239 223.95344896 565 209 C565 208.34 565 207.68 565 207 C573.09466109 206.36107672 581.18962594 205.7261948 589.28497505 205.09605503 C593.04657879 204.80313401 596.80807595 204.50897483 600.56933594 204.21166992 C617.70399049 202.85820727 634.8189422 201.61038273 652 201 C646.62628323 192.80412543 640.52959521 186.88379308 631 184 C619.59852939 181.78513535 608.6676825 182.00890583 597.13574219 182.70471191 C557.46724699 185.04555586 516.57401913 186.38132098 477 182 C475.97841797 181.8870459 474.95683594 181.7740918 473.90429688 181.65771484 C407.27017148 173.7568114 340.42556557 152.17248288 277 131 C277 130.34 277 129.68 277 129 C307.17434403 129.61784432 337.34864895 130.23757106 367.52290193 130.85984602 C371.10307691 130.93367732 374.68325222 131.00749293 378.26342773 131.08129883 C378.97603427 131.09598959 379.68864081 131.11068035 380.42284148 131.12581629 C391.8896627 131.36217369 403.35650951 131.59726675 414.82336665 131.83187424 C426.63104385 132.07348363 438.43869164 132.31649415 450.24631447 132.56074673 C456.86090755 132.6975376 463.47551285 132.8336827 470.09015083 132.96829033 C523.72447326 134.0605388 523.72447326 134.0605388 549 135 C548.05583153 133.54044279 547.10591399 132.08460343 546.15356445 130.63037109 C545.62519485 129.81925873 545.09682526 129.00814636 544.55244446 128.17245483 C539.45002807 121.03225146 529.29324072 117.89450963 520.96586609 116.48725891 C507.75893839 114.71654305 494.51083149 114.23378914 481.20703125 113.66796875 C478.56948049 113.5507584 475.93196302 113.4329647 473.29447937 113.31427002 C467.70199076 113.06333088 462.1093537 112.81600583 456.51660156 112.5710144 C441.86035982 111.92816137 427.2055271 111.25409684 412.55078125 110.578125 C411.82265748 110.54458758 411.0945337 110.51105016 410.34434557 110.47649646 C200.44164985 100.80538818 200.44164985 100.80538818 125 82 C123.97712891 81.70254883 122.95425781 81.40509766 121.90039062 81.09863281 C88.11506965 71.06285185 58.04881164 53.55748924 31.61816406 30.40771484 C29.87053609 28.88737343 28.10536975 27.38942836 26.3359375 25.89453125 C20.90236154 21.29656155 15.52436329 16.73428466 10.59375 11.58984375 C8.07879225 9.08105011 5.33859154 6.83960845 2.6015625 4.578125 C1 3 1 3 0 0 Z " fill="#FFFFFF" transform="translate(109,466)"/>
<path d="M0 0 C-1.39506426 3.25042891 -2.96783394 5.07371792 -5.6875 7.3125 C-8.41185164 9.61469986 -11.00661871 11.9492996 -13.5 14.5 C-17.16290694 18.21218372 -21.03669336 21.61329483 -25 25 C-25.93585937 25.81339844 -26.87171875 26.62679688 -27.8359375 27.46484375 C-100.26562465 90.04372775 -189.85573305 96.49293045 -472.19970703 113.41503906 C-473.81929762 113.49021318 -473.81929762 113.49021318 -475.47160721 113.56690598 C-480.79754484 113.81240592 -486.12368501 114.04952194 -491.45062256 114.27233887 C-492.48677137 114.31595425 -493.52292019 114.35956963 -494.59046745 114.40450668 C-496.52105835 114.48515626 -498.45171451 114.56426659 -500.3824482 114.64142227 C-524.12082869 115.62462904 -524.12082869 115.62462904 -544.4140625 127.05859375 C-546.41428599 129.50714319 -547.6202471 132.16474966 -549 135 C-548.24903486 134.97966265 -547.49806973 134.95932529 -546.72434807 134.93837166 C-490.8131335 133.42856487 -434.89785775 132.20442031 -378.97779346 131.07441831 C-367.81308821 130.84872249 -356.64843321 130.62058263 -345.48378015 130.3923223 C-322.65590512 129.92565892 -299.82797398 129.46179605 -277 129 C-277 129.66 -277 130.32 -277 131 C-361.29343165 158.48212148 -446.8119739 184.2260094 -536.0625 184.1875 C-538.00116943 184.18958466 -538.00116943 184.18958466 -539.97900391 184.19171143 C-560.9639031 184.20298047 -581.89836008 183.66395459 -602.85571289 182.53588867 C-618.73400238 181.72096327 -633.21078314 181.63837727 -646 192.5625 C-648.02086964 195.02543488 -650.01182649 197.51064109 -652 200 C-623.01003544 202.46192048 -594.00673803 204.74529652 -565 207 C-566 209 -566 209 -567.67094421 209.69125366 C-568.76521477 210.00336288 -568.76521477 210.00336288 -569.8815918 210.32177734 C-570.71587708 210.56364273 -571.55016235 210.80550812 -572.409729 211.05470276 C-573.33026062 211.31251022 -574.25079224 211.57031769 -575.19921875 211.8359375 C-576.159953 212.11126816 -577.12068726 212.38659882 -578.11053467 212.67027283 C-581.30035201 213.58093824 -584.49359951 214.47876732 -587.6875 215.375 C-588.78498566 215.68513031 -589.88247131 215.99526062 -591.01321411 216.31478882 C-636.91202144 229.28310777 -682.8514348 240.36861618 -729.75 249.0625 C-731.36414291 249.3630983 -731.36414291 249.3630983 -733.01089478 249.66976929 C-736.06339018 250.23567196 -739.11726206 250.7933102 -742.171875 251.34765625 C-743.0792894 251.51590912 -743.9867038 251.68416199 -744.9216156 251.85751343 C-749.34288825 252.64871206 -753.48592818 253.19540037 -758 253 C-754.24242274 249.13627649 -750.29073927 245.6155653 -746.1875 242.125 C-733.75420847 231.42884868 -721.79407226 220.36404795 -711 208 C-710.5157959 207.44989258 -710.0315918 206.89978516 -709.53271484 206.33300781 C-691.02971266 185.26987916 -675.22187344 162.16090383 -659.58837891 138.93333435 C-632.30834449 98.41010701 -610.06814993 66.91523862 -559.91699219 56.75 C-537.8617036 52.52699785 -515.56747919 49.72381847 -493.2734375 47.11328125 C-492.17674681 46.98441339 -491.08005611 46.85554554 -489.95013237 46.7227726 C-466.65141066 43.99490279 -443.31985564 41.70183859 -419.96577835 39.50804138 C-409.4371768 38.51639388 -398.9101948 37.50755354 -388.38304782 36.50060415 C-386.36450652 36.30759036 -384.3459446 36.11479325 -382.32737923 35.9220314 C-359.77045109 33.76716436 -337.22054816 31.54481729 -314.67285275 29.29553819 C-310.28765601 28.85811607 -305.90242419 28.42104586 -301.51719666 27.9839325 C-300.19979981 27.85260871 -300.19979981 27.85260871 -298.85578889 27.71863192 C-296.1759142 27.45149101 -293.49603837 27.18436153 -290.81616211 26.91723633 C-289.92555899 26.82846029 -289.03495586 26.73968426 -288.11736476 26.64821804 C-221.60031103 20.01816325 -155.06823191 13.59635616 -88.5 7.5 C-87.15921253 7.37717809 -87.15921253 7.37717809 -85.79133844 7.25187492 C-73.12163924 6.09137225 -60.45163797 4.93420879 -47.78125 3.78125 C-47.02306119 3.71225085 -46.26487237 3.64325171 -45.48370814 3.57216167 C-41.17570396 3.18022345 -36.86763946 2.78895826 -32.55948627 2.39866114 C-30.68141067 2.22846994 -28.80336678 2.05792887 -26.92532444 1.88737106 C-23.61716617 1.58828308 -20.30870835 1.29293546 -17 1 C-15.90050522 0.90178452 -14.80101044 0.80356903 -13.66819763 0.70237732 C-12.61040604 0.6104158 -11.55261444 0.51845428 -10.46276855 0.42370605 C-9.52970634 0.34190849 -8.59664413 0.26011093 -7.63530731 0.17583466 C-5.0809414 0.00540062 -2.55913742 -0.03139574 0 0 Z " fill="#FFFFFF" transform="translate(1891,466)"/>
<path d="M0 0 C13.76618722 11.86169215 13.76618722 11.86169215 15.22265625 19.86328125 C13.29156747 21.37222504 11.35359619 22.87039659 9.41015625 24.36328125 C8.5893457 25.00716797 8.5893457 25.00716797 7.75195312 25.6640625 C3.5625 28.86328125 3.5625 28.86328125 0.22265625 28.86328125 C-1.46875 26.703125 -1.46875 26.703125 -3.33984375 23.80078125 C-9.95441758 14.39284991 -18.97577595 9.1553562 -30.02734375 6.27734375 C-45.4141869 3.96057475 -58.75031538 6.38147703 -71.6484375 15.1328125 C-80.59490746 22.04689953 -85.89740013 32.89508947 -87.77734375 43.86328125 C-89.31357893 60.516474 -87.40148853 75.37798065 -76.77734375 88.86328125 C-68.36933803 98.16135941 -57.24470954 103.14726015 -44.8046875 104.19921875 C-31.72981433 104.4861431 -18.71343694 102.63865387 -7.77734375 94.86328125 C-6.72417969 94.2496875 -5.67101562 93.63609375 -4.5859375 93.00390625 C-2.33313003 91.09806583 -1.81593752 90.04810087 -1.20385742 87.11694336 C-0.96102186 83.74468312 -0.89585468 80.43266888 -0.90234375 77.05078125 C-0.86109375 73.02890625 -0.81984375 69.00703125 -0.77734375 64.86328125 C-9.68734375 64.86328125 -18.59734375 64.86328125 -27.77734375 64.86328125 C-27.77734375 59.58328125 -27.77734375 54.30328125 -27.77734375 48.86328125 C-12.92734375 48.86328125 1.92265625 48.86328125 17.22265625 48.86328125 C17.45304027 55.82343851 17.65174913 62.77025917 17.77197266 69.73120117 C17.82209644 72.09526496 17.89021794 74.45902127 17.97705078 76.82202148 C18.71787426 97.50842762 18.71787426 97.50842762 15.18945312 102.31982422 C12.64634634 104.65773324 10.2753149 106.2665278 7.22265625 107.86328125 C6.03789485 108.67740712 4.85519159 109.49454754 3.67578125 110.31640625 C-17.41729297 122.14910642 -39.07395048 126.32077023 -62.77734375 119.86328125 C-79.30012434 114.45474516 -92.26487565 103.41256878 -101.01953125 88.4375 C-110.17180335 69.82788006 -111.06055428 49.21607576 -104.7109375 29.5625 C-98.20456353 13.00667713 -87.7079492 0.90744836 -71.77734375 -7.13671875 C-48.19128026 -16.97358836 -20.69142771 -15.91872146 0 0 Z " fill="#FFFFFF" transform="translate(714.77734375,917.13671875)"/>
<path d="M0 0 C6 0 6 0 7.72827148 1.13891602 C8.18790283 1.67186279 8.64753418 2.20480957 9.12109375 2.75390625 C9.65661865 3.35388428 10.19214355 3.9538623 10.74389648 4.57202148 C11.30278564 5.22887939 11.8616748 5.8857373 12.4375 6.5625 C13.66392849 7.94254242 14.89318997 9.32007144 16.125 10.6953125 C16.75792969 11.40719727 17.39085937 12.11908203 18.04296875 12.85253906 C21.79090866 16.96517373 25.78628012 20.83177507 29.76147461 24.72290039 C32.7500996 27.67103246 35.61218727 30.6619565 38.34765625 33.84765625 C42.48833204 38.64519669 46.98561194 43.05692929 51.5 47.5 C60.59698789 56.4532756 60.59698789 56.4532756 64.49609375 60.99609375 C68.59721762 65.77378989 73.07759604 70.148058 77.5625 74.5625 C79.21209865 76.18630351 80.85928549 77.81256123 82.50390625 79.44140625 C83.22392822 80.14982666 83.9439502 80.85824707 84.68579102 81.58813477 C87.5840134 84.60865792 90.27573623 87.82169227 93 91 C93.33 60.97 93.66 30.94 94 0 C99.94 0 105.88 0 112 0 C112 44.22 112 88.44 112 134 C107 134 107 134 105.16650391 132.75 C104.60882324 132.1725 104.05114258 131.595 103.4765625 131 C102.85144775 130.36392822 102.22633301 129.72785645 101.58227539 129.07250977 C100.61342407 128.04661743 100.61342407 128.04661743 99.625 127 C98.95525146 126.310271 98.28550293 125.62054199 97.59545898 124.90991211 C93.7860728 120.9627307 90.07504575 116.94564241 86.53515625 112.75390625 C84.15022386 110.02913616 81.54389588 107.53554431 78.96484375 104.99609375 C77.07769256 103.07892823 75.31314625 101.10424678 73.5625 99.0625 C70.99334729 96.07198284 68.30682744 93.26883316 65.5 90.5 C62.0711721 87.11758601 58.87951482 83.61929558 55.74609375 79.96484375 C53.90384325 77.89179676 51.97598338 75.94564198 50 74 C47.40017817 71.44009866 44.93731602 68.8322046 42.5625 66.0625 C39.29470149 62.25875276 35.77953821 58.76207011 32.2109375 55.2421875 C29.5143361 52.50747159 26.9975184 49.64926073 24.5078125 46.7265625 C23.07571025 45.08669412 21.53949426 43.53949426 20 42 C19.67 71.7 19.34 101.4 19 132 C12.73 132 6.46 132 0 132 C0 88.44 0 44.88 0 0 Z " fill="#FFFFFF" transform="translate(875,906)"/>
<path d="M0 0 C4.26919902 4.17217177 7.85137676 8.99163028 9.75 14.6875 C8.00579087 16.00768588 6.25439909 17.31838602 4.5 18.625 C3.03820313 19.72134766 3.03820313 19.72134766 1.546875 20.83984375 C-0.8767881 22.44095079 -2.4257492 23.26386238 -5.25 23.6875 C-5.83394531 22.81738281 -5.83394531 22.81738281 -6.4296875 21.9296875 C-11.35806858 15.04812314 -17.61524563 9.21032723 -26.25 7.6875 C-34.89731343 6.86729412 -42.14964538 7.31794199 -49.25 12.6875 C-52.6965501 16.2146188 -53.50020185 19.84582407 -53.75 24.6875 C-53.49696045 29.59200189 -52.64628994 33.07176411 -49.25 36.6875 C-42.49504987 40.97102777 -35.10063419 43.0506826 -27.4375 45.0625 C-13.76180837 48.87535137 -0.44575424 53.48546858 7.30859375 66.25390625 C12.46238277 76.51768438 12.68553751 86.68292219 9.75 97.6875 C6.39325059 107.26617404 -0.11881114 114.74556147 -9.0625 119.5625 C-23.38540461 125.94049604 -38.34076172 126.54578741 -53.25 121.6875 C-64.70910506 117.04929081 -73.81006553 107.6600951 -79.25 96.6875 C-79.91 94.3775 -80.57 92.0675 -81.25 89.6875 C-76.63 87.0475 -72.01 84.4075 -67.25 81.6875 C-64.92789816 84.78363579 -63.01640372 87.74875355 -61.0625 91.0625 C-56.51204512 98.21730327 -51.09119891 102.83870204 -42.8671875 105.21484375 C-31.89421977 107.19652897 -23.64494933 105.71909849 -14.375 99.875 C-10.06711139 95.44040878 -9.05970262 91.19452366 -8.8125 85.1875 C-8.98672674 80.1000793 -9.77092741 76.48648731 -13.25 72.6875 C-19.23350485 67.20786925 -27.55033418 65.5370853 -35.14208984 63.30810547 C-49.35360995 59.12398639 -62.56999646 54.94982305 -70.53125 41.52734375 C-75.13828148 32.198105 -74.93308587 22.60150229 -72.25 12.6875 C-68.7552608 3.73927665 -62.40886466 -3.08593253 -53.75 -7.1875 C-34.43336233 -15.02498824 -16.67962974 -11.86819808 0 0 Z " fill="#FFFFFF" transform="translate(1382.25,915.3125)"/>
<path d="M0 0 C5.72948677 4.33456271 11.12697621 9.33245054 14.390625 15.80859375 C14.390625 17.12859375 14.390625 18.44859375 14.390625 19.80859375 C11.87109375 21.984375 11.87109375 21.984375 8.578125 24.12109375 C6.95970703 25.19810547 6.95970703 25.19810547 5.30859375 26.296875 C3.86419922 27.04517578 3.86419922 27.04517578 2.390625 27.80859375 C-1.06185676 26.6577665 -1.29590225 26.06105105 -3.171875 23.12109375 C-7.26399547 17.41879053 -13.59620623 13.01912194 -20.609375 11.80859375 C-28.66225079 11.15099613 -35.70808489 11.26748511 -42.609375 15.80859375 C-46.86004866 19.62330088 -48.1408957 24.244207 -48.609375 29.80859375 C-47.77037502 35.40192697 -45.99854493 38.27817446 -41.609375 41.80859375 C-35.26191793 45.37409625 -28.93143602 47.25407915 -21.921875 49.12109375 C-8.91754249 52.76479119 4.67957837 57.01609234 11.8828125 69.3671875 C17.07100354 79.46510735 18.13051502 90.19551402 15.58984375 101.3125 C11.43370202 112.26700415 4.13507319 119.71821592 -6.38232422 124.67333984 C-19.58323218 130.46495823 -33.99146216 130.29129823 -47.609375 125.80859375 C-59.7351079 120.7910491 -67.5715725 112.27052046 -73.609375 100.80859375 C-73.99222656 100.11378906 -74.37507813 99.41898438 -74.76953125 98.703125 C-75.609375 96.80859375 -75.609375 96.80859375 -75.609375 93.80859375 C-70.989375 91.16859375 -66.369375 88.52859375 -61.609375 85.80859375 C-59.37273486 88.7907806 -57.72422113 91.39067768 -55.984375 94.62109375 C-51.62293987 101.92245922 -45.37854777 107.05188603 -37.125 109.375 C-27.35865414 111.0583298 -18.32771701 110.23959896 -9.796875 105.12109375 C-5.52195692 100.60189463 -3.38847029 96.0641779 -3.109375 89.80859375 C-3.37617025 84.69240257 -4.40644047 80.84638987 -7.609375 76.80859375 C-14.40876106 71.53886251 -21.87159951 69.26809319 -30.109375 67.24609375 C-43.53261043 63.90248783 -56.4158077 59.36884786 -64.3125 47.1796875 C-69.41398887 37.34319604 -69.93192149 27.35814813 -66.609375 16.80859375 C-62.93593151 7.56573595 -57.28617904 1.56956739 -48.609375 -3.19140625 C-33.00921719 -9.72523858 -14.37257355 -9.29580967 0 0 Z " fill="#FFFFFF" transform="translate(1201.609375,911.19140625)"/>
<path d="M0 0 C22.77 0 45.54 0 69 0 C69 5.61 69 11.22 69 17 C52.17 17 35.34 17 18 17 C18 30.2 18 43.4 18 57 C33.51 57 49.02 57 65 57 C65 62.61 65 68.22 65 74 C49.49 74 33.98 74 18 74 C18 87.53 18 101.06 18 115 C34.83 115 51.66 115 69 115 C69 120.61 69 126.22 69 132 C46.23 132 23.46 132 0 132 C0 88.44 0 44.88 0 0 Z " fill="#FFFFFF" transform="translate(1031,906)"/>
<path d="M0 0 C22.77 0 45.54 0 69 0 C69 5.61 69 11.22 69 17 C52.17 17 35.34 17 18 17 C18 30.2 18 43.4 18 57 C33.51 57 49.02 57 65 57 C65 62.61 65 68.22 65 74 C49.49 74 33.98 74 18 74 C18 87.53 18 101.06 18 115 C34.83 115 51.66 115 69 115 C69 120.61 69 126.22 69 132 C46.23 132 23.46 132 0 132 C0 88.44 0 44.88 0 0 Z " fill="#FFFFFF" transform="translate(769,906)"/>
<path d="M0 0 C6.27 0 12.54 0 19 0 C19 43.56 19 87.12 19 132 C12.73 132 6.46 132 0 132 C0 88.44 0 44.88 0 0 Z " fill="#FFFFFF" transform="translate(1252,906)"/>
<path d="M0 0 C4.23848613 -0.8520668 7.78016158 -1.03618808 12 0 C15.59280661 3.27344602 18.06977387 7.02682487 20.70849609 11.08300781 C22.91740776 14.36171752 25.40574094 17.41559509 27.875 20.5 C28.76900059 21.63480937 29.66226591 22.77019848 30.5546875 23.90625 C32.69329556 26.61196499 34.84552305 29.30690381 37 32 C37.33 21.44 37.66 10.88 38 0 C40.64 0 43.28 0 46 0 C46 16.83 46 33.66 46 51 C37 51 37 51 34.3203125 48.8671875 C33.59585938 47.87976563 32.87140625 46.89234375 32.125 45.875 C31.7220874 45.34455078 31.3191748 44.81410156 30.90405273 44.26757812 C30.03974827 43.12774869 29.18675902 41.97926647 28.34423828 40.82324219 C26.46874709 38.2794412 24.49703032 35.81654025 22.52880859 33.34423828 C19.29302311 29.27445414 16.11283966 25.16467958 13 21 C12.97494385 21.87325928 12.9498877 22.74651855 12.92407227 23.64624023 C12.82912291 26.87602552 12.72987971 30.10564154 12.62768555 33.33520508 C12.58428566 34.73489199 12.54261436 36.13463359 12.50268555 37.53442383 C12.44510555 39.54261495 12.38086 41.55061149 12.31640625 43.55859375 C12.27974854 44.76829834 12.24309082 45.97800293 12.20532227 47.22436523 C12 50 12 50 11 51 C8.36 51 5.72 51 3 51 C3 35.82 3 20.64 3 5 C1.68 4.67 0.36 4.34 -1 4 C-0.67 2.68 -0.34 1.36 0 0 Z " fill="#F5F5F5" transform="translate(944,498)"/>
<path d="M0 0 C0.495 0.28875 0.99 0.5775 1.5 0.875 C0.97731534 3.63776177 0.39130413 6.2010876 -0.5 8.875 C-1.20125 8.58625 -1.9025 8.2975 -2.625 8 C-3.57375 7.62875 -4.5225 7.2575 -5.5 6.875 C-6.428125 6.50375 -7.35625 6.1325 -8.3125 5.75 C-13.7641289 4.25347442 -17.9225713 4.40177139 -23.25 6 C-27.88088515 8.67166451 -29.83153649 11.86960947 -31.5 16.875 C-32.15623577 24.13662532 -32.32584741 31.02180133 -27.5 36.875 C-23.78900747 40.16739901 -20.70782749 41.75421725 -15.75 42.25 C-13.21030434 41.95695819 -10.95505984 41.52612457 -8.5 40.875 C-8.51256513 36.4709216 -8.63157267 32.20075123 -9.5 27.875 C-12.34100775 25.40525527 -12.34100775 25.40525527 -15.5 24.875 C-15.17 23.885 -14.84 22.895 -14.5 21.875 C-8.89 21.875 -3.28 21.875 2.5 21.875 C2.5 29.465 2.5 37.055 2.5 44.875 C-8.0103341 49.5462596 -17.76205998 52.39312841 -28.9375 48.1875 C-36.23870709 44.79131453 -40.67831251 40.51526151 -43.5 32.875 C-45.45680829 24.85338193 -45.65320471 16.20509637 -41.5 8.875 C-31.98319675 -4.71652649 -14.65588627 -6.59514882 0 0 Z " fill="#F4F4F4" transform="translate(886.5,500.125)"/>
<path d="M0 0 C11.88 0 23.76 0 36 0 C36.66 2.31 37.32 4.62 38 7 C30.08 7 22.16 7 14 7 C14 11.62 14 16.24 14 21 C20.93 21 27.86 21 35 21 C35 23.31 35 25.62 35 28 C28.07 28 21.14 28 14 28 C14 33.28 14 38.56 14 44 C21.92 44 29.84 44 38 44 C38 46.31 38 48.62 38 51 C26.45 51 14.9 51 3 51 C2.96261719 47.77476562 2.92523437 44.54953125 2.88671875 41.2265625 C2.84054351 38.11223459 2.7892953 34.99802879 2.73754883 31.88378906 C2.70423909 29.71491886 2.67622621 27.54596071 2.65356445 25.37695312 C2.62012945 22.26394062 2.56781987 19.1517386 2.51171875 16.0390625 C2.50532883 15.065065 2.4989389 14.0910675 2.49235535 13.08755493 C2.47256119 12.18677216 2.45276703 11.28598938 2.43237305 10.35791016 C2.42126999 9.56293121 2.41016693 8.76795227 2.39872742 7.94888306 C2.1554099 5.5951766 2.1554099 5.5951766 -1 4 C-0.67 2.68 -0.34 1.36 0 0 Z " fill="#F4F4F4" transform="translate(898,498)"/>
<path d="M0 0 C11.88 0 23.76 0 36 0 C36.495 3.465 36.495 3.465 37 7 C29.41 7 21.82 7 14 7 C14 11.62 14 16.24 14 21 C20.93 21 27.86 21 35 21 C35 23.31 35 25.62 35 28 C28.07 28 21.14 28 14 28 C14 33.28 14 38.56 14 44 C21.92 44 29.84 44 38 44 C38 45.98 38 47.96 38 50 C37 51 37 51 33.76538086 51.11352539 C32.33185874 51.11336631 30.89833088 51.10767407 29.46484375 51.09765625 C28.33496788 51.09553383 28.33496788 51.09553383 27.18226624 51.09336853 C24.7673044 51.08775376 22.35243399 51.07519883 19.9375 51.0625 C18.30403779 51.0574869 16.67057414 51.05292366 15.03710938 51.04882812 C11.02470415 51.03777954 7.01236759 51.02050506 3 51 C2.99413376 50.4406778 2.98826752 49.88135559 2.98222351 49.30508423 C2.91842213 43.49764784 2.83403816 37.69077247 2.73754883 31.88378906 C2.70423909 29.71491886 2.67622621 27.54596071 2.65356445 25.37695312 C2.62012945 22.26394062 2.56781987 19.1517386 2.51171875 16.0390625 C2.50532883 15.065065 2.4989389 14.0910675 2.49235535 13.08755493 C2.47256119 12.18677216 2.45276703 11.28598938 2.43237305 10.35791016 C2.42126999 9.56293121 2.41016693 8.76795227 2.39872742 7.94888306 C2.1554099 5.5951766 2.1554099 5.5951766 -1 4 C-0.67 2.68 -0.34 1.36 0 0 Z " fill="#F4F4F4" transform="translate(1001,498)"/>
<path d="M0 0 C0 2.31 0 4.62 0 7 C-6.75 6.125 -6.75 6.125 -9 5 C-10.9972542 4.87800862 -12.99905981 4.82452488 -15 4.8125 C-16.0725 4.79832031 -17.145 4.78414063 -18.25 4.76953125 C-21.14453096 4.71414214 -21.14453096 4.71414214 -23 7 C-23.05845809 9.46650198 -23.05845809 9.46650198 -22 12 C-18.47442687 15.19924966 -14.74513712 17.26234998 -10.5 19.375 C-4.65627729 22.44890391 -0.98765313 25.02469373 2 31 C2.68374561 35.88389724 2.54463922 39.10877219 -0.0625 43.375 C-6.74011408 49.3422296 -14.32815807 50.25274263 -22.98046875 49.8671875 C-26.84364888 49.55078437 -30.31283908 49.22905364 -34 48 C-34 45.03 -34 42.06 -34 39 C-32.80375 39.33 -31.6075 39.66 -30.375 40 C-23.96624895 41.45606824 -17.53380544 41.16729516 -11 41 C-10.58228196 37.66799815 -10.58228196 37.66799815 -11 34 C-14.14332689 30.66599336 -17.87338319 28.96263861 -22 27.0625 C-28.01088812 24.13828416 -31.28441397 21.57337904 -35 16 C-35.68291314 11.31489822 -35.67735844 7.27343387 -33.4375 3.0625 C-23.89920499 -5.00836501 -10.97046282 -4.65413574 0 0 Z " fill="#F7F7F7" transform="translate(1153,500)"/>
<path d="M0 0 C0 2.31 0 4.62 0 7 C-2.59819116 7.96229302 -3.65961762 8.14486862 -6.2578125 7.0390625 C-9.39973623 5.84853299 -11.83743833 5.73335373 -15.1875 5.75 C-16.75564453 5.74226563 -16.75564453 5.74226563 -18.35546875 5.734375 C-21.15581521 5.73388309 -21.15581521 5.73388309 -23 8 C-23.05845809 10.46650198 -23.05845809 10.46650198 -22 13 C-18.63030991 16.06335463 -15.26986345 17.91980055 -11.125 19.75 C-5.51158723 22.51512555 -1.01074109 25.36766123 2 31 C2.97084651 35.33258368 2.51252023 38.71869943 0.875 42.8125 C-2.87141699 47.18331982 -7.42282627 49.73724368 -13 51 C-20.2940641 51.55310439 -26.90008298 50.64635757 -34 49 C-34 46.03 -34 43.06 -34 40 C-32.948125 40.33 -31.89625 40.66 -30.8125 41 C-25.04976788 42.45878856 -16.44346637 43.72173319 -11 41 C-11 38.69 -11 36.38 -11 34 C-11.77863403 33.59273682 -11.77863403 33.59273682 -12.57299805 33.17724609 C-14.95183356 31.92321635 -17.3195044 30.64937234 -19.6875 29.375 C-20.50412109 28.94832031 -21.32074219 28.52164063 -22.16210938 28.08203125 C-27.86930916 24.9858176 -32.02368335 21.95263329 -35 16 C-35.58554517 11.06469071 -35.62461062 8.16735635 -32.5 4.1875 C-23.79071161 -4.68382166 -11.07794208 -2.95411789 0 0 Z " fill="#F6F6F6" transform="translate(1081,499)"/>
<path d="M0 0 C4.62 0 9.24 0 14 0 C14 16.83 14 33.66 14 51 C10.37 51 6.74 51 3 51 C2.98541748 49.64729004 2.97083496 48.29458008 2.95581055 46.90087891 C2.8979555 41.8949097 2.82072242 36.8893964 2.73754883 31.88378906 C2.70423909 29.71491886 2.67622621 27.54596071 2.65356445 25.37695312 C2.62012945 22.26394062 2.56781987 19.1517386 2.51171875 16.0390625 C2.50532883 15.065065 2.4989389 14.0910675 2.49235535 13.08755493 C2.47256119 12.18677216 2.45276703 11.28598938 2.43237305 10.35791016 C2.42126999 9.56293121 2.41016693 8.76795227 2.39872742 7.94888306 C2.1554099 5.5951766 2.1554099 5.5951766 -1 4 C-0.67 2.68 -0.34 1.36 0 0 Z " fill="#FAFAFA" transform="translate(1092,498)"/>
</svg>
