<?xml version="1.0" encoding="UTF-8"?>
<!-- Generator: visioncortex VTracer 0.6.12 -->
<svg version="1.1" xmlns="http://www.w3.org/2000/svg" width="976" height="620" viewBox="0 0 976 620">
<path d="M0 0 C0.676 -0.006 1.352 -0.011 2.049 -0.017 C4.336 -0.031 6.623 -0.016 8.91 -0.002 C10.565 -0.006 12.22 -0.012 13.874 -0.02 C18.455 -0.035 23.036 -0.026 27.617 -0.012 C32.588 -0.002 37.559 -0.015 42.53 -0.025 C51.253 -0.04 59.976 -0.039 68.699 -0.029 C81.671 -0.014 94.642 -0.022 107.614 -0.034 C129.432 -0.054 151.25 -0.055 173.069 -0.044 C173.733 -0.043 174.398 -0.043 175.083 -0.043 C175.749 -0.042 176.415 -0.042 177.102 -0.042 C197.372 -0.032 217.642 -0.029 237.912 -0.034 C239.268 -0.034 240.624 -0.034 241.98 -0.035 C247.43 -0.036 252.879 -0.037 258.329 -0.039 C273.564 -0.042 288.798 -0.045 304.033 -0.046 C304.727 -0.046 305.42 -0.046 306.135 -0.046 C328.251 -0.048 350.368 -0.043 372.484 -0.034 C373.201 -0.034 373.919 -0.034 374.658 -0.034 C386.312 -0.029 397.965 -0.024 409.619 -0.019 C455.84 0 502.06 -0.001 548.28 -0.02 C559.927 -0.025 571.573 -0.03 583.22 -0.034 C583.937 -0.035 584.654 -0.035 585.393 -0.035 C607.485 -0.044 629.576 -0.048 651.668 -0.046 C652.015 -0.046 652.015 -0.046 653.769 -0.046 C668.987 -0.044 684.205 -0.042 699.423 -0.038 C704.868 -0.037 710.313 -0.036 715.758 -0.034 C717.113 -0.034 718.468 -0.034 719.822 -0.033 C740.088 -0.029 760.353 -0.033 780.618 -0.043 C781.283 -0.043 781.948 -0.043 782.633 -0.044 C783.296 -0.044 783.96 -0.044 784.644 -0.045 C807.003 -0.056 829.362 -0.052 851.722 -0.031 C864.623 -0.019 877.524 -0.018 890.425 -0.033 C899.03 -0.042 907.634 -0.037 916.239 -0.019 C921.15 -0.01 926.061 -0.007 930.972 -0.021 C935.433 -0.034 939.894 -0.028 944.355 -0.008 C945.965 -0.004 947.576 -0.007 949.186 -0.017 C951.362 -0.03 953.536 -0.018 955.712 0 C956.92 0 958.128 0.001 959.372 0.001 C963.026 0.601 964.207 1.585 966.419 4.501 C968.024 12.705 964.437 20.88 961.356 28.314 C960.999 29.197 960.642 30.08 960.273 30.989 C957.766 36.696 954.79 40.409 950.245 44.641 C947.569 47.367 946.419 49.99 944.919 53.501 C942.513 58.775 939.889 62.332 935.583 66.189 C932.681 69.29 930.651 72.741 928.481 76.376 C925.589 81.223 922.755 85.494 918.794 89.564 C914.536 93.986 912.079 98.674 909.37 104.104 C906.953 108.82 904.279 112.095 900.36 115.599 C897.457 118.444 895.407 121.773 893.255 125.205 C890.22 129.001 887.635 131.191 882.791 131.87 C879.447 132.016 876.123 132.03 872.776 132.003 C871.504 132.009 870.231 132.014 868.921 132.019 C865.443 132.033 861.967 132.022 858.489 132.006 C854.846 131.992 851.203 131.998 847.561 132.002 C841.446 132.005 835.331 131.991 829.217 131.968 C822.149 131.941 815.082 131.94 808.014 131.951 C801.209 131.962 794.405 131.956 787.6 131.942 C784.707 131.936 781.813 131.936 778.919 131.941 C774.88 131.947 770.842 131.927 766.803 131.905 C765.602 131.91 764.401 131.914 763.163 131.919 C762.064 131.909 760.965 131.899 759.833 131.889 C758.878 131.887 757.924 131.884 756.94 131.882 C754.004 131.439 752.614 130.451 750.419 128.501 C750.983 124.129 752.696 120.662 754.677 116.783 C755.586 113.988 755.073 112.323 754.419 109.501 C743.725 108.123 732.978 108.359 722.219 108.368 C720.049 108.366 717.88 108.364 715.711 108.361 C709.765 108.355 703.82 108.355 697.874 108.356 C691.456 108.356 685.038 108.351 678.621 108.346 C666.055 108.338 653.489 108.335 640.924 108.334 C630.713 108.334 620.502 108.332 610.291 108.329 C607.35 108.328 604.408 108.327 601.467 108.326 C601.101 108.326 601.101 108.326 599.251 108.325 C578.692 108.319 558.134 108.315 537.575 108.316 C537.188 108.316 537.188 108.316 535.228 108.316 C531.302 108.316 527.377 108.316 523.451 108.316 C523.061 108.316 523.061 108.316 521.088 108.316 C519.512 108.316 517.935 108.316 516.359 108.316 C491.813 108.317 467.268 108.309 442.722 108.296 C415.137 108.28 387.552 108.272 359.966 108.273 C357.026 108.273 354.085 108.273 351.145 108.273 C350.421 108.273 349.697 108.273 348.951 108.273 C337.298 108.273 325.645 108.266 313.991 108.258 C302.285 108.249 290.579 108.248 278.873 108.255 C272.531 108.258 266.189 108.258 259.846 108.25 C254.043 108.242 248.239 108.243 242.436 108.252 C240.334 108.253 238.233 108.252 236.132 108.246 C233.278 108.239 230.425 108.244 227.572 108.253 C226.753 108.248 225.935 108.243 225.092 108.237 C219.892 108.27 215.421 109.065 210.419 110.501 C209.485 114.008 209.028 115.779 210.79 119.037 C211.472 119.871 212.154 120.705 212.856 121.564 C215.996 125.588 218.798 129.619 221.419 134.001 C224.544 139.18 227.942 144.03 231.544 148.884 C234.444 152.932 236.925 157.196 239.419 161.501 C242.259 166.32 245.107 171.09 248.294 175.689 C250.935 179.572 253.089 183.644 255.231 187.814 C258.414 193.974 262.051 199.266 266.329 204.736 C268.813 208.023 270.845 211.46 272.899 215.025 C274.549 217.714 276.386 220.177 278.294 222.689 C281.455 226.935 283.962 231.242 286.356 235.939 C288.832 240.792 291.462 245.08 294.856 249.376 C298.512 254.029 301.26 258.749 303.919 264.001 C307.213 270.504 310.846 276.068 315.364 281.806 C317.847 285.064 319.857 288.481 321.899 292.025 C323.549 294.714 325.386 297.177 327.294 299.689 C331.02 304.688 333.925 309.907 336.717 315.463 C339.143 320.24 339.143 320.24 341.141 322.134 C343.015 324.14 342.616 325.683 342.544 328.376 C342.958 335.052 346.213 339.235 350.083 344.372 C352.09 347.061 353.815 349.721 355.481 352.626 C358.182 357.251 361.294 361.484 364.481 365.783 C366.83 369.079 368.844 372.51 370.872 376.009 C372.488 378.612 374.287 380.96 376.169 383.376 C379.903 388.379 382.545 393.627 385.231 399.251 C389.078 407.278 393.529 414.211 398.954 421.244 C401.613 424.693 403.794 428.337 405.962 432.111 C407.638 434.861 409.5 437.414 411.419 440.001 C415.109 444.99 418.311 450.137 421.419 455.501 C424.477 460.667 427.587 465.779 430.856 470.814 C433.397 474.761 435.639 478.77 437.794 482.939 C440.8 488.64 444.352 493.593 448.302 498.673 C450.191 501.197 451.795 503.705 453.356 506.439 C455.825 510.674 458.558 514.635 461.481 518.564 C461.893 519.137 462.305 519.71 462.729 520.3 C464.668 522.852 466.044 524.362 469.079 525.49 C471.419 525.501 471.419 525.501 473.794 523.626 C476.571 520.5 479.075 517.132 481.575 513.783 C483.419 511.501 483.419 511.501 485.923 509.158 C489.592 505.253 491.308 500.727 493.477 495.876 C495.652 492.095 498.013 490.18 501.419 487.501 C506.873 481.031 511.207 473.738 515.462 466.447 C517.499 463.38 519.806 461.081 522.419 458.501 C523.833 456.318 523.833 456.318 525.044 454.064 C527.694 449.479 530.713 445.342 533.981 441.189 C534.44 440.602 534.899 440.016 535.372 439.412 C537.489 436.754 539.566 434.362 542.044 432.021 C545.66 428.185 547.344 423.646 549.477 418.876 C551.648 415.103 554.037 413.193 557.419 410.501 C559.22 408.064 559.22 408.064 560.731 405.501 C563.402 401.132 566.147 396.848 569.044 392.626 C569.758 391.577 570.472 390.528 571.208 389.447 C573.419 386.501 573.419 386.501 575.946 384.087 C579.375 380.501 581.183 376.475 583.292 372.029 C585.641 367.33 588.296 364.858 592.419 361.501 C594.427 359.032 596.171 356.41 597.919 353.751 C598.396 353.042 598.873 352.333 599.364 351.602 C600.725 349.574 602.074 347.54 603.419 345.501 C604.565 343.772 605.71 342.043 606.856 340.314 C607.079 339.974 607.079 339.974 608.204 338.251 C609.419 336.501 609.419 336.501 611.794 333.814 C613.921 330.787 614.036 329.125 613.419 325.501 C611.432 323.013 610.225 321.672 607.069 321.005 C606.633 321.006 606.633 321.006 604.422 321.009 C603.416 321.001 602.409 320.993 601.372 320.985 C600.274 320.996 599.176 321.007 598.044 321.019 C596.883 321.015 595.721 321.011 594.525 321.007 C592.002 321.001 589.479 321.004 586.956 321.016 C582.963 321.033 578.971 321.026 574.978 321.011 C565.78 320.982 556.582 320.993 547.383 321.004 C538.957 321.014 530.531 321.015 522.105 320.984 C517.5 320.969 512.896 320.984 508.292 321.004 C505.879 320.999 503.465 320.992 501.052 320.984 C499.958 320.995 498.864 321.006 497.736 321.018 C491.627 320.969 488.089 320.549 483.419 316.501 C483.146 316.265 483.146 316.265 481.766 315.072 C477.948 310.777 475.552 305.974 473.093 300.83 C470.86 296.216 468.253 292.181 465.239 288.052 C460.373 281.234 456.095 274.085 452.544 266.501 C450.362 261.966 447.72 258.189 444.544 254.314 C440.036 248.791 437.066 243.05 434.195 236.545 C432.067 231.747 429.685 227.525 426.45 223.361 C425.096 220.919 425.095 219.251 425.419 216.501 C428.231 213.689 429.992 214.251 433.935 214.25 C434.615 214.247 435.295 214.244 435.996 214.241 C438.297 214.234 440.599 214.241 442.901 214.247 C444.558 214.245 446.216 214.242 447.874 214.238 C452.447 214.23 457.02 214.234 461.593 214.24 C466.518 214.244 471.443 214.237 476.368 214.232 C486.024 214.223 495.679 214.225 505.335 214.231 C513.18 214.235 521.024 214.236 528.869 214.234 C529.426 214.234 529.426 214.234 532.246 214.233 C534.51 214.232 536.774 214.232 539.038 214.231 C560.29 214.225 581.543 214.232 602.795 214.242 C621.047 214.251 639.298 214.25 657.549 214.241 C678.722 214.23 699.894 214.226 721.067 214.232 C723.323 214.233 725.579 214.233 727.835 214.234 C728.39 214.234 728.39 214.234 731.199 214.235 C739.037 214.236 746.876 214.234 754.714 214.229 C764.262 214.223 773.81 214.225 783.358 214.235 C788.233 214.241 793.108 214.243 797.983 214.236 C802.441 214.23 806.899 214.233 811.356 214.244 C812.974 214.246 814.592 214.245 816.21 214.24 C818.399 214.234 820.588 214.24 822.777 214.25 C823.996 214.25 825.215 214.25 826.471 214.251 C829.419 214.501 829.419 214.501 832.419 216.501 C832.96 220.523 832.771 222.838 830.856 226.439 C829.554 228.076 828.232 229.702 826.805 231.232 C823.184 235.126 820.679 238.724 818.419 243.564 C816.19 248.307 813.894 251.336 810.052 254.83 C808.314 256.609 807.354 258.227 806.231 260.439 C803.831 265.105 800.792 269.106 797.606 273.251 C793.838 278.157 790.37 283.044 787.231 288.376 C784.781 292.515 782.257 295.918 778.919 299.376 C774.601 303.903 771.903 308.719 769.245 314.325 C767.206 318.51 765.034 320.665 761.419 323.501 C761.25 325.556 761.089 327.611 760.97 329.669 C759.275 338.382 753.725 346.814 747.134 352.568 C744.33 355.729 742.806 359.588 741.044 363.388 C738.965 367.742 736.743 370.405 733.169 373.533 C730.785 376.214 729.415 379.276 727.919 382.501 C725.581 387.537 723.167 391.197 719.016 394.9 C717.276 396.645 716.344 398.246 715.231 400.439 C712.831 405.105 709.792 409.105 706.606 413.251 C702.107 419.121 698.139 425.045 694.356 431.404 C691.649 435.733 688.562 439.73 685.458 443.779 C682.877 447.225 680.631 450.812 678.419 454.501 C676.204 458.045 673.892 461.091 671.044 464.126 C668.107 467.382 666.272 470.595 664.419 474.564 C662.64 478.352 661.124 481.111 657.981 483.876 C654.567 486.923 652.816 490.409 650.919 494.501 C648.615 499.47 646.288 502.928 642.169 506.533 C639.785 509.214 638.414 512.276 636.919 515.501 C635.039 519.555 633.332 523.015 629.919 526.001 C626.521 528.975 624.842 532.4 622.981 536.439 C620.531 541.721 617.897 545.311 613.583 549.201 C609.628 553.406 606.91 558.479 603.934 563.4 C601 568.244 597.769 572.842 594.505 577.47 C592.514 580.364 590.679 583.312 588.856 586.314 C586.669 589.83 584.483 592.538 581.419 595.314 C577.832 598.639 575.955 602.222 573.981 606.626 C571.109 612.973 567.806 616.593 561.419 619.501 C557.84 620.694 554.586 620.65 550.861 620.649 C550.084 620.652 549.307 620.656 548.507 620.66 C545.895 620.671 543.283 620.675 540.672 620.678 C538.803 620.685 536.933 620.691 535.064 620.698 C529.979 620.716 524.894 620.726 519.81 620.735 C516.633 620.74 513.456 620.746 510.279 620.752 C500.339 620.771 490.399 620.785 480.46 620.794 C468.986 620.803 457.512 620.83 446.039 620.87 C437.171 620.9 428.303 620.915 419.435 620.918 C414.138 620.921 408.842 620.93 403.545 620.955 C398.561 620.978 393.576 620.982 388.591 620.972 C386.765 620.972 384.938 620.978 383.111 620.992 C380.611 621.009 378.112 621.002 375.612 620.989 C374.894 621 374.176 621.011 373.436 621.022 C367.998 620.954 363.927 619.397 359.419 616.501 C357.536 614.458 357.536 614.458 356.294 612.314 C356.055 611.919 356.055 611.919 354.845 609.923 C354.609 609.524 354.609 609.524 353.419 607.501 C352.45 606.016 351.471 604.536 350.481 603.064 C350.234 602.691 350.234 602.691 348.981 600.802 C347.361 598.416 345.672 596.088 343.981 593.751 C340.582 588.93 337.839 583.869 335.095 578.654 C331.069 571.082 326.41 563.924 321.733 556.744 C319.472 553.24 317.407 549.705 315.481 546.001 C313.156 541.59 310.441 537.683 307.481 533.689 C303.242 527.955 300.129 522.188 297.059 515.74 C295.109 511.89 292.778 508.53 290.239 505.052 C285.373 498.234 281.095 491.085 277.544 483.501 C275.356 478.96 272.712 475.146 269.544 471.251 C264.29 464.774 260.861 457.784 257.292 450.288 C254.296 444.159 250.56 438.637 246.481 433.189 C242.807 428.234 239.912 423.079 237.059 417.619 C232.426 408.816 226.903 400.533 221.506 392.187 C219.349 388.844 217.218 385.484 215.091 382.122 C213.99 380.397 212.876 378.681 211.747 376.974 C208.164 371.51 205.07 365.939 202.106 360.126 C198.575 353.23 194.511 347.302 189.583 341.333 C186.316 337.058 184.126 333.446 184.231 328.001 C183.409 317.443 175.264 308.156 169.141 299.904 C165.527 294.919 162.835 289.665 160.179 284.124 C157.25 278.036 153.715 272.652 149.739 267.197 C145.69 261.564 142.325 255.792 139.095 249.654 C134.417 240.854 128.913 232.548 123.506 224.187 C121.349 220.844 119.218 217.484 117.091 214.122 C115.99 212.397 114.876 210.681 113.747 208.974 C110.164 203.51 107.07 197.939 104.106 192.126 C101.289 186.623 98.276 181.72 94.356 176.939 C89.151 170.585 85.807 163.67 82.292 156.288 C79.319 150.206 75.635 144.749 71.544 139.376 C67.753 134.283 65.028 128.969 62.281 123.278 C59.305 117.146 55.75 111.701 51.739 106.197 C47.69 100.564 44.325 94.792 41.095 88.654 C36.417 79.854 30.913 71.548 25.506 63.187 C23.349 59.844 21.218 56.484 19.091 53.122 C17.99 51.397 16.876 49.681 15.747 47.974 C12.125 42.45 8.988 36.81 5.981 30.939 C2.892 24.913 -0.504 19.823 -4.905 14.646 C-7.486 11.343 -8.663 8.597 -9.581 4.501 C-7.4 -0.112 -4.809 0.001 0 0 Z " fill="#F78200" transform="translate(9.581249177455902,-0.501396656036377)"/>
</svg>
