<?xml version="1.0" encoding="UTF-8"?>
<svg version="1.1" xmlns="http://www.w3.org/2000/svg" width="512" height="512">
<path d="M0 0 C0.92392485 -0.00623996 1.84784969 -0.01247993 2.79977226 -0.01890898 C5.88516898 -0.03482041 8.96977367 -0.02224174 12.05517578 -0.00964355 C14.27142802 -0.01506548 16.48767665 -0.02218853 18.70391846 -0.03088379 C24.71626887 -0.04911151 30.72834458 -0.0420517 36.74069977 -0.02936745 C43.03417193 -0.01923704 49.32762066 -0.02863325 55.62109375 -0.03491211 C66.86651527 -0.04265437 78.11182362 -0.03022745 89.3572185 -0.00987476 C99.546313 0.00799547 109.7352252 0.00489111 119.92431641 -0.0135498 C131.76627041 -0.03497225 143.60813617 -0.04291523 155.4501133 -0.03110075 C161.71513877 -0.02486615 167.98003875 -0.02402941 174.24505615 -0.0372467 C180.13518518 -0.0488052 186.02497008 -0.04077901 191.91506195 -0.01766968 C194.07617369 -0.01238265 196.23731442 -0.01389622 198.39841461 -0.02272034 C201.34965897 -0.03365931 204.29980226 -0.01993151 207.25097656 0 C208.10516615 -0.00892289 208.95935574 -0.01784577 209.83942986 -0.02703905 C215.58154567 0.04812517 219.00883516 0.99775581 223.62548828 4.50793457 C227.09433014 9.5890322 228.12575596 12.87247136 228.12885284 19.1432724 C228.13466661 19.88369469 228.14048037 20.62411698 228.14647031 21.3869763 C228.16104916 23.86394963 228.14719559 26.33992871 228.13342285 28.81689453 C228.13803261 30.61224037 228.14438604 32.40758244 228.15233183 34.20291662 C228.16903791 39.13337424 228.16077291 44.06352236 228.14838696 48.99398112 C228.13934406 54.3123998 228.15330242 59.63076491 228.16430664 64.94917297 C228.18210454 75.36673885 228.17824619 85.78418952 228.16665608 96.20175993 C228.15762705 104.66740911 228.15639546 113.13302598 228.16075134 121.59867859 C228.16136427 122.80299124 228.16197721 124.00730389 228.16260871 125.24811086 C228.1638876 127.69455501 228.16518445 130.14099916 228.16649908 132.58744329 C228.1779086 155.53437179 228.16478531 178.48123639 228.14329761 201.42815441 C228.12542631 221.12291131 228.12853031 240.8175739 228.14697266 260.5123291 C228.16837277 283.37645919 228.17680993 306.24053326 228.1645236 329.10467196 C228.16324939 331.54217815 228.16199191 333.97968434 228.16075134 336.41719055 C228.15982569 338.21619765 228.15982569 338.21619765 228.15888134 340.05154833 C228.15542586 348.50823074 228.16126104 356.96487765 228.17066956 365.42155457 C228.18188135 375.72570717 228.17886668 386.02973787 228.15754658 396.33387649 C228.1470252 401.59245252 228.14293296 406.85082521 228.15614319 412.1093998 C228.16805024 416.92196252 228.16153227 421.73413316 228.14023298 426.54666024 C228.13575978 428.28882119 228.13804927 430.03101516 228.14773613 431.77315491 C228.15988897 434.14010741 228.1474375 436.50571455 228.12885284 438.87259674 C228.12820343 440.18757094 228.12755403 441.50254514 228.12688494 442.85736704 C227.3324285 448.64164349 225.18713308 452.32056955 220.46139526 455.91368866 C216.14430269 458.0599831 211.9945687 458.06542083 207.25097656 458.01586914 C205.86508929 458.02522908 205.86508929 458.02522908 204.4512043 458.03477812 C201.36580758 458.05068955 198.28120289 458.03811088 195.19580078 458.0255127 C192.97954855 458.03093462 190.76329992 458.03805767 188.54705811 458.04675293 C182.53470769 458.06498065 176.52263198 458.05792084 170.51027679 458.04523659 C164.21680463 458.03510618 157.92335591 458.04450239 151.62988281 458.05078125 C140.38446129 458.05852351 129.13915295 458.04609659 117.89375806 458.0257439 C107.70466356 458.00787367 97.51575137 458.01097803 87.32666016 458.02941895 C75.48470615 458.05084139 63.6428404 458.05878437 51.80086327 458.04696989 C45.53583779 458.04073529 39.27093781 458.03989855 33.00592041 458.05311584 C27.11579138 458.06467434 21.22600648 458.05664815 15.33591461 458.03353882 C13.17480287 458.02825179 11.01366215 458.02976536 8.85256195 458.03858948 C5.90131759 458.04952846 2.9511743 458.03580065 0 458.01586914 C-1.28128438 458.02925347 -1.28128438 458.02925347 -2.58845329 458.04290819 C-8.32012389 457.9678807 -11.6441524 456.78058515 -16.37451172 453.50793457 C-20.38754082 449.09360256 -20.50083737 445.17628543 -20.5087328 439.36478806 C-20.51226114 438.26107769 -20.51226114 438.26107769 -20.51586077 437.13507015 C-20.52255947 434.65002969 -20.52209228 432.16504141 -20.52168274 429.67999268 C-20.52498081 427.88810339 -20.52870626 426.09621484 -20.53282422 424.30432725 C-20.54285861 419.36493387 -20.54656332 414.42555264 -20.54921353 409.4861505 C-20.55311227 404.16495098 -20.56269085 398.84376112 -20.57142639 393.52256775 C-20.59120212 380.66494312 -20.60125805 367.80731768 -20.61015418 354.94968164 C-20.61453494 348.89868708 -20.61990226 342.84769339 -20.62514305 336.79669952 C-20.64215582 316.68891964 -20.65665107 296.58114031 -20.66389179 276.47335434 C-20.66580176 271.25359852 -20.66772209 266.03384271 -20.66967773 260.81408691 C-20.67040334 258.86800979 -20.67040334 258.86800979 -20.67114361 256.88261798 C-20.67944796 235.85513315 -20.7047915 214.82770514 -20.73725841 193.80024514 C-20.77030061 172.22478845 -20.78833795 150.64936066 -20.79153603 129.07387853 C-20.79370367 116.95474173 -20.80248954 104.8356878 -20.82799721 92.71657562 C-20.84966535 82.39770462 -20.85777377 72.07893661 -20.84803043 61.76004544 C-20.84347456 56.49338387 -20.8454466 51.22693498 -20.86479187 45.96030235 C-20.8823444 41.14019905 -20.88149036 36.32046481 -20.86589458 31.50035802 C-20.86350645 29.75537734 -20.8679041 28.01037163 -20.87972323 26.26542935 C-20.89478843 23.89465157 -20.88520808 21.52519064 -20.86949635 19.15444565 C-20.87047315 17.83730316 -20.87144996 16.52016067 -20.87245637 15.16310477 C-20.08384906 9.37432099 -17.93910717 5.69754306 -13.2104187 2.10218048 C-8.89332613 -0.04411396 -4.74359214 -0.04955169 0 0 Z " fill="#C6E1F4" transform="translate(159.37451171875,25.4920654296875)"/>
<path d="M0 0 C0.92392485 -0.00623996 1.84784969 -0.01247993 2.79977226 -0.01890898 C5.88516898 -0.03482041 8.96977367 -0.02224174 12.05517578 -0.00964355 C14.27142802 -0.01506548 16.48767665 -0.02218853 18.70391846 -0.03088379 C24.71626887 -0.04911151 30.72834458 -0.0420517 36.74069977 -0.02936745 C43.03417193 -0.01923704 49.32762066 -0.02863325 55.62109375 -0.03491211 C66.86651527 -0.04265437 78.11182362 -0.03022745 89.3572185 -0.00987476 C99.546313 0.00799547 109.7352252 0.00489111 119.92431641 -0.0135498 C131.76627041 -0.03497225 143.60813617 -0.04291523 155.4501133 -0.03110075 C161.71513877 -0.02486615 167.98003875 -0.02402941 174.24505615 -0.0372467 C180.13518518 -0.0488052 186.02497008 -0.04077901 191.91506195 -0.01766968 C194.07617369 -0.01238265 196.23731442 -0.01389622 198.39841461 -0.02272034 C201.34965897 -0.03365931 204.29980226 -0.01993151 207.25097656 0 C208.10516615 -0.00892289 208.95935574 -0.01784577 209.83942986 -0.02703905 C215.58154567 0.04812517 219.00883516 0.99775581 223.62548828 4.50793457 C227.09433014 9.5890322 228.12575596 12.87247136 228.12885284 19.1432724 C228.13466661 19.88369469 228.14048037 20.62411698 228.14647031 21.3869763 C228.16104916 23.86394963 228.14719559 26.33992871 228.13342285 28.81689453 C228.13803261 30.61224037 228.14438604 32.40758244 228.15233183 34.20291662 C228.16903791 39.13337424 228.16077291 44.06352236 228.14838696 48.99398112 C228.13934406 54.3123998 228.15330242 59.63076491 228.16430664 64.94917297 C228.18210454 75.36673885 228.17824619 85.78418952 228.16665608 96.20175993 C228.15762705 104.66740911 228.15639546 113.13302598 228.16075134 121.59867859 C228.16136427 122.80299124 228.16197721 124.00730389 228.16260871 125.24811086 C228.1638876 127.69455501 228.16518445 130.14099916 228.16649908 132.58744329 C228.1779086 155.53437179 228.16478531 178.48123639 228.14329761 201.42815441 C228.12542631 221.12291131 228.12853031 240.8175739 228.14697266 260.5123291 C228.16837277 283.37645919 228.17680993 306.24053326 228.1645236 329.10467196 C228.16324939 331.54217815 228.16199191 333.97968434 228.16075134 336.41719055 C228.15982569 338.21619765 228.15982569 338.21619765 228.15888134 340.05154833 C228.15542586 348.50823074 228.16126104 356.96487765 228.17066956 365.42155457 C228.18188135 375.72570717 228.17886668 386.02973787 228.15754658 396.33387649 C228.1470252 401.59245252 228.14293296 406.85082521 228.15614319 412.1093998 C228.16805024 416.92196252 228.16153227 421.73413316 228.14023298 426.54666024 C228.13575978 428.28882119 228.13804927 430.03101516 228.14773613 431.77315491 C228.15988897 434.14010741 228.1474375 436.50571455 228.12885284 438.87259674 C228.12820343 440.18757094 228.12755403 441.50254514 228.12688494 442.85736704 C227.3324285 448.64164349 225.18713308 452.32056955 220.46139526 455.91368866 C216.14430269 458.0599831 211.9945687 458.06542083 207.25097656 458.01586914 C205.86508929 458.02522908 205.86508929 458.02522908 204.4512043 458.03477812 C201.36580758 458.05068955 198.28120289 458.03811088 195.19580078 458.0255127 C192.97954855 458.03093462 190.76329992 458.03805767 188.54705811 458.04675293 C182.53470769 458.06498065 176.52263198 458.05792084 170.51027679 458.04523659 C164.21680463 458.03510618 157.92335591 458.04450239 151.62988281 458.05078125 C140.38446129 458.05852351 129.13915295 458.04609659 117.89375806 458.0257439 C107.70466356 458.00787367 97.51575137 458.01097803 87.32666016 458.02941895 C75.48470615 458.05084139 63.6428404 458.05878437 51.80086327 458.04696989 C45.53583779 458.04073529 39.27093781 458.03989855 33.00592041 458.05311584 C27.11579138 458.06467434 21.22600648 458.05664815 15.33591461 458.03353882 C13.17480287 458.02825179 11.01366215 458.02976536 8.85256195 458.03858948 C5.90131759 458.04952846 2.9511743 458.03580065 0 458.01586914 C-1.28128438 458.02925347 -1.28128438 458.02925347 -2.58845329 458.04290819 C-8.32012389 457.9678807 -11.6441524 456.78058515 -16.37451172 453.50793457 C-20.38754082 449.09360256 -20.50083737 445.17628543 -20.5087328 439.36478806 C-20.51226114 438.26107769 -20.51226114 438.26107769 -20.51586077 437.13507015 C-20.52255947 434.65002969 -20.52209228 432.16504141 -20.52168274 429.67999268 C-20.52498081 427.88810339 -20.52870626 426.09621484 -20.53282422 424.30432725 C-20.54285861 419.36493387 -20.54656332 414.42555264 -20.54921353 409.4861505 C-20.55311227 404.16495098 -20.56269085 398.84376112 -20.57142639 393.52256775 C-20.59120212 380.66494312 -20.60125805 367.80731768 -20.61015418 354.94968164 C-20.61453494 348.89868708 -20.61990226 342.84769339 -20.62514305 336.79669952 C-20.64215582 316.68891964 -20.65665107 296.58114031 -20.66389179 276.47335434 C-20.66580176 271.25359852 -20.66772209 266.03384271 -20.66967773 260.81408691 C-20.67040334 258.86800979 -20.67040334 258.86800979 -20.67114361 256.88261798 C-20.67944796 235.85513315 -20.7047915 214.82770514 -20.73725841 193.80024514 C-20.77030061 172.22478845 -20.78833795 150.64936066 -20.79153603 129.07387853 C-20.79370367 116.95474173 -20.80248954 104.8356878 -20.82799721 92.71657562 C-20.84966535 82.39770462 -20.85777377 72.07893661 -20.84803043 61.76004544 C-20.84347456 56.49338387 -20.8454466 51.22693498 -20.86479187 45.96030235 C-20.8823444 41.14019905 -20.88149036 36.32046481 -20.86589458 31.50035802 C-20.86350645 29.75537734 -20.8679041 28.01037163 -20.87972323 26.26542935 C-20.89478843 23.89465157 -20.88520808 21.52519064 -20.86949635 19.15444565 C-20.87047315 17.83730316 -20.87144996 16.52016067 -20.87245637 15.16310477 C-20.08384906 9.37432099 -17.93910717 5.69754306 -13.2104187 2.10218048 C-8.89332613 -0.04411396 -4.74359214 -0.04955169 0 0 Z M-16.37451172 58.50793457 C-16.46188865 126.99132748 -16.46188865 126.99132748 -16.52099609 195.47473145 C-16.52686996 204.69991064 -16.53293147 213.92508969 -16.53930664 223.15026855 C-16.54009789 224.30653871 -16.54088913 225.46280887 -16.54170436 226.65411752 C-16.55476213 245.33577905 -16.57841901 264.01741295 -16.60597011 282.69905808 C-16.63399729 301.8629608 -16.65068228 321.02684903 -16.6567772 340.1907714 C-16.66089923 352.02161242 -16.67393122 363.8523754 -16.69826112 375.68319241 C-16.71408515 383.78945936 -16.71891965 391.89568581 -16.71501585 400.00196709 C-16.7130891 404.68303104 -16.71609995 409.36395835 -16.73212814 414.04499817 C-16.74668618 418.32782809 -16.74749086 422.610429 -16.7372084 426.89326928 C-16.73593685 428.44516952 -16.7397771 429.99708384 -16.74916127 431.54895624 C-16.76115563 433.65438301 -16.75473986 435.75897706 -16.7436552 437.86439037 C-16.74479437 439.03506815 -16.74593353 440.20574593 -16.74710721 441.41189879 C-16.1852998 446.08016742 -13.9684338 449.5129995 -10.37451172 452.50793457 C-6.44879131 453.81650804 -2.71161054 453.65253997 1.38058472 453.64837646 C2.28616879 453.65134759 3.19175286 453.65431871 4.12477887 453.65737987 C7.17173684 453.66608003 10.21865558 453.66757622 13.265625 453.66906738 C15.44512008 453.67369458 17.62461435 453.6787191 19.80410767 453.68411255 C25.73382839 453.69724692 31.66353778 453.70368338 37.59327078 453.70812321 C41.29545972 453.71105188 44.99764554 453.71515627 48.69983292 453.71962738 C60.2760987 453.73330421 71.8523574 453.74297031 83.42863071 453.74682927 C85.40722023 453.74749241 85.40722023 453.74749241 87.42578125 453.74816895 C88.41714388 453.74850109 88.41714388 453.74850109 89.42853405 453.74883994 C99.47386839 453.75254324 109.51914272 453.76736588 119.56445312 453.78918457 C131.22688861 453.81443191 142.88927692 453.82935976 154.55174077 453.83087039 C160.72621335 453.8319201 166.90059002 453.83786334 173.07503891 453.85569 C178.88131364 453.87212744 184.68741991 453.87434724 190.49370956 453.86555099 C192.62664235 453.86477833 194.75958404 453.86915334 196.8924942 453.87900925 C199.80067348 453.89166121 202.70825 453.88588869 205.61642456 453.87542725 C206.46360452 453.88348365 207.31078447 453.89154006 208.18363655 453.89984059 C212.80770628 453.860845 215.95567955 453.6157575 219.62548828 450.50793457 C223.0567992 446.12032007 224.12488366 443.29207688 224.1176796 437.74134254 C224.12229497 437.08270724 224.12691035 436.42407193 224.13166559 435.74547797 C224.14224504 433.54069318 224.12431819 431.33707933 224.10650635 429.13235474 C224.10825094 427.53500069 224.11175378 425.93764775 224.11686301 424.34030092 C224.12580896 419.95270283 224.10980467 415.56549515 224.08975077 411.17794681 C224.07248466 406.44590186 224.07832188 401.71387911 224.08135986 396.98181152 C224.08345776 388.78379725 224.07090263 380.58591027 224.04840851 372.38792801 C224.01590696 360.53502802 224.00548337 348.68218962 224.00045654 336.8292499 C223.991701 317.59890026 223.96507836 298.36861847 223.92724609 279.13830566 C223.89053273 260.45731948 223.86226352 241.77635182 223.84521484 223.09533691 C223.84414285 221.93218873 223.84307086 220.76904055 223.84196639 219.57064545 C223.83364875 210.47412746 223.82582104 201.37760906 223.81814814 192.2810905 C223.78041012 147.68997625 223.69993775 103.09903183 223.62548828 58.50793457 C144.42548828 58.50793457 65.22548828 58.50793457 -16.37451172 58.50793457 Z " fill="#E97727" transform="translate(159.37451171875,25.4920654296875)"/>
<path d="M0 0 C3.4245151 1.83705766 5.26574884 4.40120593 7.5546875 7.4375 C14.06127063 15.50701627 22.14262199 23.01726445 32.52734375 25.2734375 C35.6226558 25.52267917 38.58200066 25.61510768 41.6796875 25.4375 C41.62167969 24.05304688 41.62167969 24.05304688 41.5625 22.640625 C41.74151621 17.7475152 44.30375163 14.81343587 47.6796875 11.4375 C52.58686728 11.57012648 54.38480915 14.06773805 57.6796875 17.4375 C59.05680817 18.38204599 60.45487706 19.29642891 61.8671875 20.1875 C66.40899683 23.12232364 70.29359093 26.53228841 74.25390625 30.203125 C76.47157024 32.24580423 78.7449965 34.18811627 81.0546875 36.125 C86.00538321 40.43560576 89.23478729 44.80414831 90.0546875 51.5 C89.47630982 57.57296562 87.29125091 63.1646544 82.6015625 67.24609375 C81.88484375 67.78363281 81.168125 68.32117188 80.4296875 68.875 C77.7300009 70.98603313 76.80503265 71.94678708 75.9453125 75.3125 C75.70832163 78.04486528 75.60040318 80.69723573 75.6796875 83.4375 C76.6903125 83.086875 77.7009375 82.73625 78.7421875 82.375 C82.60306128 81.2482552 85.73363336 81.63218283 89.6796875 82.4375 C90.0096875 83.7575 90.3396875 85.0775 90.6796875 86.4375 C94.1446875 85.9425 94.1446875 85.9425 97.6796875 85.4375 C98.6696875 86.9225 98.6696875 86.9225 99.6796875 88.4375 C103.26325991 88.68765873 103.26325991 88.68765873 106.6796875 88.4375 C105.91881793 95.91938406 105.91881793 95.91938406 104.5546875 98.875 C102.88352772 103.76911077 104.14213575 108.82484474 105.7421875 113.625 C107.12683225 117.77893425 107.48296194 120.67268515 105.62890625 124.74609375 C101.15609965 132.99241861 101.15609965 132.99241861 97.70849609 134.03173828 C96.92297363 134.18884277 96.13745117 134.34594727 95.328125 134.5078125 C94.47734375 134.68183594 93.6265625 134.85585937 92.75 135.03515625 C91.86054688 135.20917969 90.97109375 135.38320312 90.0546875 135.5625 C88.70890625 135.83513672 88.70890625 135.83513672 87.3359375 136.11328125 C85.1184609 136.5614946 82.89980536 137.0025924 80.6796875 137.4375 C80.83695312 138.02015625 80.99421875 138.6028125 81.15625 139.203125 C82.12101944 143.32139457 82.86137703 147.49703617 80.59188843 151.2237854 C80.14310333 151.81976532 79.69431824 152.41574524 79.23193359 153.02978516 C76.03227155 157.94540358 75.7483457 162.45429913 75.46875 168.2109375 C75.40056061 169.25003265 75.33237122 170.28912781 75.26211548 171.35971069 C75.04698575 174.71805025 74.86311975 178.07729472 74.6796875 181.4375 C74.53940752 183.69966746 74.3971485 185.96171305 74.25292969 188.22363281 C73.89137858 193.99786195 73.56213198 199.77335453 73.24707031 205.55029297 C73.05290464 209.0950486 72.85094043 212.63930567 72.6484375 216.18359375 C70.43887861 235.67480609 70.43887861 235.67480609 73.6796875 254.4375 C74.27888178 259.573451 74.01029618 262.28190711 71.3046875 266.6875 C68.54515505 271.19111898 67.85042345 275.25058487 67.12890625 280.43359375 C66.24833779 286.32191677 65.41239912 291.70478838 61.1171875 296 C57.28638944 298.2591886 55.19124001 298.87130313 50.6796875 298.4375 C46.2240472 295.95262368 43.42565238 293.88799462 41.8984375 288.87109375 C41.66125 287.88238281 41.4240625 286.89367187 41.1796875 285.875 C40.92058594 284.80765625 40.66148437 283.7403125 40.39453125 282.640625 C39.76254769 279.8087861 39.2375139 276.98298951 38.7421875 274.125 C38.14317417 270.90466337 37.36405282 268.66107096 35.5546875 265.9375 C33.13298147 261.41698208 32.92094592 257.48401373 33.6796875 252.4375 C34.3396875 251.4475 34.9996875 250.4575 35.6796875 249.4375 C36.54309397 240.34158458 35.39428728 230.92181772 34.83984375 221.8125 C34.75229143 220.3338374 34.66501163 218.85515864 34.57798767 217.37646484 C34.39603528 214.29706692 34.21177668 211.21781935 34.02563477 208.13867188 C33.78914473 204.2258553 33.55700248 200.31279665 33.3264246 196.39962769 C33.14661431 193.35205827 32.96521837 190.30458492 32.78329277 187.25714111 C32.69728616 185.8157126 32.61157953 184.37426616 32.52620125 182.93280029 C32.25883063 178.43334392 31.97178716 173.93543209 31.6796875 169.4375 C31.61602997 168.28636719 31.55237244 167.13523437 31.48678589 165.94921875 C31.41823395 164.88574219 31.34968201 163.82226562 31.27905273 162.7265625 C31.22474594 161.80311035 31.17043915 160.8796582 31.11448669 159.92822266 C30.5016003 156.4173375 28.81186647 154.15044116 26.76171875 151.30859375 C24.09940844 146.70481527 25.63767838 141.38277281 26.6796875 136.4375 C25.58269531 136.32792969 24.48570312 136.21835938 23.35546875 136.10546875 C21.90097234 135.94594334 20.44654887 135.78575187 18.9921875 135.625 C17.9103418 135.51961914 17.9103418 135.51961914 16.80664062 135.41210938 C12.42454367 134.91187 9.2828122 134.17799816 5.6796875 131.4375 C1.60814973 126.00878297 0.23459325 122.22518727 0.6796875 115.4375 C1.13458336 114.06752295 1.63651489 112.71243444 2.1796875 111.375 C4.62467174 105.30911052 3.75050444 101.21723297 1.34765625 95.33984375 C0.51771548 92.97621126 0.4468762 90.92082053 0.6796875 88.4375 C1.7934375 88.499375 2.9071875 88.56125 4.0546875 88.625 C5.2509375 88.563125 6.4471875 88.50125 7.6796875 88.4375 C8.3396875 87.4475 8.9996875 86.4575 9.6796875 85.4375 C13.3046875 85.25 13.3046875 85.25 16.6796875 85.4375 C17.1746875 83.9525 17.1746875 83.9525 17.6796875 82.4375 C23.09704547 81.50347276 26.48420325 81.22941919 31.6796875 83.4375 C31.75461919 77.61423712 31.68834519 72.87876294 27.6171875 68.4375 C26.98683594 67.80199219 26.35648438 67.16648437 25.70703125 66.51171875 C20.03031236 60.70374625 15.80695747 53.877186 12.1171875 46.6875 C9.69407957 42.01711057 7.32045065 38.75030141 3.44921875 35.24609375 C-2.96634378 28.68890732 -7.59331503 20.13057384 -7.6328125 10.875 C-7.55741931 6.61238483 -7.20856869 3.7701033 -4.3203125 0.4375 C-2.3203125 -0.5625 -2.3203125 -0.5625 0 0 Z " fill="#E07429" transform="translate(209.3203125,104.5625)"/>
<path d="M0 0 C4.87974684 1.02394688 7.02718323 4.22235 9.875 8 C16.38158313 16.06951627 24.46293449 23.57976445 34.84765625 25.8359375 C37.9429683 26.08517917 40.90231316 26.17760768 44 26 C43.94199219 24.61554688 43.94199219 24.61554688 43.8828125 23.203125 C44.06182871 18.3100152 46.62406413 15.37593587 50 12 C54.90717978 12.13262648 56.70512165 14.63023805 60 18 C61.37712067 18.94454599 62.77518956 19.85892891 64.1875 20.75 C68.72930933 23.68482364 72.61390343 27.09478841 76.57421875 30.765625 C78.79188274 32.80830423 81.065309 34.75061627 83.375 36.6875 C88.32569571 40.99810576 91.55509979 45.36664831 92.375 52.0625 C91.79662232 58.13546562 89.61156341 63.7271544 84.921875 67.80859375 C84.20515625 68.34613281 83.4884375 68.88367188 82.75 69.4375 C80.0503134 71.54853313 79.12534515 72.50928708 78.265625 75.875 C78.02863413 78.60736528 77.92071568 81.25973573 78 84 C79.010625 83.649375 80.02125 83.29875 81.0625 82.9375 C84.92337378 81.8107552 88.05394586 82.19468283 92 83 C92.33 84.32 92.66 85.64 93 87 C96.465 86.505 96.465 86.505 100 86 C100.99 87.485 100.99 87.485 102 89 C105.58357241 89.25015873 105.58357241 89.25015873 109 89 C108.23913043 96.48188406 108.23913043 96.48188406 106.875 99.4375 C105.20384022 104.33161077 106.46244825 109.38734474 108.0625 114.1875 C109.44714475 118.34143425 109.80327444 121.23518515 107.94921875 125.30859375 C103.47641215 133.55491861 103.47641215 133.55491861 100.02880859 134.59423828 C99.24328613 134.75134277 98.45776367 134.90844727 97.6484375 135.0703125 C96.79765625 135.24433594 95.946875 135.41835937 95.0703125 135.59765625 C94.18085938 135.77167969 93.29140625 135.94570312 92.375 136.125 C91.02921875 136.39763672 91.02921875 136.39763672 89.65625 136.67578125 C87.4387734 137.1239946 85.22011786 137.5650924 83 138 C83.15726562 138.58265625 83.31453125 139.1653125 83.4765625 139.765625 C84.44133194 143.88389457 85.18168953 148.05953617 82.91220093 151.7862854 C82.46341583 152.38226532 82.01463074 152.97824524 81.55224609 153.59228516 C78.35258405 158.50790358 78.0686582 163.01679913 77.7890625 168.7734375 C77.72087311 169.81253265 77.65268372 170.85162781 77.58242798 171.92221069 C77.36729825 175.28055025 77.18343225 178.63979472 77 182 C76.85972002 184.26216746 76.717461 186.52421305 76.57324219 188.78613281 C76.21169108 194.56036195 75.88244448 200.33585453 75.56738281 206.11279297 C75.37321714 209.6575486 75.17125293 213.20180567 74.96875 216.74609375 C72.75919111 236.23730609 72.75919111 236.23730609 76 255 C76.59919428 260.135951 76.33060868 262.84440711 73.625 267.25 C70.86546755 271.75361898 70.17073595 275.81308487 69.44921875 280.99609375 C68.56865029 286.88441677 67.73271162 292.26728838 63.4375 296.5625 C59.60990836 298.81979763 57.49206213 299.26952373 53 299 C50.625 298 50.625 298 49 297 C49 296.01 49 295.02 49 294 C52.63 294 56.26 294 60 294 C60.99 291.03 61.98 288.06 63 285 C58.38 285 53.76 285 49 285 C49 284.67 49 284.34 49 284 C53.95 284 58.9 284 64 284 C64.103125 282.329375 64.20625 280.65875 64.3125 278.9375 C64.74591369 274.00423246 65.75653045 270.38939694 68 266 C67.47921875 266.16371094 66.9584375 266.32742188 66.421875 266.49609375 C63.3243125 267.14058659 60.41158906 267.09411589 57.25 267.0625 C56.07953125 267.05347656 54.9090625 267.04445313 53.703125 267.03515625 C52.81109375 267.02355469 51.9190625 267.01195312 51 267 C51 266.67 51 266.34 51 266 C51.94101562 265.86722656 52.88203125 265.73445313 53.8515625 265.59765625 C55.09679687 265.42105469 56.34203125 265.24445313 57.625 265.0625 C58.85476563 264.88847656 60.08453125 264.71445312 61.3515625 264.53515625 C64.57556184 264.06225699 67.78812176 263.54848998 71 263 C71 262.34 71 261.68 71 261 C70.01 261.33 69.02 261.66 68 262 C66.60560336 262.06665376 65.20830125 262.08538199 63.8125 262.0625 C62.554375 262.041875 61.29625 262.02125 60 262 C60 261.67 60 261.34 60 261 C63.63 260.34 67.26 259.68 71 259 C71 258.34 71 257.68 71 257 C70.34 256.67 69.68 256.34 69 256 C69.33 255.34 69.66 254.68 70 254 C69.44014404 254.01047363 68.88028809 254.02094727 68.3034668 254.03173828 C65.76485693 254.07333326 63.2263188 254.09933685 60.6875 254.125 C59.36588867 254.15013672 59.36588867 254.15013672 58.01757812 254.17578125 C57.17001953 254.18222656 56.32246094 254.18867188 55.44921875 254.1953125 C54.66893311 254.20578613 53.88864746 254.21625977 53.0847168 254.22705078 C51 254 51 254 48 252 C57.9 251.01 57.9 251.01 68 250 C68.21148682 246.06416992 68.21148682 246.06416992 68.42724609 242.04882812 C68.89509734 233.36321512 69.37152458 224.67808768 69.8521328 215.99317169 C70.14315902 210.72938472 70.43132736 205.46547418 70.71289062 200.20117188 C70.98490472 195.11740249 71.26452227 190.03410237 71.54933548 184.95103455 C71.6564786 183.01519968 71.76091744 181.07921312 71.86256027 179.14308167 C72.00579264 176.42370846 72.15877861 173.70504183 72.31396484 170.98632812 C72.35352798 170.19222534 72.39309113 169.39812256 72.43385315 168.57995605 C72.73691563 163.49888423 73.63425876 158.9062696 75 154 C74.21625 154.165 73.4325 154.33 72.625 154.5 C68.06033858 155.12960847 63.59927399 155.08180527 59 155 C59 154.67 59 154.34 59 154 C59.7734375 153.89042969 60.546875 153.78085937 61.34375 153.66796875 C67.60651229 152.71460271 73.16421443 151.4689862 79 149 C79.04241723 146.66705225 79.04092937 144.33297433 79 142 C78.67 141.67 78.34 141.34 78 141 C77.6875 138.625 77.6875 138.625 78 136 C81.95338379 131.7180508 87.98791179 131.95219169 93.4453125 131.359375 C97.52089522 130.80789351 99.45283619 130.52326274 102.50390625 127.60546875 C104.44588954 124.22347697 104.9337316 121.90983564 105 118 C104.21817318 115.17948553 103.18158604 112.69401618 102 110 C101.32710937 110.98226562 101.32710937 110.98226562 100.640625 111.984375 C96.58841752 115.07748012 92.6960438 114.43010804 87.75 114.25 C86.81414062 114.23195313 85.87828125 114.21390625 84.9140625 114.1953125 C82.60832985 114.14825673 80.30469055 114.08253713 78 114 C78.99 113.34 79.98 112.68 81 112 C80.54996653 106.37458159 79.31558515 103.38512875 76 99 C74.12119128 99.04768403 74.12119128 99.04768403 72 100 C69.89424024 102.70740541 68.25374392 104.95683054 67.4375 108.3125 C67.293125 108.869375 67.14875 109.42625 67 110 C65.515 110.495 65.515 110.495 64 111 C63.5875 109.783125 63.175 108.56625 62.75 107.3125 C61.3839438 103.63264526 59.65605232 100.93081636 57 98 C53.67187429 98.57381478 52.30157545 99.59380748 50 102 C49.34 102 48.68 102 48 102 C49.49097658 98.2047869 51.75700849 96.38957269 55 94 C58.91841827 95.30613942 61.32640809 96.83129848 64 100 C64 100.66 64 101.32 64 102 C64.59167969 101.47148437 65.18335938 100.94296875 65.79296875 100.3984375 C66.58316406 99.73070312 67.37335938 99.06296875 68.1875 98.375 C68.96480469 97.70210938 69.74210937 97.02921875 70.54296875 96.3359375 C73 95 73 95 75.6328125 95.59375 C77.91856863 96.95162493 79.14240362 97.99985082 80.6875 100.125 C81.450625 101.07375 82.21375 102.0225 83 103 C83.66 103 84.32 103 85 103 C85.61875 102.195625 86.2375 101.39125 86.875 100.5625 C89 98 89 98 90.9375 96.9375 C94.20367686 97.03647506 95.69358982 98.81497983 98 101 C98.99 102.485 98.99 102.485 100 104 C101.32 100.7 102.64 97.4 104 94 C102.35 94 100.7 94 99 94 C98.34 93.34 97.68 92.68 97 92 C94.67724823 91.59952556 92.34260643 91.2602896 90 91 C89.67 90.01 89.34 89.02 89 88 C88.360625 88.165 87.72125 88.33 87.0625 88.5 C84.45722462 88.92535108 82.24508662 89.03583024 79.625 89 C75.6311745 88.9464814 71.93431809 89.33032884 68 90 C69.51398455 86.21503862 70.0144396 85.9927802 74 84 C74 81.03 74 78.06 74 75 C62.12 75 50.24 75 38 75 C38.495 73.515 38.495 73.515 39 72 C42.96 72 46.92 72 51 72 C50.67 71.67 50.34 71.34 50 71 C48.08242455 71.05882133 46.16572148 71.14720519 44.25 71.25 C38.38809625 71.28460392 38.38809625 71.28460392 35.1875 68.9375 C34.465625 67.968125 33.74375 66.99875 33 66 C31.76266565 64.77870022 30.51190765 63.57089236 29.25 62.375 C26.90400416 60.12080399 26.05472506 59.16417519 25 56 C24.52949219 55.54753906 24.05898437 55.09507812 23.57421875 54.62890625 C21.59053395 52.57630932 20.83348253 50.5936193 19.8125 47.9375 C19.46832031 47.05964844 19.12414062 46.18179688 18.76953125 45.27734375 C18 43 18 43 18 41 C17.34 41 16.68 41 16 41 C15.7525 40.2575 15.505 39.515 15.25 38.75 C13.44638102 34.78203823 11.17860271 32.68991378 7.4375 30.5 C2.38147758 27.38860158 1.44546881 23.58914608 0 18 C-0.556875 16.453125 -0.556875 16.453125 -1.125 14.875 C-1.97928024 12.0680792 -2.17121566 9.91066626 -2 7 C-2.66 7 -3.32 7 -4 7 C-3.6875 4.625 -3.6875 4.625 -3 2 C-2.01 1.34 -1.02 0.68 0 0 Z " fill="#D36E27" transform="translate(207,104)"/>
<path d="M0 0 C79.2 0 158.4 0 240 0 C240 5.28 240 10.56 240 16 C160.8 16 81.6 16 0 16 C0 10.72 0 5.44 0 0 Z " fill="#01336A" transform="translate(143,66)"/>
<path d="M0 0 C1.35503734 -0.0083016 1.35503734 -0.0083016 2.73744917 -0.0167709 C5.75920738 -0.03036527 8.78013792 -0.01541458 11.80187988 -0.00050354 C13.97034557 -0.00428715 16.13880884 -0.00978753 18.30726624 -0.01687622 C24.19359241 -0.03084253 30.07962668 -0.01965259 35.96593666 -0.00316501 C42.12507992 0.01068135 48.28420617 0.00422588 54.44335938 0.0007019 C64.78670966 -0.00200054 75.12994392 0.01147841 85.4732666 0.03465271 C97.43278647 0.06126258 109.39211234 0.06300962 121.35165167 0.05126435 C132.85478543 0.04048636 144.35784899 0.04667383 155.86097717 0.06081963 C160.75718342 0.06657922 165.65333829 0.06649693 170.54954529 0.06175423 C176.31485724 0.05698308 182.07995667 0.0670921 187.8452282 0.08870888 C189.96160605 0.09427499 192.07800433 0.09474366 194.19438362 0.08975601 C197.08238052 0.08380329 199.96972766 0.09630841 202.85766602 0.11352539 C204.11516073 0.10451032 204.11516073 0.10451032 205.39805937 0.09531313 C210.30832044 0.14857565 213.67469458 0.78598629 217.92883301 3.50120544 C222.09679525 8.32726699 221.92883301 9.66101818 221.92883301 16.50120544 C142.72883301 16.50120544 63.52883301 16.50120544 -18.07116699 16.50120544 C-18.07116699 8.20120544 -18.07116699 8.20120544 -15.07116699 4.50120544 C-10.00023031 0.29927339 -6.29667457 -0.07214297 0 0 Z " fill="#A03222" transform="translate(161.0711669921875,29.498794555664063)"/>
<path d="M0 0 C79.2 0 158.4 0 240 0 C240 4.95 240 9.9 240 15 C160.8 15 81.6 15 0 15 C0 10.05 0 5.1 0 0 Z " fill="#F8F7F7" transform="translate(143,48)"/>
<path d="M0 0 C0.60312012 0.07686035 1.20624023 0.1537207 1.82763672 0.23291016 C11.93883365 1.47607148 22.13541743 1.36136639 32.27001953 0.49169922 C33.34478546 0.40008514 34.41955139 0.30847107 35.52688599 0.21408081 C36.75107742 0.10811081 36.75107742 0.10811081 38 0 C37.87810303 1.31121826 37.75620605 2.62243652 37.63061523 3.97338867 C36.50827689 16.48927484 35.68195584 29.00314414 35.03515625 41.55078125 C34.95449156 43.09138584 34.87371094 44.63198437 34.79281616 46.1725769 C34.46146273 52.50956294 34.13239084 58.84659309 33.82543945 65.18481445 C33.63423349 69.12295553 33.42939686 73.06018219 33.21548271 76.99715233 C33.13741437 78.48205836 33.06446918 79.96724328 32.99684334 81.45266151 C32.90282602 83.50752083 32.79148176 85.56075187 32.67602539 87.61450195 C32.61766006 88.77899368 32.55929474 89.94348541 32.49916077 91.14326477 C31.96148198 94.22044158 31.50833472 95.21043442 29 97 C25.35192562 98.06607579 21.7860309 98.16335439 18 98.1875 C16.4840625 98.20876953 16.4840625 98.20876953 14.9375 98.23046875 C11.65759571 97.97313583 8.41156655 97.41156655 6 95 C5.76031809 92.33783087 5.58251854 89.69518475 5.44335938 87.02709961 C5.39605179 86.19124329 5.3487442 85.35538696 5.30000305 84.49420166 C5.14363716 81.71380325 4.99380175 78.93308946 4.84375 76.15234375 C4.73596019 74.22234927 4.62767732 72.29238227 4.5189209 70.36244202 C4.23261087 65.26442421 3.95145178 60.16613672 3.67181396 55.06774902 C3.22523039 46.93151989 2.77323441 38.79559887 2.31684875 30.65991402 C2.15872813 27.82182342 2.00419991 24.98355304 1.84997559 22.14524841 C1.75233375 20.38971205 1.65456215 18.6341829 1.55664062 16.87866211 C1.51505325 16.09548111 1.47346588 15.31230011 1.43061829 14.50538635 C1.15466341 9.63295153 0.65313748 4.83676928 0 0 Z " fill="#193961" transform="translate(244,258)"/>
<path d="M0 0 C0.66 1.32 1.32 2.64 2 4 C2.74048584 3.99476318 3.48097168 3.98952637 4.24389648 3.98413086 C7.64175548 3.96317443 11.03960081 3.95028092 14.4375 3.9375 C15.60216797 3.92912109 16.76683594 3.92074219 17.96679688 3.91210938 C25.5669148 3.89070059 32.82782819 4.21279777 40.3125 5.625 C43.01440754 6.00201035 44.41850675 5.66619181 47 5 C48.2065625 5.2475 48.2065625 5.2475 49.4375 5.5 C52.37360211 6.07289797 54.09705997 5.67510233 57 5 C61.68100477 4.19917637 65.3273775 3.98970324 70 5 C70.73734375 4.84144531 71.4746875 4.68289062 72.234375 4.51953125 C76.47355414 3.72318828 80.64937918 4.14210787 84.94140625 4.35546875 C88.64176082 3.92541477 89.71047204 2.84931475 92 0 C94.26241283 4.2820775 95.97940844 7.78509824 96.0625 12.6875 C94.80979043 16.59300631 93.18400572 19.4275952 90 22 C87.00518764 23.06944831 84.0278847 23.42104734 80.875 23.75 C79.26744121 23.94679178 77.66061353 24.14967557 76.0546875 24.359375 C75.34812012 24.43639648 74.64155273 24.51341797 73.91357422 24.59277344 C71.68354405 24.94420997 71.68354405 24.94420997 69 27 C68.66656449 29.54207971 68.66656449 29.54207971 69 32 C69.33 32.33 69.66 32.66 70 33 C70.04092937 35.33297433 70.04241723 37.66705225 70 40 C68.58521865 40.64995297 67.16808513 41.29478722 65.75 41.9375 C64.96109375 42.29714844 64.1721875 42.65679687 63.359375 43.02734375 C57.74088619 45.34357507 52.37937231 45.21810426 46.375 45.25 C45.42753906 45.270625 44.48007812 45.29125 43.50390625 45.3125 C35.21130598 45.35787675 27.58817652 44.35675918 21 39 C21.875 33.125 21.875 33.125 23 32 C23.04063832 30.33382885 23.042721 28.66611905 23 27 C18.66425505 24.78395258 15.25371364 23.81028355 10.375 23.5 C5.03925288 23.12722863 2.07045766 22.07045766 -1.75 18.25 C-3.55390742 15.00296664 -3.93878217 12.73428779 -4 9 C-2.92809491 5.85440935 -1.55106039 2.93569799 0 0 Z " fill="#0A3667" transform="translate(217,213)"/>
<path d="M0 0 C-0.03480469 0.58007812 -0.06960937 1.16015625 -0.10546875 1.7578125 C-0.28539189 6.94988011 -0.05260678 10.57898328 3 15 C8.07849791 18.7996061 13.3648341 18.79090592 19.50390625 19.375 C22.96440303 19.9936363 24.56809881 20.5132439 27 23 C27.561068 26.7404533 27.14762184 27.77856724 25 31 C24.68098409 33.57589864 24.68098409 33.57589864 26 36 C28.54805774 37.41623255 31.19717737 38.23039379 34 39 C34.60199219 39.18175781 35.20398438 39.36351562 35.82421875 39.55078125 C40.04450279 40.42211458 44.39236827 40.40724715 48.6875 40.62109375 C51.69098329 40.96465257 53.46342105 41.4336625 56 43 C47.06285016 43.19958895 38.72706539 43.2184298 30 41 C30.31585052 42.13655029 30.63170105 43.27310059 30.9571228 44.4440918 C32.07451511 48.93220697 32.45371166 53.28629399 32.68603516 57.89453125 C32.75962502 59.16912453 32.75962502 59.16912453 32.83470154 60.46946716 C32.99344491 63.25012273 33.1413359 66.0312393 33.2890625 68.8125 C33.3976331 70.75166535 33.50688615 72.69079261 33.61679077 74.62988281 C33.90304595 79.71263301 34.18007366 84.79584504 34.45513916 89.87921143 C34.73792537 95.0747349 35.02949576 100.26976469 35.3203125 105.46484375 C35.88877401 115.64276683 36.44748191 125.82119983 37 136 C38.175625 136.433125 38.175625 136.433125 39.375 136.875 C42 138 42 138 44 140 C46.13252093 140.27714896 46.13252093 140.27714896 48.5703125 140.1953125 C49.46621094 140.18886719 50.36210937 140.18242187 51.28515625 140.17578125 C52.22230469 140.15902344 53.15945313 140.14226562 54.125 140.125 C55.06988281 140.11597656 56.01476562 140.10695313 56.98828125 140.09765625 C59.32577292 140.07404522 61.66276123 140.04111516 64 140 C64 142 64 144 64 146 C62.02 146.66 60.04 147.32 58 148 C59.98 148 61.96 148 64 148 C64 148.66 64 149.32 64 150 C60.7 150.99 57.4 151.98 54 153 C56.31 153 58.62 153 61 153 C60.690625 153.969375 60.38125 154.93875 60.0625 155.9375 C58.99445385 159.60470741 58.60962699 163.18233402 58.34375 166.984375 C58 169 58 169 56 172 C55.835 173.155 55.67 174.31 55.5 175.5 C55 179 55 179 53 182 C48.82339427 182.26518132 45.95659266 182.31886422 42 181 C41.67 181.66 41.34 182.32 41 183 C38.37309973 179.91211166 37.34572915 177.30892967 36.4375 173.375 C36.18742187 172.31667969 35.93734375 171.25835937 35.6796875 170.16796875 C35.0746424 167.34790221 34.55842488 164.52819254 34.0625 161.6875 C33.46348667 158.46716337 32.68436532 156.22357096 30.875 153.5 C28.45329397 148.97948208 28.24125842 145.04651373 29 140 C29.66 139.01 30.32 138.02 31 137 C31.86340647 127.90408458 30.71459978 118.48431772 30.16015625 109.375 C30.07260393 107.8963374 29.98532413 106.41765864 29.89830017 104.93896484 C29.71634778 101.85956692 29.53208918 98.78031935 29.34594727 95.70117188 C29.10945723 91.7883553 28.87731498 87.87529665 28.6467371 83.96212769 C28.46692681 80.91455827 28.28553087 77.86708492 28.10360527 74.81964111 C28.01759866 73.3782126 27.93189203 71.93676616 27.84651375 70.49530029 C27.57914313 65.99584392 27.29209966 61.49793209 27 57 C26.93634247 55.84886719 26.87268494 54.69773437 26.80709839 53.51171875 C26.73854645 52.44824219 26.66999451 51.38476562 26.59936523 50.2890625 C26.54505844 49.36561035 26.49075165 48.4421582 26.43479919 47.49072266 C25.8219128 43.9798375 24.13217897 41.71294116 22.08203125 38.87109375 C19.41972094 34.26731527 20.95799088 28.94527281 22 24 C20.90300781 23.89042969 19.80601562 23.78085938 18.67578125 23.66796875 C17.22128484 23.50844334 15.76686137 23.34825187 14.3125 23.1875 C13.59126953 23.11724609 12.87003906 23.04699219 12.12695312 22.97460938 C7.74485617 22.47437 4.6031247 21.74049816 1 19 C-3.04467293 13.60710275 -4.48339648 9.76755078 -4 3 C-1.77419355 0 -1.77419355 0 0 0 Z " fill="#E1752B" transform="translate(214,217)"/>
<path d="M0 0 C0.495 1.485 0.495 1.485 1 3 C-0.54109453 5.95074276 -1.94340869 7.61243684 -5.11523438 8.77587891 C-7.65076692 9.38837803 -10.17878876 9.87383693 -12.75 10.3125 C-14.08224609 10.56483398 -14.08224609 10.56483398 -15.44140625 10.82226562 C-17.62491381 11.2331407 -19.81010562 11.624944 -22 12 C-21.84273438 12.58265625 -21.68546875 13.1653125 -21.5234375 13.765625 C-20.55866806 17.88389457 -19.81831047 22.05953617 -22.08779907 25.7862854 C-22.53658417 26.38226532 -22.98536926 26.97824524 -23.44775391 27.59228516 C-26.64741595 32.50790358 -26.9313418 37.01679913 -27.2109375 42.7734375 C-27.27912689 43.81253265 -27.34731628 44.85162781 -27.41757202 45.92221069 C-27.63270175 49.28055025 -27.81656775 52.63979472 -28 56 C-28.14027998 58.26216746 -28.282539 60.52421305 -28.42675781 62.78613281 C-28.78830892 68.56036195 -29.11755552 74.33585453 -29.43261719 80.11279297 C-29.62678286 83.6575486 -29.82874707 87.20180567 -30.03125 90.74609375 C-32.24080889 110.23730609 -32.24080889 110.23730609 -29 129 C-28.40080572 134.135951 -28.66939132 136.84440711 -31.375 141.25 C-34.13453245 145.75361898 -34.82926405 149.81308487 -35.55078125 154.99609375 C-36.43134971 160.88441677 -37.26728838 166.26728838 -41.5625 170.5625 C-45.39009164 172.81979763 -47.50793787 173.26952373 -52 173 C-54.375 172 -54.375 172 -56 171 C-56 170.01 -56 169.02 -56 168 C-52.37 168 -48.74 168 -45 168 C-44.01 165.03 -43.02 162.06 -42 159 C-46.62 159 -51.24 159 -56 159 C-56 158.67 -56 158.34 -56 158 C-51.05 158 -46.1 158 -41 158 C-40.896875 156.329375 -40.79375 154.65875 -40.6875 152.9375 C-40.25408631 148.00423246 -39.24346955 144.38939694 -37 140 C-37.52078125 140.16371094 -38.0415625 140.32742188 -38.578125 140.49609375 C-41.6756875 141.14058659 -44.58841094 141.09411589 -47.75 141.0625 C-48.92046875 141.05347656 -50.0909375 141.04445313 -51.296875 141.03515625 C-52.18890625 141.02355469 -53.0809375 141.01195312 -54 141 C-54 140.67 -54 140.34 -54 140 C-53.05898438 139.86722656 -52.11796875 139.73445312 -51.1484375 139.59765625 C-49.28058594 139.33275391 -49.28058594 139.33275391 -47.375 139.0625 C-46.14523437 138.88847656 -44.91546875 138.71445312 -43.6484375 138.53515625 C-40.42443816 138.06225699 -37.21187824 137.54848998 -34 137 C-34 136.34 -34 135.68 -34 135 C-34.99 135.33 -35.98 135.66 -37 136 C-38.39439664 136.06665376 -39.79169875 136.08538199 -41.1875 136.0625 C-42.445625 136.041875 -43.70375 136.02125 -45 136 C-45 135.67 -45 135.34 -45 135 C-39.555 134.01 -39.555 134.01 -34 133 C-34 132.34 -34 131.68 -34 131 C-34.66 130.67 -35.32 130.34 -36 130 C-35.67 129.34 -35.34 128.68 -35 128 C-35.55985596 128.01047363 -36.11971191 128.02094727 -36.6965332 128.03173828 C-39.23514307 128.07333326 -41.7736812 128.09933685 -44.3125 128.125 C-45.63411133 128.15013672 -45.63411133 128.15013672 -46.98242188 128.17578125 C-47.82998047 128.18222656 -48.67753906 128.18867188 -49.55078125 128.1953125 C-50.33106689 128.20578613 -51.11135254 128.21625977 -51.9152832 128.22705078 C-54 128 -54 128 -57 126 C-47.1 125.01 -47.1 125.01 -37 124 C-36.85900879 121.37611328 -36.71801758 118.75222656 -36.57275391 116.04882812 C-36.10490266 107.36321512 -35.62847542 98.67808768 -35.1478672 89.99317169 C-34.85684098 84.72938472 -34.56867264 79.46547418 -34.28710938 74.20117188 C-34.01509528 69.11740249 -33.73547773 64.03410237 -33.45066452 58.95103455 C-33.3435214 57.01519968 -33.23908256 55.07921312 -33.13743973 53.14308167 C-32.99420736 50.42370846 -32.84122139 47.70504183 -32.68603516 44.98632812 C-32.62669044 43.79517395 -32.62669044 43.79517395 -32.56614685 42.57995605 C-32.26308437 37.49888423 -31.36574124 32.9062696 -30 28 C-30.78375 28.165 -31.5675 28.33 -32.375 28.5 C-36.93966142 29.12960847 -41.40072601 29.08180527 -46 29 C-46 28.67 -46 28.34 -46 28 C-45.2265625 27.89042969 -44.453125 27.78085937 -43.65625 27.66796875 C-37.39348771 26.71460271 -31.83578557 25.4689862 -26 23 C-25.95758277 20.66705225 -25.95907063 18.33297433 -26 16 C-26.33 15.67 -26.66 15.34 -27 15 C-27.3125 12.625 -27.3125 12.625 -27 10 C-23.044407 5.7376899 -17.08672817 5.92618846 -11.64257812 5.27148438 C-6.66494728 4.57453358 -3.71526528 3.65522059 0 0 Z " fill="#E37529" transform="translate(312,230)"/>
<path d="M0 0 C13.48449419 -0.34526443 13.48449419 -0.34526443 19.125 1.0625 C23.02048501 2.00495605 23.47217062 1.91020509 27 1 C29.3318318 0.90650674 31.66629991 0.87005572 34 0.875 C35.216875 0.87242187 36.43375 0.86984375 37.6875 0.8671875 C41 1 41 1 43.15234375 1.56640625 C45.56086492 2.13161946 47.17340028 1.66469482 49.5625 1.0625 C55.08450867 -0.16369865 60.36738552 -0.19275107 66 0 C66.495 0.99 66.495 0.99 67 2 C69.33247761 2.33926947 71.66585471 2.67240066 74 3 C74.99 3.99 74.99 3.99 76 5 C78.57061311 5.64767793 78.57061311 5.64767793 81 6 C80.71758359 7.46015291 80.42373386 8.91809793 80.125 10.375 C79.96257812 11.18710938 79.80015625 11.99921875 79.6328125 12.8359375 C79 15 79 15 77 17 C76.2575 16.030625 75.515 15.06125 74.75 14.0625 C73.19902074 12.23269301 72.07547053 11.04481063 70 9.8125 C66.72612757 10.11942554 65.22262616 12.72180819 63 15 C61.68 15 60.36 15 59 15 C57.31267723 13.01739574 55.64633943 11.0167658 54 9 C52.10797743 8.00352708 52.10797743 8.00352708 50 8 C48.06866044 9.18372598 48.06866044 9.18372598 46.375 10.9375 C43.17995444 14 43.17995444 14 41 14 C40.21625 13.030625 39.4325 12.06125 38.625 11.0625 C37.13381346 9.23655729 36.08577267 8.05257035 34.0625 6.8125 C30.47341885 7.1387801 28.51305961 9.59863192 26 12 C25.67 12.66 25.34 13.32 25 14 C22 14 22 14 19.5 11.5625 C18.675 10.716875 17.85 9.87125 17 9 C16.01 8.67 15.02 8.34 14 8 C12.12468442 9.12929361 12.12468442 9.12929361 10.375 10.8125 C9.76398438 11.35519531 9.15296875 11.89789063 8.5234375 12.45703125 C6.89977774 13.94196209 6.89977774 13.94196209 6 16 C2.30581799 14.768606 0.64890254 12.79208646 -2 10 C-6.43458973 11.3937282 -8.87378374 13.60582235 -12 17 C-15 10.5 -15 10.5 -15 6 C-13.5459375 5.5359375 -13.5459375 5.5359375 -12.0625 5.0625 C-9.15934208 4.30476658 -9.15934208 4.30476658 -8 3 C-5.66702567 2.95907063 -3.33294775 2.95758277 -1 3 C-0.67 2.01 -0.34 1.02 0 0 Z " fill="#053467" transform="translate(230,192)"/>
<path d="M0 0 C1.8359375 0.23046875 1.8359375 0.23046875 4 1 C5.4140625 2.92578125 5.4140625 2.92578125 6.625 5.3125 C7.02976563 6.09238281 7.43453125 6.87226562 7.8515625 7.67578125 C8.23054687 8.44277344 8.60953125 9.20976563 9 10 C9.37898437 10.69609375 9.75796875 11.3921875 10.1484375 12.109375 C11.33509 14.74396128 11 17.13032882 11 20 C11.91257306 22.78566059 11.91257306 22.78566059 13 25 C13.99 25 14.98 25 16 25 C16.73863281 25.77988281 17.47726563 26.55976563 18.23828125 27.36328125 C21.49846505 30.47590369 23.84276262 31.13908603 28.1875 32.1875 C34.81944444 33.81944444 34.81944444 33.81944444 37 36 C36.505 36.99 36.505 36.99 36 38 C35.5358603 44.35726054 35.5358603 44.35726054 38 50 C39.64302953 51.68997323 41.31471312 53.35216394 43 55 C44.28753917 56.33829279 45.55773331 57.6934327 46.8125 59.0625 C47.41707031 59.71347656 48.02164063 60.36445313 48.64453125 61.03515625 C50 63 50 63 50 67 C39.06973059 67.7844691 39.06973059 67.7844691 35.1875 64.9375 C34.465625 63.968125 33.74375 62.99875 33 62 C31.76266565 60.77870022 30.51190765 59.57089236 29.25 58.375 C26.90400416 56.12080399 26.05472506 55.16417519 25 52 C24.52949219 51.54753906 24.05898437 51.09507812 23.57421875 50.62890625 C21.59053395 48.57630932 20.83348253 46.5936193 19.8125 43.9375 C19.46832031 43.05964844 19.12414062 42.18179688 18.76953125 41.27734375 C18 39 18 39 18 37 C17.34 37 16.68 37 16 37 C15.7525 36.2575 15.505 35.515 15.25 34.75 C13.44638102 30.78203823 11.17860271 28.68991378 7.4375 26.5 C2.41602652 23.40986247 1.35009122 19.59323506 0 14 C-1.17163128 8.99393907 -0.77939843 5.02278987 0 0 Z " fill="#E67A02" transform="translate(207,108)"/>
<path d="M0 0 C5.66153846 2.46153846 5.66153846 2.46153846 7.375 5.1875 C7.58125 5.785625 7.7875 6.38375 8 7 C12.48684201 6.66132538 12.48684201 6.66132538 15.875 3.9375 C16.24625 3.298125 16.6175 2.65875 17 2 C20.33655152 2.24715196 21.22536589 3.23073175 23.625 5.6875 C25.90441407 8.58410926 27.06175532 11.41761124 28 15 C28.66 15 29.32 15 30 15 C30.0928125 13.700625 30.0928125 13.700625 30.1875 12.375 C31.23122656 8.03952044 32.99278171 6.23854277 36 3 C38.57334835 3.37390532 39.73073547 3.6967231 41.484375 5.671875 C45.83643123 12.81784387 45.83643123 12.81784387 45 17 C44.34 17.99 43.68 18.98 43 20 C41.96875 19.814375 40.9375 19.62875 39.875 19.4375 C36.13429379 19.0151622 33.65298928 19.26940214 30 20 C28.43989334 20.22555759 26.87707911 20.43290305 25.3125 20.625 C24.19294922 20.76808594 24.19294922 20.76808594 23.05078125 20.9140625 C21 21 21 21 18 20 C16.5459375 20.2475 16.5459375 20.2475 15.0625 20.5 C12.01436215 20.99765516 10.8736559 20.77306142 8 20 C6.41974995 19.78807905 4.83601539 19.60076629 3.25 19.4375 C2.45078125 19.35371094 1.6515625 19.26992187 0.828125 19.18359375 C-0.07679688 19.09271484 -0.07679688 19.09271484 -1 19 C-1 17.68 -1 16.36 -1 15 C3.455 15.99 3.455 15.99 8 17 C5.988773 9.98717615 5.988773 9.98717615 2 4 C-1.25543229 4.34879632 -2.01873107 5.02133261 -4.25 7.5625 C-4.8275 8.366875 -5.405 9.17125 -6 10 C-6 9.34 -6 8.68 -6 8 C-6.66 7.67 -7.32 7.34 -8 7 C-5.36 4.69 -2.72 2.38 0 0 Z " fill="#D8722C" transform="translate(244,199)"/>
<path d="M0 0 C0.92232422 0.63228516 0.92232422 0.63228516 1.86328125 1.27734375 C2.67152344 1.82519531 3.47976563 2.37304688 4.3125 2.9375 C5.11300781 3.48277344 5.91351563 4.02804688 6.73828125 4.58984375 C9.0258143 6.13837326 9.0258143 6.13837326 12 7 C14.62791358 9.0903858 15.72492046 9.99102568 17 13 C17.0301501 16.60078332 16.67434584 20.05259888 16.265625 23.62890625 C15.94523545 27.69502655 16.48882104 30.26649904 18 34 C18.66 34 19.32 34 20 34 C21.04819354 41.45067301 20.91318843 47.7109102 19 55 C18.01 55 17.02 55 16 55 C15.97421875 53.99839844 15.9484375 52.99679688 15.921875 51.96484375 C15.64505834 44.73584468 15.35372594 39.0390392 11 33 C11 32.34 11 31.68 11 31 C10.34 31 9.68 31 9 31 C9 30.34 9 29.68 9 29 C8.01 29 7.02 29 6 29 C1.72295505 24.93159139 0.32810777 21.63880341 -0.640625 15.85546875 C-0.82208603 13.99133099 -0.82208603 13.99133099 -2 13 C-2.25367278 7.92654435 -2.07461173 4.69042651 0 0 Z " fill="#F78402" transform="translate(258,121)"/>
<path d="M0 0 C2 2 2 2 3.375 5.5 C5.20206116 9.43520865 5.45671082 9.23810758 9 11 C10.88671875 13.05859375 10.88671875 13.05859375 12.6875 15.4375 C13.28949219 16.21996094 13.89148438 17.00242188 14.51171875 17.80859375 C17.29223499 21.9027397 17.10678884 25.36001628 17.0625 30.1875 C17.05347656 31.45980469 17.04445313 32.73210937 17.03515625 34.04296875 C17.02355469 35.01878906 17.01195312 35.99460938 17 37 C14.36 37 11.72 37 9 37 C8.81824219 36.37351563 8.63648438 35.74703125 8.44921875 35.1015625 C8.19785156 34.28429687 7.94648438 33.46703125 7.6875 32.625 C7.44386719 31.81289062 7.20023437 31.00078125 6.94921875 30.1640625 C6.08631815 27.66815371 6.08631815 27.66815371 3 26 C3 25.01 3 24.02 3 23 C2.34 23 1.68 23 1 23 C1 22.34 1 21.68 1 21 C0.34 21 -0.32 21 -1 21 C-1 20.34 -1 19.68 -1 19 C-1.66 19 -2.32 19 -3 19 C-3 18.34 -3 17.68 -3 17 C-3.66 17 -4.32 17 -5 17 C-7.35620437 13.46569344 -7.48991613 12.16428713 -7 8 C-4.96006092 4.3421782 -3.49580738 2.33053826 0 0 Z " fill="#F78402" transform="translate(253,139)"/>
<path d="M0 0 C1.98 0 3.96 0 6 0 C5.33501617 4.38889325 3.81242323 7.9811485 2 12 C2.66 12 3.32 12 4 12 C4.33 11.01 4.66 10.02 5 9 C13.66666667 9 22.33333333 9 31 9 C30.67 10.32 30.34 11.64 30 13 C23.375 13.125 23.375 13.125 20 12 C19.01 14.64 18.02 17.28 17 20 C17.99 19.67 18.98 19.34 20 19 C20.33 18.34 20.66 17.68 21 17 C23.31 17 25.62 17 28 17 C27.34 18.32 26.68 19.64 26 21 C14.33333333 21 2.66666667 21 -9 21 C-6.76686274 13.55620912 -3.59727921 6.88023305 0 0 Z " fill="#191A1B" transform="translate(194,423)"/>
<path d="M0 0 C11.88 0 23.76 0 36 0 C36 2.97 36 5.94 36 9 C28.22463768 12.15217391 28.22463768 12.15217391 24 11 C20.05740289 10.89602495 20.05740289 10.89602495 16.4375 11.5625 C13 12 13 12 10 11 C8.9790625 11.2784375 8.9790625 11.2784375 7.9375 11.5625 C6.9784375 11.7790625 6.9784375 11.7790625 6 12 C5.34 11.34 4.68 10.68 4 10 C2.68 9.67 1.36 9.34 0 9 C0 6.03 0 3.06 0 0 Z " fill="#02346A" transform="translate(245,179)"/>
<path d="M0 0 C0.99 0 1.98 0 3 0 C3.66 0.99 4.32 1.98 5 3 C6.32467746 3.6837045 7.65863633 4.34964186 9 5 C13.01040678 8.42095066 14.61629506 13.02014212 16 18 C16.31675922 23.14959989 14.7985563 27.7022171 12 32 C9.375 33.75 9.375 33.75 7 35 C6.67 35.66 6.34 36.32 6 37 C5.01 37 4.02 37 3 37 C3.04640625 35.97261719 3.0928125 34.94523437 3.140625 33.88671875 C3.38542609 25.98518982 3.05459704 19.8613998 -0.10546875 12.48046875 C-1.53189405 8.52509729 -1.33578065 5.16368006 -1 1 C-0.67 0.67 -0.34 0.34 0 0 Z " fill="#F08102" transform="translate(278,137)"/>
<path d="M0 0 C7.92 0 15.84 0 24 0 C23.34 2.31 22.68 4.62 22 7 C21.7655017 8.59797293 21.56999256 10.20285635 21.4375 11.8125 C21.10144928 15.79710145 21.10144928 15.79710145 20 18 C14.72 18 9.44 18 4 18 C2.66666667 12 1.33333333 6 0 0 Z " fill="#053468" transform="translate(251,370)"/>
<path d="M0 0 C1.05960938 0.00676758 1.05960938 0.00676758 2.140625 0.01367188 C3.88545275 0.02546125 5.630237 0.04339676 7.375 0.0625 C7.705 0.7225 8.035 1.3825 8.375 2.0625 C7.3125 4.6875 7.3125 4.6875 5.375 7.0625 C2.1875 7.375 2.1875 7.375 -0.625 7.0625 C-0.295 5.4125 0.035 3.7625 0.375 2.0625 C-2.64138197 2.71301427 -2.64138197 2.71301427 -3.6081543 4.64477539 C-3.88570557 5.30985107 -4.16325684 5.97492676 -4.44921875 6.66015625 C-4.75537109 7.37880859 -5.06152344 8.09746094 -5.37695312 8.83789062 C-5.68568359 9.59263672 -5.99441406 10.34738281 -6.3125 11.125 C-6.79299805 12.26291992 -6.79299805 12.26291992 -7.28320312 13.42382812 C-8.07350702 15.29932542 -8.85052197 17.1804123 -9.625 19.0625 C-6.58106184 18.39619251 -6.58106184 18.39619251 -5.5 16.3125 C-4.56553057 13.90957862 -4.04825606 11.60203639 -3.625 9.0625 C-0.985 9.0625 1.655 9.0625 4.375 9.0625 C3.92238642 10.50181117 3.46267021 11.93888999 3 13.375 C2.74476563 14.17550781 2.48953125 14.97601563 2.2265625 15.80078125 C1.375 18.0625 1.375 18.0625 -0.625 21.0625 C-3.4135289 21.28357787 -5.97153181 21.34357535 -8.75 21.25 C-9.88115234 21.22969727 -9.88115234 21.22969727 -11.03515625 21.20898438 C-12.89874127 21.17359985 -14.76195978 21.11979167 -16.625 21.0625 C-17.625 19.0625 -17.625 19.0625 -17.03588867 17.19897461 C-16.7082251 16.46171143 -16.38056152 15.72444824 -16.04296875 14.96484375 C-15.68783203 14.16369141 -15.33269531 13.36253906 -14.96679688 12.53710938 C-14.58587891 11.69986328 -14.20496094 10.86261719 -13.8125 10 C-13.25852539 8.73833008 -13.25852539 8.73833008 -12.69335938 7.45117188 C-9.50401942 0.34529956 -7.79694205 -0.09350576 0 0 Z " fill="#191A1B" transform="translate(182.625,422.9375)"/>
<path d="M0 0 C0.66 0.33 1.32 0.66 2 1 C1.67 1.66 1.34 2.32 1 3 C1.99 3 2.98 3 4 3 C4.66 5.64 5.32 8.28 6 11 C3.2160817 9.60804085 3.02101003 7.84424221 2 5 C-1.0895946 5.66229729 -1.0895946 5.66229729 -2.125 7.9375 C-2.558125 8.9584375 -2.558125 8.9584375 -3 10 C-3.33 10.66 -3.66 11.32 -4 12 C-4.14375422 15.37822416 -4.07536348 17.77390955 -3 21 C-2.34 21 -1.68 21 -1 21 C-1 21.66 -1 22.32 -1 23 C-0.34 23 0.32 23 1 23 C1 23.66 1 24.32 1 25 C1.66 25 2.32 25 3 25 C3 25.66 3 26.32 3 27 C3.66 27 4.32 27 5 27 C5.33 27.99 5.66 28.98 6 30 C6.99 30.86625 6.99 30.86625 8 31.75 C10.63580622 34.715282 10.70140041 37.11820531 11 41 C13.64 41 16.28 41 19 41 C19 41.33 19 41.66 19 42 C22.3 42.33 25.6 42.66 29 43 C29 43.33 29 43.66 29 44 C17.45 44 5.9 44 -6 44 C-5.67 43.01 -5.34 42.02 -5 41 C-1.04 41 2.92 41 7 41 C3.70176214 33.61194719 -0.68270252 28.31729748 -6.375 22.625 C-9.05457134 19.94542866 -8.9994714 19.03330162 -9.0625 15.0625 C-9.04478135 13.708289 -9.02413269 12.35411189 -9 11 C-9 10.01 -9 9.02 -9 8 C-9.66 7.34 -10.32 6.68 -11 6 C-7.62902617 4.50178941 -5.79557881 4 -2 4 C-1.34 2.68 -0.68 1.36 0 0 Z " fill="#A4531C" transform="translate(251,135)"/>
<path d="M0 0 C0.68783569 -0.00200409 1.37567139 -0.00400818 2.08435059 -0.006073 C16.29618444 -0.01612641 30.88293125 0.61050668 44.6875 4.25 C44.6875 4.91 44.6875 5.57 44.6875 6.25 C43.84518829 6.17935333 43.00287659 6.10870667 42.13504028 6.03591919 C33.46407188 5.35606744 24.87869112 5.10305832 16.1796875 5.1171875 C14.8383889 5.11651077 13.49709042 5.1155377 12.15579224 5.11428833 C9.37093923 5.11282971 6.5861187 5.11490657 3.80126953 5.11962891 C0.26718509 5.12533628 -3.26682353 5.12202901 -6.80090523 5.11605644 C-9.56188509 5.11241025 -12.32284753 5.11360768 -15.08382797 5.11618423 C-17.00893962 5.1171565 -18.93405201 5.11417016 -20.85916138 5.11105347 C-28.39279135 5.13092241 -35.81633046 5.49455704 -43.3125 6.25 C-43.3125 5.59 -43.3125 4.93 -43.3125 4.25 C-41.08562945 3.76027328 -38.85581643 3.28392632 -36.625 2.8125 C-35.38363281 2.54566406 -34.14226562 2.27882812 -32.86328125 2.00390625 C-22.0561089 0.02096156 -10.95316787 0.01569458 0 0 Z " fill="#D2702D" transform="translate(262.3125,223.75)"/>
<path d="M0 0 C1.98 0 3.96 0 6 0 C5.01 2.97 4.02 5.94 3 9 C5.97 9 8.94 9 12 9 C11.33501617 13.38889325 9.81242323 16.9811485 8 21 C5.69 21 3.38 21 1 21 C2.32 17.7 3.64 14.4 5 11 C3.68 11 2.36 11 1 11 C0.79503906 11.63808594 0.59007812 12.27617187 0.37890625 12.93359375 C0.10949219 13.75988281 -0.15992188 14.58617187 -0.4375 15.4375 C-0.70433594 16.26121094 -0.97117187 17.08492188 -1.24609375 17.93359375 C-2 20 -2 20 -3 21 C-4.99958364 21.04080783 -7.00045254 21.04254356 -9 21 C-6.76686274 13.55620912 -3.59727921 6.88023305 0 0 Z " fill="#191A1B" transform="translate(291,423)"/>
<path d="M0 0 C1.98 0 3.96 0 6 0 C5.7834375 0.62648438 5.566875 1.25296875 5.34375 1.8984375 C5.0653125 2.71570313 4.786875 3.53296875 4.5 4.375 C4.2215625 5.18710937 3.943125 5.99921875 3.65625 6.8359375 C2.90326695 8.94209242 2.90326695 8.94209242 3 11 C3.99 10.34 4.98 9.68 6 9 C8.33199388 8.92094936 10.66832622 8.91201231 13 9 C12.195625 9.5775 11.39125 10.155 10.5625 10.75 C7.9544037 12.71936028 7.9544037 12.71936028 7.125 15 C6.98666257 17.21339885 7.32384411 18.89640391 8 21 C6.02 21 4.04 21 2 21 C1.67 19.35 1.34 17.7 1 16 C0.34 16 -0.32 16 -1 16 C-1.99 18.475 -1.99 18.475 -3 21 C-4.98 21 -6.96 21 -9 21 C-6.76686274 13.55620912 -3.59727921 6.88023305 0 0 Z " fill="#171919" transform="translate(232,423)"/>
<path d="M0 0 C3.91841827 1.30613942 6.32640809 2.83129848 9 6 C9 6.66 9 7.32 9 8 C9.59167969 7.47148437 10.18335938 6.94296875 10.79296875 6.3984375 C11.58316406 5.73070312 12.37335938 5.06296875 13.1875 4.375 C13.96480469 3.70210937 14.74210937 3.02921875 15.54296875 2.3359375 C18 1 18 1 20.640625 1.59375 C22.93260717 2.95983209 24.06405466 3.96347954 25.5625 6.125 C26.7690625 7.548125 26.7690625 7.548125 28 9 C29.32 9 30.64 9 32 9 C31.67 11.64 31.34 14.28 31 17 C31.598125 16.835 32.19625 16.67 32.8125 16.5 C36.60859004 15.63232228 38.67347375 16.16467517 42 18 C42 18.66 42 19.32 42 20 C35.73 20 29.46 20 23 20 C23.99 19.34 24.98 18.68 26 18 C25.54996653 12.37458159 24.31558515 9.38512875 21 5 C19.12119128 5.04768403 19.12119128 5.04768403 17 6 C14.89424024 8.70740541 13.25374392 10.95683054 12.4375 14.3125 C12.2209375 15.1478125 12.2209375 15.1478125 12 16 C11.01 16.33 10.02 16.66 9 17 C8.5875 15.783125 8.175 14.56625 7.75 13.3125 C6.3839438 9.63264526 4.65605232 6.93081636 2 4 C-1.32812571 4.57381478 -2.69842455 5.59380748 -5 8 C-5.66 8 -6.32 8 -7 8 C-5.50902342 4.2047869 -3.24299151 2.38957269 0 0 Z " fill="#DE742A" transform="translate(262,198)"/>
<path d="M0 0 C0.66 0.33 1.32 0.66 2 1 C1.73481334 8.55416522 1.4681055 16.10827574 1.20043945 23.66235352 C1.10993662 26.22126101 1.01975643 28.78017994 0.92993164 31.33911133 C0.36017021 47.56298839 -0.26088194 63.78289795 -1 80 C-2.485 80.495 -2.485 80.495 -4 81 C-4.07814387 71.0981725 -3.87688429 61.25908855 -3.37890625 51.3671875 C-3.3138303 50.03297942 -3.24896989 48.69876082 -3.18431091 47.36453247 C-3.0496571 44.60324929 -2.91240398 41.84211176 -2.77319336 39.08105469 C-2.59549132 35.55217978 -2.42459113 32.02301229 -2.25558567 28.49371147 C-2.09200238 25.09718769 -1.92270374 21.70095619 -1.75390625 18.3046875 C-1.6934462 17.04324921 -1.63298615 15.78181091 -1.57069397 14.48214722 C-1.48071388 12.72343796 -1.48071388 12.72343796 -1.38891602 10.92919922 C-1.31230492 9.38823074 -1.31230492 9.38823074 -1.23414612 7.81613159 C-1.01181272 5.14207437 -0.58447912 2.61640413 0 0 Z " fill="#D37331" transform="translate(273,269)"/>
<path d="M0 0 C0.66 0 1.32 0 2 0 C2.78370438 4.25213991 3.19760315 8.38646067 3.38891602 12.70458984 C3.44890274 14.01970551 3.50888947 15.33482117 3.57069397 16.68978882 C3.63189423 18.11349948 3.69296171 19.53721586 3.75390625 20.9609375 C3.81946987 22.43536553 3.88530585 23.90978148 3.95140076 25.38418579 C4.088919 28.46891984 4.22399775 31.55374754 4.35717773 34.63867188 C4.52718089 38.57484421 4.70192993 42.51078722 4.87835789 46.44667625 C5.01449357 49.49052676 5.14875203 52.53445773 5.2823925 55.57841873 C5.34616375 57.02877261 5.41035109 58.47910826 5.47497749 59.92942429 C5.78659842 66.95494271 6.08957295 73.96598868 6 81 C5.01 80.67 4.02 80.34 3 80 C2.60566348 71.34129144 2.21428285 62.68245555 1.82654572 54.02344894 C1.6463618 50.00156947 1.46520766 45.97973886 1.28173828 41.95800781 C1.10430376 38.06774365 0.92954569 34.17736719 0.75654602 30.28690338 C0.6905045 28.8119208 0.62354221 27.33697912 0.55558777 25.86208344 C0.15889877 17.23728794 -0.09667291 8.63534609 0 0 Z " fill="#D6722E" transform="translate(251,269)"/>
<path d="M0 0 C5.61 0 11.22 0 17 0 C15 6 15 6 14 7 C12.31816052 7.23287008 10.6287584 7.41264166 8.9375 7.5625 C8.01839844 7.64628906 7.09929687 7.73007812 6.15234375 7.81640625 C5.44207031 7.87699219 4.73179687 7.93757813 4 8 C3.67 8.99 3.34 9.98 3 11 C3.99 10.67 4.98 10.34 6 10 C6.33 9.34 6.66 8.68 7 8 C9.31 8 11.62 8 14 8 C13.34 9.32 12.68 10.64 12 12 C6.72 12 1.44 12 -4 12 C-3 6 -3 6 0 0 Z " fill="#2C3134" transform="translate(247,432)"/>
<path d="M0 0 C3.80552891 0.69781554 5.54092091 2.16443464 7.95703125 5.2421875 C9.6372342 8.07399023 9.87535963 10.75935051 10 14 C9.67 14.66 9.34 15.32 9 16 C8.443125 15.855625 7.88625 15.71125 7.3125 15.5625 C6.549375 15.376875 5.78625 15.19125 5 15 C4.13375 14.773125 3.2675 14.54625 2.375 14.3125 C1.199375 14.1578125 1.199375 14.1578125 0 14 C-0.66 14.66 -1.32 15.32 -2 16 C-4.125 15.625 -4.125 15.625 -6 15 C-6.88229454 9.26508549 -4.50103025 6.23061188 -1.3125 1.7578125 C-0.6628125 0.88769531 -0.6628125 0.88769531 0 0 Z " fill="#093566" transform="translate(261,201)"/>
<path d="M0 0 C5.61 0 11.22 0 17 0 C14.25 8.625 14.25 8.625 12 12 C9.2114711 12.22107787 6.65346819 12.28107535 3.875 12.1875 C3.12089844 12.17396484 2.36679687 12.16042969 1.58984375 12.14648438 C-0.27374127 12.11109985 -2.13695978 12.05729167 -4 12 C-3.125 7.25 -3.125 7.25 -2 5 C0.84350596 4.60406879 3.6648717 4.49150146 6.53125 4.34375 C7.3459375 4.2303125 8.160625 4.116875 9 4 C9.33 3.34 9.66 2.68 10 2 C6.7 2 3.4 2 0 2 C0 1.34 0 0.68 0 0 Z " fill="#32383C" transform="translate(306,432)"/>
<path d="M0 0 C5.61 0 11.22 0 17 0 C15.54996379 4.35010863 14.09990776 7.99108518 12 12 C9.69 12 7.38 12 5 12 C6.32 8.7 7.64 5.4 9 2 C5.88403088 2.66627512 5.88403088 2.66627512 4.83203125 5.06640625 C4.49558594 5.89011719 4.15914063 6.71382813 3.8125 7.5625 C3.46832031 8.38878906 3.12414062 9.21507812 2.76953125 10.06640625 C2.51558594 10.70449219 2.26164062 11.34257812 2 12 C-0.31 12 -2.62 12 -5 12 C-3.65731345 7.66208962 -2.06787321 4.13574643 0 0 Z " fill="#181A1B" transform="translate(267,432)"/>
<path d="M0 0 C1.58206057 0.00667536 3.16410534 0.0186375 4.74609375 0.03515625 C5.55240234 0.03966797 6.35871094 0.04417969 7.18945312 0.04882812 C9.18753131 0.06065107 11.18557158 0.07858711 13.18359375 0.09765625 C12.85359375 1.41765625 12.52359375 2.73765625 12.18359375 4.09765625 C9.87359375 4.09765625 7.56359375 4.09765625 5.18359375 4.09765625 C5.18359375 3.43765625 5.18359375 2.77765625 5.18359375 2.09765625 C3.86359375 2.09765625 2.54359375 2.09765625 1.18359375 2.09765625 C1.18359375 3.08765625 1.18359375 4.07765625 1.18359375 5.09765625 C4.15359375 5.09765625 7.12359375 5.09765625 10.18359375 5.09765625 C9.30859375 9.84765625 9.30859375 9.84765625 8.18359375 12.09765625 C2.90359375 12.09765625 -2.37640625 12.09765625 -7.81640625 12.09765625 C-8.14640625 11.43765625 -8.47640625 10.77765625 -8.81640625 10.09765625 C-8.48640625 9.43765625 -8.15640625 8.77765625 -7.81640625 8.09765625 C-5.50640625 8.09765625 -3.19640625 8.09765625 -0.81640625 8.09765625 C-1.14640625 9.08765625 -1.47640625 10.07765625 -1.81640625 11.09765625 C1.30556853 9.78869905 1.30556853 9.78869905 3.18359375 7.09765625 C0.21359375 7.09765625 -2.75640625 7.09765625 -5.81640625 7.09765625 C-4.7775159 0.12224964 -4.7775159 0.12224964 0 0 Z " fill="#181A1B" transform="translate(349.81640625,431.90234375)"/>
<path d="M0 0 C2.31 0 4.62 0 7 0 C5.68 3.63 4.36 7.26 3 11 C6.14921339 10.30969412 6.14921339 10.30969412 7.38671875 7.71484375 C7.81597656 6.79832031 8.24523437 5.88179688 8.6875 4.9375 C9.12449219 4.01839844 9.56148438 3.09929687 10.01171875 2.15234375 C10.33785156 1.44207031 10.66398437 0.73179687 11 0 C12.98 0 14.96 0 17 0 C16.54738642 1.43931117 16.08767021 2.87638999 15.625 4.3125 C15.24214844 5.51326172 15.24214844 5.51326172 14.8515625 6.73828125 C14 9 14 9 12 12 C9.2114711 12.22107787 6.65346819 12.28107535 3.875 12.1875 C3.12089844 12.17396484 2.36679687 12.16042969 1.58984375 12.14648438 C-0.27374127 12.11109985 -2.13695978 12.05729167 -4 12 C-3.342425 7.44166456 -2.22049017 4.05480813 0 0 Z " fill="#171819" transform="translate(326,432)"/>
<path d="M0 0 C2.65800546 0.19137639 3.7063683 0.66927798 5.484375 2.671875 C9.69081977 9.57875345 9.69081977 9.57875345 9 14 C7.125 14.625 7.125 14.625 5 15 C4.34 14.34 3.68 13.68 3 13 C0.77871445 12.97691403 0.77871445 12.97691403 -1.625 13.375 C-2.44226563 13.48585937 -3.25953125 13.59671875 -4.1015625 13.7109375 C-4.72804688 13.80632812 -5.35453125 13.90171875 -6 14 C-6.50547389 8.6925242 -5.22743563 6.17668141 -2 2 C-1.34 1.34 -0.68 0.68 0 0 Z " fill="#083566" transform="translate(280,202)"/>
<path d="M0 0 C2.94778261 0.20329535 4.01861118 1.01754768 6.1875 3.0625 C8.53190935 6.86205998 8.69991417 9.57373397 9 14 C6.43851555 14.07115235 4.28787045 14.0822487 1.8125 13.375 C1.214375 13.25125 0.61625 13.1275 0 13 C-0.66 13.66 -1.32 14.32 -2 15 C-4.125 14.625 -4.125 14.625 -6 14 C-5.5414571 8.26821381 -4.14522 4.14522 0 0 Z " fill="#073466" transform="translate(243,202)"/>
<path d="M0 0 C4.42602693 2.05494108 7.99501209 3.92679657 11.625 7.1875 C16.96659218 11.44575722 23.43906785 10.98157042 30 11 C29.34 12.65 28.68 14.3 28 16 C26.88625 15.9690625 26.88625 15.9690625 25.75 15.9375 C23.0951523 15.88374388 23.0951523 15.88374388 21 16.5625 C18.43990488 17.12252081 16.51673514 16.62918378 14 16 C14.33 15.34 14.66 14.68 15 14 C13.6696875 13.9071875 13.6696875 13.9071875 12.3125 13.8125 C8.16237651 12.79454518 6.76704776 11.20395003 4 8 C3.236875 7.13375 2.47375 6.2675 1.6875 5.375 C0 3 0 3 0 0 Z " fill="#F18104" transform="translate(221,124)"/>
<path d="M0 0 C1.98 0 3.96 0 6 0 C5.38367054 4.95998472 3.20164371 8.93671966 0.9375 13.3125 C0.37192383 14.42334961 0.37192383 14.42334961 -0.20507812 15.55664062 C-1.13128157 17.37387522 -2.06490629 19.18732404 -3 21 C-4.98 21 -6.96 21 -9 21 C-6.76686274 13.55620912 -3.59727921 6.88023305 0 0 Z " fill="#181A1A" transform="translate(194,423)"/>
<path d="M0 0 C1.7074998 1.28062485 3.37373596 2.61767557 5 4 C5 4.66 5 5.32 5 6 C5.99 6 6.98 6 8 6 C8 6.66 8 7.32 8 8 C8.66 8 9.32 8 10 8 C15.78631231 15.62553301 15.54448231 22.81639833 15 32 C16.485 32.495 16.485 32.495 18 33 C16.68 33 15.36 33 14 33 C14 31.68 14 30.36 14 29 C13.34 29 12.68 29 12 29 C11.67 29.99 11.34 30.98 11 32 C10.96261719 31.05898437 10.92523438 30.11796875 10.88671875 29.1484375 C10.78810547 27.28058594 10.78810547 27.28058594 10.6875 25.375 C10.62949219 24.14523438 10.57148438 22.91546875 10.51171875 21.6484375 C9.66707474 15.62631912 7.28385646 12.13613727 3 8 C3 7.34 3 6.68 3 6 C1.68 5.67 0.36 5.34 -1 5 C-1 1 -1 1 0 0 Z " fill="#7B3D15" transform="translate(259,144)"/>
<path d="M0 0 C5.625 -0.25 5.625 -0.25 9 2 C8.40917986 3.48454806 7.80187345 4.96254351 7.1875 6.4375 C6.68283203 7.67306641 6.68283203 7.67306641 6.16796875 8.93359375 C5 11 5 11 2 12 C-4.54098361 12.2295082 -4.54098361 12.2295082 -7 11 C-6.25 8.125 -6.25 8.125 -5 5 C-2.9375 3.8125 -2.9375 3.8125 -1 3 C-0.67 2.01 -0.34 1.02 0 0 Z " fill="#C0DAEC" transform="translate(199,432)"/>
<path d="M0 0 C1.75 0.125 1.75 0.125 4 1 C6.45246136 3.99745277 7.911196 5.97875396 8.25 9.875 C8.1675 10.57625 8.085 11.2775 8 12 C5 13 5 13 2.8125 12.0625 C2.214375 11.711875 1.61625 11.36125 1 11 C0.34 11.66 -0.32 12.32 -1 13 C-3.125 12.625 -3.125 12.625 -5 12 C-4.52389341 7.00088076 -2.96837781 4.02167317 0 0 Z " fill="#093565" transform="translate(297,203)"/>
<path d="M0 0 C4.21708244 1.50610087 5.94467452 4.11771853 8 8 C7.75 10.875 7.75 10.875 7 13 C6.4225 12.835 5.845 12.67 5.25 12.5 C1.60994097 11.69109799 -1.47291292 11.99226083 -5 13 C-5.602537 6.97463002 -5.602537 6.97463002 -3.88671875 4.19921875 C-2.65378147 2.74400545 -1.33191067 1.36520843 0 0 Z " fill="#0A3666" transform="translate(226,203)"/>
<path d="M0 0 C1 3 1 3 1 7 C1.33 5.35 1.66 3.7 2 2 C2.33 2 2.66 2 3 2 C3.19335938 2.80824219 3.38671875 3.61648437 3.5859375 4.44921875 C3.84632813 5.51785156 4.10671875 6.58648437 4.375 7.6875 C4.75785156 9.27111328 4.75785156 9.27111328 5.1484375 10.88671875 C5.9106163 13.95124774 5.9106163 13.95124774 7.08984375 16.55078125 C8.13167787 19.35434346 8.233568 21.51814369 8.1875 24.5 C8.17783203 25.87671875 8.17783203 25.87671875 8.16796875 27.28125 C8.00378988 29.93865687 7.58734999 32.40626246 7 35 C7.66 35.33 8.32 35.66 9 36 C8.38125 35.79375 7.7625 35.5875 7.125 35.375 C6.073125 35.189375 6.073125 35.189375 5 35 C4.34 35.66 3.68 36.32 3 37 C3.0721875 35.90300781 3.144375 34.80601562 3.21875 33.67578125 C3.31258366 32.22135956 3.406329 30.76693217 3.5 29.3125 C3.57154297 28.2306543 3.57154297 28.2306543 3.64453125 27.12695312 C3.88203519 23.41171286 4.05874637 19.72305126 4 16 C3.34 16 2.68 16 2 16 C-0.42201997 11.05504256 -1.44145393 7.6285376 -1 2 C-0.67 1.34 -0.34 0.68 0 0 Z " fill="#7A3E16" transform="translate(274,139)"/>
<path d="M0 0 C0.99 0 1.98 0 3 0 C2.67 1.65 2.34 3.3 2 5 C6.2787981 4.58413646 6.2787981 4.58413646 9.875 2.4375 C10.24625 1.963125 10.6175 1.48875 11 1 C12.305239 4.91571701 11.32239848 6.03892997 9.5625 9.6875 C9.08941406 10.68136719 8.61632812 11.67523438 8.12890625 12.69921875 C7.75636719 13.45847656 7.38382813 14.21773438 7 15 C6.01 15 5.02 15 4 15 C5.875 9.25 5.875 9.25 7 7 C4.36 7.33 1.72 7.66 -1 8 C-1.1546875 9.36125 -1.1546875 9.36125 -1.3125 10.75 C-2.00414949 14.01961575 -2.82134921 15.53717737 -5 18 C-5.99 17.67 -6.98 17.34 -8 17 C-6.85700498 14.35290709 -5.71075628 11.70730948 -4.5625 9.0625 C-4.23701172 8.30775391 -3.91152344 7.55300781 -3.57617188 6.77539062 C-1.11328125 1.11328125 -1.11328125 1.11328125 0 0 Z " fill="#C1DAEC" transform="translate(180,425)"/>
<path d="M0 0 C4.62 0 9.24 0 14 0 C13 6 13 6 11 9 C7.99277889 9.33413568 5.89848235 9.53346301 3 9 C1 7.3125 1 7.3125 0 5 C0 3.35 0 1.7 0 0 Z " fill="#053568" transform="translate(256,390)"/>
<path d="M0 0 C0.66 0.33 1.32 0.66 2 1 C2.061875 1.721875 2.12375 2.44375 2.1875 3.1875 C3.28437782 6.98438476 5.42994447 8.32384095 8.50390625 10.66796875 C8.99761719 11.10753906 9.49132812 11.54710937 10 12 C10 12.66 10 13.32 10 14 C11.2375 13.95875 12.475 13.9175 13.75 13.875 C17.01637962 13.86341709 19.2146947 14.1431298 22 16 C21.030625 15.979375 20.06125 15.95875 19.0625 15.9375 C16.12534105 15.64381501 16.12534105 15.64381501 15 17 C16.65 17 18.3 17 20 17 C20 17.33 20 17.66 20 18 C12.78142415 17.84023273 8.45233913 16.85969358 3 12 C3 11.34 3 10.68 3 10 C2.01 10 1.02 10 0 10 C-0.66 8.35 -1.32 6.7 -2 5 C-1.34 5 -0.68 5 0 5 C0 3.35 0 1.7 0 0 Z " fill="#804117" transform="translate(220,123)"/>
<path d="M0 0 C0.53625 0.144375 1.0725 0.28875 1.625 0.4375 C4.39915827 1.09453748 7.18525388 1.55219948 10 2 C10 1.34 10 0.68 10 0 C10.99 0.33 11.98 0.66 13 1 C11.68 3.97 10.36 6.94 9 10 C8.34 9.67 7.68 9.34 7 9 C7 8.34 7 7.68 7 7 C4.03 6.505 4.03 6.505 1 6 C0.67 6.99 0.34 7.98 0 9 C-0.99 9 -1.98 9 -3 9 C-2.44271087 5.65626525 -1.64826111 2.96687001 0 0 Z " fill="#C0DAEC" transform="translate(214,434)"/>
<path d="M0 0 C0.66 0.33 1.32 0.66 2 1 C1.67 1.66 1.34 2.32 1 3 C1.99 3 2.98 3 4 3 C4.66 5.64 5.32 8.28 6 11 C3.2160817 9.60804085 3.02101003 7.84424221 2 5 C-1.00239706 5.66375829 -1.00239706 5.66375829 -2.0625 7.5625 C-3.37665914 10.97931377 -4.16809009 14.43467182 -5 18 C-5.33 18 -5.66 18 -6 18 C-6.33 16.35 -6.66 14.7 -7 13 C-7.33 14.98 -7.66 16.96 -8 19 C-8.33 19 -8.66 19 -9 19 C-9 15.33333333 -9 11.66666667 -9 8 C-9.66 7.34 -10.32 6.68 -11 6 C-7.62902617 4.50178941 -5.79557881 4 -2 4 C-1.34 2.68 -0.68 1.36 0 0 Z " fill="#7F3E14" transform="translate(251,135)"/>
<path d="M0 0 C2 2 2 2 2.125 4.625 C2.08375 5.40875 2.0425 6.1925 2 7 C4.64 7 7.28 7 10 7 C10 7.33 10 7.66 10 8 C13.3 8.33 16.6 8.66 20 9 C20 9.33 20 9.66 20 10 C8.45 10 -3.1 10 -15 10 C-14.67 9.01 -14.34 8.02 -14 7 C-10.04 7 -6.08 7 -2 7 C-2 6.01 -2 5.02 -2 4 C-1.34 4 -0.68 4 0 4 C0 2.68 0 1.36 0 0 Z " fill="#70452E" transform="translate(260,169)"/>
<path d="M0 0 C8.52080037 0.39728885 16.72049367 0.78227509 25 3 C25 3.66 25 4.32 25 5 C14.11 4.34 3.22 3.68 -8 3 C-8 2.67 -8 2.34 -8 2 C-5.36 2 -2.72 2 0 2 C0 1.34 0 0.68 0 0 Z " fill="#DD742C" transform="translate(282,225)"/>
<path d="M0 0 C1.85625 0.2475 1.85625 0.2475 3.75 0.5 C12.5611595 1.46978171 21.22869737 1.16950702 30 0 C30 0.66 30 1.32 30 2 C24.8720069 4.07092029 20.43487949 4.30381069 15 4.25 C14.21882813 4.25773437 13.43765625 4.26546875 12.6328125 4.2734375 C8.03123632 4.25794398 4.3290818 3.74828303 0 2 C0 1.34 0 0.68 0 0 Z " fill="#16355A" transform="translate(248,361)"/>
<path d="M0 0 C1.50240234 0.24363281 1.50240234 0.24363281 3.03515625 0.4921875 C11.94925475 1.6338947 21.1295937 1.4482296 30 0 C30 0.66 30 1.32 30 2 C24.7170977 4.16470143 20.04707965 4.30206106 14.4375 4.25 C13.60025391 4.25773437 12.76300781 4.26546875 11.90039062 4.2734375 C7.4911976 4.25947331 4.00842548 4.06569166 0 2 C0 1.34 0 0.68 0 0 Z " fill="#0C3562" transform="translate(248,365)"/>
<path d="M0 0 C9.9 0 19.8 0 30 0 C29 2 29 2 27.22436523 2.61450195 C23.19103343 3.31350655 19.1457437 3.18456874 15.0625 3.1875 C14.16853516 3.19974609 13.27457031 3.21199219 12.35351562 3.22460938 C7.79976946 3.23475135 4.12773464 3.18020222 0 1 C0 0.67 0 0.34 0 0 Z " fill="#083362" transform="translate(248,357)"/>
<path d="M0 0 C3.63 0 7.26 0 11 0 C10.34 1.65 9.68 3.3 9 5 C8.2575 4.979375 7.515 4.95875 6.75 4.9375 C4.0951523 4.88374388 4.0951523 4.88374388 2 5.5625 C-0.56009512 6.12252081 -2.48326486 5.62918378 -5 5 C-4.67 4.34 -4.34 3.68 -4 3 C-1.9375 2.375 -1.9375 2.375 0 2 C0 1.34 0 0.68 0 0 Z " fill="#E57C10" transform="translate(240,135)"/>
<path d="M0 0 C3.3 0 6.6 0 10 0 C10 0.66 10 1.32 10 2 C9.0409375 2.1546875 9.0409375 2.1546875 8.0625 2.3125 C7.381875 2.539375 6.70125 2.76625 6 3 C5.67 3.99 5.34 4.98 5 6 C5.66 6.33 6.32 6.66 7 7 C4.03 7 1.06 7 -2 7 C-1.125 2.25 -1.125 2.25 0 0 Z " fill="#181A1B" transform="translate(304,437)"/>
<path d="M0 0 C-4.58411205 3.0560747 -8.76110206 3.15379566 -14.1875 3.1875 C-15.23292969 3.20167969 -16.27835937 3.21585937 -17.35546875 3.23046875 C-20 3 -20 3 -22 1 C-18.89032417 -0.55483792 -15.54467818 -0.41921406 -12.125 -0.625 C-11.40441406 -0.6765625 -10.68382812 -0.728125 -9.94140625 -0.78125 C-6.44885852 -0.99993623 -3.33440481 -1.16966033 0 0 Z " fill="#CF7437" transform="translate(277,360)"/>
<path d="M0 0 C0.33 0 0.66 0 1 0 C1 6.27 1 12.54 1 19 C0.01 19.33 -0.98 19.66 -2 20 C-2.05425226 17.60385874 -2.09379027 15.20896147 -2.125 12.8125 C-2.14175781 12.13896484 -2.15851563 11.46542969 -2.17578125 10.77148438 C-2.21538674 6.71192193 -1.80020002 3.65001185 0 0 Z " fill="#CA6E2F" transform="translate(271,330)"/>
<path d="M0 0 C0.33 0 0.66 0 1 0 C1.21724212 4.07433604 1.41405801 8.14909681 1.59204102 12.2253418 C1.65544693 13.61167719 1.72441716 14.99776978 1.79907227 16.38354492 C1.90544455 18.37606194 1.99012226 20.36969982 2.07421875 22.36328125 C2.13182373 23.56251221 2.18942871 24.76174316 2.2487793 25.99731445 C2 29 2 29 0.49536133 30.91479492 C0.00189209 31.2729126 -0.49157715 31.63103027 -1 32 C-1.10947633 21.27132003 -0.96288008 10.6948466 0 0 Z " fill="#CB7135" transform="translate(254,298)"/>
<path d="M0 0 C3 1 3 1 4 3 C4.0716735 5.55157655 4.09308442 8.07472971 4.0625 10.625 C4.05798828 11.33140625 4.05347656 12.0378125 4.04882812 12.765625 C4.03703875 14.51045275 4.01910324 16.255237 4 18 C4.99 18.33 5.98 18.66 7 19 C5.68 19 4.36 19 3 19 C3 17.68 3 16.36 3 15 C2.34 15 1.68 15 1 15 C0.67 10.05 0.34 5.1 0 0 Z " fill="#9C4B16" transform="translate(270,158)"/>
<path d="M0 0 C0 0.66 0 1.32 0 2 C-7.26 2.66 -14.52 3.32 -22 4 C-22 3.34 -22 2.68 -22 2 C-14.66258031 -0.3479743 -7.65606218 -0.19355213 0 0 Z " fill="#DD732A" transform="translate(241,226)"/>
<path d="M0 0 C3.63 0 7.26 0 11 0 C11 0.33 11 0.66 11 1 C20.57 1.33 30.14 1.66 40 2 C40 2.33 40 2.66 40 3 C29.11 3 18.22 3 7 3 C7 2.34 7 1.68 7 1 C4.69 1 2.38 1 0 1 C0 0.67 0 0.34 0 0 Z " fill="#B57042" transform="translate(234,225)"/>
<path d="M0 0 C1.4540625 0.0309375 1.4540625 0.0309375 2.9375 0.0625 C2.2775 2.3725 1.6175 4.6825 0.9375 7.0625 C-1.3725 7.0625 -3.6825 7.0625 -6.0625 7.0625 C-3.83347902 0.07823427 -3.83347902 0.07823427 0 0 Z " fill="#181A1B" transform="translate(200.0625,436.9375)"/>
<path d="M0 0 C1 3 1 3 1 7 C1.33 5.35 1.66 3.7 2 2 C2.33 2 2.66 2 3 2 C3.53093324 3.93475671 4.04942317 5.87293155 4.5625 7.8125 C4.85253906 8.89144531 5.14257812 9.97039062 5.44140625 11.08203125 C6 14 6 14 5 17 C4.67 16.34 4.34 15.68 4 15 C3.01 15.495 3.01 15.495 2 16 C-0.42201997 11.05504256 -1.44145393 7.6285376 -1 2 C-0.67 1.34 -0.34 0.68 0 0 Z " fill="#663211" transform="translate(274,139)"/>
<path d="M0 0 C2.64 0 5.28 0 8 0 C7.34 1.98 6.68 3.96 6 6 C3.69 6 1.38 6 -1 6 C-0.67 4.02 -0.34 2.04 0 0 Z " fill="#18191A" transform="translate(256,432)"/>
<path d="M0 0 C1.9375 0.3125 1.9375 0.3125 4 1 C4.33 1.99 4.66 2.98 5 4 C5.99 4.66 6.98 5.32 8 6 C8.1875 9.125 8.1875 9.125 8 12 C7.01 12 6.02 12 5 12 C4.54625 10.88625 4.0925 9.7725 3.625 8.625 C2.27534014 5.03800992 2.27534014 5.03800992 0 3 C0 2.01 0 1.02 0 0 Z " fill="#B95E1F" transform="translate(252,161)"/>
<path d="M0 0 C0.33 1.32 0.66 2.64 1 4 C3.97 4 6.94 4 10 4 C9.34 5.32 8.68 6.64 8 8 C7.01 8 6.02 8 5 8 C5 7.34 5 6.68 5 6 C2.36 6 -0.28 6 -3 6 C-2.625 3.5625 -2.625 3.5625 -2 1 C-1.34 0.67 -0.68 0.34 0 0 Z " fill="#C0DAEB" transform="translate(343,435)"/>
<path d="M0 0 C1.305239 3.91571701 0.32239848 5.03892997 -1.4375 8.6875 C-1.91058594 9.68136719 -2.38367188 10.67523438 -2.87109375 11.69921875 C-3.42990234 12.83810547 -3.42990234 12.83810547 -4 14 C-4.99 14 -5.98 14 -7 14 C-6.54554036 12.58208592 -6.08625056 11.16571954 -5.625 9.75 C-5.24214844 8.56664062 -5.24214844 8.56664062 -4.8515625 7.359375 C-2.67878788 1.33939394 -2.67878788 1.33939394 0 0 Z " fill="#BDD6E8" transform="translate(191,426)"/>
<path d="M0 0 C0.66 0 1.32 0 2 0 C2 1.32 2 2.64 2 4 C3.94074861 3.72382467 3.94074861 3.72382467 6 3 C6.66 2.01 7.32 1.02 8 0 C8.99 0.99 9.98 1.98 11 3 C7.1584024 5.56780471 3.1860825 5.22688882 -1.25 5.125 C-1.99507813 5.11597656 -2.74015625 5.10695312 -3.5078125 5.09765625 C-5.33868059 5.07418358 -7.16938238 5.03831525 -9 5 C-9 4.67 -9 4.34 -9 4 C-6.36 3.67 -3.72 3.34 -1 3 C-0.67 2.01 -0.34 1.02 0 0 Z " fill="#E77627" transform="translate(271,173)"/>
<path d="M0 0 C3.5316064 0.79461144 4.73914686 1.62221269 6.8125 4.625 C7.204375 5.40875 7.59625 6.1925 8 7 C7.01 7 6.02 7 5 7 C3.5 5 3.5 5 2 3 C1.01 3 0.02 3 -1 3 C-1.99 4.485 -1.99 4.485 -3 6 C-3.66 6 -4.32 6 -5 6 C-3.63016497 2.83884224 -3.0109362 2.0072908 0 0 Z " fill="#D37434" transform="translate(298,201)"/>
<path d="M0 0 C0.66 0.33 1.32 0.66 2 1 C1.67 1.66 1.34 2.32 1 3 C1.99 3 2.98 3 4 3 C4.66 5.64 5.32 8.28 6 11 C3.2160817 9.60804085 3.02101003 7.84424221 2 5 C1.01 5.33 0.02 5.66 -1 6 C-1.33 6.99 -1.66 7.98 -2 9 C-2.33 8.34 -2.66 7.68 -3 7 C-2.06421005 4.64018187 -1.06652192 2.30368736 0 0 Z " fill="#6E3712" transform="translate(251,135)"/>
<path d="M0 0 C1.093125 0.0825 2.18625 0.165 3.3125 0.25 C2.6525 1.57 1.9925 2.89 1.3125 4.25 C-1.3275 4.25 -3.9675 4.25 -6.6875 4.25 C-4.79150483 0.68106792 -4.16790733 0.28256999 0 0 Z " fill="#161818" transform="translate(257.6875,439.75)"/>
<path d="M0 0 C2.31 0 4.62 0 7 0 C6.67 1.32 6.34 2.64 6 4 C3.69 4 1.38 4 -1 4 C-0.67 2.68 -0.34 1.36 0 0 Z " fill="#141616" transform="translate(218,432)"/>
<path d="M0 0 C1.98 0 3.96 0 6 0 C5.67 1.32 5.34 2.64 5 4 C3.02 4 1.04 4 -1 4 C-0.67 2.68 -0.34 1.36 0 0 Z " fill="#262A2D" transform="translate(199,432)"/>
<path d="M0 0 C3.65316671 1.24976756 4.78065836 1.67098753 7 5 C3.83179542 5 2.74405092 4.37202546 0 3 C-0.99 3 -1.98 3 -3 3 C-2.01 2.01 -1.02 1.02 0 0 Z " fill="#CA7237" transform="translate(226,201)"/>
<path d="M0 0 C1.485 0.99 1.485 0.99 3 2 C3.1875 4.625 3.1875 4.625 3 7 C3.66 7.33 4.32 7.66 5 8 C4.38125 7.79375 3.7625 7.5875 3.125 7.375 C2.42375 7.25125 1.7225 7.1275 1 7 C0.34 7.66 -0.32 8.32 -1 9 C-0.67 6.03 -0.34 3.06 0 0 Z " fill="#53250B" transform="translate(278,167)"/>
<path d="M0 0 C3.3 0 6.6 0 10 0 C10 0.33 10 0.66 10 1 C7.69 1 5.38 1 3 1 C2.67 1.99 2.34 2.98 2 4 C1.01 4 0.02 4 -1 4 C-0.67 2.68 -0.34 1.36 0 0 Z " fill="#BFD7E9" transform="translate(251,439)"/>
<path d="M0 0 C2.64 0 5.28 0 8 0 C8 0.33 8 0.66 8 1 C2.60539047 3.27141454 -2.26157749 3.20413361 -8 3 C-8 2.67 -8 2.34 -8 2 C-5.36 2 -2.72 2 0 2 C0 1.34 0 0.68 0 0 Z " fill="#D57636" transform="translate(282,225)"/>
<path d="M0 0 C1.9375 0.8125 1.9375 0.8125 4 2 C4.33 2.99 4.66 3.98 5 5 C2.69 5 0.38 5 -2 5 C-1.125 1.125 -1.125 1.125 0 0 Z " fill="#D57330" transform="translate(226,213)"/>
<path d="M0 0 C0.66 1.32 1.32 2.64 2 4 C2.66 4 3.32 4 4 4 C4 6.64 4 9.28 4 12 C3.67 10.68 3.34 9.36 3 8 C2.34 8 1.68 8 1 8 C0.67 5.36 0.34 2.72 0 0 Z " fill="#BA5E20" transform="translate(277,152)"/>
<path d="M0 0 C2.92879371 0.62759865 5.36095629 1.58622659 8 3 C5.36 3.33 2.72 3.66 0 4 C0 2.68 0 1.36 0 0 Z " fill="#C76F34" transform="translate(243,214)"/>
<path d="M0 0 C3.375 0.3125 3.375 0.3125 7 1 C7.66 1.99 8.32 2.98 9 4 C6.36 3.67 3.72 3.34 1 3 C0.67 2.01 0.34 1.02 0 0 Z " fill="#213856" transform="translate(248,365)"/>
</svg>
