<?xml version="1.0" encoding="UTF-8"?>
<svg version="1.1" xmlns="http://www.w3.org/2000/svg" width="512" height="512">
<path d="M0 0 C1.0271658 -0.00467997 2.0543316 -0.00935994 3.11262363 -0.01418173 C6.52939449 -0.02607797 9.94576026 -0.01669541 13.36253357 -0.00723267 C15.82228325 -0.01130072 18.28203111 -0.0166439 20.74177551 -0.02316284 C26.71389312 -0.03539805 32.68585374 -0.03364094 38.65796513 -0.02492492 C43.51368476 -0.01813323 48.36937272 -0.01723805 53.22509575 -0.02049637 C54.26408915 -0.02118592 54.26408915 -0.02118592 55.32407231 -0.0218894 C56.7314524 -0.02284863 58.13883248 -0.02382127 59.54621255 -0.02480717 C72.72358438 -0.03334891 85.90089345 -0.02354574 99.07825499 -0.00740607 C110.37242742 0.00599899 121.66650734 0.00366513 132.9606781 -0.01016235 C146.0943747 -0.02623457 159.2280164 -0.03252817 172.36172146 -0.02332556 C173.76344517 -0.02236997 175.16516889 -0.02142686 176.56689262 -0.02049637 C177.25646801 -0.02003354 177.94604341 -0.01957072 178.65651502 -0.01909386 C183.50402074 -0.01650912 188.35149148 -0.02086376 193.19899178 -0.02793503 C199.72847567 -0.03725106 206.25781227 -0.0305723 212.78728867 -0.01325226 C215.18138655 -0.0092906 217.57549915 -0.01041594 219.96959114 -0.01704025 C223.24164343 -0.02525814 226.51313925 -0.01493064 229.78515625 0 C231.20054313 -0.01003825 231.20054313 -0.01003825 232.64452368 -0.02027929 C239.50237225 0.04026866 245.92112291 1.03121991 251.66893005 4.99423218 C252.19615662 5.55497437 252.72338318 6.11571655 253.2665863 6.69345093 C254.08449646 7.52296265 254.08449646 7.52296265 254.91893005 8.36923218 C258.27669017 13.15938858 258.5797584 18.10991689 258.5835619 23.81515408 C258.58676838 24.54598065 258.58997485 25.27680723 258.5932785 26.02978006 C258.60158309 28.4798791 258.59565264 30.92973398 258.58978271 33.37983704 C258.59280318 35.15369231 258.59669214 36.92754629 258.60137528 38.70139796 C258.61167741 43.5770267 258.60946783 48.45258209 258.60519469 53.32821691 C258.6027315 58.58597129 258.61173653 63.84370781 258.61923218 69.10145569 C258.6319923 79.40215305 258.63377125 89.70282436 258.63143191 100.00352829 C258.62965015 108.37432437 258.63139535 116.74511253 258.63565636 125.11590767 C258.63625155 126.306479 258.63684673 127.49705034 258.63745996 128.72369959 C258.63867169 131.14220027 258.63988582 133.56070095 258.64110234 135.97920162 C258.65198283 158.66810647 258.6498129 181.35699646 258.64371749 204.04590214 C258.63854723 224.81129343 258.64980576 245.57663783 258.66881571 266.34201985 C258.68817804 287.65541193 258.69645297 308.96878181 258.69269246 330.28218275 C258.69077806 342.25146596 258.69329126 354.22070923 258.707407 366.18998528 C258.71930128 376.37885496 258.72074761 386.56766015 258.70861683 396.75653069 C258.70271457 401.95634074 258.70166589 407.15603268 258.71361923 412.35583496 C258.72443199 417.11470866 258.72142978 421.87336499 258.70735755 426.63222832 C258.70469789 428.35490763 258.70711674 430.07760372 258.71509341 431.80026662 C258.72517964 434.14074294 258.71679493 436.48046081 258.70381641 438.82090664 C258.70387143 440.1212341 258.70392645 441.42156155 258.70398313 442.76129287 C258.07208086 448.86235853 255.70737204 454.00266519 251.3290863 458.38095093 C245.28038068 462.47620055 239.77718822 462.95432195 232.62620544 462.8888855 C231.04408437 462.89824544 231.04408437 462.89824544 229.43000126 462.90779448 C225.90785198 462.92370541 222.38639655 462.91112706 218.86424255 462.89852905 C216.33419899 462.90395098 213.80415858 462.91107404 211.27412415 462.91976929 C205.12289916 462.9361051 198.97192965 462.93372823 192.82070136 462.92211872 C187.81999088 462.91307265 182.81933509 462.91186546 177.81861877 462.91621399 C177.10596928 462.91682692 176.39331978 462.91743985 175.65907484 462.91807136 C174.21118695 462.9193503 172.76329907 462.92064716 171.31541121 462.92196172 C157.74939307 462.93335861 144.18348317 462.92026785 130.61748278 462.89876026 C118.98581466 462.88089006 107.35430623 462.88399442 95.72264099 462.9024353 C82.20404527 462.92385781 68.68554434 462.93226006 55.16693401 462.91998625 C53.72447397 462.9187121 52.28201391 462.91745461 50.83955383 462.91621399 C50.12989898 462.91559689 49.42024413 462.91497979 48.68908459 462.91434398 C43.69635077 462.91089521 38.70367724 462.9167092 33.71095276 462.9261322 C26.98690575 462.93854426 20.26320636 462.92966441 13.53917313 462.90655518 C11.07209397 462.90126818 8.60498942 462.90278164 6.13792038 462.91160583 C2.76892734 462.92254461 -0.59910116 462.90881634 -3.96803284 462.8888855 C-5.43069029 462.90226983 -5.43069029 462.90226983 -6.92289639 462.91592455 C-13.97484657 462.83506499 -19.6458026 461.42328277 -24.72950745 456.31063843 C-25.41206604 455.29356812 -25.41206604 455.29356812 -26.1084137 454.25595093 C-26.58149963 453.5727478 -27.05458557 452.88954468 -27.54200745 452.18563843 C-29.89935318 448.41714802 -29.79904766 445.84694793 -29.80513477 441.3736763 C-29.807487 440.64041201 -29.80983923 439.90714772 -29.81226274 439.1516633 C-29.81897423 436.66926038 -29.81849388 434.18690955 -29.81808472 431.70449829 C-29.821382 429.91688416 -29.82510728 428.12927078 -29.8292262 426.34165835 C-29.83926966 421.40947658 -29.84296675 416.47730698 -29.84561551 411.54511642 C-29.84951161 406.23346181 -29.85909039 400.9218169 -29.86782837 395.61016846 C-29.88761219 382.77289549 -29.8976613 369.9356217 -29.90655616 357.09833729 C-29.91093582 351.05816987 -29.91630345 345.01800333 -29.92154503 338.97783661 C-29.93855903 318.90784004 -29.95305431 298.83784402 -29.96029377 278.76784134 C-29.96220377 273.55684661 -29.96412409 268.34585189 -29.96607971 263.13485718 C-29.96656345 261.83963523 -29.96704719 260.54441329 -29.96754559 259.20994219 C-29.97585001 238.21728408 -30.00119311 217.22468287 -30.03366039 196.23204961 C-30.06669723 174.69617984 -30.08473946 153.16033902 -30.08793801 131.62444377 C-30.09010621 119.52600372 -30.09890013 107.42764667 -30.12439919 95.32923126 C-30.1460601 85.02787433 -30.15417936 74.72662053 -30.1444324 64.42524341 C-30.13987434 59.16681365 -30.14186114 53.90859689 -30.16119385 48.65019608 C-30.17873101 43.83874021 -30.17790504 39.02765423 -30.16229656 34.21619496 C-30.15990606 32.47322101 -30.16431816 30.73022208 -30.17612521 28.98728648 C-30.19116148 26.62160162 -30.18163024 24.25724144 -30.16589832 21.89159012 C-30.16687513 20.5765636 -30.16785194 19.26153708 -30.16885835 17.90666127 C-29.30484795 11.7890127 -25.40158358 7.18605497 -20.6709137 3.38095093 C-13.85490091 0.55215706 -7.30176625 -0.05190851 0 0 Z " fill="#DEDEDE" transform="translate(143.67091369628906,24.619049072265625)"/>
<path d="M0 0 C72.93 0 145.86 0 221 0 C221 75.9 221 151.8 221 230 C148.07 230 75.14 230 0 230 C0 154.1 0 78.2 0 0 Z " fill="#1D1D1D" transform="translate(147,167)"/>
<path d="M0 0 C31.02 0 62.04 0 94 0 C94 11.22 94 22.44 94 34 C90.7 34 87.4 34 84 34 C83.75765625 33.27554688 83.5153125 32.55109375 83.265625 31.8046875 C80.02415612 22.4542965 76.95991332 16.617943 68 12 C61.32916797 9.77638932 54.02084808 10.39004712 47 10 C47 29.47 47 48.94 47 69 C61.10831835 69.49421605 61.10831835 69.49421605 67 64 C68.21675659 61.45843047 68.21675659 61.45843047 68.8125 58.75 C69.204375 57.1825 69.59625 55.615 70 54 C73.96 54 77.92 54 82 54 C82 68.85 82 83.7 82 99 C78.04 99 74.08 99 70 99 C69.38151042 96.55859375 68.76302083 94.1171875 68.14453125 91.67578125 C66.63960727 88.15744361 64.96907988 86.42631011 62 84 C59.2042814 83.47562169 56.97543325 83.21151091 54.1875 83.1875 C53.49462891 83.16236328 52.80175781 83.13722656 52.08789062 83.11132812 C50.39252878 83.05286737 48.69620713 83.02346953 47 83 C47.06126355 91.51920998 47.13840696 100.0380662 47.23571491 108.5569334 C47.28040455 112.51278832 47.31966357 116.46854058 47.34643555 120.42456055 C47.37248289 124.24378758 47.41289485 128.0626193 47.46318626 131.88160133 C47.47984542 133.33715706 47.49136565 134.79278116 47.49761391 136.24841881 C47.50726585 138.29062518 47.53533523 140.33182247 47.56762695 142.3737793 C47.58428154 144.11584908 47.58428154 144.11584908 47.60127258 145.89311218 C48.15820011 150.23269673 49.72856744 152.88749651 53 155.75 C55.0740235 157.15503035 55.0740235 157.15503035 58 158 C58 161.96 58 165.92 58 170 C38.86 170 19.72 170 0 170 C0 166.04 0 162.08 0 158 C1.72526042 157.18619792 3.45052083 156.37239583 5.17578125 155.55859375 C8.63925594 152.59943658 9.81349555 148.75777358 10.28101921 144.35144043 C10.39727351 141.11700103 10.41670688 137.89473543 10.40405273 134.65820312 C10.41091599 133.42972153 10.41777924 132.20123993 10.42485046 130.93553162 C10.43997026 127.5820888 10.44162539 124.22920397 10.43590808 120.87576866 C10.43280799 118.07012265 10.43891762 115.26452647 10.44494683 112.45888758 C10.45897002 105.8379463 10.4574487 99.21713413 10.44604492 92.59619141 C10.43456036 85.77788541 10.44864973 78.9599726 10.4754414 72.14171839 C10.49762704 66.27482166 10.50422952 60.4080481 10.49836498 54.54111242 C10.49500166 51.04265767 10.49736871 47.54445503 10.51461601 44.04603577 C10.53301349 40.144467 10.51886853 36.2433789 10.50170898 32.34179688 C10.51137695 31.19041733 10.52104492 30.03903778 10.53100586 28.85276794 C10.47130623 22.36867927 9.9780033 18.21982095 6 13 C2.91619214 11.03816941 2.91619214 11.03816941 0 10 C0 6.7 0 3.4 0 0 Z " fill="#E2E2E2" transform="translate(248,197)"/>
<path d="M0 0 C2.75913505 1.93139453 4.48017885 3.28487444 6.125 6.1875 C6.125 6.8475 6.125 7.5075 6.125 8.1875 C5.44695312 8.39503906 4.76890625 8.60257813 4.0703125 8.81640625 C-13.51845725 14.63872754 -22.56299435 27.03393525 -31.875 42.1875 C-28.41 41.6925 -28.41 41.6925 -24.875 41.1875 C-28.07836822 44.02124881 -30.65587253 44.7080537 -34.875 45.1875 C-34.545 46.1775 -34.215 47.1675 -33.875 48.1875 C-31.95708586 49.16438852 -31.95708586 49.16438852 -29.5703125 49.79296875 C-28.68174561 50.05480957 -27.79317871 50.31665039 -26.87768555 50.58642578 C-25.92804932 50.84665527 -24.97841309 51.10688477 -24 51.375 C-23.0406958 51.64038574 -22.0813916 51.90577148 -21.09301758 52.17919922 C-12.64480938 54.41648024 -5.34327494 56.11017376 2.8125 52.1875 C3.905625 51.5275 4.99875 50.8675 6.125 50.1875 C6.125 49.5275 6.125 48.8675 6.125 48.1875 C5.485625 47.81625 4.84625 47.445 4.1875 47.0625 C1.47643291 44.59789355 1.24204276 42.75957408 0.953125 39.1875 C1.23231532 35.93873989 2.81931943 34.36508721 5.125 32.1875 C8.86805712 29.69212859 11.71881924 29.39805928 16.125 30.1875 C18.125 32.1875 18.125 32.1875 19.125 34.1875 C25.05472982 33.20097965 31.48953844 31.04425986 35.66015625 26.5234375 C36.87746793 24.74850512 36.87746793 24.74850512 38.125 22.1875 C37.135 21.5275 36.145 20.8675 35.125 20.1875 C35.888125 20.105 36.65125 20.0225 37.4375 19.9375 C40.64873261 19.04134206 41.41874499 17.97138975 43.125 15.1875 C44.445 15.5175 45.765 15.8475 47.125 16.1875 C46.135 17.6725 46.135 17.6725 45.125 19.1875 C46.115 19.8475 47.105 20.5075 48.125 21.1875 C47.36348633 21.26766357 46.60197266 21.34782715 45.81738281 21.43041992 C42.45849195 22.37491761 41.84747079 23.37003083 40.046875 26.30078125 C39.52609375 27.13673828 39.0053125 27.97269531 38.46875 28.83398438 C37.9428125 29.71376953 37.416875 30.59355469 36.875 31.5 C36.06289063 32.80227539 36.06289063 32.80227539 35.234375 34.13085938 C31.9794859 39.36338263 31.9794859 39.36338263 30.125 45.1875 C35.17962685 43.63477149 39.63590843 42.04419464 44.125 39.1875 C44.785 39.1875 45.445 39.1875 46.125 39.1875 C46.36992187 38.49269531 46.61484375 37.79789063 46.8671875 37.08203125 C48.32750025 33.72149786 50.18781778 30.90175133 52.25 27.875 C53.33667969 26.27205078 53.33667969 26.27205078 54.4453125 24.63671875 C55.27675781 23.42435547 55.27675781 23.42435547 56.125 22.1875 C55.135 21.5275 54.145 20.8675 53.125 20.1875 C53.888125 20.105 54.65125 20.0225 55.4375 19.9375 C58.64873261 19.04134206 59.41874499 17.97138975 61.125 15.1875 C62.445 15.5175 63.765 15.8475 65.125 16.1875 C64.135 17.6725 64.135 17.6725 63.125 19.1875 C64.115 19.8475 65.105 20.5075 66.125 21.1875 C65.36348633 21.26766357 64.60197266 21.34782715 63.81738281 21.43041992 C60.45849195 22.37491761 59.84747079 23.37003083 58.046875 26.30078125 C57.52609375 27.13673828 57.0053125 27.97269531 56.46875 28.83398438 C55.9428125 29.71376953 55.416875 30.59355469 54.875 31.5 C54.06289063 32.80227539 54.06289063 32.80227539 53.234375 34.13085938 C49.9794859 39.36338263 49.9794859 39.36338263 48.125 45.1875 C54.34355186 43.32193444 56.3108896 40.80947386 59.65625 35.35546875 C61.81153569 32.17412951 63.6458086 30.81605768 67.125 29.1875 C70.6529992 29.1875 71.79889977 29.89665385 74.4375 32.25 C74.994375 32.889375 75.55125 33.52875 76.125 34.1875 C77.445 32.5375 78.765 30.8875 80.125 29.1875 C81.445 29.5175 82.765 29.8475 84.125 30.1875 C83.34962891 31.30898437 83.34962891 31.30898437 82.55859375 32.453125 C81.89988281 33.43796875 81.24117187 34.4228125 80.5625 35.4375 C79.57056641 36.89929688 79.57056641 36.89929688 78.55859375 38.390625 C76.88147595 41.01995522 76.88147595 41.01995522 77.41015625 43.546875 C77.76400391 44.35898438 77.76400391 44.35898438 78.125 45.1875 C78.56199219 44.33865234 78.56199219 44.33865234 79.0078125 43.47265625 C82.39772727 37.40705403 82.39772727 37.40705403 86.4375 36.1875 C87.324375 36.1875 88.21125 36.1875 89.125 36.1875 C89.79296875 37.95703125 89.79296875 37.95703125 90.125 40.1875 C89.05078125 42.07421875 89.05078125 42.07421875 87.4375 43.875 C86.91800781 44.47699219 86.39851562 45.07898438 85.86328125 45.69921875 C83.94484424 47.34174572 82.59126903 47.78451487 80.125 48.1875 C80.785 50.4975 81.445 52.8075 82.125 55.1875 C85.17315458 55.51843807 85.17315458 55.51843807 87.02734375 53.5078125 C87.69894531 52.78335938 88.37054688 52.05890625 89.0625 51.3125 C92.23651731 47.89997272 94.64828422 45.51801493 99.37890625 44.88671875 C100.14074219 44.88285156 100.90257812 44.87898438 101.6875 44.875 C102.45191406 44.85824219 103.21632813 44.84148437 104.00390625 44.82421875 C106.66665104 45.28026896 107.55356975 46.01360448 109.125 48.1875 C109.125 52.51168553 108.59163266 54.60420918 105.875 58 C101.53588498 61.45156877 98.01323441 62.45853385 92.5 62.375 C91.55898438 62.36855469 90.61796875 62.36210938 89.6484375 62.35546875 C87.125 62.1875 87.125 62.1875 84.125 61.1875 C81.155 66.1375 78.185 71.0875 75.125 76.1875 C75.785 75.8575 76.445 75.5275 77.125 75.1875 C79.12460012 75.147508 81.12547242 75.14403201 83.125 75.1875 C83.9375 77.3125 83.9375 77.3125 84.125 80.1875 C82.50373325 82.22447617 80.83640469 84.22564584 79.125 86.1875 C79.125 87.5075 79.125 88.8275 79.125 90.1875 C86.5137734 88.07642189 93.49347167 83.44869142 97.4375 76.6875 C97.994375 75.8625 98.55125 75.0375 99.125 74.1875 C101.73046875 74.03125 101.73046875 74.03125 104.125 74.1875 C103.63128906 75.00734375 103.13757813 75.8271875 102.62890625 76.671875 C101.98824219 77.74953125 101.34757813 78.8271875 100.6875 79.9375 C100.04941406 81.00484375 99.41132813 82.0721875 98.75390625 83.171875 C97.43026901 85.62234971 96.59202949 87.47741337 96.125 90.1875 C101.10989871 89.01458266 104.45926107 87.94723224 108.125 84.1875 C109.66731592 81.5717322 111.12315892 78.94111939 112.5 76.234375 C113.03625 75.55890625 113.5725 74.8834375 114.125 74.1875 C116.8125 73.890625 116.8125 73.890625 119.125 74.1875 C119.125 74.8475 119.125 75.5075 119.125 76.1875 C119.681875 75.8575 120.23875 75.5275 120.8125 75.1875 C123.44901158 74.04738688 125.28054856 73.9568688 128.125 74.1875 C129.125 75.1875 129.125 75.1875 129.4375 77.875 C129.05343257 81.94611471 127.4641352 83.89809112 125.125 87.1875 C125.125 88.1775 125.125 89.1675 125.125 90.1875 C133.84090331 88.30759929 137.27859001 83.25261165 141.98828125 75.98046875 C142.36339844 75.38878906 142.73851562 74.79710938 143.125 74.1875 C144.445 74.5175 145.765 74.8475 147.125 75.1875 C146.63128906 75.93515625 146.13757813 76.6828125 145.62890625 77.453125 C144.98824219 78.43796875 144.34757813 79.4228125 143.6875 80.4375 C143.04941406 81.41203125 142.41132813 82.3865625 141.75390625 83.390625 C140.3673864 85.77131615 139.578419 87.50530307 139.125 90.1875 C143.74013112 88.86889111 147.22397612 86.97394563 151.125 84.1875 C149.55687242 88.42144447 146.77898002 90.65782152 143.125 93.1875 C139.9375 93.6875 139.9375 93.6875 137.125 93.1875 C135.25 91.6875 135.25 91.6875 134.125 90.1875 C132.825625 90.93 132.825625 90.93 131.5 91.6875 C127.98468503 93.24986221 125.91560983 93.61825112 122.125 93.1875 C121.465 92.5275 120.805 91.8675 120.125 91.1875 C120.35370332 86.15602694 122.2753113 83.23221944 125.125 79.1875 C125.125 78.5275 125.125 77.8675 125.125 77.1875 C118.30423702 79.35774277 115.16634955 80.54219113 111.375 86.8125 C110.45460938 88.31683594 110.45460938 88.31683594 109.515625 89.8515625 C109.05671875 90.62242187 108.5978125 91.39328125 108.125 92.1875 C107.33996094 92.00316406 106.55492187 91.81882812 105.74609375 91.62890625 C102.61205918 91.10111801 101.87018288 91.77331488 99.125 93.1875 C95.875 93.3125 95.875 93.3125 93.125 93.1875 C92.465 91.5375 91.805 89.8875 91.125 88.1875 C88.86531609 89.27549596 86.82575335 90.39224771 84.75 91.8125 C81.61193908 93.4562462 79.62202205 93.57605801 76.125 93.1875 C74.125 91.1875 74.125 91.1875 73.6875 88.9375 C74.31063339 85.02066154 76.52843172 83.10072294 79.125 80.1875 C79.455 79.1975 79.785 78.2075 80.125 77.1875 C74.15741028 78.67939743 72.20644793 81.16798914 68.9375 86.375 C67.98810547 88.00501953 67.98810547 88.00501953 67.01953125 89.66796875 C66.39433594 90.49941406 65.76914062 91.33085937 65.125 92.1875 C63.805 92.1875 62.485 92.1875 61.125 92.1875 C61.785 90.2075 62.445 88.2275 63.125 86.1875 C62.55652344 86.60902344 61.98804688 87.03054687 61.40234375 87.46484375 C53.0114163 93.41833985 53.0114163 93.41833985 47.125 93.1875 C44.6875 91.625 44.6875 91.625 43.125 89.1875 C42.875 85.9375 42.875 85.9375 43.125 83.1875 C39.61852499 86.0564341 36.27218888 88.9192654 33.125 92.1875 C32.465 91.8575 31.805 91.5275 31.125 91.1875 C32.115 89.7025 32.115 89.7025 33.125 88.1875 C32.135 87.40375 31.145 86.62 30.125 85.8125 C29.135 84.94625 28.145 84.08 27.125 83.1875 C27.125 82.5275 27.125 81.8675 27.125 81.1875 C24.6517341 82.59124551 22.45560832 83.85689168 20.4375 85.875 C20.004375 86.308125 19.57125 86.74125 19.125 87.1875 C18.465 87.1875 17.805 87.1875 17.125 87.1875 C17.125 87.8475 17.125 88.5075 17.125 89.1875 C13.0340934 92.49918629 10.38871362 93.68880606 5.125 93.1875 C4.795 92.1975 4.465 91.2075 4.125 90.1875 C3.53332031 90.43886719 2.94164062 90.69023437 2.33203125 90.94921875 C-4.066903 93.42319496 -4.066903 93.42319496 -7.875 92.3125 C-10.5919599 89.42573011 -10.65536997 87.06763061 -10.875 83.1875 C-12.195 83.1875 -13.515 83.1875 -14.875 83.1875 C-15.205 82.1975 -15.535 81.2075 -15.875 80.1875 C-18.86713774 80.00430789 -20.21685416 79.92565645 -22.875 81.1875 C-24.94224397 83.94954381 -26.57535518 86.77408429 -28.19921875 89.81640625 C-28.75222656 90.59886719 -29.30523437 91.38132812 -29.875 92.1875 C-31.195 92.1875 -32.515 92.1875 -33.875 92.1875 C-32.42549545 88.3964881 -30.72327434 84.8000362 -28.875 81.1875 C-31.185 82.1775 -33.495 83.1675 -35.875 84.1875 C-36.205 82.8675 -36.535 81.5475 -36.875 80.1875 C-43.88202067 80.43775074 -47.90765392 82.21103952 -52.875 87.1875 C-55.00577063 89.84664649 -57.05841277 92.5398636 -59.08007812 95.28149414 C-63.48550928 101.18623131 -68.82659968 107.49139059 -75.875 110.1875 C-81.77942385 110.90387326 -87.09426281 111.44449096 -92.0625 107.9375 C-92.660625 107.03 -93.25875 106.1225 -93.875 105.1875 C-94.5246875 104.2284375 -94.5246875 104.2284375 -95.1875 103.25 C-96.10058643 100.5107407 -96.00522431 98.05243481 -95.875 95.1875 C-91.875 99.9375 -91.875 99.9375 -91.875 102.1875 C-88.3636525 103.76002793 -85.47260434 104.52937241 -81.625 104.625 C-80.75359375 104.66496094 -79.8821875 104.70492187 -78.984375 104.74609375 C-70.34830949 103.19463977 -65.02554506 97.77176265 -59.875 91.0625 C-59.27397461 90.30767334 -58.67294922 89.55284668 -58.05371094 88.77514648 C-56.31456498 86.58907829 -54.59351243 84.38979972 -52.875 82.1875 C-44.64747616 71.78368266 -36.39567701 62.03311967 -24.875 55.1875 C-27.87940021 53.18456653 -29.58493945 52.69478374 -33.0625 52.0625 C-33.96355469 51.89492187 -34.86460937 51.72734375 -35.79296875 51.5546875 C-36.48003906 51.43351562 -37.16710937 51.31234375 -37.875 51.1875 C-38.349375 52.0125 -38.82375 52.8375 -39.3125 53.6875 C-44.38642163 61.22691876 -51.41226762 66.14651815 -59.875 69.1875 C-58.225 70.8375 -56.575 72.4875 -54.875 74.1875 C-61.5 73.4375 -61.5 73.4375 -64.875 71.1875 C-64.875 70.5275 -64.875 69.8675 -64.875 69.1875 C-65.76251953 69.05794922 -65.76251953 69.05794922 -66.66796875 68.92578125 C-70.69552326 68.20962555 -73.46377379 67.47021802 -76.875 65.125 C-79.53475007 61.21849208 -79.7637154 57.83110286 -79.875 53.1875 C-75.875 57.1875 -75.875 57.1875 -74.375 58.8125 C-72.67555914 60.37032079 -70.97019778 61.24827341 -68.875 62.1875 C-68.6275 60.970625 -68.38 59.75375 -68.125 58.5 C-66.8255248 53.39234052 -64.77244937 50.41138351 -60.2890625 47.51953125 C-56.51020079 46.04516987 -54.29669335 46.13266058 -50.3527832 46.48486328 C-42.78032153 47.2087083 -42.78032153 47.2087083 -36.16796875 44.1015625 C-34.1253095 41.22491811 -32.48541513 38.32462057 -30.875 35.1875 C-29.75895365 33.48015387 -28.613791 31.79141224 -27.4375 30.125 C-26.86515625 29.31160156 -26.2928125 28.49820313 -25.703125 27.66015625 C-19.31566017 19.02070061 -12.30721205 12.4554125 -2.875 7.1875 C-2.215 7.1875 -1.555 7.1875 -0.875 7.1875 C-4.79341264 2.79697809 -4.79341264 2.79697809 -9.875 0.1875 C-15.0198203 0.27324701 -17.81861718 0.94965365 -22 3.9375 C-24.0078125 5.3125 -24.0078125 5.3125 -25.875 6.1875 C-28.875 4.9375 -28.875 4.9375 -31.875 3.1875 C-35.70395093 3.12893096 -39.24946056 3.97898685 -42.875 5.1875 C-41.875 2.1875 -41.875 2.1875 -39.375 0.5 C-34.20406681 -1.43909995 -29.2625051 -1.84346811 -24.125 0.375 C-23.3825 0.643125 -22.64 0.91125 -21.875 1.1875 C-19.26724959 -0.07711808 -19.26724959 -0.07711808 -16.875 -1.8125 C-11.21807273 -3.66684545 -5.19858937 -2.80348556 0 0 Z " fill="#E1E1E1" transform="translate(227.875,48.8125)"/>
<path d="M0 0 C18.81 0 37.62 0 57 0 C57 3.3 57 6.6 57 10 C54.1875 12.375 54.1875 12.375 51 14 C48.06294864 17.08833047 47.62189575 19.24553047 47.60559082 23.45187378 C47.59424103 24.55936981 47.58289124 25.66686584 47.57119751 26.80792236 C47.57412811 28.01841248 47.57705872 29.22890259 47.58007812 30.47607422 C47.56737381 32.39370071 47.56737381 32.39370071 47.55441284 34.35006714 C47.53219697 37.85431174 47.52926622 41.3583212 47.53116035 44.86262655 C47.53128007 47.7899996 47.52271535 50.71732286 47.51438284 53.64468205 C47.49514794 60.55270595 47.49226499 67.46060901 47.49902344 74.36865234 C47.50566231 81.48973894 47.48280684 88.6103073 47.44570971 95.73128879 C47.41499579 101.84948963 47.40365454 107.96752392 47.40754652 114.08580029 C47.40961258 117.73803192 47.404158 121.38986041 47.37965393 125.04201889 C47.35321802 129.11673939 47.36712732 133.19036869 47.38476562 137.26513672 C47.37150238 138.47157837 47.35823914 139.67802002 47.34457397 140.92102051 C47.30472356 147.74982733 47.30472356 147.74982733 50.28845215 153.67092896 C53.03255733 156.21923082 53.03255733 156.21923082 57 158 C57 161.96 57 165.92 57 170 C38.19 170 19.38 170 0 170 C0 166.04 0 162.08 0 158 C1.7578125 157.08854167 3.515625 156.17708333 5.2734375 155.265625 C7.42990097 153.68486897 8.00361478 152.4784475 9 150 C9.30755065 147.40480934 9.30755065 147.40480934 9.27415466 144.54812622 C9.28412979 143.44063019 9.29410492 142.33313416 9.30438232 141.19207764 C9.305047 139.98158752 9.30571167 138.77109741 9.30639648 137.52392578 C9.31472 136.24550812 9.32304352 134.96709045 9.33161926 133.64993286 C9.35354785 130.14573759 9.36236085 126.64162958 9.36744571 123.13737345 C9.37109105 120.94693755 9.377332 118.75652446 9.3844471 116.56609726 C9.40893533 108.92117053 9.42199225 101.2763116 9.42553711 93.63134766 C9.42917254 86.51028128 9.45906961 79.38964586 9.50094169 72.26871121 C9.53565359 66.15052572 9.55108569 60.032483 9.55178314 53.91419971 C9.55257563 50.26194648 9.56130029 46.61013241 9.58978081 42.95798111 C9.62084651 38.88329987 9.61189775 34.80964366 9.59936523 30.73486328 C9.62161667 28.92520081 9.62161667 28.92520081 9.64431763 27.07897949 C9.6936539 20.25038084 9.6936539 20.25038084 6.71253967 14.32907104 C3.96746706 11.78092748 3.96746706 11.78092748 0 10 C0 6.7 0 3.4 0 0 Z " fill="#E1E1E1" transform="translate(178,197)"/>
<path d="M0 0 C1.32 0.33 2.64 0.66 4 1 C3.01 2.485 3.01 2.485 2 4 C2.99 4.66 3.98 5.32 5 6 C4.23848633 6.08016357 3.47697266 6.16032715 2.69238281 6.24291992 C-0.66650805 7.18741761 -1.27752921 8.18253083 -3.078125 11.11328125 C-3.59890625 11.94923828 -4.1196875 12.78519531 -4.65625 13.64648438 C-5.1821875 14.52626953 -5.708125 15.40605469 -6.25 16.3125 C-6.79140625 17.18068359 -7.3328125 18.04886719 -7.890625 18.94335938 C-11.1455141 24.17588263 -11.1455141 24.17588263 -13 30 C-7.94537315 28.44727149 -3.48909157 26.85669464 1 24 C1.66 24 2.32 24 3 24 C3.24492187 23.30519531 3.48984375 22.61039063 3.7421875 21.89453125 C5.20250025 18.53399786 7.06281778 15.71425133 9.125 12.6875 C9.84945313 11.61886719 10.57390625 10.55023438 11.3203125 9.44921875 C11.87460937 8.64097656 12.42890625 7.83273438 13 7 C12.01 6.34 11.02 5.68 10 5 C11.1446875 4.87625 11.1446875 4.87625 12.3125 4.75 C15.52373261 3.85384206 16.29374499 2.78388975 18 0 C19.32 0.33 20.64 0.66 22 1 C21.34 1.99 20.68 2.98 20 4 C20.99 4.66 21.98 5.32 23 6 C22.23848633 6.08016357 21.47697266 6.16032715 20.69238281 6.24291992 C17.33349195 7.18741761 16.72247079 8.18253083 14.921875 11.11328125 C14.40109375 11.94923828 13.8803125 12.78519531 13.34375 13.64648438 C12.8178125 14.52626953 12.291875 15.40605469 11.75 16.3125 C11.20859375 17.18068359 10.6671875 18.04886719 10.109375 18.94335938 C6.8544859 24.17588263 6.8544859 24.17588263 5 30 C11.21855186 28.13443444 13.1858896 25.62197386 16.53125 20.16796875 C18.68653569 16.98662951 20.5208086 15.62855768 24 14 C27.5279992 14 28.67389977 14.70915385 31.3125 17.0625 C31.869375 17.701875 32.42625 18.34125 33 19 C34.32 17.35 35.64 15.7 37 14 C38.32 14.33 39.64 14.66 41 15 C40.48308594 15.74765625 39.96617187 16.4953125 39.43359375 17.265625 C38.77488281 18.25046875 38.11617188 19.2353125 37.4375 20.25 C36.77621094 21.22453125 36.11492187 22.1990625 35.43359375 23.203125 C33.75647595 25.83245522 33.75647595 25.83245522 34.28515625 28.359375 C34.52105469 28.90078125 34.75695312 29.4421875 35 30 C35.29132813 29.43410156 35.58265625 28.86820313 35.8828125 28.28515625 C39.27272727 22.21955403 39.27272727 22.21955403 43.3125 21 C44.199375 21 45.08625 21 46 21 C46.66796875 22.76953125 46.66796875 22.76953125 47 25 C45.92578125 26.88671875 45.92578125 26.88671875 44.3125 28.6875 C43.79300781 29.28949219 43.27351563 29.89148438 42.73828125 30.51171875 C40.81984424 32.15424572 39.46626903 32.59701487 37 33 C37.66 35.31 38.32 37.62 39 40 C42.04815458 40.33093807 42.04815458 40.33093807 43.90234375 38.3203125 C44.57394531 37.59585938 45.24554688 36.87140625 45.9375 36.125 C49.11151731 32.71247272 51.52328422 30.33051493 56.25390625 29.69921875 C57.01574219 29.69535156 57.77757812 29.69148438 58.5625 29.6875 C59.32691406 29.67074219 60.09132813 29.65398437 60.87890625 29.63671875 C63.54165104 30.09276896 64.42856975 30.82610448 66 33 C66 37.32418553 65.46663266 39.41670918 62.75 42.8125 C58.41088498 46.26406877 54.88823441 47.27103385 49.375 47.1875 C48.43398438 47.18105469 47.49296875 47.17460938 46.5234375 47.16796875 C44 47 44 47 41 46 C38.03 50.95 35.06 55.9 32 61 C32.66 60.67 33.32 60.34 34 60 C35.99960012 59.960008 38.00047242 59.95653201 40 60 C40.8125 62.125 40.8125 62.125 41 65 C39.37873325 67.03697617 37.71140469 69.03814584 36 71 C36 72.32 36 73.64 36 75 C43.3887734 72.88892189 50.36847167 68.26119142 54.3125 61.5 C54.869375 60.675 55.42625 59.85 56 59 C58.60546875 58.84375 58.60546875 58.84375 61 59 C60.25943359 60.22976562 60.25943359 60.22976562 59.50390625 61.484375 C58.86324219 62.56203125 58.22257812 63.6396875 57.5625 64.75 C56.92441406 65.81734375 56.28632813 66.8846875 55.62890625 67.984375 C54.30526901 70.43484971 53.46702949 72.28991337 53 75 C57.98489871 73.82708266 61.33426107 72.75973224 65 69 C66.54231592 66.3842322 67.99815892 63.75361939 69.375 61.046875 C69.91125 60.37140625 70.4475 59.6959375 71 59 C73.6875 58.703125 73.6875 58.703125 76 59 C76 59.66 76 60.32 76 61 C76.556875 60.67 77.11375 60.34 77.6875 60 C80.32401158 58.85988688 82.15554856 58.7693688 85 59 C86 60 86 60 86.3125 62.6875 C85.92843257 66.75861471 84.3391352 68.71059112 82 72 C82 72.99 82 73.98 82 75 C90.71590331 73.12009929 94.15359001 68.06511165 98.86328125 60.79296875 C99.23839844 60.20128906 99.61351562 59.60960937 100 59 C101.98 59.495 101.98 59.495 104 60 C103.50628906 60.74765625 103.01257813 61.4953125 102.50390625 62.265625 C101.86324219 63.25046875 101.22257812 64.2353125 100.5625 65.25 C99.92441406 66.22453125 99.28632813 67.1990625 98.62890625 68.203125 C97.2423864 70.58381615 96.453419 72.31780307 96 75 C100.61513112 73.68139111 104.09897612 71.78644563 108 69 C106.43187242 73.23394447 103.65398002 75.47032152 100 78 C96.8125 78.5 96.8125 78.5 94 78 C92.125 76.5 92.125 76.5 91 75 C90.13375 75.495 89.2675 75.99 88.375 76.5 C84.85968503 78.06236221 82.79060983 78.43075112 79 78 C78.34 77.34 77.68 76.68 77 76 C77.22870332 70.96852694 79.1503113 68.04471944 82 64 C82 63.34 82 62.68 82 62 C75.17923702 64.17024277 72.04134955 65.35469113 68.25 71.625 C67.63640625 72.62789063 67.0228125 73.63078125 66.390625 74.6640625 C65.93171875 75.43492187 65.4728125 76.20578125 65 77 C64.21496094 76.81566406 63.42992187 76.63132812 62.62109375 76.44140625 C59.48705918 75.91361801 58.74518288 76.58581488 56 78 C52.75 78.125 52.75 78.125 50 78 C49.34 76.35 48.68 74.7 48 73 C45.74031609 74.08799596 43.70075335 75.20474771 41.625 76.625 C38.48693908 78.2687462 36.49702205 78.38855801 33 78 C31 76 31 76 30.5625 73.75 C31.18563339 69.83316154 33.40343172 67.91322294 36 65 C36.495 63.515 36.495 63.515 37 62 C31.03241028 63.49189743 29.08144793 65.98048914 25.8125 71.1875 C25.17957031 72.27417969 24.54664063 73.36085938 23.89453125 74.48046875 C23.26933594 75.31191406 22.64414062 76.14335937 22 77 C20.68 77 19.36 77 18 77 C18.89302046 72.71350182 19.97676839 69.75831942 22.6875 66.30078125 C26.00784661 61.99182016 29.21140145 57.61263229 32.375 53.1875 C32.92027344 52.43791016 33.46554687 51.68832031 34.02734375 50.91601562 C34.54167969 50.19478516 35.05601562 49.47355469 35.5859375 48.73046875 C36.0504834 48.08489014 36.5150293 47.43931152 36.99365234 46.77416992 C38.24668898 44.90504405 38.24668898 44.90504405 38 42 C37.505 41.195625 37.01 40.39125 36.5 39.5625 C35 37 35 37 35 33 C33.824375 33.0928125 33.824375 33.0928125 32.625 33.1875 C31.75875 33.125625 30.8925 33.06375 30 33 C29.34 32.01 28.68 31.02 28 30 C27.278125 30.495 26.55625 30.99 25.8125 31.5 C22.80393392 33.10456857 21.341663 33.4396925 18 33 C17.01 32.34 16.02 31.68 15 31 C15 30.01 15 29.02 15 28 C14.48050781 28.37253906 13.96101563 28.74507812 13.42578125 29.12890625 C7.74316137 32.98384432 7.74316137 32.98384432 4.125 33.0625 C1.51965922 31.75982961 1.16273215 30.59257844 0 28 C-0.74443359 28.41572266 -0.74443359 28.41572266 -1.50390625 28.83984375 C-5.99224487 31.23305656 -9.8156617 32.79262647 -15 33 C-15.66 32.34 -16.32 31.68 -17 31 C-16.78476665 25.40393298 -15.27082508 22.32592994 -12 18 C-12.66 17.34 -13.32 16.68 -14 16 C-13.071875 15.443125 -12.14375 14.88625 -11.1875 14.3125 C-8.0580593 12.04212145 -6.70245949 10.40491897 -5 7 C-5.99 6.34 -6.98 5.68 -8 5 C-6.8553125 4.87625 -6.8553125 4.87625 -5.6875 4.75 C-2.47626739 3.85384206 -1.70625501 2.78388975 0 0 Z " fill="#2A2A2A" transform="translate(271,64)"/>
<path d="M0 0 C2.75913505 1.93139453 4.48017885 3.28487444 6.125 6.1875 C6.125 6.8475 6.125 7.5075 6.125 8.1875 C5.44695312 8.39503906 4.76890625 8.60257813 4.0703125 8.81640625 C-13.51845725 14.63872754 -22.56299435 27.03393525 -31.875 42.1875 C-28.41 41.6925 -28.41 41.6925 -24.875 41.1875 C-28.07836822 44.02124881 -30.65587253 44.7080537 -34.875 45.1875 C-34.545 46.1775 -34.215 47.1675 -33.875 48.1875 C-31.95708586 49.16438852 -31.95708586 49.16438852 -29.5703125 49.79296875 C-28.68174561 50.05480957 -27.79317871 50.31665039 -26.87768555 50.58642578 C-25.92804932 50.84665527 -24.97841309 51.10688477 -24 51.375 C-23.0406958 51.64038574 -22.0813916 51.90577148 -21.09301758 52.17919922 C-12.64480938 54.41648024 -5.34327494 56.11017376 2.8125 52.1875 C3.905625 51.5275 4.99875 50.8675 6.125 50.1875 C6.125 49.5275 6.125 48.8675 6.125 48.1875 C5.485625 47.81625 4.84625 47.445 4.1875 47.0625 C1.47643291 44.59789355 1.24204276 42.75957408 0.953125 39.1875 C1.23231532 35.93873989 2.81931943 34.36508721 5.125 32.1875 C8.86805712 29.69212859 11.71881924 29.39805928 16.125 30.1875 C18.125 32.1875 18.125 32.1875 19.125 34.1875 C21.765 33.8575 24.405 33.5275 27.125 33.1875 C24.06382432 35.81136487 23.39326873 36.1875 19.125 36.1875 C19.0321875 37.5178125 19.0321875 37.5178125 18.9375 38.875 C17.93565479 42.95944586 16.32404189 44.534636 13.125 47.1875 C12.465 47.1875 11.805 47.1875 11.125 47.1875 C11.0425 47.93 10.96 48.6725 10.875 49.4375 C9.95747342 52.80176412 8.86280488 54.05809621 6.125 56.1875 C2.33357732 57.2029419 -1.2748947 57.32187151 -5.1875 57.3125 C-6.33734375 57.31378906 -7.4871875 57.31507812 -8.671875 57.31640625 C-11.30201808 57.21055903 -13.41283682 56.8811658 -15.9375 56.25 C-23.30593802 56.13304067 -29.0773066 60.78056912 -34.50390625 65.44921875 C-38.54202568 69.36759164 -42.01584408 73.33936605 -44.875 78.1875 C-44.33875 77.8575 -43.8025 77.5275 -43.25 77.1875 C-40.24565456 75.92251245 -38.10732558 75.84363558 -34.875 76.1875 C-33.1875 77.5625 -33.1875 77.5625 -31.875 79.1875 C-30.39 80.1775 -30.39 80.1775 -28.875 81.1875 C-31.185 82.1775 -33.495 83.1675 -35.875 84.1875 C-36.205 82.8675 -36.535 81.5475 -36.875 80.1875 C-43.88202067 80.43775074 -47.90765392 82.21103952 -52.875 87.1875 C-55.00577063 89.84664649 -57.05841277 92.5398636 -59.08007812 95.28149414 C-63.48550928 101.18623131 -68.82659968 107.49139059 -75.875 110.1875 C-81.77942385 110.90387326 -87.09426281 111.44449096 -92.0625 107.9375 C-92.660625 107.03 -93.25875 106.1225 -93.875 105.1875 C-94.5246875 104.2284375 -94.5246875 104.2284375 -95.1875 103.25 C-96.10058643 100.5107407 -96.00522431 98.05243481 -95.875 95.1875 C-91.875 99.9375 -91.875 99.9375 -91.875 102.1875 C-88.3636525 103.76002793 -85.47260434 104.52937241 -81.625 104.625 C-80.75359375 104.66496094 -79.8821875 104.70492187 -78.984375 104.74609375 C-70.34830949 103.19463977 -65.02554506 97.77176265 -59.875 91.0625 C-59.27397461 90.30767334 -58.67294922 89.55284668 -58.05371094 88.77514648 C-56.31456498 86.58907829 -54.59351243 84.38979972 -52.875 82.1875 C-44.64747616 71.78368266 -36.39567701 62.03311967 -24.875 55.1875 C-27.87940021 53.18456653 -29.58493945 52.69478374 -33.0625 52.0625 C-33.96355469 51.89492187 -34.86460937 51.72734375 -35.79296875 51.5546875 C-36.48003906 51.43351562 -37.16710937 51.31234375 -37.875 51.1875 C-38.349375 52.0125 -38.82375 52.8375 -39.3125 53.6875 C-44.38642163 61.22691876 -51.41226762 66.14651815 -59.875 69.1875 C-58.225 70.8375 -56.575 72.4875 -54.875 74.1875 C-61.5 73.4375 -61.5 73.4375 -64.875 71.1875 C-64.875 70.5275 -64.875 69.8675 -64.875 69.1875 C-65.76251953 69.05794922 -65.76251953 69.05794922 -66.66796875 68.92578125 C-70.69552326 68.20962555 -73.46377379 67.47021802 -76.875 65.125 C-79.53475007 61.21849208 -79.7637154 57.83110286 -79.875 53.1875 C-75.875 57.1875 -75.875 57.1875 -74.375 58.8125 C-72.67555914 60.37032079 -70.97019778 61.24827341 -68.875 62.1875 C-68.6275 60.970625 -68.38 59.75375 -68.125 58.5 C-66.8255248 53.39234052 -64.77244937 50.41138351 -60.2890625 47.51953125 C-56.51020079 46.04516987 -54.29669335 46.13266058 -50.3527832 46.48486328 C-42.78032153 47.2087083 -42.78032153 47.2087083 -36.16796875 44.1015625 C-34.1253095 41.22491811 -32.48541513 38.32462057 -30.875 35.1875 C-29.75895365 33.48015387 -28.613791 31.79141224 -27.4375 30.125 C-26.86515625 29.31160156 -26.2928125 28.49820313 -25.703125 27.66015625 C-19.31566017 19.02070061 -12.30721205 12.4554125 -2.875 7.1875 C-2.215 7.1875 -1.555 7.1875 -0.875 7.1875 C-4.79341264 2.79697809 -4.79341264 2.79697809 -9.875 0.1875 C-15.0198203 0.27324701 -17.81861718 0.94965365 -22 3.9375 C-24.0078125 5.3125 -24.0078125 5.3125 -25.875 6.1875 C-28.875 4.9375 -28.875 4.9375 -31.875 3.1875 C-35.70395093 3.12893096 -39.24946056 3.97898685 -42.875 5.1875 C-41.875 2.1875 -41.875 2.1875 -39.375 0.5 C-34.20406681 -1.43909995 -29.2625051 -1.84346811 -24.125 0.375 C-23.3825 0.643125 -22.64 0.91125 -21.875 1.1875 C-19.26724959 -0.07711808 -19.26724959 -0.07711808 -16.875 -1.8125 C-11.21807273 -3.66684545 -5.19858937 -2.80348556 0 0 Z " fill="#272727" transform="translate(227.875,48.8125)"/>
<path d="M0 0 C2 2 2 2 3 4 C5.64 3.67 8.28 3.34 11 3 C7.93882432 5.62386487 7.26826873 6 3 6 C2.9071875 7.3303125 2.9071875 7.3303125 2.8125 8.6875 C1.81065479 12.77194586 0.19904189 14.347136 -3 17 C-3.66 17 -4.32 17 -5 17 C-5.0825 17.7425 -5.165 18.485 -5.25 19.25 C-6.16752658 22.61426412 -7.26219512 23.87059621 -10 26 C-13.79142268 27.0154419 -17.3998947 27.13437151 -21.3125 27.125 C-22.46234375 27.12628906 -23.6121875 27.12757812 -24.796875 27.12890625 C-27.42701808 27.02305903 -29.53783682 26.6936658 -32.0625 26.0625 C-39.43093802 25.94554067 -45.2023066 30.59306912 -50.62890625 35.26171875 C-54.66702568 39.18009164 -58.14084408 43.15186605 -61 48 C-60.46375 47.67 -59.9275 47.34 -59.375 47 C-56.37065456 45.73501245 -54.23232558 45.65613558 -51 46 C-49.3125 47.375 -49.3125 47.375 -48 49 C-46.515 49.99 -46.515 49.99 -45 51 C-47.31 51.99 -49.62 52.98 -52 54 C-52.495 52.02 -52.495 52.02 -53 50 C-60.00702067 50.25025074 -64.03265392 52.02353952 -69 57 C-71.13077063 59.65914649 -73.18341277 62.3523636 -75.20507812 65.09399414 C-79.61050928 70.99873131 -84.95159968 77.30389059 -92 80 C-97.90442385 80.71637326 -103.21926281 81.25699096 -108.1875 77.75 C-108.785625 76.8425 -109.38375 75.935 -110 75 C-110.6496875 74.0409375 -110.6496875 74.0409375 -111.3125 73.0625 C-112.22558643 70.3232407 -112.13022431 67.86493481 -112 65 C-108 69.75 -108 69.75 -108 72 C-104.4886525 73.57252793 -101.59760434 74.34187241 -97.75 74.4375 C-96.87859375 74.47746094 -96.0071875 74.51742187 -95.109375 74.55859375 C-86.47330949 73.00713977 -81.15054506 67.58426265 -76 60.875 C-75.39897461 60.12017334 -74.79794922 59.36534668 -74.17871094 58.58764648 C-72.43956498 56.40157829 -70.71851243 54.20229972 -69 52 C-60.94487761 41.81418667 -52.86117843 32.43115419 -41.8359375 25.375 C-41.23007813 24.92125 -40.62421875 24.4675 -40 24 C-40 23.34 -40 22.68 -40 22 C-39.33355469 22.144375 -38.66710937 22.28875 -37.98046875 22.4375 C-27.5946904 24.52918123 -19.320043 25.62719577 -10 20 C-10 19.34 -10 18.68 -10 18 C-10.639375 17.62875 -11.27875 17.2575 -11.9375 16.875 C-14.64856709 14.41039355 -14.88295724 12.57207408 -15.171875 9 C-14.89268468 5.75123989 -13.30568057 4.17758721 -11 2 C-7.25694288 -0.49537141 -4.40618076 -0.78944072 0 0 Z " fill="#292929" transform="translate(244,79)"/>
<path d="M0 0 C0.66 0.33 1.32 0.66 2 1 C2.33 1.99 2.66 2.98 3 4 C4.64821244 5.03013277 6.31503702 6.03114628 8 7 C8.33 7.66 8.66 8.32 9 9 C9.99 9.33 10.98 9.66 12 10 C12.33 9.01 12.66 8.02 13 7 C13.66 7 14.32 7 15 7 C15.0825 8.093125 15.165 9.18625 15.25 10.3125 C15.63689209 14.03276664 15.63689209 14.03276664 18.0625 15.9375 C18.701875 16.288125 19.34125 16.63875 20 17 C18.88601599 20.34195203 18.57482952 20.61626428 15.625 22.1875 C4.23017503 27.31616903 -7.77234071 22.16759412 -19.01977539 18.77783203 C-21 18 -21 18 -23 16 C-22 14 -22 14 -19.71484375 13.1484375 C-18.79832031 12.89320312 -17.88179687 12.63796875 -16.9375 12.375 C-16.01839844 12.11460938 -15.09929687 11.85421875 -14.15234375 11.5859375 C-13.44207031 11.39257812 -12.73179687 11.19921875 -12 11 C-12 10.34 -12 9.68 -12 9 C-6.70588235 5 -6.70588235 5 -3 5 C-2.690625 4.360625 -2.38125 3.72125 -2.0625 3.0625 C-1 1 -1 1 0 0 Z " fill="#DCDCDC" transform="translate(215,80)"/>
<path d="M0 0 C2.60546875 -0.15625 2.60546875 -0.15625 5 0 C4.50628906 0.81984375 4.01257813 1.6396875 3.50390625 2.484375 C2.54291016 4.10085937 2.54291016 4.10085937 1.5625 5.75 C0.92441406 6.81734375 0.28632813 7.8846875 -0.37109375 8.984375 C-1.69473099 11.43484971 -2.53297051 13.28991337 -3 16 C1.98489871 14.82708266 5.33426107 13.75973224 9 10 C10.54231592 7.3842322 11.99815892 4.75361939 13.375 2.046875 C13.91125 1.37140625 14.4475 0.6959375 15 0 C17.6875 -0.296875 17.6875 -0.296875 20 0 C20 0.66 20 1.32 20 2 C20.556875 1.67 21.11375 1.34 21.6875 1 C24.32401158 -0.14011312 26.15554856 -0.2306312 29 0 C30 1 30 1 30.3125 3.6875 C29.92843257 7.75861471 28.3391352 9.71059112 26 13 C26 13.99 26 14.98 26 16 C34.71590331 14.12009929 38.15359001 9.06511165 42.86328125 1.79296875 C43.23839844 1.20128906 43.61351562 0.60960938 44 0 C45.32 0.33 46.64 0.66 48 1 C47.50628906 1.74765625 47.01257813 2.4953125 46.50390625 3.265625 C45.86324219 4.25046875 45.22257812 5.2353125 44.5625 6.25 C43.92441406 7.22453125 43.28632813 8.1990625 42.62890625 9.203125 C41.2423864 11.58381615 40.453419 13.31780307 40 16 C44.61513112 14.68139111 48.09897612 12.78644563 52 10 C50.43187242 14.23394447 47.65398002 16.47032152 44 19 C40.8125 19.5 40.8125 19.5 38 19 C36.125 17.5 36.125 17.5 35 16 C34.13375 16.495 33.2675 16.99 32.375 17.5 C28.85968503 19.06236221 26.79060983 19.43075112 23 19 C22.34 18.34 21.68 17.68 21 17 C21.22870332 11.96852694 23.1503113 9.04471944 26 5 C26 4.34 26 3.68 26 3 C19.17923702 5.17024277 16.04134955 6.35469113 12.25 12.625 C11.32960938 14.12933594 11.32960938 14.12933594 10.390625 15.6640625 C9.93171875 16.43492187 9.4728125 17.20578125 9 18 C8.21496094 17.81566406 7.42992187 17.63132813 6.62109375 17.44140625 C3.48705918 16.91361801 2.74518288 17.58581488 0 19 C-3.25 19.125 -3.25 19.125 -6 19 C-6.66 17.35 -7.32 15.7 -8 14 C-10.25968391 15.08799596 -12.29924665 16.20474771 -14.375 17.625 C-17.51306092 19.2687462 -19.50297795 19.38855801 -23 19 C-25 17 -25 17 -25.4375 14.75 C-24.81436661 10.83316154 -22.59656828 8.91322294 -20 6 C-19.67 5.01 -19.34 4.02 -19 3 C-20.98 3.33 -22.96 3.66 -25 4 C-23.875 2.5 -23.875 2.5 -22 1 C-18.8125 0.8125 -18.8125 0.8125 -16 1 C-15.1875 3.125 -15.1875 3.125 -15 6 C-16.62126675 8.03697617 -18.28859531 10.03814584 -20 12 C-20 13.32 -20 14.64 -20 16 C-12.6112266 13.88892189 -5.63152833 9.26119142 -1.6875 2.5 C-1.130625 1.675 -0.57375 0.85 0 0 Z " fill="#282828" transform="translate(327,123)"/>
<path d="M0 0 C5.44390399 3.70604233 9.40750703 7.95084973 12 14 C12.5625 17.625 12.5625 17.625 12 21 C9.5625 23.875 9.5625 23.875 7 26 C6.67 26.33 6.34 26.66 6 27 C-0.60372981 27.91085928 -0.60372981 27.91085928 -3.91015625 25.75390625 C-9.20734831 20.71284216 -13.88010673 14.65674472 -14.125 7.1875 C-11.75160552 0.46288229 -6.58882621 -1.9522448 0 0 Z " fill="#E3E3E3" transform="translate(344,429)"/>
<path d="M0 0 C0.721875 0.103125 1.44375 0.20625 2.1875 0.3125 C1.8575 1.3025 1.5275 2.2925 1.1875 3.3125 C3.4975 2.6525 5.8075 1.9925 8.1875 1.3125 C10.1875 3.3125 10.1875 3.3125 10.1875 7.3125 C10.61160156 6.89097656 11.03570312 6.46945313 11.47265625 6.03515625 C14.53933132 3.17067953 16.7675505 1.45006967 20.8125 0.125 C24.1875 0.3125 24.1875 0.3125 27.125 2.75 C28.1459375 4.0184375 28.1459375 4.0184375 29.1875 5.3125 C30.5075 3.6625 31.8275 2.0125 33.1875 0.3125 C34.5075 0.6425 35.8275 0.9725 37.1875 1.3125 C36.69378906 2.06015625 36.20007813 2.8078125 35.69140625 3.578125 C35.05074219 4.56296875 34.41007812 5.5478125 33.75 6.5625 C32.79287109 8.02429688 32.79287109 8.02429688 31.81640625 9.515625 C30.4298864 11.89631615 29.640919 13.63030307 29.1875 16.3125 C30.115625 16.003125 31.04375 15.69375 32 15.375 C34.0625 14.6875 36.125 14 38.1875 13.3125 C38.1875 13.9725 38.1875 14.6325 38.1875 15.3125 C34.0965934 18.62418629 31.45121362 19.81380606 26.1875 19.3125 C25.6925 17.8275 25.6925 17.8275 25.1875 16.3125 C24.59582031 16.56386719 24.00414062 16.81523437 23.39453125 17.07421875 C16.995597 19.54819496 16.995597 19.54819496 13.1875 18.4375 C10.4705401 15.55073011 10.40713003 13.19263061 10.1875 9.3125 C8.8675 9.3125 7.5475 9.3125 6.1875 9.3125 C5.8575 8.3225 5.5275 7.3325 5.1875 6.3125 C2.19536226 6.12930789 0.84564584 6.05065645 -1.8125 7.3125 C-3.87974397 10.07454381 -5.51285518 12.89908429 -7.13671875 15.94140625 C-7.68972656 16.72386719 -8.24273437 17.50632813 -8.8125 18.3125 C-10.1325 18.3125 -11.4525 18.3125 -12.8125 18.3125 C-11.79589559 15.57548813 -10.72853244 13.17686009 -9.1875 10.6875 C-7.56198186 8.33717224 -7.56198186 8.33717224 -7.8125 5.3125 C-3.83522727 0.42613636 -3.83522727 0.42613636 0 0 Z " fill="#292929" transform="translate(206.8125,122.6875)"/>
<path d="M0 0 C3.26024752 -0.83240362 5.76173972 -0.99189954 9 0 C12.56572812 3.66209915 15.28356119 7.68452274 18 12 C19.13199353 11.0919838 20.25532363 10.17316174 21.375 9.25 C22.00148437 8.73953125 22.62796875 8.2290625 23.2734375 7.703125 C25.10439585 5.89702129 26.04390541 4.37575018 27 2 C27 1.34 27 0.68 27 0 C29.97 0 32.94 0 36 0 C35.67 0.99 35.34 1.98 35 3 C34.90685549 4.66465065 34.86930792 6.33274681 34.8671875 8 C34.86589844 8.969375 34.86460937 9.93875 34.86328125 10.9375 C34.86908203 12.4534375 34.86908203 12.4534375 34.875 14 C34.87113281 15.010625 34.86726563 16.02125 34.86328125 17.0625 C34.86457031 18.031875 34.86585938 19.00125 34.8671875 20 C34.86887939 21.3303125 34.86887939 21.3303125 34.87060547 22.6875 C34.9073744 25.16001285 34.9073744 25.16001285 36 28 C33.03 28 30.06 28 27 28 C27 21.4 27 14.8 27 8 C21.02288485 13.51893921 21.02288485 13.51893921 20 20 C19.01 20.66 18.02 21.32 17 22 C14.03 18.37 11.06 14.74 8 11 C8 16.61 8 22.22 8 28 C6.02 28 4.04 28 2 28 C2 19.75 2 11.5 2 3 C1.34 2.67 0.68 2.34 0 2 C0 1.34 0 0.68 0 0 Z " fill="#272727" transform="translate(155,430)"/>
<path d="M0 0 C0.76441406 -0.01675781 1.52882813 -0.03351563 2.31640625 -0.05078125 C4.97915104 0.40526896 5.86606975 1.13860448 7.4375 3.3125 C7.4375 7.63668553 6.90413266 9.72920918 4.1875 13.125 C-0.15161502 16.57656877 -3.67426559 17.58353385 -9.1875 17.5 C-10.12851562 17.49355469 -11.06953125 17.48710938 -12.0390625 17.48046875 C-14.5625 17.3125 -14.5625 17.3125 -17.5625 16.3125 C-18.88456963 18.36938738 -20.19511099 20.4322528 -21.5 22.5 C-21.87318359 23.07814453 -22.24636719 23.65628906 -22.63085938 24.25195312 C-24.74404923 27.62163424 -25.9331159 30.40332542 -26.5625 34.3125 C-27.87137458 35.66985142 -29.21102862 36.99755488 -30.5625 38.3125 C-32.0927189 40.675519 -33.56309119 43.06349603 -35 45.484375 C-35.515625 46.08765625 -36.03125 46.6909375 -36.5625 47.3125 C-37.8825 47.3125 -39.2025 47.3125 -40.5625 47.3125 C-39.66947954 43.02600182 -38.58573161 40.07081942 -35.875 36.61328125 C-32.55465339 32.30432016 -29.35109855 27.92513229 -26.1875 23.5 C-25.64222656 22.75041016 -25.09695313 22.00082031 -24.53515625 21.22851562 C-24.02082031 20.50728516 -23.50648438 19.78605469 -22.9765625 19.04296875 C-22.5120166 18.39739014 -22.0474707 17.75181152 -21.56884766 17.08666992 C-20.31581102 15.21754405 -20.31581102 15.21754405 -20.5625 12.3125 C-20.5625 11.3225 -20.5625 10.3325 -20.5625 9.3125 C-19.5725 9.9725 -18.5825 10.6325 -17.5625 11.3125 C-16.95921875 10.68601562 -16.3559375 10.05953125 -15.734375 9.4140625 C-14.93515625 8.59679687 -14.1359375 7.77953125 -13.3125 6.9375 C-12.52359375 6.12539062 -11.7346875 5.31328125 -10.921875 4.4765625 C-7.3748965 1.22320805 -4.81185543 0.02442566 0 0 Z " fill="#2B2B2B" transform="translate(329.5625,93.6875)"/>
<path d="M0 0 C4.35699098 2.46622131 7.04335342 5.33670683 9.3125 9.875 C10.0783502 16.74254198 9.41615011 21.28947624 5.3125 26.875 C1.68075476 30.2724391 -2.08561705 31.69365476 -7 32.25 C-12.61212893 31.67927502 -16.72162101 29.47874339 -21.0625 25.9375 C-24.58482913 21.46685149 -25.18176348 17.50960364 -24.6875 11.875 C-22.80159369 6.43915241 -19.3195232 3.10688892 -14.6875 -0.125 C-9.48953613 -1.85765462 -5.1467454 -1.57019351 0 0 Z M-18.6875 4.875 C-20.53934634 7.29045175 -20.6875 8.51645897 -20.6875 11.5625 C-18.72794385 18.05352975 -14.14185251 24.84916839 -8.6875 28.875 C-5.88078036 29.51653592 -3.49518926 29.50460305 -0.6875 28.875 C2.1225346 27.08136089 3.82190468 25.85619065 5.3125 22.875 C6.16892072 16.88005496 4.43830555 13.6583851 1.0234375 8.9609375 C-2.11238158 5.13781561 -4.9167749 2.50213181 -9.6875 0.8125 C-13.77101659 0.89757326 -15.59695079 2.27612907 -18.6875 4.875 Z " fill="#232323" transform="translate(350.6875,427.125)"/>
<path d="M0 0 C7.24561404 -0.61403509 7.24561404 -0.61403509 10.6875 2.1875 C11.450625 3.115625 12.21375 4.04375 13 5 C17.13404814 9.24577917 21.51270313 13.1362481 26 17 C26.02699725 14.72923158 26.04639453 12.45837179 26.0625 10.1875 C26.07410156 8.92292969 26.08570313 7.65835937 26.09765625 6.35546875 C26.16159116 3.00394763 26.16159116 3.00394763 25 0 C27.31 0 29.62 0 32 0 C32 0.66 32 1.32 32 2 C31.34 2 30.68 2 30 2 C30 10.91 30 19.82 30 29 C26.2345098 27.1172549 24.35356586 25.58807351 21.453125 22.6484375 C20.60878906 21.79765625 19.76445312 20.946875 18.89453125 20.0703125 C18.02183594 19.18085938 17.14914062 18.29140625 16.25 17.375 C15.36183594 16.4778125 14.47367187 15.580625 13.55859375 14.65625 C11.36783031 12.44192996 9.18187237 10.22307565 7 8 C6.97303991 10.7708983 6.95318048 13.5415345 6.9375 16.3125 C6.92912109 17.09818359 6.92074219 17.88386719 6.91210938 18.69335938 C6.90888672 19.45068359 6.90566406 20.20800781 6.90234375 20.98828125 C6.89710693 21.68477783 6.89187012 22.38127441 6.88647461 23.09887695 C6.93104009 25.22497968 6.93104009 25.22497968 8 28 C5.69 28 3.38 28 1 28 C1.33 27.01 1.66 26.02 2 25 C2.08178114 23.29983156 2.10749501 21.59663703 2.09765625 19.89453125 C2.09443359 18.91162109 2.09121094 17.92871094 2.08789062 16.91601562 C2.07951172 15.89185547 2.07113281 14.86769531 2.0625 13.8125 C2.05798828 12.77673828 2.05347656 11.74097656 2.04882812 10.67382812 C2.0370401 8.11582734 2.02058515 5.55794267 2 3 C1.34 2.67 0.68 2.34 0 2 C0 1.34 0 0.68 0 0 Z " fill="#212121" transform="translate(291,430)"/>
<path d="M0 0 C4.27858015 5.18148555 7.65095904 10.76246019 11.125 16.5 C11.75792969 17.53253906 12.39085937 18.56507813 13.04296875 19.62890625 C13.65011719 20.62792969 14.25726563 21.62695312 14.8828125 22.65625 C15.43340332 23.56181641 15.98399414 24.46738281 16.55126953 25.40039062 C18 28 18 28 20 33 C16.37 33 12.74 33 9 33 C9.33 31.35 9.66 29.7 10 28 C9.20599526 25.120849 9.20599526 25.120849 7 23 C4.24679275 22.45537649 2.0685919 22.21066044 -0.6875 22.1875 C-1.7403418 22.14979492 -1.7403418 22.14979492 -2.81445312 22.11132812 C-4.54236781 22.05255552 -6.2712443 22.0233903 -8 22 C-10.52422051 27.37752199 -10.52422051 27.37752199 -10 33 C-12.31 33 -14.62 33 -17 33 C-17 32.34 -17 31.68 -17 31 C-16.34 31 -15.68 31 -15 31 C-14.77441406 30.33226562 -14.54882812 29.66453125 -14.31640625 28.9765625 C-12.6113857 25.12129348 -10.32669462 21.83544596 -7.9375 18.375 C-7.02675382 17.05167175 -6.11906999 15.72622934 -5.21484375 14.3984375 C-4.61337524 13.52711182 -4.61337524 13.52711182 -3.99975586 12.63818359 C-2.15191935 9.61034892 -2 7.57458115 -2 4 C-1 1.75 -1 1.75 0 0 Z " fill="#1F1F1F" transform="translate(265,425)"/>
<path d="M0 0 C1.32 0.33 2.64 0.66 4 1 C3.01 2.485 3.01 2.485 2 4 C2.99 4.66 3.98 5.32 5 6 C4.23848633 6.08016357 3.47697266 6.16032715 2.69238281 6.24291992 C-0.66650805 7.18741761 -1.27752921 8.18253083 -3.078125 11.11328125 C-3.59890625 11.94923828 -4.1196875 12.78519531 -4.65625 13.64648438 C-5.1821875 14.52626953 -5.708125 15.40605469 -6.25 16.3125 C-6.79140625 17.18068359 -7.3328125 18.04886719 -7.890625 18.94335938 C-11.1455141 24.17588263 -11.1455141 24.17588263 -13 30 C-7.94537315 28.44727149 -3.48909157 26.85669464 1 24 C1.66 24 2.32 24 3 24 C3.24492187 23.30519531 3.48984375 22.61039063 3.7421875 21.89453125 C5.20250025 18.53399786 7.06281778 15.71425133 9.125 12.6875 C9.84945313 11.61886719 10.57390625 10.55023438 11.3203125 9.44921875 C11.87460937 8.64097656 12.42890625 7.83273438 13 7 C12.01 6.34 11.02 5.68 10 5 C11.1446875 4.87625 11.1446875 4.87625 12.3125 4.75 C15.52373261 3.85384206 16.29374499 2.78388975 18 0 C19.32 0.33 20.64 0.66 22 1 C21.34 1.99 20.68 2.98 20 4 C20.99 4.66 21.98 5.32 23 6 C22.23848633 6.08016357 21.47697266 6.16032715 20.69238281 6.24291992 C17.33349195 7.18741761 16.72247079 8.18253083 14.921875 11.11328125 C14.40109375 11.94923828 13.8803125 12.78519531 13.34375 13.64648438 C12.8178125 14.52626953 12.291875 15.40605469 11.75 16.3125 C11.20859375 17.18068359 10.6671875 18.04886719 10.109375 18.94335938 C6.8544859 24.17588263 6.8544859 24.17588263 5 30 C6.32 30 7.64 30 9 30 C9 30.66 9 31.32 9 32 C6.1875 32.6875 6.1875 32.6875 3 33 C1.125 31.6875 1.125 31.6875 0 30 C0 29.34 0 28.68 0 28 C-0.74443359 28.41572266 -0.74443359 28.41572266 -1.50390625 28.83984375 C-5.99224487 31.23305656 -9.8156617 32.79262647 -15 33 C-15.66 32.34 -16.32 31.68 -17 31 C-16.78476665 25.40393298 -15.27082508 22.32592994 -12 18 C-12.66 17.34 -13.32 16.68 -14 16 C-13.071875 15.443125 -12.14375 14.88625 -11.1875 14.3125 C-8.0580593 12.04212145 -6.70245949 10.40491897 -5 7 C-5.99 6.34 -6.98 5.68 -8 5 C-6.8553125 4.87625 -6.8553125 4.87625 -5.6875 4.75 C-2.47626739 3.85384206 -1.70625501 2.78388975 0 0 Z " fill="#272727" transform="translate(271,64)"/>
<path d="M0 0 C2 2 2 2 3 4 C5.64 3.67 8.28 3.34 11 3 C7.93882432 5.62386487 7.26826873 6 3 6 C2.9071875 7.3303125 2.9071875 7.3303125 2.8125 8.6875 C1.81065479 12.77194586 0.19904189 14.347136 -3 17 C-3.66 17 -4.32 17 -5 17 C-5.0825 17.7425 -5.165 18.485 -5.25 19.25 C-6.16752658 22.61426412 -7.26219512 23.87059621 -10 26 C-13.95528504 27.08125076 -17.72867338 27.10375077 -21.8125 27.0625 C-22.97394531 27.05347656 -24.13539063 27.04445313 -25.33203125 27.03515625 C-26.21246094 27.02355469 -27.09289062 27.01195313 -28 27 C-28.33 26.34 -28.66 25.68 -29 25 C-28.29875 24.97421875 -27.5975 24.9484375 -26.875 24.921875 C-20.24166173 24.52531673 -15.73793875 23.35615286 -10 20 C-10 19.34 -10 18.68 -10 18 C-10.639375 17.62875 -11.27875 17.2575 -11.9375 16.875 C-14.64856709 14.41039355 -14.88295724 12.57207408 -15.171875 9 C-14.89268468 5.75123989 -13.30568057 4.17758721 -11 2 C-7.25694288 -0.49537141 -4.40618076 -0.78944072 0 0 Z " fill="#272727" transform="translate(244,79)"/>
<path d="M0 0 C2.75913505 1.93139453 4.48017885 3.28487444 6.125 6.1875 C6.125 6.8475 6.125 7.5075 6.125 8.1875 C5.44695312 8.39503906 4.76890625 8.60257813 4.0703125 8.81640625 C-7.55746568 12.66549072 -15.11994088 18.85481856 -22.875 28.1875 C-23.535 28.8475 -24.195 29.5075 -24.875 30.1875 C-24.875 25.32073484 -23.21637819 23.72154188 -20.0625 20.375 C-19.57273682 19.84745117 -19.08297363 19.31990234 -18.57836914 18.77636719 C-13.96858956 13.98213763 -8.8396311 10.17507537 -2.875 7.1875 C-2.215 7.1875 -1.555 7.1875 -0.875 7.1875 C-4.79341264 2.79697809 -4.79341264 2.79697809 -9.875 0.1875 C-15.0198203 0.27324701 -17.81861718 0.94965365 -22 3.9375 C-24.0078125 5.3125 -24.0078125 5.3125 -25.875 6.1875 C-28.875 4.9375 -28.875 4.9375 -31.875 3.1875 C-35.70395093 3.12893096 -39.24946056 3.97898685 -42.875 5.1875 C-41.875 2.1875 -41.875 2.1875 -39.375 0.5 C-34.20406681 -1.43909995 -29.2625051 -1.84346811 -24.125 0.375 C-23.3825 0.643125 -22.64 0.91125 -21.875 1.1875 C-19.26724959 -0.07711808 -19.26724959 -0.07711808 -16.875 -1.8125 C-11.21807273 -3.66684545 -5.19858937 -2.80348556 0 0 Z " fill="#2C2C2C" transform="translate(227.875,48.8125)"/>
<path d="M0 0 C2.97 0 5.94 0 9 0 C8.67 0.99 8.34 1.98 8 3 C7.91821886 4.70016844 7.89250499 6.40336297 7.90234375 8.10546875 C7.90556641 9.08837891 7.90878906 10.07128906 7.91210938 11.08398438 C7.92048828 12.10814453 7.92886719 13.13230469 7.9375 14.1875 C7.94201172 15.22326172 7.94652344 16.25902344 7.95117188 17.32617188 C7.9629599 19.88417266 7.97941485 22.44205733 8 25 C15.98132315 25.66645639 15.98132315 25.66645639 23.25 23 C24.11625 22.01 24.11625 22.01 25 21 C25.66 21.33 26.32 21.66 27 22 C26.01 23.98 25.02 25.96 24 28 C16.08 28 8.16 28 0 28 C0 18.76 0 9.52 0 0 Z " fill="#1D1D1D" transform="translate(216,430)"/>
<path d="M0 0 C2 2 2 2 2 5.3125 C0.67618428 10.19407047 -0.8760955 11.19574494 -5 14 C-9.52741172 15.50913724 -14.06426798 15.77429281 -18.5 14 C-18.995 13.67 -19.49 13.34 -20 13 C-15.96674909 4.68142 -9.15255306 -0.49031534 0 0 Z " fill="#E2E2E2" transform="translate(333,95)"/>
<path d="M0 0 C0.721875 0.103125 1.44375 0.20625 2.1875 0.3125 C1.8575 1.3025 1.5275 2.2925 1.1875 3.3125 C3.4975 2.6525 5.8075 1.9925 8.1875 1.3125 C10.1875 3.3125 10.1875 3.3125 10.1875 7.3125 C10.63480469 6.89097656 11.08210938 6.46945313 11.54296875 6.03515625 C17.5477812 0.59369508 17.5477812 0.59369508 22.1875 0.3125 C21.1056242 2.83687686 20.21314829 4.2899606 18.125 6.125 C15.53490822 9.04929717 15.48135997 11.49232042 15.1875 15.3125 C17.4975 15.3125 19.8075 15.3125 22.1875 15.3125 C22.6825 16.3025 22.6825 16.3025 23.1875 17.3125 C17.05754271 19.59620958 17.05754271 19.59620958 13.3125 18.375 C10.40985016 15.55772221 10.41088921 13.25904264 10.1875 9.3125 C8.8675 9.3125 7.5475 9.3125 6.1875 9.3125 C5.8575 8.3225 5.5275 7.3325 5.1875 6.3125 C2.19536226 6.12930789 0.84564584 6.05065645 -1.8125 7.3125 C-3.87974397 10.07454381 -5.51285518 12.89908429 -7.13671875 15.94140625 C-7.68972656 16.72386719 -8.24273437 17.50632813 -8.8125 18.3125 C-10.1325 18.3125 -11.4525 18.3125 -12.8125 18.3125 C-11.79589559 15.57548813 -10.72853244 13.17686009 -9.1875 10.6875 C-7.56198186 8.33717224 -7.56198186 8.33717224 -7.8125 5.3125 C-3.83522727 0.42613636 -3.83522727 0.42613636 0 0 Z " fill="#282828" transform="translate(206.8125,122.6875)"/>
<path d="M0 0 C2.97 0 5.94 0 9 0 C8.67 0.99 8.34 1.98 8 3 C7.90685549 4.66465065 7.86930792 6.33274681 7.8671875 8 C7.86589844 8.969375 7.86460937 9.93875 7.86328125 10.9375 C7.86714844 11.948125 7.87101563 12.95875 7.875 14 C7.87113281 15.010625 7.86726562 16.02125 7.86328125 17.0625 C7.86457031 18.031875 7.86585938 19.00125 7.8671875 20 C7.86831543 20.886875 7.86944336 21.77375 7.87060547 22.6875 C7.9073744 25.16001285 7.9073744 25.16001285 9 28 C6.03 28 3.06 28 0 28 C0 21.4 0 14.8 0 8 C-0.99 8 -1.98 8 -3 8 C-2.505 7.4225 -2.01 6.845 -1.5 6.25 C0.36980013 3.89599371 0.36980013 3.89599371 0 0 Z " fill="#1F1F1F" transform="translate(182,430)"/>
<path d="M0 0 C0.98484375 0.10183594 1.9696875 0.20367187 2.984375 0.30859375 C3.73203125 0.39238281 4.4796875 0.47617188 5.25 0.5625 C1.86849197 6.90010053 -3.57342471 11.16211887 -10.40625 13.453125 C-12.50211687 13.91739931 -14.62559203 14.2541182 -16.75 14.5625 C-17.71733064 11.48824371 -17.81567122 10.73762324 -16.625 7.5625 C-14.37352163 3.96013461 -12.03733427 1.36629209 -7.94921875 -0.0703125 C-5.19317431 -0.53046912 -2.77521086 -0.29734402 0 0 Z " fill="#DEDEDE" transform="translate(181.75,97.4375)"/>
<path d="M0 0 C2.97 0 5.94 0 9 0 C8.67 0.99 8.34 1.98 8 3 C7.90685549 4.66465065 7.86930792 6.33274681 7.8671875 8 C7.86589844 8.969375 7.86460937 9.93875 7.86328125 10.9375 C7.86714844 11.948125 7.87101563 12.95875 7.875 14 C7.87113281 15.010625 7.86726562 16.02125 7.86328125 17.0625 C7.86521484 18.5165625 7.86521484 18.5165625 7.8671875 20 C7.86831543 20.886875 7.86944336 21.77375 7.87060547 22.6875 C7.9073744 25.16001285 7.9073744 25.16001285 9 28 C6.03 28 3.06 28 0 28 C0.495 26.515 0.495 26.515 1 25 C1.09314451 23.33534935 1.13069208 21.66725319 1.1328125 20 C1.13410156 19.030625 1.13539063 18.06125 1.13671875 17.0625 C1.13285156 16.051875 1.12898437 15.04125 1.125 14 C1.12886719 12.989375 1.13273438 11.97875 1.13671875 10.9375 C1.13542969 9.968125 1.13414062 8.99875 1.1328125 8 C1.13168457 7.113125 1.13055664 6.22625 1.12939453 5.3125 C1.0926256 2.83998715 1.0926256 2.83998715 0 0 Z " fill="#1D1D1D" transform="translate(199,430)"/>
<path d="M0 0 C0.33 1.65 0.66 3.3 1 5 C-0.98 5.99 -0.98 5.99 -3 7 C-3 6.01 -3 5.02 -3 4 C-2.34 4 -1.68 4 -1 4 C-1 3.01 -1 2.02 -1 1 C-4.51502859 1.85922921 -6.52473142 2.4296777 -8.875 5.25 C-10.1495468 8.36555885 -10.23270058 10.66462503 -10 14 C-4.67676244 13.54887817 -1.54102908 12.93831293 3 10 C3.66 10.33 4.32 10.66 5 11 C-4.76986161 18.24431915 -4.76986161 18.24431915 -11 18 C-13.4375 16.4375 -13.4375 16.4375 -15 14 C-15.25 10.75 -15.25 10.75 -15 8 C-16.98 8.99 -16.98 8.99 -19 10 C-17.35476415 8.30637486 -15.68906824 6.64895844 -14 5 C-13.071875 4.071875 -12.14375 3.14375 -11.1875 2.1875 C-7.02240102 -0.67090126 -4.939647 -0.42583164 0 0 Z " fill="#272727" transform="translate(286,124)"/>
<path d="M0 0 C2 2 2 2 2.4375 5.375 C2 9 2 9 -0.1875 11.5 C-3 13 -3 13 -5.6875 12.875 C-8 12 -8 12 -10 10 C-9.84639615 6.46711146 -9.3583001 4.48626442 -7.25 1.625 C-4.55558272 -0.32096804 -3.25413393 -0.51381062 0 0 Z " fill="#E2E2E2" transform="translate(243,80)"/>
<path d="M0 0 C2.25 0.8125 2.25 0.8125 3.25 1.8125 C3.03416858 5.62552182 2.75025049 8.11572253 0.5 11.25 C-2.19521765 13.12167892 -3.53379011 13.32032261 -6.75 12.8125 C-7.41 12.1525 -8.07 11.4925 -8.75 10.8125 C-8.67181771 6.59065619 -8.3566678 4.48657533 -5.5 1.3125 C-2.75 -0.1875 -2.75 -0.1875 0 0 Z " fill="#E2E2E2" transform="translate(297.75,81.1875)"/>
<path d="M0 0 C1 1 1 1 1.4375 4.25 C0.92860388 8.61196671 0.92860388 8.61196671 -1.6875 11 C-5 13 -5 13 -7.875 12.8125 C-8.57625 12.544375 -9.2775 12.27625 -10 12 C-10.75 9.875 -10.75 9.875 -11 7 C-7.92657308 1.48902759 -6.29648688 -0.32289676 0 0 Z " fill="#E1E1E1" transform="translate(232,126)"/>
<path d="M0 0 C0.66 0.33 1.32 0.66 2 1 C1.34 2.32 0.68 3.64 0 5 C0.7425 5.2475 1.485 5.495 2.25 5.75 C5.20124062 7.09147301 6.84814974 8.60905526 9 11 C5.55384615 15.8 5.55384615 15.8 2.75 16.8125 C2.1725 16.874375 1.595 16.93625 1 17 C1.66 15.68 2.32 14.36 3 13 C2.01 12.21625 1.02 11.4325 0 10.625 C-0.99 9.75875 -1.98 8.8925 -3 8 C-3 7.34 -3 6.68 -3 6 C-3.99 5.67 -4.98 5.34 -6 5 C-4.02 3.35 -2.04 1.7 0 0 Z " fill="#292929" transform="translate(258,124)"/>
<path d="M0 0 C0.66 0.33 1.32 0.66 2 1 C2.33 1.99 2.66 2.98 3 4 C4.66279327 5.0064275 6.32983484 6.00585407 8 7 C9.8125 9.1875 9.8125 9.1875 11 11 C6.60546875 15.00390625 6.60546875 15.00390625 5 16 C4.01 15.67 3.02 15.34 2 15 C2.66 14.67 3.32 14.34 4 14 C4 13.01 4 12.02 4 11 C3.030625 10.360625 2.06125 9.72125 1.0625 9.0625 C-2 7 -2 7 -3.0625 4.9375 C-3 3 -3 3 -1.5625 1.25 C-1.046875 0.8375 -0.53125 0.425 0 0 Z " fill="#282828" transform="translate(215,80)"/>
<path d="M0 0 C3.33557632 2.9905167 5.15083921 5.93184627 7 10 C3.04 10 -0.92 10 -5 10 C-3.51799926 6.29499816 -2.091496 3.32738 0 0 Z " fill="#D2D2D2" transform="translate(264,436)"/>
<path d="M0 0 C0.33 1.32 0.66 2.64 1 4 C0.01 4.33 -0.98 4.66 -2 5 C-3.18391223 7.37625345 -3.18391223 7.37625345 -4 10 C-4.33 10.99 -4.66 11.98 -5 13 C-4.67 13.99 -4.34 14.98 -4 16 C-6.31 16 -8.62 16 -11 16 C-11 15.34 -11 14.68 -11 14 C-10.34 14 -9.68 14 -9 14 C-8.6596875 13.01 -8.6596875 13.01 -8.3125 12 C-3.92 1.96 -3.92 1.96 0 0 Z " fill="#2D2D2D" transform="translate(259,442)"/>
<path d="M0 0 C-0.36307379 2.68674602 -0.66904228 4.55872304 -2.3125 6.75 C-4.19904732 8.14744246 -5.70199304 8.6037919 -8 9 C-6.68994234 5.06982701 -4.75047804 0 0 0 Z " fill="#DFDFDF" transform="translate(316,86)"/>
<path d="M0 0 C0.66 0.33 1.32 0.66 2 1 C1.01 2.98 0.02 4.96 -1 7 C-2.32 7 -3.64 7 -5 7 C-5 6.01 -5 5.02 -5 4 C-2.5 1.8125 -2.5 1.8125 0 0 Z " fill="#262626" transform="translate(241,451)"/>
<path d="M0 0 C2 3.75 2 3.75 2 6 C-0.31 6 -2.62 6 -5 6 C-5 5.34 -5 4.68 -5 4 C-4.34 4 -3.68 4 -3 4 C-3 3.34 -3 2.68 -3 2 C-2.01 1.34 -1.02 0.68 0 0 Z " fill="#202020" transform="translate(253,452)"/>
<path d="M0 0 C0.99 0 1.98 0 3 0 C3 1.65 3 3.3 3 5 C4.65 5 6.3 5 8 5 C8 5.33 8 5.66 8 6 C2.375 6.25 2.375 6.25 -1 4 C-0.67 2.68 -0.34 1.36 0 0 Z " fill="#2B2B2B" transform="translate(251,136)"/>
<path d="M0 0 C0 3 0 3 -1.5 4.6875 C-1.995 5.120625 -2.49 5.55375 -3 6 C-3.99 5.67 -4.98 5.34 -6 5 C-4.02 3.35 -2.04 1.7 0 0 Z " fill="#212121" transform="translate(196,109)"/>
<path d="M0 0 C0.99 0.33 1.98 0.66 3 1 C2.67 2.32 2.34 3.64 2 5 C3.65 5 5.3 5 7 5 C7 5.33 7 5.66 7 6 C4.125 6.125 4.125 6.125 1 6 C0.34 5.34 -0.32 4.68 -1 4 C-0.625 1.875 -0.625 1.875 0 0 Z " fill="#2C2C2C" transform="translate(210,91)"/>
<path d="M0 0 C0.33 0.66 0.66 1.32 1 2 C-2.625 6.875 -2.625 6.875 -6 8 C-6 5 -6 5 -4.6875 3.61328125 C-3.125 2.40885417 -1.5625 1.20442708 0 0 Z " fill="#2D2D2D" transform="translate(357,449)"/>
<path d="M0 0 C2.64 0 5.28 0 8 0 C8 1.32 8 2.64 8 4 C7.01 4 6.02 4 5 4 C5 3.01 5 2.02 5 1 C3.35 1 1.7 1 0 1 C0 0.67 0 0.34 0 0 Z " fill="#363636" transform="translate(217,79)"/>
</svg>
