<?xml version="1.0" encoding="UTF-8"?>
<svg version="1.1" xmlns="http://www.w3.org/2000/svg" width="512" height="512">
<path d="M0 0 C1.36880015 -0.003234 2.7376 -0.00659943 4.10639954 -0.01008606 C6.95936885 -0.01601591 9.81230818 -0.01793275 12.6652832 -0.01733398 C15.52407245 -0.01725339 18.38269918 -0.02410015 21.24145508 -0.0378418 C94.56898678 -0.38464577 94.56898678 -0.38464577 111.05078125 12.85546875 C113.62148618 15.49758215 114.2311254 16.32265367 114.53125 19.96484375 C113.30279629 37.03826814 89.98999567 58.90597613 80.03076172 71.90332031 C77.87297383 74.72799438 75.73976253 77.56965438 73.61328125 80.41796875 C70.18512699 85.0039336 66.71865116 89.55911484 63.23828125 94.10546875 C62.69405518 94.81678955 62.1498291 95.52811035 61.58911133 96.26098633 C59.18246767 99.40584726 56.77505862 102.55010502 54.36376953 105.69140625 C45.13971915 117.71041834 36.0878575 129.8257948 27.30078125 142.16796875 C26.76936523 142.91095215 26.23794922 143.65393555 25.69042969 144.41943359 C19.65334695 152.86222996 13.75446489 161.33300125 8.30078125 170.16796875 C7.33783169 171.70219471 6.37422548 173.23600862 5.41015625 174.76953125 C-13.31017008 201.7136879 -13.31017008 201.7136879 -23.69921875 232.16796875 C-22.35265941 236.02810551 -21.04025804 236.99423176 -17.38671875 238.85546875 C-6.80399981 242.27561055 4.53276321 242.46076036 15.54663086 242.41088867 C16.91084382 242.4119657 18.27505632 242.41391056 19.63926697 242.41664124 C23.31094433 242.42144096 26.98249783 242.41388283 30.65416026 242.40368819 C34.56123206 242.39476468 38.46830155 242.39666826 42.37538147 242.39704895 C48.96796671 242.39611468 55.56050574 242.38748467 62.15307617 242.3737793 C68.81747354 242.35997033 75.48182838 242.35276128 82.14624023 242.35327148 C103.19008623 242.35448552 124.23312071 242.31146243 145.2765913 242.18036556 C147.23909045 242.16834657 149.20159554 242.15731176 151.16410065 242.1463089 C157.90040033 242.10659382 164.63576998 242.04635476 171.37146187 241.94661903 C173.27479231 241.92042411 175.17821541 241.90006487 177.08167839 241.88658714 C186.43788807 241.81335342 195.57649442 241.26505898 204.80053711 239.62182617 C205.59654862 239.50123242 206.39256014 239.38063868 207.21269321 239.25639057 C210.53155421 238.57888437 212.60307356 238.1026087 214.6800909 235.32026386 C215.7088051 233.29627439 216.54880621 231.30849649 217.30078125 229.16796875 C217.62715576 228.31887939 217.95353027 227.46979004 218.28979492 226.5949707 C218.62587769 225.51155396 218.62587769 225.51155396 218.96875 224.40625 C219.22205078 223.59736328 219.47535156 222.78847656 219.73632812 221.95507812 C219.98447266 221.13845703 220.23261719 220.32183594 220.48828125 219.48046875 C220.74802734 218.65224609 221.00777344 217.82402344 221.27539062 216.97070312 C224.39536788 206.90131918 224.58702223 197.63526181 224.65087891 187.14550781 C224.66724192 185.18900495 224.69426203 183.23255673 224.73291016 181.27636719 C225.45896449 144.21602845 210.95746077 110.22541915 185.53540039 83.49609375 C169.7340105 67.1849816 151.6815523 54.72550982 131.91796875 43.72265625 C131.18916504 43.3162793 130.46036133 42.90990234 129.70947266 42.49121094 C128.30626701 41.7123223 126.89983982 40.93919959 125.48974609 40.17285156 C122.3849454 38.462413 119.60483255 36.90188036 117.30078125 34.16796875 C118.68615711 30.16258154 120.5549482 27.31093861 123.23828125 24.04296875 C124.27275391 22.77066406 124.27275391 22.77066406 125.328125 21.47265625 C125.97910156 20.71210937 126.63007813 19.9515625 127.30078125 19.16796875 C127.77644531 18.55179688 128.25210937 17.935625 128.7421875 17.30078125 C130.30078125 16.16796875 130.30078125 16.16796875 132.58129883 16.46484375 C175.53301036 27.5700533 221.16478074 65.80217091 243.81640625 103.22265625 C246.10212784 107.14089989 248.23025844 111.13258279 250.30078125 115.16796875 C250.61885742 115.77962891 250.93693359 116.39128906 251.26464844 117.02148438 C255.01064846 124.30994001 258.01401754 131.75119595 260.55078125 139.54296875 C260.90209106 140.60124878 260.90209106 140.60124878 261.26049805 141.6809082 C265.68123808 155.95122821 266.77173341 170.03725778 266.63696289 184.88818359 C266.61330369 187.66533489 266.61644025 190.44152261 266.62304688 193.21875 C266.60183481 207.28975625 266.15057705 221.63036644 262.17578125 235.23046875 C261.96405273 235.96813477 261.75232422 236.70580078 261.53417969 237.46582031 C256.57353757 253.78500724 246.38111459 273.03437399 233.30078125 284.16796875 C228.16518124 286.76661921 223.79915978 287.66673299 218.03515625 287.8203125 C216.75315338 287.86876564 216.75315338 287.86876564 215.44525146 287.91819763 C212.39733144 288.02274505 209.34970335 288.09859242 206.30078125 288.16796875 C204.55970093 288.20872528 204.55970093 288.20872528 202.78344727 288.25030518 C192.37333224 288.47828243 181.96260744 288.61113721 171.55078125 288.73046875 C170.68844753 288.74066166 169.82611382 288.75085457 168.93764877 288.76135635 C130.26402481 289.21659361 91.58826794 289.30833783 52.91235697 289.34662396 C47.26280815 289.35258012 41.6132821 289.36342323 35.96374512 289.37625122 C28.96751427 289.39189075 21.97132301 289.39946852 14.97507423 289.39771891 C11.35984425 289.39692631 7.74468824 289.39901883 4.12947273 289.40983963 C-76.74671564 289.63641972 -76.74671564 289.63641972 -95.69921875 271.16796875 C-96.40691406 270.48734375 -97.11460937 269.80671875 -97.84375 269.10546875 C-105.62706423 261.01890851 -109.2883433 252.56819355 -109.39526367 241.31298828 C-109.37181885 240.17200684 -109.34837402 239.03102539 -109.32421875 237.85546875 C-109.29775269 236.05891846 -109.29775269 236.05891846 -109.27075195 234.22607422 C-109.00091729 225.15790067 -107.88572766 218.30228211 -103.69921875 210.16796875 C-102.95922834 208.63951993 -102.21968099 207.11085657 -101.48046875 205.58203125 C-89.19481479 180.78804436 -73.42722235 157.86803031 -57.69921875 135.16796875 C-57.11124512 134.31847656 -56.52327148 133.46898437 -55.91748047 132.59375 C-48.63593 122.1043994 -41.07499982 111.82459037 -33.47265625 101.56640625 C-31.7294877 99.20890518 -29.99420577 96.84582775 -28.26171875 94.48046875 C-18.21333477 80.77007058 -7.9534216 67.22322452 2.46582031 53.79248047 C6.32580959 48.80938696 10.10463879 43.77334055 13.80078125 38.66796875 C14.22278809 38.09183838 14.64479492 37.51570801 15.07958984 36.92211914 C17.325336 33.7884877 19.04766338 30.8183556 20.30078125 27.16796875 C14.20656522 21.94611026 6.22510841 22.98750604 -1.38671875 23.55078125 C-3.82566098 23.78352954 -6.26317796 24.03159508 -8.69921875 24.29296875 C-10.65903687 24.49829224 -10.65903687 24.49829224 -12.65844727 24.70776367 C-60.88543148 29.95708584 -110.0509624 44.02912135 -146.69921875 77.16796875 C-147.58996094 77.92722656 -148.48070312 78.68648438 -149.3984375 79.46875 C-155.60802616 84.82249949 -160.67852241 90.7029625 -165.69921875 97.16796875 C-166.51390625 98.17859375 -167.32859375 99.18921875 -168.16796875 100.23046875 C-192.71576373 130.91877425 -205.62421226 168.33000703 -202.49707031 207.71386719 C-198.44525528 244.05788358 -179.47282035 275.42411593 -151.75048828 298.81201172 C-140.62450588 307.68579422 -128.3190716 314.95319305 -115.63671875 321.35546875 C-115.04898682 321.65219482 -114.46125488 321.9489209 -113.85571289 322.25463867 C-101.71931336 328.22579291 -89.20145525 332.96597079 -76.38671875 337.23046875 C-75.6006424 337.49220886 -74.81456604 337.75394897 -74.00466919 338.02362061 C-5.40379705 360.70011875 76.89591764 353.5361593 141.39453125 321.25390625 C153.28054631 315.13813687 164.46544092 308.15101123 175.015625 299.9453125 C179.45570096 296.49192008 182.30632384 295.85433506 187.78515625 295.7890625 C188.8858847 295.76357079 188.8858847 295.76357079 190.0088501 295.73756409 C192.35607272 295.68447296 194.70328145 295.64420875 197.05078125 295.60546875 C199.38390253 295.56130644 201.71689809 295.51431833 204.04986572 295.46266174 C205.50008693 295.43113132 206.95041604 295.40411613 208.40081787 295.38243103 C211.726986 295.31551099 214.88340206 295.07934257 218.17675781 294.57836914 C221.30078125 294.16796875 221.30078125 294.16796875 223.30078125 295.35546875 C224.30078125 297.16796875 224.30078125 297.16796875 224.14453125 299 C218.19782142 314.27974054 189.51306362 327.13382181 176.30078125 335.16796875 C175.63256348 335.57644043 174.9643457 335.98491211 174.27587891 336.40576172 C148.08593534 352.25529621 118.11354144 362.72004548 88.30078125 369.16796875 C86.955 369.45945801 86.955 369.45945801 85.58203125 369.75683594 C60.10810498 375.1232182 34.45915691 376.68667233 8.5078125 376.55908203 C5.002564 376.5419912 1.49799935 376.55218837 -2.00722599 376.56939602 C-25.545929 376.66732029 -49.25199459 375.753398 -72.26171875 370.35546875 C-73.40898437 370.09685059 -74.55625 369.83823242 -75.73828125 369.57177734 C-135.16283291 355.86927248 -192.47902744 322.69915102 -225.7043457 270.25927734 C-231.03764949 261.53425932 -234.13638754 252.13874922 -237.32421875 242.48046875 C-237.61377441 241.62066406 -237.90333008 240.76085937 -238.20166016 239.875 C-243.25985417 224.05178239 -244.16155649 208.80643702 -244.03540039 192.29223633 C-244.01168091 188.9751773 -244.01487997 185.65892016 -244.02148438 182.34179688 C-243.9700055 143.02554319 -230.20467401 110.5838319 -203.33203125 81.98828125 C-200.99880898 79.48889478 -198.74731261 76.941744 -196.51171875 74.35546875 C-192.85641434 70.23588172 -188.9137995 66.70162234 -184.69921875 63.16796875 C-183.77625 62.35714844 -182.85328125 61.54632813 -181.90234375 60.7109375 C-173.29740252 53.19034209 -164.18032884 46.54040431 -154.69921875 40.16796875 C-154.12171875 39.7797998 -153.54421875 39.39163086 -152.94921875 38.99169922 C-109.37909623 10.09769068 -51.40272108 0.04552359 0 0 Z " fill="#FFFFFF" transform="translate(244.69921875,67.83203125)"/>
</svg>
