<?xml version="1.0" encoding="UTF-8"?>
<!-- Generator: visioncortex VTracer 0.6.12 -->
<svg version="1.1" xmlns="http://www.w3.org/2000/svg" width="762" height="718" viewBox="0 0 762 718">
<path d="M0 0 C1.176 -0.003 2.351 -0.005 3.562 -0.008 C6.809 0.118 9.801 0.59 13 1.125 C15.772 1.274 18.539 1.396 21.312 1.5 C28.227 1.811 34.811 2.699 41.594 4.039 C46.822 5.027 51.937 5.426 57.25 5.625 C65.465 5.952 74.398 6.325 81.574 10.691 C84.11 12.19 85.599 12.529 88.5 12.688 C92.071 12.975 94.67 13.793 98 15.125 C99.456 15.274 100.915 15.397 102.375 15.5 C106.259 15.856 108.558 16.936 111.852 19.086 C114.833 20.528 117.815 21.005 121.062 21.625 C126.328 22.653 129.702 23.827 134 27.125 C136.166 28.176 138.369 29.114 140.582 30.062 C143.075 31.158 145.504 32.34 147.938 33.562 C148.772 33.981 149.606 34.4 150.465 34.832 C152.151 35.692 153.831 36.564 155.504 37.449 C159.672 39.621 163.569 41.371 168.125 42.562 C172.533 43.783 175.368 45.652 178.879 48.527 C181.266 50.325 183.719 51.633 186.375 53 C190.223 55.027 193.485 57.202 196.812 60 C200.589 63.161 204.491 65.609 208.812 67.938 C224.678 76.823 237.004 90.814 249.732 103.596 C252.413 106.289 255.104 108.973 257.797 111.654 C259.896 113.746 261.991 115.843 264.084 117.942 C265.074 118.933 266.066 119.923 267.059 120.911 C272.042 125.876 276.79 130.793 280.864 136.541 C282.272 138.504 283.881 140.207 285.562 141.938 C288.307 144.987 289.88 147.835 291.438 151.625 C293.104 155.626 294.715 158.107 297.938 161 C302.379 165.04 304.336 169.569 306.578 175.074 C308 178.125 308 178.125 309.895 180.379 C312.939 184.35 314.564 188.76 316.438 193.375 C319.241 200.234 322.303 206.704 326 213.125 C326.87 214.763 327.727 216.407 328.562 218.062 C328.749 218.428 328.749 218.428 329.691 220.277 C333.081 227.654 335.729 235.114 337.875 242.938 C338.392 244.783 338.909 246.628 339.426 248.473 C339.556 248.94 339.556 248.94 340.213 251.305 C341.477 255.834 342.769 260.355 344.062 264.875 C344.309 265.738 344.555 266.6 344.809 267.489 C346.456 273.249 348.124 279.002 349.812 284.75 C350.019 285.455 350.226 286.16 350.44 286.886 C351.254 289.647 352.089 292.393 353 295.125 C354.329 295.801 355.663 296.466 357 297.125 C358.718 298.658 360.383 300.252 362.012 301.878 C362.497 302.36 362.982 302.842 363.482 303.338 C365.079 304.926 366.669 306.521 368.258 308.117 C369.368 309.226 370.479 310.335 371.589 311.443 C373.914 313.765 376.235 316.09 378.554 318.418 C381.524 321.4 384.504 324.373 387.485 327.343 C389.78 329.629 392.069 331.921 394.357 334.214 C395.453 335.312 396.551 336.409 397.651 337.503 C399.188 339.035 400.718 340.573 402.247 342.113 C403.118 342.986 403.99 343.859 404.888 344.759 C407.605 347.803 408.828 349.943 409.414 353.965 C408.872 358.102 406.948 360.558 404.375 363.688 C403.948 364.239 403.522 364.79 403.082 365.357 C400.827 368.195 398.7 370.388 395.727 372.465 C393 375.125 393 375.125 392.724 377.115 C392.716 377.858 392.709 378.601 392.701 379.367 C392.23 384.824 389.943 387.267 386.059 390.918 C385.758 391.215 385.758 391.215 384.237 392.72 C382.322 394.603 380.38 396.457 378.438 398.312 C377.159 399.568 375.882 400.825 374.607 402.084 C369.152 407.431 363.75 412.535 357.51 416.966 C349.403 423.19 347.818 434.041 346.417 443.475 C345.741 447.899 344.903 451.645 342.953 455.691 C340.767 460.256 340.361 464.385 339.938 469.375 C338.621 480.442 333.979 488.772 328.535 498.332 C325.826 503.261 323.455 508.35 321.062 513.438 C320.179 515.309 319.295 517.18 318.41 519.051 C318.206 519.483 318.206 519.483 317.176 521.669 C316.087 523.944 314.961 526.194 313.816 528.441 C312.282 531.481 311.046 534.55 309.875 537.75 C306.736 545.381 301.987 551.621 297 558.125 C296.564 558.694 296.129 559.264 295.68 559.85 C293.975 562.072 292.265 564.291 290.549 566.505 C285.754 572.701 281.197 578.93 277.402 585.79 C273.825 591.771 269.262 596.422 264.324 601.297 C263.4 602.223 262.475 603.149 261.522 604.103 C259.578 606.049 257.627 607.988 255.67 609.921 C253.184 612.379 250.714 614.852 248.248 617.331 C245.864 619.723 243.469 622.103 241.074 624.484 C240.199 625.363 239.324 626.241 238.422 627.146 C233.305 632.185 228.149 636.41 222 640.125 C221.009 640.731 220.017 641.337 218.996 641.961 C218.152 642.469 217.307 642.977 216.438 643.5 C211.939 646.325 208.531 649.492 204.902 653.336 C201.969 656.094 198.683 657.587 195 659.125 C191.085 660.803 188.515 662.497 185.625 665.562 C182.121 669.228 178.594 671.102 174 673.125 C172.684 673.785 171.372 674.452 170.062 675.125 C167.246 676.542 164.399 677.824 161.5 679.062 C158.447 680.395 155.674 681.882 152.875 683.688 C147.176 687.341 142.203 689.447 135.406 689.523 C133 690.125 133 690.125 129.988 692.43 C125.111 696.103 119.51 697.321 113.688 698.875 C111.524 699.473 109.362 700.072 107.199 700.672 C106.724 700.8 106.724 700.8 104.319 701.448 C102 702.125 102 702.125 100 703.125 C98.627 703.253 97.251 703.354 95.875 703.438 C91.837 703.846 89.078 705.026 85.512 707.008 C79.679 709.602 73.2 710.696 67 712.125 C66.657 712.226 66.657 712.226 64.922 712.738 C61.044 713.519 57.031 713.135 53.094 713.062 C50 713.125 50 713.125 48.251 713.6 C45.136 714.327 42.084 714.424 38.891 714.59 C37.482 714.668 36.073 714.747 34.664 714.826 C32.461 714.945 30.259 715.062 28.056 715.175 C20.485 715.567 13.335 716.067 6 718.125 C3.602 718.137 3.602 718.137 1.625 717.812 C0.867 717.704 0.109 717.596 -0.672 717.484 C-1.44 717.366 -2.208 717.247 -3 717.125 C-10.217 716.179 -17.315 716.067 -24.582 716.188 C-28 716.125 -28 716.125 -30.371 715.641 C-32.758 715.172 -34.843 715.032 -37.266 714.984 C-47.572 714.778 -56.504 713.542 -66.297 710.332 C-73.638 707.939 -80.761 706.919 -88.457 706.566 C-91.497 706.039 -93.369 704.705 -96 703.125 C-98.691 702.605 -98.691 702.605 -101.562 702.312 C-107.463 701.461 -111.768 699.362 -116.969 696.547 C-120.033 695.11 -122.614 694.503 -125.938 693.938 C-134.164 692.265 -140.991 688.152 -148.289 684.176 C-155.084 680.488 -162.072 677.23 -169.097 674.006 C-175.125 671.191 -180.563 667.951 -186 664.125 C-190.401 661.191 -194.448 661.796 -199.625 661.812 C-200.585 661.796 -201.546 661.78 -202.535 661.764 C-208.186 661.76 -212.699 662.448 -217.98 664.437 C-220.879 665.425 -223.64 665.537 -226.688 665.625 C-231.716 665.88 -236.347 666.54 -241.25 667.688 C-246.204 668.836 -250.538 669.278 -255.598 669.105 C-259.12 669.134 -262.429 669.862 -265.875 670.547 C-275.213 672.274 -284.504 673.281 -294 673.125 C-294.769 673.281 -295.539 673.436 -296.332 673.597 C-301.841 674.687 -307.526 674.601 -313.125 674.812 C-314.413 674.872 -315.701 674.932 -317.027 674.994 C-318.258 675.041 -319.489 675.088 -320.758 675.137 C-321.883 675.183 -323.009 675.229 -324.168 675.276 C-327 675.125 -327 675.125 -330 673.125 C-329 670.125 -329 670.125 -327.531 669.027 C-321.564 666.193 -315.809 665.401 -309.293 664.896 C-304.779 664.508 -301.116 663.521 -296.923 661.823 C-293.977 660.754 -291.043 660.455 -287.938 660.125 C-268.31 657.78 -268.31 657.78 -263 655.125 C-259.761 654.599 -256.513 654.164 -253.262 653.723 C-250.245 653.17 -247.823 652.275 -245 651.125 C-242.754 650.816 -242.754 650.816 -240.562 650.688 C-237.397 650.405 -235.85 650.049 -232.938 648.562 C-230.016 647.133 -228.932 646.972 -225.812 647.062 C-222 647.125 -222 647.125 -219 645.125 C-219 641.915 -219.392 639.803 -221.566 637.379 C-225.495 633.927 -229.688 630.83 -233.895 627.728 C-247.625 617.273 -260.977 604.555 -269.621 589.59 C-272.462 585.08 -276.399 581.638 -280.25 578 C-285.92 572.628 -289.438 568.348 -291.871 560.785 C-293.23 557.583 -294.936 555.955 -297.5 553.625 C-302.012 549.517 -303.862 545.514 -305.953 539.844 C-307.208 536.586 -309.025 533.992 -311 531.125 C-312.061 528.916 -313.031 526.678 -313.996 524.426 C-315.525 520.921 -317.265 517.53 -319 514.125 C-320 512.125 -321 510.125 -322 508.125 C-322.296 507.544 -322.593 506.962 -322.898 506.363 C-323.949 504.292 -324.977 502.21 -326 500.125 C-326.416 499.288 -326.833 498.452 -327.262 497.59 C-329.967 491.943 -331.792 486.521 -333.191 480.426 C-335.005 473.024 -337.364 465.711 -339.924 458.535 C-342.915 450.019 -344.82 441.384 -346.625 432.562 C-346.926 431.12 -347.229 429.678 -347.531 428.236 C-348.114 425.452 -348.685 422.665 -349.246 419.876 C-349.696 417.636 -350.155 415.399 -350.633 413.165 C-352.169 405.611 -352.444 398.131 -352.625 390.438 C-352.662 389.031 -352.7 387.624 -352.738 386.217 C-353.118 371.187 -353.193 356.159 -353 341.125 C-352.991 340.433 -352.983 339.741 -352.974 339.028 C-352.919 334.845 -352.841 330.664 -352.736 326.483 C-352.689 324.552 -352.654 322.622 -352.62 320.691 C-352.434 314.601 -352.025 310.501 -349 305.125 C-348.238 301.926 -347.807 298.695 -347.375 295.438 C-347.247 294.543 -347.118 293.649 -346.986 292.728 C-346.356 288.234 -345.869 283.784 -345.625 279.25 C-345.214 273.663 -343.187 268.818 -341.195 263.621 C-340.056 260.29 -339.42 257.229 -338.938 253.75 C-338.315 249.292 -337.196 246.192 -335 242.309 C-333.72 239.513 -333.181 236.76 -332.562 233.75 C-331.25 227.582 -329.044 222.609 -326 217.125 C-325.305 215.775 -324.617 214.421 -323.938 213.062 C-323.615 212.422 -323.293 211.781 -322.961 211.121 C-321.93 208.98 -320.996 206.81 -320.062 204.625 C-318.747 201.613 -317.289 198.882 -315.5 196.125 C-313.774 193.462 -312.369 190.856 -311.125 187.938 C-307.268 178.911 -302.352 170.343 -297 162.125 C-296.402 161.135 -295.804 160.145 -295.188 159.125 C-293.309 156.548 -291.571 154.761 -289.25 152.625 C-285.713 149.212 -283.372 145.547 -281.062 141.25 C-276.5 132.872 -270.566 126.669 -263.859 120.012 C-263.486 119.641 -263.486 119.641 -261.597 117.763 C-260.11 116.29 -258.616 114.823 -257.115 113.364 C-253.11 109.428 -249.575 105.47 -246.374 100.849 C-244.384 98.352 -241.948 96.774 -239.348 94.961 C-235.69 92.101 -232.526 88.77 -229.3 85.438 C-226.36 82.417 -223.35 79.685 -220 77.125 C-220.33 75.475 -220.66 73.825 -221 72.125 C-224.601 70.989 -228.206 69.868 -231.812 68.75 C-232.315 68.591 -232.315 68.591 -234.857 67.789 C-244.34 64.862 -253.574 63.025 -263.492 62.566 C-266 62.125 -266 62.125 -268.406 60.652 C-271.562 58.794 -273.991 58.512 -277.625 58.125 C-278.949 57.971 -280.274 57.815 -281.598 57.656 C-282.303 57.574 -283.008 57.491 -283.735 57.406 C-287.856 56.894 -291.959 56.262 -296.062 55.625 C-296.859 55.506 -297.656 55.388 -298.477 55.266 C-301.828 54.744 -304.876 54.168 -308.094 53.062 C-311.6 51.932 -314.762 51.776 -318.438 51.625 C-323.64 51.412 -328.02 50.616 -333 49.125 C-334.806 48.865 -336.619 48.649 -338.438 48.5 C-339.302 48.425 -340.167 48.35 -341.059 48.273 C-341.699 48.224 -342.34 48.175 -343 48.125 C-343.625 46.25 -343.625 46.25 -344 44.125 C-341.246 41.371 -338.581 41.584 -334.875 41.375 C-334.158 41.332 -333.441 41.289 -332.702 41.244 C-326.473 40.966 -320.588 41.732 -314.426 42.652 C-308.245 43.44 -302.017 43.218 -295.8 43.051 C-289.884 42.939 -284.716 43.633 -279 45.125 C-271.324 46.727 -263.615 47.474 -255.812 48.125 C-228.252 50.429 -228.252 50.429 -222.562 52.688 C-216.763 54.942 -210.47 54.702 -204.328 54.93 C-200.247 55.083 -196.263 55.537 -192.238 56.234 C-188.824 56.068 -186.025 54.595 -183 53.125 C-182.393 52.833 -181.787 52.54 -181.162 52.239 C-179.281 51.31 -177.419 50.351 -175.562 49.375 C-174.904 49.03 -174.245 48.685 -173.566 48.33 C-169.803 46.296 -166.709 44.197 -163.625 41.188 C-160.802 38.439 -159.062 37.712 -155.125 37.438 C-154.385 37.454 -153.645 37.471 -152.883 37.488 C-152.261 37.368 -151.64 37.249 -151 37.125 C-149.93 35.23 -149.93 35.23 -149 33.125 C-146.047 31.156 -144.86 30.809 -141.492 30.312 C-135.53 29.204 -130.517 26.829 -125.125 24.125 C-124.202 23.674 -123.279 23.223 -122.328 22.758 C-119.149 21.201 -115.979 19.629 -112.832 18.009 C-110.814 17.035 -109.085 16.673 -106.875 16.312 C-101.894 15.394 -97.107 14.037 -92.25 12.625 C-85.651 10.73 -79.213 9.426 -72.387 8.586 C-65.312 7.623 -58.215 6.197 -51.438 3.938 C-46.911 2.868 -42.622 3.027 -37.988 3.152 C-35 3.125 -35 3.125 -33.071 2.641 C-30.96 2.115 -29.053 1.938 -26.883 1.844 C-26.111 1.806 -25.339 1.769 -24.543 1.73 C-23.745 1.696 -22.947 1.661 -22.125 1.625 C-13.797 1.258 -13.797 1.258 -9.867 0.602 C-6.54 0.048 -3.372 -0.007 0 0 Z M-21 33.125 C-23.648 33.145 -23.648 33.145 -26.375 32.938 C-34.411 32.76 -41.995 34.573 -49.802 36.347 C-55.898 37.687 -61.429 38.351 -67.675 38.042 C-70.164 38.131 -71.495 38.631 -73.625 39.875 C-77.55 42.158 -81.605 43.101 -86 44.062 C-91.964 45.386 -97.843 46.842 -103.688 48.625 C-104.949 49.007 -106.211 49.388 -107.512 49.781 C-111.101 51.164 -113.871 52.91 -117 55.125 C-120.82 57.035 -124.025 58.222 -128.25 58.562 C-132 59.125 -132 59.125 -134.062 60.875 C-135.249 63.722 -134.94 65.226 -134 68.125 C-132.475 69.65 -130.931 69.389 -128.812 69.562 C-124.94 69.952 -121.685 70.846 -118 72.125 C-115.429 72.646 -112.855 73.118 -110.27 73.562 C-108 74.125 -108 74.125 -105 76.125 C-102.97 76.487 -100.924 76.767 -98.875 77 C-91.225 78.011 -83.85 79.676 -76.368 81.541 C-73.799 82.175 -71.224 82.783 -68.648 83.391 C-66.849 83.822 -65.049 84.255 -63.25 84.688 C-62.404 84.885 -61.558 85.083 -60.687 85.286 C-56.249 86.372 -52.899 87.678 -49 90.125 C-46.719 90.566 -46.719 90.566 -44.5 90.688 C-40.929 90.975 -38.33 91.793 -35 93.125 C-33.544 93.274 -32.085 93.397 -30.625 93.5 C-26.743 93.856 -24.446 94.935 -21.152 97.082 C-17.133 99.03 -12.676 99.546 -8.305 100.316 C-4.996 101.126 -2.871 102.358 0 104.125 C1.299 104.207 2.599 104.29 3.938 104.375 C9.123 104.77 12.961 107.025 17.479 109.469 C22.807 112.25 28.051 113.382 33.965 114.449 C37.258 115.182 39.284 116.304 42.027 118.156 C45.923 120.069 50.348 120.505 54.598 121.219 C58.417 122.236 60.751 123.904 64 126.125 C66.656 127.317 69.378 128.287 72.125 129.25 C79.616 131.93 79.616 131.93 82.219 133.25 C84.27 134.257 86.127 134.614 88.375 135 C92.675 135.896 95.396 137.572 99 140.125 C101.168 141.171 103.367 142.112 105.582 143.055 C108.095 144.167 110.504 145.412 112.938 146.688 C116.166 148.331 119.184 149.532 122.688 150.438 C129.313 152.273 135.107 155.79 141.087 159.087 C146.311 161.921 151.675 164.489 157 167.125 C159.334 168.291 161.667 169.457 164 170.625 C165.152 171.201 166.305 171.777 167.492 172.371 C178.125 177.688 178.125 177.688 181.598 179.43 C183.849 180.552 186.107 181.661 188.371 182.758 C189.424 183.271 190.477 183.784 191.562 184.312 C192.492 184.76 193.421 185.207 194.379 185.668 C197 187.125 197 187.125 199.445 189.098 C202.27 191.339 205.069 192.805 208.312 194.375 C208.911 194.669 209.509 194.962 210.125 195.265 C212.783 196.57 215.447 197.859 218.115 199.144 C220.246 200.172 222.373 201.211 224.5 202.25 C225.158 202.562 225.816 202.875 226.493 203.196 C230.912 205.36 234.294 207.888 238 211.125 C243.137 214.962 248.234 218.309 254 221.125 C254.392 221.445 254.392 221.445 256.375 223.062 C258.613 224.821 260.465 225.915 263 227.125 C266.416 228.76 269.044 230.745 272 233.125 C273.43 233.89 274.868 234.638 276.312 235.375 C280.697 237.727 283.754 240.671 287.152 244.266 C289.524 246.652 292.139 248.37 295 250.125 C295.681 250.682 296.361 251.239 297.062 251.812 C299.417 253.407 301.17 253.907 304 254.125 C304.495 253.795 304.495 253.795 307 252.125 C306.377 245.145 305.157 239.153 301.035 233.367 C298.804 229.813 297.785 226.384 296.75 222.375 C294.909 215.846 292.433 211.531 287.855 206.43 C285.351 203.318 284.183 200.096 282.859 196.363 C281.684 193.303 279.84 190.828 278 188.125 C277.401 186.673 276.819 185.214 276.25 183.75 C274.711 180.106 272.956 177.875 270.062 175.188 C267.07 172.404 265.253 170.033 263.562 166.312 C258.779 155.992 250.315 148.212 242.229 140.427 C239.516 137.79 237.219 135.484 235.238 132.238 C232.353 128.225 228.805 125.631 224.947 122.574 C220.182 118.614 216.025 114.099 211.75 109.625 C204.805 102.515 198.267 96.673 189.492 92.031 C185.648 89.933 182.207 87.53 178.688 84.938 C173.962 81.479 169.172 78.287 164.086 75.379 C162 74.125 162 74.125 159.961 72.578 C155.168 69.026 149.296 67.225 143.719 65.262 C136.165 62.578 129.28 59.23 122.25 55.375 C115.752 51.823 110.122 48.924 102.57 48.566 C100 48.125 100 48.125 96.836 46.184 C92.321 43.441 87.674 43.145 82.5 42.625 C75.52 41.924 70.978 40.786 65 37.125 C55.772 34.748 45.853 34.766 36.371 34.344 C32.248 34.154 28.167 33.775 24.066 33.305 C21.941 33.12 19.882 33.132 17.75 33.188 C14 33.125 14 33.125 11.449 32.137 C6.627 30.722 2.06 30.835 -2.938 30.875 C-3.901 30.867 -4.865 30.86 -5.857 30.852 C-11.31 30.866 -15.757 31.503 -21 33.125 Z M-188.812 94.5 C-193.698 98.789 -198.586 102.874 -204.375 105.875 C-208.89 108.313 -212.129 112.159 -215.66 115.812 C-218.232 118.355 -220.996 120.122 -224 122.125 C-229.367 127.033 -234.286 132.157 -238.52 138.074 C-242.928 144.181 -247.841 149.937 -252.625 155.75 C-254.086 157.54 -255.545 159.331 -257 161.125 C-257.512 161.755 -258.024 162.386 -258.551 163.035 C-262.592 168.215 -265.985 173.798 -269.398 179.403 C-271.132 182.233 -272.827 184.913 -274.93 187.488 C-280.709 194.849 -284.684 203.311 -288.625 211.75 C-289.554 213.722 -290.484 215.693 -291.414 217.664 C-291.852 218.598 -292.29 219.533 -292.741 220.495 C-293.861 222.835 -295.039 225.132 -296.242 227.43 C-297.923 230.762 -298.807 233.943 -299.5 237.625 C-300.478 242.26 -301.733 245.86 -304.027 249.961 C-305.745 253.781 -306.393 257.882 -307.191 261.977 C-308 265.125 -308 265.125 -309.496 268.066 C-311.201 271.535 -311.837 274.636 -312.5 278.438 C-313.234 282.617 -314.066 286.451 -315.492 290.445 C-317.22 295.46 -317.98 300.436 -318.625 305.688 C-318.751 306.668 -318.876 307.649 -319.005 308.659 C-320.033 317.226 -320.474 325.785 -320.709 334.406 C-320.723 334.883 -320.723 334.883 -320.789 337.293 C-320.807 338.131 -320.824 338.969 -320.842 339.833 C-321 342.125 -321 342.125 -321.505 344.097 C-322.111 346.581 -322.13 348.849 -322.133 351.406 C-322.134 352.413 -322.135 353.42 -322.137 354.457 C-322.133 355.502 -322.129 356.548 -322.125 357.625 C-322.129 358.67 -322.133 359.716 -322.137 360.793 C-322.135 361.8 -322.134 362.806 -322.133 363.844 C-322.132 364.761 -322.131 365.678 -322.129 366.623 C-322.009 368.953 -321.584 370.879 -321 373.125 C-320.879 374.622 -320.8 376.123 -320.754 377.625 C-320.738 378.064 -320.738 378.064 -320.658 380.285 C-320.627 381.222 -320.595 382.159 -320.562 383.125 C-320.257 390.772 -319.807 398.382 -319.062 406 C-318.988 406.801 -318.913 407.601 -318.836 408.426 C-318.315 413.491 -317.289 418.2 -316 423.125 C-315.684 424.975 -315.39 426.829 -315.125 428.688 C-312.633 444.147 -307.495 459.227 -302.152 473.906 C-301.206 476.55 -300.335 479.195 -299.5 481.875 C-297.844 486.888 -295.426 491.449 -293 496.125 C-291.851 498.415 -290.705 500.707 -289.562 503 C-289.259 503.602 -288.956 504.204 -288.644 504.824 C-287.284 507.529 -285.948 510.238 -284.676 512.984 C-280.591 521.669 -275.319 529.51 -270.023 537.488 C-267.513 541.288 -265.216 545.148 -263 549.125 C-257.146 558.533 -249.891 566.373 -242.006 574.076 C-238.427 577.601 -235.357 581.137 -232.505 585.28 C-230.848 587.311 -229.144 588.621 -227.02 590.152 C-220.597 595.039 -215.143 600.912 -209.584 606.733 C-204.456 612.086 -199.649 616.774 -192.943 620.1 C-189.198 622.076 -186.442 625.191 -183.457 628.137 C-179.172 631.605 -174.679 632.529 -169.211 632.383 C-163.926 631.767 -158.871 630.123 -154.188 627.625 C-150.053 625.679 -145.887 624.932 -141.414 624.066 C-137.988 623.122 -135.265 621.798 -132.138 620.162 C-128.397 618.348 -124.445 617.164 -120.5 615.875 C-111.82 612.944 -103.823 609.279 -95.725 605.025 C-93.215 603.715 -90.682 602.466 -88.125 601.25 C-87.364 600.881 -86.604 600.513 -85.82 600.133 C-83.271 599.222 -81.019 598.756 -78.363 598.305 C-72.441 597.181 -67.429 594.805 -62.062 592.125 C-61.069 591.64 -60.076 591.154 -59.052 590.654 C-50.972 586.679 -42.989 582.524 -35.055 578.266 C-31.856 576.555 -28.613 575.005 -25.312 573.5 C-21.877 571.833 -19.702 569.937 -17.125 567.125 C-13.305 563.039 -9.531 561.419 -4.355 559.457 C4.997 555.744 13.242 551.485 19.984 543.922 C22.468 541.708 24.821 540.831 27.938 539.688 C33.628 537.569 36.851 534.742 40.934 530.324 C45.498 525.466 50.707 522.28 56.562 519.188 C62.892 515.61 67.603 510.898 72.573 505.631 C76.211 501.792 79.927 498.527 84.215 495.427 C86.967 493.42 89.434 491.131 91.945 488.836 C94 487.125 94 487.125 96.715 485.422 C101.136 482.528 104.729 478.734 108.438 475 C109.2 474.237 109.962 473.473 110.747 472.687 C115.128 468.23 118.914 463.808 122.266 458.52 C124.988 454.761 128.335 451.673 131.66 448.453 C135.039 445.16 137.893 441.819 140.586 437.961 C142.177 435.896 143.953 434.259 145.875 432.5 C149.898 428.615 152.434 424.186 155.074 419.325 C157.404 415.064 160.004 411.42 163.074 407.68 C166.166 403.578 168.787 399.184 171.449 394.795 C173.265 391.818 175.009 389.115 177.273 386.445 C179.251 383.788 179.432 382.51 179.438 379.25 C179.718 374.619 180.849 372.385 183.723 368.836 C187.406 363.903 188.719 358.182 188 352.125 C186.19 345.774 183.773 340.549 180 335.125 C179.4 333.674 178.818 332.214 178.25 330.75 C176.715 327.103 174.993 324.957 172.062 322.312 C168.674 319.185 167.18 316.583 165.625 312.25 C163.433 306.375 160.421 303.361 155.843 299.198 C152.465 295.804 150.357 291.836 148.02 287.692 C142.549 278.407 135.983 271.158 128.301 263.672 C127.011 262.391 125.724 261.108 124.437 259.824 C121.769 257.168 119.091 254.524 116.402 251.889 C112.974 248.529 109.566 245.15 106.165 241.763 C102.884 238.497 99.593 235.24 96.301 231.984 C95.685 231.374 95.07 230.764 94.436 230.136 C88.257 224.022 82.148 218.115 75 213.125 C73.607 211.938 72.227 210.735 70.875 209.5 C68.646 207.513 66.566 205.839 64.062 204.188 C61.433 202.417 59.365 200.652 57.062 198.5 C51.409 193.372 45.085 189.354 38.692 185.222 C36.591 183.86 34.513 182.463 32.438 181.062 C29.405 179.035 26.337 177.069 23.257 175.115 C22.677 174.747 22.097 174.379 21.5 174 C20.909 173.626 20.319 173.251 19.71 172.865 C15.626 170.247 11.687 167.474 7.766 164.618 C0.918 159.642 -5.875 155.415 -13.527 151.79 C-17.991 149.673 -21.965 147.267 -25.992 144.426 C-28.788 142.614 -31.75 141.402 -34.816 140.121 C-37.024 139.114 -38.969 137.948 -41 136.625 C-44.46 134.38 -47.989 132.708 -51.777 131.09 C-55.258 129.579 -58.62 127.845 -62 126.125 C-64.045 125.101 -66.092 124.079 -68.141 123.062 C-69.734 122.259 -71.307 121.415 -72.875 120.562 C-75.459 119.374 -77.592 118.693 -80.312 118 C-85.362 116.584 -89.585 114.237 -94.125 111.688 C-100.455 108.157 -106.309 105.992 -113.388 104.519 C-118.766 103.351 -122.821 101.171 -127.496 98.363 C-130.166 97.043 -131.985 96.751 -134.938 96.625 C-139.104 96.436 -141.769 95.42 -145.438 93.438 C-150.808 90.546 -156.201 88.57 -162 86.75 C-162.826 86.487 -163.651 86.225 -164.502 85.954 C-175.635 82.54 -180.573 87.194 -188.812 94.5 Z M281.645 477.523 C278.869 480.226 275.525 481.615 272 483.125 C268.085 484.803 265.515 486.497 262.625 489.562 C259.147 493.21 255.594 495.157 251 497.125 C247.085 498.803 244.515 500.497 241.625 503.562 C238.121 507.228 234.594 509.102 230 511.125 C228.684 511.785 227.372 512.452 226.062 513.125 C223.988 514.177 221.936 515.151 219.777 516.02 C214.578 518.115 211.105 520.665 207.016 524.473 C204.368 526.643 201.641 527.708 198.484 528.965 C195.421 530.395 192.783 532.207 190 534.125 C185.805 537 181.778 539.336 177.082 541.266 C173.627 542.692 170.328 544.428 167 546.125 C162.877 548.228 158.757 550.244 154.5 552.062 C151.488 553.378 148.757 554.836 146 556.625 C142.616 558.817 139.196 560.454 135.484 562.016 C132.578 563.314 129.809 564.815 127 566.312 C122.52 568.592 119.055 569.603 114.082 569.863 C110.31 570.337 107.268 572.283 104 574.125 C102.692 574.8 101.379 575.467 100.062 576.125 C99.404 576.456 98.745 576.788 98.066 577.129 C95.902 578.172 93.709 579.119 91.5 580.062 C88.539 581.34 86.051 582.747 83.438 584.625 C79.032 587.518 74.208 588.409 69.142 589.529 C63.473 590.844 58.78 593.11 53.66 595.887 C50.437 597.387 47.843 597.567 44.344 597.719 C40.153 598.445 36.63 600.788 32.914 602.777 C29.528 604.343 26.87 604.612 23.203 604.797 C19.626 605.33 16.758 607.097 13.602 608.793 C6.787 612.282 -0.666 614.41 -8.004 616.512 C-10 617.125 -10 617.125 -12 618.125 C-13.373 618.253 -14.749 618.354 -16.125 618.438 C-20.169 618.846 -22.886 620.045 -26.457 622.02 C-30.609 623.824 -35.011 624.644 -39.414 625.618 C-54.864 629.057 -54.864 629.057 -61 632.125 C-62.435 632.277 -63.873 632.398 -65.312 632.5 C-68.332 632.797 -69.815 633.011 -72.438 634.625 C-75.806 636.597 -78.747 636.621 -82.598 636.816 C-85 637.125 -85 637.125 -86.934 638.094 C-89.606 639.428 -92.041 639.682 -95 640.062 C-100.432 640.838 -105.645 641.938 -110.945 643.344 C-114.238 644.186 -117.548 644.869 -120.875 645.562 C-126.231 646.776 -130.069 648.194 -134 652.125 C-134.041 653.791 -134.043 655.459 -134 657.125 C-129.573 659.571 -125.208 660.996 -120.379 662.371 C-118 663.125 -118 663.125 -114.938 664.688 C-112.307 665.975 -110.393 666.519 -107.562 667.062 C-103.861 667.798 -101.354 669.083 -98.152 671.117 C-94.115 673.008 -89.67 673.547 -85.305 674.316 C-81.978 675.13 -79.905 676.379 -77 678.125 C-74.082 678.785 -74.082 678.785 -70.812 679.188 C-69.588 679.345 -68.363 679.502 -67.102 679.664 C-64.203 680 -61.302 680.299 -58.398 680.586 C-57.616 680.666 -56.834 680.746 -56.028 680.828 C-54.514 680.98 -52.998 681.122 -51.482 681.252 C-47.69 681.626 -44.399 682.274 -40.832 683.632 C-35.957 685.294 -31.484 685.613 -26.363 685.672 C-25.48 685.692 -24.597 685.713 -23.687 685.733 C-21.836 685.773 -19.985 685.807 -18.134 685.833 C-15.309 685.875 -12.486 685.938 -9.662 686.004 C-7.854 686.04 -6.046 686.075 -4.238 686.109 C-3.401 686.127 -2.563 686.145 -1.7 686.163 C2.672 686.22 6.688 685.961 11 685.125 C13.715 685.098 16.408 685.186 19.121 685.285 C22 685.125 22 685.125 25.316 684.109 C29.598 682.965 33.121 683.106 37.5 683.312 C49.091 683.572 59.829 680.973 71 678.125 C71.868 677.906 72.735 677.687 73.629 677.462 C78.387 676.254 83.126 674.988 87.861 673.694 C89.896 673.153 91.936 672.653 93.984 672.168 C102.099 670.19 109.084 667.431 116.465 663.613 C119.422 662.368 121.011 661.919 124.066 661.668 C128.506 661.055 130.394 659.692 134 657.125 C136.596 655.951 139.269 654.995 141.938 654 C150.166 650.776 157.037 646.422 164.23 641.351 C170.619 636.927 177.248 632.867 184.312 629.625 C188.779 627.482 191.716 624.701 195.07 621.098 C196.94 619.186 198.827 617.676 201 616.125 C203.95 614.009 206.428 611.749 208.938 609.125 C212.24 605.726 215.661 603.221 219.641 600.676 C226.66 596.062 232.455 591.069 237.418 584.281 C238.885 582.282 240.426 580.424 242.062 578.562 C244.157 576.157 246.104 573.69 248 571.125 C250.832 567.299 253.857 563.698 257 560.125 C258.782 558.093 260.564 556.061 262.336 554.02 C263.756 552.403 265.218 550.822 266.688 549.25 C269.26 545.774 270.543 542.456 272.043 538.434 C273.248 535.526 274.966 533.519 277 531.125 C280.013 526.459 282.777 521.692 285.188 516.688 C287 513.125 287 513.125 288.527 511.688 C290.375 509.727 290.731 508.166 291.375 505.562 C292.918 500.013 295.318 495.2 298 490.125 C298.732 488.647 299.462 487.168 300.188 485.688 C302 482.125 302 482.125 304 479.125 C304.449 476.75 304.449 476.75 304.688 474.125 C304.731 473.692 304.731 473.692 304.949 471.5 C305 469.125 305 469.125 304 466.125 C295.148 465.46 287.329 471.244 281.645 477.523 Z " fill="#FFFFFF" transform="translate(353,-0.125)"/>
<path d="M0 0 C0.687 -0.005 1.374 -0.01 2.082 -0.015 C4.33 -0.03 6.578 -0.036 8.825 -0.042 C9.597 -0.045 10.369 -0.048 11.165 -0.051 C15.241 -0.065 19.318 -0.075 23.394 -0.079 C27.601 -0.085 31.807 -0.109 36.014 -0.137 C39.256 -0.156 42.497 -0.161 45.739 -0.162 C47.291 -0.165 48.842 -0.173 50.393 -0.187 C52.559 -0.204 54.725 -0.202 56.891 -0.195 C58.122 -0.199 59.353 -0.203 60.622 -0.206 C63.965 0.186 65.332 0.886 67.751 3.161 C66.806 6.342 66.12 7.882 63.439 9.911 C59.022 11.965 54.953 12.284 50.122 12.243 C49.018 12.236 47.913 12.23 46.775 12.223 C45.591 12.212 44.408 12.2 43.189 12.188 C40.676 12.176 38.163 12.163 35.65 12.151 C31.693 12.127 27.736 12.099 23.78 12.065 C19.958 12.035 16.136 12.017 12.314 12.001 C11.13 11.988 9.947 11.974 8.728 11.96 C7.623 11.957 6.518 11.953 5.38 11.95 C4.411 11.942 3.443 11.935 2.445 11.927 C-0.454 12.179 -2.616 12.952 -5.249 14.161 C-5.249 14.821 -5.249 15.481 -5.249 16.161 C-2.047 17.228 0.277 17.298 3.644 17.319 C4.855 17.329 6.067 17.339 7.315 17.35 C7.969 17.354 7.969 17.354 11.282 17.372 C12.639 17.385 13.995 17.399 15.351 17.413 C21.11 17.475 26.869 17.529 32.628 17.562 C36.152 17.583 39.676 17.619 43.2 17.663 C45.196 17.684 47.192 17.689 49.188 17.694 C50.399 17.711 51.611 17.728 52.859 17.745 C53.393 17.749 53.393 17.749 56.095 17.769 C58.751 18.161 58.751 18.161 60.627 19.527 C61.751 21.161 61.751 21.161 61.626 23.724 C60.751 26.161 60.751 26.161 57.751 28.161 C54.784 28.433 54.784 28.433 51.108 28.464 C50.438 28.473 49.768 28.481 49.077 28.49 C46.863 28.515 44.649 28.528 42.435 28.54 C40.897 28.556 39.359 28.573 37.821 28.592 C33.773 28.637 29.724 28.672 25.676 28.704 C19.192 28.756 12.708 28.821 6.225 28.892 C3.957 28.915 1.689 28.931 -0.579 28.947 C-1.964 28.96 -3.35 28.974 -4.735 28.988 C-5.948 28.997 -7.16 29.007 -8.409 29.016 C-11.249 29.161 -11.249 29.161 -13.249 30.161 C-12.919 31.481 -12.589 32.801 -12.249 34.161 C-8.975 35.145 -6.052 35.266 -2.642 35.227 C-1.517 35.217 -0.392 35.208 0.767 35.197 C1.977 35.183 3.188 35.168 4.435 35.153 C6.997 35.136 9.559 35.119 12.12 35.103 C16.161 35.073 20.201 35.037 24.241 34.99 C28.139 34.945 32.037 34.924 35.935 34.903 C37.143 34.885 38.352 34.866 39.597 34.847 C40.725 34.843 41.853 34.84 43.015 34.836 C44.004 34.827 44.994 34.817 46.013 34.807 C49.214 35.221 51.118 36.341 53.751 38.161 C53.064 40.474 53.064 40.474 51.751 43.161 C50.885 43.615 50.019 44.069 49.126 44.536 C48.342 45.072 47.559 45.609 46.751 46.161 C46.439 49.849 46.439 49.849 46.751 53.161 C43.801 54.636 41.163 54.297 37.871 54.306 C37.163 54.31 36.456 54.313 35.727 54.317 C33.382 54.326 31.037 54.328 28.693 54.329 C27.066 54.332 25.439 54.336 23.813 54.339 C20.401 54.345 16.988 54.347 13.576 54.346 C9.2 54.346 4.824 54.36 0.448 54.377 C-2.912 54.388 -6.272 54.39 -9.633 54.39 C-11.246 54.391 -12.86 54.395 -14.473 54.403 C-16.729 54.413 -18.984 54.41 -21.239 54.404 C-22.523 54.405 -23.807 54.407 -25.13 54.408 C-28.249 54.161 -28.249 54.161 -31.249 52.161 C-31.312 50.218 -31.369 48.27 -31.257 46.329 C-31.249 44.161 -31.249 44.161 -31.819 41.72 C-32.322 38.727 -31.898 36.919 -30.999 34.036 C-30.746 33.188 -30.493 32.34 -30.233 31.466 C-29.249 29.161 -29.249 29.161 -27.694 27.673 C-25.702 25.589 -25.708 23.934 -25.374 21.099 C-24.231 13.98 -21.811 7.925 -16.874 2.599 C-11.715 -0.226 -5.767 0.032 0 0 Z " fill="#FFFFFF" transform="translate(333.248779296875,330.8388671875)"/>
<path d="M0 0 C0.728 -0.005 1.455 -0.01 2.205 -0.015 C4.593 -0.029 6.98 -0.028 9.368 -0.026 C11.034 -0.03 12.7 -0.034 14.366 -0.039 C17.848 -0.047 21.331 -0.046 24.813 -0.041 C29.279 -0.035 33.744 -0.052 38.21 -0.075 C41.646 -0.09 45.081 -0.091 48.517 -0.088 C50.164 -0.088 51.811 -0.094 53.458 -0.104 C55.756 -0.116 58.054 -0.109 60.352 -0.098 C61.659 -0.098 62.967 -0.099 64.314 -0.1 C67.482 0.275 67.482 0.275 69.427 1.798 C69.601 2.042 69.601 2.042 70.482 3.275 C69.014 8.899 69.014 8.899 66.812 10.451 C63.772 11.525 61.166 11.549 57.941 11.578 C57.617 11.582 57.617 11.582 55.978 11.603 C53.844 11.629 51.71 11.641 49.575 11.654 C48.089 11.67 46.602 11.687 45.115 11.705 C41.204 11.751 37.293 11.786 33.382 11.817 C27.121 11.869 20.862 11.934 14.602 12.005 C12.417 12.028 10.232 12.045 8.047 12.06 C6.706 12.074 5.364 12.087 4.023 12.101 C2.853 12.111 1.684 12.12 0.479 12.13 C-2.057 12.252 -4.149 12.377 -6.518 13.275 C-7.573 15.49 -7.573 15.49 -8.518 18.275 C-10.062 21.094 -11.664 23.873 -13.276 26.654 C-14.518 29.275 -14.518 29.275 -14.518 33.275 C-12.115 34.476 -10.514 34.444 -7.828 34.512 C-7.341 34.525 -7.341 34.525 -4.874 34.592 C-3.815 34.615 -2.757 34.638 -1.667 34.661 C-0.579 34.687 0.509 34.712 1.63 34.739 C3.939 34.791 6.247 34.84 8.555 34.887 C12.072 34.961 15.587 35.052 19.103 35.144 C21.346 35.192 23.59 35.24 25.833 35.286 C26.879 35.315 27.926 35.344 29.003 35.374 C34.872 35.474 39.897 35.159 45.482 33.275 C46.919 31.111 46.919 31.111 47.482 28.65 C47.688 27.832 47.894 27.015 48.107 26.173 C48.169 25.86 48.169 25.86 48.482 24.275 C51.708 23.261 53.047 23.072 56.169 24.525 C58.482 26.275 58.482 26.275 60.482 29.275 C60.352 34.831 57.758 38.96 54.482 43.275 C52.169 45.275 52.169 45.275 50.482 46.275 C50.585 46.749 50.585 46.749 51.107 49.15 C51.23 50.181 51.354 51.212 51.482 52.275 C48.993 54.763 47.551 54.51 44.156 54.523 C43.415 54.516 42.674 54.509 41.911 54.502 C41.13 54.502 40.35 54.502 39.546 54.503 C36.959 54.501 34.373 54.486 31.786 54.47 C29.996 54.466 28.205 54.463 26.414 54.461 C21.696 54.454 16.978 54.434 12.259 54.412 C7.447 54.392 2.634 54.382 -2.178 54.372 C-11.625 54.351 -21.072 54.317 -30.518 54.275 C-31.033 51.714 -31.541 49.155 -32.018 46.587 C-32.518 44.275 -32.518 44.275 -33.518 42.275 C-34.094 38.15 -33.754 36.611 -31.331 33.15 C-30.877 32.568 -30.423 31.987 -29.956 31.388 C-26.271 25.97 -23.785 19.411 -22.706 12.962 C-21.06 7.852 -17.997 5.132 -13.518 2.275 C-8.89 0.416 -4.971 0.017 0 0 Z " fill="#FFFFFF" transform="translate(209.518310546875,330.725341796875)"/>
<path d="M0 0 C0.68 -0.003 1.36 -0.007 2.061 -0.01 C4.306 -0.02 6.551 -0.022 8.796 -0.023 C10.363 -0.026 11.93 -0.029 13.497 -0.033 C16.782 -0.039 20.067 -0.041 23.352 -0.04 C27.546 -0.04 31.74 -0.054 35.934 -0.071 C39.172 -0.082 42.409 -0.084 45.647 -0.083 C47.192 -0.085 48.738 -0.089 50.283 -0.097 C65.672 -0.167 65.672 -0.167 72.155 2.145 C72.485 2.475 72.485 2.475 74.155 4.145 C73.971 12.975 69.102 20.877 63.155 27.145 C60.786 28.33 59.185 28.331 56.542 28.427 C55.624 28.464 54.705 28.501 53.759 28.54 C53.278 28.557 53.278 28.557 50.843 28.645 C48.951 28.715 47.059 28.787 45.167 28.864 C44.747 28.879 44.747 28.879 42.619 28.956 C40.067 29.152 37.653 29.594 35.155 30.145 C35.32 30.64 35.32 30.64 36.155 33.145 C38.37 34.243 38.37 34.243 41.093 35.208 C45.962 36.952 45.962 36.952 48.155 39.145 C48.167 41.134 48.167 41.134 47.843 43.458 C47.732 44.258 47.621 45.059 47.507 45.884 C47.449 46.257 47.449 46.257 47.155 48.145 C47.011 49.135 46.867 50.125 46.718 51.145 C46.532 51.805 46.347 52.465 46.155 53.145 C43.169 54.638 40.447 54.263 37.155 54.145 C36.825 53.98 36.825 53.98 35.155 53.145 C35.485 51.165 35.815 49.185 36.155 47.145 C32.317 45.193 28.636 43.322 24.593 41.833 C20.795 39.968 18.645 37.809 15.757 34.794 C11.332 30.239 7.109 29.526 0.944 29.161 C-3.296 29.137 -5.908 29.418 -9.845 31.145 C-11.131 33.064 -11.973 34.966 -12.845 37.102 C-14.484 40.452 -16.811 42.035 -19.845 44.145 C-20.505 44.145 -21.165 44.145 -21.845 44.145 C-21.845 47.115 -21.845 50.085 -21.845 53.145 C-23.495 53.145 -25.145 53.145 -26.845 53.145 C-29.035 45.488 -28.895 38.272 -25.095 31.208 C-24.041 29.502 -22.961 27.811 -21.845 26.145 C-21.226 25.176 -20.607 24.207 -19.97 23.208 C-14.059 17.471 -8.295 16.696 -0.376 16.743 C0.814 16.77 2.004 16.797 3.229 16.825 C3.85 16.83 3.85 16.83 6.993 16.856 C10.275 16.886 13.555 16.932 16.836 16.987 C21.465 17.064 26.095 17.119 30.725 17.163 C33.184 17.187 35.644 17.222 38.103 17.269 C39.218 17.282 40.333 17.295 41.482 17.309 C41.971 17.317 41.971 17.317 44.444 17.359 C47.362 17.129 49.51 16.366 52.155 15.145 C52.155 14.155 52.155 13.165 52.155 12.145 C51.402 12.152 50.649 12.159 49.873 12.165 C42.767 12.226 35.661 12.271 28.554 12.301 C24.901 12.316 21.248 12.338 17.594 12.372 C14.067 12.404 10.54 12.422 7.013 12.43 C5.016 12.438 3.019 12.462 1.022 12.485 C0.412 12.485 0.412 12.485 -2.677 12.486 C-3.75 12.493 -4.823 12.499 -5.928 12.506 C-9.28 12.091 -11.169 11.184 -13.845 9.145 C-14.345 6.645 -14.345 6.645 -13.845 4.145 C-10.475 -0.573 -5.332 0.017 0 0 Z " fill="#FFFFFF" transform="translate(426.8447265625,330.854736328125)"/>
<path d="M0 0 C1 1 1 1 1.125 4 C1 7 1 7 0 8 C-0.273 9.663 -0.518 11.331 -0.75 13 C-1.607 18.03 -3.172 21.731 -5.879 26.027 C-7.013 28.024 -7.554 29.758 -8 32 C-4.542 33.052 -1.339 33.143 2.266 33.174 C3.534 33.187 4.802 33.201 6.108 33.214 C6.783 33.22 7.458 33.225 8.153 33.23 C10.272 33.246 12.39 33.27 14.509 33.295 C20.531 33.365 26.552 33.426 32.574 33.477 C36.262 33.509 39.949 33.55 43.637 33.597 C45.04 33.613 46.443 33.625 47.847 33.634 C49.809 33.646 51.772 33.671 53.734 33.697 C54.85 33.707 55.966 33.718 57.116 33.728 C59.935 33.994 61.606 34.54 64 36 C63.938 38.25 63.938 38.25 63 41 C60.769 42.678 58.526 43.76 56 45 C56.165 45.99 56.165 45.99 57 51 C53.269 53.487 51.356 53.248 46.898 53.243 C46.179 53.245 45.46 53.247 44.719 53.249 C42.343 53.252 39.966 53.242 37.59 53.23 C35.94 53.229 34.29 53.229 32.64 53.229 C29.182 53.228 25.725 53.219 22.267 53.206 C17.83 53.189 13.392 53.185 8.954 53.186 C5.547 53.185 2.141 53.18 -1.266 53.173 C-2.902 53.17 -4.539 53.168 -6.176 53.167 C-8.46 53.165 -10.744 53.156 -13.028 53.145 C-14.329 53.141 -15.63 53.138 -16.97 53.134 C-20 53 -20 53 -22 52 C-21.918 50.989 -21.835 49.979 -21.75 48.938 C-21.99 45.152 -22.18 44.362 -24.125 41.438 C-26 38 -26 38 -25.5 34.938 C-24 32 -24 32 -22.125 29.312 C-18.379 23.474 -16.293 16.993 -15.062 10.188 C-14.142 5.608 -12.333 3.252 -9 0 C-5.503 -1.166 -3.556 -0.773 0 0 Z " fill="#FFFFFF" transform="translate(79,332)"/>
<path d="M0 0 C0.629 0.021 0.629 0.021 3.812 0.125 C4.953 1.773 4.953 1.773 5.812 4.125 C4.984 6.789 4.984 6.789 3.562 9.75 C1.83 13.593 0.479 17.024 -0.188 21.188 C-1.735 30.017 -5.177 36.56 -11.816 42.5 C-14.049 45.146 -13.441 47.823 -13.188 51.125 C-14.688 53.062 -14.688 53.062 -16.188 54.125 C-21.062 52.25 -21.062 52.25 -22.188 51.125 C-22.49 42.038 -20.706 35.176 -16.598 27.145 C-15.288 24.339 -14.648 22.1 -14.188 19.062 C-13.206 12.898 -10.468 7.4 -7.188 2.125 C-4.099 0.066 -3.478 -0.114 0 0 Z " fill="#FFFFFF" transform="translate(298.1875,331.875)"/>
<path d="M0 0 C2 2 2 2 2.273 4.332 C1.964 7.348 1.123 9.067 -0.375 11.688 C-2.2 15.124 -3.324 17.965 -3.875 21.812 C-5.154 29.441 -9.024 38.259 -15.438 42.875 C-18 45 -18 45 -18.375 48.812 C-18.251 49.864 -18.127 50.916 -18 52 C-19.65 52 -21.3 52 -23 52 C-25.483 43.208 -24.058 36.196 -20.293 28.043 C-18.997 24.992 -18.216 22.107 -17.5 18.875 C-15.933 12.175 -13.874 5.505 -8.562 0.875 C-5.513 -0.166 -3.2 -0.356 0 0 Z " fill="#FFFFFF" transform="translate(178,332)"/>
<path d="M0 0 C1.98 0 3.96 0 6 0 C6.66 1.32 7.32 2.64 8 4 C5.75 6.562 5.75 6.562 3 9 C0.688 8.812 0.688 8.812 -1 8 C-1.931 5.394 -2.149 4.358 -1.062 1.75 C-0.712 1.173 -0.361 0.595 0 0 Z " fill="#FFFFFF" transform="translate(10,669)"/>
</svg>
