<svg xmlns="http://www.w3.org/2000/svg" xmlns:xlink="http://www.w3.org/1999/xlink" version="1.1" id="STERN_x5F_WARENZEICHEN_x5F_10mm" x="0px" y="0px" viewBox="0 0 29.35 28.35" style="enable-background:new 0 0 29.35 28.35;" xml:space="preserve">
<style type="text/css">
	.st0{fill:#FFFFFF;}
</style>
<g>
	<g>
		<g>
			<path class="st0" d="M26.95,7.09c-1.24-2.15-3.03-3.94-5.19-5.19C19.61,0.65,17.16,0,14.67,0S9.74,0.65,7.59,1.9     C5.43,3.14,3.64,4.93,2.4,7.09c-1.24,2.15-1.9,4.6-1.9,7.09s0.65,4.93,1.9,7.09c1.24,2.15,3.03,3.94,5.19,5.19     c2.15,1.24,4.6,1.9,7.09,1.9s4.93-0.65,7.09-1.9c2.15-1.24,3.94-3.03,5.19-5.19c1.24-2.15,1.9-4.6,1.9-7.09     S28.19,9.24,26.95,7.09z M1.92,14.17c0-2.24,0.59-4.44,1.71-6.38C4.75,5.86,6.36,4.25,8.3,3.13c1.82-1.05,3.88-1.64,5.98-1.7     L12.65,13l-9.21,7.2C2.44,18.35,1.92,16.28,1.92,14.17z M21.05,25.22c-1.94,1.12-4.14,1.71-6.38,1.71s-4.44-0.59-6.38-1.71     c-1.82-1.05-3.36-2.54-4.46-4.33l10.84-4.38l10.84,4.38C24.41,22.68,22.88,24.17,21.05,25.22z M25.92,20.2L16.7,13L15.07,1.42     c2.1,0.07,4.15,0.65,5.98,1.7c1.94,1.12,3.55,2.73,4.67,4.67c1.12,1.94,1.71,4.14,1.71,6.38C27.43,16.28,26.91,18.35,25.92,20.2z     "/>
		</g>
	</g>
</g>
</svg>