<?xml version="1.0" encoding="UTF-8"?>
<!-- Generator: visioncortex VTracer 0.6.12 -->
<svg version="1.1" xmlns="http://www.w3.org/2000/svg" width="617" height="569" viewBox="0 0 617 569">
<path d="M0 0 C4.732 2.914 6.061 5.839 7.688 11.062 C7.897 11.725 8.106 12.387 8.322 13.07 C9.801 17.9 10.759 22.732 11.543 27.723 C12.158 30.789 13.56 33.235 15 36 C15.815 38.765 16.529 41.549 17.25 44.34 C18 47 18 47 19.5 50.5 C21.167 54.389 22.216 58.258 23.254 62.352 C24 65 24 65 25.035 67.57 C25.933 69.83 26.442 71.866 26.875 74.25 C27.743 78.411 29.255 81.921 31.062 85.75 C32.289 88.694 32.831 91.631 33.438 94.75 C34.043 97.174 34.934 99.243 36 101.5 C37.761 105.228 38.654 108.719 39.438 112.75 C40.043 115.174 40.934 117.243 42 119.5 C43.761 123.228 44.654 126.719 45.438 130.75 C46.043 133.174 46.934 135.243 48 137.5 C49.686 141.101 50.613 144.424 51.383 148.309 C52.67 153.924 54.544 159.394 56.313 164.873 C56.774 166.3 57.232 167.729 57.687 169.158 C58.347 171.233 59.016 173.304 59.688 175.375 C59.885 175.987 59.885 175.987 60.887 179.086 C62 182 62 182 64 184 C68.586 185.377 73.316 185.131 78.058 185.107 C78.515 185.107 78.515 185.107 80.828 185.105 C83.892 185.102 86.955 185.092 90.019 185.082 C92.215 185.078 94.412 185.075 96.608 185.072 C101.338 185.066 106.068 185.056 110.799 185.045 C118.278 185.026 125.757 185.017 133.237 185.009 C143.723 184.997 154.209 184.983 164.696 184.966 C165.361 184.964 166.026 184.963 166.712 184.962 C176.151 184.947 185.59 184.928 195.029 184.908 C195.362 184.908 195.362 184.908 197.043 184.904 C197.707 184.903 198.371 184.901 199.055 184.9 C210.13 184.877 221.206 184.862 232.281 184.852 C239.717 184.846 247.152 184.83 254.587 184.808 C259.213 184.796 263.839 184.793 268.466 184.792 C270.611 184.79 272.756 184.784 274.901 184.775 C277.83 184.763 280.759 184.763 283.688 184.766 C284.112 184.763 284.112 184.763 286.257 184.746 C291.218 184.768 295.294 185.411 300 187 C300 191 300 191 298.523 192.605 C297.814 193.128 297.105 193.65 296.375 194.188 C295.553 194.797 294.73 195.407 293.883 196.035 C291.307 197.791 288.682 199.425 286.019 201.043 C279.28 205.165 273.989 209.751 268.551 215.472 C265.041 219.113 261.755 221.632 257.172 223.848 C250.718 227.272 245.314 232.685 240 237.625 C236.047 241.243 232.023 243.905 227.379 246.543 C222.088 249.783 217.802 254.142 213.562 258.625 C210.478 261.772 207.278 263.613 203.391 265.629 C196.508 269.576 190.575 275.273 184.691 280.555 C183 282 183 282 180 284 C180 285.238 180 286.475 180 287.75 C179.797 289.941 179.797 289.941 179 292 C176.527 293.694 173.925 294.841 171.215 296.121 C167.388 298.358 164.803 301.024 161.812 304.25 C156.598 309.811 151.159 313.688 144.604 317.535 C140.019 320.257 136.467 323.175 132.852 327.125 C128.337 331.697 122.692 335.046 117.125 338.188 C113.341 340.479 110.513 343.497 107.5 346.688 C103.089 351.335 98.6 354.727 93.062 357.938 C86.541 361.721 81.608 366.054 76.448 371.524 C72.979 375.159 69.739 377.644 65.18 379.84 C59.233 383.005 54.185 387.903 49.25 392.438 C45.865 395.468 42.183 397.778 38.312 400.125 C32.192 403.859 27.472 408.29 22.553 413.472 C19.031 417.129 15.742 419.641 11.113 421.816 C8.486 423.288 6.596 425.157 4.438 427.25 C1.579 429.925 -0.044 431.406 -4 431.5 C-8.927 431.627 -11.246 434.595 -14.645 437.883 C-17.005 440.004 -19.307 441.501 -22.062 443.062 C-28.418 446.703 -33.427 451.327 -38.438 456.625 C-41.524 459.775 -44.73 461.614 -48.617 463.637 C-55.088 467.339 -60.567 472.574 -66 477.625 C-69.954 481.244 -73.981 483.905 -78.625 486.547 C-83.189 489.339 -87.107 492.93 -90.711 496.871 C-95.604 502.18 -101 505.606 -107.141 509.282 C-111.785 512.107 -115.465 515.101 -119.148 519.125 C-123.663 523.697 -129.308 527.046 -134.875 530.188 C-138.659 532.479 -141.487 535.497 -144.5 538.688 C-149.487 543.942 -154.735 547.507 -160.982 551.12 C-166.768 554.58 -171.25 558.802 -175.752 563.799 C-177.943 566.187 -179.609 567.854 -182.676 568.996 C-185 569 -185 569 -188 567 C-187.609 563.186 -186.684 560.122 -185.062 556.688 C-183.63 553.622 -182.643 550.821 -182 547.5 C-181.205 543.412 -179.715 540.012 -177.941 536.262 C-176.688 533.251 -176.117 530.233 -175.496 527.043 C-175 525 -175 525 -173.5 522.125 C-172.042 519.087 -171.569 516.859 -171.062 513.562 C-170.372 509.251 -169.296 506.481 -166.938 502.875 C-165.724 500.449 -165.407 498.177 -165 495.5 C-164.344 491.191 -163.291 488.475 -160.938 484.875 C-159.358 481.716 -159.097 478.322 -158.688 474.844 C-157.946 471.775 -156.564 469.561 -154.945 466.879 C-153.324 463.656 -153.013 460.294 -152.562 456.75 C-151.614 450.399 -150.059 445.247 -147.125 439.484 C-145.623 436.167 -145.118 432.904 -144.527 429.332 C-143.83 426.25 -142.447 423.815 -140.938 421.062 C-139.868 418.709 -139.435 416.545 -139 414 C-138.423 410.621 -137.648 408.005 -136 405 C-133.926 401.211 -133.225 397.606 -132.496 393.375 C-131.8 390.044 -130.358 387.112 -129 384 C-128.659 382.548 -128.348 381.089 -128.062 379.625 C-127.23 375.498 -125.728 372.042 -123.938 368.25 C-122.996 365.99 -122.466 363.899 -122 361.5 C-121.205 357.409 -119.713 354.007 -117.938 350.254 C-116.706 347.292 -116.172 344.334 -115.57 341.195 C-114.956 338.832 -114.04 336.954 -112.875 334.812 C-111.062 331.352 -110.121 328.957 -111 325 C-115.84 320.208 -121.412 317.666 -127.562 314.875 C-129.419 314.021 -131.275 313.164 -133.129 312.305 C-133.99 311.907 -134.851 311.51 -135.738 311.1 C-138 310 -138 310 -140.793 308.266 C-143.451 306.741 -145.732 306.368 -148.75 305.875 C-157.006 304.126 -163.773 300.142 -171.042 296.033 C-172.977 295.012 -174.921 294.183 -176.953 293.375 C-177.456 293.148 -177.456 293.148 -180 292 C-180.875 289.5 -180.875 289.5 -181 287 C-181.33 286.01 -181.66 285.02 -182 284 C-183.82 283.457 -185.646 282.92 -187.504 282.527 C-188.328 282.353 -189.151 282.179 -190 282 C-191.219 281.75 -192.439 281.5 -193.695 281.242 C-198.646 279.991 -202.868 277.646 -207.312 275.188 C-208.994 274.282 -210.676 273.378 -212.359 272.477 C-213.161 272.046 -213.962 271.616 -214.787 271.173 C-221.629 267.546 -228.418 264.657 -235.906 262.676 C-238 262 -238 262 -241 260 C-242.657 259.528 -244.325 259.094 -246 258.688 C-250.721 257.352 -250.721 257.352 -253.125 254.312 C-253.269 253.931 -253.269 253.931 -254 252 C-253 251 -253 251 -249.711 250.945 C-240.593 251.244 -233.163 252.612 -224.582 255.801 C-220.057 257.316 -215.635 257.946 -210.902 258.445 C-208 259 -208 259 -205.191 260.461 C-201.165 262.403 -197.397 262.912 -193 263.5 C-187.308 264.261 -183.174 265.413 -178 268 C-175.026 268.688 -172.025 269.096 -169 269.5 C-163.308 270.261 -159.174 271.413 -154 274 C-151.026 274.688 -148.025 275.096 -145 275.5 C-136.78 276.599 -136.78 276.599 -133.078 278.504 C-128.016 280.964 -122.541 281.143 -116.992 281.729 C-116.123 281.837 -115.255 281.946 -114.359 282.059 C-113.965 282.101 -113.965 282.101 -111.968 282.318 C-110 283 -110 283 -108.767 284.887 C-107.914 287.237 -107.411 289.536 -107 292 C-105.698 292.182 -104.396 292.364 -103.055 292.551 C-101.328 292.804 -99.601 293.058 -97.875 293.312 C-97.019 293.43 -96.163 293.548 -95.281 293.67 C-90.242 294.426 -86.571 295.69 -82 298 C-79.026 298.688 -76.025 299.096 -73 299.5 C-67.342 300.256 -63.108 301.31 -58 304 C-55.746 304.607 -53.473 305.15 -51.188 305.625 C-45.094 306.906 -45.094 306.906 -44 308 C-44.419 313.239 -45.937 317.213 -48 322 C-48.342 323.452 -48.653 324.911 -48.938 326.375 C-49.576 329.577 -50.498 332.233 -51.941 335.156 C-54.532 340.836 -55.425 346.593 -56.422 352.715 C-57.15 356.8 -57.901 360.194 -60.059 363.77 C-61.958 366.931 -62.606 368.958 -63.062 372.562 C-63.734 376.933 -64.947 380.065 -67 384 C-67.347 385.43 -67.657 386.868 -67.938 388.312 C-68.605 391.706 -69.615 394.515 -71.125 397.625 C-73.05 401.683 -73.379 404.547 -73 409 C-67.784 407.232 -64.224 405.59 -60 402 C-58.797 401.304 -57.588 400.617 -56.375 399.938 C-52.557 397.63 -49.622 394.706 -46.562 391.5 C-42.768 387.54 -39.166 384.664 -34.246 382.227 C-26.991 378.265 -20.834 372.06 -14.812 366.469 C-13 365 -13 365 -11 365 C-10.67 364.01 -10.34 363.02 -10 362 C-7.41 361.367 -7.41 361.367 -4.062 360.875 C4.421 359.11 8.964 354.497 14.609 348.207 C18.504 343.981 22.716 341.275 27.625 338.375 C34.221 334.469 39.306 330.037 44.551 324.477 C48.021 320.84 51.265 318.357 55.824 316.156 C62.033 312.857 67.262 307.7 72.375 302.938 C76.721 298.997 81.477 296.184 86.594 293.348 C89 292 89 292 90 291 C90.072 289.951 90.144 288.901 90.219 287.82 C91.162 283.209 93.177 280.979 96.5 277.875 C97.043 277.35 97.586 276.825 98.146 276.284 C101.751 272.899 105.334 270.371 109.789 268.191 C116.045 264.82 121.335 259.63 126.562 254.875 C131.277 250.629 136.367 246.613 142.199 244.023 C144 243 144 243 145 240 C143.127 237.389 141.987 236.997 138.781 236.375 C137.355 236.236 135.928 236.112 134.5 236 C133.708 235.926 132.915 235.852 132.099 235.775 C126.895 235.299 121.685 234.893 116.477 234.472 C113.32 234.215 110.165 233.954 107.009 233.693 C104.647 233.502 102.286 233.321 99.924 233.141 C98.441 233.021 96.959 232.901 95.477 232.781 C94.797 232.732 94.117 232.683 93.417 232.633 C90.61 232.398 88.203 232.084 85.588 231.006 C82.97 229.988 80.898 229.642 78.109 229.438 C77.164 229.364 76.219 229.291 75.245 229.215 C74.233 229.144 73.222 229.073 72.18 229 C71.652 228.959 71.652 228.959 68.984 228.754 C65.615 228.495 62.245 228.247 58.875 228 C55.526 227.753 52.178 227.503 48.83 227.246 C46.75 227.087 44.67 226.933 42.589 226.785 C36.797 226.344 31.197 225.544 25.494 224.446 C22.233 223.863 19.006 223.613 15.699 223.438 C14.402 223.364 13.105 223.291 11.769 223.215 C11.102 223.18 10.435 223.145 9.748 223.109 C6.223 222.923 2.699 222.71 -0.824 222.5 C-1.523 222.459 -2.221 222.417 -2.941 222.375 C-9.176 222.001 -15.402 221.542 -21.625 221 C-22.062 220.965 -22.062 220.965 -24.275 220.785 C-25.084 220.712 -25.893 220.638 -26.727 220.562 C-27.413 220.502 -28.1 220.441 -28.807 220.379 C-31 220 -31 220 -33.585 219.027 C-38.326 217.601 -42.994 217.347 -47.918 217 C-48.444 216.959 -48.444 216.959 -51.109 216.754 C-54.468 216.495 -57.828 216.247 -61.188 216 C-64.529 215.753 -67.871 215.503 -71.212 215.246 C-73.287 215.087 -75.362 214.933 -77.437 214.785 C-83.14 214.349 -88.64 213.553 -94.254 212.473 C-98.931 211.668 -103.634 211.344 -108.363 211 C-110.488 210.833 -112.612 210.667 -114.736 210.5 C-118.039 210.248 -121.341 209.998 -124.644 209.75 C-127.863 209.506 -131.082 209.254 -134.301 209 C-134.793 208.965 -134.793 208.965 -137.284 208.785 C-141.051 208.486 -144.402 208.2 -147.997 206.998 C-152.501 205.501 -157.026 205.358 -161.742 205.035 C-163.883 204.873 -166.023 204.711 -168.164 204.549 C-171.505 204.305 -174.846 204.065 -178.188 203.825 C-189.619 202.998 -200.711 202.017 -211.942 199.694 C-220.497 198.088 -229.326 197.936 -238 197.438 C-240.878 197.269 -243.755 197.098 -246.632 196.918 C-248.404 196.807 -250.176 196.703 -251.948 196.607 C-255.741 196.371 -259.277 196.011 -262.946 195.002 C-267.747 193.696 -272.533 193.48 -277.484 193.219 C-279.491 193.098 -281.497 192.977 -283.504 192.855 C-286.64 192.676 -289.776 192.499 -292.912 192.323 C-295.957 192.149 -299.002 191.966 -302.047 191.781 C-302.985 191.732 -303.924 191.683 -304.891 191.633 C-305.766 191.579 -306.641 191.526 -307.542 191.471 C-307.925 191.449 -307.925 191.449 -309.864 191.341 C-312.224 190.964 -313.928 190.168 -316 189 C-309.529 182.529 -291.561 184.915 -282.72 184.9 C-278.805 184.902 -274.89 184.918 -270.976 184.934 C-268.804 184.939 -266.633 184.944 -264.461 184.948 C-259.818 184.958 -255.176 184.971 -250.533 184.986 C-243.192 185.009 -235.851 185.022 -228.509 185.034 C-207.646 185.067 -186.783 185.109 -165.92 185.171 C-154.372 185.206 -142.824 185.23 -131.276 185.242 C-123.976 185.25 -116.677 185.271 -109.378 185.302 C-104.848 185.318 -100.318 185.321 -95.788 185.321 C-93.685 185.323 -91.583 185.331 -89.481 185.344 C-86.615 185.361 -83.75 185.36 -80.884 185.354 C-80.049 185.363 -79.215 185.373 -78.355 185.383 C-73.729 185.35 -70.781 184.956 -67 182 C-63.709 178.1 -63.338 173.824 -62.723 168.914 C-61.956 165.821 -60.578 163.582 -58.943 160.875 C-57.323 157.654 -57.013 154.292 -56.562 150.75 C-55.614 144.399 -54.059 139.247 -51.125 133.484 C-49.623 130.167 -49.118 126.904 -48.527 123.332 C-47.831 120.252 -46.448 117.818 -44.941 115.066 C-43.519 111.945 -43.075 108.738 -42.496 105.375 C-41.8 102.044 -40.358 99.112 -39 96 C-38.659 94.548 -38.348 93.089 -38.062 91.625 C-37.23 87.498 -35.728 84.042 -33.938 80.25 C-32.996 77.99 -32.466 75.899 -32 73.5 C-31.204 69.408 -29.711 66.005 -27.938 62.25 C-26.996 59.99 -26.466 57.899 -26 55.5 C-25.204 51.408 -23.711 48.005 -21.938 44.25 C-20.996 41.99 -20.466 39.899 -20 37.5 C-19.206 33.415 -17.717 30.017 -15.945 26.27 C-14.691 23.257 -14.064 20.247 -13.492 17.043 C-13 15 -13 15 -12.008 13.062 C-10.463 9.901 -10.128 6.593 -9.562 3.145 C-9.377 2.437 -9.191 1.729 -9 1 C-5.9 -0.55 -3.421 -0.29 0 0 Z " fill="#FFFFFF" transform="translate(316,0)"/>
<path d="M0 0 C2.625 0.375 2.625 0.375 4.312 2.25 C5.781 5.746 6.372 9.042 7.027 12.762 C7.802 16.149 9.195 19.038 10.688 22.16 C11.639 24.408 12.161 26.483 12.625 28.875 C13.259 32.136 14.206 34.871 15.625 37.875 C17.386 41.603 18.279 45.094 19.062 49.125 C19.668 51.549 20.559 53.618 21.625 55.875 C23.386 59.603 24.279 63.094 25.062 67.125 C25.862 70.324 27.278 73.142 28.684 76.113 C29.936 79.121 30.508 82.136 31.125 85.324 C31.625 87.375 31.625 87.375 33.188 90.375 C34.558 93.235 34.815 94.626 35 97.688 C35.286 101.393 36.19 103.707 38.125 106.875 C40.507 110.781 41.11 113.745 41.391 118.262 C41.76 121.588 43.244 124.348 44.625 127.375 C47.069 134.581 48.827 141.988 50.625 149.375 C50.957 150.709 51.29 152.042 51.625 153.375 C49.895 154.117 49.895 154.117 47.625 154.375 C45.574 152.82 45.574 152.82 43.312 150.5 C39.152 146.525 35.001 143.639 30 140.812 C24.65 137.773 20.551 134.65 16.371 130.074 C14.071 127.836 11.661 126.78 8.758 125.488 C2.68 122.316 -2.435 117.25 -7.438 112.625 C-10.073 110.262 -12.236 108.923 -15.562 107.75 C-20.418 105.858 -23.316 102.594 -26.812 98.875 C-33.415 91.863 -33.415 91.863 -38.312 90.438 C-44.441 88.614 -47.942 83.965 -52.19 79.443 C-56.219 75.255 -59.494 72.968 -65.129 71.293 C-68.77 69.805 -71.004 67.061 -73.617 64.199 C-75.375 62.375 -75.375 62.375 -78.312 60.625 C-80.375 59.375 -80.375 59.375 -81.312 57.312 C-81.333 56.673 -81.354 56.034 -81.375 55.375 C-78.306 52.306 -75.175 52.264 -70.969 52.094 C-70.556 52.075 -70.556 52.075 -68.465 51.98 C-67.602 51.945 -67.602 51.945 -63.285 51.77 C-62.459 51.732 -61.633 51.695 -60.781 51.656 C-60.032 51.626 -59.282 51.596 -58.51 51.564 C-56.375 51.375 -56.375 51.375 -54.457 50.871 C-51.827 50.245 -49.359 50.211 -46.656 50.164 C-45.559 50.136 -44.462 50.107 -43.332 50.078 C-41.028 50.026 -38.723 49.982 -36.418 49.945 C-35.321 49.914 -34.224 49.883 -33.094 49.852 C-32.093 49.832 -31.092 49.812 -30.061 49.792 C-26.951 49.309 -25.63 48.54 -23.375 46.375 C-22.202 44.597 -22.202 44.597 -21.27 42.652 C-21.098 42.301 -21.098 42.301 -20.229 40.521 C-19.885 39.793 -19.541 39.064 -19.188 38.312 C-18.832 37.58 -18.477 36.847 -18.111 36.092 C-17.191 34.19 -16.282 32.283 -15.375 30.375 C-15.045 29.715 -14.715 29.055 -14.375 28.375 C-14.272 27.033 -14.192 25.688 -14.125 24.344 C-13.551 18.747 -11.219 14.646 -8.375 9.875 C-8.143 9.47 -8.143 9.47 -6.969 7.422 C-2.954 0.466 -2.954 0.466 0 0 Z " fill="#FA8000" transform="translate(446.375,413.625)"/>
</svg>
