<?xml version="1.0" encoding="UTF-8"?>
<svg width="98px" height="106px" viewBox="0 0 98 106" version="1.1" xmlns="http://www.w3.org/2000/svg" xmlns:xlink="http://www.w3.org/1999/xlink">
    <title>• AP/1.Atoms/6.Logo/desktop/NBi21 white</title>
    <g id="•-AP/1.Atoms/6.Logo/desktop/NBi21-white" stroke="none" stroke-width="1" fill="none" fill-rule="evenodd">
        <path d="M49.0006046,5 C63.1424432,5 77.8209096,6.20731971 92.7198123,8.77874093 C92.9422435,14.7514284 93.1945983,23.9835796 92.7706822,31.8176764 C91.8211103,49.2843671 87.9769401,62.8414989 80.6686278,74.4832964 C73.3832569,86.0911412 62.1021034,96.07225 49.0006046,102 C35.8991058,96.07225 24.6169548,86.0911412 17.3315839,74.4832964 C10.0242691,62.8414989 6.17910139,49.2843671 5.23052695,31.8176764 C4.80461602,23.9835796 5.05796819,14.7514284 5.28039942,8.77874093 C20.1793022,6.20731971 34.858766,5 49.0006046,5 Z M49.0006046,6.68265816 C35.0592533,6.68265816 20.9054454,7.86800844 6.9112293,10.2077521 C6.60401487,19.0684202 6.60401487,26.1186081 6.9092344,31.7268029 C7.84085221,48.8959078 11.6052265,62.198394 18.7549443,73.5885417 C25.9036647,84.9776908 36.6232541,94.3855974 49.0006046,100.149575 C61.3769576,94.3855974 72.0975445,84.9776908 79.2462649,73.5885417 C86.3959827,62.198394 90.1593595,48.8959078 91.0919748,31.7268029 C91.3971943,26.1186081 91.3971943,19.0684202 91.0899799,10.2077521 C77.0957638,7.86800844 62.9409584,6.68265816 49.0006046,6.68265816 Z M48.8787163,57.6877717 C48.8787163,57.6877717 49.1540123,59.3224965 49.2377981,59.7968364 C49.2846782,60.0654625 49.2946527,60.1373624 49.2268261,60.4009955 C49.0068529,61.2487086 47.9904799,65.7170382 47.1768811,70.291077 L47.0502489,71.0136597 C46.7178336,72.9401564 46.4306903,74.8525968 46.2634038,76.4886055 C46.1686461,77.4183116 46.199567,77.6410017 46.4449396,78.4658537 C47.1401618,80.7966099 49.7115866,86.8861348 50.2053241,87.9965893 C50.2601838,88.1194183 50.2930996,88.248239 50.3090588,88.3810542 L50.3090588,88.3810542 L50.4945844,89.8170556 C49.6706911,88.5717887 45.1941379,80.3362506 43.4356345,75.7755979 C43.228165,75.2383456 43.188267,74.9737139 43.4176804,73.9860884 C44.6405535,68.7463808 47.9490934,59.8427724 48.8787163,57.6877717 Z M42.3504095,45.0303876 C42.3504095,45.0303876 42.6944032,46.1456599 43.0261084,47.3568109 L43.1420904,47.7865972 C43.3516615,48.5757511 43.538538,49.3548357 43.6061984,49.8476831 C43.6710326,50.322023 43.6600606,50.4498451 43.4914917,50.9042127 C43.0827187,51.9925767 42.3305191,53.7432514 41.528113,55.5329713 L41.1820057,56.3005675 C40.1975032,58.4718998 39.2007361,60.5695186 38.7167011,61.4774973 C38.4783106,61.9248747 38.2538845,62.2164688 37.8050322,62.6728337 C36.7806516,63.7163813 34.819666,65.6886364 33.60577,66.7921007 C33.1648973,67.193542 33.0462008,67.5360653 32.9564304,68.0553426 C32.8118002,68.8891821 32.6681675,70.3122016 32.6282695,71.0471787 C32.5933588,71.6932795 32.698091,71.9958583 33.0581702,72.6359675 C35.1976993,76.4556514 42.340435,85.243421 44.3752319,87.0888526 C44.5228544,87.2226664 44.630579,87.3125413 44.9417832,87.5192536 C45.241018,87.7189757 46.2165236,88.3520945 46.2165236,88.3520945 C46.2554242,88.379057 46.28834,88.4150069 46.3132762,88.45595 L46.3132762,88.45595 L46.6663733,89.0780841 C46.6663733,89.0780841 46.6333809,89.0617197 46.5738664,89.0321383 L46.4213918,88.9562856 C46.298723,88.8952122 46.1365725,88.8143724 45.9502775,88.7212269 L45.4968399,88.4940312 C44.8017142,88.1449572 43.9730603,87.7250073 43.5373744,87.4902939 C43.3578334,87.3934287 43.1892645,87.2795872 43.0326649,87.1487692 C40.6497581,85.1675266 33.3474306,76.6144304 31.1999219,73.0434004 C30.6642915,72.1516415 30.6094318,71.8630432 30.6812481,71.0192176 C30.8159038,69.4484038 31.0243707,67.4731528 31.206904,66.6073578 C31.3176209,66.0850847 31.4323276,65.7785114 31.8323048,65.3171534 C33.1764012,63.768531 34.8158781,61.7240894 36.4134434,59.6263399 L36.9750005,58.8844648 C39.3961134,55.6663258 41.626372,52.4452679 42.4591315,50.8043517 C42.6496443,50.4308715 42.6656035,50.3010521 42.6695933,49.9485427 C42.6805653,48.9259659 42.3543993,46.9347372 42.2686186,46.4314377 C42.2556518,46.3525475 42.251662,46.2726587 42.2586441,46.1927699 L42.2586441,46.1927699 Z M62.2798489,43.1111587 L62.8972701,43.3797848 C63.0798033,43.458675 63.2463774,43.5745138 63.3840254,43.7183137 C67.1693462,47.67281 70.1966053,51.7731034 70.8030546,52.8535996 C70.9197562,53.0613105 70.9995521,53.2690215 71.0284782,53.5066907 C71.7087387,59.2736645 71.1242333,65.3831616 69.7347862,70.697765 C69.6091076,71.1770979 69.4684672,71.422756 69.0076455,71.7692737 C67.5242568,72.8861284 65.3099221,74.6670001 63.1077909,76.4826968 L62.4136535,77.0564985 C59.7609937,79.254883 57.2408475,81.4072464 56.1714683,82.3974819 C55.9031544,82.6471344 55.6687538,82.9287425 55.4772435,83.2413075 C54.9757566,84.057172 54.2100695,85.461246 53.8341269,86.1581477 L53.7291263,86.3532039 C53.6536934,86.4936434 53.6100181,86.5756669 53.6100181,86.5756669 C53.1112933,85.4861831 52.0240734,82.8278828 51.6510273,81.7533783 C51.5293385,81.4028661 51.5073946,81.2191218 51.6360656,80.7497751 C52.2445098,78.5218757 55.1201566,72.0448901 55.6797257,70.8735204 L55.6797257,70.8735204 L55.6807232,71.3528532 C55.6807232,71.422756 55.6697512,71.4916601 55.6478073,71.5575683 C55.3954526,72.3235023 53.849406,77.4283976 53.5352094,79.6423164 C53.4653879,80.1346312 53.4713726,80.2674463 53.5352094,80.7507737 C53.6728574,81.7843352 54.2902786,83.6796973 54.2902786,83.6796973 C54.2902786,83.6796973 54.6563426,82.9147619 54.9974703,82.3974819 C55.1650418,82.1438349 55.2657842,82.0220044 55.5390854,81.7503825 C56.9215815,80.3816624 59.2800615,78.2660814 61.7366642,76.1386369 L62.6063452,75.3884783 C64.4932876,73.7672537 66.3772154,72.1896574 67.8655659,70.9843661 C68.2525763,70.6708025 68.3972065,70.4610944 68.4829871,69.8659227 C68.9098955,66.9340032 69.0335792,61.6713275 68.7762373,57.8416575 C68.7273622,57.1186637 68.4929616,56.4196366 68.0860022,55.8194719 C67.1523895,54.438394 66.0362436,53.1312133 64.3435718,51.4525495 C64.1021891,51.2118845 63.9376099,50.9043126 63.875768,50.5687795 C63.3820305,47.9324487 62.2798489,43.1111587 62.2798489,43.1111587 L62.2798489,43.1111587 Z M30.269501,49.2106697 C30.5048991,49.1347753 30.7552589,49.1257878 30.9946468,49.1837072 C32.0738871,49.4433459 34.3580464,50.0035662 36.0846314,50.4459505 C36.3270116,50.5078643 36.6292388,50.7345488 36.7579098,50.94925 L36.7579098,50.94925 L37.1339482,51.5753786 C37.2656116,51.7950728 37.2745886,52.0646976 37.157887,52.2923807 C36.8440229,52.9014378 36.3964056,53.7261404 35.9231736,54.576515 L35.5651365,55.2161412 C34.9061256,56.38673 34.2497994,57.516063 33.8772757,58.1102836 C33.6319032,58.5027374 33.4952526,58.6764956 33.0583697,58.8312802 C31.3597133,59.4294477 29.2501076,60.1444526 27.9963136,60.5508869 C27.7399691,60.6337716 27.653191,60.7895547 27.7030635,61.0741586 C27.792834,61.5924373 28.0820943,63.3519885 28.1928112,63.8652741 C28.2337066,64.05501 28.3853189,64.2058002 28.6665997,64.1518752 C29.4077046,64.0110712 31.3806597,63.5277439 31.3806597,63.5277439 C31.3806597,63.5277439 30.7991467,64.0659947 30.4510368,64.3835528 C30.3872,64.4434694 30.3133888,64.4874082 30.2306005,64.5143707 C29.6929752,64.6941206 28.3803317,65.0626077 27.9713774,65.1524826 C27.6521936,65.2213867 27.4487139,65.0955618 27.366923,64.734065 C27.366923,64.734065 26.8073539,62.3493838 26.6048716,61.5385124 C26.5729533,61.4146847 26.5410349,61.3078334 26.5021343,61.186003 C26.350522,60.7166562 25.986453,59.7939404 25.7809784,59.3106131 C25.7570396,59.2546909 25.7450702,59.1947743 25.74601,59.1328605 C25.7520523,58.580629 25.8537922,57.3483441 25.8537922,57.3483441 C25.8537922,57.3483441 27.0617035,58.4817666 27.6462089,58.8911968 C27.7778722,58.9840675 27.8566707,59.0030411 28.0182575,58.9620981 C28.8212044,58.7553858 30.6674833,58.1442364 31.680892,57.7647645 C31.9123003,57.6778854 32.1147825,57.5320883 32.2723795,57.3413538 C33.3206989,56.0741175 34.6353373,54.102861 35.3943964,52.6159304 C35.4991286,52.4112153 35.5190776,52.1765419 35.4532459,51.9568477 L35.4532459,51.9568477 L35.2896642,51.4175982 C35.2417866,51.2598178 35.0752125,51.0820652 34.9216053,51.0231472 C33.1351733,50.3430936 31.7267747,49.8377969 30.072006,49.2735821 L30.072006,49.2735821 Z M65.5998594,33.8623308 C65.9928545,33.7175323 66.4237527,33.7275184 66.8097656,33.8902919 C69.8041089,35.1485407 74.8392339,38.1084213 77.6380771,40.1935193 C77.9083859,40.3952386 78.0161104,40.5340454 78.0869293,40.8595923 C78.7442485,43.8514284 78.9936109,48.4759922 78.5796694,52.3695733 C78.5497459,52.6491841 78.4938887,52.8169506 78.3482611,53.1155351 C76.574796,56.7454831 74.5788996,60.1617285 72.478271,62.7970608 L72.478271,62.7970608 L72.4825058,62.7539532 C72.5098514,62.4733295 72.6606229,60.8909863 72.6687838,60.034905 C72.6697813,59.9380398 72.7146665,59.8491635 72.7914701,59.7902455 C73.1814729,59.486668 73.7171032,59.0552684 74.0203279,58.792634 C74.1679504,58.6648119 74.2497412,58.5689453 74.3265448,58.4451176 C75.1823565,57.0610439 76.712444,54.1630772 77.3288678,52.4195038 C77.4794826,51.9940958 77.5393296,51.5437227 77.502424,51.0933495 C77.304929,48.6637309 76.9239033,45.297416 76.3563545,43.1004736 C76.2596019,42.7259947 76.0122345,42.4094353 75.6681144,42.2326813 C75.1783667,41.9810316 74.2178229,41.5426417 72.0304162,40.6648633 C71.7271915,40.5430329 71.4439159,40.3742678 71.1945535,40.1645596 C69.7602212,38.9582385 67.5179548,37.1497555 66.122523,36.1092037 C65.7145661,35.8046276 65.1938975,35.6937819 64.6971677,35.8066248 C63.6807667,36.0373038 62.3870747,36.3588562 61.6589366,36.556581 C61.4115691,36.6234879 61.3138191,36.6294796 61.058472,36.5995213 C60.9254787,36.5840761 60.753616,36.5672107 60.5730714,36.5507808 L60.2995167,36.5266946 C59.9815777,36.4995165 59.6832756,36.4765138 59.5663975,36.4676325 L59.5144202,36.4637103 C61.8873525,35.3482627 64.1705143,34.3856025 65.5998594,33.8623308 Z M33.9406138,53.5005992 C33.1985114,54.722898 32.3117788,56.0210913 31.6414927,56.8319627 C31.5537172,56.9378154 31.4370156,57.0197014 31.3043548,57.069632 C30.5712295,57.3442498 29.3493539,57.7576744 28.4496544,58.0322922 L28.4496544,58.0322922 Z M24.1326931,51.8958326 L23.6948128,54.9206228 L22.2056208,53.1710578 C22.476927,52.5828764 23.2698993,52.0276491 24.1326931,51.8958326 L24.1326931,51.8958326 Z M32.154082,34.7708663 L31.7471226,35.2721686 C31.7241813,35.2941381 31.7022374,35.3151089 31.6792961,35.3380769 C31.3212117,35.6027086 29.8140656,36.7581006 29.4061087,37.0816503 C29.2904046,37.1735224 29.2445219,37.2534112 29.2175908,37.3982097 C29.1258254,37.9094981 28.9732157,38.8811458 28.9283304,39.4193967 C28.9153636,39.5771771 28.847537,39.6550687 28.6869477,39.7199784 C27.9877356,40.0045823 27.1588551,40.3041653 26.488569,40.5727915 C26.3449363,40.6297123 26.3050383,40.6516817 26.2202551,40.7165913 C26.153426,40.7685191 25.2627036,41.5644114 25.2627036,41.5644114 C25.2627036,41.5644114 27.1987531,41.0870757 27.9089371,40.9262995 C28.0785035,40.8883523 28.1513173,40.8983384 28.3079169,40.9722355 C28.4545419,41.040141 28.6989171,41.1370062 28.827588,41.1839409 C29.025083,41.2568395 29.1298152,41.2538436 29.3482567,41.2059103 C30.1482111,41.0271591 31.4937705,40.7076039 32.2099392,40.5208637 C32.5819878,40.4239986 32.7854675,40.3231389 33.1006616,40.1024461 C33.4437842,39.8637782 34.3125627,39.2116858 34.3125627,39.2116858 C34.3125627,39.2116858 34.2966035,39.326526 34.2846341,39.390437 C34.275657,39.4453606 34.2557081,39.4763175 34.2197999,39.5192577 C34.0432513,39.7319617 33.734042,40.0784794 33.5804348,40.2372585 C33.2283351,40.6017512 33.0178733,40.7315705 32.5760031,40.9163134 C30.5412062,41.765132 27.0640974,43.0832975 24.455767,43.9870397 C24.2852032,44.0469563 24.2113919,44.0958882 24.0847158,44.2257075 C23.9470678,44.3655129 23.7635371,44.5692294 23.7635371,44.5692294 C23.7635371,44.5692294 25.8900993,44.724014 26.539439,44.7989098 C26.7499008,44.8228764 26.9005157,44.8917805 27.061105,45.0305873 C27.5947405,45.489948 29.3612235,47.3104144 29.8898717,47.9425346 C29.8898717,47.9425346 24.8677136,48.7783713 22.540664,49.3565666 C22.2533986,49.427468 22.1097659,49.6102136 22.0449316,49.8408926 C21.8524239,50.5179503 21.3985844,52.6949205 21.3985844,52.6949205 C21.3985844,52.6949205 21.2369976,52.6429927 21.011574,52.5131734 C20.8569693,52.4242971 20.7781708,52.3504 20.6086044,52.1706501 C20.0580123,51.5884604 19.1533256,50.4740114 18.7184377,49.8279106 C18.5907641,49.6371761 18.5369019,49.3945138 18.6964938,49.1997848 C19.1682874,48.6185937 20.1158644,47.5580697 20.6385279,47.0128285 C20.6943851,46.9539105 20.765204,46.8510537 20.8400127,46.7032594 C21.0158755,46.3535586 21.2477085,45.4678967 21.3284632,45.1480676 L21.3542532,45.0446437 L21.3542532,45.0446437 L21.357689,45.0305873 C21.357689,45.0305873 21.352714,45.0337188 21.343685,45.0394022 L21.2482281,45.0994914 C21.1188552,45.1809336 20.9098341,45.3125283 20.8200637,45.3691162 C20.685408,45.4549967 20.6485024,45.4919452 20.5926452,45.6097812 C20.507862,45.7875338 20.359242,46.0681433 20.2465302,46.2628723 C20.2096246,46.3267833 20.1108771,46.4256458 20.0580123,46.4665888 C19.3907186,46.9768786 18.6536034,47.5251156 18.128945,47.8946013 C18.0930368,47.9195666 18.0471542,47.9085819 18.0162332,47.8786236 C17.9494041,47.8117167 17.6691208,47.49316 17.6192483,47.4182643 C17.5773555,47.3553518 17.5583498,47.2964338 17.5583498,47.2205395 C17.5574065,47.0877243 17.5703733,46.8540495 17.5833402,46.6802913 C17.5992994,46.4745776 17.6581489,46.3767139 17.9085087,46.1170752 C18.188792,45.8264796 18.4940115,45.5209049 18.8151903,45.2073413 C19.6021779,44.5442642 21.5890972,42.9305101 25.137025,40.3960375 C25.2038541,40.3481042 25.2646985,40.292182 25.3135736,40.2252751 C25.6866197,39.7219756 26.7449135,38.347888 27.0062453,38.0213425 C27.0431509,37.9754064 27.0840464,37.9324662 27.1309265,37.8955176 C27.5488578,37.5649776 27.7553299,37.4221764 28.1792459,37.1545488 C29.1677183,36.5314161 31.0818238,35.3949977 32.154082,34.7708663 L32.154082,34.7708663 Z M53.778986,33.6469306 C53.927606,33.6209667 54.0802158,33.6419375 54.2168663,33.7068472 L54.2168663,33.7068472 L55.2532163,34.2031564 C55.3549562,34.2520883 55.4297649,34.3449591 55.456696,34.4568034 C55.5973364,35.0499779 55.7698952,35.8358841 55.8855993,36.5039543 C55.9324794,36.7815679 55.8806121,37.0651732 55.7399717,37.3098327 C55.3110684,38.0557945 54.4303205,39.3979266 53.9375805,40.1189231 C53.827861,40.280698 53.8148942,40.4764256 53.8488075,40.6691574 C54.0722362,41.9054368 55.003854,46.2224286 55.003854,46.2224286 L55.003854,46.2224286 L54.4173537,45.6881721 C54.3006521,45.5803222 54.2238485,45.4664807 54.173976,45.3176878 C53.7570421,44.0963875 52.9770366,41.5449385 52.6179548,40.303666 C52.5601028,40.0989509 52.6039905,39.8802553 52.7386462,39.7174819 C53.3500827,38.9745159 54.2408051,37.7861698 54.7614737,37.0332177 C54.9071014,36.8215123 54.9549789,36.5878375 54.8691983,36.4130808 C54.7495044,36.1674227 54.5480196,35.7939425 54.3545144,35.4554136 C54.302647,35.3615442 54.2158689,35.2916415 54.1131316,35.2576888 L54.1131316,35.2576888 L53.4099297,35.0320029 C53.2872434,34.9930571 53.1555801,34.9950543 53.0338913,35.0389932 C51.5018089,35.595219 49.4410783,36.397103 48.1803021,36.9203747 C47.995774,36.9972677 47.9199678,37.0032594 47.6965392,36.9693066 C47.3314726,36.9153817 46.2681915,36.7246471 45.7465254,36.6267833 C45.6527652,36.6088084 45.6058851,36.5029557 45.6537626,36.420071 L45.6537626,36.420071 L46.2721813,35.3475637 C46.3559671,35.2027652 46.4946125,35.0999084 46.6581943,35.0629598 C48.6471085,34.6095908 51.2773827,34.0883163 53.778986,33.6469306 Z M31.770064,38.5722757 C31.8648217,38.5642868 31.9545921,38.6172132 31.9914978,38.7040922 C32.1161789,38.9946878 32.0822657,39.3192361 31.9615743,39.5968497 C31.9146941,39.7096927 31.770064,39.8195398 31.6513675,39.8455037 L31.6513675,39.8455037 L30.6589053,40.0661965 C30.5990583,40.0791785 30.5441986,40.0312452 30.5481884,39.97033 L30.5481884,39.97033 L30.6409512,38.8039533 C30.6479333,38.7250631 30.7097752,38.6621506 30.7885737,38.656159 L30.7885737,38.656159 Z M43.0627879,31.0778001 C43.1774946,31.0768075 43.2493109,31.2006352 43.1924563,31.2994976 L43.1924563,31.2994976 L40.7726439,35.4706923 C40.6379882,35.7163504 40.4125647,35.8990961 40.1452482,35.9799835 L40.1452482,35.9799835 L35.6078506,37.4010058 C35.0811972,37.5607834 34.6363348,37.6466639 34.0877376,37.6886055 C33.081311,37.7644999 30.091955,37.8583693 30.091955,37.8583693 L30.091955,37.8583693 L30.1577867,37.7165666 C30.1887076,37.6496598 30.2435673,37.5967334 30.3113939,37.5677737 L30.3113939,37.5677737 L31.7257772,36.9666104 C31.8315069,36.9216729 31.9242697,36.8527688 31.9950886,36.7638925 L31.9950886,36.7638925 L34.1795029,34.0716395 C34.2962045,33.9278396 34.4488143,33.7900314 34.6113985,33.7041509 C36.0547079,32.9442086 38.6211454,31.8027971 40.4185493,31.2016338 C40.5881158,31.144713 40.8165317,31.1087631 40.9950751,31.1067658 L40.9950751,31.1067658 Z M40.6369908,26.2339476 C45.6441871,25.7935605 52.4198614,25.6737273 58.892311,26.1640449 C59.2603698,26.192006 59.6184542,26.2788851 59.9585845,26.4226849 C62.079162,27.3154424 65.8415414,29.2687239 70.0248445,31.6643898 C70.2093727,31.7702424 70.3829289,31.8940701 70.5425208,32.0348741 C71.6506872,33.0125135 74.4585074,35.8885108 74.4585074,35.8885108 L74.4585074,35.8885108 L73.5827468,35.7147527 C73.4600605,35.690786 73.3453538,35.6428527 73.2416191,35.57295 C71.4701488,34.3816081 68.8837623,32.8307665 66.7163046,31.7372883 C66.4589627,31.6084676 66.1806743,31.525583 65.8944063,31.4956246 C64.8401022,31.3827817 63.4147469,31.2839193 62.4821316,31.2459721 C62.0223074,31.2269985 61.7091083,31.1501055 61.2592586,30.9214238 C60.3994571,30.4850311 58.3167826,29.5393473 57.2794352,29.1428991 C56.8355702,28.9731353 56.6091491,28.9331909 56.1742612,28.9401812 C54.391819,28.9661451 50.3312022,29.0959644 48.2575047,29.2247851 C48.1856884,29.2287795 48.1168644,29.2257837 48.0470429,29.214799 L48.0470429,29.214799 L47.0585705,29.0600144 C49.8614035,28.5766871 56.7896875,27.9585474 59.6573547,27.8077572 L59.6573547,27.8077572 L58.4903388,27.4173007 C58.2649153,27.3424049 58.0305146,27.3024605 57.7921242,27.2964688 C57.1695856,27.2816199 55.785237,27.2539269 53.9882158,27.2515033 L53.3744035,27.2516836 C50.6524695,27.2569737 47.1504659,27.3238221 43.9205944,27.5670922 C43.6383162,27.588063 43.3630202,27.6559685 43.1036833,27.7708087 C41.7990194,28.3445102 38.617592,30.0714193 35.426907,31.8452318 L34.7184725,32.2397348 C33.8935589,32.6998399 33.0773212,33.1575894 32.302303,33.5937046 C32.302303,33.5937046 32.7002853,33.0814176 32.777089,32.9815566 C32.8449155,32.8946775 32.865862,32.8786997 32.9576273,32.8187831 C33.0858328,32.7346336 33.5235757,32.4459687 33.9648935,32.153062 L34.2917714,31.9357159 C34.5567605,31.7591468 34.7932668,31.6004787 34.9265926,31.5086066 C34.9924242,31.4636691 35.0343171,31.4317136 35.1171054,31.3697998 C36.0776493,30.6448088 37.5937724,29.3665877 38.4974617,28.5746899 C38.7019388,28.3959386 38.875495,28.1882277 39.0181303,27.9565502 C39.310383,27.4832089 39.6295668,26.9699233 39.8260644,26.6853194 C39.9936359,26.4386627 40.2799039,26.2659031 40.6369908,26.2339476 Z M19.3140147,14.7160776 C20.5508521,14.5882555 21.2420846,15.0695856 21.2420846,16.3228414 L21.2420846,16.3228414 L21.2420846,17.0158769 C21.2420846,18.2980923 20.5508521,18.816371 19.3140147,18.9451917 C17.6033889,19.123943 15.8927631,19.3176733 14.1851296,19.5273815 L14.1851296,19.5273815 L14.1851296,21.421745 C13.8270452,21.4656838 13.4679634,21.5096227 13.109879,21.5555588 L13.109879,21.5555588 L13.109879,15.4330797 C15.1755969,15.1714439 17.2433096,14.932776 19.3140147,14.7160776 Z M76.7186282,14.5175539 C79.445655,14.7831842 82.170687,15.0887589 84.8907317,15.4322808 L84.8907317,15.4322808 L84.8907317,16.4199063 C83.7147387,16.2711134 82.5367509,16.1293108 81.3577657,15.995497 L81.3577657,15.995497 L81.3577657,21.1313492 C80.9996813,21.0904061 80.6415969,21.0504617 80.2815177,21.0105173 L80.2815177,21.0105173 L80.2815177,15.8746652 C79.0955503,15.7438472 77.9065905,15.6210182 76.7186282,15.5051794 L76.7186282,15.5051794 Z M31.4164681,13.7128738 L31.4164681,14.6995007 C29.1732043,14.8383075 26.9309379,15.0030782 24.6906664,15.1938127 L24.6906664,15.1938127 L24.6906664,16.7017141 C26.6835704,16.5309518 28.6774719,16.3821589 30.6723708,16.2543367 L30.6723708,16.2543367 L30.6723708,17.2419622 C28.6774719,17.3697843 26.6835704,17.5185772 24.6906664,17.688341 L24.6906664,17.688341 L24.6906664,19.343038 C26.9309379,19.1513049 29.1732043,18.9865342 31.4164681,18.848726 L31.4164681,18.848726 L31.4164681,19.8353529 C28.8221021,19.9951305 26.2297309,20.1908581 23.6383572,20.421537 L23.6383572,20.421537 L23.6383572,14.2980594 C26.2297309,14.0673804 28.8221021,13.8726515 31.4164681,13.7128738 L31.4164681,13.7128738 Z M66.3063529,15.3900396 C66.3063529,14.0169506 66.9866134,13.734344 68.5196933,13.8381994 C69.8662501,13.9310702 71.2108119,14.0319298 72.5563713,14.1437741 C73.8879663,14.2536212 74.7667193,14.6281001 74.7667193,16.0291502 L74.7667193,16.0291502 L74.7667193,18.7633448 C74.7667193,20.138431 74.0076603,20.3860864 72.5563713,20.2662532 C71.2108119,20.1554074 69.8662501,20.0535492 68.5196933,19.961677 C67.0534425,19.8628146 66.3063529,19.5792093 66.3063529,18.1242343 L66.3063529,18.1242343 Z M55.8739291,13.2544119 C58.4712876,13.3163257 61.0676485,13.4141895 63.6640095,13.5480033 L63.6640095,13.5480033 L63.6640095,14.5346302 C61.4197482,14.41979 59.1744894,14.3309137 56.9282332,14.2689998 L56.9282332,14.2689998 L56.9282332,15.7759026 C58.9261245,15.8318248 60.9230184,15.9077192 62.9189147,16.0045843 L62.9189147,16.0045843 L62.9189147,16.9922098 C60.9230184,16.8953446 58.9261245,16.8184516 56.9282332,16.7635281 L56.9282332,16.7635281 L56.9282332,18.4172265 C59.1744894,18.4791404 61.4197482,18.5680167 63.6640095,18.6838555 L63.6640095,18.6838555 L63.6640095,19.6704823 C61.0676485,19.5376672 58.4712876,19.4398034 55.8739291,19.3768909 L55.8739291,19.3768909 Z M42.3585886,13.2490194 L42.3585886,17.6778556 C42.3585886,19.0789056 41.6234683,19.3864776 40.1422558,19.4324137 C38.8525537,19.4723581 37.5628515,19.5202913 36.2731494,19.5782107 C34.898664,19.6401246 34.0588115,19.3784887 34.0588115,17.9914192 L34.0588115,17.9914192 L34.0588115,13.562583 L34.0588115,13.562583 L35.1121182,13.5086581 L35.1121182,18.1242343 C35.1121182,18.4048438 35.3525035,18.6335255 35.6716873,18.6185464 C37.3623642,18.5396561 39.0520436,18.4757451 40.7427204,18.4268132 C41.0638992,18.4178257 41.2773533,18.1721676 41.2773533,17.8915581 L41.2773533,17.8915581 L41.2773533,13.2759819 C41.6374326,13.2659958 41.9975119,13.2570083 42.3585886,13.2490194 L42.3585886,13.2490194 Z M67.9202261,14.7858805 C67.6000449,14.7639111 67.3596595,14.9885983 67.3596595,15.3091522 L67.3596595,15.3091522 L67.3596595,18.3369383 C67.3596595,18.6175477 67.6000449,18.9121377 67.9202261,18.9341072 C69.6667602,19.049946 71.4112993,19.1817625 73.1558384,19.3295568 C73.4351243,19.3535234 73.7144101,19.0968806 73.7144101,18.8172698 L73.7144101,18.8172698 L73.7144101,15.7884851 C73.7144101,15.4689298 73.4351243,15.2042981 73.1558384,15.1803315 C71.4112993,15.0325372 69.6667602,14.9007206 67.9202261,14.7858805 Z M47.0163784,13.1787172 C48.9524278,13.1647367 50.8884772,13.171727 52.8235292,13.1976908 L52.8235292,13.1976908 L52.8235292,14.1843177 C50.754819,14.1573552 48.6851113,14.1513636 46.6154037,14.1683399 C46.3351204,14.1713358 46.0548371,14.413998 46.0548371,14.6946075 L46.0548371,14.6946075 L46.0548371,17.762338 C46.0548371,18.0429474 46.3351204,18.3205611 46.6154037,18.3175652 C48.4716571,18.3015875 50.3269131,18.3045833 52.1831666,18.3255541 L52.1831666,18.3255541 L52.1831666,16.6708571 C51.1059212,16.6588737 50.0286758,16.6528821 48.9524278,16.6538807 L48.9524278,16.6538807 L48.9524278,15.6662552 C50.3807754,15.6662552 51.8091231,15.6772399 53.2374707,15.6982107 L53.2374707,15.6982107 L53.2374707,19.3261615 C51.2306024,19.2962032 49.223734,19.2882143 47.2168657,19.3001977 C45.7476226,19.3101838 45.000533,19.0565368 45.000533,17.6285242 L45.000533,17.6285242 L45.000533,14.9602378 C45.000533,13.6270932 45.6678267,13.1887034 47.0163784,13.1787172 Z M19.7164347,15.6691092 L19.6331986,15.670749 C17.8158456,15.8584877 15.9994901,16.0632028 14.1851296,16.2858928 L14.1851296,16.2858928 L14.1851296,18.539756 C15.9994901,18.3180645 17.8158456,18.1123509 19.6331986,17.9256107 C19.911487,17.8956524 20.1907728,17.6410068 20.1907728,17.3743779 L20.1907728,17.3743779 L20.1907728,16.1341041 C20.1907728,15.8534946 19.911487,15.6417893 19.6331986,15.670749 Z" id="Combined-Shape" fill="#FFFFFF"></path>
    </g>
</svg>