<?xml version="1.0" encoding="UTF-8"?>
<svg version="1.1" xmlns="http://www.w3.org/2000/svg" width="512" height="512">
<path d="M0 0 C-1.4437274 6.82692107 -7.46278231 11.18143572 -12.9375 15.10546875 C-19.18767349 19.1364982 -23.32121159 21.033272 -30.8125 21.3125 C-38.60177399 21.85630968 -42.13844793 23.81780114 -47.23828125 29.58203125 C-51.00538668 33.91569991 -54.39159988 38.47159926 -57.75 43.125 C-63.26064407 50.68341938 -68.92756193 58.08361179 -74.74267578 65.40869141 C-81.99923919 74.5928235 -89.025295 83.96358928 -96.11376953 93.27734375 C-99.74808719 98.05108301 -103.39345887 102.81541006 -107.0625 107.5625 C-111.92525349 113.86849904 -116.69073485 120.24615614 -121.46191406 126.62158203 C-126.58389945 133.45999123 -131.77110495 140.24306636 -137 147 C-142.46844819 154.09639083 -147.9273913 161.20009822 -153.375 168.3125 C-153.9208374 169.02494873 -154.4666748 169.73739746 -155.02905273 170.47143555 C-158.32744951 174.78562005 -161.58913369 179.1250257 -164.82885742 183.48339844 C-172.0399212 193.18013287 -172.0399212 193.18013287 -175.5625 197.0625 C-179.70341672 201.64034798 -183.223282 206.67925465 -186.84375 211.66796875 C-195.47730201 223.55566329 -204.34554661 235.27030757 -213.46484375 246.7890625 C-218.73491007 253.44746883 -223.87207525 260.21054041 -229.0234375 266.9609375 C-230.09893892 268.36980649 -231.17446018 269.77866032 -232.25 271.1875 C-233.06440552 272.25508545 -233.06440552 272.25508545 -233.89526367 273.34423828 C-237.36435142 277.88420731 -240.86774688 282.39556184 -244.39135742 286.89331055 C-249.44029237 293.34224921 -254.38338031 299.82967259 -259.10009766 306.52539062 C-267.31287246 318.1504452 -275.85207484 329.5724898 -284.96484375 340.5078125 C-288.00158769 344.22651237 -290.84728263 348.08094467 -293.7109375 351.93359375 C-296.36298702 355.48625394 -299.06455075 358.99855159 -301.77490234 362.50683594 C-304.49115256 366.02755768 -307.18855422 369.56193743 -309.875 373.10546875 C-316.05610522 381.2553058 -322.2208305 389.38274274 -328.7734375 397.23828125 C-332.28770405 401.59720485 -335.60766195 406.10143012 -338.92871094 410.60864258 C-339.4137207 411.26372803 -339.89873047 411.91881348 -340.3984375 412.59375 C-340.82817871 413.17833984 -341.25791992 413.76292969 -341.70068359 414.36523438 C-343.96807467 417.21800601 -345.320797 418.79328604 -348.875 419.875 C-352.60131711 420.02405268 -354.08159647 419.25133987 -357 417 C-358.301593 414.396814 -358.12606842 412.50792702 -358.12749195 409.5912838 C-358.1304996 408.43574796 -358.13350725 407.28021212 -358.13660604 406.08966005 C-358.13485567 404.80914786 -358.13310529 403.52863566 -358.13130188 402.20932007 C-358.13300298 400.84386117 -358.13515218 399.47840276 -358.13771313 398.1129452 C-358.14232062 395.13549708 -358.14372896 392.15806977 -358.14274788 389.18061829 C-358.14115875 384.33664122 -358.14634943 379.4926849 -358.15237427 374.64871216 C-358.16049672 367.6151467 -358.1654344 360.58158488 -358.16866493 353.54801559 C-358.17415613 342.43080871 -358.1910486 331.3136326 -358.21000671 320.19644165 C-358.21636391 316.39465147 -358.2226723 312.5928612 -358.22898388 308.79107094 C-358.23056764 307.84087117 -358.2321514 306.89067141 -358.23378316 305.91167771 C-358.25172959 295.08874439 -358.26795065 284.26580888 -358.28295898 273.44287109 C-358.28433486 272.45321648 -358.28571073 271.46356186 -358.28712829 270.44391771 C-358.30905018 254.41246525 -358.31981214 238.38102069 -358.32732973 222.34955589 C-358.33540075 205.89643793 -358.35869193 189.4433877 -358.3952834 172.9903084 C-358.41731286 162.83914621 -358.42697168 152.68812327 -358.42078307 142.53693838 C-358.41760847 135.57811168 -358.42893864 128.61940386 -358.45167748 121.66061394 C-358.46434559 117.64544578 -358.47051489 113.63054247 -358.45926094 109.61536407 C-358.44908479 105.9374266 -358.45735706 102.26000303 -358.4801239 98.58212622 C-358.48747259 96.62568891 -358.47519877 94.66920806 -358.46216375 92.71280038 C-358.52728377 85.67114251 -359.17148459 80.97274817 -363 75 C-368.54700059 69.9284566 -375.87000374 69.15427662 -383.10546875 69.35546875 C-391.19641059 70.18208652 -399.16425045 72.49651142 -407.0090332 74.59667969 C-408.22550537 74.91668945 -409.44197754 75.23669922 -410.6953125 75.56640625 C-411.78859863 75.86490479 -412.88188477 76.16340332 -414.00830078 76.47094727 C-417.10283393 77.01818517 -419.02273712 76.95364943 -422 76 C-422.66 75.34 -423.32 74.68 -424 74 C-423.88106825 69.95632039 -422.20387245 66.18783302 -419.9921875 62.8515625 C-415.996953 59.13834455 -410.46852841 58.52645634 -405.27197266 57.46972656 C-401.22299283 56.63260673 -397.20858972 55.6482037 -393.1875 54.6875 C-392.31512695 54.48302246 -391.44275391 54.27854492 -390.54394531 54.06787109 C-382.10966242 52.07598315 -373.7578418 49.80380556 -365.39794922 47.52294922 C-358.5462085 45.66171791 -351.68337685 43.92837994 -344.76318359 42.34301758 C-340.44318761 41.35038511 -336.15606341 40.27380672 -331.875 39.125 C-330.67101562 38.80273438 -329.46703125 38.48046875 -328.2265625 38.1484375 C-325.90910636 37.5232368 -323.59554329 36.88670558 -321.28417969 36.23925781 C-318.27603245 35.39729543 -315.26330124 34.57330371 -312.25 33.75 C-311.30366699 33.47945801 -310.35733398 33.20891602 -309.38232422 32.93017578 C-302.47310423 31.06181105 -294.42844739 29.11839077 -287.58325195 32.02685547 C-282.58293692 34.89884987 -278.85341152 38.43976545 -277 44 C-276.89395528 46.87403061 -276.84514635 49.72443255 -276.84178162 52.59892273 C-276.83684364 53.48761687 -276.83190566 54.376311 -276.82681805 55.29193527 C-276.81141206 58.28145426 -276.80307402 61.27095174 -276.79467773 64.26049805 C-276.78510165 66.39884634 -276.77509173 68.53719273 -276.76467896 70.67553711 C-276.73759462 76.49127753 -276.71660417 82.3070261 -276.69667697 88.12279487 C-276.67483916 94.19669063 -276.6474397 100.2705612 -276.62062073 106.34443665 C-276.57066398 117.85097074 -276.52573622 129.3575188 -276.48259836 140.86408025 C-276.43325146 153.96186166 -276.3783239 167.05961778 -276.32291877 180.15737474 C-276.20905294 207.10489291 -276.10222393 234.05243533 -276 261 C-273.59673253 261.63709276 -273.59673253 261.63709276 -271 262 C-268.91348201 260.53739474 -268.91348201 260.53739474 -267.1875 258.25 C-266.49785156 257.4146875 -265.80820312 256.579375 -265.09765625 255.71875 C-262.3619592 252.1730421 -259.71385121 248.5755351 -257.11328125 244.9296875 C-254.505673 241.31470379 -251.79290694 237.78802537 -249.06518555 234.26318359 C-246.62699104 231.11210175 -244.19975911 227.95344566 -241.7890625 224.78125 C-236.31495573 217.58096529 -230.80940819 210.43513097 -225.0390625 203.46875 C-223.01802036 201.02181776 -221.036393 198.54756051 -219.0625 196.0625 C-216.11955788 192.36630483 -213.10697429 188.73796409 -210.0625 185.125 C-206.01159908 180.30524207 -202.22347167 175.32695993 -198.48046875 170.265625 C-195.59708021 166.42110695 -192.54618956 162.71586008 -189.5 159 C-184.91377637 153.40026452 -180.4773089 147.73440054 -176.16796875 141.91796875 C-168.64558077 131.79324114 -160.80639749 121.905992 -153 112 C-146.97603731 104.35182139 -140.97324974 96.68787614 -135 89 C-127.69883147 79.6041281 -120.39458173 70.21047788 -112.9375 60.9375 C-109.61101325 56.79115186 -106.36175245 52.58945765 -103.12597656 48.37207031 C-97.71361338 41.31935099 -92.27859221 34.28490496 -86.79345703 27.28857422 C-85.60444603 25.7713146 -84.41789147 24.25212653 -83.23388672 22.73095703 C-81.54148256 20.56207382 -79.83532698 18.40476452 -78.125 16.25 C-77.62637451 15.60699951 -77.12774902 14.96399902 -76.61401367 14.30151367 C-71.14589417 7.47785573 -65.62988843 2.61950776 -56.78564453 1.27441406 C-51.34028586 0.73799135 -45.90600061 0.51557559 -40.4375 0.375 C-39.18493408 0.33705322 -37.93236816 0.29910645 -36.6418457 0.26000977 C-24.42834546 -0.07923276 -12.21700936 -0.10566941 0 0 Z " fill="#FBFBFB" transform="translate(471,53)"/>
<path d="M0 0 C3.07186756 2.23121244 5.57814116 4.53399409 7.5625 7.8125 C7.2325 8.8025 6.9025 9.7925 6.5625 10.8125 C6.046875 9.905 5.53125 8.9975 5 8.0625 C2.54004236 4.45797874 -0.29105233 2.20763935 -4.4375 0.8125 C-12.3104421 -0.63992208 -19.68684488 1.73640244 -27.15551758 4.03295898 C-31.03149338 5.21807012 -34.328926 6.13987641 -38.4375 5.8125 C-38.4375 6.8025 -38.4375 7.7925 -38.4375 8.8125 C-40.7475 8.8125 -43.0575 8.8125 -45.4375 8.8125 C-45.4375 9.4725 -45.4375 10.1325 -45.4375 10.8125 C-54.94755832 13.44358266 -64.29584942 15.97684921 -74.09375 17.27734375 C-79.05887371 18.07199556 -83.91426379 19.27819651 -88.79150391 20.49243164 C-91.75284459 21.2222227 -94.37412482 21.8125 -97.4375 21.8125 C-97.4375 22.4725 -97.4375 23.1325 -97.4375 23.8125 C-100.74776371 24.634293 -104.06105671 25.44318483 -107.375 26.25 C-108.30119141 26.48009766 -109.22738281 26.71019531 -110.18164062 26.94726562 C-114.60924854 28.01921281 -118.86376143 28.91216064 -123.41015625 29.265625 C-126.19651264 29.53124377 -127.24136763 29.67712603 -129.59375 31.30078125 C-130.0371875 31.90277344 -130.480625 32.50476563 -130.9375 33.125 C-131.4015625 33.71925781 -131.865625 34.31351563 -132.34375 34.92578125 C-133.48087227 36.88731717 -134.00692029 38.59599307 -134.4375 40.8125 C-126.80687842 39.38378787 -119.38450739 37.83940114 -111.9375 35.625 C-103.35563202 33.28121253 -93.46452412 31.75297175 -85 35.3125 C-84.154375 35.8075 -83.30875 36.3025 -82.4375 36.8125 C-83.4275 37.3075 -83.4275 37.3075 -84.4375 37.8125 C-85.4275 37.4825 -86.4175 37.1525 -87.4375 36.8125 C-99.19660804 35.2302347 -110.19622421 38.39978164 -121.44482422 41.41015625 C-123.27037842 41.8896875 -123.27037842 41.8896875 -125.1328125 42.37890625 C-126.7727417 42.82665405 -126.7727417 42.82665405 -128.44580078 43.28344727 C-131.54033393 43.83068517 -133.46023712 43.76614943 -136.4375 42.8125 C-137.0975 42.1525 -137.7575 41.4925 -138.4375 40.8125 C-138.31856825 36.76882039 -136.64137245 33.00033302 -134.4296875 29.6640625 C-130.434453 25.95084455 -124.90602841 25.33895634 -119.70947266 24.28222656 C-115.66049283 23.44510673 -111.64608972 22.4607037 -107.625 21.5 C-106.75262695 21.29552246 -105.88025391 21.09104492 -104.98144531 20.88037109 C-96.54716242 18.88848315 -88.1953418 16.61630556 -79.83544922 14.33544922 C-72.9837085 12.47421791 -66.12087685 10.74087994 -59.20068359 9.15551758 C-54.88068761 8.16288511 -50.59356341 7.08630672 -46.3125 5.9375 C-45.10851562 5.61523438 -43.90453125 5.29296875 -42.6640625 4.9609375 C-40.34660636 4.3357368 -38.03304329 3.69920558 -35.72167969 3.05175781 C-32.71353245 2.20979543 -29.70080124 1.38580371 -26.6875 0.5625 C-25.74116699 0.29195801 -24.79483398 0.02141602 -23.81982422 -0.25732422 C-15.93246843 -2.39019267 -7.42111439 -4.26344143 0 0 Z " fill="#7C7C7C" transform="translate(185.4375,86.1875)"/>
<path d="M0 0 C0.33 0 0.66 0 1 0 C1.00135653 0.69251917 1.00271306 1.38503833 1.00411069 2.09854293 C1.0847096 43.11623228 1.1756431 84.13388734 1.28005161 125.15152334 C1.29257092 130.0733461 1.30500363 134.99516907 1.31738281 139.91699219 C1.31984881 140.89686459 1.3223148 141.87673699 1.32485552 142.8863025 C1.3646109 158.7653799 1.39734593 174.64446444 1.42749982 190.52356264 C1.45858175 206.80934218 1.49717711 223.09509133 1.54279006 239.38083673 C1.57071183 249.43510203 1.59272884 259.48934502 1.60726251 269.54363874 C1.6177809 276.43234635 1.63557803 283.32101084 1.65916704 290.20968601 C1.67257234 294.18781726 1.68270317 298.16588791 1.68421364 302.14404297 C1.68566613 305.78348096 1.69622377 309.42277285 1.71413441 313.06216601 C1.72130914 315.00772855 1.71864088 316.95331962 1.71566427 318.89889312 C1.72312976 320.04941106 1.73059525 321.199929 1.73828697 322.38531113 C1.74056529 323.38017839 1.74284362 324.37504566 1.74519098 325.40006042 C2.0139981 328.14282941 2.40995375 329.75187735 4 332 C8.00860629 333.27613301 8.00860629 333.27613301 12 333 C14.53577315 331.11204116 16.13090253 328.73613443 17.875 326.125 C22.90474398 319.04762801 22.90474398 319.04762801 25 318 C23.56791291 322.21202085 21.49986422 325.19344298 18.6875 328.625 C17.92824219 329.56601562 17.16898438 330.50703125 16.38671875 331.4765625 C14.04020767 333.9574891 12.06489121 335.5198818 9 337 C5.57400768 336.93148015 3.76620975 336.78801979 1.34338397 334.29622865 C-0.32995222 331.43601699 -0.37288214 329.627814 -0.36914349 326.32284164 C-0.37511663 325.15839012 -0.38108978 323.99393859 -0.38724393 322.79420066 C-0.37413614 320.87398546 -0.37413614 320.87398546 -0.36076355 318.91497803 C-0.36207152 317.54209027 -0.36469778 316.16920323 -0.36853105 314.7963202 C-0.37524974 311.01993946 -0.36322449 307.24381323 -0.34819686 303.46746492 C-0.33526062 299.39660423 -0.33962425 295.32575828 -0.34190369 291.25488281 C-0.34347795 284.20056499 -0.33405277 277.1463303 -0.31719017 270.09203339 C-0.29282546 259.89267477 -0.28499749 249.69335642 -0.2812262 239.49397185 C-0.27465774 222.94680479 -0.25468588 206.39968205 -0.22631836 189.85253906 C-0.19878799 173.77702049 -0.17754941 157.70151395 -0.16479492 141.62597656 C-0.16400675 140.63534492 -0.16321858 139.64471329 -0.16240653 138.62406251 C-0.15849146 133.65443347 -0.15470032 128.68480434 -0.15097082 123.71517515 C-0.11986263 82.4767526 -0.0670161 41.23837883 0 0 Z " fill="#8D8D8D" transform="translate(113,136)"/>
<path d="M0 0 C0.33 0 0.66 0 1 0 C1.00135653 0.68579154 1.00271306 1.37158307 1.00411069 2.07815617 C1.08472138 42.70343731 1.17565975 83.32868386 1.28005161 123.9539112 C1.29257082 128.82938136 1.30500354 133.70485174 1.31738281 138.58032227 C1.31984881 139.55096051 1.3223148 140.52159876 1.32485552 141.52165029 C1.3646036 157.24808867 1.39734187 172.97453426 1.42749982 188.70099362 C1.45858913 204.83196647 1.4971877 220.96290868 1.54279006 237.0938471 C1.57070243 247.05137465 1.59272354 257.00887974 1.60726251 266.96643595 C1.61778636 273.79020777 1.63558936 280.61393614 1.65916704 287.43767526 C1.67256338 291.37745043 1.6827018 295.31716456 1.68421364 299.25696373 C1.68566792 302.86253007 1.6962443 306.46794933 1.71413441 310.07347051 C1.7212962 311.9984108 1.7186437 313.92337984 1.71566427 315.84833115 C1.72312976 316.99038996 1.73059525 318.13244876 1.73828697 319.30911541 C1.74056529 320.29448967 1.74284362 321.27986392 1.74519098 322.29509801 C2.02367474 325.251317 2.59466176 327.38339616 4 330 C7.05272465 330.89830839 7.05272465 330.89830839 10 331 C10 330.34 10 329.68 10 329 C11.32 329.33 12.64 329.66 14 330 C13 331.5625 13 331.5625 11 333 C5.38461538 333 5.38461538 333 3 332 C0.3332153 328.34006628 -0.37430623 325.77118753 -0.36914349 321.27788067 C-0.37511663 320.12885507 -0.38108978 318.97982948 -0.38724393 317.79598492 C-0.3785054 316.53820904 -0.36976688 315.28043315 -0.36076355 313.98454285 C-0.36207196 312.63141601 -0.36469903 311.27828991 -0.36853105 309.92516786 C-0.37524113 306.20805259 -0.3632363 302.4911965 -0.34819686 298.77411425 C-0.33524825 294.76530315 -0.33962513 290.7565068 -0.34190369 286.74768066 C-0.34347717 279.80251283 -0.33406018 272.85742952 -0.31719017 265.91228294 C-0.29281484 255.87076571 -0.2849964 245.82928937 -0.2812262 235.78774575 C-0.27465941 219.49625069 -0.25469208 203.20480068 -0.22631836 186.91333008 C-0.19878367 171.0871605 -0.1775472 155.26100315 -0.16479492 139.43481445 C-0.16400675 138.45938052 -0.16321858 137.48394658 -0.16240653 136.47895404 C-0.15849143 131.58551599 -0.1547003 126.69207785 -0.15097082 121.79863966 C-0.11986784 81.19906176 -0.06702584 40.59953346 0 0 Z " fill="#E9E9E9" transform="translate(114,137)"/>
<path d="M0 0 C-1.0387691 4.81023365 -3.13580552 6.04019146 -7 9 C-7 7.68 -7 6.36 -7 5 C-24.49 5 -41.98 5 -60 5 C-60 5.66 -60 6.32 -60 7 C-63.3 7.33 -66.6 7.66 -70 8 C-62.80899777 0.29535475 -54.24742407 0.91936787 -44.25073242 0.55639648 C-43.03361572 0.51716064 -41.81649902 0.4779248 -40.5625 0.4375 C-38.67011597 0.37381226 -38.67011597 0.37381226 -36.73950195 0.30883789 C-24.49206025 -0.07186 -12.25194921 -0.10597162 0 0 Z " fill="#E3E3E3" transform="translate(471,53)"/>
<path d="M0 0 C0.99 0.495 0.99 0.495 2 1 C1.58492188 1.42925781 1.16984375 1.85851562 0.7421875 2.30078125 C-4.91494603 8.39581005 -9.75208669 14.98769261 -14.64404297 21.70092773 C-19.52829922 28.39477158 -24.59138945 34.91981027 -29.74267578 41.40869141 C-36.99923919 50.5928235 -44.025295 59.96358928 -51.11376953 69.27734375 C-55.5038577 75.04380067 -59.91886872 80.78968002 -64.3515625 86.5234375 C-66.543393 89.38136128 -68.69118054 92.2706738 -70.8359375 95.1640625 C-71.85095337 96.53002563 -71.85095337 96.53002563 -72.88647461 97.92358398 C-74.23266119 99.73767496 -75.57476345 101.5548054 -76.91235352 103.37524414 C-77.52780029 104.20403076 -78.14324707 105.03281738 -78.77734375 105.88671875 C-79.32640381 106.63139404 -79.87546387 107.37606934 -80.44116211 108.14331055 C-82 110 -82 110 -85 112 C-84.43874434 107.89397178 -82.07379238 105.19502663 -79.5625 102.0625 C-78.64696289 100.89727095 -77.73160319 99.73190249 -76.81640625 98.56640625 C-76.11281982 97.67719482 -76.11281982 97.67719482 -75.39501953 96.77001953 C-73.23780013 94.03291056 -71.11987503 91.26606039 -69 88.5 C-68.16687938 87.41650308 -67.33354537 86.33317019 -66.5 85.25 C-66.0875 84.71375 -65.675 84.1775 -65.25 83.625 C-51.5 65.75 -51.5 65.75 -50.25146484 64.12695312 C-49.41318584 63.03715772 -48.57497029 61.94731351 -47.73681641 60.85742188 C-45.72965229 58.24756416 -43.72134848 55.63860895 -41.7109375 53.03125 C-36.49644255 46.26461442 -31.30549376 39.48020334 -26.125 32.6875 C-25.43921875 31.78894287 -24.7534375 30.89038574 -24.046875 29.96459961 C-20.84503626 25.76256527 -17.65712715 21.55207105 -14.515625 17.3046875 C-13.98179199 16.58450439 -13.44795898 15.86432129 -12.89794922 15.12231445 C-11.92117303 13.80120821 -10.94846494 12.47707876 -9.98095703 11.14916992 C-6.95455722 7.05759714 -3.6721061 3.52672947 0 0 Z " fill="#868686" transform="translate(426,77)"/>
<path d="M0 0 C0.66 0 1.32 0 2 0 C0.69957587 2.73567359 -0.73619269 5.17285014 -2.51171875 7.625 C-3.01477539 8.32165771 -3.51783203 9.01831543 -4.03613281 9.73608398 C-4.85355957 10.85672241 -4.85355957 10.85672241 -5.6875 12 C-6.54166504 13.17574585 -6.54166504 13.17574585 -7.41308594 14.37524414 C-16.33492978 26.61799652 -25.2640791 38.86689491 -34.96484375 50.5078125 C-38.00158769 54.22651237 -40.84728263 58.08094467 -43.7109375 61.93359375 C-46.36298702 65.48625394 -49.06455075 68.99855159 -51.77490234 72.50683594 C-54.49115256 76.02755768 -57.18855422 79.56193743 -59.875 83.10546875 C-79.82321703 109.41160851 -79.82321703 109.41160851 -83 111 C-81.59832646 106.83971365 -79.64017289 104.15754736 -76.75 100.875 C-72.24838205 95.64812604 -68.12316523 90.19968953 -64.0625 84.625 C-59.4973077 78.36492012 -54.85692006 72.19379964 -50.03662109 66.12841797 C-46.67723571 61.89085809 -43.41755832 57.58677998 -40.1875 53.25 C-35.78278092 47.33608279 -31.29275266 41.49600694 -26.75 35.6875 C-17.81228967 24.27077111 -17.81228967 24.27077111 -9.625 12.3125 C-9.08875 11.549375 -8.5525 10.78625 -8 10 C-7.34 10 -6.68 10 -6 10 C-6 9.01 -6 8.02 -6 7 C-5.34 6.67 -4.68 6.34 -4 6 C-3.67 5.01 -3.34 4.02 -3 3 C-2.34 3 -1.68 3 -1 3 C-0.67 2.01 -0.34 1.02 0 0 Z " fill="#868686" transform="translate(221,343)"/>
<path d="M0 0 C0.99 0.495 0.99 0.495 2 1 C1.443125 1.73863281 0.88625 2.47726563 0.3125 3.23828125 C-3.35254891 8.11056756 -7.00432216 12.98629951 -10.5625 17.9375 C-16.55207351 26.20597499 -22.80162865 34.28127491 -29.00439453 42.39013672 C-30.81629557 44.75975038 -32.62558288 47.13132392 -34.43359375 49.50390625 C-44.81073498 63.11350343 -55.23479897 76.69394407 -66 90 C-66.33 89.01 -66.66 88.02 -67 87 C-64.6875 83.8125 -64.6875 83.8125 -62 81 C-61.34 81 -60.68 81 -60 81 C-59.67 79.68 -59.34 78.36 -59 77 C-58.34 77 -57.68 77 -57 77 C-56.67 75.68 -56.34 74.36 -56 73 C-55.34 73 -54.68 73 -54 73 C-53.9175 72.443125 -53.835 71.88625 -53.75 71.3125 C-52.76104459 68.26322081 -51.15242534 66.34810037 -49 64 C-48.34 64 -47.68 64 -47 64 C-47 63.01 -47 62.02 -47 61 C-46.01 60.505 -46.01 60.505 -45 60 C-44.67 59.01 -44.34 58.02 -44 57 C-43.34 57 -42.68 57 -42 57 C-41.731875 56.443125 -41.46375 55.88625 -41.1875 55.3125 C-37.58181818 48.29090909 -37.58181818 48.29090909 -35 47 C-34.08063399 45.37457797 -33.16416828 43.74744889 -32.26220703 42.11230469 C-29.82831924 38.03919112 -26.85268998 34.36056016 -23.9375 30.625 C-23.00067383 29.39716797 -23.00067383 29.39716797 -22.04492188 28.14453125 C-21.44099609 27.36722656 -20.83707031 26.58992188 -20.21484375 25.7890625 C-19.66948975 25.08475098 -19.12413574 24.38043945 -18.56225586 23.65478516 C-17 22 -17 22 -14 21 C-13.62304027 19.67833807 -13.29600796 18.34211332 -13 17 C-11.80078125 15.09301758 -11.80078125 15.09301758 -10.3125 13.14453125 C-9.77882813 12.44005859 -9.24515625 11.73558594 -8.6953125 11.00976562 C-8.13585937 10.28466797 -7.57640625 9.55957031 -7 8.8125 C-6.44054687 8.07580078 -5.88109375 7.33910156 -5.3046875 6.58007812 C-1.22737693 1.22737693 -1.22737693 1.22737693 0 0 Z " fill="#8C8C8C" transform="translate(293,249)"/>
<path d="M0 0 C-0.3125 1.875 -0.3125 1.875 -1 4 C-1.99 4.66 -2.98 5.32 -4 6 C-4 4.68 -4 3.36 -4 2 C-23.8 2.66 -43.6 3.32 -64 4 C-59.05716468 -0.94283532 -47.1681818 0.65044546 -40.5625 0.4375 C-38.67011597 0.37381226 -38.67011597 0.37381226 -36.73950195 0.30883789 C-24.49206025 -0.07186 -12.25194921 -0.10597162 0 0 Z " fill="#6E6E6E" transform="translate(471,53)"/>
<path d="M0 0 C0 0.66 0 1.32 0 2 C-2.31 2 -4.62 2 -7 2 C-7 2.66 -7 3.32 -7 4 C-16.45248456 6.61515412 -25.72601423 9.11668187 -35.46484375 10.3984375 C-41.0968293 11.35680852 -46.59518163 12.8471225 -52.11108398 14.32421875 C-56.15414915 15.38657199 -59.77708065 16.32883388 -64 16 C-60.49783658 14.03494571 -56.93761097 13.07498964 -53.0625 12.0625 C-52.40878418 11.89065186 -51.75506836 11.71880371 -51.08154297 11.54174805 C-45.55433555 10.1042472 -39.99436138 8.82845582 -34.4140625 7.61328125 C-32.06509145 7.23550158 -32.06509145 7.23550158 -31 6 C-28.56464182 5.5027436 -26.13556445 5.05025325 -23.6875 4.625 C-17.49929543 3.51646801 -11.43042014 2.18473369 -5.35546875 0.55078125 C-3 0 -3 0 0 0 Z " fill="#B1B1B1" transform="translate(147,93)"/>
<path d="M0 0 C0.33 0.99 0.66 1.98 1 3 C-0.48561196 5.19919783 -1.98959868 7.16138088 -3.6875 9.1875 C-4.71013258 10.44515371 -5.7308971 11.70432818 -6.75 12.96484375 C-7.28496094 13.62339355 -7.81992187 14.28194336 -8.37109375 14.96044922 C-11.06037962 18.32769954 -13.62042716 21.78924513 -16.1875 25.25 C-20.67101901 31.26973362 -25.24928841 37.18736464 -30 43 C-30.495 41.515 -30.495 41.515 -31 40 C-29.47273671 37.73806514 -27.92926571 35.71199588 -26.1875 33.625 C-25.16075504 32.35864281 -24.13472835 31.09170296 -23.109375 29.82421875 C-22.58666016 29.18403809 -22.06394531 28.54385742 -21.52539062 27.88427734 C-19.27775714 25.10783125 -17.10518334 22.27651648 -14.9375 19.4375 C-13.73287109 17.86742187 -13.73287109 17.86742187 -12.50390625 16.265625 C-12.09930176 15.73775391 -11.69469727 15.20988281 -11.27783203 14.66601562 C-8.98031034 11.67054599 -6.6772593 8.67932885 -4.375 5.6875 C-3.52862328 4.58725693 -2.68226692 3.4869982 -1.8359375 2.38671875 C-1.23007812 1.59910156 -0.62421875 0.81148437 0 0 Z " fill="#8F8F8F" transform="translate(372,146)"/>
<path d="M0 0 C-0.66 0.33 -1.32 0.66 -2 1 C-2.99 0.67 -3.98 0.34 -5 0 C-16.75910804 -1.5822653 -27.75872421 1.58728164 -39.00732422 4.59765625 C-40.83287842 5.0771875 -40.83287842 5.0771875 -42.6953125 5.56640625 C-43.78859863 5.86490479 -44.88188477 6.16340332 -46.00830078 6.47094727 C-49.05888344 7.01041296 -51.04131279 6.82833638 -54 6 C-54 5.67 -54 5.34 -54 5 C-52.87980469 4.80664062 -51.75960937 4.61328125 -50.60546875 4.4140625 C-49.13274651 4.1514114 -47.66009381 3.88837017 -46.1875 3.625 C-45.44951172 3.49867187 -44.71152344 3.37234375 -43.95117188 3.2421875 C-40.39405354 2.59836518 -38.04505916 2.03003944 -35 0 C-24.15590503 -3.53894117 -10.30532387 -6.0323847 0 0 Z " fill="#7B7B7B" transform="translate(103,123)"/>
<path d="M0 0 C1.94229492 0.00676758 1.94229492 0.00676758 3.92382812 0.01367188 C7.095101 0.02537399 10.26627546 0.04176887 13.4375 0.0625 C13.1075 0.7225 12.7775 1.3825 12.4375 2.0625 C2.5375 2.0625 -7.3625 2.0625 -17.5625 2.0625 C-17.5625 2.7225 -17.5625 3.3825 -17.5625 4.0625 C-20.8625 4.3925 -24.1625 4.7225 -27.5625 5.0625 C-25.16570741 1.83204042 -23.83403267 1.10775544 -19.8125 0.4375 C-13.22188037 -0.16249289 -6.61131549 -0.04396271 0 0 Z " fill="#C4C4C4" transform="translate(428.5625,55.9375)"/>
<path d="M0 0 C0.33 0.99 0.66 1.98 1 3 C0.06298828 4.7265625 0.06298828 4.7265625 -1.4296875 6.625 C-1.97391357 7.32689453 -2.51813965 8.02878906 -3.07885742 8.75195312 C-3.67158447 9.49380859 -4.26431152 10.23566406 -4.875 11 C-5.46837158 11.75732422 -6.06174316 12.51464844 -6.6730957 13.29492188 C-8.43751413 15.53911529 -10.21659934 17.77087653 -12 20 C-12.48549316 20.61230469 -12.97098633 21.22460938 -13.47119141 21.85546875 C-20.5468184 30.7734092 -20.5468184 30.7734092 -23 32 C-21.57878457 27.74403595 -19.5059688 24.98761875 -16.5625 21.625 C-10.6215627 14.720847 -5.31206323 7.39245302 0 0 Z " fill="#8E8E8E" transform="translate(161,422)"/>
<path d="M0 0 C0 3.40335956 -0.45466088 3.97119083 -2.44921875 6.58203125 C-2.96806641 7.26716797 -3.48691406 7.95230469 -4.02148438 8.65820312 C-4.57126953 9.36912109 -5.12105469 10.08003906 -5.6875 10.8125 C-6.21794922 11.51181641 -6.74839844 12.21113281 -7.29492188 12.93164062 C-10.42968235 17.0433694 -13.66037851 21.05317461 -17 25 C-17 21.87099787 -16.57548683 20.62581138 -15 18 C-14.34 17.67 -13.68 17.34 -13 17 C-11.86649466 14.98330173 -11.86649466 14.98330173 -11 13 C-10.34 13 -9.68 13 -9 13 C-8.67 11.68 -8.34 10.36 -8 9 C-7.34 9 -6.68 9 -6 9 C-5.67 7.68 -5.34 6.36 -5 5 C-4.34 5 -3.68 5 -3 5 C-2.87625 4.360625 -2.7525 3.72125 -2.625 3.0625 C-2.41875 2.381875 -2.2125 1.70125 -2 1 C-1.34 0.67 -0.68 0.34 0 0 Z " fill="#7E7E7E" transform="translate(340,189)"/>
<path d="M0 0 C0 0.66 0 1.32 0 2 C-2.31 2 -4.62 2 -7 2 C-7 2.66 -7 3.32 -7 4 C-10.07909767 4.86996586 -13.16378631 5.71815852 -16.25 6.5625 C-17.12269531 6.80935547 -17.99539062 7.05621094 -18.89453125 7.31054688 C-19.73886719 7.53935547 -20.58320312 7.76816406 -21.453125 8.00390625 C-22.22817383 8.21861572 -23.00322266 8.4333252 -23.80175781 8.65454102 C-26.19024018 9.0298967 -27.720964 8.74681558 -30 8 C-28.02 7.67 -26.04 7.34 -24 7 C-24 6.34 -24 5.68 -24 5 C-20.56382292 4.16114623 -17.12585663 3.32987081 -13.6875 2.5 C-12.22280273 2.14228516 -12.22280273 2.14228516 -10.72851562 1.77734375 C-9.79072266 1.55175781 -8.85292969 1.32617188 -7.88671875 1.09375 C-7.02264404 0.88427734 -6.15856934 0.67480469 -5.26831055 0.45898438 C-3 0 -3 0 0 0 Z " fill="#D1D1D1" transform="translate(147,93)"/>
<path d="M0 0 C0.66 0 1.32 0 2 0 C-0.24751403 4.7590473 -3.31657286 8.86071722 -6.375 13.125 C-6.9525 13.94871094 -7.53 14.77242188 -8.125 15.62109375 C-8.68960938 16.40871094 -9.25421875 17.19632812 -9.8359375 18.0078125 C-10.34688965 18.72598145 -10.8578418 19.44415039 -11.38427734 20.18408203 C-13.11651083 22.13094705 -14.61218865 23.00567162 -17 24 C-15.45463516 20.69291925 -13.57205999 17.75273101 -11.5 14.75 C-10.8915625 13.85796875 -10.283125 12.9659375 -9.65625 12.046875 C-9.1096875 11.37140625 -8.563125 10.6959375 -8 10 C-7.34 10 -6.68 10 -6 10 C-6 9.01 -6 8.02 -6 7 C-5.34 6.67 -4.68 6.34 -4 6 C-3.67 5.01 -3.34 4.02 -3 3 C-2.34 3 -1.68 3 -1 3 C-0.67 2.01 -0.34 1.02 0 0 Z " fill="#919191" transform="translate(221,343)"/>
<path d="M0 0 C0 3.63129359 -0.79256772 4.38911405 -2.9921875 7.1953125 C-3.61480469 7.99324219 -4.23742187 8.79117187 -4.87890625 9.61328125 C-5.53761719 10.44214844 -6.19632813 11.27101563 -6.875 12.125 C-7.52597656 12.96160156 -8.17695313 13.79820312 -8.84765625 14.66015625 C-13.72183745 20.86091872 -13.72183745 20.86091872 -16 22 C-15.38943251 18.80360384 -14.33112909 16.77241194 -12.3828125 14.1796875 C-11.85816406 13.47972656 -11.33351562 12.77976562 -10.79296875 12.05859375 C-10.24253906 11.33800781 -9.69210938 10.61742187 -9.125 9.875 C-8.58230469 9.14667969 -8.03960937 8.41835938 -7.48046875 7.66796875 C-5.09315749 4.51018051 -3.33265382 2.22176921 0 0 Z " fill="#787878" transform="translate(206,365)"/>
<path d="M0 0 C-0.65226562 0.1959375 -1.30453125 0.391875 -1.9765625 0.59375 C-9.80069043 3.27103271 -13.42183173 6.9830239 -17.15625 14.25 C-17.4346875 14.8275 -17.713125 15.405 -18 16 C-18.99342656 13.38922654 -19.07231361 12.21591754 -18.171875 9.52734375 C-15.988986 5.55136736 -14.39152195 2.67621713 -10.21875 0.6484375 C-2.85185185 -1.42592593 -2.85185185 -1.42592593 0 0 Z " fill="#6E6E6E" transform="translate(66,112)"/>
<path d="M0 0 C0.90105469 0.00902344 1.80210938 0.01804687 2.73046875 0.02734375 C3.41753906 0.03894531 4.10460937 0.05054687 4.8125 0.0625 C0.92289684 2.35292945 -3.27354239 3.18417502 -7.625 4.1875 C-8.37587891 4.36925781 -9.12675781 4.55101563 -9.90039062 4.73828125 C-13.73472066 5.63531888 -17.21976954 6.29914396 -21.1875 6.0625 C-20.548125 5.753125 -19.90875 5.44375 -19.25 5.125 C-17.25139179 4.2279837 -17.25139179 4.2279837 -16.1875 3.0625 C-13.51691149 2.92134839 -10.86317762 3.02002893 -8.1875 3.0625 C-8.1875 2.4025 -8.1875 1.7425 -8.1875 1.0625 C-5.17259443 0.05753148 -3.14568308 -0.04085303 0 0 Z " fill="#CFCFCF" transform="translate(83.1875,108.9375)"/>
<path d="M0 0 C-3.49240105 3.49240105 -7.20878644 3.22213226 -11.9375 3.5 C-17.54064533 3.81147283 -17.54064533 3.81147283 -23 5 C-19.72131991 0.78620341 -15.23898331 1.01380389 -10.25390625 0.33984375 C-6.779308 -0.02304946 -3.48513377 -0.16209925 0 0 Z " fill="#7D7D7D" transform="translate(452,71)"/>
<path d="M0 0 C0.66 0.33 1.32 0.66 2 1 C-2.5 7 -2.5 7 -7 13 C-7.82564453 14.18335938 -7.82564453 14.18335938 -8.66796875 15.390625 C-9.10753906 15.92171875 -9.54710937 16.4528125 -10 17 C-10.66 17 -11.32 17 -12 17 C-10.25477062 12.94785821 -7.5771843 9.69396039 -4.875 6.25 C-4.40707031 5.64800781 -3.93914062 5.04601562 -3.45703125 4.42578125 C-2.30774993 2.94813384 -1.15428765 1.47373995 0 0 Z " fill="#959595" transform="translate(293,249)"/>
<path d="M0 0 C0 3.25811062 -0.5522078 5.10441559 -2 8 C-2.99 8.33 -3.98 8.66 -5 9 C-5.73323796 11.01508358 -5.73323796 11.01508358 -6 13 C-7.32 13.33 -8.64 13.66 -10 14 C-8.43632643 10.47761953 -6.30504111 7.72876006 -3.875 4.75 C-3.15054688 3.85796875 -2.42609375 2.9659375 -1.6796875 2.046875 C-0.84824219 1.03367187 -0.84824219 1.03367187 0 0 Z " fill="#9C9C9C" transform="translate(237,268)"/>
<path d="M0 0 C7.59 0 15.18 0 23 0 C23 1.65 23 3.3 23 5 C22.01 5.66 21.02 6.32 20 7 C20 5.35 20 3.7 20 2 C13.4 1.67 6.8 1.34 0 1 C0 0.67 0 0.34 0 0 Z " fill="#B1B1B1" transform="translate(444,55)"/>
<path d="M0 0 C0 4.2650016 -2.44473414 6.50032379 -5 9.6875 C-5.71542969 10.59725586 -5.71542969 10.59725586 -6.4453125 11.52539062 C-7.62376394 13.02202396 -8.81105188 14.51169173 -10 16 C-10.33 15.01 -10.66 14.02 -11 13 C-10.525625 12.566875 -10.05125 12.13375 -9.5625 11.6875 C-7.76313043 9.97690387 -7.76313043 9.97690387 -7 7 C-6.34 6.67 -5.68 6.34 -5 6 C-4.505 5.175 -4.01 4.35 -3.5 3.5 C-2 1 -2 1 0 0 Z " fill="#808080" transform="translate(263,290)"/>
<path d="M0 0 C0.33 0.99 0.66 1.98 1 3 C-0.546875 5.4453125 -0.546875 5.4453125 -2.75 8.125 C-3.46671875 9.01445312 -4.1834375 9.90390625 -4.921875 10.8203125 C-7 13 -7 13 -10 14 C-9.1875 12.0625 -9.1875 12.0625 -8 10 C-7.01 9.67 -6.02 9.34 -5 9 C-5 8.01 -5 7.02 -5 6 C-4.34 5.67 -3.68 5.34 -3 5 C-2.67 4.01 -2.34 3.02 -2 2 C-1.34 2 -0.68 2 0 2 C0 1.34 0 0.68 0 0 Z " fill="#949494" transform="translate(251,304)"/>
<path d="M0 0 C0.33 0.99 0.66 1.98 1 3 C-0.36328125 5.26171875 -0.36328125 5.26171875 -2.3125 7.6875 C-2.94800781 8.49574219 -3.58351563 9.30398437 -4.23828125 10.13671875 C-4.81964844 10.75160156 -5.40101563 11.36648437 -6 12 C-6.66 12 -7.32 12 -8 12 C-6.49087042 7.01987239 -3.44338151 3.75740058 0 0 Z " fill="#959595" transform="translate(362,159)"/>
<path d="M0 0 C0.33 0.99 0.66 1.98 1 3 C-0.65234375 5.69921875 -0.65234375 5.69921875 -2.9375 8.6875 C-3.68902344 9.68136719 -4.44054687 10.67523438 -5.21484375 11.69921875 C-5.80394531 12.45847656 -6.39304688 13.21773438 -7 14 C-7.33 13.01 -7.66 12.02 -8 11 C-6.34765625 8.30078125 -6.34765625 8.30078125 -4.0625 5.3125 C-3.31097656 4.31863281 -2.55945313 3.32476562 -1.78515625 2.30078125 C-1.19605469 1.54152344 -0.60695312 0.78226562 0 0 Z " fill="#808080" transform="translate(189,385)"/>
<path d="M0 0 C1.134375 0.020625 2.26875 0.04125 3.4375 0.0625 C-2.26501624 3.86417749 -8.84102593 4.34852017 -15.5625 4.0625 C-15.5625 3.7325 -15.5625 3.4025 -15.5625 3.0625 C-14.38880859 2.86333984 -14.38880859 2.86333984 -13.19140625 2.66015625 C-12.17949219 2.48355469 -11.16757813 2.30695313 -10.125 2.125 C-9.11566406 1.95097656 -8.10632813 1.77695313 -7.06640625 1.59765625 C-3.51307528 0.83820798 -4.0425814 0.07092248 0 0 Z " fill="#A8A8A8" transform="translate(119.5625,98.9375)"/>
<path d="M0 0 C0 3.53951266 -0.71931715 4.36464694 -2.8125 7.125 C-3.59560547 8.18074219 -3.59560547 8.18074219 -4.39453125 9.2578125 C-6 11 -6 11 -9 12 C-8.67 11.01 -8.34 10.02 -8 9 C-7.34 9 -6.68 9 -6 9 C-5.67 7.68 -5.34 6.36 -5 5 C-4.34 5 -3.68 5 -3 5 C-2.814375 4.0409375 -2.814375 4.0409375 -2.625 3.0625 C-2.41875 2.381875 -2.2125 1.70125 -2 1 C-1.34 0.67 -0.68 0.34 0 0 Z " fill="#909090" transform="translate(340,189)"/>
<path d="M0 0 C-0.99 0.495 -0.99 0.495 -2 1 C-2 1.66 -2 2.32 -2 3 C-5.3 3.33 -8.6 3.66 -12 4 C-8.41084094 -0.78554541 -5.58334594 -0.37222306 0 0 Z " fill="#C0C0C0" transform="translate(413,57)"/>
<path d="M0 0 C0.66 0 1.32 0 2 0 C0.44499019 3.81684226 -2.03595495 6.19195732 -5 9 C-4.42676569 5.13066838 -2.61046448 2.84777943 0 0 Z " fill="#939393" transform="translate(231,330)"/>
<path d="M0 0 C1.32 0.33 2.64 0.66 4 1 C3 2.5625 3 2.5625 1 4 C-1.76614782 3.96726452 -4.26030547 3.49404328 -7 3 C-7 2.67 -7 2.34 -7 2 C-4.69 2 -2.38 2 0 2 C0 1.34 0 0.68 0 0 Z " fill="#CCCCCC" transform="translate(124,466)"/>
<path d="M0 0 C0.33 0.99 0.66 1.98 1 3 C-1.57784846 5.64752004 -3.91648098 7.94432065 -7 10 C-5.33248852 6.05860922 -2.77289351 3.2107188 0 0 Z " fill="#898989" transform="translate(245,258)"/>
<path d="M0 0 C0.33 1.32 0.66 2.64 1 4 C-0.98 5.32 -2.96 6.64 -5 8 C-3.62845496 5.04590299 -2.01136276 2.55991624 0 0 Z " fill="#9E9E9E" transform="translate(383,82)"/>
</svg>
