<svg xmlns="http://www.w3.org/2000/svg" viewBox="-76.0 -76.0 1092.0 623.7">
<defs><linearGradient id="g" gradientUnits="userSpaceOnUse" x1="11" y1="-26" x2="929" y2="498">
<stop offset="0" stop-color="#0d9be0"/><stop offset="1" stop-color="#0a1035"/></linearGradient></defs>
<path d="M 691.65,0.10 L 694.33,0.00 L 697.04,0.08 L 699.75,0.29 L 702.48,0.61 L 705.20,0.98 L 707.92,1.37 L 710.64,1.77 L 713.35,2.16 L 716.07,2.56 L 718.79,2.94 L 721.51,3.32 L 724.24,3.69 L 726.96,4.07 L 729.67,4.47 L 732.37,4.91 L 735.04,5.41 L 737.68,6.00 L 740.28,6.66 L 742.86,7.39 L 745.42,8.16 L 747.98,8.94 L 750.54,9.71 L 753.10,10.47 L 755.67,11.22 L 758.25,11.93 L 760.84,12.63 L 763.44,13.31 L 766.05,13.96 L 768.68,14.57 L 771.32,15.15 L 773.97,15.70 L 776.64,16.21 L 779.32,16.70 L 782.00,17.17 L 784.69,17.61 L 787.39,18.05 L 790.10,18.46 L 792.82,18.85 L 795.54,19.23 L 798.27,19.60 L 800.99,19.97 L 803.72,20.34 L 806.45,20.70 L 809.18,21.05 L 811.92,21.40 L 814.66,21.74 L 817.40,22.07 L 820.15,22.38 L 822.91,22.68 L 825.67,22.97 L 828.43,23.24 L 831.21,23.49 L 833.99,23.73 L 836.77,23.96 L 839.56,24.18 L 842.35,24.39 L 845.15,24.59 L 847.95,24.79 L 850.75,24.97 L 853.57,25.12 L 856.39,25.26 L 859.22,25.38 L 862.06,25.48 L 864.89,25.59 L 867.73,25.68 L 870.58,25.77 L 873.43,25.84 L 876.28,25.91 L 879.14,25.95 L 882.01,25.98 L 884.88,26.00 L 887.76,26.00 L 890.63,26.00 L 893.51,26.00 L 896.39,26.00 L 899.27,26.00 L 902.15,26.00 L 905.03,26.01 L 907.90,26.03 L 910.77,26.05 L 913.64,26.08 L 916.48,26.17 L 919.27,26.39 L 921.97,26.81 L 924.55,27.53 L 926.96,28.63 L 929.21,30.08 L 931.33,31.81 L 933.32,33.75 L 935.22,35.82 L 936.94,37.95 L 938.38,40.13 L 939.43,42.35 L 940.00,44.63 L 940.00,46.96 L 939.56,49.34 L 938.78,51.74 L 937.80,54.17 L 936.72,56.60 L 935.64,59.03 L 934.56,61.46 L 933.49,63.90 L 932.42,66.33 L 931.34,68.77 L 930.27,71.20 L 929.19,73.63 L 928.11,76.07 L 927.04,78.50 L 925.96,80.94 L 924.89,83.37 L 923.82,85.81 L 922.75,88.24 L 921.68,90.68 L 920.60,93.11 L 919.53,95.55 L 918.49,97.99 L 917.52,100.47 L 916.67,103.00 L 915.97,105.59 L 915.41,108.24 L 914.95,110.93 L 914.52,113.63 L 914.03,116.30 L 913.46,118.95 L 912.80,121.55 L 912.07,124.13 L 911.30,126.69 L 910.52,129.24 L 909.71,131.79 L 908.87,134.32 L 907.98,136.83 L 907.04,139.32 L 906.06,141.79 L 905.05,144.26 L 904.03,146.71 L 902.99,149.16 L 901.97,151.62 L 900.97,154.08 L 900.02,156.57 L 899.14,159.09 L 898.35,161.64 L 897.63,164.22 L 896.97,166.82 L 896.34,169.44 L 895.74,172.07 L 895.14,174.70 L 894.54,177.33 L 893.94,179.96 L 893.34,182.60 L 892.75,185.23 L 892.14,187.86 L 891.50,190.47 L 890.79,193.06 L 889.98,195.60 L 889.05,198.09 L 887.96,200.52 L 886.77,202.91 L 885.48,205.25 L 884.15,207.58 L 882.78,209.89 L 881.41,212.21 L 880.05,214.52 L 878.68,216.84 L 877.31,219.15 L 875.95,221.46 L 874.58,223.77 L 873.21,226.09 L 871.85,228.40 L 870.49,230.72 L 869.12,233.03 L 867.75,235.34 L 866.38,237.66 L 865.02,239.97 L 863.65,242.28 L 862.28,244.59 L 860.92,246.91 L 859.55,249.22 L 858.19,251.54 L 856.83,253.85 L 855.47,256.17 L 854.10,258.48 L 852.74,260.80 L 851.37,263.11 L 850.00,265.42 L 848.63,267.73 L 847.26,270.05 L 845.90,272.36 L 844.54,274.67 L 843.17,276.99 L 841.81,279.30 L 840.44,281.62 L 839.07,283.93 L 837.70,286.24 L 836.33,288.55 L 834.97,290.87 L 833.60,293.18 L 832.24,295.50 L 830.87,297.81 L 829.51,300.12 L 828.14,302.43 L 826.77,304.75 L 825.40,307.06 L 824.03,309.37 L 822.67,311.68 L 821.30,314.00 L 819.92,316.31 L 818.56,318.62 L 817.19,320.93 L 815.82,323.25 L 814.46,325.56 L 813.09,327.87 L 811.73,330.19 L 810.36,332.50 L 809.00,334.82 L 807.62,337.13 L 806.26,339.44 L 804.89,341.75 L 803.52,344.06 L 802.15,346.38 L 800.78,348.69 L 799.41,351.00 L 798.04,353.31 L 796.67,355.62 L 795.30,357.94 L 793.93,360.25 L 792.56,362.56 L 791.19,364.87 L 789.83,367.19 L 788.46,369.50 L 787.08,371.81 L 785.71,374.12 L 784.35,376.43 L 782.98,378.75 L 781.61,381.06 L 780.24,383.37 L 778.86,385.68 L 777.48,387.99 L 776.10,390.30 L 774.72,392.60 L 773.33,394.91 L 771.92,397.20 L 770.50,399.49 L 769.05,401.77 L 767.57,404.04 L 766.06,406.29 L 764.50,408.49 L 762.84,410.59 L 761.05,412.53 L 759.11,414.27 L 756.99,415.77 L 754.73,417.07 L 752.37,418.21 L 749.93,419.26 L 747.47,420.25 L 745.00,421.25 L 742.53,422.23 L 740.05,423.21 L 737.58,424.19 L 735.10,425.15 L 732.62,426.12 L 730.14,427.10 L 727.67,428.07 L 725.20,429.06 L 722.73,430.06 L 720.27,431.06 L 717.81,432.07 L 715.35,433.09 L 712.89,434.10 L 710.43,435.11 L 707.97,436.11 L 705.50,437.11 L 703.03,438.11 L 700.56,439.10 L 698.09,440.08 L 695.63,441.08 L 693.23,442.16 L 690.92,443.37 L 688.73,444.76 L 686.68,446.37 L 684.74,448.14 L 682.83,449.94 L 680.88,451.69 L 678.82,453.26 L 676.60,454.59 L 674.24,455.70 L 671.79,456.66 L 669.26,457.49 L 666.71,458.26 L 664.14,459.01 L 661.56,459.74 L 658.96,460.43 L 656.36,461.10 L 653.75,461.74 L 651.12,462.35 L 648.48,462.93 L 645.83,463.48 L 643.16,463.99 L 640.49,464.48 L 637.80,464.94 L 635.10,465.37 L 632.39,465.78 L 629.66,466.16 L 626.92,466.50 L 624.17,466.80 L 621.41,467.07 L 618.62,467.29 L 615.81,467.47 L 612.98,467.60 L 610.14,467.68 L 607.28,467.72 L 604.41,467.74 L 601.53,467.75 L 598.68,467.83 L 595.90,468.06 L 593.21,468.51 L 590.63,469.20 L 588.19,470.08 L 585.83,470.94 L 583.55,471.56 L 581.31,471.70 L 579.12,471.27 L 576.97,470.27 L 574.85,468.89 L 572.72,467.36 L 570.53,465.90 L 568.22,464.70 L 565.75,463.83 L 563.15,463.24 L 560.44,462.87 L 557.66,462.63 L 554.86,462.45 L 552.05,462.26 L 549.25,462.08 L 546.45,461.90 L 543.64,461.72 L 540.84,461.53 L 538.03,461.35 L 535.23,461.17 L 532.43,460.98 L 529.62,460.80 L 526.82,460.62 L 524.02,460.44 L 521.21,460.25 L 518.41,460.07 L 515.61,459.88 L 512.81,459.68 L 510.03,459.45 L 507.25,459.21 L 504.48,458.93 L 501.73,458.63 L 498.99,458.30 L 496.26,457.94 L 493.54,457.56 L 490.82,457.15 L 488.12,456.74 L 485.42,456.30 L 482.73,455.84 L 480.04,455.38 L 477.36,454.90 L 474.68,454.41 L 472.01,453.91 L 469.34,453.42 L 466.67,452.91 L 464.00,452.41 L 461.33,451.90 L 458.66,451.39 L 455.99,450.88 L 453.32,450.37 L 450.66,449.86 L 447.99,449.35 L 445.31,448.85 L 442.64,448.35 L 439.97,447.85 L 437.31,447.33 L 434.66,446.77 L 432.03,446.16 L 429.43,445.48 L 426.86,444.75 L 424.30,443.97 L 421.76,443.16 L 419.23,442.32 L 416.69,441.48 L 414.16,440.65 L 411.63,439.81 L 409.09,438.98 L 406.55,438.16 L 404.01,437.34 L 401.47,436.52 L 398.93,435.72 L 396.38,434.91 L 393.83,434.12 L 391.28,433.33 L 388.72,432.54 L 386.17,431.76 L 383.61,430.99 L 381.05,430.21 L 378.49,429.44 L 375.93,428.68 L 373.36,427.92 L 370.79,427.17 L 368.22,426.44 L 365.64,425.71 L 363.06,425.00 L 360.47,424.29 L 357.88,423.59 L 355.29,422.89 L 352.70,422.19 L 350.11,421.50 L 347.52,420.80 L 344.92,420.12 L 342.32,419.45 L 339.72,418.78 L 337.11,418.13 L 334.50,417.48 L 331.89,416.83 L 329.27,416.20 L 326.65,415.58 L 324.02,414.96 L 321.39,414.36 L 318.76,413.76 L 316.13,413.17 L 313.49,412.59 L 310.85,412.01 L 308.20,411.45 L 305.56,410.89 L 302.91,410.33 L 300.25,409.78 L 297.60,409.24 L 294.94,408.70 L 292.28,408.18 L 289.62,407.66 L 286.95,407.15 L 284.27,406.66 L 281.59,406.18 L 278.91,405.71 L 276.22,405.25 L 273.53,404.79 L 270.83,404.35 L 268.13,403.91 L 265.43,403.48 L 262.72,403.08 L 260.01,402.68 L 257.28,402.30 L 254.56,401.93 L 251.83,401.56 L 249.10,401.20 L 246.37,400.83 L 243.64,400.48 L 240.90,400.14 L 238.16,399.82 L 235.41,399.51 L 232.65,399.21 L 229.89,398.93 L 227.12,398.65 L 224.36,398.38 L 221.58,398.12 L 218.81,397.88 L 216.03,397.64 L 213.24,397.41 L 210.45,397.21 L 207.65,397.00 L 204.85,396.81 L 202.05,396.62 L 199.24,396.45 L 196.43,396.28 L 193.62,396.12 L 190.80,395.97 L 187.98,395.83 L 185.16,395.69 L 182.34,395.55 L 179.51,395.42 L 176.69,395.29 L 173.86,395.16 L 171.03,395.04 L 168.20,394.92 L 165.37,394.80 L 162.54,394.69 L 159.70,394.58 L 156.86,394.49 L 154.02,394.42 L 151.17,394.36 L 148.33,394.35 L 145.48,394.36 L 142.63,394.42 L 139.78,394.48 L 136.94,394.57 L 134.10,394.66 L 131.26,394.75 L 128.42,394.84 L 125.57,394.93 L 122.72,395.00 L 119.87,395.07 L 117.01,395.11 L 114.14,395.14 L 111.27,395.15 L 108.39,395.16 L 105.51,395.16 L 102.63,395.16 L 99.76,395.16 L 96.88,395.16 L 94.00,395.16 L 91.12,395.16 L 88.24,395.17 L 85.37,395.18 L 82.50,395.21 L 79.63,395.23 L 76.77,395.28 L 73.91,395.32 L 71.05,395.37 L 68.19,395.42 L 65.33,395.48 L 62.48,395.53 L 59.63,395.60 L 56.78,395.68 L 53.93,395.76 L 51.09,395.85 L 48.25,395.94 L 45.41,396.03 L 42.57,396.13 L 39.73,396.24 L 36.91,396.36 L 34.09,396.51 L 31.30,396.66 L 28.55,396.72 L 25.88,396.59 L 23.32,396.17 L 20.88,395.36 L 18.59,394.12 L 16.40,392.55 L 14.29,390.73 L 12.24,388.76 L 10.20,386.72 L 8.17,384.69 L 6.13,382.65 L 4.17,380.61 L 2.43,378.55 L 1.06,376.48 L 0.20,374.38 L 0.00,372.24 L 0.46,370.08 L 1.43,367.90 L 2.76,365.70 L 4.30,363.49 L 5.91,361.27 L 7.53,359.06 L 9.14,356.85 L 10.75,354.64 L 12.36,352.43 L 13.97,350.22 L 15.57,348.00 L 17.16,345.78 L 18.71,343.54 L 20.22,341.29 L 21.68,339.01 L 23.06,336.70 L 24.38,334.37 L 25.63,332.01 L 26.83,329.63 L 28.00,327.23 L 29.13,324.82 L 30.23,322.40 L 31.32,319.97 L 32.44,317.57 L 33.64,315.23 L 34.97,312.99 L 36.47,310.89 L 38.21,308.96 L 40.14,307.19 L 42.22,305.53 L 44.40,303.96 L 46.64,302.44 L 48.89,300.92 L 51.14,299.40 L 53.39,297.88 L 55.65,296.37 L 57.90,294.86 L 60.16,293.36 L 62.42,291.86 L 64.68,290.37 L 66.93,288.87 L 69.19,287.36 L 71.44,285.85 L 73.70,284.34 L 75.95,282.83 L 78.21,281.33 L 80.46,279.82 L 82.72,278.33 L 84.98,276.83 L 87.24,275.33 L 89.50,273.83 L 91.75,272.32 L 94.00,270.80 L 96.26,269.29 L 98.51,267.79 L 100.77,266.29 L 103.03,264.80 L 105.30,263.31 L 107.56,261.83 L 109.82,260.34 L 112.09,258.85 L 114.35,257.36 L 116.61,255.87 L 118.87,254.38 L 121.14,252.89 L 123.40,251.41 L 125.67,249.92 L 127.93,248.45 L 130.20,246.97 L 132.47,245.50 L 134.74,244.02 L 137.01,242.55 L 139.28,241.08 L 141.55,239.61 L 143.83,238.16 L 146.11,236.71 L 148.40,235.29 L 150.70,233.89 L 153.01,232.53 L 155.34,231.20 L 157.69,229.92 L 160.05,228.67 L 162.44,227.47 L 164.83,226.30 L 167.24,225.17 L 169.67,224.07 L 172.10,223.01 L 174.56,221.98 L 177.02,220.98 L 179.50,220.02 L 182.00,219.09 L 184.50,218.19 L 187.02,217.31 L 189.54,216.45 L 192.08,215.61 L 194.61,214.79 L 197.17,214.00 L 199.73,213.23 L 202.29,212.48 L 204.87,211.75 L 207.46,211.04 L 210.05,210.35 L 212.65,209.67 L 215.26,209.03 L 217.88,208.40 L 220.52,207.81 L 223.17,207.26 L 225.83,206.75 L 228.52,206.28 L 231.23,205.88 L 233.96,205.51 L 236.70,205.18 L 239.45,204.87 L 242.21,204.58 L 244.97,204.28 L 247.73,203.99 L 250.49,203.71 L 253.26,203.44 L 256.02,203.17 L 258.79,202.91 L 261.56,202.70 L 264.30,202.57 L 267.03,202.54 L 269.73,202.67 L 272.41,202.97 L 275.07,203.38 L 277.73,203.84 L 280.41,204.31 L 283.13,204.71 L 285.88,205.02 L 288.66,205.25 L 291.46,205.44 L 294.28,205.59 L 297.10,205.74 L 299.91,205.89 L 302.73,206.04 L 305.53,206.23 L 308.31,206.48 L 311.05,206.81 L 313.75,207.25 L 316.40,207.81 L 319.01,208.45 L 321.61,209.12 L 324.21,209.81 L 326.81,210.46 L 329.44,211.08 L 332.08,211.66 L 334.74,212.18 L 337.42,212.66 L 340.12,213.10 L 342.83,213.50 L 345.56,213.85 L 348.31,214.18 L 351.05,214.51 L 353.80,214.82 L 356.56,215.12 L 359.31,215.43 L 362.06,215.73 L 364.82,216.03 L 367.57,216.34 L 370.32,216.65 L 373.07,216.96 L 375.82,217.27 L 378.57,217.59 L 381.32,217.90 L 384.07,218.21 L 386.82,218.53 L 389.57,218.84 L 392.32,219.15 L 395.06,219.47 L 397.81,219.79 L 400.56,220.12 L 403.31,220.43 L 406.05,220.75 L 408.80,221.07 L 411.54,221.39 L 414.29,221.71 L 417.03,222.05 L 419.77,222.38 L 422.51,222.72 L 425.25,223.05 L 427.99,223.39 L 430.74,223.72 L 433.47,224.06 L 436.21,224.41 L 438.94,224.76 L 441.67,225.12 L 444.40,225.49 L 447.12,225.87 L 449.84,226.25 L 452.56,226.65 L 455.27,227.05 L 457.99,227.45 L 460.70,227.85 L 463.41,228.27 L 466.11,228.69 L 468.80,229.14 L 471.49,229.61 L 474.16,230.11 L 476.82,230.63 L 479.48,231.18 L 482.12,231.75 L 484.75,232.34 L 487.37,232.97 L 489.98,233.62 L 492.58,234.30 L 495.17,235.00 L 497.75,235.72 L 500.32,236.45 L 502.89,237.21 L 505.45,237.99 L 507.99,238.80 L 510.53,239.62 L 513.06,240.47 L 515.58,241.34 L 518.09,242.22 L 520.60,243.12 L 523.09,244.06 L 525.56,245.04 L 528.01,246.09 L 530.42,247.21 L 532.81,248.40 L 535.17,249.66 L 537.51,250.95 L 539.86,252.23 L 542.24,253.44 L 544.65,254.56 L 547.13,255.53 L 549.66,256.38 L 552.23,257.13 L 554.83,257.80 L 557.45,258.43 L 560.07,259.06 L 562.69,259.68 L 565.31,260.29 L 567.94,260.91 L 570.56,261.53 L 573.18,262.15 L 575.80,262.75 L 578.43,263.27 L 581.05,263.67 L 583.66,263.89 L 586.27,263.87 L 588.87,263.60 L 591.46,263.13 L 594.03,262.50 L 596.60,261.77 L 599.15,260.98 L 601.69,260.17 L 604.23,259.34 L 606.76,258.49 L 609.26,257.59 L 611.71,256.60 L 614.08,255.46 L 616.35,254.15 L 618.49,252.60 L 620.51,250.84 L 622.41,248.91 L 624.18,246.83 L 625.80,244.64 L 627.26,242.37 L 628.53,240.01 L 629.60,237.58 L 630.53,235.08 L 631.37,232.55 L 632.15,229.99 L 632.91,227.43 L 633.67,224.86 L 634.42,222.30 L 635.17,219.73 L 635.89,217.15 L 636.60,214.56 L 637.25,211.96 L 637.80,209.34 L 638.23,206.69 L 638.50,204.01 L 638.59,201.30 L 638.54,198.56 L 638.40,195.80 L 638.18,193.03 L 637.95,190.25 L 637.73,187.46 L 637.52,184.67 L 637.31,181.87 L 637.14,179.06 L 636.99,176.25 L 636.85,173.43 L 636.72,170.60 L 636.59,167.78 L 636.44,164.96 L 636.27,162.15 L 636.07,159.35 L 635.84,156.57 L 635.59,153.79 L 635.32,151.02 L 635.05,148.26 L 634.78,145.49 L 634.50,142.73 L 634.23,139.96 L 633.95,137.20 L 633.68,134.43 L 633.40,131.67 L 633.13,128.90 L 632.86,126.13 L 632.62,123.36 L 632.41,120.58 L 632.28,117.80 L 632.24,115.02 L 632.29,112.23 L 632.44,109.46 L 632.66,106.69 L 632.93,103.93 L 633.23,101.17 L 633.53,98.42 L 633.85,95.67 L 634.17,92.92 L 634.50,90.18 L 634.86,87.45 L 635.23,84.72 L 635.61,82.00 L 636.02,79.29 L 636.43,76.58 L 636.86,73.88 L 637.31,71.19 L 637.79,68.51 L 638.29,65.84 L 638.83,63.18 L 639.41,60.54 L 640.03,57.92 L 640.68,55.31 L 641.38,52.72 L 642.13,50.15 L 642.91,47.59 L 643.73,45.05 L 644.60,42.53 L 645.50,40.03 L 646.45,37.54 L 647.44,35.07 L 648.48,32.62 L 649.55,30.19 L 650.66,27.77 L 651.81,25.37 L 652.99,22.97 L 654.20,20.60 L 655.46,18.24 L 656.82,15.96 L 658.30,13.80 L 659.95,11.83 L 661.80,10.09 L 663.87,8.62 L 666.12,7.39 L 668.51,6.33 L 670.99,5.40 L 673.52,4.55 L 676.06,3.74 L 678.61,2.96 L 681.18,2.20 L 683.76,1.50 L 686.37,0.89 L 688.99,0.41 Z" fill="none" stroke="url(#g)" stroke-width="80.0" stroke-linecap="round" stroke-linejoin="round"/>
<path d="M 691.65,0.10 L 694.33,0.00 L 697.04,0.08 L 699.75,0.29 L 702.48,0.61 L 705.20,0.98 L 707.92,1.37 L 710.64,1.77 L 713.35,2.16 L 716.07,2.56 L 718.79,2.94 L 721.51,3.32 L 724.24,3.69 L 726.96,4.07 L 729.67,4.47 L 732.37,4.91 L 735.04,5.41 L 737.68,6.00 L 740.28,6.66 L 742.86,7.39 L 745.42,8.16 L 747.98,8.94 L 750.54,9.71 L 753.10,10.47 L 755.67,11.22 L 758.25,11.93 L 760.84,12.63 L 763.44,13.31 L 766.05,13.96 L 768.68,14.57 L 771.32,15.15 L 773.97,15.70 L 776.64,16.21 L 779.32,16.70 L 782.00,17.17 L 784.69,17.61 L 787.39,18.05 L 790.10,18.46 L 792.82,18.85 L 795.54,19.23 L 798.27,19.60 L 800.99,19.97 L 803.72,20.34 L 806.45,20.70 L 809.18,21.05 L 811.92,21.40 L 814.66,21.74 L 817.40,22.07 L 820.15,22.38 L 822.91,22.68 L 825.67,22.97 L 828.43,23.24 L 831.21,23.49 L 833.99,23.73 L 836.77,23.96 L 839.56,24.18 L 842.35,24.39 L 845.15,24.59 L 847.95,24.79 L 850.75,24.97 L 853.57,25.12 L 856.39,25.26 L 859.22,25.38 L 862.06,25.48 L 864.89,25.59 L 867.73,25.68 L 870.58,25.77 L 873.43,25.84 L 876.28,25.91 L 879.14,25.95 L 882.01,25.98 L 884.88,26.00 L 887.76,26.00 L 890.63,26.00 L 893.51,26.00 L 896.39,26.00 L 899.27,26.00 L 902.15,26.00 L 905.03,26.01 L 907.90,26.03 L 910.77,26.05 L 913.64,26.08 L 916.48,26.17 L 919.27,26.39 L 921.97,26.81 L 924.55,27.53 L 926.96,28.63 L 929.21,30.08 L 931.33,31.81 L 933.32,33.75 L 935.22,35.82 L 936.94,37.95 L 938.38,40.13 L 939.43,42.35 L 940.00,44.63 L 940.00,46.96 L 939.56,49.34 L 938.78,51.74 L 937.80,54.17 L 936.72,56.60 L 935.64,59.03 L 934.56,61.46 L 933.49,63.90 L 932.42,66.33 L 931.34,68.77 L 930.27,71.20 L 929.19,73.63 L 928.11,76.07 L 927.04,78.50 L 925.96,80.94 L 924.89,83.37 L 923.82,85.81 L 922.75,88.24 L 921.68,90.68 L 920.60,93.11 L 919.53,95.55 L 918.49,97.99 L 917.52,100.47 L 916.67,103.00 L 915.97,105.59 L 915.41,108.24 L 914.95,110.93 L 914.52,113.63 L 914.03,116.30 L 913.46,118.95 L 912.80,121.55 L 912.07,124.13 L 911.30,126.69 L 910.52,129.24 L 909.71,131.79 L 908.87,134.32 L 907.98,136.83 L 907.04,139.32 L 906.06,141.79 L 905.05,144.26 L 904.03,146.71 L 902.99,149.16 L 901.97,151.62 L 900.97,154.08 L 900.02,156.57 L 899.14,159.09 L 898.35,161.64 L 897.63,164.22 L 896.97,166.82 L 896.34,169.44 L 895.74,172.07 L 895.14,174.70 L 894.54,177.33 L 893.94,179.96 L 893.34,182.60 L 892.75,185.23 L 892.14,187.86 L 891.50,190.47 L 890.79,193.06 L 889.98,195.60 L 889.05,198.09 L 887.96,200.52 L 886.77,202.91 L 885.48,205.25 L 884.15,207.58 L 882.78,209.89 L 881.41,212.21 L 880.05,214.52 L 878.68,216.84 L 877.31,219.15 L 875.95,221.46 L 874.58,223.77 L 873.21,226.09 L 871.85,228.40 L 870.49,230.72 L 869.12,233.03 L 867.75,235.34 L 866.38,237.66 L 865.02,239.97 L 863.65,242.28 L 862.28,244.59 L 860.92,246.91 L 859.55,249.22 L 858.19,251.54 L 856.83,253.85 L 855.47,256.17 L 854.10,258.48 L 852.74,260.80 L 851.37,263.11 L 850.00,265.42 L 848.63,267.73 L 847.26,270.05 L 845.90,272.36 L 844.54,274.67 L 843.17,276.99 L 841.81,279.30 L 840.44,281.62 L 839.07,283.93 L 837.70,286.24 L 836.33,288.55 L 834.97,290.87 L 833.60,293.18 L 832.24,295.50 L 830.87,297.81 L 829.51,300.12 L 828.14,302.43 L 826.77,304.75 L 825.40,307.06 L 824.03,309.37 L 822.67,311.68 L 821.30,314.00 L 819.92,316.31 L 818.56,318.62 L 817.19,320.93 L 815.82,323.25 L 814.46,325.56 L 813.09,327.87 L 811.73,330.19 L 810.36,332.50 L 809.00,334.82 L 807.62,337.13 L 806.26,339.44 L 804.89,341.75 L 803.52,344.06 L 802.15,346.38 L 800.78,348.69 L 799.41,351.00 L 798.04,353.31 L 796.67,355.62 L 795.30,357.94 L 793.93,360.25 L 792.56,362.56 L 791.19,364.87 L 789.83,367.19 L 788.46,369.50 L 787.08,371.81 L 785.71,374.12 L 784.35,376.43 L 782.98,378.75 L 781.61,381.06 L 780.24,383.37 L 778.86,385.68 L 777.48,387.99 L 776.10,390.30 L 774.72,392.60 L 773.33,394.91 L 771.92,397.20 L 770.50,399.49 L 769.05,401.77 L 767.57,404.04 L 766.06,406.29 L 764.50,408.49 L 762.84,410.59 L 761.05,412.53 L 759.11,414.27 L 756.99,415.77 L 754.73,417.07 L 752.37,418.21 L 749.93,419.26 L 747.47,420.25 L 745.00,421.25 L 742.53,422.23 L 740.05,423.21 L 737.58,424.19 L 735.10,425.15 L 732.62,426.12 L 730.14,427.10 L 727.67,428.07 L 725.20,429.06 L 722.73,430.06 L 720.27,431.06 L 717.81,432.07 L 715.35,433.09 L 712.89,434.10 L 710.43,435.11 L 707.97,436.11 L 705.50,437.11 L 703.03,438.11 L 700.56,439.10 L 698.09,440.08 L 695.63,441.08 L 693.23,442.16 L 690.92,443.37 L 688.73,444.76 L 686.68,446.37 L 684.74,448.14 L 682.83,449.94 L 680.88,451.69 L 678.82,453.26 L 676.60,454.59 L 674.24,455.70 L 671.79,456.66 L 669.26,457.49 L 666.71,458.26 L 664.14,459.01 L 661.56,459.74 L 658.96,460.43 L 656.36,461.10 L 653.75,461.74 L 651.12,462.35 L 648.48,462.93 L 645.83,463.48 L 643.16,463.99 L 640.49,464.48 L 637.80,464.94 L 635.10,465.37 L 632.39,465.78 L 629.66,466.16 L 626.92,466.50 L 624.17,466.80 L 621.41,467.07 L 618.62,467.29 L 615.81,467.47 L 612.98,467.60 L 610.14,467.68 L 607.28,467.72 L 604.41,467.74 L 601.53,467.75 L 598.68,467.83 L 595.90,468.06 L 593.21,468.51 L 590.63,469.20 L 588.19,470.08 L 585.83,470.94 L 583.55,471.56 L 581.31,471.70 L 579.12,471.27 L 576.97,470.27 L 574.85,468.89 L 572.72,467.36 L 570.53,465.90 L 568.22,464.70 L 565.75,463.83 L 563.15,463.24 L 560.44,462.87 L 557.66,462.63 L 554.86,462.45 L 552.05,462.26 L 549.25,462.08 L 546.45,461.90 L 543.64,461.72 L 540.84,461.53 L 538.03,461.35 L 535.23,461.17 L 532.43,460.98 L 529.62,460.80 L 526.82,460.62 L 524.02,460.44 L 521.21,460.25 L 518.41,460.07 L 515.61,459.88 L 512.81,459.68 L 510.03,459.45 L 507.25,459.21 L 504.48,458.93 L 501.73,458.63 L 498.99,458.30 L 496.26,457.94 L 493.54,457.56 L 490.82,457.15 L 488.12,456.74 L 485.42,456.30 L 482.73,455.84 L 480.04,455.38 L 477.36,454.90 L 474.68,454.41 L 472.01,453.91 L 469.34,453.42 L 466.67,452.91 L 464.00,452.41 L 461.33,451.90 L 458.66,451.39 L 455.99,450.88 L 453.32,450.37 L 450.66,449.86 L 447.99,449.35 L 445.31,448.85 L 442.64,448.35 L 439.97,447.85 L 437.31,447.33 L 434.66,446.77 L 432.03,446.16 L 429.43,445.48 L 426.86,444.75 L 424.30,443.97 L 421.76,443.16 L 419.23,442.32 L 416.69,441.48 L 414.16,440.65 L 411.63,439.81 L 409.09,438.98 L 406.55,438.16 L 404.01,437.34 L 401.47,436.52 L 398.93,435.72 L 396.38,434.91 L 393.83,434.12 L 391.28,433.33 L 388.72,432.54 L 386.17,431.76 L 383.61,430.99 L 381.05,430.21 L 378.49,429.44 L 375.93,428.68 L 373.36,427.92 L 370.79,427.17 L 368.22,426.44 L 365.64,425.71 L 363.06,425.00 L 360.47,424.29 L 357.88,423.59 L 355.29,422.89 L 352.70,422.19 L 350.11,421.50 L 347.52,420.80 L 344.92,420.12 L 342.32,419.45 L 339.72,418.78 L 337.11,418.13 L 334.50,417.48 L 331.89,416.83 L 329.27,416.20 L 326.65,415.58 L 324.02,414.96 L 321.39,414.36 L 318.76,413.76 L 316.13,413.17 L 313.49,412.59 L 310.85,412.01 L 308.20,411.45 L 305.56,410.89 L 302.91,410.33 L 300.25,409.78 L 297.60,409.24 L 294.94,408.70 L 292.28,408.18 L 289.62,407.66 L 286.95,407.15 L 284.27,406.66 L 281.59,406.18 L 278.91,405.71 L 276.22,405.25 L 273.53,404.79 L 270.83,404.35 L 268.13,403.91 L 265.43,403.48 L 262.72,403.08 L 260.01,402.68 L 257.28,402.30 L 254.56,401.93 L 251.83,401.56 L 249.10,401.20 L 246.37,400.83 L 243.64,400.48 L 240.90,400.14 L 238.16,399.82 L 235.41,399.51 L 232.65,399.21 L 229.89,398.93 L 227.12,398.65 L 224.36,398.38 L 221.58,398.12 L 218.81,397.88 L 216.03,397.64 L 213.24,397.41 L 210.45,397.21 L 207.65,397.00 L 204.85,396.81 L 202.05,396.62 L 199.24,396.45 L 196.43,396.28 L 193.62,396.12 L 190.80,395.97 L 187.98,395.83 L 185.16,395.69 L 182.34,395.55 L 179.51,395.42 L 176.69,395.29 L 173.86,395.16 L 171.03,395.04 L 168.20,394.92 L 165.37,394.80 L 162.54,394.69 L 159.70,394.58 L 156.86,394.49 L 154.02,394.42 L 151.17,394.36 L 148.33,394.35 L 145.48,394.36 L 142.63,394.42 L 139.78,394.48 L 136.94,394.57 L 134.10,394.66 L 131.26,394.75 L 128.42,394.84 L 125.57,394.93 L 122.72,395.00 L 119.87,395.07 L 117.01,395.11 L 114.14,395.14 L 111.27,395.15 L 108.39,395.16 L 105.51,395.16 L 102.63,395.16 L 99.76,395.16 L 96.88,395.16 L 94.00,395.16 L 91.12,395.16 L 88.24,395.17 L 85.37,395.18 L 82.50,395.21 L 79.63,395.23 L 76.77,395.28 L 73.91,395.32 L 71.05,395.37 L 68.19,395.42 L 65.33,395.48 L 62.48,395.53 L 59.63,395.60 L 56.78,395.68 L 53.93,395.76 L 51.09,395.85 L 48.25,395.94 L 45.41,396.03 L 42.57,396.13 L 39.73,396.24 L 36.91,396.36 L 34.09,396.51 L 31.30,396.66 L 28.55,396.72 L 25.88,396.59 L 23.32,396.17 L 20.88,395.36 L 18.59,394.12 L 16.40,392.55 L 14.29,390.73 L 12.24,388.76 L 10.20,386.72 L 8.17,384.69 L 6.13,382.65 L 4.17,380.61 L 2.43,378.55 L 1.06,376.48 L 0.20,374.38 L 0.00,372.24 L 0.46,370.08 L 1.43,367.90 L 2.76,365.70 L 4.30,363.49 L 5.91,361.27 L 7.53,359.06 L 9.14,356.85 L 10.75,354.64 L 12.36,352.43 L 13.97,350.22 L 15.57,348.00 L 17.16,345.78 L 18.71,343.54 L 20.22,341.29 L 21.68,339.01 L 23.06,336.70 L 24.38,334.37 L 25.63,332.01 L 26.83,329.63 L 28.00,327.23 L 29.13,324.82 L 30.23,322.40 L 31.32,319.97 L 32.44,317.57 L 33.64,315.23 L 34.97,312.99 L 36.47,310.89 L 38.21,308.96 L 40.14,307.19 L 42.22,305.53 L 44.40,303.96 L 46.64,302.44 L 48.89,300.92 L 51.14,299.40 L 53.39,297.88 L 55.65,296.37 L 57.90,294.86 L 60.16,293.36 L 62.42,291.86 L 64.68,290.37 L 66.93,288.87 L 69.19,287.36 L 71.44,285.85 L 73.70,284.34 L 75.95,282.83 L 78.21,281.33 L 80.46,279.82 L 82.72,278.33 L 84.98,276.83 L 87.24,275.33 L 89.50,273.83 L 91.75,272.32 L 94.00,270.80 L 96.26,269.29 L 98.51,267.79 L 100.77,266.29 L 103.03,264.80 L 105.30,263.31 L 107.56,261.83 L 109.82,260.34 L 112.09,258.85 L 114.35,257.36 L 116.61,255.87 L 118.87,254.38 L 121.14,252.89 L 123.40,251.41 L 125.67,249.92 L 127.93,248.45 L 130.20,246.97 L 132.47,245.50 L 134.74,244.02 L 137.01,242.55 L 139.28,241.08 L 141.55,239.61 L 143.83,238.16 L 146.11,236.71 L 148.40,235.29 L 150.70,233.89 L 153.01,232.53 L 155.34,231.20 L 157.69,229.92 L 160.05,228.67 L 162.44,227.47 L 164.83,226.30 L 167.24,225.17 L 169.67,224.07 L 172.10,223.01 L 174.56,221.98 L 177.02,220.98 L 179.50,220.02 L 182.00,219.09 L 184.50,218.19 L 187.02,217.31 L 189.54,216.45 L 192.08,215.61 L 194.61,214.79 L 197.17,214.00 L 199.73,213.23 L 202.29,212.48 L 204.87,211.75 L 207.46,211.04 L 210.05,210.35 L 212.65,209.67 L 215.26,209.03 L 217.88,208.40 L 220.52,207.81 L 223.17,207.26 L 225.83,206.75 L 228.52,206.28 L 231.23,205.88 L 233.96,205.51 L 236.70,205.18 L 239.45,204.87 L 242.21,204.58 L 244.97,204.28 L 247.73,203.99 L 250.49,203.71 L 253.26,203.44 L 256.02,203.17 L 258.79,202.91 L 261.56,202.70 L 264.30,202.57 L 267.03,202.54 L 269.73,202.67 L 272.41,202.97 L 275.07,203.38 L 277.73,203.84 L 280.41,204.31 L 283.13,204.71 L 285.88,205.02 L 288.66,205.25 L 291.46,205.44 L 294.28,205.59 L 297.10,205.74 L 299.91,205.89 L 302.73,206.04 L 305.53,206.23 L 308.31,206.48 L 311.05,206.81 L 313.75,207.25 L 316.40,207.81 L 319.01,208.45 L 321.61,209.12 L 324.21,209.81 L 326.81,210.46 L 329.44,211.08 L 332.08,211.66 L 334.74,212.18 L 337.42,212.66 L 340.12,213.10 L 342.83,213.50 L 345.56,213.85 L 348.31,214.18 L 351.05,214.51 L 353.80,214.82 L 356.56,215.12 L 359.31,215.43 L 362.06,215.73 L 364.82,216.03 L 367.57,216.34 L 370.32,216.65 L 373.07,216.96 L 375.82,217.27 L 378.57,217.59 L 381.32,217.90 L 384.07,218.21 L 386.82,218.53 L 389.57,218.84 L 392.32,219.15 L 395.06,219.47 L 397.81,219.79 L 400.56,220.12 L 403.31,220.43 L 406.05,220.75 L 408.80,221.07 L 411.54,221.39 L 414.29,221.71 L 417.03,222.05 L 419.77,222.38 L 422.51,222.72 L 425.25,223.05 L 427.99,223.39 L 430.74,223.72 L 433.47,224.06 L 436.21,224.41 L 438.94,224.76 L 441.67,225.12 L 444.40,225.49 L 447.12,225.87 L 449.84,226.25 L 452.56,226.65 L 455.27,227.05 L 457.99,227.45 L 460.70,227.85 L 463.41,228.27 L 466.11,228.69 L 468.80,229.14 L 471.49,229.61 L 474.16,230.11 L 476.82,230.63 L 479.48,231.18 L 482.12,231.75 L 484.75,232.34 L 487.37,232.97 L 489.98,233.62 L 492.58,234.30 L 495.17,235.00 L 497.75,235.72 L 500.32,236.45 L 502.89,237.21 L 505.45,237.99 L 507.99,238.80 L 510.53,239.62 L 513.06,240.47 L 515.58,241.34 L 518.09,242.22 L 520.60,243.12 L 523.09,244.06 L 525.56,245.04 L 528.01,246.09 L 530.42,247.21 L 532.81,248.40 L 535.17,249.66 L 537.51,250.95 L 539.86,252.23 L 542.24,253.44 L 544.65,254.56 L 547.13,255.53 L 549.66,256.38 L 552.23,257.13 L 554.83,257.80 L 557.45,258.43 L 560.07,259.06 L 562.69,259.68 L 565.31,260.29 L 567.94,260.91 L 570.56,261.53 L 573.18,262.15 L 575.80,262.75 L 578.43,263.27 L 581.05,263.67 L 583.66,263.89 L 586.27,263.87 L 588.87,263.60 L 591.46,263.13 L 594.03,262.50 L 596.60,261.77 L 599.15,260.98 L 601.69,260.17 L 604.23,259.34 L 606.76,258.49 L 609.26,257.59 L 611.71,256.60 L 614.08,255.46 L 616.35,254.15 L 618.49,252.60 L 620.51,250.84 L 622.41,248.91 L 624.18,246.83 L 625.80,244.64 L 627.26,242.37 L 628.53,240.01 L 629.60,237.58 L 630.53,235.08 L 631.37,232.55 L 632.15,229.99 L 632.91,227.43 L 633.67,224.86 L 634.42,222.30 L 635.17,219.73 L 635.89,217.15 L 636.60,214.56 L 637.25,211.96 L 637.80,209.34 L 638.23,206.69 L 638.50,204.01 L 638.59,201.30 L 638.54,198.56 L 638.40,195.80 L 638.18,193.03 L 637.95,190.25 L 637.73,187.46 L 637.52,184.67 L 637.31,181.87 L 637.14,179.06 L 636.99,176.25 L 636.85,173.43 L 636.72,170.60 L 636.59,167.78 L 636.44,164.96 L 636.27,162.15 L 636.07,159.35 L 635.84,156.57 L 635.59,153.79 L 635.32,151.02 L 635.05,148.26 L 634.78,145.49 L 634.50,142.73 L 634.23,139.96 L 633.95,137.20 L 633.68,134.43 L 633.40,131.67 L 633.13,128.90 L 632.86,126.13 L 632.62,123.36 L 632.41,120.58 L 632.28,117.80 L 632.24,115.02 L 632.29,112.23 L 632.44,109.46 L 632.66,106.69 L 632.93,103.93 L 633.23,101.17 L 633.53,98.42 L 633.85,95.67 L 634.17,92.92 L 634.50,90.18 L 634.86,87.45 L 635.23,84.72 L 635.61,82.00 L 636.02,79.29 L 636.43,76.58 L 636.86,73.88 L 637.31,71.19 L 637.79,68.51 L 638.29,65.84 L 638.83,63.18 L 639.41,60.54 L 640.03,57.92 L 640.68,55.31 L 641.38,52.72 L 642.13,50.15 L 642.91,47.59 L 643.73,45.05 L 644.60,42.53 L 645.50,40.03 L 646.45,37.54 L 647.44,35.07 L 648.48,32.62 L 649.55,30.19 L 650.66,27.77 L 651.81,25.37 L 652.99,22.97 L 654.20,20.60 L 655.46,18.24 L 656.82,15.96 L 658.30,13.80 L 659.95,11.83 L 661.80,10.09 L 663.87,8.62 L 666.12,7.39 L 668.51,6.33 L 670.99,5.40 L 673.52,4.55 L 676.06,3.74 L 678.61,2.96 L 681.18,2.20 L 683.76,1.50 L 686.37,0.89 L 688.99,0.41 Z" fill="none" stroke="#ffffff" stroke-opacity="0.9" stroke-width="6.0" stroke-linecap="round" stroke-linejoin="round"/>
</svg>
