<svg xmlns="http://www.w3.org/2000/svg" viewBox="-63.5 -63.5 1067.1 686.0">
<defs><linearGradient id="g" gradientUnits="userSpaceOnUse" x1="22" y1="-9" x2="918" y2="568">
<stop offset="0" stop-color="#63c9f6"/><stop offset="1" stop-color="#0a4f86"/></linearGradient></defs>
<path d="M 829.81,326.42 L 833.06,325.68 L 836.29,324.85 L 839.51,323.93 L 842.71,322.93 L 845.91,321.87 L 849.10,320.80 L 852.30,319.72 L 855.49,318.63 L 858.67,317.54 L 861.86,316.44 L 865.04,315.34 L 868.23,314.23 L 871.41,313.13 L 874.59,312.02 L 877.77,310.91 L 880.95,309.80 L 884.14,308.70 L 887.33,307.60 L 890.52,306.52 L 893.71,305.44 L 896.91,304.38 L 900.11,303.32 L 903.31,302.29 L 906.52,301.26 L 909.74,300.25 L 912.96,299.27 L 916.19,298.34 L 919.44,297.49 L 922.71,296.79 L 925.98,296.35 L 929.19,296.28 L 932.26,296.70 L 935.02,297.71 L 937.30,299.33 L 938.95,301.50 L 939.85,304.12 L 940.00,307.00 L 939.46,309.99 L 938.36,312.98 L 936.84,315.89 L 935.05,318.69 L 933.07,321.40 L 930.98,324.03 L 928.82,326.61 L 926.62,329.16 L 924.40,331.69 L 922.15,334.20 L 919.89,336.70 L 917.62,339.19 L 915.33,341.67 L 913.04,344.13 L 910.73,346.59 L 908.41,349.03 L 906.08,351.47 L 903.74,353.89 L 901.38,356.29 L 899.00,358.68 L 896.61,361.05 L 894.19,363.40 L 891.76,365.73 L 889.30,368.03 L 886.81,370.30 L 884.30,372.55 L 881.77,374.77 L 879.21,376.97 L 876.64,379.14 L 874.04,381.28 L 871.42,383.40 L 868.78,385.50 L 866.12,387.56 L 863.44,389.60 L 860.74,391.61 L 858.01,393.58 L 855.25,395.52 L 852.47,397.42 L 849.67,399.29 L 846.83,401.11 L 843.97,402.89 L 841.09,404.62 L 838.18,406.32 L 835.25,407.99 L 832.30,409.62 L 829.34,411.23 L 826.37,412.81 L 823.38,414.37 L 820.39,415.92 L 817.39,417.46 L 814.39,418.98 L 811.38,420.49 L 808.37,422.00 L 805.35,423.51 L 802.33,425.00 L 799.31,426.50 L 796.29,427.99 L 793.27,429.48 L 790.25,430.97 L 787.23,432.47 L 784.21,433.96 L 781.19,435.46 L 778.17,436.95 L 775.15,438.46 L 772.14,439.96 L 769.13,441.47 L 766.12,442.99 L 763.11,444.51 L 760.11,446.04 L 757.11,447.58 L 754.12,449.13 L 751.13,450.69 L 748.16,452.27 L 745.20,453.88 L 742.26,455.52 L 739.34,457.21 L 736.46,458.94 L 733.61,460.73 L 730.80,462.59 L 728.05,464.52 L 725.34,466.52 L 722.69,468.59 L 720.08,470.72 L 717.51,472.89 L 714.95,475.08 L 712.40,477.28 L 709.82,479.44 L 707.20,481.56 L 704.53,483.59 L 701.78,485.53 L 698.96,487.34 L 696.06,489.02 L 693.09,490.57 L 690.04,491.97 L 686.93,493.23 L 683.77,494.36 L 680.57,495.36 L 677.32,496.23 L 674.05,496.99 L 670.75,497.64 L 667.43,498.18 L 664.10,498.63 L 660.75,498.98 L 657.40,499.27 L 654.04,499.49 L 650.67,499.67 L 647.31,499.82 L 643.94,499.96 L 640.58,500.11 L 637.21,500.28 L 633.85,500.49 L 630.49,500.76 L 627.14,501.08 L 623.80,501.47 L 620.47,501.93 L 617.14,502.46 L 613.83,503.07 L 610.53,503.74 L 607.25,504.48 L 603.98,505.28 L 600.72,506.13 L 597.47,507.03 L 594.24,507.98 L 591.02,508.97 L 587.81,510.00 L 584.62,511.06 L 581.43,512.15 L 578.25,513.28 L 575.08,514.42 L 571.92,515.58 L 568.76,516.76 L 565.61,517.94 L 562.45,519.12 L 559.30,520.30 L 556.14,521.47 L 552.97,522.63 L 549.80,523.78 L 546.63,524.91 L 543.46,526.04 L 540.28,527.15 L 537.09,528.26 L 533.91,529.35 L 530.72,530.43 L 527.52,531.50 L 524.32,532.55 L 521.11,533.57 L 517.89,534.57 L 514.66,535.53 L 511.42,536.46 L 508.17,537.34 L 504.91,538.19 L 501.64,538.98 L 498.36,539.73 L 495.06,540.43 L 491.76,541.09 L 488.45,541.70 L 485.13,542.27 L 481.80,542.80 L 478.47,543.28 L 475.13,543.72 L 471.78,544.12 L 468.43,544.49 L 465.08,544.82 L 461.73,545.12 L 458.37,545.40 L 455.01,545.65 L 451.65,545.89 L 448.29,546.11 L 444.92,546.32 L 441.56,546.51 L 438.19,546.70 L 434.83,546.88 L 431.46,547.05 L 428.10,547.21 L 424.73,547.37 L 421.37,547.52 L 418.00,547.67 L 414.63,547.81 L 411.27,547.96 L 407.90,548.11 L 404.54,548.26 L 401.17,548.42 L 397.80,548.58 L 394.44,548.75 L 391.07,548.92 L 387.71,549.10 L 384.34,549.28 L 380.98,549.46 L 377.62,549.65 L 374.25,549.84 L 370.89,550.02 L 367.52,550.21 L 364.16,550.40 L 360.79,550.58 L 357.43,550.76 L 354.06,550.94 L 350.70,551.12 L 347.33,551.30 L 343.97,551.47 L 340.60,551.64 L 337.24,551.82 L 333.87,551.98 L 330.51,552.15 L 327.14,552.31 L 323.78,552.47 L 320.41,552.63 L 317.05,552.78 L 313.68,552.94 L 310.31,553.08 L 306.95,553.23 L 303.58,553.37 L 300.21,553.52 L 296.85,553.66 L 293.48,553.80 L 290.11,553.94 L 286.75,554.09 L 283.38,554.24 L 280.02,554.39 L 276.65,554.54 L 273.28,554.70 L 269.92,554.86 L 266.55,555.02 L 263.19,555.19 L 259.82,555.35 L 256.46,555.52 L 253.09,555.68 L 249.72,555.85 L 246.36,556.01 L 242.99,556.17 L 239.63,556.33 L 236.26,556.49 L 232.90,556.65 L 229.53,556.80 L 226.16,556.95 L 222.80,557.10 L 219.43,557.25 L 216.06,557.39 L 212.70,557.54 L 209.33,557.67 L 205.96,557.81 L 202.60,557.94 L 199.23,558.07 L 195.86,558.20 L 192.50,558.33 L 189.13,558.45 L 185.76,558.57 L 182.39,558.67 L 179.03,558.77 L 175.66,558.86 L 172.29,558.92 L 168.92,558.94 L 165.56,558.90 L 162.20,558.78 L 158.85,558.53 L 155.53,558.12 L 152.26,557.49 L 149.08,556.60 L 146.02,555.41 L 143.12,553.89 L 140.42,552.05 L 137.93,549.90 L 135.66,547.50 L 133.58,544.91 L 131.62,542.20 L 129.71,539.45 L 127.76,536.72 L 125.70,534.10 L 123.48,531.63 L 121.06,529.38 L 118.44,527.38 L 115.63,525.65 L 112.66,524.21 L 109.56,523.06 L 106.36,522.20 L 103.09,521.61 L 99.77,521.27 L 96.44,521.16 L 93.09,521.25 L 89.74,521.48 L 86.40,521.81 L 83.05,522.16 L 79.71,522.45 L 76.37,522.62 L 73.03,522.60 L 69.71,522.34 L 66.44,521.80 L 63.25,520.97 L 60.17,519.81 L 57.23,518.34 L 54.48,516.55 L 51.93,514.47 L 49.59,512.14 L 47.47,509.60 L 45.55,506.87 L 43.83,504.01 L 42.27,501.05 L 40.84,498.01 L 39.53,494.92 L 38.30,491.78 L 37.12,488.63 L 35.97,485.46 L 34.84,482.29 L 33.72,479.11 L 32.60,475.93 L 31.48,472.76 L 30.34,469.58 L 29.20,466.41 L 28.05,463.24 L 26.89,460.08 L 25.72,456.92 L 24.53,453.77 L 23.34,450.62 L 22.13,447.47 L 20.92,444.33 L 19.69,441.19 L 18.46,438.06 L 17.21,434.92 L 15.96,431.80 L 14.71,428.67 L 13.45,425.54 L 12.20,422.41 L 10.94,419.29 L 9.70,416.16 L 8.46,413.02 L 7.23,409.88 L 6.03,406.74 L 4.86,403.58 L 3.75,400.40 L 2.71,397.20 L 1.78,393.97 L 1.00,390.72 L 0.41,387.43 L 0.06,384.13 L 0.00,380.83 L 0.29,377.56 L 0.97,374.39 L 2.07,371.36 L 3.60,368.55 L 5.55,366.03 L 7.88,363.87 L 10.54,362.13 L 13.46,360.85 L 16.54,360.06 L 19.72,359.78 L 22.91,360.01 L 26.04,360.73 L 29.04,361.91 L 31.87,363.50 L 34.49,365.46 L 36.86,367.71 L 38.98,370.23 L 40.83,372.96 L 42.43,375.87 L 43.79,378.90 L 44.94,382.04 L 45.94,385.24 L 46.81,388.49 L 47.61,391.76 L 48.37,395.04 L 49.13,398.32 L 49.93,401.59 L 50.78,404.85 L 51.73,408.07 L 52.79,411.26 L 54.00,414.38 L 55.38,417.42 L 56.96,420.36 L 58.75,423.14 L 60.78,425.75 L 63.05,428.15 L 65.55,430.29 L 68.26,432.16 L 71.15,433.74 L 74.19,435.03 L 77.35,436.04 L 80.59,436.79 L 83.89,437.32 L 87.22,437.64 L 90.57,437.78 L 93.93,437.78 L 97.29,437.66 L 100.64,437.44 L 104.00,437.16 L 107.35,436.83 L 110.70,436.47 L 114.05,436.12 L 117.40,435.78 L 120.76,435.45 L 124.11,435.15 L 127.47,434.87 L 130.83,434.62 L 134.19,434.40 L 137.55,434.21 L 140.92,434.05 L 144.29,433.92 L 147.65,433.82 L 151.02,433.75 L 154.39,433.71 L 157.76,433.70 L 161.13,433.71 L 164.50,433.76 L 167.86,433.83 L 171.23,433.93 L 174.60,434.05 L 177.97,434.19 L 181.33,434.35 L 184.70,434.51 L 188.06,434.69 L 191.43,434.88 L 194.79,435.07 L 198.15,435.26 L 201.52,435.45 L 204.88,435.65 L 208.25,435.85 L 211.61,436.06 L 214.97,436.26 L 218.34,436.47 L 221.70,436.67 L 225.06,436.88 L 228.42,437.09 L 231.79,437.30 L 235.15,437.51 L 238.51,437.71 L 241.88,437.92 L 245.24,438.12 L 248.60,438.32 L 251.97,438.49 L 255.33,438.64 L 258.70,438.76 L 262.07,438.82 L 265.43,438.80 L 268.79,438.70 L 272.14,438.47 L 275.48,438.11 L 278.78,437.58 L 282.05,436.87 L 285.27,435.96 L 288.42,434.86 L 291.50,433.55 L 294.48,432.05 L 297.36,430.36 L 300.13,428.49 L 302.78,426.46 L 305.30,424.26 L 307.68,421.91 L 309.91,419.42 L 311.99,416.80 L 313.92,414.07 L 315.69,411.22 L 317.30,408.29 L 318.76,405.27 L 320.05,402.18 L 321.19,399.03 L 322.19,395.83 L 323.04,392.58 L 323.75,389.30 L 324.33,385.99 L 324.78,382.66 L 325.09,379.32 L 325.28,375.97 L 325.33,372.61 L 325.24,369.25 L 325.02,365.90 L 324.65,362.57 L 324.14,359.25 L 323.49,355.96 L 322.69,352.70 L 321.75,349.48 L 320.66,346.31 L 319.44,343.18 L 318.07,340.12 L 316.58,337.11 L 314.96,334.17 L 313.21,331.31 L 311.34,328.52 L 309.36,325.81 L 307.26,323.19 L 305.06,320.65 L 302.77,318.20 L 300.38,315.83 L 297.92,313.55 L 295.38,311.34 L 292.78,309.20 L 290.12,307.14 L 287.42,305.13 L 284.67,303.18 L 281.90,301.28 L 279.09,299.41 L 276.27,297.57 L 273.44,295.75 L 270.60,293.93 L 267.76,292.11 L 264.93,290.29 L 262.10,288.47 L 259.27,286.63 L 256.45,284.79 L 253.64,282.94 L 250.83,281.07 L 248.02,279.21 L 245.22,277.33 L 242.43,275.45 L 239.64,273.57 L 236.85,271.67 L 234.06,269.78 L 231.28,267.88 L 228.50,265.98 L 225.72,264.07 L 222.94,262.16 L 220.17,260.25 L 217.39,258.34 L 214.62,256.42 L 211.86,254.49 L 209.10,252.56 L 206.35,250.62 L 203.60,248.66 L 200.88,246.68 L 198.19,244.66 L 195.54,242.58 L 192.96,240.43 L 190.48,238.17 L 188.12,235.80 L 185.92,233.29 L 183.91,230.64 L 182.12,227.84 L 180.58,224.91 L 179.32,221.85 L 178.36,218.69 L 177.71,215.46 L 177.38,212.17 L 177.37,208.86 L 177.67,205.56 L 178.27,202.31 L 179.17,199.12 L 180.35,196.03 L 181.80,193.04 L 183.48,190.17 L 185.35,187.40 L 187.36,184.71 L 189.42,182.06 L 191.47,179.40 L 193.43,176.69 L 195.24,173.88 L 196.84,170.97 L 198.19,167.94 L 199.26,164.81 L 200.05,161.59 L 200.52,158.32 L 200.70,155.01 L 200.59,151.70 L 200.19,148.40 L 199.51,145.15 L 198.58,141.96 L 197.41,138.84 L 196.01,135.81 L 194.40,132.89 L 192.61,130.08 L 190.64,127.37 L 188.54,124.76 L 186.31,122.25 L 184.00,119.81 L 181.61,117.44 L 179.17,115.12 L 176.70,112.83 L 174.20,110.56 L 171.70,108.31 L 169.19,106.07 L 166.67,103.82 L 164.17,101.57 L 161.66,99.31 L 159.17,97.05 L 156.69,94.77 L 154.22,92.48 L 151.77,90.17 L 149.34,87.83 L 146.96,85.45 L 144.63,83.02 L 142.39,80.52 L 140.24,77.94 L 138.25,75.26 L 136.46,72.46 L 134.92,69.53 L 133.70,66.49 L 132.84,63.34 L 132.38,60.12 L 132.34,56.86 L 132.69,53.62 L 133.43,50.42 L 134.52,47.32 L 135.93,44.33 L 137.61,41.47 L 139.52,38.74 L 141.62,36.15 L 143.87,33.66 L 146.22,31.26 L 148.64,28.92 L 151.11,26.63 L 153.60,24.37 L 156.12,22.13 L 158.66,19.92 L 161.23,17.74 L 163.84,15.62 L 166.50,13.56 L 169.23,11.60 L 172.02,9.74 L 174.90,8.01 L 177.84,6.41 L 180.87,4.96 L 183.96,3.67 L 187.11,2.56 L 190.32,1.63 L 193.59,0.91 L 196.89,0.39 L 200.21,0.09 L 203.55,0.00 L 206.89,0.12 L 210.22,0.44 L 213.53,0.96 L 216.80,1.66 L 220.04,2.53 L 223.23,3.55 L 226.37,4.73 L 229.46,6.05 L 232.49,7.49 L 235.47,9.05 L 238.38,10.72 L 241.24,12.49 L 244.04,14.35 L 246.79,16.29 L 249.47,18.32 L 252.11,20.40 L 254.70,22.55 L 257.25,24.76 L 259.75,27.01 L 262.21,29.31 L 264.64,31.65 L 267.02,34.03 L 269.35,36.45 L 271.65,38.92 L 273.90,41.42 L 276.10,43.97 L 278.26,46.55 L 280.37,49.18 L 282.44,51.83 L 284.46,54.53 L 286.44,57.25 L 288.37,60.01 L 290.26,62.80 L 292.11,65.61 L 293.93,68.45 L 295.71,71.30 L 297.47,74.18 L 299.20,77.07 L 300.91,79.98 L 302.60,82.89 L 304.27,85.82 L 305.92,88.75 L 307.56,91.69 L 309.18,94.65 L 310.79,97.61 L 312.36,100.59 L 313.91,103.58 L 315.42,106.59 L 316.88,109.63 L 318.29,112.68 L 319.65,115.77 L 320.94,118.87 L 322.18,122.00 L 323.35,125.16 L 324.46,128.34 L 325.51,131.54 L 326.51,134.75 L 327.44,137.99 L 328.33,141.24 L 329.18,144.50 L 329.98,147.77 L 330.76,151.05 L 331.51,154.33 L 332.24,157.62 L 332.96,160.91 L 333.68,164.20 L 334.41,167.49 L 335.14,170.78 L 335.88,174.07 L 336.64,177.35 L 337.42,180.63 L 338.22,183.90 L 339.04,187.17 L 339.88,190.43 L 340.73,193.69 L 341.61,196.95 L 342.52,200.19 L 343.45,203.43 L 344.43,206.65 L 345.45,209.86 L 346.51,213.06 L 347.63,216.23 L 348.81,219.39 L 350.04,222.52 L 351.33,225.63 L 352.69,228.71 L 354.11,231.76 L 355.59,234.78 L 357.14,237.77 L 358.76,240.72 L 360.44,243.63 L 362.20,246.51 L 364.01,249.34 L 365.89,252.14 L 367.83,254.89 L 369.83,257.60 L 371.88,260.26 L 373.99,262.89 L 376.16,265.46 L 378.37,268.00 L 380.63,270.49 L 382.94,272.95 L 385.29,275.36 L 387.68,277.73 L 390.10,280.07 L 392.55,282.38 L 395.04,284.65 L 397.55,286.90 L 400.08,289.13 L 402.63,291.33 L 405.19,293.51 L 407.77,295.68 L 410.36,297.84 L 412.96,299.98 L 415.57,302.11 L 418.21,304.21 L 420.86,306.29 L 423.53,308.34 L 426.23,310.34 L 428.97,312.30 L 431.75,314.20 L 434.58,316.02 L 437.45,317.77 L 440.38,319.42 L 443.35,320.99 L 446.38,322.46 L 449.45,323.83 L 452.56,325.09 L 455.72,326.26 L 458.91,327.31 L 462.13,328.26 L 465.39,329.11 L 468.67,329.84 L 471.97,330.48 L 475.29,331.00 L 478.62,331.43 L 481.97,331.75 L 485.33,331.97 L 488.69,332.09 L 492.05,332.12 L 495.42,332.07 L 498.78,331.94 L 502.14,331.74 L 505.50,331.47 L 508.85,331.14 L 512.19,330.75 L 515.53,330.31 L 518.87,329.84 L 522.20,329.32 L 525.52,328.77 L 528.84,328.21 L 532.16,327.64 L 535.48,327.06 L 538.81,326.49 L 542.13,325.94 L 545.45,325.40 L 548.78,324.88 L 552.12,324.39 L 555.45,323.92 L 558.79,323.49 L 562.14,323.10 L 565.49,322.73 L 568.84,322.41 L 572.20,322.12 L 575.56,321.87 L 578.92,321.66 L 582.28,321.49 L 585.65,321.37 L 589.02,321.29 L 592.38,321.25 L 595.75,321.25 L 599.12,321.30 L 602.49,321.38 L 605.86,321.49 L 609.22,321.64 L 612.59,321.82 L 615.95,322.02 L 619.31,322.25 L 622.67,322.50 L 626.03,322.77 L 629.39,323.05 L 632.74,323.35 L 636.10,323.65 L 639.45,323.97 L 642.81,324.30 L 646.16,324.64 L 649.51,324.99 L 652.86,325.35 L 656.21,325.73 L 659.55,326.12 L 662.90,326.54 L 666.24,326.98 L 669.57,327.44 L 672.90,327.95 L 676.23,328.50 L 679.53,329.12 L 682.81,329.84 L 686.03,330.73 L 689.11,331.86 L 691.95,333.32 L 694.42,335.16 L 696.39,337.40 L 697.80,340.04 L 698.68,342.97 L 699.21,346.09 L 699.63,349.24 L 700.26,352.27 L 701.33,355.02 L 702.98,357.34 L 705.20,359.13 L 707.91,360.33 L 710.93,360.98 L 714.14,361.12 L 717.42,360.86 L 720.70,360.31 L 723.97,359.57 L 727.21,358.70 L 730.44,357.75 L 733.66,356.76 L 736.88,355.74 L 740.08,354.71 L 743.29,353.67 L 746.49,352.62 L 749.69,351.56 L 752.89,350.50 L 756.09,349.44 L 759.28,348.37 L 762.48,347.30 L 765.67,346.23 L 768.86,345.15 L 772.06,344.08 L 775.25,343.00 L 778.45,341.93 L 781.64,340.86 L 784.83,339.79 L 788.03,338.72 L 791.23,337.65 L 794.42,336.59 L 797.62,335.52 L 800.82,334.46 L 804.02,333.40 L 807.22,332.35 L 810.42,331.29 L 813.62,330.28 L 816.84,329.34 L 820.07,328.50 L 823.31,327.74 L 826.56,327.07 Z" fill="none" stroke="url(#g)" stroke-width="64.4" stroke-linecap="round" stroke-linejoin="round"/>
<path d="M 829.81,326.42 L 833.06,325.68 L 836.29,324.85 L 839.51,323.93 L 842.71,322.93 L 845.91,321.87 L 849.10,320.80 L 852.30,319.72 L 855.49,318.63 L 858.67,317.54 L 861.86,316.44 L 865.04,315.34 L 868.23,314.23 L 871.41,313.13 L 874.59,312.02 L 877.77,310.91 L 880.95,309.80 L 884.14,308.70 L 887.33,307.60 L 890.52,306.52 L 893.71,305.44 L 896.91,304.38 L 900.11,303.32 L 903.31,302.29 L 906.52,301.26 L 909.74,300.25 L 912.96,299.27 L 916.19,298.34 L 919.44,297.49 L 922.71,296.79 L 925.98,296.35 L 929.19,296.28 L 932.26,296.70 L 935.02,297.71 L 937.30,299.33 L 938.95,301.50 L 939.85,304.12 L 940.00,307.00 L 939.46,309.99 L 938.36,312.98 L 936.84,315.89 L 935.05,318.69 L 933.07,321.40 L 930.98,324.03 L 928.82,326.61 L 926.62,329.16 L 924.40,331.69 L 922.15,334.20 L 919.89,336.70 L 917.62,339.19 L 915.33,341.67 L 913.04,344.13 L 910.73,346.59 L 908.41,349.03 L 906.08,351.47 L 903.74,353.89 L 901.38,356.29 L 899.00,358.68 L 896.61,361.05 L 894.19,363.40 L 891.76,365.73 L 889.30,368.03 L 886.81,370.30 L 884.30,372.55 L 881.77,374.77 L 879.21,376.97 L 876.64,379.14 L 874.04,381.28 L 871.42,383.40 L 868.78,385.50 L 866.12,387.56 L 863.44,389.60 L 860.74,391.61 L 858.01,393.58 L 855.25,395.52 L 852.47,397.42 L 849.67,399.29 L 846.83,401.11 L 843.97,402.89 L 841.09,404.62 L 838.18,406.32 L 835.25,407.99 L 832.30,409.62 L 829.34,411.23 L 826.37,412.81 L 823.38,414.37 L 820.39,415.92 L 817.39,417.46 L 814.39,418.98 L 811.38,420.49 L 808.37,422.00 L 805.35,423.51 L 802.33,425.00 L 799.31,426.50 L 796.29,427.99 L 793.27,429.48 L 790.25,430.97 L 787.23,432.47 L 784.21,433.96 L 781.19,435.46 L 778.17,436.95 L 775.15,438.46 L 772.14,439.96 L 769.13,441.47 L 766.12,442.99 L 763.11,444.51 L 760.11,446.04 L 757.11,447.58 L 754.12,449.13 L 751.13,450.69 L 748.16,452.27 L 745.20,453.88 L 742.26,455.52 L 739.34,457.21 L 736.46,458.94 L 733.61,460.73 L 730.80,462.59 L 728.05,464.52 L 725.34,466.52 L 722.69,468.59 L 720.08,470.72 L 717.51,472.89 L 714.95,475.08 L 712.40,477.28 L 709.82,479.44 L 707.20,481.56 L 704.53,483.59 L 701.78,485.53 L 698.96,487.34 L 696.06,489.02 L 693.09,490.57 L 690.04,491.97 L 686.93,493.23 L 683.77,494.36 L 680.57,495.36 L 677.32,496.23 L 674.05,496.99 L 670.75,497.64 L 667.43,498.18 L 664.10,498.63 L 660.75,498.98 L 657.40,499.27 L 654.04,499.49 L 650.67,499.67 L 647.31,499.82 L 643.94,499.96 L 640.58,500.11 L 637.21,500.28 L 633.85,500.49 L 630.49,500.76 L 627.14,501.08 L 623.80,501.47 L 620.47,501.93 L 617.14,502.46 L 613.83,503.07 L 610.53,503.74 L 607.25,504.48 L 603.98,505.28 L 600.72,506.13 L 597.47,507.03 L 594.24,507.98 L 591.02,508.97 L 587.81,510.00 L 584.62,511.06 L 581.43,512.15 L 578.25,513.28 L 575.08,514.42 L 571.92,515.58 L 568.76,516.76 L 565.61,517.94 L 562.45,519.12 L 559.30,520.30 L 556.14,521.47 L 552.97,522.63 L 549.80,523.78 L 546.63,524.91 L 543.46,526.04 L 540.28,527.15 L 537.09,528.26 L 533.91,529.35 L 530.72,530.43 L 527.52,531.50 L 524.32,532.55 L 521.11,533.57 L 517.89,534.57 L 514.66,535.53 L 511.42,536.46 L 508.17,537.34 L 504.91,538.19 L 501.64,538.98 L 498.36,539.73 L 495.06,540.43 L 491.76,541.09 L 488.45,541.70 L 485.13,542.27 L 481.80,542.80 L 478.47,543.28 L 475.13,543.72 L 471.78,544.12 L 468.43,544.49 L 465.08,544.82 L 461.73,545.12 L 458.37,545.40 L 455.01,545.65 L 451.65,545.89 L 448.29,546.11 L 444.92,546.32 L 441.56,546.51 L 438.19,546.70 L 434.83,546.88 L 431.46,547.05 L 428.10,547.21 L 424.73,547.37 L 421.37,547.52 L 418.00,547.67 L 414.63,547.81 L 411.27,547.96 L 407.90,548.11 L 404.54,548.26 L 401.17,548.42 L 397.80,548.58 L 394.44,548.75 L 391.07,548.92 L 387.71,549.10 L 384.34,549.28 L 380.98,549.46 L 377.62,549.65 L 374.25,549.84 L 370.89,550.02 L 367.52,550.21 L 364.16,550.40 L 360.79,550.58 L 357.43,550.76 L 354.06,550.94 L 350.70,551.12 L 347.33,551.30 L 343.97,551.47 L 340.60,551.64 L 337.24,551.82 L 333.87,551.98 L 330.51,552.15 L 327.14,552.31 L 323.78,552.47 L 320.41,552.63 L 317.05,552.78 L 313.68,552.94 L 310.31,553.08 L 306.95,553.23 L 303.58,553.37 L 300.21,553.52 L 296.85,553.66 L 293.48,553.80 L 290.11,553.94 L 286.75,554.09 L 283.38,554.24 L 280.02,554.39 L 276.65,554.54 L 273.28,554.70 L 269.92,554.86 L 266.55,555.02 L 263.19,555.19 L 259.82,555.35 L 256.46,555.52 L 253.09,555.68 L 249.72,555.85 L 246.36,556.01 L 242.99,556.17 L 239.63,556.33 L 236.26,556.49 L 232.90,556.65 L 229.53,556.80 L 226.16,556.95 L 222.80,557.10 L 219.43,557.25 L 216.06,557.39 L 212.70,557.54 L 209.33,557.67 L 205.96,557.81 L 202.60,557.94 L 199.23,558.07 L 195.86,558.20 L 192.50,558.33 L 189.13,558.45 L 185.76,558.57 L 182.39,558.67 L 179.03,558.77 L 175.66,558.86 L 172.29,558.92 L 168.92,558.94 L 165.56,558.90 L 162.20,558.78 L 158.85,558.53 L 155.53,558.12 L 152.26,557.49 L 149.08,556.60 L 146.02,555.41 L 143.12,553.89 L 140.42,552.05 L 137.93,549.90 L 135.66,547.50 L 133.58,544.91 L 131.62,542.20 L 129.71,539.45 L 127.76,536.72 L 125.70,534.10 L 123.48,531.63 L 121.06,529.38 L 118.44,527.38 L 115.63,525.65 L 112.66,524.21 L 109.56,523.06 L 106.36,522.20 L 103.09,521.61 L 99.77,521.27 L 96.44,521.16 L 93.09,521.25 L 89.74,521.48 L 86.40,521.81 L 83.05,522.16 L 79.71,522.45 L 76.37,522.62 L 73.03,522.60 L 69.71,522.34 L 66.44,521.80 L 63.25,520.97 L 60.17,519.81 L 57.23,518.34 L 54.48,516.55 L 51.93,514.47 L 49.59,512.14 L 47.47,509.60 L 45.55,506.87 L 43.83,504.01 L 42.27,501.05 L 40.84,498.01 L 39.53,494.92 L 38.30,491.78 L 37.12,488.63 L 35.97,485.46 L 34.84,482.29 L 33.72,479.11 L 32.60,475.93 L 31.48,472.76 L 30.34,469.58 L 29.20,466.41 L 28.05,463.24 L 26.89,460.08 L 25.72,456.92 L 24.53,453.77 L 23.34,450.62 L 22.13,447.47 L 20.92,444.33 L 19.69,441.19 L 18.46,438.06 L 17.21,434.92 L 15.96,431.80 L 14.71,428.67 L 13.45,425.54 L 12.20,422.41 L 10.94,419.29 L 9.70,416.16 L 8.46,413.02 L 7.23,409.88 L 6.03,406.74 L 4.86,403.58 L 3.75,400.40 L 2.71,397.20 L 1.78,393.97 L 1.00,390.72 L 0.41,387.43 L 0.06,384.13 L 0.00,380.83 L 0.29,377.56 L 0.97,374.39 L 2.07,371.36 L 3.60,368.55 L 5.55,366.03 L 7.88,363.87 L 10.54,362.13 L 13.46,360.85 L 16.54,360.06 L 19.72,359.78 L 22.91,360.01 L 26.04,360.73 L 29.04,361.91 L 31.87,363.50 L 34.49,365.46 L 36.86,367.71 L 38.98,370.23 L 40.83,372.96 L 42.43,375.87 L 43.79,378.90 L 44.94,382.04 L 45.94,385.24 L 46.81,388.49 L 47.61,391.76 L 48.37,395.04 L 49.13,398.32 L 49.93,401.59 L 50.78,404.85 L 51.73,408.07 L 52.79,411.26 L 54.00,414.38 L 55.38,417.42 L 56.96,420.36 L 58.75,423.14 L 60.78,425.75 L 63.05,428.15 L 65.55,430.29 L 68.26,432.16 L 71.15,433.74 L 74.19,435.03 L 77.35,436.04 L 80.59,436.79 L 83.89,437.32 L 87.22,437.64 L 90.57,437.78 L 93.93,437.78 L 97.29,437.66 L 100.64,437.44 L 104.00,437.16 L 107.35,436.83 L 110.70,436.47 L 114.05,436.12 L 117.40,435.78 L 120.76,435.45 L 124.11,435.15 L 127.47,434.87 L 130.83,434.62 L 134.19,434.40 L 137.55,434.21 L 140.92,434.05 L 144.29,433.92 L 147.65,433.82 L 151.02,433.75 L 154.39,433.71 L 157.76,433.70 L 161.13,433.71 L 164.50,433.76 L 167.86,433.83 L 171.23,433.93 L 174.60,434.05 L 177.97,434.19 L 181.33,434.35 L 184.70,434.51 L 188.06,434.69 L 191.43,434.88 L 194.79,435.07 L 198.15,435.26 L 201.52,435.45 L 204.88,435.65 L 208.25,435.85 L 211.61,436.06 L 214.97,436.26 L 218.34,436.47 L 221.70,436.67 L 225.06,436.88 L 228.42,437.09 L 231.79,437.30 L 235.15,437.51 L 238.51,437.71 L 241.88,437.92 L 245.24,438.12 L 248.60,438.32 L 251.97,438.49 L 255.33,438.64 L 258.70,438.76 L 262.07,438.82 L 265.43,438.80 L 268.79,438.70 L 272.14,438.47 L 275.48,438.11 L 278.78,437.58 L 282.05,436.87 L 285.27,435.96 L 288.42,434.86 L 291.50,433.55 L 294.48,432.05 L 297.36,430.36 L 300.13,428.49 L 302.78,426.46 L 305.30,424.26 L 307.68,421.91 L 309.91,419.42 L 311.99,416.80 L 313.92,414.07 L 315.69,411.22 L 317.30,408.29 L 318.76,405.27 L 320.05,402.18 L 321.19,399.03 L 322.19,395.83 L 323.04,392.58 L 323.75,389.30 L 324.33,385.99 L 324.78,382.66 L 325.09,379.32 L 325.28,375.97 L 325.33,372.61 L 325.24,369.25 L 325.02,365.90 L 324.65,362.57 L 324.14,359.25 L 323.49,355.96 L 322.69,352.70 L 321.75,349.48 L 320.66,346.31 L 319.44,343.18 L 318.07,340.12 L 316.58,337.11 L 314.96,334.17 L 313.21,331.31 L 311.34,328.52 L 309.36,325.81 L 307.26,323.19 L 305.06,320.65 L 302.77,318.20 L 300.38,315.83 L 297.92,313.55 L 295.38,311.34 L 292.78,309.20 L 290.12,307.14 L 287.42,305.13 L 284.67,303.18 L 281.90,301.28 L 279.09,299.41 L 276.27,297.57 L 273.44,295.75 L 270.60,293.93 L 267.76,292.11 L 264.93,290.29 L 262.10,288.47 L 259.27,286.63 L 256.45,284.79 L 253.64,282.94 L 250.83,281.07 L 248.02,279.21 L 245.22,277.33 L 242.43,275.45 L 239.64,273.57 L 236.85,271.67 L 234.06,269.78 L 231.28,267.88 L 228.50,265.98 L 225.72,264.07 L 222.94,262.16 L 220.17,260.25 L 217.39,258.34 L 214.62,256.42 L 211.86,254.49 L 209.10,252.56 L 206.35,250.62 L 203.60,248.66 L 200.88,246.68 L 198.19,244.66 L 195.54,242.58 L 192.96,240.43 L 190.48,238.17 L 188.12,235.80 L 185.92,233.29 L 183.91,230.64 L 182.12,227.84 L 180.58,224.91 L 179.32,221.85 L 178.36,218.69 L 177.71,215.46 L 177.38,212.17 L 177.37,208.86 L 177.67,205.56 L 178.27,202.31 L 179.17,199.12 L 180.35,196.03 L 181.80,193.04 L 183.48,190.17 L 185.35,187.40 L 187.36,184.71 L 189.42,182.06 L 191.47,179.40 L 193.43,176.69 L 195.24,173.88 L 196.84,170.97 L 198.19,167.94 L 199.26,164.81 L 200.05,161.59 L 200.52,158.32 L 200.70,155.01 L 200.59,151.70 L 200.19,148.40 L 199.51,145.15 L 198.58,141.96 L 197.41,138.84 L 196.01,135.81 L 194.40,132.89 L 192.61,130.08 L 190.64,127.37 L 188.54,124.76 L 186.31,122.25 L 184.00,119.81 L 181.61,117.44 L 179.17,115.12 L 176.70,112.83 L 174.20,110.56 L 171.70,108.31 L 169.19,106.07 L 166.67,103.82 L 164.17,101.57 L 161.66,99.31 L 159.17,97.05 L 156.69,94.77 L 154.22,92.48 L 151.77,90.17 L 149.34,87.83 L 146.96,85.45 L 144.63,83.02 L 142.39,80.52 L 140.24,77.94 L 138.25,75.26 L 136.46,72.46 L 134.92,69.53 L 133.70,66.49 L 132.84,63.34 L 132.38,60.12 L 132.34,56.86 L 132.69,53.62 L 133.43,50.42 L 134.52,47.32 L 135.93,44.33 L 137.61,41.47 L 139.52,38.74 L 141.62,36.15 L 143.87,33.66 L 146.22,31.26 L 148.64,28.92 L 151.11,26.63 L 153.60,24.37 L 156.12,22.13 L 158.66,19.92 L 161.23,17.74 L 163.84,15.62 L 166.50,13.56 L 169.23,11.60 L 172.02,9.74 L 174.90,8.01 L 177.84,6.41 L 180.87,4.96 L 183.96,3.67 L 187.11,2.56 L 190.32,1.63 L 193.59,0.91 L 196.89,0.39 L 200.21,0.09 L 203.55,0.00 L 206.89,0.12 L 210.22,0.44 L 213.53,0.96 L 216.80,1.66 L 220.04,2.53 L 223.23,3.55 L 226.37,4.73 L 229.46,6.05 L 232.49,7.49 L 235.47,9.05 L 238.38,10.72 L 241.24,12.49 L 244.04,14.35 L 246.79,16.29 L 249.47,18.32 L 252.11,20.40 L 254.70,22.55 L 257.25,24.76 L 259.75,27.01 L 262.21,29.31 L 264.64,31.65 L 267.02,34.03 L 269.35,36.45 L 271.65,38.92 L 273.90,41.42 L 276.10,43.97 L 278.26,46.55 L 280.37,49.18 L 282.44,51.83 L 284.46,54.53 L 286.44,57.25 L 288.37,60.01 L 290.26,62.80 L 292.11,65.61 L 293.93,68.45 L 295.71,71.30 L 297.47,74.18 L 299.20,77.07 L 300.91,79.98 L 302.60,82.89 L 304.27,85.82 L 305.92,88.75 L 307.56,91.69 L 309.18,94.65 L 310.79,97.61 L 312.36,100.59 L 313.91,103.58 L 315.42,106.59 L 316.88,109.63 L 318.29,112.68 L 319.65,115.77 L 320.94,118.87 L 322.18,122.00 L 323.35,125.16 L 324.46,128.34 L 325.51,131.54 L 326.51,134.75 L 327.44,137.99 L 328.33,141.24 L 329.18,144.50 L 329.98,147.77 L 330.76,151.05 L 331.51,154.33 L 332.24,157.62 L 332.96,160.91 L 333.68,164.20 L 334.41,167.49 L 335.14,170.78 L 335.88,174.07 L 336.64,177.35 L 337.42,180.63 L 338.22,183.90 L 339.04,187.17 L 339.88,190.43 L 340.73,193.69 L 341.61,196.95 L 342.52,200.19 L 343.45,203.43 L 344.43,206.65 L 345.45,209.86 L 346.51,213.06 L 347.63,216.23 L 348.81,219.39 L 350.04,222.52 L 351.33,225.63 L 352.69,228.71 L 354.11,231.76 L 355.59,234.78 L 357.14,237.77 L 358.76,240.72 L 360.44,243.63 L 362.20,246.51 L 364.01,249.34 L 365.89,252.14 L 367.83,254.89 L 369.83,257.60 L 371.88,260.26 L 373.99,262.89 L 376.16,265.46 L 378.37,268.00 L 380.63,270.49 L 382.94,272.95 L 385.29,275.36 L 387.68,277.73 L 390.10,280.07 L 392.55,282.38 L 395.04,284.65 L 397.55,286.90 L 400.08,289.13 L 402.63,291.33 L 405.19,293.51 L 407.77,295.68 L 410.36,297.84 L 412.96,299.98 L 415.57,302.11 L 418.21,304.21 L 420.86,306.29 L 423.53,308.34 L 426.23,310.34 L 428.97,312.30 L 431.75,314.20 L 434.58,316.02 L 437.45,317.77 L 440.38,319.42 L 443.35,320.99 L 446.38,322.46 L 449.45,323.83 L 452.56,325.09 L 455.72,326.26 L 458.91,327.31 L 462.13,328.26 L 465.39,329.11 L 468.67,329.84 L 471.97,330.48 L 475.29,331.00 L 478.62,331.43 L 481.97,331.75 L 485.33,331.97 L 488.69,332.09 L 492.05,332.12 L 495.42,332.07 L 498.78,331.94 L 502.14,331.74 L 505.50,331.47 L 508.85,331.14 L 512.19,330.75 L 515.53,330.31 L 518.87,329.84 L 522.20,329.32 L 525.52,328.77 L 528.84,328.21 L 532.16,327.64 L 535.48,327.06 L 538.81,326.49 L 542.13,325.94 L 545.45,325.40 L 548.78,324.88 L 552.12,324.39 L 555.45,323.92 L 558.79,323.49 L 562.14,323.10 L 565.49,322.73 L 568.84,322.41 L 572.20,322.12 L 575.56,321.87 L 578.92,321.66 L 582.28,321.49 L 585.65,321.37 L 589.02,321.29 L 592.38,321.25 L 595.75,321.25 L 599.12,321.30 L 602.49,321.38 L 605.86,321.49 L 609.22,321.64 L 612.59,321.82 L 615.95,322.02 L 619.31,322.25 L 622.67,322.50 L 626.03,322.77 L 629.39,323.05 L 632.74,323.35 L 636.10,323.65 L 639.45,323.97 L 642.81,324.30 L 646.16,324.64 L 649.51,324.99 L 652.86,325.35 L 656.21,325.73 L 659.55,326.12 L 662.90,326.54 L 666.24,326.98 L 669.57,327.44 L 672.90,327.95 L 676.23,328.50 L 679.53,329.12 L 682.81,329.84 L 686.03,330.73 L 689.11,331.86 L 691.95,333.32 L 694.42,335.16 L 696.39,337.40 L 697.80,340.04 L 698.68,342.97 L 699.21,346.09 L 699.63,349.24 L 700.26,352.27 L 701.33,355.02 L 702.98,357.34 L 705.20,359.13 L 707.91,360.33 L 710.93,360.98 L 714.14,361.12 L 717.42,360.86 L 720.70,360.31 L 723.97,359.57 L 727.21,358.70 L 730.44,357.75 L 733.66,356.76 L 736.88,355.74 L 740.08,354.71 L 743.29,353.67 L 746.49,352.62 L 749.69,351.56 L 752.89,350.50 L 756.09,349.44 L 759.28,348.37 L 762.48,347.30 L 765.67,346.23 L 768.86,345.15 L 772.06,344.08 L 775.25,343.00 L 778.45,341.93 L 781.64,340.86 L 784.83,339.79 L 788.03,338.72 L 791.23,337.65 L 794.42,336.59 L 797.62,335.52 L 800.82,334.46 L 804.02,333.40 L 807.22,332.35 L 810.42,331.29 L 813.62,330.28 L 816.84,329.34 L 820.07,328.50 L 823.31,327.74 L 826.56,327.07 Z" fill="none" stroke="#ffffff" stroke-opacity="0.9" stroke-width="4.8" stroke-linecap="round" stroke-linejoin="round"/>
</svg>
