<svg xmlns="http://www.w3.org/2000/svg" viewBox="-76.0 -76.0 1092.0 741.1">
<defs><linearGradient id="g" gradientUnits="userSpaceOnUse" x1="11" y1="-17" x2="929" y2="606">
<stop offset="0" stop-color="#0d9be0"/><stop offset="1" stop-color="#0a1035"/></linearGradient></defs>
<path d="M 718.84,0.00 L 722.13,0.15 L 725.39,0.50 L 728.65,0.97 L 731.93,1.51 L 735.23,2.03 L 738.58,2.44 L 741.98,2.71 L 745.43,2.87 L 748.91,2.95 L 752.42,2.98 L 755.94,2.98 L 759.45,2.99 L 762.95,3.03 L 766.42,3.14 L 769.85,3.35 L 773.24,3.67 L 776.56,4.13 L 779.84,4.71 L 783.09,5.35 L 786.33,6.03 L 789.55,6.73 L 792.79,7.41 L 796.03,8.08 L 799.23,8.84 L 802.37,9.76 L 805.41,10.90 L 808.32,12.38 L 811.08,14.20 L 813.72,16.31 L 816.28,18.62 L 818.77,21.07 L 821.15,23.60 L 823.41,26.18 L 825.51,28.83 L 827.38,31.57 L 829.03,34.40 L 830.50,37.31 L 831.84,40.27 L 833.08,43.27 L 834.26,46.30 L 835.42,49.34 L 836.45,52.37 L 837.20,55.37 L 837.54,58.31 L 837.35,61.16 L 836.47,63.91 L 834.98,66.55 L 833.03,69.13 L 830.76,71.65 L 828.31,74.14 L 825.83,76.62 L 823.34,79.11 L 820.85,81.60 L 818.39,84.10 L 815.99,86.62 L 813.70,89.19 L 811.55,91.81 L 809.57,94.51 L 807.75,97.27 L 806.05,100.09 L 804.42,102.93 L 802.77,105.71 L 800.99,108.34 L 799.02,110.74 L 796.80,112.84 L 794.27,114.56 L 791.51,115.98 L 788.56,117.16 L 785.50,118.20 L 782.38,119.16 L 779.26,120.11 L 776.13,121.05 L 773.00,121.99 L 769.87,122.93 L 766.74,123.85 L 763.60,124.76 L 760.45,125.65 L 757.29,126.52 L 754.13,127.39 L 750.97,128.24 L 747.81,129.10 L 744.64,129.95 L 741.47,130.79 L 738.30,131.62 L 735.13,132.44 L 731.95,133.26 L 728.77,134.08 L 725.59,134.90 L 722.41,135.71 L 719.23,136.53 L 716.06,137.35 L 712.88,138.16 L 709.70,138.98 L 706.52,139.81 L 703.35,140.64 L 700.18,141.47 L 697.00,142.30 L 693.83,143.12 L 690.65,143.93 L 687.47,144.75 L 684.30,145.58 L 681.12,146.42 L 677.95,147.25 L 674.78,148.09 L 671.61,148.91 L 668.43,149.73 L 665.25,150.55 L 662.07,151.37 L 658.90,152.20 L 655.73,153.05 L 652.57,153.91 L 649.42,154.78 L 646.27,155.68 L 643.14,156.60 L 640.01,157.55 L 636.90,158.53 L 633.80,159.53 L 630.72,160.57 L 627.64,161.65 L 624.58,162.75 L 621.53,163.88 L 618.50,165.05 L 615.48,166.24 L 612.46,167.45 L 609.46,168.69 L 606.47,169.96 L 603.49,171.26 L 600.53,172.60 L 597.59,174.00 L 594.77,175.52 L 592.11,177.23 L 589.71,179.18 L 587.62,181.43 L 585.91,183.98 L 584.49,186.77 L 583.29,189.73 L 582.27,192.81 L 581.32,195.93 L 580.41,199.07 L 579.53,202.23 L 578.69,205.40 L 577.89,208.58 L 577.13,211.78 L 576.47,215.00 L 575.95,218.23 L 575.62,221.48 L 575.52,224.74 L 575.68,228.01 L 576.05,231.26 L 576.57,234.51 L 577.21,237.75 L 577.92,240.98 L 578.65,244.19 L 579.41,247.39 L 580.20,250.58 L 581.01,253.76 L 581.86,256.93 L 582.74,260.08 L 583.70,263.20 L 584.74,266.29 L 585.88,269.33 L 587.12,272.34 L 588.47,275.30 L 589.88,278.23 L 591.34,281.14 L 592.85,284.03 L 594.41,286.90 L 596.03,289.75 L 597.73,292.53 L 599.60,295.16 L 601.67,297.53 L 603.97,299.57 L 606.56,301.19 L 609.43,302.35 L 612.52,303.17 L 615.77,303.73 L 619.11,304.14 L 622.48,304.48 L 625.86,304.82 L 629.23,305.16 L 632.61,305.50 L 635.98,305.84 L 639.36,306.19 L 642.74,306.53 L 646.11,306.87 L 649.49,307.20 L 652.87,307.54 L 656.24,307.88 L 659.62,308.22 L 663.00,308.56 L 666.37,308.90 L 669.74,309.26 L 673.09,309.66 L 676.42,310.11 L 679.73,310.61 L 683.01,311.19 L 686.26,311.84 L 689.49,312.51 L 692.72,313.21 L 695.94,313.93 L 699.16,314.65 L 702.38,315.36 L 705.60,316.08 L 708.82,316.79 L 712.04,317.51 L 715.26,318.23 L 718.49,318.94 L 721.71,319.66 L 724.93,320.37 L 728.15,321.09 L 731.37,321.81 L 734.59,322.52 L 737.81,323.24 L 741.03,323.96 L 744.25,324.67 L 747.47,325.38 L 750.69,326.09 L 753.92,326.80 L 757.14,327.50 L 760.37,328.21 L 763.59,328.93 L 766.81,329.64 L 770.02,330.38 L 773.22,331.14 L 776.42,331.92 L 779.59,332.74 L 782.75,333.61 L 785.88,334.53 L 789.00,335.49 L 792.10,336.50 L 795.19,337.54 L 798.26,338.61 L 801.32,339.72 L 804.37,340.86 L 807.37,342.06 L 810.27,343.39 L 812.98,344.91 L 815.42,346.69 L 817.54,348.80 L 819.29,351.25 L 820.76,353.97 L 822.00,356.89 L 823.09,359.93 L 824.10,363.03 L 825.06,366.14 L 826.00,369.27 L 826.90,372.42 L 827.76,375.58 L 828.57,378.76 L 829.36,381.95 L 830.14,385.14 L 830.95,388.33 L 831.81,391.49 L 832.77,394.61 L 833.80,397.70 L 834.88,400.77 L 835.96,403.84 L 837.01,406.92 L 837.99,410.03 L 838.93,413.16 L 839.83,416.30 L 840.73,419.45 L 841.65,422.58 L 842.61,425.70 L 843.61,428.80 L 844.66,431.88 L 845.76,434.95 L 846.98,437.93 L 848.36,440.77 L 849.98,443.42 L 851.89,445.81 L 854.14,447.88 L 856.67,449.67 L 859.42,451.24 L 862.31,452.66 L 865.28,453.98 L 868.26,455.28 L 871.25,456.54 L 874.26,457.79 L 877.27,459.00 L 880.30,460.19 L 883.33,461.37 L 886.36,462.54 L 889.39,463.71 L 892.41,464.90 L 895.43,466.11 L 898.44,467.34 L 901.44,468.59 L 904.43,469.84 L 907.43,471.10 L 910.42,472.36 L 913.42,473.61 L 916.42,474.86 L 919.38,476.17 L 922.21,477.60 L 924.87,479.23 L 927.28,481.12 L 929.39,483.35 L 931.20,485.86 L 932.80,488.58 L 934.23,491.47 L 935.54,494.44 L 936.80,497.43 L 937.95,500.45 L 938.91,503.49 L 939.62,506.55 L 940.00,509.64 L 939.98,512.77 L 939.65,515.91 L 939.07,519.07 L 938.32,522.24 L 937.49,525.41 L 936.65,528.58 L 935.80,531.74 L 934.95,534.91 L 934.10,538.07 L 933.25,541.23 L 932.39,544.40 L 931.54,547.56 L 930.68,550.72 L 929.83,553.89 L 928.94,557.04 L 927.97,560.15 L 926.88,563.22 L 925.59,566.18 L 924.02,568.95 L 922.13,571.47 L 919.94,573.70 L 917.45,575.59 L 914.70,577.16 L 911.79,578.47 L 908.77,579.61 L 905.68,580.62 L 902.55,581.55 L 899.40,582.44 L 896.23,583.29 L 893.05,584.11 L 889.86,584.89 L 886.66,585.64 L 883.44,586.36 L 880.20,587.05 L 876.95,587.69 L 873.68,588.24 L 870.39,588.68 L 867.08,588.98 L 863.75,589.08 L 860.41,589.00 L 857.07,588.78 L 853.72,588.44 L 850.38,588.03 L 847.05,587.59 L 843.72,587.14 L 840.40,586.67 L 837.08,586.18 L 833.77,585.69 L 830.46,585.18 L 827.16,584.65 L 823.87,584.11 L 820.58,583.56 L 817.30,582.98 L 814.04,582.37 L 810.80,581.70 L 807.59,580.96 L 804.42,580.13 L 801.28,579.20 L 798.19,578.18 L 795.13,577.07 L 792.10,575.90 L 789.09,574.68 L 786.09,573.43 L 783.11,572.14 L 780.13,570.83 L 777.18,569.48 L 774.24,568.08 L 771.31,566.65 L 768.41,565.17 L 765.52,563.64 L 762.65,562.08 L 759.79,560.49 L 756.94,558.88 L 754.10,557.26 L 751.25,555.64 L 748.41,554.02 L 745.57,552.39 L 742.72,550.76 L 739.88,549.13 L 737.04,547.49 L 734.20,545.86 L 731.36,544.22 L 728.53,542.58 L 725.70,540.92 L 722.87,539.24 L 720.06,537.54 L 717.27,535.80 L 714.48,534.03 L 711.71,532.24 L 708.94,530.43 L 706.19,528.59 L 703.44,526.72 L 700.71,524.81 L 698.01,522.85 L 695.34,520.82 L 692.69,518.72 L 690.10,516.53 L 687.56,514.26 L 685.08,511.91 L 682.68,509.47 L 680.35,506.96 L 678.09,504.40 L 675.88,501.81 L 673.70,499.19 L 671.54,496.57 L 669.38,493.95 L 667.21,491.33 L 665.03,488.71 L 662.85,486.10 L 660.65,483.49 L 658.45,480.89 L 656.24,478.28 L 654.04,475.68 L 651.83,473.08 L 649.62,470.48 L 647.43,467.87 L 645.23,465.26 L 643.04,462.65 L 640.85,460.04 L 638.64,457.44 L 636.44,454.83 L 634.22,452.23 L 632.01,449.63 L 629.81,447.03 L 627.60,444.43 L 625.39,441.83 L 623.18,439.22 L 620.97,436.62 L 618.76,434.02 L 616.55,431.42 L 614.33,428.82 L 612.10,426.23 L 609.85,423.64 L 607.55,421.08 L 605.22,418.53 L 602.83,416.02 L 600.39,413.55 L 597.91,411.13 L 595.44,408.73 L 593.04,406.32 L 590.77,403.87 L 588.70,401.33 L 586.84,398.66 L 585.15,395.90 L 583.56,393.07 L 581.98,390.21 L 580.38,387.36 L 578.68,384.58 L 576.83,381.96 L 574.78,379.60 L 572.50,377.58 L 569.92,375.99 L 567.06,374.83 L 563.98,374.01 L 560.76,373.43 L 557.44,372.97 L 554.09,372.56 L 550.75,372.14 L 547.41,371.71 L 544.07,371.29 L 540.73,370.86 L 537.38,370.44 L 534.03,370.03 L 530.68,369.63 L 527.33,369.24 L 523.97,368.86 L 520.62,368.46 L 517.27,368.06 L 513.92,367.65 L 510.58,367.22 L 507.25,366.76 L 503.94,366.26 L 500.66,365.70 L 497.41,365.06 L 494.18,364.36 L 490.97,363.63 L 487.75,362.91 L 484.51,362.23 L 481.24,361.63 L 477.95,361.10 L 474.63,360.62 L 471.29,360.17 L 467.95,359.75 L 464.60,359.34 L 461.25,358.94 L 457.90,358.55 L 454.55,358.15 L 451.19,357.76 L 447.84,357.36 L 444.49,356.95 L 441.15,356.54 L 437.80,356.13 L 434.44,355.78 L 431.09,355.52 L 427.73,355.39 L 424.37,355.42 L 421.02,355.62 L 417.68,355.94 L 414.35,356.36 L 411.04,356.85 L 407.74,357.37 L 404.44,357.90 L 401.15,358.45 L 397.87,359.01 L 394.58,359.57 L 391.30,360.14 L 388.02,360.72 L 384.75,361.31 L 381.49,361.92 L 378.23,362.56 L 375.00,363.24 L 371.79,363.98 L 368.60,364.78 L 365.45,365.65 L 362.32,366.59 L 359.23,367.62 L 356.17,368.72 L 353.13,369.88 L 350.11,371.09 L 347.11,372.32 L 344.10,373.55 L 341.09,374.78 L 338.08,376.01 L 335.07,377.22 L 332.05,378.42 L 329.03,379.62 L 326.01,380.82 L 322.98,382.00 L 319.95,383.18 L 316.92,384.35 L 313.88,385.51 L 310.84,386.67 L 307.81,387.82 L 304.77,388.98 L 301.73,390.13 L 298.68,391.27 L 295.63,392.39 L 292.57,393.50 L 289.51,394.59 L 286.43,395.66 L 283.36,396.73 L 280.28,397.79 L 277.20,398.83 L 274.10,399.86 L 271.00,400.86 L 267.88,401.83 L 264.76,402.76 L 261.62,403.67 L 258.45,404.53 L 255.27,405.35 L 252.07,406.11 L 248.86,406.83 L 245.62,407.52 L 242.38,408.19 L 239.14,408.85 L 235.90,409.51 L 232.65,410.16 L 229.41,410.82 L 226.16,411.47 L 222.91,412.11 L 219.65,412.74 L 216.39,413.36 L 213.12,413.97 L 209.84,414.54 L 206.54,415.07 L 203.23,415.56 L 199.90,416.01 L 196.55,416.42 L 193.20,416.81 L 189.84,417.19 L 186.47,417.54 L 183.09,417.88 L 179.71,418.21 L 176.32,418.51 L 172.92,418.80 L 169.51,419.07 L 166.10,419.31 L 162.67,419.52 L 159.23,419.71 L 155.79,419.84 L 152.36,419.89 L 148.95,419.83 L 145.57,419.62 L 142.24,419.26 L 138.93,418.81 L 135.63,418.31 L 132.30,417.85 L 128.94,417.48 L 125.52,417.24 L 122.06,417.11 L 118.56,417.05 L 115.05,417.03 L 111.54,417.01 L 108.06,416.93 L 104.63,416.73 L 101.26,416.37 L 97.98,415.80 L 94.78,415.03 L 91.65,414.11 L 88.55,413.10 L 85.46,412.07 L 82.36,411.06 L 79.24,410.10 L 76.09,409.21 L 72.93,408.36 L 69.74,407.56 L 66.53,406.82 L 63.30,406.13 L 60.03,405.52 L 56.73,405.01 L 53.38,404.60 L 49.98,404.32 L 46.54,404.14 L 43.06,404.04 L 39.56,404.00 L 36.05,403.99 L 32.53,403.99 L 29.01,403.99 L 25.50,403.99 L 21.99,404.02 L 18.51,404.04 L 15.10,403.96 L 11.80,403.69 L 8.65,403.11 L 5.81,402.07 L 3.43,400.49 L 1.59,398.43 L 0.42,395.99 L 0.00,393.23 L 0.19,390.30 L 0.83,387.31 L 1.77,384.27 L 2.86,381.21 L 3.97,378.15 L 5.06,375.09 L 6.15,372.02 L 7.23,368.95 L 8.31,365.88 L 9.38,362.81 L 10.45,359.74 L 11.53,356.67 L 12.62,353.60 L 13.71,350.54 L 14.82,347.47 L 15.92,344.41 L 17.02,341.35 L 18.11,338.29 L 19.20,335.22 L 20.28,332.15 L 21.35,329.08 L 22.42,326.01 L 23.49,322.93 L 24.55,319.85 L 25.59,316.77 L 26.61,313.67 L 27.57,310.55 L 28.47,307.41 L 29.34,304.25 L 30.21,301.09 L 31.13,297.96 L 32.18,294.88 L 33.42,291.87 L 34.85,288.95 L 36.44,286.09 L 38.16,283.29 L 39.97,280.52 L 41.81,277.77 L 43.68,275.03 L 45.62,272.35 L 47.64,269.78 L 49.79,267.36 L 52.12,265.16 L 54.66,263.23 L 57.38,261.55 L 60.24,260.10 L 63.22,258.84 L 66.27,257.70 L 69.34,256.64 L 72.44,255.62 L 75.54,254.61 L 78.64,253.61 L 81.73,252.58 L 84.81,251.52 L 87.88,250.44 L 90.94,249.34 L 93.98,248.21 L 97.02,247.05 L 100.05,245.88 L 103.07,244.68 L 106.09,243.46 L 109.10,242.23 L 112.10,240.99 L 115.10,239.74 L 118.10,238.50 L 121.10,237.26 L 124.11,236.03 L 127.13,234.83 L 130.16,233.66 L 133.21,232.53 L 136.27,231.42 L 139.32,230.30 L 142.35,229.10 L 145.32,227.81 L 148.25,226.37 L 151.11,224.79 L 153.93,223.11 L 156.71,221.34 L 159.48,219.53 L 162.24,217.71 L 165.00,215.88 L 167.76,214.05 L 170.53,212.23 L 173.29,210.41 L 176.05,208.60 L 178.82,206.78 L 181.59,204.97 L 184.35,203.16 L 187.12,201.35 L 189.89,199.53 L 192.65,197.72 L 195.42,195.91 L 198.19,194.10 L 200.95,192.29 L 203.72,190.47 L 206.49,188.66 L 209.25,186.85 L 212.02,185.05 L 214.79,183.24 L 217.56,181.43 L 220.32,179.62 L 223.09,177.81 L 225.86,176.00 L 228.63,174.18 L 231.39,172.37 L 234.16,170.56 L 236.92,168.75 L 239.69,166.94 L 242.46,165.13 L 245.22,163.31 L 247.99,161.50 L 250.76,159.69 L 253.53,157.90 L 256.32,156.13 L 259.11,154.39 L 261.93,152.69 L 264.76,151.03 L 267.60,149.41 L 270.46,147.83 L 273.34,146.28 L 276.23,144.76 L 279.13,143.27 L 282.05,141.83 L 284.98,140.43 L 287.94,139.07 L 290.91,137.76 L 293.90,136.47 L 296.89,135.22 L 299.90,133.98 L 302.90,132.75 L 305.92,131.52 L 308.93,130.32 L 311.96,129.13 L 314.99,127.95 L 318.02,126.79 L 321.07,125.65 L 324.12,124.52 L 327.17,123.40 L 330.23,122.31 L 333.31,121.24 L 336.39,120.18 L 339.47,119.14 L 342.57,118.12 L 345.65,117.08 L 348.74,116.04 L 351.83,115.00 L 354.92,113.97 L 358.00,112.93 L 361.09,111.90 L 364.18,110.87 L 367.27,109.83 L 370.35,108.78 L 373.44,107.74 L 376.52,106.69 L 379.61,105.65 L 382.70,104.62 L 385.78,103.58 L 388.87,102.54 L 391.95,101.49 L 395.04,100.44 L 398.12,99.39 L 401.20,98.33 L 404.28,97.28 L 407.36,96.24 L 410.45,95.20 L 413.54,94.16 L 416.62,93.12 L 419.71,92.08 L 422.79,91.03 L 425.87,89.98 L 428.95,88.92 L 432.03,87.87 L 435.11,86.82 L 438.20,85.77 L 441.29,84.74 L 444.37,83.70 L 447.46,82.66 L 450.54,81.61 L 453.62,80.56 L 456.70,79.50 L 459.78,78.44 L 462.85,77.37 L 465.93,76.31 L 469.01,75.26 L 472.09,74.21 L 475.18,73.16 L 478.27,72.12 L 481.35,71.09 L 484.44,70.04 L 487.52,69.00 L 490.60,67.95 L 493.68,66.89 L 496.76,65.82 L 499.84,64.76 L 502.91,63.70 L 505.99,62.64 L 509.08,61.60 L 512.16,60.55 L 515.25,59.51 L 518.33,58.48 L 521.42,57.43 L 524.50,56.39 L 527.58,55.33 L 530.66,54.27 L 533.74,53.21 L 536.82,52.15 L 539.89,51.09 L 542.97,50.03 L 546.05,48.97 L 549.13,47.92 L 552.22,46.87 L 555.30,45.83 L 558.39,44.79 L 561.47,43.75 L 564.56,42.70 L 567.64,41.65 L 570.72,40.59 L 573.79,39.53 L 576.87,38.47 L 579.95,37.40 L 583.03,36.35 L 586.11,35.29 L 589.19,34.24 L 592.27,33.20 L 595.36,32.15 L 598.44,31.11 L 601.53,30.07 L 604.61,29.02 L 607.69,27.97 L 610.77,26.91 L 613.85,25.85 L 616.92,24.78 L 620.00,23.72 L 623.08,22.66 L 626.16,21.61 L 629.25,20.56 L 632.33,19.52 L 635.41,18.48 L 638.50,17.43 L 641.58,16.39 L 644.67,15.34 L 647.75,14.29 L 650.83,13.23 L 653.90,12.17 L 656.98,11.10 L 660.06,10.05 L 663.16,9.04 L 666.28,8.08 L 669.43,7.20 L 672.62,6.42 L 675.86,5.73 L 679.12,5.13 L 682.41,4.58 L 685.72,4.07 L 689.04,3.59 L 692.35,3.10 L 695.67,2.62 L 698.99,2.14 L 702.31,1.66 L 705.62,1.17 L 708.93,0.71 L 712.25,0.34 L 715.55,0.08 Z" fill="none" stroke="url(#g)" stroke-width="80.0" stroke-linecap="round" stroke-linejoin="round"/>
<path d="M 718.84,0.00 L 722.13,0.15 L 725.39,0.50 L 728.65,0.97 L 731.93,1.51 L 735.23,2.03 L 738.58,2.44 L 741.98,2.71 L 745.43,2.87 L 748.91,2.95 L 752.42,2.98 L 755.94,2.98 L 759.45,2.99 L 762.95,3.03 L 766.42,3.14 L 769.85,3.35 L 773.24,3.67 L 776.56,4.13 L 779.84,4.71 L 783.09,5.35 L 786.33,6.03 L 789.55,6.73 L 792.79,7.41 L 796.03,8.08 L 799.23,8.84 L 802.37,9.76 L 805.41,10.90 L 808.32,12.38 L 811.08,14.20 L 813.72,16.31 L 816.28,18.62 L 818.77,21.07 L 821.15,23.60 L 823.41,26.18 L 825.51,28.83 L 827.38,31.57 L 829.03,34.40 L 830.50,37.31 L 831.84,40.27 L 833.08,43.27 L 834.26,46.30 L 835.42,49.34 L 836.45,52.37 L 837.20,55.37 L 837.54,58.31 L 837.35,61.16 L 836.47,63.91 L 834.98,66.55 L 833.03,69.13 L 830.76,71.65 L 828.31,74.14 L 825.83,76.62 L 823.34,79.11 L 820.85,81.60 L 818.39,84.10 L 815.99,86.62 L 813.70,89.19 L 811.55,91.81 L 809.57,94.51 L 807.75,97.27 L 806.05,100.09 L 804.42,102.93 L 802.77,105.71 L 800.99,108.34 L 799.02,110.74 L 796.80,112.84 L 794.27,114.56 L 791.51,115.98 L 788.56,117.16 L 785.50,118.20 L 782.38,119.16 L 779.26,120.11 L 776.13,121.05 L 773.00,121.99 L 769.87,122.93 L 766.74,123.85 L 763.60,124.76 L 760.45,125.65 L 757.29,126.52 L 754.13,127.39 L 750.97,128.24 L 747.81,129.10 L 744.64,129.95 L 741.47,130.79 L 738.30,131.62 L 735.13,132.44 L 731.95,133.26 L 728.77,134.08 L 725.59,134.90 L 722.41,135.71 L 719.23,136.53 L 716.06,137.35 L 712.88,138.16 L 709.70,138.98 L 706.52,139.81 L 703.35,140.64 L 700.18,141.47 L 697.00,142.30 L 693.83,143.12 L 690.65,143.93 L 687.47,144.75 L 684.30,145.58 L 681.12,146.42 L 677.95,147.25 L 674.78,148.09 L 671.61,148.91 L 668.43,149.73 L 665.25,150.55 L 662.07,151.37 L 658.90,152.20 L 655.73,153.05 L 652.57,153.91 L 649.42,154.78 L 646.27,155.68 L 643.14,156.60 L 640.01,157.55 L 636.90,158.53 L 633.80,159.53 L 630.72,160.57 L 627.64,161.65 L 624.58,162.75 L 621.53,163.88 L 618.50,165.05 L 615.48,166.24 L 612.46,167.45 L 609.46,168.69 L 606.47,169.96 L 603.49,171.26 L 600.53,172.60 L 597.59,174.00 L 594.77,175.52 L 592.11,177.23 L 589.71,179.18 L 587.62,181.43 L 585.91,183.98 L 584.49,186.77 L 583.29,189.73 L 582.27,192.81 L 581.32,195.93 L 580.41,199.07 L 579.53,202.23 L 578.69,205.40 L 577.89,208.58 L 577.13,211.78 L 576.47,215.00 L 575.95,218.23 L 575.62,221.48 L 575.52,224.74 L 575.68,228.01 L 576.05,231.26 L 576.57,234.51 L 577.21,237.75 L 577.92,240.98 L 578.65,244.19 L 579.41,247.39 L 580.20,250.58 L 581.01,253.76 L 581.86,256.93 L 582.74,260.08 L 583.70,263.20 L 584.74,266.29 L 585.88,269.33 L 587.12,272.34 L 588.47,275.30 L 589.88,278.23 L 591.34,281.14 L 592.85,284.03 L 594.41,286.90 L 596.03,289.75 L 597.73,292.53 L 599.60,295.16 L 601.67,297.53 L 603.97,299.57 L 606.56,301.19 L 609.43,302.35 L 612.52,303.17 L 615.77,303.73 L 619.11,304.14 L 622.48,304.48 L 625.86,304.82 L 629.23,305.16 L 632.61,305.50 L 635.98,305.84 L 639.36,306.19 L 642.74,306.53 L 646.11,306.87 L 649.49,307.20 L 652.87,307.54 L 656.24,307.88 L 659.62,308.22 L 663.00,308.56 L 666.37,308.90 L 669.74,309.26 L 673.09,309.66 L 676.42,310.11 L 679.73,310.61 L 683.01,311.19 L 686.26,311.84 L 689.49,312.51 L 692.72,313.21 L 695.94,313.93 L 699.16,314.65 L 702.38,315.36 L 705.60,316.08 L 708.82,316.79 L 712.04,317.51 L 715.26,318.23 L 718.49,318.94 L 721.71,319.66 L 724.93,320.37 L 728.15,321.09 L 731.37,321.81 L 734.59,322.52 L 737.81,323.24 L 741.03,323.96 L 744.25,324.67 L 747.47,325.38 L 750.69,326.09 L 753.92,326.80 L 757.14,327.50 L 760.37,328.21 L 763.59,328.93 L 766.81,329.64 L 770.02,330.38 L 773.22,331.14 L 776.42,331.92 L 779.59,332.74 L 782.75,333.61 L 785.88,334.53 L 789.00,335.49 L 792.10,336.50 L 795.19,337.54 L 798.26,338.61 L 801.32,339.72 L 804.37,340.86 L 807.37,342.06 L 810.27,343.39 L 812.98,344.91 L 815.42,346.69 L 817.54,348.80 L 819.29,351.25 L 820.76,353.97 L 822.00,356.89 L 823.09,359.93 L 824.10,363.03 L 825.06,366.14 L 826.00,369.27 L 826.90,372.42 L 827.76,375.58 L 828.57,378.76 L 829.36,381.95 L 830.14,385.14 L 830.95,388.33 L 831.81,391.49 L 832.77,394.61 L 833.80,397.70 L 834.88,400.77 L 835.96,403.84 L 837.01,406.92 L 837.99,410.03 L 838.93,413.16 L 839.83,416.30 L 840.73,419.45 L 841.65,422.58 L 842.61,425.70 L 843.61,428.80 L 844.66,431.88 L 845.76,434.95 L 846.98,437.93 L 848.36,440.77 L 849.98,443.42 L 851.89,445.81 L 854.14,447.88 L 856.67,449.67 L 859.42,451.24 L 862.31,452.66 L 865.28,453.98 L 868.26,455.28 L 871.25,456.54 L 874.26,457.79 L 877.27,459.00 L 880.30,460.19 L 883.33,461.37 L 886.36,462.54 L 889.39,463.71 L 892.41,464.90 L 895.43,466.11 L 898.44,467.34 L 901.44,468.59 L 904.43,469.84 L 907.43,471.10 L 910.42,472.36 L 913.42,473.61 L 916.42,474.86 L 919.38,476.17 L 922.21,477.60 L 924.87,479.23 L 927.28,481.12 L 929.39,483.35 L 931.20,485.86 L 932.80,488.58 L 934.23,491.47 L 935.54,494.44 L 936.80,497.43 L 937.95,500.45 L 938.91,503.49 L 939.62,506.55 L 940.00,509.64 L 939.98,512.77 L 939.65,515.91 L 939.07,519.07 L 938.32,522.24 L 937.49,525.41 L 936.65,528.58 L 935.80,531.74 L 934.95,534.91 L 934.10,538.07 L 933.25,541.23 L 932.39,544.40 L 931.54,547.56 L 930.68,550.72 L 929.83,553.89 L 928.94,557.04 L 927.97,560.15 L 926.88,563.22 L 925.59,566.18 L 924.02,568.95 L 922.13,571.47 L 919.94,573.70 L 917.45,575.59 L 914.70,577.16 L 911.79,578.47 L 908.77,579.61 L 905.68,580.62 L 902.55,581.55 L 899.40,582.44 L 896.23,583.29 L 893.05,584.11 L 889.86,584.89 L 886.66,585.64 L 883.44,586.36 L 880.20,587.05 L 876.95,587.69 L 873.68,588.24 L 870.39,588.68 L 867.08,588.98 L 863.75,589.08 L 860.41,589.00 L 857.07,588.78 L 853.72,588.44 L 850.38,588.03 L 847.05,587.59 L 843.72,587.14 L 840.40,586.67 L 837.08,586.18 L 833.77,585.69 L 830.46,585.18 L 827.16,584.65 L 823.87,584.11 L 820.58,583.56 L 817.30,582.98 L 814.04,582.37 L 810.80,581.70 L 807.59,580.96 L 804.42,580.13 L 801.28,579.20 L 798.19,578.18 L 795.13,577.07 L 792.10,575.90 L 789.09,574.68 L 786.09,573.43 L 783.11,572.14 L 780.13,570.83 L 777.18,569.48 L 774.24,568.08 L 771.31,566.65 L 768.41,565.17 L 765.52,563.64 L 762.65,562.08 L 759.79,560.49 L 756.94,558.88 L 754.10,557.26 L 751.25,555.64 L 748.41,554.02 L 745.57,552.39 L 742.72,550.76 L 739.88,549.13 L 737.04,547.49 L 734.20,545.86 L 731.36,544.22 L 728.53,542.58 L 725.70,540.92 L 722.87,539.24 L 720.06,537.54 L 717.27,535.80 L 714.48,534.03 L 711.71,532.24 L 708.94,530.43 L 706.19,528.59 L 703.44,526.72 L 700.71,524.81 L 698.01,522.85 L 695.34,520.82 L 692.69,518.72 L 690.10,516.53 L 687.56,514.26 L 685.08,511.91 L 682.68,509.47 L 680.35,506.96 L 678.09,504.40 L 675.88,501.81 L 673.70,499.19 L 671.54,496.57 L 669.38,493.95 L 667.21,491.33 L 665.03,488.71 L 662.85,486.10 L 660.65,483.49 L 658.45,480.89 L 656.24,478.28 L 654.04,475.68 L 651.83,473.08 L 649.62,470.48 L 647.43,467.87 L 645.23,465.26 L 643.04,462.65 L 640.85,460.04 L 638.64,457.44 L 636.44,454.83 L 634.22,452.23 L 632.01,449.63 L 629.81,447.03 L 627.60,444.43 L 625.39,441.83 L 623.18,439.22 L 620.97,436.62 L 618.76,434.02 L 616.55,431.42 L 614.33,428.82 L 612.10,426.23 L 609.85,423.64 L 607.55,421.08 L 605.22,418.53 L 602.83,416.02 L 600.39,413.55 L 597.91,411.13 L 595.44,408.73 L 593.04,406.32 L 590.77,403.87 L 588.70,401.33 L 586.84,398.66 L 585.15,395.90 L 583.56,393.07 L 581.98,390.21 L 580.38,387.36 L 578.68,384.58 L 576.83,381.96 L 574.78,379.60 L 572.50,377.58 L 569.92,375.99 L 567.06,374.83 L 563.98,374.01 L 560.76,373.43 L 557.44,372.97 L 554.09,372.56 L 550.75,372.14 L 547.41,371.71 L 544.07,371.29 L 540.73,370.86 L 537.38,370.44 L 534.03,370.03 L 530.68,369.63 L 527.33,369.24 L 523.97,368.86 L 520.62,368.46 L 517.27,368.06 L 513.92,367.65 L 510.58,367.22 L 507.25,366.76 L 503.94,366.26 L 500.66,365.70 L 497.41,365.06 L 494.18,364.36 L 490.97,363.63 L 487.75,362.91 L 484.51,362.23 L 481.24,361.63 L 477.95,361.10 L 474.63,360.62 L 471.29,360.17 L 467.95,359.75 L 464.60,359.34 L 461.25,358.94 L 457.90,358.55 L 454.55,358.15 L 451.19,357.76 L 447.84,357.36 L 444.49,356.95 L 441.15,356.54 L 437.80,356.13 L 434.44,355.78 L 431.09,355.52 L 427.73,355.39 L 424.37,355.42 L 421.02,355.62 L 417.68,355.94 L 414.35,356.36 L 411.04,356.85 L 407.74,357.37 L 404.44,357.90 L 401.15,358.45 L 397.87,359.01 L 394.58,359.57 L 391.30,360.14 L 388.02,360.72 L 384.75,361.31 L 381.49,361.92 L 378.23,362.56 L 375.00,363.24 L 371.79,363.98 L 368.60,364.78 L 365.45,365.65 L 362.32,366.59 L 359.23,367.62 L 356.17,368.72 L 353.13,369.88 L 350.11,371.09 L 347.11,372.32 L 344.10,373.55 L 341.09,374.78 L 338.08,376.01 L 335.07,377.22 L 332.05,378.42 L 329.03,379.62 L 326.01,380.82 L 322.98,382.00 L 319.95,383.18 L 316.92,384.35 L 313.88,385.51 L 310.84,386.67 L 307.81,387.82 L 304.77,388.98 L 301.73,390.13 L 298.68,391.27 L 295.63,392.39 L 292.57,393.50 L 289.51,394.59 L 286.43,395.66 L 283.36,396.73 L 280.28,397.79 L 277.20,398.83 L 274.10,399.86 L 271.00,400.86 L 267.88,401.83 L 264.76,402.76 L 261.62,403.67 L 258.45,404.53 L 255.27,405.35 L 252.07,406.11 L 248.86,406.83 L 245.62,407.52 L 242.38,408.19 L 239.14,408.85 L 235.90,409.51 L 232.65,410.16 L 229.41,410.82 L 226.16,411.47 L 222.91,412.11 L 219.65,412.74 L 216.39,413.36 L 213.12,413.97 L 209.84,414.54 L 206.54,415.07 L 203.23,415.56 L 199.90,416.01 L 196.55,416.42 L 193.20,416.81 L 189.84,417.19 L 186.47,417.54 L 183.09,417.88 L 179.71,418.21 L 176.32,418.51 L 172.92,418.80 L 169.51,419.07 L 166.10,419.31 L 162.67,419.52 L 159.23,419.71 L 155.79,419.84 L 152.36,419.89 L 148.95,419.83 L 145.57,419.62 L 142.24,419.26 L 138.93,418.81 L 135.63,418.31 L 132.30,417.85 L 128.94,417.48 L 125.52,417.24 L 122.06,417.11 L 118.56,417.05 L 115.05,417.03 L 111.54,417.01 L 108.06,416.93 L 104.63,416.73 L 101.26,416.37 L 97.98,415.80 L 94.78,415.03 L 91.65,414.11 L 88.55,413.10 L 85.46,412.07 L 82.36,411.06 L 79.24,410.10 L 76.09,409.21 L 72.93,408.36 L 69.74,407.56 L 66.53,406.82 L 63.30,406.13 L 60.03,405.52 L 56.73,405.01 L 53.38,404.60 L 49.98,404.32 L 46.54,404.14 L 43.06,404.04 L 39.56,404.00 L 36.05,403.99 L 32.53,403.99 L 29.01,403.99 L 25.50,403.99 L 21.99,404.02 L 18.51,404.04 L 15.10,403.96 L 11.80,403.69 L 8.65,403.11 L 5.81,402.07 L 3.43,400.49 L 1.59,398.43 L 0.42,395.99 L 0.00,393.23 L 0.19,390.30 L 0.83,387.31 L 1.77,384.27 L 2.86,381.21 L 3.97,378.15 L 5.06,375.09 L 6.15,372.02 L 7.23,368.95 L 8.31,365.88 L 9.38,362.81 L 10.45,359.74 L 11.53,356.67 L 12.62,353.60 L 13.71,350.54 L 14.82,347.47 L 15.92,344.41 L 17.02,341.35 L 18.11,338.29 L 19.20,335.22 L 20.28,332.15 L 21.35,329.08 L 22.42,326.01 L 23.49,322.93 L 24.55,319.85 L 25.59,316.77 L 26.61,313.67 L 27.57,310.55 L 28.47,307.41 L 29.34,304.25 L 30.21,301.09 L 31.13,297.96 L 32.18,294.88 L 33.42,291.87 L 34.85,288.95 L 36.44,286.09 L 38.16,283.29 L 39.97,280.52 L 41.81,277.77 L 43.68,275.03 L 45.62,272.35 L 47.64,269.78 L 49.79,267.36 L 52.12,265.16 L 54.66,263.23 L 57.38,261.55 L 60.24,260.10 L 63.22,258.84 L 66.27,257.70 L 69.34,256.64 L 72.44,255.62 L 75.54,254.61 L 78.64,253.61 L 81.73,252.58 L 84.81,251.52 L 87.88,250.44 L 90.94,249.34 L 93.98,248.21 L 97.02,247.05 L 100.05,245.88 L 103.07,244.68 L 106.09,243.46 L 109.10,242.23 L 112.10,240.99 L 115.10,239.74 L 118.10,238.50 L 121.10,237.26 L 124.11,236.03 L 127.13,234.83 L 130.16,233.66 L 133.21,232.53 L 136.27,231.42 L 139.32,230.30 L 142.35,229.10 L 145.32,227.81 L 148.25,226.37 L 151.11,224.79 L 153.93,223.11 L 156.71,221.34 L 159.48,219.53 L 162.24,217.71 L 165.00,215.88 L 167.76,214.05 L 170.53,212.23 L 173.29,210.41 L 176.05,208.60 L 178.82,206.78 L 181.59,204.97 L 184.35,203.16 L 187.12,201.35 L 189.89,199.53 L 192.65,197.72 L 195.42,195.91 L 198.19,194.10 L 200.95,192.29 L 203.72,190.47 L 206.49,188.66 L 209.25,186.85 L 212.02,185.05 L 214.79,183.24 L 217.56,181.43 L 220.32,179.62 L 223.09,177.81 L 225.86,176.00 L 228.63,174.18 L 231.39,172.37 L 234.16,170.56 L 236.92,168.75 L 239.69,166.94 L 242.46,165.13 L 245.22,163.31 L 247.99,161.50 L 250.76,159.69 L 253.53,157.90 L 256.32,156.13 L 259.11,154.39 L 261.93,152.69 L 264.76,151.03 L 267.60,149.41 L 270.46,147.83 L 273.34,146.28 L 276.23,144.76 L 279.13,143.27 L 282.05,141.83 L 284.98,140.43 L 287.94,139.07 L 290.91,137.76 L 293.90,136.47 L 296.89,135.22 L 299.90,133.98 L 302.90,132.75 L 305.92,131.52 L 308.93,130.32 L 311.96,129.13 L 314.99,127.95 L 318.02,126.79 L 321.07,125.65 L 324.12,124.52 L 327.17,123.40 L 330.23,122.31 L 333.31,121.24 L 336.39,120.18 L 339.47,119.14 L 342.57,118.12 L 345.65,117.08 L 348.74,116.04 L 351.83,115.00 L 354.92,113.97 L 358.00,112.93 L 361.09,111.90 L 364.18,110.87 L 367.27,109.83 L 370.35,108.78 L 373.44,107.74 L 376.52,106.69 L 379.61,105.65 L 382.70,104.62 L 385.78,103.58 L 388.87,102.54 L 391.95,101.49 L 395.04,100.44 L 398.12,99.39 L 401.20,98.33 L 404.28,97.28 L 407.36,96.24 L 410.45,95.20 L 413.54,94.16 L 416.62,93.12 L 419.71,92.08 L 422.79,91.03 L 425.87,89.98 L 428.95,88.92 L 432.03,87.87 L 435.11,86.82 L 438.20,85.77 L 441.29,84.74 L 444.37,83.70 L 447.46,82.66 L 450.54,81.61 L 453.62,80.56 L 456.70,79.50 L 459.78,78.44 L 462.85,77.37 L 465.93,76.31 L 469.01,75.26 L 472.09,74.21 L 475.18,73.16 L 478.27,72.12 L 481.35,71.09 L 484.44,70.04 L 487.52,69.00 L 490.60,67.95 L 493.68,66.89 L 496.76,65.82 L 499.84,64.76 L 502.91,63.70 L 505.99,62.64 L 509.08,61.60 L 512.16,60.55 L 515.25,59.51 L 518.33,58.48 L 521.42,57.43 L 524.50,56.39 L 527.58,55.33 L 530.66,54.27 L 533.74,53.21 L 536.82,52.15 L 539.89,51.09 L 542.97,50.03 L 546.05,48.97 L 549.13,47.92 L 552.22,46.87 L 555.30,45.83 L 558.39,44.79 L 561.47,43.75 L 564.56,42.70 L 567.64,41.65 L 570.72,40.59 L 573.79,39.53 L 576.87,38.47 L 579.95,37.40 L 583.03,36.35 L 586.11,35.29 L 589.19,34.24 L 592.27,33.20 L 595.36,32.15 L 598.44,31.11 L 601.53,30.07 L 604.61,29.02 L 607.69,27.97 L 610.77,26.91 L 613.85,25.85 L 616.92,24.78 L 620.00,23.72 L 623.08,22.66 L 626.16,21.61 L 629.25,20.56 L 632.33,19.52 L 635.41,18.48 L 638.50,17.43 L 641.58,16.39 L 644.67,15.34 L 647.75,14.29 L 650.83,13.23 L 653.90,12.17 L 656.98,11.10 L 660.06,10.05 L 663.16,9.04 L 666.28,8.08 L 669.43,7.20 L 672.62,6.42 L 675.86,5.73 L 679.12,5.13 L 682.41,4.58 L 685.72,4.07 L 689.04,3.59 L 692.35,3.10 L 695.67,2.62 L 698.99,2.14 L 702.31,1.66 L 705.62,1.17 L 708.93,0.71 L 712.25,0.34 L 715.55,0.08 Z" fill="none" stroke="#ffffff" stroke-opacity="0.9" stroke-width="6.0" stroke-linecap="round" stroke-linejoin="round"/>
</svg>
