<svg xmlns="http://www.w3.org/2000/svg" viewBox="-68.5 -68.5 1076.9 676.3">
<defs><linearGradient id="g" gradientUnits="userSpaceOnUse" x1="18" y1="-14" x2="922" y2="554">
<stop offset="0" stop-color="#63c9f6"/><stop offset="1" stop-color="#0a4f86"/></linearGradient></defs>
<path d="M 476.37,56.01 L 473.60,55.55 L 470.82,55.12 L 468.03,54.73 L 465.23,54.38 L 462.41,54.06 L 459.60,53.77 L 456.78,53.49 L 453.96,53.24 L 451.14,53.00 L 448.32,52.79 L 445.49,52.59 L 442.66,52.42 L 439.84,52.28 L 437.01,52.16 L 434.18,52.06 L 431.35,51.99 L 428.52,51.95 L 425.69,51.94 L 422.86,51.96 L 420.02,52.00 L 417.19,52.08 L 414.36,52.18 L 411.54,52.31 L 408.71,52.47 L 405.88,52.64 L 403.06,52.85 L 400.24,53.07 L 397.42,53.32 L 394.60,53.58 L 391.78,53.86 L 388.96,54.15 L 386.15,54.46 L 383.33,54.77 L 380.52,55.09 L 377.71,55.41 L 374.89,55.73 L 372.08,56.06 L 369.27,56.39 L 366.45,56.72 L 363.64,57.06 L 360.83,57.41 L 358.02,57.77 L 355.21,58.13 L 352.41,58.50 L 349.60,58.88 L 346.79,59.26 L 343.99,59.65 L 341.19,60.05 L 338.38,60.46 L 335.58,60.88 L 332.78,61.31 L 329.99,61.74 L 327.19,62.19 L 324.40,62.65 L 321.60,63.12 L 318.81,63.61 L 316.02,64.09 L 313.24,64.59 L 310.45,65.10 L 307.67,65.62 L 304.88,66.14 L 302.10,66.68 L 299.33,67.23 L 296.55,67.80 L 293.78,68.38 L 291.01,68.97 L 288.25,69.58 L 285.49,70.21 L 282.73,70.86 L 279.98,71.52 L 277.23,72.20 L 274.48,72.89 L 271.74,73.62 L 269.01,74.36 L 266.29,75.13 L 263.57,75.92 L 260.86,76.73 L 258.15,77.57 L 255.46,78.44 L 252.78,79.34 L 250.12,80.30 L 247.49,81.34 L 244.91,82.48 L 242.40,83.74 L 240.00,85.17 L 237.72,86.78 L 235.60,88.58 L 233.67,90.57 L 231.95,92.75 L 230.42,95.07 L 229.08,97.53 L 227.90,100.08 L 226.84,102.69 L 225.84,105.33 L 224.84,107.97 L 223.79,110.60 L 222.66,113.17 L 221.40,115.69 L 220.00,118.12 L 218.45,120.46 L 216.75,122.70 L 214.91,124.81 L 212.93,126.81 L 210.85,128.70 L 208.66,130.47 L 206.39,132.15 L 204.05,133.73 L 201.66,135.23 L 199.21,136.65 L 196.73,138.00 L 194.22,139.30 L 191.68,140.56 L 189.15,141.82 L 186.62,143.09 L 184.11,144.39 L 181.63,145.75 L 179.19,147.19 L 176.81,148.70 L 174.49,150.30 L 172.23,152.00 L 170.05,153.78 L 167.94,155.66 L 165.92,157.62 L 163.98,159.67 L 162.13,161.80 L 160.37,164.01 L 158.70,166.28 L 157.12,168.62 L 155.64,171.02 L 154.25,173.48 L 152.95,175.99 L 151.75,178.54 L 150.64,181.14 L 149.60,183.77 L 148.63,186.43 L 147.71,189.10 L 146.83,191.79 L 145.98,194.49 L 145.14,197.20 L 144.31,199.91 L 143.48,202.61 L 142.64,205.32 L 141.80,208.02 L 140.96,210.73 L 140.11,213.43 L 139.25,216.12 L 138.38,218.82 L 137.51,221.51 L 136.63,224.21 L 135.75,226.90 L 134.86,229.59 L 133.97,232.27 L 133.07,234.96 L 132.17,237.64 L 131.27,240.33 L 130.36,243.01 L 129.44,245.69 L 128.53,248.37 L 127.60,251.05 L 126.68,253.72 L 125.74,256.40 L 124.81,259.07 L 123.87,261.74 L 122.92,264.41 L 121.97,267.08 L 121.02,269.74 L 120.07,272.41 L 119.11,275.08 L 118.15,277.74 L 117.20,280.41 L 116.24,283.07 L 115.28,285.74 L 114.31,288.40 L 113.35,291.06 L 112.38,293.72 L 111.42,296.39 L 110.45,299.05 L 109.48,301.71 L 108.51,304.37 L 107.55,307.03 L 106.58,309.69 L 105.61,312.36 L 104.65,315.02 L 103.69,317.68 L 102.73,320.35 L 101.77,323.01 L 100.82,325.68 L 99.87,328.34 L 98.92,331.01 L 97.97,333.68 L 97.03,336.35 L 96.10,339.03 L 95.19,341.71 L 94.29,344.39 L 93.43,347.09 L 92.60,349.80 L 91.83,352.52 L 91.12,355.25 L 90.49,358.01 L 89.95,360.78 L 89.52,363.57 L 89.22,366.37 L 89.06,369.18 L 89.04,372.00 L 89.16,374.81 L 89.42,377.62 L 89.80,380.41 L 90.29,383.19 L 90.87,385.96 L 91.52,388.71 L 92.20,391.46 L 92.87,394.21 L 93.51,396.96 L 94.08,399.73 L 94.54,402.51 L 94.87,405.30 L 95.02,408.11 L 94.99,410.91 L 94.77,413.70 L 94.34,416.47 L 93.71,419.19 L 92.88,421.87 L 91.85,424.47 L 90.64,427.00 L 89.27,429.45 L 87.75,431.81 L 86.10,434.10 L 84.34,436.31 L 82.50,438.45 L 80.60,440.54 L 78.64,442.57 L 76.63,444.57 L 74.58,446.52 L 72.50,448.43 L 70.37,450.31 L 68.22,452.14 L 66.03,453.93 L 63.81,455.69 L 61.56,457.41 L 59.30,459.11 L 57.02,460.79 L 54.74,462.46 L 52.45,464.14 L 50.18,465.83 L 47.92,467.53 L 45.66,469.24 L 43.42,470.97 L 41.18,472.70 L 38.95,474.45 L 36.74,476.21 L 34.53,477.99 L 32.34,479.78 L 30.16,481.59 L 27.99,483.41 L 25.84,485.26 L 23.71,487.12 L 21.60,489.01 L 19.51,490.91 L 17.44,492.84 L 15.39,494.80 L 13.38,496.79 L 11.42,498.83 L 9.52,500.92 L 7.69,503.07 L 5.97,505.30 L 4.38,507.61 L 2.96,510.02 L 1.76,512.53 L 0.83,515.12 L 0.22,517.78 L 0.00,520.46 L 0.20,523.13 L 0.82,525.73 L 1.87,528.19 L 3.31,530.46 L 5.09,532.49 L 7.15,534.27 L 9.45,535.76 L 11.92,536.97 L 14.52,537.90 L 17.22,538.58 L 19.97,539.04 L 22.77,539.30 L 25.58,539.40 L 28.40,539.35 L 31.21,539.17 L 34.02,538.87 L 36.82,538.48 L 39.61,538.02 L 42.39,537.50 L 45.16,536.94 L 47.93,536.35 L 50.70,535.75 L 53.47,535.14 L 56.23,534.52 L 58.99,533.91 L 61.76,533.28 L 64.52,532.67 L 67.28,532.05 L 70.05,531.44 L 72.82,530.83 L 75.58,530.23 L 78.35,529.64 L 81.12,529.06 L 83.89,528.48 L 86.67,527.90 L 89.44,527.34 L 92.22,526.77 L 94.99,526.22 L 97.77,525.66 L 100.55,525.11 L 103.33,524.56 L 106.11,524.02 L 108.89,523.48 L 111.67,522.94 L 114.45,522.41 L 117.23,521.89 L 120.01,521.37 L 122.80,520.85 L 125.58,520.34 L 128.37,519.84 L 131.16,519.34 L 133.95,518.84 L 136.74,518.36 L 139.53,517.88 L 142.32,517.41 L 145.11,516.94 L 147.91,516.49 L 150.70,516.04 L 153.50,515.60 L 156.30,515.18 L 159.11,514.78 L 161.91,514.38 L 164.72,514.01 L 167.53,513.65 L 170.34,513.31 L 173.15,512.99 L 175.97,512.70 L 178.78,512.42 L 181.60,512.17 L 184.43,511.95 L 187.25,511.76 L 190.08,511.60 L 192.91,511.47 L 195.74,511.38 L 198.57,511.32 L 201.40,511.29 L 204.23,511.31 L 207.06,511.36 L 209.89,511.44 L 212.72,511.55 L 215.54,511.69 L 218.37,511.87 L 221.19,512.06 L 224.02,512.29 L 226.84,512.53 L 229.66,512.80 L 232.47,513.09 L 235.29,513.40 L 238.10,513.72 L 240.91,514.06 L 243.72,514.40 L 246.53,514.76 L 249.34,515.12 L 252.15,515.48 L 254.96,515.84 L 257.77,516.20 L 260.58,516.56 L 263.39,516.91 L 266.20,517.26 L 269.01,517.60 L 271.82,517.94 L 274.63,518.27 L 277.45,518.59 L 280.26,518.89 L 283.08,519.16 L 285.90,519.40 L 288.72,519.58 L 291.55,519.68 L 294.37,519.69 L 297.18,519.57 L 299.98,519.31 L 302.76,518.88 L 305.49,518.27 L 308.18,517.48 L 310.81,516.50 L 313.36,515.34 L 315.82,514.00 L 318.20,512.51 L 320.48,510.86 L 322.65,509.08 L 324.70,507.16 L 326.64,505.13 L 328.45,502.98 L 330.14,500.73 L 331.71,498.39 L 333.16,495.98 L 334.51,493.50 L 335.77,490.97 L 336.94,488.40 L 338.03,485.79 L 339.06,483.16 L 340.03,480.50 L 340.93,477.82 L 341.78,475.12 L 342.56,472.40 L 343.29,469.67 L 343.95,466.92 L 344.56,464.15 L 345.11,461.38 L 345.60,458.59 L 346.03,455.79 L 346.40,452.99 L 346.72,450.18 L 346.98,447.36 L 347.18,444.54 L 347.32,441.71 L 347.40,438.89 L 347.42,436.06 L 347.39,433.23 L 347.30,430.40 L 347.15,427.57 L 346.96,424.75 L 346.71,421.93 L 346.42,419.12 L 346.08,416.31 L 345.68,413.50 L 345.25,410.71 L 344.76,407.92 L 344.24,405.14 L 343.67,402.37 L 343.07,399.60 L 342.42,396.84 L 341.74,394.10 L 341.02,391.36 L 340.27,388.63 L 339.48,385.91 L 338.66,383.20 L 337.81,380.50 L 336.93,377.81 L 336.03,375.12 L 335.12,372.44 L 334.20,369.76 L 333.29,367.08 L 332.38,364.40 L 331.49,361.71 L 330.62,359.02 L 329.78,356.32 L 328.97,353.60 L 328.19,350.88 L 327.45,348.15 L 326.76,345.41 L 326.13,342.65 L 325.55,339.88 L 325.05,337.10 L 324.63,334.30 L 324.30,331.50 L 324.09,328.69 L 324.00,325.87 L 324.05,323.05 L 324.25,320.25 L 324.60,317.46 L 325.10,314.69 L 325.74,311.94 L 326.50,309.23 L 327.38,306.55 L 328.36,303.89 L 329.41,301.27 L 330.53,298.67 L 331.71,296.11 L 332.95,293.56 L 334.24,291.04 L 335.58,288.55 L 336.96,286.08 L 338.42,283.66 L 339.96,281.30 L 341.61,279.02 L 343.39,276.88 L 345.35,274.90 L 347.47,273.16 L 349.78,271.68 L 352.25,270.50 L 354.85,269.64 L 357.55,269.07 L 360.31,268.79 L 363.11,268.74 L 365.91,268.90 L 368.70,269.22 L 371.49,269.67 L 374.27,270.20 L 377.03,270.79 L 379.80,271.39 L 382.57,271.97 L 385.35,272.52 L 388.13,273.03 L 390.92,273.47 L 393.73,273.85 L 396.54,274.17 L 399.36,274.43 L 402.18,274.63 L 405.00,274.79 L 407.83,274.90 L 410.66,274.97 L 413.49,274.99 L 416.32,274.98 L 419.15,274.92 L 421.98,274.83 L 424.81,274.71 L 427.64,274.56 L 430.46,274.39 L 433.29,274.20 L 436.11,273.99 L 438.94,273.76 L 441.76,273.52 L 444.58,273.27 L 447.40,273.01 L 450.22,272.75 L 453.04,272.47 L 455.85,272.20 L 458.67,271.92 L 461.49,271.63 L 464.31,271.35 L 467.13,271.07 L 469.94,270.79 L 472.76,270.52 L 475.58,270.24 L 478.40,269.97 L 481.22,269.70 L 484.04,269.44 L 486.86,269.18 L 489.68,268.93 L 492.50,268.69 L 495.32,268.45 L 498.14,268.22 L 500.97,267.99 L 503.79,267.76 L 506.61,267.54 L 509.44,267.32 L 512.26,267.10 L 515.08,266.89 L 517.91,266.68 L 520.73,266.46 L 523.56,266.25 L 526.38,266.04 L 529.20,265.84 L 532.03,265.64 L 534.85,265.45 L 537.68,265.27 L 540.51,265.10 L 543.33,264.94 L 546.16,264.80 L 548.99,264.66 L 551.82,264.53 L 554.65,264.40 L 557.48,264.27 L 560.31,264.15 L 563.14,264.02 L 565.96,263.89 L 568.79,263.77 L 571.62,263.64 L 574.45,263.51 L 577.28,263.38 L 580.11,263.25 L 582.94,263.12 L 585.77,263.00 L 588.60,262.89 L 591.43,262.80 L 594.25,262.75 L 597.08,262.76 L 599.90,262.89 L 602.69,263.16 L 605.44,263.62 L 608.13,264.32 L 610.73,265.27 L 613.22,266.47 L 615.62,267.89 L 617.94,269.45 L 620.24,271.04 L 622.58,272.53 L 625.00,273.81 L 627.53,274.79 L 630.17,275.40 L 632.87,275.63 L 635.61,275.51 L 638.34,275.07 L 641.02,274.35 L 643.66,273.42 L 646.25,272.32 L 648.81,271.12 L 651.34,269.87 L 653.87,268.59 L 656.40,267.32 L 658.93,266.05 L 661.47,264.79 L 664.01,263.55 L 666.55,262.30 L 669.10,261.06 L 671.64,259.82 L 674.19,258.58 L 676.74,257.34 L 679.28,256.10 L 681.83,254.86 L 684.38,253.62 L 686.92,252.38 L 689.46,251.13 L 692.00,249.88 L 694.54,248.62 L 697.07,247.35 L 699.59,246.07 L 702.11,244.77 L 704.62,243.46 L 707.12,242.13 L 709.61,240.78 L 712.09,239.41 L 714.55,238.02 L 717.00,236.60 L 719.44,235.15 L 721.85,233.67 L 724.24,232.16 L 726.62,230.62 L 728.97,229.05 L 731.31,227.45 L 733.63,225.83 L 735.94,224.19 L 738.23,222.53 L 740.51,220.85 L 742.77,219.15 L 745.02,217.43 L 747.26,215.69 L 749.49,213.94 L 751.69,212.17 L 753.89,210.38 L 756.06,208.57 L 758.22,206.74 L 760.36,204.88 L 762.48,203.00 L 764.58,201.10 L 766.65,199.17 L 768.70,197.22 L 770.72,195.24 L 772.72,193.23 L 774.69,191.20 L 776.65,189.16 L 778.58,187.09 L 780.50,185.00 L 782.40,182.91 L 784.29,180.80 L 786.17,178.68 L 788.04,176.55 L 789.90,174.42 L 791.75,172.28 L 793.60,170.13 L 795.45,167.98 L 797.30,165.84 L 799.15,163.69 L 801.00,161.56 L 802.87,159.43 L 804.74,157.30 L 806.63,155.19 L 808.53,153.09 L 810.44,151.00 L 812.36,148.92 L 814.29,146.84 L 816.23,144.78 L 818.18,142.73 L 820.13,140.68 L 822.10,138.65 L 824.08,136.62 L 826.06,134.60 L 828.05,132.58 L 830.05,130.58 L 832.06,128.59 L 834.08,126.60 L 836.11,124.63 L 838.16,122.67 L 840.22,120.73 L 842.30,118.80 L 844.40,116.91 L 846.53,115.04 L 848.68,113.20 L 850.86,111.40 L 853.08,109.64 L 855.32,107.92 L 857.60,106.24 L 859.90,104.60 L 862.24,103.00 L 864.60,101.44 L 866.99,99.92 L 869.40,98.45 L 871.84,97.00 L 874.29,95.59 L 876.77,94.21 L 879.25,92.86 L 881.75,91.53 L 884.26,90.22 L 886.78,88.93 L 889.32,87.67 L 891.86,86.42 L 894.40,85.18 L 896.96,83.95 L 899.51,82.74 L 902.07,81.52 L 904.63,80.32 L 907.20,79.11 L 909.76,77.91 L 912.32,76.70 L 914.88,75.49 L 917.44,74.28 L 919.99,73.05 L 922.52,71.78 L 925.02,70.46 L 927.46,69.06 L 929.81,67.53 L 932.02,65.84 L 934.05,63.96 L 935.85,61.88 L 937.36,59.61 L 938.54,57.16 L 939.38,54.57 L 939.86,51.89 L 940.00,49.15 L 939.82,46.40 L 939.35,43.66 L 938.66,40.95 L 937.78,38.28 L 936.76,35.66 L 935.63,33.07 L 934.43,30.51 L 933.19,27.96 L 931.90,25.44 L 930.58,22.94 L 929.23,20.45 L 927.83,17.99 L 926.36,15.58 L 924.80,13.24 L 923.12,10.98 L 921.31,8.86 L 919.33,6.90 L 917.19,5.14 L 914.89,3.61 L 912.44,2.34 L 909.86,1.35 L 907.19,0.64 L 904.45,0.19 L 901.67,0.00 L 898.87,0.03 L 896.08,0.27 L 893.30,0.69 L 890.55,1.28 L 887.83,2.00 L 885.14,2.86 L 882.48,3.81 L 879.85,4.85 L 877.24,5.95 L 874.65,7.08 L 872.07,8.24 L 869.49,9.42 L 866.92,10.60 L 864.34,11.78 L 861.77,12.95 L 859.19,14.13 L 856.61,15.29 L 854.02,16.45 L 851.43,17.60 L 848.84,18.74 L 846.25,19.87 L 843.65,21.00 L 841.05,22.13 L 838.45,23.25 L 835.85,24.37 L 833.25,25.49 L 830.65,26.60 L 828.04,27.72 L 825.44,28.83 L 822.84,29.94 L 820.23,31.06 L 817.63,32.17 L 815.02,33.28 L 812.42,34.39 L 809.81,35.50 L 807.21,36.60 L 804.60,37.71 L 801.99,38.81 L 799.38,39.91 L 796.77,41.01 L 794.16,42.11 L 791.55,43.20 L 788.94,44.30 L 786.32,45.38 L 783.70,46.46 L 781.08,47.53 L 778.45,48.59 L 775.82,49.63 L 773.18,50.66 L 770.54,51.67 L 767.88,52.65 L 765.22,53.61 L 762.55,54.54 L 759.86,55.45 L 757.17,56.33 L 754.47,57.19 L 751.76,58.01 L 749.05,58.80 L 746.32,59.56 L 743.58,60.28 L 740.83,60.97 L 738.08,61.62 L 735.32,62.23 L 732.55,62.81 L 729.77,63.36 L 726.98,63.87 L 724.19,64.35 L 721.40,64.80 L 718.60,65.23 L 715.80,65.62 L 712.99,65.98 L 710.18,66.31 L 707.36,66.62 L 704.55,66.91 L 701.73,67.17 L 698.90,67.40 L 696.08,67.62 L 693.26,67.82 L 690.43,67.99 L 687.60,68.15 L 684.78,68.30 L 681.95,68.43 L 679.12,68.55 L 676.29,68.66 L 673.46,68.77 L 670.63,68.86 L 667.80,68.96 L 664.97,69.05 L 662.14,69.13 L 659.31,69.22 L 656.48,69.30 L 653.64,69.38 L 650.81,69.47 L 647.98,69.55 L 645.15,69.63 L 642.32,69.70 L 639.49,69.78 L 636.66,69.85 L 633.83,69.92 L 631.00,69.99 L 628.17,70.05 L 625.34,70.11 L 622.50,70.17 L 619.67,70.22 L 616.84,70.26 L 614.01,70.31 L 611.18,70.34 L 608.35,70.37 L 605.51,70.39 L 602.68,70.41 L 599.85,70.41 L 597.02,70.41 L 594.19,70.39 L 591.36,70.35 L 588.53,70.30 L 585.69,70.23 L 582.86,70.14 L 580.04,70.03 L 577.21,69.90 L 574.38,69.75 L 571.55,69.57 L 568.73,69.37 L 565.91,69.15 L 563.09,68.91 L 560.27,68.65 L 557.45,68.36 L 554.63,68.06 L 551.82,67.73 L 549.01,67.39 L 546.20,67.02 L 543.40,66.64 L 540.59,66.24 L 537.79,65.83 L 534.99,65.40 L 532.19,64.97 L 529.40,64.52 L 526.60,64.07 L 523.81,63.62 L 521.01,63.16 L 518.22,62.71 L 515.42,62.25 L 512.63,61.80 L 509.83,61.35 L 507.03,60.91 L 504.24,60.47 L 501.44,60.04 L 498.64,59.61 L 495.84,59.18 L 493.04,58.77 L 490.24,58.35 L 487.44,57.92 L 484.66,57.47 L 481.89,57.00 L 479.12,56.52 Z" fill="none" stroke="url(#g)" stroke-width="70.6" stroke-linecap="round" stroke-linejoin="round"/>
<path d="M 476.37,56.01 L 473.60,55.55 L 470.82,55.12 L 468.03,54.73 L 465.23,54.38 L 462.41,54.06 L 459.60,53.77 L 456.78,53.49 L 453.96,53.24 L 451.14,53.00 L 448.32,52.79 L 445.49,52.59 L 442.66,52.42 L 439.84,52.28 L 437.01,52.16 L 434.18,52.06 L 431.35,51.99 L 428.52,51.95 L 425.69,51.94 L 422.86,51.96 L 420.02,52.00 L 417.19,52.08 L 414.36,52.18 L 411.54,52.31 L 408.71,52.47 L 405.88,52.64 L 403.06,52.85 L 400.24,53.07 L 397.42,53.32 L 394.60,53.58 L 391.78,53.86 L 388.96,54.15 L 386.15,54.46 L 383.33,54.77 L 380.52,55.09 L 377.71,55.41 L 374.89,55.73 L 372.08,56.06 L 369.27,56.39 L 366.45,56.72 L 363.64,57.06 L 360.83,57.41 L 358.02,57.77 L 355.21,58.13 L 352.41,58.50 L 349.60,58.88 L 346.79,59.26 L 343.99,59.65 L 341.19,60.05 L 338.38,60.46 L 335.58,60.88 L 332.78,61.31 L 329.99,61.74 L 327.19,62.19 L 324.40,62.65 L 321.60,63.12 L 318.81,63.61 L 316.02,64.09 L 313.24,64.59 L 310.45,65.10 L 307.67,65.62 L 304.88,66.14 L 302.10,66.68 L 299.33,67.23 L 296.55,67.80 L 293.78,68.38 L 291.01,68.97 L 288.25,69.58 L 285.49,70.21 L 282.73,70.86 L 279.98,71.52 L 277.23,72.20 L 274.48,72.89 L 271.74,73.62 L 269.01,74.36 L 266.29,75.13 L 263.57,75.92 L 260.86,76.73 L 258.15,77.57 L 255.46,78.44 L 252.78,79.34 L 250.12,80.30 L 247.49,81.34 L 244.91,82.48 L 242.40,83.74 L 240.00,85.17 L 237.72,86.78 L 235.60,88.58 L 233.67,90.57 L 231.95,92.75 L 230.42,95.07 L 229.08,97.53 L 227.90,100.08 L 226.84,102.69 L 225.84,105.33 L 224.84,107.97 L 223.79,110.60 L 222.66,113.17 L 221.40,115.69 L 220.00,118.12 L 218.45,120.46 L 216.75,122.70 L 214.91,124.81 L 212.93,126.81 L 210.85,128.70 L 208.66,130.47 L 206.39,132.15 L 204.05,133.73 L 201.66,135.23 L 199.21,136.65 L 196.73,138.00 L 194.22,139.30 L 191.68,140.56 L 189.15,141.82 L 186.62,143.09 L 184.11,144.39 L 181.63,145.75 L 179.19,147.19 L 176.81,148.70 L 174.49,150.30 L 172.23,152.00 L 170.05,153.78 L 167.94,155.66 L 165.92,157.62 L 163.98,159.67 L 162.13,161.80 L 160.37,164.01 L 158.70,166.28 L 157.12,168.62 L 155.64,171.02 L 154.25,173.48 L 152.95,175.99 L 151.75,178.54 L 150.64,181.14 L 149.60,183.77 L 148.63,186.43 L 147.71,189.10 L 146.83,191.79 L 145.98,194.49 L 145.14,197.20 L 144.31,199.91 L 143.48,202.61 L 142.64,205.32 L 141.80,208.02 L 140.96,210.73 L 140.11,213.43 L 139.25,216.12 L 138.38,218.82 L 137.51,221.51 L 136.63,224.21 L 135.75,226.90 L 134.86,229.59 L 133.97,232.27 L 133.07,234.96 L 132.17,237.64 L 131.27,240.33 L 130.36,243.01 L 129.44,245.69 L 128.53,248.37 L 127.60,251.05 L 126.68,253.72 L 125.74,256.40 L 124.81,259.07 L 123.87,261.74 L 122.92,264.41 L 121.97,267.08 L 121.02,269.74 L 120.07,272.41 L 119.11,275.08 L 118.15,277.74 L 117.20,280.41 L 116.24,283.07 L 115.28,285.74 L 114.31,288.40 L 113.35,291.06 L 112.38,293.72 L 111.42,296.39 L 110.45,299.05 L 109.48,301.71 L 108.51,304.37 L 107.55,307.03 L 106.58,309.69 L 105.61,312.36 L 104.65,315.02 L 103.69,317.68 L 102.73,320.35 L 101.77,323.01 L 100.82,325.68 L 99.87,328.34 L 98.92,331.01 L 97.97,333.68 L 97.03,336.35 L 96.10,339.03 L 95.19,341.71 L 94.29,344.39 L 93.43,347.09 L 92.60,349.80 L 91.83,352.52 L 91.12,355.25 L 90.49,358.01 L 89.95,360.78 L 89.52,363.57 L 89.22,366.37 L 89.06,369.18 L 89.04,372.00 L 89.16,374.81 L 89.42,377.62 L 89.80,380.41 L 90.29,383.19 L 90.87,385.96 L 91.52,388.71 L 92.20,391.46 L 92.87,394.21 L 93.51,396.96 L 94.08,399.73 L 94.54,402.51 L 94.87,405.30 L 95.02,408.11 L 94.99,410.91 L 94.77,413.70 L 94.34,416.47 L 93.71,419.19 L 92.88,421.87 L 91.85,424.47 L 90.64,427.00 L 89.27,429.45 L 87.75,431.81 L 86.10,434.10 L 84.34,436.31 L 82.50,438.45 L 80.60,440.54 L 78.64,442.57 L 76.63,444.57 L 74.58,446.52 L 72.50,448.43 L 70.37,450.31 L 68.22,452.14 L 66.03,453.93 L 63.81,455.69 L 61.56,457.41 L 59.30,459.11 L 57.02,460.79 L 54.74,462.46 L 52.45,464.14 L 50.18,465.83 L 47.92,467.53 L 45.66,469.24 L 43.42,470.97 L 41.18,472.70 L 38.95,474.45 L 36.74,476.21 L 34.53,477.99 L 32.34,479.78 L 30.16,481.59 L 27.99,483.41 L 25.84,485.26 L 23.71,487.12 L 21.60,489.01 L 19.51,490.91 L 17.44,492.84 L 15.39,494.80 L 13.38,496.79 L 11.42,498.83 L 9.52,500.92 L 7.69,503.07 L 5.97,505.30 L 4.38,507.61 L 2.96,510.02 L 1.76,512.53 L 0.83,515.12 L 0.22,517.78 L 0.00,520.46 L 0.20,523.13 L 0.82,525.73 L 1.87,528.19 L 3.31,530.46 L 5.09,532.49 L 7.15,534.27 L 9.45,535.76 L 11.92,536.97 L 14.52,537.90 L 17.22,538.58 L 19.97,539.04 L 22.77,539.30 L 25.58,539.40 L 28.40,539.35 L 31.21,539.17 L 34.02,538.87 L 36.82,538.48 L 39.61,538.02 L 42.39,537.50 L 45.16,536.94 L 47.93,536.35 L 50.70,535.75 L 53.47,535.14 L 56.23,534.52 L 58.99,533.91 L 61.76,533.28 L 64.52,532.67 L 67.28,532.05 L 70.05,531.44 L 72.82,530.83 L 75.58,530.23 L 78.35,529.64 L 81.12,529.06 L 83.89,528.48 L 86.67,527.90 L 89.44,527.34 L 92.22,526.77 L 94.99,526.22 L 97.77,525.66 L 100.55,525.11 L 103.33,524.56 L 106.11,524.02 L 108.89,523.48 L 111.67,522.94 L 114.45,522.41 L 117.23,521.89 L 120.01,521.37 L 122.80,520.85 L 125.58,520.34 L 128.37,519.84 L 131.16,519.34 L 133.95,518.84 L 136.74,518.36 L 139.53,517.88 L 142.32,517.41 L 145.11,516.94 L 147.91,516.49 L 150.70,516.04 L 153.50,515.60 L 156.30,515.18 L 159.11,514.78 L 161.91,514.38 L 164.72,514.01 L 167.53,513.65 L 170.34,513.31 L 173.15,512.99 L 175.97,512.70 L 178.78,512.42 L 181.60,512.17 L 184.43,511.95 L 187.25,511.76 L 190.08,511.60 L 192.91,511.47 L 195.74,511.38 L 198.57,511.32 L 201.40,511.29 L 204.23,511.31 L 207.06,511.36 L 209.89,511.44 L 212.72,511.55 L 215.54,511.69 L 218.37,511.87 L 221.19,512.06 L 224.02,512.29 L 226.84,512.53 L 229.66,512.80 L 232.47,513.09 L 235.29,513.40 L 238.10,513.72 L 240.91,514.06 L 243.72,514.40 L 246.53,514.76 L 249.34,515.12 L 252.15,515.48 L 254.96,515.84 L 257.77,516.20 L 260.58,516.56 L 263.39,516.91 L 266.20,517.26 L 269.01,517.60 L 271.82,517.94 L 274.63,518.27 L 277.45,518.59 L 280.26,518.89 L 283.08,519.16 L 285.90,519.40 L 288.72,519.58 L 291.55,519.68 L 294.37,519.69 L 297.18,519.57 L 299.98,519.31 L 302.76,518.88 L 305.49,518.27 L 308.18,517.48 L 310.81,516.50 L 313.36,515.34 L 315.82,514.00 L 318.20,512.51 L 320.48,510.86 L 322.65,509.08 L 324.70,507.16 L 326.64,505.13 L 328.45,502.98 L 330.14,500.73 L 331.71,498.39 L 333.16,495.98 L 334.51,493.50 L 335.77,490.97 L 336.94,488.40 L 338.03,485.79 L 339.06,483.16 L 340.03,480.50 L 340.93,477.82 L 341.78,475.12 L 342.56,472.40 L 343.29,469.67 L 343.95,466.92 L 344.56,464.15 L 345.11,461.38 L 345.60,458.59 L 346.03,455.79 L 346.40,452.99 L 346.72,450.18 L 346.98,447.36 L 347.18,444.54 L 347.32,441.71 L 347.40,438.89 L 347.42,436.06 L 347.39,433.23 L 347.30,430.40 L 347.15,427.57 L 346.96,424.75 L 346.71,421.93 L 346.42,419.12 L 346.08,416.31 L 345.68,413.50 L 345.25,410.71 L 344.76,407.92 L 344.24,405.14 L 343.67,402.37 L 343.07,399.60 L 342.42,396.84 L 341.74,394.10 L 341.02,391.36 L 340.27,388.63 L 339.48,385.91 L 338.66,383.20 L 337.81,380.50 L 336.93,377.81 L 336.03,375.12 L 335.12,372.44 L 334.20,369.76 L 333.29,367.08 L 332.38,364.40 L 331.49,361.71 L 330.62,359.02 L 329.78,356.32 L 328.97,353.60 L 328.19,350.88 L 327.45,348.15 L 326.76,345.41 L 326.13,342.65 L 325.55,339.88 L 325.05,337.10 L 324.63,334.30 L 324.30,331.50 L 324.09,328.69 L 324.00,325.87 L 324.05,323.05 L 324.25,320.25 L 324.60,317.46 L 325.10,314.69 L 325.74,311.94 L 326.50,309.23 L 327.38,306.55 L 328.36,303.89 L 329.41,301.27 L 330.53,298.67 L 331.71,296.11 L 332.95,293.56 L 334.24,291.04 L 335.58,288.55 L 336.96,286.08 L 338.42,283.66 L 339.96,281.30 L 341.61,279.02 L 343.39,276.88 L 345.35,274.90 L 347.47,273.16 L 349.78,271.68 L 352.25,270.50 L 354.85,269.64 L 357.55,269.07 L 360.31,268.79 L 363.11,268.74 L 365.91,268.90 L 368.70,269.22 L 371.49,269.67 L 374.27,270.20 L 377.03,270.79 L 379.80,271.39 L 382.57,271.97 L 385.35,272.52 L 388.13,273.03 L 390.92,273.47 L 393.73,273.85 L 396.54,274.17 L 399.36,274.43 L 402.18,274.63 L 405.00,274.79 L 407.83,274.90 L 410.66,274.97 L 413.49,274.99 L 416.32,274.98 L 419.15,274.92 L 421.98,274.83 L 424.81,274.71 L 427.64,274.56 L 430.46,274.39 L 433.29,274.20 L 436.11,273.99 L 438.94,273.76 L 441.76,273.52 L 444.58,273.27 L 447.40,273.01 L 450.22,272.75 L 453.04,272.47 L 455.85,272.20 L 458.67,271.92 L 461.49,271.63 L 464.31,271.35 L 467.13,271.07 L 469.94,270.79 L 472.76,270.52 L 475.58,270.24 L 478.40,269.97 L 481.22,269.70 L 484.04,269.44 L 486.86,269.18 L 489.68,268.93 L 492.50,268.69 L 495.32,268.45 L 498.14,268.22 L 500.97,267.99 L 503.79,267.76 L 506.61,267.54 L 509.44,267.32 L 512.26,267.10 L 515.08,266.89 L 517.91,266.68 L 520.73,266.46 L 523.56,266.25 L 526.38,266.04 L 529.20,265.84 L 532.03,265.64 L 534.85,265.45 L 537.68,265.27 L 540.51,265.10 L 543.33,264.94 L 546.16,264.80 L 548.99,264.66 L 551.82,264.53 L 554.65,264.40 L 557.48,264.27 L 560.31,264.15 L 563.14,264.02 L 565.96,263.89 L 568.79,263.77 L 571.62,263.64 L 574.45,263.51 L 577.28,263.38 L 580.11,263.25 L 582.94,263.12 L 585.77,263.00 L 588.60,262.89 L 591.43,262.80 L 594.25,262.75 L 597.08,262.76 L 599.90,262.89 L 602.69,263.16 L 605.44,263.62 L 608.13,264.32 L 610.73,265.27 L 613.22,266.47 L 615.62,267.89 L 617.94,269.45 L 620.24,271.04 L 622.58,272.53 L 625.00,273.81 L 627.53,274.79 L 630.17,275.40 L 632.87,275.63 L 635.61,275.51 L 638.34,275.07 L 641.02,274.35 L 643.66,273.42 L 646.25,272.32 L 648.81,271.12 L 651.34,269.87 L 653.87,268.59 L 656.40,267.32 L 658.93,266.05 L 661.47,264.79 L 664.01,263.55 L 666.55,262.30 L 669.10,261.06 L 671.64,259.82 L 674.19,258.58 L 676.74,257.34 L 679.28,256.10 L 681.83,254.86 L 684.38,253.62 L 686.92,252.38 L 689.46,251.13 L 692.00,249.88 L 694.54,248.62 L 697.07,247.35 L 699.59,246.07 L 702.11,244.77 L 704.62,243.46 L 707.12,242.13 L 709.61,240.78 L 712.09,239.41 L 714.55,238.02 L 717.00,236.60 L 719.44,235.15 L 721.85,233.67 L 724.24,232.16 L 726.62,230.62 L 728.97,229.05 L 731.31,227.45 L 733.63,225.83 L 735.94,224.19 L 738.23,222.53 L 740.51,220.85 L 742.77,219.15 L 745.02,217.43 L 747.26,215.69 L 749.49,213.94 L 751.69,212.17 L 753.89,210.38 L 756.06,208.57 L 758.22,206.74 L 760.36,204.88 L 762.48,203.00 L 764.58,201.10 L 766.65,199.17 L 768.70,197.22 L 770.72,195.24 L 772.72,193.23 L 774.69,191.20 L 776.65,189.16 L 778.58,187.09 L 780.50,185.00 L 782.40,182.91 L 784.29,180.80 L 786.17,178.68 L 788.04,176.55 L 789.90,174.42 L 791.75,172.28 L 793.60,170.13 L 795.45,167.98 L 797.30,165.84 L 799.15,163.69 L 801.00,161.56 L 802.87,159.43 L 804.74,157.30 L 806.63,155.19 L 808.53,153.09 L 810.44,151.00 L 812.36,148.92 L 814.29,146.84 L 816.23,144.78 L 818.18,142.73 L 820.13,140.68 L 822.10,138.65 L 824.08,136.62 L 826.06,134.60 L 828.05,132.58 L 830.05,130.58 L 832.06,128.59 L 834.08,126.60 L 836.11,124.63 L 838.16,122.67 L 840.22,120.73 L 842.30,118.80 L 844.40,116.91 L 846.53,115.04 L 848.68,113.20 L 850.86,111.40 L 853.08,109.64 L 855.32,107.92 L 857.60,106.24 L 859.90,104.60 L 862.24,103.00 L 864.60,101.44 L 866.99,99.92 L 869.40,98.45 L 871.84,97.00 L 874.29,95.59 L 876.77,94.21 L 879.25,92.86 L 881.75,91.53 L 884.26,90.22 L 886.78,88.93 L 889.32,87.67 L 891.86,86.42 L 894.40,85.18 L 896.96,83.95 L 899.51,82.74 L 902.07,81.52 L 904.63,80.32 L 907.20,79.11 L 909.76,77.91 L 912.32,76.70 L 914.88,75.49 L 917.44,74.28 L 919.99,73.05 L 922.52,71.78 L 925.02,70.46 L 927.46,69.06 L 929.81,67.53 L 932.02,65.84 L 934.05,63.96 L 935.85,61.88 L 937.36,59.61 L 938.54,57.16 L 939.38,54.57 L 939.86,51.89 L 940.00,49.15 L 939.82,46.40 L 939.35,43.66 L 938.66,40.95 L 937.78,38.28 L 936.76,35.66 L 935.63,33.07 L 934.43,30.51 L 933.19,27.96 L 931.90,25.44 L 930.58,22.94 L 929.23,20.45 L 927.83,17.99 L 926.36,15.58 L 924.80,13.24 L 923.12,10.98 L 921.31,8.86 L 919.33,6.90 L 917.19,5.14 L 914.89,3.61 L 912.44,2.34 L 909.86,1.35 L 907.19,0.64 L 904.45,0.19 L 901.67,0.00 L 898.87,0.03 L 896.08,0.27 L 893.30,0.69 L 890.55,1.28 L 887.83,2.00 L 885.14,2.86 L 882.48,3.81 L 879.85,4.85 L 877.24,5.95 L 874.65,7.08 L 872.07,8.24 L 869.49,9.42 L 866.92,10.60 L 864.34,11.78 L 861.77,12.95 L 859.19,14.13 L 856.61,15.29 L 854.02,16.45 L 851.43,17.60 L 848.84,18.74 L 846.25,19.87 L 843.65,21.00 L 841.05,22.13 L 838.45,23.25 L 835.85,24.37 L 833.25,25.49 L 830.65,26.60 L 828.04,27.72 L 825.44,28.83 L 822.84,29.94 L 820.23,31.06 L 817.63,32.17 L 815.02,33.28 L 812.42,34.39 L 809.81,35.50 L 807.21,36.60 L 804.60,37.71 L 801.99,38.81 L 799.38,39.91 L 796.77,41.01 L 794.16,42.11 L 791.55,43.20 L 788.94,44.30 L 786.32,45.38 L 783.70,46.46 L 781.08,47.53 L 778.45,48.59 L 775.82,49.63 L 773.18,50.66 L 770.54,51.67 L 767.88,52.65 L 765.22,53.61 L 762.55,54.54 L 759.86,55.45 L 757.17,56.33 L 754.47,57.19 L 751.76,58.01 L 749.05,58.80 L 746.32,59.56 L 743.58,60.28 L 740.83,60.97 L 738.08,61.62 L 735.32,62.23 L 732.55,62.81 L 729.77,63.36 L 726.98,63.87 L 724.19,64.35 L 721.40,64.80 L 718.60,65.23 L 715.80,65.62 L 712.99,65.98 L 710.18,66.31 L 707.36,66.62 L 704.55,66.91 L 701.73,67.17 L 698.90,67.40 L 696.08,67.62 L 693.26,67.82 L 690.43,67.99 L 687.60,68.15 L 684.78,68.30 L 681.95,68.43 L 679.12,68.55 L 676.29,68.66 L 673.46,68.77 L 670.63,68.86 L 667.80,68.96 L 664.97,69.05 L 662.14,69.13 L 659.31,69.22 L 656.48,69.30 L 653.64,69.38 L 650.81,69.47 L 647.98,69.55 L 645.15,69.63 L 642.32,69.70 L 639.49,69.78 L 636.66,69.85 L 633.83,69.92 L 631.00,69.99 L 628.17,70.05 L 625.34,70.11 L 622.50,70.17 L 619.67,70.22 L 616.84,70.26 L 614.01,70.31 L 611.18,70.34 L 608.35,70.37 L 605.51,70.39 L 602.68,70.41 L 599.85,70.41 L 597.02,70.41 L 594.19,70.39 L 591.36,70.35 L 588.53,70.30 L 585.69,70.23 L 582.86,70.14 L 580.04,70.03 L 577.21,69.90 L 574.38,69.75 L 571.55,69.57 L 568.73,69.37 L 565.91,69.15 L 563.09,68.91 L 560.27,68.65 L 557.45,68.36 L 554.63,68.06 L 551.82,67.73 L 549.01,67.39 L 546.20,67.02 L 543.40,66.64 L 540.59,66.24 L 537.79,65.83 L 534.99,65.40 L 532.19,64.97 L 529.40,64.52 L 526.60,64.07 L 523.81,63.62 L 521.01,63.16 L 518.22,62.71 L 515.42,62.25 L 512.63,61.80 L 509.83,61.35 L 507.03,60.91 L 504.24,60.47 L 501.44,60.04 L 498.64,59.61 L 495.84,59.18 L 493.04,58.77 L 490.24,58.35 L 487.44,57.92 L 484.66,57.47 L 481.89,57.00 L 479.12,56.52 Z" fill="none" stroke="#ffffff" stroke-opacity="0.9" stroke-width="5.3" stroke-linecap="round" stroke-linejoin="round"/>
</svg>
