<svg xmlns="http://www.w3.org/2000/svg" viewBox="-63.8 -63.8 1067.6 686.1">
<defs><linearGradient id="g" gradientUnits="userSpaceOnUse" x1="22" y1="-9" x2="918" y2="567">
<stop offset="0" stop-color="#63c9f6"/><stop offset="1" stop-color="#0a4f86"/></linearGradient></defs>
<path d="M 827.98,325.64 L 831.22,324.68 L 834.45,323.70 L 837.67,322.71 L 840.89,321.70 L 844.11,320.67 L 847.32,319.64 L 850.54,318.62 L 853.75,317.60 L 856.97,316.58 L 860.19,315.56 L 863.41,314.54 L 866.62,313.51 L 869.84,312.49 L 873.06,311.47 L 876.27,310.45 L 879.49,309.42 L 882.71,308.39 L 885.92,307.37 L 889.14,306.34 L 892.35,305.32 L 895.57,304.30 L 898.79,303.30 L 902.02,302.30 L 905.25,301.32 L 908.49,300.36 L 911.73,299.44 L 914.99,298.56 L 918.26,297.75 L 921.55,297.08 L 924.84,296.60 L 928.11,296.43 L 931.25,296.70 L 934.15,297.50 L 936.62,298.90 L 938.49,300.88 L 939.64,303.35 L 940.00,306.13 L 939.62,309.08 L 938.62,312.04 L 937.15,314.94 L 935.36,317.74 L 933.38,320.45 L 931.28,323.09 L 929.12,325.67 L 926.91,328.22 L 924.67,330.74 L 922.40,333.24 L 920.10,335.72 L 917.79,338.17 L 915.47,340.62 L 913.13,343.06 L 910.78,345.48 L 908.42,347.89 L 906.05,350.30 L 903.67,352.69 L 901.28,355.07 L 898.87,357.44 L 896.45,359.79 L 894.02,362.13 L 891.57,364.45 L 889.10,366.75 L 886.61,369.03 L 884.11,371.29 L 881.59,373.54 L 879.05,375.77 L 876.49,377.97 L 873.92,380.16 L 871.33,382.32 L 868.73,384.47 L 866.10,386.59 L 863.45,388.68 L 860.78,390.74 L 858.09,392.77 L 855.37,394.76 L 852.62,396.72 L 849.84,398.64 L 847.03,400.51 L 844.20,402.35 L 841.35,404.14 L 838.47,405.90 L 835.56,407.62 L 832.64,409.31 L 829.70,410.96 L 826.74,412.59 L 823.77,414.19 L 820.79,415.78 L 817.80,417.34 L 814.80,418.89 L 811.79,420.42 L 808.78,421.94 L 805.76,423.44 L 802.73,424.94 L 799.70,426.42 L 796.67,427.90 L 793.63,429.37 L 790.59,430.84 L 787.55,432.31 L 784.51,433.77 L 781.47,435.24 L 778.43,436.71 L 775.39,438.19 L 772.36,439.66 L 769.32,441.14 L 766.29,442.63 L 763.26,444.12 L 760.24,445.62 L 757.22,447.13 L 754.21,448.65 L 751.20,450.19 L 748.21,451.74 L 745.23,453.32 L 742.26,454.93 L 739.31,456.56 L 736.38,458.24 L 733.48,459.96 L 730.61,461.74 L 727.79,463.57 L 725.01,465.48 L 722.28,467.46 L 719.61,469.51 L 716.98,471.62 L 714.38,473.78 L 711.80,475.95 L 709.22,478.13 L 706.61,480.27 L 703.97,482.35 L 701.26,484.36 L 698.49,486.26 L 695.65,488.06 L 692.73,489.73 L 689.74,491.26 L 686.68,492.65 L 683.56,493.89 L 680.38,494.97 L 677.15,495.89 L 673.88,496.67 L 670.58,497.30 L 667.25,497.80 L 663.91,498.18 L 660.55,498.46 L 657.18,498.66 L 653.81,498.78 L 650.44,498.86 L 647.06,498.91 L 643.69,498.96 L 640.32,499.03 L 636.95,499.14 L 633.58,499.32 L 630.22,499.58 L 626.87,499.93 L 623.53,500.38 L 620.20,500.91 L 616.89,501.54 L 613.60,502.25 L 610.32,503.04 L 607.05,503.90 L 603.81,504.81 L 600.58,505.78 L 597.35,506.79 L 594.15,507.83 L 590.94,508.90 L 587.75,510.00 L 584.57,511.11 L 581.38,512.23 L 578.20,513.37 L 575.03,514.52 L 571.86,515.67 L 568.69,516.83 L 565.52,517.99 L 562.35,519.16 L 559.18,520.33 L 556.02,521.50 L 552.85,522.67 L 549.68,523.83 L 546.51,524.99 L 543.34,526.15 L 540.17,527.29 L 536.98,528.42 L 533.80,529.53 L 530.60,530.61 L 527.40,531.68 L 524.19,532.71 L 520.96,533.71 L 517.73,534.68 L 514.49,535.61 L 511.23,536.49 L 507.96,537.34 L 504.69,538.15 L 501.40,538.91 L 498.10,539.62 L 494.80,540.30 L 491.48,540.93 L 488.16,541.52 L 484.83,542.06 L 481.49,542.56 L 478.15,543.03 L 474.80,543.45 L 471.45,543.84 L 468.09,544.19 L 464.73,544.52 L 461.37,544.82 L 458.01,545.09 L 454.64,545.35 L 451.28,545.58 L 447.91,545.81 L 444.54,546.02 L 441.17,546.22 L 437.80,546.41 L 434.43,546.60 L 431.06,546.78 L 427.69,546.96 L 424.32,547.13 L 420.95,547.30 L 417.58,547.47 L 414.20,547.64 L 410.83,547.82 L 407.46,547.99 L 404.09,548.16 L 400.72,548.34 L 397.35,548.51 L 393.98,548.68 L 390.61,548.86 L 387.24,549.03 L 383.86,549.20 L 380.49,549.37 L 377.12,549.53 L 373.75,549.69 L 370.38,549.85 L 367.01,550.01 L 363.63,550.16 L 360.26,550.31 L 356.89,550.46 L 353.52,550.60 L 350.15,550.74 L 346.77,550.89 L 343.40,551.03 L 340.03,551.17 L 336.66,551.31 L 333.28,551.45 L 329.91,551.59 L 326.54,551.73 L 323.17,551.88 L 319.79,552.02 L 316.42,552.16 L 313.05,552.30 L 309.68,552.45 L 306.30,552.59 L 302.93,552.74 L 299.56,552.90 L 296.19,553.05 L 292.82,553.21 L 289.44,553.37 L 286.07,553.53 L 282.70,553.70 L 279.33,553.87 L 275.96,554.03 L 272.59,554.20 L 269.22,554.36 L 265.84,554.53 L 262.47,554.69 L 259.10,554.85 L 255.73,555.01 L 252.36,555.17 L 248.99,555.33 L 245.61,555.49 L 242.24,555.64 L 238.87,555.80 L 235.50,555.95 L 232.13,556.11 L 228.75,556.26 L 225.38,556.41 L 222.01,556.56 L 218.64,556.71 L 215.27,556.86 L 211.89,557.00 L 208.52,557.15 L 205.15,557.30 L 201.78,557.44 L 198.40,557.58 L 195.03,557.73 L 191.66,557.86 L 188.29,558.00 L 184.91,558.12 L 181.54,558.24 L 178.17,558.34 L 174.79,558.42 L 171.42,558.46 L 168.04,558.46 L 164.67,558.39 L 161.31,558.24 L 157.95,557.99 L 154.61,557.59 L 151.31,557.02 L 148.07,556.23 L 144.91,555.20 L 141.88,553.89 L 139.03,552.27 L 136.42,550.32 L 134.09,548.06 L 132.04,545.52 L 130.24,542.76 L 128.61,539.87 L 127.00,536.94 L 125.31,534.09 L 123.42,531.39 L 121.26,528.95 L 118.82,526.80 L 116.12,524.99 L 113.19,523.53 L 110.10,522.44 L 106.89,521.68 L 103.60,521.24 L 100.28,521.08 L 96.93,521.14 L 93.58,521.36 L 90.23,521.68 L 86.87,522.03 L 83.52,522.32 L 80.17,522.50 L 76.82,522.50 L 73.50,522.26 L 70.21,521.77 L 66.99,520.99 L 63.85,519.92 L 60.83,518.55 L 57.95,516.91 L 55.23,515.01 L 52.69,512.87 L 50.33,510.52 L 48.16,507.99 L 46.17,505.31 L 44.35,502.49 L 42.67,499.59 L 41.12,496.60 L 39.66,493.56 L 38.29,490.48 L 36.98,487.37 L 35.72,484.24 L 34.51,481.10 L 33.32,477.94 L 32.16,474.77 L 31.01,471.59 L 29.88,468.41 L 28.75,465.23 L 27.62,462.05 L 26.47,458.88 L 25.32,455.71 L 24.14,452.54 L 22.95,449.38 L 21.74,446.23 L 20.51,443.09 L 19.27,439.95 L 18.03,436.81 L 16.78,433.68 L 15.54,430.54 L 14.31,427.39 L 13.09,424.25 L 11.88,421.10 L 10.68,417.94 L 9.49,414.78 L 8.31,411.62 L 7.15,408.45 L 5.99,405.28 L 4.86,402.10 L 3.78,398.91 L 2.76,395.69 L 1.83,392.46 L 1.04,389.19 L 0.43,385.90 L 0.07,382.60 L 0.00,379.29 L 0.29,376.04 L 0.99,372.87 L 2.13,369.87 L 3.72,367.11 L 5.74,364.65 L 8.14,362.55 L 10.86,360.88 L 13.81,359.66 L 16.93,358.94 L 20.12,358.72 L 23.32,359.01 L 26.45,359.78 L 29.44,361.00 L 32.26,362.63 L 34.85,364.62 L 37.19,366.92 L 39.28,369.47 L 41.12,372.23 L 42.73,375.14 L 44.14,378.18 L 45.37,381.30 L 46.45,384.48 L 47.42,387.71 L 48.30,390.96 L 49.12,394.24 L 49.91,397.52 L 50.69,400.80 L 51.49,404.08 L 52.34,407.34 L 53.28,410.57 L 54.35,413.76 L 55.58,416.87 L 57.00,419.89 L 58.65,422.77 L 60.54,425.49 L 62.69,427.99 L 65.09,430.24 L 67.72,432.23 L 70.55,433.92 L 73.54,435.32 L 76.67,436.42 L 79.89,437.25 L 83.18,437.82 L 86.50,438.16 L 89.86,438.30 L 93.22,438.27 L 96.58,438.11 L 99.94,437.86 L 103.30,437.53 L 106.65,437.17 L 110.01,436.78 L 113.36,436.38 L 116.71,435.99 L 120.06,435.60 L 123.42,435.24 L 126.78,434.90 L 130.14,434.60 L 133.50,434.32 L 136.87,434.09 L 140.24,433.89 L 143.61,433.72 L 146.98,433.59 L 150.35,433.49 L 153.73,433.42 L 157.10,433.39 L 160.48,433.39 L 163.85,433.41 L 167.23,433.47 L 170.60,433.56 L 173.97,433.66 L 177.35,433.79 L 180.72,433.94 L 184.09,434.11 L 187.46,434.29 L 190.83,434.48 L 194.20,434.69 L 197.57,434.90 L 200.94,435.11 L 204.30,435.33 L 207.67,435.56 L 211.04,435.78 L 214.41,436.00 L 217.78,436.22 L 221.14,436.44 L 224.51,436.66 L 227.88,436.87 L 231.25,437.08 L 234.62,437.29 L 237.99,437.50 L 241.36,437.70 L 244.73,437.89 L 248.10,438.08 L 251.47,438.25 L 254.84,438.40 L 258.21,438.53 L 261.59,438.61 L 264.96,438.63 L 268.33,438.57 L 271.69,438.42 L 275.04,438.13 L 278.37,437.69 L 281.66,437.07 L 284.91,436.26 L 288.09,435.23 L 291.19,433.99 L 294.21,432.55 L 297.12,430.90 L 299.91,429.06 L 302.57,427.04 L 305.10,424.84 L 307.48,422.49 L 309.71,420.00 L 311.77,417.36 L 313.68,414.60 L 315.41,411.74 L 317.00,408.78 L 318.43,405.74 L 319.72,402.64 L 320.88,399.48 L 321.91,396.28 L 322.81,393.04 L 323.58,389.76 L 324.22,386.46 L 324.71,383.13 L 325.06,379.79 L 325.27,376.43 L 325.33,373.07 L 325.25,369.71 L 325.01,366.36 L 324.62,363.02 L 324.08,359.70 L 323.39,356.42 L 322.55,353.16 L 321.57,349.95 L 320.44,346.78 L 319.18,343.66 L 317.78,340.61 L 316.25,337.61 L 314.60,334.68 L 312.83,331.82 L 310.95,329.03 L 308.96,326.32 L 306.87,323.68 L 304.69,321.11 L 302.43,318.62 L 300.09,316.19 L 297.68,313.84 L 295.20,311.55 L 292.67,309.33 L 290.08,307.17 L 287.44,305.07 L 284.76,303.03 L 282.04,301.03 L 279.29,299.08 L 276.51,297.16 L 273.72,295.26 L 270.91,293.39 L 268.10,291.52 L 265.28,289.67 L 262.46,287.82 L 259.63,285.97 L 256.81,284.12 L 253.98,282.27 L 251.16,280.42 L 248.34,278.57 L 245.52,276.71 L 242.71,274.84 L 239.90,272.97 L 237.09,271.10 L 234.29,269.22 L 231.49,267.33 L 228.69,265.45 L 225.89,263.56 L 223.09,261.67 L 220.30,259.77 L 217.52,257.87 L 214.74,255.95 L 211.97,254.02 L 209.22,252.06 L 206.49,250.08 L 203.78,248.07 L 201.10,246.02 L 198.46,243.92 L 195.85,241.78 L 193.30,239.58 L 190.82,237.30 L 188.42,234.94 L 186.14,232.48 L 184.03,229.90 L 182.11,227.17 L 180.43,224.31 L 179.04,221.31 L 177.97,218.20 L 177.23,214.99 L 176.84,211.71 L 176.78,208.41 L 177.07,205.12 L 177.68,201.86 L 178.59,198.68 L 179.79,195.58 L 181.25,192.59 L 182.94,189.71 L 184.80,186.92 L 186.78,184.21 L 188.82,181.53 L 190.85,178.84 L 192.80,176.11 L 194.61,173.29 L 196.22,170.37 L 197.59,167.34 L 198.68,164.21 L 199.49,161.00 L 199.98,157.72 L 200.17,154.42 L 200.04,151.10 L 199.61,147.81 L 198.89,144.57 L 197.90,141.39 L 196.65,138.30 L 195.17,135.31 L 193.49,132.42 L 191.63,129.64 L 189.61,126.96 L 187.46,124.37 L 185.21,121.87 L 182.87,119.45 L 180.47,117.08 L 178.03,114.74 L 175.57,112.44 L 173.10,110.14 L 170.63,107.84 L 168.15,105.55 L 165.68,103.25 L 163.21,100.94 L 160.75,98.63 L 158.30,96.31 L 155.86,93.98 L 153.43,91.64 L 151.01,89.28 L 148.62,86.90 L 146.27,84.49 L 143.97,82.02 L 141.74,79.50 L 139.64,76.88 L 137.70,74.16 L 135.98,71.32 L 134.53,68.35 L 133.41,65.26 L 132.66,62.08 L 132.30,58.83 L 132.34,55.56 L 132.78,52.31 L 133.60,49.13 L 134.76,46.05 L 136.25,43.10 L 138.01,40.29 L 140.01,37.62 L 142.20,35.09 L 144.54,32.68 L 146.98,30.37 L 149.50,28.14 L 152.08,25.96 L 154.68,23.81 L 157.30,21.68 L 159.93,19.57 L 162.58,17.47 L 165.24,15.40 L 167.94,13.38 L 170.69,11.43 L 173.50,9.58 L 176.38,7.86 L 179.34,6.28 L 182.38,4.86 L 185.49,3.61 L 188.66,2.54 L 191.90,1.65 L 195.18,0.95 L 198.49,0.44 L 201.83,0.12 L 205.17,0.00 L 208.52,0.08 L 211.86,0.35 L 215.18,0.83 L 218.46,1.51 L 221.69,2.38 L 224.87,3.44 L 227.99,4.68 L 231.03,6.09 L 234.00,7.65 L 236.89,9.36 L 239.71,11.20 L 242.46,13.14 L 245.15,15.17 L 247.79,17.27 L 250.38,19.43 L 252.93,21.64 L 255.44,23.89 L 257.92,26.18 L 260.37,28.50 L 262.79,30.85 L 265.19,33.23 L 267.55,35.63 L 269.89,38.06 L 272.20,40.53 L 274.48,43.01 L 276.73,45.53 L 278.94,48.07 L 281.13,50.65 L 283.27,53.25 L 285.38,55.88 L 287.46,58.55 L 289.49,61.24 L 291.48,63.96 L 293.42,66.72 L 295.33,69.51 L 297.18,72.32 L 298.99,75.17 L 300.76,78.04 L 302.48,80.95 L 304.16,83.87 L 305.79,86.83 L 307.39,89.80 L 308.95,92.79 L 310.47,95.80 L 311.96,98.83 L 313.41,101.88 L 314.83,104.94 L 316.22,108.02 L 317.57,111.11 L 318.88,114.22 L 320.16,117.34 L 321.41,120.47 L 322.62,123.62 L 323.79,126.79 L 324.93,129.96 L 326.04,133.15 L 327.10,136.35 L 328.14,139.57 L 329.14,142.79 L 330.10,146.02 L 331.04,149.26 L 331.96,152.51 L 332.85,155.77 L 333.72,159.03 L 334.58,162.29 L 335.42,165.56 L 336.25,168.84 L 337.06,172.11 L 337.87,175.39 L 338.67,178.67 L 339.46,181.95 L 340.24,185.23 L 341.02,188.52 L 341.81,191.80 L 342.61,195.08 L 343.43,198.35 L 344.28,201.62 L 345.16,204.87 L 346.09,208.12 L 347.05,211.35 L 348.07,214.57 L 349.13,217.77 L 350.25,220.96 L 351.41,224.12 L 352.62,227.27 L 353.88,230.40 L 355.20,233.51 L 356.56,236.59 L 357.99,239.65 L 359.47,242.68 L 361.02,245.67 L 362.63,248.63 L 364.31,251.56 L 366.06,254.44 L 367.88,257.28 L 369.76,260.07 L 371.72,262.82 L 373.74,265.51 L 375.83,268.16 L 377.98,270.76 L 380.19,273.30 L 382.47,275.79 L 384.80,278.22 L 387.20,280.59 L 389.65,282.91 L 392.15,285.17 L 394.70,287.37 L 397.29,289.53 L 399.92,291.65 L 402.58,293.73 L 405.26,295.78 L 407.95,297.82 L 410.65,299.85 L 413.35,301.86 L 416.07,303.87 L 418.80,305.86 L 421.53,307.83 L 424.29,309.77 L 427.07,311.68 L 429.88,313.55 L 432.72,315.37 L 435.60,317.13 L 438.52,318.82 L 441.47,320.43 L 444.47,321.97 L 447.52,323.41 L 450.60,324.76 L 453.73,326.02 L 456.89,327.18 L 460.09,328.23 L 463.32,329.18 L 466.58,330.02 L 469.87,330.75 L 473.18,331.37 L 476.51,331.88 L 479.85,332.27 L 483.21,332.56 L 486.57,332.74 L 489.94,332.82 L 493.31,332.82 L 496.68,332.73 L 500.05,332.56 L 503.41,332.32 L 506.77,331.99 L 510.11,331.60 L 513.46,331.14 L 516.79,330.62 L 520.12,330.06 L 523.44,329.48 L 526.76,328.88 L 530.09,328.28 L 533.41,327.69 L 536.73,327.11 L 540.06,326.55 L 543.39,326.02 L 546.73,325.50 L 550.07,325.01 L 553.41,324.55 L 556.76,324.12 L 560.11,323.71 L 563.46,323.33 L 566.82,322.98 L 570.18,322.66 L 573.54,322.37 L 576.91,322.12 L 580.27,321.90 L 583.64,321.73 L 587.02,321.59 L 590.39,321.49 L 593.76,321.43 L 597.14,321.41 L 600.51,321.42 L 603.89,321.46 L 607.26,321.53 L 610.63,321.64 L 614.01,321.78 L 617.38,321.95 L 620.75,322.15 L 624.11,322.39 L 627.48,322.64 L 630.84,322.93 L 634.20,323.24 L 637.56,323.57 L 640.92,323.92 L 644.27,324.29 L 647.63,324.67 L 650.98,325.07 L 654.33,325.48 L 657.68,325.91 L 661.02,326.35 L 664.37,326.81 L 667.71,327.29 L 671.05,327.79 L 674.38,328.32 L 677.70,328.89 L 681.01,329.52 L 684.30,330.25 L 687.52,331.14 L 690.62,332.26 L 693.45,333.70 L 695.88,335.51 L 697.73,337.73 L 698.93,340.33 L 699.51,343.23 L 699.63,346.31 L 699.61,349.45 L 699.78,352.53 L 700.43,355.37 L 701.72,357.81 L 703.67,359.71 L 706.18,360.98 L 709.08,361.60 L 712.21,361.64 L 715.44,361.25 L 718.70,360.55 L 721.94,359.67 L 725.17,358.71 L 728.39,357.69 L 731.60,356.64 L 734.80,355.58 L 738.01,354.51 L 741.20,353.43 L 744.40,352.35 L 747.60,351.28 L 750.80,350.20 L 754.00,349.13 L 757.21,348.07 L 760.41,347.01 L 763.62,345.95 L 766.82,344.90 L 770.03,343.85 L 773.24,342.80 L 776.45,341.76 L 779.66,340.71 L 782.87,339.68 L 786.09,338.64 L 789.30,337.61 L 792.52,336.58 L 795.73,335.55 L 798.95,334.53 L 802.17,333.51 L 805.38,332.49 L 808.60,331.48 L 811.82,330.47 L 815.05,329.47 L 818.28,328.49 L 821.51,327.53 L 824.75,326.58 Z" fill="none" stroke="url(#g)" stroke-width="64.8" stroke-linecap="round" stroke-linejoin="round"/>
<path d="M 827.98,325.64 L 831.22,324.68 L 834.45,323.70 L 837.67,322.71 L 840.89,321.70 L 844.11,320.67 L 847.32,319.64 L 850.54,318.62 L 853.75,317.60 L 856.97,316.58 L 860.19,315.56 L 863.41,314.54 L 866.62,313.51 L 869.84,312.49 L 873.06,311.47 L 876.27,310.45 L 879.49,309.42 L 882.71,308.39 L 885.92,307.37 L 889.14,306.34 L 892.35,305.32 L 895.57,304.30 L 898.79,303.30 L 902.02,302.30 L 905.25,301.32 L 908.49,300.36 L 911.73,299.44 L 914.99,298.56 L 918.26,297.75 L 921.55,297.08 L 924.84,296.60 L 928.11,296.43 L 931.25,296.70 L 934.15,297.50 L 936.62,298.90 L 938.49,300.88 L 939.64,303.35 L 940.00,306.13 L 939.62,309.08 L 938.62,312.04 L 937.15,314.94 L 935.36,317.74 L 933.38,320.45 L 931.28,323.09 L 929.12,325.67 L 926.91,328.22 L 924.67,330.74 L 922.40,333.24 L 920.10,335.72 L 917.79,338.17 L 915.47,340.62 L 913.13,343.06 L 910.78,345.48 L 908.42,347.89 L 906.05,350.30 L 903.67,352.69 L 901.28,355.07 L 898.87,357.44 L 896.45,359.79 L 894.02,362.13 L 891.57,364.45 L 889.10,366.75 L 886.61,369.03 L 884.11,371.29 L 881.59,373.54 L 879.05,375.77 L 876.49,377.97 L 873.92,380.16 L 871.33,382.32 L 868.73,384.47 L 866.10,386.59 L 863.45,388.68 L 860.78,390.74 L 858.09,392.77 L 855.37,394.76 L 852.62,396.72 L 849.84,398.64 L 847.03,400.51 L 844.20,402.35 L 841.35,404.14 L 838.47,405.90 L 835.56,407.62 L 832.64,409.31 L 829.70,410.96 L 826.74,412.59 L 823.77,414.19 L 820.79,415.78 L 817.80,417.34 L 814.80,418.89 L 811.79,420.42 L 808.78,421.94 L 805.76,423.44 L 802.73,424.94 L 799.70,426.42 L 796.67,427.90 L 793.63,429.37 L 790.59,430.84 L 787.55,432.31 L 784.51,433.77 L 781.47,435.24 L 778.43,436.71 L 775.39,438.19 L 772.36,439.66 L 769.32,441.14 L 766.29,442.63 L 763.26,444.12 L 760.24,445.62 L 757.22,447.13 L 754.21,448.65 L 751.20,450.19 L 748.21,451.74 L 745.23,453.32 L 742.26,454.93 L 739.31,456.56 L 736.38,458.24 L 733.48,459.96 L 730.61,461.74 L 727.79,463.57 L 725.01,465.48 L 722.28,467.46 L 719.61,469.51 L 716.98,471.62 L 714.38,473.78 L 711.80,475.95 L 709.22,478.13 L 706.61,480.27 L 703.97,482.35 L 701.26,484.36 L 698.49,486.26 L 695.65,488.06 L 692.73,489.73 L 689.74,491.26 L 686.68,492.65 L 683.56,493.89 L 680.38,494.97 L 677.15,495.89 L 673.88,496.67 L 670.58,497.30 L 667.25,497.80 L 663.91,498.18 L 660.55,498.46 L 657.18,498.66 L 653.81,498.78 L 650.44,498.86 L 647.06,498.91 L 643.69,498.96 L 640.32,499.03 L 636.95,499.14 L 633.58,499.32 L 630.22,499.58 L 626.87,499.93 L 623.53,500.38 L 620.20,500.91 L 616.89,501.54 L 613.60,502.25 L 610.32,503.04 L 607.05,503.90 L 603.81,504.81 L 600.58,505.78 L 597.35,506.79 L 594.15,507.83 L 590.94,508.90 L 587.75,510.00 L 584.57,511.11 L 581.38,512.23 L 578.20,513.37 L 575.03,514.52 L 571.86,515.67 L 568.69,516.83 L 565.52,517.99 L 562.35,519.16 L 559.18,520.33 L 556.02,521.50 L 552.85,522.67 L 549.68,523.83 L 546.51,524.99 L 543.34,526.15 L 540.17,527.29 L 536.98,528.42 L 533.80,529.53 L 530.60,530.61 L 527.40,531.68 L 524.19,532.71 L 520.96,533.71 L 517.73,534.68 L 514.49,535.61 L 511.23,536.49 L 507.96,537.34 L 504.69,538.15 L 501.40,538.91 L 498.10,539.62 L 494.80,540.30 L 491.48,540.93 L 488.16,541.52 L 484.83,542.06 L 481.49,542.56 L 478.15,543.03 L 474.80,543.45 L 471.45,543.84 L 468.09,544.19 L 464.73,544.52 L 461.37,544.82 L 458.01,545.09 L 454.64,545.35 L 451.28,545.58 L 447.91,545.81 L 444.54,546.02 L 441.17,546.22 L 437.80,546.41 L 434.43,546.60 L 431.06,546.78 L 427.69,546.96 L 424.32,547.13 L 420.95,547.30 L 417.58,547.47 L 414.20,547.64 L 410.83,547.82 L 407.46,547.99 L 404.09,548.16 L 400.72,548.34 L 397.35,548.51 L 393.98,548.68 L 390.61,548.86 L 387.24,549.03 L 383.86,549.20 L 380.49,549.37 L 377.12,549.53 L 373.75,549.69 L 370.38,549.85 L 367.01,550.01 L 363.63,550.16 L 360.26,550.31 L 356.89,550.46 L 353.52,550.60 L 350.15,550.74 L 346.77,550.89 L 343.40,551.03 L 340.03,551.17 L 336.66,551.31 L 333.28,551.45 L 329.91,551.59 L 326.54,551.73 L 323.17,551.88 L 319.79,552.02 L 316.42,552.16 L 313.05,552.30 L 309.68,552.45 L 306.30,552.59 L 302.93,552.74 L 299.56,552.90 L 296.19,553.05 L 292.82,553.21 L 289.44,553.37 L 286.07,553.53 L 282.70,553.70 L 279.33,553.87 L 275.96,554.03 L 272.59,554.20 L 269.22,554.36 L 265.84,554.53 L 262.47,554.69 L 259.10,554.85 L 255.73,555.01 L 252.36,555.17 L 248.99,555.33 L 245.61,555.49 L 242.24,555.64 L 238.87,555.80 L 235.50,555.95 L 232.13,556.11 L 228.75,556.26 L 225.38,556.41 L 222.01,556.56 L 218.64,556.71 L 215.27,556.86 L 211.89,557.00 L 208.52,557.15 L 205.15,557.30 L 201.78,557.44 L 198.40,557.58 L 195.03,557.73 L 191.66,557.86 L 188.29,558.00 L 184.91,558.12 L 181.54,558.24 L 178.17,558.34 L 174.79,558.42 L 171.42,558.46 L 168.04,558.46 L 164.67,558.39 L 161.31,558.24 L 157.95,557.99 L 154.61,557.59 L 151.31,557.02 L 148.07,556.23 L 144.91,555.20 L 141.88,553.89 L 139.03,552.27 L 136.42,550.32 L 134.09,548.06 L 132.04,545.52 L 130.24,542.76 L 128.61,539.87 L 127.00,536.94 L 125.31,534.09 L 123.42,531.39 L 121.26,528.95 L 118.82,526.80 L 116.12,524.99 L 113.19,523.53 L 110.10,522.44 L 106.89,521.68 L 103.60,521.24 L 100.28,521.08 L 96.93,521.14 L 93.58,521.36 L 90.23,521.68 L 86.87,522.03 L 83.52,522.32 L 80.17,522.50 L 76.82,522.50 L 73.50,522.26 L 70.21,521.77 L 66.99,520.99 L 63.85,519.92 L 60.83,518.55 L 57.95,516.91 L 55.23,515.01 L 52.69,512.87 L 50.33,510.52 L 48.16,507.99 L 46.17,505.31 L 44.35,502.49 L 42.67,499.59 L 41.12,496.60 L 39.66,493.56 L 38.29,490.48 L 36.98,487.37 L 35.72,484.24 L 34.51,481.10 L 33.32,477.94 L 32.16,474.77 L 31.01,471.59 L 29.88,468.41 L 28.75,465.23 L 27.62,462.05 L 26.47,458.88 L 25.32,455.71 L 24.14,452.54 L 22.95,449.38 L 21.74,446.23 L 20.51,443.09 L 19.27,439.95 L 18.03,436.81 L 16.78,433.68 L 15.54,430.54 L 14.31,427.39 L 13.09,424.25 L 11.88,421.10 L 10.68,417.94 L 9.49,414.78 L 8.31,411.62 L 7.15,408.45 L 5.99,405.28 L 4.86,402.10 L 3.78,398.91 L 2.76,395.69 L 1.83,392.46 L 1.04,389.19 L 0.43,385.90 L 0.07,382.60 L 0.00,379.29 L 0.29,376.04 L 0.99,372.87 L 2.13,369.87 L 3.72,367.11 L 5.74,364.65 L 8.14,362.55 L 10.86,360.88 L 13.81,359.66 L 16.93,358.94 L 20.12,358.72 L 23.32,359.01 L 26.45,359.78 L 29.44,361.00 L 32.26,362.63 L 34.85,364.62 L 37.19,366.92 L 39.28,369.47 L 41.12,372.23 L 42.73,375.14 L 44.14,378.18 L 45.37,381.30 L 46.45,384.48 L 47.42,387.71 L 48.30,390.96 L 49.12,394.24 L 49.91,397.52 L 50.69,400.80 L 51.49,404.08 L 52.34,407.34 L 53.28,410.57 L 54.35,413.76 L 55.58,416.87 L 57.00,419.89 L 58.65,422.77 L 60.54,425.49 L 62.69,427.99 L 65.09,430.24 L 67.72,432.23 L 70.55,433.92 L 73.54,435.32 L 76.67,436.42 L 79.89,437.25 L 83.18,437.82 L 86.50,438.16 L 89.86,438.30 L 93.22,438.27 L 96.58,438.11 L 99.94,437.86 L 103.30,437.53 L 106.65,437.17 L 110.01,436.78 L 113.36,436.38 L 116.71,435.99 L 120.06,435.60 L 123.42,435.24 L 126.78,434.90 L 130.14,434.60 L 133.50,434.32 L 136.87,434.09 L 140.24,433.89 L 143.61,433.72 L 146.98,433.59 L 150.35,433.49 L 153.73,433.42 L 157.10,433.39 L 160.48,433.39 L 163.85,433.41 L 167.23,433.47 L 170.60,433.56 L 173.97,433.66 L 177.35,433.79 L 180.72,433.94 L 184.09,434.11 L 187.46,434.29 L 190.83,434.48 L 194.20,434.69 L 197.57,434.90 L 200.94,435.11 L 204.30,435.33 L 207.67,435.56 L 211.04,435.78 L 214.41,436.00 L 217.78,436.22 L 221.14,436.44 L 224.51,436.66 L 227.88,436.87 L 231.25,437.08 L 234.62,437.29 L 237.99,437.50 L 241.36,437.70 L 244.73,437.89 L 248.10,438.08 L 251.47,438.25 L 254.84,438.40 L 258.21,438.53 L 261.59,438.61 L 264.96,438.63 L 268.33,438.57 L 271.69,438.42 L 275.04,438.13 L 278.37,437.69 L 281.66,437.07 L 284.91,436.26 L 288.09,435.23 L 291.19,433.99 L 294.21,432.55 L 297.12,430.90 L 299.91,429.06 L 302.57,427.04 L 305.10,424.84 L 307.48,422.49 L 309.71,420.00 L 311.77,417.36 L 313.68,414.60 L 315.41,411.74 L 317.00,408.78 L 318.43,405.74 L 319.72,402.64 L 320.88,399.48 L 321.91,396.28 L 322.81,393.04 L 323.58,389.76 L 324.22,386.46 L 324.71,383.13 L 325.06,379.79 L 325.27,376.43 L 325.33,373.07 L 325.25,369.71 L 325.01,366.36 L 324.62,363.02 L 324.08,359.70 L 323.39,356.42 L 322.55,353.16 L 321.57,349.95 L 320.44,346.78 L 319.18,343.66 L 317.78,340.61 L 316.25,337.61 L 314.60,334.68 L 312.83,331.82 L 310.95,329.03 L 308.96,326.32 L 306.87,323.68 L 304.69,321.11 L 302.43,318.62 L 300.09,316.19 L 297.68,313.84 L 295.20,311.55 L 292.67,309.33 L 290.08,307.17 L 287.44,305.07 L 284.76,303.03 L 282.04,301.03 L 279.29,299.08 L 276.51,297.16 L 273.72,295.26 L 270.91,293.39 L 268.10,291.52 L 265.28,289.67 L 262.46,287.82 L 259.63,285.97 L 256.81,284.12 L 253.98,282.27 L 251.16,280.42 L 248.34,278.57 L 245.52,276.71 L 242.71,274.84 L 239.90,272.97 L 237.09,271.10 L 234.29,269.22 L 231.49,267.33 L 228.69,265.45 L 225.89,263.56 L 223.09,261.67 L 220.30,259.77 L 217.52,257.87 L 214.74,255.95 L 211.97,254.02 L 209.22,252.06 L 206.49,250.08 L 203.78,248.07 L 201.10,246.02 L 198.46,243.92 L 195.85,241.78 L 193.30,239.58 L 190.82,237.30 L 188.42,234.94 L 186.14,232.48 L 184.03,229.90 L 182.11,227.17 L 180.43,224.31 L 179.04,221.31 L 177.97,218.20 L 177.23,214.99 L 176.84,211.71 L 176.78,208.41 L 177.07,205.12 L 177.68,201.86 L 178.59,198.68 L 179.79,195.58 L 181.25,192.59 L 182.94,189.71 L 184.80,186.92 L 186.78,184.21 L 188.82,181.53 L 190.85,178.84 L 192.80,176.11 L 194.61,173.29 L 196.22,170.37 L 197.59,167.34 L 198.68,164.21 L 199.49,161.00 L 199.98,157.72 L 200.17,154.42 L 200.04,151.10 L 199.61,147.81 L 198.89,144.57 L 197.90,141.39 L 196.65,138.30 L 195.17,135.31 L 193.49,132.42 L 191.63,129.64 L 189.61,126.96 L 187.46,124.37 L 185.21,121.87 L 182.87,119.45 L 180.47,117.08 L 178.03,114.74 L 175.57,112.44 L 173.10,110.14 L 170.63,107.84 L 168.15,105.55 L 165.68,103.25 L 163.21,100.94 L 160.75,98.63 L 158.30,96.31 L 155.86,93.98 L 153.43,91.64 L 151.01,89.28 L 148.62,86.90 L 146.27,84.49 L 143.97,82.02 L 141.74,79.50 L 139.64,76.88 L 137.70,74.16 L 135.98,71.32 L 134.53,68.35 L 133.41,65.26 L 132.66,62.08 L 132.30,58.83 L 132.34,55.56 L 132.78,52.31 L 133.60,49.13 L 134.76,46.05 L 136.25,43.10 L 138.01,40.29 L 140.01,37.62 L 142.20,35.09 L 144.54,32.68 L 146.98,30.37 L 149.50,28.14 L 152.08,25.96 L 154.68,23.81 L 157.30,21.68 L 159.93,19.57 L 162.58,17.47 L 165.24,15.40 L 167.94,13.38 L 170.69,11.43 L 173.50,9.58 L 176.38,7.86 L 179.34,6.28 L 182.38,4.86 L 185.49,3.61 L 188.66,2.54 L 191.90,1.65 L 195.18,0.95 L 198.49,0.44 L 201.83,0.12 L 205.17,0.00 L 208.52,0.08 L 211.86,0.35 L 215.18,0.83 L 218.46,1.51 L 221.69,2.38 L 224.87,3.44 L 227.99,4.68 L 231.03,6.09 L 234.00,7.65 L 236.89,9.36 L 239.71,11.20 L 242.46,13.14 L 245.15,15.17 L 247.79,17.27 L 250.38,19.43 L 252.93,21.64 L 255.44,23.89 L 257.92,26.18 L 260.37,28.50 L 262.79,30.85 L 265.19,33.23 L 267.55,35.63 L 269.89,38.06 L 272.20,40.53 L 274.48,43.01 L 276.73,45.53 L 278.94,48.07 L 281.13,50.65 L 283.27,53.25 L 285.38,55.88 L 287.46,58.55 L 289.49,61.24 L 291.48,63.96 L 293.42,66.72 L 295.33,69.51 L 297.18,72.32 L 298.99,75.17 L 300.76,78.04 L 302.48,80.95 L 304.16,83.87 L 305.79,86.83 L 307.39,89.80 L 308.95,92.79 L 310.47,95.80 L 311.96,98.83 L 313.41,101.88 L 314.83,104.94 L 316.22,108.02 L 317.57,111.11 L 318.88,114.22 L 320.16,117.34 L 321.41,120.47 L 322.62,123.62 L 323.79,126.79 L 324.93,129.96 L 326.04,133.15 L 327.10,136.35 L 328.14,139.57 L 329.14,142.79 L 330.10,146.02 L 331.04,149.26 L 331.96,152.51 L 332.85,155.77 L 333.72,159.03 L 334.58,162.29 L 335.42,165.56 L 336.25,168.84 L 337.06,172.11 L 337.87,175.39 L 338.67,178.67 L 339.46,181.95 L 340.24,185.23 L 341.02,188.52 L 341.81,191.80 L 342.61,195.08 L 343.43,198.35 L 344.28,201.62 L 345.16,204.87 L 346.09,208.12 L 347.05,211.35 L 348.07,214.57 L 349.13,217.77 L 350.25,220.96 L 351.41,224.12 L 352.62,227.27 L 353.88,230.40 L 355.20,233.51 L 356.56,236.59 L 357.99,239.65 L 359.47,242.68 L 361.02,245.67 L 362.63,248.63 L 364.31,251.56 L 366.06,254.44 L 367.88,257.28 L 369.76,260.07 L 371.72,262.82 L 373.74,265.51 L 375.83,268.16 L 377.98,270.76 L 380.19,273.30 L 382.47,275.79 L 384.80,278.22 L 387.20,280.59 L 389.65,282.91 L 392.15,285.17 L 394.70,287.37 L 397.29,289.53 L 399.92,291.65 L 402.58,293.73 L 405.26,295.78 L 407.95,297.82 L 410.65,299.85 L 413.35,301.86 L 416.07,303.87 L 418.80,305.86 L 421.53,307.83 L 424.29,309.77 L 427.07,311.68 L 429.88,313.55 L 432.72,315.37 L 435.60,317.13 L 438.52,318.82 L 441.47,320.43 L 444.47,321.97 L 447.52,323.41 L 450.60,324.76 L 453.73,326.02 L 456.89,327.18 L 460.09,328.23 L 463.32,329.18 L 466.58,330.02 L 469.87,330.75 L 473.18,331.37 L 476.51,331.88 L 479.85,332.27 L 483.21,332.56 L 486.57,332.74 L 489.94,332.82 L 493.31,332.82 L 496.68,332.73 L 500.05,332.56 L 503.41,332.32 L 506.77,331.99 L 510.11,331.60 L 513.46,331.14 L 516.79,330.62 L 520.12,330.06 L 523.44,329.48 L 526.76,328.88 L 530.09,328.28 L 533.41,327.69 L 536.73,327.11 L 540.06,326.55 L 543.39,326.02 L 546.73,325.50 L 550.07,325.01 L 553.41,324.55 L 556.76,324.12 L 560.11,323.71 L 563.46,323.33 L 566.82,322.98 L 570.18,322.66 L 573.54,322.37 L 576.91,322.12 L 580.27,321.90 L 583.64,321.73 L 587.02,321.59 L 590.39,321.49 L 593.76,321.43 L 597.14,321.41 L 600.51,321.42 L 603.89,321.46 L 607.26,321.53 L 610.63,321.64 L 614.01,321.78 L 617.38,321.95 L 620.75,322.15 L 624.11,322.39 L 627.48,322.64 L 630.84,322.93 L 634.20,323.24 L 637.56,323.57 L 640.92,323.92 L 644.27,324.29 L 647.63,324.67 L 650.98,325.07 L 654.33,325.48 L 657.68,325.91 L 661.02,326.35 L 664.37,326.81 L 667.71,327.29 L 671.05,327.79 L 674.38,328.32 L 677.70,328.89 L 681.01,329.52 L 684.30,330.25 L 687.52,331.14 L 690.62,332.26 L 693.45,333.70 L 695.88,335.51 L 697.73,337.73 L 698.93,340.33 L 699.51,343.23 L 699.63,346.31 L 699.61,349.45 L 699.78,352.53 L 700.43,355.37 L 701.72,357.81 L 703.67,359.71 L 706.18,360.98 L 709.08,361.60 L 712.21,361.64 L 715.44,361.25 L 718.70,360.55 L 721.94,359.67 L 725.17,358.71 L 728.39,357.69 L 731.60,356.64 L 734.80,355.58 L 738.01,354.51 L 741.20,353.43 L 744.40,352.35 L 747.60,351.28 L 750.80,350.20 L 754.00,349.13 L 757.21,348.07 L 760.41,347.01 L 763.62,345.95 L 766.82,344.90 L 770.03,343.85 L 773.24,342.80 L 776.45,341.76 L 779.66,340.71 L 782.87,339.68 L 786.09,338.64 L 789.30,337.61 L 792.52,336.58 L 795.73,335.55 L 798.95,334.53 L 802.17,333.51 L 805.38,332.49 L 808.60,331.48 L 811.82,330.47 L 815.05,329.47 L 818.28,328.49 L 821.51,327.53 L 824.75,326.58 Z" fill="none" stroke="#ffffff" stroke-opacity="0.9" stroke-width="4.9" stroke-linecap="round" stroke-linejoin="round"/>
</svg>
