<svg version="1.1" id="Layer_1" xmlns:x="ns_extend;" xmlns:i="ns_ai;" xmlns:graph="ns_graphs;" xmlns="http://www.w3.org/2000/svg" xmlns:xlink="http://www.w3.org/1999/xlink" x="0px" y="0px" viewBox="0 0 160.8 223.5" style="enable-background:new 0 0 160.8 223.5;" xml:space="preserve">
 <style type="text/css">
  .st0{fill:#FFFFFF;}
 </style>
 <metadata>
  <sfw xmlns="ns_sfw;">
   <slices>
   </slices>
   <sliceSourceBounds bottomLeftOrigin="true" height="223.5" width="160.8" x="120.3" y="-311.5">
   </sliceSourceBounds>
  </sfw>
 </metadata>
 <g>
  <path class="st0" d="M76,5.3c0.8,0.4,1.1,0.7,1.9,0.9c0.7,0.2,1.7,0.7,1.9,0.1c0.3-0.6-0.1-1.4-0.6-2.1c-0.8-1.3-1.2-1.6-2.3-3.4
		C76.7,0.4,76.5,0,76.1,0c0,0-0.1,1.3-0.5,2.1c-0.3,0.7-1.1,1.2-1,1.7S75.2,4.9,76,5.3z">
  </path>
  <path class="st0" d="M159.6,91c-0.9,1.2-1.3,3.6-2.6,5.6c-1.8,2.8-4.4,6.2-5.7,6.2c-0.7,0-0.9-1.6-0.9-1.6s-0.9-2.7,0.6-6.1
		c1.1-2.4,1.7-3.1,3.1-4.9c1.3-1.7,2.1-2.6,3-4.4c0.8-1.6,1-1.9,1.5-4.4c0.1-0.6-0.1-1.9-0.7-1.8c-0.8,0-3,4.8-5.3,7.5
		c-2.2,2.5-6.3,5.7-6.3,5.7s-0.4,0.3-0.4-0.5c-0.1-0.7-0.2-2.8,0.2-4.7c0.4-1.9,1-3.8,2.7-6.7c1.9-3.3,4.3-5.6,5.5-6.8
		c0.5-0.5,2-1.4,1.2-1.9c-0.7-0.4-2.8,1.4-4.4,2.6c-2,1.5-2.7,1.9-4.7,4.3s-2.5,3.4-2.5,3.4s-1.9,3.1-2.4,6.1s-0.5,4.7-0.5,4.7
		s0,2.7,0.3,4.3c0.2,1.7,0.9,4.3,0.9,4.3s1,2.9,1.4,4.7c0.4,1.8,1.1,7.1,1.1,7.1s0.5,3.8,0.2,7.4s-0.6,5.7-1,6.8
		c-0.4,1.1-1.5,4-3.3,6c-1.7,1.9-2.1,2.2-2.1,2.2s-1.8,1.5-3.3,2.3s-3.7,1.8-4.7,2.1c-1,0.2-2.4,0.3-2.5,0.3h-1.3l-0.4-0.3l-0.2-0.8
		c0,0-1-3.9-2.2-6.4c-1-2.1-3.1-5-3.1-5s-3.6-4.9-6.4-7.6c-3.2-3.2-6.8-5.6-9-7.3c-0.8-0.6-2.6-1.7-2.6-1.7s-7.3-7.3-9.9-13.1
		c-1.8-4-3-6.9-2.5-11.3c0.1-1,0.5-2.9,0.7-2.9l1.3,0.4c0.1,0.1,1.3,1.2,2.4,1.6c0.6,0.2,1.7,0.4,1.7,0.4s0.9,0.1,1.4,0.2
		c0.5,0.2,1.4,0.5,2,0.8s1.5,0.9,1.5,0.9l1.7,1.3l1.8,1.4c0,0,1,0.7,1.3,0.8c0.3,0.1,0.5,0.2,0.6,0.2h0.4c0,0,0.4-0.1,0.5-0.5
		c0.1-0.5-0.5-0.1-1.4-1.1c-1-0.9-1.4-1.7-1.4-1.7s-0.2-0.8-1-1.7c-0.8-0.9-1.8-1.7-1.8-1.7s-0.7-0.5-1.7-0.8s-1.3-0.3-1.4-0.7
		c-0.1-0.4,1.2-0.2,1.2-0.2s1.5,0.2,2.7,0.8c1.2,0.6,1.9,1.3,1.9,1.3l0.8,0.7l0.5,0.5l0.5,0.3c0,0,0.5,0.5,0.6-0.2
		c0.1-0.6-0.1-1.1-0.2-1.2l-0.5-0.5l-2-1.7c-0.6-0.6-1-1-1.6-1.4s-1.5-1-2.6-1.4c-1-0.4-1.6-0.3-2.6-0.8c-0.7-0.3-1.3-0.5-1.7-1.1
		c-0.1-0.1-0.6-0.5,0.3-0.3s1.5,0.5,2.5,0.7c1.6,0.4,2.6,0.4,4.1,0.9c0.6,0.2,1.4,0.6,1.4,0.6l1.9,0.8c0,0,2.6,1.4,4.4,1.5
		s3.3-0.3,3.9-0.6c0.6-0.2,1.7-0.9,2-1.2s0.5-0.6,0.5-0.6l0.2-0.5v-0.4c-0.5-0.6-1.5,1-3.1,1.3c-1.7,0.3-1.6,0.5-2.7,0.3
		c-1.2-0.2-1.9-0.5-2.8-1.4c-1.6-1.5-2.2-2.9-4.3-3.8c-0.9-0.4-2.5-0.8-2.5-0.8s-2.2-0.7-3.4-1.4c-0.9-0.5-2.8-0.8-2.2-1.6
		c0.3-0.4,2.7,1,4.5,1.2c1.3,0.2,2.2,0.1,3.2,0.1s2.4-0.3,2.6-0.3c0.2-0.1,1,0,1.7,0.2s1.1,0.5,1.8,0.8c0.7,0.3,1.5,0.8,1.7,0.8
		l0.4,0.1l0.2-0.2l0.1-0.2l-0.1-0.2l-0.3-0.2l-0.6-0.4c0,0-0.9-0.5-1.7-1.3c-0.8-0.8-1.5-1.7-2.7-2.1s-2.6-0.6-2.6-0.6l-1.4-0.1
		l-0.6-0.1c0,0-1-0.3-0.2-0.5s1.2-0.3,1.4-0.3c0.1-0.1,1.5-0.2,2.3,0.1c0.8,0.3,2.1,1,2.2,1c0.1,0.1,1.3,1,2.6,1.3
		c1.3,0.3,3,0.4,3,0.4l0.8-0.2l0.4-0.1l0.3-0.2l-0.1-0.5c0,0,0-0.4-0.6-0.5s-1.8-0.3-2.9-1.1c-1.1-0.8-1.9-1.6-1.9-1.6
		s-0.8-0.7-2.4-1.1c-1.5-0.4-2-0.4-2-0.4l-0.5-0.2l-1.1-0.5c0,0-0.5-0.3-0.9-0.8s-1-1.4,0.7-0.9c1.7,0.5,2.1,0.8,2.1,0.8
		s0.9,0.9,1.7,1c0.5,0.1,0.9,0.2,1.2-0.2c0.5-0.5-0.9-1.1-1.9-1.8c-0.8-0.5-1.6-1.8-1.6-1.8s-0.6-0.5,0.3-0.3s2.5,1.2,2.5,1.2
		s0.8,0.4,1.2,0.5c0.3,0.1,1.1,0.6,1.5,0.8c0.3,0.1,1.2,0.3,1.8,0.6c0.8,0.5,1.2,1.3,1.6,1.6c0.4,0.3,0.7,0.8,1.2,0.9
		s0.6,0.3,0.9,0.1c0.3-0.2,0.4-0.3,0.4-0.3s0.1-0.2-0.4-0.5s-1.1-1.1-1.1-1.1l-0.2-0.4l-0.1-0.4l-0.5-0.8l-0.9-1.3
		c0,0-1.4-1.9-2.7-2.6c-1.2-0.7-2.1-1.1-2.1-1.1s-0.6-0.3-0.9-0.5c-0.5-0.4-0.7-0.7-1.1-1.2c-0.5-0.6-0.7-1-1.3-1.6
		c-1.1-1.1-4.5-1.7-3.2-2.5c0.7-0.4,1.6-0.2,2-0.1c0.4,0.1,1.3,0.5,2.2,0.8c0.6,0.2,1,0.2,1.6,0.4s1.3,0.3,1.6,0.5
		c0.3,0.2,0.6,0.6,0.8,0.7c0.1,0.1,0.9,1.4,2.3,2.1s2.1,1.2,3.5,1.3c1.1,0.1,2.9-0.3,2.9-0.3s0.5-0.2,0.1-0.7
		c-0.5-0.5-0.5-0.6-0.9-0.7c-1.6-0.6-2.9-0.4-4.1-1.6c-0.5-0.5-0.7-0.6-1.1-1.4c-0.4-0.8-0.2-1-0.5-1.5c-0.2-0.5-0.7-1.2-0.7-1.2
		s-1.5-1.8-3.1-2.7c-1.7-0.9-2.9-1.8-3.1-2c-0.3-0.2-0.9-1-0.9-1l-0.5-0.8l-0.3-0.6c-0.2-1.1,1.8,0.3,2.9,0.7c1.8,0.6,2.7,1.4,4.5,2
		c1,0.3,1.6,0.3,2.6,0.7c1.7,0.7,2.2,2.4,4,2.6c1,0.1,3,0.5,2.6-0.4c-0.4-1-2.4-1-3.4-2.2c-0.5-0.5-0.5-1-1-1.5
		c-0.8-1-2.7-1.9-2.7-1.9s-0.6-0.5-1.3-1.9c-0.6-1.4-2.1-2.4-4.8-3.7c-1.8-0.9-5.4-1.1-4-2c0.8-0.6,1.5-0.5,2.6-0.2
		c1.1,0.4,1.5,0.9,2.4,1.3c0.9,0.4,1.3,0.5,1.5,0.6s0.9,0.4,1.2,0.4c0.2,0.1,1.7,0.3,2.1,0.4l2,0.5l1.6,0.6c0,0,0.8,0.3,1.3,0.3
		s1.3-0.2,1.3-0.2l0.6-0.4l0.1-0.2c0,0,0.3-0.5-0.5-0.6c-0.7-0.1-1.1-0.1-1.2-0.1l-0.7-0.2l-0.3-0.1c0,0-1.4-1.1-2.6-1.6
		c-1.3-0.5-1.5-0.6-1.5-0.6l-0.5-0.1l-0.6-0.1c0,0-0.5,0-1.3-0.7s-1.1-1.1-1.8-1.8l-0.9-0.9c0,0-0.8-0.6-0.8-1.1
		c0.1-0.8,1.8,0.9,1.8,0.9l1.2,0.8c0,0,1,0.7,2.8,0.8s4-0.5,4-0.5s0.3-0.2,1.3,0.1s1.8,0.9,1.8,0.9l0.8,0.7l1.2,1.3l0.2-0.1
		c0.1-0.1,0.6-0.6-0.3-1.7c-0.9-1.1-2.4-2.1-2.4-2.1s-2-1.2-4-1.6c-2-0.4-2.9-0.4-2.9-0.4s-1.5,0-2.4-1s-1.5-2-1.5-2l-0.3-1.4
		c0,0-0.5-0.6-1.5-1c-0.9-0.4-1.9-1-1.9-1s-1.5-0.5-1.6-1.2c-0.3-1.3,2.5,0,4,0.3c1.4,0.3,2,0.8,3.4,1.1c1.2,0.3,1.9,0.4,3.2,0.3
		c0.7,0,1.1-0.1,1.8-0.2c0.7,0,1.2-0.1,1.9,0c1,0.2,1.4,0.7,2.4,1.1c0.6,0.3,0.9,0.6,1.6,0.7c0.6,0.1,1.8,0.5,1.6-0.1l-0.3-0.4
		c-0.5-0.7-1.1-0.7-1.7-1.2c-1.3-1-1.9-1.8-3.4-2.5c-1-0.5-1.6-0.7-2.7-0.9c-0.8-0.1-1.4,0.1-2.2-0.1c-0.9-0.3-1.2-0.7-2.1-1.2
		c-1.4-0.8-2.2-1.5-3.7-2.1c-1-0.4-2.7-0.8-2.7-0.8l-0.7-0.1l-0.3-0.1c-1.4-0.5,2.5-1.6,4.3-2.1c0.9-0.2,1.3-0.4,2.2-0.3
		c0.8,0.1,1.7,1.2,2.6,0.7c1.3-0.7-1.5-2.6-2.4-2.9c-1.2-0.5-3.3-0.1-3.3-0.1l-4.6-0.1l-1.3-0.2c0,0-0.8,0-1.4-0.7s-2.9-3.5-5.5-3.9
		c-2.7-0.4-3.5,0-3.7-0.2c-2.3-3.6-4.7-4.4-6.5-6.1C83.4,1,82.6-0.1,82.4,0s-0.5,1.6-1,2.9c-0.6,1.5-0.2,2.2,0.1,2.8
		c0.4,0.6,0.9,1-0.1,1.6s-2.3,0.4-2.3,0.4S78,7.5,77.1,7c-0.9-0.4-2.8-1.2-2.8-1.2s-1.8-0.5-3-0.4S70,5.6,69.1,5.7
		c-0.5,0-0.7,0-1.2,0.1C67.5,5.9,67,5.6,67,6.1s1,0.5,1.7,0.8s2.3,0.3,2,0.7c-0.4,0.4-1.9,0.5-2,0.4c-0.1,0-1.1-0.2-1.9-0.2
		c-1.3,0.1-1.4,0.1-3.3,1c-0.3,0.1-0.2,0.8,0.4,0.6C64.6,9.2,65.6,9,66.7,9c1.2,0,1.9,0.4,3.1,0.7c1,0.3,1.1,0.5,2.6,0.7
		c0.3,0,0.9-0.2,0.9,0.2c0,0.2-0.4,0.5-0.4,0.5s-0.9,0.2-0.8,0.5c0.2,0.4,1,0,1.4,0s1,0.1,0.9,0.5l-0.2,0.3
		c-1.1,0.3-1.7,0.5-2.7,0.9c-2.5,1-3.5,2.2-5.9,3.4c-2.3,1.1-6,2.5-6,2.5s-1.1,0.6-2.7,1s-1.7,0.3-2.8,0.5c-1.1,0.1-1.6,0.3-2.5,0.8
		c-0.6,0.3-0.9,0.6-1.4,1.1l-1.4,2.1L48,25.9c-0.2,0.4-0.4,0.6-0.5,1c-0.2,0.5-0.3,0.7-0.4,1.2c-0.3,1.2,0,1.9,0.2,3.1
		c0.1,0.3,0.1,0.5,0.2,0.8c0.1,0.3,0.5,0.6,0.5,0.6l0.4,0.1c0,0,1.4-0.1,2.3-0.3c0.9-0.2,2.2-0.5,2.2-0.5l1.7-0.5l1.1-0.4
		c0,0,0.7,0,0.8,0.4c0.1,0.3-0.2,0.8-0.2,0.8s-0.6,0.3-1.1,0.5s-1.7,0.5-1.8,0.6l-1.3,0.4L51,33.8c0,0-0.2,0.1-0.4,0.4
		c-0.2,0.3-0.2,0.3-0.2,0.5c0.2,0.2,0.3,0.4,0.5,0.6c0.4,0.3,0.6,0.5,1.1,0.6c0.7,0.3,1.1,0.2,1.8,0.2c1,0,1.6-0.2,2.5-0.6
		c0.8-0.5,1.1-0.5,2.2-0.9c0.3-0.1,0.9-0.2,1.1-0.2c1.9-0.2,3,0.1,4.9,0.4c1.9,0.3,2.8,0.9,4.7,1.2c2,0.3,3.2,0.9,5.3,0.4
		c1-0.2,1.6-0.7,2.1,0.3c0.5,0.9,0.4,1.4,0.4,1.4s0,0.6-0.7,2.5s-2.9,6.6-2.9,6.6l-1.5,3c0,0-1.2,2.4-4,5.5s-3,3.3-3,3.3
		s-1.5,1.1-3,3s-1.5,2.6-2.9,4c-0.9,0.9-1.4,1.4-2.5,2.1s-2.4,0.5-5.9,2.9c-3,2.1-4.6,3.8-4.8,3.7c-0.2-0.1-1.2-0.9-1.6-1.1
		c-0.3-0.2-6.1-4.1-6.1-4.1l-2.4-1.6l-1.1-0.7l-0.2-0.4L33.8,66c0,0-0.9-1.1-2-2c-1.1-1-2.3-1.8-4.1-2.2c-1.7-0.5-2.8-0.8-4.5-0.2
		c-1.1,0.4-1.7,0.8-2.5,1.6c-1,1-1.2,1.8-2,3s-1.6,2.3-2,2.9s-1.2,2.2-1.2,2.2s-2,3.2-3.1,5.3c-1.3,2.3-1.8,3.7-3,5.9
		c-1.9,3.5-4.6,7.1-5.3,8.7S3.3,93,3.3,93S3.1,93.9,3,94.5s-0.1,1.6-0.2,2c-0.1,0.5-0.4,1-0.5,1.1s-1.2,2.4-1.6,3.9
		s-1.3,6.2-0.2,6.8c1.1,0.6,9.2-2.9,10.3-6.3c0.7-2.2-2.2-3.3-1.4-5.3c0.3-0.7,0.5-0.8,1-1.5c0.8-1.3,0.5-4,2-6.5
		c1.1-1.8,3.3-4.1,6.3-7.5c1.9-2.1,3.7-5.5,3.7-5.5s0.4-1.2,1.2-1c0.9,0.2,1.7,0.1,1.7,0.1l0.4,0.3l0.8,0.8l1.2,1.8
		c0,0,2,2.9,2.7,3.7c0.7,0.8,1.4,1.4,2.4,2.2c1.1,1,1.5,1.5,2.9,2.6c2,1.6,1.3,2.2-1.3,0.8c-0.9-0.5-2.3-1-3.4-1.3
		c-1.2-0.3-5.7-1.5-8-1.8c-2.2-0.3-2.6-0.2-2.6-0.2s-1.1-0.1-2.4,0.7c-1.3,0.8-2,1.4-2,1.4s-1.5,1.7-1.6,2s-0.8,1.5-0.8,1.5
		s-0.4,0.6-0.5,1.3C12.9,91.3,13,92,13,92l0.1,1.5l0.1,1.4c0,0,0.3,3.5,1,7c0.2,1,0.4,2.6,0.4,2.6l0.5,3.6c0,0,0.3,3.8,0.6,5.1
		c0.3,1.2,0.5,1.3,0.7,2.1c0.4,1.5-0.3,2.2,0.4,4s1.3,1.6,2,2.7c0.5,0.8,0.7,1,1.1,2s1.7,4.3,3.2,6.7c1.6,2.5,3.7,5.6,5.1,5.3
		s2.4-2.5,2.4-2.5s1.6-4.3,0.6-8.5c-1-4.3-5.6-2.3-6.2-5.4c-0.1-0.7,0-1.8,0-1.8s-0.1-1.3-0.3-1.7c-0.2-0.4-1.8-3.4-2.4-5.9
		c-0.5-1.9-0.4-8-0.8-9.7c-1.1-4.4-1.2-4-0.6-4.8c0.7-0.8,1.3-0.6,1.3-0.6l0.9,0.1l0.7,0.3c0,0,0.8,0.5,1.3,0.8
		c0.4,0.3,1.8,1.4,1.8,1.4l3.4,2.2c0,0,1.9,1.1,2.7,1.5s1.5,0.9,1.5,0.9l0.9,0.6l1.5,1.1l0.3,0.3l0.2,0.4c0,0,0.7,1.6,3.7,3.3
		c2.4,1.4,4.5,1,5.4,2.1c0.2,0.2,1.9,2.5,2.7,3.9c1,1.6,2.2,3.5,2.6,4.1s2.9,3.7,2.9,3.7l3.3,3.6l4.3,4l3.9,3.3l2.5,2
		c0,0,2.2,2.1,4.7,3.8c2.4,1.6,2.5,1.8,4.1,2.9c1.2,0.8,2.8,1.9,4.4,3.1c1.6,1.3,3.4,3.7,2.7,4.5c-0.5,0.3-1.4-1-3.1-2.5
		c-1.4-1.2-2.1-1.8-3.5-2.8c-1.8-1.4-2.7-2.1-4.7-3.3c-1-0.6-2.8-1.7-2.9-1.5c-0.7,2.1-0.6,4.1-0.5,6.7c0.1,1.8,0.4,3.6,1,5.9
		c0.5,2.2,1,3.4,1.8,5.5s2.3,5.4,2.3,5.4l2.3,4.6l2.1,3.5l1.1,1.8l0.4,0.6c0,0,0.5,1.2,0,2s-1.1,2.5-2,2.6c-0.9,0.2-3,0.3-3,0.3
		L64,177.6l-6.2-0.5c0,0-0.7-0.4-4.3-0.4c-2.1,0-3.8,0.9-5,1c-1,0.1-5.9-0.3-9.2,1c-3.1,1.3-4.5,1.6-5.6,3.6
		c-0.8,1.5,3.9,3.9,7.8,4.8c6.3,1.4,4.5-1.3,6.9-3c0.3-0.2,0.4-0.4,0.7-0.5c1.6-0.5,2.5,0.8,4.1,0.8c1.8,0,2.8-0.6,4.6-0.9
		c9.1-1.2,23.3,3.1,23.3,3.1s3.5,1.1,5.1,0.8c1.9-0.4,1.5-1.1,2.1-2.2c0.5-0.9,0.3-1.1,0.4-2.1c0-0.6-0.1-0.9-0.2-1.5
		c-0.4-1.7-1.5-4.1-1.5-4.1s-0.8-1.8-1.1-2.7c-0.4-1.3-0.8-2.1-1-3.5c-0.6-3.7-0.5-3.4-0.5-5.5c0-3.8,0.4-5.9,1.4-9.6
		c1.5-5.4,4.3-7.7,6.4-12.9c0.6-1.4,0.6-3.4,1.3-3.6c0.8-0.1,0.7,2.5,0.3,4c-1.3,5.2-4.5,7.4-6,12.7c-1.1,4.1-1.7,6.5-1.4,10.7
		c0.1,2.3,1,5.9,1,5.9s1.2,4,1.8,5.5c0.6,1.5,1.8,4,1.8,4l2.7,4.8l1.4,2.3c0,0,1,0.9,0.5,2.4s-1.5,2.4-2.7,3.7
		c-3.4,4-11.3,9.9-13.3,11.3c-2.8,2.1-2.7,2.7-2.9,3.3c-1.1,3.2-4.3,3.3-7.8,7.1c-0.8,0.8-2.9,3-2.5,4.9c0.2,0.7,8.8,2.2,13.8,0.1
		c3.9-1.7,0.5-3.6,1.6-5.5c0.8-1.4,2.8-1.4,3.7-2.6c1.5-2,0.5-1.9,1.8-3.5c4.3-5.2,7.1-8.2,14.8-12.9c0.7-0.4,2-1,2-1
		s1.1-0.5,1.5-1.1c0.5-0.8,0.4-1.5,0.4-2.4c0-0.6-0.1-0.9-0.1-1.5c0-0.7,0.1-1.1-0.1-1.8c-0.2-1.1-0.9-2-1.3-2.6
		c-0.4-0.5-1.1-1.4-1.5-3.3c-0.5-1.9-0.5-3.5,0.3-5.6s2.6-3.8,2.6-3.8l4.5-3c0,0,3.9-2.8,5.1-3.9c1.3-1.1,3.8-3.4,5.6-6
		c2.1-2.9,3.2-4.7,4.1-8.2c0.3-1.3,0.6-3.3,0.6-3.3s0-1.4,0.8-1.5c0.8-0.1,1,0.2,1,0.2s0.7,0.4,0.9,2.4c0.1,2-0.5,4.3-0.5,4.3
		s-0.6,2.3-0.8,3.7c-0.1,0.9-0.1,1.4-0.1,2.4c0,1.7,0.7,3.1,0.7,3.1s0.4,0.3,0.4-0.4c0-0.8,0.2-2,0.5-3.2c0.3-1,0.5-0.8,1.1-2.5
		c0.8-2.2,0.1-2,0.5-3.3c0.2-0.6,0.7-1.2,1.3-1.2s0.7,0.8,0.7,0.8s0.6,2.6,0.1,5s-2.3,5.7-2.3,5.7l-1.4,2.4c0,0-1,1.7-1.4,2.8
		c-0.4,1.2-0.5,1.7-0.3,2.8c0.3,1.2,1.2,2.8,1.7,2.5c0.4-0.3-0.6-1.3,0.6-3.7c1.2-2.4,2.8-3.9,2.8-3.9s2.2-2.6,3.2-4.6
		c0.9-1.8,1.8-4.7,1.8-4.7s0.7-2.6,0.5-4.8c-0.1-2.1-0.5-3.2-0.5-3.2l-0.9-1.6l-0.5-1.2l0.2-0.7c0.2-0.1,0.9,0.4,1.5,1.2
		s1.2,1.8,1.5,3.2c0.3,1,0.4,1.9,0.4,2.8c0,0.8-0.3,4.1,0.9,6.2c0.5,1,1.7,3.3,1.8,2.3c0.2-2.3-0.8-3.4-0.7-5.5
		c0.1-2.4,0.7-1.8,0.9-3c0.2-1.3,0.5-1.6,0.3-3.3c-0.2-1.6-0.9-3.7-0.9-3.7l-0.7-1.6l-0.3-0.6c0,0,0.2-0.3,0.5-0.3l2.4-0.8
		c0,0,3.1-1.4,4.3-2.4c1.3-0.9,2.8-2.5,2.8-2.5s2-2.5,3-4.3c2.4-4.5,2.4-10.2,2.3-12.8c-0.1-2.5-0.8-5.8-0.8-5.8s-0.8-4-0.6-6.6
		s0.4-3.8,0.4-3.8s-0.1-2.6,2.1-5.4c2.2-2.8,3.2-4.6,3.6-6.7C161,92.8,160.4,89.9,159.6,91L159.6,91z M93.4,73
		c-0.3,0-0.7-0.4-0.7-0.4s-0.1-0.1,0.2-0.3c0.3-0.2,0.7-0.1,0.7-0.1l0.3,0.1l0.5,0.7C94.3,73.3,93.7,73.1,93.4,73z M94.6,69.7
		c-0.3-0.1-0.8-0.4-0.8-0.4s-0.1-0.2,0.2-0.4c0.3-0.2,0.8-0.1,0.8-0.1l0.3,0.2c0.1,0.1,0.6,0.6,0.6,0.8C95.7,70.1,95,69.8,94.6,69.7
		z M95.7,66.3c-0.4-0.1-1-0.5-1-0.5s-0.1-0.2,0.3-0.4s1-0.1,1-0.1l0.4,0.2c0.2,0.2,0.7,0.7,0.7,1C97,66.8,96.1,66.4,95.7,66.3z
		 M96.6,63.2c-0.4-0.1-1-0.5-1-0.5s-0.1-0.2,0.3-0.4s1-0.1,1-0.1l0.4,0.2c0.2,0.2,0.7,0.7,0.7,1C97.9,63.6,97,63.2,96.6,63.2z
		 M97.5,59.5c-0.5-0.1-1.1-0.6-1.1-0.6s-0.1-0.2,0.3-0.5s1.1-0.1,1.1-0.1l0.4,0.2c0.2,0.2,0.8,0.8,0.8,1.1
		C99,60,97.9,59.5,97.5,59.5z M98.1,55.5c-0.6-0.1-1.4-0.7-1.4-0.7s-0.2-0.3,0.4-0.6c0.5-0.3,1.3-0.2,1.3-0.2l0.5,0.3
		c0.2,0.2,0.9,1,1,1.4C99.9,56.1,98.7,55.6,98.1,55.5z M98.5,51.5c-0.7-0.1-1.7-0.9-1.7-0.9s-0.2-0.3,0.4-0.7s1.6-0.2,1.6-0.2
		s0.3,0.1,0.6,0.3c0.3,0.3,1.1,1.2,1.2,1.7S99.2,51.6,98.5,51.5z M99.1,46.9c-0.8-0.1-1.9-1-1.9-1s-0.2-0.4,0.5-0.8
		c0.7-0.5,1.8-0.2,1.8-0.2s0.4,0.1,0.7,0.4c0.3,0.3,1.3,1.4,1.4,1.9C101.6,47.8,99.9,47,99.1,46.9z M98.7,28.3
		c-0.6-0.1-1.4-0.7-1.4-0.7s-0.2-0.2,0.4-0.5s1.4-0.1,1.4-0.1s0.3,0.1,0.5,0.3c0.2,0.2,1,0.9,1,1.3C100.6,28.9,99.3,28.4,98.7,28.3z
		 M100.9,32.8c0.1,0.4-1.3-0.1-2-0.2c-0.6-0.1-1.5-0.8-1.5-0.8s-0.2-0.3,0.4-0.6c0.6-0.4,1.4-0.2,1.4-0.2s0.3,0.1,0.6,0.3
		C100.1,31.6,100.8,32.4,100.9,32.8z M98,40.2c0.6-0.4,1.6-0.2,1.6-0.2s0.3,0.1,0.6,0.3c0.3,0.3,1.1,1.2,1.2,1.7s-1.4-0.1-2.1-0.3
		c-0.7-0.1-1.7-0.9-1.7-0.9S97.4,40.6,98,40.2z M99.3,36.8c-0.7-0.1-1.7-0.9-1.7-0.9s-0.2-0.3,0.4-0.7s1.6-0.2,1.6-0.2
		s0.3,0.1,0.6,0.3c0.3,0.3,1.1,1.2,1.2,1.7C101.5,37.6,100,37,99.3,36.8z M100.6,21.8c0.8,0.2,1,0.7,0.6,0.7
		c-0.4,0.1-0.6,0.1-0.9,0.1c-0.9,0-0.8-0.4-2,0.2s-0.3,0.3-2,0.9c-1.6,0.6-1.2-1-1.2-1s0.1-0.3,0.3-1.1s1.2,0,1.9,0
		C98.6,21.6,99.7,21.6,100.6,21.8z M96.1,15.6l0.5,0.3c0.2,0.2,0.9,1,1,1.4s-1.2-0.1-1.7-0.2c-0.6-0.1-1.4-0.7-1.4-0.7
		s-0.2-0.3,0.4-0.6C95.4,15.4,96.1,15.6,96.1,15.6z M92.5,10.8c0.5-0.3,1.3-0.2,1.3-0.2l0.5,0.3c0.2,0.2,0.9,1,1,1.4
		s-1.2-0.1-1.7-0.2c-0.6-0.1-1.4-0.7-1.4-0.7S92,11.1,92.5,10.8z M91.5,75.6c0.3-0.2,0.7-0.1,0.7-0.1l0.3,0.1l0.5,0.7
		c0,0.2-0.6-0.1-0.9-0.1s-0.7-0.4-0.7-0.4S91.2,75.7,91.5,75.6z M51.4,28c-0.3,0.2-0.5,0.3-0.9,0.6c-0.5,0.4-1,1.4-1.3,1.1
		c-0.4-0.3-0.2-1.4-0.2-1.4s0.3-0.8,0.7-1.6c0.5-0.8,1.1-0.8,1.1-0.8c0.6,0,1.7,0.4,1.7,1.3C52.6,28.1,51.9,27.7,51.4,28z
		 M59.6,31.1c0,0-0.4,0.1-0.5-0.6s0.5-0.8,0.5-0.8s1.2-0.6,1.2,0.2C60.9,30.6,59.6,31.1,59.6,31.1z M70.3,17.5c0,0-1.3,2.1-3.1,2.9
		c-1.8,0.8-3,1.2-6.4,1.5c-0.5,0-0.3-0.3-0.3-0.3s3.9-1.1,6.1-2.3c1.2-0.7,2.6-1.6,3-2C71,16.1,70.3,17.5,70.3,17.5z M3.1,104.1
		c0,0.5-0.6,1.4-0.8,1.4c-0.2,0-0.6-0.9-0.5-1.4s0.2-1.9,1-1.7C3.4,102.5,3.1,103.6,3.1,104.1z M5.7,92.8c0,0-0.9,1.9-1.2,1.1
		c-0.3-0.7,0.3-2,0.3-2c0.8-0.7,1.1-1.7,1.5-1.3C6.6,91,5.7,92.8,5.7,92.8z M18.1,73.3c-0.9,1-3.7,6.3-4.3,5.4
		C13.2,78,16.5,73,17.2,72c0.7-1.1,1.3-0.9,1.3-0.9l0.2,0.2C18.6,71.3,19,72.3,18.1,73.3z M25.6,65.4c0,0-2,0.4-1.7-0.3
		c0.4-0.7,1.8-1,1.8-1c1.1,0.2,1.3,0.3,1.2,0.8C27,65.4,25.6,65.4,25.6,65.4z M33.7,79.4c-0.9,0.9-1.2-0.3-2.5-1.8
		c-1.3-1.4-1-2.6-1-2.6h0.2l0.2,0.1l0.5,0.2l0.3,0.3l1,1C32.8,77.2,33.9,79.2,33.7,79.4z M18.2,109.3c-0.3,0-0.6-0.6-0.6-0.6
		s-0.8-1.2-1.1-2.1c-0.3-0.8-0.4-2.1-0.4-2.1s-0.2-1.7-0.2-2.3c0.1-0.8,0.1-1.5,0.2-1.9s0.5-0.3,0.5-0.3c0.6,0,0.6,0.5,0.6,0.5v0.3
		c0,0,0,1.8,0.1,3.2c0,0.4,1.1,4.9,1.1,4.9S18.6,109.3,18.2,109.3z M18,88.3c-0.7,1.1-1.2,1.1-1.2,1.1c0-0.1-0.2-0.5,0.4-1.7
		s1.2-1.1,1.2-1.1l0.2,0.2C18.6,86.8,18.7,87.2,18,88.3z M25.1,130.2c0.2-0.4,1.5,0.6,1.5,0.6c0.5,0.1,1,1,1,1s0.2,0.7-0.4,0.9
		c-0.6,0.3-1-0.3-1-0.3S24.9,130.6,25.1,130.2z M34.5,99.6c-1.4-0.3-4.4-2.6-5.6-3.2s-3.2-0.8-2.3-1.6c0.1-0.1,0.2-0.3,0.4-0.3
		s1.1,0.3,1.1,0.3l2.2,0.9c0.1,0,1.2,0.5,2.1,1c0.8,0.5,2.2,1.4,2.2,1.4l0.6,0.5C35.2,98.8,35.9,99.9,34.5,99.6z M46.7,79.7
		c0,0-1.7,2.3-2.7,3.7c-1.3,1.9-2.9,4.8-3.2,4.5s1.4-3.5,2.3-5.2c1-2.1,2.5-3.2,3.1-3.4C47.5,78.7,46.7,79.7,46.7,79.7z M41.3,179.8
		c0,0,0,0.4-0.7,0.9s-1,0.2-1.1,0.2s-0.8-0.4-0.8-0.8c0.1-0.4,1.2-0.7,1.2-0.7C41.8,179.3,41.3,179.8,41.3,179.8L41.3,179.8z
		 M56.8,179.2c-0.7-0.1-0.8-0.3-0.7-0.4c0-0.1,0.2-0.3,1-0.3s0.8,0.4,0.8,0.4C57.9,179.2,57.6,179.3,56.8,179.2z M74.6,180.2
		c-1.5,0.4-2.1,0.2-3.4,0.3c-1.1,0.1-1.6,0.2-2.7,0.2c-1.9,0-2.1,0.1-4.8-0.7c-0.5-0.2-1.1-0.8-0.9-1c0.2-0.3,0.6-0.2,0.6-0.2
		s3.4,0.6,5.6,0.7c1.6,0.1,2.4,0.2,4,0.1c0.9,0,0.4-0.1,1.8-0.1C75.3,179.4,75,180.1,74.6,180.2z M84.1,177.4
		c-0.1,0.1-0.7,0.3-1.2,0.4c-0.6,0.1-0.3-0.4-0.3-0.4s0.4-0.6,0.9-0.9c0.6-0.3,0.9,0,0.9,0C84.6,176.9,84.2,177.3,84.1,177.4z
		 M91.5,158.2c-0.7,1.5-0.9,2-1,3.4c-0.2,1.5,0.7,5.7-0.7,4.1c-0.5-0.7-1-4-0.6-5.6C89.9,156.5,92.8,155.5,91.5,158.2z M71.3,219.3
		c-0.6,0.4,0.6,1.6-1.3,1.5c-1.1-0.1-0.5-1.1-0.4-1.2l0.7-1c0.5-0.7,0.8-0.8,1.3-1.1s0.9,0.5,0.9,0.5s0.2,0.3,0.2,0.7
		C72.7,219,71.8,218.9,71.3,219.3z M81.8,209.2l-0.9,0.7c-0.1,0-0.7,0.5-0.9,0.2c-0.2-0.3,0.1-0.7,0.1-0.8s0.6-0.8,1.1-1
		c0.5-0.3,0.8,0,0.8,0C82.3,209,81.8,209.2,81.8,209.2L81.8,209.2z M86.5,34c0,0-0.4,1.3-1.2,1.6c-1,0.3-4.8,0.4-4.9,0.1
		c-0.1-0.3,4.4-0.7,6.1-2.4C86.9,32.9,86.5,34,86.5,34z M85.1,30.7c0.3-0.5,0.1,0.8,0.1,0.8s-0.3,1.3-1,1.7
		c-0.9,0.5-3.1,1.1-3.3,0.8C80.9,33.8,83.8,32.9,85.1,30.7z M78.9,15.7c0,0,0.4,0,1,0.3c0.6,0.4,1,1.6,1,1.6s0.1,0.2-0.4,0.2
		c-0.3,0-0.3-0.5-0.6-0.7c-0.4-0.3-0.7-0.4-1.2-0.6s-1.2,0.1-1.3-0.4C77.4,15.5,78.9,15.7,78.9,15.7z M74.3,19c0,0,0.2-0.6,1.1-1.1
		c0.8-0.5,1.9-0.5,1.9-0.5s0.6,0,1.3,0.5c0.7,0.5,1.3,2.2,1.3,2.2s0.2,1.1-0.3,1.5s-1.3-0.3-1.7-0.9c-0.5-0.6-0.8-0.8-1.5-1
		c-0.8-0.3-2,0.6-2.2,0C74.2,19.5,74.3,19,74.3,19z M74,32.8c-0.6,0.1-0.2-0.5-0.2-0.5s1.7-0.7,2.8-1.3c1.8-0.9,5.2-4.5,4.3-2.8
		C80.5,29,79.3,30,79.3,30s-1.4,2-1.7,2.3C76.3,33.3,74.7,32.7,74,32.8L74,32.8z M59.9,71.6l0.1-0.2c0,0,3-2,7.7-1.4
		c2.8,0.4,5.5,2.9,5.1,3.2c-0.4,0.3-1,0-1.2,0l-1-0.5l-1.5-0.4c0,0-2.7-0.6-4.7-0.5s-3.8,0.8-3.8,0.8s-0.8,0.4-1-0.1
		C59.5,71.9,59.9,71.6,59.9,71.6z M67.3,127.9c-6.9-5.3-15.3-16.1-14.3-17.1c0.9-0.8,4.3,4.2,9.4,9.7c5.4,5.8,11.7,11.3,11.9,12
		C74.7,133.7,69.9,129.9,67.3,127.9L67.3,127.9z M83,53.2c-2.9,5-6.9,8.8-6.9,8.8c-1.4,1-0.5-0.8-0.5-0.8s3.9-5.4,5.7-9.2
		c1.3-2.7,2.1-6.3,2.7-7C85.4,43.3,84.7,50.2,83,53.2z M91,108c-3-3.6-5.2-7.5-5.9-12.4c-0.2-1.1-0.2-2.7,0.8-2.5
		c0.9,0.1,0.8,1.8,0.8,2.2c0.3,2.9,1.5,5.8,3.7,9.3c3.1,4.9,8.1,8.7,7.9,9C97.8,114.1,92.8,110.2,91,108z M91.9,201.5
		c-1.7,1.6-4.6,3.8-4.6,3.8h-0.4v-0.5l0.1-0.2l0.2-0.3l0.2-0.3l0.2-0.3l0.6-0.7l1.4-1.3l1.4-1.3l2.2-2.2c0,0,0.8-0.9,1.1-1.1
		c0.3-0.2,0.5-0.4,0.8-0.6c0.4-0.2,0.9-0.5,1.1-0.3v0.4C96.3,196.9,93.7,199.8,91.9,201.5L91.9,201.5z M98.1,127.5
		c-1.3,0.9-1.8,0.8-2.6,1.7c-0.9,1.1-1.2,4.8-2.1,3.3s-0.3-3.6,1.2-5.2C96.4,125.2,100.3,125.9,98.1,127.5z M102.8,193.3
		c0.6-0.2,0.9-0.1,0.9-0.1l0.2,0.4c0,0.1-0.8,1.2-1.2,1.2c-0.5-0.1-0.3-0.7-0.3-0.7S102.2,193.5,102.8,193.3L102.8,193.3z
		 M119.9,152.6c-0.9-0.6,0.5-2.4,0.5-3.9c0-1.2-0.2-2.1-0.2-3.1s1-1.3,1-1.3c0.2,0,0.6,0.2,1.1,1.2S121.5,153.6,119.9,152.6z
		 M150.5,124c-0.2,4.2-0.4,7.2-2.9,10.4c-3,3.9-8.2,7.9-7.1,4.7c0.7-1.9,5.3-4.3,7.1-9.6c1-3.2,1.2-6.2,1.2-6.2l-0.2-6.1
		c0,0-0.1-0.5-0.1-1.2c0.3-0.8,0.7-0.2,0.7-0.2l0.2,0.3C149.4,116.3,150.6,121,150.5,124z">
  </path>
 </g>
</svg>