<svg xmlns="http://www.w3.org/2000/svg" xmlns:xlink="http://www.w3.org/1999/xlink" viewBox="0,0,256,256" width="50px" height="50px" fill-rule="nonzero"><g fill="#FFFFFF" fill-rule="nonzero" stroke="none" stroke-width="1" stroke-linecap="butt" stroke-linejoin="miter" stroke-miterlimit="10" stroke-dasharray="" stroke-dashoffset="0" font-family="none" font-weight="none" font-size="none" text-anchor="none" style="mix-blend-mode: normal"><g transform="scale(5.12,5.12)"><path d="M39.61523,12.01367c-16.29363,0.47463 -38.10389,14.17963 -39.15039,14.84375c-0.417,0.265 -0.57886,0.79409 -0.38086,1.24609c0.197,0.452 0.69887,0.69141 1.17188,0.56641c19.348,-5.119 25.57181,-2.94761 27.38281,-0.22461c2.389,3.592 -1.69861,10.37745 -3.47461,12.68945c-0.296,0.387 -0.27145,0.93206 0.06055,1.28906c0.195,0.21 0.46142,0.31836 0.73242,0.31836c0.189,0 0.38278,-0.05406 0.55078,-0.16406c0.956,-0.629 23.40519,-15.52533 23.49219,-25.23633c0.022,-2.425 -1.22641,-3.94648 -3.81641,-4.64648c-2.02587,-0.54887 -4.2407,-0.74944 -6.56836,-0.68164z"></path></g></g></svg>