<?xml version="1.0" encoding="utf-8"?>
<!-- Generator: Adobe Illustrator 23.0.1, SVG Export Plug-In . SVG Version: 6.00 Build 0)  -->
<svg version="1.1" id="Livello_1" xmlns="http://www.w3.org/2000/svg" xmlns:xlink="http://www.w3.org/1999/xlink" x="0px" y="0px"
	 viewBox="0 0 454.4 500" enable-background="new 0 0 454.4 500" xml:space="preserve">
<g>
	<path d="M222.3,497.7c-65-30.2-121.5-79.8-159-139.5C25.8,298.5,6,229.1,1.2,139.7c-1.6-28.9-1.6-65,0-110.5l0.3-9.6l9.5-1.6
		C82.9,6.1,155.6,0,227.2,0c71.6,0,144.4,6.1,216.2,18.1l9.5,1.6l0.3,9.6c1.6,45.4,1.6,81.6,0,110.5
		c-4.9,89.4-24.6,158.8-62.1,218.5c-37.5,59.7-94,109.2-159,139.5l-4.9,2.3L222.3,497.7z"/>
	<g>
		<g>
			<path fill="#FFFFFF" d="M126.7,302.4c-1.4,0.3-2.1-0.5-2.3-1.4c-0.6-2.5-2-11.2-2.4-13.8c-0.2-1.4,0.2-2.2,1.5-2.6
				c6.2-2,16.6-5.5,25-8.5c2.2-0.8,2.8-1.6,4-3.6c3.5-5.6,12.1-20.8,16.2-28.7c0.6-1.1,0.5-2.5-0.1-3.5l-1.9-3.1
				c-0.6-1.1-2.1-2.2-3.3-2.5c-8.5-2.2-19.8-5-25.2-6.2c-1.2-0.3-2.4-0.2-3.6,0.1l-1,0.3c8.2,2.8,15.1,5.3,24,8.6
				c0.8,0.3,1.6,1.2,1.8,1.9l0.8,2.7c0.3,1.1,0.2,2.2-0.3,3.3c-3.7,7.3-10.2,17.1-15.4,23.3c-0.8,0.9-1.8,1.7-2.9,2.1
				c-5,1.9-14.1,4.9-18.1,5.9c-0.8,0.2-1.2,0.1-1.8-0.3c-2.9-2-8.9-7.6-8.9-7.6s-0.5,6.1-0.5,8.8c0,0.3,0.1,0.6,0.2,0.9
				c1,2.4,2.8,6.9,3.6,9.3c0.2,0.6,0.4,1.1,0.5,1.7c1,4,3.8,15.8,3.8,15.8c0.4,1.8,1.4,2.4,3,2.1c2-0.4,8.5-2.3,11.2-3.1
				c0.4-0.1,0.8-0.4,1.1-0.6c1.7-1.6,4.6-4.2,4.6-4.2S130.4,301.7,126.7,302.4z"/>
			<path fill="#FFFFFF" d="M141.4,266.3c3.3-4,7.7-10.4,11.4-16.5l-27.1,22.4c4.4-1.4,10.5-3.4,14.1-4.8
				C140.4,267.2,141,266.8,141.4,266.3z"/>
			<path fill="#FFFFFF" d="M142,176.1l-4.9,0.4c-0.4,0-0.7,0.3-0.7,0.7L136,183c0,0.3,0.2,0.5,0.5,0.5l4.9-1.1
				c0.6-0.1,1.3-0.7,1.5-1.2c0.6-1.4,0.8-3,0.1-4.4C142.9,176.3,142.5,176.1,142,176.1z"/>
			<path fill="#FFFFFF" d="M94.7,248.2l7.4,8.6l2.2-14.9C100,242.6,96.1,245.3,94.7,248.2z"/>
			<path fill="#FFFFFF" d="M335,246.6c-3-5.3-18-25.6-36.7-45.1c-0.7-0.7-1.5-1.3-2.4-1.7l-3.1-1.3c0,0,5.4,23.8,7.9,36.8
				c0.3,1.7,1.1,3.2,2.3,4.4c8.4,8.3,13.9,14.7,18.5,21.6c2,3,3.2,6.4,3.4,10c1.3,18.9,0.7,44.9-1.4,59.4c-0.4,2.9-1.1,4-3.1,5.5
				c-18.1,14.6-48.1,40.4-60.9,53.2c-1.4,1.3-1.9,1.9-2.7,3.2c-1.7,2.6-3.5,6.3-3.5,6.3s-3.1-9.4-3.7-14.5c-0.3-2.4-0.3-3,0-5.5
				c1.6-10.9,9.2-36.1,10.4-39.9c0.1-0.3,0.2-0.7,0.2-1v-2.4c-2.8,5.8-17,37.8-20,48.8c-0.6,2.3-0.5,3.2,0.1,5
				c1.8,5.3,7.2,18.4,9.7,23.8c0,0,5.8-10.9,9.2-16.5c0.9-1.5,2.1-2.9,3.4-4.2c10.1-9.4,46.5-39.7,63.5-52.5c2.3-1.7,3-2.9,3.6-5.3
				c6.9-26.2,9.8-56.4,6.4-84.9C336,248.7,335.6,247.7,335,246.6z"/>
			<path fill="#FFFFFF" d="M260.5,169.9c0.7-1.2,1-2.6,0.7-4c-0.6-3.3-1.4-7.2-2.1-10.1c-0.1-0.6-0.5-1-1-1.3l-5.1-2.5
				c-0.7-0.3-1.4-0.4-2.2-0.3c-12.4,2.2-25.4,4.8-35.2,7c-0.8,0.2-1.5,0.7-1.9,1.4l-3.1,5.3c-0.2,0.4,0,0.9,0.5,1
				c2.6,0.5,7.8,1.4,9.6,1.7c1.1,0.2,1.5,0.1,2.4-0.2c6.2-2.6,16.4-6.5,24-9.3c0.6-0.2,1.2-0.2,1.9,0l3.5,1.1c0.5,0.2,0.9,0.5,1.2,1
				c1,1.7,1.9,3.5,2.5,4.7c0.4,0.9,0.2,2-0.5,3.1c-2.6,3.7-7,9.6-10,13.3c-0.7,0.8-0.9,1.9-0.6,2.9c1.8,6.1,5.6,18.7,7.7,24.8
				c0.3,0.7,0.6,1.3,1.2,1.8l2.9,2.6c0,0-4.6-21.3-5.7-27.4c-0.2-1-0.1-1.9,0.4-2.7C254,180.2,258.4,173.6,260.5,169.9z"/>
			<path fill="#FFFFFF" d="M371,187.4c-0.4-1.6-0.9-2.3-2.2-3.3c-13.8-10.3-38.7-24.9-53.5-31.1c-1.9-0.8-4-0.8-6-0.1
				c-7.1,2.6-18.3,7.3-30.1,12.8c0,0,5.2,0.4,7.6,0.7c1.3,0.1,1.7,0.1,3-0.2c3.6-1,10-2.6,15-3.7c2.5-0.6,5,0,7,1.5
				c6.9,5.1,18,14.1,25.1,20c1.2,1,2.6,1.9,4.1,2.5c10.8,4.3,15.6,6.5,18,7.7c1.7,0.9,2.9,2.4,3.4,4.3c2.8,10.8,4.7,27.5,5.7,39.5
				c0.2,2.2-0.1,4.4-0.9,6.6c-3,8.6-10.6,22.9-14.8,29.7c-0.4,0.6-0.8,1.1-1.5,1.7c-1.5,1.3-4.1,3.4-6.1,4.9
				c-0.4,0.3-0.6,0.7-0.6,1.2c0,4.7-0.9,13.6-0.9,13.6c10.4-13,20.2-29.9,29-47.8c0.7-1.5,1-2.3,1.1-3.7
				C375.5,225,374.2,202.2,371,187.4z"/>
			<path fill="#FFFFFF" d="M233.2,420.2c-2.4-5.5-15.1-35.6-18.6-47.1c-1.2-4.1-1.4-5.2-0.9-9.8c2.9-28.3,13-73.3,14.6-79.4
				c0.3-1.3,0.3-1.7,0.1-3c-0.4-2.3-1.8-10.4-1.8-10.4c-4.6,10.6-21,54.6-27,80.5c-1.1,4.9-0.9,6.2,0.1,8.8
				c8.7,22.5,30.8,63.2,34.9,69.3l-0.9-7.1C233.6,421.4,233.4,420.8,233.2,420.2z"/>
			<path fill="#FFFFFF" d="M213.4,421.9c0,0-4.8-3.1-6.3-4.1c-1.5-1-2.1-1.5-2.8-2.1c-10.1-9.1-45.4-52.5-56-71.4
				c-1.8-3.2-2.3-4.7-2.1-7.8c0.2-3.6,0.9-10.7,1.6-14.8c0.4-2.6,1-4.3,3.2-6.2c6-5.4,15.7-15.2,20.8-20.3c2.2-2.3,3.3-3.7,4.5-5.9
				c4.6-8.7,18.8-39.5,23.6-52.2c0.8-2.2,0.9-2.9,0.6-5.2c-0.9-6.6-6.2-23.8-6.2-23.8l-0.5,5.7c0,0.4,0,0.8,0.1,1.2
				c0.4,2.5,2,12.3,2,17.4c0,1.7-0.1,2.4-1,4.2c-7.1,14-34.9,51.4-52.5,71.7c-2,2.3-2.5,3.8-3.1,6.4c-0.9,4.3-1.9,14-2.6,21.8
				c-0.4,4.2-0.1,5.6,2.6,10c10.6,17.6,46.7,59.9,58.5,69.6c0.8,0.6,1.6,1.2,2.5,1.7c4.1,2.2,15.5,7.8,15.5,7.8l-1.8-3.1
				C213.8,422.2,213.6,422.1,213.4,421.9z"/>
			<path fill="#FFFFFF" d="M161,170.3l22.4-7c1.3-0.4,2.4-1.3,3.1-2.5l12-20.6c0.3-0.5-0.1-1.1-0.6-1.1l-10.2,0.1
				c-0.9,0-2,0.2-2.9,0.5c-8.9,3-21.6,8.6-28.7,12.4c-0.8,0.4-1.6,1.1-2.1,1.8l-10.8,13.3c-0.4,0.4-0.8,0.8-1.3,1l-7,3
				c-0.3,0.1-0.6,0.4-0.8,0.7l-0.3,0.7c0,0,14.8-0.5,19.8-0.8C156.2,171.6,158.4,171.1,161,170.3z"/>
			<path fill="#FFFFFF" d="M202.1,121.8c28.2-2.1,60.7-1.5,68.6-1.3c1.2,0,2.3,0.2,3.5,0.6l5.8,1.9c-14.2,0.7-48.4,3.8-62.3,6.2
				l4.9,0.8c0.3,0.1,0.7,0.1,1,0c10.3-0.6,30.3-1.3,39.1-1.4c2.1,0,3.3,0.2,5.5,1c5.1,2,15.4,6.6,19.7,8.8c2.2,1.1,3.8,1.5,6.1,1.6
				c4.6,0.2,11.7,0.7,16.9,1.2c1.4,0.2,2.8,0.6,4.1,1.2c10.7,5.4,23.5,13.1,32.3,18.9c0.5,0.3,1.1,0.6,1.7,0.7l4.3,0.9
				c0,0-13.9-14.2-19.4-19c-0.8-0.7-1.6-1.3-2.6-1.8c-20.7-11.8-39.3-21.5-49.8-25.9c-1.7-0.7-3.5-1.1-5.3-1.3
				c-32-2.4-65.5-1.8-90.2,0.3c-1.8,0.2-3.2,1-4,2.2c-1,1.4-2.5,3.9-4,6.3c-0.7,1.1-1.6,2.2-2.6,3.1c-4.5,3.9-12,10.2-16.7,13.8
				c-0.4,0.3-0.6,0.5-0.9,0.7c-2,1.4-8.5,5.7-9.7,6.5c-0.5,0.3-0.6,0.4-0.9,0.8c-0.4,0.5-2.4,3-2.4,3c19.7-11.1,44.8-25,53.4-28.8
				C199.3,122.2,200.7,121.9,202.1,121.8z"/>
			<path fill="#FFFFFF" d="M110.1,184.3c-0.2,0.3-0.5,0.6-0.9,0.8c-17.5,12.5-27.4,20.5-31.3,23.8c-1.6,1.6-3.1,3.1-4.5,4.5
				c-1.2,1.3-1.5,1.8-1.6,2.8c-0.1,0.9-0.1,2-0.1,2.7c0,0.4,0.1,0.7,0.3,1c0.2,0.4,1.6,1.9,2,2.3c0.2,0.2,0.4,0.2,0.6,0.1
				c2.6-1.8,6.2-4.5,9.5-7c0.3-0.2,0.7-0.7,0.9-1c0.6-1,1.3-2.3,1.7-3.2c0.3-0.6,0.5-0.8,1.1-1.2c0.7-0.4,2.7-1.7,2.7-1.7
				s-1.5,6.1-2.6,8.3c-0.4,0.7-0.7,1.2-1,1.5c-2.6,2.7-7.3,7.9-9.6,10.8c-0.8,1-0.5,2.2,0.1,3.1c2.2,3.2,6.6,8.7,9.3,11.6
				c0.8,0.9,1.2,1.3,2,1.7c1.1,0.6,1.9,0.9,1.9,0.9s2.2-10.8,3.2-14.1c0.3-1.1,1-2,2.5-2.4c11.5-2.9,36.3-7,36.3-7
				c-2.6-3.1-11.3-12.1-14-14.4c-0.8-0.7-1.5-1-2.6-1.1c-3.2-0.4-13.7-1.1-13.7-1.1s0.9-1,1.6-1.7c0.6-0.6,1-0.9,1.8-1.2
				c12.9-4.5,30.1-11,40.1-15.2c2.2-0.9,3.2-1.6,5-3.4c0.8-0.8,2.3-2.5,3.2-3.5c0.2-0.2,0.3-0.4,0.3-0.6c0.1-0.3,0.1-0.9,0.1-0.9
				s-4.3,3.2-6,4.4c-1.6,1.1-2.6,1.6-4.4,2.1c-3.5,0.9-10.2,2.5-14.1,3.4c-1.1,0.2-1.6,0.3-2.6-0.1c-0.6-0.2-1.8-0.7-2.6-1
				c-0.8-0.4-1.1-0.4-2-0.2c-3.5,0.8-13.1,3.1-13.1,3.1s4.4-3.9,4.7-4.2c0.4-0.3,0.6-0.4,1.3-0.7c3.3-1.3,7.4-2.8,10.9-4.2
				c0.8-0.3,1.1-0.7,1.2-1.5c0.2-2.7,1-7.5,1.4-10c0.1-0.7,0.4-1.1,0.9-1.6c2-1.6,9.5-7.3,11.2-8.6c0.1-0.1,0.2-0.2,0.3-0.3l2-2.5
				c-5.3,3.1-14.8,8.7-19.6,11.8c-2.1,1.3-3.1,2-5.2,3.7c-0.2,0.2-0.4,0.4-0.6,0.6C117.2,175,112,181.8,110.1,184.3z"/>
		</g>
		<g>
			<g>
				<path fill="#FFFFFF" d="M102.2,86.5c0-10.1,0-20.2,0-30.2c12.8-1.1,25.7-2.1,38.6-2.9c0,1.6,0,3.3,0,4.9
					c-11.2,0.7-22.4,1.5-33.6,2.5c0,2.5,0,5,0,7.5c9.9-0.8,19.8-1.6,29.8-2.2c0,1.6,0,3.3,0,4.9c-9.9,0.6-19.8,1.4-29.8,2.2
					c0,2.6,0,5.3,0,7.9c11.2-1,22.4-1.8,33.6-2.5c0,1.6,0,3.3,0,4.9C127.9,84.4,115.1,85.3,102.2,86.5z"/>
			</g>
			<g>
				<path fill="#FFFFFF" d="M49.7,92.1c0-10.1,0-20.2,0-30.2c10.2-1.3,20.3-2.5,30.5-3.5c1.8-0.2,3.2-0.1,4.4,0.2
					c1.3,0.3,2.3,0.9,3.1,1.7c0.8,0.8,1.3,1.7,1.6,2.9c0.2,0.9,0.3,2,0.3,3.1c0,1.2,0,2.4,0,3.5c0,1.1-0.1,2.1-0.3,3.1
					c-0.3,1.2-0.8,2.2-1.6,3.1c-0.8,0.9-1.8,1.7-3.1,2.2c-1.2,0.5-2.6,0.9-4.4,1c-8.5,0.9-17.1,1.9-25.6,2.9c0,3.1,0,6.3,0,9.4
					C53,91.7,51.4,91.9,49.7,92.1z M54.7,77.1c9-1.1,18.1-2.1,27.2-3.1c1.6-0.2,2.8-1.6,2.8-3.1c0-1.8,0-3.5,0-5.3
					c0-1.6-1.3-2.7-2.8-2.5c-9.1,0.9-18.1,2-27.2,3.1C54.7,69.8,54.7,73.5,54.7,77.1z"/>
			</g>
			<g>
				<path fill="#FFFFFF" d="M323.4,84.2c-1.9-0.1-3.5-0.4-4.7-0.7c-1.5-0.4-2.7-1-3.6-1.7c-1-0.8-1.7-1.9-2.1-3.1
					c-0.3-1-0.5-2.2-0.5-3.5c0-4.5,0-9,0-13.5c0-1.3,0.1-2.5,0.5-3.5c0.4-1.2,1.1-2.2,2.1-2.9c0.9-0.6,2.1-1.1,3.6-1.3
					c1.3-0.2,2.8-0.2,4.7-0.1c6.7,0.5,13.4,1,20.1,1.5c1.9,0.2,3.5,0.4,4.7,0.8c1.5,0.4,2.6,1,3.6,1.8c1,0.9,1.7,1.9,2.1,3.2
					c0.3,1,0.5,2.2,0.5,3.5c0,4.5,0,9,0,13.5c0,1.3-0.1,2.5-0.5,3.5c-0.4,1.2-1.1,2.1-2.1,2.8c-0.9,0.6-2.1,1-3.6,1.2
					c-1.3,0.1-2.8,0.1-4.7,0C336.8,85.2,330.1,84.7,323.4,84.2z M320.4,58.7c-1.6-0.1-2.8,1.1-2.8,2.6c0,4.9,0,9.8,0,14.7
					c0,1.6,1.3,2.9,2.8,3c0.8,0.1,1.7,0.1,2.5,0.2c0.2,0,0.4,0,0.6,0c6.7,0.5,13.3,1,20,1.5c0.1,0,0.3,0,0.4,0
					c0.9,0.1,1.8,0.1,2.7,0.2c1.6,0.1,2.8-1,2.8-2.6c0-4.9,0-9.8,0-14.7c0-1.6-1.3-2.9-2.8-3.1C337.8,60,329.1,59.3,320.4,58.7z"/>
			</g>
			<g>
				<path fill="#FFFFFF" d="M382,89.4c0-8.4,0-16.9,0-25.3c-5.9-0.6-11.8-1.3-17.7-1.8c0-1.6,0-3.3,0-4.9
					c13.4,1.3,26.9,2.8,40.3,4.5c0,1.6,0,3.3,0,4.9c-5.9-0.7-11.8-1.5-17.7-2.1c0,8.4,0,16.9,0,25.3C385.3,89.8,383.6,89.6,382,89.4
					z"/>
			</g>
			<g>
				<path fill="#FFFFFF" d="M261.1,81.3c0-10.1,0-20.2,0-30.2c12.9,0.3,25.8,0.8,38.6,1.5c0,1.6,0,3.3,0,4.9
					c-11.2-0.6-22.4-1-33.7-1.3c0,2.5,0,5,0,7.5c9.9,0.3,19.9,0.6,29.8,1.1c0,1.6,0,3.3,0,4.9c-9.9-0.5-19.9-0.9-29.8-1.1
					c0,2.6,0,5.3,0,7.9c11.2,0.3,22.5,0.7,33.7,1.3c0,1.6,0,3.3,0,4.9C286.8,82.1,274,81.7,261.1,81.3z"/>
			</g>
			<g>
				<path fill="#FFFFFF" d="M218.3,81c-1.9,0-3.5-0.1-4.7-0.3c-1.5-0.3-2.7-0.8-3.6-1.5c-1-0.8-1.7-1.8-2.1-3
					c-0.3-1-0.5-2.1-0.5-3.5c0-4.5,0-8.9,0-13.4c0-2.9,0.8-5.1,2.2-6.5c1.5-1.4,3.9-2.1,7.6-2.1c9.5-0.1,19.1,0,28.6,0.1
					c0,1.6,0,3.3,0,4.9c-10.2-0.1-20.4-0.2-30.7-0.1c-1.6,0-2.8,1.3-2.8,2.9c0,4.7,0,9.4,0,14.1c0,0.2,0,0.4,0,0.6
					c0,1.6,1.3,2.8,2.8,2.8c0.8,0,1.6,0,2.5,0c0.2,0,0.4,0,0.6,0c8.3-0.1,16.6,0,24.9,0.1c0-2.6,0-5.3,0-7.9
					c-5.4-0.1-10.7-0.1-16.1-0.1c0-1.6,0-3.3,0-4.9c7,0,14,0.1,21,0.2c0,5.9,0,11.9,0,17.8C238.2,80.9,228.2,80.9,218.3,81z"/>
			</g>
			<g>
				<path fill="#FFFFFF" d="M164.6,82.3c-1.9,0.1-3.5,0-4.7-0.2c-1.5-0.2-2.7-0.7-3.6-1.3c-1-0.7-1.7-1.7-2.1-2.9
					c-0.3-1-0.5-2.1-0.5-3.5c0-7.3,0-14.5,0-21.8c1.7-0.1,3.3-0.2,5-0.2c0,7.5,0,14.9,0,22.4c0,1.6,1.3,2.8,2.8,2.7
					c8.4-0.4,16.8-0.7,25.2-0.9c1.6,0,2.8-1.3,2.8-2.9c0-7.5,0-14.9,0-22.4c1.7,0,3.3-0.1,5-0.1c0,7.3,0,14.5,0,21.8
					c0,1.3-0.1,2.5-0.5,3.5c-0.4,1.2-1.1,2.3-2.1,3.1c-0.9,0.7-2.1,1.3-3.6,1.6c-1.3,0.3-2.8,0.5-4.7,0.5
					C177.3,81.8,170.9,82,164.6,82.3z"/>
			</g>
		</g>
		<path fill="#FFFFFF" d="M443.3,29c-73.7-12.7-146.2-18.7-216.1-18.7S84.7,16.3,11.1,29c-1.1,29.5-2.3,75.1-0.2,113.8
			C15.5,229,34.5,296,70.7,353.4c36,57.3,91.8,106.6,156.6,135.9C292,460,347.7,410.8,383.8,353.4c36.1-57.5,55.1-124.4,59.8-210.7
			C445.7,104.1,444.4,58.5,443.3,29z M435.3,142.3c-4.6,84.8-23.2,150.5-58.6,206.7c-35.3,56.2-88.3,102.7-149.5,131.1
			C166,451.7,113,405.3,77.7,349c-35.3-56.2-54-121.9-58.6-206.7c-1.5-27.7-1.5-62.5,0-106.3c69.2-11.6,139.2-17.4,208.1-17.4
			s138.9,5.9,208.1,17.4C436.8,79.8,436.8,114.6,435.3,142.3z"/>
	</g>
</g>
</svg>
