<svg class="svg-icon" style="width: 1em;height: 1em;vertical-align: middle;fill: currentColor;overflow: hidden;" viewBox="0 0 1024 1024" version="1.1" xmlns="http://www.w3.org/2000/svg"><path d="M348.128 721.44H106.72V316.736h229.568v44.96H161.184v125.44h160.928v44.96H161.184v144.352h186.976v44.992zM658.176 560.512c-1.6 59.968-14.208 102.592-37.856 127.808-23.648 25.248-52.064 37.856-85.216 37.856-37.856 0-70.208-15.392-97.024-46.144-26.848-30.752-40.224-80.064-40.224-147.904 0-74.144 13.024-129.344 39.04-165.664 26.048-36.288 59.52-54.432 100.576-54.432 34.688 0 63.488 13.024 86.368 39.04 22.848 26.048 33.504 62.72 31.936 110.048h-52.064c0-34.688-5.536-60.736-16.576-78.112-11.072-17.344-27.616-26.048-49.696-26.048-25.248 0-45.376 13.024-60.352 39.04-15.008 26.048-22.496 69.824-22.496 131.36 0 56.8 7.456 96.672 22.496 119.52 14.976 22.88 34.304 34.304 57.984 34.304 17.344 0 33.152-8.288 47.328-24.864 14.208-16.576 21.312-48.512 21.312-95.84h54.464zM958.72 517.888c0 74.176-11.456 127.424-34.304 159.744-22.88 32.352-54.848 48.512-95.84 48.512-41.056 0-73.376-16.16-97.024-48.512-23.68-32.32-35.488-85.568-35.488-159.744 0-74.144 11.84-126.976 35.488-158.56 23.68-31.552 56-47.328 97.024-47.328s72.96 15.776 95.84 47.328c22.848 31.584 34.304 84.416 34.304 158.56z m-56.8 0c0-66.272-7.104-109.632-21.312-130.176-14.208-20.48-31.584-30.752-52.064-30.752-20.512 0-38.272 10.272-53.248 30.752-15.008 20.512-22.496 63.904-22.496 130.176s7.456 110.048 22.496 131.36c14.976 21.312 32.736 31.936 53.248 31.936 20.48 0 37.856-10.656 52.064-31.936s21.312-65.088 21.312-131.36z" fill="#454b55" /></svg>