<svg class="svg-icon" style="width: 1em;height: 1em;vertical-align: middle;fill: currentColor;overflow: hidden;" viewBox="0 0 1024 1024" version="1.1" xmlns="http://www.w3.org/2000/svg"><path d="M236.32 230.304h55.808L255.616 284.192v21.536l1.056 134.4c0 21.824 16.384 39.872 37.504 42.528v31.232c0 4.256 3.456 7.712 7.712 7.712h65.6c4.256 0 7.712-3.456 7.712-7.712V480.96c5.728-1.728 11.136-4.512 15.872-8.288l20.8-16.64h272.544l20.8 16.64c4.704 3.776 10.112 6.56 15.872 8.288v32.928c0 4.256 3.456 7.712 7.712 7.712h65.6c4.256 0 7.712-3.456 7.712-7.712v-31.232c21.12-2.656 37.504-20.704 37.504-42.528l1.056-134.4v-21.536L804.16 230.304h55.808c22.368 0 22.336-34.72 0-34.72h-79.328L732.896 125.12c-14.112-23.904-40-38.72-67.776-38.72h-233.888c-27.776 0-53.664 14.816-67.776 38.72L315.68 195.584H236.352c-22.368 0-22.4 34.72-0.032 34.72z m159.424-84.096l0.736-1.184a40.192 40.192 0 0 1 34.752-20.064h233.888c14.272 0 27.616 7.68 34.752 20.064l0.736 1.184 33.472 49.376H362.272l33.472-49.376z m-101.536 156.48c1.376 0.576 2.848 0.928 4.416 0.928h72.96c3.52 0 6.816-1.6 9.024-4.32l27.84-34.784c6.048-7.552 0.672-18.752-9.024-18.752h-71.136l10.464-15.424h418.848l10.464 15.424h-71.136c-9.664 0-15.072 11.2-9.024 18.752l27.84 34.784c2.176 2.752 5.504 4.32 9.024 4.32h72.96c1.6 0 3.072-0.352 4.416-0.928v2.88l-1.056 134.4c0 2.56-1.952 4.512-4.32 4.512h-61.952c-1.952 0-3.904-0.672-5.44-1.92l-63.04-50.432c-7.584-6.08-17.088-9.408-26.816-9.408h-182.688c-9.696 0-19.232 3.328-26.816 9.408l-63.04 50.432c-1.536 1.216-3.456 1.92-5.44 1.92H299.584c-2.4 0-4.32-1.952-4.32-4.512l-1.056-134.4v-2.88zM400 560H307.2s86.4 58.656 67.2 88c-19.2 29.344-193.856 65.632-227.2 79.2-28.8 11.744-86.4 44-41.6 88S176 876.8 182.4 876.8h121.6s-96.032-60.288-67.2-105.6c22.4-35.2 280.416-64.608 249.6-117.344-48-82.112-86.4-93.856-86.4-93.856zM899.2 653.856C851.2 571.744 812.8 560 812.8 560h-92.8s86.4 58.656 67.2 88c-19.2 29.344-193.856 65.632-227.2 79.2-28.8 11.744-86.4 44-41.6 88S588.8 876.8 595.2 876.8h121.6s-96.032-60.288-67.2-105.6c22.4-35.2 280.416-64.608 249.6-117.344z" fill="#F4AE00" /></svg>