<svg class="svg-icon" style="width: 1em;height: 1em;vertical-align: middle;fill: currentColor;overflow: hidden;" viewBox="0 0 1024 1024" version="1.1" xmlns="http://www.w3.org/2000/svg"><path d="M509.984 745.504c-10.048 0.704-19.424 3.552-27.744 8.064l-74.016-43.488 47.296 69.44a68.0768 68.0768 0 0 0-8.992 38.976c2.624 37.664 35.296 66.08 72.992 63.456s66.08-35.296 63.456-72.992c-2.656-37.696-35.328-66.112-72.992-63.456z" fill="#454b55" /><path d="M189.952 828.8h104.832v-38.4H194.816c12.448-66.56 44.96-126.144 91.04-172.192l70.944 70.944 27.168-27.168-69.376-69.344c51.488-40.736 115.392-66.464 184.992-70.496V620.8h38.4v-98.624c69.312 4 132.96 29.504 184.32 69.92l-69.888 69.888 27.136 27.168 71.52-71.52c46.368 46.144 79.136 105.92 91.648 172.768h-101.184v38.4h157.376c-6.4-109.696-59.456-207.104-139.584-272.544l-0.608-0.608-0.064 0.064c-60.896-49.536-137.312-80.672-220.704-84.832h-38.4c-83.712 4.192-160.384 35.52-221.376 85.376l-0.608-0.608-6.912 6.912c-75.872 65.344-125.824 160-132 266.24h51.296zM202.336 427.36v-246.4h48.384v213.568h130.432v32.832H202.336zM437.728 427.36v-246.4h48.384v246.4h-48.384zM569.024 427.36v-246.4h55.52l56.544 124.768c3.552 8.16 6.944 16.384 10.208 24.672s6.656 16.544 10.208 24.832h2.048c3.552-8.288 6.88-16.544 10.016-24.832 3.136-8.256 6.464-16.48 10.016-24.672l55.712-124.768H835.2v246.4h-45.12V305.696c0-7.392 0.352-15.584 1.024-24.576s1.536-17.984 2.56-27.04c1.024-9.024 1.952-17.248 2.752-24.672h-1.632l-24.704 56.832-53.472 117.408h-30.208l-53.888-117.408-24.288-56.832h-1.632c0.672 7.392 1.504 15.616 2.464 24.672 0.96 9.024 1.76 18.048 2.432 27.04 0.672 8.992 1.024 17.184 1.024 24.576v121.664h-43.488z" fill="#454b55" /></svg>