<svg class="svg-icon" style="width: 1em;height: 1em;vertical-align: middle;fill: currentColor;overflow: hidden;" viewBox="0 0 1024 1024" version="1.1" xmlns="http://www.w3.org/2000/svg"><path d="M852 265.184c15.264-11.712 25.184-30.08 25.184-50.784 0-36.256-30.144-65.472-66.752-63.936-32.544 1.376-59.36 27.872-61.152 60.384-0.64 11.616 1.888 22.528 6.688 32.128l-0.416 0.224c0.416 0.48 0.832 1.024 1.248 1.536a64.544 64.544 0 0 0 9.856 13.568c18.944 29.056 52.48 82.752 75.296 116.096 33.856 49.472 45.568 75.904 51.2 102.4 6.208 29.184 0 64 0 64 0 27.36-29.568 93.056-60.8 150.4-32.48 59.68-69.984 95.264-80 102.4h-476.8c-10.016-7.136-47.52-42.72-80-102.4-31.232-57.344-60.8-123.04-60.8-150.4 0 0-6.208-34.816 0-64 5.632-26.496 17.344-52.928 51.2-102.4 22.816-33.344 56.352-87.04 75.296-116.096a63.424 63.424 0 0 0 9.856-13.568c0.416-0.512 0.832-1.056 1.248-1.536l-0.384-0.224c4.8-9.6 7.328-20.544 6.688-32.128-1.792-32.512-28.608-59.04-61.152-60.384-36.608-1.536-66.752 27.68-66.752 63.936 0 20.736 9.888 39.104 25.184 50.784C131.104 323.36 80.352 422.4 80.352 496l3.2 57.6c0 57.344 48.448 147.808 63.296 174.176 16.704 29.632 34.528 56.864 50.24 76.64 1.664 2.08 3.264 4.032 4.864 5.952V886.4h99.2v-51.2h54.4v51.2h73.6v-51.2h54.4v51.2h70.4v-51.2h54.4v51.2h67.2v-51.2h54.4v51.2h96v-76.032c1.6-1.92 3.2-3.872 4.864-5.952 15.712-19.808 33.568-47.008 50.24-76.64 14.848-26.368 63.296-116.8 63.296-174.176l3.2-57.6c0-73.6-50.752-172.64-95.552-230.816z" fill="#F4AE00" /><path d="M554.56 545.28V265.984c0-52.256-81.216-52.352-81.216 0v279.296c0 52.256 81.216 52.352 81.216 0z" fill="#F4AE00" /><path d="M513.952 672.928m-50.272 0a50.272 50.272 0 1 0 100.544 0 50.272 50.272 0 1 0-100.544 0Z" fill="#F4AE00" /></svg>