<svg class="svg-icon" style="width: 1em;height: 1em;vertical-align: middle;fill: currentColor;overflow: hidden;" viewBox="0 0 1024 1024" version="1.1" xmlns="http://www.w3.org/2000/svg"><path d="M922.72 750.656L572.896 198.592c-13.536-21.344-36.704-34.112-61.984-34.112s-48.448 12.736-61.984 34.112L99.136 750.656c-14.528 22.944-15.392 50.848-2.304 74.624 13.088 23.808 37.12 38.016 64.288 38.016h699.616c27.168 0 51.2-14.208 64.288-38.016 13.088-23.776 12.224-51.68-2.304-74.624z m-42.56 49.952c-1.888 3.456-7.584 11.488-19.424 11.488H161.12c-11.84 0-17.536-8.032-19.424-11.488-1.888-3.456-5.632-12.544 0.704-22.56L492.224 226.016c5.888-9.312 15.072-10.304 18.72-10.304s12.832 0.992 18.72 10.304l349.824 552.064c6.304 9.952 2.592 19.072 0.672 22.528z" fill="#454b55" /><path d="M544.544 614.4v-249.6c0-43.232-67.2-43.296-67.2 0v249.6c0 43.232 67.2 43.296 67.2 0z" fill="#454b55" /><path d="M510.944 720m-41.6 0a41.6 41.6 0 1 0 83.2 0 41.6 41.6 0 1 0-83.2 0Z" fill="#454b55" /></svg>